<svg xmlns="http://www.w3.org/2000/svg" xmlns:xlink="http://www.w3.org/1999/xlink" viewBox="-20.86 357.50 824.98 85.00" width="824.98px" height="85.00px" class="use-case-tree-svg">
  <rect width="100%" height="100%" fill="transparent" />
  <line x1="158.98" y1="375.00" x2="168.98" y2="375.00" stroke="#FF6F00" stroke-width="1.5" />
  <path d="M 168.98 375.00 C 186.98 375.00, 190.98 375.00, 208.98 375.00" stroke="#FF6F00" stroke-width="1.5" fill="none" />
  <path d="M 345.00 375.00 C 369.75 375.00, 375.25 375.00, 400.00 375.00" stroke="#FF6F00" stroke-width="1.5" fill="none" />
  <path d="M 345.00 375.00 C 369.75 375.00, 375.25 400.00, 400.00 400.00" stroke="#FF6F00" stroke-width="1.5" fill="none" />
  <path d="M 345.00 375.00 C 369.75 375.00, 375.25 425.00, 400.00 425.00" stroke="#FF6F00" stroke-width="1.5" fill="none" />
  <line x1="517.61" y1="375.00" x2="610.69" y2="375.00" stroke="#FF6F00" stroke-width="1.5" />
  <path d="M 610.69 375.00 C 635.44 375.00, 640.94 400.00, 665.69 400.00" stroke="#FF6F00" stroke-width="1.5" fill="none" />
  <a xlink:href="/use-case/supply-chain-management/" target="_top">
    <rect x="-15.86" y="362.50" width="174.84" height="25" rx="4" ry="4" fill="none" stroke="none" pointer-events="all" />
    <text x="-5.86" y="379.50" text-anchor="start" font-family="Roboto, sans-serif" font-size="13" fill="#4051B5" font-weight="normal">Supply Chain Management</text>
  </a>
  <a xlink:href="/use-case/supply-chain-management/vendor-management/" target="_top">
    <rect x="208.98" y="362.50" width="141.02" height="25" rx="4" ry="4" fill="none" stroke="none" pointer-events="all" />
    <text x="218.98" y="379.50" text-anchor="start" font-family="Roboto, sans-serif" font-size="13" fill="#4051B5" font-weight="normal">Vendor Management</text>
  </a>
  <a xlink:href="/use-case/supply-chain-management/vendor-management/vendor-lifecycle/" target="_top">
    <rect x="400.00" y="362.50" width="117.61" height="25" rx="4" ry="4" fill="#4051B5" stroke="#FF6F00" stroke-width="1.5" />
    <text x="410.00" y="379.50" text-anchor="start" font-family="Roboto, sans-serif" font-size="13" fill="#FFFFFF" font-weight="bold">Vendor Lifecycle</text>
  </a>
  <a xlink:href="/use-case/supply-chain-management/vendor-management/vendor-lifecycle/vendor-offboarding/" target="_top">
    <rect x="665.69" y="387.50" width="133.44" height="25" rx="4" ry="4" fill="none" stroke="none" pointer-events="all" />
    <text x="675.69" y="404.50" text-anchor="start" font-family="Roboto, sans-serif" font-size="13" fill="#4051B5" font-weight="normal">Vendor Offboarding</text>
  </a>
  <a xlink:href="/use-case/supply-chain-management/vendor-management/vendor-relationship-management/" target="_top">
    <rect x="400.00" y="387.50" width="215.69" height="25" rx="4" ry="4" fill="none" stroke="none" pointer-events="all" />
    <text x="410.00" y="404.50" text-anchor="start" font-family="Roboto, sans-serif" font-size="13" fill="#4051B5" font-weight="normal">Vendor Relationship Management</text>
  </a>
  <a xlink:href="/use-case/supply-chain-management/vendor-management/vendor-vetting-and-onboarding/" target="_top">
    <rect x="400.00" y="412.50" width="187.12" height="25" rx="4" ry="4" fill="none" stroke="none" pointer-events="all" />
    <text x="410.00" y="429.50" text-anchor="start" font-family="Roboto, sans-serif" font-size="13" fill="#4051B5" font-weight="normal">Vendor Vetting &amp; Onboarding</text>
  </a>
</svg>