<svg xmlns="http://www.w3.org/2000/svg" xmlns:xlink="http://www.w3.org/1999/xlink" viewBox="-22.61 357.50 826.08 85.00" width="826.08px" height="85.00px" class="use-case-tree-svg">
  <rect width="100%" height="100%" fill="transparent" />
  <line x1="159.27" y1="375.00" x2="169.27" y2="375.00" stroke="#FF6F00" stroke-width="1.5" />
  <path d="M 169.27 375.00 C 187.27 375.00, 191.27 375.00, 209.27 375.00" stroke="#FF6F00" stroke-width="1.5" fill="none" />
  <path d="M 345.00 375.00 C 369.75 375.00, 375.25 375.00, 400.00 375.00" stroke="#FF6F00" stroke-width="1.5" fill="none" />
  <path d="M 345.00 375.00 C 369.75 375.00, 375.25 400.00, 400.00 400.00" stroke="#FF6F00" stroke-width="1.5" fill="none" />
  <path d="M 345.00 375.00 C 369.75 375.00, 375.25 425.00, 400.00 425.00" stroke="#FF6F00" stroke-width="1.5" fill="none" />
  <line x1="523.33" y1="375.00" x2="610.92" y2="375.00" stroke="#FF6F00" stroke-width="1.5" />
  <path d="M 610.92 375.00 C 635.67 375.00, 641.17 400.00, 665.92 400.00" stroke="#FF6F00" stroke-width="1.5" fill="none" />
  <a xlink:href="/use-case/supply-chain-management/" target="_top">
    <rect x="-17.61" y="362.50" width="176.88" height="25" rx="4" ry="4" fill="none" stroke="none" pointer-events="all" />
    <text x="-7.61" y="379.50" text-anchor="start" font-family="Roboto, sans-serif" font-size="13" fill="#4051B5" font-weight="normal">Supply Chain Management</text>
  </a>
  <a xlink:href="/use-case/supply-chain-management/vendor-management/" target="_top">
    <rect x="209.27" y="362.50" width="140.73" height="25" rx="4" ry="4" fill="none" stroke="none" pointer-events="all" />
    <text x="219.27" y="379.50" text-anchor="start" font-family="Roboto, sans-serif" font-size="13" fill="#4051B5" font-weight="normal">Vendor Management</text>
  </a>
  <a xlink:href="/use-case/supply-chain-management/vendor-management/vendor-lifecycle/" target="_top">
    <rect x="400.00" y="362.50" width="123.33" height="25" rx="4" ry="4" fill="#4051B5" stroke="#FF6F00" stroke-width="1.5" />
    <text x="410.00" y="379.50" text-anchor="start" font-family="Roboto, sans-serif" font-size="13" fill="#FFFFFF" font-weight="bold">Vendor Lifecycle</text>
  </a>
  <a xlink:href="/use-case/supply-chain-management/vendor-management/vendor-lifecycle/vendor-offboarding/" target="_top">
    <rect x="665.92" y="387.50" width="132.55" height="25" rx="4" ry="4" fill="none" stroke="none" pointer-events="all" />
    <text x="675.92" y="404.50" text-anchor="start" font-family="Roboto, sans-serif" font-size="13" fill="#4051B5" font-weight="normal">Vendor Offboarding</text>
  </a>
  <a xlink:href="/use-case/supply-chain-management/vendor-management/vendor-relationship-management/" target="_top">
    <rect x="400.00" y="387.50" width="215.92" height="25" rx="4" ry="4" fill="none" stroke="none" pointer-events="all" />
    <text x="410.00" y="404.50" text-anchor="start" font-family="Roboto, sans-serif" font-size="13" fill="#4051B5" font-weight="normal">Vendor Relationship Management</text>
  </a>
  <a xlink:href="/use-case/supply-chain-management/vendor-management/vendor-vetting-and-onboarding/" target="_top">
    <rect x="400.00" y="412.50" width="188.45" height="25" rx="4" ry="4" fill="none" stroke="none" pointer-events="all" />
    <text x="410.00" y="429.50" text-anchor="start" font-family="Roboto, sans-serif" font-size="13" fill="#4051B5" font-weight="normal">Vendor Vetting &amp; Onboarding</text>
  </a>
</svg>