<svg xmlns="http://www.w3.org/2000/svg" xmlns:xlink="http://www.w3.org/1999/xlink" contentStyleType="text/css" data-diagram-type="MINDMAP" height="127px" preserveAspectRatio="none" style="width:701px;height:127px;" version="1.1" viewBox="0 0 701 127" width="701px" zoomAndPan="magnify"><defs/><g><polygon fill="#4051B5" points="259.4951,44.4453,259.4951,44.6555,269.5994,44.031,279.7037,44.6386,289.808,44.845,299.9123,43.7319,310.0166,44.3676,320.121,44.0188,330.2253,44.0618,340.3296,44.3772,350.4339,43.7539,360.5382,44.999,370.6425,43.815,380.7468,44.2475,390.8511,44.8773,400.9554,44.3595,411.0597,44.5136,421.164,44.4134,431.2683,44.6238,441.3726,44.6844,451.4769,45.031,461.5812,45.1164,471.6855,44.4453,471.7722,44.6545,472.2837,44.758,472.8761,45.0567,473.4722,45.3645,473.8563,45.1605,474.514,45.6169,474.7229,45.7034,474.657,46.1447,475.147,46.8163,475.0645,47.2508,475.4301,47.8709,475.6855,48.4453,475.9327,48.4453,475.6693,54.1047,475.7206,59.7641,475.7984,65.4234,475.8243,71.0828,475.6855,76.7422,475.6843,76.7417,475.5397,77.3445,475.0406,77.8005,475.0702,78.4755,474.9171,79.0749,474.514,79.5706,474.5707,79.7075,474.0265,79.9937,473.321,79.8905,472.7337,80.0727,472.172,80.3165,471.6855,80.7422,471.6855,80.6833,461.5812,80.5457,451.4769,81.4236,441.3726,80.5675,431.2683,80.3991,421.164,80.9705,411.0597,80.0753,400.9554,80.2231,390.8511,81.3911,380.7468,81.1779,370.6425,81.4767,360.5382,80.4204,350.4339,81.0614,340.3296,81.3326,330.2253,80.2698,320.121,80.6463,310.0166,80.8682,299.9123,81.3939,289.808,80.738,279.7037,81.2048,269.5994,80.1884,259.4951,80.7422,259.4087,80.5336,258.9937,80.663,258.2723,80.0528,257.863,80.196,257.2587,79.8686,256.6667,79.5706,256.5842,79.5364,256.3234,78.9598,256.3393,78.4978,255.8716,77.8354,255.9117,77.3834,255.4951,76.7422,255.3109,76.7422,255.7009,71.0828,255.6566,65.4234,255.5768,59.7641,255.5109,54.1047,255.4951,48.4453,255.7189,48.538,255.9184,47.9579,256.0159,47.3355,256.2807,46.7825,256.3923,46.166,256.6667,45.6169,256.7581,45.8375,257.2521,45.4303,257.8201,45.2014,258.2861,44.7266,258.8777,44.5548,259.4951,44.4453" style="stroke:#FF6F00;stroke-width:1.5;"/><text fill="#FFFFFF" font-family="'Roboto'" font-size="14" lengthAdjust="spacing" textLength="200.1904" x="265.4951" y="67.4404">Relationships &amp; Connections</text><a href="/use-case/client-360/relationships-and-connections/business-connections/" target="_top" title="/use-case/client-360/relationships-and-connections/business-connections/" xlink:actuate="onRequest" xlink:href="/use-case/client-360/relationships-and-connections/business-connections/" xlink:show="new" xlink:title="/use-case/client-360/relationships-and-connections/business-connections/" xlink:type="simple"><text fill="#90EE90" font-family="'Roboto'" font-size="14" lengthAdjust="spacing" textLength="152.6943" x="532.6855" y="27.9951">Business Connections</text></a><path d="M475.6855,62.5938 L475.6855,62.7806 L477.6855,62.2255 L479.6855,62.7656 L481.6855,62.949 L483.6855,61.9596 L485.6855,62.5938 L485.6855,62.5938 L485.6659,62.5653 L487.3589,61.2052 L489.1511,59.9883 L491.0121,58.8708 L492.6357,57.4104 L494.5918,56.4304 L494.8162,56.5313 L495.555,53.6037 L496.9491,50.9707 L498.4232,48.3735 L499.432,45.5673 L500.6855,42.8711 L500.7132,42.8835 L501.8913,40.1534 L503.1954,37.4799 L504.4387,34.7791 L505.798,32.1303 L506.7793,29.3118 L506.949,29.557 L508.7323,28.3273 L510.4062,26.9395 L512.2403,25.7832 L514.0819,24.6377 L515.6855,23.1484 L515.6855,22.5074 L517.6855,23.7516 L519.6855,22.8849 L521.6855,23.6229 L523.6855,22.7084 L525.6855,23.1484" fill="none" style="stroke:#FF9900;stroke-width:1;"/><a href="/use-case/client-360/relationships-and-connections/family-connections/" target="_top" title="/use-case/client-360/relationships-and-connections/family-connections/" xlink:actuate="onRequest" xlink:href="/use-case/client-360/relationships-and-connections/family-connections/" xlink:show="new" xlink:title="/use-case/client-360/relationships-and-connections/family-connections/" xlink:type="simple"><text fill="#90EE90" font-family="'Roboto'" font-size="14" lengthAdjust="spacing" textLength="137.293" x="532.6855" y="54.292">Family Connections</text></a><path d="M475.6855,62.5938 L475.6855,62.7806 L477.6855,62.2255 L479.6855,62.7656 L481.6855,62.949 L483.6855,61.9596 L485.6855,62.5938 L485.6855,62.5938 L485.6717,62.5621 L488.6095,61.1053 L491.6171,59.808 L494.6734,58.6215 L497.5622,57.0529 L500.6855,56.0195 L500.7843,56.2449 L503.5731,54.4481 L506.6503,53.3093 L509.7626,52.2508 L512.6702,50.7252 L515.6855,49.4453 L515.6855,49.506 L517.6855,49.4169 L519.6855,49.604 L521.6855,49.6579 L523.6855,49.9659 L525.6855,49.4453" fill="none" style="stroke:#FF9900;stroke-width:1;"/><a href="/use-case/client-360/relationships-and-connections/political-connections/" target="_top" title="/use-case/client-360/relationships-and-connections/political-connections/" xlink:actuate="onRequest" xlink:href="/use-case/client-360/relationships-and-connections/political-connections/" xlink:show="new" xlink:title="/use-case/client-360/relationships-and-connections/political-connections/" xlink:type="simple"><text fill="#90EE90" font-family="'Roboto'" font-size="14" lengthAdjust="spacing" textLength="145.291" x="532.6855" y="80.5889">Political Connections</text></a><path d="M475.6855,62.5938 L475.6855,62.7806 L477.6855,62.2255 L479.6855,62.7656 L481.6855,62.949 L483.6855,61.9596 L485.6855,62.5938 L485.6855,62.5938 L485.6717,62.5621 L488.6095,63.735 L491.6171,65.0673 L494.6734,66.5105 L497.5622,67.5717 L500.6855,69.168 L500.7843,69.3933 L503.5731,70.2262 L506.6503,71.7172 L509.7626,73.2883 L512.6702,74.3924 L515.6855,75.7422 L515.6855,75.8028 L517.6855,75.7138 L519.6855,75.9009 L521.6855,75.9548 L523.6855,76.2628 L525.6855,75.7422" fill="none" style="stroke:#FF9900;stroke-width:1;"/><a href="/use-case/client-360/relationships-and-connections/social-connections/" target="_top" title="/use-case/client-360/relationships-and-connections/social-connections/" xlink:actuate="onRequest" xlink:href="/use-case/client-360/relationships-and-connections/social-connections/" xlink:show="new" xlink:title="/use-case/client-360/relationships-and-connections/social-connections/" xlink:type="simple"><text fill="#90EE90" font-family="'Roboto'" font-size="14" lengthAdjust="spacing" textLength="132.4668" x="532.6855" y="106.8857">Social Connections</text></a><path d="M475.6855,62.5938 L475.6855,62.7806 L477.6855,62.2255 L479.6855,62.7656 L481.6855,62.949 L483.6855,61.9596 L485.6855,62.5938 L485.6855,62.5938 L485.6659,62.5653 L487.3589,63.6705 L489.1511,64.9189 L491.0121,66.2668 L492.6357,67.2717 L494.5918,68.7571 L494.8162,68.8579 L495.555,71.3541 L496.9491,74.1448 L498.4232,76.9714 L499.432,79.5889 L500.6855,82.3164 L500.7132,82.3288 L501.8913,85.0225 L503.1954,87.7727 L504.4387,90.4956 L505.798,93.2706 L506.7793,95.8757 L506.949,96.121 L508.7323,97.3566 L510.4062,98.4341 L512.2403,99.7432 L514.0819,101.063 L515.6855,102.0391 L515.6855,101.398 L517.6855,102.6422 L519.6855,101.7755 L521.6855,102.5136 L523.6855,101.599 L525.6855,102.0391" fill="none" style="stroke:#FF9900;stroke-width:1;"/><a href="/use-case/client-360/" target="_top" title="/use-case/client-360/" xlink:actuate="onRequest" xlink:href="/use-case/client-360/" xlink:show="new" xlink:title="/use-case/client-360/" xlink:type="simple"><text fill="#90EE90" font-family="'Roboto'" font-size="14" lengthAdjust="spacing" textLength="184.4951" x="14" y="67.4404">Client 360 / Customer 360</text></a><path d="M255.4951,62.5938 L255.4951,62.7806 L253.4951,62.2255 L251.4951,62.7656 L249.4951,62.949 L247.4951,61.9596 L245.4951,62.5938 L245.4951,62.5938 L245.4951,62.5592 L239.4951,62.4042 L233.4951,62.4233 L227.4951,62.5635 L221.4951,62.2865 L215.4951,62.5938 L215.4951,63.0859 L213.4951,62.0335 L211.4951,62.418 L209.4951,62.9777 L207.4951,62.5175 L205.4951,62.5938" fill="none" style="stroke:#FF9900;stroke-width:1;"/><!--SRC=[xLfjRnev4Fw-lyBNI9TMEHf8awYDgYg4GDg410H9fLDLHMRNW8NNtjfUSjpf_llDBY_hNPRbBTiakl89xF4ypynwxPb7d2gDfNOfTrpi8KaOrbHmrQUUAc3k56p1ER73CSlwpI5ToWawkxY_Bd-vkQyqweqM2ZyxXyMZKkV8D6bNAusRytBhpubTYacpNBagNrHdZkPC6gtpQil4GJlTxd6tM9oPr1etjp63q2JuM9OQKEvXYLtKmVQW9uNFdOfWGauDjSHSWGNXsZ3-FFA8h5C-C6tH3gEzlkv9GhXbxIBARUOx1Ea-GJt2YSGCpLmer8M57Q7xVw1m6O9S8WVB0QpK0eaXaG-IQe8UgEwFVT0XuKWHhIdlgMG6RZz_gLpTLDjjL8B78BpWWQ0-E0syQ5ZOnKmH8uOcTXnmX0wDiTOuVWbaqNjZlDt7ZdW8h9DUmammoCGTTy8lP69Ys9oJBlQPHlzO2DK4rpVO9UXLIq3qujLaR9p8w55DXjlqRu9AXzQ_fh-obE8XzBPWrI9dUiGWNu8vSNyUF7hS8pD-ASlF4hiZjh-3UI4X_CcSiIK1ACBXmbaN9BRzLyMnXUi93Zis1DkO-aAUuppwBZk8vz716dUm8hd0nf1i9dpd9y08nYP7MqvW4LO53AHWkUES1Mwn7EKELEMQwlnXADT4Th5DSaTgany-uJPfmdL8RUfXhiVkRllK7d2Y51ozaRcQc8Uyp3LBACwvJsLhM4L76nVInMn-DkKThjCkWGkCP43CJ9OG3e_Z58XmFCD_EB-0NZWNvVLTC6Hh8PTo2OqoC8FvHI_-BgeSXeSRN7JmOsVfnpmh91mKcFSO-VWHRaGb-ATFuPDlm_OaGiCrcN4pFUQDCvsAifUi4EA7d46S_0LaEMRtUKMGAFXo2aEDb2RkIyv_NX7acF_fvV_IqX_nVidPDpPHPtB1J_adIlTaH665NLoj-jmu5yl275zV3bPzugmMUsheq8fg33UMN2Tsw2wMRxVS8b_r0KCJhiUbn3pPQKySp4KyfZrkC5hMMjAEhqdwjCbosZqdwcsir4z6tqNN4yr1USIcNMf34iPtSqfBjGclfM7ZgBBPgTK-V83vnAHP-bbxBLCSGRy7DVrC6YaKxj6tR_k-8WKRZfjzcr7eq0hlZelxg19-H_0TmGzVQU520mu_lt-tzlOMhilKOlOxlg81izWWEfkCcjosGUbYbx9H7ACMZZqMWYSOXM8MipX8SphyM3XAs3G9qWx74WYd1BRbU6jQrkawwbYESjCp5tQYrsvbLIU-9DNDMdfEj7RnIP5-8cGgE8_XDbkmoVQJpcKZYMPze1L5cMqTBv5XDd6_cl2odUTCgMKxrndYodQEi-MKxNpd9A14f1P89n6_3LIJw9rAaqmYrulKaeYTePD4JkT4aiXZGXz9h5b1736WaxA8WH9NH8mNS4Dn8_lSNdT7pM-GxSMBfsAujAzyyjGzBuPhI0fFnEkP9Yu7DI1Yj45q6J4iwVnB-RVwUKMsyEdy_rhvN_twhtxzcVJhJGRLtTrr7GsXIWZ-8b5wUr0yE7fRAdM8ngNYwpi-uEA1XpqPXQD9KvUyiLvVDEj82Lz2EUfGDNu9OFaRwn8FCMhvFB0xGGsFyClpg-a0rEb3AWLtWtx-ykjrP71yM3YZ6afY2KJGrsjhsajNkIs2zlq4tTtM2k-jEXnuFdIp9mZQ_0gyBbgEOAxz7m00]--></g></svg>