<svg xmlns="http://www.w3.org/2000/svg" xmlns:xlink="http://www.w3.org/1999/xlink" viewBox="395.00 -55.00 818.23 910.00" width="818.23px" height="910.00px" class="use-case-tree-svg">
  <rect width="100%" height="100%" fill="transparent" />
  <path d="M 501.73 400.00 C 526.48 400.00, 531.98 325.00, 556.73 325.00" stroke="#FF6F00" stroke-width="1.5" fill="none" />
  <path d="M 501.73 400.00 C 526.48 400.00, 531.98 350.00, 556.73 350.00" stroke="#FF6F00" stroke-width="1.5" fill="none" />
  <path d="M 501.73 400.00 C 526.48 400.00, 531.98 375.00, 556.73 375.00" stroke="#FF6F00" stroke-width="1.5" fill="none" />
  <path d="M 501.73 400.00 C 526.48 400.00, 531.98 400.00, 556.73 400.00" stroke="#FF6F00" stroke-width="1.5" fill="none" />
  <path d="M 501.73 400.00 C 526.48 400.00, 531.98 425.00, 556.73 425.00" stroke="#FF6F00" stroke-width="1.5" fill="none" />
  <path d="M 501.73 400.00 C 526.48 400.00, 531.98 450.00, 556.73 450.00" stroke="#FF6F00" stroke-width="1.5" fill="none" />
  <path d="M 501.73 400.00 C 526.48 400.00, 531.98 475.00, 556.73 475.00" stroke="#FF6F00" stroke-width="1.5" fill="none" />
  <line x1="628.05" y1="325.00" x2="826.88" y2="325.00" stroke="#FF6F00" stroke-width="1.5" />
  <path d="M 826.88 325.00 C 851.62 325.00, 857.12 -37.50, 881.88 -37.50" stroke="#FF6F00" stroke-width="1.5" fill="none" />
  <line x1="628.05" y1="325.00" x2="826.88" y2="325.00" stroke="#FF6F00" stroke-width="1.5" />
  <path d="M 826.88 325.00 C 851.62 325.00, 857.12 -12.50, 881.88 -12.50" stroke="#FF6F00" stroke-width="1.5" fill="none" />
  <line x1="628.05" y1="325.00" x2="826.88" y2="325.00" stroke="#FF6F00" stroke-width="1.5" />
  <path d="M 826.88 325.00 C 851.62 325.00, 857.12 12.50, 881.88 12.50" stroke="#FF6F00" stroke-width="1.5" fill="none" />
  <line x1="770.39" y1="350.00" x2="826.88" y2="350.00" stroke="#FF6F00" stroke-width="1.5" />
  <path d="M 826.88 350.00 C 851.62 350.00, 857.12 37.50, 881.88 37.50" stroke="#FF6F00" stroke-width="1.5" fill="none" />
  <line x1="770.39" y1="350.00" x2="826.88" y2="350.00" stroke="#FF6F00" stroke-width="1.5" />
  <path d="M 826.88 350.00 C 851.62 350.00, 857.12 62.50, 881.88 62.50" stroke="#FF6F00" stroke-width="1.5" fill="none" />
  <line x1="770.39" y1="350.00" x2="826.88" y2="350.00" stroke="#FF6F00" stroke-width="1.5" />
  <path d="M 826.88 350.00 C 851.62 350.00, 857.12 87.50, 881.88 87.50" stroke="#FF6F00" stroke-width="1.5" fill="none" />
  <line x1="770.39" y1="350.00" x2="826.88" y2="350.00" stroke="#FF6F00" stroke-width="1.5" />
  <path d="M 826.88 350.00 C 851.62 350.00, 857.12 112.50, 881.88 112.50" stroke="#FF6F00" stroke-width="1.5" fill="none" />
  <line x1="770.39" y1="350.00" x2="826.88" y2="350.00" stroke="#FF6F00" stroke-width="1.5" />
  <path d="M 826.88 350.00 C 851.62 350.00, 857.12 137.50, 881.88 137.50" stroke="#FF6F00" stroke-width="1.5" fill="none" />
  <line x1="770.39" y1="350.00" x2="826.88" y2="350.00" stroke="#FF6F00" stroke-width="1.5" />
  <path d="M 826.88 350.00 C 851.62 350.00, 857.12 162.50, 881.88 162.50" stroke="#FF6F00" stroke-width="1.5" fill="none" />
  <line x1="785.58" y1="375.00" x2="826.88" y2="375.00" stroke="#FF6F00" stroke-width="1.5" />
  <path d="M 826.88 375.00 C 851.62 375.00, 857.12 187.50, 881.88 187.50" stroke="#FF6F00" stroke-width="1.5" fill="none" />
  <line x1="785.58" y1="375.00" x2="826.88" y2="375.00" stroke="#FF6F00" stroke-width="1.5" />
  <path d="M 826.88 375.00 C 851.62 375.00, 857.12 212.50, 881.88 212.50" stroke="#FF6F00" stroke-width="1.5" fill="none" />
  <line x1="785.58" y1="375.00" x2="826.88" y2="375.00" stroke="#FF6F00" stroke-width="1.5" />
  <path d="M 826.88 375.00 C 851.62 375.00, 857.12 237.50, 881.88 237.50" stroke="#FF6F00" stroke-width="1.5" fill="none" />
  <line x1="785.58" y1="375.00" x2="826.88" y2="375.00" stroke="#FF6F00" stroke-width="1.5" />
  <path d="M 826.88 375.00 C 851.62 375.00, 857.12 262.50, 881.88 262.50" stroke="#FF6F00" stroke-width="1.5" fill="none" />
  <line x1="785.58" y1="375.00" x2="826.88" y2="375.00" stroke="#FF6F00" stroke-width="1.5" />
  <path d="M 826.88 375.00 C 851.62 375.00, 857.12 287.50, 881.88 287.50" stroke="#FF6F00" stroke-width="1.5" fill="none" />
  <line x1="798.61" y1="400.00" x2="826.88" y2="400.00" stroke="#FF6F00" stroke-width="1.5" />
  <path d="M 826.88 400.00 C 851.62 400.00, 857.12 312.50, 881.88 312.50" stroke="#FF6F00" stroke-width="1.5" fill="none" />
  <line x1="798.61" y1="400.00" x2="826.88" y2="400.00" stroke="#FF6F00" stroke-width="1.5" />
  <path d="M 826.88 400.00 C 851.62 400.00, 857.12 337.50, 881.88 337.50" stroke="#FF6F00" stroke-width="1.5" fill="none" />
  <line x1="798.61" y1="400.00" x2="826.88" y2="400.00" stroke="#FF6F00" stroke-width="1.5" />
  <path d="M 826.88 400.00 C 851.62 400.00, 857.12 362.50, 881.88 362.50" stroke="#FF6F00" stroke-width="1.5" fill="none" />
  <line x1="798.61" y1="400.00" x2="826.88" y2="400.00" stroke="#FF6F00" stroke-width="1.5" />
  <path d="M 826.88 400.00 C 851.62 400.00, 857.12 387.50, 881.88 387.50" stroke="#FF6F00" stroke-width="1.5" fill="none" />
  <line x1="798.61" y1="400.00" x2="826.88" y2="400.00" stroke="#FF6F00" stroke-width="1.5" stroke-dasharray="4 2" />
  <path d="M 826.88 400.00 C 851.62 400.00, 857.12 412.50, 881.88 412.50" stroke="#FF6F00" stroke-width="1.5" fill="none" stroke-dasharray="4 2" />
  <line x1="761.70" y1="425.00" x2="826.88" y2="425.00" stroke="#FF6F00" stroke-width="1.5" />
  <path d="M 826.88 425.00 C 851.62 425.00, 857.12 437.50, 881.88 437.50" stroke="#FF6F00" stroke-width="1.5" fill="none" />
  <line x1="761.70" y1="425.00" x2="826.88" y2="425.00" stroke="#FF6F00" stroke-width="1.5" />
  <path d="M 826.88 425.00 C 851.62 425.00, 857.12 462.50, 881.88 462.50" stroke="#FF6F00" stroke-width="1.5" fill="none" />
  <line x1="761.70" y1="425.00" x2="826.88" y2="425.00" stroke="#FF6F00" stroke-width="1.5" />
  <path d="M 826.88 425.00 C 851.62 425.00, 857.12 487.50, 881.88 487.50" stroke="#FF6F00" stroke-width="1.5" fill="none" />
  <line x1="761.70" y1="425.00" x2="826.88" y2="425.00" stroke="#FF6F00" stroke-width="1.5" />
  <path d="M 826.88 425.00 C 851.62 425.00, 857.12 512.50, 881.88 512.50" stroke="#FF6F00" stroke-width="1.5" fill="none" />
  <line x1="761.70" y1="425.00" x2="826.88" y2="425.00" stroke="#FF6F00" stroke-width="1.5" />
  <path d="M 826.88 425.00 C 851.62 425.00, 857.12 537.50, 881.88 537.50" stroke="#FF6F00" stroke-width="1.5" fill="none" />
  <line x1="761.70" y1="425.00" x2="826.88" y2="425.00" stroke="#FF6F00" stroke-width="1.5" />
  <path d="M 826.88 425.00 C 851.62 425.00, 857.12 562.50, 881.88 562.50" stroke="#FF6F00" stroke-width="1.5" fill="none" />
  <line x1="761.70" y1="425.00" x2="826.88" y2="425.00" stroke="#FF6F00" stroke-width="1.5" />
  <path d="M 826.88 425.00 C 851.62 425.00, 857.12 587.50, 881.88 587.50" stroke="#FF6F00" stroke-width="1.5" fill="none" />
  <line x1="761.70" y1="425.00" x2="826.88" y2="425.00" stroke="#FF6F00" stroke-width="1.5" />
  <path d="M 826.88 425.00 C 851.62 425.00, 857.12 612.50, 881.88 612.50" stroke="#FF6F00" stroke-width="1.5" fill="none" />
  <line x1="775.44" y1="450.00" x2="826.88" y2="450.00" stroke="#FF6F00" stroke-width="1.5" />
  <path d="M 826.88 450.00 C 851.62 450.00, 857.12 637.50, 881.88 637.50" stroke="#FF6F00" stroke-width="1.5" fill="none" />
  <line x1="775.44" y1="450.00" x2="826.88" y2="450.00" stroke="#FF6F00" stroke-width="1.5" />
  <path d="M 826.88 450.00 C 851.62 450.00, 857.12 662.50, 881.88 662.50" stroke="#FF6F00" stroke-width="1.5" fill="none" />
  <line x1="775.44" y1="450.00" x2="826.88" y2="450.00" stroke="#FF6F00" stroke-width="1.5" />
  <path d="M 826.88 450.00 C 851.62 450.00, 857.12 687.50, 881.88 687.50" stroke="#FF6F00" stroke-width="1.5" fill="none" />
  <line x1="775.44" y1="450.00" x2="826.88" y2="450.00" stroke="#FF6F00" stroke-width="1.5" />
  <path d="M 826.88 450.00 C 851.62 450.00, 857.12 712.50, 881.88 712.50" stroke="#FF6F00" stroke-width="1.5" fill="none" />
  <path d="M 826.88 475.00 C 851.62 475.00, 857.12 737.50, 881.88 737.50" stroke="#FF6F00" stroke-width="1.5" fill="none" />
  <path d="M 826.88 475.00 C 851.62 475.00, 857.12 762.50, 881.88 762.50" stroke="#FF6F00" stroke-width="1.5" fill="none" />
  <path d="M 826.88 475.00 C 851.62 475.00, 857.12 787.50, 881.88 787.50" stroke="#FF6F00" stroke-width="1.5" fill="none" />
  <path d="M 826.88 475.00 C 851.62 475.00, 857.12 812.50, 881.88 812.50" stroke="#FF6F00" stroke-width="1.5" fill="none" />
  <path d="M 826.88 475.00 C 851.62 475.00, 857.12 837.50, 881.88 837.50" stroke="#FF6F00" stroke-width="1.5" fill="none" />
  <a xlink:href="/use-case/cyber-security/" target="_top">
    <rect x="400.00" y="387.50" width="106.73" height="25" rx="4" ry="4" fill="#4051B5" stroke="#FF6F00" stroke-width="1.5" />
    <text x="410.00" y="404.50" text-anchor="start" font-family="Roboto, sans-serif" font-size="13" fill="#FFFFFF" font-weight="bold">Cybersecurity</text>
  </a>
  <a xlink:href="/use-case/cyber-security/contexts/" target="_top">
    <rect x="556.73" y="312.50" width="71.31" height="25" rx="4" ry="4" fill="none" stroke="none" pointer-events="all" />
    <text x="566.73" y="329.50" text-anchor="start" font-family="Roboto, sans-serif" font-size="13" fill="#4051B5" font-weight="normal">Contexts</text>
  </a>
  <a xlink:href="/use-case/cyber-security/contexts/cloud/" target="_top">
    <rect x="881.88" y="-50.00" width="152.98" height="25" rx="4" ry="4" fill="none" stroke="none" pointer-events="all" />
    <text x="891.88" y="-33.00" text-anchor="start" font-family="Roboto, sans-serif" font-size="13" fill="#4051B5" font-weight="normal">Cloud Security Context</text>
  </a>
  <a xlink:href="/use-case/cyber-security/contexts/ot-ics/" target="_top">
    <rect x="881.88" y="-25.00" width="162.33" height="25" rx="4" ry="4" fill="none" stroke="none" pointer-events="all" />
    <text x="891.88" y="-8.00" text-anchor="start" font-family="Roboto, sans-serif" font-size="13" fill="#4051B5" font-weight="normal">OT/ICS Security Context</text>
  </a>
  <a xlink:href="/use-case/cyber-security/contexts/saas/" target="_top">
    <rect x="881.88" y="0.00" width="150.81" height="25" rx="4" ry="4" fill="none" stroke="none" pointer-events="all" />
    <text x="891.88" y="17.00" text-anchor="start" font-family="Roboto, sans-serif" font-size="13" fill="#4051B5" font-weight="normal">SaaS Security Context</text>
  </a>
  <a xlink:href="/use-case/cyber-security/detect/" target="_top">
    <rect x="556.73" y="337.50" width="213.66" height="25" rx="4" ry="4" fill="none" stroke="none" pointer-events="all" />
    <text x="566.73" y="354.50" text-anchor="start" font-family="Roboto, sans-serif" font-size="13" fill="#4051B5" font-weight="normal">Detect (Cybersecurity Monitoring)</text>
  </a>
  <a xlink:href="/use-case/cyber-security/detect/anomaly-and-behavior-detection/" target="_top">
    <rect x="881.88" y="25.00" width="196.36" height="25" rx="4" ry="4" fill="none" stroke="none" pointer-events="all" />
    <text x="891.88" y="42.00" text-anchor="start" font-family="Roboto, sans-serif" font-size="13" fill="#4051B5" font-weight="normal">Anomaly &amp; Behavior Detection</text>
  </a>
  <a xlink:href="/use-case/cyber-security/detect/detection-engineering/" target="_top">
    <rect x="881.88" y="50.00" width="147.97" height="25" rx="4" ry="4" fill="none" stroke="none" pointer-events="all" />
    <text x="891.88" y="67.00" text-anchor="start" font-family="Roboto, sans-serif" font-size="13" fill="#4051B5" font-weight="normal">Detection Engineering</text>
  </a>
  <a xlink:href="/use-case/cyber-security/detect/logging-and-telemetry/" target="_top">
    <rect x="881.88" y="75.00" width="138.31" height="25" rx="4" ry="4" fill="none" stroke="none" pointer-events="all" />
    <text x="891.88" y="92.00" text-anchor="start" font-family="Roboto, sans-serif" font-size="13" fill="#4051B5" font-weight="normal">Logging &amp; Telemetry</text>
  </a>
  <a xlink:href="/use-case/cyber-security/detect/soc-monitoring-and-alerting/" target="_top">
    <rect x="881.88" y="100.00" width="171.77" height="25" rx="4" ry="4" fill="none" stroke="none" pointer-events="all" />
    <text x="891.88" y="117.00" text-anchor="start" font-family="Roboto, sans-serif" font-size="13" fill="#4051B5" font-weight="normal">SOC Monitoring &amp; Alerting</text>
  </a>
  <a xlink:href="/use-case/cyber-security/detect/threat-hunting/" target="_top">
    <rect x="881.88" y="125.00" width="106.02" height="25" rx="4" ry="4" fill="none" stroke="none" pointer-events="all" />
    <text x="891.88" y="142.00" text-anchor="start" font-family="Roboto, sans-serif" font-size="13" fill="#4051B5" font-weight="normal">Threat Hunting</text>
  </a>
  <a xlink:href="/use-case/cyber-security/detect/threat-intelligence/" target="_top">
    <rect x="881.88" y="150.00" width="126.98" height="25" rx="4" ry="4" fill="none" stroke="none" pointer-events="all" />
    <text x="891.88" y="167.00" text-anchor="start" font-family="Roboto, sans-serif" font-size="13" fill="#4051B5" font-weight="normal">Threat Intelligence</text>
  </a>
  <a xlink:href="/use-case/cyber-security/govern/" target="_top">
    <rect x="556.73" y="362.50" width="228.84" height="25" rx="4" ry="4" fill="none" stroke="none" pointer-events="all" />
    <text x="566.73" y="379.50" text-anchor="start" font-family="Roboto, sans-serif" font-size="13" fill="#4051B5" font-weight="normal">Govern (Cybersecurity Governance)</text>
  </a>
  <a xlink:href="/use-case/cyber-security/govern/compliance-and-audit/" target="_top">
    <rect x="881.88" y="175.00" width="246.23" height="25" rx="4" ry="4" fill="none" stroke="none" pointer-events="all" />
    <text x="891.88" y="192.00" text-anchor="start" font-family="Roboto, sans-serif" font-size="13" fill="#4051B5" font-weight="normal">Compliance, Controls &amp; Audit Evidence</text>
  </a>
  <a xlink:href="/use-case/cyber-security/govern/risk-management/" target="_top">
    <rect x="881.88" y="200.00" width="163.09" height="25" rx="4" ry="4" fill="none" stroke="none" pointer-events="all" />
    <text x="891.88" y="217.00" text-anchor="start" font-family="Roboto, sans-serif" font-size="13" fill="#4051B5" font-weight="normal">Cyber Risk Management</text>
  </a>
  <a xlink:href="/use-case/cyber-security/govern/security-architecture-and-standards/" target="_top">
    <rect x="881.88" y="225.00" width="214.41" height="25" rx="4" ry="4" fill="none" stroke="none" pointer-events="all" />
    <text x="891.88" y="242.00" text-anchor="start" font-family="Roboto, sans-serif" font-size="13" fill="#4051B5" font-weight="normal">Security Architecture &amp; Standards</text>
  </a>
  <a xlink:href="/use-case/cyber-security/govern/security-strategy-and-policy/" target="_top">
    <rect x="881.88" y="250.00" width="169.58" height="25" rx="4" ry="4" fill="none" stroke="none" pointer-events="all" />
    <text x="891.88" y="267.00" text-anchor="start" font-family="Roboto, sans-serif" font-size="13" fill="#4051B5" font-weight="normal">Security Strategy &amp; Policy</text>
  </a>
  <a xlink:href="/use-case/cyber-security/govern/third-party-and-supply-chain-risk/" target="_top">
    <rect x="881.88" y="275.00" width="257.02" height="25" rx="4" ry="4" fill="none" stroke="none" pointer-events="all" />
    <text x="891.88" y="292.00" text-anchor="start" font-family="Roboto, sans-serif" font-size="13" fill="#4051B5" font-weight="normal">Third-Party &amp; Supply Chain Security Risk</text>
  </a>
  <a xlink:href="/use-case/cyber-security/identify/" target="_top">
    <rect x="556.73" y="387.50" width="241.88" height="25" rx="4" ry="4" fill="none" stroke="none" pointer-events="all" />
    <text x="566.73" y="404.50" text-anchor="start" font-family="Roboto, sans-serif" font-size="13" fill="#4051B5" font-weight="normal">Identify (Cybersecurity Understanding)</text>
  </a>
  <a xlink:href="/use-case/cyber-security/identify/attack-surface-management/" target="_top">
    <rect x="881.88" y="300.00" width="184.06" height="25" rx="4" ry="4" fill="none" stroke="none" pointer-events="all" />
    <text x="891.88" y="317.00" text-anchor="start" font-family="Roboto, sans-serif" font-size="13" fill="#4051B5" font-weight="normal">Attack Surface Management</text>
  </a>
  <a xlink:href="/use-case/cyber-security/identify/data-classification-and-criticality/" target="_top">
    <rect x="881.88" y="325.00" width="196.31" height="25" rx="4" ry="4" fill="none" stroke="none" pointer-events="all" />
    <text x="891.88" y="342.00" text-anchor="start" font-family="Roboto, sans-serif" font-size="13" fill="#4051B5" font-weight="normal">Data Classification &amp; Criticality</text>
  </a>
  <a xlink:href="/use-case/cyber-security/identify/threat-modeling-and-scenarios/" target="_top">
    <rect x="881.88" y="350.00" width="234.69" height="25" rx="4" ry="4" fill="none" stroke="none" pointer-events="all" />
    <text x="891.88" y="367.00" text-anchor="start" font-family="Roboto, sans-serif" font-size="13" fill="#4051B5" font-weight="normal">Threat Modeling &amp; Scenario Mapping</text>
  </a>
  <a xlink:href="/use-case/cyber-security/identify/vulnerability-management/" target="_top">
    <rect x="881.88" y="375.00" width="169.88" height="25" rx="4" ry="4" fill="none" stroke="none" pointer-events="all" />
    <text x="891.88" y="392.00" text-anchor="start" font-family="Roboto, sans-serif" font-size="13" fill="#4051B5" font-weight="normal">Vulnerability Management</text>
  </a>
  <a xlink:href="/use-case/cyber-security/protect/" target="_top">
    <rect x="556.73" y="412.50" width="204.97" height="25" rx="4" ry="4" fill="none" stroke="none" pointer-events="all" />
    <text x="566.73" y="429.50" text-anchor="start" font-family="Roboto, sans-serif" font-size="13" fill="#4051B5" font-weight="normal">Protect (Cybersecurity Controls)</text>
  </a>
  <a xlink:href="/use-case/cyber-security/protect/application-and-api-security/" target="_top">
    <rect x="881.88" y="425.00" width="170.33" height="25" rx="4" ry="4" fill="none" stroke="none" pointer-events="all" />
    <text x="891.88" y="442.00" text-anchor="start" font-family="Roboto, sans-serif" font-size="13" fill="#4051B5" font-weight="normal">Application &amp; API Security</text>
  </a>
  <a xlink:href="/use-case/cyber-security/protect/backup-and-resilience-controls/" target="_top">
    <rect x="881.88" y="450.00" width="191.30" height="25" rx="4" ry="4" fill="none" stroke="none" pointer-events="all" />
    <text x="891.88" y="467.00" text-anchor="start" font-family="Roboto, sans-serif" font-size="13" fill="#4051B5" font-weight="normal">Backup &amp; Resilience Controls</text>
  </a>
  <a xlink:href="/use-case/cyber-security/protect/data-protection/" target="_top">
    <rect x="881.88" y="475.00" width="109.62" height="25" rx="4" ry="4" fill="none" stroke="none" pointer-events="all" />
    <text x="891.88" y="492.00" text-anchor="start" font-family="Roboto, sans-serif" font-size="13" fill="#4051B5" font-weight="normal">Data Protection</text>
  </a>
  <a xlink:href="/use-case/cyber-security/protect/identity-and-access-management/" target="_top">
    <rect x="881.88" y="500.00" width="233.89" height="25" rx="4" ry="4" fill="none" stroke="none" pointer-events="all" />
    <text x="891.88" y="517.00" text-anchor="start" font-family="Roboto, sans-serif" font-size="13" fill="#4051B5" font-weight="normal">Identity &amp; Access Management (IAM)</text>
  </a>
  <a xlink:href="/use-case/cyber-security/protect/network-and-segmentation/" target="_top">
    <rect x="881.88" y="525.00" width="214.41" height="25" rx="4" ry="4" fill="none" stroke="none" pointer-events="all" />
    <text x="891.88" y="542.00" text-anchor="start" font-family="Roboto, sans-serif" font-size="13" fill="#4051B5" font-weight="normal">Network Security &amp; Segmentation</text>
  </a>
  <a xlink:href="/use-case/cyber-security/protect/privileged-access-management/" target="_top">
    <rect x="881.88" y="550.00" width="240.89" height="25" rx="4" ry="4" fill="none" stroke="none" pointer-events="all" />
    <text x="891.88" y="567.00" text-anchor="start" font-family="Roboto, sans-serif" font-size="13" fill="#4051B5" font-weight="normal">Privileged Access Management (PAM)</text>
  </a>
  <a xlink:href="/use-case/cyber-security/protect/secure-configuration-and-hardening/" target="_top">
    <rect x="881.88" y="575.00" width="218.08" height="25" rx="4" ry="4" fill="none" stroke="none" pointer-events="all" />
    <text x="891.88" y="592.00" text-anchor="start" font-family="Roboto, sans-serif" font-size="13" fill="#4051B5" font-weight="normal">Secure Configuration &amp; Hardening</text>
  </a>
  <a xlink:href="/use-case/cyber-security/protect/security-awareness-and-training/" target="_top">
    <rect x="881.88" y="600.00" width="196.11" height="25" rx="4" ry="4" fill="none" stroke="none" pointer-events="all" />
    <text x="891.88" y="617.00" text-anchor="start" font-family="Roboto, sans-serif" font-size="13" fill="#4051B5" font-weight="normal">Security Awareness &amp; Training</text>
  </a>
  <a xlink:href="/use-case/cyber-security/recover/" target="_top">
    <rect x="556.73" y="437.50" width="218.70" height="25" rx="4" ry="4" fill="none" stroke="none" pointer-events="all" />
    <text x="566.73" y="454.50" text-anchor="start" font-family="Roboto, sans-serif" font-size="13" fill="#4051B5" font-weight="normal">Recover (Cybersecurity Recovery)</text>
  </a>
  <a xlink:href="/use-case/cyber-security/recover/backup-restore-and-integrity/" target="_top">
    <rect x="881.88" y="625.00" width="234.42" height="25" rx="4" ry="4" fill="none" stroke="none" pointer-events="all" />
    <text x="891.88" y="642.00" text-anchor="start" font-family="Roboto, sans-serif" font-size="13" fill="#4051B5" font-weight="normal">Backup Restore &amp; Integrity Validation</text>
  </a>
  <a xlink:href="/use-case/cyber-security/recover/disaster-recovery-and-bcp/" target="_top">
    <rect x="881.88" y="650.00" width="326.36" height="25" rx="4" ry="4" fill="none" stroke="none" pointer-events="all" />
    <text x="891.88" y="667.00" text-anchor="start" font-family="Roboto, sans-serif" font-size="13" fill="#4051B5" font-weight="normal">Disaster Recovery (DR) &amp; Business Continuity (BCP)</text>
  </a>
  <a xlink:href="/use-case/cyber-security/recover/resilience-improvements/" target="_top">
    <rect x="881.88" y="675.00" width="165.98" height="25" rx="4" ry="4" fill="none" stroke="none" pointer-events="all" />
    <text x="891.88" y="692.00" text-anchor="start" font-family="Roboto, sans-serif" font-size="13" fill="#4051B5" font-weight="normal">Resilience Improvements</text>
  </a>
  <a xlink:href="/use-case/cyber-security/recover/service-restoration/" target="_top">
    <rect x="881.88" y="700.00" width="133.47" height="25" rx="4" ry="4" fill="none" stroke="none" pointer-events="all" />
    <text x="891.88" y="717.00" text-anchor="start" font-family="Roboto, sans-serif" font-size="13" fill="#4051B5" font-weight="normal">Service Restoration</text>
  </a>
  <a xlink:href="/use-case/cyber-security/respond/" target="_top">
    <rect x="556.73" y="462.50" width="275.14" height="25" rx="4" ry="4" fill="none" stroke="none" pointer-events="all" />
    <text x="566.73" y="479.50" text-anchor="start" font-family="Roboto, sans-serif" font-size="13" fill="#4051B5" font-weight="normal">Respond (Cybersecurity Incident Response)</text>
  </a>
  <a xlink:href="/use-case/cyber-security/respond/communications-and-disclosure/" target="_top">
    <rect x="881.88" y="725.00" width="193.44" height="25" rx="4" ry="4" fill="none" stroke="none" pointer-events="all" />
    <text x="891.88" y="742.00" text-anchor="start" font-family="Roboto, sans-serif" font-size="13" fill="#4051B5" font-weight="normal">Communications &amp; Disclosure</text>
  </a>
  <a xlink:href="/use-case/cyber-security/respond/containment-and-eradication/" target="_top">
    <rect x="881.88" y="750.00" width="174.69" height="25" rx="4" ry="4" fill="none" stroke="none" pointer-events="all" />
    <text x="891.88" y="767.00" text-anchor="start" font-family="Roboto, sans-serif" font-size="13" fill="#4051B5" font-weight="normal">Containment &amp; Eradication</text>
  </a>
  <a xlink:href="/use-case/cyber-security/respond/incident-intake-and-triage/" target="_top">
    <rect x="881.88" y="775.00" width="156.61" height="25" rx="4" ry="4" fill="none" stroke="none" pointer-events="all" />
    <text x="891.88" y="792.00" text-anchor="start" font-family="Roboto, sans-serif" font-size="13" fill="#4051B5" font-weight="normal">Incident Intake &amp; Triage</text>
  </a>
  <a xlink:href="/use-case/cyber-security/respond/investigation-and-forensics/" target="_top">
    <rect x="881.88" y="800.00" width="165.27" height="25" rx="4" ry="4" fill="none" stroke="none" pointer-events="all" />
    <text x="891.88" y="817.00" text-anchor="start" font-family="Roboto, sans-serif" font-size="13" fill="#4051B5" font-weight="normal">Investigation &amp; Forensics</text>
  </a>
  <a xlink:href="/use-case/cyber-security/respond/lessons-learned-and-improvement/" target="_top">
    <rect x="881.88" y="825.00" width="211.55" height="25" rx="4" ry="4" fill="none" stroke="none" pointer-events="all" />
    <text x="891.88" y="842.00" text-anchor="start" font-family="Roboto, sans-serif" font-size="13" fill="#4051B5" font-weight="normal">Lessons Learned &amp; Improvement</text>
  </a>
  <a xlink:href="/use-case/digital-twin/technology-estate-inventory/" target="_top">
    <rect x="881.88" y="400.00" width="183.36" height="25" rx="4" ry="4" fill="none" stroke="none" pointer-events="all" />
    <text x="891.88" y="417.00" text-anchor="start" font-family="Roboto, sans-serif" font-size="13" fill="#4051B5" font-weight="normal">Technology Estate Inventory</text>
  </a>
</svg>