<svg xmlns="http://www.w3.org/2000/svg" xmlns:xlink="http://www.w3.org/1999/xlink" contentStyleType="text/css" data-diagram-type="MINDMAP" height="127px" preserveAspectRatio="none" style="width:691px;height:127px;" version="1.1" viewBox="0 0 691 127" width="691px" zoomAndPan="magnify"><defs/><g><polygon fill="#4051B5" points="254.7646,44.4453,254.7646,44.6555,264.701,44.031,274.6373,44.6386,284.5737,44.845,294.51,43.7319,304.4463,44.3676,314.3827,44.0188,324.319,44.0618,334.2553,44.3772,344.1917,43.7539,354.128,44.999,364.0644,43.815,374.0007,44.2475,383.937,44.8773,393.8734,44.3595,403.8097,44.5136,413.746,44.4134,423.6824,44.6238,433.6187,44.6844,443.5551,45.031,453.4914,45.1164,463.4277,44.4453,463.5144,44.6545,464.0259,44.758,464.6182,45.0567,465.2144,45.3645,465.5985,45.1605,466.2562,45.6169,466.4651,45.7034,466.3992,46.1447,466.8892,46.8163,466.8067,47.2508,467.1723,47.8709,467.4277,48.4453,467.6749,48.4453,467.4115,54.1047,467.4628,59.7641,467.5406,65.4234,467.5665,71.0828,467.4277,76.7422,467.4265,76.7417,467.2819,77.3445,466.7828,77.8005,466.8124,78.4755,466.6593,79.0749,466.2562,79.5706,466.3129,79.7075,465.7687,79.9937,465.0632,79.8905,464.4759,80.0727,463.9142,80.3165,463.4277,80.7422,463.4277,80.6833,453.4914,80.5457,443.5551,81.4236,433.6187,80.5675,423.6824,80.3991,413.746,80.9705,403.8097,80.0753,393.8734,80.2231,383.937,81.3911,374.0007,81.1779,364.0644,81.4767,354.128,80.4204,344.1917,81.0614,334.2553,81.3326,324.319,80.2698,314.3827,80.6463,304.4463,80.8682,294.51,81.3939,284.5737,80.738,274.6373,81.2048,264.701,80.1884,254.7646,80.7422,254.6783,80.5336,254.2632,80.663,253.5418,80.0528,253.1325,80.196,252.5283,79.8686,251.9362,79.5706,251.8537,79.5364,251.593,78.9598,251.6089,78.4978,251.1411,77.8354,251.1812,77.3834,250.7646,76.7422,250.5804,76.7422,250.9705,71.0828,250.9261,65.4234,250.8463,59.7641,250.7804,54.1047,250.7646,48.4453,250.9884,48.538,251.1879,47.9579,251.2854,47.3355,251.5502,46.7825,251.6618,46.166,251.9362,45.6169,252.0276,45.8375,252.5217,45.4303,253.0896,45.2014,253.5557,44.7266,254.1473,44.5548,254.7646,44.4453" style="stroke:#FF6F00;stroke-width:1.5;"/><text fill="#FFFFFF" font-family="'Roboto'" font-size="14" lengthAdjust="spacing" textLength="196.6631" x="260.7646" y="67.4404">Identification &amp; Registration</text><a href="/use-case/legal-entity-management/identification-and-registration/business-registration/" target="_top" title="/use-case/legal-entity-management/identification-and-registration/business-registration/" xlink:actuate="onRequest" xlink:href="/use-case/legal-entity-management/identification-and-registration/business-registration/" xlink:show="new" xlink:title="/use-case/legal-entity-management/identification-and-registration/business-registration/" xlink:type="simple"><text fill="#90EE90" font-family="'Roboto'" font-size="14" lengthAdjust="spacing" textLength="151.2383" x="524.4277" y="27.9951">Business Registration</text></a><path d="M467.4277,62.5938 L467.4277,62.7806 L469.4277,62.2255 L471.4277,62.7656 L473.4277,62.949 L475.4277,61.9596 L477.4277,62.5938 L477.4277,62.5938 L477.4081,62.5653 L479.1011,61.2052 L480.8932,59.9883 L482.7542,58.8708 L484.3779,57.4104 L486.334,56.4304 L486.5584,56.5313 L487.2972,53.6037 L488.6913,50.9707 L490.1653,48.3735 L491.1742,45.5673 L492.4277,42.8711 L492.4554,42.8835 L493.6335,40.1534 L494.9376,37.4799 L496.1809,34.7791 L497.5402,32.1303 L498.5215,29.3118 L498.6912,29.557 L500.4745,28.3273 L502.1484,26.9395 L503.9825,25.7832 L505.8241,24.6377 L507.4277,23.1484 L507.4277,22.5074 L509.4277,23.7516 L511.4277,22.8849 L513.4277,23.6229 L515.4277,22.7084 L517.4277,23.1484" fill="none" style="stroke:#FF9900;stroke-width:1;"/><a href="/use-case/legal-entity-management/identification-and-registration/classification/" target="_top" title="/use-case/legal-entity-management/identification-and-registration/classification/" xlink:actuate="onRequest" xlink:href="/use-case/legal-entity-management/identification-and-registration/classification/" xlink:show="new" xlink:title="/use-case/legal-entity-management/identification-and-registration/classification/" xlink:type="simple"><text fill="#90EE90" font-family="'Roboto'" font-size="14" lengthAdjust="spacing" textLength="92.6338" x="524.4277" y="54.292">Classification</text></a><path d="M467.4277,62.5938 L467.4277,62.7806 L469.4277,62.2255 L471.4277,62.7656 L473.4277,62.949 L475.4277,61.9596 L477.4277,62.5938 L477.4277,62.5938 L477.4139,62.5621 L480.3516,61.1053 L483.3593,59.808 L486.4156,58.6215 L489.3044,57.0529 L492.4277,56.0195 L492.5265,56.2449 L495.3153,54.4481 L498.3925,53.3093 L501.5048,52.2508 L504.4124,50.7252 L507.4277,49.4453 L507.4277,49.506 L509.4277,49.4169 L511.4277,49.604 L513.4277,49.6579 L515.4277,49.9659 L517.4277,49.4453" fill="none" style="stroke:#FF9900;stroke-width:1;"/><a href="/use-case/legal-entity-management/identification-and-registration/commercial-register/" target="_top" title="/use-case/legal-entity-management/identification-and-registration/commercial-register/" xlink:actuate="onRequest" xlink:href="/use-case/legal-entity-management/identification-and-registration/commercial-register/" xlink:show="new" xlink:title="/use-case/legal-entity-management/identification-and-registration/commercial-register/" xlink:type="simple"><text fill="#90EE90" font-family="'Roboto'" font-size="14" lengthAdjust="spacing" textLength="146.7607" x="524.4277" y="80.5889">Commercial Register</text></a><path d="M467.4277,62.5938 L467.4277,62.7806 L469.4277,62.2255 L471.4277,62.7656 L473.4277,62.949 L475.4277,61.9596 L477.4277,62.5938 L477.4277,62.5938 L477.4139,62.5621 L480.3516,63.735 L483.3593,65.0673 L486.4156,66.5105 L489.3044,67.5717 L492.4277,69.168 L492.5265,69.3933 L495.3153,70.2262 L498.3925,71.7172 L501.5048,73.2883 L504.4124,74.3924 L507.4277,75.7422 L507.4277,75.8028 L509.4277,75.7138 L511.4277,75.9009 L513.4277,75.9548 L515.4277,76.2628 L517.4277,75.7422" fill="none" style="stroke:#FF9900;stroke-width:1;"/><a href="/use-case/legal-entity-management/identification-and-registration/legal-form/" target="_top" title="/use-case/legal-entity-management/identification-and-registration/legal-form/" xlink:actuate="onRequest" xlink:href="/use-case/legal-entity-management/identification-and-registration/legal-form/" xlink:show="new" xlink:title="/use-case/legal-entity-management/identification-and-registration/legal-form/" xlink:type="simple"><text fill="#90EE90" font-family="'Roboto'" font-size="14" lengthAdjust="spacing" textLength="85.5244" x="524.4277" y="106.8857">Legal Forms</text></a><path d="M467.4277,62.5938 L467.4277,62.7806 L469.4277,62.2255 L471.4277,62.7656 L473.4277,62.949 L475.4277,61.9596 L477.4277,62.5938 L477.4277,62.5938 L477.4081,62.5653 L479.1011,63.6705 L480.8932,64.9189 L482.7542,66.2668 L484.3779,67.2717 L486.334,68.7571 L486.5584,68.8579 L487.2972,71.3541 L488.6913,74.1448 L490.1653,76.9714 L491.1742,79.5889 L492.4277,82.3164 L492.4554,82.3288 L493.6335,85.0225 L494.9376,87.7727 L496.1809,90.4956 L497.5402,93.2706 L498.5215,95.8757 L498.6912,96.121 L500.4745,97.3566 L502.1484,98.4341 L503.9825,99.7432 L505.8241,101.063 L507.4277,102.0391 L507.4277,101.398 L509.4277,102.6422 L511.4277,101.7755 L513.4277,102.5136 L515.4277,101.599 L517.4277,102.0391" fill="none" style="stroke:#FF9900;stroke-width:1;"/><a href="/use-case/legal-entity-management/" target="_top" title="/use-case/legal-entity-management/" xlink:actuate="onRequest" xlink:href="/use-case/legal-entity-management/" xlink:show="new" xlink:title="/use-case/legal-entity-management/" xlink:type="simple"><text fill="#90EE90" font-family="'Roboto'" font-size="14" lengthAdjust="spacing" textLength="179.7646" x="14" y="67.4404">Legal Entity Management</text></a><path d="M250.7646,62.5938 L250.7646,62.7806 L248.7646,62.2255 L246.7646,62.7656 L244.7646,62.949 L242.7646,61.9596 L240.7646,62.5938 L240.7646,62.5938 L240.7646,62.5592 L234.7646,62.4042 L228.7646,62.4233 L222.7646,62.5635 L216.7646,62.2865 L210.7646,62.5938 L210.7646,63.0859 L208.7646,62.0335 L206.7646,62.418 L204.7646,62.9777 L202.7646,62.5175 L200.7646,62.5938" fill="none" style="stroke:#FF9900;stroke-width:1;"/><!--SRC=[xLXjJzj84FxkNx5NfACLJKaug5fKLOIGK20XA85Afwf26tkSh6BlvdRNSDpf_dl7JXo_n77US05T_IdPcPrdPlPjvZbIcahjCcwvT4IO1LmpcvbKCy5Bb5ib2Nscj0m63ECt2sp6WHoVthQgPvUtjNQptI71jxLVFgZq3k8gtNgjVNbIxVmvqSjGkQhMBggdzQcX6PLsvwJUYUEGBTj-RvVBKvL6-_8weH2e-9zXg27Z8ogfIthK7FQbyBXL4uwGeI96nXLgODmnvIyF8v1DneTnNRBbiFv0zoK0PcARC6uwdWL43u3qWOEa3fcQKCJ6YJsX1sz9C8rWCeb5vH1dQa747SXxoJIGUwO7Onli3ZXHe3NZVPNEmFMNizh5PRtR9HLS1Z7oruCCqAXlHUD4cpeAOZ5SKSj2GsG_DjOPno_HMV8XDjuTK4lS-zffAq4c7Cp43RU27p1HYUcSW4qzHvD_3K8QWkjBwW9vrH4OlNWr6HidCbggoN2N_GEaic_y5xTNbLBS1zRcp9fdJ3yuc2_XM4bx8rnwseUfVndJZrEx8x6_VRcG6Fv45jkI21JXS66j2fBO_ilYcC8T2OuxDW1Rs_MvVexpwBdENZAF5jMqHnKK0fj0CXtXMJy1HZWEcFv9KWM1HLWrL932AHpds3TBvKFXG7LyANJnC8nha3OreN2aBlpb0JVX2Xz4Ph8HvNfixdh0p247fV3gZTJLH3tmApvdWOipvZEzZMb5LniNqgNEh3JZ33UP3VY0GGx4L6M1my5rd04HZEVO3-Hpt0jaKLx_y8TCBUH2NmAb74nVFk_WRvFQVd2vuKE7VxOMVl6xGk95GNdVWK-Vy4LKWd_-7Any5xSd28tFPCxBz9WlJYYAifUk49ANNCnn-1kTvTIvBIg2LC5NK1ZgGMbmNtB-YugWmFo7Z_zBIt_azqlEVcmJzIOFVEX_gdHFHnHKsENbgi-rSx4epF7pPL4r06kvs3D3Dn6UueibLuaTkul5swsmo9TTO6p3zRYKc7Ksx8bzMUH7sEFwerMj9Ujv6hB5SI_3xZbLRrEbVZBwDcbDM0Sr0jCd7J09uxSvewLQnw-5OTEeijbgD3v-H7bA62_zZ9sp13r2VYUTE3bIAjsIRzzsFGKb4o-SNGVwr2b1K2QNNCgn1NNntovf-eAmVcvD1T-_6pixovbOmDFizZp5VA-Je-HuCfpm-n5XWsqqbU-IMkB_Om89rmLfCfmy7WU9QDF1INmW7n5oFC_62ZnSm0R-LeXm1BYDnrlPC8vMuzCA9AYUEHKK7TIbUQ3ab4mpAp50qTpvTqls7PBB-Jo6sNoA9zzEjYzhaJgh0or9usngU05niuxvvQYQpIpdaZERcSwXOpOpd4_0R6Qx8CebSceEsHBvjmRF4fsfB98bCZsFNucyYp4haT4PMYMoc69KKdEMe5DYq6aY9OQIv51Y1t1DEYJ_tbvrHyrkaCtfZgVoS64d-kIfUruUha12F95VppHn1V07aKThH9SJmmAke58yEL1KP7DNv__N_F_gy7zr-2-qmxzoi1gyQJN97LOL_YQflDihxnsygrHwe6cb_Fg63xcuvq4Fn_0gqyo5DyRhqwicKSAJMBvQFgX_Q73w6-EStb7IyRYlTqZQ8-3d9nVX06wYEoO5zoCmph-s8eNt-wLZfh64bkW8-TeomjwxpatXj_k7vEQwKVfWDF62z309XmIuKSFZfUK3ohe_0000]--></g></svg>