<svg xmlns="http://www.w3.org/2000/svg" xmlns:xlink="http://www.w3.org/1999/xlink" contentStyleType="text/css" data-diagram-type="MINDMAP" height="122px" preserveAspectRatio="none" style="width:653px;height:122px;" version="1.1" viewBox="0 0 653 122" width="653px" zoomAndPan="magnify"><defs/><g><polygon fill="#4051B5" points="241.9243,42.6992,241.9243,42.9094,252.1672,42.2849,262.4102,42.8925,272.6531,43.0989,282.896,41.9858,293.139,42.6215,303.3819,42.2727,313.6248,42.3157,323.8678,42.6311,334.1107,42.0078,344.3536,43.2529,354.5966,42.0689,364.8395,42.5015,375.0824,43.1312,385.3254,42.6134,395.5683,42.7675,405.8112,42.6673,416.0542,42.8777,426.2971,42.9384,436.54,42.6992,436.6148,42.8796,437.1913,43.1402,437.7581,43.377,438.2696,43.4806,438.8619,43.7792,439.3685,43.8708,439.5847,43.9604,439.3807,44.3445,440.046,45.0887,439.9801,45.53,440.4701,46.2016,440.54,46.6992,440.375,46.6992,440.5172,52.1258,440.7872,57.5523,440.5238,62.9789,440.5751,68.4055,440.54,73.832,440.6443,73.8752,440.4339,74.4508,440.0702,74.9629,439.9255,75.5657,439.4265,76.0218,439.3685,76.6605,439.4047,76.748,438.8727,77.0636,438.2938,77.266,437.7496,77.5522,437.0441,77.4489,436.54,77.832,436.54,77.1798,426.2971,77.2106,416.0542,77.7732,405.8112,77.6355,395.5683,78.5134,385.3254,77.6574,375.0824,77.489,364.8395,78.0603,354.5966,77.1652,344.3536,77.3129,334.1107,78.481,323.8678,78.2677,313.6248,78.5665,303.3819,77.5102,293.139,78.1512,282.896,78.4225,272.6531,77.3596,262.4102,77.7362,252.1672,77.958,241.9243,77.832,242.0075,78.0327,241.3581,77.5964,240.852,77.5059,240.1566,76.9585,239.5752,76.6862,239.0959,76.6605,239.251,76.7247,238.6408,76.0033,238.784,75.594,238.4566,74.9898,238.0761,74.3635,237.9243,73.832,237.8064,73.832,238.0772,68.4055,237.8245,62.9789,238.1216,57.5523,237.7401,52.1258,237.9243,46.6992,238.1145,46.778,238.3078,46.1953,238.4684,45.5991,238.6418,45.0082,239.0853,44.5292,239.0959,43.8708,239.1742,44.0597,239.6832,43.6886,240.2615,43.4848,240.7763,43.1277,241.45,43.1542,241.9243,42.6992" style="stroke:#FF6F00;stroke-width:1.5;"/><text fill="#FFFFFF" font-family="'Roboto'" font-size="13" lengthAdjust="spacing" textLength="182.6157" x="247.9243" y="64.7661">Identification &amp; Registration</text><a href="/use-case/legal-entity-management/identification-and-registration/business-registration/" target="_top" title="/use-case/legal-entity-management/identification-and-registration/business-registration/" xlink:actuate="onRequest" xlink:href="/use-case/legal-entity-management/identification-and-registration/business-registration/" xlink:show="new" xlink:title="/use-case/legal-entity-management/identification-and-registration/business-registration/" xlink:type="simple"><text fill="#4051B5" font-family="'Roboto'" font-size="13" lengthAdjust="spacing" textLength="140.4355" x="497.54" y="27.0669">Business Registration</text></a><path d="M440.54,60.2656 L440.54,60.4525 L442.54,59.8973 L444.54,60.4374 L446.54,60.6209 L448.54,59.6315 L450.54,60.2656 L450.54,60.2656 L450.521,60.2368 L452.2167,58.9294 L454.0085,57.7673 L455.8671,56.7061 L457.4955,55.2969 L459.4463,54.3751 L459.669,54.4798 L460.4115,51.6641 L461.8042,49.1541 L463.2763,46.6814 L464.2868,43.9916 L465.54,41.416 L465.5675,41.4289 L466.7459,38.8182 L468.0493,36.2661 L469.2925,33.6858 L470.6506,31.1595 L471.6338,28.4569 L471.7983,28.7057 L473.5816,27.5306 L475.2587,26.1951 L477.0912,25.0945 L478.931,24.0048 L480.54,22.5664 L480.54,21.9254 L482.54,23.1695 L484.54,22.3028 L486.54,23.0409 L488.54,22.1264 L490.54,22.5664" fill="none" style="stroke:#FF6F00;stroke-width:1;"/><a href="/use-case/legal-entity-management/identification-and-registration/classification/" target="_top" title="/use-case/legal-entity-management/identification-and-registration/classification/" xlink:actuate="onRequest" xlink:href="/use-case/legal-entity-management/identification-and-registration/classification/" xlink:show="new" xlink:title="/use-case/legal-entity-management/identification-and-registration/classification/" xlink:type="simple"><text fill="#4051B5" font-family="'Roboto'" font-size="13" lengthAdjust="spacing" textLength="86.0171" x="497.54" y="52.1997">Classification</text></a><path d="M440.54,60.2656 L440.54,60.4525 L442.54,59.8973 L444.54,60.4374 L446.54,60.6209 L448.54,59.6315 L450.54,60.2656 L450.54,60.2656 L450.5267,60.2338 L453.4668,58.8342 L456.4742,57.5951 L459.5283,56.4678 L462.4213,54.9556 L465.54,53.9824 L465.6351,54.2094 L468.4318,52.4674 L471.5061,51.3881 L474.6142,50.3896 L477.5253,48.9207 L480.54,47.6992 L480.54,47.7599 L482.54,47.6708 L484.54,47.8579 L486.54,47.9118 L488.54,48.2198 L490.54,47.6992" fill="none" style="stroke:#FF6F00;stroke-width:1;"/><a href="/use-case/legal-entity-management/identification-and-registration/commercial-register/" target="_top" title="/use-case/legal-entity-management/identification-and-registration/commercial-register/" xlink:actuate="onRequest" xlink:href="/use-case/legal-entity-management/identification-and-registration/commercial-register/" xlink:show="new" xlink:title="/use-case/legal-entity-management/identification-and-registration/commercial-register/" xlink:type="simple"><text fill="#4051B5" font-family="'Roboto'" font-size="13" lengthAdjust="spacing" textLength="136.2778" x="497.54" y="77.3325">Commercial Register</text></a><path d="M440.54,60.2656 L440.54,60.4525 L442.54,59.8973 L444.54,60.4374 L446.54,60.6209 L448.54,59.6315 L450.54,60.2656 L450.54,60.2656 L450.5267,60.2338 L453.4668,61.3474 L456.4742,62.6217 L459.5283,64.0076 L462.4213,65.0088 L465.54,66.5488 L465.6351,66.7758 L468.4318,67.5471 L471.5061,68.981 L474.6142,70.4958 L477.5253,71.5402 L480.54,72.832 L480.54,72.8927 L482.54,72.8036 L484.54,72.9907 L486.54,73.0446 L488.54,73.3526 L490.54,72.832" fill="none" style="stroke:#FF6F00;stroke-width:1;"/><a href="/use-case/legal-entity-management/identification-and-registration/legal-form/" target="_top" title="/use-case/legal-entity-management/identification-and-registration/legal-form/" xlink:actuate="onRequest" xlink:href="/use-case/legal-entity-management/identification-and-registration/legal-form/" xlink:show="new" xlink:title="/use-case/legal-entity-management/identification-and-registration/legal-form/" xlink:type="simple"><text fill="#4051B5" font-family="'Roboto'" font-size="13" lengthAdjust="spacing" textLength="79.4155" x="497.54" y="102.4653">Legal Forms</text></a><path d="M440.54,60.2656 L440.54,60.4525 L442.54,59.8973 L444.54,60.4374 L446.54,60.6209 L448.54,59.6315 L450.54,60.2656 L450.54,60.2656 L450.521,60.2368 L452.2167,61.2856 L454.0085,62.4797 L455.8671,63.7747 L457.4955,64.7217 L459.4463,66.1561 L459.669,66.2608 L460.4115,68.6287 L461.8042,71.3024 L463.2763,74.0133 L464.2868,76.5072 L465.54,79.1152 L465.5675,79.1281 L466.7459,81.701 L468.0493,84.3326 L469.2925,86.9359 L470.6506,89.5933 L471.6338,92.0743 L471.7983,92.3231 L473.5816,93.5042 L475.2587,94.5249 L477.0912,95.7805 L478.931,97.0471 L480.54,97.9648 L480.54,97.3238 L482.54,98.568 L484.54,97.7013 L486.54,98.4393 L488.54,97.5248 L490.54,97.9648" fill="none" style="stroke:#FF6F00;stroke-width:1;"/><a href="/use-case/legal-entity-management/" target="_top" title="/use-case/legal-entity-management/" xlink:actuate="onRequest" xlink:href="/use-case/legal-entity-management/" xlink:show="new" xlink:title="/use-case/legal-entity-management/" xlink:type="simple"><text fill="#4051B5" font-family="'Roboto'" font-size="13" lengthAdjust="spacing" textLength="166.9243" x="14" y="64.7661">Legal Entity Management</text></a><path d="M237.9243,60.2656 L237.9243,60.4525 L235.9243,59.8973 L233.9243,60.4374 L231.9243,60.6209 L229.9243,59.6315 L227.9243,60.2656 L227.9243,60.2656 L227.9243,60.2311 L221.9243,60.0761 L215.9243,60.0952 L209.9243,60.2353 L203.9243,59.9583 L197.9243,60.2656 L197.9243,60.7578 L195.9243,59.7054 L193.9243,60.0898 L191.9243,60.6496 L189.9243,60.1894 L187.9243,60.2656" fill="none" style="stroke:#FF6F00;stroke-width:1;"/><!--SRC=[xLXjJniv4Fw-ly9Nf6ihca8eL1MgAY2y50W49T3JgQgGipj9B7RjrFQIuqxtts-ysSs-iDdDsnuWTJybzlYP5zlZcMTFQIgrnxZZqI5X3d3DUioccWbUezofIUWpfMKmO5c_ET1Z7CZ1oUt5_kdbRQFLRBL9yArjR-xKkpj9aSvHetLvkD_-CvJB4RdQRvpldnnDW1w9jDg7H-sa7hBMwttiRMvEH8vRbzSfWK34V1EH_NQxzKTQ9aAnr1tZGogfHxhKlkjBuNEd8LmXoHgwpHNEOL0IObyVXY1Tnkz2gT1YwpLXt7Pz1uWU0Ea31qbTCbcdI0-bkq8FtX6NzGUQO7Y9G-KThjI2Y7kG8yaqa17JWp46kmTE56ZDU5zbOtBzzRHnVddKwP0wRemOcXqY0mGrA1eNzgYh867u5NKS12BRYR7ss5s9nf9FYV7EW3fYPAIpA1FtRxWJ_81G925p23tgkvhyOn5oBBY-f1wGLss1tejNuTWuUl7cXSCTzZUG-hRrRn9lNqen2j2ch9e6fXzSZ9TmdJJU47UQzc5YNyxoWynXI9ruCoyakX_E9GufAehrSE7CgoHr8MRLOmjlA3WUqq3PmgPFjNCSHzzpjz9nTAYcNQgW4hKfJROhVET_K2DS5snparH5oc9T3HIGmgrSpu61fVAXSaL7-7RewjKmha7sg0sLQ-h0Jn-u3LVuH3AR3IdNOxZh0RFlE2Y5gJSMLw5uO5ToJOc9Z-1phKr8nQcD2-bHz_5ipXrkiXuqCLiNg9Y8b1WSfECS5S5u0NumFyMyO2wEwmSpP6iXIsq9X0fqclbf5_yrQMm7oGqVElopLlebSuN4H45vtuNFd_55L89_-HBiV0UF9mYDpsJ1oxJA5oUQYgENhH3IIIvXEFo5ndBgtbRbGQO4hCWDzQ0qU2yv_bLvK67yeyV_fOK_jlibHpznYBhX0n_PdodTinu55VRcRDNdmh4eStFyV3bK3S2PpVTSrsrKJ_75alFuZjr5-N6hpFDPDtZs7YhgG9CDr8VnyzR2fb9YLq-S4Ctqe56tRxeJHMh4yvKsBGGGsaEl8ysPFYQXB-ok2ngqHCDTP6gwXeaZasapbAPwN5MLxzlKZS5IG6l9khw6wH9nOPFseB0FIxKfLAdbBIrIzffSXFkdXc0RiWRZ4rGmk9MZWI4GD2OsB9ELsVXWaz-Hhki3xZ7dOEeXHOIlpNHUhrgPvR4kcYxswfQrVfgYdiZlf9qadcgrM_Bz-uQle6PZwjvmeK_T6WGDHysZ79jv3_zjaAQPY3gHYyd4Zn_M-lfi42KSs4RNLynOdHub1-5mokuLgWrErcH-WpHI_rUfI7WUI9lXul4uIDGs6Gpz0xb2bUDrc9gyQ0EFyRT23Nk0Htryt2rhRpwkSdNCtZFdqA9yF0U1bbwI2pCNTHQlpUQEEECdKqF4lfQGPQk0BUR6Yd7oRLc83PjVqOpyrxB09OpN8l2pSLpB8HUoMij15_1Oom4NCrVBOLV4LSL6JM6fOliM8AZYEvN7JiNGquYfsBf4vHQ3FkAZOiGC5PLPCmCFbL2TPQ0IMjBaK-82BiWZ5UVjUK_KumEoF4_qL1QMjl1F7hhdPU4SxCqJsVLC0rS1yH9Rj81t1JwKa2prwbcLgZoRkZihO4sMe3ro7-kLKnunOdxWSfcEr7JgiGmjdbP9pyXkb1jL2b_0GAm0_HVdy8jpc9zpk7AnOBsvQ99xB7pC8Qc_tzhSsdbVhtT1q_hccnj-nyM81sqcmwkjcGTlhJSdLqsYX2-nmdQCKdCRSVbRwupUKzBskP7R9QqXyBF3ysW03z4zau8R3wopRnUnmCVjsW7JMELBD8Hykx2YH7V4RM4OYLroStrS-sGrCOVx68HT0jngu0tIyW7dEly1]--></g></svg>