<svg xmlns="http://www.w3.org/2000/svg" xmlns:xlink="http://www.w3.org/1999/xlink" contentStyleType="text/css" data-diagram-type="MINDMAP" height="232px" preserveAspectRatio="none" style="width:833px;height:232px;" version="1.1" viewBox="0 0 833 232" width="833px" zoomAndPan="magnify"><defs/><g><polygon fill="#4051B5" points="467.2148,97.0391,467.2148,97.2492,476.9688,96.6247,486.7229,97.2323,496.4769,97.4387,506.2309,96.3257,515.9849,96.9613,525.7389,96.6126,535.4929,96.6556,545.2469,96.9709,555.0009,96.3477,564.7549,97.5927,574.5089,96.4088,584.2629,96.8413,594.0169,97.471,603.7709,96.9533,613.5249,97.1073,623.2789,97.0071,633.0329,97.2176,642.7869,97.2782,652.5409,97.6248,662.2949,97.0391,662.3805,97.2457,662.9473,97.4826,663.4588,97.5861,664.0511,97.8848,664.6472,98.1926,665.1233,98.2106,664.9013,98.1186,665.5666,98.8629,665.5007,99.3042,665.9907,99.9758,665.9082,100.4102,666.2949,101.0391,666.2721,101.0391,666.5421,106.6984,666.2787,112.3578,666.33,118.0172,666.4078,123.6766,666.2949,129.3359,666.4231,129.389,666.0594,129.9011,665.9147,130.5039,665.4157,130.96,665.4452,131.635,665.1233,132.1644,665.1933,132.3332,664.6144,132.5356,664.0702,132.8218,663.3647,132.7185,662.7774,132.9008,662.2949,133.3359,662.2949,132.7145,652.5409,133.2771,642.7869,133.1394,633.0329,134.0173,623.2789,133.1613,613.5249,132.9929,603.7709,133.5642,594.0169,132.6691,584.2629,132.8168,574.5089,133.9849,564.7549,133.7716,555.0009,134.0704,545.2469,133.0141,535.4929,133.6551,525.7389,133.9264,515.9849,132.8635,506.2309,133.2401,496.4769,133.4619,486.7229,133.9877,476.9688,133.3317,467.2148,133.3359,467.2738,133.4784,466.5785,132.9311,465.9971,132.6587,465.582,132.7881,464.8606,132.1779,464.3864,132.1644,464.5432,132.2293,464.2157,131.625,463.8353,130.9988,463.5745,130.4222,463.5904,129.9601,463.2148,129.3359,463.1151,129.3359,463.4121,123.6766,463.0306,118.0172,463.4207,112.3578,463.3763,106.6984,463.2148,101.0391,463.2903,101.0703,463.4637,100.4794,463.9072,100.0004,464.1067,99.4203,464.2042,98.7979,464.3864,98.2106,464.4206,98.2932,464.9355,97.9362,465.6092,97.9626,466.1032,97.5554,466.6712,97.3265,467.2148,97.0391" style="stroke:#FF6F00;stroke-width:1.5;"/><text fill="#FFFFFF" font-family="'Roboto'" font-size="14" lengthAdjust="spacing" textLength="183.0801" x="473.2148" y="120.0342">Core Record Management</text><a href="/use-case/client-360/know-your-customer/core-record-management/addresses/" target="_top" title="/use-case/client-360/know-your-customer/core-record-management/addresses/" xlink:actuate="onRequest" xlink:href="/use-case/client-360/know-your-customer/core-record-management/addresses/" xlink:show="new" xlink:title="/use-case/client-360/know-your-customer/core-record-management/addresses/" xlink:type="simple"><text fill="#90EE90" font-family="'Roboto'" font-size="14" lengthAdjust="spacing" textLength="72.2148" x="723.2949" y="27.9951">Addresses</text></a><path d="M666.2949,115.1875 L666.2949,115.3743 L668.2949,114.8192 L670.2949,115.3593 L672.2949,115.5428 L674.2949,114.5534 L676.2949,115.1875 L676.2949,115.1875 L676.2656,115.1693 L677.915,112.2115 L679.7125,109.3453 L681.6129,106.5429 L683.1587,103.5208 L685.2012,100.8064 L685.4416,100.859 L685.572,97.7984 L686.4044,94.8914 L687.3223,92.003 L687.7421,89.0057 L688.4238,86.0658 L688.4537,86.0708 L688.984,82.6838 L689.6505,79.3199 L690.2513,75.9449 L690.9773,72.5911 L691.2949,69.168 L691.589,69.2179 L692.1668,65.839 L692.5549,62.4278 L693.2207,59.0638 L693.8995,55.702 L694.166,52.2702 L693.8529,52.2017 L695.1051,49.3865 L695.3263,46.3458 L696.3314,43.4765 L696.5292,40.4307 L697.3887,37.5295 L697.3628,37.5135 L699.4501,34.8269 L700.9328,31.7657 L702.7722,28.9255 L704.6416,26.1039 L706.2949,23.1484 L706.2949,23.5184 L708.2949,23.145 L710.2949,23.4037 L712.2949,22.6396 L714.2949,23.4012 L716.2949,23.1484" fill="none" style="stroke:#FF9900;stroke-width:1;"/><a href="/use-case/client-360/know-your-customer/core-record-management/audit/" target="_top" title="/use-case/client-360/know-your-customer/core-record-management/audit/" xlink:actuate="onRequest" xlink:href="/use-case/client-360/know-your-customer/core-record-management/audit/" xlink:show="new" xlink:title="/use-case/client-360/know-your-customer/core-record-management/audit/" xlink:type="simple"><text fill="#90EE90" font-family="'Roboto'" font-size="14" lengthAdjust="spacing" textLength="36.7158" x="723.2949" y="54.292">Audit</text></a><path d="M666.2949,115.1875 L666.2949,115.3743 L668.2949,114.8192 L670.2949,115.3593 L672.2949,115.5428 L674.2949,114.5534 L676.2949,115.1875 L676.2949,115.1875 L676.2688,115.1649 L677.933,113.0089 L679.7286,110.967 L681.6158,109.0043 L683.1878,106.7684 L685.2012,104.9153 L685.4365,104.9873 L685.5778,102.7275 L686.4062,100.6779 L687.3183,98.6541 L687.7428,96.4809 L688.4238,94.3863 L688.4533,94.3933 L688.9842,91.969 L689.6495,89.5767 L690.2499,87.1689 L690.9739,84.7906 L691.2949,82.3164 L691.5851,82.3854 L692.1628,79.9723 L692.5535,77.5147 L693.218,75.1222 L693.8954,72.7327 L694.166,70.2466 L693.8595,70.1527 L695.0989,68.229 L695.3291,65.9964 L696.3265,63.9986 L696.5338,61.7589 L697.3887,59.7175 L697.3657,59.6976 L699.419,57.879 L700.9348,55.5945 L702.7678,53.5849 L704.6274,51.5983 L706.2949,49.4453 L706.2949,49.8153 L708.2949,49.4418 L710.2949,49.7006 L712.2949,48.9365 L714.2949,49.6981 L716.2949,49.4453" fill="none" style="stroke:#FF9900;stroke-width:1;"/><a href="/use-case/client-360/know-your-customer/core-record-management/buildings/" target="_top" title="/use-case/client-360/know-your-customer/core-record-management/buildings/" xlink:actuate="onRequest" xlink:href="/use-case/client-360/know-your-customer/core-record-management/buildings/" xlink:show="new" xlink:title="/use-case/client-360/know-your-customer/core-record-management/buildings/" xlink:type="simple"><text fill="#90EE90" font-family="'Roboto'" font-size="14" lengthAdjust="spacing" textLength="64.0869" x="723.2949" y="80.5889">Buildings</text></a><path d="M666.2949,115.1875 L666.2949,115.3743 L668.2949,114.8192 L670.2949,115.3593 L672.2949,115.5428 L674.2949,114.5534 L676.2949,115.1875 L676.2949,115.1875 L676.2753,115.1591 L677.9683,113.799 L679.7604,112.582 L681.6214,111.4646 L683.2451,110.0042 L685.2012,109.0242 L685.4256,109.125 L686.1644,106.1975 L687.5585,103.5644 L689.0325,100.9673 L690.0414,98.1611 L691.2949,95.4648 L691.3226,95.4773 L692.5007,92.7472 L693.8048,90.0736 L695.0481,87.3728 L696.4074,84.7241 L697.3887,81.9055 L697.5584,82.1508 L699.3417,80.9211 L701.0156,79.5332 L702.8497,78.3769 L704.6913,77.2315 L706.2949,75.7422 L706.2949,75.1011 L708.2949,76.3453 L710.2949,75.4786 L712.2949,76.2167 L714.2949,75.3022 L716.2949,75.7422" fill="none" style="stroke:#FF9900;stroke-width:1;"/><a href="/use-case/client-360/know-your-customer/core-record-management/countries/" target="_top" title="/use-case/client-360/know-your-customer/core-record-management/countries/" xlink:actuate="onRequest" xlink:href="/use-case/client-360/know-your-customer/core-record-management/countries/" xlink:show="new" xlink:title="/use-case/client-360/know-your-customer/core-record-management/countries/" xlink:type="simple"><text fill="#90EE90" font-family="'Roboto'" font-size="14" lengthAdjust="spacing" textLength="67.1289" x="723.2949" y="106.8857">Countries</text></a><path d="M666.2949,115.1875 L666.2949,115.3743 L668.2949,114.8192 L670.2949,115.3593 L672.2949,115.5428 L674.2949,114.5534 L676.2949,115.1875 L676.2949,115.1875 L676.2811,115.1559 L679.2188,113.699 L682.2265,112.4017 L685.2828,111.2152 L688.1716,109.6467 L691.2949,108.6133 L691.3937,108.8386 L694.1825,107.0419 L697.2596,105.9031 L700.372,104.8446 L703.2796,103.319 L706.2949,102.0391 L706.2949,102.0997 L708.2949,102.0107 L710.2949,102.1978 L712.2949,102.2516 L714.2949,102.5597 L716.2949,102.0391" fill="none" style="stroke:#FF9900;stroke-width:1;"/><a href="/use-case/client-360/know-your-customer/core-record-management/jurisdictions/" target="_top" title="/use-case/client-360/know-your-customer/core-record-management/jurisdictions/" xlink:actuate="onRequest" xlink:href="/use-case/client-360/know-your-customer/core-record-management/jurisdictions/" xlink:show="new" xlink:title="/use-case/client-360/know-your-customer/core-record-management/jurisdictions/" xlink:type="simple"><text fill="#90EE90" font-family="'Roboto'" font-size="14" lengthAdjust="spacing" textLength="84.5264" x="723.2949" y="133.1826">Jurisdictions</text></a><path d="M666.2949,115.1875 L666.2949,115.3743 L668.2949,114.8192 L670.2949,115.3593 L672.2949,115.5428 L674.2949,114.5534 L676.2949,115.1875 L676.2949,115.1875 L676.2811,115.1559 L679.2188,116.3287 L682.2265,117.6611 L685.2828,119.1043 L688.1716,120.1654 L691.2949,121.7617 L691.3937,121.9871 L694.1825,122.82 L697.2596,124.3109 L700.372,125.8821 L703.2796,126.9862 L706.2949,128.3359 L706.2949,128.3966 L708.2949,128.3075 L710.2949,128.4946 L712.2949,128.5485 L714.2949,128.8566 L716.2949,128.3359" fill="none" style="stroke:#FF9900;stroke-width:1;"/><a href="/use-case/client-360/know-your-customer/core-record-management/legal-entities/" target="_top" title="/use-case/client-360/know-your-customer/core-record-management/legal-entities/" xlink:actuate="onRequest" xlink:href="/use-case/client-360/know-your-customer/core-record-management/legal-entities/" xlink:show="new" xlink:title="/use-case/client-360/know-your-customer/core-record-management/legal-entities/" xlink:type="simple"><text fill="#90EE90" font-family="'Roboto'" font-size="14" lengthAdjust="spacing" textLength="94.6025" x="723.2949" y="159.4795">Legal Entities</text></a><path d="M666.2949,115.1875 L666.2949,115.3743 L668.2949,114.8192 L670.2949,115.3593 L672.2949,115.5428 L674.2949,114.5534 L676.2949,115.1875 L676.2949,115.1875 L676.2753,115.1591 L677.9683,116.2643 L679.7604,117.5127 L681.6214,118.8606 L683.2451,119.8655 L685.2012,121.3508 L685.4256,121.4517 L686.1644,123.9479 L687.5585,126.7385 L689.0325,129.5651 L690.0414,132.1827 L691.2949,134.9102 L691.3226,134.9226 L692.5007,137.6162 L693.8048,140.3664 L695.0481,143.0893 L696.4074,145.8643 L697.3887,148.4695 L697.5584,148.7147 L699.3417,149.9504 L701.0156,151.0279 L702.8497,152.3369 L704.6913,153.6568 L706.2949,154.6328 L706.2949,153.9918 L708.2949,155.2359 L710.2949,154.3693 L712.2949,155.1073 L714.2949,154.1928 L716.2949,154.6328" fill="none" style="stroke:#FF9900;stroke-width:1;"/><a href="/use-case/client-360/know-your-customer/core-record-management/locations/" target="_top" title="/use-case/client-360/know-your-customer/core-record-management/locations/" xlink:actuate="onRequest" xlink:href="/use-case/client-360/know-your-customer/core-record-management/locations/" xlink:show="new" xlink:title="/use-case/client-360/know-your-customer/core-record-management/locations/" xlink:type="simple"><text fill="#90EE90" font-family="'Roboto'" font-size="14" lengthAdjust="spacing" textLength="66.7529" x="723.2949" y="185.7764">Locations</text></a><path d="M666.2949,115.1875 L666.2949,115.3743 L668.2949,114.8192 L670.2949,115.3593 L672.2949,115.5428 L674.2949,114.5534 L676.2949,115.1875 L676.2949,115.1875 L676.2688,115.1649 L677.933,117.1178 L679.7286,119.1847 L681.6158,121.331 L683.1878,123.204 L685.2012,125.4597 L685.4365,125.5317 L685.5778,127.4835 L686.4062,129.6456 L687.3183,131.8333 L687.7428,133.8718 L688.4238,135.9887 L688.4533,135.9958 L688.9842,138.3994 L689.6495,140.835 L690.2499,143.2552 L690.9739,145.7049 L691.2949,148.0586 L691.5851,148.1276 L692.1628,150.5424 L692.5535,152.9127 L693.218,155.3482 L693.8954,157.7867 L694.166,160.1284 L693.8595,160.0346 L695.0989,162.3225 L695.3291,164.3015 L696.3265,166.5153 L696.5338,168.4873 L697.3887,170.6575 L697.3657,170.6375 L699.419,172.9278 L700.9348,174.7522 L702.7678,176.8515 L704.6274,178.9738 L706.2949,180.9297 L706.2949,181.2997 L708.2949,180.9262 L710.2949,181.185 L712.2949,180.4209 L714.2949,181.1825 L716.2949,180.9297" fill="none" style="stroke:#FF9900;stroke-width:1;"/><a href="/use-case/client-360/know-your-customer/core-record-management/regions/" target="_top" title="/use-case/client-360/know-your-customer/core-record-management/regions/" xlink:actuate="onRequest" xlink:href="/use-case/client-360/know-your-customer/core-record-management/regions/" xlink:show="new" xlink:title="/use-case/client-360/know-your-customer/core-record-management/regions/" xlink:type="simple"><text fill="#90EE90" font-family="'Roboto'" font-size="14" lengthAdjust="spacing" textLength="55.8496" x="723.2949" y="212.0732">Regions</text></a><path d="M666.2949,115.1875 L666.2949,115.3743 L668.2949,114.8192 L670.2949,115.3593 L672.2949,115.5428 L674.2949,114.5534 L676.2949,115.1875 L676.2949,115.1875 L676.2656,115.1693 L677.915,117.9639 L679.7125,120.8502 L681.6129,123.8002 L683.1587,126.5306 L685.2012,129.5686 L685.4416,129.6212 L685.572,132.4569 L686.4044,135.4461 L687.3223,138.454 L687.7421,141.353 L688.4238,144.3092 L688.4537,144.3143 L688.984,147.6864 L689.6505,151.0816 L690.2513,154.4657 L690.9773,157.8711 L691.2949,161.207 L691.589,161.257 L692.1668,164.6372 L692.5549,167.9851 L693.2207,171.3802 L693.8995,174.7775 L694.166,178.1048 L693.8529,178.0364 L695.1051,181.1174 L695.3263,183.9729 L696.3314,186.9999 L696.5292,189.8503 L697.3887,192.8455 L697.3628,192.8294 L699.4501,195.8952 L700.9328,198.5865 L702.7722,201.4988 L704.6416,204.4296 L706.2949,207.2266 L706.2949,207.5965 L708.2949,207.2231 L710.2949,207.4819 L712.2949,206.7177 L714.2949,207.4794 L716.2949,207.2266" fill="none" style="stroke:#FF9900;stroke-width:1;"/><a href="/use-case/client-360/know-your-customer/" target="_top" title="/use-case/client-360/know-your-customer/" xlink:actuate="onRequest" xlink:href="/use-case/client-360/know-your-customer/" xlink:show="new" xlink:title="/use-case/client-360/know-your-customer/" xlink:type="simple"><text fill="#90EE90" font-family="'Roboto'" font-size="14" lengthAdjust="spacing" textLength="146.7197" x="259.4951" y="120.0342">Know Your Customer</text></a><a href="/use-case/client-360/" target="_top" title="/use-case/client-360/" xlink:actuate="onRequest" xlink:href="/use-case/client-360/" xlink:show="new" xlink:title="/use-case/client-360/" xlink:type="simple"><text fill="#90EE90" font-family="'Roboto'" font-size="14" lengthAdjust="spacing" textLength="184.4951" x="14" y="120.0342">Client 360 / Customer 360</text></a><path d="M255.4951,115.1875 L255.4951,115.3743 L253.4951,114.8192 L251.4951,115.3593 L249.4951,115.5428 L247.4951,114.5534 L245.4951,115.1875 L245.4951,115.1875 L245.4951,115.153 L239.4951,114.9979 L233.4951,115.0171 L227.4951,115.1572 L221.4951,114.8802 L215.4951,115.1875 L215.4951,115.6796 L213.4951,114.6273 L211.4951,115.0117 L209.4951,115.5715 L207.4951,115.1113 L205.4951,115.1875" fill="none" style="stroke:#FF9900;stroke-width:1;"/><path d="M463.2148,115.1875 L463.2148,115.3743 L461.2148,114.8192 L459.2148,115.3593 L457.2148,115.5428 L455.2148,114.5534 L453.2148,115.1875 L453.2148,115.1875 L453.2148,115.153 L447.2148,114.9979 L441.2148,115.0171 L435.2148,115.1572 L429.2148,114.8802 L423.2148,115.1875 L423.2148,115.6796 L421.2148,114.6273 L419.2148,115.0117 L417.2148,115.5715 L415.2148,115.1113 L413.2148,115.1875" fill="none" style="stroke:#FF9900;stroke-width:1;"/><!--SRC=[xLfjJzj84FxkNx5NFhGLboQXW5fKLOGGQ24XA85ALLMXZJr9zcBlvdRNSBdJ_VSRst7iE8xpwW8wyeNrxkmppup7-_A8OwMfr0xZbaE7n1GI2XBmZrLmAASzS81hm_ZDWYxZG4xExngLhrTtrMQzsIB-RsU_T53k7CHDshLgy-gqqle-jainkQvKBoldjGdGZ4cpTLfhnVsGdMxti5igJKpEcbStKmQ-YVSp33LWV4WbTKY7ceEU52wtgi8MCZJKadA55bvqaV6NqH1adV51t9RisApNrpq9m0tZDM7Sj5qBYEu3wG47IMqoWL2aYnCxGlT_9_uqGhb5B2e7E5CB8kv1FaYcWJmmtGyms3rmea1hndigcO6RBr-hbrUrTfkKyJM8eMQ2apw2UYWQ9tQfhI0MmpMrB0GY-x6-LX2_HBBaGwo_tQUMUF2iaoX-9cpCn2st_0QCJM8sfz2bhgt9FmOXPuBhA-e0UTKI6BruDUuB4Xczgd5tc_qDfBnl_1l7gqWf7doqERFcWUcHZVaIjZMDDyHNZnKyuPSo_IHH7LFrxOtZXm1oF1OhINGK-U72MjN9LFalwySKpb1mh5ZVsThKv_8CykWwzjvq7YsgQOSgoCNjb2VJ5gxr2zm8smRJ-v9KJiuYNrKqaCBEtS-91qlbA7T7DQwPpjyDunfabvgGkwSs_Ea2D-4Qzq5ciY7bEe2xwJDpm44fN7eZSpKsztd5vooWE0EVoZPc5IrjN4Y7shEZATzmdNK1Dp38S34nMK3ONuvJNFZz6VZ- -1nw_bYKr_TUbwc5NCZ5DyhmwOtF-_1Va-g-lxZXHeSFEmj_yRK23qEQyfuDdpxXZgW4__pPV_DjB4yG6hV9Z9rfcpjEE1HbBtb2c5xaOiJXBoJBgNsNLmI90rzEOQYHqk0yv_pd5K6E-Gyt_-UM_eZtSyv-h8Wwumq-v9yukYSZya_OfULEdsldOb6OmVPbKTK7QxdOKqCtqJt57Kkk4ZlUBXQNMswHB_k2yVQjWwF4BDdmJkoDHJp2EwxNMz5Qiewh8NqupZAyFIVEsrIfN-pzDMcCnGOr19DrcOb92FRcb2lLEhmMXasZaytEsTd7ZpYU68mV_OnTl3a3QVcg26b4gaYXS4T-_2Yw2WechZH5qsRONNX_M2eEk7WeZ8Gh2wQhj7105iabzf7ls4UguxwVFn5ZFWYf-cs2RLASJF8USUBkxYhEqtMT8hKiYK62Af9AsDmQjcinZRZUdsrXTbncU-86yZq9czl2Dh74i9wzN5J3vhQm_t0bKnOBhfn5SX5_t9OF6thKBe1tE_E3g7lFmMrjYv7OmgJZAEfXSrlO4de1SYje8Eunu58HB1U6SRoKL9cZzlV4LRPe3LnQOfkUaWgpahWMpPs_RASlpvbosZPWizMpR9nqBclfPQixMb8XsnHuWIQs3lnoAjXco9cwrsRG6KhNPi3PsjPcs3cfMH6fEJfMn6yD2IlwfjBqgmXwddGLiOk9LX7eZ68L8IR4giIS9PIgcEkaHXNpCYrFnJx0DPMcx7LxrOgQBP3DbQJ7OhZmal_egNjQ35VGTnw9rnDDN0xIJCHeZUWoObWWmvJprrtoYcpks_d_wIeluicBUF8Ydho89tF4asiRJzotZJgvnvERzpz4vNTxfRs3T-Lo1pGjbzxSSiyPz-_93BSBpHnuQxmvlwuJXGJmYc0n5InCEFsjSK7lAMdXkqQx8z8S0hyulGmxC7NtJ0hkV-eNtngHmU5-uOHflAP894A-DOnGtwXnKtWrUKHkRyuA7umwRa8kHdT4W1j1KOrmhFqV]--></g></svg>