<svg xmlns="http://www.w3.org/2000/svg" xmlns:xlink="http://www.w3.org/1999/xlink" contentStyleType="text/css" data-diagram-type="MINDMAP" height="223px" preserveAspectRatio="none" style="width:790px;height:223px;" version="1.1" viewBox="0 0 790 223" width="790px" zoomAndPan="magnify"><defs/><g><polygon fill="#4051B5" points="443.5566,92.9648,443.5566,93.175,453.6679,92.5505,463.7792,93.1581,473.8905,93.3645,484.0017,92.2514,494.113,92.8871,504.2243,92.5384,514.3356,92.5813,524.4468,92.8967,534.5581,92.2735,544.6694,93.5185,554.7807,92.3346,564.8919,92.7671,575.0032,93.3968,585.1145,92.8791,595.2257,93.0331,605.337,92.9329,615.4483,93.1434,625.5596,92.9648,625.5901,93.0385,626.2,93.3795,626.7765,93.6401,627.3433,93.877,627.8548,93.9805,628.388,94.1364,628.5308,94.1956,628.8386,94.7917,628.6345,95.1758,629.2999,95.92,629.2339,96.3613,629.5596,96.9648,629.7375,96.9648,629.3946,102.3914,629.5367,107.818,629.8068,113.2445,629.5433,118.6711,629.5596,124.0977,629.592,124.1111,629.4295,124.7065,629.2191,125.2821,628.8554,125.7942,628.7108,126.397,628.388,126.9261,628.315,126.7498,627.8586,127.248,627.3266,127.5635,626.7476,127.7659,626.2035,128.0521,625.5596,128.0977,625.5596,127.6146,615.4483,127.4455,605.337,127.4763,595.2257,128.0388,585.1145,127.9011,575.0032,128.7791,564.8919,127.923,554.7807,127.7546,544.6694,128.3259,534.5581,127.4308,524.4468,127.5785,514.3356,128.7466,504.2243,128.5333,494.113,128.8321,484.0017,127.7759,473.8905,128.4169,463.7792,128.6881,453.6679,127.6253,443.5566,128.0977,443.5444,128.0681,443.007,127.9021,442.5084,127.8297,441.859,127.3934,441.3529,127.3029,440.7282,126.9261,440.5577,126.8554,440.2853,126.274,440.4147,125.859,439.8045,125.1376,439.9477,124.7283,439.5566,124.0977,439.6255,124.0977,439.4673,118.6711,439.4387,113.2445,439.7096,107.818,439.4569,102.3914,439.5566,96.9648,439.7389,97.0403,439.6207,96.3286,440.2154,95.9122,440.4087,95.3296,440.5693,94.7334,440.7282,94.1364,440.7342,94.151,441.3866,94.1259,441.9379,93.8567,442.4469,93.4856,443.0252,93.2817,443.5566,92.9648" style="stroke:#FF6F00;stroke-width:1.5;"/><text fill="#FFFFFF" font-family="'Roboto'" font-size="13" lengthAdjust="spacing" textLength="170.0029" x="449.5566" y="115.0317">Core Record Management</text><a href="/use-case/client-360/know-your-customer/core-record-management/addresses/" target="_top" title="/use-case/client-360/know-your-customer/core-record-management/addresses/" xlink:actuate="onRequest" xlink:href="/use-case/client-360/know-your-customer/core-record-management/addresses/" xlink:show="new" xlink:title="/use-case/client-360/know-your-customer/core-record-management/addresses/" xlink:type="simple"><text fill="#4051B5" font-family="'Roboto'" font-size="13" lengthAdjust="spacing" textLength="67.0566" x="686.5596" y="27.0669">Addresses</text></a><path d="M629.5596,110.5313 L629.5596,110.7181 L631.5596,110.163 L633.5596,110.7031 L635.5596,110.8865 L637.5596,109.8971 L639.5596,110.5313 L639.5596,110.5313 L639.5306,110.5125 L641.1817,107.6793 L642.979,104.9408 L644.8779,102.2681 L646.4267,99.3685 L648.4658,96.7867 L648.7057,96.8416 L648.8373,93.9067 L649.6692,91.1319 L650.5866,88.3767 L651.0068,85.5077 L651.6885,82.6986 L651.7183,82.7039 L652.2487,79.4662 L652.915,76.2526 L653.5158,73.0273 L654.2416,69.8243 L654.5596,66.5488 L654.8532,66.601 L655.431,63.3717 L655.8194,60.1087 L656.4851,56.895 L657.1637,53.6836 L657.4307,50.399 L657.1182,50.3276 L658.3692,47.6487 L658.5913,44.7344 L659.5955,41.9991 L659.7943,39.0795 L660.6533,36.3109 L660.6278,36.2944 L662.7112,33.7412 L664.1976,30.8013 L666.0363,28.0897 L667.9046,25.3972 L669.5596,22.5664 L669.5596,22.9364 L671.5596,22.5629 L673.5596,22.8217 L675.5596,22.0576 L677.5596,22.8192 L679.5596,22.5664" fill="none" style="stroke:#FF6F00;stroke-width:1;"/><a href="/use-case/client-360/know-your-customer/core-record-management/audit/" target="_top" title="/use-case/client-360/know-your-customer/core-record-management/audit/" xlink:actuate="onRequest" xlink:href="/use-case/client-360/know-your-customer/core-record-management/audit/" xlink:show="new" xlink:title="/use-case/client-360/know-your-customer/core-record-management/audit/" xlink:type="simple"><text fill="#4051B5" font-family="'Roboto'" font-size="13" lengthAdjust="spacing" textLength="34.0933" x="686.5596" y="52.1997">Audit</text></a><path d="M629.5596,110.5313 L629.5596,110.7181 L631.5596,110.163 L633.5596,110.7031 L635.5596,110.8865 L637.5596,109.8971 L639.5596,110.5313 L639.5596,110.5313 L639.534,110.508 L641.2004,108.4404 L642.9958,106.4897 L644.8809,104.6204 L646.457,102.4708 L648.4658,100.7137 L648.7002,100.7888 L648.8436,98.6157 L649.6712,96.6618 L650.5822,94.7345 L651.0076,92.6518 L651.6885,90.6508 L651.7179,90.6581 L652.2489,88.3403 L652.9139,86.0557 L653.5143,83.7551 L654.238,81.4852 L654.5596,79.1152 L654.849,79.1873 L655.4267,76.881 L655.8178,74.5283 L656.4822,72.2437 L657.1593,69.9622 L657.4307,67.5797 L657.1254,67.4819 L658.3624,65.6591 L658.5942,63.5143 L659.5902,61.6143 L659.7993,59.4622 L660.6533,57.5167 L660.6308,57.4963 L662.6787,55.7747 L664.1998,53.5752 L666.0317,51.6577 L667.8898,49.7638 L669.5596,47.6992 L669.5596,48.0692 L671.5596,47.6957 L673.5596,47.9545 L675.5596,47.1904 L677.5596,47.952 L679.5596,47.6992" fill="none" style="stroke:#FF6F00;stroke-width:1;"/><a href="/use-case/client-360/know-your-customer/core-record-management/buildings/" target="_top" title="/use-case/client-360/know-your-customer/core-record-management/buildings/" xlink:actuate="onRequest" xlink:href="/use-case/client-360/know-your-customer/core-record-management/buildings/" xlink:show="new" xlink:title="/use-case/client-360/know-your-customer/core-record-management/buildings/" xlink:type="simple"><text fill="#4051B5" font-family="'Roboto'" font-size="13" lengthAdjust="spacing" textLength="59.5093" x="686.5596" y="77.3325">Buildings</text></a><path d="M629.5596,110.5313 L629.5596,110.7181 L631.5596,110.163 L633.5596,110.7031 L635.5596,110.8865 L637.5596,109.8971 L639.5596,110.5313 L639.5596,110.5313 L639.5405,110.5024 L641.2363,109.195 L643.028,108.0329 L644.8866,106.9717 L646.5151,105.5626 L648.4658,104.6407 L648.6885,104.7455 L649.4311,101.9297 L650.8238,99.4197 L652.2958,96.947 L653.3063,94.2572 L654.5596,91.6816 L654.587,91.6945 L655.7655,89.0838 L657.0689,86.5318 L658.312,83.9514 L659.6701,81.4251 L660.6533,78.7225 L660.8178,78.9713 L662.6011,77.7962 L664.2782,76.4607 L666.1107,75.3601 L667.9505,74.2704 L669.5596,72.832 L669.5596,72.191 L671.5596,73.4352 L673.5596,72.5685 L675.5596,73.3065 L677.5596,72.392 L679.5596,72.832" fill="none" style="stroke:#FF6F00;stroke-width:1;"/><a href="/use-case/client-360/know-your-customer/core-record-management/countries/" target="_top" title="/use-case/client-360/know-your-customer/core-record-management/countries/" xlink:actuate="onRequest" xlink:href="/use-case/client-360/know-your-customer/core-record-management/countries/" xlink:show="new" xlink:title="/use-case/client-360/know-your-customer/core-record-management/countries/" xlink:type="simple"><text fill="#4051B5" font-family="'Roboto'" font-size="13" lengthAdjust="spacing" textLength="62.334" x="686.5596" y="102.4653">Countries</text></a><path d="M629.5596,110.5313 L629.5596,110.7181 L631.5596,110.163 L633.5596,110.7031 L635.5596,110.8865 L637.5596,109.8971 L639.5596,110.5313 L639.5596,110.5313 L639.5462,110.4994 L642.4863,109.0998 L645.4937,107.8608 L648.5479,106.7334 L651.4409,105.2213 L654.5596,104.248 L654.6546,104.475 L657.4513,102.733 L660.5256,101.6537 L663.6337,100.6552 L666.5448,99.1863 L669.5596,97.9648 L669.5596,98.0255 L671.5596,97.9364 L673.5596,98.1235 L675.5596,98.1774 L677.5596,98.4855 L679.5596,97.9648" fill="none" style="stroke:#FF6F00;stroke-width:1;"/><a href="/use-case/client-360/know-your-customer/core-record-management/jurisdictions/" target="_top" title="/use-case/client-360/know-your-customer/core-record-management/jurisdictions/" xlink:actuate="onRequest" xlink:href="/use-case/client-360/know-your-customer/core-record-management/jurisdictions/" xlink:show="new" xlink:title="/use-case/client-360/know-your-customer/core-record-management/jurisdictions/" xlink:type="simple"><text fill="#4051B5" font-family="'Roboto'" font-size="13" lengthAdjust="spacing" textLength="78.4888" x="686.5596" y="127.5981">Jurisdictions</text></a><path d="M629.5596,110.5313 L629.5596,110.7181 L631.5596,110.163 L633.5596,110.7031 L635.5596,110.8865 L637.5596,109.8971 L639.5596,110.5313 L639.5596,110.5313 L639.5462,110.4994 L642.4863,111.6131 L645.4937,112.8873 L648.5479,114.2732 L651.4409,115.2744 L654.5596,116.8145 L654.6546,117.0414 L657.4513,117.8127 L660.5256,119.2467 L663.6337,120.7614 L666.5448,121.8059 L669.5596,123.0977 L669.5596,123.1583 L671.5596,123.0693 L673.5596,123.2563 L675.5596,123.3102 L677.5596,123.6183 L679.5596,123.0977" fill="none" style="stroke:#FF6F00;stroke-width:1;"/><a href="/use-case/client-360/know-your-customer/core-record-management/legal-entities/" target="_top" title="/use-case/client-360/know-your-customer/core-record-management/legal-entities/" xlink:actuate="onRequest" xlink:href="/use-case/client-360/know-your-customer/core-record-management/legal-entities/" xlink:show="new" xlink:title="/use-case/client-360/know-your-customer/core-record-management/legal-entities/" xlink:type="simple"><text fill="#4051B5" font-family="'Roboto'" font-size="13" lengthAdjust="spacing" textLength="87.8452" x="686.5596" y="152.731">Legal Entities</text></a><path d="M629.5596,110.5313 L629.5596,110.7181 L631.5596,110.163 L633.5596,110.7031 L635.5596,110.8865 L637.5596,109.8971 L639.5596,110.5313 L639.5596,110.5313 L639.5405,110.5024 L641.2363,111.5512 L643.028,112.7453 L644.8866,114.0403 L646.5151,114.9874 L648.4658,116.4218 L648.6885,116.5265 L649.4311,118.8944 L650.8238,121.568 L652.2958,124.2789 L653.3063,126.7728 L654.5596,129.3809 L654.587,129.3938 L655.7655,131.9666 L657.0689,134.5983 L658.312,137.2015 L659.6701,139.8589 L660.6533,142.34 L660.8178,142.5887 L662.6011,143.7699 L664.2782,144.7906 L666.1107,146.0461 L667.9505,147.3127 L669.5596,148.2305 L669.5596,147.5894 L671.5596,148.8336 L673.5596,147.9669 L675.5596,148.705 L677.5596,147.7904 L679.5596,148.2305" fill="none" style="stroke:#FF6F00;stroke-width:1;"/><a href="/use-case/client-360/know-your-customer/core-record-management/locations/" target="_top" title="/use-case/client-360/know-your-customer/core-record-management/locations/" xlink:actuate="onRequest" xlink:href="/use-case/client-360/know-your-customer/core-record-management/locations/" xlink:show="new" xlink:title="/use-case/client-360/know-your-customer/core-record-management/locations/" xlink:type="simple"><text fill="#4051B5" font-family="'Roboto'" font-size="13" lengthAdjust="spacing" textLength="61.9849" x="686.5596" y="177.8638">Locations</text></a><path d="M629.5596,110.5313 L629.5596,110.7181 L631.5596,110.163 L633.5596,110.7031 L635.5596,110.8865 L637.5596,109.8971 L639.5596,110.5313 L639.5596,110.5313 L639.534,110.508 L641.2004,112.3674 L642.9958,114.3437 L644.8809,116.4014 L646.457,118.1788 L648.4658,120.3488 L648.7002,120.4238 L648.8436,122.2759 L649.6712,124.3471 L650.5822,126.4451 L651.0076,128.3875 L651.6885,130.4117 L651.7179,130.419 L652.2489,132.7154 L652.9139,135.0451 L653.5143,137.3587 L654.238,139.703 L654.5596,141.9473 L654.849,142.0193 L655.4267,144.3273 L655.8178,146.5888 L656.4822,148.9184 L657.1593,151.2511 L657.4307,153.4828 L657.1254,153.3851 L658.3624,155.5874 L658.5942,157.4678 L659.5902,159.593 L659.7993,161.4661 L660.6533,163.5458 L660.6308,163.5253 L662.6787,165.7307 L664.1998,167.4582 L666.0317,169.4677 L667.8898,171.5009 L669.5596,173.3633 L669.5596,173.7333 L671.5596,173.3598 L673.5596,173.6186 L675.5596,172.8545 L677.5596,173.6161 L679.5596,173.3633" fill="none" style="stroke:#FF6F00;stroke-width:1;"/><a href="/use-case/client-360/know-your-customer/core-record-management/regions/" target="_top" title="/use-case/client-360/know-your-customer/core-record-management/regions/" xlink:actuate="onRequest" xlink:href="/use-case/client-360/know-your-customer/core-record-management/regions/" xlink:show="new" xlink:title="/use-case/client-360/know-your-customer/core-record-management/regions/" xlink:type="simple"><text fill="#4051B5" font-family="'Roboto'" font-size="13" lengthAdjust="spacing" textLength="51.8604" x="686.5596" y="202.9966">Regions</text></a><path d="M629.5596,110.5313 L629.5596,110.7181 L631.5596,110.163 L633.5596,110.7031 L635.5596,110.8865 L637.5596,109.8971 L639.5596,110.5313 L639.5596,110.5313 L639.5306,110.5125 L641.1817,113.1771 L642.979,115.9364 L644.8779,118.7615 L646.4267,121.3598 L648.4658,124.2758 L648.7057,124.3306 L648.8373,127.0309 L649.6692,129.8914 L650.5866,132.7714 L651.0068,135.5378 L651.6885,138.3639 L651.7183,138.3692 L652.2487,141.5914 L652.915,144.8377 L653.5158,148.0724 L654.2416,151.3293 L654.5596,154.5137 L654.8532,154.5659 L655.431,157.7965 L655.8194,160.9934 L656.4851,164.2396 L657.1637,167.4881 L657.4307,170.6635 L657.1182,170.592 L658.3692,173.5483 L658.5913,176.2693 L659.5955,179.1692 L659.7943,181.8849 L660.6533,184.7516 L660.6278,184.735 L662.7112,187.6797 L664.1976,190.2376 L666.0363,193.0237 L667.9046,195.829 L669.5596,198.4961 L669.5596,198.8661 L671.5596,198.4926 L673.5596,198.7514 L675.5596,197.9873 L677.5596,198.7489 L679.5596,198.4961" fill="none" style="stroke:#FF6F00;stroke-width:1;"/><a href="/use-case/client-360/know-your-customer/" target="_top" title="/use-case/client-360/know-your-customer/" xlink:actuate="onRequest" xlink:href="/use-case/client-360/know-your-customer/" xlink:show="new" xlink:title="/use-case/client-360/know-your-customer/" xlink:type="simple"><text fill="#4051B5" font-family="'Roboto'" font-size="13" lengthAdjust="spacing" textLength="136.2397" x="246.3169" y="115.0317">Know Your Customer</text></a><a href="/use-case/client-360/" target="_top" title="/use-case/client-360/" xlink:actuate="onRequest" xlink:href="/use-case/client-360/" xlink:show="new" xlink:title="/use-case/client-360/" xlink:type="simple"><text fill="#4051B5" font-family="'Roboto'" font-size="13" lengthAdjust="spacing" textLength="171.3169" x="14" y="115.0317">Client 360 / Customer 360</text></a><path d="M242.3169,110.5313 L242.3169,110.7181 L240.3169,110.163 L238.3169,110.7031 L236.3169,110.8865 L234.3169,109.8971 L232.3169,110.5313 L232.3169,110.5313 L232.3169,110.4967 L226.3169,110.3417 L220.3169,110.3608 L214.3169,110.501 L208.3169,110.224 L202.3169,110.5313 L202.3169,111.0234 L200.3169,109.971 L198.3169,110.3555 L196.3169,110.9152 L194.3169,110.455 L192.3169,110.5313" fill="none" style="stroke:#FF6F00;stroke-width:1;"/><path d="M439.5566,110.5313 L439.5566,110.7181 L437.5566,110.163 L435.5566,110.7031 L433.5566,110.8865 L431.5566,109.8971 L429.5566,110.5313 L429.5566,110.5313 L429.5566,110.4967 L423.5566,110.3417 L417.5566,110.3608 L411.5566,110.501 L405.5566,110.224 L399.5566,110.5313 L399.5566,111.0234 L397.5566,109.971 L395.5566,110.3555 L393.5566,110.9152 L391.5566,110.455 L389.5566,110.5313" fill="none" style="stroke:#FF6F00;stroke-width:1;"/><!--SRC=[xLfPRziu47xNhvXj7jeYTMstQL0KHL77IO_4YGCxwQ8eYe2MQ9iRcVIILBBPnVxt7LscfCYI3scR0lLBA7BupS5hvaFUAqsadZ7kpCWSR25fGrByupHcX9C9dL6kBUitXuuPft3myUgqy_digjllzGSG_7RsMg_QerT9aU5Hjtzss1byZUHoHCuxtPFEnwC5q3sH_k3mQ93K0plZyVwurLg8VEYVNQG40X7_jn3f30RztzCoCOgbhXcV4qbcC2BszKGAZpjTuGe9EreIhd3CTzs8VRgRK-aoVXr9HHPRZu5ns_KS2dfAOK8vbSI5nJm5OvGU2Jrz1YwRJ3KGxe13v3NEr0B43PMtacaAjqnFGmnsGpaegZNZ4vMDoSMdpzsJiwFX4DguC6AkcU0mHL0VHUF4CN4LJHX-JXm7WM0lqJS8tPLeBBnEz0-dn16tldGMPU7-9NU21er44ZA7T4myLyC_5i07mVKPcL5uD13elNWKzONHCuiNTG_PtnJQUzQ_IRoEbE8sG5ioQncOldCnNi9rqdXpN6dSqmlxSgOVP3P3QiVxutWqg8p64fiK5HazN3ZhAaaTY5Nrs68s5notQQ1iOzENsXd6qPkvBz9nT8Wc8w9eBMfJccnNUCx_e4QuBhNzawHgKcPqTL502hTsFGS-B95tjIiwufhf-jKmhgaS4vlMhcb8__Gej-avlepCPdF2TGXtCMNsDQTAuTLhn5Ka7jYLd5DYuZtuN6iJKkPguqBEY7j_DESCzzYOzl2sBb2n42anEBYESrG4_GNumVWIyu8n4zUNVfUjXIor9H0gqEcFBpluZw6x5rnk-D3XnqxfBtbNO7ga2P-uzErRV16LuE_U1Ii_nEr9XSPdik1bglB5YOTCzB8PGlgIInXE_q9ZEN6lwl8WamBMv8QwKvhEVkRur-L1ZV6F7_-VBVp6xfyv-ebDD8eU-DZ-JEgUzIZ8i5khPPyRnwBCpV3vSeYQKcSrttDTjr4zmHTBhkCxLXVbswqsprTTuDLhgBW2JHPGByFdhOz5fMHOX3WHcb-3naM-NvqeQC3CKzel8IYGCNeTQyxKCGbzKNLTKA0b2kuYKzCvZ8bCfinGckWmgofVjwKBWwc0rfADF4sNIvZ49kr1OHsMAbE8KjjRMgJiCPn6wwVcr6PZPcDyWWm6b_9swXC86YysJ9ELl_318Z-3aUjHN6FEgPyFAH2UzeVpQjNQB3UwI3hPQrlMRbT82eE0SO9JmpWr6bVmxLlJKxHXuvtTj5s6tOsN-wtcDHUtZJlXoOQD6nYthsp22VR1L-o3RjJt_JjYB0U1Rj06R4DpCSd_n8cxk-iep-VCciHn93f9LHCwSRCoRCzX6d7zFrLXZZpc-ZGHsdiGDwl2jd5FuHdqOz6DcrLX_-59fXmM5kzDE4v-LgN3fHFYDgXVvmPEzFpliEwjq1DNs2JoeXStgyAMT18Y3y86uhwdU9s4LufblL-91gwED7tWz6JyrAt1JQQdvCAinKgQkTbhsJocoLit9hPBUCWgO8jfnsASV5is8XhNLxGYjRWjS0cPk0dyQlJXTiY5XE5sq0KKuNR0nQJWTjWrqO36g2K4eB5l0-xFdAayuiz0B-FyZ7M9fDY0tgFw36A6vSlCMO7YIwZEadi9BMbUBt40DwJeYk_jTNVK_GsoFGNteomiPKT-UEWUbeLh46C_oAu76hWQE2rZqGRU5VXGmb-rwoUiwl9iwUfKG4XjmIZbFjQLiqa6CJzmkIHIQZZrM4OMBykaLoIEoeqgXIyWTof0_qNd_A9pVj4v3v7EENUnABWyxS4D9fV-_uUrdxzelNZrlDqUKKtQhIUNt5V6WrAUuVMfsOm-jPvyFE-1GWEmYd6O2cyydFxKEYOt10QurYZt1lfpoeyFJ-8E3DqDau87H_tuowaHsDzh732DbPH4G-3BgHK_9aVS5lwUV0EN5nyQhwqUlfCUUlS6ABV2JNM7OyF_0000]--></g></svg>