<svg xmlns="http://www.w3.org/2000/svg" xmlns:xlink="http://www.w3.org/1999/xlink" contentStyleType="text/css" data-diagram-type="MINDMAP" height="77px" preserveAspectRatio="none" style="width:891px;height:77px;" version="1.1" viewBox="0 0 891 77" width="891px" zoomAndPan="magnify"><defs/><g><polygon fill="#4051B5" points="544.751,20,544.751,20.2102,554.7388,19.5857,564.7267,20.1933,574.7145,20.3997,584.7024,19.2866,594.6902,19.9223,604.6781,19.5735,614.6659,19.6165,624.6538,19.9318,634.6416,19.3086,644.6294,20.5536,654.6173,19.3697,664.6051,19.8022,674.593,20.4319,684.5808,19.9142,694.5687,20.0682,704.5565,19.9681,714.5444,20.1785,724.5322,20,724.5627,20.0736,725.1726,20.4147,725.7492,20.6753,726.3159,20.9121,726.8274,21.0157,727.3607,21.1716,727.5034,21.2307,727.8112,21.8268,727.6072,22.2109,728.2726,22.9552,728.2066,23.3965,728.5322,24,728.7102,24,728.3672,29.4266,728.5094,34.8531,728.7794,40.2797,728.516,45.7063,728.5322,51.1328,728.5647,51.1462,728.4022,51.7417,728.1918,52.3173,727.8281,52.8294,727.6834,53.4322,727.3607,53.9612,727.2876,53.785,726.8312,54.2831,726.2992,54.5987,725.7203,54.8011,725.1761,55.0873,724.5322,55.1328,724.5322,54.6497,714.5444,54.4806,704.5565,54.5114,694.5687,55.0739,684.5808,54.9363,674.593,55.8142,664.6051,54.9581,654.6173,54.7898,644.6294,55.3611,634.6416,54.466,624.6538,54.6137,614.6659,55.7818,604.6781,55.5685,594.6902,55.8673,584.7024,54.811,574.7145,55.452,564.7267,55.7232,554.7388,54.6604,544.751,55.1328,544.7387,55.1033,544.2014,54.9373,543.7027,54.8649,543.0534,54.4286,542.5472,54.338,541.9225,53.9612,541.752,53.8906,541.4797,53.3092,541.609,52.8941,540.9988,52.1727,541.142,51.7634,540.751,51.1328,540.8199,51.1328,540.6617,45.7063,540.6331,40.2797,540.9039,34.8531,540.6512,29.4266,540.751,24,540.9332,24.0755,540.8151,23.3638,541.4097,22.9474,541.6031,22.3647,541.7637,21.7685,541.9225,21.1716,541.9286,21.1861,542.5809,21.161,543.1322,20.8919,543.6412,20.5208,544.2195,20.3169,544.751,20" style="stroke:#FF6F00;stroke-width:1.5;"/><text fill="#FFFFFF" font-family="'Roboto'" font-size="13" lengthAdjust="spacing" textLength="167.7813" x="550.751" y="42.0669">Opportunity Management</text><a href="/use-case/client-360/customer-relationship-management/opportunity-management/forecasting/" target="_top" title="/use-case/client-360/customer-relationship-management/opportunity-management/forecasting/" xlink:actuate="onRequest" xlink:href="/use-case/client-360/customer-relationship-management/opportunity-management/forecasting/" xlink:show="new" xlink:title="/use-case/client-360/customer-relationship-management/opportunity-management/forecasting/" xlink:type="simple"><text fill="#4051B5" font-family="'Roboto'" font-size="13" lengthAdjust="spacing" textLength="75.8608" x="785.5322" y="29.5005">Forecasting</text></a><path d="M728.5322,37.5664 L728.5322,37.7532 L730.5322,37.1981 L732.5322,37.7382 L734.5322,37.9217 L736.5322,36.9323 L738.5322,37.5664 L738.5322,37.5664 L738.5189,37.5345 L741.459,36.1349 L744.4664,34.8959 L747.5205,33.7685 L750.4135,32.2564 L753.5322,31.2832 L753.6273,31.5102 L756.424,29.7682 L759.4983,28.6889 L762.6064,27.6904 L765.5175,26.2215 L768.5322,25 L768.5322,25.0607 L770.5322,24.9716 L772.5322,25.1587 L774.5322,25.2126 L776.5322,25.5206 L778.5322,25" fill="none" style="stroke:#FF6F00;stroke-width:1;"/><a href="/use-case/client-360/customer-relationship-management/opportunity-management/sales-pipeline/" target="_top" title="/use-case/client-360/customer-relationship-management/opportunity-management/sales-pipeline/" xlink:actuate="onRequest" xlink:href="/use-case/client-360/customer-relationship-management/opportunity-management/sales-pipeline/" xlink:show="new" xlink:title="/use-case/client-360/customer-relationship-management/opportunity-management/sales-pipeline/" xlink:type="simple"><text fill="#4051B5" font-family="'Roboto'" font-size="13" lengthAdjust="spacing" textLength="89.8955" x="785.5322" y="54.6333">Sales Pipeline</text></a><path d="M728.5322,37.5664 L728.5322,37.7532 L730.5322,37.1981 L732.5322,37.7382 L734.5322,37.9217 L736.5322,36.9323 L738.5322,37.5664 L738.5322,37.5664 L738.5189,37.5345 L741.459,38.6482 L744.4664,39.9225 L747.5205,41.3084 L750.4135,42.3096 L753.5322,43.8496 L753.6273,44.0766 L756.424,44.8479 L759.4983,46.2818 L762.6064,47.7966 L765.5175,48.841 L768.5322,50.1328 L768.5322,50.1935 L770.5322,50.1044 L772.5322,50.2915 L774.5322,50.3454 L776.5322,50.6534 L778.5322,50.1328" fill="none" style="stroke:#FF6F00;stroke-width:1;"/><a href="/use-case/client-360/customer-relationship-management/" target="_top" title="/use-case/client-360/customer-relationship-management/" xlink:actuate="onRequest" xlink:href="/use-case/client-360/customer-relationship-management/" xlink:show="new" xlink:title="/use-case/client-360/customer-relationship-management/" xlink:type="simple"><text fill="#4051B5" font-family="'Roboto'" font-size="13" lengthAdjust="spacing" textLength="237.4341" x="246.3169" y="42.0669">Customer Relationship Management</text></a><a href="/use-case/client-360/" target="_top" title="/use-case/client-360/" xlink:actuate="onRequest" xlink:href="/use-case/client-360/" xlink:show="new" xlink:title="/use-case/client-360/" xlink:type="simple"><text fill="#4051B5" font-family="'Roboto'" font-size="13" lengthAdjust="spacing" textLength="171.3169" x="14" y="42.0669">Client 360 / Customer 360</text></a><path d="M242.3169,37.5664 L242.3169,37.7532 L240.3169,37.1981 L238.3169,37.7382 L236.3169,37.9217 L234.3169,36.9323 L232.3169,37.5664 L232.3169,37.5664 L232.3169,37.5319 L226.3169,37.3769 L220.3169,37.396 L214.3169,37.5361 L208.3169,37.2591 L202.3169,37.5664 L202.3169,38.0585 L200.3169,37.0062 L198.3169,37.3906 L196.3169,37.9504 L194.3169,37.4902 L192.3169,37.5664" fill="none" style="stroke:#FF6F00;stroke-width:1;"/><path d="M540.751,37.5664 L540.751,37.7532 L538.751,37.1981 L536.751,37.7382 L534.751,37.9217 L532.751,36.9323 L530.751,37.5664 L530.751,37.5664 L530.751,37.5319 L524.751,37.3769 L518.751,37.396 L512.751,37.5361 L506.751,37.2591 L500.751,37.5664 L500.751,38.0585 L498.751,37.0062 L496.751,37.3906 L494.751,37.9504 L492.751,37.4902 L490.751,37.5664" fill="none" style="stroke:#FF6F00;stroke-width:1;"/><!--SRC=[xLfRJ-Cu57xFhpWxF30ZfjEMcqPeD08AmmoteXPcjHgDa9kur2ArCxO3owxsl-z9cjPEI9DUo0BIyjJOnz-v-DW-vnExIXEfXunxGnA0208XTSYPVgWD2IStT4YvTfpVFDfddCB-qVNPthVpwrRxjDs1-6zbix7Lx6tP8jt3LllyOA_pHoAN8tAnrphPEpgS03qIQNSE3Zks7bZfzxVxZSP4v4lx_38b48j4VnEHlKwd_NjQPepYg5l60oB947h4lRsH8kHUI_X2megMX2kSYrmtObyV0YfzncyJgSHYPnKOT_tGew0756uefvBuC5cde8_IFQ47xy5dDmCDX7lW4NcBAxK0SKVblMIQmZtJWn46kwCS5DMQyHkLZSdbrs-ja_F3RXUQk34Yq4nm621eXA9nOP_uYbg6Nn3FGo3OjCOw8tSb6WiVhV7kW7ZYFfBEeapSl-9U_8Cc8fRC0UsJqDVmjmFmHN1zJeOKtdG4UY_U96EZw9dDIuQxx2yApKtd7njlJqfn7wDDMJKDJ3_u62_XUscy07SQStfYNyxo_Kmof38-cXSItK_ch2H5HKOF5zwyIb87ObOzhXW6WcEQnieMDdsgdQCuXaD_FHr7ZsZI8ufMeZQboVL5wFq7QeJlKpSwIQeYPKPN2mMay2lNin_14lbGkQ93hl6zg5mDuvhAFd5fvPgwz5T8kKily6LaBWi8roEuom5pRpbL2gzU8wuIyTWkUqs9YO_WSwsrfCpLneKS4l_nRCuPFcLzUegtTO6AYKY9mV5rdACY7Y_0Z-Udc1VFcRXkH4Ek5hBKbbYeG6SqF-tWhq9hCxxSyA73ZvNIF_kka7XH47xZqq-Vy4LKWd_-7Ezy5zEJ2etFPC7Bz9GlpdZAH2zR8QGlESjm-YSQoub_NPK7cHAm8ZVKWz9q-9hZNvK75SP__FY_jl0RkrzpzAqawYKF_DZ-JEcUzIYki1kpLPyBnwBCpT7pvH4reDvilkUwxg9wWY-MdCTtx2xAqwqopsVTuDbxg747QZTG6wFdhOrDfMJOX7W9MjI3Zflyg3jHK8DXg7JKGb0WVVHwh3dJnrZwakwwe46p6kuYKzCrZ8bCfirGckXHLLM-RrCt1ai1hINhXPfEbp25JTg3mZuirQOGfPQtj4ZPAfmb-wS2wh8-Sp4-SGM3Mta_Y0W4ZHSRbiagslXuazz3pmyfxZ7dDAg758XGHzDvlMfbbXjT95tiDHrdhMqO9pWpZ5EjTWq_VjH3HMiktjbrrsSuNDlORjHTJ5jCMbcJr2TnopPWWSLMrQ6LI437ah3GV_v4_EaAe1N_1lmD5XX-uiArjSKDosVNwdWsAM95P4yT8ppvg4QR8ZvLjO05DE9mwj2Dlk4Y-KQTknJJR9HgZhCx4ptuT6JQ2wUjnbVW79nLUaakp5nibLcRFQxcahLFuvZmBE6ddWAsc8ugnictPI42Qdv5Cr9EomANa4oBmCz6Aos7N4WaBGTTG1qj1rnC5Ys7NH4zP8oQGWmP-nRWXCoPoYE43FGqBiXOPnLB1lGH1MGGC-nFPiqCr8-bEalwM5hIV8zr01UaRehlxNapwd62B4_DF9U5fLtpiuVkPLau1s7oJ7QzqC1Lm7KOYnRmhi274bwZMJsHKPLdKtVd2OYA9PY6tCVwoLa6WvWVk5no8JMTUYmJYwTLqZCI2kL6bS8NDFrFWFv_c__QslmB7ul5gxDJkCEY8_f_akQ7zSRwreTciqSrQJRUNl5RBkvvtE8nF5QQ3Uaxv-tHnIae4KgiRZscHYS1bxzpZiaTWKx88xaTQ0UK7n-SZ0UmxBzZKl0u1Ow_dnc1xStQFjDOOKiq1BwVEUDBvf2x8c83Tk3gyaljetEAzsU8lku0vKuBirVB1vph_Wi0]--></g></svg>