<svg xmlns="http://www.w3.org/2000/svg" xmlns:xlink="http://www.w3.org/1999/xlink" contentStyleType="text/css" data-diagram-type="MINDMAP" height="78px" preserveAspectRatio="none" style="width:942px;height:78px;" version="1.1" viewBox="0 0 942 78" width="942px" zoomAndPan="magnify"><defs/><g><polygon fill="#4051B5" points="576.1934,20,576.1934,20.2102,586.3348,19.5857,596.4763,20.1933,606.6177,20.3997,616.7591,19.2866,626.9006,19.9223,637.042,19.5735,647.1835,19.6165,657.3249,19.9318,667.4664,19.3086,677.6078,20.5536,687.7493,19.3697,697.8907,19.8022,708.0322,20.4319,718.1736,19.9142,728.3151,20.0682,738.4565,19.9681,748.598,20.1785,758.7394,20.2391,768.8809,20,768.9556,20.1804,769.5321,20.441,770.0989,20.6778,770.6104,20.7814,771.2027,21.08,771.7093,21.1716,771.9255,21.2612,771.7215,21.6453,772.3869,22.3895,772.3209,22.8308,772.8109,23.5024,772.8809,24,772.7159,24,772.858,29.6594,773.1281,35.3188,772.8646,40.9781,772.916,46.6375,772.8809,52.2969,772.9851,52.3401,772.7747,52.9157,772.411,53.4277,772.2664,54.0306,771.7673,54.4866,771.7093,55.1253,771.7456,55.2129,771.2135,55.5284,770.6346,55.7308,770.0904,56.017,769.3849,55.9138,768.8809,56.2969,768.8809,55.6447,758.7394,55.6755,748.598,56.238,738.4565,56.1003,728.3151,56.9783,718.1736,56.1222,708.0322,55.9538,697.8907,56.5251,687.7493,55.63,677.6078,55.7777,667.4664,56.9458,657.3249,56.7325,647.1835,57.0314,637.042,55.9751,626.9006,56.6161,616.7591,56.8873,606.6177,55.8245,596.4763,56.201,586.3348,56.4229,576.1934,56.2969,576.2765,56.4976,575.6271,56.0613,575.121,55.9707,574.4257,55.4234,573.8442,55.151,573.3649,55.1253,573.52,55.1895,572.9098,54.4682,573.053,54.0589,572.7256,53.4546,572.3452,52.8284,572.1934,52.2969,572.0754,52.2969,572.3463,46.6375,572.0936,40.9781,572.3906,35.3188,572.0091,29.6594,572.1934,24,572.3835,24.0788,572.5768,23.4961,572.7374,22.8999,572.9108,22.309,573.3544,21.8299,573.3649,21.1716,573.4432,21.3605,573.9522,20.9894,574.5305,20.7855,575.0454,20.4285,575.7191,20.455,576.1934,20" style="stroke:#FF6F00;stroke-width:1.5;"/><text fill="#FFFFFF" font-family="'Roboto'" font-size="14" lengthAdjust="spacing" textLength="180.6875" x="582.1934" y="42.9951">Opportunity Management</text><a href="/use-case/client-360/customer-relationship-management/opportunity-management/forecasting/" target="_top" title="/use-case/client-360/customer-relationship-management/opportunity-management/forecasting/" xlink:actuate="onRequest" xlink:href="/use-case/client-360/customer-relationship-management/opportunity-management/forecasting/" xlink:show="new" xlink:title="/use-case/client-360/customer-relationship-management/opportunity-management/forecasting/" xlink:type="simple"><text fill="#90EE90" font-family="'Roboto'" font-size="14" lengthAdjust="spacing" textLength="81.6963" x="829.8809" y="29.8467">Forecasting</text></a><path d="M772.8809,38.1484 L772.8809,38.3353 L774.8809,37.7802 L776.8809,38.3202 L778.8809,38.5037 L780.8809,37.5143 L782.8809,38.1484 L782.8809,38.1484 L782.867,38.1168 L785.8048,36.66 L788.8124,35.3626 L791.8687,34.1762 L794.7575,32.6076 L797.8809,31.5742 L797.9796,31.7996 L800.7684,30.0028 L803.8456,28.864 L806.9579,27.8055 L809.8656,26.2799 L812.8809,25 L812.8809,25.0607 L814.8809,24.9716 L816.8809,25.1587 L818.8809,25.2126 L820.8809,25.5206 L822.8809,25" fill="none" style="stroke:#FF9900;stroke-width:1;"/><a href="/use-case/client-360/customer-relationship-management/opportunity-management/sales-pipeline/" target="_top" title="/use-case/client-360/customer-relationship-management/opportunity-management/sales-pipeline/" xlink:actuate="onRequest" xlink:href="/use-case/client-360/customer-relationship-management/opportunity-management/sales-pipeline/" xlink:show="new" xlink:title="/use-case/client-360/customer-relationship-management/opportunity-management/sales-pipeline/" xlink:type="simple"><text fill="#90EE90" font-family="'Roboto'" font-size="14" lengthAdjust="spacing" textLength="96.8105" x="829.8809" y="56.1436">Sales Pipeline</text></a><path d="M772.8809,38.1484 L772.8809,38.3353 L774.8809,37.7802 L776.8809,38.3202 L778.8809,38.5037 L780.8809,37.5143 L782.8809,38.1484 L782.8809,38.1484 L782.867,38.1168 L785.8048,39.2897 L788.8124,40.622 L791.8687,42.0652 L794.7575,43.1264 L797.8809,44.7227 L797.9796,44.948 L800.7684,45.7809 L803.8456,47.2718 L806.9579,48.843 L809.8656,49.9471 L812.8809,51.2969 L812.8809,51.3575 L814.8809,51.2685 L816.8809,51.4556 L818.8809,51.5094 L820.8809,51.8175 L822.8809,51.2969" fill="none" style="stroke:#FF9900;stroke-width:1;"/><a href="/use-case/client-360/customer-relationship-management/" target="_top" title="/use-case/client-360/customer-relationship-management/" xlink:actuate="onRequest" xlink:href="/use-case/client-360/customer-relationship-management/" xlink:show="new" xlink:title="/use-case/client-360/customer-relationship-management/" xlink:type="simple"><text fill="#90EE90" font-family="'Roboto'" font-size="14" lengthAdjust="spacing" textLength="255.6982" x="259.4951" y="42.9951">Customer Relationship Management</text></a><a href="/use-case/client-360/" target="_top" title="/use-case/client-360/" xlink:actuate="onRequest" xlink:href="/use-case/client-360/" xlink:show="new" xlink:title="/use-case/client-360/" xlink:type="simple"><text fill="#90EE90" font-family="'Roboto'" font-size="14" lengthAdjust="spacing" textLength="184.4951" x="14" y="42.9951">Client 360 / Customer 360</text></a><path d="M255.4951,38.1484 L255.4951,38.3353 L253.4951,37.7802 L251.4951,38.3202 L249.4951,38.5037 L247.4951,37.5143 L245.4951,38.1484 L245.4951,38.1484 L245.4951,38.1139 L239.4951,37.9589 L233.4951,37.978 L227.4951,38.1181 L221.4951,37.8412 L215.4951,38.1484 L215.4951,38.6406 L213.4951,37.5882 L211.4951,37.9726 L209.4951,38.5324 L207.4951,38.0722 L205.4951,38.1484" fill="none" style="stroke:#FF9900;stroke-width:1;"/><path d="M572.1934,38.1484 L572.1934,38.3353 L570.1934,37.7802 L568.1934,38.3202 L566.1934,38.5037 L564.1934,37.5143 L562.1934,38.1484 L562.1934,38.1484 L562.1934,38.1139 L556.1934,37.9589 L550.1934,37.978 L544.1934,38.1181 L538.1934,37.8412 L532.1934,38.1484 L532.1934,38.6406 L530.1934,37.5882 L528.1934,37.9726 L526.1934,38.5324 L524.1934,38.0722 L522.1934,38.1484" fill="none" style="stroke:#FF9900;stroke-width:1;"/><!--SRC=[xLhRRjiu47tNLt2RXxJ8khRJ96Y3eeZZs6aJEpRifC2YA09Qecp24gabgMIzY_tt7SaNqh8itwecmTPF4ZaySz6GmpdmcLHOA9yonyS1ua70XGePLQE2Zndk4vymPLc_ESIbZA3po_jcvSlDVRNLQ7LG_DixAXsNUyUcIBTMRTrSL3f_JEHIHDgLwdNbiZO3MX1fTIvg7LCFsdFT4xTKcedKMpUtSmAnIFIpB3caBC02-wY7xM5Vy90vLUvnCHLK0ZC94f5tMlZpA22YGTdGb4Lx7kqFL5yGmYnh7r5cUw53a1eGr2UC2EoX6OH4BYpiSJNu7SNB46OESh0Omah54NyWub5GHT0ZLOCn1dqW34cY56LzcOp0xUSlrUkRMhUBol0PUA0ePsW0e16AWeKkzYGnV6XZnm4WT6ICTSR-2p0MlJV6kmFiyCT8EeaIHyA3IDmn9tuW4n53veAuEFGK-iT2gCwPki4-GQyw7BpdhoPZuq3gJpKPxjA_2IeVMV-QU1KX-6ECjcJLCZ0ryY1Ut7FcyGBuz931C_jIbfydicCklwDvBi3zoPoHag18ws7SsLJ9NFglgyVcVi0PP6oiR6lJbzevZcFeUuVpSNImmZqiIIvgvpJP7W-Tdw26UnwnevqaSrAcTLL1G70lTptd4ImMezmLrPY2wf2x6ieK4IwsIUwQkkJFa32RjA4EKfi6cAantEs0saD6f8IZLulBYNXibxbcXOaByAdM6bBwQ6DS-DXRd4tPmmtg4YXW94F5J6I5mV5ndA8Y7i_0Z-UNc1VFwRY-YuPinSLAMsAX39tH_BADlu-gH_7X1eKENlPM_iopGi11WLdV8ny_GaMKd7tw57_vBgGduGhAP4Pb-f4LPpgbevUy8SmVSeRXv2ymbc7lFYyF4XU-dDoG8wc8_vBZdvS7ESP_MlnVMlYrtIyv-aOIzIO5Vcf_ukgUz2Y-OPVMktrk7OjLRexBbuFbW3Zh-PxgkWtgCLGiiOdlq5siJhVSF5_t0qFthSPNYKLZfprnDAVjcFQuqMX5AK5xeIBfqwQLq-uvST_6KlvaxVkeEI4RP41iwb8RWZ2kpIajrJPshNGRwvlDNht-uGFC9oRDgvzrqDAi26fgLgHGk4VVlXL3IGesd3H5swCmN7XtKYhQeLJS9w8WY8VZHcD00uDHAQBgH09r30a3_Vjtm5-k05NZPmJFo023LrXuSB2zOUaCKD7bi1-nZ2YA8eHzzfAFDeaz8Wi13KZ4F1HHDtf7xSaxw3mZa4BZDBAiixKeh1mveMVElkYziJRrChya5MOZqaMlNRwTqxTj9ito8s2pMPLid7HRjk9HDbUq9dEoA_0AhcGR-FNOaTsGC_cGtQ0p693TWBCvZzsmSs8vj55B-0rjtnRKXjvJQRo6Xbv6QMZh3393Woum6HenGM8argp1O1Ygazo5eMMUjZ0su9OCHFQvlMb6BIR8xWp3Krcuilbxyj0zBmitwFkVoAvd6hWSMdPjqHRUPVYmeZqlvz-Fv-NPqg_p_-ktVpNLlvhgBPhgjWStiRjc0pr0HO_-Sr1-UrWwF7vRBlU8mkNIwpisPFoHnVqJXMD4KP-yiLvVjXj8yb30rT6XSfomiFoDTOKVCEg4B98xHQs0iAkBw-a0tAaVgE0iJe6hhqqjS79KEASAhgy2345VczQqxwqncqUjzYcwkwqNtbiDE9n2yFKKGKjUXTHMOWHptVy0]--></g></svg>