<svg xmlns="http://www.w3.org/2000/svg" xmlns:xlink="http://www.w3.org/1999/xlink" viewBox="85.31 307.50 924.53 185.00" width="924.53px" height="185.00px" class="use-case-tree-svg">
  <rect width="100%" height="100%" fill="transparent" />
  <line x1="350.00" y1="325.00" x2="360.00" y2="325.00" stroke="#FF9900" stroke-width="1.5" />
  <path d="M 360.00 325.00 C 378.00 325.00, 382.00 325.00, 400.00 325.00" stroke="#FF9900" stroke-width="1.5" fill="none" />
  <line x1="350.00" y1="325.00" x2="360.00" y2="325.00" stroke="#FF9900" stroke-width="1.5" />
  <path d="M 360.00 325.00 C 378.00 325.00, 382.00 350.00, 400.00 350.00" stroke="#FF9900" stroke-width="1.5" fill="none" />
  <line x1="350.00" y1="325.00" x2="360.00" y2="325.00" stroke="#FF9900" stroke-width="1.5" />
  <path d="M 360.00 325.00 C 378.00 325.00, 382.00 375.00, 400.00 375.00" stroke="#FF9900" stroke-width="1.5" fill="none" />
  <line x1="350.00" y1="325.00" x2="360.00" y2="325.00" stroke="#FF9900" stroke-width="1.5" />
  <path d="M 360.00 325.00 C 378.00 325.00, 382.00 400.00, 400.00 400.00" stroke="#FF9900" stroke-width="1.5" fill="none" />
  <line x1="350.00" y1="325.00" x2="360.00" y2="325.00" stroke="#FF9900" stroke-width="1.5" />
  <path d="M 360.00 325.00 C 378.00 325.00, 382.00 425.00, 400.00 425.00" stroke="#FF9900" stroke-width="1.5" fill="none" />
  <line x1="350.00" y1="325.00" x2="360.00" y2="325.00" stroke="#FF9900" stroke-width="1.5" />
  <path d="M 360.00 325.00 C 378.00 325.00, 382.00 450.00, 400.00 450.00" stroke="#FF9900" stroke-width="1.5" fill="none" />
  <line x1="350.00" y1="325.00" x2="360.00" y2="325.00" stroke="#FF9900" stroke-width="1.5" />
  <path d="M 360.00 325.00 C 378.00 325.00, 382.00 475.00, 400.00 475.00" stroke="#FF9900" stroke-width="1.5" fill="none" />
  <line x1="539.09" y1="325.00" x2="688.12" y2="325.00" stroke="#FF9900" stroke-width="1.5" />
  <path d="M 688.12 325.00 C 712.88 325.00, 718.38 337.50, 743.12 337.50" stroke="#FF9900" stroke-width="1.5" fill="none" />
  <line x1="539.09" y1="325.00" x2="688.12" y2="325.00" stroke="#FF9900" stroke-width="1.5" />
  <path d="M 688.12 325.00 C 712.88 325.00, 718.38 362.50, 743.12 362.50" stroke="#FF9900" stroke-width="1.5" fill="none" />
  <line x1="539.09" y1="325.00" x2="688.12" y2="325.00" stroke="#FF9900" stroke-width="1.5" />
  <path d="M 688.12 325.00 C 712.88 325.00, 718.38 387.50, 743.12 387.50" stroke="#FF9900" stroke-width="1.5" fill="none" />
  <line x1="539.09" y1="325.00" x2="688.12" y2="325.00" stroke="#FF9900" stroke-width="1.5" />
  <path d="M 688.12 325.00 C 712.88 325.00, 718.38 412.50, 743.12 412.50" stroke="#FF9900" stroke-width="1.5" fill="none" />
  <line x1="539.09" y1="325.00" x2="688.12" y2="325.00" stroke="#FF9900" stroke-width="1.5" />
  <path d="M 688.12 325.00 C 712.88 325.00, 718.38 437.50, 743.12 437.50" stroke="#FF9900" stroke-width="1.5" fill="none" />
  <line x1="539.09" y1="325.00" x2="688.12" y2="325.00" stroke="#FF9900" stroke-width="1.5" />
  <path d="M 688.12 325.00 C 712.88 325.00, 718.38 462.50, 743.12 462.50" stroke="#FF9900" stroke-width="1.5" fill="none" />
  <a xlink:href="/use-case/construction-project-quotations/" target="_top">
    <rect x="90.31" y="312.50" width="259.69" height="25" rx="4" ry="4" fill="none" stroke="none" pointer-events="all" />
    <text x="100.31" y="329.50" text-anchor="start" font-family="Roboto, sans-serif" font-size="13" fill="#90EE90" font-weight="normal">Complex Construction Project Quotations</text>
  </a>
  <a xlink:href="/use-case/construction-project-quotations/estimating-and-pricing/" target="_top">
    <rect x="400.00" y="312.50" width="139.09" height="25" rx="4" ry="4" fill="#4051B5" stroke="#FF6F00" stroke-width="1.5" />
    <text x="410.00" y="329.50" text-anchor="start" font-family="Roboto, sans-serif" font-size="13" fill="#FFFFFF" font-weight="bold">Estimating &amp; Pricing</text>
  </a>
  <a xlink:href="/use-case/construction-project-quotations/estimating-and-pricing/contingency-and-escalation/" target="_top">
    <rect x="743.12" y="325.00" width="166.72" height="25" rx="4" ry="4" fill="none" stroke="none" pointer-events="all" />
    <text x="753.12" y="342.00" text-anchor="start" font-family="Roboto, sans-serif" font-size="13" fill="#90EE90" font-weight="normal">Contingency &amp; Escalation</text>
  </a>
  <a xlink:href="/use-case/construction-project-quotations/estimating-and-pricing/indirects-overheads-general-conditions/" target="_top">
    <rect x="743.12" y="350.00" width="261.72" height="25" rx="4" ry="4" fill="none" stroke="none" pointer-events="all" />
    <text x="753.12" y="367.00" text-anchor="start" font-family="Roboto, sans-serif" font-size="13" fill="#90EE90" font-weight="normal">Indirects, Overheads &amp; General Conditions</text>
  </a>
  <a xlink:href="/use-case/construction-project-quotations/estimating-and-pricing/labor-productivity-and-crew-modeling/" target="_top">
    <rect x="743.12" y="375.00" width="225.83" height="25" rx="4" ry="4" fill="none" stroke="none" pointer-events="all" />
    <text x="753.12" y="392.00" text-anchor="start" font-family="Roboto, sans-serif" font-size="13" fill="#90EE90" font-weight="normal">Labor Productivity &amp; Crew Modeling</text>
  </a>
  <a xlink:href="/use-case/construction-project-quotations/estimating-and-pricing/pricing-strategy-margin-markups/" target="_top">
    <rect x="743.12" y="400.00" width="219.70" height="25" rx="4" ry="4" fill="none" stroke="none" pointer-events="all" />
    <text x="753.12" y="417.00" text-anchor="start" font-family="Roboto, sans-serif" font-size="13" fill="#90EE90" font-weight="normal">Pricing Strategy (Margin/Markups)</text>
  </a>
  <a xlink:href="/use-case/construction-project-quotations/estimating-and-pricing/quantity-takeoff/" target="_top">
    <rect x="743.12" y="425.00" width="192.64" height="25" rx="4" ry="4" fill="none" stroke="none" pointer-events="all" />
    <text x="753.12" y="442.00" text-anchor="start" font-family="Roboto, sans-serif" font-size="13" fill="#90EE90" font-weight="normal">Quantity Takeoff (2D/3D/BIM)</text>
  </a>
  <a xlink:href="/use-case/construction-project-quotations/estimating-and-pricing/unit-rates-and-cost-libraries/" target="_top">
    <rect x="743.12" y="450.00" width="173.61" height="25" rx="4" ry="4" fill="none" stroke="none" pointer-events="all" />
    <text x="753.12" y="467.00" text-anchor="start" font-family="Roboto, sans-serif" font-size="13" fill="#90EE90" font-weight="normal">Unit Rates &amp; Cost Libraries</text>
  </a>
  <a xlink:href="/use-case/construction-project-quotations/knowledge-capture-and-improvement/" target="_top">
    <rect x="400.00" y="337.50" width="293.12" height="25" rx="4" ry="4" fill="none" stroke="none" pointer-events="all" />
    <text x="410.00" y="354.50" text-anchor="start" font-family="Roboto, sans-serif" font-size="13" fill="#90EE90" font-weight="normal">Knowledge Capture &amp; Continuous Improvement</text>
  </a>
  <a xlink:href="/use-case/construction-project-quotations/opportunity-and-tender-intake/" target="_top">
    <rect x="400.00" y="362.50" width="180.53" height="25" rx="4" ry="4" fill="none" stroke="none" pointer-events="all" />
    <text x="410.00" y="379.50" text-anchor="start" font-family="Roboto, sans-serif" font-size="13" fill="#90EE90" font-weight="normal">Opportunity &amp; Tender Intake</text>
  </a>
  <a xlink:href="/use-case/construction-project-quotations/proposal-submission-and-negotiation/" target="_top">
    <rect x="400.00" y="387.50" width="153.47" height="25" rx="4" ry="4" fill="none" stroke="none" pointer-events="all" />
    <text x="410.00" y="404.50" text-anchor="start" font-family="Roboto, sans-serif" font-size="13" fill="#90EE90" font-weight="normal">Proposal &amp; Negotiation</text>
  </a>
  <a xlink:href="/use-case/construction-project-quotations/risk-compliance-and-contracts/" target="_top">
    <rect x="400.00" y="412.50" width="189.95" height="25" rx="4" ry="4" fill="none" stroke="none" pointer-events="all" />
    <text x="410.00" y="429.50" text-anchor="start" font-family="Roboto, sans-serif" font-size="13" fill="#90EE90" font-weight="normal">Risk, Compliance &amp; Contracts</text>
  </a>
  <a xlink:href="/use-case/construction-project-quotations/scope-and-requirements/" target="_top">
    <rect x="400.00" y="437.50" width="150.89" height="25" rx="4" ry="4" fill="none" stroke="none" pointer-events="all" />
    <text x="410.00" y="454.50" text-anchor="start" font-family="Roboto, sans-serif" font-size="13" fill="#90EE90" font-weight="normal">Scope &amp; Requirements</text>
  </a>
  <a xlink:href="/use-case/construction-project-quotations/supply-chain-and-subcontractors/" target="_top">
    <rect x="400.00" y="462.50" width="198.12" height="25" rx="4" ry="4" fill="none" stroke="none" pointer-events="all" />
    <text x="410.00" y="479.50" text-anchor="start" font-family="Roboto, sans-serif" font-size="13" fill="#90EE90" font-weight="normal">Supply Chain &amp; Subcontractors</text>
  </a>
</svg>