<svg xmlns="http://www.w3.org/2000/svg" xmlns:xlink="http://www.w3.org/1999/xlink" viewBox="86.50 307.50 931.09 185.00" width="931.09px" height="185.00px" class="use-case-tree-svg">
  <rect width="100%" height="100%" fill="transparent" />
  <line x1="350.00" y1="325.00" x2="360.00" y2="325.00" stroke="#FF6F00" stroke-width="1.5" />
  <path d="M 360.00 325.00 C 378.00 325.00, 382.00 325.00, 400.00 325.00" stroke="#FF6F00" stroke-width="1.5" fill="none" />
  <line x1="350.00" y1="325.00" x2="360.00" y2="325.00" stroke="#FF6F00" stroke-width="1.5" />
  <path d="M 360.00 325.00 C 378.00 325.00, 382.00 350.00, 400.00 350.00" stroke="#FF6F00" stroke-width="1.5" fill="none" />
  <line x1="350.00" y1="325.00" x2="360.00" y2="325.00" stroke="#FF6F00" stroke-width="1.5" />
  <path d="M 360.00 325.00 C 378.00 325.00, 382.00 375.00, 400.00 375.00" stroke="#FF6F00" stroke-width="1.5" fill="none" />
  <line x1="350.00" y1="325.00" x2="360.00" y2="325.00" stroke="#FF6F00" stroke-width="1.5" />
  <path d="M 360.00 325.00 C 378.00 325.00, 382.00 400.00, 400.00 400.00" stroke="#FF6F00" stroke-width="1.5" fill="none" />
  <line x1="350.00" y1="325.00" x2="360.00" y2="325.00" stroke="#FF6F00" stroke-width="1.5" />
  <path d="M 360.00 325.00 C 378.00 325.00, 382.00 425.00, 400.00 425.00" stroke="#FF6F00" stroke-width="1.5" fill="none" />
  <line x1="350.00" y1="325.00" x2="360.00" y2="325.00" stroke="#FF6F00" stroke-width="1.5" />
  <path d="M 360.00 325.00 C 378.00 325.00, 382.00 450.00, 400.00 450.00" stroke="#FF6F00" stroke-width="1.5" fill="none" />
  <line x1="350.00" y1="325.00" x2="360.00" y2="325.00" stroke="#FF6F00" stroke-width="1.5" />
  <path d="M 360.00 325.00 C 378.00 325.00, 382.00 475.00, 400.00 475.00" stroke="#FF6F00" stroke-width="1.5" fill="none" />
  <line x1="547.12" y1="325.00" x2="690.41" y2="325.00" stroke="#FF6F00" stroke-width="1.5" />
  <path d="M 690.41 325.00 C 715.16 325.00, 720.66 337.50, 745.41 337.50" stroke="#FF6F00" stroke-width="1.5" fill="none" />
  <line x1="547.12" y1="325.00" x2="690.41" y2="325.00" stroke="#FF6F00" stroke-width="1.5" />
  <path d="M 690.41 325.00 C 715.16 325.00, 720.66 362.50, 745.41 362.50" stroke="#FF6F00" stroke-width="1.5" fill="none" />
  <line x1="547.12" y1="325.00" x2="690.41" y2="325.00" stroke="#FF6F00" stroke-width="1.5" />
  <path d="M 690.41 325.00 C 715.16 325.00, 720.66 387.50, 745.41 387.50" stroke="#FF6F00" stroke-width="1.5" fill="none" />
  <line x1="547.12" y1="325.00" x2="690.41" y2="325.00" stroke="#FF6F00" stroke-width="1.5" />
  <path d="M 690.41 325.00 C 715.16 325.00, 720.66 412.50, 745.41 412.50" stroke="#FF6F00" stroke-width="1.5" fill="none" />
  <line x1="547.12" y1="325.00" x2="690.41" y2="325.00" stroke="#FF6F00" stroke-width="1.5" />
  <path d="M 690.41 325.00 C 715.16 325.00, 720.66 437.50, 745.41 437.50" stroke="#FF6F00" stroke-width="1.5" fill="none" />
  <line x1="547.12" y1="325.00" x2="690.41" y2="325.00" stroke="#FF6F00" stroke-width="1.5" />
  <path d="M 690.41 325.00 C 715.16 325.00, 720.66 462.50, 745.41 462.50" stroke="#FF6F00" stroke-width="1.5" fill="none" />
  <a xlink:href="/use-case/construction-project-quotations/" target="_top">
    <rect x="91.50" y="312.50" width="258.50" height="25" rx="4" ry="4" fill="none" stroke="none" pointer-events="all" />
    <text x="101.50" y="329.50" text-anchor="start" font-family="Roboto, sans-serif" font-size="13" fill="#4051B5" font-weight="normal">Complex Construction Project Quotations</text>
  </a>
  <a xlink:href="/use-case/construction-project-quotations/estimating-and-pricing/" target="_top">
    <rect x="400.00" y="312.50" width="147.12" height="25" rx="4" ry="4" fill="#4051B5" stroke="#FF6F00" stroke-width="1.5" />
    <text x="410.00" y="329.50" text-anchor="start" font-family="Roboto, sans-serif" font-size="13" fill="#FFFFFF" font-weight="bold">Estimating &amp; Pricing</text>
  </a>
  <a xlink:href="/use-case/construction-project-quotations/estimating-and-pricing/contingency-and-escalation/" target="_top">
    <rect x="745.41" y="325.00" width="168.19" height="25" rx="4" ry="4" fill="none" stroke="none" pointer-events="all" />
    <text x="755.41" y="342.00" text-anchor="start" font-family="Roboto, sans-serif" font-size="13" fill="#4051B5" font-weight="normal">Contingency &amp; Escalation</text>
  </a>
  <a xlink:href="/use-case/construction-project-quotations/estimating-and-pricing/indirects-overheads-general-conditions/" target="_top">
    <rect x="745.41" y="350.00" width="267.19" height="25" rx="4" ry="4" fill="none" stroke="none" pointer-events="all" />
    <text x="755.41" y="367.00" text-anchor="start" font-family="Roboto, sans-serif" font-size="13" fill="#4051B5" font-weight="normal">Indirects, Overheads &amp; General Conditions</text>
  </a>
  <a xlink:href="/use-case/construction-project-quotations/estimating-and-pricing/labor-productivity-and-crew-modeling/" target="_top">
    <rect x="745.41" y="375.00" width="226.70" height="25" rx="4" ry="4" fill="none" stroke="none" pointer-events="all" />
    <text x="755.41" y="392.00" text-anchor="start" font-family="Roboto, sans-serif" font-size="13" fill="#4051B5" font-weight="normal">Labor Productivity &amp; Crew Modeling</text>
  </a>
  <a xlink:href="/use-case/construction-project-quotations/estimating-and-pricing/pricing-strategy-margin-markups/" target="_top">
    <rect x="745.41" y="400.00" width="217.27" height="25" rx="4" ry="4" fill="none" stroke="none" pointer-events="all" />
    <text x="755.41" y="417.00" text-anchor="start" font-family="Roboto, sans-serif" font-size="13" fill="#4051B5" font-weight="normal">Pricing Strategy (Margin/Markups)</text>
  </a>
  <a xlink:href="/use-case/construction-project-quotations/estimating-and-pricing/quantity-takeoff/" target="_top">
    <rect x="745.41" y="425.00" width="189.33" height="25" rx="4" ry="4" fill="none" stroke="none" pointer-events="all" />
    <text x="755.41" y="442.00" text-anchor="start" font-family="Roboto, sans-serif" font-size="13" fill="#4051B5" font-weight="normal">Quantity Takeoff (2D/3D/BIM)</text>
  </a>
  <a xlink:href="/use-case/construction-project-quotations/estimating-and-pricing/unit-rates-and-cost-libraries/" target="_top">
    <rect x="745.41" y="450.00" width="176.81" height="25" rx="4" ry="4" fill="none" stroke="none" pointer-events="all" />
    <text x="755.41" y="467.00" text-anchor="start" font-family="Roboto, sans-serif" font-size="13" fill="#4051B5" font-weight="normal">Unit Rates &amp; Cost Libraries</text>
  </a>
  <a xlink:href="/use-case/construction-project-quotations/knowledge-capture-and-improvement/" target="_top">
    <rect x="400.00" y="337.50" width="295.41" height="25" rx="4" ry="4" fill="none" stroke="none" pointer-events="all" />
    <text x="410.00" y="354.50" text-anchor="start" font-family="Roboto, sans-serif" font-size="13" fill="#4051B5" font-weight="normal">Knowledge Capture &amp; Continuous Improvement</text>
  </a>
  <a xlink:href="/use-case/construction-project-quotations/opportunity-and-tender-intake/" target="_top">
    <rect x="400.00" y="362.50" width="181.67" height="25" rx="4" ry="4" fill="none" stroke="none" pointer-events="all" />
    <text x="410.00" y="379.50" text-anchor="start" font-family="Roboto, sans-serif" font-size="13" fill="#4051B5" font-weight="normal">Opportunity &amp; Tender Intake</text>
  </a>
  <a xlink:href="/use-case/construction-project-quotations/proposal-submission-and-negotiation/" target="_top">
    <rect x="400.00" y="387.50" width="153.02" height="25" rx="4" ry="4" fill="none" stroke="none" pointer-events="all" />
    <text x="410.00" y="404.50" text-anchor="start" font-family="Roboto, sans-serif" font-size="13" fill="#4051B5" font-weight="normal">Proposal &amp; Negotiation</text>
  </a>
  <a xlink:href="/use-case/construction-project-quotations/risk-compliance-and-contracts/" target="_top">
    <rect x="400.00" y="412.50" width="192.70" height="25" rx="4" ry="4" fill="none" stroke="none" pointer-events="all" />
    <text x="410.00" y="429.50" text-anchor="start" font-family="Roboto, sans-serif" font-size="13" fill="#4051B5" font-weight="normal">Risk, Compliance &amp; Contracts</text>
  </a>
  <a xlink:href="/use-case/construction-project-quotations/scope-and-requirements/" target="_top">
    <rect x="400.00" y="437.50" width="153.72" height="25" rx="4" ry="4" fill="none" stroke="none" pointer-events="all" />
    <text x="410.00" y="454.50" text-anchor="start" font-family="Roboto, sans-serif" font-size="13" fill="#4051B5" font-weight="normal">Scope &amp; Requirements</text>
  </a>
  <a xlink:href="/use-case/construction-project-quotations/supply-chain-and-subcontractors/" target="_top">
    <rect x="400.00" y="462.50" width="200.70" height="25" rx="4" ry="4" fill="none" stroke="none" pointer-events="all" />
    <text x="410.00" y="479.50" text-anchor="start" font-family="Roboto, sans-serif" font-size="13" fill="#4051B5" font-weight="normal">Supply Chain &amp; Subcontractors</text>
  </a>
</svg>