<svg xmlns="http://www.w3.org/2000/svg" xmlns:xlink="http://www.w3.org/1999/xlink" contentStyleType="text/css" data-diagram-type="MINDMAP" height="97px" preserveAspectRatio="none" style="width:696px;height:97px;" version="1.1" viewBox="0 0 696 97" width="696px" zoomAndPan="magnify"><defs/><g><polygon fill="#4051B5" points="14,30.1328,14,30.343,23.8597,29.7185,33.7195,30.3261,43.5792,30.5325,53.4389,29.4194,63.2987,30.0551,73.1584,29.7063,83.0181,29.7493,92.8779,30.0647,102.7376,29.4414,112.5973,30.6865,122.4571,29.5025,132.3168,29.935,142.1766,30.5648,152.0363,30.047,161.896,30.2011,171.7558,30.1009,181.6155,30.3113,191.4752,30.3719,201.335,30.1328,201.4097,30.3132,201.9862,30.5738,202.553,30.8106,203.0645,30.9142,203.6568,31.2128,204.1634,31.3044,204.3796,31.394,204.1756,31.7781,204.841,32.5223,204.775,32.9636,205.265,33.6352,205.335,34.1328,205.17,34.1328,205.3121,39.5594,205.5822,44.9859,205.3187,50.4125,205.3701,55.8391,205.335,61.2656,205.4392,61.3088,205.2288,61.8844,204.8651,62.3965,204.7205,62.9993,204.2214,63.4553,204.1634,64.0941,204.1997,64.1816,203.6676,64.4972,203.0887,64.6996,202.5445,64.9858,201.839,64.8825,201.335,65.2656,201.335,64.6134,191.4752,64.6442,181.6155,65.2067,171.7558,65.0691,161.896,65.947,152.0363,65.0909,142.1766,64.9226,132.3168,65.4939,122.4571,64.5988,112.5973,64.7465,102.7376,65.9146,92.8779,65.7013,83.0181,66.0001,73.1584,64.9438,63.2987,65.5848,53.4389,65.856,43.5792,64.7932,33.7195,65.1698,23.8597,65.3916,14,65.2656,14.0831,65.4663,13.4338,65.03,12.9276,64.9394,12.2323,64.3921,11.6509,64.1198,11.1716,64.0941,11.3267,64.1583,10.7165,63.4369,10.8597,63.0276,10.5323,62.4234,10.1518,61.7971,10,61.2656,9.8821,61.2656,10.1529,55.8391,9.9002,50.4125,10.1973,44.9859,9.8158,39.5594,10,34.1328,10.1901,34.2116,10.3835,33.6289,10.5441,33.0327,10.7175,32.4418,11.161,31.9628,11.1716,31.3044,11.2498,31.4933,11.7588,31.1222,12.3372,30.9183,12.852,30.5613,13.5257,30.5878,14,30.1328" style="stroke:#FF6F00;stroke-width:1.5;"/><text fill="#FFFFFF" font-family="'Roboto'" font-size="13" lengthAdjust="spacing" textLength="175.335" x="20" y="52.1997">Supply Chain Management</text><a href="/use-case/supply-chain-management/vendor-management/" target="_top" title="/use-case/supply-chain-management/vendor-management/" xlink:actuate="onRequest" xlink:href="/use-case/supply-chain-management/vendor-management/" xlink:show="new" xlink:title="/use-case/supply-chain-management/vendor-management/" xlink:type="simple"><text fill="#4051B5" font-family="'Roboto'" font-size="13" lengthAdjust="spacing" textLength="136.4492" x="262.335" y="52.1997">Vendor Management</text></a><a href="/use-case/supply-chain-management/vendor-management/vendor-lifecycle/" target="_top" title="/use-case/supply-chain-management/vendor-management/vendor-lifecycle/" xlink:actuate="onRequest" xlink:href="/use-case/supply-chain-management/vendor-management/vendor-lifecycle/" xlink:show="new" xlink:title="/use-case/supply-chain-management/vendor-management/vendor-lifecycle/" xlink:type="simple"><text fill="#4051B5" font-family="'Roboto'" font-size="13" lengthAdjust="spacing" textLength="107.8403" x="459.7842" y="27.0669">Vendor Lifecycle</text></a><path d="M402.7842,47.6992 L402.7842,47.886 L404.7842,47.3309 L406.7842,47.871 L408.7842,48.0545 L410.7842,47.0651 L412.7842,47.6992 L412.7842,47.6992 L412.762,47.6727 L415.6625,45.0406 L418.6747,42.542 L421.7647,40.1362 L424.5869,37.4106 L427.7842,35.1328 L427.9422,35.3214 L430.6043,32.4048 L433.7277,30.0389 L436.9075,27.7401 L439.7597,25.0505 L442.7842,22.5664 L442.7842,22.6271 L444.7842,22.538 L446.7842,22.7251 L448.7842,22.779 L450.7842,23.087 L452.7842,22.5664" fill="none" style="stroke:#FF6F00;stroke-width:1;"/><a href="/use-case/supply-chain-management/vendor-management/vendor-relationship-management/" target="_top" title="/use-case/supply-chain-management/vendor-management/vendor-relationship-management/" xlink:actuate="onRequest" xlink:href="/use-case/supply-chain-management/vendor-management/vendor-relationship-management/" xlink:show="new" xlink:title="/use-case/supply-chain-management/vendor-management/vendor-relationship-management/" xlink:type="simple"><text fill="#4051B5" font-family="'Roboto'" font-size="13" lengthAdjust="spacing" textLength="220.9683" x="459.7842" y="52.1997">Vendor Relationship Management</text></a><path d="M402.7842,47.6992 L402.7842,47.886 L404.7842,47.3309 L406.7842,47.871 L408.7842,48.0545 L410.7842,47.0651 L412.7842,47.6992 L412.7842,47.6992 L412.7842,47.6647 L418.7842,47.5097 L424.7842,47.5288 L430.7842,47.6689 L436.7842,47.3919 L442.7842,47.6992 L442.7842,48.1913 L444.7842,47.139 L446.7842,47.5234 L448.7842,48.0832 L450.7842,47.623 L452.7842,47.6992" fill="none" style="stroke:#FF6F00;stroke-width:1;"/><a href="/use-case/supply-chain-management/vendor-management/vendor-vetting-and-onboarding/" target="_top" title="/use-case/supply-chain-management/vendor-management/vendor-vetting-and-onboarding/" xlink:actuate="onRequest" xlink:href="/use-case/supply-chain-management/vendor-management/vendor-vetting-and-onboarding/" xlink:show="new" xlink:title="/use-case/supply-chain-management/vendor-management/vendor-vetting-and-onboarding/" xlink:type="simple"><text fill="#4051B5" font-family="'Roboto'" font-size="13" lengthAdjust="spacing" textLength="192.7466" x="459.7842" y="77.3325">Vendor Vetting &amp; Onboarding</text></a><path d="M402.7842,47.6992 L402.7842,47.886 L404.7842,47.3309 L406.7842,47.871 L408.7842,48.0545 L410.7842,47.0651 L412.7842,47.6992 L412.7842,47.6992 L412.762,47.6727 L415.6625,50.0672 L418.6747,52.5951 L421.7647,55.2158 L424.5869,57.5168 L427.7842,60.2656 L427.9422,60.4542 L430.6043,62.5642 L433.7277,65.2248 L436.9075,67.9526 L439.7597,70.2895 L442.7842,72.832 L442.7842,72.8927 L444.7842,72.8036 L446.7842,72.9907 L448.7842,73.0446 L450.7842,73.3526 L452.7842,72.832" fill="none" style="stroke:#FF6F00;stroke-width:1;"/><path d="M205.335,47.6992 L205.335,47.886 L207.335,47.3309 L209.335,47.871 L211.335,48.0545 L213.335,47.0651 L215.335,47.6992 L215.335,47.6992 L215.335,47.6647 L221.335,47.5097 L227.335,47.5288 L233.335,47.6689 L239.335,47.3919 L245.335,47.6992 L245.335,48.1913 L247.335,47.139 L249.335,47.5234 L251.335,48.0832 L253.335,47.623 L255.335,47.6992" fill="none" style="stroke:#FF6F00;stroke-width:1;"/><!--SRC=[xLfjRzis4FwkNy4rmDeYTMEdIL44HH77UMaJEmxi9CDG504jqJPXYLH9ofutxB_l94kcfCYItxGam_Gf8O_FlP0ytZtmiLHOA8Sooy4kafxhsjEAESIKLHpCy80uX2d3-CKYVSe8EhbuQDM_NJyqsirs1mNVpa7riDOxZ8jqpnhjwzDwv_TGBaFafjwugb-SpO4UYRGxfsUTk1wqq-z_x5UhSv7pzlLjGY0GyR-vIBtJQV-Mb8bG33cYpCK2EwY7pT50S8zP3MvpWNQKm4p2dE-w5liwTOcmAHk5Kg75ncj4cMbx5a5gID20C2AmZURh9Eg3T8-huJjaqy5G8SmiP64nWfMA8pucOYAe8cX2rN26GSU48KcKecmWqp6v_VgjSNLzrksY6cmCTnNb30q1r4THiB2FRKbYXjzWom8WT10RwypS5M0i-XGRxmwnnIU-T1fbxluTiu8_I2WIapabVUpP2lrb87JEcRh63a6lEXoyvw_2iLdqzEQ5mrtw9q6r0-FlE5vT23u9q1QiMWIcfZR4YzjM4i-5dOOpFRSlO_b9wZ0aJhm_pmMu7yx53YaeqdeOjrPLahWGo-enkUDo1iSqKBQswGljdCNHS-pzP1mjh70FIrAAseGcq-QUzI-euRPDJFycoPAKQLqD413SBbtFYG-BnRHqHMTCKLM-6ieK4Nriaj8rTSbFZp2JtC3JI4tgOgPcSBT3QeuOaH9IhnQNeNXWLtnDWOcFu3EjZKdfrCQuSB3zU3RZ3ZTfdpGXM-Uec8iK61oaummLmNWEVZ2_mBnWJiVrWpzaAYuARGc4SdJwyuik_clKE0YI6pnqyCzEuHVF5G8I1MO3ctp-32-YvEpBbs3dkt0y2LVmJEQyJDjySQ8f7RrqXP1CSZ73oHzWBCFsGraUf4h0ajoGKwc8yvBZNvO79SO_UlnVMlYrtIyv-h53r0iV-CZ-LEcUzYYeiAlBLPzhnwB8pTdpPM4v9DPolcUwRe9ww569MCLtw2wAZrjfdY-xmSltK5476c-WFioUjpOqbO924sA5Q7uF6dNvVdSYKGKvdbH-2q4GxeFNaUPK7nFJ5tRNEGrQhE7ECpLPm-Z8fDeCgR2QLLN5-xPmOw0KK4hGdgV8OWbTs2GzoEt34cqAbd9pI_EKlKQjYALnYKdxr8Ju11KCRELaw1C82X8RbCdIt_XWaz-XdkqHs6F6Y5yFISGzvKzdzQgbMQvruMInLpECtMv0EQ66JpcXbgQSTdSVqFVlUvua5HEIzju2QcflJ9Z5HNm4tGT3CR0VFm1kRRnmn8OYsPoQDfahQ4OZMy4NnCP10pgaRfOxdTZyjdqRpwYc2cPMXRCUny8dZEQgxsVJw5VKda-2tcEO3NEAOHmlHoHkZtPxvWHNb2nNOBUIIp9XLkArzDhqnTRfE7vl8sgqWCdQ1cm-SPMFastBMbJLwegM9ASs1IwWezQ1Nuw0sWmvbtBQ33g7PDeCE9zMsWox92996xM0GjBshS4UwJkLHHrfw4MiaROkLbPfq4TaaKPCyKIfDKkGH37LQNeefYN93CKku9eaJtxUNlL4FJuWcvCuJsLXON_zvA5xNXQkGAqyaLtFD70bi2BQeZMyo_6XW06fbKzvbENPmjtP0gMn0IUH-LXldO_GYDc1owGX4jE9npAqU54blIJrK6nK8NmEFR05zFy9WVyi8N1ZGrLvrsgYCLGd_azKQk_tg_k7xskr7b6uLdrpnqQCJrZG2rAuVuewvAtnvkAcYIJt19J15fMpAmFBtngNU8nHnsE-t15gkuHTdbv50z0VZAdWB3Wgb_SjBV3ne7925PJY0Wn1zoqZoaPdpEI-uKVexlQyyibeGgBr80v7Y32Z0STSYIdCTVy1]--></g></svg>