<svg xmlns="http://www.w3.org/2000/svg" xmlns:xlink="http://www.w3.org/1999/xlink" contentStyleType="text/css" data-diagram-type="MINDMAP" height="100px" preserveAspectRatio="none" style="width:737px;height:100px;" version="1.1" viewBox="0 0 737 100" width="737px" zoomAndPan="magnify"><defs/><g><polygon fill="#4051B5" points="14,31.2969,14,31.5071,24.0411,30.8826,34.0822,31.4902,44.1233,31.6966,54.1645,30.5835,64.2056,31.2192,74.2467,30.8704,84.2878,30.9134,94.3289,31.2287,104.37,30.6055,114.4111,31.8505,124.4522,30.6666,134.4934,31.0991,144.5345,31.7288,154.5756,31.2111,164.6167,31.3651,174.6578,31.2649,184.6989,31.4754,194.74,31.536,204.7812,31.8826,214.8223,31.2969,214.9079,31.5035,215.4746,31.7404,215.9861,31.8439,216.5785,32.1426,217.1746,32.4504,217.6507,32.4684,217.4286,32.3765,218.094,33.1207,218.028,33.562,218.518,34.2336,218.4355,34.668,218.8223,35.2969,218.7994,35.2969,219.0695,40.9563,218.806,46.6156,218.8574,52.275,218.9351,57.9344,218.8223,63.5938,218.9504,63.6468,218.5867,64.1589,218.4421,64.7618,217.943,65.2178,217.9726,65.8928,217.6507,66.4222,217.7206,66.591,217.1417,66.7934,216.5975,67.0796,215.892,66.9764,215.3048,67.1586,214.8223,67.5938,214.8223,66.9723,204.7812,67.5349,194.74,67.3972,184.6989,68.2752,174.6578,67.4191,164.6167,67.2507,154.5756,67.822,144.5345,66.9269,134.4934,67.0746,124.4522,68.2427,114.4111,68.0294,104.37,68.3282,94.3289,67.272,84.2878,67.9129,74.2467,68.1842,64.2056,67.1213,54.1645,67.4979,44.1233,67.7197,34.0822,68.2455,24.0411,67.5896,14,67.5938,14.059,67.7362,13.3637,67.1889,12.7822,66.9166,12.3672,67.0459,11.6458,66.4357,11.1716,66.4222,11.3283,66.4871,11.0009,65.8828,10.6204,65.2566,10.3597,64.68,10.3756,64.218,10,63.5938,9.9002,63.5938,10.1973,57.9344,9.8158,52.275,10.2058,46.6156,10.1614,40.9563,10,35.2969,10.0754,35.3281,10.2489,34.7372,10.6924,34.2582,10.8919,33.6781,10.9894,33.0557,11.1716,32.4684,11.2058,32.551,11.7206,32.194,12.3943,32.2205,12.8884,31.8132,13.4563,31.5843,14,31.2969" style="stroke:#FF6F00;stroke-width:1.5;"/><text fill="#FFFFFF" font-family="'Roboto'" font-size="14" lengthAdjust="spacing" textLength="188.8223" x="20" y="54.292">Supply Chain Management</text><a href="/use-case/supply-chain-management/vendor-management/" target="_top" title="/use-case/supply-chain-management/vendor-management/" xlink:actuate="onRequest" xlink:href="/use-case/supply-chain-management/vendor-management/" xlink:show="new" xlink:title="/use-case/supply-chain-management/vendor-management/" xlink:type="simple"><text fill="#90EE90" font-family="'Roboto'" font-size="14" lengthAdjust="spacing" textLength="146.9453" x="275.8223" y="54.292">Vendor Management</text></a><a href="/use-case/supply-chain-management/vendor-management/vendor-lifecycle/" target="_top" title="/use-case/supply-chain-management/vendor-management/vendor-lifecycle/" xlink:actuate="onRequest" xlink:href="/use-case/supply-chain-management/vendor-management/vendor-lifecycle/" xlink:show="new" xlink:title="/use-case/supply-chain-management/vendor-management/vendor-lifecycle/" xlink:type="simple"><text fill="#90EE90" font-family="'Roboto'" font-size="14" lengthAdjust="spacing" textLength="116.1357" x="483.7676" y="27.9951">Vendor Lifecycle</text></a><path d="M426.7676,49.4453 L426.7676,49.6321 L428.7676,49.077 L430.7676,49.6171 L432.7676,49.8006 L434.7676,48.8112 L436.7676,49.4453 L436.7676,49.4453 L436.7448,49.4193 L439.6426,46.6731 L442.6552,44.0578 L445.7476,41.5335 L448.565,38.6955 L451.7676,36.2969 L451.9298,36.4819 L454.5829,33.4565 L457.7096,30.9714 L460.8941,28.5522 L463.7424,25.7495 L466.7676,23.1484 L466.7676,23.2091 L468.7676,23.12 L470.7676,23.3071 L472.7676,23.361 L474.7676,23.6691 L476.7676,23.1484" fill="none" style="stroke:#FF9900;stroke-width:1;"/><a href="/use-case/supply-chain-management/vendor-management/vendor-relationship-management/" target="_top" title="/use-case/supply-chain-management/vendor-management/vendor-relationship-management/" xlink:actuate="onRequest" xlink:href="/use-case/supply-chain-management/vendor-management/vendor-relationship-management/" xlink:show="new" xlink:title="/use-case/supply-chain-management/vendor-management/vendor-relationship-management/" xlink:type="simple"><text fill="#90EE90" font-family="'Roboto'" font-size="14" lengthAdjust="spacing" textLength="237.9658" x="483.7676" y="54.292">Vendor Relationship Management</text></a><path d="M426.7676,49.4453 L426.7676,49.6321 L428.7676,49.077 L430.7676,49.6171 L432.7676,49.8006 L434.7676,48.8112 L436.7676,49.4453 L436.7676,49.4453 L436.7676,49.4108 L442.7676,49.2558 L448.7676,49.2749 L454.7676,49.415 L460.7676,49.138 L466.7676,49.4453 L466.7676,49.9374 L468.7676,48.8851 L470.7676,49.2695 L472.7676,49.8293 L474.7676,49.3691 L476.7676,49.4453" fill="none" style="stroke:#FF9900;stroke-width:1;"/><a href="/use-case/supply-chain-management/vendor-management/vendor-vetting-and-onboarding/" target="_top" title="/use-case/supply-chain-management/vendor-management/vendor-vetting-and-onboarding/" xlink:actuate="onRequest" xlink:href="/use-case/supply-chain-management/vendor-management/vendor-vetting-and-onboarding/" xlink:show="new" xlink:title="/use-case/supply-chain-management/vendor-management/vendor-vetting-and-onboarding/" xlink:type="simple"><text fill="#90EE90" font-family="'Roboto'" font-size="14" lengthAdjust="spacing" textLength="207.5732" x="483.7676" y="80.5889">Vendor Vetting &amp; Onboarding</text></a><path d="M426.7676,49.4453 L426.7676,49.6321 L428.7676,49.077 L430.7676,49.6171 L432.7676,49.8006 L434.7676,48.8112 L436.7676,49.4453 L436.7676,49.4453 L436.7448,49.4193 L439.6426,51.9325 L442.6552,54.5765 L445.7476,57.3116 L448.565,59.733 L451.7676,62.5938 L451.9298,62.7788 L454.5829,65.0128 L457.7096,67.787 L460.8941,70.6272 L463.7424,73.0838 L466.7676,75.7422 L466.7676,75.8028 L468.7676,75.7138 L470.7676,75.9009 L472.7676,75.9548 L474.7676,76.2628 L476.7676,75.7422" fill="none" style="stroke:#FF9900;stroke-width:1;"/><path d="M218.8223,49.4453 L218.8223,49.6321 L220.8223,49.077 L222.8223,49.6171 L224.8223,49.8006 L226.8223,48.8112 L228.8223,49.4453 L228.8223,49.4453 L228.8223,49.4108 L234.8223,49.2558 L240.8223,49.2749 L246.8223,49.415 L252.8223,49.138 L258.8223,49.4453 L258.8223,49.9374 L260.8223,48.8851 L262.8223,49.2695 L264.8223,49.8293 L266.8223,49.3691 L268.8223,49.4453" fill="none" style="stroke:#FF9900;stroke-width:1;"/><!--SRC=[xLfjRzis4FwkNy4rmDeYSsDdIT46HH77ST8cTXpOIO2XA09Qect24gcHb3Dls7_VIR9CMfRbjwX9iFfJopi-zzo9R_SWnr9XeJpA70_xI0Q-xuvBzW1JLl8mmttY4QOiwnU7z2WZwEJylbdzUdLVQpLQRHJzTWxAXvNkeUdIgTTQLwVLzXyJlmoNwshjidfUdmBDkRJQf_Ms6GVjz7hlU-NorEMiTNKpun2vX3_BaaFAV2omXxhO7lO53vXJuouNYQCIc4dm2BFJpb_6FX4DoeQcBzfnQN-W-e8GPbcl4MMs6pW4gG51VSA8m2wQGaZKWubThWQ_eMWQmin13XP3cAauuYCY7WHL13rGDOWnw8Wm98bIbFLbkW8tNxxMBg_gdGwgm6VWlgASeG60XYWA9lQmAucHmpLs70121yPOEyvV05dqmHZl3B337qBlD4fK2HSgSSkSw1zaucBud98U3bo5_h4GEkDCNM6Fe5Tj3jdpLvEnk93wKqs6E_HlWYe7rhycNbK8_X2XBPYr24oDNQWNTvrPF1y-FQpWAR-CwIUfrJ6plaCx5v3-n6OiIGYaup3kh1jaPlcl6iVcdiyPhDWesCRK5_ACwnXuxlvi7HsiS1TBKaZOcKYsomFd1uJXhaliS2V9WeBfM3Lm4DmjFCv928l5kF10TQQeAZuCPOg87hP9uP4wvC-0C9jSmqL8RUfZfcAucm6rXun82KUlTfSJzuYNEMS9nJduJBQ6bpxQ61SUTkUj6NkuGNi4BZ2I4sBgieHmT1ndX8Z6S_0Z-m9waKtNzVTmo5PSBEKIEUN43EsBDlvhL3k83ZUuwE0_Eqj_vbaXuA30hE-IJv_WHfISVVuSVVaEB4_25LoJEJVJOzuuYKbNB_r2c3ta3EBaBo3Bi7jVL0Qf1rz1QSYnLCHxoVKlAeC2wvzS_Y-j_9htIww-iOYwami-uPzwkgSpYbxOvTLUdnlNObcQyVNbO3aWpcgvPwPkGtZeI8bO9tVeBfOljy8oN_K3G_kjugV4FDca9mvjcaVIuuQZLQK4xGQAP9jDbadtd7flOob_SFJNg9ce3JwnQO_QK8JuRivegJRXjJHjh5ysEsTd7p-2FMKqdtxMRYUIHL0jb4LGKyiYkxltwDktlK2IaWr7pTu2-MGF-dk72tC4tKL31jZtxm2tCTvan8MddJssNJ8Dq4X67WLV41T7RTE0-bdfj0txO-SsYWMI4cPEYRCknoAKEQQXxs8p-XMrfaQ8UmpMYRfbMSUhYLq5gaVFNAVHksXbaMPsIYRCMlACdhjuusTly5n1vZ5Wy_MNV9niBXifBki7Mb5ZsHPuYQgo2VngEifsoBdAoNRGELh9Ti3vwiXss0Nf8PhK0YL4yzj01D5xAai1qT2Bn0_Dpf0zDEYSvg4HKt97QiuAMeSHEgro655c1GvZ0sweLUIVs-kkgFa5ihqMyLGCbxQ9JrwwvyLm3ONWYNWzqy8LqDnhHXjabvF3aaQ-KdpdNbHc2x_E_wyp_zb-_so_Yso_hrruijqs6sW4Lt_uPmoLT_lb_SDtbKgNA5mflxbbGyOVMDHeKJXl5FN8M-lD-NK3IHu8U6CwLCOh6wQ_jIxm2ADsm4A_8zJo2RiulKm6uF4zeeApQAbSt3Mrm_k3qWbLyCuLG0JTDQsaGQupcuV4Zz3jpLdfWzM0Koo0EXmXwDrhi0UK68Ejyny0]--></g></svg>