<svg xmlns="http://www.w3.org/2000/svg" xmlns:xlink="http://www.w3.org/1999/xlink" viewBox="-39.91 357.50 670.30 85.00" width="670.30px" height="85.00px" class="use-case-tree-svg">
  <rect width="100%" height="100%" fill="transparent" />
  <line x1="107.25" y1="425.00" x2="117.25" y2="425.00" stroke="#FF9900" stroke-width="1.5" />
  <path d="M 117.25 425.00 C 135.25 425.00, 139.25 425.00, 157.25 425.00" stroke="#FF9900" stroke-width="1.5" fill="none" />
  <path d="M 345.00 425.00 C 369.75 425.00, 375.25 375.00, 400.00 375.00" stroke="#FF9900" stroke-width="1.5" fill="none" />
  <path d="M 345.00 425.00 C 369.75 425.00, 375.25 400.00, 400.00 400.00" stroke="#FF9900" stroke-width="1.5" fill="none" />
  <path d="M 345.00 425.00 C 369.75 425.00, 375.25 425.00, 400.00 425.00" stroke="#FF9900" stroke-width="1.5" fill="none" />
  <a xlink:href="/use-case/client-360/know-your-customer/" target="_top">
    <rect x="-34.91" y="412.50" width="142.16" height="25" rx="4" ry="4" fill="none" stroke="none" pointer-events="all" />
    <text x="-24.91" y="429.50" text-anchor="start" font-family="Roboto, sans-serif" font-size="13" fill="#90EE90" font-weight="normal">Know Your Customer</text>
  </a>
  <a xlink:href="/use-case/client-360/know-your-customer/anti-money-laundering/" target="_top">
    <rect x="157.25" y="412.50" width="192.75" height="25" rx="4" ry="4" fill="none" stroke="none" pointer-events="all" />
    <text x="167.25" y="429.50" text-anchor="start" font-family="Roboto, sans-serif" font-size="13" fill="#90EE90" font-weight="normal">Anti Money Laundering (AML)</text>
  </a>
  <a xlink:href="/use-case/client-360/know-your-customer/anti-money-laundering/correspondent-based-aml/" target="_top">
    <rect x="400.00" y="362.50" width="175.42" height="25" rx="4" ry="4" fill="none" stroke="none" pointer-events="all" />
    <text x="410.00" y="379.50" text-anchor="start" font-family="Roboto, sans-serif" font-size="13" fill="#90EE90" font-weight="normal">Correspondent-based AML</text>
  </a>
  <a xlink:href="/use-case/client-360/know-your-customer/anti-money-laundering/network-based-aml/" target="_top">
    <rect x="400.00" y="387.50" width="137.80" height="25" rx="4" ry="4" fill="none" stroke="none" pointer-events="all" />
    <text x="410.00" y="404.50" text-anchor="start" font-family="Roboto, sans-serif" font-size="13" fill="#90EE90" font-weight="normal">Network Based AML</text>
  </a>
  <a xlink:href="/use-case/client-360/know-your-customer/anti-money-laundering/transaction-based-aml/" target="_top">
    <rect x="400.00" y="412.50" width="225.39" height="25" rx="4" ry="4" fill="#4051B5" stroke="#FF6F00" stroke-width="1.5" />
    <text x="410.00" y="429.50" text-anchor="start" font-family="Roboto, sans-serif" font-size="13" fill="#FFFFFF" font-weight="bold">Transaction / Finance based AML</text>
  </a>
</svg>