<svg xmlns="http://www.w3.org/2000/svg" xmlns:xlink="http://www.w3.org/1999/xlink" contentStyleType="text/css" data-diagram-type="MINDMAP" height="179px" preserveAspectRatio="none" style="width:973px;height:179px;" version="1.1" viewBox="0 0 973 179" width="973px" zoomAndPan="magnify"><defs/><g><polygon fill="#4051B5" points="259.4951,70.7422,259.4951,70.9524,269.4099,70.3279,279.3246,70.9355,289.2394,71.1419,299.1541,70.0288,309.0689,70.6645,318.9836,70.3157,328.8984,70.3587,338.8131,70.674,348.7279,70.0508,358.6426,71.2958,368.5574,70.1119,378.4721,70.5444,388.3869,71.1741,398.3016,70.6564,408.2164,70.8104,418.1311,70.7102,428.0459,70.9207,437.9606,70.9813,447.8754,71.3279,457.7901,71.4132,467.7049,71.4214,477.6196,70.9968,487.5344,71.2058,497.4491,71.4444,507.3639,70.021,517.2786,71.4207,527.1934,70.7422,527.1555,70.6509,527.8271,71.1409,528.2616,71.0584,528.8817,71.424,529.5507,71.9078,530.0218,71.9138,530.0068,71.9075,530.2885,72.4929,530.5947,73.0883,530.8529,73.6639,530.9578,74.176,531.1934,74.7422,531.2891,74.7422,531.0026,80.4016,531.2882,86.0609,531.3761,91.7203,531.3415,97.3797,531.1934,103.0391,531.3821,103.1173,530.8103,103.5431,530.5239,104.0872,530.299,104.6569,530.238,105.2943,530.0218,105.8675,529.9967,105.807,529.543,106.3117,528.8681,106.2823,528.281,106.4648,527.7882,106.875,527.1934,107.0391,527.1934,106.3722,517.2786,106.5199,507.3639,107.688,497.4491,107.4747,487.5344,107.7736,477.6196,106.7173,467.7049,107.3583,457.7901,107.6295,447.8754,106.5667,437.9606,106.9432,428.0459,107.165,418.1311,107.6908,408.2164,107.0349,398.3016,107.5016,388.3869,106.4853,378.4721,106.3618,368.5574,107.5427,358.6426,106.3221,348.7279,107.548,338.8131,107.2457,328.8984,106.7711,318.9836,106.6853,309.0689,107.4978,299.1541,106.7397,289.2394,107.6309,279.3246,106.4863,269.4099,107.6565,259.4951,107.0391,259.5569,107.1882,258.9607,106.8802,258.3698,106.585,257.8907,106.5599,257.3106,106.2908,256.6667,105.8675,256.7188,105.8891,256.515,105.336,256.1579,104.7195,256.1844,104.2618,255.7771,103.6245,255.4951,103.0391,255.5526,103.0391,255.2923,97.3797,255.36,91.7203,255.672,86.0609,255.6384,80.4016,255.4951,74.7422,255.4819,74.7367,255.6302,74.1354,255.8963,73.5829,255.9867,72.9576,256.5601,72.5324,256.6667,71.9138,256.761,72.1415,257.2995,71.8416,257.8867,71.6591,258.3463,71.1687,258.9406,71.0034,259.4951,70.7422" style="stroke:#FF6F00;stroke-width:1.5;"/><text fill="#FFFFFF" font-family="'Roboto'" font-size="14" lengthAdjust="spacing" textLength="255.6982" x="265.4951" y="93.7373">Customer Relationship Management</text><a href="/use-case/client-360/customer-relationship-management/account-management/" target="_top" title="/use-case/client-360/customer-relationship-management/account-management/" xlink:actuate="onRequest" xlink:href="/use-case/client-360/customer-relationship-management/account-management/" xlink:show="new" xlink:title="/use-case/client-360/customer-relationship-management/account-management/" xlink:type="simple"><text fill="#90EE90" font-family="'Roboto'" font-size="14" lengthAdjust="spacing" textLength="153.4463" x="588.1934" y="27.9951">Account Management</text></a><a href="/use-case/client-360/customer-relationship-management/account-management/account-relationships/" target="_top" title="/use-case/client-360/customer-relationship-management/account-management/account-relationships/" xlink:actuate="onRequest" xlink:href="/use-case/client-360/customer-relationship-management/account-management/account-relationships/" xlink:show="new" xlink:title="/use-case/client-360/customer-relationship-management/account-management/account-relationships/" xlink:type="simple"><text fill="#90EE90" font-family="'Roboto'" font-size="14" lengthAdjust="spacing" textLength="155.0869" x="802.6396" y="27.9951">Account Relationships</text></a><path d="M745.6396,23.1484 L745.6396,23.3353 L747.6396,22.7802 L749.6396,23.3202 L751.6396,23.5037 L753.6396,22.5143 L755.6396,23.1484 L755.6396,23.1484 L755.6396,23.1139 L761.6396,22.9589 L767.6396,22.978 L773.6396,23.1181 L779.6396,22.8412 L785.6396,23.1484 L785.6396,23.6406 L787.6396,22.5882 L789.6396,22.9726 L791.6396,23.5324 L793.6396,23.0722 L795.6396,23.1484" fill="none" style="stroke:#FF9900;stroke-width:1;"/><path d="M531.1934,88.8906 L531.1934,89.0775 L533.1934,88.5223 L535.1934,89.0624 L537.1934,89.2459 L539.1934,88.2565 L541.1934,88.8906 L541.1934,88.8906 L541.1673,88.868 L542.8314,86.712 L544.6271,84.6701 L546.5142,82.7075 L548.0862,80.4716 L550.0996,78.6184 L550.3349,78.6904 L550.4763,76.4306 L551.3046,74.3811 L552.2168,72.3572 L552.6413,70.184 L553.3223,68.0894 L553.3518,68.0964 L553.8827,65.6721 L554.5479,63.2798 L555.1483,60.8721 L555.8724,58.4937 L556.1934,56.0195 L556.4835,56.0886 L557.0613,53.6754 L557.4519,51.2178 L558.1165,48.8253 L558.7939,46.4359 L559.0645,43.9497 L558.758,43.8559 L559.9973,41.9321 L560.2275,39.6995 L561.2249,37.7017 L561.4322,35.4621 L562.2871,33.4207 L562.2641,33.4007 L564.3174,31.5821 L565.8332,29.2976 L567.6662,27.288 L569.5258,25.3015 L571.1934,23.1484 L571.1934,23.5184 L573.1934,23.145 L575.1934,23.4037 L577.1934,22.6396 L579.1934,23.4012 L581.1934,23.1484" fill="none" style="stroke:#FF9900;stroke-width:1;"/><a href="/use-case/client-360/customer-relationship-management/activity-management/" target="_top" title="/use-case/client-360/customer-relationship-management/activity-management/" xlink:actuate="onRequest" xlink:href="/use-case/client-360/customer-relationship-management/activity-management/" xlink:show="new" xlink:title="/use-case/client-360/customer-relationship-management/activity-management/" xlink:type="simple"><text fill="#90EE90" font-family="'Roboto'" font-size="14" lengthAdjust="spacing" textLength="149.2764" x="588.1934" y="54.292">Activity Management</text></a><a href="/use-case/client-360/customer-relationship-management/activity-management/interactions/" target="_top" title="/use-case/client-360/customer-relationship-management/activity-management/interactions/" xlink:actuate="onRequest" xlink:href="/use-case/client-360/customer-relationship-management/activity-management/interactions/" xlink:show="new" xlink:title="/use-case/client-360/customer-relationship-management/activity-management/interactions/" xlink:type="simple"><text fill="#90EE90" font-family="'Roboto'" font-size="14" lengthAdjust="spacing" textLength="83.248" x="798.4697" y="54.292">Interactions</text></a><path d="M741.4697,49.4453 L741.4697,49.6321 L743.4697,49.077 L745.4697,49.6171 L747.4697,49.8006 L749.4697,48.8112 L751.4697,49.4453 L751.4697,49.4453 L751.4697,49.4108 L757.4697,49.2558 L763.4697,49.2749 L769.4697,49.415 L775.4697,49.138 L781.4697,49.4453 L781.4697,49.9374 L783.4697,48.8851 L785.4697,49.2695 L787.4697,49.8293 L789.4697,49.3691 L791.4697,49.4453" fill="none" style="stroke:#FF9900;stroke-width:1;"/><path d="M531.1934,88.8906 L531.1934,89.0775 L533.1934,88.5223 L535.1934,89.0624 L537.1934,89.2459 L539.1934,88.2565 L541.1934,88.8906 L541.1934,88.8906 L541.1737,88.8622 L542.8667,87.5021 L544.6589,86.2851 L546.5199,85.1677 L548.1435,83.7073 L550.0996,82.7273 L550.324,82.8282 L551.0629,79.9006 L552.4569,77.2675 L553.931,74.6704 L554.9398,71.8642 L556.1934,69.168 L556.221,69.1804 L557.3992,66.4503 L558.7032,63.7768 L559.9466,61.0759 L561.3058,58.4272 L562.2871,55.6086 L562.4568,55.8539 L564.2402,54.6242 L565.914,53.2364 L567.7481,52.0801 L569.5897,50.9346 L571.1934,49.4453 L571.1934,48.8043 L573.1934,50.0484 L575.1934,49.1818 L577.1934,49.9198 L579.1934,49.0053 L581.1934,49.4453" fill="none" style="stroke:#FF9900;stroke-width:1;"/><a href="/use-case/client-360/customer-relationship-management/contact-management/" target="_top" title="/use-case/client-360/customer-relationship-management/contact-management/" xlink:actuate="onRequest" xlink:href="/use-case/client-360/customer-relationship-management/contact-management/" xlink:show="new" xlink:title="/use-case/client-360/customer-relationship-management/contact-management/" xlink:type="simple"><text fill="#90EE90" font-family="'Roboto'" font-size="14" lengthAdjust="spacing" textLength="151.1426" x="588.1934" y="80.5889">Contact Management</text></a><a href="/use-case/client-360/customer-relationship-management/contact-management/contact-relationships/" target="_top" title="/use-case/client-360/customer-relationship-management/contact-management/contact-relationships/" xlink:actuate="onRequest" xlink:href="/use-case/client-360/customer-relationship-management/contact-management/contact-relationships/" xlink:show="new" xlink:title="/use-case/client-360/customer-relationship-management/contact-management/contact-relationships/" xlink:type="simple"><text fill="#90EE90" font-family="'Roboto'" font-size="14" lengthAdjust="spacing" textLength="152.7832" x="800.3359" y="80.5889">Contact Relationships</text></a><path d="M743.3359,75.7422 L743.3359,75.929 L745.3359,75.3739 L747.3359,75.914 L749.3359,76.0975 L751.3359,75.1081 L753.3359,75.7422 L753.3359,75.7422 L753.3359,75.7076 L759.3359,75.5526 L765.3359,75.5717 L771.3359,75.7119 L777.3359,75.4349 L783.3359,75.7422 L783.3359,76.2343 L785.3359,75.1819 L787.3359,75.5664 L789.3359,76.1261 L791.3359,75.6659 L793.3359,75.7422" fill="none" style="stroke:#FF9900;stroke-width:1;"/><path d="M531.1934,88.8906 L531.1934,89.0775 L533.1934,88.5223 L535.1934,89.0624 L537.1934,89.2459 L539.1934,88.2565 L541.1934,88.8906 L541.1934,88.8906 L541.1795,88.859 L544.1173,87.4022 L547.1249,86.1048 L550.1812,84.9183 L553.07,83.3498 L556.1934,82.3164 L556.2921,82.5418 L559.0809,80.745 L562.1581,79.6062 L565.2704,78.5477 L568.1781,77.0221 L571.1934,75.7422 L571.1934,75.8028 L573.1934,75.7138 L575.1934,75.9009 L577.1934,75.9548 L579.1934,76.2628 L581.1934,75.7422" fill="none" style="stroke:#FF9900;stroke-width:1;"/><a href="/use-case/client-360/customer-relationship-management/lead-management/" target="_top" title="/use-case/client-360/customer-relationship-management/lead-management/" xlink:actuate="onRequest" xlink:href="/use-case/client-360/customer-relationship-management/lead-management/" xlink:show="new" xlink:title="/use-case/client-360/customer-relationship-management/lead-management/" xlink:type="simple"><text fill="#90EE90" font-family="'Roboto'" font-size="14" lengthAdjust="spacing" textLength="130.5527" x="588.1934" y="106.8857">Lead Management</text></a><a href="/use-case/client-360/customer-relationship-management/lead-management/lead-qualification/" target="_top" title="/use-case/client-360/customer-relationship-management/lead-management/lead-qualification/" xlink:actuate="onRequest" xlink:href="/use-case/client-360/customer-relationship-management/lead-management/lead-qualification/" xlink:show="new" xlink:title="/use-case/client-360/customer-relationship-management/lead-management/lead-qualification/" xlink:type="simple"><text fill="#90EE90" font-family="'Roboto'" font-size="14" lengthAdjust="spacing" textLength="126.4922" x="779.7461" y="106.8857">Lead Qualification</text></a><path d="M722.7461,102.0391 L722.7461,102.2259 L724.7461,101.6708 L726.7461,102.2109 L728.7461,102.3943 L730.7461,101.4049 L732.7461,102.0391 L732.7461,102.0391 L732.7461,102.0045 L738.7461,101.8495 L744.7461,101.8686 L750.7461,102.0088 L756.7461,101.7318 L762.7461,102.0391 L762.7461,102.5312 L764.7461,101.4788 L766.7461,101.8633 L768.7461,102.423 L770.7461,101.9628 L772.7461,102.0391" fill="none" style="stroke:#FF9900;stroke-width:1;"/><path d="M531.1934,88.8906 L531.1934,89.0775 L533.1934,88.5223 L535.1934,89.0624 L537.1934,89.2459 L539.1934,88.2565 L541.1934,88.8906 L541.1934,88.8906 L541.1795,88.859 L544.1173,90.0319 L547.1249,91.3642 L550.1812,92.8074 L553.07,93.8686 L556.1934,95.4648 L556.2921,95.6902 L559.0809,96.5231 L562.1581,98.014 L565.2704,99.5852 L568.1781,100.6893 L571.1934,102.0391 L571.1934,102.0997 L573.1934,102.0107 L575.1934,102.1978 L577.1934,102.2516 L579.1934,102.5597 L581.1934,102.0391" fill="none" style="stroke:#FF9900;stroke-width:1;"/><a href="/use-case/client-360/customer-relationship-management/opportunity-management/" target="_top" title="/use-case/client-360/customer-relationship-management/opportunity-management/" xlink:actuate="onRequest" xlink:href="/use-case/client-360/customer-relationship-management/opportunity-management/" xlink:show="new" xlink:title="/use-case/client-360/customer-relationship-management/opportunity-management/" xlink:type="simple"><text fill="#90EE90" font-family="'Roboto'" font-size="14" lengthAdjust="spacing" textLength="180.6875" x="588.1934" y="146.3311">Opportunity Management</text></a><a href="/use-case/client-360/customer-relationship-management/opportunity-management/forecasting/" target="_top" title="/use-case/client-360/customer-relationship-management/opportunity-management/forecasting/" xlink:actuate="onRequest" xlink:href="/use-case/client-360/customer-relationship-management/opportunity-management/forecasting/" xlink:show="new" xlink:title="/use-case/client-360/customer-relationship-management/opportunity-management/forecasting/" xlink:type="simple"><text fill="#90EE90" font-family="'Roboto'" font-size="14" lengthAdjust="spacing" textLength="81.6963" x="829.8809" y="133.1826">Forecasting</text></a><path d="M772.8809,141.4844 L772.8809,141.6712 L774.8809,141.1161 L776.8809,141.6562 L778.8809,141.8396 L780.8809,140.8502 L782.8809,141.4844 L782.8809,141.4844 L782.867,141.4527 L785.8048,139.9959 L788.8124,138.6986 L791.8687,137.5121 L794.7575,135.9436 L797.8809,134.9102 L797.9796,135.1355 L800.7684,133.3387 L803.8456,132.2 L806.9579,131.1415 L809.8656,129.6159 L812.8809,128.3359 L812.8809,128.3966 L814.8809,128.3075 L816.8809,128.4946 L818.8809,128.5485 L820.8809,128.8566 L822.8809,128.3359" fill="none" style="stroke:#FF9900;stroke-width:1;"/><a href="/use-case/client-360/customer-relationship-management/opportunity-management/sales-pipeline/" target="_top" title="/use-case/client-360/customer-relationship-management/opportunity-management/sales-pipeline/" xlink:actuate="onRequest" xlink:href="/use-case/client-360/customer-relationship-management/opportunity-management/sales-pipeline/" xlink:show="new" xlink:title="/use-case/client-360/customer-relationship-management/opportunity-management/sales-pipeline/" xlink:type="simple"><text fill="#90EE90" font-family="'Roboto'" font-size="14" lengthAdjust="spacing" textLength="96.8105" x="829.8809" y="159.4795">Sales Pipeline</text></a><path d="M772.8809,141.4844 L772.8809,141.6712 L774.8809,141.1161 L776.8809,141.6562 L778.8809,141.8396 L780.8809,140.8502 L782.8809,141.4844 L782.8809,141.4844 L782.867,141.4527 L785.8048,142.6256 L788.8124,143.958 L791.8687,145.4012 L794.7575,146.4623 L797.8809,148.0586 L797.9796,148.284 L800.7684,149.1169 L803.8456,150.6078 L806.9579,152.179 L809.8656,153.2831 L812.8809,154.6328 L812.8809,154.6935 L814.8809,154.6044 L816.8809,154.7915 L818.8809,154.8454 L820.8809,155.1534 L822.8809,154.6328" fill="none" style="stroke:#FF9900;stroke-width:1;"/><path d="M531.1934,88.8906 L531.1934,89.0775 L533.1934,88.5223 L535.1934,89.0624 L537.1934,89.2459 L539.1934,88.2565 L541.1934,88.8906 L541.1934,88.8906 L541.1699,88.8652 L542.8461,90.3949 L544.6403,92.0525 L546.5166,93.799 L548.11,95.239 L550.0996,97.1084 L550.3328,97.187 L551.0529,100.6347 L552.4538,104.312 L553.9378,108.0172 L554.9385,111.5595 L556.1934,115.1875 L556.2221,115.1972 L557.3987,118.7988 L558.706,122.4445 L559.9503,126.0689 L561.315,129.7339 L562.2871,133.2666 L562.4894,133.4858 L564.2731,135.132 L565.9264,136.6369 L567.7706,138.3487 L569.6238,140.0702 L571.1934,141.4844 L571.1934,140.8433 L573.1934,142.0875 L575.1934,141.2208 L577.1934,141.9589 L579.1934,141.0444 L581.1934,141.4844" fill="none" style="stroke:#FF9900;stroke-width:1;"/><a href="/use-case/client-360/" target="_top" title="/use-case/client-360/" xlink:actuate="onRequest" xlink:href="/use-case/client-360/" xlink:show="new" xlink:title="/use-case/client-360/" xlink:type="simple"><text fill="#90EE90" font-family="'Roboto'" font-size="14" lengthAdjust="spacing" textLength="184.4951" x="14" y="93.7373">Client 360 / Customer 360</text></a><path d="M255.4951,88.8906 L255.4951,89.0775 L253.4951,88.5223 L251.4951,89.0624 L249.4951,89.2459 L247.4951,88.2565 L245.4951,88.8906 L245.4951,88.8906 L245.4951,88.8561 L239.4951,88.7011 L233.4951,88.7202 L227.4951,88.8603 L221.4951,88.5833 L215.4951,88.8906 L215.4951,89.3828 L213.4951,88.3304 L211.4951,88.7148 L209.4951,89.2746 L207.4951,88.8144 L205.4951,88.8906" fill="none" style="stroke:#FF9900;stroke-width:1;"/><!--SRC=[xLfjJniv4Fw-ly9NFj2AIvDGG2sgAa9uAH18Be5Afwf2pgwJM6pihUs5uqxtts_McusTpUOzMq17FiNZyJmpOsV6VfG3gR1GVSgyFWwG6qh5-qGK1F6nefp97WqAVSnmb_G9KuxpcqSwb15qU7fxMJcxkgtMQ_Kcqf-DdT9kkRrhgxIEg_Mheqhppu5UXagZKhsed1uF3Osfr9j7nqqR1srqEdkTKcceSbA_kXvHq2hHnt7a7MK15hYFsjYzwmeUCg_AVIuIHIKmaw0HHMUKlpu6HDGekxDrqOPFkptL5OGmnzb4bBb-w16aUWHr2IC2-sXeGg8EB6nprViTwMK8CmzvMDp1IiKHloVYGL15q0DLlTW6lISCIQ8KPLsPpi3rrxFgnTLnguNAi0qyYBO7zS1eP4N1mWxs9R5YQ63F0qDenv8ru_W5E8i-Ml9M3tly8T9EMz6Py24JDypJNyX0nT8v8XqS-Whzuo1qmfcwmds2tZGvHC_V36Hn8irM3SGj-ZT1vHtdNzjUHGZ-eArDM3N9c7hq8L_SzqRj1R3rS8A7_cKiFqoTZf7p7Srp0U4FvgmZ2K06Xt5lKP2HupylZilx0MTmOZNOqgvFz3FEOzZtjqVpw665srYIN617a5oVXzulWE6-JrnTw782CrXLK13SpntdC3ABnMFkGCTCKPK_36MAY0vsIUv8BV8p9Cmb3UY8rAK1PYesTzsZxXqZKaBfDUfoeAxzijVCS77CVAQtbfOfROoBFlR7PpD-mpNQ8T30o1I8eSeCXtKvpe3GyYdszVm4z_ISoUk7IEGgBcRwefMcO4RpatxucwYweuiRD3eORCpysBL2GA70hEkJpv-X8qhEldpHEz-2uqcuWZOvfJEji-CaKoPxwHl2Q96p72T_WRCC-xTvHP2wyEKKXdoKYlHVSlxpYY37_2VD_wMbt_ZzahDl7QBseC4d_gUkxkc8z0sxDD_jS-bSp0epRbyUbZtYpHTxPkWkm6FeM6AHsE5rCVkuvHRvl1iCxt0LNoN6dKtUnD6SyIDvuqRIYbA2jaD5igTjBvFNS-g-ZQNynUYRw790EyY0kBH3NKX2t9ipdbJB-3KpR6nkDXid9vy-mNngqhxwELlL0J-2cXO_WYuDFr8etABltukX90KNQaxHzIc82n_sIaLKrTyHV4SmI2p1yCSFPsjhuhfPd4mHkouaHTaYk0PfcUMQ1balIYAobqY3RUT8hXoZelVmsaW56GlN6kKuZdw0uFYLM4HdrcZ5e7GrSqSthXhBrXXI1aeYIcrSWhtEZVC9zaO2h85WZT6bxUlnpn3xKJtHAmQGVzYo5OFYGS252bdwGDQDV8qXJa3hS6YCM4PSOH7gtt2G4vp4Ff65W0OauW2Bg1MDKMCm1j030iKyBkYESx0WhPmZJ_lC6L7Jh-QcGqUNP9fPY0WrQoUtsEnMEfNwN8VPwKpdT3lPlYp5RIuED2URkQhX6VpbCkRdOonNipoLerpDz1HMSZN3qtd8rMpdn3mQfoPmZiQ_9UX6yvlAuXgDwKaqe_7E8XYDqJ5sqLXC4OkfDNEmYXPqca-qK4QfHEi7k2GhEBrkBtgYnW_8wgpVKtauav1vyjGzBmyNuEAUoAzdchWSQ3JZqHBHJObX1cLMpfyZookoYRlp_-F0NeckLwBhbUXw9RfUYQuNIdGrV7WJtLpMq3tShQD_v9NVRvUsTz-NossYSBdqzeRTCVx0D9D1eQ4hsYVldBUdZHgIF1JmYFEeZ5i7B7_ddEDxZ9fGLa1l7n9DsFdHHIA0r-qz5Ppf4dp-xT8exEqK3gc2XwG0Hz2tIoTXe8wPooFIQn_TN9yKFZerk2Q44Ei-8iofHlLBFC9Swpy0]--></g></svg>