<svg xmlns="http://www.w3.org/2000/svg" xmlns:xlink="http://www.w3.org/1999/xlink" contentStyleType="text/css" data-diagram-type="MINDMAP" height="172px" preserveAspectRatio="none" style="width:920px;height:172px;" version="1.1" viewBox="0 0 920 172" width="920px" zoomAndPan="magnify"><defs/><g><polygon fill="#4051B5" points="246.3169,67.832,246.3169,68.0422,256.2943,67.4177,266.2716,68.0253,276.249,68.2317,286.2263,67.1186,296.2037,67.7543,306.1811,67.4055,316.1584,67.4485,326.1358,67.7639,336.1132,67.1407,346.0905,68.3857,356.0679,67.2018,366.0453,67.6343,376.0226,68.264,386,67.7463,395.9773,67.9003,405.9547,67.8001,415.9321,68.0106,425.9094,68.0712,435.8868,68.4177,445.8642,68.5031,455.8415,68.5113,465.8189,68.0867,475.7963,68.2956,485.7736,68.5343,495.751,67.832,495.659,67.6099,496.4032,68.2753,496.8445,68.2093,497.5161,68.6994,497.9506,68.6168,498.5794,69.0036,498.5583,68.9949,499.0421,69.6639,499.033,70.1288,499.3148,70.7141,499.6209,71.3095,499.751,71.832,499.8897,71.832,499.7497,77.2586,499.8467,82.6852,499.5602,88.1117,499.8458,93.5383,499.751,98.9648,499.9198,99.0348,499.6536,99.5872,499.4711,100.1744,498.8993,100.6003,498.6129,101.1444,498.5794,101.7933,498.5001,101.6019,498.0062,102.0095,497.423,102.2014,496.9693,102.7061,496.2944,102.6767,495.751,102.9648,495.751,102.6218,485.7736,103.1931,475.7963,102.298,465.8189,102.4457,455.8415,103.6138,445.8642,103.4005,435.8868,103.6993,425.9094,102.643,415.9321,103.284,405.9547,103.5553,395.9773,102.4924,386,102.869,376.0226,103.0908,366.0453,103.6166,356.0679,102.9607,346.0905,103.4274,336.1132,102.4111,326.1358,102.2876,316.1584,103.4685,306.1811,102.2479,296.2037,103.4738,286.2263,103.1715,276.249,102.6969,266.2716,102.6111,256.2943,103.4236,246.3169,102.9648,246.2787,102.8727,245.8267,102.9128,245.115,102.326,244.6986,102.452,244.1159,102.1767,243.4885,101.7933,243.5639,101.8245,243.2687,101.2336,243.2436,100.7546,242.9745,100.1745,242.6033,99.5521,242.3169,98.9648,242.4063,98.9648,242.2735,93.5383,242.5557,88.1117,242.3685,82.6852,242.3744,77.2586,242.3169,71.832,242.1295,71.7544,242.4264,71.2147,242.949,70.7684,243.1522,70.1898,243.2409,69.5638,243.4885,69.0036,243.4474,68.9044,244.0262,68.7019,244.5323,68.3237,245.2384,68.4284,245.8455,68.2941,246.3169,67.832" style="stroke:#FF6F00;stroke-width:1.5;"/><text fill="#FFFFFF" font-family="'Roboto'" font-size="13" lengthAdjust="spacing" textLength="237.4341" x="252.3169" y="89.8989">Customer Relationship Management</text><a href="/use-case/client-360/customer-relationship-management/account-management/" target="_top" title="/use-case/client-360/customer-relationship-management/account-management/" xlink:actuate="onRequest" xlink:href="/use-case/client-360/customer-relationship-management/account-management/" xlink:show="new" xlink:title="/use-case/client-360/customer-relationship-management/account-management/" xlink:type="simple"><text fill="#4051B5" font-family="'Roboto'" font-size="13" lengthAdjust="spacing" textLength="142.4858" x="556.751" y="27.0669">Account Management</text></a><a href="/use-case/client-360/customer-relationship-management/account-management/account-relationships/" target="_top" title="/use-case/client-360/customer-relationship-management/account-management/account-relationships/" xlink:actuate="onRequest" xlink:href="/use-case/client-360/customer-relationship-management/account-management/account-relationships/" xlink:show="new" xlink:title="/use-case/client-360/customer-relationship-management/account-management/account-relationships/" xlink:type="simple"><text fill="#4051B5" font-family="'Roboto'" font-size="13" lengthAdjust="spacing" textLength="144.0093" x="760.2368" y="27.0669">Account Relationships</text></a><path d="M703.2368,22.5664 L703.2368,22.7532 L705.2368,22.1981 L707.2368,22.7382 L709.2368,22.9217 L711.2368,21.9323 L713.2368,22.5664 L713.2368,22.5664 L713.2368,22.5319 L719.2368,22.3769 L725.2368,22.396 L731.2368,22.5361 L737.2368,22.2591 L743.2368,22.5664 L743.2368,23.0585 L745.2368,22.0062 L747.2368,22.3906 L749.2368,22.9504 L751.2368,22.4902 L753.2368,22.5664" fill="none" style="stroke:#FF6F00;stroke-width:1;"/><path d="M499.751,85.3984 L499.751,85.5853 L501.751,85.0302 L503.751,85.5702 L505.751,85.7537 L507.751,84.7643 L509.751,85.3984 L509.751,85.3984 L509.7254,85.3752 L511.3918,83.3076 L513.1872,81.3569 L515.0723,79.4876 L516.6484,77.338 L518.6572,75.5809 L518.8916,75.656 L519.035,73.4829 L519.8626,71.5289 L520.7737,69.6017 L521.199,67.519 L521.8799,65.518 L521.9093,65.5253 L522.4403,63.2074 L523.1053,60.9229 L523.7057,58.6223 L524.4294,56.3524 L524.751,53.9824 L525.0404,54.0545 L525.6182,51.7482 L526.0092,49.3955 L526.6736,47.1108 L527.3507,44.8293 L527.6221,42.4469 L527.3168,42.3491 L528.5538,40.5262 L528.7856,38.3815 L529.7816,36.4814 L529.9907,34.3294 L530.8447,32.3839 L530.8222,32.3635 L532.8701,30.6419 L534.3912,28.4424 L536.2231,26.5249 L538.0812,24.631 L539.751,22.5664 L539.751,22.9364 L541.751,22.5629 L543.751,22.8217 L545.751,22.0576 L547.751,22.8192 L549.751,22.5664" fill="none" style="stroke:#FF6F00;stroke-width:1;"/><a href="/use-case/client-360/customer-relationship-management/activity-management/" target="_top" title="/use-case/client-360/customer-relationship-management/activity-management/" xlink:actuate="onRequest" xlink:href="/use-case/client-360/customer-relationship-management/activity-management/" xlink:show="new" xlink:title="/use-case/client-360/customer-relationship-management/activity-management/" xlink:type="simple"><text fill="#4051B5" font-family="'Roboto'" font-size="13" lengthAdjust="spacing" textLength="138.6138" x="556.751" y="52.1997">Activity Management</text></a><a href="/use-case/client-360/customer-relationship-management/activity-management/interactions/" target="_top" title="/use-case/client-360/customer-relationship-management/activity-management/interactions/" xlink:actuate="onRequest" xlink:href="/use-case/client-360/customer-relationship-management/activity-management/interactions/" xlink:show="new" xlink:title="/use-case/client-360/customer-relationship-management/activity-management/interactions/" xlink:type="simple"><text fill="#4051B5" font-family="'Roboto'" font-size="13" lengthAdjust="spacing" textLength="77.3018" x="756.3647" y="52.1997">Interactions</text></a><path d="M699.3647,47.6992 L699.3647,47.886 L701.3647,47.3309 L703.3647,47.871 L705.3647,48.0545 L707.3647,47.0651 L709.3647,47.6992 L709.3647,47.6992 L709.3647,47.6647 L715.3647,47.5097 L721.3647,47.5288 L727.3647,47.6689 L733.3647,47.3919 L739.3647,47.6992 L739.3647,48.1913 L741.3647,47.139 L743.3647,47.5234 L745.3647,48.0832 L747.3647,47.623 L749.3647,47.6992" fill="none" style="stroke:#FF6F00;stroke-width:1;"/><path d="M499.751,85.3984 L499.751,85.5853 L501.751,85.0302 L503.751,85.5702 L505.751,85.7537 L507.751,84.7643 L509.751,85.3984 L509.751,85.3984 L509.7319,85.3696 L511.4277,84.0622 L513.2195,82.9001 L515.078,81.8389 L516.7065,80.4297 L518.6572,79.5079 L518.8799,79.6126 L519.6225,76.7969 L521.0152,74.2869 L522.4872,71.8142 L523.4977,69.1244 L524.751,66.5488 L524.7784,66.5617 L525.9569,63.951 L527.2603,61.3989 L528.5034,58.8186 L529.8615,56.2923 L530.8447,53.5897 L531.0093,53.8385 L532.7925,52.6634 L534.4697,51.3279 L536.3021,50.2273 L538.1419,49.1376 L539.751,47.6992 L539.751,47.0582 L541.751,48.3023 L543.751,47.4357 L545.751,48.1737 L547.751,47.2592 L549.751,47.6992" fill="none" style="stroke:#FF6F00;stroke-width:1;"/><a href="/use-case/client-360/customer-relationship-management/contact-management/" target="_top" title="/use-case/client-360/customer-relationship-management/contact-management/" xlink:actuate="onRequest" xlink:href="/use-case/client-360/customer-relationship-management/contact-management/" xlink:show="new" xlink:title="/use-case/client-360/customer-relationship-management/contact-management/" xlink:type="simple"><text fill="#4051B5" font-family="'Roboto'" font-size="13" lengthAdjust="spacing" textLength="140.3467" x="556.751" y="77.3325">Contact Management</text></a><a href="/use-case/client-360/customer-relationship-management/contact-management/contact-relationships/" target="_top" title="/use-case/client-360/customer-relationship-management/contact-management/contact-relationships/" xlink:actuate="onRequest" xlink:href="/use-case/client-360/customer-relationship-management/contact-management/contact-relationships/" xlink:show="new" xlink:title="/use-case/client-360/customer-relationship-management/contact-management/contact-relationships/" xlink:type="simple"><text fill="#4051B5" font-family="'Roboto'" font-size="13" lengthAdjust="spacing" textLength="141.8701" x="758.0977" y="77.3325">Contact Relationships</text></a><path d="M701.0977,72.832 L701.0977,73.0189 L703.0977,72.4637 L705.0977,73.0038 L707.0977,73.1873 L709.0977,72.1979 L711.0977,72.832 L711.0977,72.832 L711.0977,72.7975 L717.0977,72.6425 L723.0977,72.6616 L729.0977,72.8017 L735.0977,72.5248 L741.0977,72.832 L741.0977,73.3242 L743.0977,72.2718 L745.0977,72.6562 L747.0977,73.216 L749.0977,72.7558 L751.0977,72.832" fill="none" style="stroke:#FF6F00;stroke-width:1;"/><path d="M499.751,85.3984 L499.751,85.5853 L501.751,85.0302 L503.751,85.5702 L505.751,85.7537 L507.751,84.7643 L509.751,85.3984 L509.751,85.3984 L509.7376,85.3666 L512.6777,83.967 L515.6851,82.7279 L518.7393,81.6006 L521.6323,80.0885 L524.751,79.1152 L524.846,79.3422 L527.6427,77.6002 L530.717,76.5209 L533.8251,75.5224 L536.7362,74.0535 L539.751,72.832 L539.751,72.8927 L541.751,72.8036 L543.751,72.9907 L545.751,73.0446 L547.751,73.3526 L549.751,72.832" fill="none" style="stroke:#FF6F00;stroke-width:1;"/><a href="/use-case/client-360/customer-relationship-management/lead-management/" target="_top" title="/use-case/client-360/customer-relationship-management/lead-management/" xlink:actuate="onRequest" xlink:href="/use-case/client-360/customer-relationship-management/lead-management/" xlink:show="new" xlink:title="/use-case/client-360/customer-relationship-management/lead-management/" xlink:type="simple"><text fill="#4051B5" font-family="'Roboto'" font-size="13" lengthAdjust="spacing" textLength="121.2275" x="556.751" y="102.4653">Lead Management</text></a><a href="/use-case/client-360/customer-relationship-management/lead-management/lead-qualification/" target="_top" title="/use-case/client-360/customer-relationship-management/lead-management/lead-qualification/" xlink:actuate="onRequest" xlink:href="/use-case/client-360/customer-relationship-management/lead-management/lead-qualification/" xlink:show="new" xlink:title="/use-case/client-360/customer-relationship-management/lead-management/lead-qualification/" xlink:type="simple"><text fill="#4051B5" font-family="'Roboto'" font-size="13" lengthAdjust="spacing" textLength="117.457" x="738.9785" y="102.4653">Lead Qualification</text></a><path d="M681.9785,97.9648 L681.9785,98.1517 L683.9785,97.5966 L685.9785,98.1367 L687.9785,98.3201 L689.9785,97.3307 L691.9785,97.9648 L691.9785,97.9648 L691.9785,97.9303 L697.9785,97.7753 L703.9785,97.7944 L709.9785,97.9346 L715.9785,97.6576 L721.9785,97.9648 L721.9785,98.457 L723.9785,97.4046 L725.9785,97.7891 L727.9785,98.3488 L729.9785,97.8886 L731.9785,97.9648" fill="none" style="stroke:#FF6F00;stroke-width:1;"/><path d="M499.751,85.3984 L499.751,85.5853 L501.751,85.0302 L503.751,85.5702 L505.751,85.7537 L507.751,84.7643 L509.751,85.3984 L509.751,85.3984 L509.7376,85.3666 L512.6777,86.4802 L515.6851,87.7545 L518.7393,89.1404 L521.6323,90.1416 L524.751,91.6816 L524.846,91.9086 L527.6427,92.6799 L530.717,94.1139 L533.8251,95.6286 L536.7362,96.673 L539.751,97.9648 L539.751,98.0255 L541.751,97.9364 L543.751,98.1235 L545.751,98.1774 L547.751,98.4855 L549.751,97.9648" fill="none" style="stroke:#FF6F00;stroke-width:1;"/><a href="/use-case/client-360/customer-relationship-management/opportunity-management/" target="_top" title="/use-case/client-360/customer-relationship-management/opportunity-management/" xlink:actuate="onRequest" xlink:href="/use-case/client-360/customer-relationship-management/opportunity-management/" xlink:show="new" xlink:title="/use-case/client-360/customer-relationship-management/opportunity-management/" xlink:type="simple"><text fill="#4051B5" font-family="'Roboto'" font-size="13" lengthAdjust="spacing" textLength="167.7813" x="556.751" y="140.1646">Opportunity Management</text></a><a href="/use-case/client-360/customer-relationship-management/opportunity-management/forecasting/" target="_top" title="/use-case/client-360/customer-relationship-management/opportunity-management/forecasting/" xlink:actuate="onRequest" xlink:href="/use-case/client-360/customer-relationship-management/opportunity-management/forecasting/" xlink:show="new" xlink:title="/use-case/client-360/customer-relationship-management/opportunity-management/forecasting/" xlink:type="simple"><text fill="#4051B5" font-family="'Roboto'" font-size="13" lengthAdjust="spacing" textLength="75.8608" x="785.5322" y="127.5981">Forecasting</text></a><path d="M728.5322,135.6641 L728.5322,135.8509 L730.5322,135.2958 L732.5322,135.8359 L734.5322,136.0193 L736.5322,135.0299 L738.5322,135.6641 L738.5322,135.6641 L738.5189,135.6322 L741.459,134.2326 L744.4664,132.9936 L747.5205,131.8662 L750.4135,130.3541 L753.5322,129.3809 L753.6273,129.6078 L756.424,127.8658 L759.4983,126.7865 L762.6064,125.788 L765.5175,124.3191 L768.5322,123.0977 L768.5322,123.1583 L770.5322,123.0693 L772.5322,123.2563 L774.5322,123.3102 L776.5322,123.6183 L778.5322,123.0977" fill="none" style="stroke:#FF6F00;stroke-width:1;"/><a href="/use-case/client-360/customer-relationship-management/opportunity-management/sales-pipeline/" target="_top" title="/use-case/client-360/customer-relationship-management/opportunity-management/sales-pipeline/" xlink:actuate="onRequest" xlink:href="/use-case/client-360/customer-relationship-management/opportunity-management/sales-pipeline/" xlink:show="new" xlink:title="/use-case/client-360/customer-relationship-management/opportunity-management/sales-pipeline/" xlink:type="simple"><text fill="#4051B5" font-family="'Roboto'" font-size="13" lengthAdjust="spacing" textLength="89.8955" x="785.5322" y="152.731">Sales Pipeline</text></a><path d="M728.5322,135.6641 L728.5322,135.8509 L730.5322,135.2958 L732.5322,135.8359 L734.5322,136.0193 L736.5322,135.0299 L738.5322,135.6641 L738.5322,135.6641 L738.5189,135.6322 L741.459,136.7459 L744.4664,138.0201 L747.5205,139.406 L750.4135,140.4072 L753.5322,141.9473 L753.6273,142.1742 L756.424,142.9455 L759.4983,144.3795 L762.6064,145.8943 L765.5175,146.9387 L768.5322,148.2305 L768.5322,148.2911 L770.5322,148.2021 L772.5322,148.3892 L774.5322,148.443 L776.5322,148.7511 L778.5322,148.2305" fill="none" style="stroke:#FF6F00;stroke-width:1;"/><path d="M499.751,85.3984 L499.751,85.5853 L501.751,85.0302 L503.751,85.5702 L505.751,85.7537 L507.751,84.7643 L509.751,85.3984 L509.751,85.3984 L509.7281,85.3725 L511.4069,86.8271 L513.2007,88.4122 L515.0747,90.0881 L516.6727,91.4512 L518.6572,93.2524 L518.8893,93.3343 L519.6118,96.615 L521.0118,100.1347 L522.4945,103.6836 L523.4963,107.0628 L524.751,110.5313 L524.7796,110.5413 L525.9563,113.9823 L527.2633,117.4692 L528.5075,120.9339 L529.8715,124.4409 L530.8447,127.8101 L531.042,128.0338 L532.8257,129.6073 L534.4821,131.0365 L536.3248,132.677 L538.1762,134.3273 L539.751,135.6641 L539.751,135.023 L541.751,136.2672 L543.751,135.4005 L545.751,136.1386 L547.751,135.224 L549.751,135.6641" fill="none" style="stroke:#FF6F00;stroke-width:1;"/><a href="/use-case/client-360/" target="_top" title="/use-case/client-360/" xlink:actuate="onRequest" xlink:href="/use-case/client-360/" xlink:show="new" xlink:title="/use-case/client-360/" xlink:type="simple"><text fill="#4051B5" font-family="'Roboto'" font-size="13" lengthAdjust="spacing" textLength="171.3169" x="14" y="89.8989">Client 360 / Customer 360</text></a><path d="M242.3169,85.3984 L242.3169,85.5853 L240.3169,85.0302 L238.3169,85.5702 L236.3169,85.7537 L234.3169,84.7643 L232.3169,85.3984 L232.3169,85.3984 L232.3169,85.3639 L226.3169,85.2089 L220.3169,85.228 L214.3169,85.3681 L208.3169,85.0912 L202.3169,85.3984 L202.3169,85.8906 L200.3169,84.8382 L198.3169,85.2226 L196.3169,85.7824 L194.3169,85.3222 L192.3169,85.3984" fill="none" style="stroke:#FF6F00;stroke-width:1;"/><!--SRC=[xLfPRziu47xNh-0s3stHkhRRj2YAecZYfASJP-saYqLH1BH4nqGaKYMfPBEB_UyxeYIJKdJuqhO5uYTfE9oBr1nVybOgB5H0cHVW4BcHL3mWeYE8ZnNbJCvfs0ammnSa84mvpcyUcL56qFxxywEzZyVdWz5mD4RwjxFRUzwVFhTP9eU3qV71tlZFbA-4vMHly7dl_U52q2sMqVZWS6phGJkpsOjPhxTWUJSwFiqnQ9Rujs3P6uz7V-HvCYcElAGin087Q8hToml18-ODkCy5sb42CmbhiUk6xSDDI8HFsMNAbLhit4UKkNxa4QJc15qGHWJsqMAVH3FWdd8rVunyUZ5N23CFULXSmax54RyYubfGHT0rLVD41hqY34cY56KNiXYJqmyV1v-F3oSJr8U3uM5yO6WEGcCf2ZREi2-9PVW9zZmGX7OjsZXnLu2nwAL5dyonnwzZxgAKXVjdpDCF96MnU0x834U-Glyu2BtZJ1tZWA1xOmxUytifBOcUERoKFA5_4zJVTVwrvUq9mQ-rj8fTLSBKZG_nuhwNbnV2ISETNjXNids_S1boDpvUvmBSJzUiImgAZ1x6lLMLv3w8PVMuF0WvWskgbQrjUgMTIHoZm7-QZwE75PvYILfHczFa-Zpo_WSrtFU9grDVIygChW4m2EwthcS_5el5JUkA3fcYgdqrb2aYPjWbhMkQaEyHOIuvWHf9NHfYfX9nftFgNZ8Y9QHUmovJTcsNlQV1n5lYIwsrk4ngOrm4sB-zMl8D3-cC325RrwXOi3GOhDDnYGfDhv6lrolCqsichizYagkuQBH5CzNeZDUhFlpxQB2haniKEdZPQVpPkK90ei3imYUlNqD5b9ozUQDFVWBNat05PRAcCcspucHB9dh53Y6Vv2p3oLzWBCF-ULiU55h0bjoGDrAHu5UEVriUj1Z_hFZ_Qk4tTl_AqRSkqJGjy9dzXTQzw97ki7lBTPzhnwB9pQHyULZEYRUSxwMkkw0UGyKIg_WEqqNpTMlDysKFUFaPAfj0xG7gMLBUHZ1K2Wf3Y9TAYsVGRDoFfnE9EYY0iJyU8GZ2C_0wqroOOonzwNHTCw1P0tUTgVaUnaIcC6P8XLNILJMVM-N1G2kWbA3JI95g3jFOv3sedSDoOmgMSdDBwvJTHqVf-ScGk7H6NOYFxc3WAA_dCO2W8B51copZWzU7_1XD_OZ06JD6udv88XwfUBbiLctDSgCBvvkzlkCy6gJO4nfRs1CwCjXJftEEldxjHf9qNCZUNTUdGEuyUz7hee5-Hl2Cu2MJ1A_VlZcF7bNkQyAxkjXr8GhA9a53gMcMQLh9ThLa97kBDBhj6CcDVLJq2kQsWfC9SQjUtjQZHpcSpDjTzD5wsz0fNHVS_C4D4jeMNIhHaf4A1vVftkR1-GHxEGU7GDYYTqNv-lrxXFquv-WTgShVRTg6Jl4mv495h7WXHuQ-HHShj46H920hHbsxaEeMBosfazWdiXFIaCHeQXTDudTqahw3qhS44dwIz1tdxOgG_VO0xfySIixQaXLmvFoMKZ4h8SXcRx64ciR7hf3P7o4QCEDjYAs7YElbbDko5YYykg8bOU1D1JS0l-k8NmxgtKnoBRYxcUWQE7SpmVK0xcQoMu9iZL4LOAsnRmsSrdnJPI2j4Ls5pnhhh0762Bq5ong91KIsi6S9EDPINGHYBIrv3DRw0DU4K-lpzgetwlO5sHmk_L4MDY9PFpnqFvU5Au2OFyYkdpHmBU2Fng8rlAlneG5hxBSFBhRbMUNfR04yt03zAotMMqV-ZCJom9K2VhdbNB5CBQxgf9S4-PgDQXHV0yHjGVeTz7O7lTr1RtVGsntqjZhqTkB3s7PsD4HNqFx7_stPV_Aqz_Jvatv_IXJkznwSiKl6hva6MoWKE4K3yj1vyFvaY2IF1CoP7fL9JOBj3vrF-0gZCQGLu7i5WIRiqy7dZ003-1KLdEaK_EdBaM5uiTlPfmfcNG66e2z7JbRk3vdBOrpk5JexVTTvwGoXaud0rrU8C6SGvozn0skJ_m00]--></g></svg>