<svg xmlns="http://www.w3.org/2000/svg" xmlns:xlink="http://www.w3.org/1999/xlink" viewBox="395.00 82.50 639.59 635.00" width="639.59px" height="635.00px" class="use-case-tree-svg">
  <rect width="100%" height="100%" fill="transparent" />
  <path d="M 563.69 400.00 C 588.44 400.00, 593.94 312.50, 618.69 312.50" stroke="#FF9900" stroke-width="1.5" fill="none" />
  <path d="M 563.69 400.00 C 588.44 400.00, 593.94 337.50, 618.69 337.50" stroke="#FF9900" stroke-width="1.5" fill="none" />
  <path d="M 563.69 400.00 C 588.44 400.00, 593.94 362.50, 618.69 362.50" stroke="#FF9900" stroke-width="1.5" fill="none" />
  <path d="M 563.69 400.00 C 588.44 400.00, 593.94 387.50, 618.69 387.50" stroke="#FF9900" stroke-width="1.5" fill="none" />
  <path d="M 563.69 400.00 C 588.44 400.00, 593.94 412.50, 618.69 412.50" stroke="#FF9900" stroke-width="1.5" fill="none" />
  <path d="M 563.69 400.00 C 588.44 400.00, 593.94 437.50, 618.69 437.50" stroke="#FF9900" stroke-width="1.5" fill="none" />
  <path d="M 563.69 400.00 C 588.44 400.00, 593.94 462.50, 618.69 462.50" stroke="#FF9900" stroke-width="1.5" fill="none" />
  <path d="M 563.69 400.00 C 588.44 400.00, 593.94 487.50, 618.69 487.50" stroke="#FF9900" stroke-width="1.5" fill="none" />
  <line x1="810.81" y1="312.50" x2="814.73" y2="312.50" stroke="#FF9900" stroke-width="1.5" />
  <path d="M 814.73 312.50 C 839.48 312.50, 844.98 100.00, 869.73 100.00" stroke="#FF9900" stroke-width="1.5" fill="none" />
  <line x1="810.81" y1="312.50" x2="814.73" y2="312.50" stroke="#FF9900" stroke-width="1.5" />
  <path d="M 814.73 312.50 C 839.48 312.50, 844.98 125.00, 869.73 125.00" stroke="#FF9900" stroke-width="1.5" fill="none" />
  <path d="M 814.73 337.50 C 839.48 337.50, 844.98 150.00, 869.73 150.00" stroke="#FF9900" stroke-width="1.5" fill="none" />
  <path d="M 814.73 337.50 C 839.48 337.50, 844.98 175.00, 869.73 175.00" stroke="#FF9900" stroke-width="1.5" fill="none" />
  <line x1="768.12" y1="362.50" x2="814.73" y2="362.50" stroke="#FF9900" stroke-width="1.5" />
  <path d="M 814.73 362.50 C 839.48 362.50, 844.98 200.00, 869.73 200.00" stroke="#FF9900" stroke-width="1.5" fill="none" />
  <line x1="768.12" y1="362.50" x2="814.73" y2="362.50" stroke="#FF9900" stroke-width="1.5" />
  <path d="M 814.73 362.50 C 839.48 362.50, 844.98 225.00, 869.73 225.00" stroke="#FF9900" stroke-width="1.5" fill="none" />
  <line x1="768.12" y1="362.50" x2="814.73" y2="362.50" stroke="#FF9900" stroke-width="1.5" />
  <path d="M 814.73 362.50 C 839.48 362.50, 844.98 250.00, 869.73 250.00" stroke="#FF9900" stroke-width="1.5" fill="none" />
  <line x1="761.41" y1="387.50" x2="814.73" y2="387.50" stroke="#FF9900" stroke-width="1.5" />
  <path d="M 814.73 387.50 C 839.48 387.50, 844.98 275.00, 869.73 275.00" stroke="#FF9900" stroke-width="1.5" fill="none" />
  <line x1="761.41" y1="387.50" x2="814.73" y2="387.50" stroke="#FF9900" stroke-width="1.5" />
  <path d="M 814.73 387.50 C 839.48 387.50, 844.98 300.00, 869.73 300.00" stroke="#FF9900" stroke-width="1.5" fill="none" />
  <line x1="761.41" y1="387.50" x2="814.73" y2="387.50" stroke="#FF9900" stroke-width="1.5" />
  <path d="M 814.73 387.50 C 839.48 387.50, 844.98 325.00, 869.73 325.00" stroke="#FF9900" stroke-width="1.5" fill="none" />
  <line x1="761.41" y1="387.50" x2="814.73" y2="387.50" stroke="#FF9900" stroke-width="1.5" />
  <path d="M 814.73 387.50 C 839.48 387.50, 844.98 350.00, 869.73 350.00" stroke="#FF9900" stroke-width="1.5" fill="none" />
  <line x1="761.41" y1="387.50" x2="814.73" y2="387.50" stroke="#FF9900" stroke-width="1.5" />
  <path d="M 814.73 387.50 C 839.48 387.50, 844.98 375.00, 869.73 375.00" stroke="#FF9900" stroke-width="1.5" fill="none" />
  <line x1="798.19" y1="412.50" x2="814.73" y2="412.50" stroke="#FF9900" stroke-width="1.5" />
  <path d="M 814.73 412.50 C 839.48 412.50, 844.98 400.00, 869.73 400.00" stroke="#FF9900" stroke-width="1.5" fill="none" />
  <line x1="798.19" y1="412.50" x2="814.73" y2="412.50" stroke="#FF9900" stroke-width="1.5" />
  <path d="M 814.73 412.50 C 839.48 412.50, 844.98 425.00, 869.73 425.00" stroke="#FF9900" stroke-width="1.5" fill="none" />
  <line x1="798.19" y1="412.50" x2="814.73" y2="412.50" stroke="#FF9900" stroke-width="1.5" />
  <path d="M 814.73 412.50 C 839.48 412.50, 844.98 450.00, 869.73 450.00" stroke="#FF9900" stroke-width="1.5" fill="none" />
  <line x1="798.19" y1="412.50" x2="814.73" y2="412.50" stroke="#FF9900" stroke-width="1.5" />
  <path d="M 814.73 412.50 C 839.48 412.50, 844.98 475.00, 869.73 475.00" stroke="#FF9900" stroke-width="1.5" fill="none" />
  <line x1="741.55" y1="437.50" x2="814.73" y2="437.50" stroke="#FF9900" stroke-width="1.5" />
  <path d="M 814.73 437.50 C 839.48 437.50, 844.98 500.00, 869.73 500.00" stroke="#FF9900" stroke-width="1.5" fill="none" />
  <line x1="741.55" y1="437.50" x2="814.73" y2="437.50" stroke="#FF9900" stroke-width="1.5" />
  <path d="M 814.73 437.50 C 839.48 437.50, 844.98 525.00, 869.73 525.00" stroke="#FF9900" stroke-width="1.5" fill="none" />
  <line x1="811.36" y1="462.50" x2="814.73" y2="462.50" stroke="#FF9900" stroke-width="1.5" />
  <path d="M 814.73 462.50 C 839.48 462.50, 844.98 550.00, 869.73 550.00" stroke="#FF9900" stroke-width="1.5" fill="none" />
  <line x1="811.36" y1="462.50" x2="814.73" y2="462.50" stroke="#FF9900" stroke-width="1.5" />
  <path d="M 814.73 462.50 C 839.48 462.50, 844.98 575.00, 869.73 575.00" stroke="#FF9900" stroke-width="1.5" fill="none" />
  <line x1="811.36" y1="462.50" x2="814.73" y2="462.50" stroke="#FF9900" stroke-width="1.5" />
  <path d="M 814.73 462.50 C 839.48 462.50, 844.98 600.00, 869.73 600.00" stroke="#FF9900" stroke-width="1.5" fill="none" />
  <line x1="811.36" y1="462.50" x2="814.73" y2="462.50" stroke="#FF9900" stroke-width="1.5" />
  <path d="M 814.73 462.50 C 839.48 462.50, 844.98 625.00, 869.73 625.00" stroke="#FF9900" stroke-width="1.5" fill="none" />
  <line x1="811.36" y1="462.50" x2="814.73" y2="462.50" stroke="#FF9900" stroke-width="1.5" />
  <path d="M 814.73 462.50 C 839.48 462.50, 844.98 650.00, 869.73 650.00" stroke="#FF9900" stroke-width="1.5" fill="none" />
  <line x1="811.36" y1="462.50" x2="814.73" y2="462.50" stroke="#FF9900" stroke-width="1.5" />
  <path d="M 814.73 462.50 C 839.48 462.50, 844.98 675.00, 869.73 675.00" stroke="#FF9900" stroke-width="1.5" fill="none" />
  <line x1="772.94" y1="487.50" x2="814.73" y2="487.50" stroke="#FF9900" stroke-width="1.5" />
  <path d="M 814.73 487.50 C 839.48 487.50, 844.98 700.00, 869.73 700.00" stroke="#FF9900" stroke-width="1.5" fill="none" />
  <a xlink:href="/use-case/legal-entity-management/" target="_top">
    <rect x="400.00" y="387.50" width="168.69" height="25" rx="4" ry="4" fill="#4051B5" stroke="#FF6F00" stroke-width="1.5" />
    <text x="410.00" y="404.50" text-anchor="start" font-family="Roboto, sans-serif" font-size="13" fill="#FFFFFF" font-weight="bold">Legal Entity Management</text>
  </a>
  <a xlink:href="/use-case/legal-entity-management/compliance-and-documentation/" target="_top">
    <rect x="618.69" y="300.00" width="192.12" height="25" rx="4" ry="4" fill="none" stroke="none" pointer-events="all" />
    <text x="628.69" y="317.00" text-anchor="start" font-family="Roboto, sans-serif" font-size="13" fill="#90EE90" font-weight="normal">Compliance &amp; Documentation</text>
  </a>
  <a xlink:href="/use-case/legal-entity-management/compliance-and-documentation/compliance/" target="_top">
    <rect x="869.73" y="87.50" width="88.86" height="25" rx="4" ry="4" fill="none" stroke="none" pointer-events="all" />
    <text x="879.73" y="104.50" text-anchor="start" font-family="Roboto, sans-serif" font-size="13" fill="#90EE90" font-weight="normal">Compliance</text>
  </a>
  <a xlink:href="/use-case/legal-entity-management/compliance-and-documentation/documents/" target="_top">
    <rect x="869.73" y="112.50" width="86.36" height="25" rx="4" ry="4" fill="none" stroke="none" pointer-events="all" />
    <text x="879.73" y="129.50" text-anchor="start" font-family="Roboto, sans-serif" font-size="13" fill="#90EE90" font-weight="normal">Documents</text>
  </a>
  <a xlink:href="/use-case/legal-entity-management/contact-and-location-information/" target="_top">
    <rect x="618.69" y="325.00" width="201.05" height="25" rx="4" ry="4" fill="none" stroke="none" pointer-events="all" />
    <text x="628.69" y="342.00" text-anchor="start" font-family="Roboto, sans-serif" font-size="13" fill="#90EE90" font-weight="normal">Contact &amp; Location Information</text>
  </a>
  <a xlink:href="/use-case/legal-entity-management/contact-and-location-information/addresses/" target="_top">
    <rect x="869.73" y="137.50" width="81.31" height="25" rx="4" ry="4" fill="none" stroke="none" pointer-events="all" />
    <text x="879.73" y="154.50" text-anchor="start" font-family="Roboto, sans-serif" font-size="13" fill="#90EE90" font-weight="normal">Addresses</text>
  </a>
  <a xlink:href="/use-case/legal-entity-management/contact-and-location-information/contacts/" target="_top">
    <rect x="869.73" y="162.50" width="72.16" height="25" rx="4" ry="4" fill="none" stroke="none" pointer-events="all" />
    <text x="879.73" y="179.50" text-anchor="start" font-family="Roboto, sans-serif" font-size="13" fill="#90EE90" font-weight="normal">Contacts</text>
  </a>
  <a xlink:href="/use-case/legal-entity-management/corporate-governance/" target="_top">
    <rect x="618.69" y="350.00" width="149.44" height="25" rx="4" ry="4" fill="none" stroke="none" pointer-events="all" />
    <text x="628.69" y="367.00" text-anchor="start" font-family="Roboto, sans-serif" font-size="13" fill="#90EE90" font-weight="normal">Corporate Governance</text>
  </a>
  <a xlink:href="/use-case/legal-entity-management/corporate-governance/directorships/" target="_top">
    <rect x="869.73" y="187.50" width="96.64" height="25" rx="4" ry="4" fill="none" stroke="none" pointer-events="all" />
    <text x="879.73" y="204.50" text-anchor="start" font-family="Roboto, sans-serif" font-size="13" fill="#90EE90" font-weight="normal">Directorships</text>
  </a>
  <a xlink:href="/use-case/legal-entity-management/corporate-governance/organizational-structure/" target="_top">
    <rect x="869.73" y="212.50" width="159.86" height="25" rx="4" ry="4" fill="none" stroke="none" pointer-events="all" />
    <text x="879.73" y="229.50" text-anchor="start" font-family="Roboto, sans-serif" font-size="13" fill="#90EE90" font-weight="normal">Organizational Structure</text>
  </a>
  <a xlink:href="/use-case/legal-entity-management/corporate-governance/signatories/" target="_top">
    <rect x="869.73" y="237.50" width="85.12" height="25" rx="4" ry="4" fill="none" stroke="none" pointer-events="all" />
    <text x="879.73" y="254.50" text-anchor="start" font-family="Roboto, sans-serif" font-size="13" fill="#90EE90" font-weight="normal">Signatories</text>
  </a>
  <a xlink:href="/use-case/legal-entity-management/financial-information/" target="_top">
    <rect x="618.69" y="375.00" width="142.72" height="25" rx="4" ry="4" fill="none" stroke="none" pointer-events="all" />
    <text x="628.69" y="392.00" text-anchor="start" font-family="Roboto, sans-serif" font-size="13" fill="#90EE90" font-weight="normal">Financial Information</text>
  </a>
  <a xlink:href="/use-case/legal-entity-management/financial-information/assets/" target="_top">
    <rect x="869.73" y="262.50" width="59.73" height="25" rx="4" ry="4" fill="none" stroke="none" pointer-events="all" />
    <text x="879.73" y="279.50" text-anchor="start" font-family="Roboto, sans-serif" font-size="13" fill="#90EE90" font-weight="normal">Assets</text>
  </a>
  <a xlink:href="/use-case/legal-entity-management/financial-information/earnings-estimates/" target="_top">
    <rect x="869.73" y="287.50" width="131.42" height="25" rx="4" ry="4" fill="none" stroke="none" pointer-events="all" />
    <text x="879.73" y="304.50" text-anchor="start" font-family="Roboto, sans-serif" font-size="13" fill="#90EE90" font-weight="normal">Earnings Estimates</text>
  </a>
  <a xlink:href="/use-case/legal-entity-management/financial-information/fundamentals/" target="_top">
    <rect x="869.73" y="312.50" width="102.45" height="25" rx="4" ry="4" fill="none" stroke="none" pointer-events="all" />
    <text x="879.73" y="329.50" text-anchor="start" font-family="Roboto, sans-serif" font-size="13" fill="#90EE90" font-weight="normal">Fundamentals</text>
  </a>
  <a xlink:href="/use-case/legal-entity-management/financial-information/liability-terms/" target="_top">
    <rect x="869.73" y="337.50" width="103.91" height="25" rx="4" ry="4" fill="none" stroke="none" pointer-events="all" />
    <text x="879.73" y="354.50" text-anchor="start" font-family="Roboto, sans-serif" font-size="13" fill="#90EE90" font-weight="normal">Liability Terms</text>
  </a>
  <a xlink:href="/use-case/legal-entity-management/financial-information/ratings/" target="_top">
    <rect x="869.73" y="362.50" width="63.67" height="25" rx="4" ry="4" fill="none" stroke="none" pointer-events="all" />
    <text x="879.73" y="379.50" text-anchor="start" font-family="Roboto, sans-serif" font-size="13" fill="#90EE90" font-weight="normal">Ratings</text>
  </a>
  <a xlink:href="/use-case/legal-entity-management/identification-and-registration/" target="_top">
    <rect x="618.69" y="400.00" width="179.50" height="25" rx="4" ry="4" fill="none" stroke="none" pointer-events="all" />
    <text x="628.69" y="417.00" text-anchor="start" font-family="Roboto, sans-serif" font-size="13" fill="#90EE90" font-weight="normal">Identification &amp; Registration</text>
  </a>
  <a xlink:href="/use-case/legal-entity-management/identification-and-registration/business-registration/" target="_top">
    <rect x="869.73" y="387.50" width="145.36" height="25" rx="4" ry="4" fill="none" stroke="none" pointer-events="all" />
    <text x="879.73" y="404.50" text-anchor="start" font-family="Roboto, sans-serif" font-size="13" fill="#90EE90" font-weight="normal">Business Registration</text>
  </a>
  <a xlink:href="/use-case/legal-entity-management/identification-and-registration/classification/" target="_top">
    <rect x="869.73" y="412.50" width="98.36" height="25" rx="4" ry="4" fill="none" stroke="none" pointer-events="all" />
    <text x="879.73" y="429.50" text-anchor="start" font-family="Roboto, sans-serif" font-size="13" fill="#90EE90" font-weight="normal">Classification</text>
  </a>
  <a xlink:href="/use-case/legal-entity-management/identification-and-registration/commercial-register/" target="_top">
    <rect x="869.73" y="437.50" width="140.91" height="25" rx="4" ry="4" fill="none" stroke="none" pointer-events="all" />
    <text x="879.73" y="454.50" text-anchor="start" font-family="Roboto, sans-serif" font-size="13" fill="#90EE90" font-weight="normal">Commercial Register</text>
  </a>
  <a xlink:href="/use-case/legal-entity-management/identification-and-registration/legal-form/" target="_top">
    <rect x="869.73" y="462.50" width="91.62" height="25" rx="4" ry="4" fill="none" stroke="none" pointer-events="all" />
    <text x="879.73" y="479.50" text-anchor="start" font-family="Roboto, sans-serif" font-size="13" fill="#90EE90" font-weight="normal">Legal Forms</text>
  </a>
  <a xlink:href="/use-case/legal-entity-management/lifecycle-and-status/" target="_top">
    <rect x="618.69" y="425.00" width="122.86" height="25" rx="4" ry="4" fill="none" stroke="none" pointer-events="all" />
    <text x="628.69" y="442.00" text-anchor="start" font-family="Roboto, sans-serif" font-size="13" fill="#90EE90" font-weight="normal">Lifecycle &amp; Status</text>
  </a>
  <a xlink:href="/use-case/legal-entity-management/lifecycle-and-status/dissolution/" target="_top">
    <rect x="869.73" y="487.50" width="84.84" height="25" rx="4" ry="4" fill="none" stroke="none" pointer-events="all" />
    <text x="879.73" y="504.50" text-anchor="start" font-family="Roboto, sans-serif" font-size="13" fill="#90EE90" font-weight="normal">Dissolution</text>
  </a>
  <a xlink:href="/use-case/legal-entity-management/lifecycle-and-status/liquidation/" target="_top">
    <rect x="869.73" y="512.50" width="84.28" height="25" rx="4" ry="4" fill="none" stroke="none" pointer-events="all" />
    <text x="879.73" y="529.50" text-anchor="start" font-family="Roboto, sans-serif" font-size="13" fill="#90EE90" font-weight="normal">Liquidation</text>
  </a>
  <a xlink:href="/use-case/legal-entity-management/ownership-and-capital-structure/" target="_top">
    <rect x="618.69" y="450.00" width="192.67" height="25" rx="4" ry="4" fill="none" stroke="none" pointer-events="all" />
    <text x="628.69" y="467.00" text-anchor="start" font-family="Roboto, sans-serif" font-size="13" fill="#90EE90" font-weight="normal">Ownership &amp; Capital Structure</text>
  </a>
  <a xlink:href="/use-case/legal-entity-management/ownership-and-capital-structure/control/" target="_top">
    <rect x="869.73" y="537.50" width="62.17" height="25" rx="4" ry="4" fill="none" stroke="none" pointer-events="all" />
    <text x="879.73" y="554.50" text-anchor="start" font-family="Roboto, sans-serif" font-size="13" fill="#90EE90" font-weight="normal">Control</text>
  </a>
  <a xlink:href="/use-case/legal-entity-management/ownership-and-capital-structure/corporate-actions/" target="_top">
    <rect x="869.73" y="562.50" width="124.61" height="25" rx="4" ry="4" fill="none" stroke="none" pointer-events="all" />
    <text x="879.73" y="579.50" text-anchor="start" font-family="Roboto, sans-serif" font-size="13" fill="#90EE90" font-weight="normal">Corporate Actions</text>
  </a>
  <a xlink:href="/use-case/legal-entity-management/ownership-and-capital-structure/issued-capital/" target="_top">
    <rect x="869.73" y="587.50" width="102.03" height="25" rx="4" ry="4" fill="none" stroke="none" pointer-events="all" />
    <text x="879.73" y="604.50" text-anchor="start" font-family="Roboto, sans-serif" font-size="13" fill="#90EE90" font-weight="normal">Issued Capital</text>
  </a>
  <a xlink:href="/use-case/legal-entity-management/ownership-and-capital-structure/ownership/" target="_top">
    <rect x="869.73" y="612.50" width="81.48" height="25" rx="4" ry="4" fill="none" stroke="none" pointer-events="all" />
    <text x="879.73" y="629.50" text-anchor="start" font-family="Roboto, sans-serif" font-size="13" fill="#90EE90" font-weight="normal">Ownership</text>
  </a>
  <a xlink:href="/use-case/legal-entity-management/ownership-and-capital-structure/share-capital/" target="_top">
    <rect x="869.73" y="637.50" width="96.83" height="25" rx="4" ry="4" fill="none" stroke="none" pointer-events="all" />
    <text x="879.73" y="654.50" text-anchor="start" font-family="Roboto, sans-serif" font-size="13" fill="#90EE90" font-weight="normal">Share Capital</text>
  </a>
  <a xlink:href="/use-case/legal-entity-management/ownership-and-capital-structure/shares/" target="_top">
    <rect x="869.73" y="662.50" width="59.83" height="25" rx="4" ry="4" fill="none" stroke="none" pointer-events="all" />
    <text x="879.73" y="679.50" text-anchor="start" font-family="Roboto, sans-serif" font-size="13" fill="#90EE90" font-weight="normal">Shares</text>
  </a>
  <a xlink:href="/use-case/legal-entity-management/supporting-information/" target="_top">
    <rect x="618.69" y="475.00" width="154.25" height="25" rx="4" ry="4" fill="none" stroke="none" pointer-events="all" />
    <text x="628.69" y="492.00" text-anchor="start" font-family="Roboto, sans-serif" font-size="13" fill="#90EE90" font-weight="normal">Supporting Information</text>
  </a>
  <a xlink:href="/use-case/legal-entity-management/supporting-information/currencies/" target="_top">
    <rect x="869.73" y="687.50" width="81.95" height="25" rx="4" ry="4" fill="none" stroke="none" pointer-events="all" />
    <text x="879.73" y="704.50" text-anchor="start" font-family="Roboto, sans-serif" font-size="13" fill="#90EE90" font-weight="normal">Currencies</text>
  </a>
</svg>