<svg xmlns="http://www.w3.org/2000/svg" xmlns:xlink="http://www.w3.org/1999/xlink" viewBox="395.00 82.50 645.50 635.00" width="645.50px" height="635.00px" class="use-case-tree-svg">
  <rect width="100%" height="100%" fill="transparent" />
  <path d="M 571.75 400.00 C 596.50 400.00, 602.00 312.50, 626.75 312.50" stroke="#FF6F00" stroke-width="1.5" fill="none" />
  <path d="M 571.75 400.00 C 596.50 400.00, 602.00 337.50, 626.75 337.50" stroke="#FF6F00" stroke-width="1.5" fill="none" />
  <path d="M 571.75 400.00 C 596.50 400.00, 602.00 362.50, 626.75 362.50" stroke="#FF6F00" stroke-width="1.5" fill="none" />
  <path d="M 571.75 400.00 C 596.50 400.00, 602.00 387.50, 626.75 387.50" stroke="#FF6F00" stroke-width="1.5" fill="none" />
  <path d="M 571.75 400.00 C 596.50 400.00, 602.00 412.50, 626.75 412.50" stroke="#FF6F00" stroke-width="1.5" fill="none" />
  <path d="M 571.75 400.00 C 596.50 400.00, 602.00 437.50, 626.75 437.50" stroke="#FF6F00" stroke-width="1.5" fill="none" />
  <path d="M 571.75 400.00 C 596.50 400.00, 602.00 462.50, 626.75 462.50" stroke="#FF6F00" stroke-width="1.5" fill="none" />
  <path d="M 571.75 400.00 C 596.50 400.00, 602.00 487.50, 626.75 487.50" stroke="#FF6F00" stroke-width="1.5" fill="none" />
  <line x1="818.78" y1="312.50" x2="820.28" y2="312.50" stroke="#FF6F00" stroke-width="1.5" />
  <path d="M 820.28 312.50 C 845.03 312.50, 850.53 100.00, 875.28 100.00" stroke="#FF6F00" stroke-width="1.5" fill="none" />
  <line x1="818.78" y1="312.50" x2="820.28" y2="312.50" stroke="#FF6F00" stroke-width="1.5" />
  <path d="M 820.28 312.50 C 845.03 312.50, 850.53 125.00, 875.28 125.00" stroke="#FF6F00" stroke-width="1.5" fill="none" />
  <path d="M 820.28 337.50 C 845.03 337.50, 850.53 150.00, 875.28 150.00" stroke="#FF6F00" stroke-width="1.5" fill="none" />
  <path d="M 820.28 337.50 C 845.03 337.50, 850.53 175.00, 875.28 175.00" stroke="#FF6F00" stroke-width="1.5" fill="none" />
  <line x1="779.03" y1="362.50" x2="820.28" y2="362.50" stroke="#FF6F00" stroke-width="1.5" />
  <path d="M 820.28 362.50 C 845.03 362.50, 850.53 200.00, 875.28 200.00" stroke="#FF6F00" stroke-width="1.5" fill="none" />
  <line x1="779.03" y1="362.50" x2="820.28" y2="362.50" stroke="#FF6F00" stroke-width="1.5" />
  <path d="M 820.28 362.50 C 845.03 362.50, 850.53 225.00, 875.28 225.00" stroke="#FF6F00" stroke-width="1.5" fill="none" />
  <line x1="779.03" y1="362.50" x2="820.28" y2="362.50" stroke="#FF6F00" stroke-width="1.5" />
  <path d="M 820.28 362.50 C 845.03 362.50, 850.53 250.00, 875.28 250.00" stroke="#FF6F00" stroke-width="1.5" fill="none" />
  <line x1="767.45" y1="387.50" x2="820.28" y2="387.50" stroke="#FF6F00" stroke-width="1.5" />
  <path d="M 820.28 387.50 C 845.03 387.50, 850.53 275.00, 875.28 275.00" stroke="#FF6F00" stroke-width="1.5" fill="none" />
  <line x1="767.45" y1="387.50" x2="820.28" y2="387.50" stroke="#FF6F00" stroke-width="1.5" />
  <path d="M 820.28 387.50 C 845.03 387.50, 850.53 300.00, 875.28 300.00" stroke="#FF6F00" stroke-width="1.5" fill="none" />
  <line x1="767.45" y1="387.50" x2="820.28" y2="387.50" stroke="#FF6F00" stroke-width="1.5" />
  <path d="M 820.28 387.50 C 845.03 387.50, 850.53 325.00, 875.28 325.00" stroke="#FF6F00" stroke-width="1.5" fill="none" />
  <line x1="767.45" y1="387.50" x2="820.28" y2="387.50" stroke="#FF6F00" stroke-width="1.5" />
  <path d="M 820.28 387.50 C 845.03 387.50, 850.53 350.00, 875.28 350.00" stroke="#FF6F00" stroke-width="1.5" fill="none" />
  <line x1="767.45" y1="387.50" x2="820.28" y2="387.50" stroke="#FF6F00" stroke-width="1.5" />
  <path d="M 820.28 387.50 C 845.03 387.50, 850.53 375.00, 875.28 375.00" stroke="#FF6F00" stroke-width="1.5" fill="none" />
  <line x1="805.05" y1="412.50" x2="820.28" y2="412.50" stroke="#FF6F00" stroke-width="1.5" />
  <path d="M 820.28 412.50 C 845.03 412.50, 850.53 400.00, 875.28 400.00" stroke="#FF6F00" stroke-width="1.5" fill="none" />
  <line x1="805.05" y1="412.50" x2="820.28" y2="412.50" stroke="#FF6F00" stroke-width="1.5" />
  <path d="M 820.28 412.50 C 845.03 412.50, 850.53 425.00, 875.28 425.00" stroke="#FF6F00" stroke-width="1.5" fill="none" />
  <line x1="805.05" y1="412.50" x2="820.28" y2="412.50" stroke="#FF6F00" stroke-width="1.5" />
  <path d="M 820.28 412.50 C 845.03 412.50, 850.53 450.00, 875.28 450.00" stroke="#FF6F00" stroke-width="1.5" fill="none" />
  <line x1="805.05" y1="412.50" x2="820.28" y2="412.50" stroke="#FF6F00" stroke-width="1.5" />
  <path d="M 820.28 412.50 C 845.03 412.50, 850.53 475.00, 875.28 475.00" stroke="#FF6F00" stroke-width="1.5" fill="none" />
  <line x1="750.09" y1="437.50" x2="820.28" y2="437.50" stroke="#FF6F00" stroke-width="1.5" />
  <path d="M 820.28 437.50 C 845.03 437.50, 850.53 500.00, 875.28 500.00" stroke="#FF6F00" stroke-width="1.5" fill="none" />
  <line x1="750.09" y1="437.50" x2="820.28" y2="437.50" stroke="#FF6F00" stroke-width="1.5" />
  <path d="M 820.28 437.50 C 845.03 437.50, 850.53 525.00, 875.28 525.00" stroke="#FF6F00" stroke-width="1.5" fill="none" />
  <path d="M 820.28 462.50 C 845.03 462.50, 850.53 550.00, 875.28 550.00" stroke="#FF6F00" stroke-width="1.5" fill="none" />
  <path d="M 820.28 462.50 C 845.03 462.50, 850.53 575.00, 875.28 575.00" stroke="#FF6F00" stroke-width="1.5" fill="none" />
  <path d="M 820.28 462.50 C 845.03 462.50, 850.53 600.00, 875.28 600.00" stroke="#FF6F00" stroke-width="1.5" fill="none" />
  <path d="M 820.28 462.50 C 845.03 462.50, 850.53 625.00, 875.28 625.00" stroke="#FF6F00" stroke-width="1.5" fill="none" />
  <path d="M 820.28 462.50 C 845.03 462.50, 850.53 650.00, 875.28 650.00" stroke="#FF6F00" stroke-width="1.5" fill="none" />
  <path d="M 820.28 462.50 C 845.03 462.50, 850.53 675.00, 875.28 675.00" stroke="#FF6F00" stroke-width="1.5" fill="none" />
  <line x1="778.31" y1="487.50" x2="820.28" y2="487.50" stroke="#FF6F00" stroke-width="1.5" />
  <path d="M 820.28 487.50 C 845.03 487.50, 850.53 700.00, 875.28 700.00" stroke="#FF6F00" stroke-width="1.5" fill="none" />
  <a xlink:href="/use-case/legal-entity-management/" target="_top">
    <rect x="400.00" y="387.50" width="176.75" height="25" rx="4" ry="4" fill="#4051B5" stroke="#FF6F00" stroke-width="1.5" />
    <text x="410.00" y="404.50" text-anchor="start" font-family="Roboto, sans-serif" font-size="13" fill="#FFFFFF" font-weight="bold">Legal Entity Management</text>
  </a>
  <a xlink:href="/use-case/legal-entity-management/compliance-and-documentation/" target="_top">
    <rect x="626.75" y="300.00" width="192.03" height="25" rx="4" ry="4" fill="none" stroke="none" pointer-events="all" />
    <text x="636.75" y="317.00" text-anchor="start" font-family="Roboto, sans-serif" font-size="13" fill="#4051B5" font-weight="normal">Compliance &amp; Documentation</text>
  </a>
  <a xlink:href="/use-case/legal-entity-management/compliance-and-documentation/compliance/" target="_top">
    <rect x="875.28" y="87.50" width="88.67" height="25" rx="4" ry="4" fill="none" stroke="none" pointer-events="all" />
    <text x="885.28" y="104.50" text-anchor="start" font-family="Roboto, sans-serif" font-size="13" fill="#4051B5" font-weight="normal">Compliance</text>
  </a>
  <a xlink:href="/use-case/legal-entity-management/compliance-and-documentation/documents/" target="_top">
    <rect x="875.28" y="112.50" width="85.77" height="25" rx="4" ry="4" fill="none" stroke="none" pointer-events="all" />
    <text x="885.28" y="129.50" text-anchor="start" font-family="Roboto, sans-serif" font-size="13" fill="#4051B5" font-weight="normal">Documents</text>
  </a>
  <a xlink:href="/use-case/legal-entity-management/contact-and-location-information/" target="_top">
    <rect x="626.75" y="325.00" width="198.53" height="25" rx="4" ry="4" fill="none" stroke="none" pointer-events="all" />
    <text x="636.75" y="342.00" text-anchor="start" font-family="Roboto, sans-serif" font-size="13" fill="#4051B5" font-weight="normal">Contact &amp; Location Information</text>
  </a>
  <a xlink:href="/use-case/legal-entity-management/contact-and-location-information/addresses/" target="_top">
    <rect x="875.28" y="137.50" width="81.44" height="25" rx="4" ry="4" fill="none" stroke="none" pointer-events="all" />
    <text x="885.28" y="154.50" text-anchor="start" font-family="Roboto, sans-serif" font-size="13" fill="#4051B5" font-weight="normal">Addresses</text>
  </a>
  <a xlink:href="/use-case/legal-entity-management/contact-and-location-information/contacts/" target="_top">
    <rect x="875.28" y="162.50" width="71.31" height="25" rx="4" ry="4" fill="none" stroke="none" pointer-events="all" />
    <text x="885.28" y="179.50" text-anchor="start" font-family="Roboto, sans-serif" font-size="13" fill="#4051B5" font-weight="normal">Contacts</text>
  </a>
  <a xlink:href="/use-case/legal-entity-management/corporate-governance/" target="_top">
    <rect x="626.75" y="350.00" width="152.28" height="25" rx="4" ry="4" fill="none" stroke="none" pointer-events="all" />
    <text x="636.75" y="367.00" text-anchor="start" font-family="Roboto, sans-serif" font-size="13" fill="#4051B5" font-weight="normal">Corporate Governance</text>
  </a>
  <a xlink:href="/use-case/legal-entity-management/corporate-governance/directorships/" target="_top">
    <rect x="875.28" y="187.50" width="95.88" height="25" rx="4" ry="4" fill="none" stroke="none" pointer-events="all" />
    <text x="885.28" y="204.50" text-anchor="start" font-family="Roboto, sans-serif" font-size="13" fill="#4051B5" font-weight="normal">Directorships</text>
  </a>
  <a xlink:href="/use-case/legal-entity-management/corporate-governance/organizational-structure/" target="_top">
    <rect x="875.28" y="212.50" width="160.22" height="25" rx="4" ry="4" fill="none" stroke="none" pointer-events="all" />
    <text x="885.28" y="229.50" text-anchor="start" font-family="Roboto, sans-serif" font-size="13" fill="#4051B5" font-weight="normal">Organizational Structure</text>
  </a>
  <a xlink:href="/use-case/legal-entity-management/corporate-governance/signatories/" target="_top">
    <rect x="875.28" y="237.50" width="85.06" height="25" rx="4" ry="4" fill="none" stroke="none" pointer-events="all" />
    <text x="885.28" y="254.50" text-anchor="start" font-family="Roboto, sans-serif" font-size="13" fill="#4051B5" font-weight="normal">Signatories</text>
  </a>
  <a xlink:href="/use-case/legal-entity-management/financial-information/" target="_top">
    <rect x="626.75" y="375.00" width="140.70" height="25" rx="4" ry="4" fill="none" stroke="none" pointer-events="all" />
    <text x="636.75" y="392.00" text-anchor="start" font-family="Roboto, sans-serif" font-size="13" fill="#4051B5" font-weight="normal">Financial Information</text>
  </a>
  <a xlink:href="/use-case/legal-entity-management/financial-information/assets/" target="_top">
    <rect x="875.28" y="262.50" width="59.02" height="25" rx="4" ry="4" fill="none" stroke="none" pointer-events="all" />
    <text x="885.28" y="279.50" text-anchor="start" font-family="Roboto, sans-serif" font-size="13" fill="#4051B5" font-weight="normal">Assets</text>
  </a>
  <a xlink:href="/use-case/legal-entity-management/financial-information/earnings-estimates/" target="_top">
    <rect x="875.28" y="287.50" width="132.02" height="25" rx="4" ry="4" fill="none" stroke="none" pointer-events="all" />
    <text x="885.28" y="304.50" text-anchor="start" font-family="Roboto, sans-serif" font-size="13" fill="#4051B5" font-weight="normal">Earnings Estimates</text>
  </a>
  <a xlink:href="/use-case/legal-entity-management/financial-information/fundamentals/" target="_top">
    <rect x="875.28" y="312.50" width="102.41" height="25" rx="4" ry="4" fill="none" stroke="none" pointer-events="all" />
    <text x="885.28" y="329.50" text-anchor="start" font-family="Roboto, sans-serif" font-size="13" fill="#4051B5" font-weight="normal">Fundamentals</text>
  </a>
  <a xlink:href="/use-case/legal-entity-management/financial-information/liability-terms/" target="_top">
    <rect x="875.28" y="337.50" width="102.14" height="25" rx="4" ry="4" fill="none" stroke="none" pointer-events="all" />
    <text x="885.28" y="354.50" text-anchor="start" font-family="Roboto, sans-serif" font-size="13" fill="#4051B5" font-weight="normal">Liability Terms</text>
  </a>
  <a xlink:href="/use-case/legal-entity-management/financial-information/ratings/" target="_top">
    <rect x="875.28" y="362.50" width="64.09" height="25" rx="4" ry="4" fill="none" stroke="none" pointer-events="all" />
    <text x="885.28" y="379.50" text-anchor="start" font-family="Roboto, sans-serif" font-size="13" fill="#4051B5" font-weight="normal">Ratings</text>
  </a>
  <a xlink:href="/use-case/legal-entity-management/identification-and-registration/" target="_top">
    <rect x="626.75" y="400.00" width="178.30" height="25" rx="4" ry="4" fill="none" stroke="none" pointer-events="all" />
    <text x="636.75" y="417.00" text-anchor="start" font-family="Roboto, sans-serif" font-size="13" fill="#4051B5" font-weight="normal">Identification &amp; Registration</text>
  </a>
  <a xlink:href="/use-case/legal-entity-management/identification-and-registration/business-registration/" target="_top">
    <rect x="875.28" y="387.50" width="145.77" height="25" rx="4" ry="4" fill="none" stroke="none" pointer-events="all" />
    <text x="885.28" y="404.50" text-anchor="start" font-family="Roboto, sans-serif" font-size="13" fill="#4051B5" font-weight="normal">Business Registration</text>
  </a>
  <a xlink:href="/use-case/legal-entity-management/identification-and-registration/classification/" target="_top">
    <rect x="875.28" y="412.50" width="96.61" height="25" rx="4" ry="4" fill="none" stroke="none" pointer-events="all" />
    <text x="885.28" y="429.50" text-anchor="start" font-family="Roboto, sans-serif" font-size="13" fill="#4051B5" font-weight="normal">Classification</text>
  </a>
  <a xlink:href="/use-case/legal-entity-management/identification-and-registration/commercial-register/" target="_top">
    <rect x="875.28" y="437.50" width="141.39" height="25" rx="4" ry="4" fill="none" stroke="none" pointer-events="all" />
    <text x="885.28" y="454.50" text-anchor="start" font-family="Roboto, sans-serif" font-size="13" fill="#4051B5" font-weight="normal">Commercial Register</text>
  </a>
  <a xlink:href="/use-case/legal-entity-management/identification-and-registration/legal-form/" target="_top">
    <rect x="875.28" y="462.50" width="92.27" height="25" rx="4" ry="4" fill="none" stroke="none" pointer-events="all" />
    <text x="885.28" y="479.50" text-anchor="start" font-family="Roboto, sans-serif" font-size="13" fill="#4051B5" font-weight="normal">Legal Forms</text>
  </a>
  <a xlink:href="/use-case/legal-entity-management/lifecycle-and-status/" target="_top">
    <rect x="626.75" y="425.00" width="123.34" height="25" rx="4" ry="4" fill="none" stroke="none" pointer-events="all" />
    <text x="636.75" y="442.00" text-anchor="start" font-family="Roboto, sans-serif" font-size="13" fill="#4051B5" font-weight="normal">Lifecycle &amp; Status</text>
  </a>
  <a xlink:href="/use-case/legal-entity-management/lifecycle-and-status/dissolution/" target="_top">
    <rect x="875.28" y="487.50" width="83.61" height="25" rx="4" ry="4" fill="none" stroke="none" pointer-events="all" />
    <text x="885.28" y="504.50" text-anchor="start" font-family="Roboto, sans-serif" font-size="13" fill="#4051B5" font-weight="normal">Dissolution</text>
  </a>
  <a xlink:href="/use-case/legal-entity-management/lifecycle-and-status/liquidation/" target="_top">
    <rect x="875.28" y="512.50" width="82.92" height="25" rx="4" ry="4" fill="none" stroke="none" pointer-events="all" />
    <text x="885.28" y="529.50" text-anchor="start" font-family="Roboto, sans-serif" font-size="13" fill="#4051B5" font-weight="normal">Liquidation</text>
  </a>
  <a xlink:href="/use-case/legal-entity-management/ownership-and-capital-structure/" target="_top">
    <rect x="626.75" y="450.00" width="194.89" height="25" rx="4" ry="4" fill="none" stroke="none" pointer-events="all" />
    <text x="636.75" y="467.00" text-anchor="start" font-family="Roboto, sans-serif" font-size="13" fill="#4051B5" font-weight="normal">Ownership &amp; Capital Structure</text>
  </a>
  <a xlink:href="/use-case/legal-entity-management/ownership-and-capital-structure/control/" target="_top">
    <rect x="875.28" y="537.50" width="61.92" height="25" rx="4" ry="4" fill="none" stroke="none" pointer-events="all" />
    <text x="885.28" y="554.50" text-anchor="start" font-family="Roboto, sans-serif" font-size="13" fill="#4051B5" font-weight="normal">Control</text>
  </a>
  <a xlink:href="/use-case/legal-entity-management/ownership-and-capital-structure/corporate-actions/" target="_top">
    <rect x="875.28" y="562.50" width="123.36" height="25" rx="4" ry="4" fill="none" stroke="none" pointer-events="all" />
    <text x="885.28" y="579.50" text-anchor="start" font-family="Roboto, sans-serif" font-size="13" fill="#4051B5" font-weight="normal">Corporate Actions</text>
  </a>
  <a xlink:href="/use-case/legal-entity-management/ownership-and-capital-structure/issued-capital/" target="_top">
    <rect x="875.28" y="587.50" width="102.41" height="25" rx="4" ry="4" fill="none" stroke="none" pointer-events="all" />
    <text x="885.28" y="604.50" text-anchor="start" font-family="Roboto, sans-serif" font-size="13" fill="#4051B5" font-weight="normal">Issued Capital</text>
  </a>
  <a xlink:href="/use-case/legal-entity-management/ownership-and-capital-structure/ownership/" target="_top">
    <rect x="875.28" y="612.50" width="82.16" height="25" rx="4" ry="4" fill="none" stroke="none" pointer-events="all" />
    <text x="885.28" y="629.50" text-anchor="start" font-family="Roboto, sans-serif" font-size="13" fill="#4051B5" font-weight="normal">Ownership</text>
  </a>
  <a xlink:href="/use-case/legal-entity-management/ownership-and-capital-structure/share-capital/" target="_top">
    <rect x="875.28" y="637.50" width="98.80" height="25" rx="4" ry="4" fill="none" stroke="none" pointer-events="all" />
    <text x="885.28" y="654.50" text-anchor="start" font-family="Roboto, sans-serif" font-size="13" fill="#4051B5" font-weight="normal">Share Capital</text>
  </a>
  <a xlink:href="/use-case/legal-entity-management/ownership-and-capital-structure/shares/" target="_top">
    <rect x="875.28" y="662.50" width="61.20" height="25" rx="4" ry="4" fill="none" stroke="none" pointer-events="all" />
    <text x="885.28" y="679.50" text-anchor="start" font-family="Roboto, sans-serif" font-size="13" fill="#4051B5" font-weight="normal">Shares</text>
  </a>
  <a xlink:href="/use-case/legal-entity-management/supporting-information/" target="_top">
    <rect x="626.75" y="475.00" width="151.56" height="25" rx="4" ry="4" fill="none" stroke="none" pointer-events="all" />
    <text x="636.75" y="492.00" text-anchor="start" font-family="Roboto, sans-serif" font-size="13" fill="#4051B5" font-weight="normal">Supporting Information</text>
  </a>
  <a xlink:href="/use-case/legal-entity-management/supporting-information/currencies/" target="_top">
    <rect x="875.28" y="687.50" width="82.88" height="25" rx="4" ry="4" fill="none" stroke="none" pointer-events="all" />
    <text x="885.28" y="704.50" text-anchor="start" font-family="Roboto, sans-serif" font-size="13" fill="#4051B5" font-weight="normal">Currencies</text>
  </a>
</svg>