<svg xmlns="http://www.w3.org/2000/svg" xmlns:xlink="http://www.w3.org/1999/xlink" contentStyleType="text/css" data-diagram-type="MINDMAP" height="403px" preserveAspectRatio="none" style="width:994px;height:403px;" version="1.1" viewBox="0 0 994 403" width="994px" zoomAndPan="magnify"><defs/><g><polygon fill="#4051B5" points="259.4951,182.5039,259.4951,182.7141,269.4151,182.0896,279.3351,182.6972,289.2551,182.9036,299.175,181.7905,309.095,182.4262,319.015,182.0774,328.935,182.1204,338.855,182.4357,348.775,181.8125,358.6949,183.0575,368.6149,181.8736,378.5349,182.3061,388.4549,182.9359,398.3749,182.4181,408.2949,182.5721,418.2148,182.5039,418.2108,182.4941,418.8033,182.7932,419.3767,183.0462,419.9866,183.3872,420.5632,183.6478,421.0433,183.6755,421.2525,183.7621,421.356,184.2736,421.6547,184.866,421.9625,185.4621,421.7584,185.8462,422.2148,186.5039,422.441,186.5039,422.116,192.1633,422.3928,197.8227,422.0498,203.482,422.192,209.1414,422.2148,214.8008,422.4432,214.8954,421.9655,215.3603,421.7786,215.9456,421.6162,216.541,421.4058,217.1166,421.0433,217.6292,421.0428,217.628,420.5142,217.952,419.8389,217.9216,419.3825,218.4197,418.8505,218.7353,418.2148,218.8008,418.2148,219.2453,408.2949,219.4138,398.3749,218.3177,388.4549,218.1486,378.5349,218.1794,368.6149,218.7419,358.6949,218.6043,348.775,219.4822,338.855,218.6261,328.935,218.4577,319.015,219.029,309.095,218.1339,299.175,218.2817,289.2551,219.4497,279.3351,219.2364,269.4151,219.5353,259.4951,218.8008,259.4541,218.7017,258.9701,218.6648,258.4391,218.514,257.7378,217.9524,257.2201,217.834,256.6667,217.6292,256.7055,217.6453,256.6331,217.1467,256.1968,216.4973,256.1062,215.9912,255.5589,215.2958,255.4951,214.8008,255.2694,214.8008,255.663,209.1414,255.2561,203.482,255.6648,197.8227,255.564,192.1633,255.4951,186.5039,255.4126,186.4697,255.6205,185.8931,256.105,185.4311,256.1059,184.7687,256.6146,184.3167,256.6667,183.6755,256.5962,183.5053,257.3111,183.6313,257.8598,183.356,258.395,183.048,258.9355,182.7528,259.4951,182.5039" style="stroke:#FF6F00;stroke-width:1.5;"/><text fill="#FFFFFF" font-family="'Roboto'" font-size="14" lengthAdjust="spacing" textLength="146.7197" x="265.4951" y="205.499">Know Your Customer</text><a href="/use-case/client-360/know-your-customer/activity-monitoring/" target="_top" title="/use-case/client-360/know-your-customer/activity-monitoring/" xlink:actuate="onRequest" xlink:href="/use-case/client-360/know-your-customer/activity-monitoring/" xlink:show="new" xlink:title="/use-case/client-360/know-your-customer/activity-monitoring/" xlink:type="simple"><text fill="#90EE90" font-family="'Roboto'" font-size="14" lengthAdjust="spacing" textLength="131.9199" x="479.2148" y="27.9951">Activity Monitoring</text></a><path d="M422.2148,200.6523 L422.2148,200.8392 L424.2148,200.2841 L426.2148,200.8242 L428.2148,201.0076 L430.2148,200.0182 L432.2148,200.6523 L432.2148,200.6523 L432.1859,200.6335 L433.0522,199.0233 L434.0643,197.5083 L435.1778,196.0595 L435.9419,194.3826 L437.1953,193.0252 L437.4348,193.0819 L437.3373,191.2099 L437.9389,189.5034 L438.6258,187.8171 L438.8164,186.0134 L439.2681,184.2714 L439.298,184.2763 L439.6247,181.9983 L440.0876,179.7425 L440.4848,177.4761 L441.0074,175.2301 L441.1211,172.9174 L441.417,172.9543 L441.7561,170.2679 L441.9043,167.5577 L442.3319,164.8824 L442.7726,162.2087 L442.7983,159.4832 L442.4795,159.4504 L443.4074,156.5153 L443.2854,153.472 L443.9616,150.511 L443.8158,147.4653 L444.3438,144.489 L444.3134,144.4863 L445.2463,138.0002 L445.4706,131.4517 L446.113,124.9399 L446.7905,118.4313 L447.2148,111.9004 L447.3991,111.9166 L447.7873,105.3825 L448.4904,98.8762 L448.6841,92.3249 L449.6376,85.8406 L450.0859,79.3118 L450.3283,79.3368 L450.5915,76.3332 L450.9751,73.342 L450.7996,70.2932 L451.0339,67.2867 L451.6313,64.3176 L451.3573,64.2833 L451.9408,61.6275 L452.2156,58.9331 L452.9382,56.2946 L452.8961,53.5606 L453.3086,50.8834 L453.1581,50.8589 L453.7793,48.629 L453.7573,46.2941 L454.1927,44.0339 L455.0757,41.8467 L455.1616,39.5294 L455.35,39.574 L455.8938,37.8539 L455.8516,35.9949 L456.5433,34.3098 L457.0752,32.5868 L457.2344,30.7756 L457.0586,30.6608 L458.1948,29.2268 L459.2734,27.7553 L460.4652,26.3577 L461.2172,24.6728 L462.2148,23.1484 L462.2148,23.5596 L464.2148,22.6562 L466.2148,22.5464 L468.2148,23.5961 L470.2148,22.5112 L472.2148,23.1484" fill="none" style="stroke:#FF9900;stroke-width:1;"/><a href="/use-case/client-360/know-your-customer/anti-money-laundering/" target="_top" title="/use-case/client-360/know-your-customer/anti-money-laundering/" xlink:actuate="onRequest" xlink:href="/use-case/client-360/know-your-customer/anti-money-laundering/" xlink:show="new" xlink:title="/use-case/client-360/know-your-customer/anti-money-laundering/" xlink:type="simple"><text fill="#90EE90" font-family="'Roboto'" font-size="14" lengthAdjust="spacing" textLength="207.0059" x="479.2148" y="54.292">Anti Money Laundering (AML)</text></a><a href="/use-case/client-360/know-your-customer/anti-money-laundering/correspondent-based-aml/" target="_top" title="/use-case/client-360/know-your-customer/anti-money-laundering/correspondent-based-aml/" xlink:actuate="onRequest" xlink:href="/use-case/client-360/know-your-customer/anti-money-laundering/correspondent-based-aml/" xlink:show="new" xlink:title="/use-case/client-360/know-your-customer/anti-money-laundering/correspondent-based-aml/" xlink:type="simple"><text fill="#90EE90" font-family="'Roboto'" font-size="14" lengthAdjust="spacing" textLength="185.165" x="747.2207" y="27.9951">Correspondent-based AML</text></a><path d="M690.2207,49.4453 L690.2207,49.6321 L692.2207,49.077 L694.2207,49.6171 L696.2207,49.8006 L698.2207,48.8112 L700.2207,49.4453 L700.2207,49.4453 L700.1979,49.4193 L703.0958,46.6731 L706.1084,44.0578 L709.2007,41.5335 L712.0182,38.6955 L715.2207,36.2969 L715.3829,36.4819 L718.0361,33.4565 L721.1628,30.9714 L724.3472,28.5522 L727.1956,25.7495 L730.2207,23.1484 L730.2207,23.2091 L732.2207,23.12 L734.2207,23.3071 L736.2207,23.361 L738.2207,23.6691 L740.2207,23.1484" fill="none" style="stroke:#FF9900;stroke-width:1;"/><a href="/use-case/client-360/know-your-customer/anti-money-laundering/network-based-aml/" target="_top" title="/use-case/client-360/know-your-customer/anti-money-laundering/network-based-aml/" xlink:actuate="onRequest" xlink:href="/use-case/client-360/know-your-customer/anti-money-laundering/network-based-aml/" xlink:show="new" xlink:title="/use-case/client-360/know-your-customer/anti-money-laundering/network-based-aml/" xlink:type="simple"><text fill="#90EE90" font-family="'Roboto'" font-size="14" lengthAdjust="spacing" textLength="139.7881" x="747.2207" y="54.292">Network Based AML</text></a><path d="M690.2207,49.4453 L690.2207,49.6321 L692.2207,49.077 L694.2207,49.6171 L696.2207,49.8006 L698.2207,48.8112 L700.2207,49.4453 L700.2207,49.4453 L700.2207,49.4108 L706.2207,49.2558 L712.2207,49.2749 L718.2207,49.415 L724.2207,49.138 L730.2207,49.4453 L730.2207,49.9374 L732.2207,48.8851 L734.2207,49.2695 L736.2207,49.8293 L738.2207,49.3691 L740.2207,49.4453" fill="none" style="stroke:#FF9900;stroke-width:1;"/><a href="/use-case/client-360/know-your-customer/anti-money-laundering/transaction-based-aml/" target="_top" title="/use-case/client-360/know-your-customer/anti-money-laundering/transaction-based-aml/" xlink:actuate="onRequest" xlink:href="/use-case/client-360/know-your-customer/anti-money-laundering/transaction-based-aml/" xlink:show="new" xlink:title="/use-case/client-360/know-your-customer/anti-money-laundering/transaction-based-aml/" xlink:type="simple"><text fill="#90EE90" font-family="'Roboto'" font-size="14" lengthAdjust="spacing" textLength="230.959" x="747.2207" y="80.5889">Transaction / Finance based AML</text></a><path d="M690.2207,49.4453 L690.2207,49.6321 L692.2207,49.077 L694.2207,49.6171 L696.2207,49.8006 L698.2207,48.8112 L700.2207,49.4453 L700.2207,49.4453 L700.1979,49.4193 L703.0958,51.9325 L706.1084,54.5765 L709.2007,57.3116 L712.0182,59.733 L715.2207,62.5938 L715.3829,62.7788 L718.0361,65.0128 L721.1628,67.787 L724.3472,70.6272 L727.1956,73.0838 L730.2207,75.7422 L730.2207,75.8028 L732.2207,75.7138 L734.2207,75.9009 L736.2207,75.9548 L738.2207,76.2628 L740.2207,75.7422" fill="none" style="stroke:#FF9900;stroke-width:1;"/><path d="M422.2148,200.6523 L422.2148,200.8392 L424.2148,200.2841 L426.2148,200.8242 L428.2148,201.0076 L430.2148,200.0182 L432.2148,200.6523 L432.2148,200.6523 L432.1874,200.6313 L433.0605,199.2376 L434.0718,197.9498 L435.1791,196.7356 L435.9554,195.2677 L437.1953,194.1552 L437.4352,194.2101 L437.7074,190.6668 L438.68,187.284 L439.7379,183.9207 L440.2988,180.4435 L441.1211,177.0262 L441.1511,177.0306 L441.4425,174.7354 L441.8705,172.4602 L442.2326,170.1753 L442.7204,167.9089 L442.7983,165.5824 L443.0944,165.6182 L443.4071,163.064 L443.5289,160.4868 L443.9301,157.9434 L444.3445,155.4016 L444.3438,152.8095 L444.0249,152.7765 L445.2179,147.2884 L445.3611,141.6917 L446.3024,136.1775 L446.4218,130.5783 L447.2148,125.0488 L447.1846,125.0457 L448.1169,119.5306 L448.3417,113.9423 L448.9841,108.3972 L449.6614,102.8558 L450.0859,97.2882 L450.2696,97.3104 L450.3933,94.7334 L450.8308,92.1944 L450.7606,89.5939 L451.4477,87.0851 L451.6313,84.5153 L451.8724,84.5506 L452.1623,82.2552 L452.5718,79.9773 L452.4253,77.6178 L452.6863,75.3182 L453.3086,73.0714 L453.0394,73.0097 L454.0682,69.6398 L454.7938,66.2003 L455.9593,62.8617 L456.3735,59.3509 L457.2344,55.9425 L457.1134,55.8497 L458.311,54.7048 L458.9913,53.1633 L460.0395,51.9038 L461.4477,50.9202 L462.2148,49.4453 L462.2148,49.8326 L464.2148,50.0982 L466.2148,49.1593 L468.2148,49.729 L470.2148,49.9701 L472.2148,49.4453" fill="none" style="stroke:#FF9900;stroke-width:1;"/><a href="/use-case/client-360/know-your-customer/core-record-management/" target="_top" title="/use-case/client-360/know-your-customer/core-record-management/" xlink:actuate="onRequest" xlink:href="/use-case/client-360/know-your-customer/core-record-management/" xlink:show="new" xlink:title="/use-case/client-360/know-your-customer/core-record-management/" xlink:type="simple"><text fill="#90EE90" font-family="'Roboto'" font-size="14" lengthAdjust="spacing" textLength="183.0801" x="479.2148" y="198.9248">Core Record Management</text></a><a href="/use-case/client-360/know-your-customer/core-record-management/addresses/" target="_top" title="/use-case/client-360/know-your-customer/core-record-management/addresses/" xlink:actuate="onRequest" xlink:href="/use-case/client-360/know-your-customer/core-record-management/addresses/" xlink:show="new" xlink:title="/use-case/client-360/know-your-customer/core-record-management/addresses/" xlink:type="simple"><text fill="#90EE90" font-family="'Roboto'" font-size="14" lengthAdjust="spacing" textLength="72.2148" x="723.2949" y="106.8857">Addresses</text></a><path d="M666.2949,194.0781 L666.2949,194.265 L668.2949,193.7098 L670.2949,194.2499 L672.2949,194.4334 L674.2949,193.444 L676.2949,194.0781 L676.2949,194.0781 L676.2656,194.0599 L677.915,191.1021 L679.7125,188.2359 L681.6129,185.4335 L683.1587,182.4115 L685.2012,179.697 L685.4416,179.7496 L685.572,176.6891 L686.4044,173.782 L687.3223,170.8936 L687.7421,167.8964 L688.4238,164.9564 L688.4537,164.9615 L688.984,161.5745 L689.6505,158.2106 L690.2513,154.8355 L690.9773,151.4818 L691.2949,148.0586 L691.589,148.1086 L692.1668,144.7296 L692.5549,141.3184 L693.2207,137.9544 L693.8995,134.5926 L694.166,131.1608 L693.8529,131.0923 L695.1051,128.2771 L695.3263,125.2364 L696.3314,122.3671 L696.5292,119.3213 L697.3887,116.4202 L697.3628,116.4041 L699.4501,113.7175 L700.9328,110.6563 L702.7722,107.8161 L704.6416,104.9945 L706.2949,102.0391 L706.2949,102.409 L708.2949,102.0356 L710.2949,102.2944 L712.2949,101.5302 L714.2949,102.2919 L716.2949,102.0391" fill="none" style="stroke:#FF9900;stroke-width:1;"/><a href="/use-case/client-360/know-your-customer/core-record-management/audit/" target="_top" title="/use-case/client-360/know-your-customer/core-record-management/audit/" xlink:actuate="onRequest" xlink:href="/use-case/client-360/know-your-customer/core-record-management/audit/" xlink:show="new" xlink:title="/use-case/client-360/know-your-customer/core-record-management/audit/" xlink:type="simple"><text fill="#90EE90" font-family="'Roboto'" font-size="14" lengthAdjust="spacing" textLength="36.7158" x="723.2949" y="133.1826">Audit</text></a><path d="M666.2949,194.0781 L666.2949,194.265 L668.2949,193.7098 L670.2949,194.2499 L672.2949,194.4334 L674.2949,193.444 L676.2949,194.0781 L676.2949,194.0781 L676.2688,194.0555 L677.933,191.8995 L679.7286,189.8576 L681.6158,187.895 L683.1878,185.6591 L685.2012,183.8059 L685.4365,183.8779 L685.5778,181.6181 L686.4062,179.5686 L687.3183,177.5447 L687.7428,175.3715 L688.4238,173.2769 L688.4533,173.2839 L688.9842,170.8596 L689.6495,168.4673 L690.2499,166.0596 L690.9739,163.6812 L691.2949,161.207 L691.5851,161.2761 L692.1628,158.8629 L692.5535,156.4053 L693.218,154.0128 L693.8954,151.6234 L694.166,149.1372 L693.8595,149.0434 L695.0989,147.1196 L695.3291,144.887 L696.3265,142.8892 L696.5338,140.6496 L697.3887,138.6082 L697.3657,138.5882 L699.419,136.7696 L700.9348,134.4851 L702.7678,132.4755 L704.6274,130.489 L706.2949,128.3359 L706.2949,128.7059 L708.2949,128.3325 L710.2949,128.5912 L712.2949,127.8271 L714.2949,128.5887 L716.2949,128.3359" fill="none" style="stroke:#FF9900;stroke-width:1;"/><a href="/use-case/client-360/know-your-customer/core-record-management/buildings/" target="_top" title="/use-case/client-360/know-your-customer/core-record-management/buildings/" xlink:actuate="onRequest" xlink:href="/use-case/client-360/know-your-customer/core-record-management/buildings/" xlink:show="new" xlink:title="/use-case/client-360/know-your-customer/core-record-management/buildings/" xlink:type="simple"><text fill="#90EE90" font-family="'Roboto'" font-size="14" lengthAdjust="spacing" textLength="64.0869" x="723.2949" y="159.4795">Buildings</text></a><path d="M666.2949,194.0781 L666.2949,194.265 L668.2949,193.7098 L670.2949,194.2499 L672.2949,194.4334 L674.2949,193.444 L676.2949,194.0781 L676.2949,194.0781 L676.2753,194.0497 L677.9683,192.6896 L679.7604,191.4726 L681.6214,190.3552 L683.2451,188.8948 L685.2012,187.9148 L685.4256,188.0157 L686.1644,185.0881 L687.5585,182.455 L689.0325,179.8579 L690.0414,177.0517 L691.2949,174.3555 L691.3226,174.3679 L692.5007,171.6378 L693.8048,168.9643 L695.0481,166.2634 L696.4074,163.6147 L697.3887,160.7961 L697.5584,161.0414 L699.3417,159.8117 L701.0156,158.4239 L702.8497,157.2676 L704.6913,156.1221 L706.2949,154.6328 L706.2949,153.9918 L708.2949,155.2359 L710.2949,154.3693 L712.2949,155.1073 L714.2949,154.1928 L716.2949,154.6328" fill="none" style="stroke:#FF9900;stroke-width:1;"/><a href="/use-case/client-360/know-your-customer/core-record-management/countries/" target="_top" title="/use-case/client-360/know-your-customer/core-record-management/countries/" xlink:actuate="onRequest" xlink:href="/use-case/client-360/know-your-customer/core-record-management/countries/" xlink:show="new" xlink:title="/use-case/client-360/know-your-customer/core-record-management/countries/" xlink:type="simple"><text fill="#90EE90" font-family="'Roboto'" font-size="14" lengthAdjust="spacing" textLength="67.1289" x="723.2949" y="185.7764">Countries</text></a><path d="M666.2949,194.0781 L666.2949,194.265 L668.2949,193.7098 L670.2949,194.2499 L672.2949,194.4334 L674.2949,193.444 L676.2949,194.0781 L676.2949,194.0781 L676.2811,194.0465 L679.2188,192.5897 L682.2265,191.2923 L685.2828,190.1058 L688.1716,188.5373 L691.2949,187.5039 L691.3937,187.7293 L694.1825,185.9325 L697.2596,184.7937 L700.372,183.7352 L703.2796,182.2096 L706.2949,180.9297 L706.2949,180.9903 L708.2949,180.9013 L710.2949,181.0884 L712.2949,181.1423 L714.2949,181.4503 L716.2949,180.9297" fill="none" style="stroke:#FF9900;stroke-width:1;"/><a href="/use-case/client-360/know-your-customer/core-record-management/jurisdictions/" target="_top" title="/use-case/client-360/know-your-customer/core-record-management/jurisdictions/" xlink:actuate="onRequest" xlink:href="/use-case/client-360/know-your-customer/core-record-management/jurisdictions/" xlink:show="new" xlink:title="/use-case/client-360/know-your-customer/core-record-management/jurisdictions/" xlink:type="simple"><text fill="#90EE90" font-family="'Roboto'" font-size="14" lengthAdjust="spacing" textLength="84.5264" x="723.2949" y="212.0732">Jurisdictions</text></a><path d="M666.2949,194.0781 L666.2949,194.265 L668.2949,193.7098 L670.2949,194.2499 L672.2949,194.4334 L674.2949,193.444 L676.2949,194.0781 L676.2949,194.0781 L676.2811,194.0465 L679.2188,195.2194 L682.2265,196.5517 L685.2828,197.9949 L688.1716,199.0561 L691.2949,200.6523 L691.3937,200.8777 L694.1825,201.7106 L697.2596,203.2015 L700.372,204.7727 L703.2796,205.8768 L706.2949,207.2266 L706.2949,207.2872 L708.2949,207.1982 L710.2949,207.3853 L712.2949,207.4391 L714.2949,207.7472 L716.2949,207.2266" fill="none" style="stroke:#FF9900;stroke-width:1;"/><a href="/use-case/client-360/know-your-customer/core-record-management/legal-entities/" target="_top" title="/use-case/client-360/know-your-customer/core-record-management/legal-entities/" xlink:actuate="onRequest" xlink:href="/use-case/client-360/know-your-customer/core-record-management/legal-entities/" xlink:show="new" xlink:title="/use-case/client-360/know-your-customer/core-record-management/legal-entities/" xlink:type="simple"><text fill="#90EE90" font-family="'Roboto'" font-size="14" lengthAdjust="spacing" textLength="94.6025" x="723.2949" y="238.3701">Legal Entities</text></a><path d="M666.2949,194.0781 L666.2949,194.265 L668.2949,193.7098 L670.2949,194.2499 L672.2949,194.4334 L674.2949,193.444 L676.2949,194.0781 L676.2949,194.0781 L676.2753,194.0497 L677.9683,195.1549 L679.7604,196.4033 L681.6214,197.7512 L683.2451,198.7561 L685.2012,200.2415 L685.4256,200.3423 L686.1644,202.8385 L687.5585,205.6292 L689.0325,208.4557 L690.0414,211.0733 L691.2949,213.8008 L691.3226,213.8132 L692.5007,216.5068 L693.8048,219.257 L695.0481,221.9799 L696.4074,224.7549 L697.3887,227.3601 L697.5584,227.6054 L699.3417,228.841 L701.0156,229.9185 L702.8497,231.2275 L704.6913,232.5474 L706.2949,233.5234 L706.2949,232.8824 L708.2949,234.1266 L710.2949,233.2599 L712.2949,233.9979 L714.2949,233.0834 L716.2949,233.5234" fill="none" style="stroke:#FF9900;stroke-width:1;"/><a href="/use-case/client-360/know-your-customer/core-record-management/locations/" target="_top" title="/use-case/client-360/know-your-customer/core-record-management/locations/" xlink:actuate="onRequest" xlink:href="/use-case/client-360/know-your-customer/core-record-management/locations/" xlink:show="new" xlink:title="/use-case/client-360/know-your-customer/core-record-management/locations/" xlink:type="simple"><text fill="#90EE90" font-family="'Roboto'" font-size="14" lengthAdjust="spacing" textLength="66.7529" x="723.2949" y="264.667">Locations</text></a><path d="M666.2949,194.0781 L666.2949,194.265 L668.2949,193.7098 L670.2949,194.2499 L672.2949,194.4334 L674.2949,193.444 L676.2949,194.0781 L676.2949,194.0781 L676.2688,194.0555 L677.933,196.0084 L679.7286,198.0754 L681.6158,200.2216 L683.1878,202.0946 L685.2012,204.3503 L685.4365,204.4224 L685.5778,206.3742 L686.4062,208.5362 L687.3183,210.7239 L687.7428,212.7624 L688.4238,214.8794 L688.4533,214.8864 L688.9842,217.29 L689.6495,219.7257 L690.2499,222.1459 L690.9739,224.5955 L691.2949,226.9492 L691.5851,227.0182 L692.1628,229.4331 L692.5535,231.8033 L693.218,234.2388 L693.8954,236.6773 L694.166,239.0191 L693.8595,238.9253 L695.0989,241.2131 L695.3291,243.1921 L696.3265,245.4059 L696.5338,247.3779 L697.3887,249.5481 L697.3657,249.5282 L699.419,251.8185 L700.9348,253.6428 L702.7678,255.7421 L704.6274,257.8645 L706.2949,259.8203 L706.2949,260.1903 L708.2949,259.8168 L710.2949,260.0756 L712.2949,259.3115 L714.2949,260.0731 L716.2949,259.8203" fill="none" style="stroke:#FF9900;stroke-width:1;"/><a href="/use-case/client-360/know-your-customer/core-record-management/regions/" target="_top" title="/use-case/client-360/know-your-customer/core-record-management/regions/" xlink:actuate="onRequest" xlink:href="/use-case/client-360/know-your-customer/core-record-management/regions/" xlink:show="new" xlink:title="/use-case/client-360/know-your-customer/core-record-management/regions/" xlink:type="simple"><text fill="#90EE90" font-family="'Roboto'" font-size="14" lengthAdjust="spacing" textLength="55.8496" x="723.2949" y="290.9639">Regions</text></a><path d="M666.2949,194.0781 L666.2949,194.265 L668.2949,193.7098 L670.2949,194.2499 L672.2949,194.4334 L674.2949,193.444 L676.2949,194.0781 L676.2949,194.0781 L676.2656,194.0599 L677.915,196.8545 L679.7125,199.7408 L681.6129,202.6908 L683.1587,205.4212 L685.2012,208.4592 L685.4416,208.5118 L685.572,211.3475 L686.4044,214.3367 L687.3223,217.3446 L687.7421,220.2436 L688.4238,223.1999 L688.4537,223.2049 L688.984,226.577 L689.6505,229.9723 L690.2513,233.3563 L690.9773,236.7617 L691.2949,240.0977 L691.589,240.1476 L692.1668,243.5278 L692.5549,246.8757 L693.2207,250.2708 L693.8995,253.6682 L694.166,256.9955 L693.8529,256.927 L695.1051,260.008 L695.3263,262.8636 L696.3314,265.8905 L696.5292,268.741 L697.3887,271.7361 L697.3628,271.7201 L699.4501,274.7858 L700.9328,277.4771 L702.7722,280.3894 L704.6416,283.3202 L706.2949,286.1172 L706.2949,286.4872 L708.2949,286.1137 L710.2949,286.3725 L712.2949,285.6084 L714.2949,286.37 L716.2949,286.1172" fill="none" style="stroke:#FF9900;stroke-width:1;"/><path d="M422.2148,200.6523 L422.2148,200.8392 L424.2148,200.2841 L426.2148,200.8242 L428.2148,201.0076 L430.2148,200.0182 L432.2148,200.6523 L432.2148,200.6523 L432.2075,200.6186 L435.1743,199.8098 L438.1784,199.171 L441.2084,198.6505 L444.1491,197.7225 L447.2148,197.3652 L447.2675,197.6056 L450.1549,196.4342 L453.196,195.9645 L456.2559,195.5805 L459.2067,194.6983 L462.2148,194.0781 L462.2148,194.1388 L464.2148,194.0497 L466.2148,194.2368 L468.2148,194.2907 L470.2148,194.5987 L472.2148,194.0781" fill="none" style="stroke:#FF9900;stroke-width:1;"/><a href="/use-case/client-360/know-your-customer/crime-records/" target="_top" title="/use-case/client-360/know-your-customer/crime-records/" xlink:actuate="onRequest" xlink:href="/use-case/client-360/know-your-customer/crime-records/" xlink:show="new" xlink:title="/use-case/client-360/know-your-customer/crime-records/" xlink:type="simple"><text fill="#90EE90" font-family="'Roboto'" font-size="14" lengthAdjust="spacing" textLength="102.6621" x="479.2148" y="225.2217">Crime Records</text></a><path d="M422.2148,200.6523 L422.2148,200.8392 L424.2148,200.2841 L426.2148,200.8242 L428.2148,201.0076 L430.2148,200.0182 L432.2148,200.6523 L432.2148,200.6523 L432.1959,200.6235 L435.1107,202.4662 L438.1212,204.4545 L441.1982,206.5438 L444.046,208.2846 L447.2148,210.5137 L447.35,210.7193 L450.061,212.2519 L453.1666,214.3848 L456.3203,216.5909 L459.1939,218.3709 L462.2148,220.375 L462.2148,220.4357 L464.2148,220.3466 L466.2148,220.5337 L468.2148,220.5876 L470.2148,220.8956 L472.2148,220.375" fill="none" style="stroke:#FF9900;stroke-width:1;"/><a href="/use-case/client-360/know-your-customer/gdpr/" target="_top" title="/use-case/client-360/know-your-customer/gdpr/" xlink:actuate="onRequest" xlink:href="/use-case/client-360/know-your-customer/gdpr/" xlink:show="new" xlink:title="/use-case/client-360/know-your-customer/gdpr/" xlink:type="simple"><text fill="#90EE90" font-family="'Roboto'" font-size="14" lengthAdjust="spacing" textLength="39.7988" x="479.2148" y="251.5186">GDPR</text></a><path d="M422.2148,200.6523 L422.2148,200.8392 L424.2148,200.2841 L426.2148,200.8242 L428.2148,201.0076 L430.2148,200.0182 L432.2148,200.6523 L432.2148,200.6523 L432.1931,200.6255 L433.877,201.943 L435.6703,203.3959 L437.5396,204.9431 L439.1468,206.1657 L441.1211,207.8429 L441.3507,207.9313 L442.0784,210.906 L443.4766,214.139 L444.9565,217.4034 L445.9605,220.4846 L447.2148,223.6621 L447.2431,223.673 L448.4203,226.8208 L449.7264,230.0183 L450.9703,233.1918 L452.3328,236.4111 L453.3086,239.4813 L453.4959,239.7134 L455.2795,241.1543 L456.9422,242.4456 L458.7818,243.956 L460.6297,245.4766 L462.2148,246.6719 L462.2148,246.0308 L464.2148,247.275 L466.2148,246.4083 L468.2148,247.1464 L470.2148,246.2319 L472.2148,246.6719" fill="none" style="stroke:#FF9900;stroke-width:1;"/><a href="/use-case/client-360/know-your-customer/high-net-worth-individuals/" target="_top" title="/use-case/client-360/know-your-customer/high-net-worth-individuals/" xlink:actuate="onRequest" xlink:href="/use-case/client-360/know-your-customer/high-net-worth-individuals/" xlink:show="new" xlink:title="/use-case/client-360/know-your-customer/high-net-worth-individuals/" xlink:type="simple"><text fill="#90EE90" font-family="'Roboto'" font-size="14" lengthAdjust="spacing" textLength="188.1045" x="479.2148" y="277.8154">High Net Worth Individuals</text></a><path d="M422.2148,200.6523 L422.2148,200.8392 L424.2148,200.2841 L426.2148,200.8242 L428.2148,201.0076 L430.2148,200.0182 L432.2148,200.6523 L432.2148,200.6523 L432.1877,200.631 L433.8472,202.7949 L435.6435,205.0666 L437.5348,207.4133 L439.0985,209.5017 L441.1211,211.9518 L441.3582,212.0177 L441.4958,214.1931 L442.3255,216.561 L443.2396,218.9524 L443.6625,221.2071 L444.3438,223.5337 L444.3734,223.5401 L444.9041,226.1861 L445.5697,228.8612 L446.1703,231.5223 L446.8951,234.2102 L447.2148,236.8105 L447.5064,236.8736 L448.0841,239.5297 L448.4739,242.1452 L449.1389,244.8202 L449.8168,247.498 L450.0859,250.0874 L449.7771,250.0015 L451.021,252.4846 L451.248,254.6848 L452.2481,257.1001 L452.4521,259.2939 L453.3086,261.6693 L453.2847,261.6505 L455.3487,264.1332 L456.8541,266.1757 L458.6891,268.4779 L460.5518,270.802 L462.2148,272.9688 L462.2148,273.3387 L464.2148,272.9653 L466.2148,273.2241 L468.2148,272.4599 L470.2148,273.2215 L472.2148,272.9688" fill="none" style="stroke:#FF9900;stroke-width:1;"/><a href="/use-case/client-360/know-your-customer/identification-verification/" target="_top" title="/use-case/client-360/know-your-customer/identification-verification/" xlink:actuate="onRequest" xlink:href="/use-case/client-360/know-your-customer/identification-verification/" xlink:show="new" xlink:title="/use-case/client-360/know-your-customer/identification-verification/" xlink:type="simple"><text fill="#90EE90" font-family="'Roboto'" font-size="14" lengthAdjust="spacing" textLength="175.9912" x="479.2148" y="304.1123">Identification Verification</text></a><path d="M422.2148,200.6523 L422.2148,200.8392 L424.2148,200.2841 L426.2148,200.8242 L428.2148,201.0076 L430.2148,200.0182 L432.2148,200.6523 L432.2148,200.6523 L432.1849,200.6351 L433.832,203.6392 L435.6298,206.7304 L437.5324,209.8822 L439.0738,212.8252 L441.1211,216.0607 L441.3622,216.1099 L441.4912,219.1634 L442.324,222.3605 L443.2428,225.5752 L443.6619,228.6879 L444.3438,231.8542 L444.3737,231.859 L444.9039,235.4729 L445.5706,239.1085 L446.1714,242.7337 L446.8977,246.3788 L447.2148,249.959 L447.5094,250.0057 L448.0872,253.6272 L448.4751,257.2186 L449.141,260.8541 L449.82,264.4917 L450.0859,268.0638 L449.7719,267.9997 L451.0259,271.2828 L451.2459,274.3548 L452.252,277.5873 L452.4485,280.6546 L453.3086,283.8573 L453.2822,283.8421 L455.3752,287.1039 L456.8523,290.0098 L458.6929,293.1257 L460.5639,296.2593 L462.2148,299.2656 L462.2148,299.6356 L464.2148,299.2622 L466.2148,299.5209 L468.2148,298.7568 L470.2148,299.5184 L472.2148,299.2656" fill="none" style="stroke:#FF9900;stroke-width:1;"/><a href="/use-case/client-360/know-your-customer/peps/" target="_top" title="/use-case/client-360/know-your-customer/peps/" xlink:actuate="onRequest" xlink:href="/use-case/client-360/know-your-customer/peps/" xlink:show="new" xlink:title="/use-case/client-360/know-your-customer/peps/" xlink:type="simple"><text fill="#90EE90" font-family="'Roboto'" font-size="14" lengthAdjust="spacing" textLength="238.0205" x="479.2148" y="330.4092">Politically Exposed Persons (PEPs)</text></a><path d="M422.2148,200.6523 L422.2148,200.8392 L424.2148,200.2841 L426.2148,200.8242 L428.2148,201.0076 L430.2148,200.0182 L432.2148,200.6523 L432.2148,200.6523 L432.1895,200.6289 L433.072,201.5969 L434.0821,202.6833 L435.1809,203.8521 L435.974,204.7371 L437.1953,206.0196 L437.4324,206.0854 L437.7105,208.7747 L438.6809,211.6561 L439.7358,214.5609 L440.2992,217.3294 L441.1211,220.1696 L441.151,220.1749 L441.4426,222.0578 L441.8701,223.9649 L442.2321,225.8603 L442.7192,227.7779 L442.7983,229.6232 L443.0934,229.6664 L443.4061,231.7773 L443.5285,233.8602 L443.9294,235.984 L444.3435,238.1096 L444.3438,240.1747 L444.0257,240.1349 L445.2172,244.7987 L445.3614,249.3314 L446.3018,253.9638 L446.4223,258.4935 L447.2148,263.1074 L447.1846,263.1036 L448.1161,267.7349 L448.3418,272.2778 L448.9839,276.8729 L449.6611,281.4723 L450.0859,286.0401 L450.269,286.067 L450.3933,288.1502 L450.8304,290.2792 L450.7615,292.3342 L451.4473,294.4997 L451.6313,296.5916 L451.8712,296.6342 L452.1613,298.5169 L452.5705,300.4207 L452.4263,302.2263 L452.6877,304.1039 L453.3086,306.0453 L453.0425,305.9715 L454.0685,308.8683 L454.7947,311.6819 L455.9559,314.6162 L456.3744,317.3445 L457.2344,320.1953 L457.1226,320.0916 L458.3048,321.3377 L459.0093,322.1406 L460.0535,323.2587 L461.4302,324.6852 L462.2148,325.5625 L462.2148,325.9498 L464.2148,326.2154 L466.2148,325.2765 L468.2148,325.8462 L470.2148,326.0873 L472.2148,325.5625" fill="none" style="stroke:#FF9900;stroke-width:1;"/><a href="/use-case/client-360/know-your-customer/risk-management/" target="_top" title="/use-case/client-360/know-your-customer/risk-management/" xlink:actuate="onRequest" xlink:href="/use-case/client-360/know-your-customer/risk-management/" xlink:show="new" xlink:title="/use-case/client-360/know-your-customer/risk-management/" xlink:type="simple"><text fill="#90EE90" font-family="'Roboto'" font-size="14" lengthAdjust="spacing" textLength="125.6924" x="479.2148" y="356.7061">Risk Management</text></a><path d="M422.2148,200.6523 L422.2148,200.8392 L424.2148,200.2841 L426.2148,200.8242 L428.2148,201.0076 L430.2148,200.0182 L432.2148,200.6523 L432.2148,200.6523 L432.1874,200.6313 L433.0605,201.8365 L434.0718,203.1475 L435.1791,204.5322 L435.9554,205.6631 L437.1953,207.1495 L437.4352,207.2045 L437.7074,210.5127 L438.68,213.9815 L439.7379,217.4698 L440.2988,220.8441 L441.1211,224.2784 L441.1511,224.2828 L441.4425,226.5652 L441.8705,228.8675 L442.2326,231.1602 L442.7204,233.4713 L442.7983,235.7223 L443.0944,235.7582 L443.4071,238.3132 L443.5289,240.8451 L443.9301,243.4108 L444.3445,245.9781 L444.3438,248.4952 L444.0249,248.4622 L445.2179,254.0783 L445.3611,259.5859 L446.3024,265.176 L446.4218,270.6811 L447.2148,276.2559 L447.1846,276.2527 L448.1169,281.8419 L448.3417,287.3579 L448.9841,292.9171 L449.6614,298.4799 L450.0859,304.0165 L450.2696,304.0387 L450.3933,306.5709 L450.8308,309.141 L450.7606,311.6497 L451.4477,314.25 L451.6313,316.7894 L451.8724,316.8247 L452.1623,319.1068 L452.5718,321.4065 L452.4253,323.6246 L452.6863,325.9025 L453.3086,328.2333 L453.0394,328.1716 L454.0682,331.6532 L454.7938,335.0653 L455.9593,338.5783 L456.3735,341.9191 L457.2344,345.3622 L457.1134,345.2694 L458.311,346.7234 L458.9913,347.7808 L460.0395,349.1201 L461.4477,350.7354 L462.2148,351.8594 L462.2148,352.2466 L464.2148,352.5123 L466.2148,351.5733 L468.2148,352.1431 L470.2148,352.3842 L472.2148,351.8594" fill="none" style="stroke:#FF9900;stroke-width:1;"/><a href="/use-case/client-360/know-your-customer/sanctions/" target="_top" title="/use-case/client-360/know-your-customer/sanctions/" xlink:actuate="onRequest" xlink:href="/use-case/client-360/know-your-customer/sanctions/" xlink:show="new" xlink:title="/use-case/client-360/know-your-customer/sanctions/" xlink:type="simple"><text fill="#90EE90" font-family="'Roboto'" font-size="14" lengthAdjust="spacing" textLength="68.1475" x="479.2148" y="383.0029">Sanctions</text></a><path d="M422.2148,200.6523 L422.2148,200.8392 L424.2148,200.2841 L426.2148,200.8242 L428.2148,201.0076 L430.2148,200.0182 L432.2148,200.6523 L432.2148,200.6523 L432.1859,200.6335 L433.0522,202.0741 L434.0643,203.61 L435.1778,205.2121 L435.9419,206.586 L437.1953,208.2795 L437.4348,208.3362 L437.3373,209.9657 L437.9389,211.7608 L438.6258,213.576 L438.8164,215.2738 L439.2681,217.0333 L439.298,217.0382 L439.6247,219.3018 L440.0876,221.5877 L440.4848,223.8628 L441.0074,226.1585 L441.1211,228.3873 L441.417,228.4243 L441.7561,231.1116 L441.9043,233.775 L442.3319,236.4733 L442.7726,239.1733 L442.7983,241.8215 L442.4795,241.7886 L443.4074,244.8512 L443.2854,247.8056 L443.9616,250.8423 L443.8158,253.7943 L444.3438,256.8157 L444.3134,256.813 L445.2463,263.3623 L445.4706,269.8492 L446.113,276.373 L446.7905,282.8998 L447.2148,289.4043 L447.3991,289.4205 L447.7873,295.9219 L448.4904,302.4509 L448.6841,308.9351 L449.6376,315.4863 L450.0859,321.9929 L450.3283,322.0179 L450.5915,325.012 L450.9751,328.0185 L450.7996,330.9674 L451.0339,333.9586 L451.6313,336.9871 L451.3573,336.9529 L451.9408,339.6707 L452.2156,342.35 L452.9382,345.0851 L452.8961,347.7248 L453.3086,350.4213 L453.1581,350.3967 L453.7793,352.7084 L453.7573,354.9151 L454.1927,357.1965 L455.0757,359.5509 L455.1616,361.7753 L455.35,361.8199 L455.8938,363.6013 L455.8516,365.2439 L456.5433,367.0603 L457.0752,368.8388 L457.2344,370.5291 L457.0586,370.4143 L458.1948,372.0313 L459.2734,373.6106 L460.4652,375.2638 L461.2172,376.6298 L462.2148,378.1563 L462.2148,378.5674 L464.2148,377.664 L466.2148,377.5542 L468.2148,378.6039 L470.2148,377.519 L472.2148,378.1563" fill="none" style="stroke:#FF9900;stroke-width:1;"/><a href="/use-case/client-360/" target="_top" title="/use-case/client-360/" xlink:actuate="onRequest" xlink:href="/use-case/client-360/" xlink:show="new" xlink:title="/use-case/client-360/" xlink:type="simple"><text fill="#90EE90" font-family="'Roboto'" font-size="14" lengthAdjust="spacing" textLength="184.4951" x="14" y="205.499">Client 360 / Customer 360</text></a><path d="M255.4951,200.6523 L255.4951,200.8392 L253.4951,200.2841 L251.4951,200.8242 L249.4951,201.0076 L247.4951,200.0182 L245.4951,200.6523 L245.4951,200.6523 L245.4951,200.6178 L239.4951,200.4628 L233.4951,200.4819 L227.4951,200.6221 L221.4951,200.3451 L215.4951,200.6523 L215.4951,201.1445 L213.4951,200.0921 L211.4951,200.4766 L209.4951,201.0363 L207.4951,200.5761 L205.4951,200.6523" fill="none" style="stroke:#FF9900;stroke-width:1;"/><!--SRC=[xLbjSzeu4FxkNw5hFZIPdWkqQQVjT3ebXAH9864WwKsdqya8Um4TjiH9SbBkvlxxhMoCpJick4tdu4jaQVNiYwJLwib7fQdKFkEkJmUapyMzFHI1j9r0QU63jApVNEWm3kJezBPUFhkyhLpLhfea_EqT5b-Lsg_I8grgvUhokDpyCfAR8z8eLoxAfzKnq8p8LVEusaph8NkTpkjEiJWMERcwl9uG24NCpx9Kd_41bTGdRUhqkr84tAq8JyXOK4lA5Ke0rodXJyC1o1hZ_RGisVDOjwUx4e1RrbF2kEC5BX3T0z853f9wP0oXI0SdjeNk_Kx2QOHobxXKzd6c5aJSWRoNJ0EvPxeNOR0xu4I1rentrNG4hZ-TLIukgwqMAU4oY85cWfCUWXeKZHCxr5EGyg51NHU1o66ghndvBz5OyYRLt-fHLzmRwMcKC18UHkA6ks43HY8fcMFeqC3Jv1-Ba1F1zINrWJnf2lHUF1drHO5CbchKtM9_0oaTMl-cySfIYliGRS6iHM1ww66yXETEuWrmwMaNnlRDcNuqjJiczhSP5nBT7usbjYGgIlHmuMPLCh7zrzNZ27yWEExOKDd6fY-qCufZu7il9kFeKatRL44kQYSqEPu8t1-WHdWUEEOagPoK9RegA225bxkU8mDBvJ1tHLMkcSvV3UCQP8SwaBkc5lmL07UWWNSWSzY0SXt1NVUOq-UW5ARUH5oDn4ExqdDMc3W3FzVQb5IIshYGFlLcH-USuHhh05vWi4J5M6I5mM4wdgCYx5-27uulC2ySI-BwqdGvMiYLjeH2ItIQyKK7_ocf78R93Iyw_DXR-Kld2ec9WlAk1-_Vuuse1F_m8Lpv5cvF41gloIKtqpPld7WeYTvqXJ2Pv5A6mtSqbbFlDYyFfWg-dDnGGwN1_vNZdvS7ESO_lln_jV0dTl_AqKzjelReWe_jdohTfpqAA-pYUjNdnh5OvMPqVRbKzS1Tp_UvhZkedkAD9RFuZg-BrTijDy_NNM1yUUkeb9WrDduJcx74ZlYDQthBMalM3ZJC7qvR6R-Uf-fjgjGFrlwKr4T4Wng0mphCmI14T_ES9zKcTgrqcoQLpTx9oTktE3urc2xzh6SN7D-bNqGWIILcH6pxbdpzMWWKs0vccOBZCNoOsIzV5mka4hO9jabXFCDyVljcFNksSDuixrAW-4YvmshRzWLdME5Wa0gcrWaxINtScHqOYtW32aFReu5vuaVGs6rWOKXguswoNwxN3a8LMz3X22b1uJlMDLDDXdPjwdiOgDa1WegtfPU3lXUodzPu6NNX3jkohf1Sek43CwtlEkd6ZN72E3NFY4bFioZ7K8ADQHAtk-rJJhlWetGOII3Di9_Kn_tPdLk0JrqN5qg1mlqIDxS77hWCNIYRFri3RGVCCvmOMdmKDxS6xc1gmZnemb69cri3_pEGJBaiuYeAv3pzkJKb7dIfPuDvruTkrCntzCxVfY-USEZ8ZrhSt1guX6u4tOmQsG-JP7uCR9RIV8uEKNQmhZkG1N9wt6XcdjfZtPwDoSh6rAHxDbwLcEpT0EkS0lc4OoPhaJ_C63bBnZAhOIRBciitN0Vx3XDN_54WPnE3v7DgCBEY0GpGyeRmS3CvrFE6fFfz84pAQuIFKKNs6zM6EiWCZ2UXFv7scjWndU-o02fCnwFzsOgR2F8Hi5g9AXRB-hZoFoKv_klXaPFyIGcsDiC_EMKkJ2PkFvcxk6gSNnqkPVEt0RkSl5-ECz-MZUZwx8hM9EWV2ho2ajy4VZqI_c78IsdtXq4l8TeV1hoSMdyOTavaUcBK0XeziMy31ZqvK_FeymHw4NEUM9VYp1FG6S8yGPpYogVch46KfrHFK-GfBPFiUEe0RaXqBy_RMNVKx0PvE97zionSoJ7-zD0zBWipqCi_oQv76hWScE74eWsyM-B32XQub3_jcvTd2rVd_qVhxhZR7NUxusvttEsEkzrnjplkTiVTFZxkjk5Xnh-frmW6J9dOb9w_ABvuzRnKQeEcfUB-3JV8FAJg65Qi6hVHWRL_sgWHXTemtxjCHRKHJZ-mpkaT9KrC6oZtZbmDW9yVNyGTU0Rlc1JSk6ETVwud0gyFxIEcIGia6a8-rwsOOgroHvZyzexSN9_ORwmQri41HkGT0Mv5-Mc8Owt_0000]--></g></svg>