<svg xmlns="http://www.w3.org/2000/svg" xmlns:xlink="http://www.w3.org/1999/xlink" viewBox="5.33 370.00 484.92 60.00" width="484.92px" height="60.00px" class="use-case-tree-svg">
  <rect width="100%" height="100%" fill="transparent" />
  <line x1="177.14" y1="412.50" x2="187.14" y2="412.50" stroke="#FF9900" stroke-width="1.5" />
  <path d="M 187.14 412.50 C 205.14 412.50, 209.14 412.50, 227.14 412.50" stroke="#FF9900" stroke-width="1.5" fill="none" />
  <path d="M 345.00 412.50 C 369.75 412.50, 375.25 387.50, 400.00 387.50" stroke="#FF9900" stroke-width="1.5" fill="none" />
  <path d="M 345.00 412.50 C 369.75 412.50, 375.25 412.50, 400.00 412.50" stroke="#FF9900" stroke-width="1.5" fill="none" />
  <a xlink:href="/use-case/legal-entity-management/" target="_top">
    <rect x="10.33" y="400.00" width="166.81" height="25" rx="4" ry="4" fill="none" stroke="none" pointer-events="all" />
    <text x="20.33" y="417.00" text-anchor="start" font-family="Roboto, sans-serif" font-size="13" fill="#90EE90" font-weight="normal">Legal Entity Management</text>
  </a>
  <a xlink:href="/use-case/legal-entity-management/lifecycle-and-status/" target="_top">
    <rect x="227.14" y="400.00" width="122.86" height="25" rx="4" ry="4" fill="none" stroke="none" pointer-events="all" />
    <text x="237.14" y="417.00" text-anchor="start" font-family="Roboto, sans-serif" font-size="13" fill="#90EE90" font-weight="normal">Lifecycle &amp; Status</text>
  </a>
  <a xlink:href="/use-case/legal-entity-management/lifecycle-and-status/dissolution/" target="_top">
    <rect x="400.00" y="375.00" width="84.84" height="25" rx="4" ry="4" fill="none" stroke="none" pointer-events="all" />
    <text x="410.00" y="392.00" text-anchor="start" font-family="Roboto, sans-serif" font-size="13" fill="#90EE90" font-weight="normal">Dissolution</text>
  </a>
  <a xlink:href="/use-case/legal-entity-management/lifecycle-and-status/liquidation/" target="_top">
    <rect x="400.00" y="400.00" width="85.25" height="25" rx="4" ry="4" fill="#4051B5" stroke="#FF6F00" stroke-width="1.5" />
    <text x="410.00" y="417.00" text-anchor="start" font-family="Roboto, sans-serif" font-size="13" fill="#FFFFFF" font-weight="bold">Liquidation</text>
  </a>
</svg>