<svg xmlns="http://www.w3.org/2000/svg" xmlns:xlink="http://www.w3.org/1999/xlink" viewBox="395.00 20.00 981.98 760.00" width="981.98px" height="760.00px" class="use-case-tree-svg">
  <rect width="100%" height="100%" fill="transparent" />
  <path d="M 674.28 400.00 C 699.03 400.00, 704.53 325.00, 729.28 325.00" stroke="#FF6F00" stroke-width="1.5" fill="none" />
  <path d="M 674.28 400.00 C 699.03 400.00, 704.53 350.00, 729.28 350.00" stroke="#FF6F00" stroke-width="1.5" fill="none" />
  <path d="M 674.28 400.00 C 699.03 400.00, 704.53 375.00, 729.28 375.00" stroke="#FF6F00" stroke-width="1.5" fill="none" />
  <path d="M 674.28 400.00 C 699.03 400.00, 704.53 400.00, 729.28 400.00" stroke="#FF6F00" stroke-width="1.5" fill="none" />
  <path d="M 674.28 400.00 C 699.03 400.00, 704.53 425.00, 729.28 425.00" stroke="#FF6F00" stroke-width="1.5" fill="none" />
  <path d="M 674.28 400.00 C 699.03 400.00, 704.53 450.00, 729.28 450.00" stroke="#FF6F00" stroke-width="1.5" fill="none" />
  <path d="M 674.28 400.00 C 699.03 400.00, 704.53 475.00, 729.28 475.00" stroke="#FF6F00" stroke-width="1.5" fill="none" />
  <line x1="865.62" y1="325.00" x2="1019.69" y2="325.00" stroke="#FF6F00" stroke-width="1.5" />
  <path d="M 1019.69 325.00 C 1044.44 325.00, 1049.94 37.50, 1074.69 37.50" stroke="#FF6F00" stroke-width="1.5" fill="none" />
  <line x1="865.62" y1="325.00" x2="1019.69" y2="325.00" stroke="#FF6F00" stroke-width="1.5" />
  <path d="M 1019.69 325.00 C 1044.44 325.00, 1049.94 62.50, 1074.69 62.50" stroke="#FF6F00" stroke-width="1.5" fill="none" />
  <line x1="865.62" y1="325.00" x2="1019.69" y2="325.00" stroke="#FF6F00" stroke-width="1.5" />
  <path d="M 1019.69 325.00 C 1044.44 325.00, 1049.94 87.50, 1074.69 87.50" stroke="#FF6F00" stroke-width="1.5" fill="none" />
  <line x1="865.62" y1="325.00" x2="1019.69" y2="325.00" stroke="#FF6F00" stroke-width="1.5" />
  <path d="M 1019.69 325.00 C 1044.44 325.00, 1049.94 112.50, 1074.69 112.50" stroke="#FF6F00" stroke-width="1.5" fill="none" />
  <line x1="865.62" y1="325.00" x2="1019.69" y2="325.00" stroke="#FF6F00" stroke-width="1.5" />
  <path d="M 1019.69 325.00 C 1044.44 325.00, 1049.94 137.50, 1074.69 137.50" stroke="#FF6F00" stroke-width="1.5" fill="none" />
  <line x1="865.62" y1="325.00" x2="1019.69" y2="325.00" stroke="#FF6F00" stroke-width="1.5" />
  <path d="M 1019.69 325.00 C 1044.44 325.00, 1049.94 162.50, 1074.69 162.50" stroke="#FF6F00" stroke-width="1.5" fill="none" />
  <path d="M 1019.69 350.00 C 1044.44 350.00, 1049.94 187.50, 1074.69 187.50" stroke="#FF6F00" stroke-width="1.5" fill="none" />
  <path d="M 1019.69 350.00 C 1044.44 350.00, 1049.94 212.50, 1074.69 212.50" stroke="#FF6F00" stroke-width="1.5" fill="none" />
  <path d="M 1019.69 350.00 C 1044.44 350.00, 1049.94 237.50, 1074.69 237.50" stroke="#FF6F00" stroke-width="1.5" fill="none" />
  <path d="M 1019.69 350.00 C 1044.44 350.00, 1049.94 262.50, 1074.69 262.50" stroke="#FF6F00" stroke-width="1.5" fill="none" />
  <line x1="910.95" y1="375.00" x2="1019.69" y2="375.00" stroke="#FF6F00" stroke-width="1.5" />
  <path d="M 1019.69 375.00 C 1044.44 375.00, 1049.94 287.50, 1074.69 287.50" stroke="#FF6F00" stroke-width="1.5" fill="none" />
  <line x1="910.95" y1="375.00" x2="1019.69" y2="375.00" stroke="#FF6F00" stroke-width="1.5" />
  <path d="M 1019.69 375.00 C 1044.44 375.00, 1049.94 312.50, 1074.69 312.50" stroke="#FF6F00" stroke-width="1.5" fill="none" />
  <line x1="910.95" y1="375.00" x2="1019.69" y2="375.00" stroke="#FF6F00" stroke-width="1.5" />
  <path d="M 1019.69 375.00 C 1044.44 375.00, 1049.94 337.50, 1074.69 337.50" stroke="#FF6F00" stroke-width="1.5" fill="none" />
  <line x1="882.30" y1="400.00" x2="1019.69" y2="400.00" stroke="#FF6F00" stroke-width="1.5" />
  <path d="M 1019.69 400.00 C 1044.44 400.00, 1049.94 362.50, 1074.69 362.50" stroke="#FF6F00" stroke-width="1.5" fill="none" />
  <line x1="882.30" y1="400.00" x2="1019.69" y2="400.00" stroke="#FF6F00" stroke-width="1.5" />
  <path d="M 1019.69 400.00 C 1044.44 400.00, 1049.94 387.50, 1074.69 387.50" stroke="#FF6F00" stroke-width="1.5" fill="none" />
  <line x1="882.30" y1="400.00" x2="1019.69" y2="400.00" stroke="#FF6F00" stroke-width="1.5" />
  <path d="M 1019.69 400.00 C 1044.44 400.00, 1049.94 412.50, 1074.69 412.50" stroke="#FF6F00" stroke-width="1.5" fill="none" />
  <line x1="921.98" y1="425.00" x2="1019.69" y2="425.00" stroke="#FF6F00" stroke-width="1.5" />
  <path d="M 1019.69 425.00 C 1044.44 425.00, 1049.94 437.50, 1074.69 437.50" stroke="#FF6F00" stroke-width="1.5" fill="none" />
  <line x1="921.98" y1="425.00" x2="1019.69" y2="425.00" stroke="#FF6F00" stroke-width="1.5" />
  <path d="M 1019.69 425.00 C 1044.44 425.00, 1049.94 462.50, 1074.69 462.50" stroke="#FF6F00" stroke-width="1.5" fill="none" />
  <line x1="921.98" y1="425.00" x2="1019.69" y2="425.00" stroke="#FF6F00" stroke-width="1.5" />
  <path d="M 1019.69 425.00 C 1044.44 425.00, 1049.94 487.50, 1074.69 487.50" stroke="#FF6F00" stroke-width="1.5" fill="none" />
  <line x1="921.98" y1="425.00" x2="1019.69" y2="425.00" stroke="#FF6F00" stroke-width="1.5" />
  <path d="M 1019.69 425.00 C 1044.44 425.00, 1049.94 512.50, 1074.69 512.50" stroke="#FF6F00" stroke-width="1.5" fill="none" />
  <line x1="883.00" y1="450.00" x2="1019.69" y2="450.00" stroke="#FF6F00" stroke-width="1.5" />
  <path d="M 1019.69 450.00 C 1044.44 450.00, 1049.94 537.50, 1074.69 537.50" stroke="#FF6F00" stroke-width="1.5" fill="none" />
  <line x1="883.00" y1="450.00" x2="1019.69" y2="450.00" stroke="#FF6F00" stroke-width="1.5" />
  <path d="M 1019.69 450.00 C 1044.44 450.00, 1049.94 562.50, 1074.69 562.50" stroke="#FF6F00" stroke-width="1.5" fill="none" />
  <line x1="883.00" y1="450.00" x2="1019.69" y2="450.00" stroke="#FF6F00" stroke-width="1.5" />
  <path d="M 1019.69 450.00 C 1044.44 450.00, 1049.94 587.50, 1074.69 587.50" stroke="#FF6F00" stroke-width="1.5" fill="none" />
  <line x1="883.00" y1="450.00" x2="1019.69" y2="450.00" stroke="#FF6F00" stroke-width="1.5" />
  <path d="M 1019.69 450.00 C 1044.44 450.00, 1049.94 612.50, 1074.69 612.50" stroke="#FF6F00" stroke-width="1.5" fill="none" />
  <line x1="929.98" y1="475.00" x2="1019.69" y2="475.00" stroke="#FF6F00" stroke-width="1.5" />
  <path d="M 1019.69 475.00 C 1044.44 475.00, 1049.94 637.50, 1074.69 637.50" stroke="#FF6F00" stroke-width="1.5" fill="none" />
  <line x1="929.98" y1="475.00" x2="1019.69" y2="475.00" stroke="#FF6F00" stroke-width="1.5" />
  <path d="M 1019.69 475.00 C 1044.44 475.00, 1049.94 662.50, 1074.69 662.50" stroke="#FF6F00" stroke-width="1.5" fill="none" />
  <line x1="929.98" y1="475.00" x2="1019.69" y2="475.00" stroke="#FF6F00" stroke-width="1.5" />
  <path d="M 1019.69 475.00 C 1044.44 475.00, 1049.94 687.50, 1074.69 687.50" stroke="#FF6F00" stroke-width="1.5" fill="none" />
  <line x1="929.98" y1="475.00" x2="1019.69" y2="475.00" stroke="#FF6F00" stroke-width="1.5" />
  <path d="M 1019.69 475.00 C 1044.44 475.00, 1049.94 712.50, 1074.69 712.50" stroke="#FF6F00" stroke-width="1.5" fill="none" />
  <line x1="929.98" y1="475.00" x2="1019.69" y2="475.00" stroke="#FF6F00" stroke-width="1.5" />
  <path d="M 1019.69 475.00 C 1044.44 475.00, 1049.94 737.50, 1074.69 737.50" stroke="#FF6F00" stroke-width="1.5" fill="none" />
  <line x1="929.98" y1="475.00" x2="1019.69" y2="475.00" stroke="#FF6F00" stroke-width="1.5" />
  <path d="M 1019.69 475.00 C 1044.44 475.00, 1049.94 762.50, 1074.69 762.50" stroke="#FF6F00" stroke-width="1.5" fill="none" />
  <a xlink:href="/use-case/construction-project-quotations/" target="_top">
    <rect x="400.00" y="387.50" width="279.28" height="25" rx="4" ry="4" fill="#4051B5" stroke="#FF6F00" stroke-width="1.5" />
    <text x="410.00" y="404.50" text-anchor="start" font-family="Roboto, sans-serif" font-size="13" fill="#FFFFFF" font-weight="bold">Complex Construction Project Quotations</text>
  </a>
  <a xlink:href="/use-case/construction-project-quotations/estimating-and-pricing/" target="_top">
    <rect x="729.28" y="312.50" width="136.34" height="25" rx="4" ry="4" fill="none" stroke="none" pointer-events="all" />
    <text x="739.28" y="329.50" text-anchor="start" font-family="Roboto, sans-serif" font-size="13" fill="#4051B5" font-weight="normal">Estimating &amp; Pricing</text>
  </a>
  <a xlink:href="/use-case/construction-project-quotations/estimating-and-pricing/contingency-and-escalation/" target="_top">
    <rect x="1074.69" y="25.00" width="168.19" height="25" rx="4" ry="4" fill="none" stroke="none" pointer-events="all" />
    <text x="1084.69" y="42.00" text-anchor="start" font-family="Roboto, sans-serif" font-size="13" fill="#4051B5" font-weight="normal">Contingency &amp; Escalation</text>
  </a>
  <a xlink:href="/use-case/construction-project-quotations/estimating-and-pricing/indirects-overheads-general-conditions/" target="_top">
    <rect x="1074.69" y="50.00" width="267.19" height="25" rx="4" ry="4" fill="none" stroke="none" pointer-events="all" />
    <text x="1084.69" y="67.00" text-anchor="start" font-family="Roboto, sans-serif" font-size="13" fill="#4051B5" font-weight="normal">Indirects, Overheads &amp; General Conditions</text>
  </a>
  <a xlink:href="/use-case/construction-project-quotations/estimating-and-pricing/labor-productivity-and-crew-modeling/" target="_top">
    <rect x="1074.69" y="75.00" width="226.70" height="25" rx="4" ry="4" fill="none" stroke="none" pointer-events="all" />
    <text x="1084.69" y="92.00" text-anchor="start" font-family="Roboto, sans-serif" font-size="13" fill="#4051B5" font-weight="normal">Labor Productivity &amp; Crew Modeling</text>
  </a>
  <a xlink:href="/use-case/construction-project-quotations/estimating-and-pricing/pricing-strategy-margin-markups/" target="_top">
    <rect x="1074.69" y="100.00" width="217.27" height="25" rx="4" ry="4" fill="none" stroke="none" pointer-events="all" />
    <text x="1084.69" y="117.00" text-anchor="start" font-family="Roboto, sans-serif" font-size="13" fill="#4051B5" font-weight="normal">Pricing Strategy (Margin/Markups)</text>
  </a>
  <a xlink:href="/use-case/construction-project-quotations/estimating-and-pricing/quantity-takeoff/" target="_top">
    <rect x="1074.69" y="125.00" width="189.33" height="25" rx="4" ry="4" fill="none" stroke="none" pointer-events="all" />
    <text x="1084.69" y="142.00" text-anchor="start" font-family="Roboto, sans-serif" font-size="13" fill="#4051B5" font-weight="normal">Quantity Takeoff (2D/3D/BIM)</text>
  </a>
  <a xlink:href="/use-case/construction-project-quotations/estimating-and-pricing/unit-rates-and-cost-libraries/" target="_top">
    <rect x="1074.69" y="150.00" width="176.81" height="25" rx="4" ry="4" fill="none" stroke="none" pointer-events="all" />
    <text x="1084.69" y="167.00" text-anchor="start" font-family="Roboto, sans-serif" font-size="13" fill="#4051B5" font-weight="normal">Unit Rates &amp; Cost Libraries</text>
  </a>
  <a xlink:href="/use-case/construction-project-quotations/knowledge-capture-and-improvement/" target="_top">
    <rect x="729.28" y="337.50" width="295.41" height="25" rx="4" ry="4" fill="none" stroke="none" pointer-events="all" />
    <text x="739.28" y="354.50" text-anchor="start" font-family="Roboto, sans-serif" font-size="13" fill="#4051B5" font-weight="normal">Knowledge Capture &amp; Continuous Improvement</text>
  </a>
  <a xlink:href="/use-case/construction-project-quotations/knowledge-capture-and-improvement/document-ingestion-and-knowledge-extraction/" target="_top">
    <rect x="1074.69" y="175.00" width="277.33" height="25" rx="4" ry="4" fill="none" stroke="none" pointer-events="all" />
    <text x="1084.69" y="192.00" text-anchor="start" font-family="Roboto, sans-serif" font-size="13" fill="#4051B5" font-weight="normal">Document Ingestion &amp; Knowledge Extraction</text>
  </a>
  <a xlink:href="/use-case/construction-project-quotations/knowledge-capture-and-improvement/estimate-vs-actual-and-lessons-learned/" target="_top">
    <rect x="1074.69" y="200.00" width="241.89" height="25" rx="4" ry="4" fill="none" stroke="none" pointer-events="all" />
    <text x="1084.69" y="217.00" text-anchor="start" font-family="Roboto, sans-serif" font-size="13" fill="#4051B5" font-weight="normal">Estimate vs Actual &amp; Lessons Learned</text>
  </a>
  <a xlink:href="/use-case/construction-project-quotations/knowledge-capture-and-improvement/sme-knowledge-capture/" target="_top">
    <rect x="1074.69" y="225.00" width="166.02" height="25" rx="4" ry="4" fill="none" stroke="none" pointer-events="all" />
    <text x="1084.69" y="242.00" text-anchor="start" font-family="Roboto, sans-serif" font-size="13" fill="#4051B5" font-weight="normal">SME Knowledge Capture</text>
  </a>
  <a xlink:href="/use-case/construction-project-quotations/knowledge-capture-and-improvement/traceability-and-provenance/" target="_top">
    <rect x="1074.69" y="250.00" width="171.30" height="25" rx="4" ry="4" fill="none" stroke="none" pointer-events="all" />
    <text x="1084.69" y="267.00" text-anchor="start" font-family="Roboto, sans-serif" font-size="13" fill="#4051B5" font-weight="normal">Traceability &amp; Provenance</text>
  </a>
  <a xlink:href="/use-case/construction-project-quotations/opportunity-and-tender-intake/" target="_top">
    <rect x="729.28" y="362.50" width="181.67" height="25" rx="4" ry="4" fill="none" stroke="none" pointer-events="all" />
    <text x="739.28" y="379.50" text-anchor="start" font-family="Roboto, sans-serif" font-size="13" fill="#4051B5" font-weight="normal">Opportunity &amp; Tender Intake</text>
  </a>
  <a xlink:href="/use-case/construction-project-quotations/opportunity-and-tender-intake/bid-no-bid-decisioning/" target="_top">
    <rect x="1074.69" y="275.00" width="153.00" height="25" rx="4" ry="4" fill="none" stroke="none" pointer-events="all" />
    <text x="1084.69" y="292.00" text-anchor="start" font-family="Roboto, sans-serif" font-size="13" fill="#4051B5" font-weight="normal">Bid/No-Bid Decisioning</text>
  </a>
  <a xlink:href="/use-case/construction-project-quotations/opportunity-and-tender-intake/rfp-rfq-intake/" target="_top">
    <rect x="1074.69" y="300.00" width="239.67" height="25" rx="4" ry="4" fill="none" stroke="none" pointer-events="all" />
    <text x="1084.69" y="317.00" text-anchor="start" font-family="Roboto, sans-serif" font-size="13" fill="#4051B5" font-weight="normal">RFP/RFQ Intake &amp; Document Catalog</text>
  </a>
  <a xlink:href="/use-case/construction-project-quotations/opportunity-and-tender-intake/site-visit-and-existing-conditions/" target="_top">
    <rect x="1074.69" y="325.00" width="196.83" height="25" rx="4" ry="4" fill="none" stroke="none" pointer-events="all" />
    <text x="1084.69" y="342.00" text-anchor="start" font-family="Roboto, sans-serif" font-size="13" fill="#4051B5" font-weight="normal">Site Visit &amp; Existing Conditions</text>
  </a>
  <a xlink:href="/use-case/construction-project-quotations/proposal-submission-and-negotiation/" target="_top">
    <rect x="729.28" y="387.50" width="153.02" height="25" rx="4" ry="4" fill="none" stroke="none" pointer-events="all" />
    <text x="739.28" y="404.50" text-anchor="start" font-family="Roboto, sans-serif" font-size="13" fill="#4051B5" font-weight="normal">Proposal &amp; Negotiation</text>
  </a>
  <a xlink:href="/use-case/construction-project-quotations/proposal-submission-and-negotiation/compliance-matrix-and-submission-packaging/" target="_top">
    <rect x="1074.69" y="350.00" width="275.12" height="25" rx="4" ry="4" fill="none" stroke="none" pointer-events="all" />
    <text x="1084.69" y="367.00" text-anchor="start" font-family="Roboto, sans-serif" font-size="13" fill="#4051B5" font-weight="normal">Compliance Matrix &amp; Submission Packaging</text>
  </a>
  <a xlink:href="/use-case/construction-project-quotations/proposal-submission-and-negotiation/negotiation-support-and-revisions/" target="_top">
    <rect x="1074.69" y="375.00" width="207.22" height="25" rx="4" ry="4" fill="none" stroke="none" pointer-events="all" />
    <text x="1084.69" y="392.00" text-anchor="start" font-family="Roboto, sans-serif" font-size="13" fill="#4051B5" font-weight="normal">Negotiation Support &amp; Revisions</text>
  </a>
  <a xlink:href="/use-case/construction-project-quotations/proposal-submission-and-negotiation/proposal-document-generation/" target="_top">
    <rect x="1074.69" y="400.00" width="273.69" height="25" rx="4" ry="4" fill="none" stroke="none" pointer-events="all" />
    <text x="1084.69" y="417.00" text-anchor="start" font-family="Roboto, sans-serif" font-size="13" fill="#4051B5" font-weight="normal">Proposal Document Generation &amp; Assembly</text>
  </a>
  <a xlink:href="/use-case/construction-project-quotations/risk-compliance-and-contracts/" target="_top">
    <rect x="729.28" y="412.50" width="192.70" height="25" rx="4" ry="4" fill="none" stroke="none" pointer-events="all" />
    <text x="739.28" y="429.50" text-anchor="start" font-family="Roboto, sans-serif" font-size="13" fill="#4051B5" font-weight="normal">Risk, Compliance &amp; Contracts</text>
  </a>
  <a xlink:href="/use-case/construction-project-quotations/risk-compliance-and-contracts/bonds-insurance-warranties/" target="_top">
    <rect x="1074.69" y="425.00" width="199.47" height="25" rx="4" ry="4" fill="none" stroke="none" pointer-events="all" />
    <text x="1084.69" y="442.00" text-anchor="start" font-family="Roboto, sans-serif" font-size="13" fill="#4051B5" font-weight="normal">Bonds, Insurance &amp; Warranties</text>
  </a>
  <a xlink:href="/use-case/construction-project-quotations/risk-compliance-and-contracts/contract-terms-and-commercial-review/" target="_top">
    <rect x="1074.69" y="450.00" width="239.41" height="25" rx="4" ry="4" fill="none" stroke="none" pointer-events="all" />
    <text x="1084.69" y="467.00" text-anchor="start" font-family="Roboto, sans-serif" font-size="13" fill="#4051B5" font-weight="normal">Contract Terms &amp; Commercial Review</text>
  </a>
  <a xlink:href="/use-case/construction-project-quotations/risk-compliance-and-contracts/regulatory-safety-environmental-compliance/" target="_top">
    <rect x="1074.69" y="475.00" width="297.30" height="25" rx="4" ry="4" fill="none" stroke="none" pointer-events="all" />
    <text x="1084.69" y="492.00" text-anchor="start" font-family="Roboto, sans-serif" font-size="13" fill="#4051B5" font-weight="normal">Regulatory, Safety &amp; Environmental Compliance</text>
  </a>
  <a xlink:href="/use-case/construction-project-quotations/risk-compliance-and-contracts/risk-register-and-scenario-analysis/" target="_top">
    <rect x="1074.69" y="500.00" width="215.84" height="25" rx="4" ry="4" fill="none" stroke="none" pointer-events="all" />
    <text x="1084.69" y="517.00" text-anchor="start" font-family="Roboto, sans-serif" font-size="13" fill="#4051B5" font-weight="normal">Risk Register &amp; Scenario Analysis</text>
  </a>
  <a xlink:href="/use-case/construction-project-quotations/scope-and-requirements/" target="_top">
    <rect x="729.28" y="437.50" width="153.72" height="25" rx="4" ry="4" fill="none" stroke="none" pointer-events="all" />
    <text x="739.28" y="454.50" text-anchor="start" font-family="Roboto, sans-serif" font-size="13" fill="#4051B5" font-weight="normal">Scope &amp; Requirements</text>
  </a>
  <a xlink:href="/use-case/construction-project-quotations/scope-and-requirements/assumptions-exclusions-qualifications/" target="_top">
    <rect x="1074.69" y="525.00" width="257.77" height="25" rx="4" ry="4" fill="none" stroke="none" pointer-events="all" />
    <text x="1084.69" y="542.00" text-anchor="start" font-family="Roboto, sans-serif" font-size="13" fill="#4051B5" font-weight="normal">Assumptions, Exclusions &amp; Qualifications</text>
  </a>
  <a xlink:href="/use-case/construction-project-quotations/scope-and-requirements/constructability-review/" target="_top">
    <rect x="1074.69" y="550.00" width="155.14" height="25" rx="4" ry="4" fill="none" stroke="none" pointer-events="all" />
    <text x="1084.69" y="567.00" text-anchor="start" font-family="Roboto, sans-serif" font-size="13" fill="#4051B5" font-weight="normal">Constructability Review</text>
  </a>
  <a xlink:href="/use-case/construction-project-quotations/scope-and-requirements/rfis-clarifications-addenda/" target="_top">
    <rect x="1074.69" y="575.00" width="196.34" height="25" rx="4" ry="4" fill="none" stroke="none" pointer-events="all" />
    <text x="1084.69" y="592.00" text-anchor="start" font-family="Roboto, sans-serif" font-size="13" fill="#4051B5" font-weight="normal">RFIs, Clarifications &amp; Addenda</text>
  </a>
  <a xlink:href="/use-case/construction-project-quotations/scope-and-requirements/scope-decomposition-wbs-boq/" target="_top">
    <rect x="1074.69" y="600.00" width="218.00" height="25" rx="4" ry="4" fill="none" stroke="none" pointer-events="all" />
    <text x="1084.69" y="617.00" text-anchor="start" font-family="Roboto, sans-serif" font-size="13" fill="#4051B5" font-weight="normal">Scope Decomposition (WBS/BoQ)</text>
  </a>
  <a xlink:href="/use-case/construction-project-quotations/supply-chain-and-subcontractors/" target="_top">
    <rect x="729.28" y="462.50" width="200.70" height="25" rx="4" ry="4" fill="none" stroke="none" pointer-events="all" />
    <text x="739.28" y="479.50" text-anchor="start" font-family="Roboto, sans-serif" font-size="13" fill="#4051B5" font-weight="normal">Supply Chain &amp; Subcontractors</text>
  </a>
  <a xlink:href="/use-case/construction-project-quotations/supply-chain-and-subcontractors/bid-leveling/" target="_top">
    <rect x="1074.69" y="625.00" width="231.78" height="25" rx="4" ry="4" fill="none" stroke="none" pointer-events="all" />
    <text x="1084.69" y="642.00" text-anchor="start" font-family="Roboto, sans-serif" font-size="13" fill="#4051B5" font-weight="normal">Bid Leveling &amp; Comparative Analysis</text>
  </a>
  <a xlink:href="/use-case/construction-project-quotations/supply-chain-and-subcontractors/inventory-and-distribution-constraints/" target="_top">
    <rect x="1074.69" y="650.00" width="223.80" height="25" rx="4" ry="4" fill="none" stroke="none" pointer-events="all" />
    <text x="1084.69" y="667.00" text-anchor="start" font-family="Roboto, sans-serif" font-size="13" fill="#4051B5" font-weight="normal">Inventory &amp; Distribution Constraints</text>
  </a>
  <a xlink:href="/use-case/construction-project-quotations/supply-chain-and-subcontractors/payments-terms-and-cash-flow/" target="_top">
    <rect x="1074.69" y="675.00" width="197.50" height="25" rx="4" ry="4" fill="none" stroke="none" pointer-events="all" />
    <text x="1084.69" y="692.00" text-anchor="start" font-family="Roboto, sans-serif" font-size="13" fill="#4051B5" font-weight="normal">Payments, Terms &amp; Cash Flow</text>
  </a>
  <a xlink:href="/use-case/construction-project-quotations/supply-chain-and-subcontractors/subcontractor-bid-solicitation-and-comparison/" target="_top">
    <rect x="1074.69" y="700.00" width="275.86" height="25" rx="4" ry="4" fill="none" stroke="none" pointer-events="all" />
    <text x="1084.69" y="717.00" text-anchor="start" font-family="Roboto, sans-serif" font-size="13" fill="#4051B5" font-weight="normal">Subcontractor Bid Solicitation &amp; Comparison</text>
  </a>
  <a xlink:href="/use-case/construction-project-quotations/supply-chain-and-subcontractors/subcontractor-scope-packages/" target="_top">
    <rect x="1074.69" y="725.00" width="202.16" height="25" rx="4" ry="4" fill="none" stroke="none" pointer-events="all" />
    <text x="1084.69" y="742.00" text-anchor="start" font-family="Roboto, sans-serif" font-size="13" fill="#4051B5" font-weight="normal">Subcontractor Scope Packages</text>
  </a>
  <a xlink:href="/use-case/construction-project-quotations/supply-chain-and-subcontractors/supplier-rfqs-and-material-pricing/" target="_top">
    <rect x="1074.69" y="750.00" width="210.77" height="25" rx="4" ry="4" fill="none" stroke="none" pointer-events="all" />
    <text x="1084.69" y="767.00" text-anchor="start" font-family="Roboto, sans-serif" font-size="13" fill="#4051B5" font-weight="normal">Supplier RFQs &amp; Material Pricing</text>
  </a>
</svg>