<svg xmlns="http://www.w3.org/2000/svg" xmlns:xlink="http://www.w3.org/1999/xlink" viewBox="395.00 20.00 958.59 760.00" width="958.59px" height="760.00px" class="use-case-tree-svg">
  <rect width="100%" height="100%" fill="transparent" />
  <path d="M 657.62 400.00 C 682.38 400.00, 687.88 325.00, 712.62 325.00" stroke="#FF9900" stroke-width="1.5" fill="none" />
  <path d="M 657.62 400.00 C 682.38 400.00, 687.88 350.00, 712.62 350.00" stroke="#FF9900" stroke-width="1.5" fill="none" />
  <path d="M 657.62 400.00 C 682.38 400.00, 687.88 375.00, 712.62 375.00" stroke="#FF9900" stroke-width="1.5" fill="none" />
  <path d="M 657.62 400.00 C 682.38 400.00, 687.88 400.00, 712.62 400.00" stroke="#FF9900" stroke-width="1.5" fill="none" />
  <path d="M 657.62 400.00 C 682.38 400.00, 687.88 425.00, 712.62 425.00" stroke="#FF9900" stroke-width="1.5" fill="none" />
  <path d="M 657.62 400.00 C 682.38 400.00, 687.88 450.00, 712.62 450.00" stroke="#FF9900" stroke-width="1.5" fill="none" />
  <path d="M 657.62 400.00 C 682.38 400.00, 687.88 475.00, 712.62 475.00" stroke="#FF9900" stroke-width="1.5" fill="none" />
  <line x1="849.22" y1="325.00" x2="1000.75" y2="325.00" stroke="#FF9900" stroke-width="1.5" />
  <path d="M 1000.75 325.00 C 1025.50 325.00, 1031.00 37.50, 1055.75 37.50" stroke="#FF9900" stroke-width="1.5" fill="none" />
  <line x1="849.22" y1="325.00" x2="1000.75" y2="325.00" stroke="#FF9900" stroke-width="1.5" />
  <path d="M 1000.75 325.00 C 1025.50 325.00, 1031.00 62.50, 1055.75 62.50" stroke="#FF9900" stroke-width="1.5" fill="none" />
  <line x1="849.22" y1="325.00" x2="1000.75" y2="325.00" stroke="#FF9900" stroke-width="1.5" />
  <path d="M 1000.75 325.00 C 1025.50 325.00, 1031.00 87.50, 1055.75 87.50" stroke="#FF9900" stroke-width="1.5" fill="none" />
  <line x1="849.22" y1="325.00" x2="1000.75" y2="325.00" stroke="#FF9900" stroke-width="1.5" />
  <path d="M 1000.75 325.00 C 1025.50 325.00, 1031.00 112.50, 1055.75 112.50" stroke="#FF9900" stroke-width="1.5" fill="none" />
  <line x1="849.22" y1="325.00" x2="1000.75" y2="325.00" stroke="#FF9900" stroke-width="1.5" />
  <path d="M 1000.75 325.00 C 1025.50 325.00, 1031.00 137.50, 1055.75 137.50" stroke="#FF9900" stroke-width="1.5" fill="none" />
  <line x1="849.22" y1="325.00" x2="1000.75" y2="325.00" stroke="#FF9900" stroke-width="1.5" />
  <path d="M 1000.75 325.00 C 1025.50 325.00, 1031.00 162.50, 1055.75 162.50" stroke="#FF9900" stroke-width="1.5" fill="none" />
  <path d="M 1000.75 350.00 C 1025.50 350.00, 1031.00 187.50, 1055.75 187.50" stroke="#FF9900" stroke-width="1.5" fill="none" />
  <path d="M 1000.75 350.00 C 1025.50 350.00, 1031.00 212.50, 1055.75 212.50" stroke="#FF9900" stroke-width="1.5" fill="none" />
  <path d="M 1000.75 350.00 C 1025.50 350.00, 1031.00 237.50, 1055.75 237.50" stroke="#FF9900" stroke-width="1.5" fill="none" />
  <path d="M 1000.75 350.00 C 1025.50 350.00, 1031.00 262.50, 1055.75 262.50" stroke="#FF9900" stroke-width="1.5" fill="none" />
  <line x1="893.16" y1="375.00" x2="1000.75" y2="375.00" stroke="#FF9900" stroke-width="1.5" />
  <path d="M 1000.75 375.00 C 1025.50 375.00, 1031.00 287.50, 1055.75 287.50" stroke="#FF9900" stroke-width="1.5" fill="none" />
  <line x1="893.16" y1="375.00" x2="1000.75" y2="375.00" stroke="#FF9900" stroke-width="1.5" />
  <path d="M 1000.75 375.00 C 1025.50 375.00, 1031.00 312.50, 1055.75 312.50" stroke="#FF9900" stroke-width="1.5" fill="none" />
  <line x1="893.16" y1="375.00" x2="1000.75" y2="375.00" stroke="#FF9900" stroke-width="1.5" />
  <path d="M 1000.75 375.00 C 1025.50 375.00, 1031.00 337.50, 1055.75 337.50" stroke="#FF9900" stroke-width="1.5" fill="none" />
  <line x1="866.09" y1="400.00" x2="1000.75" y2="400.00" stroke="#FF9900" stroke-width="1.5" />
  <path d="M 1000.75 400.00 C 1025.50 400.00, 1031.00 362.50, 1055.75 362.50" stroke="#FF9900" stroke-width="1.5" fill="none" />
  <line x1="866.09" y1="400.00" x2="1000.75" y2="400.00" stroke="#FF9900" stroke-width="1.5" />
  <path d="M 1000.75 400.00 C 1025.50 400.00, 1031.00 387.50, 1055.75 387.50" stroke="#FF9900" stroke-width="1.5" fill="none" />
  <line x1="866.09" y1="400.00" x2="1000.75" y2="400.00" stroke="#FF9900" stroke-width="1.5" />
  <path d="M 1000.75 400.00 C 1025.50 400.00, 1031.00 412.50, 1055.75 412.50" stroke="#FF9900" stroke-width="1.5" fill="none" />
  <line x1="902.58" y1="425.00" x2="1000.75" y2="425.00" stroke="#FF9900" stroke-width="1.5" />
  <path d="M 1000.75 425.00 C 1025.50 425.00, 1031.00 437.50, 1055.75 437.50" stroke="#FF9900" stroke-width="1.5" fill="none" />
  <line x1="902.58" y1="425.00" x2="1000.75" y2="425.00" stroke="#FF9900" stroke-width="1.5" />
  <path d="M 1000.75 425.00 C 1025.50 425.00, 1031.00 462.50, 1055.75 462.50" stroke="#FF9900" stroke-width="1.5" fill="none" />
  <line x1="902.58" y1="425.00" x2="1000.75" y2="425.00" stroke="#FF9900" stroke-width="1.5" />
  <path d="M 1000.75 425.00 C 1025.50 425.00, 1031.00 487.50, 1055.75 487.50" stroke="#FF9900" stroke-width="1.5" fill="none" />
  <line x1="902.58" y1="425.00" x2="1000.75" y2="425.00" stroke="#FF9900" stroke-width="1.5" />
  <path d="M 1000.75 425.00 C 1025.50 425.00, 1031.00 512.50, 1055.75 512.50" stroke="#FF9900" stroke-width="1.5" fill="none" />
  <line x1="863.52" y1="450.00" x2="1000.75" y2="450.00" stroke="#FF9900" stroke-width="1.5" />
  <path d="M 1000.75 450.00 C 1025.50 450.00, 1031.00 537.50, 1055.75 537.50" stroke="#FF9900" stroke-width="1.5" fill="none" />
  <line x1="863.52" y1="450.00" x2="1000.75" y2="450.00" stroke="#FF9900" stroke-width="1.5" />
  <path d="M 1000.75 450.00 C 1025.50 450.00, 1031.00 562.50, 1055.75 562.50" stroke="#FF9900" stroke-width="1.5" fill="none" />
  <line x1="863.52" y1="450.00" x2="1000.75" y2="450.00" stroke="#FF9900" stroke-width="1.5" />
  <path d="M 1000.75 450.00 C 1025.50 450.00, 1031.00 587.50, 1055.75 587.50" stroke="#FF9900" stroke-width="1.5" fill="none" />
  <line x1="863.52" y1="450.00" x2="1000.75" y2="450.00" stroke="#FF9900" stroke-width="1.5" />
  <path d="M 1000.75 450.00 C 1025.50 450.00, 1031.00 612.50, 1055.75 612.50" stroke="#FF9900" stroke-width="1.5" fill="none" />
  <line x1="910.75" y1="475.00" x2="1000.75" y2="475.00" stroke="#FF9900" stroke-width="1.5" />
  <path d="M 1000.75 475.00 C 1025.50 475.00, 1031.00 637.50, 1055.75 637.50" stroke="#FF9900" stroke-width="1.5" fill="none" />
  <line x1="910.75" y1="475.00" x2="1000.75" y2="475.00" stroke="#FF9900" stroke-width="1.5" />
  <path d="M 1000.75 475.00 C 1025.50 475.00, 1031.00 662.50, 1055.75 662.50" stroke="#FF9900" stroke-width="1.5" fill="none" />
  <line x1="910.75" y1="475.00" x2="1000.75" y2="475.00" stroke="#FF9900" stroke-width="1.5" />
  <path d="M 1000.75 475.00 C 1025.50 475.00, 1031.00 687.50, 1055.75 687.50" stroke="#FF9900" stroke-width="1.5" fill="none" />
  <line x1="910.75" y1="475.00" x2="1000.75" y2="475.00" stroke="#FF9900" stroke-width="1.5" />
  <path d="M 1000.75 475.00 C 1025.50 475.00, 1031.00 712.50, 1055.75 712.50" stroke="#FF9900" stroke-width="1.5" fill="none" />
  <line x1="910.75" y1="475.00" x2="1000.75" y2="475.00" stroke="#FF9900" stroke-width="1.5" />
  <path d="M 1000.75 475.00 C 1025.50 475.00, 1031.00 737.50, 1055.75 737.50" stroke="#FF9900" stroke-width="1.5" fill="none" />
  <line x1="910.75" y1="475.00" x2="1000.75" y2="475.00" stroke="#FF9900" stroke-width="1.5" />
  <path d="M 1000.75 475.00 C 1025.50 475.00, 1031.00 762.50, 1055.75 762.50" stroke="#FF9900" stroke-width="1.5" fill="none" />
  <a xlink:href="/use-case/construction-project-quotations/" target="_top">
    <rect x="400.00" y="387.50" width="262.62" height="25" rx="4" ry="4" fill="#4051B5" stroke="#FF6F00" stroke-width="1.5" />
    <text x="410.00" y="404.50" text-anchor="start" font-family="Roboto, sans-serif" font-size="13" fill="#FFFFFF" font-weight="bold">Complex Construction Project Quotations</text>
  </a>
  <a xlink:href="/use-case/construction-project-quotations/estimating-and-pricing/" target="_top">
    <rect x="712.62" y="312.50" width="136.59" height="25" rx="4" ry="4" fill="none" stroke="none" pointer-events="all" />
    <text x="722.62" y="329.50" text-anchor="start" font-family="Roboto, sans-serif" font-size="13" fill="#90EE90" font-weight="normal">Estimating &amp; Pricing</text>
  </a>
  <a xlink:href="/use-case/construction-project-quotations/estimating-and-pricing/contingency-and-escalation/" target="_top">
    <rect x="1055.75" y="25.00" width="166.72" height="25" rx="4" ry="4" fill="none" stroke="none" pointer-events="all" />
    <text x="1065.75" y="42.00" text-anchor="start" font-family="Roboto, sans-serif" font-size="13" fill="#90EE90" font-weight="normal">Contingency &amp; Escalation</text>
  </a>
  <a xlink:href="/use-case/construction-project-quotations/estimating-and-pricing/indirects-overheads-general-conditions/" target="_top">
    <rect x="1055.75" y="50.00" width="261.72" height="25" rx="4" ry="4" fill="none" stroke="none" pointer-events="all" />
    <text x="1065.75" y="67.00" text-anchor="start" font-family="Roboto, sans-serif" font-size="13" fill="#90EE90" font-weight="normal">Indirects, Overheads &amp; General Conditions</text>
  </a>
  <a xlink:href="/use-case/construction-project-quotations/estimating-and-pricing/labor-productivity-and-crew-modeling/" target="_top">
    <rect x="1055.75" y="75.00" width="225.83" height="25" rx="4" ry="4" fill="none" stroke="none" pointer-events="all" />
    <text x="1065.75" y="92.00" text-anchor="start" font-family="Roboto, sans-serif" font-size="13" fill="#90EE90" font-weight="normal">Labor Productivity &amp; Crew Modeling</text>
  </a>
  <a xlink:href="/use-case/construction-project-quotations/estimating-and-pricing/pricing-strategy-margin-markups/" target="_top">
    <rect x="1055.75" y="100.00" width="219.70" height="25" rx="4" ry="4" fill="none" stroke="none" pointer-events="all" />
    <text x="1065.75" y="117.00" text-anchor="start" font-family="Roboto, sans-serif" font-size="13" fill="#90EE90" font-weight="normal">Pricing Strategy (Margin/Markups)</text>
  </a>
  <a xlink:href="/use-case/construction-project-quotations/estimating-and-pricing/quantity-takeoff/" target="_top">
    <rect x="1055.75" y="125.00" width="192.64" height="25" rx="4" ry="4" fill="none" stroke="none" pointer-events="all" />
    <text x="1065.75" y="142.00" text-anchor="start" font-family="Roboto, sans-serif" font-size="13" fill="#90EE90" font-weight="normal">Quantity Takeoff (2D/3D/BIM)</text>
  </a>
  <a xlink:href="/use-case/construction-project-quotations/estimating-and-pricing/unit-rates-and-cost-libraries/" target="_top">
    <rect x="1055.75" y="150.00" width="173.61" height="25" rx="4" ry="4" fill="none" stroke="none" pointer-events="all" />
    <text x="1065.75" y="167.00" text-anchor="start" font-family="Roboto, sans-serif" font-size="13" fill="#90EE90" font-weight="normal">Unit Rates &amp; Cost Libraries</text>
  </a>
  <a xlink:href="/use-case/construction-project-quotations/knowledge-capture-and-improvement/" target="_top">
    <rect x="712.62" y="337.50" width="293.12" height="25" rx="4" ry="4" fill="none" stroke="none" pointer-events="all" />
    <text x="722.62" y="354.50" text-anchor="start" font-family="Roboto, sans-serif" font-size="13" fill="#90EE90" font-weight="normal">Knowledge Capture &amp; Continuous Improvement</text>
  </a>
  <a xlink:href="/use-case/construction-project-quotations/knowledge-capture-and-improvement/document-ingestion-and-knowledge-extraction/" target="_top">
    <rect x="1055.75" y="175.00" width="276.30" height="25" rx="4" ry="4" fill="none" stroke="none" pointer-events="all" />
    <text x="1065.75" y="192.00" text-anchor="start" font-family="Roboto, sans-serif" font-size="13" fill="#90EE90" font-weight="normal">Document Ingestion &amp; Knowledge Extraction</text>
  </a>
  <a xlink:href="/use-case/construction-project-quotations/knowledge-capture-and-improvement/estimate-vs-actual-and-lessons-learned/" target="_top">
    <rect x="1055.75" y="200.00" width="240.62" height="25" rx="4" ry="4" fill="none" stroke="none" pointer-events="all" />
    <text x="1065.75" y="217.00" text-anchor="start" font-family="Roboto, sans-serif" font-size="13" fill="#90EE90" font-weight="normal">Estimate vs Actual &amp; Lessons Learned</text>
  </a>
  <a xlink:href="/use-case/construction-project-quotations/knowledge-capture-and-improvement/sme-knowledge-capture/" target="_top">
    <rect x="1055.75" y="225.00" width="162.27" height="25" rx="4" ry="4" fill="none" stroke="none" pointer-events="all" />
    <text x="1065.75" y="242.00" text-anchor="start" font-family="Roboto, sans-serif" font-size="13" fill="#90EE90" font-weight="normal">SME Knowledge Capture</text>
  </a>
  <a xlink:href="/use-case/construction-project-quotations/knowledge-capture-and-improvement/traceability-and-provenance/" target="_top">
    <rect x="1055.75" y="250.00" width="169.05" height="25" rx="4" ry="4" fill="none" stroke="none" pointer-events="all" />
    <text x="1065.75" y="267.00" text-anchor="start" font-family="Roboto, sans-serif" font-size="13" fill="#90EE90" font-weight="normal">Traceability &amp; Provenance</text>
  </a>
  <a xlink:href="/use-case/construction-project-quotations/opportunity-and-tender-intake/" target="_top">
    <rect x="712.62" y="362.50" width="180.53" height="25" rx="4" ry="4" fill="none" stroke="none" pointer-events="all" />
    <text x="722.62" y="379.50" text-anchor="start" font-family="Roboto, sans-serif" font-size="13" fill="#90EE90" font-weight="normal">Opportunity &amp; Tender Intake</text>
  </a>
  <a xlink:href="/use-case/construction-project-quotations/opportunity-and-tender-intake/bid-no-bid-decisioning/" target="_top">
    <rect x="1055.75" y="275.00" width="153.50" height="25" rx="4" ry="4" fill="none" stroke="none" pointer-events="all" />
    <text x="1065.75" y="292.00" text-anchor="start" font-family="Roboto, sans-serif" font-size="13" fill="#90EE90" font-weight="normal">Bid/No-Bid Decisioning</text>
  </a>
  <a xlink:href="/use-case/construction-project-quotations/opportunity-and-tender-intake/rfp-rfq-intake/" target="_top">
    <rect x="1055.75" y="300.00" width="233.67" height="25" rx="4" ry="4" fill="none" stroke="none" pointer-events="all" />
    <text x="1065.75" y="317.00" text-anchor="start" font-family="Roboto, sans-serif" font-size="13" fill="#90EE90" font-weight="normal">RFP/RFQ Intake &amp; Document Catalog</text>
  </a>
  <a xlink:href="/use-case/construction-project-quotations/opportunity-and-tender-intake/site-visit-and-existing-conditions/" target="_top">
    <rect x="1055.75" y="325.00" width="196.36" height="25" rx="4" ry="4" fill="none" stroke="none" pointer-events="all" />
    <text x="1065.75" y="342.00" text-anchor="start" font-family="Roboto, sans-serif" font-size="13" fill="#90EE90" font-weight="normal">Site Visit &amp; Existing Conditions</text>
  </a>
  <a xlink:href="/use-case/construction-project-quotations/proposal-submission-and-negotiation/" target="_top">
    <rect x="712.62" y="387.50" width="153.47" height="25" rx="4" ry="4" fill="none" stroke="none" pointer-events="all" />
    <text x="722.62" y="404.50" text-anchor="start" font-family="Roboto, sans-serif" font-size="13" fill="#90EE90" font-weight="normal">Proposal &amp; Negotiation</text>
  </a>
  <a xlink:href="/use-case/construction-project-quotations/proposal-submission-and-negotiation/compliance-matrix-and-submission-packaging/" target="_top">
    <rect x="1055.75" y="350.00" width="275.05" height="25" rx="4" ry="4" fill="none" stroke="none" pointer-events="all" />
    <text x="1065.75" y="367.00" text-anchor="start" font-family="Roboto, sans-serif" font-size="13" fill="#90EE90" font-weight="normal">Compliance Matrix &amp; Submission Packaging</text>
  </a>
  <a xlink:href="/use-case/construction-project-quotations/proposal-submission-and-negotiation/negotiation-support-and-revisions/" target="_top">
    <rect x="1055.75" y="375.00" width="206.44" height="25" rx="4" ry="4" fill="none" stroke="none" pointer-events="all" />
    <text x="1065.75" y="392.00" text-anchor="start" font-family="Roboto, sans-serif" font-size="13" fill="#90EE90" font-weight="normal">Negotiation Support &amp; Revisions</text>
  </a>
  <a xlink:href="/use-case/construction-project-quotations/proposal-submission-and-negotiation/proposal-document-generation/" target="_top">
    <rect x="1055.75" y="400.00" width="272.03" height="25" rx="4" ry="4" fill="none" stroke="none" pointer-events="all" />
    <text x="1065.75" y="417.00" text-anchor="start" font-family="Roboto, sans-serif" font-size="13" fill="#90EE90" font-weight="normal">Proposal Document Generation &amp; Assembly</text>
  </a>
  <a xlink:href="/use-case/construction-project-quotations/risk-compliance-and-contracts/" target="_top">
    <rect x="712.62" y="412.50" width="189.95" height="25" rx="4" ry="4" fill="none" stroke="none" pointer-events="all" />
    <text x="722.62" y="429.50" text-anchor="start" font-family="Roboto, sans-serif" font-size="13" fill="#90EE90" font-weight="normal">Risk, Compliance &amp; Contracts</text>
  </a>
  <a xlink:href="/use-case/construction-project-quotations/risk-compliance-and-contracts/bonds-insurance-warranties/" target="_top">
    <rect x="1055.75" y="425.00" width="195.94" height="25" rx="4" ry="4" fill="none" stroke="none" pointer-events="all" />
    <text x="1065.75" y="442.00" text-anchor="start" font-family="Roboto, sans-serif" font-size="13" fill="#90EE90" font-weight="normal">Bonds, Insurance &amp; Warranties</text>
  </a>
  <a xlink:href="/use-case/construction-project-quotations/risk-compliance-and-contracts/contract-terms-and-commercial-review/" target="_top">
    <rect x="1055.75" y="450.00" width="237.88" height="25" rx="4" ry="4" fill="none" stroke="none" pointer-events="all" />
    <text x="1065.75" y="467.00" text-anchor="start" font-family="Roboto, sans-serif" font-size="13" fill="#90EE90" font-weight="normal">Contract Terms &amp; Commercial Review</text>
  </a>
  <a xlink:href="/use-case/construction-project-quotations/risk-compliance-and-contracts/regulatory-safety-environmental-compliance/" target="_top">
    <rect x="1055.75" y="475.00" width="292.84" height="25" rx="4" ry="4" fill="none" stroke="none" pointer-events="all" />
    <text x="1065.75" y="492.00" text-anchor="start" font-family="Roboto, sans-serif" font-size="13" fill="#90EE90" font-weight="normal">Regulatory, Safety &amp; Environmental Compliance</text>
  </a>
  <a xlink:href="/use-case/construction-project-quotations/risk-compliance-and-contracts/risk-register-and-scenario-analysis/" target="_top">
    <rect x="1055.75" y="500.00" width="212.31" height="25" rx="4" ry="4" fill="none" stroke="none" pointer-events="all" />
    <text x="1065.75" y="517.00" text-anchor="start" font-family="Roboto, sans-serif" font-size="13" fill="#90EE90" font-weight="normal">Risk Register &amp; Scenario Analysis</text>
  </a>
  <a xlink:href="/use-case/construction-project-quotations/scope-and-requirements/" target="_top">
    <rect x="712.62" y="437.50" width="150.89" height="25" rx="4" ry="4" fill="none" stroke="none" pointer-events="all" />
    <text x="722.62" y="454.50" text-anchor="start" font-family="Roboto, sans-serif" font-size="13" fill="#90EE90" font-weight="normal">Scope &amp; Requirements</text>
  </a>
  <a xlink:href="/use-case/construction-project-quotations/scope-and-requirements/assumptions-exclusions-qualifications/" target="_top">
    <rect x="1055.75" y="525.00" width="258.09" height="25" rx="4" ry="4" fill="none" stroke="none" pointer-events="all" />
    <text x="1065.75" y="542.00" text-anchor="start" font-family="Roboto, sans-serif" font-size="13" fill="#90EE90" font-weight="normal">Assumptions, Exclusions &amp; Qualifications</text>
  </a>
  <a xlink:href="/use-case/construction-project-quotations/scope-and-requirements/constructability-review/" target="_top">
    <rect x="1055.75" y="550.00" width="155.06" height="25" rx="4" ry="4" fill="none" stroke="none" pointer-events="all" />
    <text x="1065.75" y="567.00" text-anchor="start" font-family="Roboto, sans-serif" font-size="13" fill="#90EE90" font-weight="normal">Constructability Review</text>
  </a>
  <a xlink:href="/use-case/construction-project-quotations/scope-and-requirements/rfis-clarifications-addenda/" target="_top">
    <rect x="1055.75" y="575.00" width="193.42" height="25" rx="4" ry="4" fill="none" stroke="none" pointer-events="all" />
    <text x="1065.75" y="592.00" text-anchor="start" font-family="Roboto, sans-serif" font-size="13" fill="#90EE90" font-weight="normal">RFIs, Clarifications &amp; Addenda</text>
  </a>
  <a xlink:href="/use-case/construction-project-quotations/scope-and-requirements/scope-decomposition-wbs-boq/" target="_top">
    <rect x="1055.75" y="600.00" width="216.47" height="25" rx="4" ry="4" fill="none" stroke="none" pointer-events="all" />
    <text x="1065.75" y="617.00" text-anchor="start" font-family="Roboto, sans-serif" font-size="13" fill="#90EE90" font-weight="normal">Scope Decomposition (WBS/BoQ)</text>
  </a>
  <a xlink:href="/use-case/construction-project-quotations/supply-chain-and-subcontractors/" target="_top">
    <rect x="712.62" y="462.50" width="198.12" height="25" rx="4" ry="4" fill="none" stroke="none" pointer-events="all" />
    <text x="722.62" y="479.50" text-anchor="start" font-family="Roboto, sans-serif" font-size="13" fill="#90EE90" font-weight="normal">Supply Chain &amp; Subcontractors</text>
  </a>
  <a xlink:href="/use-case/construction-project-quotations/supply-chain-and-subcontractors/bid-leveling/" target="_top">
    <rect x="1055.75" y="625.00" width="229.28" height="25" rx="4" ry="4" fill="none" stroke="none" pointer-events="all" />
    <text x="1065.75" y="642.00" text-anchor="start" font-family="Roboto, sans-serif" font-size="13" fill="#90EE90" font-weight="normal">Bid Leveling &amp; Comparative Analysis</text>
  </a>
  <a xlink:href="/use-case/construction-project-quotations/supply-chain-and-subcontractors/inventory-and-distribution-constraints/" target="_top">
    <rect x="1055.75" y="650.00" width="224.16" height="25" rx="4" ry="4" fill="none" stroke="none" pointer-events="all" />
    <text x="1065.75" y="667.00" text-anchor="start" font-family="Roboto, sans-serif" font-size="13" fill="#90EE90" font-weight="normal">Inventory &amp; Distribution Constraints</text>
  </a>
  <a xlink:href="/use-case/construction-project-quotations/supply-chain-and-subcontractors/payments-terms-and-cash-flow/" target="_top">
    <rect x="1055.75" y="675.00" width="194.45" height="25" rx="4" ry="4" fill="none" stroke="none" pointer-events="all" />
    <text x="1065.75" y="692.00" text-anchor="start" font-family="Roboto, sans-serif" font-size="13" fill="#90EE90" font-weight="normal">Payments, Terms &amp; Cash Flow</text>
  </a>
  <a xlink:href="/use-case/construction-project-quotations/supply-chain-and-subcontractors/subcontractor-bid-solicitation-and-comparison/" target="_top">
    <rect x="1055.75" y="700.00" width="276.67" height="25" rx="4" ry="4" fill="none" stroke="none" pointer-events="all" />
    <text x="1065.75" y="717.00" text-anchor="start" font-family="Roboto, sans-serif" font-size="13" fill="#90EE90" font-weight="normal">Subcontractor Bid Solicitation &amp; Comparison</text>
  </a>
  <a xlink:href="/use-case/construction-project-quotations/supply-chain-and-subcontractors/subcontractor-scope-packages/" target="_top">
    <rect x="1055.75" y="725.00" width="201.02" height="25" rx="4" ry="4" fill="none" stroke="none" pointer-events="all" />
    <text x="1065.75" y="742.00" text-anchor="start" font-family="Roboto, sans-serif" font-size="13" fill="#90EE90" font-weight="normal">Subcontractor Scope Packages</text>
  </a>
  <a xlink:href="/use-case/construction-project-quotations/supply-chain-and-subcontractors/supplier-rfqs-and-material-pricing/" target="_top">
    <rect x="1055.75" y="750.00" width="206.47" height="25" rx="4" ry="4" fill="none" stroke="none" pointer-events="all" />
    <text x="1065.75" y="767.00" text-anchor="start" font-family="Roboto, sans-serif" font-size="13" fill="#90EE90" font-weight="normal">Supplier RFQs &amp; Material Pricing</text>
  </a>
</svg>