<svg xmlns="http://www.w3.org/2000/svg" xmlns:xlink="http://www.w3.org/1999/xlink" viewBox="178.19 295.00 637.72 210.00" width="637.72px" height="210.00px" class="use-case-tree-svg">
  <rect width="100%" height="100%" fill="transparent" />
  <line x1="350.00" y1="362.50" x2="360.00" y2="362.50" stroke="#FF9900" stroke-width="1.5" />
  <path d="M 360.00 362.50 C 378.00 362.50, 382.00 312.50, 400.00 312.50" stroke="#FF9900" stroke-width="1.5" fill="none" />
  <line x1="350.00" y1="362.50" x2="360.00" y2="362.50" stroke="#FF9900" stroke-width="1.5" />
  <path d="M 360.00 362.50 C 378.00 362.50, 382.00 337.50, 400.00 337.50" stroke="#FF9900" stroke-width="1.5" fill="none" />
  <line x1="350.00" y1="362.50" x2="360.00" y2="362.50" stroke="#FF9900" stroke-width="1.5" />
  <path d="M 360.00 362.50 C 378.00 362.50, 382.00 362.50, 400.00 362.50" stroke="#FF9900" stroke-width="1.5" fill="none" />
  <line x1="350.00" y1="362.50" x2="360.00" y2="362.50" stroke="#FF9900" stroke-width="1.5" />
  <path d="M 360.00 362.50 C 378.00 362.50, 382.00 387.50, 400.00 387.50" stroke="#FF9900" stroke-width="1.5" fill="none" />
  <line x1="350.00" y1="362.50" x2="360.00" y2="362.50" stroke="#FF9900" stroke-width="1.5" />
  <path d="M 360.00 362.50 C 378.00 362.50, 382.00 412.50, 400.00 412.50" stroke="#FF9900" stroke-width="1.5" fill="none" />
  <line x1="350.00" y1="362.50" x2="360.00" y2="362.50" stroke="#FF9900" stroke-width="1.5" />
  <path d="M 360.00 362.50 C 378.00 362.50, 382.00 437.50, 400.00 437.50" stroke="#FF9900" stroke-width="1.5" fill="none" />
  <line x1="350.00" y1="362.50" x2="360.00" y2="362.50" stroke="#FF9900" stroke-width="1.5" />
  <path d="M 360.00 362.50 C 378.00 362.50, 382.00 462.50, 400.00 462.50" stroke="#FF9900" stroke-width="1.5" fill="none" />
  <line x1="350.00" y1="362.50" x2="360.00" y2="362.50" stroke="#FF9900" stroke-width="1.5" />
  <path d="M 360.00 362.50 C 378.00 362.50, 382.00 487.50, 400.00 487.50" stroke="#FF9900" stroke-width="1.5" fill="none" />
  <line x1="551.12" y1="362.50" x2="596.05" y2="362.50" stroke="#FF9900" stroke-width="1.5" />
  <path d="M 596.05 362.50 C 620.80 362.50, 626.30 375.00, 651.05 375.00" stroke="#FF9900" stroke-width="1.5" fill="none" />
  <line x1="551.12" y1="362.50" x2="596.05" y2="362.50" stroke="#FF9900" stroke-width="1.5" />
  <path d="M 596.05 362.50 C 620.80 362.50, 626.30 400.00, 651.05 400.00" stroke="#FF9900" stroke-width="1.5" fill="none" />
  <line x1="551.12" y1="362.50" x2="596.05" y2="362.50" stroke="#FF9900" stroke-width="1.5" />
  <path d="M 596.05 362.50 C 620.80 362.50, 626.30 425.00, 651.05 425.00" stroke="#FF9900" stroke-width="1.5" fill="none" />
  <a xlink:href="/use-case/legal-entity-management/" target="_top">
    <rect x="183.19" y="350.00" width="166.81" height="25" rx="4" ry="4" fill="none" stroke="none" pointer-events="all" />
    <text x="193.19" y="367.00" text-anchor="start" font-family="Roboto, sans-serif" font-size="13" fill="#90EE90" font-weight="normal">Legal Entity Management</text>
  </a>
  <a xlink:href="/use-case/legal-entity-management/compliance-and-documentation/" target="_top">
    <rect x="400.00" y="300.00" width="192.12" height="25" rx="4" ry="4" fill="none" stroke="none" pointer-events="all" />
    <text x="410.00" y="317.00" text-anchor="start" font-family="Roboto, sans-serif" font-size="13" fill="#90EE90" font-weight="normal">Compliance &amp; Documentation</text>
  </a>
  <a xlink:href="/use-case/legal-entity-management/contact-and-location-information/" target="_top">
    <rect x="400.00" y="325.00" width="201.05" height="25" rx="4" ry="4" fill="none" stroke="none" pointer-events="all" />
    <text x="410.00" y="342.00" text-anchor="start" font-family="Roboto, sans-serif" font-size="13" fill="#90EE90" font-weight="normal">Contact &amp; Location Information</text>
  </a>
  <a xlink:href="/use-case/legal-entity-management/corporate-governance/" target="_top">
    <rect x="400.00" y="350.00" width="151.12" height="25" rx="4" ry="4" fill="#4051B5" stroke="#FF6F00" stroke-width="1.5" />
    <text x="410.00" y="367.00" text-anchor="start" font-family="Roboto, sans-serif" font-size="13" fill="#FFFFFF" font-weight="bold">Corporate Governance</text>
  </a>
  <a xlink:href="/use-case/legal-entity-management/corporate-governance/directorships/" target="_top">
    <rect x="651.05" y="362.50" width="96.64" height="25" rx="4" ry="4" fill="none" stroke="none" pointer-events="all" />
    <text x="661.05" y="379.50" text-anchor="start" font-family="Roboto, sans-serif" font-size="13" fill="#90EE90" font-weight="normal">Directorships</text>
  </a>
  <a xlink:href="/use-case/legal-entity-management/corporate-governance/organizational-structure/" target="_top">
    <rect x="651.05" y="387.50" width="159.86" height="25" rx="4" ry="4" fill="none" stroke="none" pointer-events="all" />
    <text x="661.05" y="404.50" text-anchor="start" font-family="Roboto, sans-serif" font-size="13" fill="#90EE90" font-weight="normal">Organizational Structure</text>
  </a>
  <a xlink:href="/use-case/legal-entity-management/corporate-governance/signatories/" target="_top">
    <rect x="651.05" y="412.50" width="85.12" height="25" rx="4" ry="4" fill="none" stroke="none" pointer-events="all" />
    <text x="661.05" y="429.50" text-anchor="start" font-family="Roboto, sans-serif" font-size="13" fill="#90EE90" font-weight="normal">Signatories</text>
  </a>
  <a xlink:href="/use-case/legal-entity-management/financial-information/" target="_top">
    <rect x="400.00" y="375.00" width="142.72" height="25" rx="4" ry="4" fill="none" stroke="none" pointer-events="all" />
    <text x="410.00" y="392.00" text-anchor="start" font-family="Roboto, sans-serif" font-size="13" fill="#90EE90" font-weight="normal">Financial Information</text>
  </a>
  <a xlink:href="/use-case/legal-entity-management/identification-and-registration/" target="_top">
    <rect x="400.00" y="400.00" width="179.50" height="25" rx="4" ry="4" fill="none" stroke="none" pointer-events="all" />
    <text x="410.00" y="417.00" text-anchor="start" font-family="Roboto, sans-serif" font-size="13" fill="#90EE90" font-weight="normal">Identification &amp; Registration</text>
  </a>
  <a xlink:href="/use-case/legal-entity-management/lifecycle-and-status/" target="_top">
    <rect x="400.00" y="425.00" width="122.86" height="25" rx="4" ry="4" fill="none" stroke="none" pointer-events="all" />
    <text x="410.00" y="442.00" text-anchor="start" font-family="Roboto, sans-serif" font-size="13" fill="#90EE90" font-weight="normal">Lifecycle &amp; Status</text>
  </a>
  <a xlink:href="/use-case/legal-entity-management/ownership-and-capital-structure/" target="_top">
    <rect x="400.00" y="450.00" width="192.67" height="25" rx="4" ry="4" fill="none" stroke="none" pointer-events="all" />
    <text x="410.00" y="467.00" text-anchor="start" font-family="Roboto, sans-serif" font-size="13" fill="#90EE90" font-weight="normal">Ownership &amp; Capital Structure</text>
  </a>
  <a xlink:href="/use-case/legal-entity-management/supporting-information/" target="_top">
    <rect x="400.00" y="475.00" width="154.25" height="25" rx="4" ry="4" fill="none" stroke="none" pointer-events="all" />
    <text x="410.00" y="492.00" text-anchor="start" font-family="Roboto, sans-serif" font-size="13" fill="#90EE90" font-weight="normal">Supporting Information</text>
  </a>
</svg>