<svg xmlns="http://www.w3.org/2000/svg" xmlns:xlink="http://www.w3.org/1999/xlink" viewBox="-99.84 320.00 772.03 160.00" width="772.03px" height="160.00px" class="use-case-tree-svg">
  <rect width="100%" height="100%" fill="transparent" />
  <line x1="163.66" y1="387.50" x2="173.66" y2="387.50" stroke="#FF9900" stroke-width="1.5" />
  <path d="M 173.66 387.50 C 191.66 387.50, 195.66 387.50, 213.66 387.50" stroke="#FF9900" stroke-width="1.5" fill="none" />
  <path d="M 345.00 387.50 C 369.75 387.50, 375.25 337.50, 400.00 337.50" stroke="#FF9900" stroke-width="1.5" fill="none" />
  <path d="M 345.00 387.50 C 369.75 387.50, 375.25 362.50, 400.00 362.50" stroke="#FF9900" stroke-width="1.5" fill="none" />
  <path d="M 345.00 387.50 C 369.75 387.50, 375.25 387.50, 400.00 387.50" stroke="#FF9900" stroke-width="1.5" fill="none" />
  <path d="M 345.00 387.50 C 369.75 387.50, 375.25 412.50, 400.00 412.50" stroke="#FF9900" stroke-width="1.5" fill="none" />
  <path d="M 345.00 387.50 C 369.75 387.50, 375.25 437.50, 400.00 437.50" stroke="#FF9900" stroke-width="1.5" fill="none" />
  <path d="M 345.00 387.50 C 369.75 387.50, 375.25 462.50, 400.00 462.50" stroke="#FF9900" stroke-width="1.5" fill="none" />
  <a xlink:href="/use-case/construction-project-quotations/" target="_top">
    <rect x="-94.84" y="375.00" width="258.50" height="25" rx="4" ry="4" fill="none" stroke="none" pointer-events="all" />
    <text x="-84.84" y="392.00" text-anchor="start" font-family="Roboto, sans-serif" font-size="13" fill="#90EE90" font-weight="normal">Complex Construction Project Quotations</text>
  </a>
  <a xlink:href="/use-case/construction-project-quotations/estimating-and-pricing/" target="_top">
    <rect x="213.66" y="375.00" width="136.34" height="25" rx="4" ry="4" fill="none" stroke="none" pointer-events="all" />
    <text x="223.66" y="392.00" text-anchor="start" font-family="Roboto, sans-serif" font-size="13" fill="#90EE90" font-weight="normal">Estimating &amp; Pricing</text>
  </a>
  <a xlink:href="/use-case/construction-project-quotations/estimating-and-pricing/contingency-and-escalation/" target="_top">
    <rect x="400.00" y="325.00" width="168.19" height="25" rx="4" ry="4" fill="none" stroke="none" pointer-events="all" />
    <text x="410.00" y="342.00" text-anchor="start" font-family="Roboto, sans-serif" font-size="13" fill="#90EE90" font-weight="normal">Contingency &amp; Escalation</text>
  </a>
  <a xlink:href="/use-case/construction-project-quotations/estimating-and-pricing/indirects-overheads-general-conditions/" target="_top">
    <rect x="400.00" y="350.00" width="267.19" height="25" rx="4" ry="4" fill="none" stroke="none" pointer-events="all" />
    <text x="410.00" y="367.00" text-anchor="start" font-family="Roboto, sans-serif" font-size="13" fill="#90EE90" font-weight="normal">Indirects, Overheads &amp; General Conditions</text>
  </a>
  <a xlink:href="/use-case/construction-project-quotations/estimating-and-pricing/labor-productivity-and-crew-modeling/" target="_top">
    <rect x="400.00" y="375.00" width="243.89" height="25" rx="4" ry="4" fill="#4051B5" stroke="#FF6F00" stroke-width="1.5" />
    <text x="410.00" y="392.00" text-anchor="start" font-family="Roboto, sans-serif" font-size="13" fill="#FFFFFF" font-weight="bold">Labor Productivity &amp; Crew Modeling</text>
  </a>
  <a xlink:href="/use-case/construction-project-quotations/estimating-and-pricing/pricing-strategy-margin-markups/" target="_top">
    <rect x="400.00" y="400.00" width="217.27" height="25" rx="4" ry="4" fill="none" stroke="none" pointer-events="all" />
    <text x="410.00" y="417.00" text-anchor="start" font-family="Roboto, sans-serif" font-size="13" fill="#90EE90" font-weight="normal">Pricing Strategy (Margin/Markups)</text>
  </a>
  <a xlink:href="/use-case/construction-project-quotations/estimating-and-pricing/quantity-takeoff/" target="_top">
    <rect x="400.00" y="425.00" width="189.33" height="25" rx="4" ry="4" fill="none" stroke="none" pointer-events="all" />
    <text x="410.00" y="442.00" text-anchor="start" font-family="Roboto, sans-serif" font-size="13" fill="#90EE90" font-weight="normal">Quantity Takeoff (2D/3D/BIM)</text>
  </a>
  <a xlink:href="/use-case/construction-project-quotations/estimating-and-pricing/unit-rates-and-cost-libraries/" target="_top">
    <rect x="400.00" y="450.00" width="176.81" height="25" rx="4" ry="4" fill="none" stroke="none" pointer-events="all" />
    <text x="410.00" y="467.00" text-anchor="start" font-family="Roboto, sans-serif" font-size="13" fill="#90EE90" font-weight="normal">Unit Rates &amp; Cost Libraries</text>
  </a>
</svg>