<svg xmlns="http://www.w3.org/2000/svg" xmlns:xlink="http://www.w3.org/1999/xlink" viewBox="-20.39 295.00 529.91 210.00" width="529.91px" height="210.00px" class="use-case-tree-svg">
  <rect width="100%" height="100%" fill="transparent" />
  <line x1="126.77" y1="437.50" x2="136.77" y2="437.50" stroke="#FF9900" stroke-width="1.5" />
  <path d="M 136.77 437.50 C 154.77 437.50, 158.77 437.50, 176.77 437.50" stroke="#FF9900" stroke-width="1.5" fill="none" />
  <path d="M 345.00 437.50 C 369.75 437.50, 375.25 312.50, 400.00 312.50" stroke="#FF9900" stroke-width="1.5" fill="none" />
  <path d="M 345.00 437.50 C 369.75 437.50, 375.25 337.50, 400.00 337.50" stroke="#FF9900" stroke-width="1.5" fill="none" />
  <path d="M 345.00 437.50 C 369.75 437.50, 375.25 362.50, 400.00 362.50" stroke="#FF9900" stroke-width="1.5" fill="none" />
  <path d="M 345.00 437.50 C 369.75 437.50, 375.25 387.50, 400.00 387.50" stroke="#FF9900" stroke-width="1.5" fill="none" />
  <path d="M 345.00 437.50 C 369.75 437.50, 375.25 412.50, 400.00 412.50" stroke="#FF9900" stroke-width="1.5" fill="none" />
  <path d="M 345.00 437.50 C 369.75 437.50, 375.25 437.50, 400.00 437.50" stroke="#FF9900" stroke-width="1.5" fill="none" />
  <path d="M 345.00 437.50 C 369.75 437.50, 375.25 462.50, 400.00 462.50" stroke="#FF9900" stroke-width="1.5" fill="none" />
  <path d="M 345.00 437.50 C 369.75 437.50, 375.25 487.50, 400.00 487.50" stroke="#FF9900" stroke-width="1.5" fill="none" />
  <a xlink:href="/use-case/client-360/know-your-customer/" target="_top">
    <rect x="-15.39" y="425.00" width="142.16" height="25" rx="4" ry="4" fill="none" stroke="none" pointer-events="all" />
    <text x="-5.39" y="442.00" text-anchor="start" font-family="Roboto, sans-serif" font-size="13" fill="#90EE90" font-weight="normal">Know Your Customer</text>
  </a>
  <a xlink:href="/use-case/client-360/know-your-customer/core-record-management/" target="_top">
    <rect x="176.77" y="425.00" width="173.23" height="25" rx="4" ry="4" fill="none" stroke="none" pointer-events="all" />
    <text x="186.77" y="442.00" text-anchor="start" font-family="Roboto, sans-serif" font-size="13" fill="#90EE90" font-weight="normal">Core Record Management</text>
  </a>
  <a xlink:href="/use-case/client-360/know-your-customer/core-record-management/addresses/" target="_top">
    <rect x="400.00" y="300.00" width="81.44" height="25" rx="4" ry="4" fill="none" stroke="none" pointer-events="all" />
    <text x="410.00" y="317.00" text-anchor="start" font-family="Roboto, sans-serif" font-size="13" fill="#90EE90" font-weight="normal">Addresses</text>
  </a>
  <a xlink:href="/use-case/client-360/know-your-customer/core-record-management/audit/" target="_top">
    <rect x="400.00" y="325.00" width="49.64" height="25" rx="4" ry="4" fill="none" stroke="none" pointer-events="all" />
    <text x="410.00" y="342.00" text-anchor="start" font-family="Roboto, sans-serif" font-size="13" fill="#90EE90" font-weight="normal">Audit</text>
  </a>
  <a xlink:href="/use-case/client-360/know-your-customer/core-record-management/buildings/" target="_top">
    <rect x="400.00" y="350.00" width="72.78" height="25" rx="4" ry="4" fill="none" stroke="none" pointer-events="all" />
    <text x="410.00" y="367.00" text-anchor="start" font-family="Roboto, sans-serif" font-size="13" fill="#90EE90" font-weight="normal">Buildings</text>
  </a>
  <a xlink:href="/use-case/client-360/know-your-customer/core-record-management/countries/" target="_top">
    <rect x="400.00" y="375.00" width="75.66" height="25" rx="4" ry="4" fill="none" stroke="none" pointer-events="all" />
    <text x="410.00" y="392.00" text-anchor="start" font-family="Roboto, sans-serif" font-size="13" fill="#90EE90" font-weight="normal">Countries</text>
  </a>
  <a xlink:href="/use-case/client-360/know-your-customer/core-record-management/jurisdictions/" target="_top">
    <rect x="400.00" y="400.00" width="91.55" height="25" rx="4" ry="4" fill="none" stroke="none" pointer-events="all" />
    <text x="410.00" y="417.00" text-anchor="start" font-family="Roboto, sans-serif" font-size="13" fill="#90EE90" font-weight="normal">Jurisdictions</text>
  </a>
  <a xlink:href="/use-case/client-360/know-your-customer/core-record-management/legal-entities/" target="_top">
    <rect x="400.00" y="425.00" width="104.52" height="25" rx="4" ry="4" fill="#4051B5" stroke="#FF6F00" stroke-width="1.5" />
    <text x="410.00" y="442.00" text-anchor="start" font-family="Roboto, sans-serif" font-size="13" fill="#FFFFFF" font-weight="bold">Legal Entities</text>
  </a>
  <a xlink:href="/use-case/client-360/know-your-customer/core-record-management/locations/" target="_top">
    <rect x="400.00" y="450.00" width="75.67" height="25" rx="4" ry="4" fill="none" stroke="none" pointer-events="all" />
    <text x="410.00" y="467.00" text-anchor="start" font-family="Roboto, sans-serif" font-size="13" fill="#90EE90" font-weight="normal">Locations</text>
  </a>
  <a xlink:href="/use-case/client-360/know-your-customer/core-record-management/regions/" target="_top">
    <rect x="400.00" y="475.00" width="67.72" height="25" rx="4" ry="4" fill="none" stroke="none" pointer-events="all" />
    <text x="410.00" y="492.00" text-anchor="start" font-family="Roboto, sans-serif" font-size="13" fill="#90EE90" font-weight="normal">Regions</text>
  </a>
</svg>