<svg xmlns="http://www.w3.org/2000/svg" xmlns:xlink="http://www.w3.org/1999/xlink" viewBox="-17.64 295.00 521.70 210.00" width="521.70px" height="210.00px" class="use-case-tree-svg">
  <rect width="100%" height="100%" fill="transparent" />
  <line x1="129.17" y1="437.50" x2="139.17" y2="437.50" stroke="#FF6F00" stroke-width="1.5" />
  <path d="M 139.17 437.50 C 157.17 437.50, 161.17 437.50, 179.17 437.50" stroke="#FF6F00" stroke-width="1.5" fill="none" />
  <path d="M 345.00 437.50 C 369.75 437.50, 375.25 312.50, 400.00 312.50" stroke="#FF6F00" stroke-width="1.5" fill="none" />
  <path d="M 345.00 437.50 C 369.75 437.50, 375.25 337.50, 400.00 337.50" stroke="#FF6F00" stroke-width="1.5" fill="none" />
  <path d="M 345.00 437.50 C 369.75 437.50, 375.25 362.50, 400.00 362.50" stroke="#FF6F00" stroke-width="1.5" fill="none" />
  <path d="M 345.00 437.50 C 369.75 437.50, 375.25 387.50, 400.00 387.50" stroke="#FF6F00" stroke-width="1.5" fill="none" />
  <path d="M 345.00 437.50 C 369.75 437.50, 375.25 412.50, 400.00 412.50" stroke="#FF6F00" stroke-width="1.5" fill="none" />
  <path d="M 345.00 437.50 C 369.75 437.50, 375.25 437.50, 400.00 437.50" stroke="#FF6F00" stroke-width="1.5" fill="none" />
  <path d="M 345.00 437.50 C 369.75 437.50, 375.25 462.50, 400.00 462.50" stroke="#FF6F00" stroke-width="1.5" fill="none" />
  <path d="M 345.00 437.50 C 369.75 437.50, 375.25 487.50, 400.00 487.50" stroke="#FF6F00" stroke-width="1.5" fill="none" />
  <a xlink:href="/use-case/client-360/know-your-customer/" target="_top">
    <rect x="-12.64" y="425.00" width="141.81" height="25" rx="4" ry="4" fill="none" stroke="none" pointer-events="all" />
    <text x="-2.64" y="442.00" text-anchor="start" font-family="Roboto, sans-serif" font-size="13" fill="#4051B5" font-weight="normal">Know Your Customer</text>
  </a>
  <a xlink:href="/use-case/client-360/know-your-customer/core-record-management/" target="_top">
    <rect x="179.17" y="425.00" width="170.83" height="25" rx="4" ry="4" fill="none" stroke="none" pointer-events="all" />
    <text x="189.17" y="442.00" text-anchor="start" font-family="Roboto, sans-serif" font-size="13" fill="#4051B5" font-weight="normal">Core Record Management</text>
  </a>
  <a xlink:href="/use-case/client-360/know-your-customer/core-record-management/addresses/" target="_top">
    <rect x="400.00" y="300.00" width="81.31" height="25" rx="4" ry="4" fill="none" stroke="none" pointer-events="all" />
    <text x="410.00" y="317.00" text-anchor="start" font-family="Roboto, sans-serif" font-size="13" fill="#4051B5" font-weight="normal">Addresses</text>
  </a>
  <a xlink:href="/use-case/client-360/know-your-customer/core-record-management/audit/" target="_top">
    <rect x="400.00" y="325.00" width="50.33" height="25" rx="4" ry="4" fill="none" stroke="none" pointer-events="all" />
    <text x="410.00" y="342.00" text-anchor="start" font-family="Roboto, sans-serif" font-size="13" fill="#4051B5" font-weight="normal">Audit</text>
  </a>
  <a xlink:href="/use-case/client-360/know-your-customer/core-record-management/buildings/" target="_top">
    <rect x="400.00" y="350.00" width="73.23" height="25" rx="4" ry="4" fill="none" stroke="none" pointer-events="all" />
    <text x="410.00" y="367.00" text-anchor="start" font-family="Roboto, sans-serif" font-size="13" fill="#4051B5" font-weight="normal">Buildings</text>
  </a>
  <a xlink:href="/use-case/client-360/know-your-customer/core-record-management/countries/" target="_top">
    <rect x="400.00" y="375.00" width="75.64" height="25" rx="4" ry="4" fill="none" stroke="none" pointer-events="all" />
    <text x="410.00" y="392.00" text-anchor="start" font-family="Roboto, sans-serif" font-size="13" fill="#4051B5" font-weight="normal">Countries</text>
  </a>
  <a xlink:href="/use-case/client-360/know-your-customer/core-record-management/jurisdictions/" target="_top">
    <rect x="400.00" y="400.00" width="94.61" height="25" rx="4" ry="4" fill="none" stroke="none" pointer-events="all" />
    <text x="410.00" y="417.00" text-anchor="start" font-family="Roboto, sans-serif" font-size="13" fill="#4051B5" font-weight="normal">Jurisdictions</text>
  </a>
  <a xlink:href="/use-case/client-360/know-your-customer/core-record-management/legal-entities/" target="_top">
    <rect x="400.00" y="425.00" width="99.06" height="25" rx="4" ry="4" fill="#4051B5" stroke="#FF6F00" stroke-width="1.5" />
    <text x="410.00" y="442.00" text-anchor="start" font-family="Roboto, sans-serif" font-size="13" fill="#FFFFFF" font-weight="bold">Legal Entities</text>
  </a>
  <a xlink:href="/use-case/client-360/know-your-customer/core-record-management/locations/" target="_top">
    <rect x="400.00" y="450.00" width="77.02" height="25" rx="4" ry="4" fill="none" stroke="none" pointer-events="all" />
    <text x="410.00" y="467.00" text-anchor="start" font-family="Roboto, sans-serif" font-size="13" fill="#4051B5" font-weight="normal">Locations</text>
  </a>
  <a xlink:href="/use-case/client-360/know-your-customer/core-record-management/regions/" target="_top">
    <rect x="400.00" y="475.00" width="66.66" height="25" rx="4" ry="4" fill="none" stroke="none" pointer-events="all" />
    <text x="410.00" y="492.00" text-anchor="start" font-family="Roboto, sans-serif" font-size="13" fill="#4051B5" font-weight="normal">Regions</text>
  </a>
</svg>