<svg xmlns="http://www.w3.org/2000/svg" xmlns:xlink="http://www.w3.org/1999/xlink" viewBox="173.94 257.50 999.86 285.00" width="999.86px" height="285.00px" class="use-case-tree-svg">
  <rect width="100%" height="100%" fill="transparent" />
  <line x1="350.00" y1="387.50" x2="360.00" y2="387.50" stroke="#FF9900" stroke-width="1.5" />
  <path d="M 360.00 387.50 C 378.00 387.50, 382.00 362.50, 400.00 362.50" stroke="#FF9900" stroke-width="1.5" fill="none" />
  <line x1="350.00" y1="387.50" x2="360.00" y2="387.50" stroke="#FF9900" stroke-width="1.5" />
  <path d="M 360.00 387.50 C 378.00 387.50, 382.00 387.50, 400.00 387.50" stroke="#FF9900" stroke-width="1.5" fill="none" />
  <line x1="350.00" y1="387.50" x2="360.00" y2="387.50" stroke="#FF9900" stroke-width="1.5" />
  <path d="M 360.00 387.50 C 378.00 387.50, 382.00 412.50, 400.00 412.50" stroke="#FF9900" stroke-width="1.5" fill="none" />
  <line x1="350.00" y1="387.50" x2="360.00" y2="387.50" stroke="#FF9900" stroke-width="1.5" />
  <path d="M 360.00 387.50 C 378.00 387.50, 382.00 437.50, 400.00 437.50" stroke="#FF9900" stroke-width="1.5" fill="none" />
  <line x1="551.69" y1="387.50" x2="626.06" y2="387.50" stroke="#FF9900" stroke-width="1.5" />
  <path d="M 626.06 387.50 C 650.81 387.50, 656.31 287.50, 681.06 287.50" stroke="#FF9900" stroke-width="1.5" fill="none" />
  <line x1="551.69" y1="387.50" x2="626.06" y2="387.50" stroke="#FF9900" stroke-width="1.5" />
  <path d="M 626.06 387.50 C 650.81 387.50, 656.31 312.50, 681.06 312.50" stroke="#FF9900" stroke-width="1.5" fill="none" />
  <line x1="551.69" y1="387.50" x2="626.06" y2="387.50" stroke="#FF9900" stroke-width="1.5" />
  <path d="M 626.06 387.50 C 650.81 387.50, 656.31 337.50, 681.06 337.50" stroke="#FF9900" stroke-width="1.5" fill="none" />
  <line x1="551.69" y1="387.50" x2="626.06" y2="387.50" stroke="#FF9900" stroke-width="1.5" />
  <path d="M 626.06 387.50 C 650.81 387.50, 656.31 362.50, 681.06 362.50" stroke="#FF9900" stroke-width="1.5" fill="none" />
  <line x1="551.69" y1="387.50" x2="626.06" y2="387.50" stroke="#FF9900" stroke-width="1.5" />
  <path d="M 626.06 387.50 C 650.81 387.50, 656.31 387.50, 681.06 387.50" stroke="#FF9900" stroke-width="1.5" fill="none" />
  <line x1="551.69" y1="387.50" x2="626.06" y2="387.50" stroke="#FF9900" stroke-width="1.5" />
  <path d="M 626.06 387.50 C 650.81 387.50, 656.31 412.50, 681.06 412.50" stroke="#FF9900" stroke-width="1.5" fill="none" />
  <line x1="551.69" y1="387.50" x2="626.06" y2="387.50" stroke="#FF9900" stroke-width="1.5" />
  <path d="M 626.06 387.50 C 650.81 387.50, 656.31 437.50, 681.06 437.50" stroke="#FF9900" stroke-width="1.5" fill="none" />
  <line x1="551.69" y1="387.50" x2="626.06" y2="387.50" stroke="#FF9900" stroke-width="1.5" />
  <path d="M 626.06 387.50 C 650.81 387.50, 656.31 462.50, 681.06 462.50" stroke="#FF9900" stroke-width="1.5" fill="none" />
  <line x1="551.69" y1="387.50" x2="626.06" y2="387.50" stroke="#FF9900" stroke-width="1.5" />
  <path d="M 626.06 387.50 C 650.81 387.50, 656.31 487.50, 681.06 487.50" stroke="#FF9900" stroke-width="1.5" fill="none" />
  <line x1="551.69" y1="387.50" x2="626.06" y2="387.50" stroke="#FF9900" stroke-width="1.5" />
  <path d="M 626.06 387.50 C 650.81 387.50, 656.31 512.50, 681.06 512.50" stroke="#FF9900" stroke-width="1.5" fill="none" />
  <line x1="873.81" y1="312.50" x2="900.58" y2="312.50" stroke="#FF9900" stroke-width="1.5" />
  <path d="M 900.58 312.50 C 925.33 312.50, 930.83 275.00, 955.58 275.00" stroke="#FF9900" stroke-width="1.5" fill="none" />
  <line x1="873.81" y1="312.50" x2="900.58" y2="312.50" stroke="#FF9900" stroke-width="1.5" />
  <path d="M 900.58 312.50 C 925.33 312.50, 930.83 300.00, 955.58 300.00" stroke="#FF9900" stroke-width="1.5" fill="none" />
  <line x1="873.81" y1="312.50" x2="900.58" y2="312.50" stroke="#FF9900" stroke-width="1.5" />
  <path d="M 900.58 312.50 C 925.33 312.50, 930.83 325.00, 955.58 325.00" stroke="#FF9900" stroke-width="1.5" fill="none" />
  <line x1="854.30" y1="337.50" x2="900.58" y2="337.50" stroke="#FF9900" stroke-width="1.5" />
  <path d="M 900.58 337.50 C 925.33 337.50, 930.83 350.00, 955.58 350.00" stroke="#FF9900" stroke-width="1.5" fill="none" />
  <line x1="854.30" y1="337.50" x2="900.58" y2="337.50" stroke="#FF9900" stroke-width="1.5" />
  <path d="M 900.58 337.50 C 925.33 337.50, 930.83 375.00, 955.58 375.00" stroke="#FF9900" stroke-width="1.5" fill="none" />
  <line x1="854.30" y1="337.50" x2="900.58" y2="337.50" stroke="#FF9900" stroke-width="1.5" />
  <path d="M 900.58 337.50 C 925.33 337.50, 930.83 400.00, 955.58 400.00" stroke="#FF9900" stroke-width="1.5" fill="none" />
  <line x1="854.30" y1="337.50" x2="900.58" y2="337.50" stroke="#FF9900" stroke-width="1.5" />
  <path d="M 900.58 337.50 C 925.33 337.50, 930.83 425.00, 955.58 425.00" stroke="#FF9900" stroke-width="1.5" fill="none" />
  <line x1="854.30" y1="337.50" x2="900.58" y2="337.50" stroke="#FF9900" stroke-width="1.5" />
  <path d="M 900.58 337.50 C 925.33 337.50, 930.83 450.00, 955.58 450.00" stroke="#FF9900" stroke-width="1.5" fill="none" />
  <line x1="854.30" y1="337.50" x2="900.58" y2="337.50" stroke="#FF9900" stroke-width="1.5" />
  <path d="M 900.58 337.50 C 925.33 337.50, 930.83 475.00, 955.58 475.00" stroke="#FF9900" stroke-width="1.5" fill="none" />
  <line x1="854.30" y1="337.50" x2="900.58" y2="337.50" stroke="#FF9900" stroke-width="1.5" />
  <path d="M 900.58 337.50 C 925.33 337.50, 930.83 500.00, 955.58 500.00" stroke="#FF9900" stroke-width="1.5" fill="none" />
  <line x1="854.30" y1="337.50" x2="900.58" y2="337.50" stroke="#FF9900" stroke-width="1.5" />
  <path d="M 900.58 337.50 C 925.33 337.50, 930.83 525.00, 955.58 525.00" stroke="#FF9900" stroke-width="1.5" fill="none" />
  <a xlink:href="/use-case/client-360/" target="_top">
    <rect x="178.94" y="375.00" width="171.06" height="25" rx="4" ry="4" fill="none" stroke="none" pointer-events="all" />
    <text x="188.94" y="392.00" text-anchor="start" font-family="Roboto, sans-serif" font-size="13" fill="#90EE90" font-weight="normal">Client 360 / Customer 360</text>
  </a>
  <a xlink:href="/use-case/client-360/customer-relationship-management/" target="_top">
    <rect x="400.00" y="350.00" width="231.06" height="25" rx="4" ry="4" fill="none" stroke="none" pointer-events="all" />
    <text x="410.00" y="367.00" text-anchor="start" font-family="Roboto, sans-serif" font-size="13" fill="#90EE90" font-weight="normal">Customer Relationship Management</text>
  </a>
  <a xlink:href="/use-case/client-360/know-your-customer/" target="_top">
    <rect x="400.00" y="375.00" width="151.69" height="25" rx="4" ry="4" fill="#4051B5" stroke="#FF6F00" stroke-width="1.5" />
    <text x="410.00" y="392.00" text-anchor="start" font-family="Roboto, sans-serif" font-size="13" fill="#FFFFFF" font-weight="bold">Know Your Customer</text>
  </a>
  <a xlink:href="/use-case/client-360/know-your-customer/activity-monitoring/" target="_top">
    <rect x="681.06" y="275.00" width="125.50" height="25" rx="4" ry="4" fill="none" stroke="none" pointer-events="all" />
    <text x="691.06" y="292.00" text-anchor="start" font-family="Roboto, sans-serif" font-size="13" fill="#90EE90" font-weight="normal">Activity Monitoring</text>
  </a>
  <a xlink:href="/use-case/client-360/know-your-customer/anti-money-laundering/" target="_top">
    <rect x="681.06" y="300.00" width="192.75" height="25" rx="4" ry="4" fill="none" stroke="none" pointer-events="all" />
    <text x="691.06" y="317.00" text-anchor="start" font-family="Roboto, sans-serif" font-size="13" fill="#90EE90" font-weight="normal">Anti Money Laundering (AML)</text>
  </a>
  <a xlink:href="/use-case/client-360/know-your-customer/anti-money-laundering/correspondent-based-aml/" target="_top">
    <rect x="955.58" y="262.50" width="175.42" height="25" rx="4" ry="4" fill="none" stroke="none" pointer-events="all" />
    <text x="965.58" y="279.50" text-anchor="start" font-family="Roboto, sans-serif" font-size="13" fill="#90EE90" font-weight="normal">Correspondent-based AML</text>
  </a>
  <a xlink:href="/use-case/client-360/know-your-customer/anti-money-laundering/network-based-aml/" target="_top">
    <rect x="955.58" y="287.50" width="137.80" height="25" rx="4" ry="4" fill="none" stroke="none" pointer-events="all" />
    <text x="965.58" y="304.50" text-anchor="start" font-family="Roboto, sans-serif" font-size="13" fill="#90EE90" font-weight="normal">Network Based AML</text>
  </a>
  <a xlink:href="/use-case/client-360/know-your-customer/anti-money-laundering/transaction-based-aml/" target="_top">
    <rect x="955.58" y="312.50" width="213.22" height="25" rx="4" ry="4" fill="none" stroke="none" pointer-events="all" />
    <text x="965.58" y="329.50" text-anchor="start" font-family="Roboto, sans-serif" font-size="13" fill="#90EE90" font-weight="normal">Transaction / Finance based AML</text>
  </a>
  <a xlink:href="/use-case/client-360/know-your-customer/core-record-management/" target="_top">
    <rect x="681.06" y="325.00" width="173.23" height="25" rx="4" ry="4" fill="none" stroke="none" pointer-events="all" />
    <text x="691.06" y="342.00" text-anchor="start" font-family="Roboto, sans-serif" font-size="13" fill="#90EE90" font-weight="normal">Core Record Management</text>
  </a>
  <a xlink:href="/use-case/client-360/know-your-customer/core-record-management/addresses/" target="_top">
    <rect x="955.58" y="337.50" width="81.44" height="25" rx="4" ry="4" fill="none" stroke="none" pointer-events="all" />
    <text x="965.58" y="354.50" text-anchor="start" font-family="Roboto, sans-serif" font-size="13" fill="#90EE90" font-weight="normal">Addresses</text>
  </a>
  <a xlink:href="/use-case/client-360/know-your-customer/core-record-management/audit/" target="_top">
    <rect x="955.58" y="362.50" width="49.64" height="25" rx="4" ry="4" fill="none" stroke="none" pointer-events="all" />
    <text x="965.58" y="379.50" text-anchor="start" font-family="Roboto, sans-serif" font-size="13" fill="#90EE90" font-weight="normal">Audit</text>
  </a>
  <a xlink:href="/use-case/client-360/know-your-customer/core-record-management/buildings/" target="_top">
    <rect x="955.58" y="387.50" width="72.78" height="25" rx="4" ry="4" fill="none" stroke="none" pointer-events="all" />
    <text x="965.58" y="404.50" text-anchor="start" font-family="Roboto, sans-serif" font-size="13" fill="#90EE90" font-weight="normal">Buildings</text>
  </a>
  <a xlink:href="/use-case/client-360/know-your-customer/core-record-management/countries/" target="_top">
    <rect x="955.58" y="412.50" width="75.66" height="25" rx="4" ry="4" fill="none" stroke="none" pointer-events="all" />
    <text x="965.58" y="429.50" text-anchor="start" font-family="Roboto, sans-serif" font-size="13" fill="#90EE90" font-weight="normal">Countries</text>
  </a>
  <a xlink:href="/use-case/client-360/know-your-customer/core-record-management/jurisdictions/" target="_top">
    <rect x="955.58" y="437.50" width="91.55" height="25" rx="4" ry="4" fill="none" stroke="none" pointer-events="all" />
    <text x="965.58" y="454.50" text-anchor="start" font-family="Roboto, sans-serif" font-size="13" fill="#90EE90" font-weight="normal">Jurisdictions</text>
  </a>
  <a xlink:href="/use-case/client-360/know-your-customer/core-record-management/legal-entities/" target="_top">
    <rect x="955.58" y="462.50" width="98.08" height="25" rx="4" ry="4" fill="none" stroke="none" pointer-events="all" />
    <text x="965.58" y="479.50" text-anchor="start" font-family="Roboto, sans-serif" font-size="13" fill="#90EE90" font-weight="normal">Legal Entities</text>
  </a>
  <a xlink:href="/use-case/client-360/know-your-customer/core-record-management/locations/" target="_top">
    <rect x="955.58" y="487.50" width="75.67" height="25" rx="4" ry="4" fill="none" stroke="none" pointer-events="all" />
    <text x="965.58" y="504.50" text-anchor="start" font-family="Roboto, sans-serif" font-size="13" fill="#90EE90" font-weight="normal">Locations</text>
  </a>
  <a xlink:href="/use-case/client-360/know-your-customer/core-record-management/regions/" target="_top">
    <rect x="955.58" y="512.50" width="67.72" height="25" rx="4" ry="4" fill="none" stroke="none" pointer-events="all" />
    <text x="965.58" y="529.50" text-anchor="start" font-family="Roboto, sans-serif" font-size="13" fill="#90EE90" font-weight="normal">Regions</text>
  </a>
  <a xlink:href="/use-case/client-360/know-your-customer/crime-records/" target="_top">
    <rect x="681.06" y="350.00" width="106.70" height="25" rx="4" ry="4" fill="none" stroke="none" pointer-events="all" />
    <text x="691.06" y="367.00" text-anchor="start" font-family="Roboto, sans-serif" font-size="13" fill="#90EE90" font-weight="normal">Crime Records</text>
  </a>
  <a xlink:href="/use-case/client-360/know-your-customer/gdpr/" target="_top">
    <rect x="681.06" y="375.00" width="57.56" height="25" rx="4" ry="4" fill="none" stroke="none" pointer-events="all" />
    <text x="691.06" y="392.00" text-anchor="start" font-family="Roboto, sans-serif" font-size="13" fill="#90EE90" font-weight="normal">GDPR</text>
  </a>
  <a xlink:href="/use-case/client-360/know-your-customer/high-net-worth-individuals/" target="_top">
    <rect x="681.06" y="400.00" width="173.70" height="25" rx="4" ry="4" fill="none" stroke="none" pointer-events="all" />
    <text x="691.06" y="417.00" text-anchor="start" font-family="Roboto, sans-serif" font-size="13" fill="#90EE90" font-weight="normal">High Net Worth Individuals</text>
  </a>
  <a xlink:href="/use-case/client-360/know-your-customer/identification-verification/" target="_top">
    <rect x="681.06" y="425.00" width="160.23" height="25" rx="4" ry="4" fill="none" stroke="none" pointer-events="all" />
    <text x="691.06" y="442.00" text-anchor="start" font-family="Roboto, sans-serif" font-size="13" fill="#90EE90" font-weight="normal">Identification Verification</text>
  </a>
  <a xlink:href="/use-case/client-360/know-your-customer/peps/" target="_top">
    <rect x="681.06" y="450.00" width="224.52" height="25" rx="4" ry="4" fill="none" stroke="none" pointer-events="all" />
    <text x="691.06" y="467.00" text-anchor="start" font-family="Roboto, sans-serif" font-size="13" fill="#90EE90" font-weight="normal">Politically Exposed Persons (PEPs)</text>
  </a>
  <a xlink:href="/use-case/client-360/know-your-customer/risk-management/" target="_top">
    <rect x="681.06" y="475.00" width="124.80" height="25" rx="4" ry="4" fill="none" stroke="none" pointer-events="all" />
    <text x="691.06" y="492.00" text-anchor="start" font-family="Roboto, sans-serif" font-size="13" fill="#90EE90" font-weight="normal">Risk Management</text>
  </a>
  <a xlink:href="/use-case/client-360/know-your-customer/sanctions/" target="_top">
    <rect x="681.06" y="500.00" width="77.11" height="25" rx="4" ry="4" fill="none" stroke="none" pointer-events="all" />
    <text x="691.06" y="517.00" text-anchor="start" font-family="Roboto, sans-serif" font-size="13" fill="#90EE90" font-weight="normal">Sanctions</text>
  </a>
  <a xlink:href="/use-case/client-360/relationships-and-connections/" target="_top">
    <rect x="400.00" y="400.00" width="186.27" height="25" rx="4" ry="4" fill="none" stroke="none" pointer-events="all" />
    <text x="410.00" y="417.00" text-anchor="start" font-family="Roboto, sans-serif" font-size="13" fill="#90EE90" font-weight="normal">Relationships &amp; Connections</text>
  </a>
  <a xlink:href="/use-case/client-360/social-media/" target="_top">
    <rect x="400.00" y="425.00" width="94.45" height="25" rx="4" ry="4" fill="none" stroke="none" pointer-events="all" />
    <text x="410.00" y="442.00" text-anchor="start" font-family="Roboto, sans-serif" font-size="13" fill="#90EE90" font-weight="normal">Social Media</text>
  </a>
</svg>