<svg xmlns="http://www.w3.org/2000/svg" xmlns:xlink="http://www.w3.org/1999/xlink" viewBox="173.20 257.50 998.64 285.00" width="998.64px" height="285.00px" class="use-case-tree-svg">
  <rect width="100%" height="100%" fill="transparent" />
  <line x1="350.00" y1="387.50" x2="360.00" y2="387.50" stroke="#FF6F00" stroke-width="1.5" />
  <path d="M 360.00 387.50 C 378.00 387.50, 382.00 362.50, 400.00 362.50" stroke="#FF6F00" stroke-width="1.5" fill="none" />
  <line x1="350.00" y1="387.50" x2="360.00" y2="387.50" stroke="#FF6F00" stroke-width="1.5" />
  <path d="M 360.00 387.50 C 378.00 387.50, 382.00 387.50, 400.00 387.50" stroke="#FF6F00" stroke-width="1.5" fill="none" />
  <line x1="350.00" y1="387.50" x2="360.00" y2="387.50" stroke="#FF6F00" stroke-width="1.5" />
  <path d="M 360.00 387.50 C 378.00 387.50, 382.00 412.50, 400.00 412.50" stroke="#FF6F00" stroke-width="1.5" fill="none" />
  <line x1="350.00" y1="387.50" x2="360.00" y2="387.50" stroke="#FF6F00" stroke-width="1.5" />
  <path d="M 360.00 387.50 C 378.00 387.50, 382.00 437.50, 400.00 437.50" stroke="#FF6F00" stroke-width="1.5" fill="none" />
  <line x1="542.97" y1="387.50" x2="626.06" y2="387.50" stroke="#FF6F00" stroke-width="1.5" />
  <path d="M 626.06 387.50 C 650.81 387.50, 656.31 287.50, 681.06 287.50" stroke="#FF6F00" stroke-width="1.5" fill="none" />
  <line x1="542.97" y1="387.50" x2="626.06" y2="387.50" stroke="#FF6F00" stroke-width="1.5" />
  <path d="M 626.06 387.50 C 650.81 387.50, 656.31 312.50, 681.06 312.50" stroke="#FF6F00" stroke-width="1.5" fill="none" />
  <line x1="542.97" y1="387.50" x2="626.06" y2="387.50" stroke="#FF6F00" stroke-width="1.5" />
  <path d="M 626.06 387.50 C 650.81 387.50, 656.31 337.50, 681.06 337.50" stroke="#FF6F00" stroke-width="1.5" fill="none" />
  <line x1="542.97" y1="387.50" x2="626.06" y2="387.50" stroke="#FF6F00" stroke-width="1.5" />
  <path d="M 626.06 387.50 C 650.81 387.50, 656.31 362.50, 681.06 362.50" stroke="#FF6F00" stroke-width="1.5" fill="none" />
  <line x1="542.97" y1="387.50" x2="626.06" y2="387.50" stroke="#FF6F00" stroke-width="1.5" />
  <path d="M 626.06 387.50 C 650.81 387.50, 656.31 387.50, 681.06 387.50" stroke="#FF6F00" stroke-width="1.5" fill="none" />
  <line x1="542.97" y1="387.50" x2="626.06" y2="387.50" stroke="#FF6F00" stroke-width="1.5" />
  <path d="M 626.06 387.50 C 650.81 387.50, 656.31 412.50, 681.06 412.50" stroke="#FF6F00" stroke-width="1.5" fill="none" />
  <line x1="542.97" y1="387.50" x2="626.06" y2="387.50" stroke="#FF6F00" stroke-width="1.5" />
  <path d="M 626.06 387.50 C 650.81 387.50, 656.31 437.50, 681.06 437.50" stroke="#FF6F00" stroke-width="1.5" fill="none" />
  <line x1="542.97" y1="387.50" x2="626.06" y2="387.50" stroke="#FF6F00" stroke-width="1.5" />
  <path d="M 626.06 387.50 C 650.81 387.50, 656.31 462.50, 681.06 462.50" stroke="#FF6F00" stroke-width="1.5" fill="none" />
  <line x1="542.97" y1="387.50" x2="626.06" y2="387.50" stroke="#FF6F00" stroke-width="1.5" />
  <path d="M 626.06 387.50 C 650.81 387.50, 656.31 487.50, 681.06 487.50" stroke="#FF6F00" stroke-width="1.5" fill="none" />
  <line x1="542.97" y1="387.50" x2="626.06" y2="387.50" stroke="#FF6F00" stroke-width="1.5" />
  <path d="M 626.06 387.50 C 650.81 387.50, 656.31 512.50, 681.06 512.50" stroke="#FF6F00" stroke-width="1.5" fill="none" />
  <line x1="873.17" y1="312.50" x2="897.73" y2="312.50" stroke="#FF6F00" stroke-width="1.5" />
  <path d="M 897.73 312.50 C 922.48 312.50, 927.98 275.00, 952.73 275.00" stroke="#FF6F00" stroke-width="1.5" fill="none" />
  <line x1="873.17" y1="312.50" x2="897.73" y2="312.50" stroke="#FF6F00" stroke-width="1.5" />
  <path d="M 897.73 312.50 C 922.48 312.50, 927.98 300.00, 952.73 300.00" stroke="#FF6F00" stroke-width="1.5" fill="none" />
  <line x1="873.17" y1="312.50" x2="897.73" y2="312.50" stroke="#FF6F00" stroke-width="1.5" />
  <path d="M 897.73 312.50 C 922.48 312.50, 927.98 325.00, 952.73 325.00" stroke="#FF6F00" stroke-width="1.5" fill="none" />
  <line x1="851.89" y1="337.50" x2="897.73" y2="337.50" stroke="#FF6F00" stroke-width="1.5" />
  <path d="M 897.73 337.50 C 922.48 337.50, 927.98 350.00, 952.73 350.00" stroke="#FF6F00" stroke-width="1.5" fill="none" />
  <line x1="851.89" y1="337.50" x2="897.73" y2="337.50" stroke="#FF6F00" stroke-width="1.5" />
  <path d="M 897.73 337.50 C 922.48 337.50, 927.98 375.00, 952.73 375.00" stroke="#FF6F00" stroke-width="1.5" fill="none" />
  <line x1="851.89" y1="337.50" x2="897.73" y2="337.50" stroke="#FF6F00" stroke-width="1.5" />
  <path d="M 897.73 337.50 C 922.48 337.50, 927.98 400.00, 952.73 400.00" stroke="#FF6F00" stroke-width="1.5" fill="none" />
  <line x1="851.89" y1="337.50" x2="897.73" y2="337.50" stroke="#FF6F00" stroke-width="1.5" />
  <path d="M 897.73 337.50 C 922.48 337.50, 927.98 425.00, 952.73 425.00" stroke="#FF6F00" stroke-width="1.5" fill="none" />
  <line x1="851.89" y1="337.50" x2="897.73" y2="337.50" stroke="#FF6F00" stroke-width="1.5" />
  <path d="M 897.73 337.50 C 922.48 337.50, 927.98 450.00, 952.73 450.00" stroke="#FF6F00" stroke-width="1.5" fill="none" />
  <line x1="851.89" y1="337.50" x2="897.73" y2="337.50" stroke="#FF6F00" stroke-width="1.5" />
  <path d="M 897.73 337.50 C 922.48 337.50, 927.98 475.00, 952.73 475.00" stroke="#FF6F00" stroke-width="1.5" fill="none" />
  <line x1="851.89" y1="337.50" x2="897.73" y2="337.50" stroke="#FF6F00" stroke-width="1.5" />
  <path d="M 897.73 337.50 C 922.48 337.50, 927.98 500.00, 952.73 500.00" stroke="#FF6F00" stroke-width="1.5" fill="none" />
  <line x1="851.89" y1="337.50" x2="897.73" y2="337.50" stroke="#FF6F00" stroke-width="1.5" />
  <path d="M 897.73 337.50 C 922.48 337.50, 927.98 525.00, 952.73 525.00" stroke="#FF6F00" stroke-width="1.5" fill="none" />
  <a xlink:href="/use-case/client-360/" target="_top">
    <rect x="178.20" y="375.00" width="171.80" height="25" rx="4" ry="4" fill="none" stroke="none" pointer-events="all" />
    <text x="188.20" y="392.00" text-anchor="start" font-family="Roboto, sans-serif" font-size="13" fill="#4051B5" font-weight="normal">Client 360 / Customer 360</text>
  </a>
  <a xlink:href="/use-case/client-360/customer-relationship-management/" target="_top">
    <rect x="400.00" y="350.00" width="231.06" height="25" rx="4" ry="4" fill="none" stroke="none" pointer-events="all" />
    <text x="410.00" y="367.00" text-anchor="start" font-family="Roboto, sans-serif" font-size="13" fill="#4051B5" font-weight="normal">Customer Relationship Management</text>
  </a>
  <a xlink:href="/use-case/client-360/know-your-customer/" target="_top">
    <rect x="400.00" y="375.00" width="142.97" height="25" rx="4" ry="4" fill="#4051B5" stroke="#FF6F00" stroke-width="1.5" />
    <text x="410.00" y="392.00" text-anchor="start" font-family="Roboto, sans-serif" font-size="13" fill="#FFFFFF" font-weight="bold">Know Your Customer</text>
  </a>
  <a xlink:href="/use-case/client-360/know-your-customer/activity-monitoring/" target="_top">
    <rect x="681.06" y="275.00" width="128.45" height="25" rx="4" ry="4" fill="none" stroke="none" pointer-events="all" />
    <text x="691.06" y="292.00" text-anchor="start" font-family="Roboto, sans-serif" font-size="13" fill="#4051B5" font-weight="normal">Activity Monitoring</text>
  </a>
  <a xlink:href="/use-case/client-360/know-your-customer/anti-money-laundering/" target="_top">
    <rect x="681.06" y="300.00" width="192.11" height="25" rx="4" ry="4" fill="none" stroke="none" pointer-events="all" />
    <text x="691.06" y="317.00" text-anchor="start" font-family="Roboto, sans-serif" font-size="13" fill="#4051B5" font-weight="normal">Anti Money Laundering (AML)</text>
  </a>
  <a xlink:href="/use-case/client-360/know-your-customer/anti-money-laundering/correspondent-based-aml/" target="_top">
    <rect x="952.73" y="262.50" width="174.64" height="25" rx="4" ry="4" fill="none" stroke="none" pointer-events="all" />
    <text x="962.73" y="279.50" text-anchor="start" font-family="Roboto, sans-serif" font-size="13" fill="#4051B5" font-weight="normal">Correspondent-based AML</text>
  </a>
  <a xlink:href="/use-case/client-360/know-your-customer/anti-money-laundering/network-based-aml/" target="_top">
    <rect x="952.73" y="287.50" width="137.97" height="25" rx="4" ry="4" fill="none" stroke="none" pointer-events="all" />
    <text x="962.73" y="304.50" text-anchor="start" font-family="Roboto, sans-serif" font-size="13" fill="#4051B5" font-weight="normal">Network Based AML</text>
  </a>
  <a xlink:href="/use-case/client-360/know-your-customer/anti-money-laundering/transaction-based-aml/" target="_top">
    <rect x="952.73" y="312.50" width="214.11" height="25" rx="4" ry="4" fill="none" stroke="none" pointer-events="all" />
    <text x="962.73" y="329.50" text-anchor="start" font-family="Roboto, sans-serif" font-size="13" fill="#4051B5" font-weight="normal">Transaction / Finance based AML</text>
  </a>
  <a xlink:href="/use-case/client-360/know-your-customer/core-record-management/" target="_top">
    <rect x="681.06" y="325.00" width="170.83" height="25" rx="4" ry="4" fill="none" stroke="none" pointer-events="all" />
    <text x="691.06" y="342.00" text-anchor="start" font-family="Roboto, sans-serif" font-size="13" fill="#4051B5" font-weight="normal">Core Record Management</text>
  </a>
  <a xlink:href="/use-case/client-360/know-your-customer/core-record-management/addresses/" target="_top">
    <rect x="952.73" y="337.50" width="81.31" height="25" rx="4" ry="4" fill="none" stroke="none" pointer-events="all" />
    <text x="962.73" y="354.50" text-anchor="start" font-family="Roboto, sans-serif" font-size="13" fill="#4051B5" font-weight="normal">Addresses</text>
  </a>
  <a xlink:href="/use-case/client-360/know-your-customer/core-record-management/audit/" target="_top">
    <rect x="952.73" y="362.50" width="50.33" height="25" rx="4" ry="4" fill="none" stroke="none" pointer-events="all" />
    <text x="962.73" y="379.50" text-anchor="start" font-family="Roboto, sans-serif" font-size="13" fill="#4051B5" font-weight="normal">Audit</text>
  </a>
  <a xlink:href="/use-case/client-360/know-your-customer/core-record-management/buildings/" target="_top">
    <rect x="952.73" y="387.50" width="73.23" height="25" rx="4" ry="4" fill="none" stroke="none" pointer-events="all" />
    <text x="962.73" y="404.50" text-anchor="start" font-family="Roboto, sans-serif" font-size="13" fill="#4051B5" font-weight="normal">Buildings</text>
  </a>
  <a xlink:href="/use-case/client-360/know-your-customer/core-record-management/countries/" target="_top">
    <rect x="952.73" y="412.50" width="75.64" height="25" rx="4" ry="4" fill="none" stroke="none" pointer-events="all" />
    <text x="962.73" y="429.50" text-anchor="start" font-family="Roboto, sans-serif" font-size="13" fill="#4051B5" font-weight="normal">Countries</text>
  </a>
  <a xlink:href="/use-case/client-360/know-your-customer/core-record-management/jurisdictions/" target="_top">
    <rect x="952.73" y="437.50" width="94.61" height="25" rx="4" ry="4" fill="none" stroke="none" pointer-events="all" />
    <text x="962.73" y="454.50" text-anchor="start" font-family="Roboto, sans-serif" font-size="13" fill="#4051B5" font-weight="normal">Jurisdictions</text>
  </a>
  <a xlink:href="/use-case/client-360/know-your-customer/core-record-management/legal-entities/" target="_top">
    <rect x="952.73" y="462.50" width="97.61" height="25" rx="4" ry="4" fill="none" stroke="none" pointer-events="all" />
    <text x="962.73" y="479.50" text-anchor="start" font-family="Roboto, sans-serif" font-size="13" fill="#4051B5" font-weight="normal">Legal Entities</text>
  </a>
  <a xlink:href="/use-case/client-360/know-your-customer/core-record-management/locations/" target="_top">
    <rect x="952.73" y="487.50" width="77.02" height="25" rx="4" ry="4" fill="none" stroke="none" pointer-events="all" />
    <text x="962.73" y="504.50" text-anchor="start" font-family="Roboto, sans-serif" font-size="13" fill="#4051B5" font-weight="normal">Locations</text>
  </a>
  <a xlink:href="/use-case/client-360/know-your-customer/core-record-management/regions/" target="_top">
    <rect x="952.73" y="512.50" width="66.66" height="25" rx="4" ry="4" fill="none" stroke="none" pointer-events="all" />
    <text x="962.73" y="529.50" text-anchor="start" font-family="Roboto, sans-serif" font-size="13" fill="#4051B5" font-weight="normal">Regions</text>
  </a>
  <a xlink:href="/use-case/client-360/know-your-customer/crime-records/" target="_top">
    <rect x="681.06" y="350.00" width="105.00" height="25" rx="4" ry="4" fill="none" stroke="none" pointer-events="all" />
    <text x="691.06" y="367.00" text-anchor="start" font-family="Roboto, sans-serif" font-size="13" fill="#4051B5" font-weight="normal">Crime Records</text>
  </a>
  <a xlink:href="/use-case/client-360/know-your-customer/gdpr/" target="_top">
    <rect x="681.06" y="375.00" width="53.61" height="25" rx="4" ry="4" fill="none" stroke="none" pointer-events="all" />
    <text x="691.06" y="392.00" text-anchor="start" font-family="Roboto, sans-serif" font-size="13" fill="#4051B5" font-weight="normal">GDPR</text>
  </a>
  <a xlink:href="/use-case/client-360/know-your-customer/high-net-worth-individuals/" target="_top">
    <rect x="681.06" y="400.00" width="173.92" height="25" rx="4" ry="4" fill="none" stroke="none" pointer-events="all" />
    <text x="691.06" y="417.00" text-anchor="start" font-family="Roboto, sans-serif" font-size="13" fill="#4051B5" font-weight="normal">High Net Worth Individuals</text>
  </a>
  <a xlink:href="/use-case/client-360/know-your-customer/identification-verification/" target="_top">
    <rect x="681.06" y="425.00" width="164.19" height="25" rx="4" ry="4" fill="none" stroke="none" pointer-events="all" />
    <text x="691.06" y="442.00" text-anchor="start" font-family="Roboto, sans-serif" font-size="13" fill="#4051B5" font-weight="normal">Identification Verification</text>
  </a>
  <a xlink:href="/use-case/client-360/know-your-customer/peps/" target="_top">
    <rect x="681.06" y="450.00" width="221.67" height="25" rx="4" ry="4" fill="none" stroke="none" pointer-events="all" />
    <text x="691.06" y="467.00" text-anchor="start" font-family="Roboto, sans-serif" font-size="13" fill="#4051B5" font-weight="normal">Politically Exposed Persons (PEPs)</text>
  </a>
  <a xlink:href="/use-case/client-360/know-your-customer/risk-management/" target="_top">
    <rect x="681.06" y="475.00" width="124.27" height="25" rx="4" ry="4" fill="none" stroke="none" pointer-events="all" />
    <text x="691.06" y="492.00" text-anchor="start" font-family="Roboto, sans-serif" font-size="13" fill="#4051B5" font-weight="normal">Risk Management</text>
  </a>
  <a xlink:href="/use-case/client-360/know-your-customer/sanctions/" target="_top">
    <rect x="681.06" y="500.00" width="77.48" height="25" rx="4" ry="4" fill="none" stroke="none" pointer-events="all" />
    <text x="691.06" y="517.00" text-anchor="start" font-family="Roboto, sans-serif" font-size="13" fill="#4051B5" font-weight="normal">Sanctions</text>
  </a>
  <a xlink:href="/use-case/client-360/relationships-and-connections/" target="_top">
    <rect x="400.00" y="400.00" width="185.33" height="25" rx="4" ry="4" fill="none" stroke="none" pointer-events="all" />
    <text x="410.00" y="417.00" text-anchor="start" font-family="Roboto, sans-serif" font-size="13" fill="#4051B5" font-weight="normal">Relationships &amp; Connections</text>
  </a>
  <a xlink:href="/use-case/client-360/social-media/" target="_top">
    <rect x="400.00" y="425.00" width="94.36" height="25" rx="4" ry="4" fill="none" stroke="none" pointer-events="all" />
    <text x="410.00" y="442.00" text-anchor="start" font-family="Roboto, sans-serif" font-size="13" fill="#4051B5" font-weight="normal">Social Media</text>
  </a>
</svg>