<svg xmlns="http://www.w3.org/2000/svg" xmlns:xlink="http://www.w3.org/1999/xlink" viewBox="-63.94 370.00 558.25 60.00" width="558.25px" height="60.00px" class="use-case-tree-svg">
  <rect width="100%" height="100%" fill="transparent" />
  <line x1="107.88" y1="387.50" x2="117.88" y2="387.50" stroke="#FF9900" stroke-width="1.5" />
  <path d="M 117.88 387.50 C 135.88 387.50, 139.88 387.50, 157.88 387.50" stroke="#FF9900" stroke-width="1.5" fill="none" />
  <path d="M 345.00 387.50 C 369.75 387.50, 375.25 387.50, 400.00 387.50" stroke="#FF9900" stroke-width="1.5" fill="none" />
  <path d="M 345.00 387.50 C 369.75 387.50, 375.25 412.50, 400.00 412.50" stroke="#FF9900" stroke-width="1.5" fill="none" />
  <a xlink:href="/use-case/legal-entity-management/" target="_top">
    <rect x="-58.94" y="375.00" width="166.81" height="25" rx="4" ry="4" fill="none" stroke="none" pointer-events="all" />
    <text x="-48.94" y="392.00" text-anchor="start" font-family="Roboto, sans-serif" font-size="13" fill="#90EE90" font-weight="normal">Legal Entity Management</text>
  </a>
  <a xlink:href="/use-case/legal-entity-management/compliance-and-documentation/" target="_top">
    <rect x="157.88" y="375.00" width="192.12" height="25" rx="4" ry="4" fill="none" stroke="none" pointer-events="all" />
    <text x="167.88" y="392.00" text-anchor="start" font-family="Roboto, sans-serif" font-size="13" fill="#90EE90" font-weight="normal">Compliance &amp; Documentation</text>
  </a>
  <a xlink:href="/use-case/legal-entity-management/compliance-and-documentation/compliance/" target="_top">
    <rect x="400.00" y="375.00" width="89.31" height="25" rx="4" ry="4" fill="#4051B5" stroke="#FF6F00" stroke-width="1.5" />
    <text x="410.00" y="392.00" text-anchor="start" font-family="Roboto, sans-serif" font-size="13" fill="#FFFFFF" font-weight="bold">Compliance</text>
  </a>
  <a xlink:href="/use-case/legal-entity-management/compliance-and-documentation/documents/" target="_top">
    <rect x="400.00" y="400.00" width="86.36" height="25" rx="4" ry="4" fill="none" stroke="none" pointer-events="all" />
    <text x="410.00" y="417.00" text-anchor="start" font-family="Roboto, sans-serif" font-size="13" fill="#90EE90" font-weight="normal">Documents</text>
  </a>
</svg>