<svg xmlns="http://www.w3.org/2000/svg" xmlns:xlink="http://www.w3.org/1999/xlink" viewBox="-23.19 307.50 754.55 147.50" width="754.55px" height="147.50px" class="use-case-tree-svg">
  <rect width="100%" height="100%" fill="transparent" />
  <line x1="81.30" y1="362.50" x2="91.30" y2="362.50" stroke="#FF6F00" stroke-width="1.5" />
  <path d="M 91.30 362.50 C 109.30 362.50, 113.30 325.00, 131.30 325.00" stroke="#FF6F00" stroke-width="1.5" fill="none" />
  <line x1="284.28" y1="350.00" x2="345.00" y2="350.00" stroke="#FF6F00" stroke-width="1.5" stroke-dasharray="4 2" />
  <path d="M 345.00 350.00 C 369.75 350.00, 375.25 362.50, 400.00 362.50" stroke="#FF6F00" stroke-width="1.5" fill="none" stroke-dasharray="4 2" />
  <line x1="293.62" y1="375.00" x2="345.00" y2="375.00" stroke="#FF6F00" stroke-width="1.5" stroke-dasharray="4 2" />
  <path d="M 345.00 375.00 C 369.75 375.00, 375.25 362.50, 400.00 362.50" stroke="#FF6F00" stroke-width="1.5" fill="none" stroke-dasharray="4 2" />
  <line x1="282.11" y1="400.00" x2="345.00" y2="400.00" stroke="#FF6F00" stroke-width="1.5" stroke-dasharray="4 2" />
  <path d="M 345.00 400.00 C 369.75 400.00, 375.25 362.50, 400.00 362.50" stroke="#FF6F00" stroke-width="1.5" fill="none" stroke-dasharray="4 2" />
  <path d="M 345.00 325.00 C 369.75 325.00, 375.25 362.50, 400.00 362.50" stroke="#FF6F00" stroke-width="1.5" fill="none" />
  <path d="M 345.00 325.00 C 369.75 325.00, 375.25 387.50, 400.00 387.50" stroke="#FF6F00" stroke-width="1.5" fill="none" />
  <path d="M 345.00 325.00 C 369.75 325.00, 375.25 412.50, 400.00 412.50" stroke="#FF6F00" stroke-width="1.5" fill="none" />
  <path d="M 345.00 325.00 C 369.75 325.00, 375.25 437.50, 400.00 437.50" stroke="#FF6F00" stroke-width="1.5" fill="none" />
  <a xlink:href="/use-case/cyber-security/" target="_top">
    <rect x="-18.19" y="350.00" width="99.48" height="25" rx="4" ry="4" fill="none" stroke="none" pointer-events="all" />
    <text x="-8.19" y="367.00" text-anchor="start" font-family="Roboto, sans-serif" font-size="13" fill="#4051B5" font-weight="normal">Cybersecurity</text>
  </a>
  <a xlink:href="/use-case/cyber-security/contexts/cloud/" target="_top">
    <rect x="131.30" y="337.50" width="152.98" height="25" rx="4" ry="4" fill="none" stroke="none" pointer-events="all" />
    <text x="141.30" y="354.50" text-anchor="start" font-family="Roboto, sans-serif" font-size="13" fill="#4051B5" font-weight="normal">Cloud Security Context</text>
  </a>
  <a xlink:href="/use-case/cyber-security/contexts/ot-ics/" target="_top">
    <rect x="131.30" y="362.50" width="162.33" height="25" rx="4" ry="4" fill="none" stroke="none" pointer-events="all" />
    <text x="141.30" y="379.50" text-anchor="start" font-family="Roboto, sans-serif" font-size="13" fill="#4051B5" font-weight="normal">OT/ICS Security Context</text>
  </a>
  <a xlink:href="/use-case/cyber-security/contexts/saas/" target="_top">
    <rect x="131.30" y="387.50" width="150.81" height="25" rx="4" ry="4" fill="none" stroke="none" pointer-events="all" />
    <text x="141.30" y="404.50" text-anchor="start" font-family="Roboto, sans-serif" font-size="13" fill="#4051B5" font-weight="normal">SaaS Security Context</text>
  </a>
  <a xlink:href="/use-case/cyber-security/recover/" target="_top">
    <rect x="131.30" y="312.50" width="218.70" height="25" rx="4" ry="4" fill="none" stroke="none" pointer-events="all" />
    <text x="141.30" y="329.50" text-anchor="start" font-family="Roboto, sans-serif" font-size="13" fill="#4051B5" font-weight="normal">Recover (Cybersecurity Recovery)</text>
  </a>
  <a xlink:href="/use-case/cyber-security/recover/backup-restore-and-integrity/" target="_top">
    <rect x="400.00" y="350.00" width="251.89" height="25" rx="4" ry="4" fill="#4051B5" stroke="#FF6F00" stroke-width="1.5" />
    <text x="410.00" y="367.00" text-anchor="start" font-family="Roboto, sans-serif" font-size="13" fill="#FFFFFF" font-weight="bold">Backup Restore &amp; Integrity Validation</text>
  </a>
  <a xlink:href="/use-case/cyber-security/recover/disaster-recovery-and-bcp/" target="_top">
    <rect x="400.00" y="375.00" width="326.36" height="25" rx="4" ry="4" fill="none" stroke="none" pointer-events="all" />
    <text x="410.00" y="392.00" text-anchor="start" font-family="Roboto, sans-serif" font-size="13" fill="#4051B5" font-weight="normal">Disaster Recovery (DR) &amp; Business Continuity (BCP)</text>
  </a>
  <a xlink:href="/use-case/cyber-security/recover/resilience-improvements/" target="_top">
    <rect x="400.00" y="400.00" width="165.98" height="25" rx="4" ry="4" fill="none" stroke="none" pointer-events="all" />
    <text x="410.00" y="417.00" text-anchor="start" font-family="Roboto, sans-serif" font-size="13" fill="#4051B5" font-weight="normal">Resilience Improvements</text>
  </a>
  <a xlink:href="/use-case/cyber-security/recover/service-restoration/" target="_top">
    <rect x="400.00" y="425.00" width="133.47" height="25" rx="4" ry="4" fill="none" stroke="none" pointer-events="all" />
    <text x="410.00" y="442.00" text-anchor="start" font-family="Roboto, sans-serif" font-size="13" fill="#4051B5" font-weight="normal">Service Restoration</text>
  </a>
</svg>