<svg xmlns="http://www.w3.org/2000/svg" xmlns:xlink="http://www.w3.org/1999/xlink" viewBox="-21.25 357.50 586.11 85.00" width="586.11px" height="85.00px" class="use-case-tree-svg">
  <rect width="100%" height="100%" fill="transparent" />
  <line x1="150.56" y1="425.00" x2="160.56" y2="425.00" stroke="#FF9900" stroke-width="1.5" />
  <path d="M 160.56 425.00 C 178.56 425.00, 182.56 425.00, 200.56 425.00" stroke="#FF9900" stroke-width="1.5" fill="none" />
  <path d="M 345.00 425.00 C 369.75 425.00, 375.25 375.00, 400.00 375.00" stroke="#FF9900" stroke-width="1.5" fill="none" />
  <path d="M 345.00 425.00 C 369.75 425.00, 375.25 400.00, 400.00 400.00" stroke="#FF9900" stroke-width="1.5" fill="none" />
  <path d="M 345.00 425.00 C 369.75 425.00, 375.25 425.00, 400.00 425.00" stroke="#FF9900" stroke-width="1.5" fill="none" />
  <a xlink:href="/use-case/legal-entity-management/" target="_top">
    <rect x="-16.25" y="412.50" width="166.81" height="25" rx="4" ry="4" fill="none" stroke="none" pointer-events="all" />
    <text x="-6.25" y="429.50" text-anchor="start" font-family="Roboto, sans-serif" font-size="13" fill="#90EE90" font-weight="normal">Legal Entity Management</text>
  </a>
  <a xlink:href="/use-case/legal-entity-management/corporate-governance/" target="_top">
    <rect x="200.56" y="412.50" width="149.44" height="25" rx="4" ry="4" fill="none" stroke="none" pointer-events="all" />
    <text x="210.56" y="429.50" text-anchor="start" font-family="Roboto, sans-serif" font-size="13" fill="#90EE90" font-weight="normal">Corporate Governance</text>
  </a>
  <a xlink:href="/use-case/legal-entity-management/corporate-governance/directorships/" target="_top">
    <rect x="400.00" y="362.50" width="96.64" height="25" rx="4" ry="4" fill="none" stroke="none" pointer-events="all" />
    <text x="410.00" y="379.50" text-anchor="start" font-family="Roboto, sans-serif" font-size="13" fill="#90EE90" font-weight="normal">Directorships</text>
  </a>
  <a xlink:href="/use-case/legal-entity-management/corporate-governance/organizational-structure/" target="_top">
    <rect x="400.00" y="387.50" width="159.86" height="25" rx="4" ry="4" fill="none" stroke="none" pointer-events="all" />
    <text x="410.00" y="404.50" text-anchor="start" font-family="Roboto, sans-serif" font-size="13" fill="#90EE90" font-weight="normal">Organizational Structure</text>
  </a>
  <a xlink:href="/use-case/legal-entity-management/corporate-governance/signatories/" target="_top">
    <rect x="400.00" y="412.50" width="86.56" height="25" rx="4" ry="4" fill="#4051B5" stroke="#FF6F00" stroke-width="1.5" />
    <text x="410.00" y="429.50" text-anchor="start" font-family="Roboto, sans-serif" font-size="13" fill="#FFFFFF" font-weight="bold">Signatories</text>
  </a>
</svg>