<svg xmlns="http://www.w3.org/2000/svg" xmlns:xlink="http://www.w3.org/1999/xlink" viewBox="-102.80 370.00 610.22 60.00" width="610.22px" height="60.00px" class="use-case-tree-svg">
  <rect width="100%" height="100%" fill="transparent" />
  <line x1="133.27" y1="387.50" x2="143.27" y2="387.50" stroke="#FF9900" stroke-width="1.5" />
  <path d="M 143.27 387.50 C 161.27 387.50, 165.27 387.50, 183.27 387.50" stroke="#FF9900" stroke-width="1.5" fill="none" />
  <path d="M 345.00 387.50 C 369.75 387.50, 375.25 387.50, 400.00 387.50" stroke="#FF9900" stroke-width="1.5" fill="none" />
  <path d="M 345.00 387.50 C 369.75 387.50, 375.25 412.50, 400.00 412.50" stroke="#FF9900" stroke-width="1.5" fill="none" />
  <a xlink:href="/use-case/client-360/customer-relationship-management/" target="_top">
    <rect x="-97.80" y="375.00" width="231.06" height="25" rx="4" ry="4" fill="none" stroke="none" pointer-events="all" />
    <text x="-87.80" y="392.00" text-anchor="start" font-family="Roboto, sans-serif" font-size="13" fill="#90EE90" font-weight="normal">Customer Relationship Management</text>
  </a>
  <a xlink:href="/use-case/client-360/customer-relationship-management/opportunity-management/" target="_top">
    <rect x="183.27" y="375.00" width="166.73" height="25" rx="4" ry="4" fill="none" stroke="none" pointer-events="all" />
    <text x="193.27" y="392.00" text-anchor="start" font-family="Roboto, sans-serif" font-size="13" fill="#90EE90" font-weight="normal">Opportunity Management</text>
  </a>
  <a xlink:href="/use-case/client-360/customer-relationship-management/opportunity-management/forecasting/" target="_top">
    <rect x="400.00" y="375.00" width="93.69" height="25" rx="4" ry="4" fill="#4051B5" stroke="#FF6F00" stroke-width="1.5" />
    <text x="410.00" y="392.00" text-anchor="start" font-family="Roboto, sans-serif" font-size="13" fill="#FFFFFF" font-weight="bold">Forecasting</text>
  </a>
  <a xlink:href="/use-case/client-360/customer-relationship-management/opportunity-management/sales-pipeline/" target="_top">
    <rect x="400.00" y="400.00" width="102.42" height="25" rx="4" ry="4" fill="none" stroke="none" pointer-events="all" />
    <text x="410.00" y="417.00" text-anchor="start" font-family="Roboto, sans-serif" font-size="13" fill="#90EE90" font-weight="normal">Sales Pipeline</text>
  </a>
</svg>