<svg xmlns="http://www.w3.org/2000/svg" xmlns:xlink="http://www.w3.org/1999/xlink" viewBox="395.00 357.50 485.31 85.00" width="485.31px" height="85.00px" class="use-case-tree-svg">
  <rect width="100%" height="100%" fill="transparent" />
  <path d="M 513.31 400.00 C 538.06 400.00, 543.56 375.00, 568.31 375.00" stroke="#FF6F00" stroke-width="1.5" fill="none" />
  <path d="M 513.31 400.00 C 538.06 400.00, 543.56 400.00, 568.31 400.00" stroke="#FF6F00" stroke-width="1.5" fill="none" />
  <path d="M 513.31 400.00 C 538.06 400.00, 543.56 425.00, 568.31 425.00" stroke="#FF6F00" stroke-width="1.5" fill="none" />
  <a xlink:href="/use-case/other/" target="_top">
    <rect x="400.00" y="387.50" width="118.31" height="25" rx="4" ry="4" fill="#4051B5" stroke="#FF6F00" stroke-width="1.5" />
    <text x="410.00" y="404.50" text-anchor="start" font-family="Roboto, sans-serif" font-size="13" fill="#FFFFFF" font-weight="bold">Other Usecases</text>
  </a>
  <a xlink:href="/use-case/other/enterprise-initiative-prioritization/" target="_top">
    <rect x="568.31" y="362.50" width="205.73" height="25" rx="4" ry="4" fill="none" stroke="none" pointer-events="all" />
    <text x="578.31" y="379.50" text-anchor="start" font-family="Roboto, sans-serif" font-size="13" fill="#4051B5" font-weight="normal">Enterprise Initiative Prioritization</text>
  </a>
  <a xlink:href="/use-case/other/identify-redundant-vendor-contracts/" target="_top">
    <rect x="568.31" y="387.50" width="233.25" height="25" rx="4" ry="4" fill="none" stroke="none" pointer-events="all" />
    <text x="578.31" y="404.50" text-anchor="start" font-family="Roboto, sans-serif" font-size="13" fill="#4051B5" font-weight="normal">Identify Redundant Vendor Contracts</text>
  </a>
  <a xlink:href="/use-case/other/merger-and-acquisition-evaluation-and-integration/" target="_top">
    <rect x="568.31" y="412.50" width="307.00" height="25" rx="4" ry="4" fill="none" stroke="none" pointer-events="all" />
    <text x="578.31" y="429.50" text-anchor="start" font-family="Roboto, sans-serif" font-size="13" fill="#4051B5" font-weight="normal">Merger and Acquisition Evaluation and Integration</text>
  </a>
</svg>