<svg xmlns="http://www.w3.org/2000/svg" xmlns:xlink="http://www.w3.org/1999/xlink" viewBox="395.00 357.50 479.52 85.00" width="479.52px" height="85.00px" class="use-case-tree-svg">
  <rect width="100%" height="100%" fill="transparent" />
  <path d="M 507.00 400.00 C 531.75 400.00, 537.25 375.00, 562.00 375.00" stroke="#FF9900" stroke-width="1.5" fill="none" />
  <path d="M 507.00 400.00 C 531.75 400.00, 537.25 400.00, 562.00 400.00" stroke="#FF9900" stroke-width="1.5" fill="none" />
  <path d="M 507.00 400.00 C 531.75 400.00, 537.25 425.00, 562.00 425.00" stroke="#FF9900" stroke-width="1.5" fill="none" />
  <a xlink:href="/use-case/other/" target="_top">
    <rect x="400.00" y="387.50" width="112.00" height="25" rx="4" ry="4" fill="#4051B5" stroke="#FF6F00" stroke-width="1.5" />
    <text x="410.00" y="404.50" text-anchor="start" font-family="Roboto, sans-serif" font-size="13" fill="#FFFFFF" font-weight="bold">Other Usecases</text>
  </a>
  <a xlink:href="/use-case/other/enterprise-initiative-prioritization/" target="_top">
    <rect x="562.00" y="362.50" width="207.55" height="25" rx="4" ry="4" fill="none" stroke="none" pointer-events="all" />
    <text x="572.00" y="379.50" text-anchor="start" font-family="Roboto, sans-serif" font-size="13" fill="#90EE90" font-weight="normal">Enterprise Initiative Prioritization</text>
  </a>
  <a xlink:href="/use-case/other/identify-redundant-vendor-contracts/" target="_top">
    <rect x="562.00" y="387.50" width="232.59" height="25" rx="4" ry="4" fill="none" stroke="none" pointer-events="all" />
    <text x="572.00" y="404.50" text-anchor="start" font-family="Roboto, sans-serif" font-size="13" fill="#90EE90" font-weight="normal">Identify Redundant Vendor Contracts</text>
  </a>
  <a xlink:href="/use-case/other/merger-and-acquisition-evaluation-and-integration/" target="_top">
    <rect x="562.00" y="412.50" width="307.52" height="25" rx="4" ry="4" fill="none" stroke="none" pointer-events="all" />
    <text x="572.00" y="429.50" text-anchor="start" font-family="Roboto, sans-serif" font-size="13" fill="#90EE90" font-weight="normal">Merger and Acquisition Evaluation and Integration</text>
  </a>
</svg>