<svg xmlns="http://www.w3.org/2000/svg" xmlns:xlink="http://www.w3.org/1999/xlink" viewBox="173.20 345.00 614.59 110.00" width="614.59px" height="110.00px" class="use-case-tree-svg">
  <rect width="100%" height="100%" fill="transparent" />
  <line x1="350.00" y1="437.50" x2="360.00" y2="437.50" stroke="#FF6F00" stroke-width="1.5" />
  <path d="M 360.00 437.50 C 378.00 437.50, 382.00 362.50, 400.00 362.50" stroke="#FF6F00" stroke-width="1.5" fill="none" />
  <line x1="350.00" y1="437.50" x2="360.00" y2="437.50" stroke="#FF6F00" stroke-width="1.5" />
  <path d="M 360.00 437.50 C 378.00 437.50, 382.00 387.50, 400.00 387.50" stroke="#FF6F00" stroke-width="1.5" fill="none" />
  <line x1="350.00" y1="437.50" x2="360.00" y2="437.50" stroke="#FF6F00" stroke-width="1.5" />
  <path d="M 360.00 437.50 C 378.00 437.50, 382.00 412.50, 400.00 412.50" stroke="#FF6F00" stroke-width="1.5" fill="none" />
  <line x1="350.00" y1="437.50" x2="360.00" y2="437.50" stroke="#FF6F00" stroke-width="1.5" />
  <path d="M 360.00 437.50 C 378.00 437.50, 382.00 437.50, 400.00 437.50" stroke="#FF6F00" stroke-width="1.5" fill="none" />
  <line x1="495.27" y1="437.50" x2="626.06" y2="437.50" stroke="#FF6F00" stroke-width="1.5" />
  <path d="M 626.06 437.50 C 650.81 437.50, 656.31 387.50, 681.06 387.50" stroke="#FF6F00" stroke-width="1.5" fill="none" />
  <line x1="495.27" y1="437.50" x2="626.06" y2="437.50" stroke="#FF6F00" stroke-width="1.5" />
  <path d="M 626.06 437.50 C 650.81 437.50, 656.31 412.50, 681.06 412.50" stroke="#FF6F00" stroke-width="1.5" fill="none" />
  <a xlink:href="/use-case/client-360/" target="_top">
    <rect x="178.20" y="425.00" width="171.80" height="25" rx="4" ry="4" fill="none" stroke="none" pointer-events="all" />
    <text x="188.20" y="442.00" text-anchor="start" font-family="Roboto, sans-serif" font-size="13" fill="#4051B5" font-weight="normal">Client 360 / Customer 360</text>
  </a>
  <a xlink:href="/use-case/client-360/customer-relationship-management/" target="_top">
    <rect x="400.00" y="350.00" width="231.06" height="25" rx="4" ry="4" fill="none" stroke="none" pointer-events="all" />
    <text x="410.00" y="367.00" text-anchor="start" font-family="Roboto, sans-serif" font-size="13" fill="#4051B5" font-weight="normal">Customer Relationship Management</text>
  </a>
  <a xlink:href="/use-case/client-360/know-your-customer/" target="_top">
    <rect x="400.00" y="375.00" width="141.81" height="25" rx="4" ry="4" fill="none" stroke="none" pointer-events="all" />
    <text x="410.00" y="392.00" text-anchor="start" font-family="Roboto, sans-serif" font-size="13" fill="#4051B5" font-weight="normal">Know Your Customer</text>
  </a>
  <a xlink:href="/use-case/client-360/relationships-and-connections/" target="_top">
    <rect x="400.00" y="400.00" width="185.33" height="25" rx="4" ry="4" fill="none" stroke="none" pointer-events="all" />
    <text x="410.00" y="417.00" text-anchor="start" font-family="Roboto, sans-serif" font-size="13" fill="#4051B5" font-weight="normal">Relationships &amp; Connections</text>
  </a>
  <a xlink:href="/use-case/client-360/social-media/" target="_top">
    <rect x="400.00" y="425.00" width="95.27" height="25" rx="4" ry="4" fill="#4051B5" stroke="#FF6F00" stroke-width="1.5" />
    <text x="410.00" y="442.00" text-anchor="start" font-family="Roboto, sans-serif" font-size="13" fill="#FFFFFF" font-weight="bold">Social Media</text>
  </a>
  <a xlink:href="/use-case/client-360/social-media/interest-graph/" target="_top">
    <rect x="681.06" y="375.00" width="101.73" height="25" rx="4" ry="4" fill="none" stroke="none" pointer-events="all" />
    <text x="691.06" y="392.00" text-anchor="start" font-family="Roboto, sans-serif" font-size="13" fill="#4051B5" font-weight="normal">Interest Graph</text>
  </a>
  <a xlink:href="/use-case/client-360/social-media/social-graph/" target="_top">
    <rect x="681.06" y="400.00" width="93.11" height="25" rx="4" ry="4" fill="none" stroke="none" pointer-events="all" />
    <text x="691.06" y="417.00" text-anchor="start" font-family="Roboto, sans-serif" font-size="13" fill="#4051B5" font-weight="normal">Social Graph</text>
  </a>
</svg>