<svg xmlns="http://www.w3.org/2000/svg" xmlns:xlink="http://www.w3.org/1999/xlink" viewBox="-107.12 332.50 816.08 135.00" width="816.08px" height="135.00px" class="use-case-tree-svg">
  <rect width="100%" height="100%" fill="transparent" />
  <line x1="68.94" y1="375.00" x2="78.94" y2="375.00" stroke="#FF6F00" stroke-width="1.5" />
  <path d="M 78.94 375.00 C 96.94 375.00, 100.94 375.00, 118.94 375.00" stroke="#FF6F00" stroke-width="1.5" fill="none" />
  <path d="M 345.00 375.00 C 369.75 375.00, 375.25 350.00, 400.00 350.00" stroke="#FF6F00" stroke-width="1.5" fill="none" />
  <path d="M 345.00 375.00 C 369.75 375.00, 375.25 375.00, 400.00 375.00" stroke="#FF6F00" stroke-width="1.5" fill="none" />
  <path d="M 345.00 375.00 C 369.75 375.00, 375.25 400.00, 400.00 400.00" stroke="#FF6F00" stroke-width="1.5" fill="none" />
  <path d="M 345.00 375.00 C 369.75 375.00, 375.25 425.00, 400.00 425.00" stroke="#FF6F00" stroke-width="1.5" fill="none" />
  <path d="M 345.00 375.00 C 369.75 375.00, 375.25 450.00, 400.00 450.00" stroke="#FF6F00" stroke-width="1.5" fill="none" />
  <line x1="550.05" y1="375.00" x2="561.73" y2="375.00" stroke="#FF6F00" stroke-width="1.5" />
  <path d="M 561.73 375.00 C 586.48 375.00, 591.98 400.00, 616.73 400.00" stroke="#FF6F00" stroke-width="1.5" fill="none" />
  <a xlink:href="/use-case/client-360/" target="_top">
    <rect x="-102.12" y="362.50" width="171.06" height="25" rx="4" ry="4" fill="none" stroke="none" pointer-events="all" />
    <text x="-92.12" y="379.50" text-anchor="start" font-family="Roboto, sans-serif" font-size="13" fill="#4051B5" font-weight="normal">Client 360 / Customer 360</text>
  </a>
  <a xlink:href="/use-case/client-360/customer-relationship-management/" target="_top">
    <rect x="118.94" y="362.50" width="231.06" height="25" rx="4" ry="4" fill="none" stroke="none" pointer-events="all" />
    <text x="128.94" y="379.50" text-anchor="start" font-family="Roboto, sans-serif" font-size="13" fill="#4051B5" font-weight="normal">Customer Relationship Management</text>
  </a>
  <a xlink:href="/use-case/client-360/customer-relationship-management/account-management/" target="_top">
    <rect x="400.00" y="337.50" width="146.50" height="25" rx="4" ry="4" fill="none" stroke="none" pointer-events="all" />
    <text x="410.00" y="354.50" text-anchor="start" font-family="Roboto, sans-serif" font-size="13" fill="#4051B5" font-weight="normal">Account Management</text>
  </a>
  <a xlink:href="/use-case/client-360/customer-relationship-management/activity-management/" target="_top">
    <rect x="400.00" y="362.50" width="150.05" height="25" rx="4" ry="4" fill="#4051B5" stroke="#FF6F00" stroke-width="1.5" />
    <text x="410.00" y="379.50" text-anchor="start" font-family="Roboto, sans-serif" font-size="13" fill="#FFFFFF" font-weight="bold">Activity Management</text>
  </a>
  <a xlink:href="/use-case/client-360/customer-relationship-management/activity-management/interactions/" target="_top">
    <rect x="616.73" y="387.50" width="87.22" height="25" rx="4" ry="4" fill="none" stroke="none" pointer-events="all" />
    <text x="626.73" y="404.50" text-anchor="start" font-family="Roboto, sans-serif" font-size="13" fill="#4051B5" font-weight="normal">Interactions</text>
  </a>
  <a xlink:href="/use-case/client-360/customer-relationship-management/contact-management/" target="_top">
    <rect x="400.00" y="387.50" width="144.33" height="25" rx="4" ry="4" fill="none" stroke="none" pointer-events="all" />
    <text x="410.00" y="404.50" text-anchor="start" font-family="Roboto, sans-serif" font-size="13" fill="#4051B5" font-weight="normal">Contact Management</text>
  </a>
  <a xlink:href="/use-case/client-360/customer-relationship-management/lead-management/" target="_top">
    <rect x="400.00" y="412.50" width="128.45" height="25" rx="4" ry="4" fill="none" stroke="none" pointer-events="all" />
    <text x="410.00" y="429.50" text-anchor="start" font-family="Roboto, sans-serif" font-size="13" fill="#4051B5" font-weight="normal">Lead Management</text>
  </a>
  <a xlink:href="/use-case/client-360/customer-relationship-management/opportunity-management/" target="_top">
    <rect x="400.00" y="437.50" width="166.73" height="25" rx="4" ry="4" fill="none" stroke="none" pointer-events="all" />
    <text x="410.00" y="454.50" text-anchor="start" font-family="Roboto, sans-serif" font-size="13" fill="#4051B5" font-weight="normal">Opportunity Management</text>
  </a>
</svg>