<svg xmlns="http://www.w3.org/2000/svg" xmlns:xlink="http://www.w3.org/1999/xlink" viewBox="395.00 132.50 736.38 535.00" width="736.38px" height="535.00px" class="use-case-tree-svg">
  <rect width="100%" height="100%" fill="transparent" />
  <path d="M 568.64 400.00 C 593.39 400.00, 598.89 362.50, 623.64 362.50" stroke="#FF9900" stroke-width="1.5" fill="none" />
  <path d="M 568.64 400.00 C 593.39 400.00, 598.89 387.50, 623.64 387.50" stroke="#FF9900" stroke-width="1.5" fill="none" />
  <path d="M 568.64 400.00 C 593.39 400.00, 598.89 412.50, 623.64 412.50" stroke="#FF9900" stroke-width="1.5" fill="none" />
  <path d="M 568.64 400.00 C 593.39 400.00, 598.89 437.50, 623.64 437.50" stroke="#FF9900" stroke-width="1.5" fill="none" />
  <path d="M 849.70 362.50 C 874.45 362.50, 879.95 150.00, 904.70 150.00" stroke="#FF9900" stroke-width="1.5" fill="none" />
  <path d="M 849.70 362.50 C 874.45 362.50, 879.95 175.00, 904.70 175.00" stroke="#FF9900" stroke-width="1.5" fill="none" />
  <path d="M 849.70 362.50 C 874.45 362.50, 879.95 200.00, 904.70 200.00" stroke="#FF9900" stroke-width="1.5" fill="none" />
  <path d="M 849.70 362.50 C 874.45 362.50, 879.95 225.00, 904.70 225.00" stroke="#FF9900" stroke-width="1.5" fill="none" />
  <path d="M 849.70 362.50 C 874.45 362.50, 879.95 250.00, 904.70 250.00" stroke="#FF9900" stroke-width="1.5" fill="none" />
  <line x1="765.45" y1="387.50" x2="849.70" y2="387.50" stroke="#FF9900" stroke-width="1.5" />
  <path d="M 849.70 387.50 C 874.45 387.50, 879.95 275.00, 904.70 275.00" stroke="#FF9900" stroke-width="1.5" fill="none" />
  <line x1="765.45" y1="387.50" x2="849.70" y2="387.50" stroke="#FF9900" stroke-width="1.5" />
  <path d="M 849.70 387.50 C 874.45 387.50, 879.95 300.00, 904.70 300.00" stroke="#FF9900" stroke-width="1.5" fill="none" />
  <line x1="765.45" y1="387.50" x2="849.70" y2="387.50" stroke="#FF9900" stroke-width="1.5" />
  <path d="M 849.70 387.50 C 874.45 387.50, 879.95 325.00, 904.70 325.00" stroke="#FF9900" stroke-width="1.5" fill="none" />
  <line x1="765.45" y1="387.50" x2="849.70" y2="387.50" stroke="#FF9900" stroke-width="1.5" />
  <path d="M 849.70 387.50 C 874.45 387.50, 879.95 350.00, 904.70 350.00" stroke="#FF9900" stroke-width="1.5" fill="none" />
  <line x1="765.45" y1="387.50" x2="849.70" y2="387.50" stroke="#FF9900" stroke-width="1.5" />
  <path d="M 849.70 387.50 C 874.45 387.50, 879.95 375.00, 904.70 375.00" stroke="#FF9900" stroke-width="1.5" fill="none" />
  <line x1="765.45" y1="387.50" x2="849.70" y2="387.50" stroke="#FF9900" stroke-width="1.5" />
  <path d="M 849.70 387.50 C 874.45 387.50, 879.95 400.00, 904.70 400.00" stroke="#FF9900" stroke-width="1.5" fill="none" />
  <line x1="765.45" y1="387.50" x2="849.70" y2="387.50" stroke="#FF9900" stroke-width="1.5" />
  <path d="M 849.70 387.50 C 874.45 387.50, 879.95 425.00, 904.70 425.00" stroke="#FF9900" stroke-width="1.5" fill="none" />
  <line x1="765.45" y1="387.50" x2="849.70" y2="387.50" stroke="#FF9900" stroke-width="1.5" />
  <path d="M 849.70 387.50 C 874.45 387.50, 879.95 450.00, 904.70 450.00" stroke="#FF9900" stroke-width="1.5" fill="none" />
  <line x1="765.45" y1="387.50" x2="849.70" y2="387.50" stroke="#FF9900" stroke-width="1.5" />
  <path d="M 849.70 387.50 C 874.45 387.50, 879.95 475.00, 904.70 475.00" stroke="#FF9900" stroke-width="1.5" fill="none" />
  <line x1="765.45" y1="387.50" x2="849.70" y2="387.50" stroke="#FF9900" stroke-width="1.5" />
  <path d="M 849.70 387.50 C 874.45 387.50, 879.95 500.00, 904.70 500.00" stroke="#FF9900" stroke-width="1.5" fill="none" />
  <line x1="808.97" y1="412.50" x2="849.70" y2="412.50" stroke="#FF9900" stroke-width="1.5" />
  <path d="M 849.70 412.50 C 874.45 412.50, 879.95 525.00, 904.70 525.00" stroke="#FF9900" stroke-width="1.5" fill="none" />
  <line x1="808.97" y1="412.50" x2="849.70" y2="412.50" stroke="#FF9900" stroke-width="1.5" />
  <path d="M 849.70 412.50 C 874.45 412.50, 879.95 550.00, 904.70 550.00" stroke="#FF9900" stroke-width="1.5" fill="none" />
  <line x1="808.97" y1="412.50" x2="849.70" y2="412.50" stroke="#FF9900" stroke-width="1.5" />
  <path d="M 849.70 412.50 C 874.45 412.50, 879.95 575.00, 904.70 575.00" stroke="#FF9900" stroke-width="1.5" fill="none" />
  <line x1="808.97" y1="412.50" x2="849.70" y2="412.50" stroke="#FF9900" stroke-width="1.5" />
  <path d="M 849.70 412.50 C 874.45 412.50, 879.95 600.00, 904.70 600.00" stroke="#FF9900" stroke-width="1.5" fill="none" />
  <line x1="718.00" y1="437.50" x2="849.70" y2="437.50" stroke="#FF9900" stroke-width="1.5" />
  <path d="M 849.70 437.50 C 874.45 437.50, 879.95 625.00, 904.70 625.00" stroke="#FF9900" stroke-width="1.5" fill="none" />
  <line x1="718.00" y1="437.50" x2="849.70" y2="437.50" stroke="#FF9900" stroke-width="1.5" />
  <path d="M 849.70 437.50 C 874.45 437.50, 879.95 650.00, 904.70 650.00" stroke="#FF9900" stroke-width="1.5" fill="none" />
  <a xlink:href="/use-case/client-360/" target="_top">
    <rect x="400.00" y="387.50" width="173.64" height="25" rx="4" ry="4" fill="#4051B5" stroke="#FF6F00" stroke-width="1.5" />
    <text x="410.00" y="404.50" text-anchor="start" font-family="Roboto, sans-serif" font-size="13" fill="#FFFFFF" font-weight="bold">Client 360 / Customer 360</text>
  </a>
  <a xlink:href="/use-case/client-360/customer-relationship-management/" target="_top">
    <rect x="623.64" y="350.00" width="231.06" height="25" rx="4" ry="4" fill="none" stroke="none" pointer-events="all" />
    <text x="633.64" y="367.00" text-anchor="start" font-family="Roboto, sans-serif" font-size="13" fill="#90EE90" font-weight="normal">Customer Relationship Management</text>
  </a>
  <a xlink:href="/use-case/client-360/customer-relationship-management/account-management/" target="_top">
    <rect x="904.70" y="137.50" width="147.92" height="25" rx="4" ry="4" fill="none" stroke="none" pointer-events="all" />
    <text x="914.70" y="154.50" text-anchor="start" font-family="Roboto, sans-serif" font-size="13" fill="#90EE90" font-weight="normal">Account Management</text>
  </a>
  <a xlink:href="/use-case/client-360/customer-relationship-management/activity-management/" target="_top">
    <rect x="904.70" y="162.50" width="142.36" height="25" rx="4" ry="4" fill="none" stroke="none" pointer-events="all" />
    <text x="914.70" y="179.50" text-anchor="start" font-family="Roboto, sans-serif" font-size="13" fill="#90EE90" font-weight="normal">Activity Management</text>
  </a>
  <a xlink:href="/use-case/client-360/customer-relationship-management/contact-management/" target="_top">
    <rect x="904.70" y="187.50" width="145.25" height="25" rx="4" ry="4" fill="none" stroke="none" pointer-events="all" />
    <text x="914.70" y="204.50" text-anchor="start" font-family="Roboto, sans-serif" font-size="13" fill="#90EE90" font-weight="normal">Contact Management</text>
  </a>
  <a xlink:href="/use-case/client-360/customer-relationship-management/lead-management/" target="_top">
    <rect x="904.70" y="212.50" width="128.09" height="25" rx="4" ry="4" fill="none" stroke="none" pointer-events="all" />
    <text x="914.70" y="229.50" text-anchor="start" font-family="Roboto, sans-serif" font-size="13" fill="#90EE90" font-weight="normal">Lead Management</text>
  </a>
  <a xlink:href="/use-case/client-360/customer-relationship-management/opportunity-management/" target="_top">
    <rect x="904.70" y="237.50" width="167.62" height="25" rx="4" ry="4" fill="none" stroke="none" pointer-events="all" />
    <text x="914.70" y="254.50" text-anchor="start" font-family="Roboto, sans-serif" font-size="13" fill="#90EE90" font-weight="normal">Opportunity Management</text>
  </a>
  <a xlink:href="/use-case/client-360/know-your-customer/" target="_top">
    <rect x="623.64" y="375.00" width="141.81" height="25" rx="4" ry="4" fill="none" stroke="none" pointer-events="all" />
    <text x="633.64" y="392.00" text-anchor="start" font-family="Roboto, sans-serif" font-size="13" fill="#90EE90" font-weight="normal">Know Your Customer</text>
  </a>
  <a xlink:href="/use-case/client-360/know-your-customer/activity-monitoring/" target="_top">
    <rect x="904.70" y="262.50" width="128.45" height="25" rx="4" ry="4" fill="none" stroke="none" pointer-events="all" />
    <text x="914.70" y="279.50" text-anchor="start" font-family="Roboto, sans-serif" font-size="13" fill="#90EE90" font-weight="normal">Activity Monitoring</text>
  </a>
  <a xlink:href="/use-case/client-360/know-your-customer/anti-money-laundering/" target="_top">
    <rect x="904.70" y="287.50" width="192.11" height="25" rx="4" ry="4" fill="none" stroke="none" pointer-events="all" />
    <text x="914.70" y="304.50" text-anchor="start" font-family="Roboto, sans-serif" font-size="13" fill="#90EE90" font-weight="normal">Anti Money Laundering (AML)</text>
  </a>
  <a xlink:href="/use-case/client-360/know-your-customer/core-record-management/" target="_top">
    <rect x="904.70" y="312.50" width="170.83" height="25" rx="4" ry="4" fill="none" stroke="none" pointer-events="all" />
    <text x="914.70" y="329.50" text-anchor="start" font-family="Roboto, sans-serif" font-size="13" fill="#90EE90" font-weight="normal">Core Record Management</text>
  </a>
  <a xlink:href="/use-case/client-360/know-your-customer/crime-records/" target="_top">
    <rect x="904.70" y="337.50" width="105.00" height="25" rx="4" ry="4" fill="none" stroke="none" pointer-events="all" />
    <text x="914.70" y="354.50" text-anchor="start" font-family="Roboto, sans-serif" font-size="13" fill="#90EE90" font-weight="normal">Crime Records</text>
  </a>
  <a xlink:href="/use-case/client-360/know-your-customer/gdpr/" target="_top">
    <rect x="904.70" y="362.50" width="53.61" height="25" rx="4" ry="4" fill="none" stroke="none" pointer-events="all" />
    <text x="914.70" y="379.50" text-anchor="start" font-family="Roboto, sans-serif" font-size="13" fill="#90EE90" font-weight="normal">GDPR</text>
  </a>
  <a xlink:href="/use-case/client-360/know-your-customer/high-net-worth-individuals/" target="_top">
    <rect x="904.70" y="387.50" width="173.92" height="25" rx="4" ry="4" fill="none" stroke="none" pointer-events="all" />
    <text x="914.70" y="404.50" text-anchor="start" font-family="Roboto, sans-serif" font-size="13" fill="#90EE90" font-weight="normal">High Net Worth Individuals</text>
  </a>
  <a xlink:href="/use-case/client-360/know-your-customer/identification-verification/" target="_top">
    <rect x="904.70" y="412.50" width="164.19" height="25" rx="4" ry="4" fill="none" stroke="none" pointer-events="all" />
    <text x="914.70" y="429.50" text-anchor="start" font-family="Roboto, sans-serif" font-size="13" fill="#90EE90" font-weight="normal">Identification Verification</text>
  </a>
  <a xlink:href="/use-case/client-360/know-your-customer/peps/" target="_top">
    <rect x="904.70" y="437.50" width="221.67" height="25" rx="4" ry="4" fill="none" stroke="none" pointer-events="all" />
    <text x="914.70" y="454.50" text-anchor="start" font-family="Roboto, sans-serif" font-size="13" fill="#90EE90" font-weight="normal">Politically Exposed Persons (PEPs)</text>
  </a>
  <a xlink:href="/use-case/client-360/know-your-customer/risk-management/" target="_top">
    <rect x="904.70" y="462.50" width="124.27" height="25" rx="4" ry="4" fill="none" stroke="none" pointer-events="all" />
    <text x="914.70" y="479.50" text-anchor="start" font-family="Roboto, sans-serif" font-size="13" fill="#90EE90" font-weight="normal">Risk Management</text>
  </a>
  <a xlink:href="/use-case/client-360/know-your-customer/sanctions/" target="_top">
    <rect x="904.70" y="487.50" width="77.48" height="25" rx="4" ry="4" fill="none" stroke="none" pointer-events="all" />
    <text x="914.70" y="504.50" text-anchor="start" font-family="Roboto, sans-serif" font-size="13" fill="#90EE90" font-weight="normal">Sanctions</text>
  </a>
  <a xlink:href="/use-case/client-360/relationships-and-connections/" target="_top">
    <rect x="623.64" y="400.00" width="185.33" height="25" rx="4" ry="4" fill="none" stroke="none" pointer-events="all" />
    <text x="633.64" y="417.00" text-anchor="start" font-family="Roboto, sans-serif" font-size="13" fill="#90EE90" font-weight="normal">Relationships &amp; Connections</text>
  </a>
  <a xlink:href="/use-case/client-360/relationships-and-connections/business-connections/" target="_top">
    <rect x="904.70" y="512.50" width="148.45" height="25" rx="4" ry="4" fill="none" stroke="none" pointer-events="all" />
    <text x="914.70" y="529.50" text-anchor="start" font-family="Roboto, sans-serif" font-size="13" fill="#90EE90" font-weight="normal">Business Connections</text>
  </a>
  <a xlink:href="/use-case/client-360/relationships-and-connections/family-connections/" target="_top">
    <rect x="904.70" y="537.50" width="133.78" height="25" rx="4" ry="4" fill="none" stroke="none" pointer-events="all" />
    <text x="914.70" y="554.50" text-anchor="start" font-family="Roboto, sans-serif" font-size="13" fill="#90EE90" font-weight="normal">Family Connections</text>
  </a>
  <a xlink:href="/use-case/client-360/relationships-and-connections/political-connections/" target="_top">
    <rect x="904.70" y="562.50" width="142.17" height="25" rx="4" ry="4" fill="none" stroke="none" pointer-events="all" />
    <text x="914.70" y="579.50" text-anchor="start" font-family="Roboto, sans-serif" font-size="13" fill="#90EE90" font-weight="normal">Political Connections</text>
  </a>
  <a xlink:href="/use-case/client-360/relationships-and-connections/social-connections/" target="_top">
    <rect x="904.70" y="587.50" width="131.20" height="25" rx="4" ry="4" fill="none" stroke="none" pointer-events="all" />
    <text x="914.70" y="604.50" text-anchor="start" font-family="Roboto, sans-serif" font-size="13" fill="#90EE90" font-weight="normal">Social Connections</text>
  </a>
  <a xlink:href="/use-case/client-360/social-media/" target="_top">
    <rect x="623.64" y="425.00" width="94.36" height="25" rx="4" ry="4" fill="none" stroke="none" pointer-events="all" />
    <text x="633.64" y="442.00" text-anchor="start" font-family="Roboto, sans-serif" font-size="13" fill="#90EE90" font-weight="normal">Social Media</text>
  </a>
  <a xlink:href="/use-case/client-360/social-media/interest-graph/" target="_top">
    <rect x="904.70" y="612.50" width="101.73" height="25" rx="4" ry="4" fill="none" stroke="none" pointer-events="all" />
    <text x="914.70" y="629.50" text-anchor="start" font-family="Roboto, sans-serif" font-size="13" fill="#90EE90" font-weight="normal">Interest Graph</text>
  </a>
  <a xlink:href="/use-case/client-360/social-media/social-graph/" target="_top">
    <rect x="904.70" y="637.50" width="93.11" height="25" rx="4" ry="4" fill="none" stroke="none" pointer-events="all" />
    <text x="914.70" y="654.50" text-anchor="start" font-family="Roboto, sans-serif" font-size="13" fill="#90EE90" font-weight="normal">Social Graph</text>
  </a>
</svg>