<svg xmlns="http://www.w3.org/2000/svg" xmlns:xlink="http://www.w3.org/1999/xlink" contentStyleType="text/css" data-diagram-type="MINDMAP" height="100px" preserveAspectRatio="none" style="width:921px;height:100px;" version="1.1" viewBox="0 0 921 100" width="921px" zoomAndPan="magnify"><defs/><g><polygon fill="#4051B5" points="364.2354,31.2969,364.2354,31.5071,374.4183,30.8826,384.6012,31.4902,394.7841,31.6966,404.967,30.5835,415.1499,31.2192,425.3328,30.8704,435.5157,30.9134,445.6986,31.2287,455.8815,30.6055,466.0644,31.8505,476.2473,30.6666,486.4302,31.0991,496.6131,31.7288,506.796,31.2111,516.9789,31.3651,527.1618,31.2649,537.3447,31.2969,537.3675,31.3519,537.9409,31.6048,538.5508,31.9459,539.1274,32.2065,539.6941,32.4433,540.1732,32.4684,540.2516,32.5009,540.5502,33.0933,540.858,33.6894,540.654,34.0735,541.3194,34.8177,541.3447,35.2969,541.2459,35.2969,541.5227,40.9563,541.1797,46.6156,541.3219,52.275,541.5919,57.9344,541.3447,63.5938,541.3297,63.5875,541.1428,64.1729,540.9804,64.7683,540.77,65.3439,540.4063,65.856,540.1732,66.4222,540.2098,66.5106,539.5345,66.4802,539.0781,66.9784,538.546,67.2939,537.9671,67.4963,537.3447,67.5938,537.3447,68.2068,527.1618,67.1107,516.9789,66.9416,506.796,66.9723,496.6131,67.5349,486.4302,67.3972,476.2473,68.2752,466.0644,67.4191,455.8815,67.2507,445.6986,67.822,435.5157,66.9269,425.3328,67.0746,415.1499,68.2427,404.967,68.0294,394.7841,68.3282,384.6012,67.272,374.4183,67.9129,364.2354,67.5938,364.3107,67.7756,363.6094,67.214,363.0918,67.0956,362.5544,66.9296,362.0557,66.8572,361.4069,66.4222,361.4056,66.4216,361.3151,65.9155,360.7678,65.2202,360.4954,64.6387,360.6248,64.2237,360.2354,63.5938,359.9964,63.5938,360.405,57.9344,360.3042,52.275,360.146,46.6156,360.1174,40.9563,360.2354,35.2969,360.3766,35.3554,360.3775,34.693,360.8863,34.241,360.7681,33.5293,361.3628,33.1129,361.4069,32.4684,361.4687,32.6176,362.0039,32.3096,362.5443,32.0144,363.1967,31.9893,363.7479,31.7201,364.2354,31.2969" style="stroke:#FF6F00;stroke-width:1.5;"/><text fill="#FFFFFF" font-family="'Roboto'" font-size="14" lengthAdjust="spacing" textLength="161.1094" x="370.2354" y="54.292">Proposal &amp; Negotiation</text><a href="/use-case/construction-project-quotations/proposal-submission-and-negotiation/compliance-matrix-and-submission-packaging/" target="_top" title="/use-case/construction-project-quotations/proposal-submission-and-negotiation/compliance-matrix-and-submission-packaging/" xlink:actuate="onRequest" xlink:href="/use-case/construction-project-quotations/proposal-submission-and-negotiation/compliance-matrix-and-submission-packaging/" xlink:show="new" xlink:title="/use-case/construction-project-quotations/proposal-submission-and-negotiation/compliance-matrix-and-submission-packaging/" xlink:type="simple"><text fill="#90EE90" font-family="'Roboto'" font-size="14" lengthAdjust="spacing" textLength="307.2344" x="598.3447" y="27.9951">Compliance Matrix &amp; Submission Packaging</text></a><path d="M541.3447,49.4453 L541.3447,49.6321 L543.3447,49.077 L545.3447,49.6171 L547.3447,49.8006 L549.3447,48.8112 L551.3447,49.4453 L551.3447,49.4453 L551.322,49.4193 L554.2198,46.6731 L557.2324,44.0578 L560.3248,41.5335 L563.1422,38.6955 L566.3447,36.2969 L566.5069,36.4819 L569.1601,33.4565 L572.2868,30.9714 L575.4713,28.5522 L578.3196,25.7495 L581.3447,23.1484 L581.3447,23.2091 L583.3447,23.12 L585.3447,23.3071 L587.3447,23.361 L589.3447,23.6691 L591.3447,23.1484" fill="none" style="stroke:#FF9900;stroke-width:1;"/><a href="/use-case/construction-project-quotations/proposal-submission-and-negotiation/negotiation-support-and-revisions/" target="_top" title="/use-case/construction-project-quotations/proposal-submission-and-negotiation/negotiation-support-and-revisions/" xlink:actuate="onRequest" xlink:href="/use-case/construction-project-quotations/proposal-submission-and-negotiation/negotiation-support-and-revisions/" xlink:show="new" xlink:title="/use-case/construction-project-quotations/proposal-submission-and-negotiation/negotiation-support-and-revisions/" xlink:type="simple"><text fill="#90EE90" font-family="'Roboto'" font-size="14" lengthAdjust="spacing" textLength="227.3564" x="598.3447" y="54.292">Negotiation Support &amp; Revisions</text></a><path d="M541.3447,49.4453 L541.3447,49.6321 L543.3447,49.077 L545.3447,49.6171 L547.3447,49.8006 L549.3447,48.8112 L551.3447,49.4453 L551.3447,49.4453 L551.3447,49.4108 L557.3447,49.2558 L563.3447,49.2749 L569.3447,49.415 L575.3447,49.138 L581.3447,49.4453 L581.3447,49.9374 L583.3447,48.8851 L585.3447,49.2695 L587.3447,49.8293 L589.3447,49.3691 L591.3447,49.4453" fill="none" style="stroke:#FF9900;stroke-width:1;"/><a href="/use-case/construction-project-quotations/proposal-submission-and-negotiation/proposal-document-generation/" target="_top" title="/use-case/construction-project-quotations/proposal-submission-and-negotiation/proposal-document-generation/" xlink:actuate="onRequest" xlink:href="/use-case/construction-project-quotations/proposal-submission-and-negotiation/proposal-document-generation/" xlink:show="new" xlink:title="/use-case/construction-project-quotations/proposal-submission-and-negotiation/proposal-document-generation/" xlink:type="simple"><text fill="#90EE90" font-family="'Roboto'" font-size="14" lengthAdjust="spacing" textLength="306.8037" x="598.3447" y="80.5889">Proposal Document Generation &amp; Assembly</text></a><path d="M541.3447,49.4453 L541.3447,49.6321 L543.3447,49.077 L545.3447,49.6171 L547.3447,49.8006 L549.3447,48.8112 L551.3447,49.4453 L551.3447,49.4453 L551.322,49.4193 L554.2198,51.9325 L557.2324,54.5765 L560.3248,57.3116 L563.1422,59.733 L566.3447,62.5938 L566.5069,62.7788 L569.1601,65.0128 L572.2868,67.787 L575.4713,70.6272 L578.3196,73.0838 L581.3447,75.7422 L581.3447,75.8028 L583.3447,75.7138 L585.3447,75.9009 L587.3447,75.9548 L589.3447,76.2628 L591.3447,75.7422" fill="none" style="stroke:#FF9900;stroke-width:1;"/><a href="/use-case/construction-project-quotations/" target="_top" title="/use-case/construction-project-quotations/" xlink:actuate="onRequest" xlink:href="/use-case/construction-project-quotations/" xlink:show="new" xlink:title="/use-case/construction-project-quotations/" xlink:type="simple"><text fill="#90EE90" font-family="'Roboto'" font-size="14" lengthAdjust="spacing" textLength="289.2354" x="14" y="54.292">Complex Construction Project Quotations</text></a><path d="M360.2354,49.4453 L360.2354,49.6321 L358.2354,49.077 L356.2354,49.6171 L354.2354,49.8006 L352.2354,48.8112 L350.2354,49.4453 L350.2354,49.4453 L350.2354,49.4108 L344.2354,49.2558 L338.2354,49.2749 L332.2354,49.415 L326.2354,49.138 L320.2354,49.4453 L320.2354,49.9374 L318.2354,48.8851 L316.2354,49.2695 L314.2354,49.8293 L312.2354,49.3691 L310.2354,49.4453" fill="none" style="stroke:#FF9900;stroke-width:1;"/><!--SRC=[xLZRRjiu47tNLt0RODiYwoPEaw8DYYAEuwHDV5ixAR0eYe2MQ9jhYLH9oebtiV- -8ygsQ5cMRrMJeDMJJHxEd1bUvvn8XONoA7Cyx2DVS9zBx1PaqF6eb9Ip0cPEWP4ULnGh-6zPlpcaInb1fnUtjTAd-csvKMsqaFvs3lUFYfqZ4zAkb1lrirBhhp4k1T8ibQzA5vMfeJb8etLMQPb-q4wt-wQxlp-5d3VgrpC03Ga_ov83odmii8Sws1xq10-OK-Ok5nEW4fX9G12c3F37aKz4bRA1YKKxBktrLKyG0fbuZYYptS0XIFK9wX5617RHr8H4NHZOuQh_1zB34EGIELWCOAJYY0-9k1DK4NH7LJ-oGOU48KcKegmdancu_lYfV5MljDke2DF0_N0-K1-CXbOK3EnYLn8ZXYPs73243essLXI_0BBehT7UxcE7tuNef1MT2HSoSSCS_OEC8GRcZ7Hnu2hqhuNGEMUgZZs2dhKuHC-VZTkYHCPJDMvkqty8AXvQ_vdsIaBmEsrjmQX5njJ8XNnnrvcrvyFKunwPyaiPVffO7JFhE-pd0i8VznbB4Xp5VXXtrdKoi_nNzMDpp-SCLgnsjZ7rXJoZF0QUUp2RHmShtC6IvE9snfFjyi3v0Mwuwn8xt4ao9sUnhp8017TpztCQciLYbBkZ2bDKvU-6CaL45ziaTqzjyYqWp2PDk1IfJNtCL6Jkka_j0IDImj4Rm-KOhdcPOvPGd3EVojP0nKSRuyB3xdnloXwkqYw12unak9X2bX3Mnt6A2zsUOL_tBw2d- -AylWwRRCN5KYuQbE4px5-qyP-Zyg4-tE2YWpyxIp_ph11mK63MSydxzt0ZIiu-VD0ptuRbIRY2QpBZPlgUDywaAyvUyeKmUyWPnCaza6NOlSqhWiI3BwSmv4WguZtb_ESLGOxvdrp-JotzCU-dd7rZ4NN65_o4V-Bfden8lx3tLtjzRfoBPM56rvU3PPyugyMU6heDxZ7SM6ATsA6wMBxSSejyrGc6Kbn5JubvifEQEEoBUKngtB2rf9IWdK2Hz6wJvQHwJhotiPG_sFjpL1ih3z8dDkrI6v8GtSqf9TKcl9Q6ZUENpSxv-Rjtq9_eD9z-rcvpB96Wtr7TK4KAXLlqvSjU84d1XfDc3vQfL2BGXKN15_nlMC65Rm5N6Yxte1RmV9VSXpN158YQ4H3zEGL-_MhjxgvdUWKHPoyi7rsAuUbQy33CtBr660EYUXacOinKOr5DOo7qzXG9xz0nCYUgnc-0-JuNIcC46L8PvTAO262c8S2nDG7aH6oASRWTU52A5o85I7UYwJev6_UYYsala2j9IRoEEm9k9mIsGBGDBEjaVJqkHu7haKj9yKPVMKUQ7P9gPYq5AHwx-6nAFuCoDQFlOJPR8igsayvb8r5eVKShoa3R6buY_6nYVZMfPplBcUBETgOpv9pj36SBEDlPpacoYKaj46jYVXleDF6UIXDfOjEBz9cOdQ7Cn4RdP9dOOaAHIOnPGOunN2U56CFBh0PZRC0DvPJiStlT5JM_GBQNInwAuT9Azi5JzxWOhY5YF12lHvgu7FI7cD46qMN4i4HhAEOlBkGLsSBP-Vd4WryAmI-5u2TK29ekl2HlQbKqX1T922s-EjW_E7fLB7Q8miNz5pTimFWTq_KVXMDGKO-yj5vSDAj8ya3093bKHXiEXh-qBl4GerR0GjmnQlY4NPvTJHgW9XXImLd8pxhyN8i1RmuBfrJ1yri04VIvPatgzWgpUIWL7AERw_F2MwiAXsi0bVCn8imgmzPKOWHzxVy1]--></g></svg>