<svg xmlns="http://www.w3.org/2000/svg" xmlns:xlink="http://www.w3.org/1999/xlink" contentStyleType="text/css" data-diagram-type="MINDMAP" height="97px" preserveAspectRatio="none" style="width:867px;height:97px;" version="1.1" viewBox="0 0 867 97" width="867px" zoomAndPan="magnify"><defs/><g><polygon fill="#4051B5" points="343.5757,30.1328,343.5757,30.343,353.6758,29.7185,363.7759,30.3261,373.876,30.5325,383.9761,29.4194,394.0762,30.0551,404.1763,29.7063,414.2764,29.7493,424.3765,30.0647,434.4766,29.4414,444.5767,30.6865,454.6768,29.5025,464.7769,29.935,474.877,30.5648,484.9771,30.047,495.0771,30.2011,505.1772,30.1328,505.1732,30.123,505.7657,30.4221,506.3391,30.6751,506.949,31.0161,507.5256,31.2767,508.0057,31.3044,508.2149,31.391,508.3184,31.9026,508.6171,32.4949,508.9249,33.091,508.7208,33.4751,509.1772,34.1328,509.4034,34.1328,509.0784,39.5594,509.3552,44.9859,509.0122,50.4125,509.1544,55.8391,509.1772,61.2656,509.4056,61.3602,508.9279,61.8251,508.741,62.4104,508.5786,63.0059,508.3682,63.5815,508.0057,64.0941,508.0052,64.0928,507.4766,64.4168,506.8013,64.3864,506.3449,64.8846,505.8129,65.2001,505.1772,65.2656,505.1772,65.7102,495.0771,65.8786,484.9771,64.7825,474.877,64.6134,464.7769,64.6442,454.6768,65.2067,444.5767,65.0691,434.4766,65.947,424.3765,65.0909,414.2764,64.9226,404.1763,65.4939,394.0762,64.5988,383.9761,64.7465,373.876,65.9146,363.7759,65.7013,353.6758,66.0001,343.5757,65.2656,343.5346,65.1665,343.0507,65.1296,342.5196,64.9788,341.8184,64.4172,341.3007,64.2988,340.7473,64.0941,340.7861,64.1101,340.7137,63.6115,340.2773,62.9621,340.1868,62.456,339.6395,61.7607,339.5757,61.2656,339.3499,61.2656,339.7436,55.8391,339.3367,50.4125,339.7453,44.9859,339.6446,39.5594,339.5757,34.1328,339.4932,34.0986,339.7011,33.522,340.1856,33.06,340.1864,32.3976,340.6952,31.9456,340.7473,31.3044,340.6767,31.1342,341.3917,31.2602,341.9404,30.9849,342.4756,30.6769,343.016,30.3817,343.5757,30.1328" style="stroke:#FF6F00;stroke-width:1.5;"/><text fill="#FFFFFF" font-family="'Roboto'" font-size="13" lengthAdjust="spacing" textLength="149.6016" x="349.5757" y="52.1997">Proposal &amp; Negotiation</text><a href="/use-case/construction-project-quotations/proposal-submission-and-negotiation/compliance-matrix-and-submission-packaging/" target="_top" title="/use-case/construction-project-quotations/proposal-submission-and-negotiation/compliance-matrix-and-submission-packaging/" xlink:actuate="onRequest" xlink:href="/use-case/construction-project-quotations/proposal-submission-and-negotiation/compliance-matrix-and-submission-packaging/" xlink:show="new" xlink:title="/use-case/construction-project-quotations/proposal-submission-and-negotiation/compliance-matrix-and-submission-packaging/" xlink:type="simple"><text fill="#4051B5" font-family="'Roboto'" font-size="13" lengthAdjust="spacing" textLength="285.2891" x="566.1772" y="27.0669">Compliance Matrix &amp; Submission Packaging</text></a><path d="M509.1772,47.6992 L509.1772,47.886 L511.1772,47.3309 L513.1772,47.871 L515.1772,48.0545 L517.1772,47.0651 L519.1772,47.6992 L519.1772,47.6992 L519.1551,47.6727 L522.0555,45.0406 L525.0678,42.542 L528.1578,40.1362 L530.9799,37.4106 L534.1772,35.1328 L534.3353,35.3214 L536.9974,32.4048 L540.1208,30.0389 L543.3005,27.7401 L546.1528,25.0505 L549.1772,22.5664 L549.1772,22.6271 L551.1772,22.538 L553.1772,22.7251 L555.1772,22.779 L557.1772,23.087 L559.1772,22.5664" fill="none" style="stroke:#FF6F00;stroke-width:1;"/><a href="/use-case/construction-project-quotations/proposal-submission-and-negotiation/negotiation-support-and-revisions/" target="_top" title="/use-case/construction-project-quotations/proposal-submission-and-negotiation/negotiation-support-and-revisions/" xlink:actuate="onRequest" xlink:href="/use-case/construction-project-quotations/proposal-submission-and-negotiation/negotiation-support-and-revisions/" xlink:show="new" xlink:title="/use-case/construction-project-quotations/proposal-submission-and-negotiation/negotiation-support-and-revisions/" xlink:type="simple"><text fill="#4051B5" font-family="'Roboto'" font-size="13" lengthAdjust="spacing" textLength="211.1167" x="566.1772" y="52.1997">Negotiation Support &amp; Revisions</text></a><path d="M509.1772,47.6992 L509.1772,47.886 L511.1772,47.3309 L513.1772,47.871 L515.1772,48.0545 L517.1772,47.0651 L519.1772,47.6992 L519.1772,47.6992 L519.1772,47.6647 L525.1772,47.5097 L531.1772,47.5288 L537.1772,47.6689 L543.1772,47.3919 L549.1772,47.6992 L549.1772,48.1913 L551.1772,47.139 L553.1772,47.5234 L555.1772,48.0832 L557.1772,47.623 L559.1772,47.6992" fill="none" style="stroke:#FF6F00;stroke-width:1;"/><a href="/use-case/construction-project-quotations/proposal-submission-and-negotiation/proposal-document-generation/" target="_top" title="/use-case/construction-project-quotations/proposal-submission-and-negotiation/proposal-document-generation/" xlink:actuate="onRequest" xlink:href="/use-case/construction-project-quotations/proposal-submission-and-negotiation/proposal-document-generation/" xlink:show="new" xlink:title="/use-case/construction-project-quotations/proposal-submission-and-negotiation/proposal-document-generation/" xlink:type="simple"><text fill="#4051B5" font-family="'Roboto'" font-size="13" lengthAdjust="spacing" textLength="284.8892" x="566.1772" y="77.3325">Proposal Document Generation &amp; Assembly</text></a><path d="M509.1772,47.6992 L509.1772,47.886 L511.1772,47.3309 L513.1772,47.871 L515.1772,48.0545 L517.1772,47.0651 L519.1772,47.6992 L519.1772,47.6992 L519.1551,47.6727 L522.0555,50.0672 L525.0678,52.5951 L528.1578,55.2158 L530.9799,57.5168 L534.1772,60.2656 L534.3353,60.4542 L536.9974,62.5642 L540.1208,65.2248 L543.3005,67.9526 L546.1528,70.2895 L549.1772,72.832 L549.1772,72.8927 L551.1772,72.8036 L553.1772,72.9907 L555.1772,73.0446 L557.1772,73.3526 L559.1772,72.832" fill="none" style="stroke:#FF6F00;stroke-width:1;"/><a href="/use-case/construction-project-quotations/" target="_top" title="/use-case/construction-project-quotations/" xlink:actuate="onRequest" xlink:href="/use-case/construction-project-quotations/" xlink:show="new" xlink:title="/use-case/construction-project-quotations/" xlink:type="simple"><text fill="#4051B5" font-family="'Roboto'" font-size="13" lengthAdjust="spacing" textLength="268.5757" x="14" y="52.1997">Complex Construction Project Quotations</text></a><path d="M339.5757,47.6992 L339.5757,47.886 L337.5757,47.3309 L335.5757,47.871 L333.5757,48.0545 L331.5757,47.0651 L329.5757,47.6992 L329.5757,47.6992 L329.5757,47.6647 L323.5757,47.5097 L317.5757,47.5288 L311.5757,47.6689 L305.5757,47.3919 L299.5757,47.6992 L299.5757,48.1913 L297.5757,47.139 L295.5757,47.5234 L293.5757,48.0832 L291.5757,47.623 L289.5757,47.6992" fill="none" style="stroke:#FF6F00;stroke-width:1;"/><!--SRC=[xLZRRjiu47tNLt0RODkYLHEtIL4KHL77ITCcSUoraouMHH7G4crp8v4gIINnBlRVTqJ94gN8aYzHBq3zb8Y7CsU6jvdpJYeib4-Pw-C01O87N6BFbk78fr9IpcpCN9kH2LSKA_ZVidvpoPWoWlQFBhljZsUNdTvfRu3qRsjtPwyrsZCXmyDEx-oWFVWhmPL0-ktEIVleC3Lq1z8R71mEJ3zeQpn-ETxPII7lUsVdEO26HByKqXuCUd_cCNChbhoYBC02-sY4dQk9u25pEzpZ0cqfWPc4CSAK0Vim2uZmABjAK0bZwo6YpF52bo0r9MX2617OG-ayYSQ07d4rVOeyEfag1Db5BXPNC5DnnA-9k15K4NH3rJIsGQy9Gv8eHTb45dDo_k5Zv-JiS3X4BLWO7aGhXAPWDBAYOE8OUv8OnFlOTS4GsZM-3U9m1P15huplmobs-Ks4Bbf9mxzWhlw39103Sq36EFGK-jT2w3rdwWpx13qOS8YUFqY-nTdB5Y_vFAJ_4DJQjVupxRM5u3VQse9PYuofcGVvufwRjnV0IkC9IVcLJDylR8RSZe_6kO3map5ZauAZp0_ZxgfESWTYMJyEzmFEO9jgPsjJNyWppcFeUy_pUNInmYCiIIDkSvuSZuVkDt33FOyuqKcI3JdBV7K08BZNk9_zo2mMiyOT7J95LVDkA5D4ZB536lSq95z3mXpIXsUIEZJ0JCNcpgVKkM94IhXwCxXCu9gNEQU6uXtpfMmDL7QrCIvyxDqTBJd3ftHCJk6shd2HGce8w-kun8N-Nc5VZo-WfyUolBw8FZcAYrek6bJXCnfVTF0VeiwkljpWeOD_jcf_vbqXuAB0REAHDs_WHPISlNshLtu8svDm1SzanSjqdo_EV2ZBNh52o5zo1d5o2sGPzYwRYg1G0ZOKXfn9HVoVEVzDHT1W_kUF_y-M_eptpvnzOnEDaWT-phzGkXSZqXNspdBLvzgvg0ipVhvSBAV4NIxsqj0TS8_XnHAhn0xTHVrsQopoPHTu-Hvgte6Q3TIB-7dhGLCfA3GXRc8jwa7d7N_KdKXa8p-KAceX2C9ZY7hkkT376FwIxhgYGJCQxYgg-HecoqoXpP0AgxYggb-tXGi3fO1IWev2HHOZii8c7q5b7vPhKx2KcpEjSlOGTPFram5nw9Wwa1zTmS1ItamZ0K71nGPbiemMNY_oKpJoGW9hp1Y9wY69UAYYuR9UjJ7ccI-SB_PQblMadyXFw7TqPYXEjds9Fd_U3YMn7RYpjo44gKIeMpGx4FnlYCV-6dAbuN8RzfyVUEGswgvI8Eh7GFH72lponNhoP3NJImXasr4Zxb4CJO3jOzXjjnfXJ8YL1rYiXAd6egx6GkZ350aLVO9iYAhnDy22W0kbCO9SKnddqbW8OAOXm74m1pH4BCMut0bzmfGTQsbw4ANxv20PHKVfA91hIqdyaJS3Rky879Fug5ZMkzMrpljJ1dzm3Mv-dwyWmEMdb9fPINhBvXRldkp5CA-MkNfR8xRTXzbgRQtQJZcNjTIqrHqjgPzjQhX6CLl7_78QsMQMArMnpKnNw62R6QvMlZQptP3MbP5Qe79b_DOGkB8pLQPkPQON2LiPEwFooupUqRCoYmKfgp1d2HtBS5rKi0mlUV7AE81hwb3Lz_QgE-hk1jbSP_fU36ibWE-UkX-BuGhgptVYzOCchW7X9cEqHdGLCTI8DAtcLPcc8bkuElUWkcmWcvG-rlSkcMGMonDNgfJaXdEFPS9uKIMzf3fIJwhMV8M2SG_MVsaMlpIBRwjPz3qeTY-wf-WQYgO8sdhsVEVvthDMQqGKRkqykc1NZDymtQ9Ik1OKzSbZwz5H_nH97WfO99VA-2J3zCVMCRx6Q12o2FSQzGB2ZWzEvX-WRRccWhE8dtNygPi1NkxQ-rH1Xo202FhKjUQNv25pUAHcl4ONv-_jLzOftFyXDFUl4M5M1qwV4ZCO6_uF]--></g></svg>