<svg xmlns="http://www.w3.org/2000/svg" xmlns:xlink="http://www.w3.org/1999/xlink" viewBox="-64.48 320.00 830.66 160.00" width="830.66px" height="160.00px" class="use-case-tree-svg">
  <rect width="100%" height="100%" fill="transparent" />
  <line x1="107.33" y1="362.50" x2="117.33" y2="362.50" stroke="#FF9900" stroke-width="1.5" />
  <path d="M 117.33 362.50 C 135.33 362.50, 139.33 362.50, 157.33 362.50" stroke="#FF9900" stroke-width="1.5" fill="none" />
  <path d="M 345.00 362.50 C 369.75 362.50, 375.25 337.50, 400.00 337.50" stroke="#FF9900" stroke-width="1.5" fill="none" />
  <path d="M 345.00 362.50 C 369.75 362.50, 375.25 362.50, 400.00 362.50" stroke="#FF9900" stroke-width="1.5" fill="none" />
  <path d="M 345.00 362.50 C 369.75 362.50, 375.25 387.50, 400.00 387.50" stroke="#FF9900" stroke-width="1.5" fill="none" />
  <path d="M 345.00 362.50 C 369.75 362.50, 375.25 412.50, 400.00 412.50" stroke="#FF9900" stroke-width="1.5" fill="none" />
  <path d="M 345.00 362.50 C 369.75 362.50, 375.25 437.50, 400.00 437.50" stroke="#FF9900" stroke-width="1.5" fill="none" />
  <path d="M 345.00 362.50 C 369.75 362.50, 375.25 462.50, 400.00 462.50" stroke="#FF9900" stroke-width="1.5" fill="none" />
  <path d="M 521.08 362.50 C 545.83 362.50, 551.33 350.00, 576.08 350.00" stroke="#FF9900" stroke-width="1.5" fill="none" />
  <path d="M 521.08 362.50 C 545.83 362.50, 551.33 375.00, 576.08 375.00" stroke="#FF9900" stroke-width="1.5" fill="none" />
  <path d="M 521.08 362.50 C 545.83 362.50, 551.33 400.00, 576.08 400.00" stroke="#FF9900" stroke-width="1.5" fill="none" />
  <path d="M 521.08 362.50 C 545.83 362.50, 551.33 425.00, 576.08 425.00" stroke="#FF9900" stroke-width="1.5" fill="none" />
  <path d="M 521.08 362.50 C 545.83 362.50, 551.33 450.00, 576.08 450.00" stroke="#FF9900" stroke-width="1.5" fill="none" />
  <a xlink:href="/use-case/legal-entity-management/" target="_top">
    <rect x="-59.48" y="350.00" width="166.81" height="25" rx="4" ry="4" fill="none" stroke="none" pointer-events="all" />
    <text x="-49.48" y="367.00" text-anchor="start" font-family="Roboto, sans-serif" font-size="13" fill="#90EE90" font-weight="normal">Legal Entity Management</text>
  </a>
  <a xlink:href="/use-case/legal-entity-management/ownership-and-capital-structure/" target="_top">
    <rect x="157.33" y="350.00" width="192.67" height="25" rx="4" ry="4" fill="none" stroke="none" pointer-events="all" />
    <text x="167.33" y="367.00" text-anchor="start" font-family="Roboto, sans-serif" font-size="13" fill="#90EE90" font-weight="normal">Ownership &amp; Capital Structure</text>
  </a>
  <a xlink:href="/use-case/legal-entity-management/ownership-and-capital-structure/control/" target="_top">
    <rect x="400.00" y="325.00" width="62.17" height="25" rx="4" ry="4" fill="none" stroke="none" pointer-events="all" />
    <text x="410.00" y="342.00" text-anchor="start" font-family="Roboto, sans-serif" font-size="13" fill="#90EE90" font-weight="normal">Control</text>
  </a>
  <a xlink:href="/use-case/legal-entity-management/ownership-and-capital-structure/corporate-actions/" target="_top">
    <rect x="400.00" y="350.00" width="126.08" height="25" rx="4" ry="4" fill="#4051B5" stroke="#FF6F00" stroke-width="1.5" />
    <text x="410.00" y="367.00" text-anchor="start" font-family="Roboto, sans-serif" font-size="13" fill="#FFFFFF" font-weight="bold">Corporate Actions</text>
  </a>
  <a xlink:href="/use-case/legal-entity-management/ownership-and-capital-structure/corporate-actions/dividends/" target="_top">
    <rect x="576.08" y="337.50" width="76.56" height="25" rx="4" ry="4" fill="none" stroke="none" pointer-events="all" />
    <text x="586.08" y="354.50" text-anchor="start" font-family="Roboto, sans-serif" font-size="13" fill="#90EE90" font-weight="normal">Dividends</text>
  </a>
  <a xlink:href="/use-case/legal-entity-management/ownership-and-capital-structure/corporate-actions/merger-and-acquisition-history/" target="_top">
    <rect x="576.08" y="362.50" width="185.09" height="25" rx="4" ry="4" fill="none" stroke="none" pointer-events="all" />
    <text x="586.08" y="379.50" text-anchor="start" font-family="Roboto, sans-serif" font-size="13" fill="#90EE90" font-weight="normal">Merger &amp; Acquisition History</text>
  </a>
  <a xlink:href="/use-case/legal-entity-management/ownership-and-capital-structure/corporate-actions/parents-and-subsidiaries/" target="_top">
    <rect x="576.08" y="387.50" width="149.81" height="25" rx="4" ry="4" fill="none" stroke="none" pointer-events="all" />
    <text x="586.08" y="404.50" text-anchor="start" font-family="Roboto, sans-serif" font-size="13" fill="#90EE90" font-weight="normal">Parents &amp; Subsidiaries</text>
  </a>
  <a xlink:href="/use-case/legal-entity-management/ownership-and-capital-structure/corporate-actions/spin-offs/" target="_top">
    <rect x="576.08" y="412.50" width="72.09" height="25" rx="4" ry="4" fill="none" stroke="none" pointer-events="all" />
    <text x="586.08" y="429.50" text-anchor="start" font-family="Roboto, sans-serif" font-size="13" fill="#90EE90" font-weight="normal">Spin-offs</text>
  </a>
  <a xlink:href="/use-case/legal-entity-management/ownership-and-capital-structure/corporate-actions/stock-splits/" target="_top">
    <rect x="576.08" y="437.50" width="88.17" height="25" rx="4" ry="4" fill="none" stroke="none" pointer-events="all" />
    <text x="586.08" y="454.50" text-anchor="start" font-family="Roboto, sans-serif" font-size="13" fill="#90EE90" font-weight="normal">Stock Splits</text>
  </a>
  <a xlink:href="/use-case/legal-entity-management/ownership-and-capital-structure/issued-capital/" target="_top">
    <rect x="400.00" y="375.00" width="102.03" height="25" rx="4" ry="4" fill="none" stroke="none" pointer-events="all" />
    <text x="410.00" y="392.00" text-anchor="start" font-family="Roboto, sans-serif" font-size="13" fill="#90EE90" font-weight="normal">Issued Capital</text>
  </a>
  <a xlink:href="/use-case/legal-entity-management/ownership-and-capital-structure/ownership/" target="_top">
    <rect x="400.00" y="400.00" width="81.48" height="25" rx="4" ry="4" fill="none" stroke="none" pointer-events="all" />
    <text x="410.00" y="417.00" text-anchor="start" font-family="Roboto, sans-serif" font-size="13" fill="#90EE90" font-weight="normal">Ownership</text>
  </a>
  <a xlink:href="/use-case/legal-entity-management/ownership-and-capital-structure/share-capital/" target="_top">
    <rect x="400.00" y="425.00" width="96.83" height="25" rx="4" ry="4" fill="none" stroke="none" pointer-events="all" />
    <text x="410.00" y="442.00" text-anchor="start" font-family="Roboto, sans-serif" font-size="13" fill="#90EE90" font-weight="normal">Share Capital</text>
  </a>
  <a xlink:href="/use-case/legal-entity-management/ownership-and-capital-structure/shares/" target="_top">
    <rect x="400.00" y="450.00" width="59.83" height="25" rx="4" ry="4" fill="none" stroke="none" pointer-events="all" />
    <text x="410.00" y="467.00" text-anchor="start" font-family="Roboto, sans-serif" font-size="13" fill="#90EE90" font-weight="normal">Shares</text>
  </a>
</svg>