<svg xmlns="http://www.w3.org/2000/svg" xmlns:xlink="http://www.w3.org/1999/xlink" viewBox="-67.36 320.00 838.59 160.00" width="838.59px" height="160.00px" class="use-case-tree-svg">
  <rect width="100%" height="100%" fill="transparent" />
  <line x1="105.11" y1="362.50" x2="115.11" y2="362.50" stroke="#FF6F00" stroke-width="1.5" />
  <path d="M 115.11 362.50 C 133.11 362.50, 137.11 362.50, 155.11 362.50" stroke="#FF6F00" stroke-width="1.5" fill="none" />
  <path d="M 345.00 362.50 C 369.75 362.50, 375.25 337.50, 400.00 337.50" stroke="#FF6F00" stroke-width="1.5" fill="none" />
  <path d="M 345.00 362.50 C 369.75 362.50, 375.25 362.50, 400.00 362.50" stroke="#FF6F00" stroke-width="1.5" fill="none" />
  <path d="M 345.00 362.50 C 369.75 362.50, 375.25 387.50, 400.00 387.50" stroke="#FF6F00" stroke-width="1.5" fill="none" />
  <path d="M 345.00 362.50 C 369.75 362.50, 375.25 412.50, 400.00 412.50" stroke="#FF6F00" stroke-width="1.5" fill="none" />
  <path d="M 345.00 362.50 C 369.75 362.50, 375.25 437.50, 400.00 437.50" stroke="#FF6F00" stroke-width="1.5" fill="none" />
  <path d="M 345.00 362.50 C 369.75 362.50, 375.25 462.50, 400.00 462.50" stroke="#FF6F00" stroke-width="1.5" fill="none" />
  <path d="M 527.92 362.50 C 552.67 362.50, 558.17 350.00, 582.92 350.00" stroke="#FF6F00" stroke-width="1.5" fill="none" />
  <path d="M 527.92 362.50 C 552.67 362.50, 558.17 375.00, 582.92 375.00" stroke="#FF6F00" stroke-width="1.5" fill="none" />
  <path d="M 527.92 362.50 C 552.67 362.50, 558.17 400.00, 582.92 400.00" stroke="#FF6F00" stroke-width="1.5" fill="none" />
  <path d="M 527.92 362.50 C 552.67 362.50, 558.17 425.00, 582.92 425.00" stroke="#FF6F00" stroke-width="1.5" fill="none" />
  <path d="M 527.92 362.50 C 552.67 362.50, 558.17 450.00, 582.92 450.00" stroke="#FF6F00" stroke-width="1.5" fill="none" />
  <a xlink:href="/use-case/legal-entity-management/" target="_top">
    <rect x="-62.36" y="350.00" width="167.47" height="25" rx="4" ry="4" fill="none" stroke="none" pointer-events="all" />
    <text x="-52.36" y="367.00" text-anchor="start" font-family="Roboto, sans-serif" font-size="13" fill="#4051B5" font-weight="normal">Legal Entity Management</text>
  </a>
  <a xlink:href="/use-case/legal-entity-management/ownership-and-capital-structure/" target="_top">
    <rect x="155.11" y="350.00" width="194.89" height="25" rx="4" ry="4" fill="none" stroke="none" pointer-events="all" />
    <text x="165.11" y="367.00" text-anchor="start" font-family="Roboto, sans-serif" font-size="13" fill="#4051B5" font-weight="normal">Ownership &amp; Capital Structure</text>
  </a>
  <a xlink:href="/use-case/legal-entity-management/ownership-and-capital-structure/control/" target="_top">
    <rect x="400.00" y="325.00" width="61.92" height="25" rx="4" ry="4" fill="none" stroke="none" pointer-events="all" />
    <text x="410.00" y="342.00" text-anchor="start" font-family="Roboto, sans-serif" font-size="13" fill="#4051B5" font-weight="normal">Control</text>
  </a>
  <a xlink:href="/use-case/legal-entity-management/ownership-and-capital-structure/corporate-actions/" target="_top">
    <rect x="400.00" y="350.00" width="132.92" height="25" rx="4" ry="4" fill="#4051B5" stroke="#FF6F00" stroke-width="1.5" />
    <text x="410.00" y="367.00" text-anchor="start" font-family="Roboto, sans-serif" font-size="13" fill="#FFFFFF" font-weight="bold">Corporate Actions</text>
  </a>
  <a xlink:href="/use-case/legal-entity-management/ownership-and-capital-structure/corporate-actions/dividends/" target="_top">
    <rect x="582.92" y="337.50" width="77.11" height="25" rx="4" ry="4" fill="none" stroke="none" pointer-events="all" />
    <text x="592.92" y="354.50" text-anchor="start" font-family="Roboto, sans-serif" font-size="13" fill="#4051B5" font-weight="normal">Dividends</text>
  </a>
  <a xlink:href="/use-case/legal-entity-management/ownership-and-capital-structure/corporate-actions/merger-and-acquisition-history/" target="_top">
    <rect x="582.92" y="362.50" width="183.31" height="25" rx="4" ry="4" fill="none" stroke="none" pointer-events="all" />
    <text x="592.92" y="379.50" text-anchor="start" font-family="Roboto, sans-serif" font-size="13" fill="#4051B5" font-weight="normal">Merger &amp; Acquisition History</text>
  </a>
  <a xlink:href="/use-case/legal-entity-management/ownership-and-capital-structure/corporate-actions/parents-and-subsidiaries/" target="_top">
    <rect x="582.92" y="387.50" width="151.55" height="25" rx="4" ry="4" fill="none" stroke="none" pointer-events="all" />
    <text x="592.92" y="404.50" text-anchor="start" font-family="Roboto, sans-serif" font-size="13" fill="#4051B5" font-weight="normal">Parents &amp; Subsidiaries</text>
  </a>
  <a xlink:href="/use-case/legal-entity-management/ownership-and-capital-structure/corporate-actions/spin-offs/" target="_top">
    <rect x="582.92" y="412.50" width="71.08" height="25" rx="4" ry="4" fill="none" stroke="none" pointer-events="all" />
    <text x="592.92" y="429.50" text-anchor="start" font-family="Roboto, sans-serif" font-size="13" fill="#4051B5" font-weight="normal">Spin-offs</text>
  </a>
  <a xlink:href="/use-case/legal-entity-management/ownership-and-capital-structure/corporate-actions/stock-splits/" target="_top">
    <rect x="582.92" y="437.50" width="87.92" height="25" rx="4" ry="4" fill="none" stroke="none" pointer-events="all" />
    <text x="592.92" y="454.50" text-anchor="start" font-family="Roboto, sans-serif" font-size="13" fill="#4051B5" font-weight="normal">Stock Splits</text>
  </a>
  <a xlink:href="/use-case/legal-entity-management/ownership-and-capital-structure/issued-capital/" target="_top">
    <rect x="400.00" y="375.00" width="102.41" height="25" rx="4" ry="4" fill="none" stroke="none" pointer-events="all" />
    <text x="410.00" y="392.00" text-anchor="start" font-family="Roboto, sans-serif" font-size="13" fill="#4051B5" font-weight="normal">Issued Capital</text>
  </a>
  <a xlink:href="/use-case/legal-entity-management/ownership-and-capital-structure/ownership/" target="_top">
    <rect x="400.00" y="400.00" width="82.16" height="25" rx="4" ry="4" fill="none" stroke="none" pointer-events="all" />
    <text x="410.00" y="417.00" text-anchor="start" font-family="Roboto, sans-serif" font-size="13" fill="#4051B5" font-weight="normal">Ownership</text>
  </a>
  <a xlink:href="/use-case/legal-entity-management/ownership-and-capital-structure/share-capital/" target="_top">
    <rect x="400.00" y="425.00" width="98.80" height="25" rx="4" ry="4" fill="none" stroke="none" pointer-events="all" />
    <text x="410.00" y="442.00" text-anchor="start" font-family="Roboto, sans-serif" font-size="13" fill="#4051B5" font-weight="normal">Share Capital</text>
  </a>
  <a xlink:href="/use-case/legal-entity-management/ownership-and-capital-structure/shares/" target="_top">
    <rect x="400.00" y="450.00" width="61.20" height="25" rx="4" ry="4" fill="none" stroke="none" pointer-events="all" />
    <text x="410.00" y="467.00" text-anchor="start" font-family="Roboto, sans-serif" font-size="13" fill="#4051B5" font-weight="normal">Shares</text>
  </a>
</svg>