<svg xmlns="http://www.w3.org/2000/svg" xmlns:xlink="http://www.w3.org/1999/xlink" viewBox="177.53 295.00 608.02 210.00" width="608.02px" height="210.00px" class="use-case-tree-svg">
  <rect width="100%" height="100%" fill="transparent" />
  <line x1="350.00" y1="387.50" x2="360.00" y2="387.50" stroke="#FF6F00" stroke-width="1.5" />
  <path d="M 360.00 387.50 C 378.00 387.50, 382.00 312.50, 400.00 312.50" stroke="#FF6F00" stroke-width="1.5" fill="none" />
  <line x1="350.00" y1="387.50" x2="360.00" y2="387.50" stroke="#FF6F00" stroke-width="1.5" />
  <path d="M 360.00 387.50 C 378.00 387.50, 382.00 337.50, 400.00 337.50" stroke="#FF6F00" stroke-width="1.5" fill="none" />
  <line x1="350.00" y1="387.50" x2="360.00" y2="387.50" stroke="#FF6F00" stroke-width="1.5" />
  <path d="M 360.00 387.50 C 378.00 387.50, 382.00 362.50, 400.00 362.50" stroke="#FF6F00" stroke-width="1.5" fill="none" />
  <line x1="350.00" y1="387.50" x2="360.00" y2="387.50" stroke="#FF6F00" stroke-width="1.5" />
  <path d="M 360.00 387.50 C 378.00 387.50, 382.00 387.50, 400.00 387.50" stroke="#FF6F00" stroke-width="1.5" fill="none" />
  <line x1="350.00" y1="387.50" x2="360.00" y2="387.50" stroke="#FF6F00" stroke-width="1.5" />
  <path d="M 360.00 387.50 C 378.00 387.50, 382.00 412.50, 400.00 412.50" stroke="#FF6F00" stroke-width="1.5" fill="none" />
  <line x1="350.00" y1="387.50" x2="360.00" y2="387.50" stroke="#FF6F00" stroke-width="1.5" />
  <path d="M 360.00 387.50 C 378.00 387.50, 382.00 437.50, 400.00 437.50" stroke="#FF6F00" stroke-width="1.5" fill="none" />
  <line x1="350.00" y1="387.50" x2="360.00" y2="387.50" stroke="#FF6F00" stroke-width="1.5" />
  <path d="M 360.00 387.50 C 378.00 387.50, 382.00 462.50, 400.00 462.50" stroke="#FF6F00" stroke-width="1.5" fill="none" />
  <line x1="350.00" y1="387.50" x2="360.00" y2="387.50" stroke="#FF6F00" stroke-width="1.5" />
  <path d="M 360.00 387.50 C 378.00 387.50, 382.00 487.50, 400.00 487.50" stroke="#FF6F00" stroke-width="1.5" fill="none" />
  <line x1="551.44" y1="387.50" x2="593.53" y2="387.50" stroke="#FF6F00" stroke-width="1.5" />
  <path d="M 593.53 387.50 C 618.28 387.50, 623.78 350.00, 648.53 350.00" stroke="#FF6F00" stroke-width="1.5" fill="none" />
  <line x1="551.44" y1="387.50" x2="593.53" y2="387.50" stroke="#FF6F00" stroke-width="1.5" />
  <path d="M 593.53 387.50 C 618.28 387.50, 623.78 375.00, 648.53 375.00" stroke="#FF6F00" stroke-width="1.5" fill="none" />
  <line x1="551.44" y1="387.50" x2="593.53" y2="387.50" stroke="#FF6F00" stroke-width="1.5" />
  <path d="M 593.53 387.50 C 618.28 387.50, 623.78 400.00, 648.53 400.00" stroke="#FF6F00" stroke-width="1.5" fill="none" />
  <line x1="551.44" y1="387.50" x2="593.53" y2="387.50" stroke="#FF6F00" stroke-width="1.5" />
  <path d="M 593.53 387.50 C 618.28 387.50, 623.78 425.00, 648.53 425.00" stroke="#FF6F00" stroke-width="1.5" fill="none" />
  <line x1="551.44" y1="387.50" x2="593.53" y2="387.50" stroke="#FF6F00" stroke-width="1.5" />
  <path d="M 593.53 387.50 C 618.28 387.50, 623.78 450.00, 648.53 450.00" stroke="#FF6F00" stroke-width="1.5" fill="none" />
  <a xlink:href="/use-case/legal-entity-management/" target="_top">
    <rect x="182.53" y="375.00" width="167.47" height="25" rx="4" ry="4" fill="none" stroke="none" pointer-events="all" />
    <text x="192.53" y="392.00" text-anchor="start" font-family="Roboto, sans-serif" font-size="13" fill="#4051B5" font-weight="normal">Legal Entity Management</text>
  </a>
  <a xlink:href="/use-case/legal-entity-management/compliance-and-documentation/" target="_top">
    <rect x="400.00" y="300.00" width="192.03" height="25" rx="4" ry="4" fill="none" stroke="none" pointer-events="all" />
    <text x="410.00" y="317.00" text-anchor="start" font-family="Roboto, sans-serif" font-size="13" fill="#4051B5" font-weight="normal">Compliance &amp; Documentation</text>
  </a>
  <a xlink:href="/use-case/legal-entity-management/contact-and-location-information/" target="_top">
    <rect x="400.00" y="325.00" width="198.53" height="25" rx="4" ry="4" fill="none" stroke="none" pointer-events="all" />
    <text x="410.00" y="342.00" text-anchor="start" font-family="Roboto, sans-serif" font-size="13" fill="#4051B5" font-weight="normal">Contact &amp; Location Information</text>
  </a>
  <a xlink:href="/use-case/legal-entity-management/corporate-governance/" target="_top">
    <rect x="400.00" y="350.00" width="152.28" height="25" rx="4" ry="4" fill="none" stroke="none" pointer-events="all" />
    <text x="410.00" y="367.00" text-anchor="start" font-family="Roboto, sans-serif" font-size="13" fill="#4051B5" font-weight="normal">Corporate Governance</text>
  </a>
  <a xlink:href="/use-case/legal-entity-management/financial-information/" target="_top">
    <rect x="400.00" y="375.00" width="151.44" height="25" rx="4" ry="4" fill="#4051B5" stroke="#FF6F00" stroke-width="1.5" />
    <text x="410.00" y="392.00" text-anchor="start" font-family="Roboto, sans-serif" font-size="13" fill="#FFFFFF" font-weight="bold">Financial Information</text>
  </a>
  <a xlink:href="/use-case/legal-entity-management/financial-information/assets/" target="_top">
    <rect x="648.53" y="337.50" width="59.02" height="25" rx="4" ry="4" fill="none" stroke="none" pointer-events="all" />
    <text x="658.53" y="354.50" text-anchor="start" font-family="Roboto, sans-serif" font-size="13" fill="#4051B5" font-weight="normal">Assets</text>
  </a>
  <a xlink:href="/use-case/legal-entity-management/financial-information/earnings-estimates/" target="_top">
    <rect x="648.53" y="362.50" width="132.02" height="25" rx="4" ry="4" fill="none" stroke="none" pointer-events="all" />
    <text x="658.53" y="379.50" text-anchor="start" font-family="Roboto, sans-serif" font-size="13" fill="#4051B5" font-weight="normal">Earnings Estimates</text>
  </a>
  <a xlink:href="/use-case/legal-entity-management/financial-information/fundamentals/" target="_top">
    <rect x="648.53" y="387.50" width="102.41" height="25" rx="4" ry="4" fill="none" stroke="none" pointer-events="all" />
    <text x="658.53" y="404.50" text-anchor="start" font-family="Roboto, sans-serif" font-size="13" fill="#4051B5" font-weight="normal">Fundamentals</text>
  </a>
  <a xlink:href="/use-case/legal-entity-management/financial-information/liability-terms/" target="_top">
    <rect x="648.53" y="412.50" width="102.14" height="25" rx="4" ry="4" fill="none" stroke="none" pointer-events="all" />
    <text x="658.53" y="429.50" text-anchor="start" font-family="Roboto, sans-serif" font-size="13" fill="#4051B5" font-weight="normal">Liability Terms</text>
  </a>
  <a xlink:href="/use-case/legal-entity-management/financial-information/ratings/" target="_top">
    <rect x="648.53" y="437.50" width="64.09" height="25" rx="4" ry="4" fill="none" stroke="none" pointer-events="all" />
    <text x="658.53" y="454.50" text-anchor="start" font-family="Roboto, sans-serif" font-size="13" fill="#4051B5" font-weight="normal">Ratings</text>
  </a>
  <a xlink:href="/use-case/legal-entity-management/identification-and-registration/" target="_top">
    <rect x="400.00" y="400.00" width="178.30" height="25" rx="4" ry="4" fill="none" stroke="none" pointer-events="all" />
    <text x="410.00" y="417.00" text-anchor="start" font-family="Roboto, sans-serif" font-size="13" fill="#4051B5" font-weight="normal">Identification &amp; Registration</text>
  </a>
  <a xlink:href="/use-case/legal-entity-management/lifecycle-and-status/" target="_top">
    <rect x="400.00" y="425.00" width="123.34" height="25" rx="4" ry="4" fill="none" stroke="none" pointer-events="all" />
    <text x="410.00" y="442.00" text-anchor="start" font-family="Roboto, sans-serif" font-size="13" fill="#4051B5" font-weight="normal">Lifecycle &amp; Status</text>
  </a>
  <a xlink:href="/use-case/legal-entity-management/ownership-and-capital-structure/" target="_top">
    <rect x="400.00" y="450.00" width="194.89" height="25" rx="4" ry="4" fill="none" stroke="none" pointer-events="all" />
    <text x="410.00" y="467.00" text-anchor="start" font-family="Roboto, sans-serif" font-size="13" fill="#4051B5" font-weight="normal">Ownership &amp; Capital Structure</text>
  </a>
  <a xlink:href="/use-case/legal-entity-management/supporting-information/" target="_top">
    <rect x="400.00" y="475.00" width="151.56" height="25" rx="4" ry="4" fill="none" stroke="none" pointer-events="all" />
    <text x="410.00" y="492.00" text-anchor="start" font-family="Roboto, sans-serif" font-size="13" fill="#4051B5" font-weight="normal">Supporting Information</text>
  </a>
</svg>