<svg xmlns="http://www.w3.org/2000/svg" xmlns:xlink="http://www.w3.org/1999/xlink" contentStyleType="text/css" data-diagram-type="MINDMAP" height="78px" preserveAspectRatio="none" style="width:942px;height:78px;" version="1.1" viewBox="0 0 942 78" width="942px" zoomAndPan="magnify"><defs/><g><polygon fill="#4051B5" points="471.7676,20,471.7676,20.2102,481.7662,19.5857,491.7648,20.1933,501.7635,20.3997,511.7621,19.2866,521.7607,19.9223,531.7594,19.5735,541.758,19.6165,551.7566,19.9318,561.7553,19.3086,571.7539,20.5536,581.7525,19.3697,591.7512,19.8022,601.7498,20.4319,611.7484,19.9142,621.7471,20.0682,631.7457,19.9681,641.7443,20.1785,651.743,20.2391,661.7416,20.5857,671.7402,20.6711,681.7389,20.6793,691.7375,20.2546,701.7361,20.4636,711.7348,20.7022,721.7334,20,721.6414,19.7779,722.3856,20.4433,722.8269,20.3773,723.4985,20.8673,723.933,20.7848,724.5618,21.1716,724.5407,21.1628,725.0245,21.8319,725.0154,22.2967,725.2972,22.8821,725.6034,23.4775,725.7334,24,725.8721,24,725.7321,29.6594,725.8291,35.3188,725.5426,40.9781,725.8282,46.6375,725.7334,52.2969,725.9022,52.3668,725.636,52.9193,725.4536,53.5064,724.8817,53.9323,724.5953,54.4764,724.5618,55.1253,724.4826,54.9339,723.9886,55.3415,723.4054,55.5334,722.9517,56.0381,722.2768,56.0088,721.7334,56.2969,721.7334,55.9538,711.7348,56.5251,701.7361,55.63,691.7375,55.7777,681.7389,56.9458,671.7402,56.7325,661.7416,57.0314,651.743,55.9751,641.7443,56.6161,631.7457,56.8873,621.7471,55.8245,611.7484,56.201,601.7498,56.4229,591.7512,56.9486,581.7525,56.2927,571.7539,56.7594,561.7553,55.7431,551.7566,55.6196,541.758,56.8005,531.7594,55.5799,521.7607,56.8058,511.7621,56.5035,501.7635,56.029,491.7648,55.9431,481.7662,56.7556,471.7676,56.2969,471.7294,56.2047,471.2774,56.2448,470.5657,55.658,470.1493,55.7841,469.5666,55.5088,468.9392,55.1253,469.0146,55.1566,468.7194,54.5656,468.6943,54.0866,468.4252,53.5065,468.054,52.8842,467.7676,52.2969,467.857,52.2969,467.7242,46.6375,468.0064,40.9781,467.8192,35.3188,467.8251,29.6594,467.7676,24,467.5802,23.9224,467.8771,23.3826,468.3997,22.9363,468.6029,22.3578,468.6916,21.7318,468.9392,21.1716,468.8981,21.0724,469.4769,20.8698,469.983,20.4916,470.6891,20.5964,471.2962,20.4621,471.7676,20" style="stroke:#FF6F00;stroke-width:1.5;"/><text fill="#FFFFFF" font-family="'Roboto'" font-size="14" lengthAdjust="spacing" textLength="237.9658" x="477.7676" y="42.9951">Vendor Relationship Management</text><a href="/use-case/supply-chain-management/vendor-management/vendor-relationship-management/vendor-contracts/" target="_top" title="/use-case/supply-chain-management/vendor-management/vendor-relationship-management/vendor-contracts/" xlink:actuate="onRequest" xlink:href="/use-case/supply-chain-management/vendor-management/vendor-relationship-management/vendor-contracts/" xlink:show="new" xlink:title="/use-case/supply-chain-management/vendor-management/vendor-relationship-management/vendor-contracts/" xlink:type="simple"><text fill="#90EE90" font-family="'Roboto'" font-size="14" lengthAdjust="spacing" textLength="122.2402" x="782.7334" y="29.8467">Vendor Contracts</text></a><path d="M725.7334,38.1484 L725.7334,38.3353 L727.7334,37.7802 L729.7334,38.3202 L731.7334,38.5037 L733.7334,37.5143 L735.7334,38.1484 L735.7334,38.1484 L735.7195,38.1168 L738.6573,36.66 L741.665,35.3626 L744.7212,34.1762 L747.6101,32.6076 L750.7334,31.5742 L750.8322,31.7996 L753.621,30.0028 L756.6981,28.864 L759.8105,27.8055 L762.7181,26.2799 L765.7334,25 L765.7334,25.0607 L767.7334,24.9716 L769.7334,25.1587 L771.7334,25.2126 L773.7334,25.5206 L775.7334,25" fill="none" style="stroke:#FF9900;stroke-width:1;"/><a href="/use-case/supply-chain-management/vendor-management/vendor-relationship-management/vendor-performance/" target="_top" title="/use-case/supply-chain-management/vendor-management/vendor-relationship-management/vendor-performance/" xlink:actuate="onRequest" xlink:href="/use-case/supply-chain-management/vendor-management/vendor-relationship-management/vendor-performance/" xlink:show="new" xlink:title="/use-case/supply-chain-management/vendor-management/vendor-relationship-management/vendor-performance/" xlink:type="simple"><text fill="#90EE90" font-family="'Roboto'" font-size="14" lengthAdjust="spacing" textLength="144.1836" x="782.7334" y="56.1436">Vendor Performance</text></a><path d="M725.7334,38.1484 L725.7334,38.3353 L727.7334,37.7802 L729.7334,38.3202 L731.7334,38.5037 L733.7334,37.5143 L735.7334,38.1484 L735.7334,38.1484 L735.7195,38.1168 L738.6573,39.2897 L741.665,40.622 L744.7212,42.0652 L747.6101,43.1264 L750.7334,44.7227 L750.8322,44.948 L753.621,45.7809 L756.6981,47.2718 L759.8105,48.843 L762.7181,49.9471 L765.7334,51.2969 L765.7334,51.3575 L767.7334,51.2685 L769.7334,51.4556 L771.7334,51.5094 L773.7334,51.8175 L775.7334,51.2969" fill="none" style="stroke:#FF9900;stroke-width:1;"/><a href="/use-case/supply-chain-management/vendor-management/" target="_top" title="/use-case/supply-chain-management/vendor-management/" xlink:actuate="onRequest" xlink:href="/use-case/supply-chain-management/vendor-management/" xlink:show="new" xlink:title="/use-case/supply-chain-management/vendor-management/" xlink:type="simple"><text fill="#90EE90" font-family="'Roboto'" font-size="14" lengthAdjust="spacing" textLength="146.9453" x="263.8223" y="42.9951">Vendor Management</text></a><a href="/use-case/supply-chain-management/" target="_top" title="/use-case/supply-chain-management/" xlink:actuate="onRequest" xlink:href="/use-case/supply-chain-management/" xlink:show="new" xlink:title="/use-case/supply-chain-management/" xlink:type="simple"><text fill="#90EE90" font-family="'Roboto'" font-size="14" lengthAdjust="spacing" textLength="188.8223" x="14" y="42.9951">Supply Chain Management</text></a><path d="M259.8223,38.1484 L259.8223,38.3353 L257.8223,37.7802 L255.8223,38.3202 L253.8223,38.5037 L251.8223,37.5143 L249.8223,38.1484 L249.8223,38.1484 L249.8223,38.1139 L243.8223,37.9589 L237.8223,37.978 L231.8223,38.1181 L225.8223,37.8412 L219.8223,38.1484 L219.8223,38.6406 L217.8223,37.5882 L215.8223,37.9726 L213.8223,38.5324 L211.8223,38.0722 L209.8223,38.1484" fill="none" style="stroke:#FF9900;stroke-width:1;"/><path d="M467.7676,38.1484 L467.7676,38.3353 L465.7676,37.7802 L463.7676,38.3202 L461.7676,38.5037 L459.7676,37.5143 L457.7676,38.1484 L457.7676,38.1484 L457.7676,38.1139 L451.7676,37.9589 L445.7676,37.978 L439.7676,38.1181 L433.7676,37.8412 L427.7676,38.1484 L427.7676,38.6406 L425.7676,37.5882 L423.7676,37.9726 L421.7676,38.5324 L419.7676,38.0722 L417.7676,38.1484" fill="none" style="stroke:#FF9900;stroke-width:1;"/><!--SRC=[xLhRRjiu47tNLt2RXxJ8kh6pIT46HL77ST8cTcpOIO15KGIqHDc49L8bgMIzY_tt7ScMISkoVAjomTPFBMTuvg8XENEGpr9XeNpA71y7w9umXukI81vMb3Cve479nmptYK-OigpV7E9IHj39-Lsp-lNghjPgj3ee_kqSbeyglIDJfLkljQvEgvq_9tePAkrgxR9wNfy2pQcqEgVrZca7xRZkExTSdggSjQwkPnHYbUXdMN98MO05zb4FsyE-u25pQjpZ8b5K0ZC96b5qMldBA22YGTdGr4Kx7kqFL5yGmYnh5r5cUw53a1eGr2UC2EoXAOH4BcpiSJNu7SNR46OESh0Omax54Rydua5GHT03LOCn1eNi8qcKegmlqncu_lArTdbLxtPH1Ju33wBFWmO06g4esEXYJn8ZXZPs7012XyPQPno_06VHUsEzEy0EVuYqqoXn9Zp8n0rpud-GYOgXSqfS77eA_MCXTCQPki8-GQyw7ABdhoPhuqJgJpLPxjA_2QeSMl-QU5KX-4ECjc3N8Z0ryY1Vt7DcyGBuz531K_yojf-agcEclYCv5n3-H6QK91ZITXXtrZKoK_whsh6v7t065HiRszZrXNwEynZwti5i7XsiS0zBKeZP6KksnqFd4SnmpoDsVD4LP4pRge62u5xXTauYM2n6XHkgCqLLyMOeKqIus2Q5M-gI7o5XDcd3UqXj6c2cnd3N0seF6P4IhbwjBYVgiL_cdYKkpi5dUcjewQkDSU5ZRrwQSOORr2NmW94S4rEL9Gx7rt66YNWz1p-MBt0lbkcy_X4jsOgBfRx4IZas8_cYWx-BQeVnvGOF7VndP-dFl2i4N1IOzJtoyIEyY9ApJv_YBz-5yYHSmJEPypBzp1Sd4UdifJk4sKlES9py1SuoxDqL5K6guIie33cIYlWlEVz5HL1W_fF7_wMbN_lzahDl555lyi0d_gTQztH4SOTTNgtxt3WNoy8SFryEbWFYh1PxPkWscCVmOebrOeVfOdcv5HRvgXyOfd0rRYNcdKrcuaYc_KXct6YrgfIWlL2HRB7fPJ8zf_fjBEKZMzz5pGdf80DYKvVQa8JnsvmnKctYrzAmiUviTixEFdm0UKfejdxMtctCZg2EmOwWfcP7IgKxzEtRVYX9oOORPr-6GU2DIlO0QjPWKVOd98knWYR86kpxTu1R4GzrOm6gHO9PZBszJLtAPu8ISNGY1RQLd8PGIrOUmJgqCMxK4aCNFhNVrclWmMTOd71RblLvBQghGExecRCq-WojJD7CRic4MOkSqNiN7_liuvrBn_mCs7ps9HydsvUD-9Rr3Qt8i6mBl8HJsGH-DHPbE-HStcGxw1ocP3lWV6vaE-o2s13jr08UHFkt0GMYprGM_w6X5r4VsZk3zD2WSuo7HaoH7QazAp0TXkaqns5OcQKtZ0Eu8LEHVs-lMr7p1R8z4_5K7YuT4fyyTS_BmpNuWIVowvache3HNdkqGNGvCImPuol5p-r5HRRmw_p_vl9Vm_UluRk0uRljGQTsqsp0t2razBSBbRS7vOEZjvLAZoXSAR- -OKF67rWyNr6uPXJroHlhzNcxWIGF1RIM3fNZWeRjRwmBV8zH9sIHtZ5g1OHTd5uc2z1ptrF1MLmQ5xTDhV3ki7H25RIt0Xn1jqqhcOlhpERHA7wCRgxFIk-j1bnU8SHyZ61ahq7fAp42MVS_]--></g></svg>