<svg xmlns="http://www.w3.org/2000/svg" xmlns:xlink="http://www.w3.org/1999/xlink" viewBox="-14.53 332.50 552.03 135.00" width="552.03px" height="135.00px" class="use-case-tree-svg">
  <rect width="100%" height="100%" fill="transparent" />
  <line x1="157.28" y1="375.00" x2="167.28" y2="375.00" stroke="#FF9900" stroke-width="1.5" />
  <path d="M 167.28 375.00 C 185.28 375.00, 189.28 375.00, 207.28 375.00" stroke="#FF9900" stroke-width="1.5" fill="none" />
  <path d="M 345.00 375.00 C 369.75 375.00, 375.25 350.00, 400.00 350.00" stroke="#FF9900" stroke-width="1.5" fill="none" />
  <path d="M 345.00 375.00 C 369.75 375.00, 375.25 375.00, 400.00 375.00" stroke="#FF9900" stroke-width="1.5" fill="none" />
  <path d="M 345.00 375.00 C 369.75 375.00, 375.25 400.00, 400.00 400.00" stroke="#FF9900" stroke-width="1.5" fill="none" />
  <path d="M 345.00 375.00 C 369.75 375.00, 375.25 425.00, 400.00 425.00" stroke="#FF9900" stroke-width="1.5" fill="none" />
  <path d="M 345.00 375.00 C 369.75 375.00, 375.25 450.00, 400.00 450.00" stroke="#FF9900" stroke-width="1.5" fill="none" />
  <a xlink:href="/use-case/legal-entity-management/" target="_top">
    <rect x="-9.53" y="362.50" width="166.81" height="25" rx="4" ry="4" fill="none" stroke="none" pointer-events="all" />
    <text x="0.47" y="379.50" text-anchor="start" font-family="Roboto, sans-serif" font-size="13" fill="#90EE90" font-weight="normal">Legal Entity Management</text>
  </a>
  <a xlink:href="/use-case/legal-entity-management/financial-information/" target="_top">
    <rect x="207.28" y="362.50" width="142.72" height="25" rx="4" ry="4" fill="none" stroke="none" pointer-events="all" />
    <text x="217.28" y="379.50" text-anchor="start" font-family="Roboto, sans-serif" font-size="13" fill="#90EE90" font-weight="normal">Financial Information</text>
  </a>
  <a xlink:href="/use-case/legal-entity-management/financial-information/assets/" target="_top">
    <rect x="400.00" y="337.50" width="59.73" height="25" rx="4" ry="4" fill="none" stroke="none" pointer-events="all" />
    <text x="410.00" y="354.50" text-anchor="start" font-family="Roboto, sans-serif" font-size="13" fill="#90EE90" font-weight="normal">Assets</text>
  </a>
  <a xlink:href="/use-case/legal-entity-management/financial-information/earnings-estimates/" target="_top">
    <rect x="400.00" y="362.50" width="132.50" height="25" rx="4" ry="4" fill="#4051B5" stroke="#FF6F00" stroke-width="1.5" />
    <text x="410.00" y="379.50" text-anchor="start" font-family="Roboto, sans-serif" font-size="13" fill="#FFFFFF" font-weight="bold">Earnings Estimates</text>
  </a>
  <a xlink:href="/use-case/legal-entity-management/financial-information/fundamentals/" target="_top">
    <rect x="400.00" y="387.50" width="102.45" height="25" rx="4" ry="4" fill="none" stroke="none" pointer-events="all" />
    <text x="410.00" y="404.50" text-anchor="start" font-family="Roboto, sans-serif" font-size="13" fill="#90EE90" font-weight="normal">Fundamentals</text>
  </a>
  <a xlink:href="/use-case/legal-entity-management/financial-information/liability-terms/" target="_top">
    <rect x="400.00" y="412.50" width="103.91" height="25" rx="4" ry="4" fill="none" stroke="none" pointer-events="all" />
    <text x="410.00" y="429.50" text-anchor="start" font-family="Roboto, sans-serif" font-size="13" fill="#90EE90" font-weight="normal">Liability Terms</text>
  </a>
  <a xlink:href="/use-case/legal-entity-management/financial-information/ratings/" target="_top">
    <rect x="400.00" y="437.50" width="63.67" height="25" rx="4" ry="4" fill="none" stroke="none" pointer-events="all" />
    <text x="410.00" y="454.50" text-anchor="start" font-family="Roboto, sans-serif" font-size="13" fill="#90EE90" font-weight="normal">Ratings</text>
  </a>
</svg>