<svg xmlns="http://www.w3.org/2000/svg" xmlns:xlink="http://www.w3.org/1999/xlink" viewBox="-34.19 357.50 584.98 85.00" width="584.98px" height="85.00px" class="use-case-tree-svg">
  <rect width="100%" height="100%" fill="transparent" />
  <line x1="111.55" y1="425.00" x2="121.55" y2="425.00" stroke="#FF6F00" stroke-width="1.5" />
  <path d="M 121.55 425.00 C 139.55 425.00, 143.55 425.00, 161.55 425.00" stroke="#FF6F00" stroke-width="1.5" fill="none" />
  <path d="M 345.00 425.00 C 369.75 425.00, 375.25 375.00, 400.00 375.00" stroke="#FF6F00" stroke-width="1.5" fill="none" />
  <path d="M 345.00 425.00 C 369.75 425.00, 375.25 400.00, 400.00 400.00" stroke="#FF6F00" stroke-width="1.5" fill="none" />
  <path d="M 345.00 425.00 C 369.75 425.00, 375.25 425.00, 400.00 425.00" stroke="#FF6F00" stroke-width="1.5" fill="none" />
  <a xlink:href="/use-case/supply-chain-management/vendor-management/" target="_top">
    <rect x="-29.19" y="412.50" width="140.73" height="25" rx="4" ry="4" fill="none" stroke="none" pointer-events="all" />
    <text x="-19.19" y="429.50" text-anchor="start" font-family="Roboto, sans-serif" font-size="13" fill="#4051B5" font-weight="normal">Vendor Management</text>
  </a>
  <a xlink:href="/use-case/supply-chain-management/vendor-management/vendor-vetting-and-onboarding/" target="_top">
    <rect x="161.55" y="412.50" width="188.45" height="25" rx="4" ry="4" fill="none" stroke="none" pointer-events="all" />
    <text x="171.55" y="429.50" text-anchor="start" font-family="Roboto, sans-serif" font-size="13" fill="#4051B5" font-weight="normal">Vendor Vetting &amp; Onboarding</text>
  </a>
  <a xlink:href="/use-case/supply-chain-management/vendor-management/vendor-vetting-and-onboarding/vendor-due-diligence/" target="_top">
    <rect x="400.00" y="362.50" width="145.80" height="25" rx="4" ry="4" fill="none" stroke="none" pointer-events="all" />
    <text x="410.00" y="379.50" text-anchor="start" font-family="Roboto, sans-serif" font-size="13" fill="#4051B5" font-weight="normal">Vendor Due Diligence</text>
  </a>
  <a xlink:href="/use-case/supply-chain-management/vendor-management/vendor-vetting-and-onboarding/vendor-kyc/" target="_top">
    <rect x="400.00" y="387.50" width="91.56" height="25" rx="4" ry="4" fill="none" stroke="none" pointer-events="all" />
    <text x="410.00" y="404.50" text-anchor="start" font-family="Roboto, sans-serif" font-size="13" fill="#4051B5" font-weight="normal">Vendor KYC</text>
  </a>
  <a xlink:href="/use-case/supply-chain-management/vendor-management/vendor-vetting-and-onboarding/vendor-onboarding/" target="_top">
    <rect x="400.00" y="412.50" width="141.31" height="25" rx="4" ry="4" fill="#4051B5" stroke="#FF6F00" stroke-width="1.5" />
    <text x="410.00" y="429.50" text-anchor="start" font-family="Roboto, sans-serif" font-size="13" fill="#FFFFFF" font-weight="bold">Vendor Onboarding</text>
  </a>
</svg>