<svg xmlns="http://www.w3.org/2000/svg" xmlns:xlink="http://www.w3.org/1999/xlink" contentStyleType="text/css" data-diagram-type="MINDMAP" height="153px" preserveAspectRatio="none" style="width:626px;height:153px;" version="1.1" viewBox="0 0 626 153" width="626px" zoomAndPan="magnify"><defs/><g><polygon fill="#4051B5" points="254.7646,57.5938,254.7646,57.8039,264.7684,57.1794,274.7721,57.787,284.7758,57.9934,294.7795,56.8804,304.7833,57.516,314.787,57.1673,324.7907,57.2103,334.7944,57.5256,344.7982,56.9024,354.8019,58.1474,364.8056,56.9635,374.8093,57.396,384.813,58.0257,394.8168,57.508,404.8205,57.662,414.8242,57.5938,414.8201,57.5839,415.4127,57.883,415.9861,58.136,416.596,58.4771,417.1726,58.7377,417.6526,58.7653,417.8618,58.852,417.9654,59.3635,418.264,59.9558,418.5718,60.552,418.3678,60.9361,418.8242,61.5938,419.0504,61.5938,418.7254,67.2531,419.0022,72.9125,418.6592,78.5719,418.8014,84.2313,418.8242,89.8906,419.0526,89.9852,418.5749,90.4501,418.388,91.0354,418.2256,91.6309,418.0151,92.2065,417.6526,92.7191,417.6521,92.7178,417.1236,93.0418,416.4483,93.0114,415.9919,93.5096,415.4598,93.8251,414.8242,93.8906,414.8242,94.3352,404.8205,94.5036,394.8168,93.4075,384.813,93.2384,374.8093,93.2692,364.8056,93.8317,354.8019,93.6941,344.7982,94.572,334.7944,93.7159,324.7907,93.5476,314.787,94.1189,304.7833,93.2238,294.7795,93.3715,284.7758,94.5396,274.7721,94.3263,264.7684,94.6251,254.7646,93.8906,254.7236,93.7915,254.2397,93.7546,253.7086,93.6038,253.0073,93.0422,252.4897,92.9238,251.9362,92.7191,251.975,92.7351,251.9026,92.2365,251.4663,91.5871,251.3757,91.081,250.8284,90.3857,250.7646,89.8906,250.5389,89.8906,250.9325,84.2313,250.5257,78.5719,250.9343,72.9125,250.8335,67.2531,250.7646,61.5938,250.6821,61.5596,250.89,60.9829,251.3746,60.5209,251.3754,59.8585,251.8842,59.4065,251.9362,58.7653,251.8657,58.5951,252.5807,58.7212,253.1294,58.4458,253.6645,58.1378,254.205,57.8426,254.7646,57.5938" style="stroke:#FF6F00;stroke-width:1.5;"/><text fill="#FFFFFF" font-family="'Roboto'" font-size="14" lengthAdjust="spacing" textLength="148.0596" x="260.7646" y="80.5889">Financial Information</text><a href="/use-case/legal-entity-management/financial-information/assets/" target="_top" title="/use-case/legal-entity-management/financial-information/assets/" xlink:actuate="onRequest" xlink:href="/use-case/legal-entity-management/financial-information/assets/" xlink:show="new" xlink:title="/use-case/legal-entity-management/financial-information/assets/" xlink:type="simple"><text fill="#90EE90" font-family="'Roboto'" font-size="14" lengthAdjust="spacing" textLength="45.5615" x="475.8242" y="27.9951">Assets</text></a><path d="M418.8242,75.7422 L418.8242,75.929 L420.8242,75.3739 L422.8242,75.914 L424.8242,76.0975 L426.8242,75.1081 L428.8242,75.7422 L428.8242,75.7422 L428.8008,75.7168 L430.4769,73.9593 L432.2711,72.3298 L434.1474,70.7893 L435.7408,68.9421 L437.7305,67.5244 L437.9636,67.603 L438.6838,63.8191 L440.0847,60.2647 L441.5686,56.7383 L442.5693,53.049 L443.8242,49.4453 L443.853,49.455 L445.0295,45.825 L446.3369,42.239 L447.5812,38.6318 L448.9459,35.0652 L449.918,31.3662 L450.1202,31.5854 L451.9039,29.9445 L453.5572,28.1623 L455.4014,26.587 L457.2546,25.0214 L458.8242,23.1484 L458.8242,22.5074 L460.8242,23.7516 L462.8242,22.8849 L464.8242,23.6229 L466.8242,22.7084 L468.8242,23.1484" fill="none" style="stroke:#FF9900;stroke-width:1;"/><a href="/use-case/legal-entity-management/financial-information/earnings-estimates/" target="_top" title="/use-case/legal-entity-management/financial-information/earnings-estimates/" xlink:actuate="onRequest" xlink:href="/use-case/legal-entity-management/financial-information/earnings-estimates/" xlink:show="new" xlink:title="/use-case/legal-entity-management/financial-information/earnings-estimates/" xlink:type="simple"><text fill="#90EE90" font-family="'Roboto'" font-size="14" lengthAdjust="spacing" textLength="134.5791" x="475.8242" y="54.292">Earnings Estimates</text></a><path d="M418.8242,75.7422 L418.8242,75.929 L420.8242,75.3739 L422.8242,75.914 L424.8242,76.0975 L426.8242,75.1081 L428.8242,75.7422 L428.8242,75.7422 L428.8015,75.7162 L431.6993,72.97 L434.7119,70.3546 L437.8043,67.8303 L440.6217,64.9924 L443.8242,62.5938 L443.9864,62.7788 L446.6396,59.7534 L449.7663,57.2683 L452.9508,54.8491 L455.7991,52.0463 L458.8242,49.4453 L458.8242,49.506 L460.8242,49.4169 L462.8242,49.604 L464.8242,49.6579 L466.8242,49.9659 L468.8242,49.4453" fill="none" style="stroke:#FF9900;stroke-width:1;"/><a href="/use-case/legal-entity-management/financial-information/fundamentals/" target="_top" title="/use-case/legal-entity-management/financial-information/fundamentals/" xlink:actuate="onRequest" xlink:href="/use-case/legal-entity-management/financial-information/fundamentals/" xlink:show="new" xlink:title="/use-case/legal-entity-management/financial-information/fundamentals/" xlink:type="simple"><text fill="#90EE90" font-family="'Roboto'" font-size="14" lengthAdjust="spacing" textLength="99.6406" x="475.8242" y="80.5889">Fundamentals</text></a><path d="M418.8242,75.7422 L418.8242,75.929 L420.8242,75.3739 L422.8242,75.914 L424.8242,76.0975 L426.8242,75.1081 L428.8242,75.7422 L428.8242,75.7422 L428.8242,75.7076 L434.8242,75.5526 L440.8242,75.5717 L446.8242,75.7119 L452.8242,75.4349 L458.8242,75.7422 L458.8242,76.2343 L460.8242,75.1819 L462.8242,75.5664 L464.8242,76.1261 L466.8242,75.6659 L468.8242,75.7422" fill="none" style="stroke:#FF9900;stroke-width:1;"/><a href="/use-case/legal-entity-management/financial-information/liability-terms/" target="_top" title="/use-case/legal-entity-management/financial-information/liability-terms/" xlink:actuate="onRequest" xlink:href="/use-case/legal-entity-management/financial-information/liability-terms/" xlink:show="new" xlink:title="/use-case/legal-entity-management/financial-information/liability-terms/" xlink:type="simple"><text fill="#90EE90" font-family="'Roboto'" font-size="14" lengthAdjust="spacing" textLength="102.9014" x="475.8242" y="106.8857">Liability Terms</text></a><path d="M418.8242,75.7422 L418.8242,75.929 L420.8242,75.3739 L422.8242,75.914 L424.8242,76.0975 L426.8242,75.1081 L428.8242,75.7422 L428.8242,75.7422 L428.8015,75.7162 L431.6993,78.2293 L434.7119,80.8734 L437.8043,83.6085 L440.6217,86.0299 L443.8242,88.8906 L443.9864,89.0757 L446.6396,91.3097 L449.7663,94.0839 L452.9508,96.9241 L455.7991,99.3807 L458.8242,102.0391 L458.8242,102.0997 L460.8242,102.0107 L462.8242,102.1978 L464.8242,102.2516 L466.8242,102.5597 L468.8242,102.0391" fill="none" style="stroke:#FF9900;stroke-width:1;"/><a href="/use-case/legal-entity-management/financial-information/ratings/" target="_top" title="/use-case/legal-entity-management/financial-information/ratings/" xlink:actuate="onRequest" xlink:href="/use-case/legal-entity-management/financial-information/ratings/" xlink:show="new" xlink:title="/use-case/legal-entity-management/financial-information/ratings/" xlink:type="simple"><text fill="#90EE90" font-family="'Roboto'" font-size="14" lengthAdjust="spacing" textLength="52.7393" x="475.8242" y="133.1826">Ratings</text></a><path d="M418.8242,75.7422 L418.8242,75.929 L420.8242,75.3739 L422.8242,75.914 L424.8242,76.0975 L426.8242,75.1081 L428.8242,75.7422 L428.8242,75.7422 L428.8008,75.7168 L430.4769,77.2464 L432.2711,78.904 L434.1474,80.6506 L435.7408,82.0906 L437.7305,83.96 L437.9636,84.0386 L438.6838,87.4863 L440.0847,91.1635 L441.5686,94.8687 L442.5693,98.4111 L443.8242,102.0391 L443.853,102.0487 L445.0295,105.6503 L446.3369,109.296 L447.5812,112.9205 L448.9459,116.5855 L449.918,120.1182 L450.1202,120.3374 L451.9039,121.9836 L453.5572,123.4884 L455.4014,125.2003 L457.2546,126.9218 L458.8242,128.3359 L458.8242,127.6949 L460.8242,128.9391 L462.8242,128.0724 L464.8242,128.8104 L466.8242,127.8959 L468.8242,128.3359" fill="none" style="stroke:#FF9900;stroke-width:1;"/><a href="/use-case/legal-entity-management/" target="_top" title="/use-case/legal-entity-management/" xlink:actuate="onRequest" xlink:href="/use-case/legal-entity-management/" xlink:show="new" xlink:title="/use-case/legal-entity-management/" xlink:type="simple"><text fill="#90EE90" font-family="'Roboto'" font-size="14" lengthAdjust="spacing" textLength="179.7646" x="14" y="80.5889">Legal Entity Management</text></a><path d="M250.7646,75.7422 L250.7646,75.929 L248.7646,75.3739 L246.7646,75.914 L244.7646,76.0975 L242.7646,75.1081 L240.7646,75.7422 L240.7646,75.7422 L240.7646,75.7076 L234.7646,75.5526 L228.7646,75.5717 L222.7646,75.7119 L216.7646,75.4349 L210.7646,75.7422 L210.7646,76.2343 L208.7646,75.1819 L206.7646,75.5664 L204.7646,76.1261 L202.7646,75.6659 L200.7646,75.7422" fill="none" style="stroke:#FF9900;stroke-width:1;"/><!--SRC=[xLfjRnev4Fw-lyBNV4Yh70LoITL6LHL284q28OAaqgcg8hCxW8MngMsIovtklz_imh9cMPQtRfFeofU0P_pCYzzc7kLO6whCW0blG8UammGLBgCynqH7gW4rJ0h7-Sq3b00vERkhbywlxigDMgD9Wi_EGU6ms3wqLLgLSkFgjDJySwANe79TAb-MpYfJe3cLHlEqqhJja9rEvrsdK9YgL1jNDpCAWOh_SHpTPs985HsGDdNxNIL7mYjBBbMeQ1GL6ZL064lvy-CGL8s9lgrBTZZhzanN0M0cTWaJBXzvG4mFI1S4ACh9548Jp1ffIzFxdGJJ21KUyQZguqmZYRm7zQ2O0VB0J6-CmUv140t6CD7LyGpSV3ulNrvLMYrIn6MGGtyzI0z1VHI34pkKQx1YkAQUXq3am1fhZkDNw2nvRustUjIJ3xvs72N81CTCt0el-08J5Kld53fqn0tvno6aAeMveWCWhveIevUl9cFZH4PBDHbkiR-150-SVssyabBo8K1RC6iHc7dac2_9lLcy8IuzxSBKluJf9x7TCRE_VRbK6Fv4Pcr9D1JP4T9RryZCzb_LZYi7GobmnmR6DdPzeP_ZF8u6V7ysZnurj4qrP69snfBBvSZx2MOav-3w9qbdP2ooLKO59NdcTavyMAeUCpTK4OQPxCqmOK1rg0kPMsh1zn485wxn6MGk6r9Xnd0tFURs1MYDLs-ahYVgWL_sd2Kkpi4dUcjfHLURy1zYFYzDECCrrW5ym235n5HbYSF1TPnW8XXFmG_a2zmBP55U__27N2FLKby2fHIRldpHmTybvOFWSiE73d_iBFtOTuN2YuAABeUF7_55r59y-XIiV0kt9qY3psJAo_GZNvnG56KlNY7CNdAMu_0NEYielyigWbZ1br4O-b4R6Bpa_6SLGORv3n__bvR-oE-Nd7rh4xKd3tpeVwnqZqSKLDY5rQhFZNEnBCpny-LHtGDljTWJGtVHFCKNIwqJEtONoxTRPf6lki3OV9jnAJ7lRDWJ-xB8Zx37zKTBnYZM7Xb85jjUXjrphDwcMlzawxkaFk4Qz11Src4k9c7yDYUqL9lujJHi6bKsEzNgXmyeZmdjqi_PguQa23ctI95Sxevy_PeVQSYvUD7aENGfpq5G7kS6L63hES1VULBp1M7TN9yAldrpzlPMWqXaPVAuTc1qdfI2lrl30LN2Po1oe0t3CK3eocICLCAnhSrq_6lCb-FHpPEgzMjhQCvect5V5O_r0D5huG2vyGUsDg1emD7aINFy1G6F0JVpU4Cxpl4gN5g6vDGpfu6YGxeo1pGx9H5cBVOdchluNac-FrBvdXy1cqxlfECa-x8HeRE-eHKfd6s1bv0scy2lHjDiXvnAp6m7dKB5R0USJhviXvqHtH8vjO1eYVpRW6E9pbGImH91B-9M8kyiLYK2dQDK8iGOcnARimALOfcEaoYMbLd-n3g06r8XwVVskZjgVeDiJtKybOTBkz0dJztpyd0D0kA9_7gcYSk0EuWysY2wb1YMy0J5x8c1h29Rk3h_lyR_LtV_gxj_qTtzDSUQyBPU8_TOM_Z_Xb5ykr_OFtnRBBR1q6BXzQte2_aWWawEuOM6IOKtpkkpwnhHSgImYFMO7XyTdFx6kQ3tb3H7mjSx8eqXY8lJot00jzGzKrBu3ZiNN-gHmhk3t0apM4WhT8HygJjX1ruHhlIR_YDoUrFDlNTgU4sECEOZ0i8fuo4pwX5bhVy0]--></g></svg>