<svg xmlns="http://www.w3.org/2000/svg" xmlns:xlink="http://www.w3.org/1999/xlink" contentStyleType="text/css" data-diagram-type="MINDMAP" height="679px" preserveAspectRatio="none" style="width:691px;height:679px;" version="1.1" viewBox="0 0 691 679" width="691px" zoomAndPan="magnify"><defs/><g><polygon fill="#4051B5" points="14,320.5625,14,320.7727,24.0929,320.1482,34.1858,320.7558,44.2786,320.9622,54.3715,319.8491,64.4644,320.4848,74.5573,320.136,84.6501,320.179,94.743,320.4943,104.8359,319.8711,114.9288,321.1161,125.0216,319.9322,135.1145,320.3647,145.2074,320.9944,155.3003,320.4767,165.3931,320.6307,175.486,320.5306,185.5789,320.741,195.6718,320.8016,205.7646,320.5625,205.8394,320.7429,206.4159,321.0035,206.9827,321.2403,207.4942,321.3439,208.0865,321.6425,208.5931,321.7341,208.8093,321.8237,208.6053,322.2078,209.2707,322.952,209.2047,323.3933,209.6947,324.0649,209.7646,324.5625,209.5996,324.5625,209.7418,330.2219,210.0119,335.8813,209.7484,341.5406,209.7997,347.2,209.7646,352.8594,209.8689,352.9026,209.6585,353.4782,209.2948,353.9902,209.1502,354.5931,208.6511,355.0491,208.5931,355.6878,208.6294,355.7754,208.0973,356.0909,207.5184,356.2933,206.9742,356.5795,206.2687,356.4763,205.7646,356.8594,205.7646,356.2072,195.6718,356.238,185.5789,356.8005,175.486,356.6628,165.3931,357.5408,155.3003,356.6847,145.2074,356.5163,135.1145,357.0876,125.0216,356.1925,114.9288,356.3402,104.8359,357.5083,94.743,357.295,84.6501,357.5939,74.5573,356.5376,64.4644,357.1786,54.3715,357.4498,44.2786,356.387,34.1858,356.7635,24.0929,356.9854,14,356.8594,14.0831,357.0601,13.4338,356.6238,12.9276,356.5332,12.2323,355.9859,11.6509,355.7135,11.1716,355.6878,11.3267,355.752,10.7165,355.0307,10.8597,354.6214,10.5323,354.0171,10.1518,353.3909,10,352.8594,9.8821,352.8594,10.1529,347.2,9.9002,341.5406,10.1973,335.8813,9.8158,330.2219,10,324.5625,10.1901,324.6413,10.3835,324.0586,10.5441,323.4624,10.7175,322.8715,11.161,322.3924,11.1716,321.7341,11.2498,321.923,11.7588,321.5519,12.3372,321.348,12.852,320.991,13.5257,321.0175,14,320.5625" style="stroke:#FF6F00;stroke-width:1.5;"/><text fill="#FFFFFF" font-family="'Roboto'" font-size="14" lengthAdjust="spacing" textLength="179.7646" x="20" y="343.5576">Legal Entity Management</text><a href="/use-case/legal-entity-management/compliance-and-documentation/" target="_top" title="/use-case/legal-entity-management/compliance-and-documentation/" xlink:actuate="onRequest" xlink:href="/use-case/legal-entity-management/compliance-and-documentation/" xlink:show="new" xlink:title="/use-case/legal-entity-management/compliance-and-documentation/" xlink:type="simple"><text fill="#90EE90" font-family="'Roboto'" font-size="14" lengthAdjust="spacing" textLength="210.1504" x="266.7646" y="41.1436">Compliance &amp; Documentation</text></a><a href="/use-case/legal-entity-management/compliance-and-documentation/compliance/" target="_top" title="/use-case/legal-entity-management/compliance-and-documentation/compliance/" xlink:actuate="onRequest" xlink:href="/use-case/legal-entity-management/compliance-and-documentation/compliance/" xlink:show="new" xlink:title="/use-case/legal-entity-management/compliance-and-documentation/compliance/" xlink:type="simple"><text fill="#90EE90" font-family="'Roboto'" font-size="14" lengthAdjust="spacing" textLength="82.4072" x="537.915" y="27.9951">Compliance</text></a><path d="M480.915,36.2969 L480.915,36.4837 L482.915,35.9286 L484.915,36.4687 L486.915,36.6521 L488.915,35.6627 L490.915,36.2969 L490.915,36.2969 L490.9012,36.2652 L493.8389,34.8084 L496.8466,33.5111 L499.9029,32.3246 L502.7917,30.7561 L505.915,29.7227 L506.0138,29.948 L508.8026,28.1512 L511.8798,27.0125 L514.9921,25.954 L517.8997,24.4284 L520.915,23.1484 L520.915,23.2091 L522.915,23.12 L524.915,23.3071 L526.915,23.361 L528.915,23.6691 L530.915,23.1484" fill="none" style="stroke:#FF9900;stroke-width:1;"/><a href="/use-case/legal-entity-management/compliance-and-documentation/documents/" target="_top" title="/use-case/legal-entity-management/compliance-and-documentation/documents/" xlink:actuate="onRequest" xlink:href="/use-case/legal-entity-management/compliance-and-documentation/documents/" xlink:show="new" xlink:title="/use-case/legal-entity-management/compliance-and-documentation/documents/" xlink:type="simple"><text fill="#90EE90" font-family="'Roboto'" font-size="14" lengthAdjust="spacing" textLength="79.8232" x="537.915" y="54.292">Documents</text></a><path d="M480.915,36.2969 L480.915,36.4837 L482.915,35.9286 L484.915,36.4687 L486.915,36.6521 L488.915,35.6627 L490.915,36.2969 L490.915,36.2969 L490.9012,36.2652 L493.8389,37.4381 L496.8466,38.7705 L499.9029,40.2137 L502.7917,41.2748 L505.915,42.8711 L506.0138,43.0965 L508.8026,43.9294 L511.8798,45.4203 L514.9921,46.9915 L517.8997,48.0956 L520.915,49.4453 L520.915,49.506 L522.915,49.4169 L524.915,49.604 L526.915,49.6579 L528.915,49.9659 L530.915,49.4453" fill="none" style="stroke:#FF9900;stroke-width:1;"/><path d="M209.7646,338.7109 L209.7646,338.8978 L211.7646,338.3427 L213.7646,338.8827 L215.7646,339.0662 L217.7646,338.0768 L219.7646,338.7109 L219.7646,338.7109 L219.7324,338.6986 L220.5837,336.0442 L221.5977,333.4522 L222.7246,330.9035 L223.4621,328.2055 L224.7451,325.7166 L224.9888,325.7505 L224.8822,322.6952 L225.4872,319.7389 L226.1789,316.7946 L226.3656,313.7802 L226.8179,310.8026 L226.8481,310.8055 L227.1743,306.9325 L227.6381,303.0726 L228.0355,299.2064 L228.5594,295.3523 L228.6709,291.4587 L228.9683,291.4805 L229.3074,286.9032 L229.4547,282.3119 L229.8827,277.7411 L230.324,273.1713 L230.3481,268.571 L230.0282,268.5516 L230.9582,263.48 L230.8348,258.3447 L231.5122,253.2579 L231.3649,248.1211 L231.8936,243.0252 L231.8023,243.0205 L233.3596,233.8227 L232.7857,224.5148 L233.4693,215.2718 L234.2585,206.0343 L234.8404,196.7861 L234.7646,187.5039 L234.7594,187.5036 L235.6256,178.2701 L234.9595,168.9574 L236.5789,159.7628 L237.4087,150.5274 L237.7491,141.2667 L237.6357,131.9826 L237.9077,131.999 L237.7305,126.8605 L237.9646,121.7468 L238.2873,116.6385 L238.8459,111.5444 L239.1812,106.4369 L239.094,106.4305 L239.8186,101.8814 L239.7746,97.2761 L240.0354,92.693 L240.6241,88.134 L240.8584,83.5491 L240.5634,83.5208 L240.9993,79.6583 L241.8867,75.839 L242.163,71.9612 L242.6658,68.1051 L242.7114,64.2052 L242.5698,64.1855 L243.2665,61.2419 L243.8004,58.2757 L243.7471,55.2279 L244.3274,52.2682 L244.7842,49.2912 L244.8365,49.3113 L246.0508,46.796 L246.7746,44.0928 L247.9644,41.5682 L248.5387,38.8077 L249.7646,36.2969 L249.7646,35.6949 L251.7646,36.7445 L253.7646,35.6596 L255.7646,36.7493 L257.7646,36.4805 L259.7646,36.2969" fill="none" style="stroke:#FF9900;stroke-width:1;"/><a href="/use-case/legal-entity-management/contact-and-location-information/" target="_top" title="/use-case/legal-entity-management/contact-and-location-information/" xlink:actuate="onRequest" xlink:href="/use-case/legal-entity-management/contact-and-location-information/" xlink:show="new" xlink:title="/use-case/legal-entity-management/contact-and-location-information/" xlink:type="simple"><text fill="#90EE90" font-family="'Roboto'" font-size="14" lengthAdjust="spacing" textLength="219.4814" x="266.7646" y="93.7373">Contact &amp; Location Information</text></a><a href="/use-case/legal-entity-management/contact-and-location-information/addresses/" target="_top" title="/use-case/legal-entity-management/contact-and-location-information/addresses/" xlink:actuate="onRequest" xlink:href="/use-case/legal-entity-management/contact-and-location-information/addresses/" xlink:show="new" xlink:title="/use-case/legal-entity-management/contact-and-location-information/addresses/" xlink:type="simple"><text fill="#90EE90" font-family="'Roboto'" font-size="14" lengthAdjust="spacing" textLength="72.2148" x="547.2461" y="80.5889">Addresses</text></a><path d="M490.2461,88.8906 L490.2461,89.0775 L492.2461,88.5223 L494.2461,89.0624 L496.2461,89.2459 L498.2461,88.2565 L500.2461,88.8906 L500.2461,88.8906 L500.2322,88.859 L503.17,87.4022 L506.1777,86.1048 L509.2339,84.9183 L512.1227,83.3498 L515.2461,82.3164 L515.3449,82.5418 L518.1336,80.745 L521.2108,79.6062 L524.3232,78.5477 L527.2308,77.0221 L530.2461,75.7422 L530.2461,75.8028 L532.2461,75.7138 L534.2461,75.9009 L536.2461,75.9548 L538.2461,76.2628 L540.2461,75.7422" fill="none" style="stroke:#FF9900;stroke-width:1;"/><a href="/use-case/legal-entity-management/contact-and-location-information/contacts/" target="_top" title="/use-case/legal-entity-management/contact-and-location-information/contacts/" xlink:actuate="onRequest" xlink:href="/use-case/legal-entity-management/contact-and-location-information/contacts/" xlink:show="new" xlink:title="/use-case/legal-entity-management/contact-and-location-information/contacts/" xlink:type="simple"><text fill="#90EE90" font-family="'Roboto'" font-size="14" lengthAdjust="spacing" textLength="61.7627" x="547.2461" y="106.8857">Contacts</text></a><path d="M490.2461,88.8906 L490.2461,89.0775 L492.2461,88.5223 L494.2461,89.0624 L496.2461,89.2459 L498.2461,88.2565 L500.2461,88.8906 L500.2461,88.8906 L500.2322,88.859 L503.17,90.0319 L506.1777,91.3642 L509.2339,92.8074 L512.1227,93.8686 L515.2461,95.4648 L515.3449,95.6902 L518.1336,96.5231 L521.2108,98.014 L524.3232,99.5852 L527.2308,100.6893 L530.2461,102.0391 L530.2461,102.0997 L532.2461,102.0107 L534.2461,102.1978 L536.2461,102.2516 L538.2461,102.5597 L540.2461,102.0391" fill="none" style="stroke:#FF9900;stroke-width:1;"/><path d="M209.7646,338.7109 L209.7646,338.8978 L211.7646,338.3427 L213.7646,338.8827 L215.7646,339.0662 L217.7646,338.0768 L219.7646,338.7109 L219.7646,338.7109 L219.7333,338.6964 L220.5888,336.4843 L221.6022,334.3454 L222.7255,332.2575 L223.4703,329.994 L224.7451,327.9765 L224.9878,328.0173 L224.8834,325.4659 L225.4875,323.0338 L226.1781,320.6162 L226.3657,318.114 L226.8179,315.6562 L226.848,315.6597 L227.1744,312.4587 L227.6379,309.2735 L228.0353,306.0806 L228.5589,302.9024 L228.6709,299.6765 L228.968,299.7029 L229.3071,295.9217 L229.4545,292.1236 L229.8825,288.3503 L230.3236,284.5783 L230.3481,280.7692 L230.0285,280.7458 L230.958,276.5706 L230.8349,272.3184 L231.512,268.1248 L231.365,263.8708 L231.8936,259.6662 L231.8024,259.6605 L233.4546,250.5549 L232.9771,241.316 L233.7563,232.1557 L234.6411,223.0021 L234.7646,213.8008 L235.3185,213.8355 L235.3337,204.6274 L236.2953,195.4785 L235.7256,186.2338 L237.44,177.1321 L237.6357,167.9353 L237.8787,167.9531 L238.1419,163.7292 L238.5256,159.514 L238.3489,155.2579 L238.583,151.0318 L239.1812,146.8323 L238.9061,146.8079 L239.4905,143.0486 L239.765,139.2617 L240.4892,135.5147 L240.4456,131.6996 L240.8584,127.925 L240.7069,127.9075 L241.3298,124.7408 L241.3052,121.499 L241.741,118.3106 L242.6273,115.1745 L242.7114,111.9453 L242.9024,111.9775 L243.4479,109.5354 L243.3995,106.9935 L244.095,104.5767 L244.6284,102.1327 L244.7842,99.6251 L244.5937,99.5367 L245.7416,97.4603 L246.8272,95.3549 L248.0352,93.3063 L248.7669,91.0367 L249.7646,88.8906 L249.7646,89.3018 L251.7646,88.3984 L253.7646,88.2886 L255.7646,89.3383 L257.7646,88.2533 L259.7646,88.8906" fill="none" style="stroke:#FF9900;stroke-width:1;"/><a href="/use-case/legal-entity-management/corporate-governance/" target="_top" title="/use-case/legal-entity-management/corporate-governance/" xlink:actuate="onRequest" xlink:href="/use-case/legal-entity-management/corporate-governance/" xlink:show="new" xlink:title="/use-case/legal-entity-management/corporate-governance/" xlink:type="simple"><text fill="#90EE90" font-family="'Roboto'" font-size="14" lengthAdjust="spacing" textLength="159.1406" x="266.7646" y="159.4795">Corporate Governance</text></a><a href="/use-case/legal-entity-management/corporate-governance/directorships/" target="_top" title="/use-case/legal-entity-management/corporate-governance/directorships/" xlink:actuate="onRequest" xlink:href="/use-case/legal-entity-management/corporate-governance/directorships/" xlink:show="new" xlink:title="/use-case/legal-entity-management/corporate-governance/directorships/" xlink:type="simple"><text fill="#90EE90" font-family="'Roboto'" font-size="14" lengthAdjust="spacing" textLength="92.7842" x="486.9053" y="133.1826">Directorships</text></a><path d="M429.9053,154.6328 L429.9053,154.8196 L431.9053,154.2645 L433.9053,154.8046 L435.9053,154.9881 L437.9053,153.9987 L439.9053,154.6328 L439.9053,154.6328 L439.8825,154.6068 L442.7803,151.8606 L445.7929,149.2453 L448.8853,146.721 L451.7027,143.883 L454.9053,141.4844 L455.0675,141.6694 L457.7206,138.644 L460.8473,136.1589 L464.0318,133.7397 L466.8801,130.937 L469.9053,128.3359 L469.9053,128.3966 L471.9053,128.3075 L473.9053,128.4946 L475.9053,128.5485 L477.9053,128.8566 L479.9053,128.3359" fill="none" style="stroke:#FF9900;stroke-width:1;"/><a href="/use-case/legal-entity-management/corporate-governance/organizational-structure/" target="_top" title="/use-case/legal-entity-management/corporate-governance/organizational-structure/" xlink:actuate="onRequest" xlink:href="/use-case/legal-entity-management/corporate-governance/organizational-structure/" xlink:show="new" xlink:title="/use-case/legal-entity-management/corporate-governance/organizational-structure/" xlink:type="simple"><text fill="#90EE90" font-family="'Roboto'" font-size="14" lengthAdjust="spacing" textLength="172.1016" x="486.9053" y="159.4795">Organizational Structure</text></a><path d="M429.9053,154.6328 L429.9053,154.8196 L431.9053,154.2645 L433.9053,154.8046 L435.9053,154.9881 L437.9053,153.9987 L439.9053,154.6328 L439.9053,154.6328 L439.9053,154.5983 L445.9053,154.4433 L451.9053,154.4624 L457.9053,154.6025 L463.9053,154.3255 L469.9053,154.6328 L469.9053,155.1249 L471.9053,154.0726 L473.9053,154.457 L475.9053,155.0168 L477.9053,154.5566 L479.9053,154.6328" fill="none" style="stroke:#FF9900;stroke-width:1;"/><a href="/use-case/legal-entity-management/corporate-governance/signatories/" target="_top" title="/use-case/legal-entity-management/corporate-governance/signatories/" xlink:actuate="onRequest" xlink:href="/use-case/legal-entity-management/corporate-governance/signatories/" xlink:show="new" xlink:title="/use-case/legal-entity-management/corporate-governance/signatories/" xlink:type="simple"><text fill="#90EE90" font-family="'Roboto'" font-size="14" lengthAdjust="spacing" textLength="78.7227" x="486.9053" y="185.7764">Signatories</text></a><path d="M429.9053,154.6328 L429.9053,154.8196 L431.9053,154.2645 L433.9053,154.8046 L435.9053,154.9881 L437.9053,153.9987 L439.9053,154.6328 L439.9053,154.6328 L439.8825,154.6068 L442.7803,157.12 L445.7929,159.764 L448.8853,162.4991 L451.7027,164.9205 L454.9053,167.7813 L455.0675,167.9663 L457.7206,170.2003 L460.8473,172.9745 L464.0318,175.8147 L466.8801,178.2713 L469.9053,180.9297 L469.9053,180.9903 L471.9053,180.9013 L473.9053,181.0884 L475.9053,181.1423 L477.9053,181.4503 L479.9053,180.9297" fill="none" style="stroke:#FF9900;stroke-width:1;"/><path d="M209.7646,338.7109 L209.7646,338.8978 L211.7646,338.3427 L213.7646,338.8827 L215.7646,339.0662 L217.7646,338.0768 L219.7646,338.7109 L219.7646,338.7109 L219.7354,338.6925 L220.6003,337.028 L221.6126,335.4563 L222.7273,333.949 L223.489,332.2195 L224.7451,330.8013 L224.985,330.8561 L224.8866,328.9234 L225.4885,327.1505 L226.1759,325.3972 L226.3662,323.5304 L226.8179,321.7233 L226.8478,321.728 L227.1745,319.3661 L227.6375,317.0258 L228.0347,314.6751 L228.5574,312.3441 L228.6709,309.9487 L228.967,309.9844 L229.3061,307.1985 L229.4542,304.3896 L229.8818,301.6143 L230.3226,298.8407 L230.3481,296.017 L230.0292,295.9853 L230.9573,292.9369 L230.8352,289.7842 L231.5115,286.7108 L231.3655,283.5556 L231.8936,280.4675 L231.8632,280.4649 L232.7962,273.7363 L233.0204,266.9474 L233.6628,260.1941 L234.3404,253.4437 L234.7646,246.6719 L234.949,246.6875 L235.3371,239.9126 L236.0403,233.1644 L236.2338,226.373 L237.1875,219.6461 L237.6357,212.8763 L237.8782,212.9004 L238.1414,209.7859 L238.525,206.6834 L238.3493,203.5253 L238.5836,200.408 L239.1812,197.3267 L238.907,197.2937 L239.4906,194.5372 L239.7653,191.7436 L240.4882,189.0039 L240.4459,186.1721 L240.8584,183.395 L240.7078,183.3713 L241.3292,181.0559 L241.3068,178.6391 L241.7423,176.2944 L242.6257,174.0202 L242.7114,171.6205 L242.9002,171.6636 L243.4442,169.8775 L243.4011,167.9574 L244.0934,166.2052 L244.6255,164.4164 L244.7842,162.5424 L244.6065,162.4305 L245.7442,160.9378 L246.8237,159.4084 L248.0176,157.951 L248.767,156.2137 L249.7646,154.6328 L249.7646,155.044 L251.7646,154.1406 L253.7646,154.0308 L255.7646,155.0805 L257.7646,153.9955 L259.7646,154.6328" fill="none" style="stroke:#FF9900;stroke-width:1;"/><a href="/use-case/legal-entity-management/financial-information/" target="_top" title="/use-case/legal-entity-management/financial-information/" xlink:actuate="onRequest" xlink:href="/use-case/legal-entity-management/financial-information/" xlink:show="new" xlink:title="/use-case/legal-entity-management/financial-information/" xlink:type="simple"><text fill="#90EE90" font-family="'Roboto'" font-size="14" lengthAdjust="spacing" textLength="148.0596" x="266.7646" y="264.667">Financial Information</text></a><a href="/use-case/legal-entity-management/financial-information/assets/" target="_top" title="/use-case/legal-entity-management/financial-information/assets/" xlink:actuate="onRequest" xlink:href="/use-case/legal-entity-management/financial-information/assets/" xlink:show="new" xlink:title="/use-case/legal-entity-management/financial-information/assets/" xlink:type="simple"><text fill="#90EE90" font-family="'Roboto'" font-size="14" lengthAdjust="spacing" textLength="45.5615" x="475.8242" y="212.0732">Assets</text></a><path d="M418.8242,259.8203 L418.8242,260.0071 L420.8242,259.452 L422.8242,259.9921 L424.8242,260.1756 L426.8242,259.1862 L428.8242,259.8203 L428.8242,259.8203 L428.8008,259.7949 L430.4769,258.0374 L432.2711,256.4079 L434.1474,254.8674 L435.7408,253.0203 L437.7305,251.6025 L437.9636,251.6811 L438.6838,247.8972 L440.0847,244.3428 L441.5686,240.8164 L442.5693,237.1271 L443.8242,233.5234 L443.853,233.5331 L445.0295,229.9031 L446.3369,226.3171 L447.5812,222.7099 L448.9459,219.1433 L449.918,215.4443 L450.1202,215.6635 L451.9039,214.0227 L453.5572,212.2404 L455.4014,210.6651 L457.2546,209.0995 L458.8242,207.2266 L458.8242,206.5855 L460.8242,207.8297 L462.8242,206.963 L464.8242,207.7011 L466.8242,206.7865 L468.8242,207.2266" fill="none" style="stroke:#FF9900;stroke-width:1;"/><a href="/use-case/legal-entity-management/financial-information/earnings-estimates/" target="_top" title="/use-case/legal-entity-management/financial-information/earnings-estimates/" xlink:actuate="onRequest" xlink:href="/use-case/legal-entity-management/financial-information/earnings-estimates/" xlink:show="new" xlink:title="/use-case/legal-entity-management/financial-information/earnings-estimates/" xlink:type="simple"><text fill="#90EE90" font-family="'Roboto'" font-size="14" lengthAdjust="spacing" textLength="134.5791" x="475.8242" y="238.3701">Earnings Estimates</text></a><path d="M418.8242,259.8203 L418.8242,260.0071 L420.8242,259.452 L422.8242,259.9921 L424.8242,260.1756 L426.8242,259.1862 L428.8242,259.8203 L428.8242,259.8203 L428.8015,259.7943 L431.6993,257.0481 L434.7119,254.4328 L437.8043,251.9085 L440.6217,249.0705 L443.8242,246.6719 L443.9864,246.8569 L446.6396,243.8315 L449.7663,241.3464 L452.9508,238.9272 L455.7991,236.1245 L458.8242,233.5234 L458.8242,233.5841 L460.8242,233.495 L462.8242,233.6821 L464.8242,233.736 L466.8242,234.0441 L468.8242,233.5234" fill="none" style="stroke:#FF9900;stroke-width:1;"/><a href="/use-case/legal-entity-management/financial-information/fundamentals/" target="_top" title="/use-case/legal-entity-management/financial-information/fundamentals/" xlink:actuate="onRequest" xlink:href="/use-case/legal-entity-management/financial-information/fundamentals/" xlink:show="new" xlink:title="/use-case/legal-entity-management/financial-information/fundamentals/" xlink:type="simple"><text fill="#90EE90" font-family="'Roboto'" font-size="14" lengthAdjust="spacing" textLength="99.6406" x="475.8242" y="264.667">Fundamentals</text></a><path d="M418.8242,259.8203 L418.8242,260.0071 L420.8242,259.452 L422.8242,259.9921 L424.8242,260.1756 L426.8242,259.1862 L428.8242,259.8203 L428.8242,259.8203 L428.8242,259.7858 L434.8242,259.6308 L440.8242,259.6499 L446.8242,259.79 L452.8242,259.513 L458.8242,259.8203 L458.8242,260.3124 L460.8242,259.2601 L462.8242,259.6445 L464.8242,260.2043 L466.8242,259.7441 L468.8242,259.8203" fill="none" style="stroke:#FF9900;stroke-width:1;"/><a href="/use-case/legal-entity-management/financial-information/liability-terms/" target="_top" title="/use-case/legal-entity-management/financial-information/liability-terms/" xlink:actuate="onRequest" xlink:href="/use-case/legal-entity-management/financial-information/liability-terms/" xlink:show="new" xlink:title="/use-case/legal-entity-management/financial-information/liability-terms/" xlink:type="simple"><text fill="#90EE90" font-family="'Roboto'" font-size="14" lengthAdjust="spacing" textLength="102.9014" x="475.8242" y="290.9639">Liability Terms</text></a><path d="M418.8242,259.8203 L418.8242,260.0071 L420.8242,259.452 L422.8242,259.9921 L424.8242,260.1756 L426.8242,259.1862 L428.8242,259.8203 L428.8242,259.8203 L428.8015,259.7943 L431.6993,262.3075 L434.7119,264.9515 L437.8043,267.6866 L440.6217,270.108 L443.8242,272.9688 L443.9864,273.1538 L446.6396,275.3878 L449.7663,278.162 L452.9508,281.0022 L455.7991,283.4588 L458.8242,286.1172 L458.8242,286.1778 L460.8242,286.0888 L462.8242,286.2759 L464.8242,286.3298 L466.8242,286.6378 L468.8242,286.1172" fill="none" style="stroke:#FF9900;stroke-width:1;"/><a href="/use-case/legal-entity-management/financial-information/ratings/" target="_top" title="/use-case/legal-entity-management/financial-information/ratings/" xlink:actuate="onRequest" xlink:href="/use-case/legal-entity-management/financial-information/ratings/" xlink:show="new" xlink:title="/use-case/legal-entity-management/financial-information/ratings/" xlink:type="simple"><text fill="#90EE90" font-family="'Roboto'" font-size="14" lengthAdjust="spacing" textLength="52.7393" x="475.8242" y="317.2607">Ratings</text></a><path d="M418.8242,259.8203 L418.8242,260.0071 L420.8242,259.452 L422.8242,259.9921 L424.8242,260.1756 L426.8242,259.1862 L428.8242,259.8203 L428.8242,259.8203 L428.8008,259.7949 L430.4769,261.3246 L432.2711,262.9822 L434.1474,264.7287 L435.7408,266.1687 L437.7305,268.0381 L437.9636,268.1167 L438.6838,271.5644 L440.0847,275.2417 L441.5686,278.9469 L442.5693,282.4892 L443.8242,286.1172 L443.853,286.1269 L445.0295,289.7285 L446.3369,293.3742 L447.5812,296.9986 L448.9459,300.6636 L449.918,304.1963 L450.1202,304.4155 L451.9039,306.0617 L453.5572,307.5666 L455.4014,309.2784 L457.2546,310.9999 L458.8242,312.4141 L458.8242,311.773 L460.8242,313.0172 L462.8242,312.1505 L464.8242,312.8886 L466.8242,311.974 L468.8242,312.4141" fill="none" style="stroke:#FF9900;stroke-width:1;"/><path d="M209.7646,338.7109 L209.7646,338.8978 L211.7646,338.3427 L213.7646,338.8827 L215.7646,339.0662 L217.7646,338.0768 L219.7646,338.7109 L219.7646,338.7109 L219.7367,338.6907 L221.3923,336.1346 L223.189,333.6805 L225.0838,331.2972 L226.6406,328.6697 L228.6709,326.3843 L228.9093,326.4451 L229.044,323.7881 L229.8748,321.3086 L230.7905,318.8508 L231.2121,316.267 L231.8936,313.7495 L231.9233,313.7553 L232.4538,310.8499 L233.1198,307.9713 L233.7205,305.0798 L234.4458,302.213 L234.7646,299.2656 L235.0572,299.3236 L235.635,296.4276 L236.0241,293.4941 L236.6894,290.6154 L237.3677,287.7393 L237.6357,284.7818 L237.3252,284.7026 L238.5725,282.3294 L238.7971,279.6953 L239.7992,277.2595 L240.0007,274.6196 L240.8584,272.147 L240.8337,272.1291 L242.9068,269.8747 L244.4033,267.2036 L246.2401,264.7784 L248.1054,262.3738 L249.7646,259.8203 L249.7646,260.1903 L251.7646,259.8168 L253.7646,260.0756 L255.7646,259.3115 L257.7646,260.0731 L259.7646,259.8203" fill="none" style="stroke:#FF9900;stroke-width:1;"/><a href="/use-case/legal-entity-management/identification-and-registration/" target="_top" title="/use-case/legal-entity-management/identification-and-registration/" xlink:actuate="onRequest" xlink:href="/use-case/legal-entity-management/identification-and-registration/" xlink:show="new" xlink:title="/use-case/legal-entity-management/identification-and-registration/" xlink:type="simple"><text fill="#90EE90" font-family="'Roboto'" font-size="14" lengthAdjust="spacing" textLength="196.6631" x="266.7646" y="383.0029">Identification &amp; Registration</text></a><a href="/use-case/legal-entity-management/identification-and-registration/business-registration/" target="_top" title="/use-case/legal-entity-management/identification-and-registration/business-registration/" xlink:actuate="onRequest" xlink:href="/use-case/legal-entity-management/identification-and-registration/business-registration/" xlink:show="new" xlink:title="/use-case/legal-entity-management/identification-and-registration/business-registration/" xlink:type="simple"><text fill="#90EE90" font-family="'Roboto'" font-size="14" lengthAdjust="spacing" textLength="151.2383" x="524.4277" y="343.5576">Business Registration</text></a><path d="M467.4277,378.1563 L467.4277,378.3431 L469.4277,377.788 L471.4277,378.3281 L473.4277,378.5115 L475.4277,377.5221 L477.4277,378.1563 L477.4277,378.1563 L477.4081,378.1278 L479.1011,376.7677 L480.8932,375.5508 L482.7542,374.4333 L484.3779,372.9729 L486.334,371.9929 L486.5584,372.0938 L487.2972,369.1662 L488.6913,366.5332 L490.1653,363.936 L491.1742,361.1298 L492.4277,358.4336 L492.4554,358.446 L493.6335,355.7159 L494.9376,353.0424 L496.1809,350.3416 L497.5402,347.6928 L498.5215,344.8743 L498.6912,345.1195 L500.4745,343.8898 L502.1484,342.502 L503.9825,341.3457 L505.8241,340.2002 L507.4277,338.7109 L507.4277,338.0699 L509.4277,339.3141 L511.4277,338.4474 L513.4277,339.1854 L515.4277,338.2709 L517.4277,338.7109" fill="none" style="stroke:#FF9900;stroke-width:1;"/><a href="/use-case/legal-entity-management/identification-and-registration/classification/" target="_top" title="/use-case/legal-entity-management/identification-and-registration/classification/" xlink:actuate="onRequest" xlink:href="/use-case/legal-entity-management/identification-and-registration/classification/" xlink:show="new" xlink:title="/use-case/legal-entity-management/identification-and-registration/classification/" xlink:type="simple"><text fill="#90EE90" font-family="'Roboto'" font-size="14" lengthAdjust="spacing" textLength="92.6338" x="524.4277" y="369.8545">Classification</text></a><path d="M467.4277,378.1563 L467.4277,378.3431 L469.4277,377.788 L471.4277,378.3281 L473.4277,378.5115 L475.4277,377.5221 L477.4277,378.1563 L477.4277,378.1563 L477.4139,378.1246 L480.3516,376.6678 L483.3593,375.3705 L486.4156,374.184 L489.3044,372.6154 L492.4277,371.582 L492.5265,371.8074 L495.3153,370.0106 L498.3925,368.8718 L501.5048,367.8133 L504.4124,366.2877 L507.4277,365.0078 L507.4277,365.0685 L509.4277,364.9794 L511.4277,365.1665 L513.4277,365.2204 L515.4277,365.5284 L517.4277,365.0078" fill="none" style="stroke:#FF9900;stroke-width:1;"/><a href="/use-case/legal-entity-management/identification-and-registration/commercial-register/" target="_top" title="/use-case/legal-entity-management/identification-and-registration/commercial-register/" xlink:actuate="onRequest" xlink:href="/use-case/legal-entity-management/identification-and-registration/commercial-register/" xlink:show="new" xlink:title="/use-case/legal-entity-management/identification-and-registration/commercial-register/" xlink:type="simple"><text fill="#90EE90" font-family="'Roboto'" font-size="14" lengthAdjust="spacing" textLength="146.7607" x="524.4277" y="396.1514">Commercial Register</text></a><path d="M467.4277,378.1563 L467.4277,378.3431 L469.4277,377.788 L471.4277,378.3281 L473.4277,378.5115 L475.4277,377.5221 L477.4277,378.1563 L477.4277,378.1563 L477.4139,378.1246 L480.3516,379.2975 L483.3593,380.6298 L486.4156,382.073 L489.3044,383.1342 L492.4277,384.7305 L492.5265,384.9558 L495.3153,385.7887 L498.3925,387.2797 L501.5048,388.8508 L504.4124,389.9549 L507.4277,391.3047 L507.4277,391.3653 L509.4277,391.2763 L511.4277,391.4634 L513.4277,391.5173 L515.4277,391.8253 L517.4277,391.3047" fill="none" style="stroke:#FF9900;stroke-width:1;"/><a href="/use-case/legal-entity-management/identification-and-registration/legal-form/" target="_top" title="/use-case/legal-entity-management/identification-and-registration/legal-form/" xlink:actuate="onRequest" xlink:href="/use-case/legal-entity-management/identification-and-registration/legal-form/" xlink:show="new" xlink:title="/use-case/legal-entity-management/identification-and-registration/legal-form/" xlink:type="simple"><text fill="#90EE90" font-family="'Roboto'" font-size="14" lengthAdjust="spacing" textLength="85.5244" x="524.4277" y="422.4482">Legal Forms</text></a><path d="M467.4277,378.1563 L467.4277,378.3431 L469.4277,377.788 L471.4277,378.3281 L473.4277,378.5115 L475.4277,377.5221 L477.4277,378.1563 L477.4277,378.1563 L477.4081,378.1278 L479.1011,379.233 L480.8932,380.4814 L482.7542,381.8293 L484.3779,382.8342 L486.334,384.3196 L486.5584,384.4204 L487.2972,386.9166 L488.6913,389.7073 L490.1653,392.5339 L491.1742,395.1514 L492.4277,397.8789 L492.4554,397.8913 L493.6335,400.585 L494.9376,403.3352 L496.1809,406.0581 L497.5402,408.8331 L498.5215,411.4382 L498.6912,411.6835 L500.4745,412.9191 L502.1484,413.9966 L503.9825,415.3057 L505.8241,416.6255 L507.4277,417.6016 L507.4277,416.9605 L509.4277,418.2047 L511.4277,417.338 L513.4277,418.0761 L515.4277,417.1615 L517.4277,417.6016" fill="none" style="stroke:#FF9900;stroke-width:1;"/><path d="M209.7646,338.7109 L209.7646,338.8978 L211.7646,338.3427 L213.7646,338.8827 L215.7646,339.0662 L217.7646,338.0768 L219.7646,338.7109 L219.7646,338.7109 L219.745,338.6825 L221.438,339.7877 L223.2302,341.0361 L225.0912,342.384 L226.7148,343.3889 L228.6709,344.8743 L228.8953,344.9751 L229.6341,347.4713 L231.0282,350.262 L232.5023,353.0886 L233.5111,355.7061 L234.7646,358.4336 L234.7923,358.446 L235.9704,361.1396 L237.2745,363.8898 L238.5178,366.6128 L239.8771,369.3878 L240.8584,371.9929 L241.0281,372.2382 L242.8114,373.4738 L244.4853,374.5513 L246.3194,375.8603 L248.161,377.1802 L249.7646,378.1563 L249.7646,377.5152 L251.7646,378.7594 L253.7646,377.8927 L255.7646,378.6307 L257.7646,377.7162 L259.7646,378.1563" fill="none" style="stroke:#FF9900;stroke-width:1;"/><a href="/use-case/legal-entity-management/lifecycle-and-status/" target="_top" title="/use-case/legal-entity-management/lifecycle-and-status/" xlink:actuate="onRequest" xlink:href="/use-case/legal-entity-management/lifecycle-and-status/" xlink:show="new" xlink:title="/use-case/legal-entity-management/lifecycle-and-status/" xlink:type="simple"><text fill="#90EE90" font-family="'Roboto'" font-size="14" lengthAdjust="spacing" textLength="125.8428" x="266.7646" y="461.8936">Lifecycle &amp; Status</text></a><a href="/use-case/legal-entity-management/lifecycle-and-status/dissolution/" target="_top" title="/use-case/legal-entity-management/lifecycle-and-status/dissolution/" xlink:actuate="onRequest" xlink:href="/use-case/legal-entity-management/lifecycle-and-status/dissolution/" xlink:show="new" xlink:title="/use-case/legal-entity-management/lifecycle-and-status/dissolution/" xlink:type="simple"><text fill="#90EE90" font-family="'Roboto'" font-size="14" lengthAdjust="spacing" textLength="77.4033" x="453.6074" y="448.7451">Dissolution</text></a><path d="M396.6074,457.0469 L396.6074,457.2337 L398.6074,456.6786 L400.6074,457.2187 L402.6074,457.4021 L404.6074,456.4127 L406.6074,457.0469 L406.6074,457.0469 L406.5936,457.0152 L409.5313,455.5584 L412.539,454.2611 L415.5953,453.0746 L418.4841,451.5061 L421.6074,450.4727 L421.7062,450.698 L424.495,448.9012 L427.5721,447.7625 L430.6845,446.704 L433.5921,445.1784 L436.6074,443.8984 L436.6074,443.9591 L438.6074,443.87 L440.6074,444.0571 L442.6074,444.111 L444.6074,444.4191 L446.6074,443.8984" fill="none" style="stroke:#FF9900;stroke-width:1;"/><a href="/use-case/legal-entity-management/lifecycle-and-status/liquidation/" target="_top" title="/use-case/legal-entity-management/lifecycle-and-status/liquidation/" xlink:actuate="onRequest" xlink:href="/use-case/legal-entity-management/lifecycle-and-status/liquidation/" xlink:show="new" xlink:title="/use-case/legal-entity-management/lifecycle-and-status/liquidation/" xlink:type="simple"><text fill="#90EE90" font-family="'Roboto'" font-size="14" lengthAdjust="spacing" textLength="77.6221" x="453.6074" y="475.042">Liquidation</text></a><path d="M396.6074,457.0469 L396.6074,457.2337 L398.6074,456.6786 L400.6074,457.2187 L402.6074,457.4021 L404.6074,456.4127 L406.6074,457.0469 L406.6074,457.0469 L406.5936,457.0152 L409.5313,458.1881 L412.539,459.5205 L415.5953,460.9637 L418.4841,462.0248 L421.6074,463.6211 L421.7062,463.8465 L424.495,464.6794 L427.5721,466.1703 L430.6845,467.7415 L433.5921,468.8456 L436.6074,470.1953 L436.6074,470.256 L438.6074,470.1669 L440.6074,470.354 L442.6074,470.4079 L444.6074,470.7159 L446.6074,470.1953" fill="none" style="stroke:#FF9900;stroke-width:1;"/><path d="M209.7646,338.7109 L209.7646,338.8978 L211.7646,338.3427 L213.7646,338.8827 L215.7646,339.0662 L217.7646,338.0768 L219.7646,338.7109 L219.7646,338.7109 L219.74,338.6868 L220.6253,339.5952 L221.6351,340.6256 L222.7313,341.7406 L223.5295,342.5637 L224.7451,343.7957 L224.9813,343.8648 L225.2614,346.398 L226.2311,349.1331 L227.2848,351.8928 L227.8492,354.5092 L228.6709,357.2009 L228.7008,357.206 L229.3014,360.989 L230.0382,364.7951 L230.7093,368.5901 L231.5056,372.4064 L231.8936,376.1532 L232.1892,376.1922 L232.7671,380.5379 L233.1542,384.8583 L233.8205,389.2156 L234.4998,393.5746 L234.7646,397.8789 L234.4469,397.8369 L235.6378,402.2636 L235.7824,406.5519 L236.7225,410.9454 L236.8434,415.2307 L237.6357,419.6046 L237.6057,419.5995 L238.6052,423.4503 L238.9035,427.1819 L239.6155,430.9838 L240.3622,434.7917 L240.8584,438.5569 L241.0359,438.6089 L241.6419,441.2374 L242.5512,443.9549 L242.9697,446.5285 L244.1203,449.3166 L244.7842,451.9621 L244.9582,452.1326 L245.9214,453.1173 L246.971,454.1867 L247.6191,454.8627 L248.5615,455.8271 L249.7646,457.0469 L249.7646,456.4945 L251.7646,456.9945 L253.7646,456.8722 L255.7646,457.6526 L257.7646,456.8916 L259.7646,457.0469" fill="none" style="stroke:#FF9900;stroke-width:1;"/><a href="/use-case/legal-entity-management/ownership-and-capital-structure/" target="_top" title="/use-case/legal-entity-management/ownership-and-capital-structure/" xlink:actuate="onRequest" xlink:href="/use-case/legal-entity-management/ownership-and-capital-structure/" xlink:show="new" xlink:title="/use-case/legal-entity-management/ownership-and-capital-structure/" xlink:type="simple"><text fill="#90EE90" font-family="'Roboto'" font-size="14" lengthAdjust="spacing" textLength="213.4453" x="266.7646" y="567.0811">Ownership &amp; Capital Structure</text></a><a href="/use-case/legal-entity-management/ownership-and-capital-structure/control/" target="_top" title="/use-case/legal-entity-management/ownership-and-capital-structure/control/" xlink:actuate="onRequest" xlink:href="/use-case/legal-entity-management/ownership-and-capital-structure/control/" xlink:show="new" xlink:title="/use-case/legal-entity-management/ownership-and-capital-structure/control/" xlink:type="simple"><text fill="#90EE90" font-family="'Roboto'" font-size="14" lengthAdjust="spacing" textLength="50.9141" x="541.21" y="501.3389">Control</text></a><path d="M484.21,562.2344 L484.21,562.4212 L486.21,561.8661 L488.21,562.4062 L490.21,562.5896 L492.21,561.6002 L494.21,562.2344 L494.21,562.2344 L494.1839,562.2117 L495.848,560.0558 L497.6437,558.0138 L499.5308,556.0512 L501.1028,553.8153 L503.1162,551.9622 L503.3515,552.0342 L503.4929,549.7744 L504.3212,547.7248 L505.2334,545.7009 L505.6579,543.5278 L506.3389,541.4331 L506.3684,541.4402 L506.8993,539.0159 L507.5645,536.6236 L508.1649,534.2158 L508.889,531.8375 L509.21,529.3633 L509.5001,529.4323 L510.0779,527.0192 L510.4685,524.5615 L511.1331,522.169 L511.8105,519.7796 L512.0811,517.2934 L511.7746,517.1996 L513.0139,515.2759 L513.2441,513.0432 L514.2415,511.0454 L514.4488,508.8058 L515.3037,506.7644 L515.2807,506.7445 L517.334,504.9259 L518.8498,502.6413 L520.6828,500.6317 L522.5424,498.6452 L524.21,496.4922 L524.21,496.8622 L526.21,496.4887 L528.21,496.7475 L530.21,495.9834 L532.21,496.745 L534.21,496.4922" fill="none" style="stroke:#FF9900;stroke-width:1;"/><a href="/use-case/legal-entity-management/ownership-and-capital-structure/corporate-actions/" target="_top" title="/use-case/legal-entity-management/ownership-and-capital-structure/corporate-actions/" xlink:actuate="onRequest" xlink:href="/use-case/legal-entity-management/ownership-and-capital-structure/corporate-actions/" xlink:show="new" xlink:title="/use-case/legal-entity-management/ownership-and-capital-structure/corporate-actions/" xlink:type="simple"><text fill="#90EE90" font-family="'Roboto'" font-size="14" lengthAdjust="spacing" textLength="125.8223" x="541.21" y="527.6357">Corporate Actions</text></a><path d="M484.21,562.2344 L484.21,562.4212 L486.21,561.8661 L488.21,562.4062 L490.21,562.5896 L492.21,561.6002 L494.21,562.2344 L494.21,562.2344 L494.1903,562.206 L495.8833,560.8458 L497.6755,559.6289 L499.5365,558.5115 L501.1601,557.051 L503.1162,556.071 L503.3407,556.1719 L504.0795,553.2444 L505.4735,550.6113 L506.9476,548.0141 L507.9564,545.208 L509.21,542.5117 L509.2376,542.5242 L510.4158,539.794 L511.7198,537.1205 L512.9632,534.4197 L514.3224,531.771 L515.3037,528.9524 L515.4734,529.1976 L517.2568,527.968 L518.9306,526.5801 L520.7647,525.4238 L522.6063,524.2784 L524.21,522.7891 L524.21,522.148 L526.21,523.3922 L528.21,522.5255 L530.21,523.2636 L532.21,522.349 L534.21,522.7891" fill="none" style="stroke:#FF9900;stroke-width:1;"/><a href="/use-case/legal-entity-management/ownership-and-capital-structure/issued-capital/" target="_top" title="/use-case/legal-entity-management/ownership-and-capital-structure/issued-capital/" xlink:actuate="onRequest" xlink:href="/use-case/legal-entity-management/ownership-and-capital-structure/issued-capital/" xlink:show="new" xlink:title="/use-case/legal-entity-management/ownership-and-capital-structure/issued-capital/" xlink:type="simple"><text fill="#90EE90" font-family="'Roboto'" font-size="14" lengthAdjust="spacing" textLength="98.6289" x="541.21" y="553.9326">Issued Capital</text></a><path d="M484.21,562.2344 L484.21,562.4212 L486.21,561.8661 L488.21,562.4062 L490.21,562.5896 L492.21,561.6002 L494.21,562.2344 L494.21,562.2344 L494.1961,562.2027 L497.1339,560.7459 L500.1415,559.4486 L503.1978,558.2621 L506.0866,556.6936 L509.21,555.6602 L509.3087,555.8855 L512.0975,554.0887 L515.1747,552.95 L518.287,551.8915 L521.1947,550.3659 L524.21,549.0859 L524.21,549.1466 L526.21,549.0575 L528.21,549.2446 L530.21,549.2985 L532.21,549.6066 L534.21,549.0859" fill="none" style="stroke:#FF9900;stroke-width:1;"/><a href="/use-case/legal-entity-management/ownership-and-capital-structure/ownership/" target="_top" title="/use-case/legal-entity-management/ownership-and-capital-structure/ownership/" xlink:actuate="onRequest" xlink:href="/use-case/legal-entity-management/ownership-and-capital-structure/ownership/" xlink:show="new" xlink:title="/use-case/legal-entity-management/ownership-and-capital-structure/ownership/" xlink:type="simple"><text fill="#90EE90" font-family="'Roboto'" font-size="14" lengthAdjust="spacing" textLength="74.6553" x="541.21" y="580.2295">Ownership</text></a><path d="M484.21,562.2344 L484.21,562.4212 L486.21,561.8661 L488.21,562.4062 L490.21,562.5896 L492.21,561.6002 L494.21,562.2344 L494.21,562.2344 L494.1961,562.2027 L497.1339,563.3756 L500.1415,564.708 L503.1978,566.1512 L506.0866,567.2123 L509.21,568.8086 L509.3087,569.034 L512.0975,569.8669 L515.1747,571.3578 L518.287,572.929 L521.1947,574.0331 L524.21,575.3828 L524.21,575.4435 L526.21,575.3544 L528.21,575.5415 L530.21,575.5954 L532.21,575.9034 L534.21,575.3828" fill="none" style="stroke:#FF9900;stroke-width:1;"/><a href="/use-case/legal-entity-management/ownership-and-capital-structure/share-capital/" target="_top" title="/use-case/legal-entity-management/ownership-and-capital-structure/share-capital/" xlink:actuate="onRequest" xlink:href="/use-case/legal-entity-management/ownership-and-capital-structure/share-capital/" xlink:show="new" xlink:title="/use-case/legal-entity-management/ownership-and-capital-structure/share-capital/" xlink:type="simple"><text fill="#90EE90" font-family="'Roboto'" font-size="14" lengthAdjust="spacing" textLength="94.2471" x="541.21" y="606.5264">Share Capital</text></a><path d="M484.21,562.2344 L484.21,562.4212 L486.21,561.8661 L488.21,562.4062 L490.21,562.5896 L492.21,561.6002 L494.21,562.2344 L494.21,562.2344 L494.1903,562.206 L495.8833,563.3112 L497.6755,564.5596 L499.5365,565.9075 L501.1601,566.9124 L503.1162,568.3977 L503.3407,568.4986 L504.0795,570.9947 L505.4735,573.7854 L506.9476,576.612 L507.9564,579.2295 L509.21,581.957 L509.2376,581.9695 L510.4158,584.6631 L511.7198,587.4133 L512.9632,590.1362 L514.3224,592.9112 L515.3037,595.5164 L515.4734,595.7616 L517.2568,596.9973 L518.9306,598.0747 L520.7647,599.3838 L522.6063,600.7037 L524.21,601.6797 L524.21,601.0386 L526.21,602.2828 L528.21,601.4161 L530.21,602.1542 L532.21,601.2397 L534.21,601.6797" fill="none" style="stroke:#FF9900;stroke-width:1;"/><a href="/use-case/legal-entity-management/ownership-and-capital-structure/shares/" target="_top" title="/use-case/legal-entity-management/ownership-and-capital-structure/shares/" xlink:actuate="onRequest" xlink:href="/use-case/legal-entity-management/ownership-and-capital-structure/shares/" xlink:show="new" xlink:title="/use-case/legal-entity-management/ownership-and-capital-structure/shares/" xlink:type="simple"><text fill="#90EE90" font-family="'Roboto'" font-size="14" lengthAdjust="spacing" textLength="48.002" x="541.21" y="632.8232">Shares</text></a><path d="M484.21,562.2344 L484.21,562.4212 L486.21,561.8661 L488.21,562.4062 L490.21,562.5896 L492.21,561.6002 L494.21,562.2344 L494.21,562.2344 L494.1839,562.2117 L495.848,564.1646 L497.6437,566.2316 L499.5308,568.3779 L501.1028,570.2509 L503.1162,572.5066 L503.3515,572.5786 L503.4929,574.5304 L504.3212,576.6925 L505.2334,578.8802 L505.6579,580.9187 L506.3389,583.0356 L506.3684,583.0426 L506.8993,585.4463 L507.5645,587.8819 L508.1649,590.3021 L508.889,592.7517 L509.21,595.1055 L509.5001,595.1745 L510.0779,597.5893 L510.4685,599.9596 L511.1331,602.3951 L511.8105,604.8336 L512.0811,607.1753 L511.7746,607.0815 L513.0139,609.3694 L513.2441,611.3484 L514.2415,613.5622 L514.4488,615.5342 L515.3037,617.7043 L515.2807,617.6844 L517.334,619.9747 L518.8498,621.799 L520.6828,623.8983 L522.5424,626.0207 L524.21,627.9766 L524.21,628.3465 L526.21,627.9731 L528.21,628.2319 L530.21,627.4677 L532.21,628.2294 L534.21,627.9766" fill="none" style="stroke:#FF9900;stroke-width:1;"/><path d="M209.7646,338.7109 L209.7646,338.8978 L211.7646,338.3427 L213.7646,338.8827 L215.7646,339.0662 L217.7646,338.0768 L219.7646,338.7109 L219.7646,338.7109 L219.734,338.695 L220.5925,340.5446 L221.6055,342.4743 L222.726,344.4597 L223.4762,346.2531 L224.7451,348.3155 L224.9869,348.3609 L224.8844,350.4684 L225.4878,352.7086 L226.1774,354.965 L226.3659,357.1271 L226.8179,359.3388 L226.8479,359.3427 L227.1744,362.1965 L227.6378,365.0681 L228.0351,367.9311 L228.5584,370.8104 L228.6709,373.6365 L228.9677,373.6659 L229.3068,377.0497 L229.4544,380.4145 L229.8823,383.807 L230.3233,387.2009 L230.3481,390.5535 L230.0287,390.5274 L230.9578,394.3545 L230.835,398.0954 L231.5118,401.9019 L231.3652,405.6409 L231.8936,409.4352 L231.8632,409.433 L232.7966,417.6657 L233.0204,425.8486 L233.6629,434.0609 L234.3406,442.2757 L234.7646,450.4727 L234.9492,450.4856 L235.3371,458.68 L236.0404,466.8966 L236.2335,475.0774 L237.1876,483.3115 L237.6357,491.5102 L237.8786,491.53 L238.1417,495.3026 L238.5255,499.085 L238.349,502.8216 L238.5832,506.5918 L239.1812,510.3918 L238.9063,510.3645 L239.4906,513.7726 L239.7651,517.15 L240.4889,520.5719 L240.4457,523.9178 L240.8584,527.3088 L240.7072,527.2892 L241.3296,530.1814 L241.3057,532.9898 L241.7414,535.8578 L242.6269,538.784 L242.7114,541.6065 L242.9017,541.6423 L243.4468,543.8715 L243.4,545.9894 L244.0945,548.2467 L244.6275,550.4737 L244.7842,552.6299 L244.5978,552.5332 L245.7425,554.5311 L246.8261,556.4974 L248.0296,558.5259 L248.7669,560.3126 L249.7646,562.2344 L249.7646,562.6455 L251.7646,561.7421 L253.7646,561.6324 L255.7646,562.682 L257.7646,561.5971 L259.7646,562.2344" fill="none" style="stroke:#FF9900;stroke-width:1;"/><a href="/use-case/legal-entity-management/supporting-information/" target="_top" title="/use-case/legal-entity-management/supporting-information/" xlink:actuate="onRequest" xlink:href="/use-case/legal-entity-management/supporting-information/" xlink:show="new" xlink:title="/use-case/legal-entity-management/supporting-information/" xlink:type="simple"><text fill="#90EE90" font-family="'Roboto'" font-size="14" lengthAdjust="spacing" textLength="162.7295" x="266.7646" y="659.1201">Supporting Information</text></a><a href="/use-case/legal-entity-management/supporting-information/currencies/" target="_top" title="/use-case/legal-entity-management/supporting-information/currencies/" xlink:actuate="onRequest" xlink:href="/use-case/legal-entity-management/supporting-information/currencies/" xlink:show="new" xlink:title="/use-case/legal-entity-management/supporting-information/currencies/" xlink:type="simple"><text fill="#90EE90" font-family="'Roboto'" font-size="14" lengthAdjust="spacing" textLength="75.1406" x="490.4941" y="659.1201">Currencies</text></a><path d="M433.4941,654.2734 L433.4941,654.4603 L435.4941,653.9052 L437.4941,654.4452 L439.4941,654.6287 L441.4941,653.6393 L443.4941,654.2734 L443.4941,654.2734 L443.4941,654.2389 L449.4941,654.0839 L455.4941,654.103 L461.4941,654.2431 L467.4941,653.9662 L473.4941,654.2734 L473.4941,654.7656 L475.4941,653.7132 L477.4941,654.0976 L479.4941,654.6574 L481.4941,654.1972 L483.4941,654.2734" fill="none" style="stroke:#FF9900;stroke-width:1;"/><path d="M209.7646,338.7109 L209.7646,338.8978 L211.7646,338.3427 L213.7646,338.8827 L215.7646,339.0662 L217.7646,338.0768 L219.7646,338.7109 L219.7646,338.7109 L219.7322,338.699 L220.5828,341.3574 L221.5968,344.0759 L222.7245,346.8361 L223.4606,349.4525 L224.7451,352.2703 L224.989,352.3027 L224.882,355.3458 L225.4871,358.4836 L226.1791,361.6331 L226.3655,364.7152 L226.8179,367.8327 L226.8481,367.8354 L227.1743,371.8684 L227.6381,375.9139 L228.0355,379.9533 L228.5595,384.0044 L228.6709,388.0176 L228.9684,388.0385 L229.3075,392.8153 L229.4547,397.5787 L229.8828,402.3618 L230.324,407.1458 L230.3481,411.9005 L230.0282,411.8819 L230.9583,417.2492 L230.8348,422.5554 L231.5122,427.9081 L231.3648,433.2129 L231.8936,438.5569 L231.8023,438.5524 L233.3597,448.2617 L232.7857,457.8654 L233.4693,467.5315 L234.2586,477.2028 L234.8404,486.8638 L234.7646,496.4922 L234.7594,496.4919 L235.6256,506.167 L234.9594,515.7662 L236.5789,525.4786 L237.4087,535.1519 L237.7492,544.8009 L237.6357,554.4275 L237.9077,554.4433 L237.7305,559.7463 L237.9645,565.0733 L238.2873,570.4053 L238.8459,575.7511 L239.1812,581.0839 L239.094,581.0778 L239.8187,585.8817 L239.7746,590.6316 L240.0354,595.403 L240.6242,600.1973 L240.8584,604.9668 L240.5633,604.9397 L240.9992,608.9827 L241.8868,613.0671 L242.163,617.0954 L242.6659,621.1446 L242.7114,625.1517 L242.5697,625.1328 L243.2666,628.2829 L243.8006,631.4113 L243.747,634.4614 L244.3274,637.596 L244.7842,640.7141 L244.8367,640.7334 L246.0522,643.5259 L246.7746,646.1372 L247.9654,648.9206 L248.5375,651.4767 L249.7646,654.2734 L249.7646,653.6714 L251.7646,654.7211 L253.7646,653.6362 L255.7646,654.7258 L257.7646,654.4571 L259.7646,654.2734" fill="none" style="stroke:#FF9900;stroke-width:1;"/><!--SRC=[xLdRRjiu47tNLt0RODkYwoRkfaLR54KTnqxJEXVOIO55KGIqDBQ9oAHBKiccY_tt7LAIAJloHRRL2zPvYJKpF7CXnI5rtYbDfHuo7WpfY8JGfs45k6RwhZAadFPXY4-Uzri0FSQ171nTdTIEJw_gPwspDh5_E_jxpwlTvrcJJgD-TdfOQ_-LsEMOdDVg7sj7ZJ7GFPEpzc6ZdVL3Tdgz5xszlR59y-pqOiB0cfW_prFNZ8-ef4FIfVvrNug81tKH2faQQacvGWkJdJD-VpS2sMByEcjBTaBM7-Y-1E2Uzv0mxeTH04GFWFI1WwGX6KCeqiE1NQ47Vn0xZ50Ua83AQnof1H4t86ybqq1kcHx46Em6E56WDUDzDLs1Y_V7zO-dZKw7L74Qn4WpmSa0GGsAne4z6Yh8v71EWm21o7v6rexpbnWiUPcHTmOq4BV6UXh5LYB4IbpomFw0n2HZSmWz6eMQ_ECHqXHSdz8Xa0TjWTcB1uaiBgIRgaJSOT-0LFUzVxDuDId5hKMRCMeMcBuBiLuY32RnHZZrk8B7yUKCFvXQ7HFhs-Y5nFGJNMP9eYFdXukWg9E9vR-i7ryCHuBZYhNELWvzPfnn7QDX-6ooZW7Lj4iLbE9smfCVYYZu3cv4689ltYHLaZFdguu6KeIb-pami5JUbUweORj3wMuOro1xr8VIFNNWQmJSXtDiXCnd8yfr37SnOFur1wLmwtNcAZ6tSMN7B0Zn7dnkj1ahjxLn8OSqlA_DUOTRh0VOm62EYx79We3jTfpZmihdu5lzZF2ipjNrJoFojP0BOx56StmQ_QmN_o6fxzlD3HiTFkmi_Clk5H8t2ihx8RnvWnrH2VxshPtv3YvF41hRv9pEjCcEawfSzQPF29ERN2Pm-1k3vJIyAYk3gGDVIMceEwLX-2lNlwmCIgn_sln_jVAxk7_bwcSMKJTfy6dyKqVtwOpi2NjlkTFdohLOb6RSlWAg1X0ibtjkwZwwfzYnP97SyNQnUBcLblco4upNRnqV9Uu7czw9ZSx5aTvnZRIcjMJTI4E-EXjbUdkUEczJfRwpzuVa9FdQe4RWinxpiGXnRywvKgqIryAqgJlPx3IRhrwXVagPFVfvJrhciqXwy3rndqMUFBaYdp_lHWegFcurkpC-d-oQYrl8A1uQAtXnhmJ2ZuoScXl8BjuGKYtvdHncTL- -e8jD-73AhBkDmQTFQdSSlxBWos8ZaAyjS2XyYrbXl6TElMc9h0NMfvNeoR7J5yjZWIyQ11Bd7J2NMlfpemuI0pNEgbYfv4X8t38gVVCbYQTJcaZ9qLXQBEOSr82P7LX8DM0ZCx7PnxN1XUnJphxPYk0efMNawqXYBcSJ6joW4ytQBXNhSue9C3Er7VTGeFezPg0OwYPMPpCLhxeeyt5nQmQpJ6hs__fuG2KtNnWhe3H3cQb38v6HHYfRtq_Fd5FivX2YXsRcQNrit8AwB3IcsBY72DzA1UJ22DRtWCl656INjECV1PO72umC6rhyqfiTG4AVuU9E5ihnX07kPksCkaZeYpnr8yLCzvhoVv28I_DhpnDZFMvC4yyRzII6Gv1szc8vIDlQ4c6I8SXD-ep7cQM2wyuU2PeYNNFBUGXP3_mxFuoRg3dxHNOD9r9S4HqhAn9rBcR0b19X5C_2eNjO6pXaNoCM9DFRSWy5YY1kyIHlseZ5zUc8wQaMa1fWFUgnUhK-iCYJ7t-RtKq_qcuME-r1DFxId6tJjLYqINyunn6C5RZNsEUqVflqDDPdPcgJ-6f09RX4EkQnZ3oi7vKuAF8MgsY4ysYwm-Gve3EMhteGc87iHr82jYeJRNty6u7V0TwaujkKvxrRZiejaHlzoLb8TqTSceAS798BKuXyT6DdNslphwzpwSPDmCvd5-VZvCUo4fzOtD6I3EAwm0iumrNWbsC9rqEUomkk1ps72LmFU3xtjnvsIMoV2se6p-VYMu7YS-zK7h_de6THUoww3AddGEynUWvnYioR6hC4avTnFStXPRnCqdUP5t159cx-lbrqHTrV8EipRJygmeKao0yltSyLOG7-wmV5zPCMhWJgoaMqGdPpSbX0KrNBvwNAocpcxFp_UASjkRGbbxRaqfPSsf9BMt9fIovjoQKjkRGbbxRaqfPSsf9Bov1Bvo7b-lAaHV38eqn_gJvzjlVi-TDgjGkQLlSUNV9hZaMnD0B3tGOxFZps7XsTjuWIaSJxHs0sEtDlm-6FlG_qXf9sn8tTQt8s0lxXy6CgmElG3PE2sulGXqydpk35VkM0QT81YO6GJoTUIlyqk2yCu_IQN5uqAo-z5jxH8qpzDG7krV66f-KTwZh_0G00]--></g></svg>