<svg xmlns="http://www.w3.org/2000/svg" xmlns:xlink="http://www.w3.org/1999/xlink" contentStyleType="text/css" data-diagram-type="MINDMAP" height="650px" preserveAspectRatio="none" style="width:653px;height:650px;" version="1.1" viewBox="0 0 653 650" width="653px" zoomAndPan="magnify"><defs/><g><polygon fill="#4051B5" points="14,306.5938,14,306.8039,23.9402,306.1794,33.8805,306.787,43.8207,306.9934,53.761,305.8804,63.7012,306.516,73.6414,306.1673,83.5817,306.2103,93.5219,306.5256,103.4622,305.9024,113.4024,307.1474,123.3426,305.9635,133.2829,306.396,143.2231,307.0257,153.1634,306.508,163.1036,306.662,173.0438,306.5618,182.9841,306.7723,192.9243,306.5938,192.9548,306.6674,193.5647,307.0084,194.1413,307.269,194.708,307.5059,195.2195,307.6094,195.7527,307.7653,195.8955,307.8245,196.2033,308.4206,195.9993,308.8047,196.6646,309.5489,196.5987,309.9902,196.9243,310.5938,197.1023,310.5938,196.7593,316.0203,196.9015,321.4469,197.1715,326.8734,196.9081,332.3,196.9243,337.7266,196.9567,337.74,196.7943,338.3354,196.5839,338.911,196.2202,339.4231,196.0755,340.0259,195.7527,340.555,195.6797,340.3787,195.2233,340.8769,194.6913,341.1924,194.1124,341.3948,193.5682,341.681,192.9243,341.7266,192.9243,341.2435,182.9841,341.0744,173.0438,341.1052,163.1036,341.6677,153.1634,341.53,143.2231,342.408,133.2829,341.5519,123.3426,341.3835,113.4024,341.9548,103.4622,341.0597,93.5219,341.2074,83.5817,342.3755,73.6414,342.1622,63.7012,342.4611,53.761,341.4048,43.8207,342.0458,33.8805,342.317,23.9402,341.2542,14,341.7266,13.9878,341.697,13.4504,341.531,12.9518,341.4586,12.3024,341.0223,11.7963,340.9318,11.1716,340.555,11.001,340.4843,10.7287,339.9029,10.858,339.4879,10.2478,338.7665,10.3911,338.3572,10,337.7266,10.0689,337.7266,9.9107,332.3,9.8821,326.8734,10.1529,321.4469,9.9002,316.0203,10,310.5938,10.1823,310.6692,10.0641,309.9576,10.6588,309.5411,10.8521,308.9585,11.0127,308.3623,11.1716,307.7653,11.1776,307.7799,11.8299,307.7548,12.3812,307.4857,12.8902,307.1145,13.4685,306.9107,14,306.5938" style="stroke:#FF6F00;stroke-width:1.5;"/><text fill="#FFFFFF" font-family="'Roboto'" font-size="13" lengthAdjust="spacing" textLength="166.9243" x="20" y="328.6606">Legal Entity Management</text><a href="/use-case/legal-entity-management/compliance-and-documentation/" target="_top" title="/use-case/legal-entity-management/compliance-and-documentation/" xlink:actuate="onRequest" xlink:href="/use-case/legal-entity-management/compliance-and-documentation/" xlink:show="new" xlink:title="/use-case/legal-entity-management/compliance-and-documentation/" xlink:type="simple"><text fill="#4051B5" font-family="'Roboto'" font-size="13" lengthAdjust="spacing" textLength="195.1396" x="253.9243" y="39.6333">Compliance &amp; Documentation</text></a><a href="/use-case/legal-entity-management/compliance-and-documentation/compliance/" target="_top" title="/use-case/legal-entity-management/compliance-and-documentation/compliance/" xlink:actuate="onRequest" xlink:href="/use-case/legal-entity-management/compliance-and-documentation/compliance/" xlink:show="new" xlink:title="/use-case/legal-entity-management/compliance-and-documentation/compliance/" xlink:type="simple"><text fill="#4051B5" font-family="'Roboto'" font-size="13" lengthAdjust="spacing" textLength="76.521" x="510.064" y="27.0669">Compliance</text></a><path d="M453.064,35.1328 L453.064,35.3196 L455.064,34.7645 L457.064,35.3046 L459.064,35.4881 L461.064,34.4987 L463.064,35.1328 L463.064,35.1328 L463.0506,35.101 L465.9907,33.7013 L468.9981,32.4623 L472.0523,31.335 L474.9452,29.8228 L478.064,28.8496 L478.159,29.0766 L480.9557,27.3346 L484.03,26.2553 L487.1381,25.2568 L490.0492,23.7879 L493.064,22.5664 L493.064,22.6271 L495.064,22.538 L497.064,22.7251 L499.064,22.779 L501.064,23.087 L503.064,22.5664" fill="none" style="stroke:#FF6F00;stroke-width:1;"/><a href="/use-case/legal-entity-management/compliance-and-documentation/documents/" target="_top" title="/use-case/legal-entity-management/compliance-and-documentation/documents/" xlink:actuate="onRequest" xlink:href="/use-case/legal-entity-management/compliance-and-documentation/documents/" xlink:show="new" xlink:title="/use-case/legal-entity-management/compliance-and-documentation/documents/" xlink:type="simple"><text fill="#4051B5" font-family="'Roboto'" font-size="13" lengthAdjust="spacing" textLength="74.1216" x="510.064" y="52.1997">Documents</text></a><path d="M453.064,35.1328 L453.064,35.3196 L455.064,34.7645 L457.064,35.3046 L459.064,35.4881 L461.064,34.4987 L463.064,35.1328 L463.064,35.1328 L463.0506,35.101 L465.9907,36.2146 L468.9981,37.4889 L472.0523,38.8748 L474.9452,39.876 L478.064,41.416 L478.159,41.643 L480.9557,42.4143 L484.03,43.8482 L487.1381,45.363 L490.0492,46.4074 L493.064,47.6992 L493.064,47.7599 L495.064,47.6708 L497.064,47.8579 L499.064,47.9118 L501.064,48.2198 L503.064,47.6992" fill="none" style="stroke:#FF6F00;stroke-width:1;"/><path d="M196.9243,324.1602 L196.9243,324.347 L198.9243,323.7919 L200.9243,324.332 L202.9243,324.5154 L204.9243,323.526 L206.9243,324.1602 L206.9243,324.1602 L206.8923,324.1473 L207.7445,321.6058 L208.7583,319.1291 L209.8845,316.6974 L210.6235,314.1105 L211.9048,311.741 L212.1483,311.7764 L212.0421,308.8499 L212.6469,306.0268 L213.3384,303.2164 L213.5253,300.3325 L213.9775,297.4872 L214.0077,297.4902 L214.334,293.7883 L214.7977,290.1001 L215.1951,286.4053 L215.719,282.7231 L215.8306,278.9996 L216.1279,279.0224 L216.467,274.6478 L216.6143,270.2584 L217.0423,265.8906 L217.4836,261.5238 L217.5078,257.125 L217.1879,257.1048 L218.1179,252.2611 L217.9945,247.3507 L218.6718,242.491 L218.5246,237.5792 L219.0532,232.7101 L218.962,232.7052 L220.6148,222.1508 L220.1368,211.4811 L220.9161,200.8795 L221.8009,190.2836 L221.9243,179.6465 L222.4785,179.6765 L222.4933,169.0335 L223.4551,158.4417 L222.8849,147.7671 L224.5998,137.2161 L224.7954,126.5829 L225.0386,126.5983 L225.3017,121.7124 L225.6855,116.8341 L225.5084,111.9204 L225.7425,107.0326 L226.3408,102.168 L226.0655,102.1468 L226.6502,97.791 L226.9246,93.4114 L227.6491,89.0663 L227.6052,84.6623 L228.0181,80.2933 L227.8664,80.2781 L228.4896,76.6059 L228.4644,72.8687 L228.9003,69.1778 L229.7875,65.532 L229.8711,61.8057 L230.0627,61.8336 L230.6087,59.002 L230.5587,56.0836 L231.2551,53.2739 L231.789,50.4405 L231.9438,47.552 L231.749,47.4738 L232.9004,45.0523 L233.988,42.6051 L235.201,40.2083 L235.9265,37.6159 L236.9243,35.1328 L236.9243,35.544 L238.9243,34.6406 L240.9243,34.5308 L242.9243,35.5805 L244.9243,34.4955 L246.9243,35.1328" fill="none" style="stroke:#FF6F00;stroke-width:1;"/><a href="/use-case/legal-entity-management/contact-and-location-information/" target="_top" title="/use-case/legal-entity-management/contact-and-location-information/" xlink:actuate="onRequest" xlink:href="/use-case/legal-entity-management/contact-and-location-information/" xlink:show="new" xlink:title="/use-case/legal-entity-management/contact-and-location-information/" xlink:type="simple"><text fill="#4051B5" font-family="'Roboto'" font-size="13" lengthAdjust="spacing" textLength="203.8042" x="253.9243" y="89.8989">Contact &amp; Location Information</text></a><a href="/use-case/legal-entity-management/contact-and-location-information/addresses/" target="_top" title="/use-case/legal-entity-management/contact-and-location-information/addresses/" xlink:actuate="onRequest" xlink:href="/use-case/legal-entity-management/contact-and-location-information/addresses/" xlink:show="new" xlink:title="/use-case/legal-entity-management/contact-and-location-information/addresses/" xlink:type="simple"><text fill="#4051B5" font-family="'Roboto'" font-size="13" lengthAdjust="spacing" textLength="67.0566" x="518.7285" y="77.3325">Addresses</text></a><path d="M461.7285,85.3984 L461.7285,85.5853 L463.7285,85.0302 L465.7285,85.5702 L467.7285,85.7537 L469.7285,84.7643 L471.7285,85.3984 L471.7285,85.3984 L471.7152,85.3666 L474.6553,83.967 L477.6627,82.7279 L480.7168,81.6006 L483.6098,80.0885 L486.7285,79.1152 L486.8236,79.3422 L489.6203,77.6002 L492.6946,76.5209 L495.8027,75.5224 L498.7138,74.0535 L501.7285,72.832 L501.7285,72.8927 L503.7285,72.8036 L505.7285,72.9907 L507.7285,73.0446 L509.7285,73.3526 L511.7285,72.832" fill="none" style="stroke:#FF6F00;stroke-width:1;"/><a href="/use-case/legal-entity-management/contact-and-location-information/contacts/" target="_top" title="/use-case/legal-entity-management/contact-and-location-information/contacts/" xlink:actuate="onRequest" xlink:href="/use-case/legal-entity-management/contact-and-location-information/contacts/" xlink:show="new" xlink:title="/use-case/legal-entity-management/contact-and-location-information/contacts/" xlink:type="simple"><text fill="#4051B5" font-family="'Roboto'" font-size="13" lengthAdjust="spacing" textLength="57.3511" x="518.7285" y="102.4653">Contacts</text></a><path d="M461.7285,85.3984 L461.7285,85.5853 L463.7285,85.0302 L465.7285,85.5702 L467.7285,85.7537 L469.7285,84.7643 L471.7285,85.3984 L471.7285,85.3984 L471.7152,85.3666 L474.6553,86.4802 L477.6627,87.7545 L480.7168,89.1404 L483.6098,90.1416 L486.7285,91.6816 L486.8236,91.9086 L489.6203,92.6799 L492.6946,94.1139 L495.8027,95.6286 L498.7138,96.673 L501.7285,97.9648 L501.7285,98.0255 L503.7285,97.9364 L505.7285,98.1235 L507.7285,98.1774 L509.7285,98.4855 L511.7285,97.9648" fill="none" style="stroke:#FF6F00;stroke-width:1;"/><path d="M196.9243,324.1602 L196.9243,324.347 L198.9243,323.7919 L200.9243,324.332 L202.9243,324.5154 L204.9243,323.526 L206.9243,324.1602 L206.9243,324.1602 L206.8932,324.1451 L207.7499,322.0255 L208.7632,319.982 L209.8853,317.9914 L210.6323,315.8185 L211.9048,313.9009 L212.1471,313.9435 L212.0435,311.4973 L212.6473,309.1757 L213.3375,306.8692 L213.5254,304.4744 L213.9775,302.126 L214.0076,302.1296 L214.334,299.0698 L214.7975,296.0266 L215.1949,292.9754 L215.7184,289.9395 L215.8306,286.8536 L216.1275,286.8812 L216.4666,283.2675 L216.6141,279.636 L217.0421,276.0305 L217.4831,272.4262 L217.5078,268.7833 L217.1882,268.7588 L218.1176,264.7726 L217.9946,260.7057 L218.6716,256.7001 L218.5248,252.6314 L219.0532,248.6145 L219.0228,248.6125 L219.9563,239.869 L220.18,231.079 L220.8226,222.3164 L221.5003,213.5562 L221.9243,204.7793 L222.1089,204.7914 L222.4968,196.0122 L223.2001,187.2536 L223.3931,178.4616 L224.3473,169.7194 L224.7954,160.9441 L225.0383,160.9628 L225.3015,156.9255 L225.6852,152.8974 L225.5086,148.8264 L225.7427,144.7869 L226.3408,140.7753 L226.0658,140.7498 L226.6502,137.1588 L226.9247,133.5391 L227.6487,129.9611 L227.6053,126.3119 L228.0181,122.705 L227.8667,122.6866 L228.4894,119.6627 L228.4651,116.5603 L228.9008,113.5138 L229.7868,110.5218 L229.8711,107.4326 L230.0618,107.4662 L230.6071,105.1342 L230.5593,102.6979 L231.2545,100.3923 L231.7877,98.0582 L231.9438,95.6577 L231.755,95.566 L232.9016,93.5873 L233.9864,91.5785 L235.1927,89.6287 L235.9265,87.4495 L236.9243,85.3984 L236.9243,85.8096 L238.9243,84.9062 L240.9243,84.7964 L242.9243,85.8461 L244.9243,84.7612 L246.9243,85.3984" fill="none" style="stroke:#FF6F00;stroke-width:1;"/><a href="/use-case/legal-entity-management/corporate-governance/" target="_top" title="/use-case/legal-entity-management/corporate-governance/" xlink:actuate="onRequest" xlink:href="/use-case/legal-entity-management/corporate-governance/" xlink:show="new" xlink:title="/use-case/legal-entity-management/corporate-governance/" xlink:type="simple"><text fill="#4051B5" font-family="'Roboto'" font-size="13" lengthAdjust="spacing" textLength="147.7734" x="253.9243" y="152.731">Corporate Governance</text></a><a href="/use-case/legal-entity-management/corporate-governance/directorships/" target="_top" title="/use-case/legal-entity-management/corporate-governance/directorships/" xlink:actuate="onRequest" xlink:href="/use-case/legal-entity-management/corporate-governance/directorships/" xlink:show="new" xlink:title="/use-case/legal-entity-management/corporate-governance/directorships/" xlink:type="simple"><text fill="#4051B5" font-family="'Roboto'" font-size="13" lengthAdjust="spacing" textLength="86.1567" x="462.6978" y="127.5981">Directorships</text></a><path d="M405.6978,148.2305 L405.6978,148.4173 L407.6978,147.8622 L409.6978,148.4023 L411.6978,148.5857 L413.6978,147.5963 L415.6978,148.2305 L415.6978,148.2305 L415.6756,148.204 L418.576,145.5719 L421.5883,143.0733 L424.6783,140.6674 L427.5004,137.9418 L430.6978,135.6641 L430.8558,135.8527 L433.5179,132.9361 L436.6413,130.5701 L439.821,128.2714 L442.6733,125.5817 L445.6978,123.0977 L445.6978,123.1583 L447.6978,123.0693 L449.6978,123.2563 L451.6978,123.3102 L453.6978,123.6183 L455.6978,123.0977" fill="none" style="stroke:#FF6F00;stroke-width:1;"/><a href="/use-case/legal-entity-management/corporate-governance/organizational-structure/" target="_top" title="/use-case/legal-entity-management/corporate-governance/organizational-structure/" xlink:actuate="onRequest" xlink:href="/use-case/legal-entity-management/corporate-governance/organizational-structure/" xlink:show="new" xlink:title="/use-case/legal-entity-management/corporate-governance/organizational-structure/" xlink:type="simple"><text fill="#4051B5" font-family="'Roboto'" font-size="13" lengthAdjust="spacing" textLength="159.8086" x="462.6978" y="152.731">Organizational Structure</text></a><path d="M405.6978,148.2305 L405.6978,148.4173 L407.6978,147.8622 L409.6978,148.4023 L411.6978,148.5857 L413.6978,147.5963 L415.6978,148.2305 L415.6978,148.2305 L415.6978,148.1959 L421.6978,148.0409 L427.6978,148.06 L433.6978,148.2002 L439.6978,147.9232 L445.6978,148.2305 L445.6978,148.7226 L447.6978,147.6702 L449.6978,148.0547 L451.6978,148.6144 L453.6978,148.1542 L455.6978,148.2305" fill="none" style="stroke:#FF6F00;stroke-width:1;"/><a href="/use-case/legal-entity-management/corporate-governance/signatories/" target="_top" title="/use-case/legal-entity-management/corporate-governance/signatories/" xlink:actuate="onRequest" xlink:href="/use-case/legal-entity-management/corporate-governance/signatories/" xlink:show="new" xlink:title="/use-case/legal-entity-management/corporate-governance/signatories/" xlink:type="simple"><text fill="#4051B5" font-family="'Roboto'" font-size="13" lengthAdjust="spacing" textLength="73.0996" x="462.6978" y="177.8638">Signatories</text></a><path d="M405.6978,148.2305 L405.6978,148.4173 L407.6978,147.8622 L409.6978,148.4023 L411.6978,148.5857 L413.6978,147.5963 L415.6978,148.2305 L415.6978,148.2305 L415.6756,148.204 L418.576,150.5984 L421.5883,153.1264 L424.6783,155.7471 L427.5004,158.0481 L430.6978,160.7969 L430.8558,160.9855 L433.5179,163.0954 L436.6413,165.7561 L439.821,168.4839 L442.6733,170.8208 L445.6978,173.3633 L445.6978,173.4239 L447.6978,173.3349 L449.6978,173.522 L451.6978,173.5758 L453.6978,173.8839 L455.6978,173.3633" fill="none" style="stroke:#FF6F00;stroke-width:1;"/><path d="M196.9243,324.1602 L196.9243,324.347 L198.9243,323.7919 L200.9243,324.332 L202.9243,324.5154 L204.9243,323.526 L206.9243,324.1602 L206.9243,324.1602 L206.8955,324.1412 L207.7621,322.544 L208.7742,321.0426 L209.8873,319.6078 L210.6521,317.9435 L211.9048,316.6007 L212.1441,316.6579 L212.0469,314.8003 L212.6484,313.1098 L213.3352,311.4396 L213.5259,309.6508 L213.9775,307.9245 L214.0075,307.9294 L214.3341,305.6715 L214.797,303.436 L215.1942,301.1897 L215.7168,298.9641 L215.8306,296.6711 L216.1265,296.7084 L216.4655,294.0459 L216.6137,291.3593 L217.0413,288.7079 L217.482,286.0582 L217.5078,283.3562 L217.189,283.323 L218.1168,280.4151 L217.9949,277.398 L218.671,274.4639 L218.5253,271.4444 L219.0532,268.4949 L219.0229,268.4922 L219.9557,262.0642 L220.1801,255.5731 L220.8225,249.1193 L221.5,242.6686 L221.9243,236.1953 L222.1086,236.2117 L222.4968,229.7352 L223.1999,223.2868 L223.3936,216.793 L224.3471,210.3668 L224.7954,203.8957 L225.0377,203.9209 L225.301,200.9439 L225.6846,197.9794 L225.5091,194.9568 L225.7434,191.9767 L226.3408,189.0345 L226.0668,189 L226.6503,186.3682 L226.9251,183.6976 L227.6476,181.0833 L227.6056,178.3728 L228.0181,175.7195 L227.8676,175.6947 L228.4888,173.4853 L228.4668,171.17 L228.9022,168.93 L229.7851,166.7637 L229.8711,164.4662 L230.0594,164.5112 L230.6031,162.8068 L230.5611,160.9624 L231.2527,159.2934 L231.7845,157.5862 L231.9438,155.7899 L231.7685,155.6744 L232.9044,154.2546 L233.9828,152.797 L235.174,151.4136 L235.9267,149.7413 L236.9243,148.2305 L236.9243,148.6416 L238.9243,147.7382 L240.9243,147.6285 L242.9243,148.6781 L244.9243,147.5932 L246.9243,148.2305" fill="none" style="stroke:#FF6F00;stroke-width:1;"/><a href="/use-case/legal-entity-management/financial-information/" target="_top" title="/use-case/legal-entity-management/financial-information/" xlink:actuate="onRequest" xlink:href="/use-case/legal-entity-management/financial-information/" xlink:show="new" xlink:title="/use-case/legal-entity-management/financial-information/" xlink:type="simple"><text fill="#4051B5" font-family="'Roboto'" font-size="13" lengthAdjust="spacing" textLength="137.4839" x="253.9243" y="253.2622">Financial Information</text></a><a href="/use-case/legal-entity-management/financial-information/assets/" target="_top" title="/use-case/legal-entity-management/financial-information/assets/" xlink:actuate="onRequest" xlink:href="/use-case/legal-entity-management/financial-information/assets/" xlink:show="new" xlink:title="/use-case/legal-entity-management/financial-information/assets/" xlink:type="simple"><text fill="#4051B5" font-family="'Roboto'" font-size="13" lengthAdjust="spacing" textLength="42.3071" x="452.4082" y="202.9966">Assets</text></a><path d="M395.4082,248.7617 L395.4082,248.9485 L397.4082,248.3934 L399.4082,248.9335 L401.4082,249.117 L403.4082,248.1276 L405.4082,248.7617 L405.4082,248.7617 L405.3854,248.7358 L407.0641,247.0487 L408.858,245.4923 L410.7319,244.0266 L412.33,242.2481 L414.3145,240.9077 L414.5465,240.9896 L415.269,237.3588 L416.6691,233.967 L418.1518,230.6043 L419.1535,227.072 L420.4082,223.6289 L420.4368,223.639 L421.6136,220.1684 L422.9205,216.7438 L424.1647,213.297 L425.5287,209.8924 L426.502,206.3501 L426.6992,206.5738 L428.4829,205.0057 L430.1393,203.2934 L431.982,201.7922 L433.8334,200.301 L435.4082,198.4961 L435.4082,197.855 L437.4082,199.0992 L439.4082,198.2325 L441.4082,198.9706 L443.4082,198.0561 L445.4082,198.4961" fill="none" style="stroke:#FF6F00;stroke-width:1;"/><a href="/use-case/legal-entity-management/financial-information/earnings-estimates/" target="_top" title="/use-case/legal-entity-management/financial-information/earnings-estimates/" xlink:actuate="onRequest" xlink:href="/use-case/legal-entity-management/financial-information/earnings-estimates/" xlink:show="new" xlink:title="/use-case/legal-entity-management/financial-information/earnings-estimates/" xlink:type="simple"><text fill="#4051B5" font-family="'Roboto'" font-size="13" lengthAdjust="spacing" textLength="124.9663" x="452.4082" y="228.1294">Earnings Estimates</text></a><path d="M395.4082,248.7617 L395.4082,248.9485 L397.4082,248.3934 L399.4082,248.9335 L401.4082,249.117 L403.4082,248.1276 L405.4082,248.7617 L405.4082,248.7617 L405.386,248.7352 L408.2865,246.1031 L411.2987,243.6045 L414.3888,241.1987 L417.2109,238.4731 L420.4082,236.1953 L420.5662,236.3839 L423.2283,233.4673 L426.3518,231.1014 L429.5315,228.8026 L432.3837,226.113 L435.4082,223.6289 L435.4082,223.6896 L437.4082,223.6005 L439.4082,223.7876 L441.4082,223.8415 L443.4082,224.1495 L445.4082,223.6289" fill="none" style="stroke:#FF6F00;stroke-width:1;"/><a href="/use-case/legal-entity-management/financial-information/fundamentals/" target="_top" title="/use-case/legal-entity-management/financial-information/fundamentals/" xlink:actuate="onRequest" xlink:href="/use-case/legal-entity-management/financial-information/fundamentals/" xlink:show="new" xlink:title="/use-case/legal-entity-management/financial-information/fundamentals/" xlink:type="simple"><text fill="#4051B5" font-family="'Roboto'" font-size="13" lengthAdjust="spacing" textLength="92.5234" x="452.4082" y="253.2622">Fundamentals</text></a><path d="M395.4082,248.7617 L395.4082,248.9485 L397.4082,248.3934 L399.4082,248.9335 L401.4082,249.117 L403.4082,248.1276 L405.4082,248.7617 L405.4082,248.7617 L405.4082,248.7272 L411.4082,248.5722 L417.4082,248.5913 L423.4082,248.7314 L429.4082,248.4544 L435.4082,248.7617 L435.4082,249.2538 L437.4082,248.2015 L439.4082,248.5859 L441.4082,249.1457 L443.4082,248.6855 L445.4082,248.7617" fill="none" style="stroke:#FF6F00;stroke-width:1;"/><a href="/use-case/legal-entity-management/financial-information/liability-terms/" target="_top" title="/use-case/legal-entity-management/financial-information/liability-terms/" xlink:actuate="onRequest" xlink:href="/use-case/legal-entity-management/financial-information/liability-terms/" xlink:show="new" xlink:title="/use-case/legal-entity-management/financial-information/liability-terms/" xlink:type="simple"><text fill="#4051B5" font-family="'Roboto'" font-size="13" lengthAdjust="spacing" textLength="95.5513" x="452.4082" y="278.395">Liability Terms</text></a><path d="M395.4082,248.7617 L395.4082,248.9485 L397.4082,248.3934 L399.4082,248.9335 L401.4082,249.117 L403.4082,248.1276 L405.4082,248.7617 L405.4082,248.7617 L405.386,248.7352 L408.2865,251.1297 L411.2987,253.6576 L414.3888,256.2783 L417.2109,258.5793 L420.4082,261.3281 L420.5662,261.5167 L423.2283,263.6267 L426.3518,266.2873 L429.5315,269.0151 L432.3837,271.352 L435.4082,273.8945 L435.4082,273.9552 L437.4082,273.8661 L439.4082,274.0532 L441.4082,274.1071 L443.4082,274.4151 L445.4082,273.8945" fill="none" style="stroke:#FF6F00;stroke-width:1;"/><a href="/use-case/legal-entity-management/financial-information/ratings/" target="_top" title="/use-case/legal-entity-management/financial-information/ratings/" xlink:actuate="onRequest" xlink:href="/use-case/legal-entity-management/financial-information/ratings/" xlink:show="new" xlink:title="/use-case/legal-entity-management/financial-information/ratings/" xlink:type="simple"><text fill="#4051B5" font-family="'Roboto'" font-size="13" lengthAdjust="spacing" textLength="48.9722" x="452.4082" y="303.5278">Ratings</text></a><path d="M395.4082,248.7617 L395.4082,248.9485 L397.4082,248.3934 L399.4082,248.9335 L401.4082,249.117 L403.4082,248.1276 L405.4082,248.7617 L405.4082,248.7617 L405.3854,248.7358 L407.0641,250.1904 L408.858,251.7755 L410.7319,253.4514 L412.33,254.8145 L414.3145,256.6157 L414.5465,256.6976 L415.269,259.9783 L416.6691,263.498 L418.1518,267.0469 L419.1535,270.4261 L420.4082,273.8945 L420.4368,273.9046 L421.6136,277.3456 L422.9205,280.8324 L424.1647,284.2972 L425.5287,287.8042 L426.502,291.1733 L426.6992,291.397 L428.4829,292.9706 L430.1393,294.3998 L431.982,296.0403 L433.8334,297.6906 L435.4082,299.0273 L435.4082,298.3863 L437.4082,299.6305 L439.4082,298.7638 L441.4082,299.5018 L443.4082,298.5873 L445.4082,299.0273" fill="none" style="stroke:#FF6F00;stroke-width:1;"/><path d="M196.9243,324.1602 L196.9243,324.347 L198.9243,323.7919 L200.9243,324.332 L202.9243,324.5154 L204.9243,323.526 L206.9243,324.1602 L206.9243,324.1602 L206.8968,324.1393 L208.5544,321.6896 L210.3509,319.345 L212.2439,317.0733 L213.8042,314.55 L215.8306,312.3792 L216.0683,312.4426 L216.2044,309.8918 L217.0347,307.5263 L217.9496,305.1833 L218.3719,302.7089 L219.0532,300.3036 L219.0829,300.3098 L219.6135,297.5322 L220.2794,294.7827 L220.8799,292.0196 L221.605,289.2823 L221.9243,286.4609 L222.2163,286.5215 L222.7941,283.7537 L223.1836,280.9468 L223.8487,278.1972 L224.5268,275.4502 L224.7954,272.6183 L224.4857,272.5356 L225.7313,270.2809 L225.9571,267.7541 L226.9582,265.4341 L227.161,262.9011 L228.0181,260.5427 L227.9938,260.5244 L230.0622,258.3853 L231.5633,255.8173 L233.3991,253.5023 L235.2631,251.2087 L236.9243,248.7617 L236.9243,249.1317 L238.9243,248.7582 L240.9243,249.017 L242.9243,248.2529 L244.9243,249.0145 L246.9243,248.7617" fill="none" style="stroke:#FF6F00;stroke-width:1;"/><a href="/use-case/legal-entity-management/identification-and-registration/" target="_top" title="/use-case/legal-entity-management/identification-and-registration/" xlink:actuate="onRequest" xlink:href="/use-case/legal-entity-management/identification-and-registration/" xlink:show="new" xlink:title="/use-case/legal-entity-management/identification-and-registration/" xlink:type="simple"><text fill="#4051B5" font-family="'Roboto'" font-size="13" lengthAdjust="spacing" textLength="182.6157" x="253.9243" y="366.3599">Identification &amp; Registration</text></a><a href="/use-case/legal-entity-management/identification-and-registration/business-registration/" target="_top" title="/use-case/legal-entity-management/identification-and-registration/business-registration/" xlink:actuate="onRequest" xlink:href="/use-case/legal-entity-management/identification-and-registration/business-registration/" xlink:show="new" xlink:title="/use-case/legal-entity-management/identification-and-registration/business-registration/" xlink:type="simple"><text fill="#4051B5" font-family="'Roboto'" font-size="13" lengthAdjust="spacing" textLength="140.4355" x="497.54" y="328.6606">Business Registration</text></a><path d="M440.54,361.8594 L440.54,362.0462 L442.54,361.4911 L444.54,362.0312 L446.54,362.2146 L448.54,361.2252 L450.54,361.8594 L450.54,361.8594 L450.521,361.8306 L452.2167,360.5232 L454.0085,359.361 L455.8671,358.2998 L457.4955,356.8907 L459.4463,355.9689 L459.669,356.0736 L460.4115,353.2578 L461.8042,350.7478 L463.2763,348.2751 L464.2868,345.5854 L465.54,343.0098 L465.5675,343.0227 L466.7459,340.4119 L468.0493,337.8599 L469.2925,335.2795 L470.6506,332.7532 L471.6338,330.0507 L471.7983,330.2994 L473.5816,329.1244 L475.2587,327.7888 L477.0912,326.6882 L478.931,325.5986 L480.54,324.1602 L480.54,323.5191 L482.54,324.7633 L484.54,323.8966 L486.54,324.6347 L488.54,323.7201 L490.54,324.1602" fill="none" style="stroke:#FF6F00;stroke-width:1;"/><a href="/use-case/legal-entity-management/identification-and-registration/classification/" target="_top" title="/use-case/legal-entity-management/identification-and-registration/classification/" xlink:actuate="onRequest" xlink:href="/use-case/legal-entity-management/identification-and-registration/classification/" xlink:show="new" xlink:title="/use-case/legal-entity-management/identification-and-registration/classification/" xlink:type="simple"><text fill="#4051B5" font-family="'Roboto'" font-size="13" lengthAdjust="spacing" textLength="86.0171" x="497.54" y="353.7935">Classification</text></a><path d="M440.54,361.8594 L440.54,362.0462 L442.54,361.4911 L444.54,362.0312 L446.54,362.2146 L448.54,361.2252 L450.54,361.8594 L450.54,361.8594 L450.5267,361.8275 L453.4668,360.4279 L456.4742,359.1889 L459.5283,358.0615 L462.4213,356.5494 L465.54,355.5762 L465.6351,355.8031 L468.4318,354.0612 L471.5061,352.9818 L474.6142,351.9833 L477.5253,350.5144 L480.54,349.293 L480.54,349.3536 L482.54,349.2646 L484.54,349.4517 L486.54,349.5055 L488.54,349.8136 L490.54,349.293" fill="none" style="stroke:#FF6F00;stroke-width:1;"/><a href="/use-case/legal-entity-management/identification-and-registration/commercial-register/" target="_top" title="/use-case/legal-entity-management/identification-and-registration/commercial-register/" xlink:actuate="onRequest" xlink:href="/use-case/legal-entity-management/identification-and-registration/commercial-register/" xlink:show="new" xlink:title="/use-case/legal-entity-management/identification-and-registration/commercial-register/" xlink:type="simple"><text fill="#4051B5" font-family="'Roboto'" font-size="13" lengthAdjust="spacing" textLength="136.2778" x="497.54" y="378.9263">Commercial Register</text></a><path d="M440.54,361.8594 L440.54,362.0462 L442.54,361.4911 L444.54,362.0312 L446.54,362.2146 L448.54,361.2252 L450.54,361.8594 L450.54,361.8594 L450.5267,361.8275 L453.4668,362.9412 L456.4742,364.2154 L459.5283,365.6014 L462.4213,366.6025 L465.54,368.1426 L465.6351,368.3695 L468.4318,369.1408 L471.5061,370.5748 L474.6142,372.0896 L477.5253,373.134 L480.54,374.4258 L480.54,374.4864 L482.54,374.3974 L484.54,374.5845 L486.54,374.6383 L488.54,374.9464 L490.54,374.4258" fill="none" style="stroke:#FF6F00;stroke-width:1;"/><a href="/use-case/legal-entity-management/identification-and-registration/legal-form/" target="_top" title="/use-case/legal-entity-management/identification-and-registration/legal-form/" xlink:actuate="onRequest" xlink:href="/use-case/legal-entity-management/identification-and-registration/legal-form/" xlink:show="new" xlink:title="/use-case/legal-entity-management/identification-and-registration/legal-form/" xlink:type="simple"><text fill="#4051B5" font-family="'Roboto'" font-size="13" lengthAdjust="spacing" textLength="79.4155" x="497.54" y="404.0591">Legal Forms</text></a><path d="M440.54,361.8594 L440.54,362.0462 L442.54,361.4911 L444.54,362.0312 L446.54,362.2146 L448.54,361.2252 L450.54,361.8594 L450.54,361.8594 L450.521,361.8306 L452.2167,362.8794 L454.0085,364.0734 L455.8671,365.3684 L457.4955,366.3155 L459.4463,367.7499 L459.669,367.8546 L460.4115,370.2225 L461.8042,372.8961 L463.2763,375.607 L464.2868,378.1009 L465.54,380.709 L465.5675,380.7219 L466.7459,383.2948 L468.0493,385.9264 L469.2925,388.5297 L470.6506,391.187 L471.6338,393.6681 L471.7983,393.9169 L473.5816,395.098 L475.2587,396.1187 L477.0912,397.3742 L478.931,398.6408 L480.54,399.5586 L480.54,398.9175 L482.54,400.1617 L484.54,399.295 L486.54,400.0331 L488.54,399.1186 L490.54,399.5586" fill="none" style="stroke:#FF6F00;stroke-width:1;"/><path d="M196.9243,324.1602 L196.9243,324.347 L198.9243,323.7919 L200.9243,324.332 L202.9243,324.5154 L204.9243,323.526 L206.9243,324.1602 L206.9243,324.1602 L206.9053,324.1313 L208.601,325.1802 L210.3928,326.3742 L212.2514,327.6692 L213.8798,328.6163 L215.8306,330.0507 L216.0532,330.1554 L216.7958,332.5233 L218.1885,335.1969 L219.6605,337.9078 L220.6711,340.4017 L221.9243,343.0098 L221.9518,343.0227 L223.1302,345.5955 L224.4336,348.2272 L225.6767,350.8305 L227.0349,353.4878 L228.0181,355.9689 L228.1826,356.2176 L229.9659,357.3988 L231.643,358.4195 L233.4755,359.675 L235.3152,360.9416 L236.9243,361.8594 L236.9243,361.2183 L238.9243,362.4625 L240.9243,361.5958 L242.9243,362.3339 L244.9243,361.4194 L246.9243,361.8594" fill="none" style="stroke:#FF6F00;stroke-width:1;"/><a href="/use-case/legal-entity-management/lifecycle-and-status/" target="_top" title="/use-case/legal-entity-management/lifecycle-and-status/" xlink:actuate="onRequest" xlink:href="/use-case/legal-entity-management/lifecycle-and-status/" xlink:show="new" xlink:title="/use-case/legal-entity-management/lifecycle-and-status/" xlink:type="simple"><text fill="#4051B5" font-family="'Roboto'" font-size="13" lengthAdjust="spacing" textLength="116.854" x="253.9243" y="441.7583">Lifecycle &amp; Status</text></a><a href="/use-case/legal-entity-management/lifecycle-and-status/dissolution/" target="_top" title="/use-case/legal-entity-management/lifecycle-and-status/dissolution/" xlink:actuate="onRequest" xlink:href="/use-case/legal-entity-management/lifecycle-and-status/dissolution/" xlink:show="new" xlink:title="/use-case/legal-entity-management/lifecycle-and-status/dissolution/" xlink:type="simple"><text fill="#4051B5" font-family="'Roboto'" font-size="13" lengthAdjust="spacing" textLength="71.8745" x="431.7783" y="429.1919">Dissolution</text></a><path d="M374.7783,437.2578 L374.7783,437.4446 L376.7783,436.8895 L378.7783,437.4296 L380.7783,437.6131 L382.7783,436.6237 L384.7783,437.2578 L384.7783,437.2578 L384.765,437.226 L387.7051,435.8263 L390.7125,434.5873 L393.7666,433.46 L396.6596,431.9478 L399.7783,430.9746 L399.8734,431.2016 L402.6701,429.4596 L405.7444,428.3803 L408.8525,427.3818 L411.7636,425.9129 L414.7783,424.6914 L414.7783,424.7521 L416.7783,424.663 L418.7783,424.8501 L420.7783,424.904 L422.7783,425.212 L424.7783,424.6914" fill="none" style="stroke:#FF6F00;stroke-width:1;"/><a href="/use-case/legal-entity-management/lifecycle-and-status/liquidation/" target="_top" title="/use-case/legal-entity-management/lifecycle-and-status/liquidation/" xlink:actuate="onRequest" xlink:href="/use-case/legal-entity-management/lifecycle-and-status/liquidation/" xlink:show="new" xlink:title="/use-case/legal-entity-management/lifecycle-and-status/liquidation/" xlink:type="simple"><text fill="#4051B5" font-family="'Roboto'" font-size="13" lengthAdjust="spacing" textLength="72.0776" x="431.7783" y="454.3247">Liquidation</text></a><path d="M374.7783,437.2578 L374.7783,437.4446 L376.7783,436.8895 L378.7783,437.4296 L380.7783,437.6131 L382.7783,436.6237 L384.7783,437.2578 L384.7783,437.2578 L384.765,437.226 L387.7051,438.3396 L390.7125,439.6139 L393.7666,440.9998 L396.6596,442.001 L399.7783,443.541 L399.8734,443.768 L402.6701,444.5393 L405.7444,445.9732 L408.8525,447.488 L411.7636,448.5324 L414.7783,449.8242 L414.7783,449.8849 L416.7783,449.7958 L418.7783,449.9829 L420.7783,450.0368 L422.7783,450.3448 L424.7783,449.8242" fill="none" style="stroke:#FF6F00;stroke-width:1;"/><path d="M196.9243,324.1602 L196.9243,324.347 L198.9243,323.7919 L200.9243,324.332 L202.9243,324.5154 L204.9243,323.526 L206.9243,324.1602 L206.9243,324.1602 L206.8935,324.1446 L208.5363,327.6091 L210.3346,331.152 L212.241,334.7494 L213.7749,338.1591 L215.8306,341.8317 L216.0728,341.8748 L216.1993,345.4053 L217.0331,349.0616 L217.9532,352.7333 L218.3712,356.3156 L219.0532,359.945 L219.0833,359.9491 L219.6134,364.0958 L220.2803,368.2614 L220.8812,372.4179 L221.608,376.5918 L221.9243,380.709 L222.2198,380.7498 L222.7976,384.9031 L223.1849,389.0301 L223.8511,393.1956 L224.5304,397.363 L224.7954,401.473 L224.4798,401.4169 L225.7368,405.1485 L225.9547,408.6952 L226.9626,412.3825 L227.1569,415.9251 L228.0181,419.5863 L227.9909,419.5726 L230.0937,423.2689 L231.5612,426.6452 L233.4036,430.2103 L235.2775,433.7912 L236.9243,437.2578 L236.9243,437.6278 L238.9243,437.2543 L240.9243,437.5131 L242.9243,436.749 L244.9243,437.5106 L246.9243,437.2578" fill="none" style="stroke:#FF6F00;stroke-width:1;"/><a href="/use-case/legal-entity-management/ownership-and-capital-structure/" target="_top" title="/use-case/legal-entity-management/ownership-and-capital-structure/" xlink:actuate="onRequest" xlink:href="/use-case/legal-entity-management/ownership-and-capital-structure/" xlink:show="new" xlink:title="/use-case/legal-entity-management/ownership-and-capital-structure/" xlink:type="simple"><text fill="#4051B5" font-family="'Roboto'" font-size="13" lengthAdjust="spacing" textLength="198.1992" x="253.9243" y="542.2896">Ownership &amp; Capital Structure</text></a><a href="/use-case/legal-entity-management/ownership-and-capital-structure/control/" target="_top" title="/use-case/legal-entity-management/ownership-and-capital-structure/control/" xlink:actuate="onRequest" xlink:href="/use-case/legal-entity-management/ownership-and-capital-structure/control/" xlink:show="new" xlink:title="/use-case/legal-entity-management/ownership-and-capital-structure/control/" xlink:type="simple"><text fill="#4051B5" font-family="'Roboto'" font-size="13" lengthAdjust="spacing" textLength="47.2773" x="513.1235" y="479.4575">Control</text></a><path d="M456.1235,537.7891 L456.1235,537.9759 L458.1235,537.4208 L460.1235,537.9609 L462.1235,538.1443 L464.1235,537.1549 L466.1235,537.7891 L466.1235,537.7891 L466.098,537.7659 L467.7644,535.6982 L469.5598,533.7475 L471.4448,531.8782 L473.021,529.7286 L475.0298,527.9716 L475.2641,528.0466 L475.4075,525.8735 L476.2351,523.9196 L477.1462,521.9923 L477.5716,519.9096 L478.2524,517.9086 L478.2819,517.9159 L478.8129,515.5981 L479.4779,513.3136 L480.0782,511.0129 L480.8019,508.743 L481.1235,506.373 L481.413,506.4451 L481.9907,504.1388 L482.3818,501.7862 L483.0461,499.5015 L483.7233,497.22 L483.9946,494.8375 L483.6894,494.7397 L484.9264,492.9169 L485.1582,490.7721 L486.1542,488.8721 L486.3632,486.72 L487.2173,484.7745 L487.1947,484.7541 L489.2427,483.0325 L490.7637,480.833 L492.5957,478.9155 L494.4538,477.0217 L496.1235,474.957 L496.1235,475.327 L498.1235,474.9536 L500.1235,475.2123 L502.1235,474.4482 L504.1235,475.2098 L506.1235,474.957" fill="none" style="stroke:#FF6F00;stroke-width:1;"/><a href="/use-case/legal-entity-management/ownership-and-capital-structure/corporate-actions/" target="_top" title="/use-case/legal-entity-management/ownership-and-capital-structure/corporate-actions/" xlink:actuate="onRequest" xlink:href="/use-case/legal-entity-management/ownership-and-capital-structure/corporate-actions/" xlink:show="new" xlink:title="/use-case/legal-entity-management/ownership-and-capital-structure/corporate-actions/" xlink:type="simple"><text fill="#4051B5" font-family="'Roboto'" font-size="13" lengthAdjust="spacing" textLength="116.835" x="513.1235" y="504.5903">Corporate Actions</text></a><path d="M456.1235,537.7891 L456.1235,537.9759 L458.1235,537.4208 L460.1235,537.9609 L462.1235,538.1443 L464.1235,537.1549 L466.1235,537.7891 L466.1235,537.7891 L466.1045,537.7603 L467.8002,536.4529 L469.592,535.2907 L471.4506,534.2295 L473.079,532.8204 L475.0298,531.8986 L475.2525,532.0033 L475.995,529.1875 L477.3877,526.6775 L478.8598,524.2048 L479.8703,521.5151 L481.1235,518.9395 L481.151,518.9524 L482.3294,516.3416 L483.6328,513.7896 L484.876,511.2092 L486.2341,508.6829 L487.2173,505.9803 L487.3818,506.2291 L489.1651,505.054 L490.8422,503.7185 L492.6747,502.6179 L494.5145,501.5283 L496.1235,500.0898 L496.1235,499.4488 L498.1235,500.693 L500.1235,499.8263 L502.1235,500.5643 L504.1235,499.6498 L506.1235,500.0898" fill="none" style="stroke:#FF6F00;stroke-width:1;"/><a href="/use-case/legal-entity-management/ownership-and-capital-structure/issued-capital/" target="_top" title="/use-case/legal-entity-management/ownership-and-capital-structure/issued-capital/" xlink:actuate="onRequest" xlink:href="/use-case/legal-entity-management/ownership-and-capital-structure/issued-capital/" xlink:show="new" xlink:title="/use-case/legal-entity-management/ownership-and-capital-structure/issued-capital/" xlink:type="simple"><text fill="#4051B5" font-family="'Roboto'" font-size="13" lengthAdjust="spacing" textLength="91.584" x="513.1235" y="529.7231">Issued Capital</text></a><path d="M456.1235,537.7891 L456.1235,537.9759 L458.1235,537.4208 L460.1235,537.9609 L462.1235,538.1443 L464.1235,537.1549 L466.1235,537.7891 L466.1235,537.7891 L466.1102,537.7572 L469.0503,536.3576 L472.0577,535.1186 L475.1118,533.9912 L478.0048,532.4791 L481.1235,531.5059 L481.2186,531.7328 L484.0153,529.9908 L487.0896,528.9115 L490.1977,527.913 L493.1088,526.4441 L496.1235,525.2227 L496.1235,525.2833 L498.1235,525.1943 L500.1235,525.3813 L502.1235,525.4352 L504.1235,525.7433 L506.1235,525.2227" fill="none" style="stroke:#FF6F00;stroke-width:1;"/><a href="/use-case/legal-entity-management/ownership-and-capital-structure/ownership/" target="_top" title="/use-case/legal-entity-management/ownership-and-capital-structure/ownership/" xlink:actuate="onRequest" xlink:href="/use-case/legal-entity-management/ownership-and-capital-structure/ownership/" xlink:show="new" xlink:title="/use-case/legal-entity-management/ownership-and-capital-structure/ownership/" xlink:type="simple"><text fill="#4051B5" font-family="'Roboto'" font-size="13" lengthAdjust="spacing" textLength="69.3228" x="513.1235" y="554.856">Ownership</text></a><path d="M456.1235,537.7891 L456.1235,537.9759 L458.1235,537.4208 L460.1235,537.9609 L462.1235,538.1443 L464.1235,537.1549 L466.1235,537.7891 L466.1235,537.7891 L466.1102,537.7572 L469.0503,538.8709 L472.0577,540.1451 L475.1118,541.531 L478.0048,542.5322 L481.1235,544.0723 L481.2186,544.2992 L484.0153,545.0705 L487.0896,546.5045 L490.1977,548.0193 L493.1088,549.0637 L496.1235,550.3555 L496.1235,550.4161 L498.1235,550.3271 L500.1235,550.5142 L502.1235,550.568 L504.1235,550.8761 L506.1235,550.3555" fill="none" style="stroke:#FF6F00;stroke-width:1;"/><a href="/use-case/legal-entity-management/ownership-and-capital-structure/share-capital/" target="_top" title="/use-case/legal-entity-management/ownership-and-capital-structure/share-capital/" xlink:actuate="onRequest" xlink:href="/use-case/legal-entity-management/ownership-and-capital-structure/share-capital/" xlink:show="new" xlink:title="/use-case/legal-entity-management/ownership-and-capital-structure/share-capital/" xlink:type="simple"><text fill="#4051B5" font-family="'Roboto'" font-size="13" lengthAdjust="spacing" textLength="87.5151" x="513.1235" y="579.9888">Share Capital</text></a><path d="M456.1235,537.7891 L456.1235,537.9759 L458.1235,537.4208 L460.1235,537.9609 L462.1235,538.1443 L464.1235,537.1549 L466.1235,537.7891 L466.1235,537.7891 L466.1045,537.7603 L467.8002,538.8091 L469.592,540.0031 L471.4506,541.2981 L473.079,542.2452 L475.0298,543.6796 L475.2525,543.7843 L475.995,546.1522 L477.3877,548.8258 L478.8598,551.5367 L479.8703,554.0306 L481.1235,556.6387 L481.151,556.6516 L482.3294,559.2245 L483.6328,561.8561 L484.876,564.4594 L486.2341,567.1167 L487.2173,569.5978 L487.3818,569.8465 L489.1651,571.0277 L490.8422,572.0484 L492.6747,573.3039 L494.5145,574.5705 L496.1235,575.4883 L496.1235,574.8472 L498.1235,576.0914 L500.1235,575.2247 L502.1235,575.9628 L504.1235,575.0483 L506.1235,575.4883" fill="none" style="stroke:#FF6F00;stroke-width:1;"/><a href="/use-case/legal-entity-management/ownership-and-capital-structure/shares/" target="_top" title="/use-case/legal-entity-management/ownership-and-capital-structure/shares/" xlink:actuate="onRequest" xlink:href="/use-case/legal-entity-management/ownership-and-capital-structure/shares/" xlink:show="new" xlink:title="/use-case/legal-entity-management/ownership-and-capital-structure/shares/" xlink:type="simple"><text fill="#4051B5" font-family="'Roboto'" font-size="13" lengthAdjust="spacing" textLength="44.5732" x="513.1235" y="605.1216">Shares</text></a><path d="M456.1235,537.7891 L456.1235,537.9759 L458.1235,537.4208 L460.1235,537.9609 L462.1235,538.1443 L464.1235,537.1549 L466.1235,537.7891 L466.1235,537.7891 L466.098,537.7659 L467.7644,539.6252 L469.5598,541.6015 L471.4448,543.6592 L473.021,545.4366 L475.0298,547.6066 L475.2641,547.6816 L475.4075,549.5337 L476.2351,551.6049 L477.1462,553.7029 L477.5716,555.6453 L478.2524,557.6695 L478.2819,557.6768 L478.8129,559.9732 L479.4779,562.3029 L480.0782,564.6165 L480.8019,566.9608 L481.1235,569.2051 L481.413,569.2771 L481.9907,571.5851 L482.3818,573.8466 L483.0461,576.1762 L483.7233,578.5089 L483.9946,580.7406 L483.6894,580.6429 L484.9264,582.8452 L485.1582,584.7256 L486.1542,586.8508 L486.3632,588.7239 L487.2173,590.8036 L487.1947,590.7831 L489.2427,592.9885 L490.7637,594.716 L492.5957,596.7255 L494.4538,598.7587 L496.1235,600.6211 L496.1235,600.9911 L498.1235,600.6176 L500.1235,600.8764 L502.1235,600.1123 L504.1235,600.8739 L506.1235,600.6211" fill="none" style="stroke:#FF6F00;stroke-width:1;"/><path d="M196.9243,324.1602 L196.9243,324.347 L198.9243,323.7919 L200.9243,324.332 L202.9243,324.5154 L204.9243,323.526 L206.9243,324.1602 L206.9243,324.1602 L206.894,324.1437 L207.7538,325.9056 L208.7667,327.7506 L209.886,329.6533 L210.6386,331.3571 L211.9048,333.3395 L212.1462,333.387 L212.0445,335.3925 L212.6476,337.5367 L213.3368,339.6978 L213.5256,341.7605 L213.9775,343.8749 L214.0076,343.879 L214.3341,346.606 L214.7974,349.3515 L215.1947,352.0881 L215.7179,354.8417 L215.8306,357.5397 L216.1272,357.5704 L216.4663,360.8045 L216.614,364.0186 L217.0419,367.2619 L217.4828,370.5064 L217.5078,373.7079 L217.1885,373.6805 L218.1174,377.3428 L217.9947,380.915 L218.6714,384.5556 L218.5249,388.1257 L219.0532,391.7537 L219.0229,391.7515 L219.9562,399.6219 L220.1801,407.4405 L220.8226,415.2897 L221.5002,423.1414 L221.9243,430.9746 L222.1088,430.9881 L222.4968,438.8187 L223.2001,446.6723 L223.3932,454.4886 L224.3472,462.3606 L224.7954,470.1955 L225.0382,470.2163 L225.3013,473.8216 L225.685,477.4371 L225.5087,481.0047 L225.7429,484.6074 L226.3408,488.2413 L226.0661,488.2128 L226.6502,491.4723 L226.9248,494.6996 L227.6484,497.9735 L227.6054,501.1679 L228.0181,504.4095 L227.867,504.3891 L228.4892,507.1561 L228.4656,509.8356 L228.9013,512.5774 L229.7863,515.3801 L229.8711,518.0743 L230.0611,518.1117 L230.6059,520.2444 L230.5599,522.2608 L231.2539,524.4229 L231.7868,526.5533 L231.9438,528.6097 L231.7593,528.5096 L232.9025,530.4253 L233.9853,532.3081 L235.1867,534.2555 L235.9266,535.9523 L236.9243,537.7891 L236.9243,538.2002 L238.9243,537.2968 L240.9243,537.1871 L242.9243,538.2367 L244.9243,537.1518 L246.9243,537.7891" fill="none" style="stroke:#FF6F00;stroke-width:1;"/><a href="/use-case/legal-entity-management/supporting-information/" target="_top" title="/use-case/legal-entity-management/supporting-information/" xlink:actuate="onRequest" xlink:href="/use-case/legal-entity-management/supporting-information/" xlink:show="new" xlink:title="/use-case/legal-entity-management/supporting-information/" xlink:type="simple"><text fill="#4051B5" font-family="'Roboto'" font-size="13" lengthAdjust="spacing" textLength="151.106" x="253.9243" y="630.2544">Supporting Information</text></a><a href="/use-case/legal-entity-management/supporting-information/currencies/" target="_top" title="/use-case/legal-entity-management/supporting-information/currencies/" xlink:actuate="onRequest" xlink:href="/use-case/legal-entity-management/supporting-information/currencies/" xlink:show="new" xlink:title="/use-case/legal-entity-management/supporting-information/currencies/" xlink:type="simple"><text fill="#4051B5" font-family="'Roboto'" font-size="13" lengthAdjust="spacing" textLength="69.7734" x="466.0303" y="630.2544">Currencies</text></a><path d="M409.0303,625.7539 L409.0303,625.9407 L411.0303,625.3856 L413.0303,625.9257 L415.0303,626.1092 L417.0303,625.1198 L419.0303,625.7539 L419.0303,625.7539 L419.0303,625.7194 L425.0303,625.5644 L431.0303,625.5835 L437.0303,625.7236 L443.0303,625.4466 L449.0303,625.7539 L449.0303,626.246 L451.0303,625.1937 L453.0303,625.5781 L455.0303,626.1379 L457.0303,625.6777 L459.0303,625.7539" fill="none" style="stroke:#FF6F00;stroke-width:1;"/><path d="M196.9243,324.1602 L196.9243,324.347 L198.9243,323.7919 L200.9243,324.332 L202.9243,324.5154 L204.9243,323.526 L206.9243,324.1602 L206.9243,324.1602 L206.8921,324.1478 L207.7435,326.684 L208.7574,329.2827 L209.8843,331.9248 L210.6219,334.4172 L211.9048,337.1193 L212.1485,337.1532 L212.0419,340.0553 L212.6468,343.0565 L213.3386,346.0699 L213.5252,349.0128 L213.9775,351.9928 L214.0077,351.9957 L214.334,355.8497 L214.7977,359.7169 L215.1952,363.5778 L215.7191,367.4508 L215.8306,371.2842 L216.128,371.306 L216.4671,375.8714 L216.6143,380.4228 L217.0424,384.9947 L217.4836,389.5676 L217.5078,394.1099 L217.1879,394.0905 L218.1179,399.2234 L217.9944,404.2925 L218.6719,409.4101 L218.5245,414.4777 L219.0532,419.5863 L218.962,419.5816 L220.5192,428.866 L219.9454,438.0398 L220.629,447.2789 L221.4182,456.5235 L222,465.7573 L221.9243,474.957 L221.9191,474.9568 L222.7853,484.2053 L222.1191,493.3744 L223.7385,502.662 L224.5683,511.9087 L224.9088,521.13 L224.7954,530.3278 L225.0674,530.3443 L224.8902,535.41 L225.1242,540.5008 L225.447,545.5969 L226.0056,550.7073 L226.3408,555.8042 L226.2537,555.7978 L226.9783,560.3915 L226.9343,564.9288 L227.1951,569.4884 L227.7838,574.0722 L228.0181,578.6299 L227.7231,578.6015 L228.159,582.4661 L229.0464,586.374 L229.3226,590.2232 L229.8254,594.0942 L229.8711,597.9213 L229.7294,597.9015 L230.4262,600.9156 L230.9601,603.9069 L230.9068,606.8164 L231.4871,609.8142 L231.9438,612.7948 L231.9961,612.8149 L233.2103,615.4905 L233.9343,617.9778 L235.124,620.644 L235.6985,623.0738 L236.9243,625.7539 L236.9243,625.1519 L238.9243,626.2016 L240.9243,625.1166 L242.9243,626.2063 L244.9243,625.9376 L246.9243,625.7539" fill="none" style="stroke:#FF6F00;stroke-width:1;"/><!--SRC=[xLd_RzCu5F-zVuMFIGS8UbjX88GGekkwCUZMgTqudH2QtCHjhQLsiPtjnkd-ztjsaZh9qgHfccD8tIzhdfy_xuiTFxzyFaY5XPfHvixm77baWhqcOOggk-OCCpmXCtXgD7vpoPWoWWwEhqxR9sTNdNwlFq3cRsT_xrLhz2gkCkns-cU7xS5VeLw6odcxyxbzt5q0tLFf3mwxWxWTj3CUlnxlxIrKZlfd5ma5ewB_5YhjmQ3_Pr8dGcd8QyhcME0P6c7dUYAupzmEzxX0EqfW9c5CXsxLFjxDYV0ekmwrGeyRZn5bZkUx1AafGHF2YC0UMioJQ0pQ8wwcpv579rE5C7EHYyKrp5GSyHiYRWLL1DrIDGqmw0rXI1AbA9l8T4ukFfvqFfzrXqFKWeNXSqKvGrC0rIWA9ewn9qdCyNFikW24zcEoGH2k06VHcvXyECKklzNQQPH5-9VCDJz8g1BJEIHZx7iA_TD0w8WpTOPd13qQS8YUFmfbGVRiueNY8Vr1K6k_yMyShoq4lpLeIsOj0rDt7kIBUsuIRmuh3NjwuL_6z8FKPaZiU3tE1OGVZiKsAHYoTXXtonf9l12hsd7uRCuPR5DZR6tNb_ePvD6VUI-IUNInmYCiIIrc4vOSZ_lk_s26Unvnz9iaQp9cRNL0GN2lTZi76XQBkzeDTKszgDqCPOg8CNP8xPQ6vBjFc4FEeJHIXyunKm7SnPGwrun82KUlLPUXkl4hFgV0nNlmcTx6jEpHnhYOOU_-QCOxtADZqeFJEiV4GgN0ONCSPvWmyXnyCxx4FJDcy_fIYnp5HQ4lHYd7fXvVzk8_HfrzSxX1eOE7dSA_-5aXuA30REAHT- -W8ahEthytAp-4xKcuWZAPKvasMN6Y8Pkzz0qXUSZ572T_WxCCUrTrHP2w0jOKXhoJYin-vVpN5K6D-O-A_w-MVklthvpzs2OQXGK-yZzrTKz7P6xOUwlTFjVEHL6OGVboiPmITxNOCqDtm3o6YYNAn0xTHV5sgotoLHTuzHugwa3Z3TJBeBpreQaK59eGDqJJFMZKvUlkHA8cclbIwHQ283o6g2FBgJucPY_ihdCQj5Z3dUTgyWvZCvDgCwJ2AhXL5Q_RqeM1gu1IWevyHPPhs8jDCeBSFYpHfc0fgtkQP-mnEWtNJyw9GyVKWVoO6mmivUrKVq1GSB31DLdgXJUB_1oDF9_06ZD6z7r88kuhFPpLgzRckRM5avUzLgFnhAS_EKKjnAdzvFJisHNw-dNNbwJfmA6zk-JJrAvkWJsAuVhTnCnjkjpnjHphNcuNTcKqYdv7X_6nRz_0n2PisC6ukOt1HqzoT-6_DE2hOWEGemomnns3sQHihD-zA4L60_BJ2yVHYHql5qU1BUow0jQTG2pjwET63OGASX5LkLI9EHTmuZGd-fiSYvOqbABZXRISpnceBXN1-pYbSxsmySVAu5nCCAC_J4PWbbJ2TvGl89P-OWHANJXIsQIa4uOX0AgNTcWVIcH_J3KKXR74xZoAnEjkocnSEAs9tYPjyxyw7i62wM-rJI8L1PdEGpUKeMuagsvdh6zyvd3mmC9HxAawDXn18-ffLRWCp02-5mdGXHPKjm3RHYTa5ms27oMs1zGia47H2rvwVG88Cg6mkSEDSf9GWDDi41ikutgHfP4lgQvUAVi7eRWsk-QAiHY7Wodnl55BV3OZmgnU82V2bBPG64P8n2Pj1lFqLe5zPwu4HppQSwjPyEYOE7UE5nHHVNNqpHuEfR0ZXaPMnkjCJ9TAoJq_M8L3-r0PsAFVVUg6ozkp3oMIm6-X9z9bnE0wU4vLgWH42f2FJZ2yNXqeikG4Nxbtey_TcyMEQX0Eljd7otGx46tI7gonJnO3SDQOvoX_cxIq68-jr2RnvHGBOWCPwiSwuZ1sP6YWp5ii_JciewuEoNl0S25VzoAm1DdnXI1GghItdSLl0Fv0eDiAEgv6uyDgDFdcIEK7Jjz6dm9ASBV9APamfLXREpVTjjgF3V6kD2B-2tZQJS3cqxBvEDc-h4N4bZUq8lLQ5RY0R5q7VZLwjHfoBg5Q3Jg7Ggq6d4-QLiEkYIQrJYqXIAr_Qt2ZzftA8aOjz39Er7eN-sXeGUzHeHOnnOAcvgn0WSPCfydFc9Kaxnbx0TUaCFFFxR8xwlu6gKvH_YmF2zcZdvwwX-LX2UBm9_drG1DN0-TdFLeZkfmO2lYzLls4NbsHBLsT3H1s5HYtp6AzSRRD8cOdBfDaImmdYcNeyRARz8h4Mh5JXV0vvDS6qBTqrvRksj9TMxfhItTjwQujtRMbkxPqrvRksj9TMxhhmTDTvnvcwlAqX-3A8tLzQVtnOk_5gpzQhH5HkBNtv99TCqYAOJeed3PGySdJnfFZynwIt1VGVxZwiDCD8Kn_slY4Rp0Q-4phlKNzEM6V3Zz70cY7RgZWp3H2dxwSMeNN-yq3gj2G2704VJbjHBrsbpbSas9lqUN5KVDDeuVPn8VGtoB26XreufIuWx7XVm00]--></g></svg>