<svg xmlns="http://www.w3.org/2000/svg" xmlns:xlink="http://www.w3.org/1999/xlink" contentStyleType="text/css" data-diagram-type="MINDMAP" height="100px" preserveAspectRatio="none" style="width:675px;height:100px;" version="1.1" viewBox="0 0 675 100" width="675px" zoomAndPan="magnify"><defs/><g><polygon fill="#4051B5" points="254.7646,31.2969,254.7646,31.5071,264.8317,30.8826,274.8988,31.4902,284.9659,31.6966,295.033,30.5835,305.1001,31.2192,315.1672,30.8704,325.2343,30.9134,335.3014,31.2287,345.3685,30.6055,355.4356,31.8505,365.5027,30.6666,375.5698,31.0991,385.6369,31.7288,395.704,31.2111,405.7711,31.3651,415.8382,31.2649,425.9053,31.2969,425.928,31.3519,426.5015,31.6048,427.1114,31.9459,427.6879,32.2065,428.2547,32.4433,428.7337,32.4684,428.8121,32.5009,429.1108,33.0933,429.4186,33.6894,429.2145,34.0735,429.8799,34.8177,429.9053,35.2969,429.8064,35.2969,430.0832,40.9563,429.7403,46.6156,429.8824,52.275,430.1525,57.9344,429.9053,63.5938,429.8903,63.5875,429.7034,64.1729,429.5409,64.7683,429.3305,65.3439,428.9668,65.856,428.7337,66.4222,428.7703,66.5106,428.095,66.4802,427.6386,66.9784,427.1066,67.2939,426.5277,67.4963,425.9053,67.5938,425.9053,68.2068,415.8382,67.1107,405.7711,66.9416,395.704,66.9723,385.6369,67.5349,375.5698,67.3972,365.5027,68.2752,355.4356,67.4191,345.3685,67.2507,335.3014,67.822,325.2343,66.9269,315.1672,67.0746,305.1001,68.2427,295.033,68.0294,284.9659,68.3282,274.8988,67.272,264.8317,67.9129,254.7646,67.5938,254.84,67.7756,254.1387,67.214,253.621,67.0956,253.0837,66.9296,252.585,66.8572,251.9362,66.4222,251.9349,66.4216,251.8444,65.9155,251.297,65.2202,251.0247,64.6387,251.1541,64.2237,250.7646,63.5938,250.5257,63.5938,250.9343,57.9344,250.8335,52.275,250.6753,46.6156,250.6467,40.9563,250.7646,35.2969,250.9059,35.3554,250.9068,34.693,251.4155,34.241,251.2974,33.5293,251.892,33.1129,251.9362,32.4684,251.998,32.6176,252.5332,32.3096,253.0736,32.0144,253.726,31.9893,254.2772,31.7201,254.7646,31.2969" style="stroke:#FF6F00;stroke-width:1.5;"/><text fill="#FFFFFF" font-family="'Roboto'" font-size="14" lengthAdjust="spacing" textLength="159.1406" x="260.7646" y="54.292">Corporate Governance</text><a href="/use-case/legal-entity-management/corporate-governance/directorships/" target="_top" title="/use-case/legal-entity-management/corporate-governance/directorships/" xlink:actuate="onRequest" xlink:href="/use-case/legal-entity-management/corporate-governance/directorships/" xlink:show="new" xlink:title="/use-case/legal-entity-management/corporate-governance/directorships/" xlink:type="simple"><text fill="#90EE90" font-family="'Roboto'" font-size="14" lengthAdjust="spacing" textLength="92.7842" x="486.9053" y="27.9951">Directorships</text></a><path d="M429.9053,49.4453 L429.9053,49.6321 L431.9053,49.077 L433.9053,49.6171 L435.9053,49.8006 L437.9053,48.8112 L439.9053,49.4453 L439.9053,49.4453 L439.8825,49.4193 L442.7803,46.6731 L445.7929,44.0578 L448.8853,41.5335 L451.7027,38.6955 L454.9053,36.2969 L455.0675,36.4819 L457.7206,33.4565 L460.8473,30.9714 L464.0318,28.5522 L466.8801,25.7495 L469.9053,23.1484 L469.9053,23.2091 L471.9053,23.12 L473.9053,23.3071 L475.9053,23.361 L477.9053,23.6691 L479.9053,23.1484" fill="none" style="stroke:#FF9900;stroke-width:1;"/><a href="/use-case/legal-entity-management/corporate-governance/organizational-structure/" target="_top" title="/use-case/legal-entity-management/corporate-governance/organizational-structure/" xlink:actuate="onRequest" xlink:href="/use-case/legal-entity-management/corporate-governance/organizational-structure/" xlink:show="new" xlink:title="/use-case/legal-entity-management/corporate-governance/organizational-structure/" xlink:type="simple"><text fill="#90EE90" font-family="'Roboto'" font-size="14" lengthAdjust="spacing" textLength="172.1016" x="486.9053" y="54.292">Organizational Structure</text></a><path d="M429.9053,49.4453 L429.9053,49.6321 L431.9053,49.077 L433.9053,49.6171 L435.9053,49.8006 L437.9053,48.8112 L439.9053,49.4453 L439.9053,49.4453 L439.9053,49.4108 L445.9053,49.2558 L451.9053,49.2749 L457.9053,49.415 L463.9053,49.138 L469.9053,49.4453 L469.9053,49.9374 L471.9053,48.8851 L473.9053,49.2695 L475.9053,49.8293 L477.9053,49.3691 L479.9053,49.4453" fill="none" style="stroke:#FF9900;stroke-width:1;"/><a href="/use-case/legal-entity-management/corporate-governance/signatories/" target="_top" title="/use-case/legal-entity-management/corporate-governance/signatories/" xlink:actuate="onRequest" xlink:href="/use-case/legal-entity-management/corporate-governance/signatories/" xlink:show="new" xlink:title="/use-case/legal-entity-management/corporate-governance/signatories/" xlink:type="simple"><text fill="#90EE90" font-family="'Roboto'" font-size="14" lengthAdjust="spacing" textLength="78.7227" x="486.9053" y="80.5889">Signatories</text></a><path d="M429.9053,49.4453 L429.9053,49.6321 L431.9053,49.077 L433.9053,49.6171 L435.9053,49.8006 L437.9053,48.8112 L439.9053,49.4453 L439.9053,49.4453 L439.8825,49.4193 L442.7803,51.9325 L445.7929,54.5765 L448.8853,57.3116 L451.7027,59.733 L454.9053,62.5938 L455.0675,62.7788 L457.7206,65.0128 L460.8473,67.787 L464.0318,70.6272 L466.8801,73.0838 L469.9053,75.7422 L469.9053,75.8028 L471.9053,75.7138 L473.9053,75.9009 L475.9053,75.9548 L477.9053,76.2628 L479.9053,75.7422" fill="none" style="stroke:#FF9900;stroke-width:1;"/><a href="/use-case/legal-entity-management/" target="_top" title="/use-case/legal-entity-management/" xlink:actuate="onRequest" xlink:href="/use-case/legal-entity-management/" xlink:show="new" xlink:title="/use-case/legal-entity-management/" xlink:type="simple"><text fill="#90EE90" font-family="'Roboto'" font-size="14" lengthAdjust="spacing" textLength="179.7646" x="14" y="54.292">Legal Entity Management</text></a><path d="M250.7646,49.4453 L250.7646,49.6321 L248.7646,49.077 L246.7646,49.6171 L244.7646,49.8006 L242.7646,48.8112 L240.7646,49.4453 L240.7646,49.4453 L240.7646,49.4108 L234.7646,49.2558 L228.7646,49.2749 L222.7646,49.415 L216.7646,49.138 L210.7646,49.4453 L210.7646,49.9374 L208.7646,48.8851 L206.7646,49.2695 L204.7646,49.8293 L202.7646,49.3691 L200.7646,49.4453" fill="none" style="stroke:#FF9900;stroke-width:1;"/><!--SRC=[xLfjJzj84FxkNx5NFhGLboRXe6fHLH52e8M4e0GgdQeARUn9iegzczjTmz7J_VSREt7MSHmxBtK1NVC9xym-yx9lCuyuKffAxJ7kU7HCR277Gb8DfO6u0yafjy6oVdEWppYGuxFRLktpvMsztMntIFZRsQySL7i7SPLkezw-FAbr_fpgfQXSrUeNjRF636X1fTqvQNJYTiXEl_-sNwdCL4xRbzTp2g5AyBCiDM9yJ2NrI8_Qeu4KFdVgmXKoKjIISeKQm7LC-TF366IJyL5Sb-ouR33K0md0BUibOTnsVGU87W8P00T9NJA3KAIF4tj23tyduJH2kKCSAaSuKmiIvFHUCWtadkdX18FT0ISAj6Pye98PkFxqkNvnsUXsIHMNGOmr4vmC4JH0qJYnJrq5iHYkgECW4DcFZNKcyKjqbhoBZNU7r17tWNOI9So4YvcuuKxu1qnLOZedqAU-gya_5Y6dWkjBwW5vqH4OlNWn7PiaqYpLTBZBlWEfxbl_nl5gKehx46t9h6LW-i75V0dNcSSRuzBJ0SpyIvb-dDWTS_ixa0k9uKzbiIs9XemTBfnrZSnj_rNjsC8R2uuxDZIsiUjB_PpaqVVSlVayEbJJ7bLGYDavIxOhVESdc16k2tPmabH1neojEYf8uHPkvpY0fVAXS4CDhfaktWpZ6cIVsb2ufIxyvGE-SbVu2ZARZIdN4xZh8RD779J2gzUegwbww5TyJewB2_2ftiQqpDN6XVIekoXDESDDrWTym233n4mbn-7mEaun4Ovdu8Vo9Uw5CfFNFu8XMmkPwqkeb64pa2yx-2z9VJ-ytF2Xmu-Tt5_yhf1uKL0-SE731tmHbU0VFuOhtyNj2KBZCvdnClt85oSIcUmbAuJvIoxcEFojWqhElIqgWaJ1Lr0Owa5fy9vp_ekAeC3yHu__Sqk_yVivPp-sYNhJ1pxoFr6w9oCAA-pAQjNdnhd82tFoV3bK3S5PBVRKq6qqJ_75akl4Zjr5_dOhBF9L5nXxRpqf9HQTZNhYG6RyY7hSOBIcjMGzNqEwEEvbr3qdwcsgr4-s_fAqfbI36eFD-ip694pUvfIMQXE_SiEcfhBPEJrz_nxb2M6yzBDswn4dGiuC9r8gtPAlNyk-WfADzqpPXG5rIn1MnoMFSkmyFVmgasOWYChcrapmxPkrkxiQH1edKtPOS4A4L4CsLcLo4l_S5bl80UNiEmrQ99objFHjxKiea_QS1C_FLBAjHSK6dABx332Mhlb0t2F0xJBPCfPrj09PLI3xyyHv5dCALYPPvgUamgn5hvYvomzk-W7D95H-16msVvADa-xBHep9-ePMv4Ys1SvXHJQ1Nuq7sGuva_dO3Zg3wzWEE9lTs0wx83x3EBM4oJ3-RK1Yc3ELnc0Ow6NaXV4kHbiOq0NEmY0cw8h4d1MuYfZf94iHip9FKCGEu8PSG_QzlUwEMjmWstC9Z-LXRfltwAbxMXwkqU4_abzFD745DEV6emsYouWXfn6l5jzv5nNPqjNv_tNMlzhdN-rpJljyvMBLTTDg4fofWlyagBxPg-mTlAbMUw1fjVBgXe-ukETXhyJmoj3CWzVMgxEh9b72brWcEanDDYTEVssTqpjAEZuFz0v9Umpy_EGY6i1LksDIyC1lw_nBooYytIyTCusbgaH7o9UM5VMu3MwBeAq-93VNfwLtLXCl8Xz3FoJOVjTn6slvWBBkVm00]--></g></svg>