<svg xmlns="http://www.w3.org/2000/svg" xmlns:xlink="http://www.w3.org/1999/xlink" contentStyleType="text/css" data-diagram-type="MINDMAP" height="97px" preserveAspectRatio="none" style="width:638px;height:97px;" version="1.1" viewBox="0 0 638 97" width="638px" zoomAndPan="magnify"><defs/><g><polygon fill="#4051B5" points="241.9243,30.1328,241.9243,30.343,251.9102,29.7185,261.896,30.3261,271.8818,30.5325,281.8677,29.4194,291.8535,30.0551,301.8394,29.7063,311.8252,29.7493,321.811,30.0647,331.7969,29.4414,341.7827,30.6865,351.7686,29.5025,361.7544,29.935,371.7402,30.5648,381.7261,30.047,391.7119,30.2011,401.6978,30.1328,401.6937,30.123,402.2862,30.4221,402.8596,30.6751,403.4695,31.0161,404.0461,31.2767,404.5262,31.3044,404.7354,31.391,404.8389,31.9026,405.1376,32.4949,405.4454,33.091,405.2413,33.4751,405.6978,34.1328,405.9239,34.1328,405.5989,39.5594,405.8757,44.9859,405.5327,50.4125,405.6749,55.8391,405.6978,61.2656,405.9261,61.3602,405.4484,61.8251,405.2616,62.4104,405.0991,63.0059,404.8887,63.5815,404.5262,64.0941,404.5257,64.0928,403.9971,64.4168,403.3218,64.3864,402.8654,64.8846,402.3334,65.2001,401.6978,65.2656,401.6978,65.7102,391.7119,65.8786,381.7261,64.7825,371.7402,64.6134,361.7544,64.6442,351.7686,65.2067,341.7827,65.0691,331.7969,65.947,321.811,65.0909,311.8252,64.9226,301.8394,65.4939,291.8535,64.5988,281.8677,64.7465,271.8818,65.9146,261.896,65.7013,251.9102,66.0001,241.9243,65.2656,241.8833,65.1665,241.3993,65.1296,240.8683,64.9788,240.167,64.4172,239.6493,64.2988,239.0959,64.0941,239.1347,64.1101,239.0623,63.6115,238.626,62.9621,238.5354,62.456,237.9881,61.7607,237.9243,61.2656,237.6986,61.2656,238.0922,55.8391,237.6853,50.4125,238.094,44.9859,237.9932,39.5594,237.9243,34.1328,237.8418,34.0986,238.0497,33.522,238.5342,33.06,238.5351,32.3976,239.0438,31.9456,239.0959,31.3044,239.0254,31.1342,239.7403,31.2602,240.289,30.9849,240.8242,30.6769,241.3647,30.3817,241.9243,30.1328" style="stroke:#FF6F00;stroke-width:1.5;"/><text fill="#FFFFFF" font-family="'Roboto'" font-size="13" lengthAdjust="spacing" textLength="147.7734" x="247.9243" y="52.1997">Corporate Governance</text><a href="/use-case/legal-entity-management/corporate-governance/directorships/" target="_top" title="/use-case/legal-entity-management/corporate-governance/directorships/" xlink:actuate="onRequest" xlink:href="/use-case/legal-entity-management/corporate-governance/directorships/" xlink:show="new" xlink:title="/use-case/legal-entity-management/corporate-governance/directorships/" xlink:type="simple"><text fill="#4051B5" font-family="'Roboto'" font-size="13" lengthAdjust="spacing" textLength="86.1567" x="462.6978" y="27.0669">Directorships</text></a><path d="M405.6978,47.6992 L405.6978,47.886 L407.6978,47.3309 L409.6978,47.871 L411.6978,48.0545 L413.6978,47.0651 L415.6978,47.6992 L415.6978,47.6992 L415.6756,47.6727 L418.576,45.0406 L421.5883,42.542 L424.6783,40.1362 L427.5004,37.4106 L430.6978,35.1328 L430.8558,35.3214 L433.5179,32.4048 L436.6413,30.0389 L439.821,27.7401 L442.6733,25.0505 L445.6978,22.5664 L445.6978,22.6271 L447.6978,22.538 L449.6978,22.7251 L451.6978,22.779 L453.6978,23.087 L455.6978,22.5664" fill="none" style="stroke:#FF6F00;stroke-width:1;"/><a href="/use-case/legal-entity-management/corporate-governance/organizational-structure/" target="_top" title="/use-case/legal-entity-management/corporate-governance/organizational-structure/" xlink:actuate="onRequest" xlink:href="/use-case/legal-entity-management/corporate-governance/organizational-structure/" xlink:show="new" xlink:title="/use-case/legal-entity-management/corporate-governance/organizational-structure/" xlink:type="simple"><text fill="#4051B5" font-family="'Roboto'" font-size="13" lengthAdjust="spacing" textLength="159.8086" x="462.6978" y="52.1997">Organizational Structure</text></a><path d="M405.6978,47.6992 L405.6978,47.886 L407.6978,47.3309 L409.6978,47.871 L411.6978,48.0545 L413.6978,47.0651 L415.6978,47.6992 L415.6978,47.6992 L415.6978,47.6647 L421.6978,47.5097 L427.6978,47.5288 L433.6978,47.6689 L439.6978,47.3919 L445.6978,47.6992 L445.6978,48.1913 L447.6978,47.139 L449.6978,47.5234 L451.6978,48.0832 L453.6978,47.623 L455.6978,47.6992" fill="none" style="stroke:#FF6F00;stroke-width:1;"/><a href="/use-case/legal-entity-management/corporate-governance/signatories/" target="_top" title="/use-case/legal-entity-management/corporate-governance/signatories/" xlink:actuate="onRequest" xlink:href="/use-case/legal-entity-management/corporate-governance/signatories/" xlink:show="new" xlink:title="/use-case/legal-entity-management/corporate-governance/signatories/" xlink:type="simple"><text fill="#4051B5" font-family="'Roboto'" font-size="13" lengthAdjust="spacing" textLength="73.0996" x="462.6978" y="77.3325">Signatories</text></a><path d="M405.6978,47.6992 L405.6978,47.886 L407.6978,47.3309 L409.6978,47.871 L411.6978,48.0545 L413.6978,47.0651 L415.6978,47.6992 L415.6978,47.6992 L415.6756,47.6727 L418.576,50.0672 L421.5883,52.5951 L424.6783,55.2158 L427.5004,57.5168 L430.6978,60.2656 L430.8558,60.4542 L433.5179,62.5642 L436.6413,65.2248 L439.821,67.9526 L442.6733,70.2895 L445.6978,72.832 L445.6978,72.8927 L447.6978,72.8036 L449.6978,72.9907 L451.6978,73.0446 L453.6978,73.3526 L455.6978,72.832" fill="none" style="stroke:#FF6F00;stroke-width:1;"/><a href="/use-case/legal-entity-management/" target="_top" title="/use-case/legal-entity-management/" xlink:actuate="onRequest" xlink:href="/use-case/legal-entity-management/" xlink:show="new" xlink:title="/use-case/legal-entity-management/" xlink:type="simple"><text fill="#4051B5" font-family="'Roboto'" font-size="13" lengthAdjust="spacing" textLength="166.9243" x="14" y="52.1997">Legal Entity Management</text></a><path d="M237.9243,47.6992 L237.9243,47.886 L235.9243,47.3309 L233.9243,47.871 L231.9243,48.0545 L229.9243,47.0651 L227.9243,47.6992 L227.9243,47.6992 L227.9243,47.6647 L221.9243,47.5097 L215.9243,47.5288 L209.9243,47.6689 L203.9243,47.3919 L197.9243,47.6992 L197.9243,48.1913 L195.9243,47.139 L193.9243,47.5234 L191.9243,48.0832 L189.9243,47.623 L187.9243,47.6992" fill="none" style="stroke:#FF6F00;stroke-width:1;"/><!--SRC=[xLfjJzj84FxkNx5NFj2AfaaeL1MgAY1GMWW49T3JgQhGnfuagzYxkTqr73tTVx-nOsTjuzXvmGT8bqzuT_QPbzsTdNd4lj9KQeznnwCJOWiv4P9gg0t5BKXEkGsMzPi30yQ179xSd1zykxXfTTgTBWb_6pkDtMP_DodIEsvrBeuEkdz4SZaYbmUjiuEJundG0v5Ez-YuczH3DWQ33uD6OoRofNDnbH88HOBVJEIWs-tydfQ9KImrPdn29VL8dzhZeHG-Trh25P9iQ4cvmZdWEY7szNu2qcLy74b55bkRX77RzHqWUWHa21maTSbidI83bEuBFNfBN3OSQKAvGnmgnxXI2n94-Kuo3UIEwT4KWzq29mgqPdoeiZ6v-lgjTNPntEkH9cwCc6WcE1aXQ82YSU60kWeIXbzInq4WifCOwqxTbMWi-PWOxuse8-u2wIpApFrhxeH_G2IIa3c20VLTJVws2FaYkBwW7f1NNO7UYrVHs3HwPlEYuHxx1QIvO_sJn3kGKjo5Q7DMpGFJzox6IxXE6c-2Eqs7CBClP_bXvZ2aJdmmBoIw7yqb3YagCdguS9PLaheGY-gnXJSH78zfg6nbq-VQEOsZxxdRwJWwLDC-LL29sfGcsnM-yn-e4QuBTd2JL4NAZAuM2aZXLgxdC82byhvoHSTSCrsz6iOro06reN9DFVZJ1tptBl5TP3QRKAwdS5SZPeyvA8MfruYhI3oqAxccnCG7yBdM9gHCQkD2UjHzE9jpXzji06tCrWKgPY8b1eVfE4T5E5w07yxFCI-SCt5z7mpPMiXIMqAX0ft1_BoBlqbQEs5omuSEFpPAVybS8J5HK3vquTCdV16Lu9y_XplVm-C9GkCpMV0oFUQB4q-Pw6KhX7IIInWEV-cWjdDlgl8WKm9Mv8QwLngybnp_gZoeCFxnu__Imc_iVidHJnoYVlJ0n_PdIlUiHs65tLYi-bmv5cLkJfylXweHE8lvdkkwZUeflbXo6T-nkoW_RfLvlkW6Bzv3nHreie5wFttUEjXKIePDY1EX1JretE87tOaYDUBvIWSj110wGAzZpPa-9g4lwguB6hH4mrraQhg6CP79j1bAKpsjgihtRUx6O2cWjMHzNyDy2LFOf3qexCDIRGfLQdrBYvHjalDe_zG4R3PWDiOdh61mA-z60O6WCR5XcQo2ZGyt-ItfkpxW7dCEGJsaYF1rC9tNgrPckT55qyLUqxAsMZ7VH4uCtrIhtP0VF-g-WfgD6Rlkmf2wDGZxZ9f7EVRm7dxLIJkOY1kGyzd4pv_MrjPY47byLzrXSXgl4PkeEZbAVgwBBUIGSlQB1iqchb9Q-hRs9TH99pM3cIYQMLUZOaDEqNm6w4lFV23kFk2HcXuhozfVW0XyFDhicHDKSR9RWfrAByc5MOgNCckp5zEaq-IzYwdD4YRgCM2BYQTYd7nRLgAQbbUq8BcqBd09dRGA_684qdh8XPJHUj059D5wmCMqq7hO5H51ngWv592nRmNsnzofFEh7GCzZVOnrYRB8W3uWUmnYXkV9h5c0v4cepj8x2IrfPYTn0LSaQOhpzh8dwk41MP-4UIeBI_lZ9m_Tyx9m2MhaYUnwfe6hWDKm5gtWNO4F9Gn6ithAeYhFvkxE8r0IQt0AkO_re_C91Z4_SBaqGcewzLX65i-hf1Ua3igDAeKlQEyV0Vt_XluvD_INBXQ6r-TjWYjLy5yYpNVRZUtTTyrc7pHjDbvVyp4NTpnivnXU8SqyU6EzFhbi4oLyYPMimzJqrEFoDzOflQMaw_D0Rezq9i1FZyxY0TorMoO53-osJh-V6u4FExL3fh6QbcW8-NvknGdbcDiYwFptoFNLbzf7gusvqaVNzmXmguKdLSjxdElz2m00]--></g></svg>