<svg xmlns="http://www.w3.org/2000/svg" xmlns:xlink="http://www.w3.org/1999/xlink" viewBox="-18.61 270.00 792.89 260.00" width="792.89px" height="260.00px" class="use-case-tree-svg">
  <rect width="100%" height="100%" fill="transparent" />
  <line x1="158.19" y1="337.50" x2="168.19" y2="337.50" stroke="#FF6F00" stroke-width="1.5" />
  <path d="M 168.19 337.50 C 186.19 337.50, 190.19 337.50, 208.19 337.50" stroke="#FF6F00" stroke-width="1.5" fill="none" />
  <path d="M 345.00 337.50 C 369.75 337.50, 375.25 287.50, 400.00 287.50" stroke="#FF6F00" stroke-width="1.5" fill="none" />
  <path d="M 345.00 337.50 C 369.75 337.50, 375.25 312.50, 400.00 312.50" stroke="#FF6F00" stroke-width="1.5" fill="none" />
  <path d="M 345.00 337.50 C 369.75 337.50, 375.25 337.50, 400.00 337.50" stroke="#FF6F00" stroke-width="1.5" fill="none" />
  <path d="M 345.00 337.50 C 369.75 337.50, 375.25 362.50, 400.00 362.50" stroke="#FF6F00" stroke-width="1.5" fill="none" />
  <path d="M 345.00 337.50 C 369.75 337.50, 375.25 387.50, 400.00 387.50" stroke="#FF6F00" stroke-width="1.5" fill="none" />
  <path d="M 345.00 337.50 C 369.75 337.50, 375.25 412.50, 400.00 412.50" stroke="#FF6F00" stroke-width="1.5" fill="none" />
  <path d="M 345.00 337.50 C 369.75 337.50, 375.25 437.50, 400.00 437.50" stroke="#FF6F00" stroke-width="1.5" fill="none" />
  <path d="M 345.00 337.50 C 369.75 337.50, 375.25 462.50, 400.00 462.50" stroke="#FF6F00" stroke-width="1.5" fill="none" />
  <path d="M 345.00 337.50 C 369.75 337.50, 375.25 487.50, 400.00 487.50" stroke="#FF6F00" stroke-width="1.5" fill="none" />
  <path d="M 345.00 337.50 C 369.75 337.50, 375.25 512.50, 400.00 512.50" stroke="#FF6F00" stroke-width="1.5" fill="none" />
  <line x1="572.34" y1="337.50" x2="616.67" y2="337.50" stroke="#FF6F00" stroke-width="1.5" />
  <path d="M 616.67 337.50 C 641.42 337.50, 646.92 312.50, 671.67 312.50" stroke="#FF6F00" stroke-width="1.5" fill="none" />
  <line x1="572.34" y1="337.50" x2="616.67" y2="337.50" stroke="#FF6F00" stroke-width="1.5" />
  <path d="M 616.67 337.50 C 641.42 337.50, 646.92 337.50, 671.67 337.50" stroke="#FF6F00" stroke-width="1.5" fill="none" />
  <line x1="572.34" y1="337.50" x2="616.67" y2="337.50" stroke="#FF6F00" stroke-width="1.5" />
  <path d="M 616.67 337.50 C 641.42 337.50, 646.92 362.50, 671.67 362.50" stroke="#FF6F00" stroke-width="1.5" fill="none" />
  <line x1="572.34" y1="337.50" x2="616.67" y2="337.50" stroke="#FF6F00" stroke-width="1.5" />
  <path d="M 616.67 337.50 C 641.42 337.50, 646.92 387.50, 671.67 387.50" stroke="#FF6F00" stroke-width="1.5" fill="none" />
  <line x1="572.34" y1="337.50" x2="616.67" y2="337.50" stroke="#FF6F00" stroke-width="1.5" />
  <path d="M 616.67 337.50 C 641.42 337.50, 646.92 412.50, 671.67 412.50" stroke="#FF6F00" stroke-width="1.5" fill="none" />
  <line x1="572.34" y1="337.50" x2="616.67" y2="337.50" stroke="#FF6F00" stroke-width="1.5" />
  <path d="M 616.67 337.50 C 641.42 337.50, 646.92 437.50, 671.67 437.50" stroke="#FF6F00" stroke-width="1.5" fill="none" />
  <line x1="572.34" y1="337.50" x2="616.67" y2="337.50" stroke="#FF6F00" stroke-width="1.5" />
  <path d="M 616.67 337.50 C 641.42 337.50, 646.92 462.50, 671.67 462.50" stroke="#FF6F00" stroke-width="1.5" fill="none" />
  <line x1="572.34" y1="337.50" x2="616.67" y2="337.50" stroke="#FF6F00" stroke-width="1.5" />
  <path d="M 616.67 337.50 C 641.42 337.50, 646.92 487.50, 671.67 487.50" stroke="#FF6F00" stroke-width="1.5" fill="none" />
  <a xlink:href="/use-case/client-360/" target="_top">
    <rect x="-13.61" y="325.00" width="171.80" height="25" rx="4" ry="4" fill="none" stroke="none" pointer-events="all" />
    <text x="-3.61" y="342.00" text-anchor="start" font-family="Roboto, sans-serif" font-size="13" fill="#4051B5" font-weight="normal">Client 360 / Customer 360</text>
  </a>
  <a xlink:href="/use-case/client-360/know-your-customer/" target="_top">
    <rect x="208.19" y="325.00" width="141.81" height="25" rx="4" ry="4" fill="none" stroke="none" pointer-events="all" />
    <text x="218.19" y="342.00" text-anchor="start" font-family="Roboto, sans-serif" font-size="13" fill="#4051B5" font-weight="normal">Know Your Customer</text>
  </a>
  <a xlink:href="/use-case/client-360/know-your-customer/activity-monitoring/" target="_top">
    <rect x="400.00" y="275.00" width="128.45" height="25" rx="4" ry="4" fill="none" stroke="none" pointer-events="all" />
    <text x="410.00" y="292.00" text-anchor="start" font-family="Roboto, sans-serif" font-size="13" fill="#4051B5" font-weight="normal">Activity Monitoring</text>
  </a>
  <a xlink:href="/use-case/client-360/know-your-customer/anti-money-laundering/" target="_top">
    <rect x="400.00" y="300.00" width="192.11" height="25" rx="4" ry="4" fill="none" stroke="none" pointer-events="all" />
    <text x="410.00" y="317.00" text-anchor="start" font-family="Roboto, sans-serif" font-size="13" fill="#4051B5" font-weight="normal">Anti Money Laundering (AML)</text>
  </a>
  <a xlink:href="/use-case/client-360/know-your-customer/core-record-management/" target="_top">
    <rect x="400.00" y="325.00" width="172.34" height="25" rx="4" ry="4" fill="#4051B5" stroke="#FF6F00" stroke-width="1.5" />
    <text x="410.00" y="342.00" text-anchor="start" font-family="Roboto, sans-serif" font-size="13" fill="#FFFFFF" font-weight="bold">Core Record Management</text>
  </a>
  <a xlink:href="/use-case/client-360/know-your-customer/core-record-management/addresses/" target="_top">
    <rect x="671.67" y="300.00" width="81.31" height="25" rx="4" ry="4" fill="none" stroke="none" pointer-events="all" />
    <text x="681.67" y="317.00" text-anchor="start" font-family="Roboto, sans-serif" font-size="13" fill="#4051B5" font-weight="normal">Addresses</text>
  </a>
  <a xlink:href="/use-case/client-360/know-your-customer/core-record-management/audit/" target="_top">
    <rect x="671.67" y="325.00" width="50.33" height="25" rx="4" ry="4" fill="none" stroke="none" pointer-events="all" />
    <text x="681.67" y="342.00" text-anchor="start" font-family="Roboto, sans-serif" font-size="13" fill="#4051B5" font-weight="normal">Audit</text>
  </a>
  <a xlink:href="/use-case/client-360/know-your-customer/core-record-management/buildings/" target="_top">
    <rect x="671.67" y="350.00" width="73.23" height="25" rx="4" ry="4" fill="none" stroke="none" pointer-events="all" />
    <text x="681.67" y="367.00" text-anchor="start" font-family="Roboto, sans-serif" font-size="13" fill="#4051B5" font-weight="normal">Buildings</text>
  </a>
  <a xlink:href="/use-case/client-360/know-your-customer/core-record-management/countries/" target="_top">
    <rect x="671.67" y="375.00" width="75.64" height="25" rx="4" ry="4" fill="none" stroke="none" pointer-events="all" />
    <text x="681.67" y="392.00" text-anchor="start" font-family="Roboto, sans-serif" font-size="13" fill="#4051B5" font-weight="normal">Countries</text>
  </a>
  <a xlink:href="/use-case/client-360/know-your-customer/core-record-management/jurisdictions/" target="_top">
    <rect x="671.67" y="400.00" width="94.61" height="25" rx="4" ry="4" fill="none" stroke="none" pointer-events="all" />
    <text x="681.67" y="417.00" text-anchor="start" font-family="Roboto, sans-serif" font-size="13" fill="#4051B5" font-weight="normal">Jurisdictions</text>
  </a>
  <a xlink:href="/use-case/client-360/know-your-customer/core-record-management/legal-entities/" target="_top">
    <rect x="671.67" y="425.00" width="97.61" height="25" rx="4" ry="4" fill="none" stroke="none" pointer-events="all" />
    <text x="681.67" y="442.00" text-anchor="start" font-family="Roboto, sans-serif" font-size="13" fill="#4051B5" font-weight="normal">Legal Entities</text>
  </a>
  <a xlink:href="/use-case/client-360/know-your-customer/core-record-management/locations/" target="_top">
    <rect x="671.67" y="450.00" width="77.02" height="25" rx="4" ry="4" fill="none" stroke="none" pointer-events="all" />
    <text x="681.67" y="467.00" text-anchor="start" font-family="Roboto, sans-serif" font-size="13" fill="#4051B5" font-weight="normal">Locations</text>
  </a>
  <a xlink:href="/use-case/client-360/know-your-customer/core-record-management/regions/" target="_top">
    <rect x="671.67" y="475.00" width="66.66" height="25" rx="4" ry="4" fill="none" stroke="none" pointer-events="all" />
    <text x="681.67" y="492.00" text-anchor="start" font-family="Roboto, sans-serif" font-size="13" fill="#4051B5" font-weight="normal">Regions</text>
  </a>
  <a xlink:href="/use-case/client-360/know-your-customer/crime-records/" target="_top">
    <rect x="400.00" y="350.00" width="105.00" height="25" rx="4" ry="4" fill="none" stroke="none" pointer-events="all" />
    <text x="410.00" y="367.00" text-anchor="start" font-family="Roboto, sans-serif" font-size="13" fill="#4051B5" font-weight="normal">Crime Records</text>
  </a>
  <a xlink:href="/use-case/client-360/know-your-customer/gdpr/" target="_top">
    <rect x="400.00" y="375.00" width="53.61" height="25" rx="4" ry="4" fill="none" stroke="none" pointer-events="all" />
    <text x="410.00" y="392.00" text-anchor="start" font-family="Roboto, sans-serif" font-size="13" fill="#4051B5" font-weight="normal">GDPR</text>
  </a>
  <a xlink:href="/use-case/client-360/know-your-customer/high-net-worth-individuals/" target="_top">
    <rect x="400.00" y="400.00" width="173.92" height="25" rx="4" ry="4" fill="none" stroke="none" pointer-events="all" />
    <text x="410.00" y="417.00" text-anchor="start" font-family="Roboto, sans-serif" font-size="13" fill="#4051B5" font-weight="normal">High Net Worth Individuals</text>
  </a>
  <a xlink:href="/use-case/client-360/know-your-customer/identification-verification/" target="_top">
    <rect x="400.00" y="425.00" width="164.19" height="25" rx="4" ry="4" fill="none" stroke="none" pointer-events="all" />
    <text x="410.00" y="442.00" text-anchor="start" font-family="Roboto, sans-serif" font-size="13" fill="#4051B5" font-weight="normal">Identification Verification</text>
  </a>
  <a xlink:href="/use-case/client-360/know-your-customer/peps/" target="_top">
    <rect x="400.00" y="450.00" width="221.67" height="25" rx="4" ry="4" fill="none" stroke="none" pointer-events="all" />
    <text x="410.00" y="467.00" text-anchor="start" font-family="Roboto, sans-serif" font-size="13" fill="#4051B5" font-weight="normal">Politically Exposed Persons (PEPs)</text>
  </a>
  <a xlink:href="/use-case/client-360/know-your-customer/risk-management/" target="_top">
    <rect x="400.00" y="475.00" width="124.27" height="25" rx="4" ry="4" fill="none" stroke="none" pointer-events="all" />
    <text x="410.00" y="492.00" text-anchor="start" font-family="Roboto, sans-serif" font-size="13" fill="#4051B5" font-weight="normal">Risk Management</text>
  </a>
  <a xlink:href="/use-case/client-360/know-your-customer/sanctions/" target="_top">
    <rect x="400.00" y="500.00" width="77.48" height="25" rx="4" ry="4" fill="none" stroke="none" pointer-events="all" />
    <text x="410.00" y="517.00" text-anchor="start" font-family="Roboto, sans-serif" font-size="13" fill="#4051B5" font-weight="normal">Sanctions</text>
  </a>
</svg>