<svg xmlns="http://www.w3.org/2000/svg" xmlns:xlink="http://www.w3.org/1999/xlink" contentStyleType="text/css" data-diagram-type="MINDMAP" height="97px" preserveAspectRatio="none" style="width:871px;height:97px;" version="1.1" viewBox="0 0 871 97" width="871px" zoomAndPan="magnify"><defs/><g><polygon fill="#4051B5" points="447.7842,30.1328,447.7842,30.343,458.0215,29.7185,468.2588,30.3261,478.4962,30.5325,488.7335,29.4194,498.9708,30.0551,509.2082,29.7063,519.4455,29.7493,529.6828,30.0647,539.9201,29.4414,550.1575,30.6865,560.3948,29.5025,570.6321,29.935,580.8695,30.5648,591.1068,30.047,601.3441,30.2011,611.5814,30.1009,621.8188,30.3113,632.0561,30.3719,642.2934,30.7185,652.5308,30.1328,652.6164,30.3395,653.1831,30.5763,653.6946,30.6799,654.287,30.9785,654.8831,31.2863,655.3592,31.3044,655.1371,31.2124,655.8025,31.9566,655.7365,32.3979,656.2265,33.0695,656.144,33.504,656.5308,34.1328,656.5079,34.1328,656.778,39.5594,656.5145,44.9859,656.5659,50.4125,656.6436,55.8391,656.5308,61.2656,656.6589,61.3187,656.2952,61.8308,656.1506,62.4336,655.6515,62.8897,655.6811,63.5646,655.3592,64.0941,655.4291,64.2629,654.8502,64.4653,654.306,64.7515,653.6005,64.6482,653.0133,64.8305,652.5308,65.2656,652.5308,64.6442,642.2934,65.2067,632.0561,65.0691,621.8188,65.947,611.5814,65.0909,601.3441,64.9226,591.1068,65.4939,580.8695,64.5988,570.6321,64.7465,560.3948,65.9146,550.1575,65.7013,539.9201,66.0001,529.6828,64.9438,519.4455,65.5848,509.2082,65.856,498.9708,64.7932,488.7335,65.1698,478.4962,65.3916,468.2588,65.9174,458.0215,65.2614,447.7842,65.2656,447.8432,65.4081,447.1479,64.8608,446.5664,64.5884,446.1514,64.7178,445.43,64.1076,444.9558,64.0941,445.1125,64.159,444.7851,63.5547,444.4046,62.9285,444.1439,62.3519,444.1598,61.8898,443.7842,61.2656,443.6844,61.2656,443.9815,55.8391,443.5999,50.4125,443.99,44.9859,443.9456,39.5594,443.7842,34.1328,443.8596,34.1641,444.033,33.5732,444.4766,33.0941,444.6761,32.514,444.7736,31.8917,444.9558,31.3044,444.99,31.387,445.5048,31.03,446.1785,31.0564,446.6726,30.6491,447.2405,30.4203,447.7842,30.1328" style="stroke:#FF6F00;stroke-width:1.5;"/><text fill="#FFFFFF" font-family="'Roboto'" font-size="13" lengthAdjust="spacing" textLength="192.7466" x="453.7842" y="52.1997">Vendor Vetting &amp; Onboarding</text><a href="/use-case/supply-chain-management/vendor-management/vendor-vetting-and-onboarding/vendor-due-diligence/" target="_top" title="/use-case/supply-chain-management/vendor-management/vendor-vetting-and-onboarding/vendor-due-diligence/" xlink:actuate="onRequest" xlink:href="/use-case/supply-chain-management/vendor-management/vendor-vetting-and-onboarding/vendor-due-diligence/" xlink:show="new" xlink:title="/use-case/supply-chain-management/vendor-management/vendor-vetting-and-onboarding/vendor-due-diligence/" xlink:type="simple"><text fill="#4051B5" font-family="'Roboto'" font-size="13" lengthAdjust="spacing" textLength="141.6733" x="713.5308" y="27.0669">Vendor Due Diligence</text></a><path d="M656.5308,47.6992 L656.5308,47.886 L658.5308,47.3309 L660.5308,47.871 L662.5308,48.0545 L664.5308,47.0651 L666.5308,47.6992 L666.5308,47.6992 L666.5086,47.6727 L669.409,45.0406 L672.4213,42.542 L675.5113,40.1362 L678.3334,37.4106 L681.5308,35.1328 L681.6888,35.3214 L684.3509,32.4048 L687.4743,30.0389 L690.654,27.7401 L693.5063,25.0505 L696.5308,22.5664 L696.5308,22.6271 L698.5308,22.538 L700.5308,22.7251 L702.5308,22.779 L704.5308,23.087 L706.5308,22.5664" fill="none" style="stroke:#FF6F00;stroke-width:1;"/><a href="/use-case/supply-chain-management/vendor-management/vendor-vetting-and-onboarding/vendor-kyc/" target="_top" title="/use-case/supply-chain-management/vendor-management/vendor-vetting-and-onboarding/vendor-kyc/" xlink:actuate="onRequest" xlink:href="/use-case/supply-chain-management/vendor-management/vendor-vetting-and-onboarding/vendor-kyc/" xlink:show="new" xlink:title="/use-case/supply-chain-management/vendor-management/vendor-vetting-and-onboarding/vendor-kyc/" xlink:type="simple"><text fill="#4051B5" font-family="'Roboto'" font-size="13" lengthAdjust="spacing" textLength="76.356" x="713.5308" y="52.1997">Vendor KYC</text></a><path d="M656.5308,47.6992 L656.5308,47.886 L658.5308,47.3309 L660.5308,47.871 L662.5308,48.0545 L664.5308,47.0651 L666.5308,47.6992 L666.5308,47.6992 L666.5308,47.6647 L672.5308,47.5097 L678.5308,47.5288 L684.5308,47.6689 L690.5308,47.3919 L696.5308,47.6992 L696.5308,48.1913 L698.5308,47.139 L700.5308,47.5234 L702.5308,48.0832 L704.5308,47.623 L706.5308,47.6992" fill="none" style="stroke:#FF6F00;stroke-width:1;"/><a href="/use-case/supply-chain-management/vendor-management/vendor-vetting-and-onboarding/vendor-onboarding/" target="_top" title="/use-case/supply-chain-management/vendor-management/vendor-vetting-and-onboarding/vendor-onboarding/" xlink:actuate="onRequest" xlink:href="/use-case/supply-chain-management/vendor-management/vendor-vetting-and-onboarding/vendor-onboarding/" xlink:show="new" xlink:title="/use-case/supply-chain-management/vendor-management/vendor-vetting-and-onboarding/vendor-onboarding/" xlink:type="simple"><text fill="#4051B5" font-family="'Roboto'" font-size="13" lengthAdjust="spacing" textLength="127.1563" x="713.5308" y="77.3325">Vendor Onboarding</text></a><path d="M656.5308,47.6992 L656.5308,47.886 L658.5308,47.3309 L660.5308,47.871 L662.5308,48.0545 L664.5308,47.0651 L666.5308,47.6992 L666.5308,47.6992 L666.5086,47.6727 L669.409,50.0672 L672.4213,52.5951 L675.5113,55.2158 L678.3334,57.5168 L681.5308,60.2656 L681.6888,60.4542 L684.3509,62.5642 L687.4743,65.2248 L690.654,67.9526 L693.5063,70.2895 L696.5308,72.832 L696.5308,72.8927 L698.5308,72.8036 L700.5308,72.9907 L702.5308,73.0446 L704.5308,73.3526 L706.5308,72.832" fill="none" style="stroke:#FF6F00;stroke-width:1;"/><a href="/use-case/supply-chain-management/vendor-management/" target="_top" title="/use-case/supply-chain-management/vendor-management/" xlink:actuate="onRequest" xlink:href="/use-case/supply-chain-management/vendor-management/" xlink:show="new" xlink:title="/use-case/supply-chain-management/vendor-management/" xlink:type="simple"><text fill="#4051B5" font-family="'Roboto'" font-size="13" lengthAdjust="spacing" textLength="136.4492" x="250.335" y="52.1997">Vendor Management</text></a><a href="/use-case/supply-chain-management/" target="_top" title="/use-case/supply-chain-management/" xlink:actuate="onRequest" xlink:href="/use-case/supply-chain-management/" xlink:show="new" xlink:title="/use-case/supply-chain-management/" xlink:type="simple"><text fill="#4051B5" font-family="'Roboto'" font-size="13" lengthAdjust="spacing" textLength="175.335" x="14" y="52.1997">Supply Chain Management</text></a><path d="M246.335,47.6992 L246.335,47.886 L244.335,47.3309 L242.335,47.871 L240.335,48.0545 L238.335,47.0651 L236.335,47.6992 L236.335,47.6992 L236.335,47.6647 L230.335,47.5097 L224.335,47.5288 L218.335,47.6689 L212.335,47.3919 L206.335,47.6992 L206.335,48.1913 L204.335,47.139 L202.335,47.5234 L200.335,48.0832 L198.335,47.623 L196.335,47.6992" fill="none" style="stroke:#FF6F00;stroke-width:1;"/><path d="M443.7842,47.6992 L443.7842,47.886 L441.7842,47.3309 L439.7842,47.871 L437.7842,48.0545 L435.7842,47.0651 L433.7842,47.6992 L433.7842,47.6992 L433.7842,47.6647 L427.7842,47.5097 L421.7842,47.5288 L415.7842,47.6689 L409.7842,47.3919 L403.7842,47.6992 L403.7842,48.1913 L401.7842,47.139 L399.7842,47.5234 L397.7842,48.0832 L395.7842,47.623 L393.7842,47.6992" fill="none" style="stroke:#FF6F00;stroke-width:1;"/><!--SRC=[xLh_Rzeu5FyzVuLlbQwREZResccgfgaKQBSMIWLjJzCqLIOnO97OdEt0SQVxt-yb93X9GyAtN5jf_BJPBv_tpNv-xwEUIeM5SYYp73n64y8iBaeJeXHbWn9cLecp7iV2WlyQncyMwLD6qDd5GwlwxVgXrcwsEyZ_xHsLZokzuwX8jr5hNzUhdU-1N8h8JRLsLRreB80UYRGxzKOdgWVjzViV- -NoGkIyVNqR4_15lDz2fDhfjF-8ouGeXXnHDiO2EwY7pT50S9TPDMvpWVQKm4p27c4g8lPrDYR2fcmKI0KM6_k8CjDsBOBKaA01OKHW6os-awWFqZskXc-HJGT3XI2uoC9Y15ygZlY4YAcWYg0fLSCv1eLq83dFXKp6vFRhjzhLTQFRHHL831yhoXaQ0gY7ek33FhObYHX-WoqlY-WeijQPkol0MFGfijuTOejFFUaaoiBzEsRv_o21I4IcJlhOjHNwnq3ed3DrZHs2NdKuUCzV1MlpwEda1SjT-ZT1bIFZtoXULGW-zT6MVBKCJCriY1UthJZU63AD1sHXNyhdPud343lntZuNu7wm5pcae4ZhOTnQLqdiGgogn-JEc3CufhwoZKrVQkSyZgvZ7yRZQ665UrYIGjJ6D9asTwt_GGstRM9wDqaMf4phge60u7RXUiuyM2ncXIjgC4LLyMeeKqJqiKaArzGbVxg4cUG67aXgqZ5cQWvtEwJcY14feVHgSHc8-tP5lyanyH5yghKHALtQ61SEjX_lfjpX9ksJ9bJh31KBaHo3_NASei9Vpy3tzvUOv-_fk7xmbap5HQujlb26Jcz_sSNVHxKZlxXvpSq-silzHMk5W4A1sS0cdp_3YoWv-_B5ptmNZYVX2fx9Z9TfbozEkAMZb-mGuaKkOZZv2unbs7ueoeD42rYG6t8c5N5USloByg30-8UF_qiBlxRx9KS_SeXwmGCVsfzetPCU-HrsURNkS-DOvBavVxuiB8V4MittLDTDK8_XnHBh-0xJHVvnAyppLHEy-WmLJg3H0Uh3_7bhmr0fA0mXLe3cpQ3XhEzD9nALaEDAvOqG1E4-U1rgJimn4Nt1T9qne4K6xYnJupsCZanYp90AgtbNbP-tfOc1La0fGNkk8iibT6CJzo1p3ekDALZAxItDKhQFMa7-v9YOj4zDY8_VmK0gfqEFG51GsA1DbbxY_II_HJtR9P1ZneZN3qd4NULjfysgXLckTU5uirSnZ8DxdtX2ztEo0_sEsffsAfKUq8yVxrr9IYOKxlVI7O_jMSaSmjKlEPZ1AE_0yFi-8AyYAoY0RIsMVlu4k1NnKDVVG3Ll8uvnSB2fIPaCMxXhkQHaKPiEl7bYuKKTSbWFLuitOZGp5wglljUALnXP2VNgKm3gJs4jA5w6SReERxaxbk-PysbXRLw3J8j_aWgp5esclqtM4LtzesKYP69pYBDTm6RpPDauwRPin8ojhsX5BcnRu1psQnFurVYkxP0p6Qxje3CuhUs0ircixR0BugsqKKiOAstV1cILlbDfJ9M6NaPIQUiYNPm6VSHDQSG4BPNuPWLEAg8woKP5jCI9gCW5t91JogxRwvwenmTaUyxegIpC7UUVF7JFoy8rc9mdikkP1gu04aPRj85t6Jxa42wLuXcMeZnRcfqTC2XRK22fZ_NEwG-Dc1wuLDOZjXrxB0EBbtNIAp8T-KRbmcUm4Jj0_yK__E8VjkKVRcneN-zQJJI1DiZxqvlAkyFouV6xIgL75AwKNz-n4UDJvW-T52wweWvvOxo-k6aYoLq1_RP5vVnkmkTlZ4iymQZZCa_k1BN7X5tMhy8564GcL73cEMDSthUqmCUZqXbLqFCBC0JTjuomx3MOoJt3Jz3TxNdfaz64Ykv2F4uGOKODxfCICzZh_WS0]--></g></svg>