<svg xmlns="http://www.w3.org/2000/svg" xmlns:xlink="http://www.w3.org/1999/xlink" contentStyleType="text/css" data-diagram-type="MINDMAP" height="100px" preserveAspectRatio="none" style="width:920px;height:100px;" version="1.1" viewBox="0 0 920 100" width="920px" zoomAndPan="magnify"><defs/><g><polygon fill="#4051B5" points="471.7676,31.2969,471.7676,31.5071,481.7482,30.8826,491.7288,31.4902,501.7094,31.6966,511.69,30.5835,521.6706,31.2192,531.6512,30.8704,541.6318,30.9134,551.6124,31.2287,561.593,30.6055,571.5736,31.8505,581.5542,30.6666,591.5348,31.0991,601.5154,31.7288,611.496,31.2111,621.4766,31.3651,631.4572,31.2649,641.4378,31.4754,651.4184,31.536,661.399,31.8826,671.3796,31.9679,681.3602,31.9761,691.3408,31.2969,691.3733,31.3753,691.9656,31.674,692.5618,31.9818,692.9459,31.7777,693.6901,32.4431,694.1692,32.4684,694.0779,32.4306,694.568,33.1022,694.4854,33.5367,694.8511,34.1568,695.3349,34.8258,695.3408,35.2969,695.3246,35.2969,695.3759,40.9563,695.4537,46.6156,695.4796,52.275,695.3395,57.9344,695.3408,63.5938,695.4293,63.6304,694.9302,64.0864,694.9598,64.7614,694.8067,65.3607,694.5405,65.9132,694.1692,66.4222,694.2474,66.611,693.5419,66.5077,692.9547,66.69,692.3929,66.9338,691.899,67.3413,691.3408,67.5938,691.3408,67.3972,681.3602,68.2752,671.3796,67.4191,661.399,67.2507,651.4184,67.822,641.4378,66.9269,631.4572,67.0746,621.4766,68.2427,611.496,68.0294,601.5154,68.3282,591.5348,67.272,581.5542,67.9129,571.5736,68.1842,561.593,67.1213,551.6124,67.4979,541.6318,67.7197,531.6512,68.2455,521.6706,67.5896,511.69,68.0563,501.7094,67.04,491.7288,66.9165,481.7482,68.0974,471.7676,67.5938,471.6761,67.373,471.2668,67.5162,470.6626,67.1888,470.0363,66.8083,469.4597,66.5475,468.9392,66.4222,469.0804,66.4807,468.6127,65.8183,468.6528,65.3663,468.066,64.6546,468.192,64.2382,467.7676,63.5938,467.929,63.5938,467.8492,57.9344,467.7833,52.275,468.0098,46.6156,467.9721,40.9563,467.7676,35.2969,467.8197,35.3185,468.0845,34.7654,468.1961,34.1489,468.6912,33.6912,468.7525,33.0539,468.9392,32.4684,468.9612,32.5216,469.4272,32.0468,470.0188,31.875,470.7039,31.929,471.2567,31.6635,471.7676,31.2969" style="stroke:#FF6F00;stroke-width:1.5;"/><text fill="#FFFFFF" font-family="'Roboto'" font-size="14" lengthAdjust="spacing" textLength="207.5732" x="477.7676" y="54.292">Vendor Vetting &amp; Onboarding</text><a href="/use-case/supply-chain-management/vendor-management/vendor-vetting-and-onboarding/vendor-due-diligence/" target="_top" title="/use-case/supply-chain-management/vendor-management/vendor-vetting-and-onboarding/vendor-due-diligence/" xlink:actuate="onRequest" xlink:href="/use-case/supply-chain-management/vendor-management/vendor-vetting-and-onboarding/vendor-due-diligence/" xlink:show="new" xlink:title="/use-case/supply-chain-management/vendor-management/vendor-vetting-and-onboarding/vendor-due-diligence/" xlink:type="simple"><text fill="#90EE90" font-family="'Roboto'" font-size="14" lengthAdjust="spacing" textLength="152.5713" x="752.3408" y="27.9951">Vendor Due Diligence</text></a><path d="M695.3408,49.4453 L695.3408,49.6321 L697.3408,49.077 L699.3408,49.6171 L701.3408,49.8006 L703.3408,48.8112 L705.3408,49.4453 L705.3408,49.4453 L705.3181,49.4193 L708.2159,46.6731 L711.2285,44.0578 L714.3209,41.5335 L717.1383,38.6955 L720.3408,36.2969 L720.503,36.4819 L723.1562,33.4565 L726.2829,30.9714 L729.4674,28.5522 L732.3157,25.7495 L735.3408,23.1484 L735.3408,23.2091 L737.3408,23.12 L739.3408,23.3071 L741.3408,23.361 L743.3408,23.6691 L745.3408,23.1484" fill="none" style="stroke:#FF9900;stroke-width:1;"/><a href="/use-case/supply-chain-management/vendor-management/vendor-vetting-and-onboarding/vendor-kyc/" target="_top" title="/use-case/supply-chain-management/vendor-management/vendor-vetting-and-onboarding/vendor-kyc/" xlink:actuate="onRequest" xlink:href="/use-case/supply-chain-management/vendor-management/vendor-vetting-and-onboarding/vendor-kyc/" xlink:show="new" xlink:title="/use-case/supply-chain-management/vendor-management/vendor-vetting-and-onboarding/vendor-kyc/" xlink:type="simple"><text fill="#90EE90" font-family="'Roboto'" font-size="14" lengthAdjust="spacing" textLength="82.2295" x="752.3408" y="54.292">Vendor KYC</text></a><path d="M695.3408,49.4453 L695.3408,49.6321 L697.3408,49.077 L699.3408,49.6171 L701.3408,49.8006 L703.3408,48.8112 L705.3408,49.4453 L705.3408,49.4453 L705.3408,49.4108 L711.3408,49.2558 L717.3408,49.2749 L723.3408,49.415 L729.3408,49.138 L735.3408,49.4453 L735.3408,49.9374 L737.3408,48.8851 L739.3408,49.2695 L741.3408,49.8293 L743.3408,49.3691 L745.3408,49.4453" fill="none" style="stroke:#FF9900;stroke-width:1;"/><a href="/use-case/supply-chain-management/vendor-management/vendor-vetting-and-onboarding/vendor-onboarding/" target="_top" title="/use-case/supply-chain-management/vendor-management/vendor-vetting-and-onboarding/vendor-onboarding/" xlink:actuate="onRequest" xlink:href="/use-case/supply-chain-management/vendor-management/vendor-vetting-and-onboarding/vendor-onboarding/" xlink:show="new" xlink:title="/use-case/supply-chain-management/vendor-management/vendor-vetting-and-onboarding/vendor-onboarding/" xlink:type="simple"><text fill="#90EE90" font-family="'Roboto'" font-size="14" lengthAdjust="spacing" textLength="136.9375" x="752.3408" y="80.5889">Vendor Onboarding</text></a><path d="M695.3408,49.4453 L695.3408,49.6321 L697.3408,49.077 L699.3408,49.6171 L701.3408,49.8006 L703.3408,48.8112 L705.3408,49.4453 L705.3408,49.4453 L705.3181,49.4193 L708.2159,51.9325 L711.2285,54.5765 L714.3209,57.3116 L717.1383,59.733 L720.3408,62.5938 L720.503,62.7788 L723.1562,65.0128 L726.2829,67.787 L729.4674,70.6272 L732.3157,73.0838 L735.3408,75.7422 L735.3408,75.8028 L737.3408,75.7138 L739.3408,75.9009 L741.3408,75.9548 L743.3408,76.2628 L745.3408,75.7422" fill="none" style="stroke:#FF9900;stroke-width:1;"/><a href="/use-case/supply-chain-management/vendor-management/" target="_top" title="/use-case/supply-chain-management/vendor-management/" xlink:actuate="onRequest" xlink:href="/use-case/supply-chain-management/vendor-management/" xlink:show="new" xlink:title="/use-case/supply-chain-management/vendor-management/" xlink:type="simple"><text fill="#90EE90" font-family="'Roboto'" font-size="14" lengthAdjust="spacing" textLength="146.9453" x="263.8223" y="54.292">Vendor Management</text></a><a href="/use-case/supply-chain-management/" target="_top" title="/use-case/supply-chain-management/" xlink:actuate="onRequest" xlink:href="/use-case/supply-chain-management/" xlink:show="new" xlink:title="/use-case/supply-chain-management/" xlink:type="simple"><text fill="#90EE90" font-family="'Roboto'" font-size="14" lengthAdjust="spacing" textLength="188.8223" x="14" y="54.292">Supply Chain Management</text></a><path d="M259.8223,49.4453 L259.8223,49.6321 L257.8223,49.077 L255.8223,49.6171 L253.8223,49.8006 L251.8223,48.8112 L249.8223,49.4453 L249.8223,49.4453 L249.8223,49.4108 L243.8223,49.2558 L237.8223,49.2749 L231.8223,49.415 L225.8223,49.138 L219.8223,49.4453 L219.8223,49.9374 L217.8223,48.8851 L215.8223,49.2695 L213.8223,49.8293 L211.8223,49.3691 L209.8223,49.4453" fill="none" style="stroke:#FF9900;stroke-width:1;"/><path d="M467.7676,49.4453 L467.7676,49.6321 L465.7676,49.077 L463.7676,49.6171 L461.7676,49.8006 L459.7676,48.8112 L457.7676,49.4453 L457.7676,49.4453 L457.7676,49.4108 L451.7676,49.2558 L445.7676,49.2749 L439.7676,49.415 L433.7676,49.138 L427.7676,49.4453 L427.7676,49.9374 L425.7676,48.8851 L423.7676,49.2695 L421.7676,49.8293 L419.7676,49.3691 L417.7676,49.4453" fill="none" style="stroke:#FF9900;stroke-width:1;"/><!--SRC=[xLfjRzis4FwkNy4rmD8YKsjdIT46HH77Tj8cTXpOIO2YA09Qect24kcHL39ls7_VIPPCMfRbjwf9jlfJInwVU-x4bxi7EPOA2-LJvlfuXEu9SxcmxubIbFLjp5oRiox7meN_MjOlBkbHHj39sLspyldohjfgjDee-kqSb0xBtKFJf5EljYvhbVQNs2x3vAfIlQYSrQT0SoQjTgtUDlsWdLxlRQzKcfgSjYwlPmmYa_1dMN98sGWBxACkTePzmGFcLhd7HMAe16OIB0XJXl6dyOY81cL3qnRjUBG_K7r12BEiNKIPumKkGMf0K9ym8h27fX0IzM1Xbwl1RoXQXY2LoCLY22iLH_oUY0T15K4FL0qc61IIZ-GaypATWUjFdwiNb_LE1vNXC_2HefoX0O26A0eMzh0dYH735NR3RuOEZB7s97u1PD4xOxmpm2v_2AtJA54cFCZ43NEZVv3OnB2faHuEF8N-jX0wvKnTOf-W5sqEqVCNyTWaaVfJnSCT-XT1vGFh7nEl8WH_YD0Mh5e4fiOUv8jxxYpU23uzxfCflupb9wdTCRE_mtak8FnupjYIu4ZxOTnTrydCzb_LZyFz4MUmOoDd6rDVo7EIny3tzcVpw6A5krYIGjpEU78y7hW_m0ttFEA49qaMv4pxgeA1u5xXVav2M2p6XJkgCqLLyMueKqJqi4CAzzGXVmI4EUGAdaFgq15cQW9tFQ3Ea14fuUhLvZ8sZtYPQvPGd8FFP6jOwQkDSU5ZRtusummtQ8_00qPoN4nDbX2EhkCC5z5u3duqlu1UDAVp-diuv2WkbdA9Z79yXlEB3lukgXv4brjOokoYdQK_ywuGS55WrlV8Xm_m8ahEFdwCldm7jYVX2fx9d9VfUxuuoPJENhf2cBta3EBaJo3Bi7TNL0IfWg-WCEHOAk8_v_mN5K61-KyU_-UMVitxEMVVs4JT-85F-ATAztH4KOLTMgtwt3WNoyASF5ykbWFYhXPxPkWEkCVmOebrOeVkOlbsAopoLJymDE5gKahCaqrwud1EyqXwt72qefIWtK2Hx6cJPT8zf-fjBEKFzhwBch7c84V4eJtgG18cRtD6IxK9hwLXOrtPx9oUldyFywb9i_IpzcuZSGJTJbfqz2jgQMd4jk_Grwzl0abi1wwRDp8OZRonxGnWmze-Pj20-j2olOa55cC4nR3DwT2tRm2t8XxgH1Ee6axCOkpjRKefLmLAPjs0s2xrQ3-iWgTHr0A2QibeyII6OsVg-k9BjNY7naZYL-y2S7yCOx6OPbd7wsXh1OfLJrmMqeTsPKreTaacp5fga5wx-9x9lazozP_l0Pilz-JZP7FPIE1Ptz6Aaiwsm4j4d4tWLvDjjaFE5MgsWywHPhO3pXTZjiCkI7xHf1O8BvhV1fgBFbDPWek6NgIrQ7Q6og91voGMZPXILr9hLf1M3DTfKSNmCgkd60TmGsaa_zvUTqVDRv3jfO_7OhYqAttqr3qjXci84e_4wuachW0jGJFQ8BgS69Re1kNYXOAY8bluTVv_Gi3FRlzdj_-VwFQlFAWDRveDQFI53Fyye_nwlxH_-BfSxXA5owMNDsp8-0EBEZeA5vkYFdbblJoxQY390m75h4lbv0Z1ybVMERx7g1smqEu8jKQ4dTSkaW6eyk-fu2mCnZg_RMg3jmVs2LLGK0iWWcwRLjA9rvd3G-97wERwr7vdDU2w320VHuWmgmg7JOanp7N-1G00]--></g></svg>