<svg xmlns="http://www.w3.org/2000/svg" xmlns:xlink="http://www.w3.org/1999/xlink" contentStyleType="text/css" data-diagram-type="MINDMAP" height="127px" preserveAspectRatio="none" style="width:1102px;height:127px;" version="1.1" viewBox="0 0 1102 127" width="1102px" zoomAndPan="magnify"><defs/><g><polygon fill="#4051B5" points="364.2354,44.4453,364.2354,44.6555,374.1556,44.031,384.0758,44.6386,393.996,44.845,403.9162,43.7319,413.8364,44.3676,423.7566,44.0188,433.6768,44.0618,443.597,44.3772,453.5172,43.7539,463.4374,44.999,473.3576,43.815,483.2778,44.2475,493.198,44.8773,503.1182,44.3595,513.0384,44.5136,522.9586,44.4134,532.8788,44.6238,542.799,44.6844,552.7192,45.031,562.6394,45.1164,572.5596,45.1246,582.4798,44.6999,592.4,44.9089,602.3202,45.1475,612.2404,43.7241,622.1606,45.1238,632.0808,44.1488,642.001,44.9791,651.9212,43.9503,661.8414,44.3768,671.7616,45.1869,681.6818,44.3966,691.602,44.5506,701.5222,44.7839,711.4424,44.4453,711.4955,44.5735,712.0076,44.6784,712.6104,45.0024,713.0664,44.972,713.7414,45.4702,714.2708,45.6169,714.4396,45.6868,714.642,46.2393,714.9282,46.8265,714.825,47.2523,715.0072,47.7964,715.4424,48.4453,715.2352,48.4453,715.4228,54.1047,715.3769,59.7641,715.6695,65.4234,715.3842,71.0828,715.4424,76.7422,715.3367,76.6984,715.2784,77.337,714.7684,77.7885,714.5796,78.373,714.705,79.0877,714.2708,79.5706,714.3264,79.7048,713.7988,80.0311,713.0984,79.9401,712.6145,80.3719,712.0834,80.6897,711.4424,80.7422,711.4424,80.2698,701.5222,80.6463,691.602,80.8682,681.6818,81.3939,671.7616,80.738,661.8414,81.2048,651.9212,80.1884,642.001,80.0649,632.0808,81.2458,622.1606,80.0252,612.2404,81.2511,602.3202,80.9488,592.4,80.4743,582.4798,80.3884,572.5596,81.2009,562.6394,80.4429,552.7192,81.334,542.799,80.1894,532.8788,81.3596,522.9586,81.2265,513.0384,80.9872,503.1182,80.7894,493.198,81.4688,483.2778,81.3558,473.3576,80.9114,463.4374,81.0104,453.5172,80.6119,443.597,81.4586,433.6768,80.8971,423.7566,80.9148,413.8364,80.1338,403.9162,80.337,393.996,81.2729,384.0758,81.1719,374.1556,80.6993,364.2354,80.7422,364.1943,80.643,363.6417,80.4405,363.0165,80.0622,362.5912,80.167,362.0669,80.0327,361.4069,79.5706,361.569,79.6378,361.3866,79.0936,360.8962,78.4218,360.7308,77.8847,360.3503,77.2584,360.2354,76.7422,360.33,76.7422,360.3176,71.0828,360.4195,65.4234,360.1588,59.7641,360.1905,54.1047,360.2354,48.4453,360.3719,48.5019,360.6444,47.952,360.5461,47.2486,360.8786,46.7235,361.2186,46.2016,361.4069,45.6169,361.329,45.4288,362.0177,45.4914,362.5712,45.2277,363.0911,44.8829,363.6878,44.7234,364.2354,44.4453" style="stroke:#FF6F00;stroke-width:1.5;"/><text fill="#FFFFFF" font-family="'Roboto'" font-size="14" lengthAdjust="spacing" textLength="335.207" x="370.2354" y="67.4404">Knowledge Capture &amp; Continuous Improvement</text><a href="/use-case/construction-project-quotations/knowledge-capture-and-improvement/document-ingestion-and-knowledge-extraction/" target="_top" title="/use-case/construction-project-quotations/knowledge-capture-and-improvement/document-ingestion-and-knowledge-extraction/" xlink:actuate="onRequest" xlink:href="/use-case/construction-project-quotations/knowledge-capture-and-improvement/document-ingestion-and-knowledge-extraction/" xlink:show="new" xlink:title="/use-case/construction-project-quotations/knowledge-capture-and-improvement/document-ingestion-and-knowledge-extraction/" xlink:type="simple"><text fill="#90EE90" font-family="'Roboto'" font-size="14" lengthAdjust="spacing" textLength="314.2891" x="772.4424" y="27.9951">Document Ingestion &amp; Knowledge Extraction</text></a><path d="M715.4424,62.5938 L715.4424,62.7806 L717.4424,62.2255 L719.4424,62.7656 L721.4424,62.949 L723.4424,61.9596 L725.4424,62.5938 L725.4424,62.5938 L725.4227,62.5653 L727.1158,61.2052 L728.9079,59.9883 L730.7689,58.8708 L732.3925,57.4104 L734.3486,56.4304 L734.5731,56.5313 L735.3119,53.6037 L736.706,50.9707 L738.18,48.3735 L739.1889,45.5673 L740.4424,42.8711 L740.47,42.8835 L741.6482,40.1534 L742.9523,37.4799 L744.1956,34.7791 L745.5548,32.1303 L746.5361,29.3118 L746.7059,29.557 L748.4892,28.3273 L750.163,26.9395 L751.9971,25.7832 L753.8387,24.6377 L755.4424,23.1484 L755.4424,22.5074 L757.4424,23.7516 L759.4424,22.8849 L761.4424,23.6229 L763.4424,22.7084 L765.4424,23.1484" fill="none" style="stroke:#FF9900;stroke-width:1;"/><a href="/use-case/construction-project-quotations/knowledge-capture-and-improvement/estimate-vs-actual-and-lessons-learned/" target="_top" title="/use-case/construction-project-quotations/knowledge-capture-and-improvement/estimate-vs-actual-and-lessons-learned/" xlink:actuate="onRequest" xlink:href="/use-case/construction-project-quotations/knowledge-capture-and-improvement/estimate-vs-actual-and-lessons-learned/" xlink:show="new" xlink:title="/use-case/construction-project-quotations/knowledge-capture-and-improvement/estimate-vs-actual-and-lessons-learned/" xlink:type="simple"><text fill="#90EE90" font-family="'Roboto'" font-size="14" lengthAdjust="spacing" textLength="267.5449" x="772.4424" y="54.292">Estimate vs Actual &amp; Lessons Learned</text></a><path d="M715.4424,62.5938 L715.4424,62.7806 L717.4424,62.2255 L719.4424,62.7656 L721.4424,62.949 L723.4424,61.9596 L725.4424,62.5938 L725.4424,62.5938 L725.4285,62.5621 L728.3663,61.1053 L731.374,59.808 L734.4302,58.6215 L737.319,57.0529 L740.4424,56.0195 L740.5412,56.2449 L743.3299,54.4481 L746.4071,53.3093 L749.5194,52.2508 L752.4271,50.7252 L755.4424,49.4453 L755.4424,49.506 L757.4424,49.4169 L759.4424,49.604 L761.4424,49.6579 L763.4424,49.9659 L765.4424,49.4453" fill="none" style="stroke:#FF9900;stroke-width:1;"/><a href="/use-case/construction-project-quotations/knowledge-capture-and-improvement/sme-knowledge-capture/" target="_top" title="/use-case/construction-project-quotations/knowledge-capture-and-improvement/sme-knowledge-capture/" xlink:actuate="onRequest" xlink:href="/use-case/construction-project-quotations/knowledge-capture-and-improvement/sme-knowledge-capture/" xlink:show="new" xlink:title="/use-case/construction-project-quotations/knowledge-capture-and-improvement/sme-knowledge-capture/" xlink:type="simple"><text fill="#90EE90" font-family="'Roboto'" font-size="14" lengthAdjust="spacing" textLength="171.6436" x="772.4424" y="80.5889">SME Knowledge Capture</text></a><path d="M715.4424,62.5938 L715.4424,62.7806 L717.4424,62.2255 L719.4424,62.7656 L721.4424,62.949 L723.4424,61.9596 L725.4424,62.5938 L725.4424,62.5938 L725.4285,62.5621 L728.3663,63.735 L731.374,65.0673 L734.4302,66.5105 L737.319,67.5717 L740.4424,69.168 L740.5412,69.3933 L743.3299,70.2262 L746.4071,71.7172 L749.5194,73.2883 L752.4271,74.3924 L755.4424,75.7422 L755.4424,75.8028 L757.4424,75.7138 L759.4424,75.9009 L761.4424,75.9548 L763.4424,76.2628 L765.4424,75.7422" fill="none" style="stroke:#FF9900;stroke-width:1;"/><a href="/use-case/construction-project-quotations/knowledge-capture-and-improvement/traceability-and-provenance/" target="_top" title="/use-case/construction-project-quotations/knowledge-capture-and-improvement/traceability-and-provenance/" xlink:actuate="onRequest" xlink:href="/use-case/construction-project-quotations/knowledge-capture-and-improvement/traceability-and-provenance/" xlink:show="new" xlink:title="/use-case/construction-project-quotations/knowledge-capture-and-improvement/traceability-and-provenance/" xlink:type="simple"><text fill="#90EE90" font-family="'Roboto'" font-size="14" lengthAdjust="spacing" textLength="184.2217" x="772.4424" y="106.8857">Traceability &amp; Provenance</text></a><path d="M715.4424,62.5938 L715.4424,62.7806 L717.4424,62.2255 L719.4424,62.7656 L721.4424,62.949 L723.4424,61.9596 L725.4424,62.5938 L725.4424,62.5938 L725.4227,62.5653 L727.1158,63.6705 L728.9079,64.9189 L730.7689,66.2668 L732.3925,67.2717 L734.3486,68.7571 L734.5731,68.8579 L735.3119,71.3541 L736.706,74.1448 L738.18,76.9714 L739.1889,79.5889 L740.4424,82.3164 L740.47,82.3288 L741.6482,85.0225 L742.9523,87.7727 L744.1956,90.4956 L745.5548,93.2706 L746.5361,95.8757 L746.7059,96.121 L748.4892,97.3566 L750.163,98.4341 L751.9971,99.7432 L753.8387,101.063 L755.4424,102.0391 L755.4424,101.398 L757.4424,102.6422 L759.4424,101.7755 L761.4424,102.5136 L763.4424,101.599 L765.4424,102.0391" fill="none" style="stroke:#FF9900;stroke-width:1;"/><a href="/use-case/construction-project-quotations/" target="_top" title="/use-case/construction-project-quotations/" xlink:actuate="onRequest" xlink:href="/use-case/construction-project-quotations/" xlink:show="new" xlink:title="/use-case/construction-project-quotations/" xlink:type="simple"><text fill="#90EE90" font-family="'Roboto'" font-size="14" lengthAdjust="spacing" textLength="289.2354" x="14" y="67.4404">Complex Construction Project Quotations</text></a><path d="M360.2354,62.5938 L360.2354,62.7806 L358.2354,62.2255 L356.2354,62.7656 L354.2354,62.949 L352.2354,61.9596 L350.2354,62.5938 L350.2354,62.5938 L350.2354,62.5592 L344.2354,62.4042 L338.2354,62.4233 L332.2354,62.5635 L326.2354,62.2865 L320.2354,62.5938 L320.2354,63.0859 L318.2354,62.0335 L316.2354,62.418 L314.2354,62.9777 L312.2354,62.5175 L310.2354,62.5938" fill="none" style="stroke:#FF9900;stroke-width:1;"/><!--SRC=[xLXjRzf84FxkNx7NIDTMEHV89LKRLLK88MaI21mabKvL5Its07lOk-xkcZHtklz-upLWy_vMDuakV05sdfrvPlRzELAQIkqpxleq83qkxZnmEs0xDD2X19jorsP-84KVVE3QidvneSquaEEpsshn_EgsLAlK6iHyTlRp1uNMGHhIB9TgLoV5nfy3t0n8lLYwB9wLHuwc8BN6IRcHZaDsskstxNn-13cjNLsF0Gma-bYMwZ4UK4bzqg9EhoD5oDsIy8GS0hMaN24YoYu1VxeFG5OOxwMnPCTZdQxkI01kMIy9uuuNka1q5qW7E4ZgaP4BHThOiILqzpTYkX6i9N6fx65FBGXMLDv9fe7SCTsDVR0-SA90QyOxQh82rv_EIvTNvMQJ570OHA2PuAIBJYCl6ZksgQSWbKETkYuw8lkfjaQSlqIov5sglTcbhhYBq9DUJ2KyhCGDTyqF641Ic1Deqz3Jv1-Ba5F1zHNrWRne2CnUl1YqnOLCXchGt6H_0odiM_-c_HMb57V6svnUyvpfUm_h9Jntt5-0GqyxCE8te_lnnEmOcz-HNKXCVs1BJKaCbCJXmbqtoDZqNpME8_n0S9on9jZ6rEVoZEiO-jxUU1rTgccBAiWax5WannEX-nF22Cy39rf9AgDWIQmI0gJmCezp7BcbyZxpG6MkcSu-3ECQP9iwa7ca9dmBWJjGnoEHEIoWNCVkhhlCwN5G2hVU1Au6SCChtMS9nIdtCzccKCdMneNqgJTjdR66AwmDU831WX0Zo1B2PZkU4SAqB_1lx7Fe6LjIrz-Z9aSBkPIB0Is86TddBVoNfBHlDZSywF3Fpj9FUg-Gk55Gtl7WmmSy4PNW7p-QaM_Yz0IXyPXSS3Bzo1DdQ4ggDtb36D_aKiJXEvBbrBlDAeE92rz6QQXxfS5_olNFAeCCwpyy_9zQ-HFUJxdwgKdK6XpmG_uJL_V9ZCmDEx_QxNFZMYnBCpw-NAgwuAwM-ypK7GnFySIIw-IEhulbqospp5STO7o8w_WgCKrs-2QER0cFuHitQYrgBLahr33Rd6OvV3rFtBUfKZyv-ajI7UWEAW27jPc3HOZFvXbFgaruBKsR9ZURdTFJz-_HFc5CN_sitSkXG49AiK12VZNtUiP34Ifodb9ARFkMVFcI2rKafYZ8uTHLMeRciM4Zx2-SrVQtKE2mHy-F7Fhn0m- -H_v6G5AFWUIF4V3hLsjtTptNIsMTd2kSCFfXO_516JyH9Ec8MwUa9a2Ed0p0v7m8nYeabIcFe9bGZIBwk5Jilh8nJ4Wz0_5mYD01VbF9mSsHyW17-Ygw528EMLPY57uRL2O4bG_s52f7cjKocPe-cH28oW-qnJnydHcZCN6AJvKSkKuPiI3raGcf704kntX9MjRHkifWXbBR8nUraYrdPKLhlCjCDsjfMKdV-RlaxDrmeNhr8zmk5giM-vdDPIDvQlr0AmfIspfU8a5judurqMaxpmjbfkrSBn2MjdEyM4hQpdT6ub52QevibF3RG35ArjGikIXnFKyfIjYbDAB4wPH0b7YSq8Oc-gmW3AL2Jqf2gIZZQb1g0Muex2pUjzUTKTCJP7lXvg4OBdrJFtZf7XV3DUIK1-BrI0kNWHAICDeWkmKvB54z2jdB75bbDdTq_dyonhDMyQnLF6iL3wfLr3syrTvKAwIFjwDeZ0jlzl9x1syAXHPeMiY_kk4H5MxUeWotP2mtlBPUdTKhH8bGuZNSPIfU_DZzjNL1-vGqGXxX3aaj07vnSZbimFT9dqd1pTAv-5nD06_txMEcyIaWaGZvNBM66aAPEoAIBGx9pVMf_Swgu4OVuYl-a02tIhXDQ7cFjkP_]--></g></svg>