<svg xmlns="http://www.w3.org/2000/svg" xmlns:xlink="http://www.w3.org/1999/xlink" contentStyleType="text/css" data-diagram-type="MINDMAP" height="100px" preserveAspectRatio="none" style="width:913px;height:100px;" version="1.1" viewBox="0 0 913 100" width="913px" zoomAndPan="magnify"><defs/><g><polygon fill="#4051B5" points="364.2354,31.2969,364.2354,31.5071,374.3956,30.8826,384.5559,31.4902,394.7162,31.6966,404.8765,30.5835,415.0368,31.2192,425.1971,30.8704,435.3574,30.9134,445.5177,31.2287,455.678,30.6055,465.8383,31.8505,475.9986,30.6666,486.1589,31.0991,496.3192,31.7288,506.4795,31.2111,516.6398,31.3651,526.8001,31.2649,536.9604,31.4754,547.1207,31.536,557.281,31.8826,567.4413,31.9679,577.6016,31.2969,577.6882,31.5061,578.1997,31.6096,578.7921,31.9083,579.3882,32.2161,579.7723,32.012,580.43,32.4684,580.6389,32.555,580.573,32.9963,581.063,33.6679,580.9805,34.1024,581.3462,34.7225,581.6016,35.2969,581.8488,35.2969,581.5853,40.9563,581.6367,46.6156,581.7144,52.275,581.7403,57.9344,581.6016,63.5938,581.6004,63.5933,581.4557,64.1961,580.9567,64.6521,580.9862,65.3271,580.8331,65.9264,580.43,66.4222,580.4867,66.5591,579.9425,66.8453,579.237,66.742,578.6497,66.9243,578.088,67.1681,577.6016,67.5938,577.6016,67.5349,567.4413,67.3972,557.281,68.2752,547.1207,67.4191,536.9604,67.2507,526.8001,67.822,516.6398,66.9269,506.4795,67.0746,496.3192,68.2427,486.1589,68.0294,475.9986,68.3282,465.8383,67.272,455.678,67.9129,445.5177,68.1842,435.3574,67.1213,425.1971,67.4979,415.0368,67.7197,404.8765,68.2455,394.7162,67.5896,384.5559,68.0563,374.3956,67.04,364.2354,67.5938,364.149,67.3852,363.7339,67.5145,363.0125,66.9043,362.6032,67.0475,361.999,66.7201,361.4069,66.4222,361.3244,66.388,361.0637,65.8114,361.0796,65.3493,360.6118,64.6869,360.6519,64.2349,360.2354,63.5938,360.0511,63.5938,360.4412,57.9344,360.3968,52.275,360.317,46.6156,360.2511,40.9563,360.2354,35.2969,360.4591,35.3896,360.6586,34.8095,360.7561,34.1871,361.0209,33.634,361.1325,33.0175,361.4069,32.4684,361.4983,32.6891,361.9924,32.2818,362.5603,32.053,363.0264,31.5782,363.618,31.4064,364.2354,31.2969" style="stroke:#FF6F00;stroke-width:1.5;"/><text fill="#FFFFFF" font-family="'Roboto'" font-size="14" lengthAdjust="spacing" textLength="201.3662" x="370.2354" y="54.292">Opportunity &amp; Tender Intake</text><a href="/use-case/construction-project-quotations/opportunity-and-tender-intake/bid-no-bid-decisioning/" target="_top" title="/use-case/construction-project-quotations/opportunity-and-tender-intake/bid-no-bid-decisioning/" xlink:actuate="onRequest" xlink:href="/use-case/construction-project-quotations/opportunity-and-tender-intake/bid-no-bid-decisioning/" xlink:show="new" xlink:title="/use-case/construction-project-quotations/opportunity-and-tender-intake/bid-no-bid-decisioning/" xlink:type="simple"><text fill="#90EE90" font-family="'Roboto'" font-size="14" lengthAdjust="spacing" textLength="159.2705" x="638.6016" y="27.9951">Bid/No-Bid Decisioning</text></a><path d="M581.6016,49.4453 L581.6016,49.6321 L583.6016,49.077 L585.6016,49.6171 L587.6016,49.8006 L589.6016,48.8112 L591.6016,49.4453 L591.6016,49.4453 L591.5788,49.4193 L594.4766,46.6731 L597.4892,44.0578 L600.5816,41.5335 L603.399,38.6955 L606.6016,36.2969 L606.7638,36.4819 L609.4169,33.4565 L612.5436,30.9714 L615.7281,28.5522 L618.5764,25.7495 L621.6016,23.1484 L621.6016,23.2091 L623.6016,23.12 L625.6016,23.3071 L627.6016,23.361 L629.6016,23.6691 L631.6016,23.1484" fill="none" style="stroke:#FF9900;stroke-width:1;"/><a href="/use-case/construction-project-quotations/opportunity-and-tender-intake/rfp-rfq-intake/" target="_top" title="/use-case/construction-project-quotations/opportunity-and-tender-intake/rfp-rfq-intake/" xlink:actuate="onRequest" xlink:href="/use-case/construction-project-quotations/opportunity-and-tender-intake/rfp-rfq-intake/" xlink:show="new" xlink:title="/use-case/construction-project-quotations/opportunity-and-tender-intake/rfp-rfq-intake/" xlink:type="simple"><text fill="#90EE90" font-family="'Roboto'" font-size="14" lengthAdjust="spacing" textLength="258.542" x="638.6016" y="54.292">RFP/RFQ Intake &amp; Document Catalog</text></a><path d="M581.6016,49.4453 L581.6016,49.6321 L583.6016,49.077 L585.6016,49.6171 L587.6016,49.8006 L589.6016,48.8112 L591.6016,49.4453 L591.6016,49.4453 L591.6016,49.4108 L597.6016,49.2558 L603.6016,49.2749 L609.6016,49.415 L615.6016,49.138 L621.6016,49.4453 L621.6016,49.9374 L623.6016,48.8851 L625.6016,49.2695 L627.6016,49.8293 L629.6016,49.3691 L631.6016,49.4453" fill="none" style="stroke:#FF9900;stroke-width:1;"/><a href="/use-case/construction-project-quotations/opportunity-and-tender-intake/site-visit-and-existing-conditions/" target="_top" title="/use-case/construction-project-quotations/opportunity-and-tender-intake/site-visit-and-existing-conditions/" xlink:actuate="onRequest" xlink:href="/use-case/construction-project-quotations/opportunity-and-tender-intake/site-visit-and-existing-conditions/" xlink:show="new" xlink:title="/use-case/construction-project-quotations/opportunity-and-tender-intake/site-visit-and-existing-conditions/" xlink:type="simple"><text fill="#90EE90" font-family="'Roboto'" font-size="14" lengthAdjust="spacing" textLength="215.291" x="638.6016" y="80.5889">Site Visit &amp; Existing Conditions</text></a><path d="M581.6016,49.4453 L581.6016,49.6321 L583.6016,49.077 L585.6016,49.6171 L587.6016,49.8006 L589.6016,48.8112 L591.6016,49.4453 L591.6016,49.4453 L591.5788,49.4193 L594.4766,51.9325 L597.4892,54.5765 L600.5816,57.3116 L603.399,59.733 L606.6016,62.5938 L606.7638,62.7788 L609.4169,65.0128 L612.5436,67.787 L615.7281,70.6272 L618.5764,73.0838 L621.6016,75.7422 L621.6016,75.8028 L623.6016,75.7138 L625.6016,75.9009 L627.6016,75.9548 L629.6016,76.2628 L631.6016,75.7422" fill="none" style="stroke:#FF9900;stroke-width:1;"/><a href="/use-case/construction-project-quotations/" target="_top" title="/use-case/construction-project-quotations/" xlink:actuate="onRequest" xlink:href="/use-case/construction-project-quotations/" xlink:show="new" xlink:title="/use-case/construction-project-quotations/" xlink:type="simple"><text fill="#90EE90" font-family="'Roboto'" font-size="14" lengthAdjust="spacing" textLength="289.2354" x="14" y="54.292">Complex Construction Project Quotations</text></a><path d="M360.2354,49.4453 L360.2354,49.6321 L358.2354,49.077 L356.2354,49.6171 L354.2354,49.8006 L352.2354,48.8112 L350.2354,49.4453 L350.2354,49.4453 L350.2354,49.4108 L344.2354,49.2558 L338.2354,49.2749 L332.2354,49.415 L326.2354,49.138 L320.2354,49.4453 L320.2354,49.9374 L318.2354,48.8851 L316.2354,49.2695 L314.2354,49.8293 L312.2354,49.3691 L310.2354,49.4453" fill="none" style="stroke:#FF9900;stroke-width:1;"/><!--SRC=[xLXjRzf84FxkNx7NIDTMEHT8awgDgYg4G9g408KaqgcgeiLUO0-pw-okIRZJ_VURDGOROynRt2Iw-WjYT_QPPsPVvpcI2WireCmUO1Tnr-L2UOogaOcPRIh2R29CoXJk4yFupIOToWWwFhszB9xLRalrQhs9_6zdFtzGQ1z4JLhbKhrsKcp-6TWbc3IAfOlYQNaAD6TIRvwKcr4_QAVJ-T39vwScbNhjQiR0Dz6VOSW-PIuMU83QsEft1VUONU8E5nD39J2JO46OYXX_7Rb4L2dhHstHZaExFTKLX333U8qeinpF9aZr2EeIHWHsq1H2eWuCR7FL-mFvmn1a4zbOz66aueWFYRWNL15qJrLlZ467X259bAAiA-CPkFfwLhgebLijL81fuAwYdA4UW6eKc2NKmOuaaHWQsBO12Er7sfhZ-0MGHHyZxQqUjlczjewZ-9bm81FNUXqucj3O969pGZhOSnJwnq2emfcguG51hveSekUlWhPn8iEf2ffRz6-22ll6lr6yeX3ytaTRC6eHc1eva2_ksBDuBamzxf8fluJXnx7LCRE-TJyN47xG5rcIu2ZqmxYzhfEPvR-g7uiFNCvWnVhEDgQ-aESuZzx0sPlDeuqLRcD9Cd4xuybok6V_13VSSOYbTvBCo5degmG6WZkP-pdMi5YCCdTKPWekYSpTmCr3H0TR97DFBNBd4MQH1bo7rA8kPceCTzMZLfyHAU7e3SrbOExpYevPGd4EFf5jn2eysXWN0-pCzoRiuIhj4BZ0I8gBgSaImlvndE32Rq_1z_iNqFFxmho-rqsMuc8f5zyenQVkNxJnNwFIld-umKK7VtQMVj6pGi11WLdN8Py_muqeEVlonP_v5YnFmXLSaoatqsFUE9EkC7ln5yBi8HSXJXw0BCFERLOHn1vy6OKXHrAHmKlEVrOHP9Z_oUN_qj8Vydx9sOyiedPmmK_unvxkyOZy5tP-jTVdnhbO5kRu-hAnx15xjTWJGxV0FOORIwmJErGNovTRPf6lEi5GXAlnKsAUxAGcrdqXZqcDgrkBIWdQzXH9xewod5JFiVSsbl8dUt-DBWFDGRh4eXrgGHB6TtD2IRK9hwLXu_1birEfVFe4_R7EwDFFsAs7uWZw7LtvqWWw6qiZfdcBld_FUPAO5XmtELYhKWdFhovCL_2_O1cRTnw7UTRrHWuAWe7ha0TT64mDKMDiYBvD3N_yC7PtruDErN1oRMgRZ9lwnuQyInW2ES-XOshdQjo47oZef-sFxbvqN5DqxYP_KRFIo3Khtu8qGbfFkEKDT75RWfFRuO_FG595p244gFnEya2bLbnCGBLfC3ajhSpSQ1jWL0uiz5G55a3g2403rSmmZjOHqJ9KfPwv_XFkpfN5dzaXYJ1hoJxXsCK7IlB1aIhqF0PikgwJZfFCPICbPtr7Asetsm8lKMisWLzDdzaEELMHsGuwHOFP3ZXTTTaEEoET9IIrG649-MqWheHxAabP2Q4NYIeXkuYS4eBEQIaXOan6YOrPGKE9k8wh9n4liy99P0Dkg86adzlhhgZv1RAznl5K39UMdq-UkkV5S0tbuObuFTF4PI0QX8msY2ubXYK2GI5xHI2ho1REpl-lulzLrlygwrzMMTzmu15uVLb5GtXCw8ailDlBxnsyAnJQHE52_iqrwpD-p_pIZS89fkY0l3NUd3QgI79FmAlL1YV-Ne7XRurpFCIewJ5jTuZgBc7d9nUJ1dZE3wdWJAV9EB-v30q-xCC4AdWv2o22RYwDISbTPXRNLVuXkhwgc1-DAfoB7XIzXuWmemIxIeaHzBN-0m00]--></g></svg>