<svg xmlns="http://www.w3.org/2000/svg" xmlns:xlink="http://www.w3.org/1999/xlink" contentStyleType="text/css" data-diagram-type="MINDMAP" height="97px" preserveAspectRatio="none" style="width:859px;height:97px;" version="1.1" viewBox="0 0 859 97" width="859px" zoomAndPan="magnify"><defs/><g><polygon fill="#4051B5" points="343.5757,30.1328,343.5757,30.343,353.5248,29.7185,363.474,30.3261,373.4231,30.5325,383.3723,29.4194,393.3214,30.0551,403.2706,29.7063,413.2197,29.7493,423.1688,30.0647,433.118,29.4414,443.0671,30.6865,453.0163,29.5025,462.9654,29.935,472.9146,30.5648,482.8637,30.047,492.8129,30.2011,502.762,30.1009,512.7112,30.3113,522.6603,30.3719,532.6094,30.7185,542.5586,30.1328,542.6442,30.3395,543.2109,30.5763,543.7224,30.6799,544.3148,30.9785,544.9109,31.2863,545.387,31.3044,545.1649,31.2124,545.8303,31.9566,545.7643,32.3979,546.2544,33.0695,546.1718,33.504,546.5586,34.1328,546.5358,34.1328,546.8058,39.5594,546.5423,44.9859,546.5937,50.4125,546.6715,55.8391,546.5586,61.2656,546.6868,61.3187,546.3231,61.8308,546.1784,62.4336,545.6794,62.8897,545.7089,63.5646,545.387,64.0941,545.4569,64.2629,544.878,64.4653,544.3338,64.7515,543.6283,64.6482,543.0411,64.8305,542.5586,65.2656,542.5586,64.6442,532.6094,65.2067,522.6603,65.0691,512.7112,65.947,502.762,65.0909,492.8129,64.9226,482.8637,65.4939,472.9146,64.5988,462.9654,64.7465,453.0163,65.9146,443.0671,65.7013,433.118,66.0001,423.1688,64.9438,413.2197,65.5848,403.2706,65.856,393.3214,64.7932,383.3723,65.1698,373.4231,65.3916,363.474,65.9174,353.5248,65.2614,343.5757,65.2656,343.6347,65.4081,342.9394,64.8608,342.3579,64.5884,341.9429,64.7178,341.2215,64.1076,340.7473,64.0941,340.904,64.159,340.5766,63.5547,340.1961,62.9285,339.9354,62.3519,339.9513,61.8898,339.5757,61.2656,339.4759,61.2656,339.773,55.8391,339.3914,50.4125,339.7815,44.9859,339.7371,39.5594,339.5757,34.1328,339.6511,34.1641,339.8245,33.5732,340.2681,33.0941,340.4676,32.514,340.5651,31.8917,340.7473,31.3044,340.7815,31.387,341.2963,31.03,341.97,31.0564,342.4641,30.6491,343.032,30.4203,343.5757,30.1328" style="stroke:#FF6F00;stroke-width:1.5;"/><text fill="#FFFFFF" font-family="'Roboto'" font-size="13" lengthAdjust="spacing" textLength="186.9829" x="349.5757" y="52.1997">Opportunity &amp; Tender Intake</text><a href="/use-case/construction-project-quotations/opportunity-and-tender-intake/bid-no-bid-decisioning/" target="_top" title="/use-case/construction-project-quotations/opportunity-and-tender-intake/bid-no-bid-decisioning/" xlink:actuate="onRequest" xlink:href="/use-case/construction-project-quotations/opportunity-and-tender-intake/bid-no-bid-decisioning/" xlink:show="new" xlink:title="/use-case/construction-project-quotations/opportunity-and-tender-intake/bid-no-bid-decisioning/" xlink:type="simple"><text fill="#4051B5" font-family="'Roboto'" font-size="13" lengthAdjust="spacing" textLength="147.894" x="603.5586" y="27.0669">Bid/No-Bid Decisioning</text></a><path d="M546.5586,47.6992 L546.5586,47.886 L548.5586,47.3309 L550.5586,47.871 L552.5586,48.0545 L554.5586,47.0651 L556.5586,47.6992 L556.5586,47.6992 L556.5364,47.6727 L559.4369,45.0406 L562.4491,42.542 L565.5391,40.1362 L568.3613,37.4106 L571.5586,35.1328 L571.7166,35.3214 L574.3787,32.4048 L577.5021,30.0389 L580.6819,27.7401 L583.5341,25.0505 L586.5586,22.5664 L586.5586,22.6271 L588.5586,22.538 L590.5586,22.7251 L592.5586,22.779 L594.5586,23.087 L596.5586,22.5664" fill="none" style="stroke:#FF6F00;stroke-width:1;"/><a href="/use-case/construction-project-quotations/opportunity-and-tender-intake/rfp-rfq-intake/" target="_top" title="/use-case/construction-project-quotations/opportunity-and-tender-intake/rfp-rfq-intake/" xlink:actuate="onRequest" xlink:href="/use-case/construction-project-quotations/opportunity-and-tender-intake/rfp-rfq-intake/" xlink:show="new" xlink:title="/use-case/construction-project-quotations/opportunity-and-tender-intake/rfp-rfq-intake/" xlink:type="simple"><text fill="#4051B5" font-family="'Roboto'" font-size="13" lengthAdjust="spacing" textLength="240.0747" x="603.5586" y="52.1997">RFP/RFQ Intake &amp; Document Catalog</text></a><path d="M546.5586,47.6992 L546.5586,47.886 L548.5586,47.3309 L550.5586,47.871 L552.5586,48.0545 L554.5586,47.0651 L556.5586,47.6992 L556.5586,47.6992 L556.5586,47.6647 L562.5586,47.5097 L568.5586,47.5288 L574.5586,47.6689 L580.5586,47.3919 L586.5586,47.6992 L586.5586,48.1913 L588.5586,47.139 L590.5586,47.5234 L592.5586,48.0832 L594.5586,47.623 L596.5586,47.6992" fill="none" style="stroke:#FF6F00;stroke-width:1;"/><a href="/use-case/construction-project-quotations/opportunity-and-tender-intake/site-visit-and-existing-conditions/" target="_top" title="/use-case/construction-project-quotations/opportunity-and-tender-intake/site-visit-and-existing-conditions/" xlink:actuate="onRequest" xlink:href="/use-case/construction-project-quotations/opportunity-and-tender-intake/site-visit-and-existing-conditions/" xlink:show="new" xlink:title="/use-case/construction-project-quotations/opportunity-and-tender-intake/site-visit-and-existing-conditions/" xlink:type="simple"><text fill="#4051B5" font-family="'Roboto'" font-size="13" lengthAdjust="spacing" textLength="199.9131" x="603.5586" y="77.3325">Site Visit &amp; Existing Conditions</text></a><path d="M546.5586,47.6992 L546.5586,47.886 L548.5586,47.3309 L550.5586,47.871 L552.5586,48.0545 L554.5586,47.0651 L556.5586,47.6992 L556.5586,47.6992 L556.5364,47.6727 L559.4369,50.0672 L562.4491,52.5951 L565.5391,55.2158 L568.3613,57.5168 L571.5586,60.2656 L571.7166,60.4542 L574.3787,62.5642 L577.5021,65.2248 L580.6819,67.9526 L583.5341,70.2895 L586.5586,72.832 L586.5586,72.8927 L588.5586,72.8036 L590.5586,72.9907 L592.5586,73.0446 L594.5586,73.3526 L596.5586,72.832" fill="none" style="stroke:#FF6F00;stroke-width:1;"/><a href="/use-case/construction-project-quotations/" target="_top" title="/use-case/construction-project-quotations/" xlink:actuate="onRequest" xlink:href="/use-case/construction-project-quotations/" xlink:show="new" xlink:title="/use-case/construction-project-quotations/" xlink:type="simple"><text fill="#4051B5" font-family="'Roboto'" font-size="13" lengthAdjust="spacing" textLength="268.5757" x="14" y="52.1997">Complex Construction Project Quotations</text></a><path d="M339.5757,47.6992 L339.5757,47.886 L337.5757,47.3309 L335.5757,47.871 L333.5757,48.0545 L331.5757,47.0651 L329.5757,47.6992 L329.5757,47.6992 L329.5757,47.6647 L323.5757,47.5097 L317.5757,47.5288 L311.5757,47.6689 L305.5757,47.3919 L299.5757,47.6992 L299.5757,48.1913 L297.5757,47.139 L295.5757,47.5234 L293.5757,48.0832 L291.5757,47.623 L289.5757,47.6992" fill="none" style="stroke:#FF6F00;stroke-width:1;"/><!--SRC=[xLZRRjiu47tNLymsmAP5gpfkqw88YgA9u_IMnAwTPB4eYe2Mg9XhcLH9AcbsiV- -GrcsBf4btxHjWFebY3WySoE7C-UjqaJgCUFkc0GWWa187NAcRst2NLjJxb9fCwx9Y5hMRoxr6ATmyExoPF_3wMMhSzpfGVJRsjrvqHoyI8lqswtEwU5-xyzOha2akz_wjF-kFGEw8zBf7RPxQJsmvNallPsTcSXHv_Gi8n29cDzCPB_Nw_oHbPcYM6h4U40a6SE0EAChAKBkjeGl96nfIRZ2DSfrIkpzRK2bp_WebeejjhQ1SSSFNGfwIE6ASYg93xDz2ZoK7WWzV08-knfgmFY2I-G8Tse1ufhA6yaqXHkcXnCCTaqvAAerurSg7vEpznzQdqxR_JuqCJ4Yq4nm62AeGS6yWKTyHLE6Tudh8X3ifhxr9kvAD1PUfRxtXyGLDqOwZp9p_zoS3DyOD159oHnIZuI-XdyiW2F1zIaPKtZG4-YzU11_cqGlILxykS_-fj3SjVvDu-rBAMuYj3cxve7fMn_Z9NmtYnTWfiaLdTbNiFqWTnWo9zwi2udknskfGugA4ZrSkCigoLo8HVKuOXm8ZiSqKhQowNFjdCGn7FlFid5qYIO3ecWjQZEQ75-4xl-WHlW-TSnDKZKfItIrK40AltOz1mQMoDlQ5RMvncUZTZNu5b7f4OVMhgbFluMKExIB3oHpM42udi2T3PapubGfBBs9k8h58xlIUofCl0DVQ6rAAYbjNCWnyU-k5jpXO-RHOwpM9Ifc8XK6H-MuG4NqlGG_MfzZNhIMnFMv-UHe8IjjYOHAT9hrUHT_6rgxKN73Xmx_sQhyfMk5n491-9LFNx_65r49_kPDbFa-7aygD3wJ9I_J9b-SwL8IlNo7a2roASFfTpIM4_-oBWzoBM1DRgXRfUduFiU_BWzgZF_qyRzluK_ili_HJnsYGVp0J-tFjUvvZw8EUsUnxdFbM5IvENc-NAA6r5tCzqBN7LHFyCMIo_YEqqNrSQlDyqKJlFWCDPr0qmFKyydpri6XKZ8SGjmOpSoWqrdVJ2SAR1Y7IfiHWWBnqEkfvjmSaz8NJzSb0rfgu2upDTl39979ZHbA4ptfgghpDZSns0feBTaWr7I-HDBOP3qedSCoOmfHQdrBovHjmqcSFnLGXtdCmVX47GocycPe20IDXGtRP6KI7oNv2Gpya6AEEQUc7r8WGcsMYsRLsYnFT95iizUqhCUTX7Y2t-4ieftWmuHsikrB-FAb4IfgErYu6-Y7qZACvZGxaE8lTCh-5Wey9cPoQ-0X70S-_Mv6h9aWT2U2y7ac-FMhzVZnSj2b_5XZm5oR2zlySJ4t2hTWNXfmmDp6gR3n3rwksVUDgvTUO4lls_HVw1rr6xsZpt4OCQo7mWd7XYPeuHleYyrReF3usTVee8uMwNUc37Tb8whBukJqpH6zC39eKJkMCAcA9T2ejmWQLodBUhiCGRavEkyd9ywcHNW9rYoxfH1cARuisPil64cPJzU3AULQmP1j0hQS42l7ARPb9GfiUKKBabxh0bVGNAl0BqPihOTSIcMj1rr2Ngq7N4vNhOTT4q6L63M7cahiMu6LIkvK4IMLGCzZenBhKkrQ0dg7X4eGS_nJRiy2v5DATPvsIcd9Cawf2xWYULHUjvSzKNSFoFhaq8-oi79k_-6X-xaiN8Ao-K5s_QI1gu5jIInQmRiI7ogObMRzL4fTditDpWQeaZMuZiB7UkCyHu9O7BX2UYEpd7aiOuldTT8BKXhLHbN2bz0E6q3_HJJy8XeM9XgwFlQfvoV7S8tzZabay-cpdMSldZQR0wf9S-VXEHznSSEZwPBXZTPiJ1zP3zzrZq69K69ZxQAIw1BYzaVMHt9De1To8xS7dO3oZuUVfXzmuhXcKd0J9klZnKaYy78N4wYnkPTe25oSMDFwrkQEC4J47foV7Tclh6CitI7EvNj0kTN2YwFbBQxr_mC0]--></g></svg>