<svg xmlns="http://www.w3.org/2000/svg" xmlns:xlink="http://www.w3.org/1999/xlink" viewBox="124.20 195.00 1103.48 410.00" width="1103.48px" height="410.00px" class="use-case-tree-svg">
  <rect width="100%" height="100%" fill="transparent" />
  <line x1="228.69" y1="425.00" x2="238.69" y2="425.00" stroke="#FF9900" stroke-width="1.5" />
  <path d="M 238.69 425.00 C 256.69 425.00, 260.69 425.00, 278.69 425.00" stroke="#FF9900" stroke-width="1.5" fill="none" />
  <path d="M 345.00 425.00 C 369.75 425.00, 375.25 375.00, 400.00 375.00" stroke="#FF9900" stroke-width="1.5" fill="none" />
  <path d="M 345.00 425.00 C 369.75 425.00, 375.25 400.00, 400.00 400.00" stroke="#FF9900" stroke-width="1.5" fill="none" />
  <path d="M 345.00 425.00 C 369.75 425.00, 375.25 425.00, 400.00 425.00" stroke="#FF9900" stroke-width="1.5" fill="none" />
  <path d="M 557.33 425.00 C 582.08 425.00, 587.58 212.50, 612.33 212.50" stroke="#FF9900" stroke-width="1.5" fill="none" stroke-dasharray="4 2" />
  <path d="M 557.33 425.00 C 582.08 425.00, 587.58 237.50, 612.33 237.50" stroke="#FF9900" stroke-width="1.5" fill="none" stroke-dasharray="4 2" />
  <path d="M 557.33 425.00 C 582.08 425.00, 587.58 262.50, 612.33 262.50" stroke="#FF9900" stroke-width="1.5" fill="none" stroke-dasharray="4 2" />
  <path d="M 557.33 425.00 C 582.08 425.00, 587.58 287.50, 612.33 287.50" stroke="#FF9900" stroke-width="1.5" fill="none" stroke-dasharray="4 2" />
  <path d="M 557.33 425.00 C 582.08 425.00, 587.58 312.50, 612.33 312.50" stroke="#FF9900" stroke-width="1.5" fill="none" stroke-dasharray="4 2" />
  <path d="M 557.33 425.00 C 582.08 425.00, 587.58 337.50, 612.33 337.50" stroke="#FF9900" stroke-width="1.5" fill="none" stroke-dasharray="4 2" />
  <path d="M 557.33 425.00 C 582.08 425.00, 587.58 362.50, 612.33 362.50" stroke="#FF9900" stroke-width="1.5" fill="none" stroke-dasharray="4 2" />
  <path d="M 557.33 425.00 C 582.08 425.00, 587.58 387.50, 612.33 387.50" stroke="#FF9900" stroke-width="1.5" fill="none" stroke-dasharray="4 2" />
  <path d="M 557.33 425.00 C 582.08 425.00, 587.58 412.50, 612.33 412.50" stroke="#FF9900" stroke-width="1.5" fill="none" stroke-dasharray="4 2" />
  <path d="M 557.33 425.00 C 582.08 425.00, 587.58 437.50, 612.33 437.50" stroke="#FF9900" stroke-width="1.5" fill="none" stroke-dasharray="4 2" />
  <path d="M 557.33 425.00 C 582.08 425.00, 587.58 462.50, 612.33 462.50" stroke="#FF9900" stroke-width="1.5" fill="none" stroke-dasharray="4 2" />
  <path d="M 557.33 425.00 C 582.08 425.00, 587.58 487.50, 612.33 487.50" stroke="#FF9900" stroke-width="1.5" fill="none" stroke-dasharray="4 2" />
  <path d="M 557.33 425.00 C 582.08 425.00, 587.58 512.50, 612.33 512.50" stroke="#FF9900" stroke-width="1.5" fill="none" stroke-dasharray="4 2" />
  <path d="M 557.33 425.00 C 582.08 425.00, 587.58 537.50, 612.33 537.50" stroke="#FF9900" stroke-width="1.5" fill="none" stroke-dasharray="4 2" />
  <path d="M 557.33 425.00 C 582.08 425.00, 587.58 562.50, 612.33 562.50" stroke="#FF9900" stroke-width="1.5" fill="none" stroke-dasharray="4 2" />
  <path d="M 557.33 425.00 C 582.08 425.00, 587.58 587.50, 612.33 587.50" stroke="#FF9900" stroke-width="1.5" fill="none" stroke-dasharray="4 2" />
  <line x1="721.95" y1="412.50" x2="933.69" y2="412.50" stroke="#FF9900" stroke-width="1.5" stroke-dasharray="4 2" />
  <path d="M 933.69 412.50 C 958.44 412.50, 963.94 387.50, 988.69 387.50" stroke="#FF9900" stroke-width="1.5" fill="none" stroke-dasharray="4 2" />
  <line x1="777.59" y1="587.50" x2="933.69" y2="587.50" stroke="#FF9900" stroke-width="1.5" stroke-dasharray="4 2" />
  <path d="M 933.69 587.50 C 958.44 587.50, 963.94 412.50, 988.69 412.50" stroke="#FF9900" stroke-width="1.5" fill="none" stroke-dasharray="4 2" />
  <a xlink:href="/use-case/cyber-security/" target="_top">
    <rect x="129.20" y="412.50" width="99.48" height="25" rx="4" ry="4" fill="none" stroke="none" pointer-events="all" />
    <text x="139.20" y="429.50" text-anchor="start" font-family="Roboto, sans-serif" font-size="13" fill="#90EE90" font-weight="normal">Cybersecurity</text>
  </a>
  <a xlink:href="/use-case/cyber-security/contexts/" target="_top">
    <rect x="278.69" y="412.50" width="71.31" height="25" rx="4" ry="4" fill="none" stroke="none" pointer-events="all" />
    <text x="288.69" y="429.50" text-anchor="start" font-family="Roboto, sans-serif" font-size="13" fill="#90EE90" font-weight="normal">Contexts</text>
  </a>
  <a xlink:href="/use-case/cyber-security/contexts/cloud/" target="_top">
    <rect x="400.00" y="362.50" width="152.98" height="25" rx="4" ry="4" fill="none" stroke="none" pointer-events="all" />
    <text x="410.00" y="379.50" text-anchor="start" font-family="Roboto, sans-serif" font-size="13" fill="#90EE90" font-weight="normal">Cloud Security Context</text>
  </a>
  <a xlink:href="/use-case/cyber-security/contexts/ot-ics/" target="_top">
    <rect x="400.00" y="387.50" width="162.33" height="25" rx="4" ry="4" fill="none" stroke="none" pointer-events="all" />
    <text x="410.00" y="404.50" text-anchor="start" font-family="Roboto, sans-serif" font-size="13" fill="#90EE90" font-weight="normal">OT/ICS Security Context</text>
  </a>
  <a xlink:href="/use-case/cyber-security/contexts/saas/" target="_top">
    <rect x="400.00" y="412.50" width="158.73" height="25" rx="4" ry="4" fill="#4051B5" stroke="#FF6F00" stroke-width="1.5" />
    <text x="410.00" y="429.50" text-anchor="start" font-family="Roboto, sans-serif" font-size="13" fill="#FFFFFF" font-weight="bold">SaaS Security Context</text>
  </a>
  <a xlink:href="/use-case/cyber-security/detect/logging-and-telemetry/" target="_top">
    <rect x="612.33" y="200.00" width="138.31" height="25" rx="4" ry="4" fill="none" stroke="none" pointer-events="all" />
    <text x="622.33" y="217.00" text-anchor="start" font-family="Roboto, sans-serif" font-size="13" fill="#90EE90" font-weight="normal">Logging &amp; Telemetry</text>
  </a>
  <a xlink:href="/use-case/cyber-security/detect/soc-monitoring-and-alerting/" target="_top">
    <rect x="612.33" y="225.00" width="171.77" height="25" rx="4" ry="4" fill="none" stroke="none" pointer-events="all" />
    <text x="622.33" y="242.00" text-anchor="start" font-family="Roboto, sans-serif" font-size="13" fill="#90EE90" font-weight="normal">SOC Monitoring &amp; Alerting</text>
  </a>
  <a xlink:href="/use-case/cyber-security/govern/security-architecture-and-standards/" target="_top">
    <rect x="612.33" y="250.00" width="214.41" height="25" rx="4" ry="4" fill="none" stroke="none" pointer-events="all" />
    <text x="622.33" y="267.00" text-anchor="start" font-family="Roboto, sans-serif" font-size="13" fill="#90EE90" font-weight="normal">Security Architecture &amp; Standards</text>
  </a>
  <a xlink:href="/use-case/cyber-security/govern/third-party-and-supply-chain-risk/" target="_top">
    <rect x="612.33" y="275.00" width="257.02" height="25" rx="4" ry="4" fill="none" stroke="none" pointer-events="all" />
    <text x="622.33" y="292.00" text-anchor="start" font-family="Roboto, sans-serif" font-size="13" fill="#90EE90" font-weight="normal">Third-Party &amp; Supply Chain Security Risk</text>
  </a>
  <a xlink:href="/use-case/cyber-security/identify/attack-surface-management/" target="_top">
    <rect x="612.33" y="300.00" width="184.06" height="25" rx="4" ry="4" fill="none" stroke="none" pointer-events="all" />
    <text x="622.33" y="317.00" text-anchor="start" font-family="Roboto, sans-serif" font-size="13" fill="#90EE90" font-weight="normal">Attack Surface Management</text>
  </a>
  <a xlink:href="/use-case/cyber-security/identify/vulnerability-management/" target="_top">
    <rect x="612.33" y="325.00" width="169.88" height="25" rx="4" ry="4" fill="none" stroke="none" pointer-events="all" />
    <text x="622.33" y="342.00" text-anchor="start" font-family="Roboto, sans-serif" font-size="13" fill="#90EE90" font-weight="normal">Vulnerability Management</text>
  </a>
  <a xlink:href="/use-case/cyber-security/protect/application-and-api-security/" target="_top">
    <rect x="612.33" y="350.00" width="170.33" height="25" rx="4" ry="4" fill="none" stroke="none" pointer-events="all" />
    <text x="622.33" y="367.00" text-anchor="start" font-family="Roboto, sans-serif" font-size="13" fill="#90EE90" font-weight="normal">Application &amp; API Security</text>
  </a>
  <a xlink:href="/use-case/cyber-security/protect/backup-and-resilience-controls/" target="_top">
    <rect x="612.33" y="375.00" width="191.30" height="25" rx="4" ry="4" fill="none" stroke="none" pointer-events="all" />
    <text x="622.33" y="392.00" text-anchor="start" font-family="Roboto, sans-serif" font-size="13" fill="#90EE90" font-weight="normal">Backup &amp; Resilience Controls</text>
  </a>
  <a xlink:href="/use-case/cyber-security/protect/data-protection/" target="_top">
    <rect x="612.33" y="400.00" width="109.62" height="25" rx="4" ry="4" fill="none" stroke="none" pointer-events="all" />
    <text x="622.33" y="417.00" text-anchor="start" font-family="Roboto, sans-serif" font-size="13" fill="#90EE90" font-weight="normal">Data Protection</text>
  </a>
  <a xlink:href="/use-case/cyber-security/protect/identity-and-access-management/" target="_top">
    <rect x="612.33" y="425.00" width="233.89" height="25" rx="4" ry="4" fill="none" stroke="none" pointer-events="all" />
    <text x="622.33" y="442.00" text-anchor="start" font-family="Roboto, sans-serif" font-size="13" fill="#90EE90" font-weight="normal">Identity &amp; Access Management (IAM)</text>
  </a>
  <a xlink:href="/use-case/cyber-security/protect/privileged-access-management/" target="_top">
    <rect x="612.33" y="450.00" width="240.89" height="25" rx="4" ry="4" fill="none" stroke="none" pointer-events="all" />
    <text x="622.33" y="467.00" text-anchor="start" font-family="Roboto, sans-serif" font-size="13" fill="#90EE90" font-weight="normal">Privileged Access Management (PAM)</text>
  </a>
  <a xlink:href="/use-case/cyber-security/protect/secure-configuration-and-hardening/" target="_top">
    <rect x="612.33" y="475.00" width="218.08" height="25" rx="4" ry="4" fill="none" stroke="none" pointer-events="all" />
    <text x="622.33" y="492.00" text-anchor="start" font-family="Roboto, sans-serif" font-size="13" fill="#90EE90" font-weight="normal">Secure Configuration &amp; Hardening</text>
  </a>
  <a xlink:href="/use-case/cyber-security/recover/backup-restore-and-integrity/" target="_top">
    <rect x="612.33" y="500.00" width="234.42" height="25" rx="4" ry="4" fill="none" stroke="none" pointer-events="all" />
    <text x="622.33" y="517.00" text-anchor="start" font-family="Roboto, sans-serif" font-size="13" fill="#90EE90" font-weight="normal">Backup Restore &amp; Integrity Validation</text>
  </a>
  <a xlink:href="/use-case/cyber-security/recover/disaster-recovery-and-bcp/" target="_top">
    <rect x="612.33" y="525.00" width="326.36" height="25" rx="4" ry="4" fill="none" stroke="none" pointer-events="all" />
    <text x="622.33" y="542.00" text-anchor="start" font-family="Roboto, sans-serif" font-size="13" fill="#90EE90" font-weight="normal">Disaster Recovery (DR) &amp; Business Continuity (BCP)</text>
  </a>
  <a xlink:href="/use-case/cyber-security/respond/containment-and-eradication/" target="_top">
    <rect x="612.33" y="550.00" width="174.69" height="25" rx="4" ry="4" fill="none" stroke="none" pointer-events="all" />
    <text x="622.33" y="567.00" text-anchor="start" font-family="Roboto, sans-serif" font-size="13" fill="#90EE90" font-weight="normal">Containment &amp; Eradication</text>
  </a>
  <a xlink:href="/use-case/cyber-security/respond/investigation-and-forensics/" target="_top">
    <rect x="612.33" y="575.00" width="165.27" height="25" rx="4" ry="4" fill="none" stroke="none" pointer-events="all" />
    <text x="622.33" y="592.00" text-anchor="start" font-family="Roboto, sans-serif" font-size="13" fill="#90EE90" font-weight="normal">Investigation &amp; Forensics</text>
  </a>
  <a xlink:href="/use-case/digital-twin/data-flow-and-lineage-mapping/" target="_top">
    <rect x="988.69" y="375.00" width="194.22" height="25" rx="4" ry="4" fill="none" stroke="none" pointer-events="all" />
    <text x="998.69" y="392.00" text-anchor="start" font-family="Roboto, sans-serif" font-size="13" fill="#90EE90" font-weight="normal">Data Flow &amp; Lineage Mapping</text>
  </a>
  <a xlink:href="/use-case/digital-twin/dependency-and-relationship-mapping/" target="_top">
    <rect x="988.69" y="400.00" width="234.00" height="25" rx="4" ry="4" fill="none" stroke="none" pointer-events="all" />
    <text x="998.69" y="417.00" text-anchor="start" font-family="Roboto, sans-serif" font-size="13" fill="#90EE90" font-weight="normal">Dependency &amp; Relationship Mapping</text>
  </a>
</svg>