<svg xmlns="http://www.w3.org/2000/svg" xmlns:xlink="http://www.w3.org/1999/xlink" contentStyleType="text/css" data-diagram-type="MINDMAP" height="179px" preserveAspectRatio="none" style="width:894px;height:179px;" version="1.1" viewBox="0 0 894 179" width="894px" zoomAndPan="magnify"><defs/><g><polygon fill="#4051B5" points="364.2354,70.7422,364.2354,70.9524,374.5104,70.3279,384.7855,70.9355,395.0605,71.1419,405.3356,70.0288,415.6107,70.6645,425.8857,70.3157,436.1608,70.3587,446.4359,70.674,456.7109,70.0508,466.986,71.2958,477.2611,70.1119,487.5361,70.5444,497.8112,71.1741,508.0863,70.6564,518.3613,70.7422,518.37,70.7632,518.9229,70.9667,519.5155,71.2658,520.0889,71.5188,520.6988,71.8598,521.1898,71.9138,521.3964,71.9994,521.6333,72.5661,521.7368,73.0776,522.0355,73.67,522.3433,74.2661,522.3613,74.7422,522.1209,74.7422,522.5875,80.4016,522.2625,86.0609,522.5393,91.7203,522.1963,97.3797,522.3613,103.0391,522.3402,103.0303,522.3554,103.6993,521.8777,104.1642,521.6908,104.7496,521.5284,105.345,521.1898,105.8675,521.2429,105.9957,520.6236,106.1006,520.095,106.4246,519.4197,106.3942,518.9633,106.8923,518.3613,107.0391,518.3613,107.5873,508.0863,107.4836,497.8112,107.6521,487.5361,106.556,477.2611,106.3869,466.986,106.4177,456.7109,106.9802,446.4359,106.8425,436.1608,107.7205,425.8857,106.8644,415.6107,106.696,405.3356,107.2673,395.0605,106.3722,384.7855,106.5199,374.5104,107.688,364.2354,107.0391,364.2909,107.1732,363.7634,107.0309,363.0629,106.4713,362.579,106.4344,362.0479,106.2836,361.4069,105.8675,361.2614,105.8072,361.1431,105.2896,360.9771,104.7522,360.9047,104.2536,360.4684,103.6042,360.2354,103.0391,360.3895,103.0391,360.0508,97.3797,360.0096,91.7203,360.4032,86.0609,359.9964,80.4016,360.2354,74.7422,360.3921,74.8071,360.5333,74.2029,360.6215,73.5766,360.8293,73,361.3139,72.538,361.4069,71.9138,361.3687,71.8216,362.0481,71.8617,362.4678,71.2749,363.1827,71.401,363.7314,71.1256,364.2354,70.7422" style="stroke:#FF6F00;stroke-width:1.5;"/><text fill="#FFFFFF" font-family="'Roboto'" font-size="14" lengthAdjust="spacing" textLength="142.126" x="370.2354" y="93.7373">Estimating &amp; Pricing</text><a href="/use-case/construction-project-quotations/estimating-and-pricing/contingency-and-escalation/" target="_top" title="/use-case/construction-project-quotations/estimating-and-pricing/contingency-and-escalation/" xlink:actuate="onRequest" xlink:href="/use-case/construction-project-quotations/estimating-and-pricing/contingency-and-escalation/" xlink:show="new" xlink:title="/use-case/construction-project-quotations/estimating-and-pricing/contingency-and-escalation/" xlink:type="simple"><text fill="#90EE90" font-family="'Roboto'" font-size="14" lengthAdjust="spacing" textLength="179.3408" x="579.3613" y="27.9951">Contingency &amp; Escalation</text></a><path d="M522.3613,88.8906 L522.3613,89.0775 L524.3613,88.5223 L526.3613,89.0624 L528.3613,89.2459 L530.3613,88.2565 L532.3613,88.8906 L532.3613,88.8906 L532.3352,88.868 L533.9994,86.712 L535.795,84.6701 L537.6822,82.7075 L539.2542,80.4716 L541.2676,78.6184 L541.5029,78.6904 L541.6443,76.4306 L542.4726,74.3811 L543.3847,72.3572 L543.8092,70.184 L544.4902,68.0894 L544.5197,68.0964 L545.0506,65.6721 L545.7159,63.2798 L546.3163,60.8721 L547.0403,58.4937 L547.3613,56.0195 L547.6515,56.0886 L548.2292,53.6754 L548.6199,51.2178 L549.2844,48.8253 L549.9618,46.4359 L550.2324,43.9497 L549.9259,43.8559 L551.1653,41.9321 L551.3955,39.6995 L552.3929,37.7017 L552.6002,35.4621 L553.4551,33.4207 L553.4321,33.4007 L555.4854,31.5821 L557.0012,29.2976 L558.8342,27.288 L560.6938,25.3015 L562.3613,23.1484 L562.3613,23.5184 L564.3613,23.145 L566.3613,23.4037 L568.3613,22.6396 L570.3613,23.4012 L572.3613,23.1484" fill="none" style="stroke:#FF9900;stroke-width:1;"/><a href="/use-case/construction-project-quotations/estimating-and-pricing/indirects-overheads-general-conditions/" target="_top" title="/use-case/construction-project-quotations/estimating-and-pricing/indirects-overheads-general-conditions/" xlink:actuate="onRequest" xlink:href="/use-case/construction-project-quotations/estimating-and-pricing/indirects-overheads-general-conditions/" xlink:show="new" xlink:title="/use-case/construction-project-quotations/estimating-and-pricing/indirects-overheads-general-conditions/" xlink:type="simple"><text fill="#90EE90" font-family="'Roboto'" font-size="14" lengthAdjust="spacing" textLength="298.9902" x="579.3613" y="54.292">Indirects, Overheads &amp; General Conditions</text></a><path d="M522.3613,88.8906 L522.3613,89.0775 L524.3613,88.5223 L526.3613,89.0624 L528.3613,89.2459 L530.3613,88.2565 L532.3613,88.8906 L532.3613,88.8906 L532.3417,88.8622 L534.0347,87.5021 L535.8268,86.2851 L537.6878,85.1677 L539.3115,83.7073 L541.2676,82.7273 L541.492,82.8282 L542.2308,79.9006 L543.6249,77.2675 L545.0989,74.6704 L546.1078,71.8642 L547.3613,69.168 L547.389,69.1804 L548.5671,66.4503 L549.8712,63.7768 L551.1145,61.0759 L552.4738,58.4272 L553.4551,55.6086 L553.6248,55.8539 L555.4081,54.6242 L557.082,53.2364 L558.9161,52.0801 L560.7577,50.9346 L562.3613,49.4453 L562.3613,48.8043 L564.3613,50.0484 L566.3613,49.1818 L568.3613,49.9198 L570.3613,49.0053 L572.3613,49.4453" fill="none" style="stroke:#FF9900;stroke-width:1;"/><a href="/use-case/construction-project-quotations/estimating-and-pricing/labor-productivity-and-crew-modeling/" target="_top" title="/use-case/construction-project-quotations/estimating-and-pricing/labor-productivity-and-crew-modeling/" xlink:actuate="onRequest" xlink:href="/use-case/construction-project-quotations/estimating-and-pricing/labor-productivity-and-crew-modeling/" xlink:show="new" xlink:title="/use-case/construction-project-quotations/estimating-and-pricing/labor-productivity-and-crew-modeling/" xlink:type="simple"><text fill="#90EE90" font-family="'Roboto'" font-size="14" lengthAdjust="spacing" textLength="251.1318" x="579.3613" y="80.5889">Labor Productivity &amp; Crew Modeling</text></a><path d="M522.3613,88.8906 L522.3613,89.0775 L524.3613,88.5223 L526.3613,89.0624 L528.3613,89.2459 L530.3613,88.2565 L532.3613,88.8906 L532.3613,88.8906 L532.3475,88.859 L535.2852,87.4022 L538.2929,86.1048 L541.3492,84.9183 L544.238,83.3498 L547.3613,82.3164 L547.4601,82.5418 L550.2489,80.745 L553.326,79.6062 L556.4384,78.5477 L559.346,77.0221 L562.3613,75.7422 L562.3613,75.8028 L564.3613,75.7138 L566.3613,75.9009 L568.3613,75.9548 L570.3613,76.2628 L572.3613,75.7422" fill="none" style="stroke:#FF9900;stroke-width:1;"/><a href="/use-case/construction-project-quotations/estimating-and-pricing/pricing-strategy-margin-markups/" target="_top" title="/use-case/construction-project-quotations/estimating-and-pricing/pricing-strategy-margin-markups/" xlink:actuate="onRequest" xlink:href="/use-case/construction-project-quotations/estimating-and-pricing/pricing-strategy-margin-markups/" xlink:show="new" xlink:title="/use-case/construction-project-quotations/estimating-and-pricing/pricing-strategy-margin-markups/" xlink:type="simple"><text fill="#90EE90" font-family="'Roboto'" font-size="14" lengthAdjust="spacing" textLength="239.5996" x="579.3613" y="106.8857">Pricing Strategy (Margin/Markups)</text></a><path d="M522.3613,88.8906 L522.3613,89.0775 L524.3613,88.5223 L526.3613,89.0624 L528.3613,89.2459 L530.3613,88.2565 L532.3613,88.8906 L532.3613,88.8906 L532.3475,88.859 L535.2852,90.0319 L538.2929,91.3642 L541.3492,92.8074 L544.238,93.8686 L547.3613,95.4648 L547.4601,95.6902 L550.2489,96.5231 L553.326,98.014 L556.4384,99.5852 L559.346,100.6893 L562.3613,102.0391 L562.3613,102.0997 L564.3613,102.0107 L566.3613,102.1978 L568.3613,102.2516 L570.3613,102.5597 L572.3613,102.0391" fill="none" style="stroke:#FF9900;stroke-width:1;"/><a href="/use-case/construction-project-quotations/estimating-and-pricing/quantity-takeoff/" target="_top" title="/use-case/construction-project-quotations/estimating-and-pricing/quantity-takeoff/" xlink:actuate="onRequest" xlink:href="/use-case/construction-project-quotations/estimating-and-pricing/quantity-takeoff/" xlink:show="new" xlink:title="/use-case/construction-project-quotations/estimating-and-pricing/quantity-takeoff/" xlink:type="simple"><text fill="#90EE90" font-family="'Roboto'" font-size="14" lengthAdjust="spacing" textLength="207.2178" x="579.3613" y="133.1826">Quantity Takeoff (2D/3D/BIM)</text></a><path d="M522.3613,88.8906 L522.3613,89.0775 L524.3613,88.5223 L526.3613,89.0624 L528.3613,89.2459 L530.3613,88.2565 L532.3613,88.8906 L532.3613,88.8906 L532.3417,88.8622 L534.0347,89.9674 L535.8268,91.2158 L537.6878,92.5637 L539.3115,93.5686 L541.2676,95.054 L541.492,95.1548 L542.2308,97.651 L543.6249,100.4417 L545.0989,103.2682 L546.1078,105.8858 L547.3613,108.6133 L547.389,108.6257 L548.5671,111.3193 L549.8712,114.0695 L551.1145,116.7924 L552.4738,119.5674 L553.4551,122.1726 L553.6248,122.4179 L555.4081,123.6535 L557.082,124.731 L558.9161,126.04 L560.7577,127.3599 L562.3613,128.3359 L562.3613,127.6949 L564.3613,128.9391 L566.3613,128.0724 L568.3613,128.8104 L570.3613,127.8959 L572.3613,128.3359" fill="none" style="stroke:#FF9900;stroke-width:1;"/><a href="/use-case/construction-project-quotations/estimating-and-pricing/unit-rates-and-cost-libraries/" target="_top" title="/use-case/construction-project-quotations/estimating-and-pricing/unit-rates-and-cost-libraries/" xlink:actuate="onRequest" xlink:href="/use-case/construction-project-quotations/estimating-and-pricing/unit-rates-and-cost-libraries/" xlink:show="new" xlink:title="/use-case/construction-project-quotations/estimating-and-pricing/unit-rates-and-cost-libraries/" xlink:type="simple"><text fill="#90EE90" font-family="'Roboto'" font-size="14" lengthAdjust="spacing" textLength="188.5078" x="579.3613" y="159.4795">Unit Rates &amp; Cost Libraries</text></a><path d="M522.3613,88.8906 L522.3613,89.0775 L524.3613,88.5223 L526.3613,89.0624 L528.3613,89.2459 L530.3613,88.2565 L532.3613,88.8906 L532.3613,88.8906 L532.3352,88.868 L533.9994,90.8209 L535.795,92.8879 L537.6822,95.0341 L539.2542,96.9071 L541.2676,99.1628 L541.5029,99.2349 L541.6443,101.1867 L542.4726,103.3487 L543.3847,105.5364 L543.8092,107.5749 L544.4902,109.6919 L544.5197,109.6989 L545.0506,112.1025 L545.7159,114.5382 L546.3163,116.9584 L547.0403,119.408 L547.3613,121.7617 L547.6515,121.8307 L548.2292,124.2456 L548.6199,126.6158 L549.2844,129.0513 L549.9618,131.4898 L550.2324,133.8316 L549.9259,133.7378 L551.1653,136.0256 L551.3955,138.0046 L552.3929,140.2184 L552.6002,142.1904 L553.4551,144.3606 L553.4321,144.3407 L555.4854,146.631 L557.0012,148.4553 L558.8342,150.5546 L560.6938,152.677 L562.3613,154.6328 L562.3613,155.0028 L564.3613,154.6293 L566.3613,154.8881 L568.3613,154.124 L570.3613,154.8856 L572.3613,154.6328" fill="none" style="stroke:#FF9900;stroke-width:1;"/><a href="/use-case/construction-project-quotations/" target="_top" title="/use-case/construction-project-quotations/" xlink:actuate="onRequest" xlink:href="/use-case/construction-project-quotations/" xlink:show="new" xlink:title="/use-case/construction-project-quotations/" xlink:type="simple"><text fill="#90EE90" font-family="'Roboto'" font-size="14" lengthAdjust="spacing" textLength="289.2354" x="14" y="93.7373">Complex Construction Project Quotations</text></a><path d="M360.2354,88.8906 L360.2354,89.0775 L358.2354,88.5223 L356.2354,89.0624 L354.2354,89.2459 L352.2354,88.2565 L350.2354,88.8906 L350.2354,88.8906 L350.2354,88.8561 L344.2354,88.7011 L338.2354,88.7202 L332.2354,88.8603 L326.2354,88.5833 L320.2354,88.8906 L320.2354,89.3828 L318.2354,88.3304 L316.2354,88.7148 L314.2354,89.2746 L312.2354,88.8144 L310.2354,88.8906" fill="none" style="stroke:#FF9900;stroke-width:1;"/><!--SRC=[xLXjRzis4FwkNy4rm98WLHsdQT4MHT74STAqTfpPIO6XA09QEjkS9L8XgQJUiF- -eoHRiYE_Mtt1uYy9U0_ldZjIH_9vhpILscVSzMb0G6dcKyrurwRSjGF97FpVidvpeSCuaEEpc_hH-SLDfL5hD4dqsphSVr5klyX2MjLAu-BagFbdWik1N1vLFXsTLKUE7a0QpPDgCnk7R7KwBplx-oF8QUFYQWmGGSpFibIVyO1AwfCsTVfTAKBkLeGdv12e9UKA4S1r1lnX482iCTxFOicMnxeztPK0tBAs2UEE5xf0T0z85pX8wf6H2qKwEB4jTEyfYQOHh2DngUpZJ2s8k0DvBva6SizqB_R1xe0J1TgKNKrMuEh3UUNJHRNL8cLS1X5e9ZZfeLFZHUF43lKKP7AufAwBZiXXPgmPvo-HB7cL6M_rg2lk3NhIIrG93ojnpTte7qWW6Sm9T6ZeQVAFHSYfuFg2-a2UD0LcBvuaOt4XqwLAXbliRo3bG-lVhByZASLzv6tAh6dEzC33UWdF7VSNuDBJBepuvKm_djWTO_lRs8N4z1DRPajYe3GE5-woGSQs_w9n7E47WkEEZOAjJ7qgpxYEeUyTZDVHfPgsgO92mev5SZmHkjyXZF0ySCoNf0eAbiQg840Ah_0unyOjbOF20rMvPhhuC8nha1tgGE6HMd0R0dVW4iz1FEu2odNixgh7d3u7fR3rfd2Lm2DUsJbpA3vmdyisWqfR6nVIfzv3QyutN6CTm0CCPeGOGUOGZjfnJeXeV8R_o3w5NcHBw_hS33bQoBbS8j2CcCO-xSFV9fN3gBcPgymssPhxo_OAYOs2ygu7Rz_YYQW4V_SkMlaMRayG6e_96IVJ9a-SeIcjtkGDORp9POZ3DoJBgNTJL0OJ5xw2qb03fS7_bUjVL0O5rdzu-FzgvKzv_yhLpsoYTdB03_bFNDqdCufksFkBtJvNhiMyDEFZowMg1-vYkUUcxc1uYYUMN2PtV5tCtsw5PRxe0kFhMyTNYOTaXszYOqjv3D-uPlH8QydQeOPySvRbyFKyST-cIdtdwDkadeWDAW27TPY3HOZFvfmdrIgyvgPDqvlDrkdfwzTedp1chtxMNdMaYf3VoMMYYTZs3VdofHGgi1tiCoNSf4hBC7fMs84KV-7-jMz3WGji7XebV0duWGVVp8jW14Hl4P3yCG9-_MhjxItdEb-rCTFC65vM1z4uA8TwqPHIz2n9R9XJTMJPN7HSP6Q-OMKRpQC7r5Ls8fVOwD9bILdEXxYdf3448gMpH5cfZA2Re-RHjf06xvgfT_YSYSoEX7lRnvrdDcE9r0pABD08XRGgY27r1BCvHibV6-TYF-WER9_ABkFcJpyCi4h9hiE65GF8JZr2bEenOdTpN6v36ZtnR4tx83gT4cxEU8HSnIDav-2azFoaT7nUts3Sa3Djc-nKl1f2QTjZRKab0wp0DPf9qvZDCg0H7pA94Jcy1-mfSL-nhFSBQPe5YeG_kHoNDik5jRZnARbkbbBXqhdJ-tj-7v-fkst2xMoPRRQVV2uh2MlB1rfGIblNyHpnR1NtYybbwtcUAP2jvtg69BQUuzaYs7g-2vAzKb9J1A-KtmfQL_fDvGbTgUjf6bVABgDkfKuVI5kfnmbLQsBE0f9M9lIac9M9CgvZPJx05IMfsNrxsHtrS8EiBpdzA8PprO0VNhgVY-4IGj0FulMJ5gu03ITbj49sCtAOezUKYnTeYifiwkhy_mIOHvNbKMLvL5aULPPrLPPB3_bUrsi4zvCoNrdvsS7-mOjdvN8RD2tlxrppFXVtF7fGCpnNa0_iMZjdbpMYH2ZnBU4o5NSmdBvhVQHtb3H3Rd1lI2C0_l7aqt007rbtJ0hk6p7cu-Tw2dXvQ1yZwHP8948-rwsX45BbZZ3QonjoVNLglx9gU5g5j8k-WLiLx7LQ3j3M-Wy0]--></g></svg>