<svg xmlns="http://www.w3.org/2000/svg" xmlns:xlink="http://www.w3.org/1999/xlink" contentStyleType="text/css" data-diagram-type="MINDMAP" height="172px" preserveAspectRatio="none" style="width:842px;height:172px;" version="1.1" viewBox="0 0 842 172" width="842px" zoomAndPan="magnify"><defs/><g><polygon fill="#4051B5" points="343.5757,67.832,343.5757,68.0422,353.8595,67.4177,364.1434,68.0253,374.4273,68.2317,384.7111,67.1186,394.995,67.7543,405.2789,67.4055,415.5627,67.4485,425.8466,67.7639,436.1305,67.1407,446.4143,68.3857,456.6982,67.2018,466.9821,67.6343,477.2659,68.264,487.5498,67.832,487.5389,67.8056,488.1242,68.0874,488.6771,68.2908,489.2696,68.59,489.8431,68.8429,490.3782,69.0036,490.5586,69.0783,490.8192,69.6549,491.056,70.2216,491.1596,70.7331,491.4583,71.3255,491.5498,71.832,491.7839,71.832,491.3094,77.2586,491.776,82.6852,491.451,88.1117,491.7277,93.5383,491.5498,98.9648,491.3974,98.9017,491.2944,99.5218,491.3096,100.1908,490.8319,100.6557,490.645,101.241,490.3782,101.7933,490.4214,101.8976,489.8656,102.1558,489.2464,102.2607,488.7178,102.5847,488.0425,102.5542,487.5498,102.9648,487.5498,103.2492,477.2659,103.513,466.9821,103.4094,456.6982,103.5779,446.4143,102.4818,436.1305,102.3127,425.8466,102.3434,415.5627,102.906,405.2789,102.7683,394.995,103.6463,384.7111,102.7902,374.4273,102.6218,364.1434,103.1931,353.8595,102.298,343.5757,102.9648,343.5095,102.805,343.0928,102.9304,342.4999,102.6304,341.9723,102.4881,341.2719,101.9285,340.7473,101.7933,340.8456,101.834,340.6948,101.3029,340.1331,100.6016,340.0148,100.084,339.8488,99.5466,339.5757,98.9648,339.7929,98.9648,339.5743,93.5383,339.7299,88.1117,339.3911,82.6852,339.3499,77.2586,339.5757,71.832,339.7308,71.8963,339.5892,71.1749,340.2011,70.7656,340.3423,70.1613,340.4304,69.5351,340.7473,69.0036,340.7021,68.8947,341.3715,68.9106,341.8404,68.4428,342.5198,68.4829,342.9395,67.8961,343.5757,67.832" style="stroke:#FF6F00;stroke-width:1.5;"/><text fill="#FFFFFF" font-family="'Roboto'" font-size="13" lengthAdjust="spacing" textLength="131.9741" x="349.5757" y="89.8989">Estimating &amp; Pricing</text><a href="/use-case/construction-project-quotations/estimating-and-pricing/contingency-and-escalation/" target="_top" title="/use-case/construction-project-quotations/estimating-and-pricing/contingency-and-escalation/" xlink:actuate="onRequest" xlink:href="/use-case/construction-project-quotations/estimating-and-pricing/contingency-and-escalation/" xlink:show="new" xlink:title="/use-case/construction-project-quotations/estimating-and-pricing/contingency-and-escalation/" xlink:type="simple"><text fill="#4051B5" font-family="'Roboto'" font-size="13" lengthAdjust="spacing" textLength="166.5308" x="548.5498" y="27.0669">Contingency &amp; Escalation</text></a><path d="M491.5498,85.3984 L491.5498,85.5853 L493.5498,85.0302 L495.5498,85.5702 L497.5498,85.7537 L499.5498,84.7643 L501.5498,85.3984 L501.5498,85.3984 L501.5242,85.3752 L503.1907,83.3076 L504.9861,81.3569 L506.8711,79.4876 L508.4472,77.338 L510.4561,75.5809 L510.6904,75.656 L510.8338,73.4829 L511.6614,71.5289 L512.5725,69.6017 L512.9979,67.519 L513.6787,65.518 L513.7081,65.5253 L514.2392,63.2074 L514.9041,60.9229 L515.5045,58.6223 L516.2282,56.3524 L516.5498,53.9824 L516.8392,54.0545 L517.417,51.7482 L517.8081,49.3955 L518.4724,47.1108 L519.1495,44.8293 L519.4209,42.4469 L519.1156,42.3491 L520.3526,40.5262 L520.5845,38.3815 L521.5804,36.4814 L521.7895,34.3294 L522.6436,32.3839 L522.621,32.3635 L524.6689,30.6419 L526.19,28.4424 L528.022,26.5249 L529.88,24.631 L531.5498,22.5664 L531.5498,22.9364 L533.5498,22.5629 L535.5498,22.8217 L537.5498,22.0576 L539.5498,22.8192 L541.5498,22.5664" fill="none" style="stroke:#FF6F00;stroke-width:1;"/><a href="/use-case/construction-project-quotations/estimating-and-pricing/indirects-overheads-general-conditions/" target="_top" title="/use-case/construction-project-quotations/estimating-and-pricing/indirects-overheads-general-conditions/" xlink:actuate="onRequest" xlink:href="/use-case/construction-project-quotations/estimating-and-pricing/indirects-overheads-general-conditions/" xlink:show="new" xlink:title="/use-case/construction-project-quotations/estimating-and-pricing/indirects-overheads-general-conditions/" xlink:type="simple"><text fill="#4051B5" font-family="'Roboto'" font-size="13" lengthAdjust="spacing" textLength="277.6338" x="548.5498" y="52.1997">Indirects, Overheads &amp; General Conditions</text></a><path d="M491.5498,85.3984 L491.5498,85.5853 L493.5498,85.0302 L495.5498,85.5702 L497.5498,85.7537 L499.5498,84.7643 L501.5498,85.3984 L501.5498,85.3984 L501.5308,85.3696 L503.2265,84.0622 L505.0183,82.9001 L506.8768,81.8389 L508.5053,80.4297 L510.4561,79.5079 L510.6787,79.6126 L511.4213,76.7969 L512.814,74.2869 L514.286,71.8142 L515.2966,69.1244 L516.5498,66.5488 L516.5772,66.5617 L517.7557,63.951 L519.0591,61.3989 L520.3022,58.8186 L521.6604,56.2923 L522.6436,53.5897 L522.8081,53.8385 L524.5913,52.6634 L526.2685,51.3279 L528.101,50.2273 L529.9407,49.1376 L531.5498,47.6992 L531.5498,47.0582 L533.5498,48.3023 L535.5498,47.4357 L537.5498,48.1737 L539.5498,47.2592 L541.5498,47.6992" fill="none" style="stroke:#FF6F00;stroke-width:1;"/><a href="/use-case/construction-project-quotations/estimating-and-pricing/labor-productivity-and-crew-modeling/" target="_top" title="/use-case/construction-project-quotations/estimating-and-pricing/labor-productivity-and-crew-modeling/" xlink:actuate="onRequest" xlink:href="/use-case/construction-project-quotations/estimating-and-pricing/labor-productivity-and-crew-modeling/" xlink:show="new" xlink:title="/use-case/construction-project-quotations/estimating-and-pricing/labor-productivity-and-crew-modeling/" xlink:type="simple"><text fill="#4051B5" font-family="'Roboto'" font-size="13" lengthAdjust="spacing" textLength="233.1938" x="548.5498" y="77.3325">Labor Productivity &amp; Crew Modeling</text></a><path d="M491.5498,85.3984 L491.5498,85.5853 L493.5498,85.0302 L495.5498,85.5702 L497.5498,85.7537 L499.5498,84.7643 L501.5498,85.3984 L501.5498,85.3984 L501.5365,85.3666 L504.4766,83.967 L507.484,82.7279 L510.5381,81.6006 L513.4311,80.0885 L516.5498,79.1152 L516.6449,79.3422 L519.4416,77.6002 L522.5158,76.5209 L525.624,75.5224 L528.5351,74.0535 L531.5498,72.832 L531.5498,72.8927 L533.5498,72.8036 L535.5498,72.9907 L537.5498,73.0446 L539.5498,73.3526 L541.5498,72.832" fill="none" style="stroke:#FF6F00;stroke-width:1;"/><a href="/use-case/construction-project-quotations/estimating-and-pricing/pricing-strategy-margin-markups/" target="_top" title="/use-case/construction-project-quotations/estimating-and-pricing/pricing-strategy-margin-markups/" xlink:actuate="onRequest" xlink:href="/use-case/construction-project-quotations/estimating-and-pricing/pricing-strategy-margin-markups/" xlink:show="new" xlink:title="/use-case/construction-project-quotations/estimating-and-pricing/pricing-strategy-margin-markups/" xlink:type="simple"><text fill="#4051B5" font-family="'Roboto'" font-size="13" lengthAdjust="spacing" textLength="222.4854" x="548.5498" y="102.4653">Pricing Strategy (Margin/Markups)</text></a><path d="M491.5498,85.3984 L491.5498,85.5853 L493.5498,85.0302 L495.5498,85.5702 L497.5498,85.7537 L499.5498,84.7643 L501.5498,85.3984 L501.5498,85.3984 L501.5365,85.3666 L504.4766,86.4802 L507.484,87.7545 L510.5381,89.1404 L513.4311,90.1416 L516.5498,91.6816 L516.6449,91.9086 L519.4416,92.6799 L522.5158,94.1139 L525.624,95.6286 L528.5351,96.673 L531.5498,97.9648 L531.5498,98.0255 L533.5498,97.9364 L535.5498,98.1235 L537.5498,98.1774 L539.5498,98.4855 L541.5498,97.9648" fill="none" style="stroke:#FF6F00;stroke-width:1;"/><a href="/use-case/construction-project-quotations/estimating-and-pricing/quantity-takeoff/" target="_top" title="/use-case/construction-project-quotations/estimating-and-pricing/quantity-takeoff/" xlink:actuate="onRequest" xlink:href="/use-case/construction-project-quotations/estimating-and-pricing/quantity-takeoff/" xlink:show="new" xlink:title="/use-case/construction-project-quotations/estimating-and-pricing/quantity-takeoff/" xlink:type="simple"><text fill="#4051B5" font-family="'Roboto'" font-size="13" lengthAdjust="spacing" textLength="192.4165" x="548.5498" y="127.5981">Quantity Takeoff (2D/3D/BIM)</text></a><path d="M491.5498,85.3984 L491.5498,85.5853 L493.5498,85.0302 L495.5498,85.5702 L497.5498,85.7537 L499.5498,84.7643 L501.5498,85.3984 L501.5498,85.3984 L501.5308,85.3696 L503.2265,86.4184 L505.0183,87.6125 L506.8768,88.9075 L508.5053,89.8545 L510.4561,91.2889 L510.6787,91.3936 L511.4213,93.7616 L512.814,96.4352 L514.286,99.1461 L515.2966,101.64 L516.5498,104.248 L516.5772,104.261 L517.7557,106.8338 L519.0591,109.4655 L520.3022,112.0687 L521.6604,114.7261 L522.6436,117.2072 L522.8081,117.4559 L524.5913,118.6371 L526.2685,119.6577 L528.101,120.9133 L529.9407,122.1799 L531.5498,123.0977 L531.5498,122.4566 L533.5498,123.7008 L535.5498,122.8341 L537.5498,123.5722 L539.5498,122.6576 L541.5498,123.0977" fill="none" style="stroke:#FF6F00;stroke-width:1;"/><a href="/use-case/construction-project-quotations/estimating-and-pricing/unit-rates-and-cost-libraries/" target="_top" title="/use-case/construction-project-quotations/estimating-and-pricing/unit-rates-and-cost-libraries/" xlink:actuate="onRequest" xlink:href="/use-case/construction-project-quotations/estimating-and-pricing/unit-rates-and-cost-libraries/" xlink:show="new" xlink:title="/use-case/construction-project-quotations/estimating-and-pricing/unit-rates-and-cost-libraries/" xlink:type="simple"><text fill="#4051B5" font-family="'Roboto'" font-size="13" lengthAdjust="spacing" textLength="175.043" x="548.5498" y="152.731">Unit Rates &amp; Cost Libraries</text></a><path d="M491.5498,85.3984 L491.5498,85.5853 L493.5498,85.0302 L495.5498,85.5702 L497.5498,85.7537 L499.5498,84.7643 L501.5498,85.3984 L501.5498,85.3984 L501.5242,85.3752 L503.1907,87.2346 L504.9861,89.2109 L506.8711,91.2686 L508.4472,93.046 L510.4561,95.2159 L510.6904,95.291 L510.8338,97.1431 L511.6614,99.2143 L512.5725,101.3123 L512.9979,103.2547 L513.6787,105.2789 L513.7081,105.2862 L514.2392,107.5826 L514.9041,109.9123 L515.5045,112.2259 L516.2282,114.5702 L516.5498,116.8145 L516.8392,116.8865 L517.417,119.1945 L517.8081,121.456 L518.4724,123.7856 L519.1495,126.1183 L519.4209,128.35 L519.1156,128.2523 L520.3526,130.4546 L520.5845,132.335 L521.5804,134.4601 L521.7895,136.3333 L522.6436,138.413 L522.621,138.3925 L524.6689,140.5979 L526.19,142.3254 L528.022,144.3349 L529.88,146.3681 L531.5498,148.2305 L531.5498,148.6005 L533.5498,148.227 L535.5498,148.4858 L537.5498,147.7217 L539.5498,148.4833 L541.5498,148.2305" fill="none" style="stroke:#FF6F00;stroke-width:1;"/><a href="/use-case/construction-project-quotations/" target="_top" title="/use-case/construction-project-quotations/" xlink:actuate="onRequest" xlink:href="/use-case/construction-project-quotations/" xlink:show="new" xlink:title="/use-case/construction-project-quotations/" xlink:type="simple"><text fill="#4051B5" font-family="'Roboto'" font-size="13" lengthAdjust="spacing" textLength="268.5757" x="14" y="89.8989">Complex Construction Project Quotations</text></a><path d="M339.5757,85.3984 L339.5757,85.5853 L337.5757,85.0302 L335.5757,85.5702 L333.5757,85.7537 L331.5757,84.7643 L329.5757,85.3984 L329.5757,85.3984 L329.5757,85.3639 L323.5757,85.2089 L317.5757,85.228 L311.5757,85.3681 L305.5757,85.0912 L299.5757,85.3984 L299.5757,85.8906 L297.5757,84.8382 L295.5757,85.2226 L293.5757,85.7824 L291.5757,85.3222 L289.5757,85.3984" fill="none" style="stroke:#FF6F00;stroke-width:1;"/><!--SRC=[xLXjRzis4FwkNy4rm9AYrHodQL4KHT74STEqTfpPIOUXA09QectE4kcIL5nls7_VaPBruiYItxGsGFqb0VdmxhaZTUGzRwN2GlcKkJwU828LzR6YR6XZvjeJGHtutx9-SSc0Ce9Eps_R9nUNjurEgzD5vhTtVFYytd-UXlIQZSxbsKdtpmYN0xawQNmyEM_6Xkv1EjspPZVj1-qD1Yy6XuSnv5tdyZe3C13zYo4dtMxdZoncRiMIOyecM60VzR4p7WeUCBV1FIxGdXAOIPWZJALWxsSJ8ZpAnX4gOcpj8yeSBt09KYE2XeGHWJqKhvDe0EW-LwEdoAF3aKAGMUHYCOQLYYD-HyHKK4NGbAfHQ8FU4OOaKNeZv69EhjzVD3vUDdizL8UDuHD5EKCZCAgjA5Wum9uaAU9Ns7N143fEZNN3S0MGHIzJuxqHTlbKenUjnE7VCDVyGo982dD61ZZm5Fh7GkWTP-eI-mGzwdA8dZ-AniBi9PiN3VVetmJLZwr_q_PEXE1JOst9gcN6rCo3V77FpTgRm4xZ8OdvvIm_NJWCcHElvxc0yAEvr245HuaVnjrrdMG-Y5NzEDoVS0R7r3ZRcFfIdc4U0zyxokRHnGhtiIILkCruSZmUkF-36-vvnD5Vagp8MUAh0G31lShzd6gpMCmgTzHaYghgtL2cY1XWXrJkgKU-1eGvv0fkHhW09vYfqDprY3fZHgI4qfl0PGGtlD9hIYZUCv_BDeLAIXlZmiVU_TcSRxX51wG5rRh0HGmf8MpASOuBCrvWtymleMVcahm-qqEEugAKYm4L-DJpopxyVTGuDiLDFsxsqLxfBrqh11GAp8OUUVqQRaJ9sPitPkTxS3m9Lt1D5jnCkxnnvbD9zXPV2DaYbo9ElW5PXhtRgY9OU09M58QSIKNyXvp_gYAeCF_po_-XfJ_X_P2pdpf4_UY2d_DVUBelHcHUs8UhlJutpaLPcE7rvM8v8kvgiUU6xe1x33UMM2Tsw2xAZrjbaQ-wmQltKFCEDDr0FGkljmuqbO924-96rdGFEc_oTNSYaOtyG2hTGX241n3rtFD27vFo5tNN1GrQgk4keffzmoIPMMWpfC8gV5MLxzlIZO6dW5A2zWD5bYEIXqqsWi8-BDEcO2ctPrhaR1-re_sJ4-BG0NKWF-O50riv7Ma1GK5XWsUor1jlDlafwdi1WJrcZEZta4GyK7ewhrUjZ7dY2sSVUtNBUjAC5IVqAxgAz2RRlaMVFzS2IMm7AdOD0f1A1AP1ioU2_mNHs5y33kT3jsmrE7t-n2FVT6yL0y6Q0QBVO-2NBzQJ9-kPpbV4z38z1i_-cHadqi6UML8p3Luq1p4ruvdTUOU3G7KrbBPMZqO4kzAEX2SRJBeqIil57FVKL0G314hdaKRLYA6xe-RXFXSQx-gbTz0Occb7aAdjmr7J1xQ6MXgbDoX60Qq6O50xmkoEKVJNXhLGJeOpsyTYI9d-CmucaANer47f3m7ee6qGjNQ8UBmxBby3R9fbM-4nuOD13GvdE8Akmn5qS7HMUtPMExrexz1lmAYoTNGot0qkbUtHli224iZ03KoZhfxMsm2Jq196ay3XBO6w4zOUotgxabwyEtNr1zSnvtVY6Y9cTackcRNaosJjOlrERjrqUPuhu2M2vIxC5kkJnNRokMoaIAxlQ4KDSbl39QhZ9kPNqnctiroeB6vdka1BtCvmiNgudUsAzCA4r1AbCE6tWKYOV5Dv2c5YUfaucB1BlPuJe_SqmSJYWXoui6O5BJ3bUb45J7d92e2f3t13BQ-uRgzxekuVaEsrkk_5i5H6-Uwf-x4Ohg6WVITUFsZYAX2_4aORH5SGGudGLQzUsQegigMximFbQWlfAVUothdib5ZCJroksfIPpboM4UDbB-aL5QPoKgNc2rIW7LZ_gVlyr7r-wZuFMlUvye3lJRk5u3n9_PNLVpiwF7h-MxtU9mhN3mzks9ZnAJCzFuKw2tp8O-lW_Ag590y4j3ikbM5fXEMFhG_u3gDkm3Jk5UfC2Fjmzd4-07tW7HMS-Lea-l2fdG1U7DkdGBf71111dzhM_DPfCeThUUWLkhb-Px-qMd2X1dW8jWcp6b3Eb9Z1NEy_]--></g></svg>