<svg xmlns="http://www.w3.org/2000/svg" xmlns:xlink="http://www.w3.org/1999/xlink" viewBox="85.31 307.50 942.67 185.00" width="942.67px" height="185.00px" class="use-case-tree-svg">
  <rect width="100%" height="100%" fill="transparent" />
  <line x1="350.00" y1="350.00" x2="360.00" y2="350.00" stroke="#FF9900" stroke-width="1.5" />
  <path d="M 360.00 350.00 C 378.00 350.00, 382.00 325.00, 400.00 325.00" stroke="#FF9900" stroke-width="1.5" fill="none" />
  <line x1="350.00" y1="350.00" x2="360.00" y2="350.00" stroke="#FF9900" stroke-width="1.5" />
  <path d="M 360.00 350.00 C 378.00 350.00, 382.00 350.00, 400.00 350.00" stroke="#FF9900" stroke-width="1.5" fill="none" />
  <line x1="350.00" y1="350.00" x2="360.00" y2="350.00" stroke="#FF9900" stroke-width="1.5" />
  <path d="M 360.00 350.00 C 378.00 350.00, 382.00 375.00, 400.00 375.00" stroke="#FF9900" stroke-width="1.5" fill="none" />
  <line x1="350.00" y1="350.00" x2="360.00" y2="350.00" stroke="#FF9900" stroke-width="1.5" />
  <path d="M 360.00 350.00 C 378.00 350.00, 382.00 400.00, 400.00 400.00" stroke="#FF9900" stroke-width="1.5" fill="none" />
  <line x1="350.00" y1="350.00" x2="360.00" y2="350.00" stroke="#FF9900" stroke-width="1.5" />
  <path d="M 360.00 350.00 C 378.00 350.00, 382.00 425.00, 400.00 425.00" stroke="#FF9900" stroke-width="1.5" fill="none" />
  <line x1="350.00" y1="350.00" x2="360.00" y2="350.00" stroke="#FF9900" stroke-width="1.5" />
  <path d="M 360.00 350.00 C 378.00 350.00, 382.00 450.00, 400.00 450.00" stroke="#FF9900" stroke-width="1.5" fill="none" />
  <line x1="350.00" y1="350.00" x2="360.00" y2="350.00" stroke="#FF9900" stroke-width="1.5" />
  <path d="M 360.00 350.00 C 378.00 350.00, 382.00 475.00, 400.00 475.00" stroke="#FF9900" stroke-width="1.5" fill="none" />
  <path d="M 691.69 350.00 C 716.44 350.00, 721.94 362.50, 746.69 362.50" stroke="#FF9900" stroke-width="1.5" fill="none" />
  <path d="M 691.69 350.00 C 716.44 350.00, 721.94 387.50, 746.69 387.50" stroke="#FF9900" stroke-width="1.5" fill="none" />
  <path d="M 691.69 350.00 C 716.44 350.00, 721.94 412.50, 746.69 412.50" stroke="#FF9900" stroke-width="1.5" fill="none" />
  <path d="M 691.69 350.00 C 716.44 350.00, 721.94 437.50, 746.69 437.50" stroke="#FF9900" stroke-width="1.5" fill="none" />
  <a xlink:href="/use-case/construction-project-quotations/" target="_top">
    <rect x="90.31" y="337.50" width="259.69" height="25" rx="4" ry="4" fill="none" stroke="none" pointer-events="all" />
    <text x="100.31" y="354.50" text-anchor="start" font-family="Roboto, sans-serif" font-size="13" fill="#90EE90" font-weight="normal">Complex Construction Project Quotations</text>
  </a>
  <a xlink:href="/use-case/construction-project-quotations/estimating-and-pricing/" target="_top">
    <rect x="400.00" y="312.50" width="136.59" height="25" rx="4" ry="4" fill="none" stroke="none" pointer-events="all" />
    <text x="410.00" y="329.50" text-anchor="start" font-family="Roboto, sans-serif" font-size="13" fill="#90EE90" font-weight="normal">Estimating &amp; Pricing</text>
  </a>
  <a xlink:href="/use-case/construction-project-quotations/knowledge-capture-and-improvement/" target="_top">
    <rect x="400.00" y="337.50" width="296.69" height="25" rx="4" ry="4" fill="#4051B5" stroke="#FF6F00" stroke-width="1.5" />
    <text x="410.00" y="354.50" text-anchor="start" font-family="Roboto, sans-serif" font-size="13" fill="#FFFFFF" font-weight="bold">Knowledge Capture &amp; Continuous Improvement</text>
  </a>
  <a xlink:href="/use-case/construction-project-quotations/knowledge-capture-and-improvement/document-ingestion-and-knowledge-extraction/" target="_top">
    <rect x="746.69" y="350.00" width="276.30" height="25" rx="4" ry="4" fill="none" stroke="none" pointer-events="all" />
    <text x="756.69" y="367.00" text-anchor="start" font-family="Roboto, sans-serif" font-size="13" fill="#90EE90" font-weight="normal">Document Ingestion &amp; Knowledge Extraction</text>
  </a>
  <a xlink:href="/use-case/construction-project-quotations/knowledge-capture-and-improvement/estimate-vs-actual-and-lessons-learned/" target="_top">
    <rect x="746.69" y="375.00" width="240.62" height="25" rx="4" ry="4" fill="none" stroke="none" pointer-events="all" />
    <text x="756.69" y="392.00" text-anchor="start" font-family="Roboto, sans-serif" font-size="13" fill="#90EE90" font-weight="normal">Estimate vs Actual &amp; Lessons Learned</text>
  </a>
  <a xlink:href="/use-case/construction-project-quotations/knowledge-capture-and-improvement/sme-knowledge-capture/" target="_top">
    <rect x="746.69" y="400.00" width="162.27" height="25" rx="4" ry="4" fill="none" stroke="none" pointer-events="all" />
    <text x="756.69" y="417.00" text-anchor="start" font-family="Roboto, sans-serif" font-size="13" fill="#90EE90" font-weight="normal">SME Knowledge Capture</text>
  </a>
  <a xlink:href="/use-case/construction-project-quotations/knowledge-capture-and-improvement/traceability-and-provenance/" target="_top">
    <rect x="746.69" y="425.00" width="169.05" height="25" rx="4" ry="4" fill="none" stroke="none" pointer-events="all" />
    <text x="756.69" y="442.00" text-anchor="start" font-family="Roboto, sans-serif" font-size="13" fill="#90EE90" font-weight="normal">Traceability &amp; Provenance</text>
  </a>
  <a xlink:href="/use-case/construction-project-quotations/opportunity-and-tender-intake/" target="_top">
    <rect x="400.00" y="362.50" width="180.53" height="25" rx="4" ry="4" fill="none" stroke="none" pointer-events="all" />
    <text x="410.00" y="379.50" text-anchor="start" font-family="Roboto, sans-serif" font-size="13" fill="#90EE90" font-weight="normal">Opportunity &amp; Tender Intake</text>
  </a>
  <a xlink:href="/use-case/construction-project-quotations/proposal-submission-and-negotiation/" target="_top">
    <rect x="400.00" y="387.50" width="153.47" height="25" rx="4" ry="4" fill="none" stroke="none" pointer-events="all" />
    <text x="410.00" y="404.50" text-anchor="start" font-family="Roboto, sans-serif" font-size="13" fill="#90EE90" font-weight="normal">Proposal &amp; Negotiation</text>
  </a>
  <a xlink:href="/use-case/construction-project-quotations/risk-compliance-and-contracts/" target="_top">
    <rect x="400.00" y="412.50" width="189.95" height="25" rx="4" ry="4" fill="none" stroke="none" pointer-events="all" />
    <text x="410.00" y="429.50" text-anchor="start" font-family="Roboto, sans-serif" font-size="13" fill="#90EE90" font-weight="normal">Risk, Compliance &amp; Contracts</text>
  </a>
  <a xlink:href="/use-case/construction-project-quotations/scope-and-requirements/" target="_top">
    <rect x="400.00" y="437.50" width="150.89" height="25" rx="4" ry="4" fill="none" stroke="none" pointer-events="all" />
    <text x="410.00" y="454.50" text-anchor="start" font-family="Roboto, sans-serif" font-size="13" fill="#90EE90" font-weight="normal">Scope &amp; Requirements</text>
  </a>
  <a xlink:href="/use-case/construction-project-quotations/supply-chain-and-subcontractors/" target="_top">
    <rect x="400.00" y="462.50" width="198.12" height="25" rx="4" ry="4" fill="none" stroke="none" pointer-events="all" />
    <text x="410.00" y="479.50" text-anchor="start" font-family="Roboto, sans-serif" font-size="13" fill="#90EE90" font-weight="normal">Supply Chain &amp; Subcontractors</text>
  </a>
</svg>