<svg xmlns="http://www.w3.org/2000/svg" xmlns:xlink="http://www.w3.org/1999/xlink" contentStyleType="text/css" data-diagram-type="MINDMAP" height="147px" preserveAspectRatio="none" style="width:893px;height:147px;" version="1.1" viewBox="0 0 893 147" width="893px" zoomAndPan="magnify"><defs/><g><polygon fill="#4051B5" points="501.1235,55.2656,501.1235,55.4758,511.0339,54.8513,520.9443,55.4589,530.8547,55.6653,540.7651,54.5522,550.6754,55.1879,560.5858,54.8391,570.4962,54.8821,580.4066,55.1975,590.317,54.5743,600.2274,55.8193,610.1377,54.6353,620.0481,55.0679,629.9585,55.2656,630.0136,55.3986,630.5132,55.4735,631.0986,55.7553,631.6515,55.9587,632.244,56.2579,632.7869,56.4372,632.8606,56.4677,633.2016,57.0776,633.4622,57.6542,633.6991,58.2209,633.8026,58.7324,633.9585,59.2656,634.113,59.2656,634.1926,64.6922,633.7181,70.1188,634.1847,75.5453,633.8597,80.9719,633.9585,86.3984,634.1229,86.4665,633.5717,86.901,633.4688,87.5211,633.4839,88.1901,633.0062,88.655,632.7869,89.2269,632.8004,89.2593,632.2644,89.5655,631.7086,89.8237,631.0894,89.9286,630.5608,90.2526,629.9585,90.3984,629.9585,89.826,620.0481,90.6828,610.1377,90.9466,600.2274,90.843,590.317,91.0115,580.4066,89.9154,570.4962,89.7463,560.5858,89.777,550.6754,90.3396,540.7651,90.2019,530.8547,91.0798,520.9443,90.2238,511.0339,90.0554,501.1235,90.3984,501.1527,90.4687,500.4728,89.9588,499.9259,89.7699,499.5093,89.8953,498.9164,89.5953,498.2951,89.2269,498.5213,89.3206,497.9617,88.6201,497.9248,88.1362,497.774,87.6051,497.2124,86.9039,497.1235,86.3984,497.0916,86.3984,497.1655,80.9719,497.3408,75.5453,497.1221,70.1188,497.2777,64.6922,497.1235,59.2656,496.953,59.195,497.1493,58.6135,497.7473,58.1985,497.6057,57.4771,498.2175,57.0678,498.2951,56.4372,498.3215,56.5008,498.8266,56.1204,499.3814,55.8596,500.0507,55.8755,500.5197,55.4078,501.1235,55.2656" style="stroke:#FF6F00;stroke-width:1.5;"/><text fill="#FFFFFF" font-family="'Roboto'" font-size="13" lengthAdjust="spacing" textLength="116.835" x="507.1235" y="77.3325">Corporate Actions</text><a href="/use-case/legal-entity-management/ownership-and-capital-structure/corporate-actions/dividends/" target="_top" title="/use-case/legal-entity-management/ownership-and-capital-structure/corporate-actions/dividends/" xlink:actuate="onRequest" xlink:href="/use-case/legal-entity-management/ownership-and-capital-structure/corporate-actions/dividends/" xlink:show="new" xlink:title="/use-case/legal-entity-management/ownership-and-capital-structure/corporate-actions/dividends/" xlink:type="simple"><text fill="#4051B5" font-family="'Roboto'" font-size="13" lengthAdjust="spacing" textLength="64.4414" x="690.9585" y="27.0669">Dividends</text></a><path d="M633.9585,72.832 L633.9585,73.0189 L635.9585,72.4637 L637.9585,73.0038 L639.9585,73.1873 L641.9585,72.1979 L643.9585,72.832 L643.9585,72.832 L643.9357,72.8061 L645.6144,71.1191 L647.4083,69.5626 L649.2822,68.0969 L650.8803,66.3184 L652.8647,64.978 L653.0968,65.0599 L653.8193,61.4291 L655.2194,58.0373 L656.702,54.6746 L657.7038,51.1423 L658.9585,47.6992 L658.9871,47.7093 L660.1639,44.2387 L661.4708,40.8141 L662.715,37.3673 L664.079,33.9627 L665.0522,30.4204 L665.2495,30.6441 L667.0332,29.076 L668.6896,27.3637 L670.5323,25.8625 L672.3837,24.3713 L673.9585,22.5664 L673.9585,21.9254 L675.9585,23.1695 L677.9585,22.3028 L679.9585,23.0409 L681.9585,22.1264 L683.9585,22.5664" fill="none" style="stroke:#FF6F00;stroke-width:1;"/><a href="/use-case/legal-entity-management/ownership-and-capital-structure/corporate-actions/merger-and-acquisition-history/" target="_top" title="/use-case/legal-entity-management/ownership-and-capital-structure/corporate-actions/merger-and-acquisition-history/" xlink:actuate="onRequest" xlink:href="/use-case/legal-entity-management/ownership-and-capital-structure/corporate-actions/merger-and-acquisition-history/" xlink:show="new" xlink:title="/use-case/legal-entity-management/ownership-and-capital-structure/corporate-actions/merger-and-acquisition-history/" xlink:type="simple"><text fill="#4051B5" font-family="'Roboto'" font-size="13" lengthAdjust="spacing" textLength="186.3672" x="690.9585" y="52.1997">Merger &amp; Acquisition History</text></a><path d="M633.9585,72.832 L633.9585,73.0189 L635.9585,72.4637 L637.9585,73.0038 L639.9585,73.1873 L641.9585,72.1979 L643.9585,72.832 L643.9585,72.832 L643.9363,72.8056 L646.8368,70.1734 L649.849,67.6748 L652.939,65.269 L655.7612,62.5434 L658.9585,60.2656 L659.1165,60.4542 L661.7786,57.5376 L664.9021,55.1717 L668.0818,52.8729 L670.934,50.1833 L673.9585,47.6992 L673.9585,47.7599 L675.9585,47.6708 L677.9585,47.8579 L679.9585,47.9118 L681.9585,48.2198 L683.9585,47.6992" fill="none" style="stroke:#FF6F00;stroke-width:1;"/><a href="/use-case/legal-entity-management/ownership-and-capital-structure/corporate-actions/parents-and-subsidiaries/" target="_top" title="/use-case/legal-entity-management/ownership-and-capital-structure/corporate-actions/parents-and-subsidiaries/" xlink:actuate="onRequest" xlink:href="/use-case/legal-entity-management/ownership-and-capital-structure/corporate-actions/parents-and-subsidiaries/" xlink:show="new" xlink:title="/use-case/legal-entity-management/ownership-and-capital-structure/corporate-actions/parents-and-subsidiaries/" xlink:type="simple"><text fill="#4051B5" font-family="'Roboto'" font-size="13" lengthAdjust="spacing" textLength="146.3452" x="690.9585" y="77.3325">Parents &amp; Subsidiaries</text></a><path d="M633.9585,72.832 L633.9585,73.0189 L635.9585,72.4637 L637.9585,73.0038 L639.9585,73.1873 L641.9585,72.1979 L643.9585,72.832 L643.9585,72.832 L643.9585,72.7975 L649.9585,72.6425 L655.9585,72.6616 L661.9585,72.8017 L667.9585,72.5248 L673.9585,72.832 L673.9585,73.3242 L675.9585,72.2718 L677.9585,72.6562 L679.9585,73.216 L681.9585,72.7558 L683.9585,72.832" fill="none" style="stroke:#FF6F00;stroke-width:1;"/><a href="/use-case/legal-entity-management/ownership-and-capital-structure/corporate-actions/spin-offs/" target="_top" title="/use-case/legal-entity-management/ownership-and-capital-structure/corporate-actions/spin-offs/" xlink:actuate="onRequest" xlink:href="/use-case/legal-entity-management/ownership-and-capital-structure/corporate-actions/spin-offs/" xlink:show="new" xlink:title="/use-case/legal-entity-management/ownership-and-capital-structure/corporate-actions/spin-offs/" xlink:type="simple"><text fill="#4051B5" font-family="'Roboto'" font-size="13" lengthAdjust="spacing" textLength="56.9258" x="690.9585" y="102.4653">Spin-offs</text></a><path d="M633.9585,72.832 L633.9585,73.0189 L635.9585,72.4637 L637.9585,73.0038 L639.9585,73.1873 L641.9585,72.1979 L643.9585,72.832 L643.9585,72.832 L643.9363,72.8056 L646.8368,75.2 L649.849,77.7279 L652.939,80.3487 L655.7612,82.6496 L658.9585,85.3984 L659.1165,85.5871 L661.7786,87.697 L664.9021,90.3576 L668.0818,93.0854 L670.934,95.4223 L673.9585,97.9648 L673.9585,98.0255 L675.9585,97.9364 L677.9585,98.1235 L679.9585,98.1774 L681.9585,98.4855 L683.9585,97.9648" fill="none" style="stroke:#FF6F00;stroke-width:1;"/><a href="/use-case/legal-entity-management/ownership-and-capital-structure/corporate-actions/stock-splits/" target="_top" title="/use-case/legal-entity-management/ownership-and-capital-structure/corporate-actions/stock-splits/" xlink:actuate="onRequest" xlink:href="/use-case/legal-entity-management/ownership-and-capital-structure/corporate-actions/stock-splits/" xlink:show="new" xlink:title="/use-case/legal-entity-management/ownership-and-capital-structure/corporate-actions/stock-splits/" xlink:type="simple"><text fill="#4051B5" font-family="'Roboto'" font-size="13" lengthAdjust="spacing" textLength="75.7085" x="690.9585" y="127.5981">Stock Splits</text></a><path d="M633.9585,72.832 L633.9585,73.0189 L635.9585,72.4637 L637.9585,73.0038 L639.9585,73.1873 L641.9585,72.1979 L643.9585,72.832 L643.9585,72.832 L643.9357,72.8061 L645.6144,74.2607 L647.4083,75.8458 L649.2822,77.5217 L650.8803,78.8848 L652.8647,80.686 L653.0968,80.7679 L653.8193,84.0486 L655.2194,87.5683 L656.702,91.1172 L657.7038,94.4964 L658.9585,97.9648 L658.9871,97.9749 L660.1639,101.4159 L661.4708,104.9028 L662.715,108.3675 L664.079,111.8745 L665.0522,115.2437 L665.2495,115.4673 L667.0332,117.0409 L668.6896,118.4701 L670.5323,120.1106 L672.3837,121.7609 L673.9585,123.0977 L673.9585,122.4566 L675.9585,123.7008 L677.9585,122.8341 L679.9585,123.5722 L681.9585,122.6576 L683.9585,123.0977" fill="none" style="stroke:#FF6F00;stroke-width:1;"/><a href="/use-case/legal-entity-management/ownership-and-capital-structure/" target="_top" title="/use-case/legal-entity-management/ownership-and-capital-structure/" xlink:actuate="onRequest" xlink:href="/use-case/legal-entity-management/ownership-and-capital-structure/" xlink:show="new" xlink:title="/use-case/legal-entity-management/ownership-and-capital-structure/" xlink:type="simple"><text fill="#4051B5" font-family="'Roboto'" font-size="13" lengthAdjust="spacing" textLength="198.1992" x="241.9243" y="77.3325">Ownership &amp; Capital Structure</text></a><a href="/use-case/legal-entity-management/" target="_top" title="/use-case/legal-entity-management/" xlink:actuate="onRequest" xlink:href="/use-case/legal-entity-management/" xlink:show="new" xlink:title="/use-case/legal-entity-management/" xlink:type="simple"><text fill="#4051B5" font-family="'Roboto'" font-size="13" lengthAdjust="spacing" textLength="166.9243" x="14" y="77.3325">Legal Entity Management</text></a><path d="M237.9243,72.832 L237.9243,73.0189 L235.9243,72.4637 L233.9243,73.0038 L231.9243,73.1873 L229.9243,72.1979 L227.9243,72.832 L227.9243,72.832 L227.9243,72.7975 L221.9243,72.6425 L215.9243,72.6616 L209.9243,72.8017 L203.9243,72.5248 L197.9243,72.832 L197.9243,73.3242 L195.9243,72.2718 L193.9243,72.6562 L191.9243,73.216 L189.9243,72.7558 L187.9243,72.832" fill="none" style="stroke:#FF6F00;stroke-width:1;"/><path d="M497.1235,72.832 L497.1235,73.0189 L495.1235,72.4637 L493.1235,73.0038 L491.1235,73.1873 L489.1235,72.1979 L487.1235,72.832 L487.1235,72.832 L487.1235,72.7975 L481.1235,72.6425 L475.1235,72.6616 L469.1235,72.8017 L463.1235,72.5248 L457.1235,72.832 L457.1235,73.3242 L455.1235,72.2718 L453.1235,72.6562 L451.1235,73.216 L449.1235,72.7558 L447.1235,72.832" fill="none" style="stroke:#FF6F00;stroke-width:1;"/><!--SRC=[xLZRRjiu47tNLt0RODkYLHstQL44HL77kRMnuy1EkbWKHK1Bb4rO8bMIIZQxs7_VeIxM9RBacpOfK3zPdE7CcI4vv9nFKc6XFCfi3_l8uiBd0YjYOajHpgHX_6OJXpA23awk-vtFvzVTGMymHE5lPs_tRNlyDgioEkeEpWyxmpzZlHALYqxth7DoD3TqJsKmF3mQPlsW7STvv-pkpbME1-UNEOLGHV_cAftXSF17NYUnOiWPPJuMs4DZRCqcWWVCxdAN2xIZ16OIP8IfZDhfdK-4IzaireeH6qyHPPORs0IfAK4JmeZ0BfhFayW1xJ5NqvV8fPEfGfZPoCPY1ZCLH_o6Y5j15K6tL4qZ6_I6C2I9KfHDP34dbwUVksVdHwCHQiF2S5yl4Pg2KMr5mKG7kv9aW5zWsmP3Q2ypDep25G0MlS-CZwROvhTQksXb7luLiyC_95R9w1mI1mUkGlyO21rpfiwnHz2J8OVe-PDuBCfUkdZny8Z-JL1xp_WtQwyZ1ByDhIsOjSYOkdCXNzory_PyM6ay8NDy9TCF2fiXj-Erd0i8FvPbDYauIlqmRg_g97SWblLZSS_d3BPfw6njw0jnHdaCFFTrFeysLdYC9Md4RSwJvVB0_X_SSDSbKR5ho5dggmiAWhkD-pdGPh6uQzpH4LDKDU-6CaM4WotIkASH-H4GPf4Bk1IfHNtCL6JkSagj6IDIGkbDrMMi7kBApgc1UCzyATgCLbhQ61SUTkzBIyvmZpga1zMwmiLSfGPmM8vBN8JZ5VP3-G9ueIpDwnizP2akQh64IXK-jNpHmN-AkdjXSOEB3ZvsQd_PMY6WK60sSSc73t0ZIiu-VWnNVWJRat05rsJ5pRJD6oSHfTahlX3oHIu3dFm5O1bshvkAeF04R2WCUISLyNxc_3SLGOFvJox_dotzAUwVEVkPJJIEB_W4V-7fNemeV67lBlVwN3iNTM56rvUDvPJOoyLU6he5xZ7SM6ALsA6xgDzkZKM-x08ltqCb7MYsWNeJNMy3Q2e5XIR4Zgtf7ZJfxtLt8f69l40gtK8GX1s8El5Sw6Co_kBkkg91opJSLL3pRvWqCuKsGogiebTL_RejN1Xu2YWbw3XGPB56-h39Hr3PX-NQ52pbvaYhd3r5_NZzf4yiwb0ByXE-O60fRwUQG51GsE2PBFN2Xuly4etTWC0QCqRqUqWY7YWjBkjL6qEU-iBvnrxRC5vq4x99lzX2iiaqhz6tRwr04jE2SjrooGIx9WcR3DF331fu3xvQ_1RElvnItyJC1bMVAj2JIWIM2WHfeK6YW7v7tKWCnpiMV_yEZfRqX7fQaFGv_Ra0RBnuiHsmzpYtbarlOA6OBLleCFdRg4EFY0aHeJgsVWHKKZrkJgc4dNFNGlrG3hdif59q6aaR1HOnSJBKby4OzY_5WX98p4Ka0KoZp7YZOAHFcSaT1xoFah_DEbJScfdITwdIFlKNUDPVuFOJx8guh1l6fpeMTtkSvoDd5vERQWLgCJ-brCnAf68wjrXLqximMpGJNhg6Hjo6sMhMiDfEEPQrUCBL7It936vgk8OBNCVySkpVPfOh-RxDJ5SmV9iPhkRqDhFT48kNWbh0twNurg3kqZDLnjkbfXTHTYcwp9isDNgFgKij5aYwmfmb6BgCwo8tb_6If-Ko1t1DXgswRg-we-vlaCqPj8T2M4jkF7Zg7XV25NYj1yBrI1FN02ML8beZkeeOQkYdTlDyKrEHBLoTBV196n12fPVrricWr69vuaeve9muTrd6Y1Uzf9VaVUf1rPglu6QsOFqN6_EBZVd5nZJ5nbouyB2_wlVG3RZGYzD-zNhtzTjNxVQOADpUVNR5PWm0XEquXHAeg4UU6yzEBdf8ya109sB3SePL2wO_DxxW6uo60TDw-sZW4_Rby2mPWEDmGmLdEYpZozT-gl1kppoW2heX0K3GrxwHN0X7pEAQkTb7LvV7vdkZ1tTT09dPHuGPNQWqIjo1RFGV]--></g></svg>