<svg xmlns="http://www.w3.org/2000/svg" xmlns:xlink="http://www.w3.org/1999/xlink" contentStyleType="text/css" data-diagram-type="MINDMAP" height="153px" preserveAspectRatio="none" style="width:944px;height:153px;" version="1.1" viewBox="0 0 944 153" width="944px" zoomAndPan="magnify"><defs/><g><polygon fill="#4051B5" points="529.21,57.5938,529.21,57.8039,539.0544,57.1794,548.8989,57.787,558.7433,57.9934,568.5878,56.8804,578.4322,57.516,588.2766,57.1673,598.1211,57.2103,607.9655,57.5256,617.81,56.9024,627.6544,58.1474,637.4989,56.9635,647.3433,57.396,657.1878,58.0257,667.0322,57.5938,667.0213,57.5673,667.6066,57.8491,668.1595,58.0525,668.7521,58.3517,669.3255,58.6047,669.8607,58.7653,670.041,58.84,670.3016,59.4166,670.5385,59.9833,670.642,60.4949,670.9407,61.0872,671.0322,61.5938,671.2663,61.5938,670.7918,67.2531,671.2584,72.9125,670.9334,78.5719,671.2102,84.2313,671.0322,89.8906,670.8798,89.8275,670.7768,90.4476,670.792,91.1166,670.3143,91.5815,670.1274,92.1668,669.8607,92.7191,669.9038,92.8233,669.3481,93.0815,668.7288,93.1865,668.2002,93.5104,667.5249,93.48,667.0322,93.8906,667.0322,94.175,657.1878,94.4388,647.3433,94.3352,637.4989,94.5036,627.6544,93.4075,617.81,93.2384,607.9655,93.2692,598.1211,93.8317,588.2766,93.6941,578.4322,94.572,568.5878,93.7159,558.7433,93.5476,548.8989,94.1189,539.0544,93.2238,529.21,93.8906,529.1437,93.7308,528.7271,93.8562,528.1342,93.5562,527.6066,93.4139,526.9062,92.8543,526.3815,92.7191,526.4798,92.7598,526.329,92.2287,525.7674,91.5274,525.6491,91.0098,525.4831,90.4724,525.21,89.8906,525.4272,89.8906,525.2086,84.2313,525.3642,78.5719,525.0254,72.9125,524.9842,67.2531,525.21,61.5938,525.3651,61.658,525.2235,60.9366,525.8353,60.5273,525.9765,59.9231,526.0647,59.2968,526.3815,58.7653,526.3364,58.6564,527.0057,58.6723,527.4747,58.2045,528.1541,58.2446,528.5738,57.6578,529.21,57.5938" style="stroke:#FF6F00;stroke-width:1.5;"/><text fill="#FFFFFF" font-family="'Roboto'" font-size="14" lengthAdjust="spacing" textLength="125.8223" x="535.21" y="80.5889">Corporate Actions</text><a href="/use-case/legal-entity-management/ownership-and-capital-structure/corporate-actions/dividends/" target="_top" title="/use-case/legal-entity-management/ownership-and-capital-structure/corporate-actions/dividends/" xlink:actuate="onRequest" xlink:href="/use-case/legal-entity-management/ownership-and-capital-structure/corporate-actions/dividends/" xlink:show="new" xlink:title="/use-case/legal-entity-management/ownership-and-capital-structure/corporate-actions/dividends/" xlink:type="simple"><text fill="#90EE90" font-family="'Roboto'" font-size="14" lengthAdjust="spacing" textLength="69.3984" x="728.0322" y="27.9951">Dividends</text></a><path d="M671.0322,75.7422 L671.0322,75.929 L673.0322,75.3739 L675.0322,75.914 L677.0322,76.0975 L679.0322,75.1081 L681.0322,75.7422 L681.0322,75.7422 L681.0088,75.7168 L682.6849,73.9593 L684.4791,72.3298 L686.3554,70.7893 L687.9489,68.9421 L689.9385,67.5244 L690.1717,67.603 L690.8918,63.8191 L692.2927,60.2647 L693.7766,56.7383 L694.7774,53.049 L696.0322,49.4453 L696.061,49.455 L697.2375,45.825 L698.5449,42.239 L699.7892,38.6318 L701.1539,35.0652 L702.126,31.3662 L702.3282,31.5854 L704.1119,29.9445 L705.7652,28.1623 L707.6094,26.587 L709.4626,25.0214 L711.0322,23.1484 L711.0322,22.5074 L713.0322,23.7516 L715.0322,22.8849 L717.0322,23.6229 L719.0322,22.7084 L721.0322,23.1484" fill="none" style="stroke:#FF9900;stroke-width:1;"/><a href="/use-case/legal-entity-management/ownership-and-capital-structure/corporate-actions/merger-and-acquisition-history/" target="_top" title="/use-case/legal-entity-management/ownership-and-capital-structure/corporate-actions/merger-and-acquisition-history/" xlink:actuate="onRequest" xlink:href="/use-case/legal-entity-management/ownership-and-capital-structure/corporate-actions/merger-and-acquisition-history/" xlink:show="new" xlink:title="/use-case/legal-entity-management/ownership-and-capital-structure/corporate-actions/merger-and-acquisition-history/" xlink:type="simple"><text fill="#90EE90" font-family="'Roboto'" font-size="14" lengthAdjust="spacing" textLength="200.7031" x="728.0322" y="54.292">Merger &amp; Acquisition History</text></a><path d="M671.0322,75.7422 L671.0322,75.929 L673.0322,75.3739 L675.0322,75.914 L677.0322,76.0975 L679.0322,75.1081 L681.0322,75.7422 L681.0322,75.7422 L681.0095,75.7162 L683.9073,72.97 L686.9199,70.3546 L690.0123,67.8303 L692.8297,64.9924 L696.0322,62.5938 L696.1944,62.7788 L698.8476,59.7534 L701.9743,57.2683 L705.1588,54.8491 L708.0071,52.0463 L711.0322,49.4453 L711.0322,49.506 L713.0322,49.4169 L715.0322,49.604 L717.0322,49.6579 L719.0322,49.9659 L721.0322,49.4453" fill="none" style="stroke:#FF9900;stroke-width:1;"/><a href="/use-case/legal-entity-management/ownership-and-capital-structure/corporate-actions/parents-and-subsidiaries/" target="_top" title="/use-case/legal-entity-management/ownership-and-capital-structure/corporate-actions/parents-and-subsidiaries/" xlink:actuate="onRequest" xlink:href="/use-case/legal-entity-management/ownership-and-capital-structure/corporate-actions/parents-and-subsidiaries/" xlink:show="new" xlink:title="/use-case/legal-entity-management/ownership-and-capital-structure/corporate-actions/parents-and-subsidiaries/" xlink:type="simple"><text fill="#90EE90" font-family="'Roboto'" font-size="14" lengthAdjust="spacing" textLength="157.6025" x="728.0322" y="80.5889">Parents &amp; Subsidiaries</text></a><path d="M671.0322,75.7422 L671.0322,75.929 L673.0322,75.3739 L675.0322,75.914 L677.0322,76.0975 L679.0322,75.1081 L681.0322,75.7422 L681.0322,75.7422 L681.0322,75.7076 L687.0322,75.5526 L693.0322,75.5717 L699.0322,75.7119 L705.0322,75.4349 L711.0322,75.7422 L711.0322,76.2343 L713.0322,75.1819 L715.0322,75.5664 L717.0322,76.1261 L719.0322,75.6659 L721.0322,75.7422" fill="none" style="stroke:#FF9900;stroke-width:1;"/><a href="/use-case/legal-entity-management/ownership-and-capital-structure/corporate-actions/spin-offs/" target="_top" title="/use-case/legal-entity-management/ownership-and-capital-structure/corporate-actions/spin-offs/" xlink:actuate="onRequest" xlink:href="/use-case/legal-entity-management/ownership-and-capital-structure/corporate-actions/spin-offs/" xlink:show="new" xlink:title="/use-case/legal-entity-management/ownership-and-capital-structure/corporate-actions/spin-offs/" xlink:type="simple"><text fill="#90EE90" font-family="'Roboto'" font-size="14" lengthAdjust="spacing" textLength="61.3047" x="728.0322" y="106.8857">Spin-offs</text></a><path d="M671.0322,75.7422 L671.0322,75.929 L673.0322,75.3739 L675.0322,75.914 L677.0322,76.0975 L679.0322,75.1081 L681.0322,75.7422 L681.0322,75.7422 L681.0095,75.7162 L683.9073,78.2293 L686.9199,80.8734 L690.0123,83.6085 L692.8297,86.0299 L696.0322,88.8906 L696.1944,89.0757 L698.8476,91.3097 L701.9743,94.0839 L705.1588,96.9241 L708.0071,99.3807 L711.0322,102.0391 L711.0322,102.0997 L713.0322,102.0107 L715.0322,102.1978 L717.0322,102.2516 L719.0322,102.5597 L721.0322,102.0391" fill="none" style="stroke:#FF9900;stroke-width:1;"/><a href="/use-case/legal-entity-management/ownership-and-capital-structure/corporate-actions/stock-splits/" target="_top" title="/use-case/legal-entity-management/ownership-and-capital-structure/corporate-actions/stock-splits/" xlink:actuate="onRequest" xlink:href="/use-case/legal-entity-management/ownership-and-capital-structure/corporate-actions/stock-splits/" xlink:show="new" xlink:title="/use-case/legal-entity-management/ownership-and-capital-structure/corporate-actions/stock-splits/" xlink:type="simple"><text fill="#90EE90" font-family="'Roboto'" font-size="14" lengthAdjust="spacing" textLength="81.5322" x="728.0322" y="133.1826">Stock Splits</text></a><path d="M671.0322,75.7422 L671.0322,75.929 L673.0322,75.3739 L675.0322,75.914 L677.0322,76.0975 L679.0322,75.1081 L681.0322,75.7422 L681.0322,75.7422 L681.0088,75.7168 L682.6849,77.2464 L684.4791,78.904 L686.3554,80.6506 L687.9489,82.0906 L689.9385,83.96 L690.1717,84.0386 L690.8918,87.4863 L692.2927,91.1635 L693.7766,94.8687 L694.7774,98.4111 L696.0322,102.0391 L696.061,102.0487 L697.2375,105.6503 L698.5449,109.296 L699.7892,112.9205 L701.1539,116.5855 L702.126,120.1182 L702.3282,120.3374 L704.1119,121.9836 L705.7652,123.4884 L707.6094,125.2003 L709.4626,126.9218 L711.0322,128.3359 L711.0322,127.6949 L713.0322,128.9391 L715.0322,128.0724 L717.0322,128.8104 L719.0322,127.8959 L721.0322,128.3359" fill="none" style="stroke:#FF9900;stroke-width:1;"/><a href="/use-case/legal-entity-management/ownership-and-capital-structure/" target="_top" title="/use-case/legal-entity-management/ownership-and-capital-structure/" xlink:actuate="onRequest" xlink:href="/use-case/legal-entity-management/ownership-and-capital-structure/" xlink:show="new" xlink:title="/use-case/legal-entity-management/ownership-and-capital-structure/" xlink:type="simple"><text fill="#90EE90" font-family="'Roboto'" font-size="14" lengthAdjust="spacing" textLength="213.4453" x="254.7646" y="80.5889">Ownership &amp; Capital Structure</text></a><a href="/use-case/legal-entity-management/" target="_top" title="/use-case/legal-entity-management/" xlink:actuate="onRequest" xlink:href="/use-case/legal-entity-management/" xlink:show="new" xlink:title="/use-case/legal-entity-management/" xlink:type="simple"><text fill="#90EE90" font-family="'Roboto'" font-size="14" lengthAdjust="spacing" textLength="179.7646" x="14" y="80.5889">Legal Entity Management</text></a><path d="M250.7646,75.7422 L250.7646,75.929 L248.7646,75.3739 L246.7646,75.914 L244.7646,76.0975 L242.7646,75.1081 L240.7646,75.7422 L240.7646,75.7422 L240.7646,75.7076 L234.7646,75.5526 L228.7646,75.5717 L222.7646,75.7119 L216.7646,75.4349 L210.7646,75.7422 L210.7646,76.2343 L208.7646,75.1819 L206.7646,75.5664 L204.7646,76.1261 L202.7646,75.6659 L200.7646,75.7422" fill="none" style="stroke:#FF9900;stroke-width:1;"/><path d="M525.21,75.7422 L525.21,75.929 L523.21,75.3739 L521.21,75.914 L519.21,76.0975 L517.21,75.1081 L515.21,75.7422 L515.21,75.7422 L515.21,75.7076 L509.21,75.5526 L503.21,75.5717 L497.21,75.7119 L491.21,75.4349 L485.21,75.7422 L485.21,76.2343 L483.21,75.1819 L481.21,75.5664 L479.21,76.1261 L477.21,75.6659 L475.21,75.7422" fill="none" style="stroke:#FF9900;stroke-width:1;"/><!--SRC=[xLXjRzis4FwkNy4rmDeYSnrdIT46HH77SP8cTcpOIO6XA09QEjc49L8bAMVUiF- -asHPiYs_HqsonPyitl6UvqxKaNoEbQPIkunRBlM8AQGd9DLGeAPcWYl3-CK2ct4W9-TtzVANwxjAezPeaV2tSx1tMEeSfbtQrKhZ-hJS-cFab-7IB5UkokVLSQ0PbqRhjDfAuv0Tstvlx-sDNSuQrpSJ3g5By3CCrMVSevAwf4FDVbSAdriLuGWPEsf9kK8Fu3hbV37qGDOOxwTzoOx3kZtTbG3SC5uJnat7ju3e7f0kS93K8UCGYjWuiIDqxpSIJYEKMyIYieypjI1Y0F9UCWtadkbU58CDW1C5MZFULTCLkBduKhcwhhRRf8IlGNZ12o4z31f4qJZHfew2L0vDQbaOY1oanbfH_XB9aW-fyNQFMk8-y9wE4bR2mKhSSYly0oENbCyfsDHtDFdR8EHCS7rDNI2lMWAp5wz6Or4XarSr6cwplu2K3en_ql7AKehxCDgSMVE2wQ63zHAEDHdFmrTFkp3cbp7zP6frJAplm2uafZ-ofPOa0YKuN5ZhWami_rLnJE5wWkEA3S4sfZwNPrH7ttNs9-jeKKqxL44ki1D8fYDywoV02CU1gBNb19PWLT112YTtd9CWB9N3t86gN3ETFmpZ6gHDJSWTgGq_VE0cD74BP2RpADTHk9iUC_iSbCBMcxYhaNl8Aprd2SMPy9biKrv9Q-D2kjIPjMPympLc0svWi01YxBA4SDYECo32yGNnG_iSUg4jgUllmP2fXLpA9NHQW1dOvttuhqdb86nkkD7XmyxINxfNI6mKb7ST-FG9TqGb-EVFuPjlu_84eN6RNB0pFUIE4vkIwasV42QRN8eu_8baENNkyifWwi2NKnfgg3Iupxd-UMMGO_tZpV-vbJ_X_Pohdrf4dT467_EVEhfFPnIUiFTMEtrkN8jbQKRRbqLL3wpLSizCtKHuYZkMN2Ttl5qiNswvPRxg2yQBjuwE4hDaupjnO4jun7VSOBIijMGTNqEsESqolZrFdRUfKZyP_JMfZtG6vO79R6PY4QAzEUDAjGclfMdJv6IpStRsyIFQfupfev-nMua5aU2S4GeYXS8T-VQjw2iecDXaYWvqgLE0y6XSS2d7QwUBJqLnZwjMzPXNm1ixkdfCev_IqZUrBw586h43-PLK8ZCkof7v-tS4MX69r093V3glZmqOOtVtOSZEw495YmsO1TnIHN8Q_yqLq0NP1HcwK_E7pnGBnWizfl3yDooIUcZ7MfOJAxc8hBaIYwGa5VehlwEOnQXaW8LfHXRar4wDvqf6UOmNX6qZUZl-co-W5cQ_e3o7wG0pU4Bau0bXZt5LZAH5mpXUfZJcADqzSP4iQM4hAsIJKpB3hAMD9NFdTztixhfG3Nk8i8l5hyLnihbi97Uj3xIYmBLju2MIrYRXLnEnjekyKBRQBlG2eMgxm8kbgUrYvoH69QJco509lmqKgEIRofAVaj3pbAU4NKfpIeBE24v9n2cjQMhE2a9J2dfQOagXJAfBgGzmGw5eSTzUTqNDBf3jXQ37OhZqZlxefNjQ3DUGPnw9rnCjN0xAIi9eW-mMvB14HIdbBvlabTdSj_F_aqLUj8yNxUD5-_XFQnzD1q_Dj_KQ6I14y79Ax_RtzW_VbKeTqBIqz-QMzpaI2E-w35k-PYwyDTwSDsj42L_YCT_2rnas5vp-rhYa0qfQFW_yZaZ30tvvUXKFuESmO5Bm82tZycizSNX_K3XX6gyQ4ecGhtKZrYYgt1I1B794Rc_E2X-C6cuaFbRcY00tAjY6j1oYhVql]--></g></svg>