<svg xmlns="http://www.w3.org/2000/svg" xmlns:xlink="http://www.w3.org/1999/xlink" viewBox="-79.62 320.00 696.17 147.50" width="696.17px" height="147.50px" class="use-case-tree-svg">
  <rect width="100%" height="100%" fill="transparent" />
  <line x1="24.86" y1="375.00" x2="34.86" y2="375.00" stroke="#FF6F00" stroke-width="1.5" />
  <path d="M 34.86 375.00 C 52.86 375.00, 56.86 337.50, 74.86 337.50" stroke="#FF6F00" stroke-width="1.5" fill="none" />
  <line x1="227.84" y1="362.50" x2="345.00" y2="362.50" stroke="#FF6F00" stroke-width="1.5" stroke-dasharray="4 2" />
  <path d="M 345.00 362.50 C 369.75 362.50, 375.25 375.00, 400.00 375.00" stroke="#FF6F00" stroke-width="1.5" fill="none" stroke-dasharray="4 2" />
  <line x1="237.19" y1="387.50" x2="345.00" y2="387.50" stroke="#FF6F00" stroke-width="1.5" stroke-dasharray="4 2" />
  <path d="M 345.00 387.50 C 369.75 387.50, 375.25 375.00, 400.00 375.00" stroke="#FF6F00" stroke-width="1.5" fill="none" stroke-dasharray="4 2" />
  <line x1="225.67" y1="412.50" x2="345.00" y2="412.50" stroke="#FF6F00" stroke-width="1.5" stroke-dasharray="4 2" />
  <path d="M 345.00 412.50 C 369.75 412.50, 375.25 375.00, 400.00 375.00" stroke="#FF6F00" stroke-width="1.5" fill="none" stroke-dasharray="4 2" />
  <path d="M 345.00 337.50 C 369.75 337.50, 375.25 350.00, 400.00 350.00" stroke="#FF6F00" stroke-width="1.5" fill="none" />
  <path d="M 345.00 337.50 C 369.75 337.50, 375.25 375.00, 400.00 375.00" stroke="#FF6F00" stroke-width="1.5" fill="none" />
  <path d="M 345.00 337.50 C 369.75 337.50, 375.25 400.00, 400.00 400.00" stroke="#FF6F00" stroke-width="1.5" fill="none" />
  <path d="M 345.00 337.50 C 369.75 337.50, 375.25 425.00, 400.00 425.00" stroke="#FF6F00" stroke-width="1.5" fill="none" />
  <path d="M 345.00 337.50 C 369.75 337.50, 375.25 450.00, 400.00 450.00" stroke="#FF6F00" stroke-width="1.5" fill="none" />
  <a xlink:href="/use-case/cyber-security/" target="_top">
    <rect x="-74.62" y="362.50" width="99.48" height="25" rx="4" ry="4" fill="none" stroke="none" pointer-events="all" />
    <text x="-64.62" y="379.50" text-anchor="start" font-family="Roboto, sans-serif" font-size="13" fill="#4051B5" font-weight="normal">Cybersecurity</text>
  </a>
  <a xlink:href="/use-case/cyber-security/contexts/cloud/" target="_top">
    <rect x="74.86" y="350.00" width="152.98" height="25" rx="4" ry="4" fill="none" stroke="none" pointer-events="all" />
    <text x="84.86" y="367.00" text-anchor="start" font-family="Roboto, sans-serif" font-size="13" fill="#4051B5" font-weight="normal">Cloud Security Context</text>
  </a>
  <a xlink:href="/use-case/cyber-security/contexts/ot-ics/" target="_top">
    <rect x="74.86" y="375.00" width="162.33" height="25" rx="4" ry="4" fill="none" stroke="none" pointer-events="all" />
    <text x="84.86" y="392.00" text-anchor="start" font-family="Roboto, sans-serif" font-size="13" fill="#4051B5" font-weight="normal">OT/ICS Security Context</text>
  </a>
  <a xlink:href="/use-case/cyber-security/contexts/saas/" target="_top">
    <rect x="74.86" y="400.00" width="150.81" height="25" rx="4" ry="4" fill="none" stroke="none" pointer-events="all" />
    <text x="84.86" y="417.00" text-anchor="start" font-family="Roboto, sans-serif" font-size="13" fill="#4051B5" font-weight="normal">SaaS Security Context</text>
  </a>
  <a xlink:href="/use-case/cyber-security/respond/" target="_top">
    <rect x="74.86" y="325.00" width="275.14" height="25" rx="4" ry="4" fill="none" stroke="none" pointer-events="all" />
    <text x="84.86" y="342.00" text-anchor="start" font-family="Roboto, sans-serif" font-size="13" fill="#4051B5" font-weight="normal">Respond (Cybersecurity Incident Response)</text>
  </a>
  <a xlink:href="/use-case/cyber-security/respond/communications-and-disclosure/" target="_top">
    <rect x="400.00" y="337.50" width="193.44" height="25" rx="4" ry="4" fill="none" stroke="none" pointer-events="all" />
    <text x="410.00" y="354.50" text-anchor="start" font-family="Roboto, sans-serif" font-size="13" fill="#4051B5" font-weight="normal">Communications &amp; Disclosure</text>
  </a>
  <a xlink:href="/use-case/cyber-security/respond/containment-and-eradication/" target="_top">
    <rect x="400.00" y="362.50" width="186.84" height="25" rx="4" ry="4" fill="#4051B5" stroke="#FF6F00" stroke-width="1.5" />
    <text x="410.00" y="379.50" text-anchor="start" font-family="Roboto, sans-serif" font-size="13" fill="#FFFFFF" font-weight="bold">Containment &amp; Eradication</text>
  </a>
  <a xlink:href="/use-case/cyber-security/respond/incident-intake-and-triage/" target="_top">
    <rect x="400.00" y="387.50" width="156.61" height="25" rx="4" ry="4" fill="none" stroke="none" pointer-events="all" />
    <text x="410.00" y="404.50" text-anchor="start" font-family="Roboto, sans-serif" font-size="13" fill="#4051B5" font-weight="normal">Incident Intake &amp; Triage</text>
  </a>
  <a xlink:href="/use-case/cyber-security/respond/investigation-and-forensics/" target="_top">
    <rect x="400.00" y="412.50" width="165.27" height="25" rx="4" ry="4" fill="none" stroke="none" pointer-events="all" />
    <text x="410.00" y="429.50" text-anchor="start" font-family="Roboto, sans-serif" font-size="13" fill="#4051B5" font-weight="normal">Investigation &amp; Forensics</text>
  </a>
  <a xlink:href="/use-case/cyber-security/respond/lessons-learned-and-improvement/" target="_top">
    <rect x="400.00" y="437.50" width="211.55" height="25" rx="4" ry="4" fill="none" stroke="none" pointer-events="all" />
    <text x="410.00" y="454.50" text-anchor="start" font-family="Roboto, sans-serif" font-size="13" fill="#4051B5" font-weight="normal">Lessons Learned &amp; Improvement</text>
  </a>
</svg>