<svg xmlns="http://www.w3.org/2000/svg" xmlns:xlink="http://www.w3.org/1999/xlink" viewBox="-18.22 282.50 910.95 235.00" width="910.95px" height="235.00px" class="use-case-tree-svg">
  <rect width="100%" height="100%" fill="transparent" />
  <line x1="157.84" y1="325.00" x2="167.84" y2="325.00" stroke="#FF9900" stroke-width="1.5" />
  <path d="M 167.84 325.00 C 185.84 325.00, 189.84 325.00, 207.84 325.00" stroke="#FF9900" stroke-width="1.5" fill="none" />
  <path d="M 345.00 325.00 C 369.75 325.00, 375.25 300.00, 400.00 300.00" stroke="#FF9900" stroke-width="1.5" fill="none" />
  <path d="M 345.00 325.00 C 369.75 325.00, 375.25 325.00, 400.00 325.00" stroke="#FF9900" stroke-width="1.5" fill="none" />
  <path d="M 345.00 325.00 C 369.75 325.00, 375.25 350.00, 400.00 350.00" stroke="#FF9900" stroke-width="1.5" fill="none" />
  <path d="M 345.00 325.00 C 369.75 325.00, 375.25 375.00, 400.00 375.00" stroke="#FF9900" stroke-width="1.5" fill="none" />
  <path d="M 345.00 325.00 C 369.75 325.00, 375.25 400.00, 400.00 400.00" stroke="#FF9900" stroke-width="1.5" fill="none" />
  <path d="M 345.00 325.00 C 369.75 325.00, 375.25 425.00, 400.00 425.00" stroke="#FF9900" stroke-width="1.5" fill="none" />
  <path d="M 345.00 325.00 C 369.75 325.00, 375.25 450.00, 400.00 450.00" stroke="#FF9900" stroke-width="1.5" fill="none" />
  <path d="M 345.00 325.00 C 369.75 325.00, 375.25 475.00, 400.00 475.00" stroke="#FF9900" stroke-width="1.5" fill="none" />
  <path d="M 345.00 325.00 C 369.75 325.00, 375.25 500.00, 400.00 500.00" stroke="#FF9900" stroke-width="1.5" fill="none" />
  <line x1="604.84" y1="325.00" x2="619.52" y2="325.00" stroke="#FF9900" stroke-width="1.5" />
  <path d="M 619.52 325.00 C 644.27 325.00, 649.77 375.00, 674.52 375.00" stroke="#FF9900" stroke-width="1.5" fill="none" />
  <line x1="604.84" y1="325.00" x2="619.52" y2="325.00" stroke="#FF9900" stroke-width="1.5" />
  <path d="M 619.52 325.00 C 644.27 325.00, 649.77 400.00, 674.52 400.00" stroke="#FF9900" stroke-width="1.5" fill="none" />
  <line x1="604.84" y1="325.00" x2="619.52" y2="325.00" stroke="#FF9900" stroke-width="1.5" />
  <path d="M 619.52 325.00 C 644.27 325.00, 649.77 425.00, 674.52 425.00" stroke="#FF9900" stroke-width="1.5" fill="none" />
  <a xlink:href="/use-case/client-360/" target="_top">
    <rect x="-13.22" y="312.50" width="171.06" height="25" rx="4" ry="4" fill="none" stroke="none" pointer-events="all" />
    <text x="-3.22" y="329.50" text-anchor="start" font-family="Roboto, sans-serif" font-size="13" fill="#90EE90" font-weight="normal">Client 360 / Customer 360</text>
  </a>
  <a xlink:href="/use-case/client-360/know-your-customer/" target="_top">
    <rect x="207.84" y="312.50" width="142.16" height="25" rx="4" ry="4" fill="none" stroke="none" pointer-events="all" />
    <text x="217.84" y="329.50" text-anchor="start" font-family="Roboto, sans-serif" font-size="13" fill="#90EE90" font-weight="normal">Know Your Customer</text>
  </a>
  <a xlink:href="/use-case/client-360/know-your-customer/activity-monitoring/" target="_top">
    <rect x="400.00" y="287.50" width="125.50" height="25" rx="4" ry="4" fill="none" stroke="none" pointer-events="all" />
    <text x="410.00" y="304.50" text-anchor="start" font-family="Roboto, sans-serif" font-size="13" fill="#90EE90" font-weight="normal">Activity Monitoring</text>
  </a>
  <a xlink:href="/use-case/client-360/know-your-customer/anti-money-laundering/" target="_top">
    <rect x="400.00" y="312.50" width="204.84" height="25" rx="4" ry="4" fill="#4051B5" stroke="#FF6F00" stroke-width="1.5" />
    <text x="410.00" y="329.50" text-anchor="start" font-family="Roboto, sans-serif" font-size="13" fill="#FFFFFF" font-weight="bold">Anti Money Laundering (AML)</text>
  </a>
  <a xlink:href="/use-case/client-360/know-your-customer/anti-money-laundering/correspondent-based-aml/" target="_top">
    <rect x="674.52" y="362.50" width="175.42" height="25" rx="4" ry="4" fill="none" stroke="none" pointer-events="all" />
    <text x="684.52" y="379.50" text-anchor="start" font-family="Roboto, sans-serif" font-size="13" fill="#90EE90" font-weight="normal">Correspondent-based AML</text>
  </a>
  <a xlink:href="/use-case/client-360/know-your-customer/anti-money-laundering/network-based-aml/" target="_top">
    <rect x="674.52" y="387.50" width="137.80" height="25" rx="4" ry="4" fill="none" stroke="none" pointer-events="all" />
    <text x="684.52" y="404.50" text-anchor="start" font-family="Roboto, sans-serif" font-size="13" fill="#90EE90" font-weight="normal">Network Based AML</text>
  </a>
  <a xlink:href="/use-case/client-360/know-your-customer/anti-money-laundering/transaction-based-aml/" target="_top">
    <rect x="674.52" y="412.50" width="213.22" height="25" rx="4" ry="4" fill="none" stroke="none" pointer-events="all" />
    <text x="684.52" y="429.50" text-anchor="start" font-family="Roboto, sans-serif" font-size="13" fill="#90EE90" font-weight="normal">Transaction / Finance based AML</text>
  </a>
  <a xlink:href="/use-case/client-360/know-your-customer/crime-records/" target="_top">
    <rect x="400.00" y="337.50" width="106.70" height="25" rx="4" ry="4" fill="none" stroke="none" pointer-events="all" />
    <text x="410.00" y="354.50" text-anchor="start" font-family="Roboto, sans-serif" font-size="13" fill="#90EE90" font-weight="normal">Crime Records</text>
  </a>
  <a xlink:href="/use-case/client-360/know-your-customer/gdpr/" target="_top">
    <rect x="400.00" y="362.50" width="57.56" height="25" rx="4" ry="4" fill="none" stroke="none" pointer-events="all" />
    <text x="410.00" y="379.50" text-anchor="start" font-family="Roboto, sans-serif" font-size="13" fill="#90EE90" font-weight="normal">GDPR</text>
  </a>
  <a xlink:href="/use-case/client-360/know-your-customer/high-net-worth-individuals/" target="_top">
    <rect x="400.00" y="387.50" width="173.70" height="25" rx="4" ry="4" fill="none" stroke="none" pointer-events="all" />
    <text x="410.00" y="404.50" text-anchor="start" font-family="Roboto, sans-serif" font-size="13" fill="#90EE90" font-weight="normal">High Net Worth Individuals</text>
  </a>
  <a xlink:href="/use-case/client-360/know-your-customer/identification-verification/" target="_top">
    <rect x="400.00" y="412.50" width="160.23" height="25" rx="4" ry="4" fill="none" stroke="none" pointer-events="all" />
    <text x="410.00" y="429.50" text-anchor="start" font-family="Roboto, sans-serif" font-size="13" fill="#90EE90" font-weight="normal">Identification Verification</text>
  </a>
  <a xlink:href="/use-case/client-360/know-your-customer/peps/" target="_top">
    <rect x="400.00" y="437.50" width="224.52" height="25" rx="4" ry="4" fill="none" stroke="none" pointer-events="all" />
    <text x="410.00" y="454.50" text-anchor="start" font-family="Roboto, sans-serif" font-size="13" fill="#90EE90" font-weight="normal">Politically Exposed Persons (PEPs)</text>
  </a>
  <a xlink:href="/use-case/client-360/know-your-customer/risk-management/" target="_top">
    <rect x="400.00" y="462.50" width="124.80" height="25" rx="4" ry="4" fill="none" stroke="none" pointer-events="all" />
    <text x="410.00" y="479.50" text-anchor="start" font-family="Roboto, sans-serif" font-size="13" fill="#90EE90" font-weight="normal">Risk Management</text>
  </a>
  <a xlink:href="/use-case/client-360/know-your-customer/sanctions/" target="_top">
    <rect x="400.00" y="487.50" width="77.11" height="25" rx="4" ry="4" fill="none" stroke="none" pointer-events="all" />
    <text x="410.00" y="504.50" text-anchor="start" font-family="Roboto, sans-serif" font-size="13" fill="#90EE90" font-weight="normal">Sanctions</text>
  </a>
</svg>