<svg xmlns="http://www.w3.org/2000/svg" xmlns:xlink="http://www.w3.org/1999/xlink" viewBox="-18.61 270.00 909.39 260.00" width="909.39px" height="260.00px" class="use-case-tree-svg">
  <rect width="100%" height="100%" fill="transparent" />
  <line x1="158.19" y1="312.50" x2="168.19" y2="312.50" stroke="#FF9900" stroke-width="1.5" />
  <path d="M 168.19 312.50 C 186.19 312.50, 190.19 312.50, 208.19 312.50" stroke="#FF9900" stroke-width="1.5" fill="none" />
  <path d="M 345.00 312.50 C 369.75 312.50, 375.25 287.50, 400.00 287.50" stroke="#FF9900" stroke-width="1.5" fill="none" />
  <path d="M 345.00 312.50 C 369.75 312.50, 375.25 312.50, 400.00 312.50" stroke="#FF9900" stroke-width="1.5" fill="none" />
  <path d="M 345.00 312.50 C 369.75 312.50, 375.25 337.50, 400.00 337.50" stroke="#FF9900" stroke-width="1.5" fill="none" />
  <path d="M 345.00 312.50 C 369.75 312.50, 375.25 362.50, 400.00 362.50" stroke="#FF9900" stroke-width="1.5" fill="none" />
  <path d="M 345.00 312.50 C 369.75 312.50, 375.25 387.50, 400.00 387.50" stroke="#FF9900" stroke-width="1.5" fill="none" />
  <path d="M 345.00 312.50 C 369.75 312.50, 375.25 412.50, 400.00 412.50" stroke="#FF9900" stroke-width="1.5" fill="none" />
  <path d="M 345.00 312.50 C 369.75 312.50, 375.25 437.50, 400.00 437.50" stroke="#FF9900" stroke-width="1.5" fill="none" />
  <path d="M 345.00 312.50 C 369.75 312.50, 375.25 462.50, 400.00 462.50" stroke="#FF9900" stroke-width="1.5" fill="none" />
  <path d="M 345.00 312.50 C 369.75 312.50, 375.25 487.50, 400.00 487.50" stroke="#FF9900" stroke-width="1.5" fill="none" />
  <path d="M 345.00 312.50 C 369.75 312.50, 375.25 512.50, 400.00 512.50" stroke="#FF9900" stroke-width="1.5" fill="none" />
  <line x1="594.88" y1="312.50" x2="616.67" y2="312.50" stroke="#FF9900" stroke-width="1.5" />
  <path d="M 616.67 312.50 C 641.42 312.50, 646.92 375.00, 671.67 375.00" stroke="#FF9900" stroke-width="1.5" fill="none" />
  <line x1="594.88" y1="312.50" x2="616.67" y2="312.50" stroke="#FF9900" stroke-width="1.5" />
  <path d="M 616.67 312.50 C 641.42 312.50, 646.92 400.00, 671.67 400.00" stroke="#FF9900" stroke-width="1.5" fill="none" />
  <line x1="594.88" y1="312.50" x2="616.67" y2="312.50" stroke="#FF9900" stroke-width="1.5" />
  <path d="M 616.67 312.50 C 641.42 312.50, 646.92 425.00, 671.67 425.00" stroke="#FF9900" stroke-width="1.5" fill="none" />
  <a xlink:href="/use-case/client-360/" target="_top">
    <rect x="-13.61" y="300.00" width="171.80" height="25" rx="4" ry="4" fill="none" stroke="none" pointer-events="all" />
    <text x="-3.61" y="317.00" text-anchor="start" font-family="Roboto, sans-serif" font-size="13" fill="#90EE90" font-weight="normal">Client 360 / Customer 360</text>
  </a>
  <a xlink:href="/use-case/client-360/know-your-customer/" target="_top">
    <rect x="208.19" y="300.00" width="141.81" height="25" rx="4" ry="4" fill="none" stroke="none" pointer-events="all" />
    <text x="218.19" y="317.00" text-anchor="start" font-family="Roboto, sans-serif" font-size="13" fill="#90EE90" font-weight="normal">Know Your Customer</text>
  </a>
  <a xlink:href="/use-case/client-360/know-your-customer/activity-monitoring/" target="_top">
    <rect x="400.00" y="275.00" width="128.45" height="25" rx="4" ry="4" fill="none" stroke="none" pointer-events="all" />
    <text x="410.00" y="292.00" text-anchor="start" font-family="Roboto, sans-serif" font-size="13" fill="#90EE90" font-weight="normal">Activity Monitoring</text>
  </a>
  <a xlink:href="/use-case/client-360/know-your-customer/anti-money-laundering/" target="_top">
    <rect x="400.00" y="300.00" width="194.88" height="25" rx="4" ry="4" fill="#4051B5" stroke="#FF6F00" stroke-width="1.5" />
    <text x="410.00" y="317.00" text-anchor="start" font-family="Roboto, sans-serif" font-size="13" fill="#FFFFFF" font-weight="bold">Anti Money Laundering (AML)</text>
  </a>
  <a xlink:href="/use-case/client-360/know-your-customer/anti-money-laundering/correspondent-based-aml/" target="_top">
    <rect x="671.67" y="362.50" width="174.64" height="25" rx="4" ry="4" fill="none" stroke="none" pointer-events="all" />
    <text x="681.67" y="379.50" text-anchor="start" font-family="Roboto, sans-serif" font-size="13" fill="#90EE90" font-weight="normal">Correspondent-based AML</text>
  </a>
  <a xlink:href="/use-case/client-360/know-your-customer/anti-money-laundering/network-based-aml/" target="_top">
    <rect x="671.67" y="387.50" width="137.97" height="25" rx="4" ry="4" fill="none" stroke="none" pointer-events="all" />
    <text x="681.67" y="404.50" text-anchor="start" font-family="Roboto, sans-serif" font-size="13" fill="#90EE90" font-weight="normal">Network Based AML</text>
  </a>
  <a xlink:href="/use-case/client-360/know-your-customer/anti-money-laundering/transaction-based-aml/" target="_top">
    <rect x="671.67" y="412.50" width="214.11" height="25" rx="4" ry="4" fill="none" stroke="none" pointer-events="all" />
    <text x="681.67" y="429.50" text-anchor="start" font-family="Roboto, sans-serif" font-size="13" fill="#90EE90" font-weight="normal">Transaction / Finance based AML</text>
  </a>
  <a xlink:href="/use-case/client-360/know-your-customer/core-record-management/" target="_top">
    <rect x="400.00" y="325.00" width="170.83" height="25" rx="4" ry="4" fill="none" stroke="none" pointer-events="all" />
    <text x="410.00" y="342.00" text-anchor="start" font-family="Roboto, sans-serif" font-size="13" fill="#90EE90" font-weight="normal">Core Record Management</text>
  </a>
  <a xlink:href="/use-case/client-360/know-your-customer/crime-records/" target="_top">
    <rect x="400.00" y="350.00" width="105.00" height="25" rx="4" ry="4" fill="none" stroke="none" pointer-events="all" />
    <text x="410.00" y="367.00" text-anchor="start" font-family="Roboto, sans-serif" font-size="13" fill="#90EE90" font-weight="normal">Crime Records</text>
  </a>
  <a xlink:href="/use-case/client-360/know-your-customer/gdpr/" target="_top">
    <rect x="400.00" y="375.00" width="53.61" height="25" rx="4" ry="4" fill="none" stroke="none" pointer-events="all" />
    <text x="410.00" y="392.00" text-anchor="start" font-family="Roboto, sans-serif" font-size="13" fill="#90EE90" font-weight="normal">GDPR</text>
  </a>
  <a xlink:href="/use-case/client-360/know-your-customer/high-net-worth-individuals/" target="_top">
    <rect x="400.00" y="400.00" width="173.92" height="25" rx="4" ry="4" fill="none" stroke="none" pointer-events="all" />
    <text x="410.00" y="417.00" text-anchor="start" font-family="Roboto, sans-serif" font-size="13" fill="#90EE90" font-weight="normal">High Net Worth Individuals</text>
  </a>
  <a xlink:href="/use-case/client-360/know-your-customer/identification-verification/" target="_top">
    <rect x="400.00" y="425.00" width="164.19" height="25" rx="4" ry="4" fill="none" stroke="none" pointer-events="all" />
    <text x="410.00" y="442.00" text-anchor="start" font-family="Roboto, sans-serif" font-size="13" fill="#90EE90" font-weight="normal">Identification Verification</text>
  </a>
  <a xlink:href="/use-case/client-360/know-your-customer/peps/" target="_top">
    <rect x="400.00" y="450.00" width="221.67" height="25" rx="4" ry="4" fill="none" stroke="none" pointer-events="all" />
    <text x="410.00" y="467.00" text-anchor="start" font-family="Roboto, sans-serif" font-size="13" fill="#90EE90" font-weight="normal">Politically Exposed Persons (PEPs)</text>
  </a>
  <a xlink:href="/use-case/client-360/know-your-customer/risk-management/" target="_top">
    <rect x="400.00" y="475.00" width="124.27" height="25" rx="4" ry="4" fill="none" stroke="none" pointer-events="all" />
    <text x="410.00" y="492.00" text-anchor="start" font-family="Roboto, sans-serif" font-size="13" fill="#90EE90" font-weight="normal">Risk Management</text>
  </a>
  <a xlink:href="/use-case/client-360/know-your-customer/sanctions/" target="_top">
    <rect x="400.00" y="500.00" width="77.48" height="25" rx="4" ry="4" fill="none" stroke="none" pointer-events="all" />
    <text x="410.00" y="517.00" text-anchor="start" font-family="Roboto, sans-serif" font-size="13" fill="#90EE90" font-weight="normal">Sanctions</text>
  </a>
</svg>