<svg xmlns="http://www.w3.org/2000/svg" xmlns:xlink="http://www.w3.org/1999/xlink" viewBox="-46.36 320.00 686.05 135.00" width="686.05px" height="135.00px" class="use-case-tree-svg">
  <rect width="100%" height="100%" fill="transparent" />
  <line x1="58.12" y1="362.50" x2="68.12" y2="362.50" stroke="#FF9900" stroke-width="1.5" />
  <path d="M 68.12 362.50 C 86.12 362.50, 90.12 337.50, 108.12 337.50" stroke="#FF9900" stroke-width="1.5" fill="none" />
  <line x1="261.11" y1="362.50" x2="345.00" y2="362.50" stroke="#FF9900" stroke-width="1.5" stroke-dasharray="4 2" />
  <path d="M 345.00 362.50 C 369.75 362.50, 375.25 362.50, 400.00 362.50" stroke="#FF9900" stroke-width="1.5" fill="none" stroke-dasharray="4 2" />
  <line x1="258.94" y1="387.50" x2="345.00" y2="387.50" stroke="#FF9900" stroke-width="1.5" stroke-dasharray="4 2" />
  <path d="M 345.00 387.50 C 369.75 387.50, 375.25 362.50, 400.00 362.50" stroke="#FF9900" stroke-width="1.5" fill="none" stroke-dasharray="4 2" />
  <path d="M 345.00 337.50 C 369.75 337.50, 375.25 362.50, 400.00 362.50" stroke="#FF9900" stroke-width="1.5" fill="none" />
  <path d="M 345.00 337.50 C 369.75 337.50, 375.25 387.50, 400.00 387.50" stroke="#FF9900" stroke-width="1.5" fill="none" />
  <path d="M 345.00 337.50 C 369.75 337.50, 375.25 412.50, 400.00 412.50" stroke="#FF9900" stroke-width="1.5" fill="none" />
  <path d="M 345.00 337.50 C 369.75 337.50, 375.25 437.50, 400.00 437.50" stroke="#FF9900" stroke-width="1.5" fill="none" />
  <a xlink:href="/use-case/cyber-security/" target="_top">
    <rect x="-41.36" y="350.00" width="99.48" height="25" rx="4" ry="4" fill="none" stroke="none" pointer-events="all" />
    <text x="-31.36" y="367.00" text-anchor="start" font-family="Roboto, sans-serif" font-size="13" fill="#90EE90" font-weight="normal">Cybersecurity</text>
  </a>
  <a xlink:href="/use-case/cyber-security/contexts/cloud/" target="_top">
    <rect x="108.12" y="350.00" width="152.98" height="25" rx="4" ry="4" fill="none" stroke="none" pointer-events="all" />
    <text x="118.12" y="367.00" text-anchor="start" font-family="Roboto, sans-serif" font-size="13" fill="#90EE90" font-weight="normal">Cloud Security Context</text>
  </a>
  <a xlink:href="/use-case/cyber-security/contexts/saas/" target="_top">
    <rect x="108.12" y="375.00" width="150.81" height="25" rx="4" ry="4" fill="none" stroke="none" pointer-events="all" />
    <text x="118.12" y="392.00" text-anchor="start" font-family="Roboto, sans-serif" font-size="13" fill="#90EE90" font-weight="normal">SaaS Security Context</text>
  </a>
  <a xlink:href="/use-case/cyber-security/identify/" target="_top">
    <rect x="108.12" y="325.00" width="241.88" height="25" rx="4" ry="4" fill="none" stroke="none" pointer-events="all" />
    <text x="118.12" y="342.00" text-anchor="start" font-family="Roboto, sans-serif" font-size="13" fill="#90EE90" font-weight="normal">Identify (Cybersecurity Understanding)</text>
  </a>
  <a xlink:href="/use-case/cyber-security/identify/attack-surface-management/" target="_top">
    <rect x="400.00" y="350.00" width="194.14" height="25" rx="4" ry="4" fill="#4051B5" stroke="#FF6F00" stroke-width="1.5" />
    <text x="410.00" y="367.00" text-anchor="start" font-family="Roboto, sans-serif" font-size="13" fill="#FFFFFF" font-weight="bold">Attack Surface Management</text>
  </a>
  <a xlink:href="/use-case/cyber-security/identify/data-classification-and-criticality/" target="_top">
    <rect x="400.00" y="375.00" width="196.31" height="25" rx="4" ry="4" fill="none" stroke="none" pointer-events="all" />
    <text x="410.00" y="392.00" text-anchor="start" font-family="Roboto, sans-serif" font-size="13" fill="#90EE90" font-weight="normal">Data Classification &amp; Criticality</text>
  </a>
  <a xlink:href="/use-case/cyber-security/identify/threat-modeling-and-scenarios/" target="_top">
    <rect x="400.00" y="400.00" width="234.69" height="25" rx="4" ry="4" fill="none" stroke="none" pointer-events="all" />
    <text x="410.00" y="417.00" text-anchor="start" font-family="Roboto, sans-serif" font-size="13" fill="#90EE90" font-weight="normal">Threat Modeling &amp; Scenario Mapping</text>
  </a>
  <a xlink:href="/use-case/cyber-security/identify/vulnerability-management/" target="_top">
    <rect x="400.00" y="425.00" width="169.88" height="25" rx="4" ry="4" fill="none" stroke="none" pointer-events="all" />
    <text x="410.00" y="442.00" text-anchor="start" font-family="Roboto, sans-serif" font-size="13" fill="#90EE90" font-weight="normal">Vulnerability Management</text>
  </a>
</svg>