<svg xmlns="http://www.w3.org/2000/svg" xmlns:xlink="http://www.w3.org/1999/xlink" viewBox="-22.28 332.50 612.38 135.00" width="612.38px" height="135.00px" class="use-case-tree-svg">
  <rect width="100%" height="100%" fill="transparent" />
  <line x1="175.39" y1="350.00" x2="185.39" y2="350.00" stroke="#FF9900" stroke-width="1.5" />
  <path d="M 185.39 350.00 C 203.39 350.00, 207.39 350.00, 225.39 350.00" stroke="#FF9900" stroke-width="1.5" fill="none" />
  <path d="M 345.00 350.00 C 369.75 350.00, 375.25 350.00, 400.00 350.00" stroke="#FF9900" stroke-width="1.5" fill="none" />
  <path d="M 345.00 350.00 C 369.75 350.00, 375.25 375.00, 400.00 375.00" stroke="#FF9900" stroke-width="1.5" fill="none" />
  <path d="M 345.00 350.00 C 369.75 350.00, 375.25 400.00, 400.00 400.00" stroke="#FF9900" stroke-width="1.5" fill="none" />
  <path d="M 345.00 350.00 C 369.75 350.00, 375.25 425.00, 400.00 425.00" stroke="#FF9900" stroke-width="1.5" fill="none" />
  <path d="M 345.00 350.00 C 369.75 350.00, 375.25 450.00, 400.00 450.00" stroke="#FF9900" stroke-width="1.5" fill="none" />
  <a xlink:href="/use-case/legal-entity-management/ownership-and-capital-structure/" target="_top">
    <rect x="-17.28" y="337.50" width="192.67" height="25" rx="4" ry="4" fill="none" stroke="none" pointer-events="all" />
    <text x="-7.28" y="354.50" text-anchor="start" font-family="Roboto, sans-serif" font-size="13" fill="#90EE90" font-weight="normal">Ownership &amp; Capital Structure</text>
  </a>
  <a xlink:href="/use-case/legal-entity-management/ownership-and-capital-structure/corporate-actions/" target="_top">
    <rect x="225.39" y="337.50" width="124.61" height="25" rx="4" ry="4" fill="none" stroke="none" pointer-events="all" />
    <text x="235.39" y="354.50" text-anchor="start" font-family="Roboto, sans-serif" font-size="13" fill="#90EE90" font-weight="normal">Corporate Actions</text>
  </a>
  <a xlink:href="/use-case/legal-entity-management/ownership-and-capital-structure/corporate-actions/dividends/" target="_top">
    <rect x="400.00" y="337.50" width="77.50" height="25" rx="4" ry="4" fill="#4051B5" stroke="#FF6F00" stroke-width="1.5" />
    <text x="410.00" y="354.50" text-anchor="start" font-family="Roboto, sans-serif" font-size="13" fill="#FFFFFF" font-weight="bold">Dividends</text>
  </a>
  <a xlink:href="/use-case/legal-entity-management/ownership-and-capital-structure/corporate-actions/merger-and-acquisition-history/" target="_top">
    <rect x="400.00" y="362.50" width="185.09" height="25" rx="4" ry="4" fill="none" stroke="none" pointer-events="all" />
    <text x="410.00" y="379.50" text-anchor="start" font-family="Roboto, sans-serif" font-size="13" fill="#90EE90" font-weight="normal">Merger &amp; Acquisition History</text>
  </a>
  <a xlink:href="/use-case/legal-entity-management/ownership-and-capital-structure/corporate-actions/parents-and-subsidiaries/" target="_top">
    <rect x="400.00" y="387.50" width="149.81" height="25" rx="4" ry="4" fill="none" stroke="none" pointer-events="all" />
    <text x="410.00" y="404.50" text-anchor="start" font-family="Roboto, sans-serif" font-size="13" fill="#90EE90" font-weight="normal">Parents &amp; Subsidiaries</text>
  </a>
  <a xlink:href="/use-case/legal-entity-management/ownership-and-capital-structure/corporate-actions/spin-offs/" target="_top">
    <rect x="400.00" y="412.50" width="72.09" height="25" rx="4" ry="4" fill="none" stroke="none" pointer-events="all" />
    <text x="410.00" y="429.50" text-anchor="start" font-family="Roboto, sans-serif" font-size="13" fill="#90EE90" font-weight="normal">Spin-offs</text>
  </a>
  <a xlink:href="/use-case/legal-entity-management/ownership-and-capital-structure/corporate-actions/stock-splits/" target="_top">
    <rect x="400.00" y="437.50" width="88.17" height="25" rx="4" ry="4" fill="none" stroke="none" pointer-events="all" />
    <text x="410.00" y="454.50" text-anchor="start" font-family="Roboto, sans-serif" font-size="13" fill="#90EE90" font-weight="normal">Stock Splits</text>
  </a>
</svg>