<svg xmlns="http://www.w3.org/2000/svg" xmlns:xlink="http://www.w3.org/1999/xlink" viewBox="202.84 295.00 531.34 210.00" width="531.34px" height="210.00px" class="use-case-tree-svg">
  <rect width="100%" height="100%" fill="transparent" />
  <line x1="350.00" y1="400.00" x2="360.00" y2="400.00" stroke="#FF6F00" stroke-width="1.5" stroke-dasharray="4 2" />
  <path d="M 360.00 400.00 C 378.00 400.00, 382.00 400.00, 400.00 400.00" stroke="#FF6F00" stroke-width="1.5" fill="none" stroke-dasharray="4 2" />
  <path d="M 576.11 400.00 C 600.86 400.00, 606.36 312.50, 631.11 312.50" stroke="#FF6F00" stroke-width="1.5" fill="none" />
  <path d="M 576.11 400.00 C 600.86 400.00, 606.36 337.50, 631.11 337.50" stroke="#FF6F00" stroke-width="1.5" fill="none" />
  <path d="M 576.11 400.00 C 600.86 400.00, 606.36 362.50, 631.11 362.50" stroke="#FF6F00" stroke-width="1.5" fill="none" />
  <path d="M 576.11 400.00 C 600.86 400.00, 606.36 387.50, 631.11 387.50" stroke="#FF6F00" stroke-width="1.5" fill="none" />
  <path d="M 576.11 400.00 C 600.86 400.00, 606.36 412.50, 631.11 412.50" stroke="#FF6F00" stroke-width="1.5" fill="none" />
  <path d="M 576.11 400.00 C 600.86 400.00, 606.36 437.50, 631.11 437.50" stroke="#FF6F00" stroke-width="1.5" fill="none" />
  <path d="M 576.11 400.00 C 600.86 400.00, 606.36 462.50, 631.11 462.50" stroke="#FF6F00" stroke-width="1.5" fill="none" />
  <path d="M 576.11 400.00 C 600.86 400.00, 606.36 487.50, 631.11 487.50" stroke="#FF6F00" stroke-width="1.5" fill="none" />
  <a xlink:href="/use-case/client-360/know-your-customer/" target="_top">
    <rect x="207.84" y="387.50" width="142.16" height="25" rx="4" ry="4" fill="none" stroke="none" pointer-events="all" />
    <text x="217.84" y="404.50" text-anchor="start" font-family="Roboto, sans-serif" font-size="13" fill="#4051B5" font-weight="normal">Know Your Customer</text>
  </a>
  <a xlink:href="/use-case/core-record-management/" target="_top">
    <rect x="400.00" y="387.50" width="181.11" height="25" rx="4" ry="4" fill="#4051B5" stroke="#FF6F00" stroke-width="1.5" />
    <text x="410.00" y="404.50" text-anchor="start" font-family="Roboto, sans-serif" font-size="13" fill="#FFFFFF" font-weight="bold">Core Record Management</text>
  </a>
  <a xlink:href="/use-case/core-record-management/addresses/" target="_top">
    <rect x="631.11" y="300.00" width="81.44" height="25" rx="4" ry="4" fill="none" stroke="none" pointer-events="all" />
    <text x="641.11" y="317.00" text-anchor="start" font-family="Roboto, sans-serif" font-size="13" fill="#4051B5" font-weight="normal">Addresses</text>
  </a>
  <a xlink:href="/use-case/core-record-management/audit/" target="_top">
    <rect x="631.11" y="325.00" width="49.64" height="25" rx="4" ry="4" fill="none" stroke="none" pointer-events="all" />
    <text x="641.11" y="342.00" text-anchor="start" font-family="Roboto, sans-serif" font-size="13" fill="#4051B5" font-weight="normal">Audit</text>
  </a>
  <a xlink:href="/use-case/core-record-management/buildings/" target="_top">
    <rect x="631.11" y="350.00" width="72.78" height="25" rx="4" ry="4" fill="none" stroke="none" pointer-events="all" />
    <text x="641.11" y="367.00" text-anchor="start" font-family="Roboto, sans-serif" font-size="13" fill="#4051B5" font-weight="normal">Buildings</text>
  </a>
  <a xlink:href="/use-case/core-record-management/countries/" target="_top">
    <rect x="631.11" y="375.00" width="75.66" height="25" rx="4" ry="4" fill="none" stroke="none" pointer-events="all" />
    <text x="641.11" y="392.00" text-anchor="start" font-family="Roboto, sans-serif" font-size="13" fill="#4051B5" font-weight="normal">Countries</text>
  </a>
  <a xlink:href="/use-case/core-record-management/jurisdictions/" target="_top">
    <rect x="631.11" y="400.00" width="91.55" height="25" rx="4" ry="4" fill="none" stroke="none" pointer-events="all" />
    <text x="641.11" y="417.00" text-anchor="start" font-family="Roboto, sans-serif" font-size="13" fill="#4051B5" font-weight="normal">Jurisdictions</text>
  </a>
  <a xlink:href="/use-case/core-record-management/legal-entities/" target="_top">
    <rect x="631.11" y="425.00" width="98.08" height="25" rx="4" ry="4" fill="none" stroke="none" pointer-events="all" />
    <text x="641.11" y="442.00" text-anchor="start" font-family="Roboto, sans-serif" font-size="13" fill="#4051B5" font-weight="normal">Legal Entities</text>
  </a>
  <a xlink:href="/use-case/core-record-management/locations/" target="_top">
    <rect x="631.11" y="450.00" width="75.67" height="25" rx="4" ry="4" fill="none" stroke="none" pointer-events="all" />
    <text x="641.11" y="467.00" text-anchor="start" font-family="Roboto, sans-serif" font-size="13" fill="#4051B5" font-weight="normal">Locations</text>
  </a>
  <a xlink:href="/use-case/core-record-management/regions/" target="_top">
    <rect x="631.11" y="475.00" width="67.72" height="25" rx="4" ry="4" fill="none" stroke="none" pointer-events="all" />
    <text x="641.11" y="492.00" text-anchor="start" font-family="Roboto, sans-serif" font-size="13" fill="#4051B5" font-weight="normal">Regions</text>
  </a>
</svg>