<svg xmlns="http://www.w3.org/2000/svg" xmlns:xlink="http://www.w3.org/1999/xlink" viewBox="245.52 307.50 1003.31 185.00" width="1003.31px" height="185.00px" class="use-case-tree-svg">
  <rect width="100%" height="100%" fill="transparent" />
  <line x1="350.00" y1="400.00" x2="360.00" y2="400.00" stroke="#FF9900" stroke-width="1.5" />
  <path d="M 360.00 400.00 C 378.00 400.00, 382.00 325.00, 400.00 325.00" stroke="#FF9900" stroke-width="1.5" fill="none" />
  <line x1="350.00" y1="400.00" x2="360.00" y2="400.00" stroke="#FF9900" stroke-width="1.5" />
  <path d="M 360.00 400.00 C 378.00 400.00, 382.00 350.00, 400.00 350.00" stroke="#FF9900" stroke-width="1.5" fill="none" />
  <line x1="350.00" y1="400.00" x2="360.00" y2="400.00" stroke="#FF9900" stroke-width="1.5" />
  <path d="M 360.00 400.00 C 378.00 400.00, 382.00 375.00, 400.00 375.00" stroke="#FF9900" stroke-width="1.5" fill="none" />
  <line x1="350.00" y1="400.00" x2="360.00" y2="400.00" stroke="#FF9900" stroke-width="1.5" />
  <path d="M 360.00 400.00 C 378.00 400.00, 382.00 400.00, 400.00 400.00" stroke="#FF9900" stroke-width="1.5" fill="none" />
  <line x1="350.00" y1="400.00" x2="360.00" y2="400.00" stroke="#FF9900" stroke-width="1.5" />
  <path d="M 360.00 400.00 C 378.00 400.00, 382.00 425.00, 400.00 425.00" stroke="#FF9900" stroke-width="1.5" fill="none" />
  <line x1="350.00" y1="400.00" x2="360.00" y2="400.00" stroke="#FF9900" stroke-width="1.5" />
  <path d="M 360.00 400.00 C 378.00 400.00, 382.00 450.00, 400.00 450.00" stroke="#FF9900" stroke-width="1.5" fill="none" />
  <line x1="350.00" y1="400.00" x2="360.00" y2="400.00" stroke="#FF9900" stroke-width="1.5" />
  <path d="M 360.00 400.00 C 378.00 400.00, 382.00 475.00, 400.00 475.00" stroke="#FF9900" stroke-width="1.5" fill="none" />
  <line x1="660.55" y1="400.00" x2="670.14" y2="400.00" stroke="#FF9900" stroke-width="1.5" />
  <path d="M 670.14 400.00 C 694.89 400.00, 700.39 350.00, 725.14 350.00" stroke="#FF9900" stroke-width="1.5" fill="none" />
  <line x1="660.55" y1="400.00" x2="670.14" y2="400.00" stroke="#FF9900" stroke-width="1.5" />
  <path d="M 670.14 400.00 C 694.89 400.00, 700.39 375.00, 725.14 375.00" stroke="#FF9900" stroke-width="1.5" fill="none" />
  <line x1="660.55" y1="400.00" x2="670.14" y2="400.00" stroke="#FF9900" stroke-width="1.5" />
  <path d="M 670.14 400.00 C 694.89 400.00, 700.39 400.00, 725.14 400.00" stroke="#FF9900" stroke-width="1.5" fill="none" />
  <line x1="660.55" y1="400.00" x2="670.14" y2="400.00" stroke="#FF9900" stroke-width="1.5" />
  <path d="M 670.14 400.00 C 694.89 400.00, 700.39 425.00, 725.14 425.00" stroke="#FF9900" stroke-width="1.5" fill="none" />
  <line x1="660.55" y1="400.00" x2="670.14" y2="400.00" stroke="#FF9900" stroke-width="1.5" stroke-dasharray="4 2" />
  <path d="M 670.14 400.00 C 694.89 400.00, 700.39 450.00, 725.14 450.00" stroke="#FF9900" stroke-width="1.5" fill="none" stroke-dasharray="4 2" />
  <path d="M 954.83 400.00 C 979.58 400.00, 985.08 400.00, 1009.83 400.00" stroke="#FF9900" stroke-width="1.5" fill="none" stroke-dasharray="4 2" />
  <a xlink:href="/use-case/cyber-security/" target="_top">
    <rect x="250.52" y="387.50" width="99.48" height="25" rx="4" ry="4" fill="none" stroke="none" pointer-events="all" />
    <text x="260.52" y="404.50" text-anchor="start" font-family="Roboto, sans-serif" font-size="13" fill="#90EE90" font-weight="normal">Cybersecurity</text>
  </a>
  <a xlink:href="/use-case/cyber-security/contexts/" target="_top">
    <rect x="400.00" y="312.50" width="71.31" height="25" rx="4" ry="4" fill="none" stroke="none" pointer-events="all" />
    <text x="410.00" y="329.50" text-anchor="start" font-family="Roboto, sans-serif" font-size="13" fill="#90EE90" font-weight="normal">Contexts</text>
  </a>
  <a xlink:href="/use-case/cyber-security/detect/" target="_top">
    <rect x="400.00" y="337.50" width="213.66" height="25" rx="4" ry="4" fill="none" stroke="none" pointer-events="all" />
    <text x="410.00" y="354.50" text-anchor="start" font-family="Roboto, sans-serif" font-size="13" fill="#90EE90" font-weight="normal">Detect (Cybersecurity Monitoring)</text>
  </a>
  <a xlink:href="/use-case/cyber-security/govern/" target="_top">
    <rect x="400.00" y="362.50" width="228.84" height="25" rx="4" ry="4" fill="none" stroke="none" pointer-events="all" />
    <text x="410.00" y="379.50" text-anchor="start" font-family="Roboto, sans-serif" font-size="13" fill="#90EE90" font-weight="normal">Govern (Cybersecurity Governance)</text>
  </a>
  <a xlink:href="/use-case/cyber-security/identify/" target="_top">
    <rect x="400.00" y="387.50" width="260.55" height="25" rx="4" ry="4" fill="#4051B5" stroke="#FF6F00" stroke-width="1.5" />
    <text x="410.00" y="404.50" text-anchor="start" font-family="Roboto, sans-serif" font-size="13" fill="#FFFFFF" font-weight="bold">Identify (Cybersecurity Understanding)</text>
  </a>
  <a xlink:href="/use-case/cyber-security/identify/attack-surface-management/" target="_top">
    <rect x="725.14" y="337.50" width="184.06" height="25" rx="4" ry="4" fill="none" stroke="none" pointer-events="all" />
    <text x="735.14" y="354.50" text-anchor="start" font-family="Roboto, sans-serif" font-size="13" fill="#90EE90" font-weight="normal">Attack Surface Management</text>
  </a>
  <a xlink:href="/use-case/cyber-security/identify/data-classification-and-criticality/" target="_top">
    <rect x="725.14" y="362.50" width="196.31" height="25" rx="4" ry="4" fill="none" stroke="none" pointer-events="all" />
    <text x="735.14" y="379.50" text-anchor="start" font-family="Roboto, sans-serif" font-size="13" fill="#90EE90" font-weight="normal">Data Classification &amp; Criticality</text>
  </a>
  <a xlink:href="/use-case/cyber-security/identify/threat-modeling-and-scenarios/" target="_top">
    <rect x="725.14" y="387.50" width="234.69" height="25" rx="4" ry="4" fill="none" stroke="none" pointer-events="all" />
    <text x="735.14" y="404.50" text-anchor="start" font-family="Roboto, sans-serif" font-size="13" fill="#90EE90" font-weight="normal">Threat Modeling &amp; Scenario Mapping</text>
  </a>
  <a xlink:href="/use-case/cyber-security/identify/vulnerability-management/" target="_top">
    <rect x="725.14" y="412.50" width="169.88" height="25" rx="4" ry="4" fill="none" stroke="none" pointer-events="all" />
    <text x="735.14" y="429.50" text-anchor="start" font-family="Roboto, sans-serif" font-size="13" fill="#90EE90" font-weight="normal">Vulnerability Management</text>
  </a>
  <a xlink:href="/use-case/cyber-security/protect/" target="_top">
    <rect x="400.00" y="412.50" width="204.97" height="25" rx="4" ry="4" fill="none" stroke="none" pointer-events="all" />
    <text x="410.00" y="429.50" text-anchor="start" font-family="Roboto, sans-serif" font-size="13" fill="#90EE90" font-weight="normal">Protect (Cybersecurity Controls)</text>
  </a>
  <a xlink:href="/use-case/cyber-security/recover/" target="_top">
    <rect x="400.00" y="437.50" width="218.70" height="25" rx="4" ry="4" fill="none" stroke="none" pointer-events="all" />
    <text x="410.00" y="454.50" text-anchor="start" font-family="Roboto, sans-serif" font-size="13" fill="#90EE90" font-weight="normal">Recover (Cybersecurity Recovery)</text>
  </a>
  <a xlink:href="/use-case/cyber-security/respond/" target="_top">
    <rect x="400.00" y="462.50" width="275.14" height="25" rx="4" ry="4" fill="none" stroke="none" pointer-events="all" />
    <text x="410.00" y="479.50" text-anchor="start" font-family="Roboto, sans-serif" font-size="13" fill="#90EE90" font-weight="normal">Respond (Cybersecurity Incident Response)</text>
  </a>
  <a xlink:href="/use-case/digital-twin/dependency-and-relationship-mapping/" target="_top">
    <rect x="1009.83" y="387.50" width="234.00" height="25" rx="4" ry="4" fill="none" stroke="none" pointer-events="all" />
    <text x="1019.83" y="404.50" text-anchor="start" font-family="Roboto, sans-serif" font-size="13" fill="#90EE90" font-weight="normal">Dependency &amp; Relationship Mapping</text>
  </a>
  <a xlink:href="/use-case/digital-twin/technology-estate-inventory/" target="_top">
    <rect x="725.14" y="437.50" width="183.36" height="25" rx="4" ry="4" fill="none" stroke="none" pointer-events="all" />
    <text x="735.14" y="454.50" text-anchor="start" font-family="Roboto, sans-serif" font-size="13" fill="#90EE90" font-weight="normal">Technology Estate Inventory</text>
  </a>
</svg>