<svg xmlns="http://www.w3.org/2000/svg" xmlns:xlink="http://www.w3.org/1999/xlink" contentStyleType="text/css" data-diagram-type="MINDMAP" height="303px" preserveAspectRatio="none" style="width:503px;height:303px;" version="1.1" viewBox="0 0 503 303" width="503px" zoomAndPan="magnify"><defs/><g><a href="/use-case/client-360/know-your-customer/" target="_top" title="/use-case/client-360/know-your-customer/" xlink:actuate="onRequest" xlink:href="/use-case/client-360/know-your-customer/" xlink:show="new" xlink:title="/use-case/client-360/know-your-customer/" xlink:type="simple"><text fill="#4051B5" font-family="'Roboto'" font-size="13" lengthAdjust="spacing" textLength="176.0586" x="17" y="155.1646">Know Your Customer (KYC)</text></a><a href="/use-case/client-360/know-your-customer/anti-money-laundering/" target="_top" title="/use-case/client-360/know-your-customer/anti-money-laundering/" xlink:actuate="onRequest" xlink:href="/use-case/client-360/know-your-customer/anti-money-laundering/" xlink:show="new" xlink:title="/use-case/client-360/know-your-customer/anti-money-laundering/" xlink:type="simple"><text fill="#4051B5" font-family="'Roboto'" font-size="13" lengthAdjust="spacing" textLength="192.2197" x="258.1909" y="27.0669">Anti Money Laundering (AML)</text></a><path d="M201.1909,150.6641 L201.1909,150.8509 L203.1909,150.2958 L205.1909,150.8359 L207.1909,151.0193 L209.1909,150.0299 L211.1909,150.6641 L211.1909,150.6641 L211.1653,150.6409 L212.0465,149.436 L213.0567,148.348 L214.1567,147.3412 L214.9474,146.0545 L216.1714,145.1599 L216.4089,145.2241 L216.6861,142.1845 L217.6569,139.3325 L218.7122,136.5034 L219.2752,133.5411 L220.0972,130.6488 L220.1271,130.654 L220.4186,128.7074 L220.8462,126.7844 L221.2082,124.85 L221.6955,122.9373 L221.7744,120.9539 L222.0697,120.9961 L222.3824,118.8324 L222.5046,116.6416 L222.9056,114.4906 L223.3197,112.3414 L223.3198,110.1332 L223.0017,110.0943 L224.1934,105.4661 L224.3375,100.71 L225.278,96.0512 L225.3983,91.2922 L226.1909,86.6152 L226.1607,86.6115 L227.0923,81.9516 L227.3179,77.2054 L227.96,72.5101 L228.6372,67.8191 L229.062,63.0973 L229.2451,63.1235 L229.3694,60.9329 L229.8065,58.7871 L229.7374,56.5689 L230.4235,54.4586 L230.6074,52.2766 L230.8475,52.3181 L231.1375,50.3713 L231.5468,48.445 L231.4022,46.423 L231.6636,44.4712 L232.2847,42.5817 L232.0181,42.5095 L233.0446,39.6726 L233.7707,36.7544 L234.9325,33.9541 L235.3504,30.9525 L236.2104,28.0706 L236.0974,27.9683 L237.2818,27.0378 L237.9829,25.6701 L239.0276,24.6133 L240.4087,23.8608 L241.1909,22.5664 L241.1909,22.9537 L243.1909,23.2193 L245.1909,22.2804 L247.1909,22.8501 L249.1909,23.0912 L251.1909,22.5664" fill="none" style="stroke:#FF6F00;stroke-width:1;"/><a href="/use-case/client-360/know-your-customer/identification-verification/" target="_top" title="/use-case/client-360/know-your-customer/identification-verification/" xlink:actuate="onRequest" xlink:href="/use-case/client-360/know-your-customer/identification-verification/" xlink:show="new" xlink:title="/use-case/client-360/know-your-customer/identification-verification/" xlink:type="simple"><text fill="#4051B5" font-family="'Roboto'" font-size="13" lengthAdjust="spacing" textLength="163.4204" x="258.1909" y="52.1997">Identification Verification</text></a><path d="M201.1909,150.6641 L201.1909,150.8509 L203.1909,150.2958 L205.1909,150.8359 L207.1909,151.0193 L209.1909,150.0299 L211.1909,150.6641 L211.1909,150.6641 L211.1607,150.6473 L212.8063,147.3546 L214.6043,144.1462 L216.5082,140.9964 L218.0471,137.6446 L220.0972,134.5758 L220.3387,134.623 L220.4668,131.224 L221.3,127.9628 L222.2192,124.7183 L222.6379,121.3761 L223.3198,118.0853 L223.3498,118.0899 L223.88,114.3025 L224.5467,110.5358 L225.1476,106.7591 L225.8741,103.0015 L226.1909,99.1816 L226.4858,99.2264 L227.0636,95.4462 L227.4512,91.6372 L228.1173,87.8704 L228.7964,84.1055 L229.062,80.2779 L228.7474,80.2165 L230.0025,77.0377 L230.2217,73.6565 L231.2285,70.4292 L231.4242,67.0434 L232.2847,63.7875 L232.258,63.7727 L234.3543,60.7295 L235.8282,57.3417 L237.6694,54.1572 L239.5413,50.9898 L241.1909,47.6992 L241.1909,48.0692 L243.1909,47.6957 L245.1909,47.9545 L247.1909,47.1904 L249.1909,47.952 L251.1909,47.6992" fill="none" style="stroke:#FF6F00;stroke-width:1;"/><a href="/use-case/client-360/know-your-customer/peps/" target="_top" title="/use-case/client-360/know-your-customer/peps/" xlink:actuate="onRequest" xlink:href="/use-case/client-360/know-your-customer/peps/" xlink:show="new" xlink:title="/use-case/client-360/know-your-customer/peps/" xlink:type="simple"><text fill="#4051B5" font-family="'Roboto'" font-size="13" lengthAdjust="spacing" textLength="221.019" x="258.1909" y="77.3325">Politically Exposed Persons (PEPs)</text></a><path d="M201.1909,150.6641 L201.1909,150.8509 L203.1909,150.2958 L205.1909,150.8359 L207.1909,151.0193 L209.1909,150.0299 L211.1909,150.6641 L211.1909,150.6641 L211.1631,150.6437 L212.8192,148.1198 L214.6159,145.6989 L216.5102,143.3494 L218.068,140.7535 L220.0972,138.5028 L220.3354,138.5644 L220.4705,135.9396 L221.3011,133.4947 L222.2166,131.0717 L222.6384,128.521 L223.3198,126.0375 L223.3496,126.0435 L223.8801,123.1768 L224.5461,120.3374 L225.1467,117.4848 L225.8719,114.6572 L226.1909,111.748 L226.4833,111.8068 L227.0611,108.9496 L227.4503,106.0545 L228.1156,103.2149 L228.7938,100.3779 L229.062,97.4586 L228.7517,97.3783 L229.9985,95.041 L230.2235,92.4395 L231.2253,90.0388 L231.4271,87.4313 L232.2847,84.9933 L232.2601,84.9753 L234.3318,82.7558 L235.8297,80.116 L237.6662,77.7242 L239.5311,75.3532 L241.1909,72.832 L241.1909,73.202 L243.1909,72.8286 L245.1909,73.0873 L247.1909,72.3232 L249.1909,73.0848 L251.1909,72.832" fill="none" style="stroke:#FF6F00;stroke-width:1;"/><a href="/use-case/client-360/know-your-customer/crime-records/" target="_top" title="/use-case/client-360/know-your-customer/crime-records/" xlink:actuate="onRequest" xlink:href="/use-case/client-360/know-your-customer/crime-records/" xlink:show="new" xlink:title="/use-case/client-360/know-your-customer/crime-records/" xlink:type="simple"><text fill="#4051B5" font-family="'Roboto'" font-size="13" lengthAdjust="spacing" textLength="95.3291" x="258.1909" y="102.4653">Crime Records</text></a><path d="M201.1909,150.6641 L201.1909,150.8509 L203.1909,150.2958 L205.1909,150.8359 L207.1909,151.0193 L209.1909,150.0299 L211.1909,150.6641 L211.1909,150.6641 L211.1675,150.6387 L212.8435,148.878 L214.6377,147.2452 L216.5141,145.7013 L218.1073,143.851 L220.0972,142.4298 L220.3304,142.5083 L221.0504,138.7174 L222.4514,135.1556 L223.9354,131.6218 L224.936,127.9254 L226.1909,124.3145 L226.2197,124.3241 L227.3962,120.6869 L228.7036,117.0936 L229.9479,113.4791 L231.3126,109.9052 L232.2847,106.1991 L232.4871,106.4181 L234.2709,104.7739 L235.924,102.9885 L237.7683,101.4098 L239.6215,99.8409 L241.1909,97.9648 L241.1909,97.3238 L243.1909,98.568 L245.1909,97.7013 L247.1909,98.4393 L249.1909,97.5248 L251.1909,97.9648" fill="none" style="stroke:#FF6F00;stroke-width:1;"/><a href="/use-case/client-360/know-your-customer/sanctions/" target="_top" title="/use-case/client-360/know-your-customer/sanctions/" xlink:actuate="onRequest" xlink:href="/use-case/client-360/know-your-customer/sanctions/" xlink:show="new" xlink:title="/use-case/client-360/know-your-customer/sanctions/" xlink:type="simple"><text fill="#4051B5" font-family="'Roboto'" font-size="13" lengthAdjust="spacing" textLength="63.2798" x="258.1909" y="127.5981">Sanctions</text></a><path d="M201.1909,150.6641 L201.1909,150.8509 L203.1909,150.2958 L205.1909,150.8359 L207.1909,151.0193 L209.1909,150.0299 L211.1909,150.6641 L211.1909,150.6641 L211.1759,150.633 L212.8896,149.632 L214.6792,148.7877 L216.5215,148.0524 L218.1821,146.9416 L220.0972,146.3568 L220.3041,146.4899 L221.0803,144.3101 L222.4607,142.5189 L223.9149,140.7751 L224.9401,138.7554 L226.1909,136.8809 L226.2164,136.8973 L227.3977,134.978 L228.6952,133.1334 L229.9366,131.2528 L231.2849,129.4409 L232.2847,127.4049 L232.4145,127.6734 L234.1974,126.8152 L235.8964,125.7839 L237.7181,125.006 L239.5456,124.2401 L241.1909,123.0977 L241.1909,122.4566 L243.1909,123.7008 L245.1909,122.8341 L247.1909,123.5722 L249.1909,122.6576 L251.1909,123.0977" fill="none" style="stroke:#FF6F00;stroke-width:1;"/><a href="/use-case/client-360/know-your-customer/risk-management/" target="_top" title="/use-case/client-360/know-your-customer/risk-management/" xlink:actuate="onRequest" xlink:href="/use-case/client-360/know-your-customer/risk-management/" xlink:show="new" xlink:title="/use-case/client-360/know-your-customer/risk-management/" xlink:type="simple"><text fill="#4051B5" font-family="'Roboto'" font-size="13" lengthAdjust="spacing" textLength="116.7144" x="258.1909" y="152.731">Risk Management</text></a><path d="M201.1909,150.6641 L201.1909,150.8509 L203.1909,150.2958 L205.1909,150.8359 L207.1909,151.0193 L209.1909,150.0299 L211.1909,150.6641 L211.1909,150.6641 L211.1881,150.6296 L214.1756,150.2318 L217.1771,150.0075 L220.1885,149.9038 L223.1661,149.3844 L226.1909,149.4473 L226.2108,149.6925 L229.1683,148.9247 L232.1838,148.8729 L235.2064,148.9085 L238.1878,148.4358 L241.1909,148.2305 L241.1909,148.2911 L243.1909,148.2021 L245.1909,148.3892 L247.1909,148.443 L249.1909,148.7511 L251.1909,148.2305" fill="none" style="stroke:#FF6F00;stroke-width:1;"/><a href="/use-case/client-360/know-your-customer/high-net-worth-individuals/" target="_top" title="/use-case/client-360/know-your-customer/high-net-worth-individuals/" xlink:actuate="onRequest" xlink:href="/use-case/client-360/know-your-customer/high-net-worth-individuals/" xlink:show="new" xlink:title="/use-case/client-360/know-your-customer/high-net-worth-individuals/" xlink:type="simple"><text fill="#4051B5" font-family="'Roboto'" font-size="13" lengthAdjust="spacing" textLength="225.1323" x="258.1909" y="177.8638">High Net Worth Individuals (HNWI)</text></a><path d="M201.1909,150.6641 L201.1909,150.8509 L203.1909,150.2958 L205.1909,150.8359 L207.1909,151.0193 L209.1909,150.0299 L211.1909,150.6641 L211.1909,150.6641 L211.1701,150.6365 L214.0765,152.7828 L217.0881,155.068 L220.1726,157.4497 L223.0055,159.4987 L226.1909,162.0137 L226.3394,162.2099 L229.0219,164.0602 L232.1379,166.4834 L235.3068,168.9765 L238.1679,171.063 L241.1909,173.3633 L241.1909,173.4239 L243.1909,173.3349 L245.1909,173.522 L247.1909,173.5758 L249.1909,173.8839 L251.1909,173.3633" fill="none" style="stroke:#FF6F00;stroke-width:1;"/><a href="/use-case/client-360/know-your-customer/gdpr/" target="_top" title="/use-case/client-360/know-your-customer/gdpr/" xlink:actuate="onRequest" xlink:href="/use-case/client-360/know-your-customer/gdpr/" xlink:show="new" xlink:title="/use-case/client-360/know-your-customer/gdpr/" xlink:type="simple"><text fill="#4051B5" font-family="'Roboto'" font-size="13" lengthAdjust="spacing" textLength="36.9561" x="258.1909" y="202.9966">GDPR</text></a><path d="M201.1909,150.6641 L201.1909,150.8509 L203.1909,150.2958 L205.1909,150.8359 L207.1909,151.0193 L209.1909,150.0299 L211.1909,150.6641 L211.1909,150.6641 L211.1687,150.6376 L212.8503,152.0136 L214.6439,153.523 L216.5152,155.1251 L218.1184,156.4077 L220.0972,158.1378 L220.3279,158.2233 L221.0533,161.3289 L222.4522,164.6842 L223.9334,168.0699 L224.9364,171.2784 L226.1909,174.5801 L226.2194,174.5906 L227.3964,177.8636 L228.7028,181.1846 L229.9468,184.4824 L231.31,187.8243 L232.2847,191.0223 L232.4764,191.2508 L234.26,192.7483 L235.9199,194.0985 L237.7609,195.6644 L239.6103,197.2404 L241.1909,198.4961 L241.1909,197.855 L243.1909,199.0992 L245.1909,198.2325 L247.1909,198.9706 L249.1909,198.0561 L251.1909,198.4961" fill="none" style="stroke:#FF6F00;stroke-width:1;"/><polygon fill="#4051B5" points="255.1909,221.0625,255.1909,221.2727,265.093,220.6482,274.9951,221.2558,284.8972,221.4622,294.7993,220.3491,304.7014,220.9848,314.6035,220.636,324.5056,220.679,334.4077,220.9943,344.3098,220.3711,354.2119,221.6161,364.114,220.4322,374.0161,220.8647,383.9182,221.4944,393.8203,221.0625,393.8094,221.0361,394.3947,221.3178,394.9476,221.5213,395.5401,221.8204,396.1136,222.0734,396.6487,222.2341,396.8291,222.3088,397.0897,222.8854,397.3266,223.4521,397.4301,223.9636,397.7288,224.556,397.8203,225.0625,398.0544,225.0625,397.5799,230.4891,398.0465,235.9156,397.7215,241.3422,397.9982,246.7688,397.8203,252.1953,397.6679,252.1322,397.5649,252.7523,397.5801,253.4213,397.1024,253.8862,396.9155,254.4715,396.6487,255.0237,396.6919,255.128,396.1361,255.3862,395.5169,255.4912,394.9883,255.8151,394.313,255.7847,393.8203,256.1953,393.8203,256.4797,383.9182,256.7435,374.0161,256.6398,364.114,256.8083,354.2119,255.7122,344.3098,255.5431,334.4077,255.5739,324.5056,256.1364,314.6035,255.9988,304.7014,256.8767,294.7993,256.0206,284.8972,255.8523,274.9951,256.4236,265.093,255.5285,255.1909,256.1953,255.1247,256.0354,254.708,256.1608,254.1151,255.8609,253.5876,255.7186,252.8871,255.159,252.3625,255.0237,252.4608,255.0645,252.31,254.5334,251.7484,253.8321,251.63,253.3145,251.464,252.7771,251.1909,252.1953,251.4082,252.1953,251.1895,246.7688,251.3451,241.3422,251.0063,235.9156,250.9652,230.4891,251.1909,225.0625,251.346,225.1267,251.2044,224.4054,251.8163,223.9961,251.9575,223.3918,252.0457,222.7656,252.3625,222.2341,252.3174,222.1251,252.9867,222.141,253.4557,221.6733,254.135,221.7134,254.5547,221.1266,255.1909,221.0625" style="stroke:#FF6F00;stroke-width:1.5;"/><a href="/use-case/client-360/know-your-customer/activity-monitoring/" target="_top" title="/use-case/client-360/know-your-customer/activity-monitoring/" xlink:actuate="onRequest" xlink:href="/use-case/client-360/know-your-customer/activity-monitoring/" xlink:show="new" xlink:title="/use-case/client-360/know-your-customer/activity-monitoring/" xlink:type="simple"><text fill="#4051B5" font-family="'Roboto'" font-size="13" lengthAdjust="spacing" textLength="122.4971" x="261.1909" y="243.1294">Activity Monitoring</text></a><path d="M201.1909,150.6641 L201.1909,150.8509 L203.1909,150.2958 L205.1909,150.8359 L207.1909,151.0193 L209.1909,150.0299 L211.1909,150.6641 L211.1909,150.6641 L211.1619,150.6453 L212.8131,153.3099 L214.6104,156.0692 L216.5092,158.8943 L218.058,161.4926 L220.0972,164.4086 L220.337,164.4634 L220.4686,167.1637 L221.3005,170.0242 L222.2179,172.9042 L222.6381,175.6706 L223.3198,178.4967 L223.3497,178.502 L223.8801,181.7242 L224.5464,184.9705 L225.1471,188.2052 L225.873,191.4621 L226.1909,194.6465 L226.4846,194.6987 L227.0624,197.9293 L227.4508,201.1262 L228.1164,204.3724 L228.7951,207.6209 L229.062,210.7963 L228.7496,210.7248 L230.0005,213.6811 L230.2226,216.4021 L231.2269,219.3021 L231.4257,222.0177 L232.2847,224.8844 L232.2591,224.8678 L234.3425,227.8125 L235.829,230.3704 L237.6677,233.1566 L239.536,235.9618 L241.1909,238.6289 L241.1909,238.9989 L243.1909,238.6254 L245.1909,238.8842 L247.1909,238.1201 L249.1909,238.8817 L251.1909,238.6289" fill="none" style="stroke:#FF6F00;stroke-width:1;"/><a href="/use-case/client-360/know-your-customer/core-record-management/" target="_top" title="/use-case/client-360/know-your-customer/core-record-management/" xlink:actuate="onRequest" xlink:href="/use-case/client-360/know-your-customer/core-record-management/" xlink:show="new" xlink:title="/use-case/client-360/know-your-customer/core-record-management/" xlink:type="simple"><text fill="#4051B5" font-family="'Roboto'" font-size="13" lengthAdjust="spacing" textLength="170.0029" x="258.1909" y="283.2622">Core Record Management</text></a><path d="M201.1909,150.6641 L201.1909,150.8509 L203.1909,150.2958 L205.1909,150.8359 L207.1909,151.0193 L209.1909,150.0299 L211.1909,150.6641 L211.1909,150.6641 L211.1653,150.6409 L212.0465,151.6377 L213.0567,152.7514 L214.1567,153.9463 L214.9474,154.8613 L216.1714,156.1683 L216.4089,156.2325 L216.6861,158.9973 L217.6569,161.9497 L218.7122,164.925 L219.2752,167.7672 L220.0972,170.6793 L220.1271,170.6845 L220.4186,172.6159 L220.8462,174.5708 L221.2082,176.5144 L221.6955,178.4796 L221.7744,180.3742 L222.0697,180.4164 L222.3824,182.581 L222.5046,184.7185 L222.9056,186.8958 L223.3197,189.0749 L223.3198,191.195 L223.0017,191.1561 L224.1934,195.9351 L224.3375,200.5862 L225.278,205.3345 L225.3983,209.9826 L226.1909,214.7129 L226.1607,214.7092 L227.0923,219.4564 L227.3179,224.1174 L227.96,228.8293 L228.6372,233.5455 L229.062,238.2308 L229.2451,238.257 L229.3694,240.3947 L229.8065,242.5772 L229.7374,244.6873 L230.4235,246.9053 L230.6074,249.0516 L230.8475,249.0931 L231.1375,251.0242 L231.5468,252.976 L231.4022,254.8319 L231.6636,256.7581 L232.2847,258.7465 L232.0181,258.6743 L233.0446,261.6418 L233.7707,264.5281 L234.9325,267.5322 L235.3504,270.335 L236.2104,273.2575 L236.0974,273.1552 L237.2818,274.4264 L237.9829,275.2604 L239.0276,276.4052 L240.4087,277.8544 L241.1909,278.7617 L241.1909,279.149 L243.1909,279.4146 L245.1909,278.4757 L247.1909,279.0454 L249.1909,279.2865 L251.1909,278.7617" fill="none" style="stroke:#FF6F00;stroke-width:1;"/><!--SRC=[xLXjRzf84FxkNp7NV6YgrWNIjAgggYeXD4d3co1fLLLLjDWBh32xljrrA7Uw_tvZOuDji047UksfVCAxusTUThmpyxnNcaWzOToU4DSm_h3fW74APnTtpUfLwwxMRhIx4FoEJiilA_sNSP5UlTPkdLUxNqAvDIATQkswUb5V0As8jBldzMvS3nmD1gy6vV92v4ExTPCG24JytqAaskssFoTb8XH3ZHbtYIGJw1DhF9J2utPDE4B2aPQ4AzoZNCV4BcSkbGxZur0gjDXu38nRZcTJq2CAGygf90uitbCmGEc-qADduB3XI0FXDjX4Zl5DBK3SKpcLJ5EOCZsQOx1xoa5HhHaVgdHCRYwlQjUjUgy75JmOuMecE8mGr4VH-EA0E8h63EyGsqOWE8sjTUVkIZGMNiVMUoDYYwaldKPPk7_BxU0F3KLYCkTqG3n7mz_61y5rYqmeFEeAz5qy2bRcaLiUNB3OOtzHg9mQ_yIHgbAAAUAiVMCzZ9uv62FXs4aa5q-N36beqyghPwd3JsIuSIOaEXlkn58ILImrS67l0fz8_UqqM6BY2exfY6eA6hpMkddCl8bpaeoPJJJf4qNth2wXmtA4PnzKWN0SQlbVXzgxcgMM6Wf8uHnGmvaFIUJiW2hgN3DzI0MCQoe7nA87rD6ZVtgKMxI3XOjPp2LSpy5kHimQSweKNfXBSHMAeqNnDtADMu5UOsTCPdajSI4dn4dlhRZJO0FQm9ir4tmXa6jcS7ckW0UhcSZ1xbgZWfrb35yOLKiBkS62G2HJbx-RzG4_Xjef-5738eGFHnj_yMzUuWTF-D2XRzzYjLA2ltk7vzl3vAD2Om7Bh1xxgWlfZ4lNxEGL5JENVaSZEN7kzcztgXqxWF5gfZIT_7gnth_T1ufrL91_ZL0lhVtr8XrBatvOUETMfnhZf1T13rlUtEqLyZtViNc1iOaQKNiRNzUwQg5YWdL5RkihzklvgNG0J_EFSESn91hWbZwzcDUVDavaac5FRuSu_W0NZi91iw_0X8cdjD-NKo03T3NIcHeBOjh2qJHpnedDgbb6nbk9PJ1IlJiExdfpcxM-qcijMT_JDBiFMBKrPu19TFj4gM9MvIbu3CtmN9HBBJPW5leVj0vuHDEHFrLhl8Em_rJ-WGQ7zmpwZaVnx3YdVYEYG7ZQtruTwVPixHAV97ig7EIDftVmzIkKF4LD2-_EakKm7FZC5w_AfJ4NKtCcF6bQc7MOSx84rxW6Nt0DQk4Q75z_gJs1Rz-CfxjXOJVAp0dEbpFJ8Pu_tMFyIb35PMZwoz1OBCDnjTaeeWJZYtXuGCIVo4pyn1OF9RXARCAds6O1LIvrLGawmc7OR1F7cK7zkoiKjQ4Jz5OAZZlrZYhYXINPX9fuSU8feuwQ_mZT-MC1E4NuV40jGI_wMm16CZKs9uIJ8PsWM0cwk03DnK81o14RZanEjJaLKezC_CZOFRCzB0SbkCGzQ54Dd_qzk5hkmV5bw_DLaS0ERHUJ-kAyqvs_l5F-Ok3kSNxrSvZX1ptFtd3Hp-1miSXv2naTToB0DLmFppqLv_SKxwE8DdsVP57tnpd-nEnULEYsfFRYuci0TY3relVIbtOKjFZD7B70kJJUGm7pMBiyZ5KB2l1qkodOYfbx26Gk5xShy3RiMt7C7BwjE6WcmrOSCezJAuvw41OjCYU3FuiisvawYnnOnvj5e5cKMMHJhAsDu5QOiWWhHP8bv3SoP0k5QMviWPwanM8VKY66A_jctILRLW__eGpMZxPh0_NmduNfPx1hQrxf1rlpKmLfhvHGPCUEtcHQdKl_L0x9z-pRarJyzyNd52ParjJBlP4nSQHKBLdbO19bPbtaqYte5hnBjW4R8JEuaGSW_cP3VhCXlzcG_pqRqd7msxfjDW3JNVd9N7b-KZvv-RnIwLDDAkNZM-uhvS7WpF1srPXFJupZYqu351g2KuRDrFnwnDUV61_9FO6kntsvDz1sAVzuVXqjuCXrpwJWlYd6nq_DfS2hK_ECQPnq91e2dvf6L5_gt18-b_86Rcy-cA-D1bPB3xrv0vHZKK1SESEzthy0]--></g></svg>