<svg xmlns="http://www.w3.org/2000/svg" xmlns:xlink="http://www.w3.org/1999/xlink" contentStyleType="text/css" data-diagram-type="MINDMAP" height="223px" preserveAspectRatio="none" style="width:614px;height:223px;" version="1.1" viewBox="0 0 614 223" width="614px" zoomAndPan="magnify"><defs/><g><a href="/use-case/legal-entity-management/" target="_top" title="/use-case/legal-entity-management/" xlink:actuate="onRequest" xlink:href="/use-case/legal-entity-management/" xlink:show="new" xlink:title="/use-case/legal-entity-management/" xlink:type="simple"><text fill="#4051B5" font-family="'Roboto'" font-size="13" lengthAdjust="spacing" textLength="166.9243" x="17" y="115.0317">Legal Entity Management</text></a><a href="/use-case/legal-entity-management/identification-and-registration/" target="_top" title="/use-case/legal-entity-management/identification-and-registration/" xlink:actuate="onRequest" xlink:href="/use-case/legal-entity-management/identification-and-registration/" xlink:show="new" xlink:title="/use-case/legal-entity-management/identification-and-registration/" xlink:type="simple"><text fill="#4051B5" font-family="'Roboto'" font-size="13" lengthAdjust="spacing" textLength="182.6157" x="249.0566" y="27.0669">Identification &amp; Registration</text></a><path d="M192.0566,110.5313 L192.0566,110.7181 L194.0566,110.163 L196.0566,110.7031 L198.0566,110.8865 L200.0566,109.8971 L202.0566,110.5313 L202.0566,110.5313 L202.0277,110.5125 L203.6788,107.6793 L205.4761,104.9408 L207.375,102.2681 L208.9238,99.3685 L210.9629,96.7867 L211.2028,96.8416 L211.3344,93.9067 L212.1663,91.1319 L213.0836,88.3767 L213.5039,85.5077 L214.1855,82.6986 L214.2154,82.7039 L214.7458,79.4662 L215.4121,76.2526 L216.0128,73.0273 L216.7387,69.8243 L217.0566,66.5488 L217.3503,66.601 L217.9281,63.3717 L218.3165,60.1087 L218.9822,56.895 L219.6608,53.6836 L219.9277,50.399 L219.6153,50.3276 L220.8662,47.6487 L221.0883,44.7344 L222.0926,41.9991 L222.2914,39.0795 L223.1504,36.3109 L223.1248,36.2944 L225.2082,33.7412 L226.6947,30.8013 L228.5334,28.0897 L230.4017,25.3972 L232.0566,22.5664 L232.0566,22.9364 L234.0566,22.5629 L236.0566,22.8217 L238.0566,22.0576 L240.0566,22.8192 L242.0566,22.5664" fill="none" style="stroke:#FF6F00;stroke-width:1;"/><a href="/use-case/legal-entity-management/corporate-governance/" target="_top" title="/use-case/legal-entity-management/corporate-governance/" xlink:actuate="onRequest" xlink:href="/use-case/legal-entity-management/corporate-governance/" xlink:show="new" xlink:title="/use-case/legal-entity-management/corporate-governance/" xlink:type="simple"><text fill="#4051B5" font-family="'Roboto'" font-size="13" lengthAdjust="spacing" textLength="147.7734" x="249.0566" y="52.1997">Corporate Governance</text></a><path d="M192.0566,110.5313 L192.0566,110.7181 L194.0566,110.163 L196.0566,110.7031 L198.0566,110.8865 L200.0566,109.8971 L202.0566,110.5313 L202.0566,110.5313 L202.0311,110.508 L203.6975,108.4404 L205.4929,106.4897 L207.378,104.6204 L208.9541,102.4708 L210.9629,100.7137 L211.1972,100.7888 L211.3406,98.6157 L212.1682,96.6618 L213.0793,94.7345 L213.5047,92.6518 L214.1855,90.6508 L214.215,90.6581 L214.746,88.3403 L215.411,86.0557 L216.0113,83.7551 L216.735,81.4852 L217.0566,79.1152 L217.3461,79.1873 L217.9238,76.881 L218.3149,74.5283 L218.9792,72.2437 L219.6564,69.9622 L219.9277,67.5797 L219.6225,67.4819 L220.8595,65.6591 L221.0913,63.5143 L222.0873,61.6143 L222.2963,59.4622 L223.1504,57.5167 L223.1278,57.4963 L225.1758,55.7747 L226.6968,53.5752 L228.5288,51.6577 L230.3869,49.7638 L232.0566,47.6992 L232.0566,48.0692 L234.0566,47.6957 L236.0566,47.9545 L238.0566,47.1904 L240.0566,47.952 L242.0566,47.6992" fill="none" style="stroke:#FF6F00;stroke-width:1;"/><a href="/use-case/legal-entity-management/ownership-and-capital-structure/" target="_top" title="/use-case/legal-entity-management/ownership-and-capital-structure/" xlink:actuate="onRequest" xlink:href="/use-case/legal-entity-management/ownership-and-capital-structure/" xlink:show="new" xlink:title="/use-case/legal-entity-management/ownership-and-capital-structure/" xlink:type="simple"><text fill="#4051B5" font-family="'Roboto'" font-size="13" lengthAdjust="spacing" textLength="198.1992" x="249.0566" y="77.3325">Ownership &amp; Capital Structure</text></a><path d="M192.0566,110.5313 L192.0566,110.7181 L194.0566,110.163 L196.0566,110.7031 L198.0566,110.8865 L200.0566,109.8971 L202.0566,110.5313 L202.0566,110.5313 L202.0376,110.5024 L203.7333,109.195 L205.5251,108.0329 L207.3837,106.9717 L209.0121,105.5626 L210.9629,104.6407 L211.1856,104.7455 L211.9281,101.9297 L213.3208,99.4197 L214.7929,96.947 L215.8034,94.2572 L217.0566,91.6816 L217.0841,91.6945 L218.2625,89.0838 L219.5659,86.5318 L220.8091,83.9514 L222.1672,81.4251 L223.1504,78.7225 L223.3149,78.9713 L225.0982,77.7962 L226.7753,76.4607 L228.6078,75.3601 L230.4476,74.2704 L232.0566,72.832 L232.0566,72.191 L234.0566,73.4352 L236.0566,72.5685 L238.0566,73.3065 L240.0566,72.392 L242.0566,72.832" fill="none" style="stroke:#FF6F00;stroke-width:1;"/><a href="/use-case/legal-entity-management/financial-information/" target="_top" title="/use-case/legal-entity-management/financial-information/" xlink:actuate="onRequest" xlink:href="/use-case/legal-entity-management/financial-information/" xlink:show="new" xlink:title="/use-case/legal-entity-management/financial-information/" xlink:type="simple"><text fill="#4051B5" font-family="'Roboto'" font-size="13" lengthAdjust="spacing" textLength="137.4839" x="249.0566" y="102.4653">Financial Information</text></a><path d="M192.0566,110.5313 L192.0566,110.7181 L194.0566,110.163 L196.0566,110.7031 L198.0566,110.8865 L200.0566,109.8971 L202.0566,110.5313 L202.0566,110.5313 L202.0433,110.4994 L204.9834,109.0998 L207.9908,107.8608 L211.0449,106.7334 L213.9379,105.2213 L217.0566,104.248 L217.1517,104.475 L219.9484,102.733 L223.0227,101.6537 L226.1308,100.6552 L229.0419,99.1863 L232.0566,97.9648 L232.0566,98.0255 L234.0566,97.9364 L236.0566,98.1235 L238.0566,98.1774 L240.0566,98.4855 L242.0566,97.9648" fill="none" style="stroke:#FF6F00;stroke-width:1;"/><a href="/use-case/legal-entity-management/lifecycle-and-status/" target="_top" title="/use-case/legal-entity-management/lifecycle-and-status/" xlink:actuate="onRequest" xlink:href="/use-case/legal-entity-management/lifecycle-and-status/" xlink:show="new" xlink:title="/use-case/legal-entity-management/lifecycle-and-status/" xlink:type="simple"><text fill="#4051B5" font-family="'Roboto'" font-size="13" lengthAdjust="spacing" textLength="116.854" x="249.0566" y="127.5981">Lifecycle &amp; Status</text></a><path d="M192.0566,110.5313 L192.0566,110.7181 L194.0566,110.163 L196.0566,110.7031 L198.0566,110.8865 L200.0566,109.8971 L202.0566,110.5313 L202.0566,110.5313 L202.0433,110.4994 L204.9834,111.6131 L207.9908,112.8873 L211.0449,114.2732 L213.9379,115.2744 L217.0566,116.8145 L217.1517,117.0414 L219.9484,117.8127 L223.0227,119.2467 L226.1308,120.7614 L229.0419,121.8059 L232.0566,123.0977 L232.0566,123.1583 L234.0566,123.0693 L236.0566,123.2563 L238.0566,123.3102 L240.0566,123.6183 L242.0566,123.0977" fill="none" style="stroke:#FF6F00;stroke-width:1;"/><a href="/use-case/legal-entity-management/contact-and-location-information/" target="_top" title="/use-case/legal-entity-management/contact-and-location-information/" xlink:actuate="onRequest" xlink:href="/use-case/legal-entity-management/contact-and-location-information/" xlink:show="new" xlink:title="/use-case/legal-entity-management/contact-and-location-information/" xlink:type="simple"><text fill="#4051B5" font-family="'Roboto'" font-size="13" lengthAdjust="spacing" textLength="203.8042" x="249.0566" y="152.731">Contact &amp; Location Information</text></a><polygon fill="#4051B5" points="514.9932,118.0977,514.9932,118.3078,525.3918,117.6833,535.7904,118.2909,546.189,118.4973,556.5876,117.3843,566.9863,118.0199,577.3849,117.6712,587.7835,117.7142,598.1821,118.0977,598.1734,118.0767,598.6596,118.1191,599.3841,118.7368,599.7988,118.6065,600.4196,118.974,601.0106,119.2692,601.1436,119.3243,601.2185,119.824,601.5002,120.4093,601.7037,120.9622,602.0028,121.5547,602.1821,122.0977,602.2618,122.0977,602.3774,127.5242,602.4058,132.9508,602.4085,138.3773,602.267,143.8039,602.1821,149.2305,602.3249,149.2896,602.1641,149.8857,601.4914,150.2698,601.6881,151.0141,601.1536,151.4554,601.0106,152.0589,601.0786,152.2233,600.3817,152.1408,599.8704,152.5064,599.4081,152.9902,598.7416,152.9811,598.1821,153.2305,598.1821,153.3358,587.7835,153.5691,577.3849,153.6467,566.9863,153.2266,556.5876,153.5177,546.189,152.6581,535.7904,153.5149,525.3918,153.7787,514.9932,153.2305,515.0499,153.3674,514.5057,153.1849,513.8002,152.6131,513.2129,152.3267,512.6512,152.1018,512.1647,152.0589,512.1466,152.0514,511.8699,151.4681,511.906,151.0144,511.408,150.3396,511.1218,149.7524,510.9932,149.2305,511.0693,149.2305,510.7709,143.8039,510.8201,138.3773,511.2095,132.9508,511.1384,127.5242,510.9932,122.0977,511.2194,122.1913,511.1284,121.4909,511.5601,121.007,511.8779,120.4759,511.7849,119.7747,512.1647,119.2692,512.1525,119.2397,512.7465,119.0737,513.3792,119.0013,513.8613,118.565,514.4865,118.4744,514.9932,118.0977" style="stroke:#FF6F00;stroke-width:1.5;"/><a href="/use-case/legal-entity-management/contact-and-location-information/addresses/" target="_top" title="/use-case/legal-entity-management/contact-and-location-information/addresses/" xlink:actuate="onRequest" xlink:href="/use-case/legal-entity-management/contact-and-location-information/addresses/" xlink:show="new" xlink:title="/use-case/legal-entity-management/contact-and-location-information/addresses/" xlink:type="simple"><text fill="#4051B5" font-family="'Roboto'" font-size="13" lengthAdjust="spacing" textLength="67.0566" x="520.9932" y="140.1646">Addresses</text></a><path d="M460.9932,148.2305 L460.9932,148.4173 L462.9932,147.8622 L464.9932,148.4023 L466.9932,148.5857 L468.9932,147.5963 L470.9932,148.2305 L470.9932,148.2305 L470.9798,148.1986 L473.9199,146.799 L476.9273,145.56 L479.9815,144.4326 L482.8744,142.9205 L485.9932,141.9473 L486.0882,142.1742 L488.8849,140.4323 L491.9592,139.3529 L495.0673,138.3544 L497.9784,136.8855 L500.9932,135.6641 L500.9932,135.7247 L502.9932,135.6357 L504.9932,135.8228 L506.9932,135.8766 L508.9932,136.1847 L510.9932,135.6641" fill="none" style="stroke:#FF6F00;stroke-width:1;"/><a href="/use-case/legal-entity-management/contact-and-location-information/contacts/" target="_top" title="/use-case/legal-entity-management/contact-and-location-information/contacts/" xlink:actuate="onRequest" xlink:href="/use-case/legal-entity-management/contact-and-location-information/contacts/" xlink:show="new" xlink:title="/use-case/legal-entity-management/contact-and-location-information/contacts/" xlink:type="simple"><text fill="#4051B5" font-family="'Roboto'" font-size="13" lengthAdjust="spacing" textLength="57.3511" x="517.9932" y="180.2974">Contacts</text></a><path d="M460.9932,148.2305 L460.9932,148.4173 L462.9932,147.8622 L464.9932,148.4023 L466.9932,148.5857 L468.9932,147.5963 L470.9932,148.2305 L470.9932,148.2305 L470.9781,148.1994 L472.6919,148.9213 L474.4815,149.7999 L476.3237,150.7875 L477.9844,151.3996 L479.8994,152.5377 L480.1064,152.6708 L480.8826,154.2814 L482.263,156.2806 L483.7171,158.3271 L484.7423,160.0979 L485.9932,162.0137 L486.0187,162.0301 L487.2,163.9012 L488.4974,165.847 L489.7388,167.7567 L491.0871,169.7352 L492.0869,171.4896 L492.2168,171.7581 L493.9996,172.6229 L495.6987,173.3144 L497.5204,174.2595 L499.3478,175.2164 L500.9932,175.7969 L500.9932,175.1558 L502.9932,176.4 L504.9932,175.5333 L506.9932,176.2714 L508.9932,175.3569 L510.9932,175.7969" fill="none" style="stroke:#FF6F00;stroke-width:1;"/><path d="M192.0566,110.5313 L192.0566,110.7181 L194.0566,110.163 L196.0566,110.7031 L198.0566,110.8865 L200.0566,109.8971 L202.0566,110.5313 L202.0566,110.5313 L202.0376,110.5024 L203.7333,111.5512 L205.5251,112.7453 L207.3837,114.0403 L209.0121,114.9874 L210.9629,116.4218 L211.1856,116.5265 L211.9281,118.8944 L213.3208,121.568 L214.7929,124.2789 L215.8034,126.7728 L217.0566,129.3809 L217.0841,129.3938 L218.2625,131.9666 L219.5659,134.5983 L220.8091,137.2015 L222.1672,139.8589 L223.1504,142.34 L223.3149,142.5887 L225.0982,143.7699 L226.7753,144.7906 L228.6078,146.0461 L230.4476,147.3127 L232.0566,148.2305 L232.0566,147.5894 L234.0566,148.8336 L236.0566,147.9669 L238.0566,148.705 L240.0566,147.7904 L242.0566,148.2305" fill="none" style="stroke:#FF6F00;stroke-width:1;"/><a href="/use-case/legal-entity-management/compliance-and-documentation/" target="_top" title="/use-case/legal-entity-management/compliance-and-documentation/" xlink:actuate="onRequest" xlink:href="/use-case/legal-entity-management/compliance-and-documentation/" xlink:show="new" xlink:title="/use-case/legal-entity-management/compliance-and-documentation/" xlink:type="simple"><text fill="#4051B5" font-family="'Roboto'" font-size="13" lengthAdjust="spacing" textLength="195.1396" x="249.0566" y="177.8638">Compliance &amp; Documentation</text></a><path d="M192.0566,110.5313 L192.0566,110.7181 L194.0566,110.163 L196.0566,110.7031 L198.0566,110.8865 L200.0566,109.8971 L202.0566,110.5313 L202.0566,110.5313 L202.0311,110.508 L203.6975,112.3674 L205.4929,114.3437 L207.378,116.4014 L208.9541,118.1788 L210.9629,120.3488 L211.1972,120.4238 L211.3406,122.2759 L212.1682,124.3471 L213.0793,126.4451 L213.5047,128.3875 L214.1855,130.4117 L214.215,130.419 L214.746,132.7154 L215.411,135.0451 L216.0113,137.3587 L216.735,139.703 L217.0566,141.9473 L217.3461,142.0193 L217.9238,144.3273 L218.3149,146.5888 L218.9792,148.9184 L219.6564,151.2511 L219.9277,153.4828 L219.6225,153.3851 L220.8595,155.5874 L221.0913,157.4678 L222.0873,159.593 L222.2963,161.4661 L223.1504,163.5458 L223.1278,163.5253 L225.1758,165.7307 L226.6968,167.4582 L228.5288,169.4677 L230.3869,171.5009 L232.0566,173.3633 L232.0566,173.7333 L234.0566,173.3598 L236.0566,173.6186 L238.0566,172.8545 L240.0566,173.6161 L242.0566,173.3633" fill="none" style="stroke:#FF6F00;stroke-width:1;"/><a href="/use-case/legal-entity-management/supporting-information/" target="_top" title="/use-case/legal-entity-management/supporting-information/" xlink:actuate="onRequest" xlink:href="/use-case/legal-entity-management/supporting-information/" xlink:show="new" xlink:title="/use-case/legal-entity-management/supporting-information/" xlink:type="simple"><text fill="#4051B5" font-family="'Roboto'" font-size="13" lengthAdjust="spacing" textLength="151.106" x="249.0566" y="202.9966">Supporting Information</text></a><path d="M192.0566,110.5313 L192.0566,110.7181 L194.0566,110.163 L196.0566,110.7031 L198.0566,110.8865 L200.0566,109.8971 L202.0566,110.5313 L202.0566,110.5313 L202.0277,110.5125 L203.6788,113.1771 L205.4761,115.9364 L207.375,118.7615 L208.9238,121.3598 L210.9629,124.2758 L211.2028,124.3306 L211.3344,127.0309 L212.1663,129.8914 L213.0836,132.7714 L213.5039,135.5378 L214.1855,138.3639 L214.2154,138.3692 L214.7458,141.5914 L215.4121,144.8377 L216.0128,148.0724 L216.7387,151.3293 L217.0566,154.5137 L217.3503,154.5659 L217.9281,157.7965 L218.3165,160.9934 L218.9822,164.2396 L219.6608,167.4881 L219.9277,170.6635 L219.6153,170.592 L220.8662,173.5483 L221.0883,176.2693 L222.0926,179.1692 L222.2914,181.8849 L223.1504,184.7516 L223.1248,184.735 L225.2082,187.6797 L226.6947,190.2376 L228.5334,193.0237 L230.4017,195.829 L232.0566,198.4961 L232.0566,198.8661 L234.0566,198.4926 L236.0566,198.7514 L238.0566,197.9873 L240.0566,198.7489 L242.0566,198.4961" fill="none" style="stroke:#FF6F00;stroke-width:1;"/><!--SRC=[xLXjRzis4FwkNy4rmDgYTHEdQL4KHL77UMbQ9mxifCDG504jKJOHYbH9AbasxB_lA8ko95kovSXT2yIV4lBqt7F7bpi-7vJ6KWUKUm4E7UStZ_YK4xH_V7NQEJcxwlPx_G6AVrjxEw_QerTPa-5Xjtzsq1dycTWjC3dlT3ztZWzJe3cJ_k3WS93rWxPy_xM_ivEQ7FNFBd86iOdvfIQTmQ3_Hzx6eZZgcl8GInoW4NQlnr94tEiA9YJQqX9p1NE4wupPnxkGI4RvTMALC7OU8yfT5da4wGb1OyA9n0obtodaW_L8wCbpnEXueX7c7lAml8OljK3YXiXRIJL1jrHFfXZqXd2aYDQKZrKn9nSVJxgVpmw7GzI6XH6XfeAZ2O0Q50qV-fWfaY5-ZZqFWD1UPcmm3LS2MVGcCpwSO4_S6kiYIXh-9VVYFqXYah4v83wEc4R_E4U2wpCS4FHe821syIWUcMPkjd3nu93-JL1xp_atYzIHKjm2pi8l5iFeEmOv4ipB8uMmkdXC4avpd-uN5Z-tmvrz8I7OP2Qp9S75p0CNNXtutDPVpOChWb1ms8xWPat22zbDSnO5R3UVCmzhFCAADEmkvyDb8l8swa0mHbnpEbJZRcPUkc0W1TkWXtq3YUNT1bqSSatr9XrGhedqiKisw6D8laU4k-GS2XTrQOYvde9TJAXxpObIS67Ep5LY3eooNrIIcuDUm3DZCxkMk901PiMvkN1wr2Szk5bBmLE3IfhnvJa77e-M8iUp2qd5CxCSldGwhXPo2OFOfDINcIqxm8zHTm-Ph44HWd-sblwoPrx2WSTypCYxTr2jbE3ltyFw3c7p4Q6XW9LMZwRgGd775Mjs_ehAq2L_0KcEsLNpl0ljs0R8gpkbIV3hvRfvtXlAjIt8lqQgPsn_lKndjiaeARnJreN6E1z5tCFkBE_sregzEh1fWV6mcX1lbLWNXkg2OmnrHQuQA_JhrLjf0v5MBs7jPuXzmCrYUZcjFtruaKaAFRsNu9W7NF8KZfjzXLeeY9GsVJb1s8TGhS_2io3ZBNcQbhvnCc_LCfBPLcAMZ4Bl3WztlRpDMbpfjPPq56bItWVCSwrumEIwVQpKUgog73n6fycwg92urASkn1-t3h14jnFpgjPm1q7_gSo2nelt78rOH63jE2Uc4L58HDfCpp_f6cOxmyVvdWeUyiwpA_JrAzgE56cvS7TkCpB6h4NYphmLO0vls03-sqOzCs5RzjDq0dtxvZnR5GIYXJ585pRlenRcNakICLLQnWFRw2HdW7v7WynqBLUkaA60xqXhRAGEZg7dtePdKpAAZjFHMh3Y5cuhDQ5XJDx58TLW1mmZLqSIFFIj0P3lJgUXhKocQxdogQ57OOvotvo-QOgEx30wcGtN0cRGpRjtBYDn3ERWHWhMruu2yM4yLZFVS9MxEePa8bdW7F7kr0BWUydyV0JF6dA6FK_23YSGLyV-cNXeAfx4GAM1rSrN439gzb_imXDkPCRJNDbPIDT1TgwM4nM5iDsDd9TVYc4wNbo23mJkDIk_ViYhiSrfbp-nIcWBveeIOTPy0K0DST1-LxpyRTAoDxnLaolbmFi2Lgb_LHZp3DRG- -evM4dXkmzafQPN5tWL5Mzzp0hTRdtGKgLkVSWgRMvzr8seSPPEYGvdcTMMu6m0Y_Gt2reclLbEcVROmiqfRXQh8BRbx9SgRQd3eiQMekVbjSn1MaifAxzPw-oM-SM_hnBsetajaJ3-jpJz3BnMrgT-C9kVAacDIakMHyreIbbNoaZjJUf6JKTIo7zJkj3Qmiw2UjcOg9D5AjIIUIqdLsOMPQxOWgwWtvGJM0fPeh7S0_51LNbGLHvKbGTLPKLLvPp18-3oj8VWg2XZq7wnkxFxwaMxFI8QjtUUNF9h3YSYVe1Js3cQ1kIfy-Jul8UKY2ImzypfDTSiVFxK-OHlC1f4tDYzHVsGy4y7d-q0t2qtL0fkc3kVlfpE35xljVQfXXUJ12BeowbZwzGXTuNHPDwYoukZrXkd1rKtWk3V8iAXk02kl8EvuNy0]--></g></svg>