<svg xmlns="http://www.w3.org/2000/svg" xmlns:xlink="http://www.w3.org/1999/xlink" contentStyleType="text/css" data-diagram-type="MINDMAP" height="122px" preserveAspectRatio="none" style="width:751px;height:122px;" version="1.1" viewBox="0 0 751 122" width="751px" zoomAndPan="magnify"><defs/><g><polygon fill="#4051B5" points="255.1909,42.6992,255.1909,42.9094,265.1124,42.2849,275.034,42.8925,284.9555,43.0989,294.877,41.9858,304.7985,42.6215,314.7201,42.2727,324.6416,42.3157,334.5631,42.6311,344.4847,42.0078,354.4062,43.2529,364.3277,42.0689,374.2492,42.5015,384.1708,43.1312,394.0923,42.6134,404.0138,42.7675,413.9353,42.6673,423.8569,42.8777,433.7784,42.9384,443.6999,43.2849,453.6214,43.3703,463.543,42.6992,463.6296,42.9084,464.1411,43.0119,464.7335,43.3106,465.3296,43.6184,465.7137,43.4144,466.3714,43.8708,466.5803,43.9573,466.5144,44.3987,467.0044,45.0703,466.9219,45.5047,467.2876,46.1248,467.543,46.6992,467.7902,46.6992,467.5267,52.1258,467.5781,57.5523,467.6558,62.9789,467.6817,68.4055,467.543,73.832,467.5418,73.8315,467.3971,74.4344,466.8981,74.8904,466.9276,75.5654,466.7745,76.1647,466.3714,76.6605,466.4281,76.7974,465.8839,77.0836,465.1784,76.9803,464.5911,77.1626,464.0294,77.4064,463.543,77.832,463.543,77.7732,453.6214,77.6355,443.6999,78.5134,433.7784,77.6574,423.8569,77.489,413.9353,78.0603,404.0138,77.1652,394.0923,77.3129,384.1708,78.481,374.2492,78.2677,364.3277,78.5665,354.4062,77.5102,344.4847,78.1512,334.5631,78.4225,324.6416,77.3596,314.7201,77.7362,304.7985,77.958,294.877,78.4838,284.9555,77.8278,275.034,78.2946,265.1124,77.2782,255.1909,77.832,255.1045,77.6235,254.6895,77.7528,253.9681,77.1426,253.5588,77.2858,252.9545,76.9584,252.3625,76.6605,252.28,76.6263,252.0192,76.0496,252.0351,75.5876,251.5674,74.9252,251.6075,74.4732,251.1909,73.832,251.0067,73.832,251.3967,68.4055,251.3524,62.9789,251.2726,57.5523,251.2067,52.1258,251.1909,46.6992,251.4147,46.7919,251.6142,46.2118,251.7117,45.5894,251.9765,45.0364,252.0881,44.4199,252.3625,43.8708,252.4539,44.0914,252.9479,43.6842,253.5159,43.4553,253.9819,42.9805,254.5735,42.8087,255.1909,42.6992" style="stroke:#FF6F00;stroke-width:1.5;"/><a href="/use-case/client-360/know-your-customer/anti-money-laundering/" target="_top" title="/use-case/client-360/know-your-customer/anti-money-laundering/" xlink:actuate="onRequest" xlink:href="/use-case/client-360/know-your-customer/anti-money-laundering/" xlink:show="new" xlink:title="/use-case/client-360/know-your-customer/anti-money-laundering/" xlink:type="simple"><text fill="#4051B5" font-family="'Roboto'" font-size="13" lengthAdjust="spacing" textLength="192.2197" x="261.1909" y="64.7661">Anti Money Laundering (AML)</text></a><a href="/use-case/client-360/know-your-customer/anti-money-laundering/correspondent-based-aml/" target="_top" title="/use-case/client-360/know-your-customer/anti-money-laundering/correspondent-based-aml/" xlink:actuate="onRequest" xlink:href="/use-case/client-360/know-your-customer/anti-money-laundering/correspondent-based-aml/" xlink:show="new" xlink:title="/use-case/client-360/know-your-customer/anti-money-laundering/correspondent-based-aml/" xlink:type="simple"><text fill="#4051B5" font-family="'Roboto'" font-size="13" lengthAdjust="spacing" textLength="171.939" x="524.543" y="27.0669">Correspondent-based AML</text></a><path d="M467.543,60.2656 L467.543,60.4525 L469.543,59.8973 L471.543,60.4374 L473.543,60.6209 L475.543,59.6315 L477.543,60.2656 L477.543,60.2656 L477.5239,60.2368 L479.2197,58.9294 L481.0114,57.7673 L482.87,56.7061 L484.4985,55.2969 L486.4492,54.3751 L486.6719,54.4798 L487.4145,51.6641 L488.8072,49.1541 L490.2792,46.6814 L491.2897,43.9916 L492.543,41.416 L492.5704,41.4289 L493.7489,38.8182 L495.0523,36.2661 L496.2954,33.6858 L497.6535,31.1595 L498.6367,28.4569 L498.8012,28.7057 L500.5845,27.5306 L502.2616,26.1951 L504.0941,25.0945 L505.9339,24.0048 L507.543,22.5664 L507.543,21.9254 L509.543,23.1695 L511.543,22.3028 L513.543,23.0409 L515.543,22.1264 L517.543,22.5664" fill="none" style="stroke:#FF6F00;stroke-width:1;"/><a href="/use-case/client-360/know-your-customer/anti-money-laundering/network-based-aml/" target="_top" title="/use-case/client-360/know-your-customer/anti-money-laundering/network-based-aml/" xlink:actuate="onRequest" xlink:href="/use-case/client-360/know-your-customer/anti-money-laundering/network-based-aml/" xlink:show="new" xlink:title="/use-case/client-360/know-your-customer/anti-money-laundering/network-based-aml/" xlink:type="simple"><text fill="#4051B5" font-family="'Roboto'" font-size="13" lengthAdjust="spacing" textLength="129.6953" x="524.543" y="52.1997">Network-based AML</text></a><path d="M467.543,60.2656 L467.543,60.4525 L469.543,59.8973 L471.543,60.4374 L473.543,60.6209 L475.543,59.6315 L477.543,60.2656 L477.543,60.2656 L477.5296,60.2338 L480.4697,58.8342 L483.4771,57.5951 L486.5313,56.4678 L489.4243,54.9556 L492.543,53.9824 L492.638,54.2094 L495.4347,52.4674 L498.509,51.3881 L501.6171,50.3896 L504.5282,48.9207 L507.543,47.6992 L507.543,47.7599 L509.543,47.6708 L511.543,47.8579 L513.543,47.9118 L515.543,48.2198 L517.543,47.6992" fill="none" style="stroke:#FF6F00;stroke-width:1;"/><a href="/use-case/client-360/know-your-customer/anti-money-laundering/transaction-based-aml/" target="_top" title="/use-case/client-360/know-your-customer/anti-money-laundering/transaction-based-aml/" xlink:actuate="onRequest" xlink:href="/use-case/client-360/know-your-customer/anti-money-laundering/transaction-based-aml/" xlink:show="new" xlink:title="/use-case/client-360/know-your-customer/anti-money-laundering/transaction-based-aml/" xlink:type="simple"><text fill="#4051B5" font-family="'Roboto'" font-size="13" lengthAdjust="spacing" textLength="206.7559" x="524.543" y="77.3325">Transaction/Finance-based AML</text></a><path d="M467.543,60.2656 L467.543,60.4525 L469.543,59.8973 L471.543,60.4374 L473.543,60.6209 L475.543,59.6315 L477.543,60.2656 L477.543,60.2656 L477.5296,60.2338 L480.4697,61.3474 L483.4771,62.6217 L486.5313,64.0076 L489.4243,65.0088 L492.543,66.5488 L492.638,66.7758 L495.4347,67.5471 L498.509,68.981 L501.6171,70.4958 L504.5282,71.5402 L507.543,72.832 L507.543,72.8927 L509.543,72.8036 L511.543,72.9907 L513.543,73.0446 L515.543,73.3526 L517.543,72.832" fill="none" style="stroke:#FF6F00;stroke-width:1;"/><text fill="#FFFFFF" font-family="'Roboto'" font-size="13" lengthAdjust="spacing" textLength="106.8945" x="524.543" y="102.4653">...many others...</text><path d="M467.543,60.2656 L467.543,60.4525 L469.543,59.8973 L471.543,60.4374 L473.543,60.6209 L475.543,59.6315 L477.543,60.2656 L477.543,60.2656 L477.5239,60.2368 L479.2197,61.2856 L481.0114,62.4797 L482.87,63.7747 L484.4985,64.7217 L486.4492,66.1561 L486.6719,66.2608 L487.4145,68.6287 L488.8072,71.3024 L490.2792,74.0133 L491.2897,76.5072 L492.543,79.1152 L492.5704,79.1281 L493.7489,81.701 L495.0523,84.3326 L496.2954,86.9359 L497.6535,89.5933 L498.6367,92.0743 L498.8012,92.3231 L500.5845,93.5042 L502.2616,94.5249 L504.0941,95.7805 L505.9339,97.0471 L507.543,97.9648 L507.543,97.3238 L509.543,98.568 L511.543,97.7013 L513.543,98.4393 L515.543,97.5248 L517.543,97.9648" fill="none" style="stroke:#FF6F00;stroke-width:1;"/><a href="/use-case/client-360/know-your-customer/" target="_top" title="/use-case/client-360/know-your-customer/" xlink:actuate="onRequest" xlink:href="/use-case/client-360/know-your-customer/" xlink:show="new" xlink:title="/use-case/client-360/know-your-customer/" xlink:type="simple"><text fill="#4051B5" font-family="'Roboto'" font-size="13" lengthAdjust="spacing" textLength="176.0586" x="14" y="64.7661">Know Your Customer (KYC)</text></a><path d="M251.1909,60.2656 L251.1909,60.4525 L249.1909,59.8973 L247.1909,60.4374 L245.1909,60.6209 L243.1909,59.6315 L241.1909,60.2656 L241.1909,60.2656 L241.1909,60.2311 L235.1909,60.0761 L229.1909,60.0952 L223.1909,60.2353 L217.1909,59.9583 L211.1909,60.2656 L211.1909,60.7578 L209.1909,59.7054 L207.1909,60.0898 L205.1909,60.6496 L203.1909,60.1894 L201.1909,60.2656" fill="none" style="stroke:#FF6F00;stroke-width:1;"/><!--SRC=[xLhRRjiu47tNLyms3qtGEhRJj2YAeeZZNDh6YGCxwQ8eYe2Mw9YmHBea5QztiV- -8rcoAScIBv6xAL0_DUJmp9aXHSuPz4Xf8hN7kEEHaMNzuT0-unIEp-yk6v-kxfhjLhi3uM_diFQwtdjjcdHFc-shaqRdQsItmEIwqRned9_EW38cxSx9QSVq0plz_fj-hJOpEMjVtIGCGfFWDpDfT3hjFvCsCOgbXeoFY2GUz8Wzl9V2vqvJk4B2ZfQ4AvoZN1jc7oSZAbt6Xv5LnDXw3epRhkzGq0CAzvHJILoOhLFGH-kUq8ENuBBxWGR27N287E9ABK0yK3cMJ5COCpsOOh07oa5HhHc_L-cSt7pyrBouEkrseOuR8qQQ2Gu310rGD2xi4rTHW_WrSHm4WaDZh3CDLo9PU6kCTmV44UF0Eeqo2_-ME-4_Q6HYs9pGFl5T3VzOPuBhA-9HUDOH6Bju5evCCpVVk72mo_wcK3-q_ZMH6bAACU8iNB4OHazSp95mdIJI27UNtDE8KsRfSMhp4oVSEXOIWurcZ2E9BkOUk73MWKyS_TKysC8R2Ox74TriI7WXksdEVCyzIERC8PhqYA8bkqlui5tXErjr85oNsi7NeKftC_VIH0Cft2rwE0uWYPniqSKfrqnlqm7Zcie-iUaMVNJf3vzocrxZmyLiDY9SJy5k1imUSgeKNfXpSnMP8oDpHI6v3FG2deRD_5hYGdh4JSzbmccnFctXpPeBFZCef1bUdXdmS3GNEPnTI2gScUVmbTMmjP1B68GckRw2sRmF-3aq3o786Zv2-CVEqf_vpKlyu0c_T-dxz_XQAS4_VC3zxUBXeqBZ0vRxUfJrBgHFNFhDJbvH1btw5vBanBqhdtUg7Di2UJLHcdg_NgxBvxsbNCSFyg-HwZdRNo_JnZ7fHG_lb7MgC4v64TQmjUNLtaQn5mSsVM0SeWRKMINMXQ7Qw9ZWko9NZHNhzUAZj8L8YxTmRHaI2xXvJA-cxqyR5PbaMDCx4KuWu28f71Rx2YhW-Ke7TJa5qiTGOvyfMM1uYwHfhiOnj6eUIREKc2SZLRkZSDVBowp5BxtMalLyJVFhW2pN0W6JgFQ9KfknAdBm72wZVL4ZQhC-ip7-i7J0BHeF0bMjyGx2-bC56nfktalekJx5lUES1eM80k7hO3ehwKfcEySdoPeAXRpr0hvzWwglQCN6gxDgkmprNkNLcrfroCMuCX6-hDXuwF38oIeMaApYeIISL5pY1u8SGwv20uVXCXY6rcmOTXkNhJtu_jrwyUBkyKvi8ILLA4UTO6bmpJiLuhbLL4AP2K3FfJdcL8-579ekhyoXKfs5BI0IgaVJuSryk7h6E47za7M-lx_l4Ju1eGTOo-5VLgMo5YMum37uYcFGZCPWz-9hCzp48ue7FkxB7INRTEKrjPvm-oY-ILVi7Pdc2m3Mw1h5wzAtGfmqyzEFsuo5VQB70XQrXOemiWmsQ0Ijvs2brizZ80kRFUi2hzBUsHopeA6pEMXk2sTpoAAcpUQeMsdJn7Ho6ZGnixLxCt40YnepCMXUJoRcPDHDCLoc5HDZfRem2VkbBPYPmtJpPOQUxBiO7z96BPJyctMTqvBT_CUsI7ushoNQzdzBqrFWjNBZuYUpUL99AhNd4FDOCvfSreNzXVes6mfbHvBAVraDWuqL_uBtiZIrRoAbtfAio4yyCuiobov1Ln3s-GIMGkQ8xqSW_fRRl-Ls6NBxsaNwj-Zw0Jq5_-sYldzGEtYzNw_tg2Rrskuj3_1vgCmOVhwQUNJFsZs_Re52V2nZ7QQctnyktxC-amS27Py7Tk-WFQByyyb5F80r_GEJWdk1PF_yvN9kyEQmSimqbj8IYS2NIok-m4wvBGAn_WvkRyugRwqMNiS-wjXtG3dUEeWh9pZN_Gy0]--></g></svg>