<svg xmlns="http://www.w3.org/2000/svg" xmlns:xlink="http://www.w3.org/1999/xlink" contentStyleType="text/css" data-diagram-type="MINDMAP" height="102px" preserveAspectRatio="none" style="width:164px;height:102px;" version="1.1" viewBox="0 0 164 102" width="164px" zoomAndPan="magnify"><defs/><g><polygon fill="#4051B5" points="75,35,75,35.0701,77.4,34.8619,79.8,35.0644,82.2,35.1332,84.6,34.7622,87,35,86.9901,34.9761,87.5113,35.103,88.0825,35.3505,88.6884,35.682,89.1745,35.7243,89.8284,36.1716,89.9989,36.2422,89.8686,36.6569,90.2362,37.2777,90.6644,37.9237,90.7393,38.4234,91,39,91.0227,39,90.9894,43.4,91.0595,47.8,91.0797,52.2,91.1952,56.6,91,61,91.2067,61.0856,90.9749,61.6523,90.6098,62.1639,90.4398,62.7562,90.279,63.3523,89.8284,63.8284,89.7364,63.6063,89.3493,64.2717,88.6592,64.2057,88.1995,64.6958,87.5025,64.6132,87,65,87,64.9772,84.6,65.2472,82.2,64.9838,79.8,65.0351,77.4,65.1129,75,65,75.0531,65.1282,74.4338,64.7645,73.9053,64.6198,73.2299,64.1208,72.7735,64.1503,72.1716,63.8284,72.3404,63.8984,72.0742,63.3194,71.8917,62.7753,71.3199,62.0697,71.0335,61.4825,71,61,70.7929,61,70.9804,56.6,70.9345,52.2,71.2271,47.8,70.9418,43.4,71,39,70.8944,38.9562,71.3046,38.4634,71.2633,37.7836,71.5431,37.2367,72.1371,36.82,72.1716,36.1716,72.2271,36.3057,72.831,36.1635,73.2619,35.6038,73.9093,35.5669,74.5096,35.4161,75,35" style="stroke:#FF6F00;stroke-width:1.5;"/><a href="/use-case/client-360/know-your-customer/anti-money-laundering/" target="_top" title="/use-case/client-360/know-your-customer/anti-money-laundering/" xlink:actuate="onRequest" xlink:href="/use-case/client-360/know-your-customer/anti-money-laundering/" xlink:show="new" xlink:title="/use-case/client-360/know-your-customer/anti-money-laundering/" xlink:type="simple"><text fill="#90EE90" font-family="'Roboto'" font-size="14" lengthAdjust="spacing" textLength="0" x="81" y="45">Anti Money Laundering (AML)</text></a><a href="/use-case/client-360/know-your-customer/anti-money-laundering/correspondent-based-aml/" target="_top" title="/use-case/client-360/know-your-customer/anti-money-laundering/correspondent-based-aml/" xlink:actuate="onRequest" xlink:href="/use-case/client-360/know-your-customer/anti-money-laundering/correspondent-based-aml/" xlink:show="new" xlink:title="/use-case/client-360/know-your-customer/anti-money-laundering/correspondent-based-aml/" xlink:type="simple"><text fill="#90EE90" font-family="'Roboto'" font-size="14" lengthAdjust="spacing" textLength="0" x="148" y="15">Correspondent-based AML</text></a><path d="M91,50 L91,50.1868 L93,49.6317 L95,50.1718 L97,50.3553 L99,49.3659 L101,50 L101,50 L100.9839,49.9694 L102.693,48.8948 L104.4831,47.9742 L106.3296,47.1607 L107.9819,45.9781 L109.9063,45.3125 L110.1181,45.4377 L110.8838,43.1075 L112.2681,41.1428 L113.7278,39.2227 L114.7484,37.0431 L116,35 L116.0261,35.0154 L117.2065,32.9303 L118.5058,30.9154 L119.7478,28.8666 L121.0991,26.8824 L122.0938,24.6875 L122.2327,24.9514 L124.0156,24.0171 L125.709,22.9126 L127.5335,22.0573 L129.3641,21.2137 L131,20 L131,19.3589 L133,20.6031 L135,19.7364 L137,20.4745 L139,19.56 L141,20" fill="none" style="stroke:#FF9900;stroke-width:1;"/><a href="/use-case/client-360/know-your-customer/anti-money-laundering/network-based-aml/" target="_top" title="/use-case/client-360/know-your-customer/anti-money-laundering/network-based-aml/" xlink:actuate="onRequest" xlink:href="/use-case/client-360/know-your-customer/anti-money-laundering/network-based-aml/" xlink:show="new" xlink:title="/use-case/client-360/know-your-customer/anti-money-laundering/network-based-aml/" xlink:type="simple"><text fill="#90EE90" font-family="'Roboto'" font-size="14" lengthAdjust="spacing" textLength="0" x="148" y="35">Network-based AML</text></a><path d="M91,50 L91,50.1868 L93,49.6317 L95,50.1718 L97,50.3553 L99,49.3659 L101,50 L101,50 L100.9891,49.9672 L103.9401,48.8202 L106.9461,47.8383 L109.9904,46.9713 L112.9028,45.7085 L116,45 L116.0778,45.2334 L118.9114,43.7343 L121.9722,42.9166 L125.0607,42.1821 L127.9879,40.9638 L131,40 L131,40.0607 L133,39.9716 L135,40.1587 L137,40.2126 L139,40.5206 L141,40" fill="none" style="stroke:#FF9900;stroke-width:1;"/><a href="/use-case/client-360/know-your-customer/anti-money-laundering/transaction-based-aml/" target="_top" title="/use-case/client-360/know-your-customer/anti-money-laundering/transaction-based-aml/" xlink:actuate="onRequest" xlink:href="/use-case/client-360/know-your-customer/anti-money-laundering/transaction-based-aml/" xlink:show="new" xlink:title="/use-case/client-360/know-your-customer/anti-money-laundering/transaction-based-aml/" xlink:type="simple"><text fill="#90EE90" font-family="'Roboto'" font-size="14" lengthAdjust="spacing" textLength="0" x="148" y="55">Transaction/Finance-based AML</text></a><path d="M91,50 L91,50.1868 L93,49.6317 L95,50.1718 L97,50.3553 L99,49.3659 L101,50 L101,50 L100.9891,49.9672 L103.9401,50.8202 L106.9461,51.8383 L109.9904,52.9713 L112.9028,53.7085 L116,55 L116.0778,55.2334 L118.9114,55.7343 L121.9722,56.9166 L125.0607,58.1821 L127.9879,58.9638 L131,60 L131,60.0607 L133,59.9716 L135,60.1587 L137,60.2126 L139,60.5206 L141,60" fill="none" style="stroke:#FF9900;stroke-width:1;"/><text fill="#FFFFFF" font-family="'Roboto'" font-size="14" lengthAdjust="spacing" textLength="0" x="148" y="75">...many others...</text><path d="M91,50 L91,50.1868 L93,49.6317 L95,50.1718 L97,50.3553 L99,49.3659 L101,50 L101,50 L100.9839,49.9694 L102.693,50.7698 L104.4831,51.7242 L106.3296,52.7857 L107.9819,53.4781 L109.9063,54.6875 L110.1181,54.8127 L110.8838,56.6075 L112.2681,58.7678 L113.7278,60.9727 L114.7484,62.9181 L116,65 L116.0261,65.0154 L117.2065,67.0553 L118.5058,69.1654 L119.7478,71.2416 L121.0991,73.3824 L122.0938,75.3125 L122.2327,75.5764 L124.0156,76.5171 L125.709,77.2876 L127.5335,78.3073 L129.3641,79.3387 L131,80 L131,79.3589 L133,80.6031 L135,79.7364 L137,80.4745 L139,79.56 L141,80" fill="none" style="stroke:#FF9900;stroke-width:1;"/><a href="/use-case/client-360/know-your-customer/" target="_top" title="/use-case/client-360/know-your-customer/" xlink:actuate="onRequest" xlink:href="/use-case/client-360/know-your-customer/" xlink:show="new" xlink:title="/use-case/client-360/know-your-customer/" xlink:type="simple"><text fill="#90EE90" font-family="'Roboto'" font-size="14" lengthAdjust="spacing" textLength="0" x="14" y="45">Know Your Customer (KYC)</text></a><path d="M71,50 L71,50.1868 L69,49.6317 L67,50.1718 L65,50.3553 L63,49.3659 L61,50 L61,50 L61,49.9655 L55,49.8104 L49,49.8296 L43,49.9697 L37,49.6927 L31,50 L31,50.4921 L29,49.4398 L27,49.8242 L25,50.384 L23,49.9238 L21,50" fill="none" style="stroke:#FF9900;stroke-width:1;"/><!--SRC=[xLbjRnev4Fw-lsAk-P14EGAaITH6LHL2Gjg4bmYIIb5LHMRNWCMkpTdUSDpf_llDBYoO1PQNiBtaL3urzlXvdfdroypqN6aYjSUuuv6UPVtcq1RZ52wkdog5hzMdOgrSgqFuspdEdUIR9wP9uwfOgruMweyZkpacTuNYRU7wQWmqOrAhNrxLJHxOQRLEMxdSsAHKgzvF6OGcmS-oL9Vn7f74WoQnksqfVEuKXIjaPAWbuGejADU6yPT1ZyeourtJ5dPSrkxejgIKMzOkC6wxlaD1ToYqAQUIk326KD32XKsXExz3k0m8Ty0XieihjG3nJ6LVCasXptHdYC6UAGT5jMQyhU8HkF_ojNXRlMeq88-VGVGq4nmw21gWQ5pO8gwYXWztn74G28wDiVhGVubYuOCntkWGH_G3wpXA60aN8_70dV0VT6HYs5pI5l5T3NzR9S5rbNWKtjK5-YxUXIF384u-KpZOO7zHo1zR_vX81Ib57t7chfWFemSknaYupZHI3pytQTEHffcb5x7TCBMVhGiXqTdHZB41aMB2m8Mp3lpKHb-DmHPUJt3ScKYpeU2vweOnypttQ3fc3j6aIHJTCjqKX-qAtqcLGBWkjOFJeRPECs4fee4KReeC5m4aaOCKAQwuPZfD0iOrbIrYqnGv6lGFdtARtk4pnMpM8rmFmUuxpEvogXHUc1DpDJ97HUQAH74pq7Dq6ZQJQuaBwH4tFZVZJfcrA3usT27us21HPdXvpe27emkHmzcveiAPIGpVMmLR2xb4GMYoa2kONNI0Tw5u347Ky172FtQM_impB_704zvswQTF-5efmJz_nk_RmCr7XSO7RE7hiQrt8RxZuc_sz1LboAL_eaXEtAVjwuubNoc8LmEbgVVsOhrztId5EdgGtqQe9shVNgIDRT8SFRn3rR74UDgBC8VDBS_sDl8zsR7X0-CGrQ7EAhxETTL6OeBlYbpLLypNaxTI2fucVqBpQTT4pyiqef9oGXwLXmMj9MlwcivEcQAYWZEMo1AbKcRRXSgmy0RLepPhCHkT73wHCtN8wZgMkaOcYSHEgVJn8yx79itSoh8EuFjtoFgAPcmy_bdRPLYpPDwVvh9TBlgPWV1bnlQL5XwLMKo2MCR3icQGSOaV59NeJXOAE0oLO1ZAus7OArJA-_3ZXtLmyFHo4bj8IHMML4wmDBYgd0pnt2ncypCJWCnR8-PKzuNicfHLSsYhP657WuGLa4buFndEbXWdc0FFaXyU7dg43q3e3kOZ-9ULoQmb2Mvn31vn38gZCTYxVIo67_6SucQEEaddqusb53irhxWd4Xt95HiYflaSW3LQ8UExOC6jCV-EI6X-l1GmgTUHX36hO8Fknde4A_KpNWAPsC5O5tYLdiNcc0bTYir15_ObDeTCwaHiZffAxo6Iiw3h42bRk-4GEJ2lsn21BceqH9gC5iCugudt5oAiM6jXodvfNs5C6EyeZD6dcmd6GTgeBx3uPbrdjyn-_9VM_JzRrvA2xJyBqslGjN8r_fFLlAeWRRMGZdIiwSr2rOb5SpxDAddRdiJY_x-kWd-LkhzAtJTTwjwvAFy1gP-HAVXl-_pXKUxev32VRr9Dyhcz1nxWyx08OdX3QURHVMll-guC2l4nOtIO6XuRNBvltP1d0dMV1tPdKEjHVdDv6mrW-lpCfE1UK2ZVVAjC34wFCnTCOzOgKGXygrXHaNh5RH7KnMVmS5_AVB3AUFFvM3AU0TRFHJneMWvmhl4l]--></g></svg>