<svg xmlns="http://www.w3.org/2000/svg" xmlns:xlink="http://www.w3.org/1999/xlink" contentStyleType="text/css" data-diagram-type="MINDMAP" height="127px" preserveAspectRatio="none" style="width:796px;height:127px;background:#2E303E;" version="1.1" viewBox="0 0 796 127" width="796px" zoomAndPan="magnify"><defs/><g><rect fill="#2E303E" height="127" style="stroke:none;stroke-width:1;" width="796" x="0" y="0"/><polygon fill="#7A209F" points="269.0518,44.4453,269.0518,44.6555,279.2089,44.031,289.3659,44.6386,299.523,44.845,309.6801,43.7319,319.8372,44.3676,329.9943,44.0188,340.1514,44.0618,350.3085,44.3772,360.4656,43.7539,370.6227,44.999,380.7798,43.815,390.9369,44.2475,401.094,44.8773,411.2511,44.3595,421.4082,44.5136,431.5653,44.4134,441.7223,44.6238,451.8794,44.6844,462.0365,45.031,472.1936,45.1164,482.3507,45.1246,492.5078,44.4453,492.5403,44.5237,493.1326,44.8224,493.7288,45.1302,494.1129,44.9262,494.8571,45.5915,495.3362,45.6169,495.2449,45.5791,495.7349,46.2507,495.6524,46.6851,496.0181,47.3052,496.5019,47.9742,496.5078,48.4453,496.4916,48.4453,496.5429,54.1047,496.6207,59.7641,496.6466,65.4234,496.5065,71.0828,496.5078,76.7422,496.5963,76.7788,496.0972,77.2349,496.1268,77.9098,495.9737,78.5092,495.7075,79.0616,495.3362,79.5706,495.4144,79.7594,494.7089,79.6562,494.1217,79.8384,493.5599,80.0822,493.066,80.4897,492.5078,80.7422,492.5078,80.5457,482.3507,81.4236,472.1936,80.5675,462.0365,80.3991,451.8794,80.9705,441.7223,80.0753,431.5653,80.2231,421.4082,81.3911,411.2511,81.1779,401.094,81.4767,390.9369,80.4204,380.7798,81.0614,370.6227,81.3326,360.4656,80.2698,350.3085,80.6463,340.1514,80.8682,329.9943,81.3939,319.8372,80.738,309.6801,81.2048,299.523,80.1884,289.3659,80.0649,279.2089,81.2458,269.0518,80.7422,268.9603,80.5214,268.551,80.6646,267.9467,80.3372,267.3205,79.9567,266.7439,79.696,266.2233,79.5706,266.3646,79.6291,265.8968,78.9667,265.937,78.5147,265.3502,77.803,265.4762,77.3866,265.0518,76.7422,265.2132,76.7422,265.1334,71.0828,265.0675,65.4234,265.294,59.7641,265.2563,54.1047,265.0518,48.4453,265.1039,48.4669,265.3687,47.9138,265.4803,47.2973,265.9753,46.8396,266.0367,46.2023,266.2233,45.6169,266.2453,45.67,266.7114,45.1952,267.303,45.0235,267.9881,45.0774,268.5409,44.812,269.0518,44.4453" style="stroke:#EEEEEE;stroke-width:1.5;"/><a href="/use-case/client-360/know-your-customer/anti-money-laundering/" target="_top" title="/use-case/client-360/know-your-customer/anti-money-laundering/" xlink:actuate="onRequest" xlink:href="/use-case/client-360/know-your-customer/anti-money-laundering/" xlink:show="new" xlink:title="/use-case/client-360/know-your-customer/anti-money-laundering/" xlink:type="simple"><text fill="#90EE90" font-family="'Roboto'" font-size="14" lengthAdjust="spacing" textLength="207.0059" x="275.0518" y="67.4404">Anti Money Laundering (AML)</text></a><a href="/use-case/client-360/know-your-customer/anti-money-laundering/correspondent-based-aml/" target="_top" title="/use-case/client-360/know-your-customer/anti-money-laundering/correspondent-based-aml/" xlink:actuate="onRequest" xlink:href="/use-case/client-360/know-your-customer/anti-money-laundering/correspondent-based-aml/" xlink:show="new" xlink:title="/use-case/client-360/know-your-customer/anti-money-laundering/correspondent-based-aml/" xlink:type="simple"><text fill="#90EE90" font-family="'Roboto'" font-size="14" lengthAdjust="spacing" textLength="185.165" x="553.5078" y="27.9951">Correspondent-based AML</text></a><path d="M496.5078,62.5938 L496.5078,62.7806 L498.5078,62.2255 L500.5078,62.7656 L502.5078,62.949 L504.5078,61.9596 L506.5078,62.5938 L506.5078,62.5938 L506.4882,62.5653 L508.1812,61.2052 L509.9733,59.9883 L511.8343,58.8708 L513.458,57.4104 L515.4141,56.4304 L515.6385,56.5313 L516.3773,53.6037 L517.7714,50.9707 L519.2454,48.3735 L520.2543,45.5673 L521.5078,42.8711 L521.5355,42.8835 L522.7136,40.1534 L524.0177,37.4799 L525.261,34.7791 L526.6202,32.1303 L527.6016,29.3118 L527.7713,29.557 L529.5546,28.3273 L531.2285,26.9395 L533.0626,25.7832 L534.9042,24.6377 L536.5078,23.1484 L536.5078,22.5074 L538.5078,23.7516 L540.5078,22.8849 L542.5078,23.6229 L544.5078,22.7084 L546.5078,23.1484" fill="none" style="stroke:#FF9900;stroke-width:1;"/><a href="/use-case/client-360/know-your-customer/anti-money-laundering/network-based-aml/" target="_top" title="/use-case/client-360/know-your-customer/anti-money-laundering/network-based-aml/" xlink:actuate="onRequest" xlink:href="/use-case/client-360/know-your-customer/anti-money-laundering/network-based-aml/" xlink:show="new" xlink:title="/use-case/client-360/know-your-customer/anti-money-laundering/network-based-aml/" xlink:type="simple"><text fill="#90EE90" font-family="'Roboto'" font-size="14" lengthAdjust="spacing" textLength="139.6719" x="553.5078" y="54.292">Network-based AML</text></a><path d="M496.5078,62.5938 L496.5078,62.7806 L498.5078,62.2255 L500.5078,62.7656 L502.5078,62.949 L504.5078,61.9596 L506.5078,62.5938 L506.5078,62.5938 L506.4939,62.5621 L509.4317,61.1053 L512.4394,59.808 L515.4957,58.6215 L518.3845,57.0529 L521.5078,56.0195 L521.6066,56.2449 L524.3954,54.4481 L527.4725,53.3093 L530.5849,52.2508 L533.4925,50.7252 L536.5078,49.4453 L536.5078,49.506 L538.5078,49.4169 L540.5078,49.604 L542.5078,49.6579 L544.5078,49.9659 L546.5078,49.4453" fill="none" style="stroke:#FF9900;stroke-width:1;"/><a href="/use-case/client-360/know-your-customer/anti-money-laundering/transaction-based-aml/" target="_top" title="/use-case/client-360/know-your-customer/anti-money-laundering/transaction-based-aml/" xlink:actuate="onRequest" xlink:href="/use-case/client-360/know-your-customer/anti-money-laundering/transaction-based-aml/" xlink:show="new" xlink:title="/use-case/client-360/know-your-customer/anti-money-laundering/transaction-based-aml/" xlink:type="simple"><text fill="#90EE90" font-family="'Roboto'" font-size="14" lengthAdjust="spacing" textLength="222.6602" x="553.5078" y="80.5889">Transaction/Finance-based AML</text></a><path d="M496.5078,62.5938 L496.5078,62.7806 L498.5078,62.2255 L500.5078,62.7656 L502.5078,62.949 L504.5078,61.9596 L506.5078,62.5938 L506.5078,62.5938 L506.4939,62.5621 L509.4317,63.735 L512.4394,65.0673 L515.4957,66.5105 L518.3845,67.5717 L521.5078,69.168 L521.6066,69.3933 L524.3954,70.2262 L527.4725,71.7172 L530.5849,73.2883 L533.4925,74.3924 L536.5078,75.7422 L536.5078,75.8028 L538.5078,75.7138 L540.5078,75.9009 L542.5078,75.9548 L544.5078,76.2628 L546.5078,75.7422" fill="none" style="stroke:#FF9900;stroke-width:1;"/><text fill="#EEEEEE" font-family="'Roboto'" font-size="14" lengthAdjust="spacing" textLength="115.1172" x="553.5078" y="106.8857">...many others...</text><path d="M496.5078,62.5938 L496.5078,62.7806 L498.5078,62.2255 L500.5078,62.7656 L502.5078,62.949 L504.5078,61.9596 L506.5078,62.5938 L506.5078,62.5938 L506.4882,62.5653 L508.1812,63.6705 L509.9733,64.9189 L511.8343,66.2668 L513.458,67.2717 L515.4141,68.7571 L515.6385,68.8579 L516.3773,71.3541 L517.7714,74.1448 L519.2454,76.9714 L520.2543,79.5889 L521.5078,82.3164 L521.5355,82.3288 L522.7136,85.0225 L524.0177,87.7727 L525.261,90.4956 L526.6202,93.2706 L527.6016,95.8757 L527.7713,96.121 L529.5546,97.3566 L531.2285,98.4341 L533.0626,99.7432 L534.9042,101.063 L536.5078,102.0391 L536.5078,101.398 L538.5078,102.6422 L540.5078,101.7755 L542.5078,102.5136 L544.5078,101.599 L546.5078,102.0391" fill="none" style="stroke:#FF9900;stroke-width:1;"/><a href="/use-case/client-360/know-your-customer/" target="_top" title="/use-case/client-360/know-your-customer/" xlink:actuate="onRequest" xlink:href="/use-case/client-360/know-your-customer/" xlink:show="new" xlink:title="/use-case/client-360/know-your-customer/" xlink:type="simple"><text fill="#90EE90" font-family="'Roboto'" font-size="14" lengthAdjust="spacing" textLength="189.6016" x="14" y="67.4404">Know Your Customer (KYC)</text></a><path d="M265.0518,62.5938 L265.0518,62.7806 L263.0518,62.2255 L261.0518,62.7656 L259.0518,62.949 L257.0518,61.9596 L255.0518,62.5938 L255.0518,62.5938 L255.0518,62.5592 L249.0518,62.4042 L243.0518,62.4233 L237.0518,62.5635 L231.0518,62.2865 L225.0518,62.5938 L225.0518,63.0859 L223.0518,62.0335 L221.0518,62.418 L219.0518,62.9777 L217.0518,62.5175 L215.0518,62.5938" fill="none" style="stroke:#FF9900;stroke-width:1;"/><!--SRC=[xLbhR-8u5FsUN-4Tj9fMBUNLqeT6er8AdMafLD2EL8r6bKaCM2GswpXbsTN-zxq9X3W9X7TtAvLFO5-VStpzklToQKiif4MPOU61flrca0vb15tTlDoNljTVoerQeucyJofNAkREogf9gr9krAzBpUU9NQgOAvuMprIJXrBvhdHJcGAbJd4-Uzu9J1hDwqfJvK6fYlUPcbGRzSUGGM2YsNtA1bXW2xMntkyAxZ2Zp4qkV4CfCBF1WZ2vqFZtdcs-w6x3NhwGFqIvaqEKp-qhuxwD1aJKAEkhmr3AfDsUx0f2cAPzHfJffcCG97i4TGaZ0fje2c6Z3WniSzaxHDumX9c132pwC59on5-960eg2HfIsHjZq5V2a4safAnhHptt-Erx-QvUQRLG3fQF3oJb3FK0r4MHCB23JPieStZ0XW50w5XfQuvT8K0iEbFQMpriyA5h7KNnF6629vwOuNqX4nF5vffqi6DAzBTMvKpMiKNGfoQ7kVDFNilOYS7oUeqj-XT1kMFj7nMf90GV0ixC4RDXvCW47t7J22CDOELnbqmqnOPUHJP6w1neLrp0P2SzoiO5Ye21SMCL-D01MOv1vzQ0CzZHGBEcu9dgnZvpB3CVzfc19MvZcsoPBiIXczmnTah0JPFexkcmjquJi9J1G71pXmnNBYGMenrIL9YaSfS4b4aYEbWdE-HeaJySmdJo0CyRrUa0Cpa6U-nHlS-8RSE56PZR4tDGf8v851U3dg5JiGck9SQ5XSreNsmwDTeXyDYGkU1JWqIPtkKP0_TQvo9xlJD5UJs13mjQIPTSB53WcSpbSdld7U3Fg7oCNA_18mG_KWi_wfaNSE0nwvhaonTuhMpEldw5zMt1vYDSmWCsz_NOrhiGtN7HDpjyHIbooPyWac7pPVkw8q7R3iJR8riIw_tvUlkwT-Hh_q5-7wuErBu_JolRf3rvUCUg8u5nU1PU39jT7EsjDVVaYOqV60FRFM8iCzUPKzM16CEx8fQTAyJhoLjf1pDDNaBrQPTOpeeqKkU5yzEhl48-x47YfPMa5BJjI4LgAbl87f-GaAHKDdjwsYv6mrXiss_4XODtFLMjdfzdiz5EDTJHj0FqyoVAE3P9wt0QCxf98OL85uhPJ9_nONh47P7M7LjoYuWCn2GqRK6MCKgRs75pFDW06LI2PdJlDgFQj1djbUvh- -ZNB-tWu6Lp4fqBGMp8S0ntg7jp66bicHa8hcCT29YtHio877BHLodhQjDMoRp21FOI4fNmCMZEL2d349B6oO-EZYpCHeZB7eG7y4jBfrUIXEwW3Jr36ofFsj3UtNFPMyHBmenfGUWoN1_QRi4bbQyKieNAQWMM_t4fmozBBLd7KCrd0AnGmV37nQwTISqkT9TCR1Dh5dC19-MxHO199OeaKN45QnGbLYDOgWon2MHYuM5Lu6LA3UjZ9XGNrWUTMqvO7pAfWB0-wavA1hwSESK2NyVATG9_uAmYGQnlZYQbCk0FYPK5GXrn-kNA0LF2Q25W2XEk0IW7QQrqVlvwhx9Ruek_QRg-Wgx9NocRwLgGP_rdRjgUhlNTj7GI_IPUMZr9Vkkzj7d-wmSFAyvchkh4N3Uto-JMN-XjpIJY_u_azIDv_KXUDqzU7qoG_mJKhy3a_Y-UEyfdyoT7kLoRI7oozyHSUEPbAnIk4aajig_jtJpKa0tm4DePr1xlSHYzhztYLuoQ3dFjBb1ZGDZjzPtV077kAnMSMMxcU_lZFZ0e7gUlg8JmKe0EzEDUyxF92jEvcy1UeAV7QlfCgy4LvK1kTu4WqIt30PHY17sjVm40]--></g></svg>