<svg xmlns="http://www.w3.org/2000/svg" xmlns:xlink="http://www.w3.org/1999/xlink" contentStyleType="text/css" data-diagram-type="MINDMAP" height="328px" preserveAspectRatio="none" style="width:596px;height:328px;" version="1.1" viewBox="0 0 596 328" width="596px" zoomAndPan="magnify"><defs/><g><a href="/use-case/legal-entity-management/" target="_top" title="/use-case/legal-entity-management/" xlink:actuate="onRequest" xlink:href="/use-case/legal-entity-management/" xlink:show="new" xlink:title="/use-case/legal-entity-management/" xlink:type="simple"><text fill="#4051B5" font-family="'Roboto'" font-size="13" lengthAdjust="spacing" textLength="166.9243" x="17" y="167.731">Legal Entity Management</text></a><a href="/use-case/legal-entity-management/identification-and-registration/" target="_top" title="/use-case/legal-entity-management/identification-and-registration/" xlink:actuate="onRequest" xlink:href="/use-case/legal-entity-management/identification-and-registration/" xlink:show="new" xlink:title="/use-case/legal-entity-management/identification-and-registration/" xlink:type="simple"><text fill="#4051B5" font-family="'Roboto'" font-size="13" lengthAdjust="spacing" textLength="182.6157" x="249.0566" y="27.0669">Identification &amp; Registration</text></a><path d="M192.0566,163.2305 L192.0566,163.4173 L194.0566,162.8622 L196.0566,163.4023 L198.0566,163.5857 L200.0566,162.5963 L202.0566,163.2305 L202.0566,163.2305 L202.03,163.2085 L202.9064,161.9011 L203.9173,160.7044 L205.0215,159.5847 L205.8039,158.1997 L207.0371,157.1863 L207.276,157.2452 L207.5503,153.9324 L208.5221,150.7914 L209.579,147.6715 L210.1407,144.4295 L210.9629,141.2517 L210.9928,141.2564 L211.2843,139.1203 L211.7122,137.0057 L212.0742,134.8807 L212.5618,132.7755 L212.6401,130.6057 L212.9359,130.6442 L213.2486,128.2682 L213.3705,125.8674 L213.7717,123.503 L214.186,121.1402 L214.1855,118.7235 L213.867,118.6881 L215.0595,113.5918 L215.203,108.3789 L216.144,103.2547 L216.2638,98.0391 L217.0566,92.8984 L217.0264,92.8951 L217.9584,87.7698 L218.1836,82.566 L218.8258,77.4086 L219.5031,72.255 L219.9277,67.0734 L220.1112,67.0973 L220.2351,64.6967 L220.6725,62.337 L220.6027,59.9112 L221.2894,57.5839 L221.4731,55.1911 L221.7138,55.229 L222.0038,53.0927 L222.4132,50.9751 L222.2674,48.7701 L222.5286,46.6292 L223.1504,44.5452 L222.8822,44.4791 L223.9101,41.352 L224.6359,38.1504 L225.7999,35.0569 L226.2156,31.7789 L227.0762,28.6106 L226.9585,28.5136 L228.1506,27.4663 L228.8396,26.0044 L229.8864,24.8373 L231.2831,23.9587 L232.0566,22.5664 L232.0566,22.9537 L234.0566,23.2193 L236.0566,22.2804 L238.0566,22.8501 L240.0566,23.0912 L242.0566,22.5664" fill="none" style="stroke:#FF6F00;stroke-width:1;"/><a href="/use-case/legal-entity-management/corporate-governance/" target="_top" title="/use-case/legal-entity-management/corporate-governance/" xlink:actuate="onRequest" xlink:href="/use-case/legal-entity-management/corporate-governance/" xlink:show="new" xlink:title="/use-case/legal-entity-management/corporate-governance/" xlink:type="simple"><text fill="#4051B5" font-family="'Roboto'" font-size="13" lengthAdjust="spacing" textLength="147.7734" x="249.0566" y="52.1997">Corporate Governance</text></a><path d="M192.0566,163.2305 L192.0566,163.4173 L194.0566,162.8622 L196.0566,163.4023 L198.0566,163.5857 L200.0566,162.5963 L202.0566,163.2305 L202.0566,163.2305 L202.0323,163.206 L202.9189,162.1034 L203.9285,161.1241 L205.0235,160.2305 L205.8241,159.0415 L207.0371,158.2662 L207.2728,158.3369 L207.554,155.5682 L208.5232,153.006 L209.5765,150.4689 L210.1412,147.7853 L210.9629,145.1787 L210.9928,145.1839 L211.5934,141.4757 L212.3301,137.7911 L213.0012,134.0951 L213.7975,130.4209 L214.1855,126.6757 L214.4811,126.7157 L215.0589,122.474 L215.4461,118.2065 L216.1124,113.9768 L216.7917,109.7489 L217.0566,105.4648 L216.739,105.4218 L217.9297,101.2631 L218.0745,96.9628 L219.0144,92.7702 L219.1355,88.4667 L219.9277,84.254 L219.8977,84.2488 L220.897,80.61 L221.1955,76.8491 L221.9074,73.1602 L222.6541,69.4774 L223.1504,65.751 L223.3276,65.8041 L223.9339,63.133 L224.843,60.5526 L225.2622,57.8254 L226.4121,55.3173 L227.0762,52.6635 L227.2482,52.836 L228.2117,51.8105 L229.2607,50.8707 L229.9129,49.5328 L230.8559,48.4868 L232.0566,47.6992 L232.0566,47.1469 L234.0566,47.6469 L236.0566,47.5245 L238.0566,48.3049 L240.0566,47.5439 L242.0566,47.6992" fill="none" style="stroke:#FF6F00;stroke-width:1;"/><a href="/use-case/legal-entity-management/ownership-and-capital-structure/" target="_top" title="/use-case/legal-entity-management/ownership-and-capital-structure/" xlink:actuate="onRequest" xlink:href="/use-case/legal-entity-management/ownership-and-capital-structure/" xlink:show="new" xlink:title="/use-case/legal-entity-management/ownership-and-capital-structure/" xlink:type="simple"><text fill="#4051B5" font-family="'Roboto'" font-size="13" lengthAdjust="spacing" textLength="198.1992" x="249.0566" y="77.3325">Ownership &amp; Capital Structure</text></a><path d="M192.0566,163.2305 L192.0566,163.4173 L194.0566,162.8622 L196.0566,163.4023 L198.0566,163.5857 L200.0566,162.5963 L202.0566,163.2305 L202.0566,163.2305 L202.0274,163.212 L203.6776,160.3044 L205.475,157.4897 L207.3748,154.7395 L208.9217,151.7668 L210.9629,149.1057 L211.2031,149.1592 L211.334,146.1493 L212.1662,143.2955 L213.0839,140.4607 L213.5038,137.5151 L214.1855,134.6278 L214.2154,134.633 L214.7458,131.3061 L215.4122,128.0027 L216.0129,124.688 L216.7389,121.3949 L217.0566,118.0313 L217.3505,118.0821 L217.9283,114.7634 L218.3166,111.4119 L218.9823,108.1084 L219.6611,104.8072 L219.9277,101.4347 L219.6149,101.365 L220.8666,98.6046 L221.0882,95.6149 L222.0929,92.7995 L222.2911,89.8046 L223.1504,86.9568 L223.1246,86.9405 L225.2104,84.3076 L226.6946,81.2953 L228.5337,78.5069 L230.4027,75.7373 L232.0566,72.832 L232.0566,73.202 L234.0566,72.8286 L236.0566,73.0873 L238.0566,72.3232 L240.0566,73.0848 L242.0566,72.832" fill="none" style="stroke:#FF6F00;stroke-width:1;"/><a href="/use-case/legal-entity-management/financial-information/" target="_top" title="/use-case/legal-entity-management/financial-information/" xlink:actuate="onRequest" xlink:href="/use-case/legal-entity-management/financial-information/" xlink:show="new" xlink:title="/use-case/legal-entity-management/financial-information/" xlink:type="simple"><text fill="#4051B5" font-family="'Roboto'" font-size="13" lengthAdjust="spacing" textLength="137.4839" x="249.0566" y="167.731">Financial Information</text></a><polygon fill="#4051B5" points="448.6729,95.3984,448.6729,95.6086,458.4128,94.9841,468.1527,95.5917,477.8926,95.7981,487.6325,94.685,497.3724,95.3207,507.1123,95.3984,507.0579,95.2671,507.6291,95.5146,508.235,95.8461,508.7212,95.8885,509.4457,96.5062,509.9407,96.57,509.7466,96.4896,510.1141,97.1105,510.5424,97.7565,510.6173,98.2561,510.899,98.8415,511.1123,99.3984,511.1017,99.3984,511.1718,104.825,511.192,110.2516,511.3075,115.6781,511.336,121.1047,511.1123,126.5313,511.3215,126.6179,510.9564,127.1294,510.7864,127.7218,510.6256,128.3179,509.953,128.702,509.9407,129.3597,510.0273,129.5686,509.3372,129.5027,508.8775,129.9927,508.1805,129.9102,507.6693,130.2758,507.1123,130.5313,507.1123,131.2729,497.3724,130.4825,487.6325,130.6366,477.8926,130.8699,468.1527,130.9475,458.4128,130.5273,448.6729,130.5313,448.7095,130.6197,448.0341,130.1207,447.5778,130.1502,447.0457,129.9971,446.4668,129.7309,445.8444,129.3597,446.0332,129.4379,445.4613,128.7324,445.1749,128.1451,444.9501,127.5834,444.889,127.0894,444.6729,126.5313,444.6073,126.5313,444.9,121.1047,444.6146,115.6781,444.5585,110.2516,444.7489,104.825,444.6729,99.3984,444.4675,99.3134,444.7473,98.7665,445.3413,98.3498,445.51,97.757,445.8363,97.2294,445.8444,96.57,445.8034,96.4709,446.4508,96.434,447.0511,96.2832,447.4812,95.7216,448.0949,95.6032,448.6729,95.3984" style="stroke:#FF6F00;stroke-width:1.5;"/><a href="/use-case/legal-entity-management/financial-information/assets/" target="_top" title="/use-case/legal-entity-management/financial-information/assets/" xlink:actuate="onRequest" xlink:href="/use-case/legal-entity-management/financial-information/assets/" xlink:show="new" xlink:title="/use-case/legal-entity-management/financial-information/assets/" xlink:type="simple"><text fill="#4051B5" font-family="'Roboto'" font-size="13" lengthAdjust="spacing" textLength="42.3071" x="454.6729" y="117.4653">Assets</text></a><path d="M394.6729,163.2305 L394.6729,163.4173 L396.6729,162.8622 L398.6729,163.4023 L400.6729,163.5857 L402.6729,162.5963 L404.6729,163.2305 L404.6729,163.2305 L404.65,163.2046 L406.3287,161.5175 L408.1226,159.961 L409.9966,158.4953 L411.5946,156.7168 L413.5791,155.3765 L413.8112,155.4583 L414.5337,151.8275 L415.9337,148.4357 L417.4164,145.073 L418.4181,141.5407 L419.6729,138.0977 L419.7015,138.1077 L420.8782,134.6372 L422.1852,131.2125 L423.4293,127.7657 L424.7933,124.3612 L425.7666,120.8188 L425.9639,121.0425 L427.7475,119.4745 L429.404,117.7621 L431.2466,116.261 L433.098,114.7697 L434.6729,112.9648 L434.6729,112.3238 L436.6729,113.568 L438.6729,112.7013 L440.6729,113.4393 L442.6729,112.5248 L444.6729,112.9648" fill="none" style="stroke:#FF6F00;stroke-width:1;"/><a href="/use-case/legal-entity-management/financial-information/fundamentals/" target="_top" title="/use-case/legal-entity-management/financial-information/fundamentals/" xlink:actuate="onRequest" xlink:href="/use-case/legal-entity-management/financial-information/fundamentals/" xlink:show="new" xlink:title="/use-case/legal-entity-management/financial-information/fundamentals/" xlink:type="simple"><text fill="#4051B5" font-family="'Roboto'" font-size="13" lengthAdjust="spacing" textLength="92.5234" x="451.6729" y="157.5981">Fundamentals</text></a><path d="M394.6729,163.2305 L394.6729,163.4173 L396.6729,162.8622 L398.6729,163.4023 L400.6729,163.5857 L402.6729,162.5963 L404.6729,163.2305 L404.6729,163.2305 L404.6618,163.1977 L407.6122,162.0376 L410.6183,161.0424 L413.6632,160.1619 L416.5745,158.8862 L419.6729,158.1641 L419.7516,158.3972 L422.5832,156.8854 L425.6447,156.0542 L428.7343,155.3061 L431.6607,154.0748 L434.6729,153.0977 L434.6729,153.1583 L436.6729,153.0693 L438.6729,153.2563 L440.6729,153.3102 L442.6729,153.6183 L444.6729,153.0977" fill="none" style="stroke:#FF6F00;stroke-width:1;"/><a href="/use-case/legal-entity-management/financial-information/earnings-estimates/" target="_top" title="/use-case/legal-entity-management/financial-information/earnings-estimates/" xlink:actuate="onRequest" xlink:href="/use-case/legal-entity-management/financial-information/earnings-estimates/" xlink:show="new" xlink:title="/use-case/legal-entity-management/financial-information/earnings-estimates/" xlink:type="simple"><text fill="#4051B5" font-family="'Roboto'" font-size="13" lengthAdjust="spacing" textLength="124.9663" x="451.6729" y="182.731">Earnings Estimates</text></a><path d="M394.6729,163.2305 L394.6729,163.4173 L396.6729,162.8622 L398.6729,163.4023 L400.6729,163.5857 L402.6729,162.5963 L404.6729,163.2305 L404.6729,163.2305 L404.6574,163.1996 L407.5881,164.5609 L410.5966,166.078 L413.6593,167.7034 L416.5354,168.9556 L419.6729,170.7305 L419.7829,170.9506 L422.5476,171.9799 L425.6335,173.6519 L428.7587,175.4022 L431.6558,176.6964 L434.6729,178.2305 L434.6729,178.2911 L436.6729,178.2021 L438.6729,178.3892 L440.6729,178.443 L442.6729,178.7511 L444.6729,178.2305" fill="none" style="stroke:#FF6F00;stroke-width:1;"/><a href="/use-case/legal-entity-management/financial-information/ratings/" target="_top" title="/use-case/legal-entity-management/financial-information/ratings/" xlink:actuate="onRequest" xlink:href="/use-case/legal-entity-management/financial-information/ratings/" xlink:show="new" xlink:title="/use-case/legal-entity-management/financial-information/ratings/" xlink:type="simple"><text fill="#4051B5" font-family="'Roboto'" font-size="13" lengthAdjust="spacing" textLength="48.9722" x="451.6729" y="207.8638">Ratings</text></a><path d="M394.6729,163.2305 L394.6729,163.4173 L396.6729,162.8622 L398.6729,163.4023 L400.6729,163.5857 L402.6729,162.5963 L404.6729,163.2305 L404.6729,163.2305 L404.653,163.2022 L406.345,164.3296 L408.1372,165.5994 L409.9992,166.9682 L411.621,167.9958 L413.5791,169.5012 L413.8042,169.6006 L414.5416,172.1472 L415.9362,174.984 L417.411,177.8562 L418.4192,180.5223 L419.6729,183.2969 L419.7006,183.3091 L420.8786,186.0503 L422.1829,188.8472 L423.4263,191.6172 L424.786,194.4386 L425.7666,197.0925 L425.9383,197.3364 L427.7217,198.5935 L429.3943,199.6934 L431.229,201.0234 L433.0713,202.3643 L434.6729,203.3633 L434.6729,202.7222 L436.6729,203.9664 L438.6729,203.0997 L440.6729,203.8378 L442.6729,202.9233 L444.6729,203.3633" fill="none" style="stroke:#FF6F00;stroke-width:1;"/><a href="/use-case/legal-entity-management/financial-information/liability-terms/" target="_top" title="/use-case/legal-entity-management/financial-information/liability-terms/" xlink:actuate="onRequest" xlink:href="/use-case/legal-entity-management/financial-information/liability-terms/" xlink:show="new" xlink:title="/use-case/legal-entity-management/financial-information/liability-terms/" xlink:type="simple"><text fill="#4051B5" font-family="'Roboto'" font-size="13" lengthAdjust="spacing" textLength="95.5513" x="451.6729" y="232.9966">Liability Terms</text></a><path d="M394.6729,163.2305 L394.6729,163.4173 L396.6729,162.8622 L398.6729,163.4023 L400.6729,163.5857 L402.6729,162.5963 L404.6729,163.2305 L404.6729,163.2305 L404.6468,163.2077 L406.3113,165.1453 L408.107,167.1975 L409.9938,169.3292 L411.5664,171.1865 L413.5791,173.4282 L413.8142,173.5007 L413.9559,175.4362 L414.7842,177.5834 L415.6962,179.7564 L416.1208,181.7791 L416.8018,183.8809 L416.8313,183.888 L417.3622,186.2741 L418.0274,188.6924 L418.6278,191.0951 L419.3518,193.5275 L419.6729,195.8633 L419.9629,195.9328 L420.5407,198.3301 L420.9313,200.6826 L421.5959,203.1007 L422.2732,205.5219 L422.5439,207.8456 L422.2376,207.7512 L423.4767,210.025 L423.7071,211.9879 L424.7043,214.1872 L424.9118,216.143 L425.7666,218.2983 L425.7437,218.2783 L427.7961,220.5547 L429.3128,222.3632 L431.1456,224.4478 L433.005,226.5555 L434.6729,228.4961 L434.6729,228.8661 L436.6729,228.4926 L438.6729,228.7514 L440.6729,227.9873 L442.6729,228.7489 L444.6729,228.4961" fill="none" style="stroke:#FF6F00;stroke-width:1;"/><path d="M192.0566,163.2305 L192.0566,163.4173 L194.0566,162.8622 L196.0566,163.4023 L198.0566,163.5857 L200.0566,162.5963 L202.0566,163.2305 L202.0566,163.2305 L202.0566,163.1959 L208.0566,163.0409 L214.0566,163.06 L220.0566,163.2002 L226.0566,162.9232 L232.0566,163.2305 L232.0566,163.7226 L234.0566,162.6702 L236.0566,163.0547 L238.0566,163.6144 L240.0566,163.1542 L242.0566,163.2305" fill="none" style="stroke:#FF6F00;stroke-width:1;"/><a href="/use-case/legal-entity-management/lifecycle-and-status/" target="_top" title="/use-case/legal-entity-management/lifecycle-and-status/" xlink:actuate="onRequest" xlink:href="/use-case/legal-entity-management/lifecycle-and-status/" xlink:show="new" xlink:title="/use-case/legal-entity-management/lifecycle-and-status/" xlink:type="simple"><text fill="#4051B5" font-family="'Roboto'" font-size="13" lengthAdjust="spacing" textLength="116.854" x="249.0566" y="192.8638">Lifecycle &amp; Status</text></a><path d="M192.0566,163.2305 L192.0566,163.4173 L194.0566,162.8622 L196.0566,163.4023 L198.0566,163.5857 L200.0566,162.5963 L202.0566,163.2305 L202.0566,163.2305 L202.0345,163.204 L204.9349,165.5984 L207.9472,168.1264 L211.0372,170.7471 L213.8593,173.0481 L217.0566,175.7969 L217.2147,175.9855 L219.8767,178.0954 L223.0002,180.7561 L226.1799,183.4839 L229.0322,185.8208 L232.0566,188.3633 L232.0566,188.4239 L234.0566,188.3349 L236.0566,188.522 L238.0566,188.5758 L240.0566,188.8839 L242.0566,188.3633" fill="none" style="stroke:#FF6F00;stroke-width:1;"/><a href="/use-case/legal-entity-management/contact-and-location-information/" target="_top" title="/use-case/legal-entity-management/contact-and-location-information/" xlink:actuate="onRequest" xlink:href="/use-case/legal-entity-management/contact-and-location-information/" xlink:show="new" xlink:title="/use-case/legal-entity-management/contact-and-location-information/" xlink:type="simple"><text fill="#4051B5" font-family="'Roboto'" font-size="13" lengthAdjust="spacing" textLength="203.8042" x="249.0566" y="258.1294">Contact &amp; Location Information</text></a><path d="M192.0566,163.2305 L192.0566,163.4173 L194.0566,162.8622 L196.0566,163.4023 L198.0566,163.5857 L200.0566,162.5963 L202.0566,163.2305 L202.0566,163.2305 L202.0274,163.212 L203.6776,165.9543 L205.475,168.7895 L207.3748,171.6892 L208.9217,174.3664 L210.9629,177.3552 L211.2031,177.4087 L211.334,180.1899 L212.1662,183.1273 L213.0839,186.0837 L213.5038,188.9292 L214.1855,191.8331 L214.2154,191.8383 L214.7458,195.15 L215.4122,198.4853 L216.0129,201.8092 L216.7389,205.1547 L217.0566,208.4297 L217.3505,208.4805 L217.9283,211.8005 L218.3166,215.0876 L218.9823,218.4228 L219.6611,221.7602 L219.9277,225.0263 L219.6149,224.9566 L220.8666,227.9874 L221.0882,230.7888 L222.0929,233.7645 L222.2911,236.5608 L223.1504,239.5042 L223.1246,239.4879 L225.2104,242.5049 L226.6946,245.1425 L228.5337,248.004 L230.4027,250.8842 L232.0566,253.6289 L232.0566,253.9989 L234.0566,253.6254 L236.0566,253.8842 L238.0566,253.1201 L240.0566,253.8817 L242.0566,253.6289" fill="none" style="stroke:#FF6F00;stroke-width:1;"/><a href="/use-case/legal-entity-management/compliance-and-documentation/" target="_top" title="/use-case/legal-entity-management/compliance-and-documentation/" xlink:actuate="onRequest" xlink:href="/use-case/legal-entity-management/compliance-and-documentation/" xlink:show="new" xlink:title="/use-case/legal-entity-management/compliance-and-documentation/" xlink:type="simple"><text fill="#4051B5" font-family="'Roboto'" font-size="13" lengthAdjust="spacing" textLength="195.1396" x="249.0566" y="283.2622">Compliance &amp; Documentation</text></a><path d="M192.0566,163.2305 L192.0566,163.4173 L194.0566,162.8622 L196.0566,163.4023 L198.0566,163.5857 L200.0566,162.5963 L202.0566,163.2305 L202.0566,163.2305 L202.0323,163.206 L202.9189,164.0891 L203.9285,165.0954 L205.0235,166.1876 L205.8241,166.9842 L207.0371,168.1947 L207.2728,168.2654 L207.554,170.7317 L208.5232,173.4045 L209.5765,176.1024 L210.1412,178.6538 L210.9629,181.2822 L210.9928,181.2874 L211.5934,184.9804 L212.3301,188.6971 L213.0012,192.4023 L213.7975,196.1293 L214.1855,199.7853 L214.4811,199.8253 L215.0589,204.0679 L215.4461,208.2848 L216.1124,212.5394 L216.7917,216.7958 L217.0566,220.9961 L216.739,220.9531 L217.9297,225.2787 L218.0745,229.4627 L219.0144,233.7544 L219.1355,237.9352 L219.9277,242.2069 L219.8977,242.2017 L220.897,245.9641 L221.1955,249.6044 L221.9074,253.3168 L222.6541,257.0352 L223.1504,260.71 L223.3276,260.7631 L223.9339,263.327 L224.843,265.9816 L225.2622,268.4894 L226.4121,271.2163 L227.0762,273.7975 L227.2482,273.97 L228.2117,274.9303 L229.2607,275.9761 L229.9129,276.624 L230.8559,277.5636 L232.0566,278.7617 L232.0566,278.2094 L234.0566,278.7094 L236.0566,278.587 L238.0566,279.3674 L240.0566,278.6064 L242.0566,278.7617" fill="none" style="stroke:#FF6F00;stroke-width:1;"/><a href="/use-case/legal-entity-management/supporting-information/" target="_top" title="/use-case/legal-entity-management/supporting-information/" xlink:actuate="onRequest" xlink:href="/use-case/legal-entity-management/supporting-information/" xlink:show="new" xlink:title="/use-case/legal-entity-management/supporting-information/" xlink:type="simple"><text fill="#4051B5" font-family="'Roboto'" font-size="13" lengthAdjust="spacing" textLength="151.106" x="249.0566" y="308.395">Supporting Information</text></a><path d="M192.0566,163.2305 L192.0566,163.4173 L194.0566,162.8622 L196.0566,163.4023 L198.0566,163.5857 L200.0566,162.5963 L202.0566,163.2305 L202.0566,163.2305 L202.03,163.2085 L202.9064,164.3188 L203.9173,165.5397 L205.0215,166.8377 L205.8039,167.8704 L207.0371,169.2746 L207.276,169.3335 L207.5503,172.3945 L208.5221,175.6274 L209.579,178.8813 L210.1407,182.0132 L210.9629,185.2092 L210.9928,185.2139 L211.2843,187.3362 L211.7122,189.48 L212.0742,191.6133 L212.5618,193.7665 L212.6401,195.8552 L212.9359,195.8937 L213.2486,198.2706 L213.3705,200.6227 L213.7717,203.0111 L214.186,205.4013 L214.1855,207.7375 L213.867,207.702 L215.0595,212.9358 L215.203,218.0529 L216.144,223.2587 L216.2638,228.3732 L217.0566,233.5625 L217.0264,233.5591 L217.9584,238.7639 L218.1836,243.8901 L218.8258,249.0627 L219.5031,254.2392 L219.9277,259.3875 L220.1112,259.4114 L220.2351,261.7638 L220.6725,264.1569 L220.6027,266.4841 L221.2894,268.9097 L221.4731,271.2698 L221.7138,271.3077 L222.0038,273.4297 L222.4132,275.5706 L222.2674,277.624 L222.5286,279.7415 L223.1504,281.9158 L222.8822,281.8497 L223.9101,285.0964 L224.6359,288.2687 L225.7999,291.549 L226.2156,294.6449 L227.0762,297.8504 L226.9585,297.7534 L228.1506,299.1237 L228.8396,300.0796 L229.8864,301.3301 L231.2831,302.8691 L232.0566,303.8945 L232.0566,304.2818 L234.0566,304.5474 L236.0566,303.6085 L238.0566,304.1783 L240.0566,304.4193 L242.0566,303.8945" fill="none" style="stroke:#FF6F00;stroke-width:1;"/><!--SRC=[xLXjRzis4FwkNy4rmDgYTHsdQL4KHL77STAqJXpOIOUXA09QecmY5AcILB9is7_VKHPjIRPaov6x5aY-925Fppt7jxjxFYYDfGuezm8SEivl7l4f9-ZW-EgqVN9srUdt-WCK_-pixxvgZLwbJORTJl_ii3tuCx5ROdBUxdnk7tTdG0ic_S5XTv3sWtPy_xM_kpipEUgVNMGCOXFpCpDf3mRzFx8s5iLHrvI7ME80ZR1xFPOYubv7C27HZfQOAvWZNAVCFjw5H3BAhnEhXB7p657kiiWZI4y86XDE96Pezfr2FbYFX9uyHuoE9nfXxY4FosluKWiaReYybLGJT4lrP8f1RmX7YcXD-LZbr-JYuqddyrbtE4Gjs1WHQYeucW2eGT7meO-P8YdYvzZp00ZjfyO6qt0ba4LlKkF32VR4hR7Eeyp2l-HU_0T9J58sXyJ74TFe7-T8S7s60u8U3GJ4BXx58zELcszSF3YaVnFKsdV-JIErfHItWBFqY-Km-ex16WdcPP52s5qy9WcdXKyFSfkVEU7EWP0GR3AJEfBWOkw12wyAVEReh-V15K4eE1n7SBCXuQNifciM1MmlksOUrdY45QdPNSQ7oqJaRTM1O8ouvdQesjtClNJ0G0gsHGy71XBBkosww79DzJOTKAw9zB5BjkXZIBv7XBla718NTMc8kPw2NKoeUys9Kl1WpirLOWwCqb-Kabk0Ni8pPJD_bhYG0MRvkOLmUjGdFNXP2y5d1gKquyTp0JmUBKIEPvUIYcVcQ_ZIQRjQo1KCOfD2NsQsw08_HfrzP5ODaX3yixFo9ttd9LnupCUCl7i7sKe9_luzxEyG3XyH6X9OOVQeAo_aJrm-PsUVg1HTyXUGv9XTrSyxLuvjWRowKve4lzvQryzxIsjj4_AliTHpjh_UIgUEoIX9l5FMkS8u6qLSm-wkhlOsYhqyi6c2yR2Q46-TM9U6we9Z37b5hXihrElbHsaBaPPlOUKsn3PmyvXUJlDF7peoIQ6czn8Sqy0bhN1Sx2lKG46ajAdB2S8-X6fzvjg2bBUaDItiSLAzQX79T2anNunSxGwDkrvTPYtFz5fBEeeqAQu35hcMD32PQXyhjHchCWUFqMcoBoeaBlMf2_77fGDiqUt4TDKQtY2eFvNPq7ZpdgCHYmZi7UV4528AYKYRwSMMhcQsStoShQcWaNUUNQ6lNr4pKgJXmjlPP6ICMOF4bNaZm1nws03-QwAUcR0b- -bi0dtxvZnR5mIYXJ5OBcpwemRcNaEICLLQnWDDT98nGB-ZGMgwaYjNo530TwGnDb87nr1pDw5jIaRHyMoq4gouXTTAJMWOatTnI3NO0SF8rP443trh0EGxqsaeAvFfIgvyQkXHcAFSDxTlkaH7TXYTp8UdmC_k0mmNXMZLHEtuTm9uBwg-oMDc7bvpu9twhmvqWYKtEbM3A4rXZ82FRZA6kdQi3a_cz05e4mscVzI1oIWUKMPCuHKF0Bjd1z256QXqKXYqP-wToqXyACrB7CM8oIYSn64yLl42mLQvEePa8hcncPFOcLe0V2-PNpoIQpiBGbWIk8snFq-uKNnKh2Cx2xuEqtELdAWeXCjljZ0Rnt0sdkV_WS0hRyNe3rbjkZubzoVMJ6tviAPWcZPV0b11AhNVvLEXNRHqlhFQUgauUb_0CYsq36EHmGRgPpK7Q-cTzu4iLJYh0g-ZQMwEMQ9YRWvQg5jk3bccL6wEkXLjqj8fK2Kjiyg2f0rWcHffGOk4ICifrInOk0NzqMBbfCUC_KhTSUOmhpZEqBDYO-eYRQGR5h-iLKxBukRVLnVyqRnM23h_spBz3BpMLkj-C9kVQf5g5TeiZuhH5B8k5TLQsrJHweuaj_vrgMGRornBycLj4bSQAPTB5fMjJ9fPjdBv4dGDDQkOm4h80iNf7eWF6jE3nlIWCJreJ0yQqmOQqpc3bkZoj8VWuL36eFLYRtVlrOjMQqGqRkq-kUJN7Dw7M8wWiEnm1CbJvydnUGyf4KbWxvctp2GT-FofymdVO3I8kB5xY_eXuPyEFzi1U6blg1JSC7S-VJcT6xpURnnG3VsZ12BeowbZitQNky8eL6_HvSLHuutJWneaWk3V8i8XrGAkl8EvuNy0]--></g></svg>