<svg xmlns="http://www.w3.org/2000/svg" xmlns:xlink="http://www.w3.org/1999/xlink" contentStyleType="text/css" data-diagram-type="MINDMAP" height="152px" preserveAspectRatio="none" style="width:861px;height:152px;" version="1.1" viewBox="0 0 861 152" width="861px" zoomAndPan="magnify"><defs/><g><a href="/use-case/construction-project-quotations/scope-and-requirements/" target="_top" title="/use-case/construction-project-quotations/scope-and-requirements/" xlink:actuate="onRequest" xlink:href="/use-case/construction-project-quotations/scope-and-requirements/" xlink:show="new" xlink:title="/use-case/construction-project-quotations/scope-and-requirements/" xlink:type="simple"><text fill="#4051B5" font-family="'Roboto'" font-size="13" lengthAdjust="spacing" textLength="149.2524" x="350.708" y="79.7661">Scope &amp; Requirements</text></a><a href="/use-case/construction-project-quotations/scope-and-requirements/scope-decomposition-wbs-boq/" target="_top" title="/use-case/construction-project-quotations/scope-and-requirements/scope-decomposition-wbs-boq/" xlink:actuate="onRequest" xlink:href="/use-case/construction-project-quotations/scope-and-requirements/scope-decomposition-wbs-boq/" xlink:show="new" xlink:title="/use-case/construction-project-quotations/scope-and-requirements/scope-decomposition-wbs-boq/" xlink:type="simple"><text fill="#4051B5" font-family="'Roboto'" font-size="13" lengthAdjust="spacing" textLength="216.7852" x="565.0928" y="27.0669">Scope Decomposition (WBS/BoQ)</text></a><path d="M508.0928,75.2656 L508.0928,75.4525 L510.0928,74.8973 L512.0928,75.4374 L514.0928,75.6209 L516.0928,74.6315 L518.0928,75.2656 L518.0928,75.2656 L518.0693,75.2403 L519.7453,73.4796 L521.5396,71.8468 L523.416,70.3028 L525.0092,68.4526 L526.999,67.0314 L527.2322,67.1098 L527.9523,63.319 L529.3532,59.7572 L530.8372,56.2234 L531.8379,52.5269 L533.0928,48.916 L533.1215,48.9257 L534.2981,45.2884 L535.6055,41.6952 L536.8498,38.0807 L538.2145,34.5067 L539.1865,30.8007 L539.389,31.0197 L541.1727,29.3755 L542.8258,27.5901 L544.6701,26.0114 L546.5234,24.4424 L548.0928,22.5664 L548.0928,21.9254 L550.0928,23.1695 L552.0928,22.3028 L554.0928,23.0409 L556.0928,22.1264 L558.0928,22.5664" fill="none" style="stroke:#FF6F00;stroke-width:1;"/><polygon fill="#4051B5" points="562.0928,45.1328,562.0928,45.343,572.1986,44.7185,582.3044,45.3261,592.4102,45.5325,602.516,44.4194,612.6218,45.0551,622.7276,44.7063,632.8334,44.7493,642.9392,45.0647,653.045,44.4414,663.1508,45.6865,673.2566,44.5025,683.3624,44.935,693.4682,45.5648,703.574,45.047,713.6798,45.2011,723.7856,45.1009,733.8914,45.3113,743.9972,45.3719,754.103,45.7185,764.2088,45.8039,774.3146,45.8121,784.4204,45.3874,794.5262,45.5964,804.632,45.835,814.7378,44.4116,824.8436,45.8113,834.9494,44.8363,845.0552,45.1328,845.1233,45.2972,845.5577,45.2147,846.1778,45.5803,846.8468,46.0641,847.3117,46.0551,847.8836,46.3044,847.916,46.3178,848.2222,46.9133,848.4804,47.4889,848.5853,48.0009,848.9093,48.6038,849.0552,49.1328,848.8644,49.1328,849.15,54.5594,849.2379,59.9859,849.2034,65.4125,849.2595,70.8391,849.0552,76.2656,848.9064,76.204,848.62,76.7481,848.3952,77.3177,848.3341,77.9552,848.0574,78.5033,847.8836,79.0941,847.9705,79.3039,847.2956,79.2746,846.7085,79.457,846.2157,79.8673,845.5358,79.826,845.0552,80.2656,845.0552,79.7465,834.9494,80.9146,824.8436,80.7013,814.7378,81.0001,804.632,79.9438,794.5262,80.5848,784.4204,80.856,774.3146,79.7932,764.2088,80.1698,754.103,80.3916,743.9972,80.9174,733.8914,80.2614,723.7856,80.7282,713.6798,79.7118,703.574,79.5884,693.4682,80.7692,683.3624,79.5487,673.2566,80.7746,663.1508,80.4723,653.045,79.9977,642.9392,79.9119,632.8334,80.7244,622.7276,79.9663,612.6218,80.8575,602.516,79.7129,592.4102,80.8831,582.3044,80.7499,572.1986,80.5106,562.0928,80.2656,562.0988,80.2802,561.6198,80.2551,561.0397,79.986,560.4173,79.6148,559.8642,79.411,559.2643,79.0941,559.2242,79.0774,559.2507,78.6198,558.8434,77.9824,558.6145,77.419,558.1397,76.7537,558.0928,76.2656,557.9577,76.2656,558.2697,70.8391,558.236,65.4125,558.0785,59.9859,557.9854,54.5594,558.0928,49.1328,558.0254,49.1049,558.1158,48.4796,558.6891,48.0543,559.0235,47.5301,559.1921,46.9372,559.2643,46.3044,559.353,46.5184,559.8126,46.028,560.4068,45.8626,560.912,45.4821,561.5633,45.4546,562.0928,45.1328" style="stroke:#FF6F00;stroke-width:1.5;"/><a href="/use-case/construction-project-quotations/scope-and-requirements/assumptions-exclusions-qualifications/" target="_top" title="/use-case/construction-project-quotations/scope-and-requirements/assumptions-exclusions-qualifications/" xlink:actuate="onRequest" xlink:href="/use-case/construction-project-quotations/scope-and-requirements/assumptions-exclusions-qualifications/" xlink:show="new" xlink:title="/use-case/construction-project-quotations/scope-and-requirements/assumptions-exclusions-qualifications/" xlink:type="simple"><text fill="#4051B5" font-family="'Roboto'" font-size="13" lengthAdjust="spacing" textLength="266.8301" x="568.0928" y="67.1997">Assumptions, Exclusions &amp; Qualifications</text></a><path d="M508.0928,75.2656 L508.0928,75.4525 L510.0928,74.8973 L512.0928,75.4374 L514.0928,75.6209 L516.0928,74.6315 L518.0928,75.2656 L518.0928,75.2656 L518.0794,75.2338 L521.0195,73.8342 L524.0269,72.5951 L527.0811,71.4678 L529.9741,69.9556 L533.0928,68.9824 L533.1878,69.2094 L535.9845,67.4674 L539.0588,66.3881 L542.1669,65.3896 L545.078,63.9207 L548.0928,62.6992 L548.0928,62.7599 L550.0928,62.6708 L552.0928,62.8579 L554.0928,62.9118 L556.0928,63.2198 L558.0928,62.6992" fill="none" style="stroke:#FF6F00;stroke-width:1;"/><a href="/use-case/construction-project-quotations/scope-and-requirements/rfis-clarifications-addenda/" target="_top" title="/use-case/construction-project-quotations/scope-and-requirements/rfis-clarifications-addenda/" xlink:actuate="onRequest" xlink:href="/use-case/construction-project-quotations/scope-and-requirements/rfis-clarifications-addenda/" xlink:show="new" xlink:title="/use-case/construction-project-quotations/scope-and-requirements/rfis-clarifications-addenda/" xlink:type="simple"><text fill="#4051B5" font-family="'Roboto'" font-size="13" lengthAdjust="spacing" textLength="196.2251" x="565.0928" y="107.3325">RFIs, Clarifications &amp; Addenda</text></a><path d="M508.0928,75.2656 L508.0928,75.4525 L510.0928,74.8973 L512.0928,75.4374 L514.0928,75.6209 L516.0928,74.6315 L518.0928,75.2656 L518.0928,75.2656 L518.0777,75.2345 L519.7915,75.9564 L521.5811,76.8351 L523.4233,77.8227 L525.084,78.4348 L526.999,79.5729 L527.206,79.706 L527.9822,81.3166 L529.3626,83.3157 L530.8167,85.3623 L531.842,87.133 L533.0928,89.0488 L533.1183,89.0652 L534.2996,90.9363 L535.597,92.8821 L536.8384,94.7919 L538.1867,96.7704 L539.1865,98.5248 L539.3164,98.7933 L541.0992,99.658 L542.7983,100.3496 L544.62,101.2946 L546.4474,102.2516 L548.0928,102.832 L548.0928,102.191 L550.0928,103.4352 L552.0928,102.5685 L554.0928,103.3065 L556.0928,102.392 L558.0928,102.832" fill="none" style="stroke:#FF6F00;stroke-width:1;"/><a href="/use-case/construction-project-quotations/scope-and-requirements/constructability-review/" target="_top" title="/use-case/construction-project-quotations/scope-and-requirements/constructability-review/" xlink:actuate="onRequest" xlink:href="/use-case/construction-project-quotations/scope-and-requirements/constructability-review/" xlink:show="new" xlink:title="/use-case/construction-project-quotations/scope-and-requirements/constructability-review/" xlink:type="simple"><text fill="#4051B5" font-family="'Roboto'" font-size="13" lengthAdjust="spacing" textLength="153.9116" x="565.0928" y="132.4653">Constructability Review</text></a><path d="M508.0928,75.2656 L508.0928,75.4525 L510.0928,74.8973 L512.0928,75.4374 L514.0928,75.6209 L516.0928,74.6315 L518.0928,75.2656 L518.0928,75.2656 L518.0693,75.2403 L519.7453,76.7733 L521.5396,78.4342 L523.416,80.1839 L525.0092,81.6274 L526.999,83.4999 L527.2322,83.5783 L527.9523,87.0336 L529.3532,90.718 L530.8372,94.4303 L531.8379,97.98 L533.0928,101.6152 L533.1215,101.6249 L534.2981,105.2338 L535.6055,108.8867 L536.8498,112.5183 L538.2145,116.1905 L539.1865,119.7306 L539.389,119.9496 L541.1727,121.5991 L542.8258,123.1074 L544.6701,124.8224 L546.5234,126.5472 L548.0928,127.9648 L548.0928,127.3238 L550.0928,128.568 L552.0928,127.7013 L554.0928,128.4393 L556.0928,127.5248 L558.0928,127.9648" fill="none" style="stroke:#FF6F00;stroke-width:1;"/><a href="/use-case/construction-project-quotations/" target="_top" title="/use-case/construction-project-quotations/" xlink:actuate="onRequest" xlink:href="/use-case/construction-project-quotations/" xlink:show="new" xlink:title="/use-case/construction-project-quotations/" xlink:type="simple"><text fill="#4051B5" font-family="'Roboto'" font-size="13" lengthAdjust="spacing" textLength="268.5757" x="14" y="79.7661">Complex Construction Project Quotations</text></a><path d="M343.708,75.2656 L343.708,75.4525 L341.708,74.8973 L339.708,75.4374 L337.708,75.6209 L335.708,74.6315 L333.708,75.2656 L333.708,75.2656 L333.708,75.2311 L327.708,75.0761 L321.708,75.0952 L315.708,75.2353 L309.708,74.9583 L303.708,75.2656 L303.708,75.7578 L301.708,74.7054 L299.708,75.0898 L297.708,75.6496 L295.708,75.1894 L293.708,75.2656" fill="none" style="stroke:#FF6F00;stroke-width:1;"/><!--SRC=[xLXjRnCv4Fw-ly97fGC4Inee2264IDAKjxOfIGiw8LGvkvF6rrqxjRqDlTFzznllI_ObsSrBDnpeoAVM7Z_pUEprp3olbQPI-uoxFfrOrcykZ1W7qdvpVjHwTtpUwHts-YJyxUpjFcqEdsPD1jrExtY_rVyZjbjWSjBgV6YzwSw0vanw_VrkF-k7x8n6pqQxkpEJWzxnQSuWD36_cKcht-zzpjiaA9QwP7n29VN9a3gN5r84tEq8JqYoeoNb2kU0wupPsvi9I8_nozWgPcpT9OmxNk02qMCW5y11Ke_CrYaoGkkXqEE7n6CNOqqeTubBvIMkr8A8Qv1JoJIGATFZ28DT0oSAj6RyGXLZSlhsNUV3SNSm84qy637HJ70oHb23ed7XY7eACiHFgEiY4DdBZFMZxKeaIvvdnWTZwegfiIwYpBP_njtm3uXDCZRxCAA1fydVre7W-fZwGExq1UvTt0b7eiYb1nSE3jXVG9fxrZzPf9QKOeeu2rSiXj4t7iP8U6uUQOAdIoyWvZItj5qu_DmDjzf2ucRZcSoLH1Uf1oxSTU1pLtyr3uxm9uBZTKGt6n9Uo2wAMU1xZ_CnSwccGwgWPdSv7uud0dUh3eJdWME-3bMxczHB1msayBReeMqWgRpPeeikrqnlqm7Z6kI8Eh157mEu2e0xS8A9YpbiGhcEm4x7pBdae1G-cAcvYisHKNP59Ravw0KyCpRfiyI5zAbNd9lRpY4RmI6-hANWCuDAck7ZEGSUZfOYXxCBIOKpQGoVM2r72xc4GMXIwilCbdt0TqbdZvYeOHB2VtQM_hBVlCGFdl8B3rw-n6ob17_r2iztW9SFXCO4LfezwieBnHjNpDdv9of35xuXIKwzy_fv5ygnBP1NDqg3__F5kdxUMufraf1_Zb2dR7- -I6UkoJ1El17hGc6StqLOm-ukh_Ossdlrng84ur8r1dULlIxSgeEEAUOLkUfUiLwllafRs6dr4QxTXYGDNBgd9r7-wM579XdMz6wCOnguk1KEYtr5RE87Ifkw70WTuLOJduMs8ECjRarBUvnChrf6CbjAfC4erExOkElbPTRYJA-rPCD0GtaTCC-ree79LVjKgSrOLJcuIuxYSr4JSDY8ERZ_i7J08vgEJLUjyGt2-bEP0mqFxo4PUW7WsN4EfX1HH0JQJC-tT3MpJV5flgR2HjvwS4w-V26DG87juDlPG7vAoo1iOEo957yYMVig47YyfgLfA4TCmCQstvPOoJ89FlQ7ga46PfpyJlgPKVBrg_MW9WVHi0jXJwfOk7ewLFPGN2NEzxEJvDxdzg3H5X_lHong8O6NAV13vKFPyCtn0XN-UHLGpro2U35ffMOFINTcXz7vcBEiCpvon9IDrrscy3PrNS1KqY3zWtV8f9ERHJQjQBvE6hDbTCWyREvmzfh1j64Qrjm4NXGpONpRzfg-4SoVUF0j1JK7VX8POemJGmF-6dSuqnDVv-N5-iIu7rZsIZB0YffNrdm1m1fgLxAk-9ebGSi-MOayMgbltHQmIiwgmfXdi860jPw3bIIhsq1MYbJh0gyYIssEMI54RGvQAZrj3babDcsEkXLvAQ5J8YmbpDRMb98DB1AK4j0oBIdXbAdt4hWv2Id1AgX7EVkbqj7COL4qcg7dzQBCXxIHz5F-igvpM-OF_xRIplVcjQGd_y_2z2FmMbbm-SviVgWWrQgL93pMt4qfwqfTfBbD8QJkdHJYNvVGiR5IiI1VrgPIP94AkMHUdCYbcKMHAvQWAmWIvGIMGfQ81hT0_2KJ_989_iyomOc7LUtPqI6vnih9h6a-Uhpx-EcZPdC8cZPtxvtnIowcFEme6JuxclbmtxhtvkIGA158BBzTfg9t0vVVjzxJQqhw0JTsBqXl0lpz_eTa07kHQoO5Dv6ntdywIWsUxTbjfh45a4Y4V3goaeUtonrXH8ONvEpqm7vk7M8Q2R3_Va60usk9kF86vmR_0W00]--></g></svg>