<svg xmlns="http://www.w3.org/2000/svg" xmlns:xlink="http://www.w3.org/1999/xlink" contentStyleType="text/css" data-diagram-type="MINDMAP" height="157px" preserveAspectRatio="none" style="width:914px;height:157px;" version="1.1" viewBox="0 0 914 157" width="914px" zoomAndPan="magnify"><defs/><g><a href="/use-case/construction-project-quotations/scope-and-requirements/" target="_top" title="/use-case/construction-project-quotations/scope-and-requirements/" xlink:actuate="onRequest" xlink:href="/use-case/construction-project-quotations/scope-and-requirements/" xlink:show="new" xlink:title="/use-case/construction-project-quotations/scope-and-requirements/" xlink:type="simple"><text fill="#90EE90" font-family="'Roboto'" font-size="14" lengthAdjust="spacing" textLength="160.7334" x="371.6855" y="82.4404">Scope &amp; Requirements</text></a><a href="/use-case/construction-project-quotations/scope-and-requirements/scope-decomposition-wbs-boq/" target="_top" title="/use-case/construction-project-quotations/scope-and-requirements/scope-decomposition-wbs-boq/" xlink:actuate="onRequest" xlink:href="/use-case/construction-project-quotations/scope-and-requirements/scope-decomposition-wbs-boq/" xlink:show="new" xlink:title="/use-case/construction-project-quotations/scope-and-requirements/scope-decomposition-wbs-boq/" xlink:type="simple"><text fill="#90EE90" font-family="'Roboto'" font-size="14" lengthAdjust="spacing" textLength="233.4609" x="597.8691" y="27.9951">Scope Decomposition (WBS/BoQ)</text></a><path d="M540.8691,77.5938 L540.8691,77.7806 L542.8691,77.2255 L544.8691,77.7656 L546.8691,77.949 L548.8691,76.9596 L550.8691,77.5938 L550.8691,77.5938 L550.8453,77.5688 L552.5195,75.7553 L554.3139,74.0677 L556.192,72.4676 L557.7819,70.5659 L559.7754,69.0867 L560.0094,69.1629 L560.7278,65.2568 L562.1293,61.5732 L563.6142,57.9168 L564.6141,54.1024 L565.8691,50.3711 L565.898,50.3805 L567.0744,46.6236 L568.3821,42.9094 L569.6265,39.1747 L570.9917,35.4792 L571.9629,31.6555 L572.1689,31.8712 L573.9527,30.1724 L575.6036,28.3345 L577.449,26.7003 L579.3035,25.0755 L580.8691,23.1484 L580.8691,22.5074 L582.8691,23.7516 L584.8691,22.8849 L586.8691,23.6229 L588.8691,22.7084 L590.8691,23.1484" fill="none" style="stroke:#FF9900;stroke-width:1;"/><polygon fill="#4051B5" points="594.8691,46.2969,594.8691,46.5071,604.996,45.8826,615.1229,46.4902,625.2497,46.6966,635.3766,45.5835,645.5034,46.2192,655.6303,45.8704,665.7571,45.9134,675.884,46.2287,686.0108,45.6055,696.1377,46.8505,706.2646,45.6666,716.3914,46.0991,726.5183,46.7288,736.6451,46.2111,746.772,46.3651,756.8988,46.2649,767.0257,46.4754,777.1525,46.536,787.2794,46.8826,797.4063,46.9679,807.5331,46.9761,817.66,46.5515,827.7868,46.7605,837.9137,46.9991,848.0405,45.5757,858.1674,46.9754,868.2942,46.0004,878.4211,46.8307,888.5479,45.8019,898.6748,46.2969,898.6661,46.2758,899.3351,46.7596,899.8,46.7505,900.3853,47.0322,900.9807,47.3384,901.5032,47.4684,901.6314,47.5215,901.7363,48.0336,902.0603,48.6365,902.0299,49.0925,902.5281,49.7675,902.6748,50.2969,902.8575,50.2969,902.823,55.9563,902.8791,61.6156,902.5138,67.275,902.4574,72.9344,902.6748,78.5938,902.4834,78.5145,902.4224,79.1519,902.1457,79.7001,902.1817,80.3777,901.6838,80.8342,901.5032,81.4222,901.4595,81.3165,900.9667,81.7268,900.2868,81.6854,899.74,81.9653,899.3233,82.5593,898.6748,82.5938,898.6748,83.0294,888.5479,83.3282,878.4211,82.272,868.2942,82.9129,858.1674,83.1842,848.0405,82.1213,837.9137,82.4979,827.7868,82.7197,817.66,83.2455,807.5331,82.5896,797.4063,83.0563,787.2794,82.04,777.1525,81.9165,767.0257,83.0974,756.8988,81.8768,746.772,83.1027,736.6451,82.8004,726.5183,82.3258,716.3914,82.24,706.2646,83.0525,696.1377,82.2944,686.0108,83.1856,675.884,82.041,665.7571,83.2112,655.6303,83.0781,645.5034,82.8387,635.3766,82.641,625.2497,83.3204,615.1229,83.2073,604.996,82.763,594.8691,82.5938,594.9034,82.6763,594.2868,82.3193,593.8292,82.3458,593.1918,81.9385,592.6284,81.7096,592.0407,81.4222,591.8534,81.3446,591.6816,80.8048,591.7355,80.3585,591.4701,79.7799,591.0902,79.154,590.8691,78.5938,590.7618,78.5938,590.7962,72.9344,590.6404,67.275,591.0074,61.6156,591.1157,55.9563,590.8691,50.2969,591.0312,50.364,591.3175,49.8198,591.2957,49.1481,591.5989,48.6109,591.687,47.9847,592.0407,47.4684,592.0769,47.5559,592.6379,47.3101,593.2425,47.1699,593.7085,46.6948,594.2863,46.4898,594.8691,46.2969" style="stroke:#FF6F00;stroke-width:1.5;"/><a href="/use-case/construction-project-quotations/scope-and-requirements/assumptions-exclusions-qualifications/" target="_top" title="/use-case/construction-project-quotations/scope-and-requirements/assumptions-exclusions-qualifications/" xlink:actuate="onRequest" xlink:href="/use-case/construction-project-quotations/scope-and-requirements/assumptions-exclusions-qualifications/" xlink:show="new" xlink:title="/use-case/construction-project-quotations/scope-and-requirements/assumptions-exclusions-qualifications/" xlink:type="simple"><text fill="#90EE90" font-family="'Roboto'" font-size="14" lengthAdjust="spacing" textLength="287.3555" x="600.8691" y="69.292">Assumptions, Exclusions &amp; Qualifications</text></a><path d="M540.8691,77.5938 L540.8691,77.7806 L542.8691,77.2255 L544.8691,77.7656 L546.8691,77.949 L548.8691,76.9596 L550.8691,77.5938 L550.8691,77.5938 L550.8553,77.5621 L553.7931,76.1053 L556.8007,74.808 L559.857,73.6215 L562.7458,72.0529 L565.8691,71.0195 L565.9679,71.2449 L568.7567,69.4481 L571.8339,68.3093 L574.9462,67.2508 L577.8538,65.7252 L580.8691,64.4453 L580.8691,64.506 L582.8691,64.4169 L584.8691,64.604 L586.8691,64.6579 L588.8691,64.9659 L590.8691,64.4453" fill="none" style="stroke:#FF9900;stroke-width:1;"/><a href="/use-case/construction-project-quotations/scope-and-requirements/rfis-clarifications-addenda/" target="_top" title="/use-case/construction-project-quotations/scope-and-requirements/rfis-clarifications-addenda/" xlink:actuate="onRequest" xlink:href="/use-case/construction-project-quotations/scope-and-requirements/rfis-clarifications-addenda/" xlink:show="new" xlink:title="/use-case/construction-project-quotations/scope-and-requirements/rfis-clarifications-addenda/" xlink:type="simple"><text fill="#90EE90" font-family="'Roboto'" font-size="14" lengthAdjust="spacing" textLength="211.3193" x="597.8691" y="110.5889">RFIs, Clarifications &amp; Addenda</text></a><path d="M540.8691,77.5938 L540.8691,77.7806 L542.8691,77.2255 L544.8691,77.7656 L546.8691,77.949 L548.8691,76.9596 L550.8691,77.5938 L550.8691,77.5938 L550.8538,77.5628 L552.5665,78.3034 L554.3562,79.2002 L556.1995,80.2055 L557.8581,80.8368 L559.7754,81.9919 L559.9836,82.1231 L560.7571,83.7779 L562.1385,85.8155 L563.5941,87.8999 L564.6181,89.7124 L565.8691,91.668 L565.8948,91.6841 L567.0759,93.5956 L568.3738,95.5807 L569.6153,97.5302 L570.9644,99.5475 L571.9629,101.344 L572.0949,101.6114 L573.8778,102.4943 L575.5755,103.2047 L577.3979,104.1676 L579.2261,105.1424 L580.8691,105.7422 L580.8691,105.1011 L582.8691,106.3453 L584.8691,105.4786 L586.8691,106.2167 L588.8691,105.3022 L590.8691,105.7422" fill="none" style="stroke:#FF9900;stroke-width:1;"/><a href="/use-case/construction-project-quotations/scope-and-requirements/constructability-review/" target="_top" title="/use-case/construction-project-quotations/scope-and-requirements/constructability-review/" xlink:actuate="onRequest" xlink:href="/use-case/construction-project-quotations/scope-and-requirements/constructability-review/" xlink:show="new" xlink:title="/use-case/construction-project-quotations/scope-and-requirements/constructability-review/" xlink:type="simple"><text fill="#90EE90" font-family="'Roboto'" font-size="14" lengthAdjust="spacing" textLength="165.751" x="597.8691" y="136.8857">Constructability Review</text></a><path d="M540.8691,77.5938 L540.8691,77.7806 L542.8691,77.2255 L544.8691,77.7656 L546.8691,77.949 L548.8691,76.9596 L550.8691,77.5938 L550.8691,77.5938 L550.8453,77.5688 L552.5195,79.1581 L554.3139,80.8733 L556.192,82.6761 L557.7819,84.1772 L559.7754,86.1008 L560.0094,86.177 L560.7278,89.7572 L562.1293,93.5598 L563.6142,97.3896 L564.6141,101.0615 L565.8691,104.8164 L565.898,104.8258 L567.0744,108.5551 L568.3821,112.3272 L569.6265,116.0787 L570.9917,119.8695 L571.9629,123.532 L572.1689,123.7477 L573.9527,125.4517 L575.6036,127.0166 L577.449,128.7852 L579.3035,130.5633 L580.8691,132.0391 L580.8691,131.398 L582.8691,132.6422 L584.8691,131.7755 L586.8691,132.5136 L588.8691,131.599 L590.8691,132.0391" fill="none" style="stroke:#FF9900;stroke-width:1;"/><a href="/use-case/construction-project-quotations/" target="_top" title="/use-case/construction-project-quotations/" xlink:actuate="onRequest" xlink:href="/use-case/construction-project-quotations/" xlink:show="new" xlink:title="/use-case/construction-project-quotations/" xlink:type="simple"><text fill="#90EE90" font-family="'Roboto'" font-size="14" lengthAdjust="spacing" textLength="289.2354" x="14" y="82.4404">Complex Construction Project Quotations</text></a><path d="M364.6855,77.5938 L364.6855,77.7806 L362.6855,77.2255 L360.6855,77.7656 L358.6855,77.949 L356.6855,76.9596 L354.6855,77.5938 L354.6855,77.5938 L354.6855,77.5592 L348.6855,77.4042 L342.6855,77.4233 L336.6855,77.5635 L330.6855,77.2865 L324.6855,77.5938 L324.6855,78.0859 L322.6855,77.0335 L320.6855,77.418 L318.6855,77.9777 L316.6855,77.5175 L314.6855,77.5938" fill="none" style="stroke:#FF9900;stroke-width:1;"/><!--SRC=[xLXjKziu4FxkNw4hCmTCwuPmq6cPJeSa91G894sWDpUT3gFOIgB6bema9t0tzzzlRSVnInBdXRY56_89jAjddrsjfTqzbWeBPLDcsjZHjDzCqgMCeFBfxMNfxEgsqgWtMiZ_RHti7HOxXt6LThNIk3efjVuQwyrGQPOg5wNJwWHeIgNHEgcsudRGLhVxhhktDr6fDQwk4mg-YlVJD3cWpC42swY3ZK5FS9UP5Mvn4IegWPa43S9KJFdpWqD4dR91N1TjMRJNLpr12DEqRKIPORacGQfFK8ym8h259X0ITM5ZXwl-6-HlGvYPoCHY03iLHtn8n4XGHT28gdw0GOU48KcKegmdqn6u_dnMkRYgjjke2CV07KKvGtq0zL0KREnYIvAO3qricW243c9hhS1_0MJH-zXwkuzDFlAqqoX-92o8n0qp_J_8M2McSqAwsBKK-aUhSQQki4tGgnO7t_ahVoK8OdHC_cAR_arGyK3xDuvK4eAF06VcZjamwi62677BJ28vSDouHyQSfhQMKzcGo6Ujp0KuEvR44X1CH1OODrU1JoJwSXOCRZkSGMQ2cJK9psGNnCorhVrap4oiS0TBic5p2Hk6nLqpLmFSieZXVHrousOYAnLG4DpAqKBPWyJY8KSJLQQeojC0POg8BZP8ZZRQvCubp21DUAQeGHtCL01stQV6W14fuSACrELO7HZ5TsIIcuAUmJEc4rrBZ0iRMsdPb3jrsYNms92vu1E5J9h-vJa5xg_EHVQbCqdvaYY6VsWbGt6nW86lCjUM9vtt0M-ZoW7oeWQF4FopjV0N_-O5VF2OzIpoyIEyLfApJv_WVDkGV8GhUC3clXwRUXVI6PT-ivDNL8mkkGUI35ktc-UTAhvo82yVf2Bsyulrvddd5ElmGNuUeOxOFhz8nzAaCtvu0zQfmZZfXL_3xYskzjRoFTknu84niUmJSnbVPxfgW64CxufOrbUerxDJAGTFiuym_hGhh6PL6c5B6HaFsyEIKe9sN4McHN5IOSEPAcInb3bRsqQNGUEDf4CCsgK6E1ayaLDzoF8y5hg6eq9YgrRxy07aAM6yjjAqrxVespTKS2NH3VZ-2v1MKWdNBy9rH_0Va77wdSlXVBool20DxX0TMbTTG3L61R6Xnv45rFRMqU-e5Lj5txzhhpTa85WsYTzNIUhl7dMatk5teV6Jk13j_5bk5yhyosx0OYCa86jSs-_UfKxk3SkL_fztBhQy0nvlHgL8xGsgJlGWEbyIcfkCZ-XIgKDUYmXUnwP9u3eie5Rj39XK4b9WKmhacwGnsOOxr8861QH3IaO5h-bA221HF85dMzTNj0rWjcEH-mZKE_1ce0Wn3XKzy6FmS381EquEn7ASC3tXMKvubImvo8chpm1OOOGpkSFct7QpxxQCeSrZ0RDcD5aOqmpMcCgiPc2fESnZ83CdBwi2BpDhMHypOxgoFkZSUShwa5aJbFLHSvcPX7JcJ4j2PYiFIa87Par9Gj1v0vAGKsmqCgd6qdEH42ir4adeBvo7J0oc9o4JzEGG9FOXhJNFc7-phf8jquV_s7d5p-QreD7yPM5w2hoMdYByP3PFAaWR7G24F5RqPYxhp6Q_c6TtlsbFKl7_NtVlBotwIul-qgB_WXQzQK41UNDPHqCeKhmznRVxU_k7Rul53b6ukBTpmmQCZvZVl56uMHMroQwsSzgi8ybT0PMkIMNmkSFsNUqS3p5gkSpJEq8DXx3paujm0Sh-8HMSUP7HphzUHWhl3lGoLL1j2o22lbvgONDTPGRt-laZT7DTqzzhTRYnNMXrZn3q_HMu89Hu05dxFm00]--></g></svg>