<svg xmlns="http://www.w3.org/2000/svg" xmlns:xlink="http://www.w3.org/1999/xlink" contentStyleType="text/css" data-diagram-type="MINDMAP" height="152px" preserveAspectRatio="none" style="width:928px;height:152px;" version="1.1" viewBox="0 0 928 152" width="928px" zoomAndPan="magnify"><defs/><g><a href="/use-case/construction-project-quotations/supply-chain-and-subcontractors/" target="_top" title="/use-case/construction-project-quotations/supply-chain-and-subcontractors/" xlink:actuate="onRequest" xlink:href="/use-case/construction-project-quotations/supply-chain-and-subcontractors/" xlink:show="new" xlink:title="/use-case/construction-project-quotations/supply-chain-and-subcontractors/" xlink:type="simple"><text fill="#4051B5" font-family="'Roboto'" font-size="13" lengthAdjust="spacing" textLength="202.7759" x="350.708" y="79.7661">Supply Chain &amp; Subcontractors</text></a><a href="/use-case/construction-project-quotations/supply-chain-and-subcontractors/supplier-rfqs-and-material-pricing/" target="_top" title="/use-case/construction-project-quotations/supply-chain-and-subcontractors/supplier-rfqs-and-material-pricing/" xlink:actuate="onRequest" xlink:href="/use-case/construction-project-quotations/supply-chain-and-subcontractors/supplier-rfqs-and-material-pricing/" xlink:show="new" xlink:title="/use-case/construction-project-quotations/supply-chain-and-subcontractors/supplier-rfqs-and-material-pricing/" xlink:type="simple"><text fill="#4051B5" font-family="'Roboto'" font-size="13" lengthAdjust="spacing" textLength="210.6025" x="618.6162" y="27.0669">Supplier RFQs &amp; Material Pricing</text></a><path d="M561.6162,75.2656 L561.6162,75.4525 L563.6162,74.8973 L565.6162,75.4374 L567.6162,75.6209 L569.6162,74.6315 L571.6162,75.2656 L571.6162,75.2656 L571.5928,75.2403 L573.2688,73.4796 L575.063,71.8468 L576.9394,70.3028 L578.5326,68.4526 L580.5225,67.0314 L580.7557,67.1098 L581.4757,63.319 L582.8767,59.7572 L584.3607,56.2234 L585.3613,52.5269 L586.6162,48.916 L586.645,48.9257 L587.8215,45.2884 L589.1289,41.6952 L590.3732,38.0807 L591.7379,34.5067 L592.71,30.8007 L592.9124,31.0197 L594.6962,29.3755 L596.3493,27.5901 L598.1936,26.0114 L600.0468,24.4424 L601.6162,22.5664 L601.6162,21.9254 L603.6162,23.1695 L605.6162,22.3028 L607.6162,23.0409 L609.6162,22.1264 L611.6162,22.5664" fill="none" style="stroke:#FF6F00;stroke-width:1;"/><a href="/use-case/construction-project-quotations/supply-chain-and-subcontractors/subcontractor-scope-packages/" target="_top" title="/use-case/construction-project-quotations/supply-chain-and-subcontractors/subcontractor-scope-packages/" xlink:actuate="onRequest" xlink:href="/use-case/construction-project-quotations/supply-chain-and-subcontractors/subcontractor-scope-packages/" xlink:show="new" xlink:title="/use-case/construction-project-quotations/supply-chain-and-subcontractors/subcontractor-scope-packages/" xlink:type="simple"><text fill="#4051B5" font-family="'Roboto'" font-size="13" lengthAdjust="spacing" textLength="201.373" x="618.6162" y="52.1997">Subcontractor Scope Packages</text></a><path d="M561.6162,75.2656 L561.6162,75.4525 L563.6162,74.8973 L565.6162,75.4374 L567.6162,75.6209 L569.6162,74.6315 L571.6162,75.2656 L571.6162,75.2656 L571.6012,75.2345 L573.3149,74.2335 L575.1045,73.3893 L576.9468,72.654 L578.6074,71.5432 L580.5225,70.9584 L580.7294,71.0915 L581.5056,68.9117 L582.886,67.1205 L584.3402,65.3766 L585.3654,63.357 L586.6162,61.4824 L586.6417,61.4988 L587.823,59.5796 L589.1204,57.735 L590.3619,55.8543 L591.7102,54.0425 L592.71,52.0065 L592.8398,52.275 L594.6226,51.4168 L596.3217,50.3854 L598.1434,49.6076 L599.9708,48.8416 L601.6162,47.6992 L601.6162,47.0582 L603.6162,48.3023 L605.6162,47.4357 L607.6162,48.1737 L609.6162,47.2592 L611.6162,47.6992" fill="none" style="stroke:#FF6F00;stroke-width:1;"/><a href="/use-case/construction-project-quotations/supply-chain-and-subcontractors/subcontractor-bid-solicitation-and-comparison/" target="_top" title="/use-case/construction-project-quotations/supply-chain-and-subcontractors/subcontractor-bid-solicitation-and-comparison/" xlink:actuate="onRequest" xlink:href="/use-case/construction-project-quotations/supply-chain-and-subcontractors/subcontractor-bid-solicitation-and-comparison/" xlink:show="new" xlink:title="/use-case/construction-project-quotations/supply-chain-and-subcontractors/subcontractor-bid-solicitation-and-comparison/" xlink:type="simple"><text fill="#4051B5" font-family="'Roboto'" font-size="13" lengthAdjust="spacing" textLength="289.4722" x="618.6162" y="77.3325">Subcontractor Bid Solicitation &amp; Comparison</text></a><path d="M561.6162,75.2656 L561.6162,75.4525 L563.6162,74.8973 L565.6162,75.4374 L567.6162,75.6209 L569.6162,74.6315 L571.6162,75.2656 L571.6162,75.2656 L571.6134,75.2312 L574.6009,74.8333 L577.6024,74.609 L580.6138,74.5054 L583.5914,73.9859 L586.6162,74.0488 L586.6361,74.2941 L589.5936,73.5263 L592.6091,73.4745 L595.6317,73.5101 L598.6131,73.0374 L601.6162,72.832 L601.6162,72.8927 L603.6162,72.8036 L605.6162,72.9907 L607.6162,73.0446 L609.6162,73.3526 L611.6162,72.832" fill="none" style="stroke:#FF6F00;stroke-width:1;"/><polygon fill="#4051B5" points="615.6162,95.3984,615.6162,95.6086,625.4398,94.9841,635.2634,95.5917,645.087,95.7981,654.9106,94.685,664.7342,95.3207,674.5578,94.9719,684.3814,95.0149,694.205,95.3303,704.0286,94.7071,713.8522,95.9521,723.6758,94.7682,733.4994,95.2007,743.323,95.8304,753.1466,95.3127,762.9702,95.4667,772.7938,95.3665,782.6174,95.577,792.441,95.6376,802.2646,95.9841,812.0882,96.0695,821.9118,96.0777,831.7354,95.6531,841.559,95.862,851.3826,96.1007,861.2062,94.6773,871.0298,95.3984,871.1163,95.6074,871.5576,95.5414,872.2292,96.0315,872.6637,95.9489,873.2838,96.3146,873.8582,96.57,874.0866,96.6646,874.0775,97.1295,874.3593,97.7148,874.6654,98.3103,874.9237,98.8858,875.0298,99.3984,875.0285,99.3984,875.1255,104.825,874.839,110.2516,875.1246,115.6781,875.2125,121.1047,875.0298,126.5313,875.1667,126.588,874.9843,127.1751,874.4124,127.601,874.126,128.1451,873.9012,128.7147,873.8582,129.3597,873.8507,129.3415,873.2675,129.5335,872.8138,130.0382,872.1389,130.0088,871.5517,130.1913,871.0298,130.5313,871.0298,130.7595,861.2062,129.8644,851.3826,130.0121,841.559,131.1802,831.7354,130.9669,821.9118,131.2657,812.0882,130.2095,802.2646,130.8504,792.441,131.1217,782.6174,130.0588,772.7938,130.4354,762.9702,130.6572,753.1466,131.183,743.323,130.5271,733.4994,130.9938,723.6758,129.9775,713.8522,129.854,704.0286,131.0349,694.205,129.8143,684.3814,131.0402,674.5578,130.7379,664.7342,130.2633,654.9106,130.1775,645.087,130.99,635.2634,130.2319,625.4398,131.1231,615.6162,130.5313,615.5457,130.361,615.1293,130.4871,614.5466,130.2118,613.9504,129.9037,613.3595,129.6085,612.7878,129.3597,613.0116,129.4524,612.7424,128.8723,612.3713,128.2499,612.1674,127.6968,611.8104,127.0803,611.6162,126.5313,611.855,126.5313,611.6678,121.1047,611.6737,115.6781,611.4134,110.2516,611.4811,104.825,611.6162,99.3984,611.7797,99.4661,611.9829,98.8876,612.0716,98.2616,612.2199,97.6603,612.486,97.1078,612.7878,96.57,612.7003,96.3587,613.4064,96.4634,614.0135,96.3291,614.552,96.0292,615.1392,95.8468,615.6162,95.3984" style="stroke:#FF6F00;stroke-width:1.5;"/><a href="/use-case/construction-project-quotations/supply-chain-and-subcontractors/bid-leveling/" target="_top" title="/use-case/construction-project-quotations/supply-chain-and-subcontractors/bid-leveling/" xlink:actuate="onRequest" xlink:href="/use-case/construction-project-quotations/supply-chain-and-subcontractors/bid-leveling/" xlink:show="new" xlink:title="/use-case/construction-project-quotations/supply-chain-and-subcontractors/bid-leveling/" xlink:type="simple"><text fill="#4051B5" font-family="'Roboto'" font-size="13" lengthAdjust="spacing" textLength="239.2813" x="621.6162" y="117.4653">Bid Leveling &amp; Comparative Analysis</text></a><path d="M561.6162,75.2656 L561.6162,75.4525 L563.6162,74.8973 L565.6162,75.4374 L567.6162,75.6209 L569.6162,74.6315 L571.6162,75.2656 L571.6162,75.2656 L571.5972,75.2368 L573.2929,76.2856 L575.0847,77.4797 L576.9433,78.7747 L578.5717,79.7217 L580.5225,81.1561 L580.7451,81.2608 L581.4877,83.6287 L582.8804,86.3024 L584.3524,89.0133 L585.363,91.5072 L586.6162,94.1152 L586.6437,94.1281 L587.8221,96.701 L589.1255,99.3326 L590.3686,101.9359 L591.7268,104.5933 L592.71,107.0743 L592.8745,107.3231 L594.6577,108.5042 L596.3349,109.5249 L598.1674,110.7805 L600.0071,112.0471 L601.6162,112.9648 L601.6162,112.3238 L603.6162,113.568 L605.6162,112.7013 L607.6162,113.4393 L609.6162,112.5248 L611.6162,112.9648" fill="none" style="stroke:#FF6F00;stroke-width:1;"/><a href="/use-case/construction-project-quotations/" target="_top" title="/use-case/construction-project-quotations/" xlink:actuate="onRequest" xlink:href="/use-case/construction-project-quotations/" xlink:show="new" xlink:title="/use-case/construction-project-quotations/" xlink:type="simple"><text fill="#4051B5" font-family="'Roboto'" font-size="13" lengthAdjust="spacing" textLength="268.5757" x="14" y="79.7661">Complex Construction Project Quotations</text></a><path d="M343.708,75.2656 L343.708,75.4525 L341.708,74.8973 L339.708,75.4374 L337.708,75.6209 L335.708,74.6315 L333.708,75.2656 L333.708,75.2656 L333.708,75.2311 L327.708,75.0761 L321.708,75.0952 L315.708,75.2353 L309.708,74.9583 L303.708,75.2656 L303.708,75.7578 L301.708,74.7054 L299.708,75.0898 L297.708,75.6496 L295.708,75.1894 L293.708,75.2656" fill="none" style="stroke:#FF6F00;stroke-width:1;"/><!--SRC=[xLXjZzCu4FwUN-5ZfGC4ORUm88GGejlTvQsxBUqkfnD2ApTnMz-wTh2TBhtJ_VSRkqdhf4twiYa74ltKnEDddXaxzippMcaizOZoS8GZp_ij97tA2JfwStLMVtT-rMWrMnraVtk71qzhlQUkIVUaqJe_hdV-JEoMcBJhZG_rDoSpe0MJLkVufEFwGNlz_hF-mS7CvBHrVf4ni2RcDpEfTpgjFx8sAOgdhYcFiCGZrCF1zK2Ac8SDmOH4UrfYhc2CSEsOlPr4H3BAhnEhXB5t5r4Ui3WaI0y96X1E96PeDa-XFbZtX1u-H8mEXXfX7g8GoskOgGKIOo9l9DK4tL0zd6BGCU584Qqf7wXyJYxUlcjyE3_fTb4D5aP4cWgEXW1gK3HCx6EcY4EyZSCGWD2Xywup3LS2MVJSUTyTub3S6EiyoYpyInxQFoGnSMoEIH_7JAD_l5F1zJaU4NId8o1sSSU-cMPkld3sPPV-JL3jqFlNHQfBAMu0P-cCvJ1wmY17WeLPf0XM5mz8mcbXwb5kyJCxt3iI4e9DHfmj2Ixc7hW8Du7FRFtrF0HY50aEsn7SR4buARjfpk8HUvpDMOWrxc55AdQNyH4m4OSxTI0O8u7vEbJbRkPU6c0W1TkXXoC3YULaXovEkAPwbmuerqJsSK1swADBliQ41wGD5nSDQ8Ivde9T36bmpObIS63EpLLY3epS6QNa5g2Ny7HiviSI5tA4MNvi8PmcxPCcdAo5u3E3Kfhsy5m0jsyBaUteKb9sP9x39ruzq4AkO61D2dsPqQ8F-2vg72AJDRY4u65lvS_zvYLyy9WF67dv4cuh9VYhLx2-NTXyH6Yum0flZwhkXVoEoz_PsIFAeKk-0KcEsLNrl7Fbs0x8gudIPFJpvRfwtZlATNeX_nofdhFz-JBjR9DUSl5EMUSAusmKjeOzM5tjRHLxUM3J2oR4QaZ2TM9T6ce0ZZ7SAtBTMA5UBzzAEuYqV0atRaFI1cuUqvFf_TE2ZanIgEd31CSqS4ahR8jzXNmqYfKsTJb1k0-XfZvpRO7ZBMbD2tiSfrSj8kcM4lDav6ftQDprwZ9h-KsljQIzM9FYEc2HQqa3awdsiLBRiIfpS1UT9UkY8XBGFWqWVbiwm1BT34rNhU4CWlfJcGMrY_SGzLXCOEqu9wOGKKZ4sWmljdGLivtZusnD1Osyz-0AVVwCzcD5_03EpdtWfxICRGFZHrBy1MJzhx60vJKjpRwAeuXD_608twqFtR-lufxvZ2MsGUsZhZL03ME0VeT7TnXz-U8zgDgb7QT4-hB_LLc34Un5IJ43DAXx-I1X1JQeS_fH0Qspn0ArfnOx8kOy-YeG4V4JNS0coXb5NJEAsideTw3Jes0W64G_dMzdc8uVImgLO9xV4GrHrp6773PcnbEwrR8r_1WP4sRNpxXl9aypru0q9gWE5_r4KPiptzymPnQ9aM-cePuPmgQmXkZZpD20loRmpQVIvEkiKbcThlS3AsZfPRAcVEQQBm7OG3XBv-KFnZHfxkcNAgsbKjbj0SkKiJACHGPRQ66RELXB_ReDPAdUjIdmEWhNzfWbcjRse8KgrlQGPRhLzgWxKQfIEWKQLSfiOtag3M2PDfM25ibIAIUdT4pX5jIe52idH6NiLwfGCuTv_Mc6dfMUd0zfAnMf-6JTPBSiBlvjLQBlpMj5U_-_fUb7uBMsTlETsVnGIQfKTabvR1XD8UjIYQMsIqsbwaXo-QzACzbQz5XoNrOcUBX8kRjaKUV8N3FBCfSlGTVGDee9h8Giq1zkWVXBSVYbEFnI72fH7DeC2kJBioOQGn5cvjGUFJvu_FHHhTOZ6jSExbtoQovkk6rEAPnWcex8VU_UctOJAH5BgEH3ggP744o_xxt7OumwCJTsBr0h8lpzyOVq1RGrOoe57ndLulsdixd1iqF_Y6he9YGGGP_ElFGCF-61C7h52tHvSUe_zvfm8yMmjruWmk7W1LmvWR7kVm00]--></g></svg>