<svg xmlns="http://www.w3.org/2000/svg" xmlns:xlink="http://www.w3.org/1999/xlink" contentStyleType="text/css" data-diagram-type="MINDMAP" height="157px" preserveAspectRatio="none" style="width:987px;height:157px;" version="1.1" viewBox="0 0 987 157" width="987px" zoomAndPan="magnify"><defs/><g><a href="/use-case/construction-project-quotations/supply-chain-and-subcontractors/" target="_top" title="/use-case/construction-project-quotations/supply-chain-and-subcontractors/" xlink:actuate="onRequest" xlink:href="/use-case/construction-project-quotations/supply-chain-and-subcontractors/" xlink:show="new" xlink:title="/use-case/construction-project-quotations/supply-chain-and-subcontractors/" xlink:type="simple"><text fill="#90EE90" font-family="'Roboto'" font-size="14" lengthAdjust="spacing" textLength="218.374" x="371.6855" y="82.4404">Supply Chain &amp; Subcontractors</text></a><a href="/use-case/construction-project-quotations/supply-chain-and-subcontractors/supplier-rfqs-and-material-pricing/" target="_top" title="/use-case/construction-project-quotations/supply-chain-and-subcontractors/supplier-rfqs-and-material-pricing/" xlink:actuate="onRequest" xlink:href="/use-case/construction-project-quotations/supply-chain-and-subcontractors/supplier-rfqs-and-material-pricing/" xlink:show="new" xlink:title="/use-case/construction-project-quotations/supply-chain-and-subcontractors/supplier-rfqs-and-material-pricing/" xlink:type="simple"><text fill="#90EE90" font-family="'Roboto'" font-size="14" lengthAdjust="spacing" textLength="226.8027" x="655.5098" y="27.9951">Supplier RFQs &amp; Material Pricing</text></a><path d="M598.5098,77.5938 L598.5098,77.7806 L600.5098,77.2255 L602.5098,77.7656 L604.5098,77.949 L606.5098,76.9596 L608.5098,77.5938 L608.5098,77.5938 L608.4859,77.5688 L610.1601,75.7553 L611.9545,74.0677 L613.8326,72.4676 L615.4225,70.5659 L617.416,69.0867 L617.65,69.1629 L618.3684,65.2568 L619.7699,61.5732 L621.2548,57.9168 L622.2548,54.1024 L623.5098,50.3711 L623.5386,50.3805 L624.715,46.6236 L626.0227,42.9094 L627.2671,39.1747 L628.6323,35.4792 L629.6035,31.6555 L629.8095,31.8712 L631.5933,30.1724 L633.2442,28.3345 L635.0896,26.7003 L636.9441,25.0755 L638.5098,23.1484 L638.5098,22.5074 L640.5098,23.7516 L642.5098,22.8849 L644.5098,23.6229 L646.5098,22.7084 L648.5098,23.1484" fill="none" style="stroke:#FF9900;stroke-width:1;"/><a href="/use-case/construction-project-quotations/supply-chain-and-subcontractors/subcontractor-scope-packages/" target="_top" title="/use-case/construction-project-quotations/supply-chain-and-subcontractors/subcontractor-scope-packages/" xlink:actuate="onRequest" xlink:href="/use-case/construction-project-quotations/supply-chain-and-subcontractors/subcontractor-scope-packages/" xlink:show="new" xlink:title="/use-case/construction-project-quotations/supply-chain-and-subcontractors/subcontractor-scope-packages/" xlink:type="simple"><text fill="#90EE90" font-family="'Roboto'" font-size="14" lengthAdjust="spacing" textLength="216.8633" x="655.5098" y="54.292">Subcontractor Scope Packages</text></a><path d="M598.5098,77.5938 L598.5098,77.7806 L600.5098,77.2255 L602.5098,77.7656 L604.5098,77.949 L606.5098,76.9596 L608.5098,77.5938 L608.5098,77.5938 L608.4945,77.5628 L610.2071,76.5442 L611.9968,75.6816 L613.8401,74.9277 L615.4987,73.7997 L617.416,73.1956 L617.6242,73.3267 L618.3977,71.1111 L619.7791,69.2783 L621.2347,67.4922 L622.2588,65.4344 L623.5098,63.5195 L623.5354,63.5357 L624.7165,61.5768 L626.0144,59.6914 L627.2559,57.7706 L628.605,55.9174 L629.6035,53.8435 L629.7356,54.1109 L631.5184,53.2346 L633.2161,52.1857 L635.0385,51.3893 L636.8667,50.6048 L638.5098,49.4453 L638.5098,48.8043 L640.5098,50.0484 L642.5098,49.1818 L644.5098,49.9198 L646.5098,49.0053 L648.5098,49.4453" fill="none" style="stroke:#FF9900;stroke-width:1;"/><a href="/use-case/construction-project-quotations/supply-chain-and-subcontractors/subcontractor-bid-solicitation-and-comparison/" target="_top" title="/use-case/construction-project-quotations/supply-chain-and-subcontractors/subcontractor-bid-solicitation-and-comparison/" xlink:actuate="onRequest" xlink:href="/use-case/construction-project-quotations/supply-chain-and-subcontractors/subcontractor-bid-solicitation-and-comparison/" xlink:show="new" xlink:title="/use-case/construction-project-quotations/supply-chain-and-subcontractors/subcontractor-bid-solicitation-and-comparison/" xlink:type="simple"><text fill="#90EE90" font-family="'Roboto'" font-size="14" lengthAdjust="spacing" textLength="311.7393" x="655.5098" y="80.5889">Subcontractor Bid Solicitation &amp; Comparison</text></a><path d="M598.5098,77.5938 L598.5098,77.7806 L600.5098,77.2255 L602.5098,77.7656 L604.5098,77.949 L606.5098,76.9596 L608.5098,77.5938 L608.5098,77.5938 L608.5076,77.5593 L611.4981,77.2194 L614.4993,77.0533 L617.5079,77.008 L620.4908,76.5464 L623.5098,76.668 L623.5249,76.9136 L626.4925,76.2032 L629.5044,76.2099 L632.5216,76.3041 L635.5074,75.8893 L638.5098,75.7422 L638.5098,75.8028 L640.5098,75.7138 L642.5098,75.9009 L644.5098,75.9548 L646.5098,76.2628 L648.5098,75.7422" fill="none" style="stroke:#FF9900;stroke-width:1;"/><polygon fill="#4051B5" points="652.5098,98.8906,652.5098,99.1008,662.663,98.4763,672.8163,99.0839,682.9695,99.2903,693.1228,98.1772,703.276,98.8129,713.4293,98.4641,723.5825,98.5071,733.7357,98.8225,743.889,98.1993,754.0422,99.4443,764.1955,98.2603,774.3487,98.6929,784.502,99.3226,794.6552,98.8048,804.8085,98.9589,814.9617,98.8587,825.115,99.0692,835.2682,99.1298,845.4215,99.4763,855.5747,99.5617,865.728,99.5699,875.8812,99.1453,886.0345,99.3542,896.1877,99.5929,906.341,98.1694,916.4942,99.5691,926.6475,98.8906,926.6096,98.7993,927.2812,99.2893,927.7157,99.2068,928.3358,99.5725,929.0048,100.0563,929.4759,100.0622,929.4609,100.056,929.7426,100.6413,930.0488,101.2368,930.307,101.8123,930.4119,102.3244,930.6475,102.8906,930.7432,102.8906,930.4567,108.55,930.7423,114.2094,930.8302,119.8688,930.7956,125.5281,930.6475,131.1875,930.8362,131.2657,930.2644,131.6916,929.978,132.2357,929.7532,132.8053,929.6921,133.4427,929.4759,134.0159,929.4508,133.9554,928.9971,134.4601,928.3222,134.4308,927.7351,134.6132,927.2423,135.0235,926.6475,135.1875,926.6475,134.5207,916.4942,134.6684,906.341,135.8365,896.1877,135.6232,886.0345,135.922,875.8812,134.8657,865.728,135.5067,855.5747,135.7779,845.4215,134.7151,835.2682,135.0916,825.115,135.3135,814.9617,135.8393,804.8085,135.1833,794.6552,135.6501,784.502,134.6337,774.3487,134.5102,764.1955,135.6911,754.0422,134.4706,743.889,135.6965,733.7357,135.3941,723.5825,134.9196,713.4293,134.8337,703.276,135.6463,693.1228,134.8882,682.9695,135.7794,672.8163,134.6348,662.663,135.8049,652.5098,135.1875,652.5715,135.3366,651.9753,135.0286,651.3844,134.7334,650.9054,134.7083,650.3253,134.4392,649.6813,134.0159,649.7335,134.0375,649.5296,133.4845,649.1726,132.8679,649.199,132.4103,648.7918,131.7729,648.5098,131.1875,648.5673,131.1875,648.307,125.5281,648.3747,119.8688,648.6867,114.2094,648.653,108.55,648.5098,102.8906,648.4965,102.8851,648.6449,102.2838,648.911,101.7313,649.0014,101.106,649.5747,100.6808,649.6813,100.0622,649.7757,100.29,650.3142,99.99,650.9014,99.8076,651.361,99.3171,651.9552,99.1518,652.5098,98.8906" style="stroke:#FF6F00;stroke-width:1.5;"/><a href="/use-case/construction-project-quotations/supply-chain-and-subcontractors/bid-leveling/" target="_top" title="/use-case/construction-project-quotations/supply-chain-and-subcontractors/bid-leveling/" xlink:actuate="onRequest" xlink:href="/use-case/construction-project-quotations/supply-chain-and-subcontractors/bid-leveling/" xlink:show="new" xlink:title="/use-case/construction-project-quotations/supply-chain-and-subcontractors/bid-leveling/" xlink:type="simple"><text fill="#90EE90" font-family="'Roboto'" font-size="14" lengthAdjust="spacing" textLength="257.6875" x="658.5098" y="121.8857">Bid Leveling &amp; Comparative Analysis</text></a><path d="M598.5098,77.5938 L598.5098,77.7806 L600.5098,77.2255 L602.5098,77.7656 L604.5098,77.949 L606.5098,76.9596 L608.5098,77.5938 L608.5098,77.5938 L608.4901,77.5653 L610.1832,78.6705 L611.9753,79.9189 L613.8363,81.2668 L615.4599,82.2717 L617.416,83.7571 L617.6405,83.8579 L618.3793,86.3541 L619.7733,89.1448 L621.2474,91.9714 L622.2562,94.5889 L623.5098,97.3164 L623.5374,97.3288 L624.7156,100.0225 L626.0196,102.7727 L627.263,105.4956 L628.6222,108.2706 L629.6035,110.8757 L629.7732,111.121 L631.5566,112.3566 L633.2304,113.4341 L635.0645,114.7432 L636.9061,116.063 L638.5098,117.0391 L638.5098,116.398 L640.5098,117.6422 L642.5098,116.7755 L644.5098,117.5136 L646.5098,116.599 L648.5098,117.0391" fill="none" style="stroke:#FF9900;stroke-width:1;"/><a href="/use-case/construction-project-quotations/" target="_top" title="/use-case/construction-project-quotations/" xlink:actuate="onRequest" xlink:href="/use-case/construction-project-quotations/" xlink:show="new" xlink:title="/use-case/construction-project-quotations/" xlink:type="simple"><text fill="#90EE90" font-family="'Roboto'" font-size="14" lengthAdjust="spacing" textLength="289.2354" x="14" y="82.4404">Complex Construction Project Quotations</text></a><path d="M364.6855,77.5938 L364.6855,77.7806 L362.6855,77.2255 L360.6855,77.7656 L358.6855,77.949 L356.6855,76.9596 L354.6855,77.5938 L354.6855,77.5938 L354.6855,77.5592 L348.6855,77.4042 L342.6855,77.4233 L336.6855,77.5635 L330.6855,77.2865 L324.6855,77.5938 L324.6855,78.0859 L322.6855,77.0335 L320.6855,77.418 L318.6855,77.9777 L316.6855,77.5175 L314.6855,77.5938" fill="none" style="stroke:#FF9900;stroke-width:1;"/><!--SRC=[xLXjRzf84FxkNx7NIDTMFJUGIwesgge0UMaJ4YWabKvL5Its07kONMTtJSgTxh_VsCQm6720u5noIZu5xxFFF3CUxyxCWT9KwZxZRf_wblMB2st6WPHFhizBNowkAxLghK6YlwtTmbwnjMT2caULsiLXgV7723S7KYzLpaedHsEY6KYjSNZKCEsGhNRxNRjG64EEQnUNKu084lvPbkenxbD9-wH5dLv7Ye2x5U49cG2rf5mX0hWsm9-7FiWgupqJIxOyrkdgZWJWblMICEvuWGj4Tu5qW8Ea7XbJADB6ZIsXkx-HQ1kXt2KkbJtSgGKH0v2tacaWjqntOmus04uKQCruHwKZSFdvI-NiugZP94Ly3SBNJ73IHTAGHUF6DlKK63xKgUiY4TardZLY_oMA9U-DvyqkTSLjY4wpH97mC19Nt8t-WH74m1n2cmQU9dzRnuBh2ze7yg8Xq7Vn8deI1t7ocgA7JVONaEAkzO_9L99It2BFt1tpQVJGmnW9pvrcyl5rqmwCDCriBQUoOIgVhRAGwEnenKX0D36nm8Mx2lrKeYzdmH5zNt3CJ3Ipfk2vwkAO1NrlPpfcBjMqHHLisDoK3SSJWPkh0U5vu8HVXzgucOcL2WAay7AqK0ufgHpcQEA8QwRpDC2u1jcc3kHeemat0N07wdXDCOVvbEkOxBBBd1u7fV30dC3L28wAp1sPucQev-WqC9DZYGlPfrvwRSQTAci3NZQma7mCo9GP7PupvD7JXSpHwbnHqSeaXhzR9KSBUOU22BBGLhYww0D-IIgx98mQNaBuO-lEF_ERb_Z1KzxnuED7lAsKu9y-uVjjOlA1q7Y1BRmzDdKlf3CkVMTF7r66NFY98ZdrhZUlErLyvI1U3PM6_jEBzUPrvnJhv49-6g6Ug7rwaJRIf3MwU6FLgS9usekeXYtSNUsjvNksO_45urBL1NSPN-Uwwg1XYlUANDPNhDUpKoa7JxDVeNcrQwhdLHf9IpandhI79QqbQmKQPfTCKKd3cIfagL8vMtj9pkF6coWV7DPc3ZePNv4pVSZoEkvqZKuAYQtZumyVS3srQDPMblNccdp_JhO31RQ3t_ysffNICeYASDkNua_CEFic4FX-mh9yMmM-xmrjfukvPsC7QwkW5QQYf665eBP9CmAGIWWWl-9FSvdy-66zsRJ9Q9s1j6NxHaM0FYQJPDH3DgpTU6Ua2Z6aSVnLeQpp4OBKOqHEmeoVjdA43_Qejuq2PQoIPhYAVN-y-W1oMWm1maFlu_tHZh1hfP9XDPFMLsOkQHfmZ65b38xbRbPjgC-30NZH-mlDLqU_ngQHQG2aX9VLKB4ePhQzOimY9Wz-XatX68X94G79rp4m93y0_9wJOTh1z6mjns7L8nuB9QVIaZCX4pw7O8LfqFWuN71mpZycC-O_zoNC6lTaSSmgM6F0ivg1fKOwzw7C7EAiIhpCs6Pzpen1pVga2qSpwrDc3MFMPyrb_9B8MJ1uIPIjF7D979WtS4b85yrQ4at6b6LSsAL7B0bNQheoXRzpj38sc1wgZDcdvod6XxJMQ6JnoRfAjio-_FkEFXvQrnqzwtyMfiUWQ-c1n0EhULH1skWi8T6neZSBLMVE3Ofv3WesxKag_l_hGS1pj__SxJzt-q-xswzxM8jUdLV90EkTS4_nxKvXP-zjiTW2JOk5LrUynyKjZ_f0XeUqPdruRRqwgLU94e74ejbbAZuvSFjhwvGEA6a4FCJjaveF_FJmB7c07SI0IS7xuQpWzDlv1F1kroupZOMxH27asxcLzEb7t17XQ62VN5qUs- -jAXx-0URMFW6EtJVooY6kDVy5]--></g></svg>