<svg xmlns="http://www.w3.org/2000/svg" xmlns:xlink="http://www.w3.org/1999/xlink" contentStyleType="text/css" data-diagram-type="MINDMAP" height="130px" preserveAspectRatio="none" style="width:917px;height:130px;" version="1.1" viewBox="0 0 917 130" width="917px" zoomAndPan="magnify"><defs/><g><a href="/use-case/construction-project-quotations/opportunity-and-tender-intake/" target="_top" title="/use-case/construction-project-quotations/opportunity-and-tender-intake/" xlink:actuate="onRequest" xlink:href="/use-case/construction-project-quotations/opportunity-and-tender-intake/" xlink:show="new" xlink:title="/use-case/construction-project-quotations/opportunity-and-tender-intake/" xlink:type="simple"><text fill="#90EE90" font-family="'Roboto'" font-size="14" lengthAdjust="spacing" textLength="201.3662" x="371.6855" y="69.292">Opportunity &amp; Tender Intake</text></a><a href="/use-case/construction-project-quotations/opportunity-and-tender-intake/rfp-rfq-intake/" target="_top" title="/use-case/construction-project-quotations/opportunity-and-tender-intake/rfp-rfq-intake/" xlink:actuate="onRequest" xlink:href="/use-case/construction-project-quotations/opportunity-and-tender-intake/rfp-rfq-intake/" xlink:show="new" xlink:title="/use-case/construction-project-quotations/opportunity-and-tender-intake/rfp-rfq-intake/" xlink:type="simple"><text fill="#90EE90" font-family="'Roboto'" font-size="14" lengthAdjust="spacing" textLength="258.542" x="638.502" y="27.9951">RFP/RFQ Intake &amp; Document Catalog</text></a><path d="M581.502,64.4453 L581.502,64.6321 L583.502,64.077 L585.502,64.6171 L587.502,64.8006 L589.502,63.8112 L591.502,64.4453 L591.502,64.4453 L591.4817,64.4173 L593.172,63.0013 L594.9645,61.7262 L596.8279,60.5492 L598.4467,59.0344 L600.4082,57.9927 L600.6343,58.0897 L601.3695,55.043 L602.7649,52.2797 L604.2409,49.5509 L605.2482,46.621 L606.502,43.7969 L606.5298,43.8088 L607.7077,40.9521 L609.0124,38.1499 L610.2559,35.3213 L611.6162,32.5429 L612.5957,29.6011 L612.7707,29.8426 L614.5541,28.555 L616.2246,27.1117 L618.0603,25.8963 L619.9038,24.6917 L621.502,23.1484 L621.502,22.5074 L623.502,23.7516 L625.502,22.8849 L627.502,23.6229 L629.502,22.7084 L631.502,23.1484" fill="none" style="stroke:#FF9900;stroke-width:1;"/><polygon fill="#4051B5" points="635.502,46.2969,635.502,46.5071,645.2642,45.8826,655.0265,46.4902,664.7887,46.6966,674.551,45.5835,684.3133,46.2192,694.0755,45.8704,703.8378,45.9134,713.6,46.2287,723.3623,45.6055,733.1246,46.8505,742.8868,45.6666,752.6491,46.0991,762.4113,46.7288,772.1736,46.2111,781.9359,46.3651,791.6981,46.2649,801.4604,46.4754,811.2227,46.2969,811.2532,46.3705,811.8631,46.7116,812.4396,46.9722,813.0064,47.209,813.5179,47.3125,814.0511,47.4684,814.1938,47.5276,814.5017,48.1237,814.2976,48.5078,814.963,49.2521,814.897,49.6934,815.2227,50.2969,815.4006,50.2969,815.0576,55.9563,815.1998,61.6156,815.4699,67.275,815.2064,72.9344,815.2227,78.5938,815.2551,78.6072,815.0926,79.2026,814.8822,79.7782,814.5185,80.2903,814.3738,80.8931,814.0511,81.4222,813.9781,81.2459,813.5217,81.7441,812.9896,82.0596,812.4107,82.262,811.8665,82.5482,811.2227,82.5938,811.2227,82.1107,801.4604,81.9416,791.6981,81.9723,781.9359,82.5349,772.1736,82.3972,762.4113,83.2752,752.6491,82.4191,742.8868,82.2507,733.1246,82.822,723.3623,81.9269,713.6,82.0746,703.8378,83.2427,694.0755,83.0294,684.3133,83.3282,674.551,82.272,664.7887,82.9129,655.0265,83.1842,645.2642,82.1213,635.502,82.5938,635.4897,82.5642,634.9523,82.3982,634.4537,82.3258,633.8044,81.8895,633.2982,81.7989,632.6735,81.4222,632.503,81.3515,632.2306,80.7701,632.36,80.355,631.7498,79.6337,631.893,79.2244,631.502,78.5938,631.5708,78.5938,631.4126,72.9344,631.384,67.275,631.6549,61.6156,631.4022,55.9563,631.502,50.2969,631.6842,50.3724,631.566,49.6607,632.1607,49.2443,632.354,48.6616,632.5147,48.0654,632.6735,47.4684,632.6795,47.483,633.3319,47.4579,633.8832,47.1888,634.3922,46.8176,634.9705,46.6138,635.502,46.2969" style="stroke:#FF6F00;stroke-width:1.5;"/><a href="/use-case/construction-project-quotations/opportunity-and-tender-intake/bid-no-bid-decisioning/" target="_top" title="/use-case/construction-project-quotations/opportunity-and-tender-intake/bid-no-bid-decisioning/" xlink:actuate="onRequest" xlink:href="/use-case/construction-project-quotations/opportunity-and-tender-intake/bid-no-bid-decisioning/" xlink:show="new" xlink:title="/use-case/construction-project-quotations/opportunity-and-tender-intake/bid-no-bid-decisioning/" xlink:type="simple"><text fill="#90EE90" font-family="'Roboto'" font-size="14" lengthAdjust="spacing" textLength="159.2705" x="641.502" y="69.292">Bid/No-Bid Decisioning</text></a><path d="M581.502,64.4453 L581.502,64.6321 L583.502,64.077 L585.502,64.6171 L587.502,64.8006 L589.502,63.8112 L591.502,64.4453 L591.502,64.4453 L591.502,64.4108 L597.502,64.2558 L603.502,64.2749 L609.502,64.415 L615.502,64.138 L621.502,64.4453 L621.502,64.9374 L623.502,63.8851 L625.502,64.2695 L627.502,64.8293 L629.502,64.3691 L631.502,64.4453" fill="none" style="stroke:#FF9900;stroke-width:1;"/><a href="/use-case/construction-project-quotations/opportunity-and-tender-intake/site-visit-and-existing-conditions/" target="_top" title="/use-case/construction-project-quotations/opportunity-and-tender-intake/site-visit-and-existing-conditions/" xlink:actuate="onRequest" xlink:href="/use-case/construction-project-quotations/opportunity-and-tender-intake/site-visit-and-existing-conditions/" xlink:show="new" xlink:title="/use-case/construction-project-quotations/opportunity-and-tender-intake/site-visit-and-existing-conditions/" xlink:type="simple"><text fill="#90EE90" font-family="'Roboto'" font-size="14" lengthAdjust="spacing" textLength="215.291" x="638.502" y="110.5889">Site Visit &amp; Existing Conditions</text></a><path d="M581.502,64.4453 L581.502,64.6321 L583.502,64.077 L585.502,64.6171 L587.502,64.8006 L589.502,63.8112 L591.502,64.4453 L591.502,64.4453 L591.4817,64.4173 L593.172,65.5823 L594.9645,66.8883 L596.8279,68.2924 L598.4467,69.3586 L600.4082,70.8979 L600.6343,70.995 L601.3695,73.6266 L602.7649,76.5416 L604.2409,79.4912 L605.2482,82.2396 L606.502,85.0938 L606.5298,85.1057 L607.7077,87.9273 L609.0124,90.8034 L610.2559,93.6532 L611.6162,96.5531 L612.5957,99.2896 L612.7707,99.5311 L614.5541,100.8246 L616.2246,101.9622 L618.0603,103.328 L619.9038,104.7044 L621.502,105.7422 L621.502,105.1011 L623.502,106.3453 L625.502,105.4786 L627.502,106.2167 L629.502,105.3022 L631.502,105.7422" fill="none" style="stroke:#FF9900;stroke-width:1;"/><a href="/use-case/construction-project-quotations/" target="_top" title="/use-case/construction-project-quotations/" xlink:actuate="onRequest" xlink:href="/use-case/construction-project-quotations/" xlink:show="new" xlink:title="/use-case/construction-project-quotations/" xlink:type="simple"><text fill="#90EE90" font-family="'Roboto'" font-size="14" lengthAdjust="spacing" textLength="289.2354" x="14" y="69.292">Complex Construction Project Quotations</text></a><path d="M364.6855,64.4453 L364.6855,64.6321 L362.6855,64.077 L360.6855,64.6171 L358.6855,64.8006 L356.6855,63.8112 L354.6855,64.4453 L354.6855,64.4453 L354.6855,64.4108 L348.6855,64.2558 L342.6855,64.2749 L336.6855,64.415 L330.6855,64.138 L324.6855,64.4453 L324.6855,64.9374 L322.6855,63.8851 L320.6855,64.2695 L318.6855,64.8293 L316.6855,64.3691 L314.6855,64.4453" fill="none" style="stroke:#FF9900;stroke-width:1;"/><!--SRC=[xLXjRzf84FxkNx7NI7rHpmLoITL6LHL284r2W48IwLHLqMAlOG-pw-okINAd- -ytjh6nZJ4lmRtahdn9wttscMTctsRcK2eir9WoSumTJVl591Pb11sTt5nKJritjNQptKN-RsUll5_fxySXlNgjtJgkTd-VuZ8WdMhjl7fIZuZc8EtkSRqRjuDsBEkzLIv7a4QxTPa0-13lfsboH9c31HwZFZP60y5TPjQupKK8L08p2GZ2L0pyvS4XeadPA8v5EpOT3DL04C8qxHMYpB1Tao0r96X0617OHX65H1PCx7Cr_1Nvqn1c9ZAn6C5CnH6V474dg2BeZgfXm44dX259bA9i8DCHkFnoMZjlrNizL85bu8wYdA4Xa7ei2YPQs9OavaC7coOGeRtOjsxWlm2nw4FiUs-8JNxdeTCiVYHiYCGLC_r_a2aaXZac5dPjXVxI6fof5XuJzABBmNV-mlyI176sJFx77lsJeCgUzdUSgIe4lmEUp1dPDEh1XXXnsqmoER3SU42cckQc7gLsGs8_QqTSWBFJaTW611Cp2uoRwz0dDlfg5Wm-TZY3dGbcDXISgIw8cJksTvCnCx72VIp9biqbR1WsTyr23N3R9ePtEkJMpSoir00Wk5sWXIEF4ek70atKcQAgI0EKAI8iR902RVJ8hKkOGJhmJ563EfYfWEnoI8qH8rB2XJc3ooaS5CLdv8gReyxG6SFChYN6nHZRwR4vTvhK8l3Oa8Na4I1Nfdzvpf7xNnSo-wEPeloHMGn_qwg6ucA90X-oq9OtkkW0lqArFUH53HuX-C_Eqb_yp0iuy9WDRFBf4xnMahFFds5zUx3v25VmW2ryFRRrBgHtNFhDJbvHCRda7aGoRDziNtSg-If0l7oGYeoVNwothxkWM8SFylC8zKpjyujqR9lqfmzle3gL62Uzy7FOyl9iRoFVynqB7XWJoo4nL_4rqrK336DuLyIglaA-dh-L2l0qVmdZJxl2AYlJ24lAcV6mFAmg9MZVLMH-A2ugB3XJYIoMic1hhz15K7WZwH23MjG09uCdSguEMLt7KjVmB97OQJG-VeJnr60yjzAqjpVespTKSYNH3JZ_9TXMKWdNJy9rH_0_OCVfjow7zV7IyX9t72wKoo3vrA60rQ5w1K4wP8juH4geFHj6Bz6bFuXE_K7q_RlsThlcXENemhgDh7SRdLAtyJKq-18TSyCTUqLO3Uutcmy23TkKqAUcphZk_J5XcILCWIKkeIDgbbfSXpzGOaVV2uY1f8he4p2W_45oJwNNWz21rQG10UfvlOfh3mCngKyHNXqqHNYoT7rDMJ1_xDZatkE9WAWJ0D7N2EYH7uBag0zrc6nB5TZdUS8TbV10hzXEYSCp2DPef4GtoO8x9_k6oMcTF9OmhrEInp6lO8FUo7e6Lkg6F8Ooj_-nBl4g7O_DENDw79kJBkngR4wPryVOdBMGpaKePq7F8bIsThiYT22hLn6IBcfJX9fY3Oee9qft9qAkL6CYWL_QbOWCfliH4Nko5H4xI1jr5HRVhElibld5VspNu4VhMbBk_MjXUWgwLgxbVx2Q9nMahPRXeOurlLceEhVahXHPOs_RarJy_zCrzCz2-MUX_3ykb3isf75N5qqqWLJ1crDvjrlUtNzNgVI9mfNowoisOloE-IKKXVjDqJ5vexq-wJIHvAw0VDC45_n31zFVQ6TuWb7NPHxk0BOWOMV7v-47IBudL73cRGFjxFfY1dY_1ykZ8ESL80HTNsXXYLjd1lUgwWDqTTdGFsXDk3TTA3WF45JVDJYcIZp0MEyV]--></g></svg>