<svg xmlns="http://www.w3.org/2000/svg" xmlns:xlink="http://www.w3.org/1999/xlink" contentStyleType="text/css" data-diagram-type="MINDMAP" height="127px" preserveAspectRatio="none" style="width:863px;height:127px;" version="1.1" viewBox="0 0 863 127" width="863px" zoomAndPan="magnify"><defs/><g><a href="/use-case/construction-project-quotations/opportunity-and-tender-intake/" target="_top" title="/use-case/construction-project-quotations/opportunity-and-tender-intake/" xlink:actuate="onRequest" xlink:href="/use-case/construction-project-quotations/opportunity-and-tender-intake/" xlink:show="new" xlink:title="/use-case/construction-project-quotations/opportunity-and-tender-intake/" xlink:type="simple"><text fill="#4051B5" font-family="'Roboto'" font-size="13" lengthAdjust="spacing" textLength="186.9829" x="350.708" y="67.1997">Opportunity &amp; Tender Intake</text></a><a href="/use-case/construction-project-quotations/opportunity-and-tender-intake/rfp-rfq-intake/" target="_top" title="/use-case/construction-project-quotations/opportunity-and-tender-intake/rfp-rfq-intake/" xlink:actuate="onRequest" xlink:href="/use-case/construction-project-quotations/opportunity-and-tender-intake/rfp-rfq-intake/" xlink:show="new" xlink:title="/use-case/construction-project-quotations/opportunity-and-tender-intake/rfp-rfq-intake/" xlink:type="simple"><text fill="#4051B5" font-family="'Roboto'" font-size="13" lengthAdjust="spacing" textLength="240.0747" x="602.8232" y="27.0669">RFP/RFQ Intake &amp; Document Catalog</text></a><path d="M545.8232,62.6992 L545.8232,62.886 L547.8232,62.3309 L549.8232,62.871 L551.8232,63.0545 L553.8232,62.0651 L555.8232,62.6992 L555.8232,62.6992 L555.8034,62.671 L557.4954,61.2901 L559.2876,60.0516 L561.1496,58.912 L562.7713,57.4314 L564.7295,56.4285 L564.9546,56.5279 L565.692,53.5562 L567.0866,50.8747 L568.5613,48.2286 L569.5696,45.3765 L570.8232,42.6328 L570.851,42.6451 L572.029,39.8679 L573.3333,37.1466 L574.5767,34.3984 L575.9364,31.7015 L576.917,28.8372 L577.0887,29.081 L578.872,27.8299 L580.5446,26.4214 L582.3794,25.2432 L584.2217,24.0758 L585.8232,22.5664 L585.8232,21.9254 L587.8232,23.1695 L589.8232,22.3028 L591.8232,23.0409 L593.8232,22.1264 L595.8232,22.5664" fill="none" style="stroke:#FF6F00;stroke-width:1;"/><polygon fill="#4051B5" points="599.8232,45.1328,599.8232,45.343,610.0749,44.7185,620.3265,45.3261,630.5782,45.5325,640.8298,44.4194,651.0815,45.0551,661.3331,44.7063,671.5848,44.7493,681.8364,45.0647,692.0881,44.4414,702.3397,45.6865,712.5914,44.5025,722.843,44.935,733.0947,45.5648,743.3463,45.047,753.598,45.2011,763.8496,45.1328,763.8455,45.123,764.4381,45.4221,765.0115,45.6751,765.6214,46.0161,766.198,46.2767,766.678,46.3044,766.8872,46.391,766.9908,46.9026,767.2894,47.4949,767.5972,48.091,767.3932,48.4751,767.8496,49.1328,768.0758,49.1328,767.7508,54.5594,768.0275,59.9859,767.6846,65.4125,767.8268,70.8391,767.8496,76.2656,768.078,76.3602,767.6003,76.8251,767.4134,77.4104,767.2509,78.0059,767.0405,78.5815,766.678,79.0941,766.6775,79.0928,766.149,79.4168,765.4736,79.3864,765.0173,79.8846,764.4852,80.2001,763.8496,80.2656,763.8496,80.7102,753.598,80.8786,743.3463,79.7825,733.0947,79.6134,722.843,79.6442,712.5914,80.2067,702.3397,80.0691,692.0881,80.947,681.8364,80.0909,671.5848,79.9226,661.3331,80.4939,651.0815,79.5988,640.8298,79.7465,630.5782,80.9146,620.3265,80.7013,610.0749,81.0001,599.8232,80.2656,599.7822,80.1665,599.2983,80.1296,598.7672,79.9788,598.0659,79.4172,597.5483,79.2988,596.9948,79.0941,597.0336,79.1101,596.9612,78.6115,596.5249,77.9621,596.4343,77.456,595.887,76.7607,595.8232,76.2656,595.5975,76.2656,595.9911,70.8391,595.5843,65.4125,595.9929,59.9859,595.8921,54.5594,595.8232,49.1328,595.7407,49.0986,595.9486,48.522,596.4332,48.06,596.434,47.3976,596.9428,46.9456,596.9948,46.3044,596.9243,46.1342,597.6393,46.2602,598.188,45.9849,598.7231,45.6769,599.2636,45.3817,599.8232,45.1328" style="stroke:#FF6F00;stroke-width:1.5;"/><a href="/use-case/construction-project-quotations/opportunity-and-tender-intake/bid-no-bid-decisioning/" target="_top" title="/use-case/construction-project-quotations/opportunity-and-tender-intake/bid-no-bid-decisioning/" xlink:actuate="onRequest" xlink:href="/use-case/construction-project-quotations/opportunity-and-tender-intake/bid-no-bid-decisioning/" xlink:show="new" xlink:title="/use-case/construction-project-quotations/opportunity-and-tender-intake/bid-no-bid-decisioning/" xlink:type="simple"><text fill="#4051B5" font-family="'Roboto'" font-size="13" lengthAdjust="spacing" textLength="147.894" x="605.8232" y="67.1997">Bid/No-Bid Decisioning</text></a><path d="M545.8232,62.6992 L545.8232,62.886 L547.8232,62.3309 L549.8232,62.871 L551.8232,63.0545 L553.8232,62.0651 L555.8232,62.6992 L555.8232,62.6992 L555.8232,62.6647 L561.8232,62.5097 L567.8232,62.5288 L573.8232,62.6689 L579.8232,62.3919 L585.8232,62.6992 L585.8232,63.1913 L587.8232,62.139 L589.8232,62.5234 L591.8232,63.0832 L593.8232,62.623 L595.8232,62.6992" fill="none" style="stroke:#FF6F00;stroke-width:1;"/><a href="/use-case/construction-project-quotations/opportunity-and-tender-intake/site-visit-and-existing-conditions/" target="_top" title="/use-case/construction-project-quotations/opportunity-and-tender-intake/site-visit-and-existing-conditions/" xlink:actuate="onRequest" xlink:href="/use-case/construction-project-quotations/opportunity-and-tender-intake/site-visit-and-existing-conditions/" xlink:show="new" xlink:title="/use-case/construction-project-quotations/opportunity-and-tender-intake/site-visit-and-existing-conditions/" xlink:type="simple"><text fill="#4051B5" font-family="'Roboto'" font-size="13" lengthAdjust="spacing" textLength="199.9131" x="602.8232" y="107.3325">Site Visit &amp; Existing Conditions</text></a><path d="M545.8232,62.6992 L545.8232,62.886 L547.8232,62.3309 L549.8232,62.871 L551.8232,63.0545 L553.8232,62.0651 L555.8232,62.6992 L555.8232,62.6992 L555.8034,62.671 L557.4954,63.7984 L559.2876,65.0682 L561.1496,66.4369 L562.7713,67.4646 L564.7295,68.97 L564.9546,69.0694 L565.692,71.6159 L567.0866,74.4527 L568.5613,77.3249 L569.5696,79.9911 L570.8232,82.7656 L570.851,82.7779 L572.029,85.519 L573.3333,88.3159 L574.5767,91.086 L575.9364,93.9073 L576.917,96.5613 L577.0887,96.8051 L578.872,98.0623 L580.5446,99.1621 L582.3794,100.4922 L584.2217,101.8331 L585.8232,102.832 L585.8232,102.191 L587.8232,103.4352 L589.8232,102.5685 L591.8232,103.3065 L593.8232,102.392 L595.8232,102.832" fill="none" style="stroke:#FF6F00;stroke-width:1;"/><a href="/use-case/construction-project-quotations/" target="_top" title="/use-case/construction-project-quotations/" xlink:actuate="onRequest" xlink:href="/use-case/construction-project-quotations/" xlink:show="new" xlink:title="/use-case/construction-project-quotations/" xlink:type="simple"><text fill="#4051B5" font-family="'Roboto'" font-size="13" lengthAdjust="spacing" textLength="268.5757" x="14" y="67.1997">Complex Construction Project Quotations</text></a><path d="M343.708,62.6992 L343.708,62.886 L341.708,62.3309 L339.708,62.871 L337.708,63.0545 L335.708,62.0651 L333.708,62.6992 L333.708,62.6992 L333.708,62.6647 L327.708,62.5097 L321.708,62.5288 L315.708,62.6689 L309.708,62.3919 L303.708,62.6992 L303.708,63.1913 L301.708,62.139 L299.708,62.5234 L297.708,63.0832 L295.708,62.623 L293.708,62.6992" fill="none" style="stroke:#FF6F00;stroke-width:1;"/><!--SRC=[xLZRRjiu47tNLt0Re1UqgkCqAOgWAE8uJfghNJl9Ob4K0IrHDjSogP2Ka-nY_ts7iYHBiYLV8hS9KB-a5OTdpWnlCsTFAYpKa39xY3t3-CCc3cK4xH_TdDUEBsxgpRDc6mM_ZUtDdMft9sdIQTIR5mUrzb-XtGoJLgr-MZjgn41J9itsGQETz8Cs7EUZixaPcnmsBovJ1e69_iKcjNQx-MVQ9a8nv80o3miyH5ri3Ng2-yokSvSBjA44PXB625C9iwyF7X4kPOFGAcHil4AKMQvl4wJw1FK88mAxA9udaGFMNQxwxv1BUts5CBEHZSK0PYgE-8Y8Eq4LGNTKzSSOT4GOaaGfodeocvFBhyVrquj6fuEgi33SKvGpr0TGZQ9WeeDTIHB4MzYs0GXj9xwrn-4A88i-9Rvt-jZcTzewYnA7VyNiu1yaD4dO7107-wv2_ng7dAaBF2JeHPj3xFn5y6MSkSd21Hyxz1-2gjl6VqcacX3y3d1cpfWDenvSo15txJII1wkBUoJaD3LrFxFugHrkx7C1mOOZYIq9BYOU6BUNWKzj_SKyM7peSGRR4ToiI7Wckt7E_A6xbSwPZHNkOabATfVoORdSjzVgWBikiVJfaAMxcNYfWu7WxXezx6j8B1xMwAB155NhT42P8iB15bcZZmwvzGcpI0iUBcfH3pCr1hliKsl0Y9HmOKxCPMWEZ98p2ibDGS_WcR2PN4kCYo5sisDJuPnHXvp1pPeB7XiKqWmkpodmu6ikSZ0warGmCidX1wDcAIxcC0XCSdtfqRm3_0hLjv7E6Zn2y9-DkR_acHTmu37hkUJpPtYj96TVli3wTc3p4QxW0SjzFSfw5x8xBljcfw-e15ro3oGPTc_AvvqfnzP0NZv8HORFBzVbyrvJhgC7-NcaUiBs-MKwiKswuSCxPfqfZDDH13NivlngRwNOYmCRFp0sbdrYBnBhp50jS8pXNH6BnWhrUl5MMaEanKkuT1iIDN2Jc3wCtvycT6I2GarlXpYwWGjRuQ3ObyX4GrygNPSJX1q8DVAPQGiItiBMDBV7IVIgUIIJfSGa6PdQ7HftDR_CcltIAoLerrSalmwOvbhGmAIgVIpbQgoA7Bn2v-6wI8zOrA4Mn1-K3h14TttTLIkuWw3-b7f1WyLxXxgkJs3j62Ew4968-qeFJxTq9RETuEDqJGMDlF7s1dt_ZYg-9AO5TsS5-4ab_A21CJt1_mQovgtFONbrIrFXdiU5yXaKxYOq_oPq_k3OX4eR3qW5DIV3w2Mw30RHSJ28VlmmtfRhJZYUAPpRs7lxi5Lf7twB7Bv41zpoXxg1hSFRuFBUc4EP5BhKDXatzHyRjeA4AR0DAcYVsfKBRi8VEAFnzpNaGC9kCqVWG0M3v9vAhT-OW6hJCG3gw1rvhMqW9utGGlUGeOMcPPfBqeBvGyybznedDaIjiI7w5Xjgy3sW7AjwUscHhpn9x0cBJz4zlA3ob3IV0R24vXJDozufKTAI5qSaKXQgJ8y5B1ALYZ2c6QmW8otdO27Xw36GXLBHii2BY4EhOnR8GQk3vWf0gqCMIJwhewv5v8devCWx4REbbPqeW5coJWIQf-X4d19LLmGt9UH4M1aD9sK_Ly297MQbcnWzhTea3j9A0ap-pRhCRfbU_CSAB3-RrvpE-9UbwIdmMbZs-CbidbIIIbKi8XvBHfFBkb2TgAvJZYWxaap-ov8RLjOBPhoNfMa5IQJCMp8j4QIUcLcPovQW2yW2-GJcGkQqxez0_Dsi_sxMVtsptdAXjhmwFqCZg5_qdEhxhSsjdVVLQfSeNDryVSK6ZD-neA-ZSFWL7P8tnkkZrXcIt1TG1DiGGd1wOVeRumIFC6hxJDljmXOaxEJWDFe07S682ixqDZ1Ehiyd1X-tONaK5E82YA3hSoEw_XhCuhhLtqLNbuVc9-CCBdCVkk1TH1ZSMO0h7c2iypy0]--></g></svg>