<svg xmlns="http://www.w3.org/2000/svg" xmlns:xlink="http://www.w3.org/1999/xlink" contentStyleType="text/css" data-diagram-type="MINDMAP" height="152px" preserveAspectRatio="none" style="width:943px;height:152px;" version="1.1" viewBox="0 0 943 152" width="943px" zoomAndPan="magnify"><defs/><g><a href="/use-case/construction-project-quotations/risk-compliance-and-contracts/" target="_top" title="/use-case/construction-project-quotations/risk-compliance-and-contracts/" xlink:actuate="onRequest" xlink:href="/use-case/construction-project-quotations/risk-compliance-and-contracts/" xlink:show="new" xlink:title="/use-case/construction-project-quotations/risk-compliance-and-contracts/" xlink:type="simple"><text fill="#4051B5" font-family="'Roboto'" font-size="13" lengthAdjust="spacing" textLength="192.8291" x="350.708" y="79.7661">Risk, Compliance &amp; Contracts</text></a><a href="/use-case/construction-project-quotations/risk-compliance-and-contracts/risk-register-and-scenario-analysis/" target="_top" title="/use-case/construction-project-quotations/risk-compliance-and-contracts/risk-register-and-scenario-analysis/" xlink:actuate="onRequest" xlink:href="/use-case/construction-project-quotations/risk-compliance-and-contracts/risk-register-and-scenario-analysis/" xlink:show="new" xlink:title="/use-case/construction-project-quotations/risk-compliance-and-contracts/risk-register-and-scenario-analysis/" xlink:type="simple"><text fill="#4051B5" font-family="'Roboto'" font-size="13" lengthAdjust="spacing" textLength="217.7944" x="608.6694" y="27.0669">Risk Register &amp; Scenario Analysis</text></a><path d="M551.6694,75.2656 L551.6694,75.4525 L553.6694,74.8973 L555.6694,75.4374 L557.6694,75.6209 L559.6694,74.6315 L561.6694,75.2656 L561.6694,75.2656 L561.646,75.2403 L563.322,73.4796 L565.1162,71.8468 L566.9926,70.3028 L568.5858,68.4526 L570.5757,67.0314 L570.8089,67.1098 L571.5289,63.319 L572.9299,59.7572 L574.4139,56.2234 L575.4146,52.5269 L576.6694,48.916 L576.6982,48.9257 L577.8747,45.2884 L579.1821,41.6952 L580.4264,38.0807 L581.7912,34.5067 L582.7632,30.8007 L582.9657,31.0197 L584.7494,29.3755 L586.4025,27.5901 L588.2468,26.0114 L590.1001,24.4424 L591.6694,22.5664 L591.6694,21.9254 L593.6694,23.1695 L595.6694,22.3028 L597.6694,23.0409 L599.6694,22.1264 L601.6694,22.5664" fill="none" style="stroke:#FF6F00;stroke-width:1;"/><a href="/use-case/construction-project-quotations/risk-compliance-and-contracts/regulatory-safety-environmental-compliance/" target="_top" title="/use-case/construction-project-quotations/risk-compliance-and-contracts/regulatory-safety-environmental-compliance/" xlink:actuate="onRequest" xlink:href="/use-case/construction-project-quotations/risk-compliance-and-contracts/regulatory-safety-environmental-compliance/" xlink:show="new" xlink:title="/use-case/construction-project-quotations/risk-compliance-and-contracts/regulatory-safety-environmental-compliance/" xlink:type="simple"><text fill="#4051B5" font-family="'Roboto'" font-size="13" lengthAdjust="spacing" textLength="314.9644" x="608.6694" y="52.1997">Regulatory, Safety &amp; Environmental Compliance</text></a><path d="M551.6694,75.2656 L551.6694,75.4525 L553.6694,74.8973 L555.6694,75.4374 L557.6694,75.6209 L559.6694,74.6315 L561.6694,75.2656 L561.6694,75.2656 L561.6544,75.2345 L563.3682,74.2335 L565.1577,73.3893 L567,72.654 L568.6607,71.5432 L570.5757,70.9584 L570.7826,71.0915 L571.5588,68.9117 L572.9393,67.1205 L574.3934,65.3766 L575.4186,63.357 L576.6694,61.4824 L576.6949,61.4988 L577.8762,59.5796 L579.1737,57.735 L580.4151,55.8543 L581.7634,54.0425 L582.7632,52.0065 L582.893,52.275 L584.6759,51.4168 L586.375,50.3854 L588.1966,49.6076 L590.0241,48.8416 L591.6694,47.6992 L591.6694,47.0582 L593.6694,48.3023 L595.6694,47.4357 L597.6694,48.1737 L599.6694,47.2592 L601.6694,47.6992" fill="none" style="stroke:#FF6F00;stroke-width:1;"/><a href="/use-case/construction-project-quotations/risk-compliance-and-contracts/contract-terms-and-commercial-review/" target="_top" title="/use-case/construction-project-quotations/risk-compliance-and-contracts/contract-terms-and-commercial-review/" xlink:actuate="onRequest" xlink:href="/use-case/construction-project-quotations/risk-compliance-and-contracts/contract-terms-and-commercial-review/" xlink:show="new" xlink:title="/use-case/construction-project-quotations/risk-compliance-and-contracts/contract-terms-and-commercial-review/" xlink:type="simple"><text fill="#4051B5" font-family="'Roboto'" font-size="13" lengthAdjust="spacing" textLength="248.314" x="608.6694" y="77.3325">Contract Terms &amp; Commercial Review</text></a><path d="M551.6694,75.2656 L551.6694,75.4525 L553.6694,74.8973 L555.6694,75.4374 L557.6694,75.6209 L559.6694,74.6315 L561.6694,75.2656 L561.6694,75.2656 L561.6666,75.2312 L564.6541,74.8333 L567.6557,74.609 L570.667,74.5054 L573.6446,73.9859 L576.6694,74.0488 L576.6893,74.2941 L579.6468,73.5263 L582.6623,73.4745 L585.685,73.5101 L588.6664,73.0374 L591.6694,72.832 L591.6694,72.8927 L593.6694,72.8036 L595.6694,72.9907 L597.6694,73.0446 L599.6694,73.3526 L601.6694,72.832" fill="none" style="stroke:#FF6F00;stroke-width:1;"/><polygon fill="#4051B5" points="605.6694,95.3984,605.6694,95.6086,615.5745,94.9841,625.4796,95.5917,635.3847,95.7981,645.2897,94.685,655.1948,95.3207,665.0999,94.9719,675.0049,95.0149,684.91,95.3303,694.8151,94.7071,704.7202,95.9521,714.6252,94.7682,724.5303,95.2007,734.4354,95.8304,744.3405,95.3127,754.2455,95.4667,764.1506,95.3665,774.0557,95.577,783.9608,95.6376,793.8658,95.9841,803.7709,96.0695,813.676,96.0777,823.5811,95.3984,823.6135,95.4769,824.2059,95.7755,824.802,96.0833,825.1861,95.8793,825.9303,96.5446,826.4095,96.57,826.3182,96.5322,826.8082,97.2038,826.7257,97.6382,827.0913,98.2583,827.5751,98.9274,827.5811,99.3984,827.5648,99.3984,827.6162,104.825,827.6939,110.2516,827.7198,115.6781,827.5798,121.1047,827.5811,126.5313,827.6695,126.5679,827.1705,127.0239,827.2,127.6989,827.0469,128.2982,826.7807,128.8507,826.4095,129.3597,826.4877,129.5485,825.7822,129.4452,825.1949,129.6275,824.6332,129.8713,824.1392,130.2788,823.5811,130.5313,823.5811,130.3347,813.676,131.2127,803.7709,130.3566,793.8658,130.1882,783.9608,130.7595,774.0557,129.8644,764.1506,130.0121,754.2455,131.1802,744.3405,130.9669,734.4354,131.2657,724.5303,130.2095,714.6252,130.8504,704.7202,131.1217,694.8151,130.0588,684.91,130.4354,675.0049,130.6572,665.0999,131.183,655.1948,130.5271,645.2897,130.9938,635.3847,129.9775,625.4796,129.854,615.5745,131.0349,605.6694,130.5313,605.578,130.3105,605.1687,130.4537,604.5644,130.1263,603.9382,129.7458,603.3616,129.485,602.841,129.3597,602.9823,129.4182,602.5145,128.7558,602.5546,128.3038,601.9678,127.5921,602.0939,127.1757,601.6694,126.5313,601.8309,126.5313,601.7511,121.1047,601.6852,115.6781,601.9116,110.2516,601.874,104.825,601.6694,99.3984,601.7216,99.42,601.9863,98.867,602.0979,98.2504,602.593,97.7928,602.6544,97.1555,602.841,96.57,602.863,96.6232,603.3291,96.1483,603.9207,95.9766,604.6058,96.0305,605.1586,95.7651,605.6694,95.3984" style="stroke:#FF6F00;stroke-width:1.5;"/><a href="/use-case/construction-project-quotations/risk-compliance-and-contracts/bonds-insurance-warranties/" target="_top" title="/use-case/construction-project-quotations/risk-compliance-and-contracts/bonds-insurance-warranties/" xlink:actuate="onRequest" xlink:href="/use-case/construction-project-quotations/risk-compliance-and-contracts/bonds-insurance-warranties/" xlink:show="new" xlink:title="/use-case/construction-project-quotations/risk-compliance-and-contracts/bonds-insurance-warranties/" xlink:type="simple"><text fill="#4051B5" font-family="'Roboto'" font-size="13" lengthAdjust="spacing" textLength="201.7793" x="611.6694" y="117.4653">Bonds, Insurance &amp; Warranties</text></a><path d="M551.6694,75.2656 L551.6694,75.4525 L553.6694,74.8973 L555.6694,75.4374 L557.6694,75.6209 L559.6694,74.6315 L561.6694,75.2656 L561.6694,75.2656 L561.6504,75.2368 L563.3461,76.2856 L565.1379,77.4797 L566.9965,78.7747 L568.6249,79.7217 L570.5757,81.1561 L570.7984,81.2608 L571.5409,83.6287 L572.9336,86.3024 L574.4057,89.0133 L575.4162,91.5072 L576.6694,94.1152 L576.6969,94.1281 L577.8753,96.701 L579.1787,99.3326 L580.4219,101.9359 L581.78,104.5933 L582.7632,107.0743 L582.9277,107.3231 L584.711,108.5042 L586.3881,109.5249 L588.2206,110.7805 L590.0604,112.0471 L591.6694,112.9648 L591.6694,112.3238 L593.6694,113.568 L595.6694,112.7013 L597.6694,113.4393 L599.6694,112.5248 L601.6694,112.9648" fill="none" style="stroke:#FF6F00;stroke-width:1;"/><a href="/use-case/construction-project-quotations/" target="_top" title="/use-case/construction-project-quotations/" xlink:actuate="onRequest" xlink:href="/use-case/construction-project-quotations/" xlink:show="new" xlink:title="/use-case/construction-project-quotations/" xlink:type="simple"><text fill="#4051B5" font-family="'Roboto'" font-size="13" lengthAdjust="spacing" textLength="268.5757" x="14" y="79.7661">Complex Construction Project Quotations</text></a><path d="M343.708,75.2656 L343.708,75.4525 L341.708,74.8973 L339.708,75.4374 L337.708,75.6209 L335.708,74.6315 L333.708,75.2656 L333.708,75.2656 L333.708,75.2311 L327.708,75.0761 L321.708,75.0952 L315.708,75.2353 L309.708,74.9583 L303.708,75.2656 L303.708,75.7578 L301.708,74.7054 L299.708,75.0898 L297.708,75.6496 L295.708,75.1894 L293.708,75.2656" fill="none" style="stroke:#FF6F00;stroke-width:1;"/><!--SRC=[xLXjRzD84FxkNx57fGD4JHie2264IDFmsZQzf0MT4AeszYJPYxqRTjSDkTFzzvjrx6JjnCvB7GuaygdrpZxppEpRpFDAQIfroBWVqf7Z_EP3Zt4Wns-kp-hlpgyRhTDMcyI_lQF39xNk4zkaqsoqpa_gxJyJkoKc5_N6X_gRvWnemQJLFccsRJzahzTxsZiyd9cyRfrVPWnY4_ERcTJRxTQdh4sAugWXuoCgQKYwr1lsfOYutn21a6HFIyeLZW7NbjdRoGXamFWmiKeOEtS9uruG-K3q04WVE4WQaDayHNfetHLwi4y2rXzeGhbFV2g7E5CB8cv0ZYNJGCPC3wOOx0OuKQ0rutsLpydbstUD3-VDJeVKS674I3F1oG113Oh6YJqQAB28Nr3VHo1oP7rhJyELI9Oyixvt1jGNOsETHvc5VyNz-0z8J2oR4-ZHAD3a7-UruFgSXa3kj0N6Bkx4NwQPcozS_B73_WPIEtB-jP7gKeenuYoTiHn6JmBCaGZyBD88LvVs8U6qCFKuj_YP7UuS2ud19YFMbaGNSmzS-9l0PxR-UXuy4Ou4n-s8RhOal9JTD6TH63pAviodcdQfWehTPNnuWOZydJeGGG2UEHsgSZTpBmqqa2BOeOTZ0qdbP8SkcbmplKi7Z6kGFUh13drqu6i4t8CBVBYOnqQKwodOvO1vGmvAuOKvDrU9EJAoPvIIMu1UmjEocLzBNCYG1lcnXN1EMGzEyMOj19yPbDACByy5yFXh8N8ykfHKF3BFuMEdxcaXLp28JGfzcT6Y0toND8w8oHe-GlZFtigVVUOb7dZA-m6yU86lbHByvKjStmvkFX0Q7x32rwEgTo6_u_9lTlQAikZ2DoJ9QN1TFUzSERO3ycgYD8G_NwwhvxsZNASFyi-HwZdRdo_JrZRf9W_lb7MkCCv64TUmXwkhlQrYBmzi-i3uL0t0NoVMfQ5ww9ZYkoBNZHNhzVAjj8D8ovTmupOaRU3cCJsUlZyjxCWamvhUJt1C0vUqmd6nhuXBmaXfKvS3eJqCDVMPQmiiRqbhMjZZMBrg4Kcxb9Wd8rUxO-EkLvTPorzwhINhHXgAwu15hYKDJARQfqfjnwhCmLrobgoB6e77Uip3-EFI0PTeF31TjSOx2EjFPHOqNhnzqWqYmBNZ74mXeeY8j1bUREagPZl7fzcQ2Xjvvy4r-VoP74GAN0_lpWFafxICuWR67Kdn5v9rlqO2bzUqD0UIgQ5h6iE0KInZNSfzrnnZIJsj3aWRX_UnEqd7oU_JLiMCaYzVd0VL-ej79VGPNlCo7bCUS2gPm7zeC54iuKJQYH4IwYGcf9wOx88OzAE0uZ9FN4Lxe2Sky1ic1G-ndQQ1DV70K4jizqadDaQIJTlSJcZrNDE_N4nFg9B1C0JfCMGguOR1-62sZEJIMCNhcjfW1CPcIgrAPbt1VUNYAOfaF3h63OnD30DSrMCpja_UfOF8wDDis51ntGspDCqoV3EXpWp9nTIG_34pDE2l0Cz_AbE-oggMrMbyFx2QbZuiQqffjlaIW0r4j7HU_f9CasRVXAdgMYgRtHQmJ2KhmrXai8Kkjfc3jPImsq2MQb-R0g-ZTcsFMQ9lRGzQg6Xj3rccOMsFkXFLAgLJe5Ubp3QMgj80bkbKAMYHH9Loiih856v1cKgnSg9Kndwb8ZLpcDUYPkXP6SewI5ifIiKtwoQxPN7nRwiOVMzUArhz_orDFmAljNMSxypcXqfIfH9CocF3Q0fPbyejjLtgArL7aij_LVh9rWB8alUoCl73Higz9OkQH-QPMPQvV0cwXivHJ60bP84MSGl4N-h3B_NXb_fGkVfm4Q3NgxDJSeC5cPbJU_ZeyD6JXxLQ5pIj7TwxuaCknZnkL1dUPfg5SD-vz-RYb2WHIIJlu-QChoESVjzvJsyeQKVSs3qdhH7mzoSVqW_srd3UVpoR6pmzSe-Pniv28X7oySn9x_CczuJHBfwJgylNxZFd55-d2DlwvmGuNiA8AoSurlaF]--></g></svg>