<svg xmlns="http://www.w3.org/2000/svg" xmlns:xlink="http://www.w3.org/1999/xlink" contentStyleType="text/css" data-diagram-type="MINDMAP" height="157px" preserveAspectRatio="none" style="width:1004px;height:157px;" version="1.1" viewBox="0 0 1004 157" width="1004px" zoomAndPan="magnify"><defs/><g><a href="/use-case/construction-project-quotations/risk-compliance-and-contracts/" target="_top" title="/use-case/construction-project-quotations/risk-compliance-and-contracts/" xlink:actuate="onRequest" xlink:href="/use-case/construction-project-quotations/risk-compliance-and-contracts/" xlink:show="new" xlink:title="/use-case/construction-project-quotations/risk-compliance-and-contracts/" xlink:type="simple"><text fill="#90EE90" font-family="'Roboto'" font-size="14" lengthAdjust="spacing" textLength="207.6621" x="371.6855" y="82.4404">Risk, Compliance &amp; Contracts</text></a><a href="/use-case/construction-project-quotations/risk-compliance-and-contracts/risk-register-and-scenario-analysis/" target="_top" title="/use-case/construction-project-quotations/risk-compliance-and-contracts/risk-register-and-scenario-analysis/" xlink:actuate="onRequest" xlink:href="/use-case/construction-project-quotations/risk-compliance-and-contracts/risk-register-and-scenario-analysis/" xlink:show="new" xlink:title="/use-case/construction-project-quotations/risk-compliance-and-contracts/risk-register-and-scenario-analysis/" xlink:type="simple"><text fill="#90EE90" font-family="'Roboto'" font-size="14" lengthAdjust="spacing" textLength="234.5479" x="644.7979" y="27.9951">Risk Register &amp; Scenario Analysis</text></a><path d="M587.7979,77.5938 L587.7979,77.7806 L589.7979,77.2255 L591.7979,77.7656 L593.7979,77.949 L595.7979,76.9596 L597.7979,77.5938 L597.7979,77.5938 L597.774,77.5688 L599.4482,75.7553 L601.2426,74.0677 L603.1207,72.4676 L604.7106,70.5659 L606.7041,69.0867 L606.9381,69.1629 L607.6565,65.2568 L609.058,61.5732 L610.5429,57.9168 L611.5429,54.1024 L612.7979,50.3711 L612.8267,50.3805 L614.0031,46.6236 L615.3108,42.9094 L616.5552,39.1747 L617.9204,35.4792 L618.8916,31.6555 L619.0976,31.8712 L620.8814,30.1724 L622.5323,28.3345 L624.3777,26.7003 L626.2322,25.0755 L627.7979,23.1484 L627.7979,22.5074 L629.7979,23.7516 L631.7979,22.8849 L633.7979,23.6229 L635.7979,22.7084 L637.7979,23.1484" fill="none" style="stroke:#FF9900;stroke-width:1;"/><a href="/use-case/construction-project-quotations/risk-compliance-and-contracts/regulatory-safety-environmental-compliance/" target="_top" title="/use-case/construction-project-quotations/risk-compliance-and-contracts/regulatory-safety-environmental-compliance/" xlink:actuate="onRequest" xlink:href="/use-case/construction-project-quotations/risk-compliance-and-contracts/regulatory-safety-environmental-compliance/" xlink:show="new" xlink:title="/use-case/construction-project-quotations/risk-compliance-and-contracts/regulatory-safety-environmental-compliance/" xlink:type="simple"><text fill="#90EE90" font-family="'Roboto'" font-size="14" lengthAdjust="spacing" textLength="339.1924" x="644.7979" y="54.292">Regulatory, Safety &amp; Environmental Compliance</text></a><path d="M587.7979,77.5938 L587.7979,77.7806 L589.7979,77.2255 L591.7979,77.7656 L593.7979,77.949 L595.7979,76.9596 L597.7979,77.5938 L597.7979,77.5938 L597.7826,77.5628 L599.4952,76.5442 L601.2849,75.6816 L603.1282,74.9277 L604.7868,73.7997 L606.7041,73.1956 L606.9123,73.3267 L607.6858,71.1111 L609.0672,69.2783 L610.5228,67.4922 L611.5468,65.4344 L612.7979,63.5195 L612.8235,63.5357 L614.0046,61.5768 L615.3025,59.6914 L616.544,57.7706 L617.8931,55.9174 L618.8916,53.8435 L619.0237,54.1109 L620.8065,53.2346 L622.5042,52.1857 L624.3266,51.3893 L626.1548,50.6048 L627.7979,49.4453 L627.7979,48.8043 L629.7979,50.0484 L631.7979,49.1818 L633.7979,49.9198 L635.7979,49.0053 L637.7979,49.4453" fill="none" style="stroke:#FF9900;stroke-width:1;"/><a href="/use-case/construction-project-quotations/risk-compliance-and-contracts/contract-terms-and-commercial-review/" target="_top" title="/use-case/construction-project-quotations/risk-compliance-and-contracts/contract-terms-and-commercial-review/" xlink:actuate="onRequest" xlink:href="/use-case/construction-project-quotations/risk-compliance-and-contracts/contract-terms-and-commercial-review/" xlink:show="new" xlink:title="/use-case/construction-project-quotations/risk-compliance-and-contracts/contract-terms-and-commercial-review/" xlink:type="simple"><text fill="#90EE90" font-family="'Roboto'" font-size="14" lengthAdjust="spacing" textLength="267.415" x="644.7979" y="80.5889">Contract Terms &amp; Commercial Review</text></a><path d="M587.7979,77.5938 L587.7979,77.7806 L589.7979,77.2255 L591.7979,77.7656 L593.7979,77.949 L595.7979,76.9596 L597.7979,77.5938 L597.7979,77.5938 L597.7957,77.5593 L600.7862,77.2194 L603.7874,77.0533 L606.796,77.008 L609.7789,76.5464 L612.7979,76.668 L612.813,76.9136 L615.7806,76.2032 L618.7924,76.2099 L621.8097,76.3041 L624.7955,75.8893 L627.7979,75.7422 L627.7979,75.8028 L629.7979,75.7138 L631.7979,75.9009 L633.7979,75.9548 L635.7979,76.2628 L637.7979,75.7422" fill="none" style="stroke:#FF9900;stroke-width:1;"/><polygon fill="#4051B5" points="641.7979,98.8906,641.7979,99.1008,651.9609,98.4763,662.124,99.0839,672.2871,99.2903,682.4502,98.1772,692.6133,98.8129,702.7764,98.4641,712.9395,98.5071,723.1025,98.8225,733.2656,98.1993,743.4287,99.4443,753.5918,98.2603,763.7549,98.6929,773.918,99.3226,784.0811,98.8048,794.2441,98.9589,804.4072,98.8587,814.5703,99.0692,824.7334,99.1298,834.8965,99.4763,845.0596,99.5617,855.2227,99.5699,865.3857,99.1453,875.5488,98.8906,875.608,99.0334,876.2041,99.3412,876.5882,99.1372,877.3324,99.8025,877.7737,99.7366,878.3773,100.0622,878.5416,100.1303,878.4591,100.5647,878.8248,101.1848,879.3086,101.8539,879.2995,102.3187,879.5488,102.8906,879.5839,102.8906,879.6617,108.55,879.6876,114.2094,879.5475,119.8688,879.6446,125.5281,879.5488,131.1875,879.3725,131.1145,879.4021,131.7895,879.249,132.3888,878.9828,132.9413,878.8004,133.5284,878.3773,134.0159,878.3156,133.8672,877.7284,134.0494,877.1666,134.2932,876.6727,134.7007,876.0894,134.8927,875.5488,135.1875,875.5488,135.8689,865.3857,135.0128,855.2227,134.8444,845.0596,135.4158,834.8965,134.5207,824.7334,134.6684,814.5703,135.8365,804.4072,135.6232,794.2441,135.922,784.0811,134.8657,773.918,135.5067,763.7549,135.7779,753.5918,134.7151,743.4287,135.0916,733.2656,135.3135,723.1025,135.8393,712.9395,135.1833,702.7764,135.6501,692.6133,134.6337,682.4502,134.5102,672.2871,135.6911,662.124,134.4706,651.9609,135.6965,641.7979,135.1875,641.8242,135.2511,641.198,134.8707,640.6214,134.6099,640.1593,134.6258,639.4969,134.1581,638.9694,134.0159,639.1517,134.0914,638.5649,133.3797,638.6909,132.9633,638.4156,132.3806,638.1076,131.7844,637.7979,131.1875,637.8136,131.1875,638.0401,125.5281,638.0024,119.8688,637.8543,114.2094,637.8872,108.55,637.7979,102.8906,637.7577,102.874,638.2528,102.4163,638.3142,101.779,638.5539,101.2156,638.5478,100.5503,638.9694,100.0622,638.9177,99.9374,639.6028,99.9913,640.1556,99.7259,640.661,99.346,641.1911,99.0257,641.7979,98.8906" style="stroke:#FF6F00;stroke-width:1.5;"/><a href="/use-case/construction-project-quotations/risk-compliance-and-contracts/bonds-insurance-warranties/" target="_top" title="/use-case/construction-project-quotations/risk-compliance-and-contracts/bonds-insurance-warranties/" xlink:actuate="onRequest" xlink:href="/use-case/construction-project-quotations/risk-compliance-and-contracts/bonds-insurance-warranties/" xlink:show="new" xlink:title="/use-case/construction-project-quotations/risk-compliance-and-contracts/bonds-insurance-warranties/" xlink:type="simple"><text fill="#90EE90" font-family="'Roboto'" font-size="14" lengthAdjust="spacing" textLength="217.3008" x="647.7979" y="121.8857">Bonds, Insurance &amp; Warranties</text></a><path d="M587.7979,77.5938 L587.7979,77.7806 L589.7979,77.2255 L591.7979,77.7656 L593.7979,77.949 L595.7979,76.9596 L597.7979,77.5938 L597.7979,77.5938 L597.7782,77.5653 L599.4712,78.6705 L601.2634,79.9189 L603.1244,81.2668 L604.748,82.2717 L606.7041,83.7571 L606.9285,83.8579 L607.6673,86.3541 L609.0614,89.1448 L610.5355,91.9714 L611.5443,94.5889 L612.7979,97.3164 L612.8255,97.3288 L614.0037,100.0225 L615.3077,102.7727 L616.551,105.4956 L617.9103,108.2706 L618.8916,110.8757 L619.0613,111.121 L620.8446,112.3566 L622.5185,113.4341 L624.3526,114.7432 L626.1942,116.063 L627.7979,117.0391 L627.7979,116.398 L629.7979,117.6422 L631.7979,116.7755 L633.7979,117.5136 L635.7979,116.599 L637.7979,117.0391" fill="none" style="stroke:#FF9900;stroke-width:1;"/><a href="/use-case/construction-project-quotations/" target="_top" title="/use-case/construction-project-quotations/" xlink:actuate="onRequest" xlink:href="/use-case/construction-project-quotations/" xlink:show="new" xlink:title="/use-case/construction-project-quotations/" xlink:type="simple"><text fill="#90EE90" font-family="'Roboto'" font-size="14" lengthAdjust="spacing" textLength="289.2354" x="14" y="82.4404">Complex Construction Project Quotations</text></a><path d="M364.6855,77.5938 L364.6855,77.7806 L362.6855,77.2255 L360.6855,77.7656 L358.6855,77.949 L356.6855,76.9596 L354.6855,77.5938 L354.6855,77.5938 L354.6855,77.5592 L348.6855,77.4042 L342.6855,77.4233 L336.6855,77.5635 L330.6855,77.2865 L324.6855,77.5938 L324.6855,78.0859 L322.6855,77.0335 L320.6855,77.418 L318.6855,77.9777 L316.6855,77.5175 L314.6855,77.5938" fill="none" style="stroke:#FF9900;stroke-width:1;"/><!--SRC=[xLXjSzeu4FxkNw5hPYxjD2uXbtJQJASJ82JDUmwItjnqEXbXBw33bgWaXt8tzzzlRMCG1inBS2_fn9_0-sZtsPKihPu3fQdKFkEkJxkMzOiBJSQ1b8_lBaedbtULg_Eh6ecUZTtjlM9ZpuJKgvMhoyDIxSy1RWhakbGvAnrNXuuc85UrmshDZ4CscistpUtj8UJewl9c3111miUoL8VnBfNK9mtgT5fI1Doj24_81AWbvGeHmBK1_jJlWZndl6DYoOR7MctTaW3SiZO9uuuNk41q6qWBE4ZgaQ4BHPeui25qUuj4mmZbBd6fxE18BOYu1zcJJ0FfCTsEVR1xu4I1reotLBe2DvzEAcUNrNgT574QH5SpmKaRdOPUD0viKa-1aSCrTLrqH7QDTxKuVubaoJlZVRrDNT4BqMalKIKyhCGjTwCVC80Oc4Deqi3Jv1_hI71zINqWBse2SnSleZTn4KVJ5Bsiix-157UjVqrF9Ib53_rC7J7TZUvxM2FXkUEUkZZTj0K3JXD3owdLCBQUhRAGcEp0OYn0336Am8MxZFknXRvO14VuNS5nPMAO5GbFPHVNBF2zdV6QkLJJ1bMmvd1ZCHnF16wk0OJdWHD-7MhjOKPHAWYGmiinGZbqIMK_nn1LhfdECm3Z6cIJEf1ZZ3fy2u0xS8t757DObt8TExjfCwV3GIdSC4TmDO0Z8tD49ha9rrDu6fZHjiI5zAcNjasaSywQW8SDp7G-16JIZ3RF2UVHsvcU8-jKKf5bLCFVh9AZXPp388BCZ1LQPtt0cwIoIyAguI64VpRcFkOtB_63fxpbmOSFU5efmJz-nFcju-83eV40ctbwhEjSIA-uz9azlaKPTE4xakJKkri_xrJpbGDvrLSQ_ATNw_NppgdMoO7yD4ezOllqAcqiayRWu8rPfnhZyIoY7dPxVhUtKkxPYSK7Z4jL6zn5SfsQgeE1APuhSj5SiL_FNaevP9ezXURHhgcUrcaaLyfHyEHwMD9QiaQWOT9aaaekdAb6bYgLSxHDSX5Vl8dgWiEQpC4auoDouXwoE8-vgT5H8x5nTFJ-FTfJHhEtigpNT-JB5r885DWEVly5N5PAoo1gmksk57_XYhE_1GBd9spB2vAfZXrURZn6iHMpyH9hXqjHKaUh0gcXUGixxCHEVetRxT1AldwrNgytNcILq6AuLSd8fXpWL3A1VwZNLsp0YTG682HK7q18QG39WnYq0ezYpzIt5Ms2xjl0xvaKtCSh8VMCWOMGsW2xHUeH64bMJRXPqFLpJNxPM1vV3Oo-3z9Xo5J2FODUOJYDv2P4HVEQO32341DJMoUpXk2kiXbNWOoiFLp0s8Wpm5ajXxOjSf8OaT4VGtD8nRQNh59SPVWUfZe4akiOI7uV0aFd1u3VTYAi7OphR3aALuzO8afsg0Nr8HC-nS4Ioj1mQvonYKxVCZEqe8Swp99-idnCCbX1x5akm4BopaDSPWewopfUHC9PtMU6QBEwqvaopUekiuIPrRtc8iKaT6Q8C0cpfVMN985fualYT9Rkad0o59TXavUMMn9VAQLb33zNPXa6J0iiG-_Zsehn8QqaaypUMPTPBPEJ_r0Pv4VpcdD__T_Az1XuBInE_60sZwf8QzKL4XvBPZEJTQQ6KCnJD5Xt9gdw_zIYmFFD__dc_tpp_tbk_jSUHhszE2VtsFk4OuflThPtzjuKYmtGjBZzyfPtkEZnw4x8SCFMp8TNrilZwtEYH22Hl8kBCzf5SFWhwvJUKr8BU8ZR9rTTuAU7PyaBSsbOfvylHe2tktQPQMpY9H8Xdo-ivCvUvOu8PO9zSdjpPB-ppl4W2F06lK-0uqqS_Se-skh_0G00]--></g></svg>