<svg xmlns="http://www.w3.org/2000/svg" xmlns:xlink="http://www.w3.org/1999/xlink" contentStyleType="text/css" data-diagram-type="MINDMAP" height="152px" preserveAspectRatio="none" style="width:570px;height:152px;" version="1.1" viewBox="0 0 570 152" width="570px" zoomAndPan="magnify"><defs/><g><a href="/use-case/client-360/" target="_top" title="/use-case/client-360/" xlink:actuate="onRequest" xlink:href="/use-case/client-360/" xlink:show="new" xlink:title="/use-case/client-360/" xlink:type="simple"><text fill="#4051B5" font-family="'Roboto'" font-size="13" lengthAdjust="spacing" textLength="66.5806" x="17" y="79.7661">Client 360</text></a><a href="/use-case/client-360/relationships-and-connections/" target="_top" title="/use-case/client-360/relationships-and-connections/" xlink:actuate="onRequest" xlink:href="/use-case/client-360/relationships-and-connections/" xlink:show="new" xlink:title="/use-case/client-360/relationships-and-connections/" xlink:type="simple"><text fill="#4051B5" font-family="'Roboto'" font-size="13" lengthAdjust="spacing" textLength="185.8911" x="148.7129" y="79.7661">Relationships &amp; Connections</text></a><polygon fill="#4051B5" points="396.7363,20,396.7363,20.2102,406.6063,19.5857,416.4763,20.1933,426.3463,20.3997,436.2163,19.2866,446.0863,19.9223,455.9563,19.5735,465.8263,19.6165,475.6963,19.9318,485.5663,19.3086,495.4363,20.5536,505.3063,19.3697,515.1763,19.8022,525.0463,20.4319,534.9163,19.9142,544.7863,20.0682,554.6563,20,554.6522,19.9902,555.2447,20.2893,555.8181,20.5423,556.428,20.8833,557.0046,21.1439,557.4847,21.1716,557.6939,21.2582,557.7974,21.7697,558.0961,22.3621,558.4039,22.9582,558.1998,23.3423,558.6563,24,558.8824,24,558.5574,29.4266,558.8342,34.8531,558.4912,40.2797,558.6334,45.7063,558.6563,51.1328,558.8846,51.2274,558.4069,51.6923,558.22,52.2776,558.0576,52.8731,557.8472,53.4486,557.4847,53.9612,557.4842,53.96,556.9556,54.284,556.2803,54.2536,555.8239,54.7518,555.2919,55.0673,554.6563,55.1328,554.6563,55.5773,544.7863,55.7458,534.9163,54.6497,525.0463,54.4806,515.1763,54.5114,505.3063,55.0739,495.4363,54.9363,485.5663,55.8142,475.6963,54.9581,465.8263,54.7898,455.9563,55.3611,446.0863,54.466,436.2163,54.6137,426.3463,55.7818,416.4763,55.5685,406.6063,55.8673,396.7363,55.1328,396.6953,55.0337,396.2114,54.9968,395.6803,54.846,394.979,54.2844,394.4614,54.166,393.9079,53.9612,393.9467,53.9773,393.8743,53.4787,393.438,52.8293,393.3474,52.3232,392.8001,51.6279,392.7363,51.1328,392.5106,51.1328,392.9042,45.7063,392.4973,40.2797,392.906,34.8531,392.8052,29.4266,392.7363,24,392.6538,23.9658,392.8617,23.3892,393.3462,22.9271,393.3471,22.2648,393.8559,21.8128,393.9079,21.1716,393.8374,21.0013,394.5523,21.1274,395.1011,20.8521,395.6362,20.5441,396.1767,20.2489,396.7363,20" style="stroke:#FF6F00;stroke-width:1.5;"/><a href="/use-case/client-360/relationships-and-connections/business-connections/" target="_top" title="/use-case/client-360/relationships-and-connections/business-connections/" xlink:actuate="onRequest" xlink:href="/use-case/client-360/relationships-and-connections/business-connections/" xlink:show="new" xlink:title="/use-case/client-360/relationships-and-connections/business-connections/" xlink:type="simple"><text fill="#4051B5" font-family="'Roboto'" font-size="13" lengthAdjust="spacing" textLength="141.7876" x="402.7363" y="42.0669">Business Connections</text></a><path d="M342.7363,75.2656 L342.7363,75.4525 L344.7363,74.8973 L346.7363,75.4374 L348.7363,75.6209 L350.7363,74.6315 L352.7363,75.2656 L352.7363,75.2656 L352.7173,75.2368 L354.413,73.9294 L356.2048,72.7673 L358.0634,71.7061 L359.6918,70.2969 L361.6426,69.3751 L361.8653,69.4798 L362.6078,66.6641 L364.0005,64.1541 L365.4726,61.6814 L366.4831,58.9916 L367.7363,56.416 L367.7638,56.4289 L368.9422,53.8182 L370.2456,51.2661 L371.4888,48.6858 L372.8469,46.1595 L373.8301,43.4569 L373.9946,43.7057 L375.7779,42.5306 L377.455,41.1951 L379.2875,40.0945 L381.1272,39.0048 L382.7363,37.5664 L382.7363,36.9254 L384.7363,38.1695 L386.7363,37.3028 L388.7363,38.0409 L390.7363,37.1264 L392.7363,37.5664" fill="none" style="stroke:#FF6F00;stroke-width:1;"/><a href="/use-case/client-360/relationships-and-connections/family-connections/" target="_top" title="/use-case/client-360/relationships-and-connections/family-connections/" xlink:actuate="onRequest" xlink:href="/use-case/client-360/relationships-and-connections/family-connections/" xlink:show="new" xlink:title="/use-case/client-360/relationships-and-connections/family-connections/" xlink:type="simple"><text fill="#4051B5" font-family="'Roboto'" font-size="13" lengthAdjust="spacing" textLength="127.4863" x="399.7363" y="82.1997">Family Connections</text></a><path d="M342.7363,75.2656 L342.7363,75.4525 L344.7363,74.8973 L346.7363,75.4374 L348.7363,75.6209 L350.7363,74.6315 L352.7363,75.2656 L352.7363,75.2656 L352.7335,75.2312 L355.721,75.3201 L358.7225,75.5825 L361.7339,75.9655 L364.7115,75.9328 L367.7363,76.4824 L367.7562,76.7277 L370.7137,76.4466 L373.7292,76.8815 L376.7519,77.4038 L379.7332,77.4179 L382.7363,77.6992 L382.7363,77.7599 L384.7363,77.6708 L386.7363,77.8579 L388.7363,77.9118 L390.7363,78.2198 L392.7363,77.6992" fill="none" style="stroke:#FF6F00;stroke-width:1;"/><a href="/use-case/client-360/relationships-and-connections/social-connections/" target="_top" title="/use-case/client-360/relationships-and-connections/social-connections/" xlink:actuate="onRequest" xlink:href="/use-case/client-360/relationships-and-connections/social-connections/" xlink:show="new" xlink:title="/use-case/client-360/relationships-and-connections/social-connections/" xlink:type="simple"><text fill="#4051B5" font-family="'Roboto'" font-size="13" lengthAdjust="spacing" textLength="123.0049" x="399.7363" y="107.3325">Social Connections</text></a><path d="M342.7363,75.2656 L342.7363,75.4525 L344.7363,74.8973 L346.7363,75.4374 L348.7363,75.6209 L350.7363,74.6315 L352.7363,75.2656 L352.7363,75.2656 L352.7213,75.2345 L354.4351,75.9564 L356.2246,76.8351 L358.0669,77.8227 L359.7275,78.4348 L361.6426,79.5729 L361.8495,79.706 L362.6257,81.3166 L364.0061,83.3157 L365.4603,85.3623 L366.4855,87.133 L367.7363,89.0488 L367.7618,89.0652 L368.9431,90.9363 L370.2406,92.8821 L371.482,94.7919 L372.8303,96.7704 L373.8301,98.5248 L373.9599,98.7933 L375.7428,99.658 L377.4418,100.3496 L379.2635,101.2946 L381.091,102.2516 L382.7363,102.832 L382.7363,102.191 L384.7363,103.4352 L386.7363,102.5685 L388.7363,103.3065 L390.7363,102.392 L392.7363,102.832" fill="none" style="stroke:#FF6F00;stroke-width:1;"/><a href="/use-case/client-360/relationships-and-connections/political-connections/" target="_top" title="/use-case/client-360/relationships-and-connections/political-connections/" xlink:actuate="onRequest" xlink:href="/use-case/client-360/relationships-and-connections/political-connections/" xlink:show="new" xlink:title="/use-case/client-360/relationships-and-connections/political-connections/" xlink:type="simple"><text fill="#4051B5" font-family="'Roboto'" font-size="13" lengthAdjust="spacing" textLength="134.9131" x="399.7363" y="132.4653">Political Connections</text></a><path d="M342.7363,75.2656 L342.7363,75.4525 L344.7363,74.8973 L346.7363,75.4374 L348.7363,75.6209 L350.7363,74.6315 L352.7363,75.2656 L352.7363,75.2656 L352.7129,75.2403 L354.3889,76.7733 L356.1831,78.4342 L358.0595,80.1839 L359.6527,81.6274 L361.6426,83.4999 L361.8758,83.5783 L362.5958,87.0336 L363.9968,90.718 L365.4808,94.4303 L366.4814,97.98 L367.7363,101.6152 L367.7651,101.6249 L368.9416,105.2338 L370.249,108.8867 L371.4933,112.5183 L372.858,116.1905 L373.8301,119.7306 L374.0325,119.9496 L375.8163,121.5991 L377.4694,123.1074 L379.3137,124.8224 L381.167,126.5472 L382.7363,127.9648 L382.7363,127.3238 L384.7363,128.568 L386.7363,127.7013 L388.7363,128.4393 L390.7363,127.5248 L392.7363,127.9648" fill="none" style="stroke:#FF6F00;stroke-width:1;"/><path d="M91.7129,75.2656 L91.7129,75.4525 L93.7129,74.8973 L95.7129,75.4374 L97.7129,75.6209 L99.7129,74.6315 L101.7129,75.2656 L101.7129,75.2656 L101.7129,75.2311 L107.7129,75.0761 L113.7129,75.0952 L119.7129,75.2353 L125.7129,74.9583 L131.7129,75.2656 L131.7129,75.7578 L133.7129,74.7054 L135.7129,75.0898 L137.7129,75.6496 L139.7129,75.1894 L141.7129,75.2656" fill="none" style="stroke:#FF6F00;stroke-width:1;"/><!--SRC=[xLfjRzf84FxkNx7NIDTMAGtaJLLKLG7oqYOa84XwEbLLjDXhMB7UfRlhSDpf_lkDZGssiGquffT8vPEpEtxccTdrxioZd2gDfNOejnmyDepVB69JJb3Zyk6c_kNseTbkjRl8_-qSLezg_QEeIU-ysRuzgtV_3EnIJ3hrvdNzydmEj6JIxfwTTwD-q8vj7zlLwjpaedrx5pFmJRpVtAJUxRR_YDk4A8OQKJx64ZkeZytHG0gNMqt1X4GxMcAkO8vm7J7xF1qJoIWV1LO1O-CrejnahaMG7X8q89n8pD3yFOLiiEuBFNo761qCDSBSGXQM8tXJ2oGUYPn8gWcQK3sSOT17mf4YMbC-KCcSt7t-qho-FU_rK0qMHemr5HmD0TH3qV2YZPaY4U8TR5a0X0uZOzrPk1B8eW-HyTuGMsBYMITHvk7VSyj_8859nEQCsDXb6lrZN0YkRx53qAkkWDZ5Atzabhd5mlc3FVetGRL3uzyeKbrACG6Sr3VIOVIKGOu4i-98OrXTF201fwLN6ud5Z-rmeo4a11lCHBOak5XuuCBQ13wszTVpO0fdB3XiHt1Ja70gkrdEN8VjntDcOOtxM96ItSLyc4ourbOT2CQ8wNqTgdGt2ozDC922RT53muF4Shf55-TSKxrD1vHh8criaYtww94VBk4cwS35HKqwnbpFmEw6r1nneXGSc0jp5PW3e-WRkUIMe5DuHcmMnn8Nqi4iERSKJelQf0KdQoRut22NfdzuBe7xevd8_cmgANzcaSC3esvg8LSmy4qoVNcpMH_mQzGyH5xMu1A2FtPM_gBVl8GF7lC18ny_mcsb1F_q2TQt1vkF20qNMERjKTQzaDnnoJixVaH5w9A_W2J7xA5yteboR0larLHfuhoyN9VFUqkv3Y_abv7g1TkNb-d8Dka75- -CTQ8mZaVXrx3LrTLUeTZp0vjTC1PMGsAj4sjgg2Ound2lo7LZXNezVojj8TBy9Tou3GaRk4LC1xFxfmqTcQHGqri1ZjV01QsmN-mhL46EgxHNbnE4RGWrz9be2oBUWjOqiyU9zAfP9AEbn28PYTeT6dUzkinAl-crbhJlQf9T1onppMbWOjK-LgeOgpm7hz5Di2vgJ4ngKnFYzqi7MAB9qEkgDPn1K7ygRq7znNk7-imbi7QS4wyGKKYusfjURkbAPhl0n_6Q2XfvO_S1VVk6zbn5AYQSdNicez3mLGwEgtkewJyZU4RVlnkxEQQICEotF4CwLXNChKeGfpUsXxhHQVIxrxs4apFatOB8VLTHBvIukqOmckAdQ0WsTYYRnjrS-6CbEb72f9Z5dVJyiHATZ0MZq0qa_NJ2uQIhKm8xFHJaJkFwN7bgrZFMZS8ZT4tHA6gU0h21N1I-bpmEmgH5l_bGNymLY9uAcAS7vM4iCoYW06tcO2tDvocGkIhFfi3hw3h5CNEKdEAWcTfDSSWyjQOuwbRqcP1EXZ8JCjjOb0a3I5DaGj0iCIRa52cOGhWb3IR4IiWlCVkLsilSOL9rcQF71PV8XrH8Eya-MJVPBSkB_rHjv6VpMj7K_czfUWwyrbOiVZARPvMaKiM6aCU6qMIopXKMQjjK4igE997_ifI2mgr-odrPMfiVHKhS9SlTVUoQISjSiWHTewFF9h0ICgFhVWBYhpxxLv_zf3wxmw0ilBzfeKSeFRn_jAYztw_k7xslrVf4urhrpJqVSJ7XVaj6uRlLr25lZJUNdHPImfLGlrfKpJuyUFsjSOKVCUgwtBCxGUqnuLTdr-405FEFL0hkUBtwrTURXS7nOQL1DTJG4eYWhpT6U7ATSrDuNVe9kh-xg7mmMd0Ekz30dY32uRW1N3c5kTv_]--></g></svg>