<svg xmlns="http://www.w3.org/2000/svg" xmlns:xlink="http://www.w3.org/1999/xlink" contentStyleType="text/css" data-diagram-type="MINDMAP" height="303px" preserveAspectRatio="none" style="width:657px;height:303px;" version="1.1" viewBox="0 0 657 303" width="657px" zoomAndPan="magnify"><defs/><g><a href="/use-case/legal-entity-management/" target="_top" title="/use-case/legal-entity-management/" xlink:actuate="onRequest" xlink:href="/use-case/legal-entity-management/" xlink:show="new" xlink:title="/use-case/legal-entity-management/" xlink:type="simple"><text fill="#4051B5" font-family="'Roboto'" font-size="13" lengthAdjust="spacing" textLength="166.9243" x="17" y="155.1646">Legal Entity Management</text></a><a href="/use-case/legal-entity-management/identification-and-registration/" target="_top" title="/use-case/legal-entity-management/identification-and-registration/" xlink:actuate="onRequest" xlink:href="/use-case/legal-entity-management/identification-and-registration/" xlink:show="new" xlink:title="/use-case/legal-entity-management/identification-and-registration/" xlink:type="simple"><text fill="#4051B5" font-family="'Roboto'" font-size="13" lengthAdjust="spacing" textLength="182.6157" x="249.0566" y="79.7661">Identification &amp; Registration</text></a><a href="/use-case/legal-entity-management/identification-and-registration/legal-form/" target="_top" title="/use-case/legal-entity-management/identification-and-registration/legal-form/" xlink:actuate="onRequest" xlink:href="/use-case/legal-entity-management/identification-and-registration/legal-form/" xlink:show="new" xlink:title="/use-case/legal-entity-management/identification-and-registration/legal-form/" xlink:type="simple"><text fill="#4051B5" font-family="'Roboto'" font-size="13" lengthAdjust="spacing" textLength="72.6426" x="496.8047" y="27.0669">Legal Form</text></a><path d="M439.8047,75.2656 L439.8047,75.4525 L441.8047,74.8973 L443.8047,75.4374 L445.8047,75.6209 L447.8047,74.6315 L449.8047,75.2656 L449.8047,75.2656 L449.7812,75.2403 L451.4573,73.4796 L453.2515,71.8468 L455.1279,70.3028 L456.7211,68.4526 L458.7109,67.0314 L458.9442,67.1098 L459.6642,63.319 L461.0651,59.7572 L462.5491,56.2234 L463.5498,52.5269 L464.8047,48.916 L464.8334,48.9257 L466.01,45.2884 L467.3174,41.6952 L468.5617,38.0807 L469.9264,34.5067 L470.8984,30.8007 L471.1009,31.0197 L472.8846,29.3755 L474.5378,27.5901 L476.3821,26.0114 L478.2353,24.4424 L479.8047,22.5664 L479.8047,21.9254 L481.8047,23.1695 L483.8047,22.3028 L485.8047,23.0409 L487.8047,22.1264 L489.8047,22.5664" fill="none" style="stroke:#FF6F00;stroke-width:1;"/><a href="/use-case/legal-entity-management/identification-and-registration/business-registration/" target="_top" title="/use-case/legal-entity-management/identification-and-registration/business-registration/" xlink:actuate="onRequest" xlink:href="/use-case/legal-entity-management/identification-and-registration/business-registration/" xlink:show="new" xlink:title="/use-case/legal-entity-management/identification-and-registration/business-registration/" xlink:type="simple"><text fill="#4051B5" font-family="'Roboto'" font-size="13" lengthAdjust="spacing" textLength="140.4355" x="496.8047" y="52.1997">Business Registration</text></a><path d="M439.8047,75.2656 L439.8047,75.4525 L441.8047,74.8973 L443.8047,75.4374 L445.8047,75.6209 L447.8047,74.6315 L449.8047,75.2656 L449.8047,75.2656 L449.7896,75.2345 L451.5034,74.2335 L453.293,73.3893 L455.1352,72.654 L456.7959,71.5432 L458.7109,70.9584 L458.9179,71.0915 L459.6941,68.9117 L461.0745,67.1205 L462.5287,65.3766 L463.5539,63.357 L464.8047,61.4824 L464.8302,61.4988 L466.0115,59.5796 L467.3089,57.735 L468.5503,55.8543 L469.8986,54.0425 L470.8984,52.0065 L471.0283,52.275 L472.8111,51.4168 L474.5102,50.3854 L476.3319,49.6076 L478.1593,48.8416 L479.8047,47.6992 L479.8047,47.0582 L481.8047,48.3023 L483.8047,47.4357 L485.8047,48.1737 L487.8047,47.2592 L489.8047,47.6992" fill="none" style="stroke:#FF6F00;stroke-width:1;"/><a href="/use-case/legal-entity-management/identification-and-registration/commercial-register/" target="_top" title="/use-case/legal-entity-management/identification-and-registration/commercial-register/" xlink:actuate="onRequest" xlink:href="/use-case/legal-entity-management/identification-and-registration/commercial-register/" xlink:show="new" xlink:title="/use-case/legal-entity-management/identification-and-registration/commercial-register/" xlink:type="simple"><text fill="#4051B5" font-family="'Roboto'" font-size="13" lengthAdjust="spacing" textLength="136.2778" x="496.8047" y="77.3325">Commercial Register</text></a><path d="M439.8047,75.2656 L439.8047,75.4525 L441.8047,74.8973 L443.8047,75.4374 L445.8047,75.6209 L447.8047,74.6315 L449.8047,75.2656 L449.8047,75.2656 L449.8019,75.2312 L452.7894,74.8333 L455.7909,74.609 L458.8022,74.5054 L461.7798,73.9859 L464.8047,74.0488 L464.8246,74.2941 L467.782,73.5263 L470.7976,73.4745 L473.8202,73.5101 L476.8016,73.0374 L479.8047,72.832 L479.8047,72.8927 L481.8047,72.8036 L483.8047,72.9907 L485.8047,73.0446 L487.8047,73.3526 L489.8047,72.832" fill="none" style="stroke:#FF6F00;stroke-width:1;"/><polygon fill="#4051B5" points="493.8047,95.3984,493.8047,95.6086,504.0196,94.9841,514.2346,95.5917,524.4495,95.7981,534.6645,94.685,544.8794,95.3207,555.0943,94.9719,565.3093,95.0149,575.5242,95.3303,585.7392,94.7071,595.9541,95.3984,596.0247,95.5689,596.4394,95.4387,597.0602,95.8062,597.7063,96.2344,598.2059,96.3093,598.7825,96.57,598.8035,96.5787,599.007,97.1316,599.3061,97.7242,599.5591,98.2976,599.9002,98.9075,599.9541,99.3984,600.1778,99.3984,600.1805,104.825,600.039,110.2516,600.1086,115.6781,600.1882,121.1047,599.9541,126.5313,599.732,126.4393,599.9287,127.1835,599.3942,127.6248,599.4156,128.2964,598.8644,128.7308,598.7825,129.3597,598.7738,129.3386,598.3114,129.8224,597.6449,129.8133,597.0989,130.095,596.563,130.4012,595.9541,130.5313,595.9541,130.9475,585.7392,130.5273,575.5242,130.8185,565.3093,129.9588,555.0943,130.8156,544.8794,131.0794,534.6645,130.9758,524.4495,131.1443,514.2346,130.0482,504.0196,129.8791,493.8047,130.5313,493.7254,130.3399,493.2315,130.2788,492.6482,130.0021,492.1946,130.0382,491.5197,129.5402,490.9763,129.3597,490.8706,129.3159,490.8122,128.8231,490.3023,128.1432,490.1134,127.5964,490.2389,127.1797,489.8047,126.5313,489.9499,126.5313,490.0495,121.1047,489.6974,115.6781,489.9111,110.2516,490.0015,104.825,489.8047,99.3984,489.6592,99.3382,490.0095,98.8205,490.3121,98.2831,490.7083,97.7845,490.7407,97.1352,490.9763,96.57,491.0353,96.7125,491.4713,96.1652,492.0212,95.8928,492.7376,96.0222,493.1475,95.412,493.8047,95.3984" style="stroke:#FF6F00;stroke-width:1.5;"/><a href="/use-case/legal-entity-management/identification-and-registration/classification/" target="_top" title="/use-case/legal-entity-management/identification-and-registration/classification/" xlink:actuate="onRequest" xlink:href="/use-case/legal-entity-management/identification-and-registration/classification/" xlink:show="new" xlink:title="/use-case/legal-entity-management/identification-and-registration/classification/" xlink:type="simple"><text fill="#4051B5" font-family="'Roboto'" font-size="13" lengthAdjust="spacing" textLength="86.0171" x="499.8047" y="117.4653">Classification</text></a><path d="M439.8047,75.2656 L439.8047,75.4525 L441.8047,74.8973 L443.8047,75.4374 L445.8047,75.6209 L447.8047,74.6315 L449.8047,75.2656 L449.8047,75.2656 L449.7856,75.2368 L451.4814,76.2856 L453.2732,77.4797 L455.1317,78.7747 L456.7602,79.7217 L458.7109,81.1561 L458.9336,81.2608 L459.6762,83.6287 L461.0689,86.3024 L462.5409,89.0133 L463.5514,91.5072 L464.8047,94.1152 L464.8321,94.1281 L466.0106,96.701 L467.314,99.3326 L468.5571,101.9359 L469.9153,104.5933 L470.8984,107.0743 L471.063,107.3231 L472.8462,108.5042 L474.5234,109.5249 L476.3558,110.7805 L478.1956,112.0471 L479.8047,112.9648 L479.8047,112.3238 L481.8047,113.568 L483.8047,112.7013 L485.8047,113.4393 L487.8047,112.5248 L489.8047,112.9648" fill="none" style="stroke:#FF6F00;stroke-width:1;"/><path d="M192.0566,150.6641 L192.0566,150.8509 L194.0566,150.2958 L196.0566,150.8359 L198.0566,151.0193 L200.0566,150.0299 L202.0566,150.6641 L202.0566,150.6641 L202.0291,150.6432 L203.6867,148.1936 L205.4832,145.8489 L207.3762,143.5772 L208.9365,141.054 L210.9629,138.8831 L211.2006,138.9465 L211.3368,136.3957 L212.167,134.0302 L213.082,131.6872 L213.5042,129.2128 L214.1855,126.8075 L214.2152,126.8137 L214.7459,124.0361 L215.4117,121.2866 L216.0123,118.5235 L216.7373,115.7862 L217.0566,112.9648 L217.3487,113.0254 L217.9265,110.2576 L218.3159,107.4508 L218.981,104.7011 L219.6591,101.9541 L219.9277,99.1222 L219.618,99.0395 L220.8636,96.7848 L221.0895,94.258 L222.0906,91.938 L222.2933,89.405 L223.1504,87.0466 L223.1261,87.0283 L225.1946,84.8892 L226.6956,82.3212 L228.5315,80.0063 L230.3954,77.7126 L232.0566,75.2656 L232.0566,75.6356 L234.0566,75.2622 L236.0566,75.5209 L238.0566,74.7568 L240.0566,75.5184 L242.0566,75.2656" fill="none" style="stroke:#FF6F00;stroke-width:1;"/><a href="/use-case/legal-entity-management/corporate-governance/" target="_top" title="/use-case/legal-entity-management/corporate-governance/" xlink:actuate="onRequest" xlink:href="/use-case/legal-entity-management/corporate-governance/" xlink:show="new" xlink:title="/use-case/legal-entity-management/corporate-governance/" xlink:type="simple"><text fill="#4051B5" font-family="'Roboto'" font-size="13" lengthAdjust="spacing" textLength="147.7734" x="249.0566" y="104.8989">Corporate Governance</text></a><path d="M192.0566,150.6641 L192.0566,150.8509 L194.0566,150.2958 L196.0566,150.8359 L198.0566,151.0193 L200.0566,150.0299 L202.0566,150.6641 L202.0566,150.6641 L202.0338,150.6382 L203.7125,148.9511 L205.5064,147.3946 L207.3804,145.9289 L208.9784,144.1504 L210.9629,142.8101 L211.1949,142.8919 L211.9175,139.2611 L213.3175,135.8693 L214.8002,132.5066 L215.8019,128.9743 L217.0566,125.5313 L217.0852,125.5413 L218.262,122.0708 L219.569,118.6461 L220.8131,115.1993 L222.1771,111.7948 L223.1504,108.2524 L223.3477,108.4761 L225.1313,106.9081 L226.7877,105.1957 L228.6304,103.6946 L230.4818,102.2033 L232.0566,100.3984 L232.0566,99.7574 L234.0566,101.0016 L236.0566,100.1349 L238.0566,100.8729 L240.0566,99.9584 L242.0566,100.3984" fill="none" style="stroke:#FF6F00;stroke-width:1;"/><a href="/use-case/legal-entity-management/ownership-and-capital-structure/" target="_top" title="/use-case/legal-entity-management/ownership-and-capital-structure/" xlink:actuate="onRequest" xlink:href="/use-case/legal-entity-management/ownership-and-capital-structure/" xlink:show="new" xlink:title="/use-case/legal-entity-management/ownership-and-capital-structure/" xlink:type="simple"><text fill="#4051B5" font-family="'Roboto'" font-size="13" lengthAdjust="spacing" textLength="198.1992" x="249.0566" y="157.5981">Ownership &amp; Capital Structure</text></a><path d="M192.0566,150.6641 L192.0566,150.8509 L194.0566,150.2958 L196.0566,150.8359 L198.0566,151.0193 L200.0566,150.0299 L202.0566,150.6641 L202.0566,150.6641 L202.0538,150.6296 L205.0413,150.7185 L208.0429,150.9809 L211.0542,151.3639 L214.0318,151.3312 L217.0566,151.8809 L217.0765,152.1261 L220.034,151.845 L223.0495,152.28 L226.0722,152.8023 L229.0536,152.8163 L232.0566,153.0977 L232.0566,153.1583 L234.0566,153.0693 L236.0566,153.2563 L238.0566,153.3102 L240.0566,153.6183 L242.0566,153.0977" fill="none" style="stroke:#FF6F00;stroke-width:1;"/><a href="/use-case/legal-entity-management/financial-information/" target="_top" title="/use-case/legal-entity-management/financial-information/" xlink:actuate="onRequest" xlink:href="/use-case/legal-entity-management/financial-information/" xlink:show="new" xlink:title="/use-case/legal-entity-management/financial-information/" xlink:type="simple"><text fill="#4051B5" font-family="'Roboto'" font-size="13" lengthAdjust="spacing" textLength="137.4839" x="249.0566" y="182.731">Financial Information</text></a><path d="M192.0566,150.6641 L192.0566,150.8509 L194.0566,150.2958 L196.0566,150.8359 L198.0566,151.0193 L200.0566,150.0299 L202.0566,150.6641 L202.0566,150.6641 L202.0416,150.633 L203.7554,151.3549 L205.5449,152.2335 L207.3872,153.2211 L209.0479,153.8332 L210.9629,154.9713 L211.1699,155.1044 L211.946,156.715 L213.3265,158.7142 L214.7806,160.7607 L215.8058,162.5315 L217.0566,164.4473 L217.0821,164.4637 L218.2634,166.3348 L219.5609,168.2806 L220.8023,170.1903 L222.1506,172.1688 L223.1504,173.9232 L223.2802,174.1917 L225.0631,175.0564 L226.7622,175.748 L228.5838,176.6931 L230.4113,177.65 L232.0566,178.2305 L232.0566,177.5894 L234.0566,178.8336 L236.0566,177.9669 L238.0566,178.705 L240.0566,177.7904 L242.0566,178.2305" fill="none" style="stroke:#FF6F00;stroke-width:1;"/><a href="/use-case/legal-entity-management/lifecycle-and-status/" target="_top" title="/use-case/legal-entity-management/lifecycle-and-status/" xlink:actuate="onRequest" xlink:href="/use-case/legal-entity-management/lifecycle-and-status/" xlink:show="new" xlink:title="/use-case/legal-entity-management/lifecycle-and-status/" xlink:type="simple"><text fill="#4051B5" font-family="'Roboto'" font-size="13" lengthAdjust="spacing" textLength="116.854" x="249.0566" y="207.8638">Lifecycle &amp; Status</text></a><path d="M192.0566,150.6641 L192.0566,150.8509 L194.0566,150.2958 L196.0566,150.8359 L198.0566,151.0193 L200.0566,150.0299 L202.0566,150.6641 L202.0566,150.6641 L202.0332,150.6387 L203.7092,152.1717 L205.5034,153.8326 L207.3798,155.5824 L208.973,157.0258 L210.9629,158.8983 L211.1961,158.9768 L211.9161,162.4321 L213.3171,166.1164 L214.8011,169.8287 L215.8018,173.3784 L217.0566,177.0137 L217.0854,177.0233 L218.2619,180.6322 L219.5693,184.2851 L220.8136,187.9168 L222.1784,191.589 L223.1504,195.129 L223.3529,195.348 L225.1366,196.9975 L226.7897,198.5058 L228.634,200.2209 L230.4873,201.9456 L232.0566,203.3633 L232.0566,202.7222 L234.0566,203.9664 L236.0566,203.0997 L238.0566,203.8378 L240.0566,202.9233 L242.0566,203.3633" fill="none" style="stroke:#FF6F00;stroke-width:1;"/><a href="/use-case/legal-entity-management/contact-and-location-information/" target="_top" title="/use-case/legal-entity-management/contact-and-location-information/" xlink:actuate="onRequest" xlink:href="/use-case/legal-entity-management/contact-and-location-information/" xlink:show="new" xlink:title="/use-case/legal-entity-management/contact-and-location-information/" xlink:type="simple"><text fill="#4051B5" font-family="'Roboto'" font-size="13" lengthAdjust="spacing" textLength="203.8042" x="249.0566" y="232.9966">Contact &amp; Location Information</text></a><path d="M192.0566,150.6641 L192.0566,150.8509 L194.0566,150.2958 L196.0566,150.8359 L198.0566,151.0193 L200.0566,150.0299 L202.0566,150.6641 L202.0566,150.6641 L202.0288,150.6437 L203.685,152.9843 L205.4816,155.4279 L207.376,157.9429 L208.9337,160.2115 L210.9629,162.8253 L211.2011,162.8869 L211.3362,165.2483 L212.1669,167.7894 L213.0823,170.3525 L213.5041,172.788 L214.1855,175.2906 L214.2153,175.2966 L214.7458,178.1457 L215.4118,181.022 L216.0124,183.8852 L216.7376,186.7735 L217.0566,189.5801 L217.349,189.6388 L217.9268,192.4974 L218.316,195.3182 L218.9813,198.1943 L219.6595,201.0731 L219.9277,203.8696 L219.6174,203.7893 L220.8642,206.4381 L221.0892,208.8227 L222.091,211.4081 L222.2929,213.7867 L223.1504,216.3348 L223.1258,216.3169 L225.1976,218.9618 L226.6954,221.1865 L228.5319,223.6592 L230.3968,226.1528 L232.0566,228.4961 L232.0566,228.8661 L234.0566,228.4926 L236.0566,228.7514 L238.0566,227.9873 L240.0566,228.7489 L242.0566,228.4961" fill="none" style="stroke:#FF6F00;stroke-width:1;"/><a href="/use-case/legal-entity-management/compliance-and-documentation/" target="_top" title="/use-case/legal-entity-management/compliance-and-documentation/" xlink:actuate="onRequest" xlink:href="/use-case/legal-entity-management/compliance-and-documentation/" xlink:show="new" xlink:title="/use-case/legal-entity-management/compliance-and-documentation/" xlink:type="simple"><text fill="#4051B5" font-family="'Roboto'" font-size="13" lengthAdjust="spacing" textLength="195.1396" x="249.0566" y="258.1294">Compliance &amp; Documentation</text></a><path d="M192.0566,150.6641 L192.0566,150.8509 L194.0566,150.2958 L196.0566,150.8359 L198.0566,151.0193 L200.0566,150.0299 L202.0566,150.6641 L202.0566,150.6641 L202.0264,150.6473 L203.6721,153.7899 L205.47,157.0168 L207.3739,160.3023 L208.9128,163.3858 L210.9629,166.7523 L211.2044,166.7995 L211.3325,169.9967 L212.1657,173.3316 L213.0849,176.6834 L213.5036,179.9374 L214.1855,183.2428 L214.2155,183.2473 L214.7457,187.0214 L215.4124,190.8162 L216.0133,194.601 L216.7398,198.4048 L217.0566,202.1465 L217.3515,202.1913 L217.9293,205.9726 L218.317,209.725 L218.983,213.5196 L219.6621,217.3163 L219.9277,221.0502 L219.6132,220.9887 L220.8682,224.4061 L221.0875,227.6211 L222.0942,230.99 L222.2899,234.2004 L223.1504,237.5406 L223.1238,237.5259 L225.22,240.9179 L226.6939,243.9655 L228.5351,247.2163 L230.4071,250.4841 L232.0566,253.6289 L232.0566,253.9989 L234.0566,253.6254 L236.0566,253.8842 L238.0566,253.1201 L240.0566,253.8817 L242.0566,253.6289" fill="none" style="stroke:#FF6F00;stroke-width:1;"/><a href="/use-case/legal-entity-management/supporting-information/" target="_top" title="/use-case/legal-entity-management/supporting-information/" xlink:actuate="onRequest" xlink:href="/use-case/legal-entity-management/supporting-information/" xlink:show="new" xlink:title="/use-case/legal-entity-management/supporting-information/" xlink:type="simple"><text fill="#4051B5" font-family="'Roboto'" font-size="13" lengthAdjust="spacing" textLength="151.106" x="249.0566" y="283.2622">Supporting Information</text></a><path d="M192.0566,150.6641 L192.0566,150.8509 L194.0566,150.2958 L196.0566,150.8359 L198.0566,151.0193 L200.0566,150.0299 L202.0566,150.6641 L202.0566,150.6641 L202.031,150.6409 L202.9122,151.6377 L203.9224,152.7514 L205.0225,153.9463 L205.8132,154.8613 L207.0371,156.1683 L207.2746,156.2325 L207.5519,158.9973 L208.5226,161.9497 L209.5779,164.925 L210.1409,167.7672 L210.9629,170.6793 L210.9928,170.6845 L211.2843,172.6159 L211.712,174.5708 L212.074,176.5144 L212.5612,178.4796 L212.6401,180.3742 L212.9354,180.4164 L213.2481,182.581 L213.3703,184.7185 L213.7714,186.8958 L214.1854,189.0749 L214.1855,191.195 L213.8674,191.1561 L215.0591,195.9351 L215.2032,200.5862 L216.1437,205.3345 L216.264,209.9826 L217.0566,214.7129 L217.0264,214.7092 L217.958,219.4564 L218.1836,224.1174 L218.8258,228.8293 L219.5029,233.5455 L219.9277,238.2308 L220.1109,238.257 L220.2351,240.3947 L220.6723,242.5772 L220.6031,244.6873 L221.2892,246.9053 L221.4731,249.0516 L221.7132,249.0931 L222.0033,251.0242 L222.4125,252.976 L222.2679,254.8319 L222.5293,256.7581 L223.1504,258.7465 L222.8838,258.6743 L223.9103,261.6418 L224.6364,264.5281 L225.7982,267.5322 L226.2161,270.335 L227.0762,273.2575 L226.9631,273.1552 L228.1475,274.4264 L228.8486,275.2604 L229.8934,276.4052 L231.2744,277.8544 L232.0566,278.7617 L232.0566,279.149 L234.0566,279.4146 L236.0566,278.4757 L238.0566,279.0454 L240.0566,279.2865 L242.0566,278.7617" fill="none" style="stroke:#FF6F00;stroke-width:1;"/><!--SRC=[xLXjRzis4FwkNy4rmDgYTHEdQL4KHL77UMbQ9mxifCDG504jqJOHYbH9AbasxB_lA8co95kovSXT2yIVakFnkHTIlBldWz9OQfzopyU1u_pcaJ7b1EqVNvrsJiwkklrUVu2YtzRUpglsw5LMPNZOxPyTT0P_9deBLCuxtS-TuyCKQ4wbFpWu76JjeAtn-FLuPoTLEUgVNUGK8XNpIrKwWq7_ZxoEHN7KDUK1bjX78-nUJwG8kTSLJ4YqfINc2jO8rncrZtS1aOpowqGhyTXvZ2XtMUWHfAS4JGWd4ZEKxbDe3DeZeQVF4QEJgKQOUyZ3yXfsQe743P6tacg2RgcUnXZqXd2aYDQKJrGn9nSVJxgVpmw7GzI6Wn61feAZAO0Q50qRnvWfad7y77iU0A6zZ6mGXol1MVGc8nzEiITkZNOH9Gt_adlH7oHHoUWSa34EcKR_E4U2wpFi4_He821syIYIn9cR7Lma7DA_2MhlEVzcaJfIYbl0MRXZCOo-Ov0ZmRmyKW2dYoSayMbkwtxXy7CttDaN4e9DLZ9N4apCB73XrO7FNVtLBBZ23mI7wmXcrdHueNTnpaAVxUPpvc6DHrYHXitbRBXCXDv63GZ6Y6k-3jMucPcLBYX8mJPeOTz0OdctGHE7N5EzIGEKQoB7s2KRj34atqF2NN8EXOkwDC1Sns0NK-fUSw8KF9WpTPMeWqVP7PNEpK4ly3EZCtkMk90-PiMrkN1wT4nwyBAMWgSAbMv6Z-SSU2GjHOvM5peLhSno-DBfk5h89Hv4AgMsp6hP1_mOTVUGoHeK8VXdQ-al-yrB-E0ndp3oxXrKAoNu-_TmlaEuV4HeA62brQEfkb2ySSMQdN-YCkwIly19ZjbLytuNsh4DEA_kb2R-hvVhvltUKAvjGVurKZtpzjVBTEQQZ9B26tjTQ8ppKKGzxCxoRc-jsAi3YmkCXzMKUAl4kZ1K5mnZg2jorLYXNw- -IXk8jFe8QuyXTe2RnVGohZzzcCWaXPxUIt3C09UCmb6phr0B-Q7IfYyd28yXL6kpC1Pah2MZQUcCavbLovpCjXApP1HwTnZSzV8sQt6brrhIKQX9UHymxsl509Fhzh5IwtbLPU0nEatEHGN4fMFgGlnHwm17T3irKxM6DmZwJsKED3gyvsZ4GW9dnpanZOX28jHcUNwaQzZR6JxEzrGmo3lFhj3NhsWxLAJbmjkvpSW4inQ9ElEMZpdCi3xyjurwPi6sxAVf0lhspNcsAWX42p985pRpKGjphoN9X2ej8y4sEiafeD_H8BCScshALhmFlZ7VndO4VpThOnGgQZ9TY78_4MymEdWYV29T2fjZEP7RC3HQOM8P7f3OQaD6pTUMheEztF-rReehP200bhGcXgdY64Oc4q0YHSUfj1Qik8LYewOqY9ntSK0rw440eQj32HRwLW7kNZTUXgaWMQvbQaoDU-O0A3UtBCd9aHMZavcu5Z23OSozSnc9OZ3lRgZW2bifE3wCP3Np3PNOrH4a4ya1vnplnXe0tqlMrux0y4gCciEBx7d23OqyDMHNmTP1TgsM4HK6S5SCbPcFOvZAY_v_8F2cM-hvGvw9Rewt_OaPKjiih4YFPjKN0DGWHks-Ok6pISjMDykaLrAXzmMiOZwhCEOzM8Fhh6TW9NRpFf2LV6PTu5KOpFKnApZBzK5BMShr8QjuoVLHDy94MdTAE4ZhMMtwqGQmY7kqe6Mqe_KfCnfOk3csqM8LYCQS_bAMCJLOv1TJz3orcFcGrc89or_MEhTb_l3lomB-QB-Mq3V_Mvf-1hzMvkP-i3S_LP8QfTMi7pMZAVMwaa9hRv8pQpgIGlwRuiJM9hKMrCl62AqiKg6MpFDOkJApA7F55dG5xghSWQMG9VpIFH0V6AK7Hkc1KNfWb1uOfQMCqZc30UZoj8VWdYcZq7wnkxFxwaMxFI8QjtUUNF9h3jSf8Xyef5rJdpnrdXoVzv0IeGJlFVDbc183svywd_0DHeEG6xstg1yG_kdWinN0ktf3fU36S-VJbzEPmkkzrZxLC2rAS0HzENLiZJxahZ1yr5jqUN7KUkFqeEC88VYtY70eh80hxs1j-1y0]--></g></svg>