<svg xmlns="http://www.w3.org/2000/svg" xmlns:xlink="http://www.w3.org/1999/xlink" contentStyleType="text/css" data-diagram-type="MINDMAP" height="314px" preserveAspectRatio="none" style="width:696px;height:314px;" version="1.1" viewBox="0 0 696 314" width="696px" zoomAndPan="magnify"><defs/><g><a href="/use-case/legal-entity-management/" target="_top" title="/use-case/legal-entity-management/" xlink:actuate="onRequest" xlink:href="/use-case/legal-entity-management/" xlink:show="new" xlink:title="/use-case/legal-entity-management/" xlink:type="simple"><text fill="#90EE90" font-family="'Roboto'" font-size="14" lengthAdjust="spacing" textLength="179.7646" x="17" y="161.3311">Legal Entity Management</text></a><a href="/use-case/legal-entity-management/identification-and-registration/" target="_top" title="/use-case/legal-entity-management/identification-and-registration/" xlink:actuate="onRequest" xlink:href="/use-case/legal-entity-management/identification-and-registration/" xlink:show="new" xlink:title="/use-case/legal-entity-management/identification-and-registration/" xlink:type="simple"><text fill="#90EE90" font-family="'Roboto'" font-size="14" lengthAdjust="spacing" textLength="196.6631" x="262.2148" y="82.4404">Identification &amp; Registration</text></a><a href="/use-case/legal-entity-management/identification-and-registration/legal-form/" target="_top" title="/use-case/legal-entity-management/identification-and-registration/legal-form/" xlink:actuate="onRequest" xlink:href="/use-case/legal-entity-management/identification-and-registration/legal-form/" xlink:show="new" xlink:title="/use-case/legal-entity-management/identification-and-registration/legal-form/" xlink:type="simple"><text fill="#90EE90" font-family="'Roboto'" font-size="14" lengthAdjust="spacing" textLength="78.2305" x="524.3281" y="27.9951">Legal Form</text></a><path d="M467.3281,77.5938 L467.3281,77.7806 L469.3281,77.2255 L471.3281,77.7656 L473.3281,77.949 L475.3281,76.9596 L477.3281,77.5938 L477.3281,77.5938 L477.3043,77.5688 L478.9784,75.7553 L480.7729,74.0677 L482.651,72.4676 L484.2409,70.5659 L486.2344,69.0867 L486.4683,69.1629 L487.1868,65.2568 L488.5883,61.5732 L490.0732,57.9168 L491.0731,54.1024 L492.3281,50.3711 L492.357,50.3805 L493.5334,46.6236 L494.8411,42.9094 L496.0854,39.1747 L497.4506,35.4792 L498.4219,31.6555 L498.6279,31.8712 L500.4116,30.1724 L502.0625,28.3345 L503.9079,26.7003 L505.7624,25.0755 L507.3281,23.1484 L507.3281,22.5074 L509.3281,23.7516 L511.3281,22.8849 L513.3281,23.6229 L515.3281,22.7084 L517.3281,23.1484" fill="none" style="stroke:#FF9900;stroke-width:1;"/><a href="/use-case/legal-entity-management/identification-and-registration/business-registration/" target="_top" title="/use-case/legal-entity-management/identification-and-registration/business-registration/" xlink:actuate="onRequest" xlink:href="/use-case/legal-entity-management/identification-and-registration/business-registration/" xlink:show="new" xlink:title="/use-case/legal-entity-management/identification-and-registration/business-registration/" xlink:type="simple"><text fill="#90EE90" font-family="'Roboto'" font-size="14" lengthAdjust="spacing" textLength="151.2383" x="524.3281" y="54.292">Business Registration</text></a><path d="M467.3281,77.5938 L467.3281,77.7806 L469.3281,77.2255 L471.3281,77.7656 L473.3281,77.949 L475.3281,76.9596 L477.3281,77.5938 L477.3281,77.5938 L477.3128,77.5628 L479.0254,76.5442 L480.8152,75.6816 L482.6585,74.9277 L484.3171,73.7997 L486.2344,73.1956 L486.4426,73.3267 L487.2161,71.1111 L488.5975,69.2783 L490.0531,67.4922 L491.0771,65.4344 L492.3281,63.5195 L492.3538,63.5357 L493.5349,61.5768 L494.8328,59.6914 L496.0743,57.7706 L497.4234,55.9174 L498.4219,53.8435 L498.5539,54.1109 L500.3368,53.2346 L502.0345,52.1857 L503.8569,51.3893 L505.6851,50.6048 L507.3281,49.4453 L507.3281,48.8043 L509.3281,50.0484 L511.3281,49.1818 L513.3281,49.9198 L515.3281,49.0053 L517.3281,49.4453" fill="none" style="stroke:#FF9900;stroke-width:1;"/><a href="/use-case/legal-entity-management/identification-and-registration/commercial-register/" target="_top" title="/use-case/legal-entity-management/identification-and-registration/commercial-register/" xlink:actuate="onRequest" xlink:href="/use-case/legal-entity-management/identification-and-registration/commercial-register/" xlink:show="new" xlink:title="/use-case/legal-entity-management/identification-and-registration/commercial-register/" xlink:type="simple"><text fill="#90EE90" font-family="'Roboto'" font-size="14" lengthAdjust="spacing" textLength="146.7607" x="524.3281" y="80.5889">Commercial Register</text></a><path d="M467.3281,77.5938 L467.3281,77.7806 L469.3281,77.2255 L471.3281,77.7656 L473.3281,77.949 L475.3281,76.9596 L477.3281,77.5938 L477.3281,77.5938 L477.326,77.5593 L480.3164,77.2194 L483.3176,77.0533 L486.3263,77.008 L489.3092,76.5464 L492.3281,76.668 L492.3433,76.9136 L495.3109,76.2032 L498.3227,76.2099 L501.34,76.3041 L504.3258,75.8893 L507.3281,75.7422 L507.3281,75.8028 L509.3281,75.7138 L511.3281,75.9009 L513.3281,75.9548 L515.3281,76.2628 L517.3281,75.7422" fill="none" style="stroke:#FF9900;stroke-width:1;"/><polygon fill="#4051B5" points="521.3281,98.8906,521.3281,99.1008,531.2449,98.4763,541.1616,99.0839,551.0783,99.2903,560.995,98.1772,570.9118,98.8129,580.8285,98.4641,590.7452,98.5071,600.6619,98.8225,610.5787,98.1993,620.4954,99.4443,630.4121,98.8906,630.3317,98.6965,630.9526,99.064,631.5986,99.4923,632.0982,99.5672,632.6836,99.8489,633.2405,100.0622,633.2307,100.0581,633.5298,100.6507,633.7828,101.2241,634.1238,101.834,634.3845,102.4105,634.4121,102.8906,634.6385,102.8906,634.497,108.55,634.5666,114.2094,634.6462,119.8688,634.1717,125.5281,634.4121,131.1875,634.6211,131.2741,634.0865,131.7154,634.1079,132.387,633.5567,132.8214,633.4538,133.4415,633.2405,134.0159,633.3351,134.2443,632.6686,134.2352,632.1226,134.517,631.5867,134.8232,631.0309,135.0814,630.4121,135.1875,630.4121,135.1836,620.4954,135.4747,610.5787,134.6151,600.6619,135.4719,590.7452,135.7357,580.8285,135.632,570.9118,135.8005,560.995,134.7044,551.0783,134.5353,541.1616,134.5661,531.2449,135.1286,521.3281,135.1875,521.3031,135.127,520.8494,135.163,520.1745,134.6651,519.5873,134.3789,519.0945,134.3205,518.4997,134.0159,518.2943,133.9309,518.1055,133.384,518.2309,132.9673,517.9309,132.3744,517.7886,131.8469,517.3281,131.1875,517.2209,131.1875,517.4345,125.5281,517.5249,119.8688,517.1707,114.2094,517.2962,108.55,517.3281,102.8906,517.3669,102.9067,517.7632,102.4081,517.7955,101.7587,518.1735,101.2526,518.0948,100.5572,518.4997,100.0622,518.4133,99.8536,519.1296,99.983,519.5396,99.3728,520.2617,99.516,520.7888,99.1886,521.3281,98.8906" style="stroke:#FF6F00;stroke-width:1.5;"/><a href="/use-case/legal-entity-management/identification-and-registration/classification/" target="_top" title="/use-case/legal-entity-management/identification-and-registration/classification/" xlink:actuate="onRequest" xlink:href="/use-case/legal-entity-management/identification-and-registration/classification/" xlink:show="new" xlink:title="/use-case/legal-entity-management/identification-and-registration/classification/" xlink:type="simple"><text fill="#90EE90" font-family="'Roboto'" font-size="14" lengthAdjust="spacing" textLength="92.6338" x="527.3281" y="121.8857">Classification</text></a><path d="M467.3281,77.5938 L467.3281,77.7806 L469.3281,77.2255 L471.3281,77.7656 L473.3281,77.949 L475.3281,76.9596 L477.3281,77.5938 L477.3281,77.5938 L477.3085,77.5653 L479.0015,78.6705 L480.7936,79.9189 L482.6546,81.2668 L484.2783,82.2717 L486.2344,83.7571 L486.4588,83.8579 L487.1976,86.3541 L488.5917,89.1448 L490.0657,91.9714 L491.0746,94.5889 L492.3281,97.3164 L492.3558,97.3288 L493.5339,100.0225 L494.838,102.7727 L496.0813,105.4956 L497.4406,108.2706 L498.4219,110.8757 L498.5916,111.121 L500.3749,112.3566 L502.0488,113.4341 L503.8829,114.7432 L505.7245,116.063 L507.3281,117.0391 L507.3281,116.398 L509.3281,117.6422 L511.3281,116.7755 L513.3281,117.5136 L515.3281,116.599 L517.3281,117.0391" fill="none" style="stroke:#FF9900;stroke-width:1;"/><path d="M205.2148,156.4844 L205.2148,156.6712 L207.2148,156.1161 L209.2148,156.6562 L211.2148,156.8396 L213.2148,155.8502 L215.2148,156.4844 L215.2148,156.4844 L215.1868,156.4641 L216.8424,153.908 L218.6392,151.4539 L220.534,149.0706 L222.0908,146.4431 L224.1211,144.1577 L224.3595,144.2185 L224.4942,141.5615 L225.325,139.0821 L226.2407,136.6243 L226.6623,134.0404 L227.3438,131.5229 L227.3735,131.5288 L227.904,128.6234 L228.57,125.7448 L229.1707,122.8533 L229.896,119.9864 L230.2148,117.0391 L230.5074,117.0971 L231.0852,114.201 L231.4743,111.2675 L232.1396,108.3888 L232.8179,105.5127 L233.0859,102.5552 L232.7754,102.476 L234.0227,100.1028 L234.2473,97.4687 L235.2494,95.033 L235.4509,92.393 L236.3086,89.9204 L236.2839,89.9026 L238.357,87.6481 L239.8535,84.9771 L241.6903,82.5518 L243.5556,80.1472 L245.2148,77.5938 L245.2148,77.9637 L247.2148,77.5903 L249.2148,77.8491 L251.2148,77.0849 L253.2148,77.8465 L255.2148,77.5938" fill="none" style="stroke:#FF9900;stroke-width:1;"/><a href="/use-case/legal-entity-management/corporate-governance/" target="_top" title="/use-case/legal-entity-management/corporate-governance/" xlink:actuate="onRequest" xlink:href="/use-case/legal-entity-management/corporate-governance/" xlink:show="new" xlink:title="/use-case/legal-entity-management/corporate-governance/" xlink:type="simple"><text fill="#90EE90" font-family="'Roboto'" font-size="14" lengthAdjust="spacing" textLength="159.1406" x="262.2148" y="108.7373">Corporate Governance</text></a><path d="M205.2148,156.4844 L205.2148,156.6712 L207.2148,156.1161 L209.2148,156.6562 L211.2148,156.8396 L213.2148,155.8502 L215.2148,156.4844 L215.2148,156.4844 L215.1914,156.459 L216.8676,154.7015 L218.6618,153.072 L220.5381,151.5314 L222.1315,149.6843 L224.1211,148.2666 L224.3543,148.3452 L225.0744,144.5613 L226.4753,141.0069 L227.9593,137.4805 L228.96,133.7911 L230.2148,130.1875 L230.2436,130.1972 L231.4201,126.5671 L232.7275,122.9812 L233.9718,119.374 L235.3365,115.8074 L236.3086,112.1084 L236.5108,112.3276 L238.2946,110.6867 L239.9478,108.9045 L241.7921,107.3292 L243.6452,105.7636 L245.2148,103.8906 L245.2148,103.2496 L247.2148,104.4937 L249.2148,103.6271 L251.2148,104.3651 L253.2148,103.4506 L255.2148,103.8906" fill="none" style="stroke:#FF9900;stroke-width:1;"/><a href="/use-case/legal-entity-management/ownership-and-capital-structure/" target="_top" title="/use-case/legal-entity-management/ownership-and-capital-structure/" xlink:actuate="onRequest" xlink:href="/use-case/legal-entity-management/ownership-and-capital-structure/" xlink:show="new" xlink:title="/use-case/legal-entity-management/ownership-and-capital-structure/" xlink:type="simple"><text fill="#90EE90" font-family="'Roboto'" font-size="14" lengthAdjust="spacing" textLength="213.4453" x="262.2148" y="163.1826">Ownership &amp; Capital Structure</text></a><path d="M205.2148,156.4844 L205.2148,156.6712 L207.2148,156.1161 L209.2148,156.6562 L211.2148,156.8396 L213.2148,155.8502 L215.2148,156.4844 L215.2148,156.4844 L215.2127,156.4499 L218.2032,156.4803 L221.2043,156.6846 L224.213,157.0096 L227.1959,156.9183 L230.2148,157.4102 L230.23,157.6558 L233.1976,157.3157 L236.2094,157.6927 L239.2267,158.1572 L242.2125,158.1127 L245.2148,158.3359 L245.2148,158.3966 L247.2148,158.3075 L249.2148,158.4946 L251.2148,158.5485 L253.2148,158.8566 L255.2148,158.3359" fill="none" style="stroke:#FF9900;stroke-width:1;"/><a href="/use-case/legal-entity-management/financial-information/" target="_top" title="/use-case/legal-entity-management/financial-information/" xlink:actuate="onRequest" xlink:href="/use-case/legal-entity-management/financial-information/" xlink:show="new" xlink:title="/use-case/legal-entity-management/financial-information/" xlink:type="simple"><text fill="#90EE90" font-family="'Roboto'" font-size="14" lengthAdjust="spacing" textLength="148.0596" x="262.2148" y="189.4795">Financial Information</text></a><path d="M205.2148,156.4844 L205.2148,156.6712 L207.2148,156.1161 L209.2148,156.6562 L211.2148,156.8396 L213.2148,155.8502 L215.2148,156.4844 L215.2148,156.4844 L215.1996,156.4534 L216.9122,157.1941 L218.7019,158.0908 L220.5452,159.0961 L222.2038,159.7274 L224.1211,160.8826 L224.3293,161.0137 L225.1028,162.6685 L226.4842,164.7061 L227.9398,166.7905 L228.9638,168.6031 L230.2148,170.5586 L230.2405,170.5748 L231.4216,172.4862 L232.7195,174.4713 L233.961,176.4208 L235.3101,178.4381 L236.3086,180.2346 L236.4407,180.502 L238.2235,181.3849 L239.9212,182.0954 L241.7436,183.0583 L243.5718,184.033 L245.2148,184.6328 L245.2148,183.9918 L247.2148,185.2359 L249.2148,184.3693 L251.2148,185.1073 L253.2148,184.1928 L255.2148,184.6328" fill="none" style="stroke:#FF9900;stroke-width:1;"/><a href="/use-case/legal-entity-management/lifecycle-and-status/" target="_top" title="/use-case/legal-entity-management/lifecycle-and-status/" xlink:actuate="onRequest" xlink:href="/use-case/legal-entity-management/lifecycle-and-status/" xlink:show="new" xlink:title="/use-case/legal-entity-management/lifecycle-and-status/" xlink:type="simple"><text fill="#90EE90" font-family="'Roboto'" font-size="14" lengthAdjust="spacing" textLength="125.8428" x="262.2148" y="215.7764">Lifecycle &amp; Status</text></a><path d="M205.2148,156.4844 L205.2148,156.6712 L207.2148,156.1161 L209.2148,156.6562 L211.2148,156.8396 L213.2148,155.8502 L215.2148,156.4844 L215.2148,156.4844 L215.191,156.4594 L216.8652,158.0487 L218.6596,159.764 L220.5377,161.5667 L222.1276,163.0678 L224.1211,164.9915 L224.3551,165.0676 L225.0735,168.6478 L226.475,172.4505 L227.9599,176.2802 L228.9598,179.9521 L230.2148,183.707 L230.2437,183.7164 L231.4201,187.4458 L232.7278,191.2178 L233.9722,194.9693 L235.3374,198.7601 L236.3086,202.4226 L236.5146,202.6383 L238.2984,204.3423 L239.9493,205.9073 L241.7947,207.6758 L243.6492,209.454 L245.2148,210.9297 L245.2148,210.2886 L247.2148,211.5328 L249.2148,210.6661 L251.2148,211.4042 L253.2148,210.4897 L255.2148,210.9297" fill="none" style="stroke:#FF9900;stroke-width:1;"/><a href="/use-case/legal-entity-management/contact-and-location-information/" target="_top" title="/use-case/legal-entity-management/contact-and-location-information/" xlink:actuate="onRequest" xlink:href="/use-case/legal-entity-management/contact-and-location-information/" xlink:show="new" xlink:title="/use-case/legal-entity-management/contact-and-location-information/" xlink:type="simple"><text fill="#90EE90" font-family="'Roboto'" font-size="14" lengthAdjust="spacing" textLength="219.4814" x="262.2148" y="242.0732">Contact &amp; Location Information</text></a><path d="M205.2148,156.4844 L205.2148,156.6712 L207.2148,156.1161 L209.2148,156.6562 L211.2148,156.8396 L213.2148,155.8502 L215.2148,156.4844 L215.2148,156.4844 L215.1866,156.4645 L216.8412,158.8982 L218.6381,161.4325 L220.5338,164.0365 L222.0888,166.3999 L224.1211,169.1003 L224.3599,169.1598 L224.4938,171.6189 L225.3249,174.2516 L226.241,176.9056 L226.6622,179.4362 L227.3438,182.0317 L227.3735,182.0375 L227.904,184.9938 L228.5701,187.9763 L229.1707,190.9462 L229.8962,193.9402 L230.2148,196.8555 L230.5076,196.9122 L231.0854,199.8776 L231.4744,202.8065 L232.1398,205.7889 L232.8181,208.7738 L233.0859,211.6792 L232.7749,211.6017 L234.0231,214.3384 L234.2471,216.8199 L235.2497,219.4954 L235.4506,221.9711 L236.3086,224.6106 L236.2837,224.593 L238.3591,227.3239 L239.8534,229.6445 L241.6906,232.2072 L243.5565,234.7902 L245.2148,237.2266 L245.2148,237.5965 L247.2148,237.2231 L249.2148,237.4819 L251.2148,236.7177 L253.2148,237.4794 L255.2148,237.2266" fill="none" style="stroke:#FF9900;stroke-width:1;"/><a href="/use-case/legal-entity-management/compliance-and-documentation/" target="_top" title="/use-case/legal-entity-management/compliance-and-documentation/" xlink:actuate="onRequest" xlink:href="/use-case/legal-entity-management/compliance-and-documentation/" xlink:show="new" xlink:title="/use-case/legal-entity-management/compliance-and-documentation/" xlink:type="simple"><text fill="#90EE90" font-family="'Roboto'" font-size="14" lengthAdjust="spacing" textLength="210.1504" x="262.2148" y="268.3701">Compliance &amp; Documentation</text></a><path d="M205.2148,156.4844 L205.2148,156.6712 L207.2148,156.1161 L209.2148,156.6562 L211.2148,156.8396 L213.2148,155.8502 L215.2148,156.4844 L215.2148,156.4844 L215.1844,156.4681 L216.8288,159.7403 L218.6269,163.0942 L220.5319,166.505 L222.0686,169.7198 L224.1211,173.2092 L224.3629,173.2547 L224.4903,176.5861 L225.3238,180.0502 L226.2434,183.5305 L226.6618,186.9166 L227.3438,190.3522 L227.3738,190.3566 L227.9039,194.2805 L228.5707,198.2244 L229.1716,202.1586 L229.8982,206.1112 L230.2148,210.0039 L230.51,210.047 L231.0878,213.9779 L231.4753,217.8809 L232.1414,221.8247 L232.8205,225.7704 L233.0859,229.6556 L232.7709,229.5964 L234.0268,233.1399 L234.2455,236.4885 L235.2527,239.9852 L235.4478,243.3293 L236.3086,246.7986 L236.2817,246.7843 L238.3808,250.2985 L239.852,253.4783 L241.6937,256.8555 L243.5664,260.2492 L245.2148,263.5234 L245.2148,263.8934 L247.2148,263.52 L249.2148,263.7787 L251.2148,263.0146 L253.2148,263.7762 L255.2148,263.5234" fill="none" style="stroke:#FF9900;stroke-width:1;"/><a href="/use-case/legal-entity-management/supporting-information/" target="_top" title="/use-case/legal-entity-management/supporting-information/" xlink:actuate="onRequest" xlink:href="/use-case/legal-entity-management/supporting-information/" xlink:show="new" xlink:title="/use-case/legal-entity-management/supporting-information/" xlink:type="simple"><text fill="#90EE90" font-family="'Roboto'" font-size="14" lengthAdjust="spacing" textLength="162.7295" x="262.2148" y="294.667">Supporting Information</text></a><path d="M205.2148,156.4844 L205.2148,156.6712 L207.2148,156.1161 L209.2148,156.6562 L211.2148,156.8396 L213.2148,155.8502 L215.2148,156.4844 L215.2148,156.4844 L215.1888,156.4617 L216.0679,157.5059 L217.0784,158.6643 L218.1803,159.9021 L218.9673,160.8662 L220.1953,162.2137 L220.4335,162.2756 L220.7094,165.1641 L221.6806,168.2333 L222.7366,171.3246 L223.299,174.2876 L224.1211,177.3181 L224.151,177.3231 L224.4425,179.3341 L224.8703,181.3677 L225.2323,183.3903 L225.7197,185.4339 L225.7983,187.4095 L226.0938,187.45 L226.4065,189.7031 L226.5286,191.9301 L226.9297,194.1954 L227.3439,196.4625 L227.3438,198.6727 L227.0254,198.6354 L228.2175,203.6038 L228.3613,208.4492 L229.302,213.3881 L229.4221,218.2308 L230.2148,223.1523 L230.1846,223.1488 L231.1164,228.0867 L231.3418,232.9417 L231.984,237.8456 L232.6612,242.7536 L233.0859,247.632 L233.2692,247.6571 L233.3933,249.8844 L233.8306,252.1546 L233.7611,254.3554 L234.4475,256.6598 L234.6313,258.8952 L234.8717,258.9352 L235.1617,260.9459 L235.571,262.9764 L235.4259,264.9148 L235.6872,266.9208 L236.3086,268.9866 L236.0413,268.9171 L237.0684,272.0009 L237.7944,275.0064 L238.9572,278.1254 L239.3741,281.0506 L240.2344,284.091 L240.1193,283.991 L241.307,285.3034 L242.0029,286.1883 L243.0485,287.3772 L244.4364,288.8637 L245.2148,289.8203 L245.2148,290.2076 L247.2148,290.4732 L249.2148,289.5343 L251.2148,290.104 L253.2148,290.3451 L255.2148,289.8203" fill="none" style="stroke:#FF9900;stroke-width:1;"/><!--SRC=[xLXjJniv4Fw-ly9NfADLBuLmKBMegWY1K20Gb42bKrKXPtUIMEpQMziBnvtklzzutxAxUI4RiZquaKym7Z_ppDZhiPyzfQdK7kEEHttB-iM10UD0ze-kpnh7vzVDJhlJ9U5lRNjpfzxVoRhq3fkTyuD6zu_ORuhBHQDvsZWwJ84cN3hTWyDkDWvP6mpU3pOtKvTMv_movn2wc9zbgHl6VIgfH_hKlXbA4N2dALmX4qSjALVe0LnddB_S-o3RZDzaVScQouOZFPG0tBBM2UEs6pX0z0Z843X8wf8KGf41JkmBFVgDXDC8vGvngBp1cLeGSGloJZ8Dv8xfKOJ1Re4J1LepFbJ52bn-EMwUdX_sUgIEoo1ypGGd8mGrA1ed3gYh89F31NKS12BR6LitobyYMV8XO- -Dg2FkZ7SH9Qo4YvMuuaxu1yGk6Py36D30rUHlgoMuFgSUa5TTWRcBLw4bAk9ucK9ZZ_q5fBvj_PD5QaWfxX1dwepfCFhUnHe9ryaZ-RZST0Wnfucf-uNTaDlFrhwGc6myajc0668SWGkd37nkeoyMmHQUBpZkJ0op9E6fxAAQ1PwxbQ-PGpNjKmKh3fUBORiYS2eD85mNRFDrg9M76KTfeeCKReKHzWqabVSLXZZackag0p2kGGwe3HN6wC6F0BWD5zYccCryodK4TZbYzWq7fV307Bkhs1qPPMVC9JS1FOLdncTyB74XFUeMnoRIQRC1OBE1cU2fmroQuU4v0HvQPoA7erD9XIFZ6lvkDMmjv0CCGfUPiSpeh0zudJItYQaQDY7yP-t1N_QRb_Z1KpvquTCdx5PAyC-VSNrxkFb0Q6nWCxl7glf2SSSLUtR-YChGXJ-H9AVkzUfv5ovV5P1Nzqg3z_nglNhU5TKwQSZFezHZji-lqfbjqeyRRyIwS37EPn7UOJSVlkqjbVlynA86ur0r0cUHNAUcQcDWYdr5BfehtjVdRwKACfs_XDdMhgcUTjD8dfJZuCdpiA6rPFr0m-HGbbJou2nSPAbI5KTR9sVHmvie7smsO3Oc6RN8YNV8uZmUJ8sEBn9hhTR7ZpXU6CpUhIphxJNvzeri10fgDdx_6ouCgLk3y7PPyoZ7TvY7_ssGjXb8hfrdwG3v_jrwkoW8SumDIq7D7R-63-2QX25J-90tXWrod7CWlv9kPZWAjQfOqJnyw7j9RYtyUxKn-e5YfjA5BFTZSuNPuVFJ0sapd1pPGMxWmoSnnf51nb5N5DHyLkaunilzNsgds4Bw0c6XDZHg2wTuxJS9n5Pob5fBmOexF33LYFaXUPlwJACV9X3OEf0OePCuuDvhHiDuius7IuKQC4FFB03ZPfV5DMabPd8yDfS2Tl51OT_RBeGvc8CpKBY54oiIxuMsalN6RcBh4D8LyGBdY3SZ3uHln-DBPs2q4PUPnGlZES8EZ3qDb8nYh8FiMAaWAl1nhnWvBfz7BxKN-Uy1djU9MBgNrquh52EViEoNT9q5DR-i-nI04cfVskvcDCRfRN2EllTOm7botZoCIGPB27Zb0YmasJq6Sgv8LnPu4LbkUSmvGjpoe3Ebj-KXvubjowDM8gybT6O8QmcpqffQai0qGIq1dQMb9PmoAbfwSIzAQ0bMGJtB-JyedQK1Yw9PYfxNop8VqbBIr-oJjSnkcLpynqfRFvlN0vh4VrQcfy1hOS7f9xDvKaLQgLQKy2YPpKpMStMXUfL2qAepATJ_VotqlAWvBshEYvhpekQyg3bFLysvSF6jSNNM9hZFb76elzlQtDfvLw_tGTFwvkihViDnEuNlV8Pbryo3DzRheuisKIAGoDunNuRf33ZzZNL2Rodf1jpuxPAE3_pau3GnuBbwowJWXhbrylLixF1-kxRFD3xC918XNy-iH8SvvBOmqiykkRfirJvORMpk0IQ_Iu1RJUmbMjxZMEzV]--></g></svg>