<svg xmlns="http://www.w3.org/2000/svg" xmlns:xlink="http://www.w3.org/1999/xlink" contentStyleType="text/css" data-diagram-type="MINDMAP" height="616px" preserveAspectRatio="none" style="width:797px;height:616px;" version="1.1" viewBox="0 0 797 616" width="797px" zoomAndPan="magnify"><defs/><g><polygon fill="#4051B5" points="14,284.3184,14,284.5285,23.8152,283.904,33.6305,284.5116,43.4457,284.718,53.2609,283.605,63.0762,284.2406,72.8914,283.8919,82.7066,283.9349,92.5219,284.2502,102.3371,283.627,112.1523,284.3184,112.223,284.4889,112.6376,284.3586,113.2585,284.7261,113.9045,285.1543,114.4041,285.2292,114.9808,285.4899,115.0018,285.4986,115.2052,286.0515,115.5044,286.6441,115.7574,287.2175,116.0984,287.8274,116.1523,288.3184,116.376,288.3184,116.3788,295.9777,116.2372,303.6371,116.3069,311.2965,116.3864,318.9559,116.1523,326.6152,115.9302,326.5232,116.127,327.2675,115.5924,327.7088,115.6138,328.3804,115.0626,328.8148,114.9808,329.4437,114.972,329.4226,114.5097,329.9064,113.8432,329.8973,113.2971,330.179,112.7612,330.4852,112.1523,330.6152,112.1523,331.0315,102.3371,330.6113,92.5219,330.9024,82.7066,330.0428,72.8914,330.8996,63.0762,331.1634,53.2609,331.0598,43.4457,331.2283,33.6305,330.1322,23.8152,329.9631,14,330.6152,13.9207,330.4239,13.4268,330.3628,12.8436,330.0861,12.3899,330.1221,11.715,329.6242,11.1716,329.4437,11.0659,329.3999,11.0076,328.9071,10.4976,328.2272,10.3088,327.6804,10.4342,327.2637,10,326.6152,10.1452,326.6152,10.2448,318.9559,9.8927,311.2965,10.1064,303.6371,10.1968,295.9777,10,288.3184,9.8545,288.2581,10.2048,287.7404,10.5074,287.2031,10.9037,286.7044,10.936,286.0551,11.1716,285.4899,11.2306,285.6324,11.6666,285.0851,12.2166,284.8127,12.9329,284.9421,13.3429,284.3319,14,284.3184" style="stroke:#FF6F00;stroke-width:1.5;"/><a href="/use-case/client-360/" target="_top" title="/use-case/client-360/" xlink:actuate="onRequest" xlink:href="/use-case/client-360/" xlink:show="new" xlink:title="/use-case/client-360/" xlink:type="simple"><text fill="#90EE90" font-family="'Roboto'" font-size="14" font-style="italic" lengthAdjust="spacing" textLength="71.7021" x="25" y="312.3135">Client 360</text></a><a href="/use-case/client-360/know-your-customer/" target="_top" title="/use-case/client-360/know-your-customer/" xlink:actuate="onRequest" xlink:href="/use-case/client-360/know-your-customer/" xlink:show="new" xlink:title="/use-case/client-360/know-your-customer/" xlink:type="simple"><text fill="#FF0000" font-family="'Roboto'" font-size="15" lengthAdjust="spacing" textLength="29.4727" x="183.1523" y="220.0386">KYC</text></a><a href="/use-case/client-360/know-your-customer/anti-money-laundering/" target="_top" title="/use-case/client-360/know-your-customer/anti-money-laundering/" xlink:actuate="onRequest" xlink:href="/use-case/client-360/know-your-customer/anti-money-laundering/" xlink:show="new" xlink:title="/use-case/client-360/know-your-customer/anti-money-laundering/" xlink:type="simple"><text fill="#90EE90" font-family="'Roboto'" font-size="14" lengthAdjust="spacing" textLength="207.0059" x="288.3931" y="52.5459">Anti Money Laundering (AML)</text></a><a href="/use-case/client-360/know-your-customer/anti-money-laundering/correspondent-based-aml/" target="_top" title="/use-case/client-360/know-your-customer/anti-money-laundering/correspondent-based-aml/" xlink:actuate="onRequest" xlink:href="/use-case/client-360/know-your-customer/anti-money-laundering/correspondent-based-aml/" xlink:show="new" xlink:title="/use-case/client-360/know-your-customer/anti-money-laundering/correspondent-based-aml/" xlink:type="simple"><text fill="#90EE90" font-family="'Roboto'" font-size="13" lengthAdjust="spacing" textLength="171.939" x="570.8491" y="27.0669">Correspondent-based AML</text></a><path d="M503.8491,47.6992 L503.8491,47.886 L505.8491,47.3309 L507.8491,47.871 L509.8491,48.0545 L511.8491,47.0651 L513.8491,47.6992 L513.8491,47.6992 L513.837,47.6669 L515.8763,46.7363 L517.9768,45.9688 L520.1197,45.3147 L522.1162,44.2699 L524.3179,43.7722 L524.4831,43.9545 L526.036,41.8368 L528.0713,40.2513 L530.1656,38.7308 L531.9173,36.8324 L533.8491,35.1328 L533.8695,35.1553 L535.7458,33.3944 L537.7149,31.7358 L539.6392,30.0279 L541.6489,28.4142 L543.3804,26.4934 L543.4851,26.7727 L545.5802,25.9907 L547.6076,25.0286 L549.734,24.3301 L551.865,23.644 L553.8491,22.5664 L553.8491,21.9254 L555.8491,23.1695 L557.8491,22.3028 L559.8491,23.0409 L561.8491,22.1264 L563.8491,22.5664" fill="none" style="stroke:#FF9900;stroke-width:1.5;"/><a href="/use-case/client-360/know-your-customer/anti-money-laundering/network-based-aml/" target="_top" title="/use-case/client-360/know-your-customer/anti-money-laundering/network-based-aml/" xlink:actuate="onRequest" xlink:href="/use-case/client-360/know-your-customer/anti-money-laundering/network-based-aml/" xlink:show="new" xlink:title="/use-case/client-360/know-your-customer/anti-money-laundering/network-based-aml/" xlink:type="simple"><text fill="#90EE90" font-family="'Roboto'" font-size="13" lengthAdjust="spacing" textLength="129.6953" x="570.8491" y="52.1997">Network-based AML</text></a><path d="M503.8491,47.6992 L503.8491,47.886 L505.8491,47.3309 L507.8491,47.871 L509.8491,48.0545 L511.8491,47.0651 L513.8491,47.6992 L513.8491,47.6992 L513.8491,47.6647 L521.8491,47.5097 L529.8491,47.5288 L537.8491,47.6689 L545.8491,47.3919 L553.8491,47.6992 L553.8491,48.1913 L555.8491,47.139 L557.8491,47.5234 L559.8491,48.0832 L561.8491,47.623 L563.8491,47.6992" fill="none" style="stroke:#FF9900;stroke-width:1.5;"/><a href="/use-case/client-360/know-your-customer/anti-money-laundering/transaction-based-aml/" target="_top" title="/use-case/client-360/know-your-customer/anti-money-laundering/transaction-based-aml/" xlink:actuate="onRequest" xlink:href="/use-case/client-360/know-your-customer/anti-money-laundering/transaction-based-aml/" xlink:show="new" xlink:title="/use-case/client-360/know-your-customer/anti-money-laundering/transaction-based-aml/" xlink:type="simple"><text fill="#90EE90" font-family="'Roboto'" font-size="13" lengthAdjust="spacing" textLength="206.7559" x="570.8491" y="77.3325">Transaction/Finance-based AML</text></a><path d="M503.8491,47.6992 L503.8491,47.886 L505.8491,47.3309 L507.8491,47.871 L509.8491,48.0545 L511.8491,47.0651 L513.8491,47.6992 L513.8491,47.6992 L513.837,47.6669 L515.8763,48.3071 L517.9768,49.1104 L520.1197,50.0271 L522.1162,50.5531 L524.3179,51.6262 L524.4831,51.8085 L526.036,53.1466 L528.0713,55.0169 L530.1656,56.9521 L531.9173,58.5095 L533.8491,60.2656 L533.8695,60.2881 L535.7458,61.983 L537.7149,63.7802 L539.6392,65.528 L541.6489,67.37 L543.3804,68.905 L543.4851,69.1843 L545.5802,69.9731 L547.6076,70.5818 L549.734,71.4541 L551.865,72.3389 L553.8491,72.832 L553.8491,72.191 L555.8491,73.4352 L557.8491,72.5685 L559.8491,73.3065 L561.8491,72.392 L563.8491,72.832" fill="none" style="stroke:#FF9900;stroke-width:1.5;"/><path d="M221.3931,214.8457 L221.3931,215.0325 L223.3931,214.4774 L225.3931,215.0175 L227.3931,215.201 L229.3931,214.2116 L231.3931,214.8457 L231.3931,214.8457 L231.3655,214.8249 L232.3237,213.2952 L233.421,211.8703 L234.615,210.5182 L235.4758,208.9152 L236.8032,207.6636 L237.0409,207.7271 L237.5443,203.8044 L238.7417,200.0671 L240.0239,196.3524 L240.8133,192.5061 L241.8618,188.7291 L241.8916,188.7348 L242.3347,186.1963 L242.9134,183.684 L243.4266,181.159 L244.0647,178.6581 L244.2959,176.0788 L244.59,176.1286 L245.0716,173.3053 L245.3635,170.45 L245.9331,167.6416 L246.5157,164.8355 L246.686,161.9595 L246.3692,161.9109 L247.9255,155.8678 L248.4386,149.6647 L249.7448,143.5833 L250.2342,137.3765 L251.3931,131.2725 L251.363,131.2678 L252.6603,125.185 L253.2545,118.9944 L254.2635,112.8673 L255.3075,106.7456 L256.1001,100.5854 L256.2825,100.6163 L256.5764,97.7613 L257.182,94.959 L257.2833,92.0714 L258.1368,89.3111 L258.4902,86.4661 L258.7295,86.5121 L259.1711,83.9734 L259.7314,81.4575 L259.7398,78.8354 L260.1529,76.2911 L260.9243,73.8159 L260.6575,73.7446 L261.9108,70.0222 L262.8634,66.2195 L264.2521,62.5333 L264.8962,58.6482 L265.9829,54.8813 L265.8611,54.7896 L267.146,53.5059 L267.9102,51.8301 L269.0447,50.4332 L270.5414,49.3092 L271.3931,47.6992 L271.3931,48.0865 L273.3931,48.3521 L275.3931,47.4132 L277.3931,47.9829 L279.3931,48.224 L281.3931,47.6992" fill="none" style="stroke:#FF9900;stroke-width:1.5;"/><a href="/use-case/client-360/know-your-customer/identification-verification/" target="_top" title="/use-case/client-360/know-your-customer/identification-verification/" xlink:actuate="onRequest" xlink:href="/use-case/client-360/know-your-customer/identification-verification/" xlink:show="new" xlink:title="/use-case/client-360/know-your-customer/identification-verification/" xlink:type="simple"><text fill="#90EE90" font-family="'Roboto'" font-size="14" lengthAdjust="spacing" textLength="175.9912" x="288.3931" y="78.8428">Identification Verification</text></a><path d="M221.3931,214.8457 L221.3931,215.0325 L223.3931,214.4774 L225.3931,215.0175 L227.3931,215.201 L229.3931,214.2116 L231.3931,214.8457 L231.3931,214.8457 L231.3673,214.8227 L232.3338,213.5089 L233.4301,212.3113 L234.6166,211.1942 L235.4921,209.7992 L236.8032,208.7936 L237.0378,208.8679 L237.5479,205.5178 L238.7429,202.3848 L240.0214,199.2782 L240.8138,196.0176 L241.8618,192.838 L241.8914,192.8447 L242.3348,190.7028 L242.9128,188.5916 L243.4259,186.4656 L244.0629,184.3679 L244.2959,182.1779 L244.5883,182.2367 L245.0699,179.8578 L245.3629,177.4411 L245.932,175.0798 L246.514,172.7211 L246.686,170.28 L246.3707,170.2226 L247.9241,165.1622 L248.4392,159.9128 L249.7437,154.807 L250.2352,149.5533 L251.3931,144.4209 L251.3631,144.4154 L252.6587,139.3081 L253.2546,134.0734 L254.2633,128.9138 L255.3068,123.7606 L256.1001,118.5618 L256.2815,118.5982 L256.5764,116.1819 L257.1813,113.8278 L257.2848,111.3729 L258.1361,109.0683 L258.4902,106.6638 L258.7278,106.7181 L259.1697,104.5758 L259.7295,102.4605 L259.7414,100.2201 L260.1549,98.0713 L260.9243,96.0038 L260.6611,95.9204 L261.9111,92.8048 L262.8645,89.5952 L264.2482,86.522 L264.8972,83.2159 L265.9829,80.0482 L265.8692,79.9466 L267.1406,78.9054 L267.926,77.4299 L269.057,76.2632 L270.5261,75.3987 L271.3931,73.9961 L271.3931,74.3834 L273.3931,74.649 L275.3931,73.7101 L277.3931,74.2798 L279.3931,74.5209 L281.3931,73.9961" fill="none" style="stroke:#FF9900;stroke-width:1.5;"/><a href="/use-case/client-360/know-your-customer/peps/" target="_top" title="/use-case/client-360/know-your-customer/peps/" xlink:actuate="onRequest" xlink:href="/use-case/client-360/know-your-customer/peps/" xlink:show="new" xlink:title="/use-case/client-360/know-your-customer/peps/" xlink:type="simple"><text fill="#90EE90" font-family="'Roboto'" font-size="14" lengthAdjust="spacing" textLength="238.0205" x="288.3931" y="105.1396">Politically Exposed Persons (PEPs)</text></a><path d="M221.3931,214.8457 L221.3931,215.0325 L223.3931,214.4774 L225.3931,215.0175 L227.3931,215.201 L229.3931,214.2116 L231.3931,214.8457 L231.3931,214.8457 L231.3698,214.8202 L232.3475,213.7211 L233.4424,212.7508 L234.6188,211.87 L235.5144,210.6807 L236.8032,209.9235 L237.0325,210.0129 L237.5539,207.2264 L238.7448,204.7009 L240.0172,202.2072 L240.8146,199.5283 L241.8618,196.9468 L241.8911,196.9546 L242.8129,193.274 L243.8682,189.6285 L244.8591,185.9661 L245.9729,182.336 L246.686,178.6005 L246.9771,178.6656 L247.922,174.4602 L248.6793,170.2128 L249.7113,166.0268 L250.7562,161.8437 L251.3931,157.5693 L251.0803,157.4993 L252.6288,153.429 L253.1473,149.1281 L254.4488,145.0025 L254.944,140.6964 L256.1001,136.5382 L256.0707,136.5304 L257.3837,132.9527 L258.0088,129.1941 L259.0399,125.5423 L260.105,121.8994 L260.9243,118.1918 L261.0967,118.259 L261.9344,115.5959 L263.0667,113.0475 L263.7224,110.3134 L265.089,107.8564 L265.9829,105.2152 L266.1469,105.3954 L267.1979,104.3769 L268.3303,103.4478 L269.0845,102.103 L270.116,101.063 L271.3931,100.293 L271.3931,99.7406 L273.3931,100.2406 L275.3931,100.1183 L277.3931,100.8987 L279.3931,100.1377 L281.3931,100.293" fill="none" style="stroke:#FF9900;stroke-width:1.5;"/><a href="/use-case/client-360/know-your-customer/crime-records/" target="_top" title="/use-case/client-360/know-your-customer/crime-records/" xlink:actuate="onRequest" xlink:href="/use-case/client-360/know-your-customer/crime-records/" xlink:show="new" xlink:title="/use-case/client-360/know-your-customer/crime-records/" xlink:type="simple"><text fill="#90EE90" font-family="'Roboto'" font-size="14" lengthAdjust="spacing" textLength="102.6621" x="288.3931" y="131.4365">Crime Records</text></a><path d="M221.3931,214.8457 L221.3931,215.0325 L223.3931,214.4774 L225.3931,215.0175 L227.3931,215.201 L229.3931,214.2116 L231.3931,214.8457 L231.3931,214.8457 L231.3656,214.8248 L233.3358,211.9731 L235.4448,209.2267 L237.6502,206.5534 L239.5233,203.6279 L241.8618,201.0557 L242.0947,201.1352 L242.5616,198.1383 L243.7083,195.3734 L244.938,192.6369 L245.6851,189.7356 L246.686,186.921 L246.7152,186.9295 L247.6138,183.6764 L248.645,180.4618 L249.6123,177.2287 L250.7016,174.031 L251.3931,170.7178 L251.6795,170.801 L252.6244,167.5613 L253.3846,164.2681 L254.4151,161.0533 L255.4584,157.8423 L256.1001,154.5145 L255.7968,154.411 L257.3503,151.785 L257.9051,148.8181 L259.2192,146.1103 L259.7513,143.1357 L260.9243,140.3798 L260.9001,140.3614 L263.2806,137.8211 L265.0946,134.8507 L267.2428,132.1341 L269.4192,129.4388 L271.3931,126.5898 L271.3931,126.9598 L273.3931,126.5864 L275.3931,126.8451 L277.3931,126.081 L279.3931,126.8426 L281.3931,126.5898" fill="none" style="stroke:#FF9900;stroke-width:1.5;"/><a href="/use-case/client-360/know-your-customer/sanctions/" target="_top" title="/use-case/client-360/know-your-customer/sanctions/" xlink:actuate="onRequest" xlink:href="/use-case/client-360/know-your-customer/sanctions/" xlink:show="new" xlink:title="/use-case/client-360/know-your-customer/sanctions/" xlink:type="simple"><text fill="#90EE90" font-family="'Roboto'" font-size="14" lengthAdjust="spacing" textLength="68.1475" x="288.3931" y="157.7334">Sanctions</text></a><path d="M221.3931,214.8457 L221.3931,215.0325 L223.3931,214.4774 L225.3931,215.0175 L227.3931,215.201 L229.3931,214.2116 L231.3931,214.8457 L231.3931,214.8457 L231.3696,214.8203 L233.3581,212.7703 L235.4648,210.8481 L237.6537,209.0148 L239.5594,206.8752 L241.8618,205.1646 L242.0831,205.2722 L242.5747,203.0575 L243.7125,201.1569 L244.929,199.2947 L245.6869,197.2094 L246.686,195.2415 L246.7141,195.2531 L247.6143,192.961 L248.6422,190.7217 L249.6085,188.457 L250.6922,186.2408 L251.3931,183.8662 L251.6687,183.9802 L252.6134,181.7066 L253.3804,179.3594 L254.4077,177.1198 L255.4471,174.8853 L256.1001,172.4909 L255.8118,172.3508 L257.3361,170.6382 L257.9113,168.4641 L259.208,166.6408 L259.7616,164.4562 L260.9243,162.5678 L260.9036,162.5455 L263.2418,160.8736 L265.0971,158.6795 L267.2373,156.7935 L269.4015,154.9334 L271.3931,152.8867 L271.3931,153.2567 L273.3931,152.8832 L275.3931,153.142 L277.3931,152.3779 L279.3931,153.1395 L281.3931,152.8867" fill="none" style="stroke:#FF9900;stroke-width:1.5;"/><a href="/use-case/client-360/know-your-customer/risk-management/" target="_top" title="/use-case/client-360/know-your-customer/risk-management/" xlink:actuate="onRequest" xlink:href="/use-case/client-360/know-your-customer/risk-management/" xlink:show="new" xlink:title="/use-case/client-360/know-your-customer/risk-management/" xlink:type="simple"><text fill="#90EE90" font-family="'Roboto'" font-size="14" lengthAdjust="spacing" textLength="125.6924" x="288.3931" y="184.0303">Risk Management</text></a><path d="M221.3931,214.8457 L221.3931,215.0325 L223.3931,214.4774 L225.3931,215.0175 L227.3931,215.201 L229.3931,214.2116 L231.3931,214.8457 L231.3931,214.8457 L231.3768,214.8152 L233.3978,213.5639 L235.5005,212.4664 L237.6601,211.4756 L239.6237,210.1167 L241.8618,209.2735 L242.0561,209.4245 L243.5469,206.6498 L245.6049,204.316 L247.7321,202.036 L249.4567,199.443 L251.3931,197.0146 L251.417,197.0333 L253.2881,194.5542 L255.2682,192.1598 L257.1957,189.7246 L259.2236,187.3673 L260.9243,184.7558 L261.0644,185.0191 L263.1599,183.9079 L265.165,182.6268 L267.3024,181.5944 L269.446,180.5735 L271.3931,179.1836 L271.3931,178.5425 L273.3931,179.7867 L275.3931,178.92 L277.3931,179.6581 L279.3931,178.7436 L281.3931,179.1836" fill="none" style="stroke:#FF9900;stroke-width:1.5;"/><a href="/use-case/client-360/know-your-customer/high-net-worth-individuals/" target="_top" title="/use-case/client-360/know-your-customer/high-net-worth-individuals/" xlink:actuate="onRequest" xlink:href="/use-case/client-360/know-your-customer/high-net-worth-individuals/" xlink:show="new" xlink:title="/use-case/client-360/know-your-customer/high-net-worth-individuals/" xlink:type="simple"><text fill="#90EE90" font-family="'Roboto'" font-size="14" lengthAdjust="spacing" textLength="242.4502" x="288.3931" y="210.3271">High Net Worth Individuals (HNWI)</text></a><path d="M221.3931,214.8457 L221.3931,215.0325 L223.3931,214.4774 L225.3931,215.0175 L227.3931,215.201 L229.3931,214.2116 L231.3931,214.8457 L231.3931,214.8457 L231.3883,214.8115 L233.4606,214.3653 L235.557,214.0916 L237.6701,213.9377 L239.7255,213.3707 L241.8618,213.3824 L241.9406,213.6155 L243.6784,212.4731 L245.6462,212.0114 L247.642,211.6327 L249.4746,210.7708 L251.3931,210.1631 L251.4028,210.1918 L253.2948,209.5058 L255.231,208.9505 L257.1458,208.3322 L259.1014,207.8343 L260.9243,206.9438 L260.9656,207.2392 L263.0599,206.9501 L265.1275,206.4705 L267.2341,206.2698 L269.3425,206.0822 L271.3931,205.4805 L271.3931,204.8394 L273.3931,206.0836 L275.3931,205.2169 L277.3931,205.955 L279.3931,205.0404 L281.3931,205.4805" fill="none" style="stroke:#FF9900;stroke-width:1.5;"/><a href="/use-case/client-360/know-your-customer/gdpr/" target="_top" title="/use-case/client-360/know-your-customer/gdpr/" xlink:actuate="onRequest" xlink:href="/use-case/client-360/know-your-customer/gdpr/" xlink:show="new" xlink:title="/use-case/client-360/know-your-customer/gdpr/" xlink:type="simple"><text fill="#90EE90" font-family="'Roboto'" font-size="14" lengthAdjust="spacing" textLength="39.7988" x="288.3931" y="236.624">GDPR</text></a><path d="M221.3931,214.8457 L221.3931,215.0325 L223.3931,214.4774 L225.3931,215.0175 L227.3931,215.201 L229.3931,214.2116 L231.3931,214.8457 L231.3931,214.8457 L231.3846,214.8122 L233.4404,215.191 L235.5388,215.7387 L237.6669,216.4037 L239.6928,216.6642 L241.8618,217.4913 L241.9901,217.7013 L243.6221,218.4162 L245.6285,219.7444 L247.6806,221.1473 L249.4669,222.1149 L251.3931,223.3115 L251.4089,223.3374 L253.2919,224.4635 L255.2469,225.7073 L257.1672,226.8944 L259.1537,228.1899 L260.9243,229.1318 L260.9974,229.4209 L263.092,229.9536 L265.1395,230.2997 L267.256,230.9189 L269.3758,231.5508 L271.3931,231.7773 L271.3931,231.1363 L273.3931,232.3805 L275.3931,231.5138 L277.3931,232.2518 L279.3931,231.3373 L281.3931,231.7773" fill="none" style="stroke:#FF9900;stroke-width:1.5;"/><a href="/use-case/client-360/know-your-customer/core-record-management/" target="_top" title="/use-case/client-360/know-your-customer/core-record-management/" xlink:actuate="onRequest" xlink:href="/use-case/client-360/know-your-customer/core-record-management/" xlink:show="new" xlink:title="/use-case/client-360/know-your-customer/core-record-management/" xlink:type="simple"><text fill="#90EE90" font-family="'Roboto'" font-size="14" lengthAdjust="spacing" textLength="183.0801" x="288.3931" y="324.0068">Core Record Management</text></a><a href="/use-case/client-360/know-your-customer/core-record-management/countries/" target="_top" title="/use-case/client-360/know-your-customer/core-record-management/countries/" xlink:actuate="onRequest" xlink:href="/use-case/client-360/know-your-customer/core-record-management/countries/" xlink:show="new" xlink:title="/use-case/client-360/know-your-customer/core-record-management/countries/" xlink:type="simple"><text fill="#90EE90" font-family="'Roboto'" font-size="13" lengthAdjust="spacing" textLength="62.334" x="546.9233" y="235.6958">Countries</text></a><path d="M479.9233,319.1602 L479.9233,319.347 L481.9233,318.7919 L483.9233,319.332 L485.9233,319.5154 L487.9233,318.526 L489.9233,319.1602 L489.9233,319.1602 L489.8959,319.1392 L491.8663,316.2964 L493.9752,313.5591 L496.1805,310.8951 L498.0539,307.9784 L500.3921,305.4156 L500.6249,305.4954 L501.0919,302.5073 L502.2386,299.7519 L503.4682,297.025 L504.2154,294.1328 L505.2163,291.3275 L505.2454,291.336 L506.1441,288.0936 L507.1753,284.8898 L508.1426,281.6674 L509.2318,278.4805 L509.9233,275.1777 L510.2097,275.2612 L511.1546,272.0323 L511.9148,268.7495 L512.9454,265.5455 L513.9886,262.3452 L514.6304,259.0279 L514.3271,258.9241 L515.8805,256.308 L516.4354,253.35 L517.7494,250.6519 L518.2816,247.6862 L519.4546,244.9398 L519.4304,244.9214 L521.8105,242.3906 L523.6249,239.4289 L525.7731,236.7215 L527.9493,234.0354 L529.9233,231.1953 L529.9233,231.5653 L531.9233,231.1918 L533.9233,231.4506 L535.9233,230.6865 L537.9233,231.4481 L539.9233,231.1953" fill="none" style="stroke:#FF9900;stroke-width:1.5;"/><a href="/use-case/client-360/know-your-customer/core-record-management/regions/" target="_top" title="/use-case/client-360/know-your-customer/core-record-management/regions/" xlink:actuate="onRequest" xlink:href="/use-case/client-360/know-your-customer/core-record-management/regions/" xlink:show="new" xlink:title="/use-case/client-360/know-your-customer/core-record-management/regions/" xlink:type="simple"><text fill="#90EE90" font-family="'Roboto'" font-size="13" lengthAdjust="spacing" textLength="51.8604" x="546.9233" y="260.8286">Regions</text></a><path d="M479.9233,319.1602 L479.9233,319.347 L481.9233,318.7919 L483.9233,319.332 L485.9233,319.5154 L487.9233,318.526 L489.9233,319.1602 L489.9233,319.1602 L489.8997,319.135 L491.8874,317.0584 L493.9942,315.1088 L496.1839,313.2476 L498.0881,311.082 L500.3921,309.3427 L500.614,309.449 L501.1043,307.209 L502.2425,305.2795 L503.4597,303.3879 L504.2171,301.2758 L505.2163,299.2797 L505.2444,299.2912 L506.1446,296.9672 L507.1726,294.6955 L508.1389,292.3985 L509.2229,290.1496 L509.9233,287.7441 L510.1995,287.8568 L511.1443,285.5511 L511.9109,283.1727 L512.9383,280.9006 L513.9779,278.6336 L514.6304,276.2086 L514.3413,276.07 L515.8671,274.3263 L516.4412,272.1264 L517.7388,270.2734 L518.2914,268.0631 L519.4546,266.1456 L519.4338,266.1234 L521.7738,264.4226 L523.6273,262.2028 L525.7679,260.2893 L527.9325,258.4014 L529.9233,256.3281 L529.9233,256.6981 L531.9233,256.3247 L533.9233,256.5834 L535.9233,255.8193 L537.9233,256.5809 L539.9233,256.3281" fill="none" style="stroke:#FF9900;stroke-width:1.5;"/><a href="/use-case/client-360/know-your-customer/core-record-management/jurisdictions/" target="_top" title="/use-case/client-360/know-your-customer/core-record-management/jurisdictions/" xlink:actuate="onRequest" xlink:href="/use-case/client-360/know-your-customer/core-record-management/jurisdictions/" xlink:show="new" xlink:title="/use-case/client-360/know-your-customer/core-record-management/jurisdictions/" xlink:type="simple"><text fill="#90EE90" font-family="'Roboto'" font-size="13" lengthAdjust="spacing" textLength="78.4888" x="546.9233" y="285.9614">Jurisdictions</text></a><path d="M479.9233,319.1602 L479.9233,319.347 L481.9233,318.7919 L483.9233,319.332 L485.9233,319.5154 L487.9233,318.526 L489.9233,319.1602 L489.9233,319.1602 L489.9064,319.1301 L491.9241,317.8169 L494.0273,316.6554 L496.1897,315.5995 L498.1477,314.18 L500.3921,313.2697 L500.5903,313.4154 L502.0727,310.5119 L504.1338,308.0339 L506.2655,305.6079 L507.9864,302.8798 L509.9233,300.3105 L509.9478,300.3285 L511.8182,297.7103 L513.7998,295.1739 L515.7277,292.5981 L517.758,290.0975 L519.4546,287.3514 L519.6008,287.6114 L521.6964,286.4364 L523.6976,285.0939 L525.8369,283.9967 L527.9826,282.911 L529.9233,281.4609 L529.9233,280.8199 L531.9233,282.0641 L533.9233,281.1974 L535.9233,281.9354 L537.9233,281.0209 L539.9233,281.4609" fill="none" style="stroke:#FF9900;stroke-width:1.5;"/><a href="/use-case/client-360/know-your-customer/core-record-management/legal-entities/" target="_top" title="/use-case/client-360/know-your-customer/core-record-management/legal-entities/" xlink:actuate="onRequest" xlink:href="/use-case/client-360/know-your-customer/core-record-management/legal-entities/" xlink:show="new" xlink:title="/use-case/client-360/know-your-customer/core-record-management/legal-entities/" xlink:type="simple"><text fill="#90EE90" font-family="'Roboto'" font-size="13" lengthAdjust="spacing" textLength="87.8452" x="546.9233" y="311.0942">Legal Entities</text></a><path d="M479.9233,319.1602 L479.9233,319.347 L481.9233,318.7919 L483.9233,319.332 L485.9233,319.5154 L487.9233,318.526 L489.9233,319.1602 L489.9233,319.1602 L489.917,319.1262 L491.9821,318.5812 L494.0794,318.2072 L496.199,317.9523 L498.2417,317.2873 L500.3921,317.1967 L500.4937,317.4208 L502.1827,316.0776 L504.1683,315.3887 L506.1901,314.7797 L508.0014,313.7062 L509.9233,312.877 L509.9359,312.9046 L511.8237,312.0001 L513.7686,311.2213 L515.686,310.3819 L517.6558,309.6583 L519.4546,308.5573 L519.5096,308.8504 L521.604,308.4613 L523.663,307.8831 L525.7738,307.5817 L527.8871,307.2932 L529.9233,306.5938 L529.9233,305.9527 L531.9233,307.1969 L533.9233,306.3302 L535.9233,307.0682 L537.9233,306.1537 L539.9233,306.5938" fill="none" style="stroke:#FF9900;stroke-width:1.5;"/><a href="/use-case/client-360/know-your-customer/core-record-management/locations/" target="_top" title="/use-case/client-360/know-your-customer/core-record-management/locations/" xlink:actuate="onRequest" xlink:href="/use-case/client-360/know-your-customer/core-record-management/locations/" xlink:show="new" xlink:title="/use-case/client-360/know-your-customer/core-record-management/locations/" xlink:type="simple"><text fill="#90EE90" font-family="'Roboto'" font-size="13" lengthAdjust="spacing" textLength="61.9849" x="546.9233" y="336.2271">Locations</text></a><path d="M479.9233,319.1602 L479.9233,319.347 L481.9233,318.7919 L483.9233,319.332 L485.9233,319.5154 L487.9233,318.526 L489.9233,319.1602 L489.9233,319.1602 L489.917,319.1262 L491.9821,319.3666 L494.0794,319.778 L496.199,320.3085 L498.2417,320.4289 L500.3921,321.1237 L500.4937,321.3478 L502.1827,321.7325 L504.1683,322.7715 L506.1901,323.8903 L508.0014,324.5447 L509.9233,325.4434 L509.9359,325.471 L511.8237,326.2944 L513.7686,327.2435 L515.686,328.132 L517.6558,329.1362 L519.4546,329.7631 L519.5096,330.0562 L521.604,330.4525 L523.663,330.6597 L525.7738,331.1437 L527.8871,331.6406 L529.9233,331.7266 L529.9233,331.0855 L531.9233,332.3297 L533.9233,331.463 L535.9233,332.2011 L537.9233,331.2865 L539.9233,331.7266" fill="none" style="stroke:#FF9900;stroke-width:1.5;"/><a href="/use-case/client-360/know-your-customer/core-record-management/buildings/" target="_top" title="/use-case/client-360/know-your-customer/core-record-management/buildings/" xlink:actuate="onRequest" xlink:href="/use-case/client-360/know-your-customer/core-record-management/buildings/" xlink:show="new" xlink:title="/use-case/client-360/know-your-customer/core-record-management/buildings/" xlink:type="simple"><text fill="#90EE90" font-family="'Roboto'" font-size="13" lengthAdjust="spacing" textLength="59.5093" x="546.9233" y="361.3599">Buildings</text></a><path d="M479.9233,319.1602 L479.9233,319.347 L481.9233,318.7919 L483.9233,319.332 L485.9233,319.5154 L487.9233,318.526 L489.9233,319.1602 L489.9233,319.1602 L489.9064,319.1301 L491.9241,320.1731 L494.0273,321.3678 L496.1897,322.6681 L498.1477,323.6048 L500.3921,325.0507 L500.5903,325.1964 L502.0727,327.4765 L504.1338,330.1822 L506.2655,332.9399 L507.9864,335.3954 L509.9233,338.0098 L509.9478,338.0277 L511.8182,340.5932 L513.7998,343.2404 L515.7277,345.8482 L517.758,348.5313 L519.4546,350.9689 L519.6008,351.2288 L521.6964,352.4101 L523.6976,353.4237 L525.8369,354.6827 L527.9826,355.9533 L529.9233,356.8594 L529.9233,356.2183 L531.9233,357.4625 L533.9233,356.5958 L535.9233,357.3339 L537.9233,356.4194 L539.9233,356.8594" fill="none" style="stroke:#FF9900;stroke-width:1.5;"/><a href="/use-case/client-360/know-your-customer/core-record-management/addresses/" target="_top" title="/use-case/client-360/know-your-customer/core-record-management/addresses/" xlink:actuate="onRequest" xlink:href="/use-case/client-360/know-your-customer/core-record-management/addresses/" xlink:show="new" xlink:title="/use-case/client-360/know-your-customer/core-record-management/addresses/" xlink:type="simple"><text fill="#90EE90" font-family="'Roboto'" font-size="13" lengthAdjust="spacing" textLength="67.0566" x="546.9233" y="386.4927">Addresses</text></a><path d="M479.9233,319.1602 L479.9233,319.347 L481.9233,318.7919 L483.9233,319.332 L485.9233,319.5154 L487.9233,318.526 L489.9233,319.1602 L489.9233,319.1602 L489.8997,319.135 L491.8874,320.9854 L493.9942,322.9628 L496.1839,325.0286 L498.0881,326.79 L500.3921,328.9777 L500.614,329.084 L501.1043,330.8692 L502.2425,332.9648 L503.4597,335.0984 L504.2171,337.0115 L505.2163,339.0406 L505.2444,339.0521 L506.1446,341.3424 L507.1726,343.6848 L508.1389,346.0021 L509.2229,348.3674 L509.9233,350.5762 L510.1995,350.6889 L511.1443,352.9973 L511.9109,355.2332 L512.9383,357.5754 L513.9779,359.9225 L514.6304,362.1117 L514.3413,361.9732 L515.8671,364.2547 L516.4412,366.0799 L517.7388,368.2521 L518.2914,370.067 L519.4546,372.1747 L519.4338,372.1525 L521.7738,374.3786 L523.6273,376.0859 L525.7679,378.0993 L527.9325,380.1385 L529.9233,381.9922 L529.9233,382.3622 L531.9233,381.9887 L533.9233,382.2475 L535.9233,381.4834 L537.9233,382.245 L539.9233,381.9922" fill="none" style="stroke:#FF9900;stroke-width:1.5;"/><a href="/use-case/client-360/know-your-customer/core-record-management/audit/" target="_top" title="/use-case/client-360/know-your-customer/core-record-management/audit/" xlink:actuate="onRequest" xlink:href="/use-case/client-360/know-your-customer/core-record-management/audit/" xlink:show="new" xlink:title="/use-case/client-360/know-your-customer/core-record-management/audit/" xlink:type="simple"><text fill="#90EE90" font-family="'Roboto'" font-size="13" lengthAdjust="spacing" textLength="34.0933" x="546.9233" y="411.6255">Audit</text></a><path d="M479.9233,319.1602 L479.9233,319.347 L481.9233,318.7919 L483.9233,319.332 L485.9233,319.5154 L487.9233,318.526 L489.9233,319.1602 L489.9233,319.1602 L489.8959,319.1392 L491.8663,321.7942 L493.9752,324.5547 L496.1805,327.3885 L498.0539,329.9696 L500.3921,332.9047 L500.6249,332.9844 L501.0919,335.6315 L502.2386,338.5114 L503.4682,341.4197 L504.2154,344.1628 L505.2163,346.9928 L505.2454,347.0013 L506.1441,350.2188 L507.1753,353.4749 L508.1426,356.7124 L509.2318,359.9855 L509.9233,363.1426 L510.2097,363.226 L511.1546,366.457 L511.9148,369.6342 L512.9454,372.8901 L513.9886,376.1497 L514.6304,379.2924 L514.3271,379.1885 L515.8805,382.2077 L516.4354,384.8849 L517.7494,387.8221 L518.2816,390.4916 L519.4546,393.3805 L519.4304,393.362 L521.8105,396.3291 L523.6249,398.8652 L525.7731,401.6556 L527.9493,404.4673 L529.9233,407.125 L529.9233,407.495 L531.9233,407.1215 L533.9233,407.3803 L535.9233,406.6162 L537.9233,407.3778 L539.9233,407.125" fill="none" style="stroke:#FF9900;stroke-width:1.5;"/><path d="M221.3931,214.8457 L221.3931,215.0325 L223.3931,214.4774 L225.3931,215.0175 L227.3931,215.201 L229.3931,214.2116 L231.3931,214.8457 L231.3931,214.8457 L231.364,214.827 L233.3273,218.0031 L235.4372,221.2732 L237.6488,224.6088 L239.5095,227.719 L241.8618,231.1448 L242.0982,231.2131 L242.5575,234.4084 L243.7071,237.8031 L244.9408,241.2221 L245.6846,244.4995 L246.686,247.8514 L246.7155,247.8587 L247.6137,251.6784 L248.6459,255.531 L249.6135,259.3677 L250.7044,263.2348 L251.3931,267.0029 L251.6827,267.0741 L252.6276,270.9053 L253.3858,274.6905 L254.4174,278.543 L255.4618,282.3986 L256.1001,286.1544 L255.7922,286.0655 L257.3547,289.5794 L257.9032,292.8005 L259.2226,296.2442 L259.7481,299.4587 L260.9243,302.861 L260.8987,302.8446 L263.2954,306.299 L265.0936,309.369 L267.2449,312.6658 L269.4259,315.9817 L271.3931,319.1602 L271.3931,319.5301 L273.3931,319.1567 L275.3931,319.4155 L277.3931,318.6513 L279.3931,319.4129 L281.3931,319.1602" fill="none" style="stroke:#FF9900;stroke-width:1.5;"/><path d="M116.1523,307.4668 L116.1523,307.6536 L118.1523,307.0985 L120.1523,307.6386 L122.1523,307.8221 L124.1523,306.8327 L126.1523,307.4668 L126.1523,307.4668 L126.1244,307.4466 L128.0925,304.4613 L130.2017,301.5781 L132.4091,298.7658 L134.2784,295.7091 L136.6211,292.9948 L136.8551,293.0709 L137.3195,289.9413 L138.4672,287.034 L139.6982,284.1538 L140.4442,281.1159 L141.4453,278.1609 L141.4745,278.169 L142.373,274.7562 L143.4046,271.3802 L144.372,267.9865 L145.4618,264.6266 L146.1523,261.1563 L146.4398,261.2358 L147.3847,257.8359 L148.1442,254.3846 L149.1751,251.0084 L150.2188,247.6358 L150.8594,244.1516 L150.5546,244.0525 L152.111,241.2781 L152.6637,238.1773 L153.9795,235.3247 L154.5095,232.2165 L155.6836,229.3177 L155.6589,229.2999 L158.0444,226.6165 L159.8535,223.5162 L162.0028,220.662 L164.1805,217.8283 L166.1523,214.8457 L166.1523,215.2157 L168.1523,214.8422 L170.1523,215.101 L172.1523,214.3369 L174.1523,215.0985 L176.1523,214.8457" fill="none" style="stroke:#FF9900;stroke-width:1.5;"/><a href="/use-case-client-360/relationships-and-connections/" target="_top" title="/use-case-client-360/relationships-and-connections/" xlink:actuate="onRequest" xlink:href="/use-case-client-360/relationships-and-connections/" xlink:show="new" xlink:title="/use-case-client-360/relationships-and-connections/" xlink:type="simple"><text fill="#FF0000" font-family="'Roboto'" font-size="15" lengthAdjust="spacing" textLength="214.4897" x="183.1523" y="477.478">Relationships &amp; Connections</text></a><a href="/use-case-client-360/relationships-and-connections/business-connections/" target="_top" title="/use-case-client-360/relationships-and-connections/business-connections/" xlink:actuate="onRequest" xlink:href="/use-case-client-360/relationships-and-connections/business-connections/" xlink:show="new" xlink:title="/use-case-client-360/relationships-and-connections/business-connections/" xlink:type="simple"><text fill="#90EE90" font-family="'Roboto'" font-size="14" lengthAdjust="spacing" textLength="152.6943" x="473.4102" y="437.6865">Business Connections</text></a><path d="M406.4102,472.2852 L406.4102,472.472 L408.4102,471.9169 L410.4102,472.457 L412.4102,472.6404 L414.4102,471.651 L416.4102,472.2852 L416.4102,472.2852 L416.3926,472.2554 L418.4077,470.8891 L420.5112,469.6729 L422.676,468.5611 L424.6293,467.0897 L426.8789,466.1218 L427.0802,466.2633 L428.556,463.2489 L430.6195,460.6475 L432.7547,458.0966 L434.4727,455.2524 L436.4102,452.5625 L436.435,452.5799 L438.3048,449.8425 L440.2876,447.1844 L442.2159,444.488 L444.2481,441.8647 L445.9414,439.0032 L446.0927,439.2602 L448.1883,438.0307 L450.1863,436.6354 L452.3272,435.4827 L454.4747,434.3415 L456.4102,432.8398 L456.4102,432.1988 L458.4102,433.443 L460.4102,432.5763 L462.4102,433.3143 L464.4102,432.3998 L466.4102,432.8398" fill="none" style="stroke:#FF9900;stroke-width:1.5;"/><a href="/use-case-client-360/relationships-and-connections/family-connections/" target="_top" title="/use-case-client-360/relationships-and-connections/family-connections/" xlink:actuate="onRequest" xlink:href="/use-case-client-360/relationships-and-connections/family-connections/" xlink:show="new" xlink:title="/use-case-client-360/relationships-and-connections/family-connections/" xlink:type="simple"><text fill="#90EE90" font-family="'Roboto'" font-size="14" lengthAdjust="spacing" textLength="137.293" x="473.4102" y="463.9834">Family Connections</text></a><path d="M406.4102,472.2852 L406.4102,472.472 L408.4102,471.9169 L410.4102,472.457 L412.4102,472.6404 L414.4102,471.651 L416.4102,472.2852 L416.4102,472.2852 L416.4035,472.2513 L418.4674,471.6883 L420.5648,471.2961 L422.6856,471.0228 L424.726,470.3401 L426.8789,470.2307 L426.9843,470.453 L428.6651,469.0736 L430.6537,468.3434 L432.6799,467.6923 L434.4876,466.5804 L436.4102,465.7109 L436.4232,465.7383 L438.3103,464.7942 L440.2567,463.9747 L442.1744,463.0951 L444.1467,462.3303 L445.9414,461.1912 L445.9988,461.4838 L448.0933,461.0765 L450.1507,460.4804 L452.2623,460.1607 L454.3765,459.8539 L456.4102,459.1367 L456.4102,458.4957 L458.4102,459.7398 L460.4102,458.8732 L462.4102,459.6112 L464.4102,458.6967 L466.4102,459.1367" fill="none" style="stroke:#FF9900;stroke-width:1.5;"/><a href="/use-case-client-360/relationships-and-connections/social-connections/" target="_top" title="/use-case-client-360/relationships-and-connections/social-connections/" xlink:actuate="onRequest" xlink:href="/use-case-client-360/relationships-and-connections/social-connections/" xlink:show="new" xlink:title="/use-case-client-360/relationships-and-connections/social-connections/" xlink:type="simple"><text fill="#90EE90" font-family="'Roboto'" font-size="14" lengthAdjust="spacing" textLength="132.4668" x="473.4102" y="490.2803">Social Connections</text></a><path d="M406.4102,472.2852 L406.4102,472.472 L408.4102,471.9169 L410.4102,472.457 L412.4102,472.6404 L414.4102,471.651 L416.4102,472.2852 L416.4102,472.2852 L416.4035,472.2513 L418.4674,472.51 L420.5648,472.9397 L422.6856,473.4881 L424.726,473.6272 L426.8789,474.3396 L426.9843,474.5619 L428.6651,474.9904 L430.6537,476.0681 L432.6799,477.2249 L434.4876,477.921 L436.4102,478.8594 L436.4232,478.8868 L438.3103,479.7505 L440.2567,480.739 L442.1744,481.6673 L444.1467,482.7104 L445.9414,483.3792 L445.9988,483.6718 L448.0933,484.0863 L450.1507,484.312 L452.2623,484.814 L454.3765,485.329 L456.4102,485.4336 L456.4102,484.7925 L458.4102,486.0367 L460.4102,485.17 L462.4102,485.9081 L464.4102,484.9936 L466.4102,485.4336" fill="none" style="stroke:#FF9900;stroke-width:1.5;"/><a href="/use-case-client-360/relationships-and-connections/political-connections/" target="_top" title="/use-case-client-360/relationships-and-connections/political-connections/" xlink:actuate="onRequest" xlink:href="/use-case-client-360/relationships-and-connections/political-connections/" xlink:show="new" xlink:title="/use-case-client-360/relationships-and-connections/political-connections/" xlink:type="simple"><text fill="#90EE90" font-family="'Roboto'" font-size="14" lengthAdjust="spacing" textLength="145.291" x="473.4102" y="516.5771">Political Connections</text></a><path d="M406.4102,472.2852 L406.4102,472.472 L408.4102,471.9169 L410.4102,472.457 L412.4102,472.6404 L414.4102,471.651 L416.4102,472.2852 L416.4102,472.2852 L416.3926,472.2554 L418.4077,473.3545 L420.5112,474.6036 L422.676,475.9571 L424.6293,476.951 L426.8789,478.4485 L427.0802,478.59 L428.556,480.9993 L430.6195,483.8217 L432.7547,486.6945 L434.4727,489.274 L436.4102,492.0078 L436.435,492.0253 L438.3048,494.7115 L440.2876,497.4772 L442.2159,500.2045 L444.2481,503.005 L445.9414,505.5671 L446.0927,505.8242 L448.1883,507.06 L450.1863,508.13 L452.3272,509.4427 L454.4747,510.7668 L456.4102,511.7305 L456.4102,511.0894 L458.4102,512.3336 L460.4102,511.4669 L462.4102,512.205 L464.4102,511.2904 L466.4102,511.7305" fill="none" style="stroke:#FF9900;stroke-width:1.5;"/><path d="M116.1523,307.4668 L116.1523,307.6536 L118.1523,307.0985 L120.1523,307.6386 L122.1523,307.8221 L124.1523,306.8327 L126.1523,307.4668 L126.1523,307.4668 L126.1249,307.4458 L127.0837,308.7681 L128.181,310.1961 L129.3744,311.6976 L130.2363,312.9459 L131.5625,314.5488 L131.8,314.6132 L132.3038,318.2097 L133.5011,321.9942 L134.783,325.8015 L135.5726,329.4755 L136.6211,333.2197 L136.6509,333.2255 L137.094,335.7118 L137.6726,338.2245 L138.1859,340.7244 L138.8238,343.2488 L139.0552,345.6937 L139.3491,345.7442 L139.8307,348.5293 L140.1228,351.2819 L140.6923,354.0822 L141.2749,356.8846 L141.4453,359.6164 L141.1286,359.5671 L142.6847,365.7146 L143.1979,371.6999 L144.504,377.8086 L144.9935,383.7902 L146.1523,389.876 L146.1223,389.8713 L147.4194,395.9786 L148.0138,401.9765 L149.0228,408.0389 L150.0667,414.1068 L150.8594,420.1356 L151.0417,420.1669 L151.3357,422.9198 L151.9412,425.7263 L152.0427,428.4461 L152.8961,431.2951 L153.2495,434.0582 L153.4886,434.1049 L153.9302,436.5909 L154.4906,439.1 L154.4992,441.5015 L154.9123,443.982 L155.6836,446.5323 L155.417,446.4601 L156.6701,450.2596 L157.6227,453.9778 L159.0111,457.814 L159.6555,461.4486 L160.7422,465.2031 L160.621,465.1106 L161.9048,466.6811 L162.6707,467.856 L163.8049,469.3123 L165.2995,471.0438 L166.1523,472.2852 L166.1523,472.6724 L168.1523,472.938 L170.1523,471.9991 L172.1523,472.5689 L174.1523,472.81 L176.1523,472.2852" fill="none" style="stroke:#FF9900;stroke-width:1.5;"/><a href="/use-case-client-360/social-media/" target="_top" title="/use-case-client-360/social-media/" xlink:actuate="onRequest" xlink:href="/use-case-client-360/social-media/" xlink:show="new" xlink:title="/use-case-client-360/social-media/" xlink:type="simple"><text fill="#FF0000" font-family="'Roboto'" font-size="15" lengthAdjust="spacing" textLength="94.292" x="183.1523" y="556.3687">Social Media</text></a><a href="/use-case-client-360/social-media/social-graph/" target="_top" title="/use-case-client-360/social-media/social-graph/" xlink:actuate="onRequest" xlink:href="/use-case-client-360/social-media/social-graph/" xlink:show="new" xlink:title="/use-case-client-360/social-media/social-graph/" xlink:type="simple"><text fill="#90EE90" font-family="'Roboto'" font-size="14" lengthAdjust="spacing" textLength="88.9014" x="353.2124" y="542.874">Social Graph</text></a><path d="M286.2124,551.1758 L286.2124,551.3626 L288.2124,550.8075 L290.2124,551.3476 L292.2124,551.5311 L294.2124,550.5417 L296.2124,551.1758 L296.2124,551.1758 L296.2058,551.1419 L298.2696,550.5789 L300.3671,550.1868 L302.4878,549.9134 L304.5282,549.2307 L306.6812,549.1213 L306.7866,549.3437 L308.4674,547.9643 L310.456,547.234 L312.4822,546.5829 L314.2898,545.4711 L316.2124,544.6016 L316.2254,544.629 L318.1126,543.6848 L320.0589,542.8653 L321.9767,541.9857 L323.9489,541.2209 L325.7437,540.0818 L325.8011,540.3745 L327.8955,539.9671 L329.9529,539.3711 L332.0646,539.0513 L334.1788,538.7445 L336.2124,538.0273 L336.2124,537.3863 L338.2124,538.6305 L340.2124,537.7638 L342.2124,538.5018 L344.2124,537.5873 L346.2124,538.0273" fill="none" style="stroke:#FF9900;stroke-width:1.5;"/><a href="/use-case-client-360/social-media/social-graph/" target="_top" title="/use-case-client-360/social-media/social-graph/" xlink:actuate="onRequest" xlink:href="/use-case-client-360/social-media/social-graph/" xlink:show="new" xlink:title="/use-case-client-360/social-media/social-graph/" xlink:type="simple"><text fill="#90EE90" font-family="'Roboto'" font-size="14" lengthAdjust="spacing" textLength="101.6504" x="353.2124" y="569.1709">Interest Graph</text></a><path d="M286.2124,551.1758 L286.2124,551.3626 L288.2124,550.8075 L290.2124,551.3476 L292.2124,551.5311 L294.2124,550.5417 L296.2124,551.1758 L296.2124,551.1758 L296.2058,551.1419 L298.2696,551.4007 L300.3671,551.8303 L302.4878,552.3787 L304.5282,552.5178 L306.6812,553.2302 L306.7866,553.4526 L308.4674,553.8811 L310.456,554.9587 L312.4822,556.1156 L314.2898,556.8116 L316.2124,557.75 L316.2254,557.7774 L318.1126,558.6411 L320.0589,559.6296 L321.9767,560.5579 L323.9489,561.601 L325.7437,562.2698 L325.8011,562.5624 L327.8955,562.9769 L329.9529,563.2026 L332.0646,563.7046 L334.1788,564.2196 L336.2124,564.3242 L336.2124,563.6832 L338.2124,564.9273 L340.2124,564.0607 L342.2124,564.7987 L344.2124,563.8842 L346.2124,564.3242" fill="none" style="stroke:#FF9900;stroke-width:1.5;"/><path d="M116.1523,307.4668 L116.1523,307.6536 L118.1523,307.0985 L120.1523,307.6386 L122.1523,307.8221 L124.1523,306.8327 L126.1523,307.4668 L126.1523,307.4668 L126.1217,307.4509 L127.066,309.4742 L128.165,311.5773 L129.3715,313.736 L130.2075,315.7033 L131.5625,317.9387 L131.8031,317.99 L131.8017,320.284 L132.5029,322.7279 L133.2898,325.1901 L133.578,327.5458 L134.1284,329.9575 L134.1584,329.9623 L134.6129,333.073 L135.2038,336.2056 L135.729,339.3276 L136.3796,342.4697 L136.6211,345.5463 L136.9168,345.5853 L137.4072,349.2748 L137.7069,352.939 L138.2858,356.6401 L138.8778,360.343 L139.0552,363.9911 L138.7368,363.9541 L139.8328,368.1432 L139.8803,372.2106 L140.7249,376.3705 L140.7487,380.4351 L141.4453,384.5778 L141.415,384.5747 L142.7145,393.561 L143.3066,402.473 L144.3161,411.4288 L145.3606,420.3883 L146.1523,429.3213 L146.3363,429.3406 L147.092,438.2698 L148.1621,447.232 L148.7236,456.1407 L150.0437,465.1293 L150.8594,474.0647 L151.1014,474.0928 L151.5337,478.2049 L152.0861,482.3309 L152.0802,486.392 L152.4836,490.5007 L153.2495,494.6515 L152.9757,494.6153 L153.7104,498.337 L154.1365,502.018 L155.0102,505.758 L155.1198,509.3971 L155.6836,513.0963 L155.533,513.0722 L156.2823,516.23 L156.388,519.285 L156.9514,522.4131 L157.9625,525.6128 L158.1763,528.6851 L158.3656,528.7255 L159.0087,531.157 L159.0628,533.4627 L159.8546,535.926 L160.4856,538.3549 L160.7422,540.7039 L160.5557,540.6075 L161.7864,542.7787 L162.956,544.9184 L164.2456,547.12 L165.0687,549.0806 L166.1523,551.1758 L166.1523,551.587 L168.1523,550.6835 L170.1523,550.5738 L172.1523,551.6234 L174.1523,550.5385 L176.1523,551.1758" fill="none" style="stroke:#FF9900;stroke-width:1.5;"/><text fill="#FF0000" font-family="'Roboto'" font-size="15" lengthAdjust="spacing" textLength="123.3398" x="183.1523" y="596.396">...many others...</text><path d="M116.1523,307.4668 L116.1523,307.6536 L118.1523,307.0985 L120.1523,307.6386 L122.1523,307.8221 L124.1523,306.8327 L126.1523,307.4668 L126.1523,307.4668 L126.1208,307.4528 L127.0611,309.8283 L128.1606,312.2744 L129.3707,314.7696 L130.1996,317.0956 L131.5625,319.6586 L131.8045,319.703 L131.8002,322.4066 L132.5024,325.2399 L133.2909,328.0889 L133.5777,330.846 L134.1284,333.6514 L134.1585,333.6556 L134.6129,337.2793 L135.2041,340.9219 L135.7293,344.5554 L136.3804,348.2062 L136.6211,351.8006 L136.9174,351.8342 L137.4079,356.1294 L137.7072,360.403 L138.2863,364.7083 L138.8785,369.0151 L139.0552,373.2748 L138.7362,373.243 L139.8333,378.0983 L139.8801,382.8489 L140.7253,387.6791 L140.7484,392.4273 L141.4453,397.2427 L141.3544,397.2345 L143.3715,407.7502 L143.2634,418.0738 L144.4094,428.5107 L145.6606,438.9571 L146.1523,449.335 L146.7051,449.3849 L147.0886,459.7529 L148.4166,470.2063 L148.2164,480.5216 L150.2956,491.0429 L150.8594,501.4272 L151.1018,501.4514 L151.534,506.2404 L152.0865,511.0414 L152.0798,515.7866 L152.4831,520.5728 L153.2495,525.3951 L152.9751,525.364 L153.7103,529.687 L154.1364,533.975 L155.0109,538.3138 L155.1196,542.5657 L155.6836,546.8693 L155.5325,546.8486 L156.2826,550.513 L156.387,554.0887 L156.9506,557.7274 L157.9635,561.4279 L158.1763,565.0185 L158.3667,565.0534 L159.0105,567.8759 L159.062,570.5898 L159.8554,573.4398 L160.4871,576.2601 L160.7422,579.0113 L160.5503,578.9262 L161.7853,581.4324 L162.9574,583.9108 L164.2531,586.4439 L165.0686,588.764 L166.1523,591.2031 L166.1523,591.6143 L168.1523,590.7109 L170.1523,590.6011 L172.1523,591.6508 L174.1523,590.5658 L176.1523,591.2031" fill="none" style="stroke:#FF9900;stroke-width:1.5;"/><!--SRC=[xLbjRnev4Fw-lyBNIDT4lGqXBrLRLLK98Q-G84XQLLKLcLq3FeozPtkJSbN- -urtMV3o5Y1BBwtW2xls-9dn-6LczlceD9QwIxdVnG7o62LSktklTnpd3vyqAIVeyEIsKZYxl2rUbQzgAFfjxEySv1i7jaYzLBowF2hKllJb9eXK2yMBmabf03GcSbKxAjLiFMYZsNpTtDaPY1nVNLwd128HytCSrQ4ym19tKGDxdPOK8VUBWWcP26g9kG89cA4bVDeBY2nJth5bqGQZhRPkIKAuuxn4b7iiz0dIRO9QX1E96Hf0ADI4WGsXst-XQ1Z2t4S-bXqOgGKITqJUIwe9kgUw7MFGEyAH8bfJtbAZ7hW-FIjUN9RgTPI7PH21feAZDe0Q50q3cvWfOisXYdqVWD2-rLQBvo_1MFJ6Qg-tiI_kZVGeIkG91fwuuNxqGFeYbimHQUAGQVJ3EHPSN-8kGIzg0kOkNaGjiHE7onGrrkc_1ENtdGSRgI2bk0USYICcm-WU0ny9vgUH0bXkt29zcyQ67exiXjH-TWw5XCdsUwmD22g66hZm5u5FRVJvD7YY6mWEEnFKB6dmHEjYduLTjflscOyrRc15CbQNqk4n4VehLI0O8vuv7IfpDKCjHH2GWgrGmw61nBAtGXKbhgbUfGBADP5Dx94LwgYJVqB2FLA5Y4Kz6c2kOx3hDlKwd2W55-PGNFN5mI9xn4pZng0ds6d93AybBcGNiz6-iUcKQPD0i25JmGS2CysCBiynyAXrAdBKEz6eg6Vempsdu6aX7x4W4fcgo_HEEy0lKN4V6Qz148ANZKT_zfcNSE0nRp7o_Zr4AoNuXm-mldNOV4He261JeqTMSM5qnut6xFGLPPbBleEH7BFRxEqUIRvMOBpgAKswlvwlixTxHRvE0lAluUgXjR-UfwrjqkW7tjZgaSGuFOieXzrvFDjRQkwp9nO761-hDl7dcUl4gNgW64DSaVFE5VBrsLjf1JETlOHsQDTOJyeqaf9og3mf3mjQIze8DHdlierA2iwHH1OhjM9jBr6bNuEhW7YqIJsOP1mYn-gG-UruT6fuc4Xi71-_VGlz8vrsRZMZ67NU6tF91wV_AU68ufR1-E7qZKvgr0EdWcMBSfG_Y2PoCdM3bIUKeWzEGtnd95gEuNJJunuSAOI-JAlD7rWrv9d6Z7eWo0XkZWfQ9Ui1YE1KdLgerQu-3-qZbdUsZRHF0jtUp6_rpKjWh9MHS8W7bRRLbepTJO_T7tJifJls1XtxwGvJwJquxtFzzN1UeQzVKIvKnFNWniuDF_7aK35wHl2CldrpNhswdIhQuUBUxObGkbwejEWIcKCNNuhniCN6GMfCtIuKkpsNuT2iBxWzXmhGZ2gc6PK7pMYpK2blzRLaeSOJKX85fRPlXfeGvhkuoy0Lunq8T6UecXDzBsJ7LdffDsMiBlhQXQFgs5PvFMpE7LEEeJuQKx-GTceSPkuh7Acw0-t9ImwTfJhH9wjp6Lq12LGELGMZK6HXndgez3qGnlXgb5Chj5ajLTNMCjYUf5tYGiI4AnEK5CqhgiMlo-0fS6tqQIA7widZCZYIgexRnHotI1V4SgW63QWoQ5W6iqrRRHVsemkxJxTTkB7f7VL3k65pw1JwpCP4dqqVEXlseStJoyzdIpctvGTmOPmSLMjBBOsGoSgaF05dDbcYSOTaeiA3s0IHd9WDaJncYIz9AzuYjVWXI-o_GzWwFaqsuRdzcgKUHbgOkUQSwyXHPVCUVt3As5jCn5U7KP8yPedV22apEG3W7oQFMU93XW4nHXad5PB7JF53dyAnA9Y_IG7TjL0bOR43spHGBgHpBbG8d2IxfMPtep_DHz2aS-89dX-w4Ifg4gQqliD-QuQAchXBMI-jvZXgor294Xw5tPzIKe_QCbGI904lhMSG1yTLJTVKDxXBV8e7fbRCswD6feRsNo373ze3d1FpzXISC_CLcIXj8zsYxUrjsEKz97GRmZoyEHy951bneU4u7wTIc2la19yn-vOKVtDIRxRu1805IBT1rJcbFfrSZSwWsPuAE8jLcuKnRi4IFDfY2kPYpfu2EPChMnHu7dPiUSmPVDZoe5CPiEKXPt5UowEkXELAp9d2RoMMBKnj9HEOn6ibeDCehSGcYymQV3yRPR8Ih14IAoN_A8CrK3ZANGtGqxILTP2MOg2ctwoBx9RnnNygm_IpxNg46lZVtFGSx9gRz_d9rZmh9sLAsIHsB3YRgLRFf6Vog-HZifx9YFz_Qxxb6P4gcL0dYRdpaoR9Y3LTigPBrdJ9cYvPqoLhkcHDbwpfaZLTigPBrdJ9xqkNL1baG3UGlK3keKncaT_UtTazsCxd6qJZ_Cxc3JTdY4TVpoca_nf2-vQpUL8j8mNdoeDYbwguteBXMyuvliEe1jSzoBr3Lm7XvqSNIGFSR7TK2cvEd7F-gJ8KUBtl7iB1gnC9Xg1F5ITXDqhS4-OoUOTkhe_TDquPIkOG3kqxHBWJnvKUzDN_0m00]--></g></svg>