<svg xmlns="http://www.w3.org/2000/svg" xmlns:xlink="http://www.w3.org/1999/xlink" contentStyleType="text/css" data-diagram-type="MINDMAP" height="616px" preserveAspectRatio="none" style="width:792px;height:616px;" version="1.1" viewBox="0 0 792 616" width="792px" zoomAndPan="magnify"><defs/><g><polygon fill="#4051B5" points="14,284.9004,14,285.1106,24.3014,284.4861,34.6029,285.0937,44.9043,285.3001,55.2057,284.187,65.5072,284.8227,75.8086,284.4739,86.11,284.5169,96.4115,284.8322,106.7129,284.9004,106.6247,284.6875,107.3492,285.3052,107.7639,285.1749,108.3847,285.5424,109.0307,285.9707,109.5413,286.072,109.5149,286.061,109.7966,286.6464,110.0001,287.1993,110.2992,287.7918,110.5522,288.3652,110.7129,288.9004,110.9081,288.9004,110.9366,296.327,110.9393,303.7535,110.7978,311.1801,110.8674,318.6066,110.7129,326.0332,110.9291,326.1228,110.2565,326.5069,110.4532,327.2511,109.9186,327.6924,109.94,328.364,109.5413,328.8616,109.4782,328.7092,108.9669,329.0749,108.5045,329.5586,107.838,329.5496,107.292,329.8313,106.7129,330.0332,106.7129,330.3718,96.4115,330.4494,86.11,330.0293,75.8086,330.3204,65.5072,329.4608,55.2057,330.3176,44.9043,330.5814,34.6029,330.4777,24.3014,330.6462,14,330.0332,13.9384,329.8844,13.3511,329.598,12.7894,329.3732,12.2954,329.3121,11.7122,329.0354,11.1716,328.8616,11.3814,328.9486,10.8835,328.2737,10.5973,327.6865,10.5389,327.1937,10.029,326.5138,10,326.0332,9.827,326.0332,10.2163,318.6066,10.1452,311.1801,10.2448,303.7535,9.8927,296.327,10,288.9004,10.0983,288.9411,10.4161,288.41,10.3231,287.7088,10.6734,287.1911,10.9761,286.6537,11.1716,286.072,11.2547,286.2727,11.7367,285.8364,12.3619,285.7458,12.798,285.1985,13.3479,284.9261,14,284.9004" style="stroke:#FF6F00;stroke-width:1.5;"/><a href="/use-case/client-360/" target="_top" title="/use-case/client-360/" xlink:actuate="onRequest" xlink:href="/use-case/client-360/" xlink:show="new" xlink:title="/use-case/client-360/" xlink:type="simple"><text fill="#4051B5" font-family="'Roboto'" font-size="13" font-style="italic" lengthAdjust="spacing" textLength="66.5806" x="25" y="311.9673">Client 360</text></a><a href="/use-case/client-360/know-your-customer/" target="_top" title="/use-case/client-360/know-your-customer/" xlink:actuate="onRequest" xlink:href="/use-case/client-360/know-your-customer/" xlink:show="new" xlink:title="/use-case/client-360/know-your-customer/" xlink:type="simple"><text fill="#4051B5" font-family="'Roboto'" font-size="15" lengthAdjust="spacing" textLength="29.4727" x="177.7129" y="220.0386">KYC</text></a><a href="/use-case/client-360/know-your-customer/anti-money-laundering/" target="_top" title="/use-case/client-360/know-your-customer/anti-money-laundering/" xlink:actuate="onRequest" xlink:href="/use-case/client-360/know-your-customer/anti-money-laundering/" xlink:show="new" xlink:title="/use-case/client-360/know-your-customer/anti-money-laundering/" xlink:type="simple"><text fill="#4051B5" font-family="'Roboto'" font-size="14" lengthAdjust="spacing" textLength="207.0059" x="282.9536" y="52.5459">Anti Money Laundering (AML)</text></a><a href="/use-case/client-360/know-your-customer/anti-money-laundering/correspondent-based-aml/" target="_top" title="/use-case/client-360/know-your-customer/anti-money-laundering/correspondent-based-aml/" xlink:actuate="onRequest" xlink:href="/use-case/client-360/know-your-customer/anti-money-laundering/correspondent-based-aml/" xlink:show="new" xlink:title="/use-case/client-360/know-your-customer/anti-money-laundering/correspondent-based-aml/" xlink:type="simple"><text fill="#4051B5" font-family="'Roboto'" font-size="13" lengthAdjust="spacing" textLength="171.939" x="565.4097" y="27.0669">Correspondent-based AML</text></a><path d="M498.4097,47.6992 L498.4097,47.886 L500.4097,47.3309 L502.4097,47.871 L504.4097,48.0545 L506.4097,47.0651 L508.4097,47.6992 L508.4097,47.6992 L508.3975,47.6669 L510.4368,46.7363 L512.5373,45.9688 L514.6803,45.3147 L516.6767,44.2699 L518.8784,43.7722 L519.0437,43.9545 L520.5965,41.8368 L522.6319,40.2513 L524.7261,38.7308 L526.4778,36.8324 L528.4097,35.1328 L528.43,35.1553 L530.3064,33.3944 L532.2755,31.7358 L534.1998,30.0279 L536.2095,28.4142 L537.9409,26.4934 L538.0457,26.7727 L540.1407,25.9907 L542.1682,25.0286 L544.2945,24.3301 L546.4255,23.644 L548.4097,22.5664 L548.4097,21.9254 L550.4097,23.1695 L552.4097,22.3028 L554.4097,23.0409 L556.4097,22.1264 L558.4097,22.5664" fill="none" style="stroke:#FF6F00;stroke-width:1.5;"/><a href="/use-case/client-360/know-your-customer/anti-money-laundering/network-based-aml/" target="_top" title="/use-case/client-360/know-your-customer/anti-money-laundering/network-based-aml/" xlink:actuate="onRequest" xlink:href="/use-case/client-360/know-your-customer/anti-money-laundering/network-based-aml/" xlink:show="new" xlink:title="/use-case/client-360/know-your-customer/anti-money-laundering/network-based-aml/" xlink:type="simple"><text fill="#4051B5" font-family="'Roboto'" font-size="13" lengthAdjust="spacing" textLength="129.6953" x="565.4097" y="52.1997">Network-based AML</text></a><path d="M498.4097,47.6992 L498.4097,47.886 L500.4097,47.3309 L502.4097,47.871 L504.4097,48.0545 L506.4097,47.0651 L508.4097,47.6992 L508.4097,47.6992 L508.4097,47.6647 L516.4097,47.5097 L524.4097,47.5288 L532.4097,47.6689 L540.4097,47.3919 L548.4097,47.6992 L548.4097,48.1913 L550.4097,47.139 L552.4097,47.5234 L554.4097,48.0832 L556.4097,47.623 L558.4097,47.6992" fill="none" style="stroke:#FF6F00;stroke-width:1.5;"/><a href="/use-case/client-360/know-your-customer/anti-money-laundering/transaction-based-aml/" target="_top" title="/use-case/client-360/know-your-customer/anti-money-laundering/transaction-based-aml/" xlink:actuate="onRequest" xlink:href="/use-case/client-360/know-your-customer/anti-money-laundering/transaction-based-aml/" xlink:show="new" xlink:title="/use-case/client-360/know-your-customer/anti-money-laundering/transaction-based-aml/" xlink:type="simple"><text fill="#4051B5" font-family="'Roboto'" font-size="13" lengthAdjust="spacing" textLength="206.7559" x="565.4097" y="77.3325">Transaction/Finance-based AML</text></a><path d="M498.4097,47.6992 L498.4097,47.886 L500.4097,47.3309 L502.4097,47.871 L504.4097,48.0545 L506.4097,47.0651 L508.4097,47.6992 L508.4097,47.6992 L508.3975,47.6669 L510.4368,48.3071 L512.5373,49.1104 L514.6803,50.0271 L516.6767,50.5531 L518.8784,51.6262 L519.0437,51.8085 L520.5965,53.1466 L522.6319,55.0169 L524.7261,56.9521 L526.4778,58.5095 L528.4097,60.2656 L528.43,60.2881 L530.3064,61.983 L532.2755,63.7802 L534.1998,65.528 L536.2095,67.37 L537.9409,68.905 L538.0457,69.1843 L540.1407,69.9731 L542.1682,70.5818 L544.2945,71.4541 L546.4255,72.3389 L548.4097,72.832 L548.4097,72.191 L550.4097,73.4352 L552.4097,72.5685 L554.4097,73.3065 L556.4097,72.392 L558.4097,72.832" fill="none" style="stroke:#FF6F00;stroke-width:1.5;"/><path d="M215.9536,214.8457 L215.9536,215.0325 L217.9536,214.4774 L219.9536,215.0175 L221.9536,215.201 L223.9536,214.2116 L225.9536,214.8457 L225.9536,214.8457 L225.926,214.8249 L226.8842,213.2952 L227.9815,211.8703 L229.1755,210.5182 L230.0363,208.9152 L231.3638,207.6636 L231.6015,207.7271 L232.1049,203.8044 L233.3023,200.0671 L234.5844,196.3524 L235.3738,192.5061 L236.4224,188.7291 L236.4521,188.7348 L236.8952,186.1963 L237.4739,183.684 L237.9872,181.159 L238.6252,178.6581 L238.8564,176.0788 L239.1505,176.1286 L239.6321,173.3053 L239.9241,170.45 L240.4937,167.6416 L241.0763,164.8355 L241.2466,161.9595 L240.9298,161.9109 L242.4861,155.8678 L242.9991,149.6647 L244.3053,143.5833 L244.7947,137.3765 L245.9536,131.2725 L245.9235,131.2678 L247.2208,125.185 L247.815,118.9944 L248.8241,112.8673 L249.868,106.7456 L250.6606,100.5854 L250.843,100.6163 L251.137,97.7613 L251.7426,94.959 L251.8439,92.0714 L252.6974,89.3111 L253.0508,86.4661 L253.29,86.5121 L253.7316,83.9734 L254.292,81.4575 L254.3004,78.8354 L254.7134,76.2911 L255.4849,73.8159 L255.218,73.7446 L256.4713,70.0222 L257.4239,66.2195 L258.8126,62.5333 L259.4567,58.6482 L260.5435,54.8813 L260.4217,54.7896 L261.7065,53.5059 L262.4708,51.8301 L263.6053,50.4332 L265.102,49.3092 L265.9536,47.6992 L265.9536,48.0865 L267.9536,48.3521 L269.9536,47.4132 L271.9536,47.9829 L273.9536,48.224 L275.9536,47.6992" fill="none" style="stroke:#FF6F00;stroke-width:1.5;"/><a href="/use-case/client-360/know-your-customer/identification-verification/" target="_top" title="/use-case/client-360/know-your-customer/identification-verification/" xlink:actuate="onRequest" xlink:href="/use-case/client-360/know-your-customer/identification-verification/" xlink:show="new" xlink:title="/use-case/client-360/know-your-customer/identification-verification/" xlink:type="simple"><text fill="#4051B5" font-family="'Roboto'" font-size="14" lengthAdjust="spacing" textLength="175.9912" x="282.9536" y="78.8428">Identification Verification</text></a><path d="M215.9536,214.8457 L215.9536,215.0325 L217.9536,214.4774 L219.9536,215.0175 L221.9536,215.201 L223.9536,214.2116 L225.9536,214.8457 L225.9536,214.8457 L225.9279,214.8227 L226.8943,213.5089 L227.9906,212.3113 L229.1771,211.1942 L230.0527,209.7992 L231.3638,208.7936 L231.5983,208.8679 L232.1085,205.5178 L233.3034,202.3848 L234.5819,199.2782 L235.3743,196.0176 L236.4224,192.838 L236.4519,192.8447 L236.8953,190.7028 L237.4734,188.5916 L237.9864,186.4656 L238.6234,184.3679 L238.8564,182.1779 L239.1488,182.2367 L239.6305,179.8578 L239.9235,177.4411 L240.4925,175.0798 L241.0745,172.7211 L241.2466,170.28 L240.9312,170.2226 L242.4847,165.1622 L242.9997,159.9128 L244.3042,154.807 L244.7958,149.5533 L245.9536,144.4209 L245.9237,144.4154 L247.2193,139.3081 L247.8151,134.0734 L248.8239,128.9138 L249.8673,123.7606 L250.6606,118.5618 L250.842,118.5982 L251.137,116.1819 L251.7418,113.8278 L251.8453,111.3729 L252.6967,109.0683 L253.0508,106.6638 L253.2883,106.7181 L253.7302,104.5758 L254.29,102.4605 L254.3019,100.2201 L254.7155,98.0713 L255.4849,96.0038 L255.2216,95.9204 L256.4716,92.8048 L257.425,89.5952 L258.8087,86.522 L259.4577,83.2159 L260.5435,80.0482 L260.4298,79.9466 L261.7011,78.9054 L262.4866,77.4299 L263.6175,76.2632 L265.0866,75.3987 L265.9536,73.9961 L265.9536,74.3834 L267.9536,74.649 L269.9536,73.7101 L271.9536,74.2798 L273.9536,74.5209 L275.9536,73.9961" fill="none" style="stroke:#FF6F00;stroke-width:1.5;"/><a href="/use-case/client-360/know-your-customer/peps/" target="_top" title="/use-case/client-360/know-your-customer/peps/" xlink:actuate="onRequest" xlink:href="/use-case/client-360/know-your-customer/peps/" xlink:show="new" xlink:title="/use-case/client-360/know-your-customer/peps/" xlink:type="simple"><text fill="#4051B5" font-family="'Roboto'" font-size="14" lengthAdjust="spacing" textLength="238.0205" x="282.9536" y="105.1396">Politically Exposed Persons (PEPs)</text></a><path d="M215.9536,214.8457 L215.9536,215.0325 L217.9536,214.4774 L219.9536,215.0175 L221.9536,215.201 L223.9536,214.2116 L225.9536,214.8457 L225.9536,214.8457 L225.9304,214.8202 L226.9081,213.7211 L228.003,212.7508 L229.1793,211.87 L230.075,210.6807 L231.3638,209.9235 L231.593,210.0129 L232.1145,207.2264 L233.3053,204.7009 L234.5778,202.2072 L235.3751,199.5283 L236.4224,196.9468 L236.4517,196.9546 L237.3735,193.274 L238.4288,189.6285 L239.4197,185.9661 L240.5335,182.336 L241.2466,178.6005 L241.5376,178.6656 L242.4826,174.4602 L243.2398,170.2128 L244.2719,166.0268 L245.3168,161.8437 L245.9536,157.5693 L245.6408,157.4993 L247.1893,153.429 L247.7078,149.1281 L249.0094,145.0025 L249.5045,140.6964 L250.6606,136.5382 L250.6312,136.5304 L251.9443,132.9527 L252.5694,129.1941 L253.6004,125.5423 L254.6656,121.8994 L255.4849,118.1918 L255.6572,118.259 L256.495,115.5959 L257.6272,113.0475 L258.283,110.3134 L259.6495,107.8564 L260.5435,105.2152 L260.7074,105.3954 L261.7584,104.3769 L262.8909,103.4478 L263.6451,102.103 L264.6765,101.063 L265.9536,100.293 L265.9536,99.7406 L267.9536,100.2406 L269.9536,100.1183 L271.9536,100.8987 L273.9536,100.1377 L275.9536,100.293" fill="none" style="stroke:#FF6F00;stroke-width:1.5;"/><a href="/use-case/client-360/know-your-customer/crime-records/" target="_top" title="/use-case/client-360/know-your-customer/crime-records/" xlink:actuate="onRequest" xlink:href="/use-case/client-360/know-your-customer/crime-records/" xlink:show="new" xlink:title="/use-case/client-360/know-your-customer/crime-records/" xlink:type="simple"><text fill="#4051B5" font-family="'Roboto'" font-size="14" lengthAdjust="spacing" textLength="102.6621" x="282.9536" y="131.4365">Crime Records</text></a><path d="M215.9536,214.8457 L215.9536,215.0325 L217.9536,214.4774 L219.9536,215.0175 L221.9536,215.201 L223.9536,214.2116 L225.9536,214.8457 L225.9536,214.8457 L225.9261,214.8248 L227.8964,211.9731 L230.0054,209.2267 L232.2107,206.5534 L234.0839,203.6279 L236.4224,201.0557 L236.6552,201.1352 L237.1221,198.1383 L238.2689,195.3734 L239.4986,192.6369 L240.2457,189.7356 L241.2466,186.921 L241.2757,186.9295 L242.1744,183.6764 L243.2056,180.4618 L244.1729,177.2287 L245.2622,174.031 L245.9536,170.7178 L246.24,170.801 L247.1849,167.5613 L247.9451,164.2681 L248.9757,161.0533 L250.019,157.8423 L250.6606,154.5145 L250.3573,154.411 L251.9109,151.785 L252.4656,148.8181 L253.7797,146.1103 L254.3118,143.1357 L255.4849,140.3798 L255.4606,140.3614 L257.8411,137.8211 L259.6551,134.8507 L261.8034,132.1341 L263.9797,129.4388 L265.9536,126.5898 L265.9536,126.9598 L267.9536,126.5864 L269.9536,126.8451 L271.9536,126.081 L273.9536,126.8426 L275.9536,126.5898" fill="none" style="stroke:#FF6F00;stroke-width:1.5;"/><a href="/use-case/client-360/know-your-customer/sanctions/" target="_top" title="/use-case/client-360/know-your-customer/sanctions/" xlink:actuate="onRequest" xlink:href="/use-case/client-360/know-your-customer/sanctions/" xlink:show="new" xlink:title="/use-case/client-360/know-your-customer/sanctions/" xlink:type="simple"><text fill="#4051B5" font-family="'Roboto'" font-size="14" lengthAdjust="spacing" textLength="68.1475" x="282.9536" y="157.7334">Sanctions</text></a><path d="M215.9536,214.8457 L215.9536,215.0325 L217.9536,214.4774 L219.9536,215.0175 L221.9536,215.201 L223.9536,214.2116 L225.9536,214.8457 L225.9536,214.8457 L225.9302,214.8203 L227.9187,212.7703 L230.0254,210.8481 L232.2143,209.0148 L234.12,206.8752 L236.4224,205.1646 L236.6437,205.2722 L237.1353,203.0575 L238.273,201.1569 L239.4895,199.2947 L240.2475,197.2094 L241.2466,195.2415 L241.2746,195.2531 L242.1749,192.961 L243.2027,190.7217 L244.169,188.457 L245.2527,186.2408 L245.9536,183.8662 L246.2292,183.9802 L247.174,181.7066 L247.941,179.3594 L248.9682,177.1198 L250.0076,174.8853 L250.6606,172.4909 L250.3724,172.3508 L251.8967,170.6382 L252.4718,168.4641 L253.7685,166.6408 L254.3222,164.4562 L255.4849,162.5678 L255.4642,162.5455 L257.8024,160.8736 L259.6577,158.6795 L261.7979,156.7935 L263.962,154.9334 L265.9536,152.8867 L265.9536,153.2567 L267.9536,152.8832 L269.9536,153.142 L271.9536,152.3779 L273.9536,153.1395 L275.9536,152.8867" fill="none" style="stroke:#FF6F00;stroke-width:1.5;"/><a href="/use-case/client-360/know-your-customer/risk-management/" target="_top" title="/use-case/client-360/know-your-customer/risk-management/" xlink:actuate="onRequest" xlink:href="/use-case/client-360/know-your-customer/risk-management/" xlink:show="new" xlink:title="/use-case/client-360/know-your-customer/risk-management/" xlink:type="simple"><text fill="#4051B5" font-family="'Roboto'" font-size="14" lengthAdjust="spacing" textLength="125.6924" x="282.9536" y="184.0303">Risk Management</text></a><path d="M215.9536,214.8457 L215.9536,215.0325 L217.9536,214.4774 L219.9536,215.0175 L221.9536,215.201 L223.9536,214.2116 L225.9536,214.8457 L225.9536,214.8457 L225.9374,214.8152 L227.9583,213.5639 L230.061,212.4664 L232.2206,211.4756 L234.1842,210.1167 L236.4224,209.2735 L236.6166,209.4245 L238.1075,206.6498 L240.1655,204.316 L242.2927,202.036 L244.0173,199.443 L245.9536,197.0146 L245.9776,197.0333 L247.8487,194.5542 L249.8288,192.1598 L251.7563,189.7246 L253.7841,187.3673 L255.4849,184.7558 L255.625,185.0191 L257.7205,183.9079 L259.7255,182.6268 L261.8629,181.5944 L264.0065,180.5735 L265.9536,179.1836 L265.9536,178.5425 L267.9536,179.7867 L269.9536,178.92 L271.9536,179.6581 L273.9536,178.7436 L275.9536,179.1836" fill="none" style="stroke:#FF6F00;stroke-width:1.5;"/><a href="/use-case/client-360/know-your-customer/high-net-worth-individuals/" target="_top" title="/use-case/client-360/know-your-customer/high-net-worth-individuals/" xlink:actuate="onRequest" xlink:href="/use-case/client-360/know-your-customer/high-net-worth-individuals/" xlink:show="new" xlink:title="/use-case/client-360/know-your-customer/high-net-worth-individuals/" xlink:type="simple"><text fill="#4051B5" font-family="'Roboto'" font-size="14" lengthAdjust="spacing" textLength="242.4502" x="282.9536" y="210.3271">High Net Worth Individuals (HNWI)</text></a><path d="M215.9536,214.8457 L215.9536,215.0325 L217.9536,214.4774 L219.9536,215.0175 L221.9536,215.201 L223.9536,214.2116 L225.9536,214.8457 L225.9536,214.8457 L225.9488,214.8115 L228.0211,214.3653 L230.1175,214.0916 L232.2307,213.9377 L234.2861,213.3707 L236.4224,213.3824 L236.5011,213.6155 L238.239,212.4731 L240.2067,212.0114 L242.2025,211.6327 L244.0352,210.7708 L245.9536,210.1631 L245.9633,210.1918 L247.8553,209.5058 L249.7915,208.9505 L251.7064,208.3322 L253.6619,207.8343 L255.4849,206.9438 L255.5262,207.2392 L257.6204,206.9501 L259.688,206.4705 L261.7946,206.2698 L263.9031,206.0822 L265.9536,205.4805 L265.9536,204.8394 L267.9536,206.0836 L269.9536,205.2169 L271.9536,205.955 L273.9536,205.0404 L275.9536,205.4805" fill="none" style="stroke:#FF6F00;stroke-width:1.5;"/><a href="/use-case/client-360/know-your-customer/gdpr/" target="_top" title="/use-case/client-360/know-your-customer/gdpr/" xlink:actuate="onRequest" xlink:href="/use-case/client-360/know-your-customer/gdpr/" xlink:show="new" xlink:title="/use-case/client-360/know-your-customer/gdpr/" xlink:type="simple"><text fill="#4051B5" font-family="'Roboto'" font-size="14" lengthAdjust="spacing" textLength="39.7988" x="282.9536" y="236.624">GDPR</text></a><path d="M215.9536,214.8457 L215.9536,215.0325 L217.9536,214.4774 L219.9536,215.0175 L221.9536,215.201 L223.9536,214.2116 L225.9536,214.8457 L225.9536,214.8457 L225.9452,214.8122 L228.0009,215.191 L230.0994,215.7387 L232.2274,216.4037 L234.2533,216.6642 L236.4224,217.4913 L236.5506,217.7013 L238.1826,218.4162 L240.1891,219.7444 L242.2412,221.1473 L244.0275,222.1149 L245.9536,223.3115 L245.9694,223.3374 L247.8525,224.4635 L249.8075,225.7073 L251.7278,226.8944 L253.7143,228.1899 L255.4849,229.1318 L255.5579,229.4209 L257.6526,229.9536 L259.7001,230.2997 L261.8166,230.9189 L263.9363,231.5508 L265.9536,231.7773 L265.9536,231.1363 L267.9536,232.3805 L269.9536,231.5138 L271.9536,232.2518 L273.9536,231.3373 L275.9536,231.7773" fill="none" style="stroke:#FF6F00;stroke-width:1.5;"/><a href="/use-case/client-360/know-your-customer/core-record-management/" target="_top" title="/use-case/client-360/know-your-customer/core-record-management/" xlink:actuate="onRequest" xlink:href="/use-case/client-360/know-your-customer/core-record-management/" xlink:show="new" xlink:title="/use-case/client-360/know-your-customer/core-record-management/" xlink:type="simple"><text fill="#4051B5" font-family="'Roboto'" font-size="14" lengthAdjust="spacing" textLength="183.0801" x="282.9536" y="324.0068">Core Record Management</text></a><a href="/use-case/client-360/know-your-customer/core-record-management/countries/" target="_top" title="/use-case/client-360/know-your-customer/core-record-management/countries/" xlink:actuate="onRequest" xlink:href="/use-case/client-360/know-your-customer/core-record-management/countries/" xlink:show="new" xlink:title="/use-case/client-360/know-your-customer/core-record-management/countries/" xlink:type="simple"><text fill="#4051B5" font-family="'Roboto'" font-size="13" lengthAdjust="spacing" textLength="62.334" x="541.4839" y="235.6958">Countries</text></a><path d="M474.4839,319.1602 L474.4839,319.347 L476.4839,318.7919 L478.4839,319.332 L480.4839,319.5154 L482.4839,318.526 L484.4839,319.1602 L484.4839,319.1602 L484.4564,319.1392 L486.4268,316.2964 L488.5358,313.5591 L490.741,310.8951 L492.6144,307.9784 L494.9526,305.4156 L495.1854,305.4954 L495.6525,302.5073 L496.7992,299.7519 L498.0288,297.025 L498.7759,294.1328 L499.7769,291.3275 L499.806,291.336 L500.7046,288.0936 L501.7358,284.8898 L502.7031,281.6674 L503.7924,278.4805 L504.4839,275.1777 L504.7702,275.2612 L505.7151,272.0323 L506.4753,268.7495 L507.5059,265.5455 L508.5491,262.3452 L509.1909,259.0279 L508.8877,258.9241 L510.4411,256.308 L510.9959,253.35 L512.3099,250.6519 L512.8421,247.6862 L514.0151,244.9398 L513.9909,244.9214 L516.3711,242.3906 L518.1854,239.4289 L520.3336,236.7215 L522.5099,234.0354 L524.4839,231.1953 L524.4839,231.5653 L526.4839,231.1918 L528.4839,231.4506 L530.4839,230.6865 L532.4839,231.4481 L534.4839,231.1953" fill="none" style="stroke:#FF6F00;stroke-width:1.5;"/><a href="/use-case/client-360/know-your-customer/core-record-management/regions/" target="_top" title="/use-case/client-360/know-your-customer/core-record-management/regions/" xlink:actuate="onRequest" xlink:href="/use-case/client-360/know-your-customer/core-record-management/regions/" xlink:show="new" xlink:title="/use-case/client-360/know-your-customer/core-record-management/regions/" xlink:type="simple"><text fill="#4051B5" font-family="'Roboto'" font-size="13" lengthAdjust="spacing" textLength="51.8604" x="541.4839" y="260.8286">Regions</text></a><path d="M474.4839,319.1602 L474.4839,319.347 L476.4839,318.7919 L478.4839,319.332 L480.4839,319.5154 L482.4839,318.526 L484.4839,319.1602 L484.4839,319.1602 L484.4603,319.135 L486.448,317.0584 L488.5548,315.1088 L490.7444,313.2476 L492.6487,311.082 L494.9526,309.3427 L495.1745,309.449 L495.6649,307.209 L496.8031,305.2795 L498.0203,303.3879 L498.7776,301.2758 L499.7769,299.2797 L499.8049,299.2912 L500.7051,296.9672 L501.7331,294.6955 L502.6995,292.3985 L503.7835,290.1496 L504.4839,287.7441 L504.76,287.8568 L505.7048,285.5511 L506.4715,283.1727 L507.4989,280.9006 L508.5385,278.6336 L509.1909,276.2086 L508.9019,276.07 L510.4277,274.3263 L511.0018,272.1264 L512.2994,270.2734 L512.8519,268.0631 L514.0151,266.1456 L513.9943,266.1234 L516.3344,264.4226 L518.1878,262.2028 L520.3284,260.2893 L522.4931,258.4014 L524.4839,256.3281 L524.4839,256.6981 L526.4839,256.3247 L528.4839,256.5834 L530.4839,255.8193 L532.4839,256.5809 L534.4839,256.3281" fill="none" style="stroke:#FF6F00;stroke-width:1.5;"/><a href="/use-case/client-360/know-your-customer/core-record-management/jurisdictions/" target="_top" title="/use-case/client-360/know-your-customer/core-record-management/jurisdictions/" xlink:actuate="onRequest" xlink:href="/use-case/client-360/know-your-customer/core-record-management/jurisdictions/" xlink:show="new" xlink:title="/use-case/client-360/know-your-customer/core-record-management/jurisdictions/" xlink:type="simple"><text fill="#4051B5" font-family="'Roboto'" font-size="13" lengthAdjust="spacing" textLength="78.4888" x="541.4839" y="285.9614">Jurisdictions</text></a><path d="M474.4839,319.1602 L474.4839,319.347 L476.4839,318.7919 L478.4839,319.332 L480.4839,319.5154 L482.4839,318.526 L484.4839,319.1602 L484.4839,319.1602 L484.4669,319.1301 L486.4847,317.8169 L488.5878,316.6554 L490.7503,315.5995 L492.7082,314.18 L494.9526,313.2697 L495.1509,313.4154 L496.6332,310.5119 L498.6943,308.0339 L500.826,305.6079 L502.5469,302.8798 L504.4839,300.3105 L504.5083,300.3285 L506.3787,297.7103 L508.3603,295.1739 L510.2883,292.5981 L512.3186,290.0975 L514.0151,287.3514 L514.1614,287.6114 L516.2569,286.4364 L518.2581,285.0939 L520.3974,283.9967 L522.5432,282.911 L524.4839,281.4609 L524.4839,280.8199 L526.4839,282.0641 L528.4839,281.1974 L530.4839,281.9354 L532.4839,281.0209 L534.4839,281.4609" fill="none" style="stroke:#FF6F00;stroke-width:1.5;"/><a href="/use-case/client-360/know-your-customer/core-record-management/legal-entities/" target="_top" title="/use-case/client-360/know-your-customer/core-record-management/legal-entities/" xlink:actuate="onRequest" xlink:href="/use-case/client-360/know-your-customer/core-record-management/legal-entities/" xlink:show="new" xlink:title="/use-case/client-360/know-your-customer/core-record-management/legal-entities/" xlink:type="simple"><text fill="#4051B5" font-family="'Roboto'" font-size="13" lengthAdjust="spacing" textLength="87.8452" x="541.4839" y="311.0942">Legal Entities</text></a><path d="M474.4839,319.1602 L474.4839,319.347 L476.4839,318.7919 L478.4839,319.332 L480.4839,319.5154 L482.4839,318.526 L484.4839,319.1602 L484.4839,319.1602 L484.4775,319.1262 L486.5427,318.5812 L488.64,318.2072 L490.7596,317.9523 L492.8022,317.2873 L494.9526,317.1967 L495.0542,317.4208 L496.7433,316.0776 L498.7289,315.3887 L500.7506,314.7797 L502.5619,313.7062 L504.4839,312.877 L504.4964,312.9046 L506.3843,312.0001 L508.3291,311.2213 L510.2465,310.3819 L512.2163,309.6583 L514.0151,308.5573 L514.0701,308.8504 L516.1645,308.4613 L518.2235,307.8831 L520.3344,307.5817 L522.4477,307.2932 L524.4839,306.5938 L524.4839,305.9527 L526.4839,307.1969 L528.4839,306.3302 L530.4839,307.0682 L532.4839,306.1537 L534.4839,306.5938" fill="none" style="stroke:#FF6F00;stroke-width:1.5;"/><a href="/use-case/client-360/know-your-customer/core-record-management/locations/" target="_top" title="/use-case/client-360/know-your-customer/core-record-management/locations/" xlink:actuate="onRequest" xlink:href="/use-case/client-360/know-your-customer/core-record-management/locations/" xlink:show="new" xlink:title="/use-case/client-360/know-your-customer/core-record-management/locations/" xlink:type="simple"><text fill="#4051B5" font-family="'Roboto'" font-size="13" lengthAdjust="spacing" textLength="61.9849" x="541.4839" y="336.2271">Locations</text></a><path d="M474.4839,319.1602 L474.4839,319.347 L476.4839,318.7919 L478.4839,319.332 L480.4839,319.5154 L482.4839,318.526 L484.4839,319.1602 L484.4839,319.1602 L484.4775,319.1262 L486.5427,319.3666 L488.64,319.778 L490.7596,320.3085 L492.8022,320.4289 L494.9526,321.1237 L495.0542,321.3478 L496.7433,321.7325 L498.7289,322.7715 L500.7506,323.8903 L502.5619,324.5447 L504.4839,325.4434 L504.4964,325.471 L506.3843,326.2944 L508.3291,327.2435 L510.2465,328.132 L512.2163,329.1362 L514.0151,329.7631 L514.0701,330.0562 L516.1645,330.4525 L518.2235,330.6597 L520.3344,331.1437 L522.4477,331.6406 L524.4839,331.7266 L524.4839,331.0855 L526.4839,332.3297 L528.4839,331.463 L530.4839,332.2011 L532.4839,331.2865 L534.4839,331.7266" fill="none" style="stroke:#FF6F00;stroke-width:1.5;"/><a href="/use-case/client-360/know-your-customer/core-record-management/buildings/" target="_top" title="/use-case/client-360/know-your-customer/core-record-management/buildings/" xlink:actuate="onRequest" xlink:href="/use-case/client-360/know-your-customer/core-record-management/buildings/" xlink:show="new" xlink:title="/use-case/client-360/know-your-customer/core-record-management/buildings/" xlink:type="simple"><text fill="#4051B5" font-family="'Roboto'" font-size="13" lengthAdjust="spacing" textLength="59.5093" x="541.4839" y="361.3599">Buildings</text></a><path d="M474.4839,319.1602 L474.4839,319.347 L476.4839,318.7919 L478.4839,319.332 L480.4839,319.5154 L482.4839,318.526 L484.4839,319.1602 L484.4839,319.1602 L484.4669,319.1301 L486.4847,320.1731 L488.5878,321.3678 L490.7503,322.6681 L492.7082,323.6048 L494.9526,325.0507 L495.1509,325.1964 L496.6332,327.4765 L498.6943,330.1822 L500.826,332.9399 L502.5469,335.3954 L504.4839,338.0098 L504.5083,338.0277 L506.3787,340.5932 L508.3603,343.2404 L510.2883,345.8482 L512.3186,348.5313 L514.0151,350.9689 L514.1614,351.2288 L516.2569,352.4101 L518.2581,353.4237 L520.3974,354.6827 L522.5432,355.9533 L524.4839,356.8594 L524.4839,356.2183 L526.4839,357.4625 L528.4839,356.5958 L530.4839,357.3339 L532.4839,356.4194 L534.4839,356.8594" fill="none" style="stroke:#FF6F00;stroke-width:1.5;"/><a href="/use-case/client-360/know-your-customer/core-record-management/addresses/" target="_top" title="/use-case/client-360/know-your-customer/core-record-management/addresses/" xlink:actuate="onRequest" xlink:href="/use-case/client-360/know-your-customer/core-record-management/addresses/" xlink:show="new" xlink:title="/use-case/client-360/know-your-customer/core-record-management/addresses/" xlink:type="simple"><text fill="#4051B5" font-family="'Roboto'" font-size="13" lengthAdjust="spacing" textLength="67.0566" x="541.4839" y="386.4927">Addresses</text></a><path d="M474.4839,319.1602 L474.4839,319.347 L476.4839,318.7919 L478.4839,319.332 L480.4839,319.5154 L482.4839,318.526 L484.4839,319.1602 L484.4839,319.1602 L484.4603,319.135 L486.448,320.9854 L488.5548,322.9628 L490.7444,325.0286 L492.6487,326.79 L494.9526,328.9777 L495.1745,329.084 L495.6649,330.8692 L496.8031,332.9648 L498.0203,335.0984 L498.7776,337.0115 L499.7769,339.0406 L499.8049,339.0521 L500.7051,341.3424 L501.7331,343.6848 L502.6995,346.0021 L503.7835,348.3674 L504.4839,350.5762 L504.76,350.6889 L505.7048,352.9973 L506.4715,355.2332 L507.4989,357.5754 L508.5385,359.9225 L509.1909,362.1117 L508.9019,361.9732 L510.4277,364.2547 L511.0018,366.0799 L512.2994,368.2521 L512.8519,370.067 L514.0151,372.1747 L513.9943,372.1525 L516.3344,374.3786 L518.1878,376.0859 L520.3284,378.0993 L522.4931,380.1385 L524.4839,381.9922 L524.4839,382.3622 L526.4839,381.9887 L528.4839,382.2475 L530.4839,381.4834 L532.4839,382.245 L534.4839,381.9922" fill="none" style="stroke:#FF6F00;stroke-width:1.5;"/><a href="/use-case/client-360/know-your-customer/core-record-management/audit/" target="_top" title="/use-case/client-360/know-your-customer/core-record-management/audit/" xlink:actuate="onRequest" xlink:href="/use-case/client-360/know-your-customer/core-record-management/audit/" xlink:show="new" xlink:title="/use-case/client-360/know-your-customer/core-record-management/audit/" xlink:type="simple"><text fill="#4051B5" font-family="'Roboto'" font-size="13" lengthAdjust="spacing" textLength="34.0933" x="541.4839" y="411.6255">Audit</text></a><path d="M474.4839,319.1602 L474.4839,319.347 L476.4839,318.7919 L478.4839,319.332 L480.4839,319.5154 L482.4839,318.526 L484.4839,319.1602 L484.4839,319.1602 L484.4564,319.1392 L486.4268,321.7942 L488.5358,324.5547 L490.741,327.3885 L492.6144,329.9696 L494.9526,332.9047 L495.1854,332.9844 L495.6525,335.6315 L496.7992,338.5114 L498.0288,341.4197 L498.7759,344.1628 L499.7769,346.9928 L499.806,347.0013 L500.7046,350.2188 L501.7358,353.4749 L502.7031,356.7124 L503.7924,359.9855 L504.4839,363.1426 L504.7702,363.226 L505.7151,366.457 L506.4753,369.6342 L507.5059,372.8901 L508.5491,376.1497 L509.1909,379.2924 L508.8877,379.1885 L510.4411,382.2077 L510.9959,384.8849 L512.3099,387.8221 L512.8421,390.4916 L514.0151,393.3805 L513.9909,393.362 L516.3711,396.3291 L518.1854,398.8652 L520.3336,401.6556 L522.5099,404.4673 L524.4839,407.125 L524.4839,407.495 L526.4839,407.1215 L528.4839,407.3803 L530.4839,406.6162 L532.4839,407.3778 L534.4839,407.125" fill="none" style="stroke:#FF6F00;stroke-width:1.5;"/><path d="M215.9536,214.8457 L215.9536,215.0325 L217.9536,214.4774 L219.9536,215.0175 L221.9536,215.201 L223.9536,214.2116 L225.9536,214.8457 L225.9536,214.8457 L225.9246,214.827 L227.8879,218.0031 L229.9977,221.2732 L232.2094,224.6088 L234.0701,227.719 L236.4224,231.1448 L236.6588,231.2131 L237.1181,234.4084 L238.2676,237.8031 L239.5013,241.2221 L240.2451,244.4995 L241.2466,247.8514 L241.276,247.8587 L242.1742,251.6784 L243.2064,255.531 L244.174,259.3677 L245.265,263.2348 L245.9536,267.0029 L246.2432,267.0741 L247.1882,270.9053 L247.9463,274.6905 L248.9779,278.543 L250.0223,282.3986 L250.6606,286.1544 L250.3527,286.0655 L251.9152,289.5794 L252.4637,292.8005 L253.7831,296.2442 L254.3086,299.4587 L255.4849,302.861 L255.4592,302.8446 L257.8559,306.299 L259.6541,309.369 L261.8055,312.6658 L263.9865,315.9817 L265.9536,319.1602 L265.9536,319.5301 L267.9536,319.1567 L269.9536,319.4155 L271.9536,318.6513 L273.9536,319.4129 L275.9536,319.1602" fill="none" style="stroke:#FF6F00;stroke-width:1.5;"/><path d="M110.7129,307.4668 L110.7129,307.6536 L112.7129,307.0985 L114.7129,307.6386 L116.7129,307.8221 L118.7129,306.8327 L120.7129,307.4668 L120.7129,307.4668 L120.6849,307.4466 L122.6531,304.4613 L124.7623,301.5781 L126.9696,298.7658 L128.8389,295.7091 L131.1816,292.9948 L131.4156,293.0709 L131.8801,289.9413 L133.0277,287.034 L134.2587,284.1538 L135.0048,281.1159 L136.0059,278.1609 L136.0351,278.169 L136.9336,274.7562 L137.9651,271.3802 L138.9325,267.9865 L140.0224,264.6266 L140.7129,261.1563 L141.0003,261.2358 L141.9452,257.8359 L142.7048,254.3846 L143.7357,251.0084 L144.7793,247.6358 L145.4199,244.1516 L145.1151,244.0525 L146.6715,241.2781 L147.2243,238.1773 L148.5401,235.3247 L149.0701,232.2165 L150.2441,229.3177 L150.2195,229.2999 L152.6049,226.6165 L154.4141,223.5162 L156.5633,220.662 L158.7411,217.8283 L160.7129,214.8457 L160.7129,215.2157 L162.7129,214.8422 L164.7129,215.101 L166.7129,214.3369 L168.7129,215.0985 L170.7129,214.8457" fill="none" style="stroke:#FF6F00;stroke-width:1.5;"/><a href="/use-case/client-360/relationships-and-connections/" target="_top" title="/use-case/client-360/relationships-and-connections/" xlink:actuate="onRequest" xlink:href="/use-case/client-360/relationships-and-connections/" xlink:show="new" xlink:title="/use-case/client-360/relationships-and-connections/" xlink:type="simple"><text fill="#4051B5" font-family="'Roboto'" font-size="15" lengthAdjust="spacing" textLength="214.4897" x="177.7129" y="477.478">Relationships &amp; Connections</text></a><a href="/use-case/client-360/relationships-and-connections/business-connections/" target="_top" title="/use-case/client-360/relationships-and-connections/business-connections/" xlink:actuate="onRequest" xlink:href="/use-case/client-360/relationships-and-connections/business-connections/" xlink:show="new" xlink:title="/use-case/client-360/relationships-and-connections/business-connections/" xlink:type="simple"><text fill="#4051B5" font-family="'Roboto'" font-size="14" lengthAdjust="spacing" textLength="152.6943" x="467.9707" y="437.6865">Business Connections</text></a><path d="M400.9707,472.2852 L400.9707,472.472 L402.9707,471.9169 L404.9707,472.457 L406.9707,472.6404 L408.9707,471.651 L410.9707,472.2852 L410.9707,472.2852 L410.9532,472.2554 L412.9683,470.8891 L415.0717,469.6729 L417.2366,468.5611 L419.1898,467.0897 L421.4395,466.1218 L421.6408,466.2633 L423.1165,463.2489 L425.18,460.6475 L427.3153,458.0966 L429.0333,455.2524 L430.9707,452.5625 L430.9955,452.5799 L432.8653,449.8425 L434.8481,447.1844 L436.7764,444.488 L438.8087,441.8647 L440.502,439.0032 L440.6533,439.2602 L442.7489,438.0307 L444.7469,436.6354 L446.8877,435.4827 L449.0353,434.3415 L450.9707,432.8398 L450.9707,432.1988 L452.9707,433.443 L454.9707,432.5763 L456.9707,433.3143 L458.9707,432.3998 L460.9707,432.8398" fill="none" style="stroke:#FF6F00;stroke-width:1.5;"/><a href="/use-case/client-360/relationships-and-connections/family-connections/" target="_top" title="/use-case/client-360/relationships-and-connections/family-connections/" xlink:actuate="onRequest" xlink:href="/use-case/client-360/relationships-and-connections/family-connections/" xlink:show="new" xlink:title="/use-case/client-360/relationships-and-connections/family-connections/" xlink:type="simple"><text fill="#4051B5" font-family="'Roboto'" font-size="14" lengthAdjust="spacing" textLength="137.293" x="467.9707" y="463.9834">Family Connections</text></a><path d="M400.9707,472.2852 L400.9707,472.472 L402.9707,471.9169 L404.9707,472.457 L406.9707,472.6404 L408.9707,471.651 L410.9707,472.2852 L410.9707,472.2852 L410.9641,472.2513 L413.028,471.6883 L415.1254,471.2961 L417.2461,471.0228 L419.2865,470.3401 L421.4395,470.2307 L421.5449,470.453 L423.2257,469.0736 L425.2143,468.3434 L427.2405,467.6923 L429.0481,466.5804 L430.9707,465.7109 L430.9837,465.7383 L432.8709,464.7942 L434.8172,463.9747 L436.735,463.0951 L438.7072,462.3303 L440.502,461.1912 L440.5594,461.4838 L442.6538,461.0765 L444.7112,460.4804 L446.8229,460.1607 L448.9371,459.8539 L450.9707,459.1367 L450.9707,458.4957 L452.9707,459.7398 L454.9707,458.8732 L456.9707,459.6112 L458.9707,458.6967 L460.9707,459.1367" fill="none" style="stroke:#FF6F00;stroke-width:1.5;"/><a href="/use-case/client-360/relationships-and-connections/social-connections/" target="_top" title="/use-case/client-360/relationships-and-connections/social-connections/" xlink:actuate="onRequest" xlink:href="/use-case/client-360/relationships-and-connections/social-connections/" xlink:show="new" xlink:title="/use-case/client-360/relationships-and-connections/social-connections/" xlink:type="simple"><text fill="#4051B5" font-family="'Roboto'" font-size="14" lengthAdjust="spacing" textLength="132.4668" x="467.9707" y="490.2803">Social Connections</text></a><path d="M400.9707,472.2852 L400.9707,472.472 L402.9707,471.9169 L404.9707,472.457 L406.9707,472.6404 L408.9707,471.651 L410.9707,472.2852 L410.9707,472.2852 L410.9641,472.2513 L413.028,472.51 L415.1254,472.9397 L417.2461,473.4881 L419.2865,473.6272 L421.4395,474.3396 L421.5449,474.5619 L423.2257,474.9904 L425.2143,476.0681 L427.2405,477.2249 L429.0481,477.921 L430.9707,478.8594 L430.9837,478.8868 L432.8709,479.7505 L434.8172,480.739 L436.735,481.6673 L438.7072,482.7104 L440.502,483.3792 L440.5594,483.6718 L442.6538,484.0863 L444.7112,484.312 L446.8229,484.814 L448.9371,485.329 L450.9707,485.4336 L450.9707,484.7925 L452.9707,486.0367 L454.9707,485.17 L456.9707,485.9081 L458.9707,484.9936 L460.9707,485.4336" fill="none" style="stroke:#FF6F00;stroke-width:1.5;"/><a href="/use-case/client-360/relationships-and-connections/political-connections/" target="_top" title="/use-case/client-360/relationships-and-connections/political-connections/" xlink:actuate="onRequest" xlink:href="/use-case/client-360/relationships-and-connections/political-connections/" xlink:show="new" xlink:title="/use-case/client-360/relationships-and-connections/political-connections/" xlink:type="simple"><text fill="#4051B5" font-family="'Roboto'" font-size="14" lengthAdjust="spacing" textLength="145.291" x="467.9707" y="516.5771">Political Connections</text></a><path d="M400.9707,472.2852 L400.9707,472.472 L402.9707,471.9169 L404.9707,472.457 L406.9707,472.6404 L408.9707,471.651 L410.9707,472.2852 L410.9707,472.2852 L410.9532,472.2554 L412.9683,473.3545 L415.0717,474.6036 L417.2366,475.9571 L419.1898,476.951 L421.4395,478.4485 L421.6408,478.59 L423.1165,480.9993 L425.18,483.8217 L427.3153,486.6945 L429.0333,489.274 L430.9707,492.0078 L430.9955,492.0253 L432.8653,494.7115 L434.8481,497.4772 L436.7764,500.2045 L438.8087,503.005 L440.502,505.5671 L440.6533,505.8242 L442.7489,507.06 L444.7469,508.13 L446.8877,509.4427 L449.0353,510.7668 L450.9707,511.7305 L450.9707,511.0894 L452.9707,512.3336 L454.9707,511.4669 L456.9707,512.205 L458.9707,511.2904 L460.9707,511.7305" fill="none" style="stroke:#FF6F00;stroke-width:1.5;"/><path d="M110.7129,307.4668 L110.7129,307.6536 L112.7129,307.0985 L114.7129,307.6386 L116.7129,307.8221 L118.7129,306.8327 L120.7129,307.4668 L120.7129,307.4668 L120.6854,307.4458 L121.6443,308.7681 L122.7415,310.1961 L123.9349,311.6976 L124.7968,312.9459 L126.123,314.5488 L126.3605,314.6132 L126.8644,318.2097 L128.0616,321.9942 L129.3435,325.8015 L130.1331,329.4755 L131.1816,333.2197 L131.2114,333.2255 L131.6545,335.7118 L132.2331,338.2245 L132.7464,340.7244 L133.3844,343.2488 L133.6157,345.6937 L133.9097,345.7442 L134.3913,348.5293 L134.6833,351.2819 L135.2529,354.0822 L135.8354,356.8846 L136.0059,359.6164 L135.6891,359.5671 L137.2452,365.7146 L137.7585,371.6999 L139.0645,377.8086 L139.5541,383.7902 L140.7129,389.876 L140.6828,389.8713 L141.98,395.9786 L142.5743,401.9765 L143.5834,408.0389 L144.6272,414.1068 L145.4199,420.1356 L145.6022,420.1669 L145.8962,422.9198 L146.5018,425.7263 L146.6033,428.4461 L147.4566,431.2951 L147.8101,434.0582 L148.0492,434.1049 L148.4908,436.5909 L149.0511,439.1 L149.0598,441.5015 L149.4728,443.982 L150.2441,446.5323 L149.9776,446.4601 L151.2306,450.2596 L152.1833,453.9778 L153.5716,457.814 L154.2161,461.4486 L155.3027,465.2031 L155.1816,465.1106 L156.4654,466.6811 L157.2313,467.856 L158.3655,469.3123 L159.8601,471.0438 L160.7129,472.2852 L160.7129,472.6724 L162.7129,472.938 L164.7129,471.9991 L166.7129,472.5689 L168.7129,472.81 L170.7129,472.2852" fill="none" style="stroke:#FF6F00;stroke-width:1.5;"/><a href="/use-case/client-360/social-media/" target="_top" title="/use-case/client-360/social-media/" xlink:actuate="onRequest" xlink:href="/use-case/client-360/social-media/" xlink:show="new" xlink:title="/use-case/client-360/social-media/" xlink:type="simple"><text fill="#4051B5" font-family="'Roboto'" font-size="15" lengthAdjust="spacing" textLength="94.292" x="177.7129" y="556.3687">Social Media</text></a><a href="/use-case/client-360/social-media/social-graph/" target="_top" title="/use-case/client-360/social-media/social-graph/" xlink:actuate="onRequest" xlink:href="/use-case/client-360/social-media/social-graph/" xlink:show="new" xlink:title="/use-case/client-360/social-media/social-graph/" xlink:type="simple"><text fill="#4051B5" font-family="'Roboto'" font-size="14" lengthAdjust="spacing" textLength="88.9014" x="347.7729" y="542.874">Social Graph</text></a><path d="M280.7729,551.1758 L280.7729,551.3626 L282.7729,550.8075 L284.7729,551.3476 L286.7729,551.5311 L288.7729,550.5417 L290.7729,551.1758 L290.7729,551.1758 L290.7663,551.1419 L292.8302,550.5789 L294.9276,550.1868 L297.0484,549.9134 L299.0888,549.2307 L301.2417,549.1213 L301.3471,549.3437 L303.0279,547.9643 L305.0165,547.234 L307.0427,546.5829 L308.8504,545.4711 L310.7729,544.6016 L310.7859,544.629 L312.6731,543.6848 L314.6194,542.8653 L316.5372,541.9857 L318.5095,541.2209 L320.3042,540.0818 L320.3616,540.3745 L322.4561,539.9671 L324.5135,539.3711 L326.6251,539.0513 L328.7393,538.7445 L330.7729,538.0273 L330.7729,537.3863 L332.7729,538.6305 L334.7729,537.7638 L336.7729,538.5018 L338.7729,537.5873 L340.7729,538.0273" fill="none" style="stroke:#FF6F00;stroke-width:1.5;"/><a href="/use-case/client-360/social-media/interest-graph/" target="_top" title="/use-case/client-360/social-media/interest-graph/" xlink:actuate="onRequest" xlink:href="/use-case/client-360/social-media/interest-graph/" xlink:show="new" xlink:title="/use-case/client-360/social-media/interest-graph/" xlink:type="simple"><text fill="#4051B5" font-family="'Roboto'" font-size="14" lengthAdjust="spacing" textLength="101.6504" x="347.7729" y="569.1709">Interest Graph</text></a><path d="M280.7729,551.1758 L280.7729,551.3626 L282.7729,550.8075 L284.7729,551.3476 L286.7729,551.5311 L288.7729,550.5417 L290.7729,551.1758 L290.7729,551.1758 L290.7663,551.1419 L292.8302,551.4007 L294.9276,551.8303 L297.0484,552.3787 L299.0888,552.5178 L301.2417,553.2302 L301.3471,553.4526 L303.0279,553.8811 L305.0165,554.9587 L307.0427,556.1156 L308.8504,556.8116 L310.7729,557.75 L310.7859,557.7774 L312.6731,558.6411 L314.6194,559.6296 L316.5372,560.5579 L318.5095,561.601 L320.3042,562.2698 L320.3616,562.5624 L322.4561,562.9769 L324.5135,563.2026 L326.6251,563.7046 L328.7393,564.2196 L330.7729,564.3242 L330.7729,563.6832 L332.7729,564.9273 L334.7729,564.0607 L336.7729,564.7987 L338.7729,563.8842 L340.7729,564.3242" fill="none" style="stroke:#FF6F00;stroke-width:1.5;"/><path d="M110.7129,307.4668 L110.7129,307.6536 L112.7129,307.0985 L114.7129,307.6386 L116.7129,307.8221 L118.7129,306.8327 L120.7129,307.4668 L120.7129,307.4668 L120.6822,307.4509 L121.6265,309.4742 L122.7255,311.5773 L123.9321,313.736 L124.768,315.7033 L126.123,317.9387 L126.3637,317.99 L126.3623,320.284 L127.0635,322.7279 L127.8503,325.1901 L128.1385,327.5458 L128.689,329.9575 L128.7189,329.9623 L129.1735,333.073 L129.7644,336.2056 L130.2895,339.3276 L130.9401,342.4697 L131.1816,345.5463 L131.4773,345.5853 L131.9678,349.2748 L132.2675,352.939 L132.8464,356.6401 L133.4383,360.343 L133.6157,363.9911 L133.2973,363.9541 L134.3933,368.1432 L134.4409,372.2106 L135.2855,376.3705 L135.3093,380.4351 L136.0059,384.5778 L135.9756,384.5747 L137.2751,393.561 L137.8671,402.473 L138.8766,411.4288 L139.9212,420.3883 L140.7129,429.3213 L140.8969,429.3406 L141.6526,438.2698 L142.7227,447.232 L143.2841,456.1407 L144.6042,465.1293 L145.4199,474.0647 L145.6619,474.0928 L146.0942,478.2049 L146.6466,482.3309 L146.6407,486.392 L147.0441,490.5007 L147.8101,494.6515 L147.5363,494.6153 L148.2709,498.337 L148.6971,502.018 L149.5708,505.758 L149.6804,509.3971 L150.2441,513.0963 L150.0936,513.0722 L150.8429,516.23 L150.9486,519.285 L151.5119,522.4131 L152.5231,525.6128 L152.7368,528.6851 L152.9262,528.7255 L153.5692,531.157 L153.6233,533.4627 L154.4151,535.926 L155.0462,538.3549 L155.3027,540.7039 L155.1162,540.6075 L156.3469,542.7787 L157.5165,544.9184 L158.8062,547.12 L159.6292,549.0806 L160.7129,551.1758 L160.7129,551.587 L162.7129,550.6835 L164.7129,550.5738 L166.7129,551.6234 L168.7129,550.5385 L170.7129,551.1758" fill="none" style="stroke:#FF6F00;stroke-width:1.5;"/><text fill="#4051B5" font-family="'Roboto'" font-size="15" lengthAdjust="spacing" textLength="123.3398" x="177.7129" y="596.396">...many others...</text><path d="M110.7129,307.4668 L110.7129,307.6536 L112.7129,307.0985 L114.7129,307.6386 L116.7129,307.8221 L118.7129,306.8327 L120.7129,307.4668 L120.7129,307.4668 L120.6813,307.4528 L121.6217,309.8283 L122.7212,312.2744 L123.9313,314.7696 L124.7602,317.0956 L126.123,319.6586 L126.3651,319.703 L126.3607,322.4066 L127.063,325.2399 L127.8514,328.0889 L128.1383,330.846 L128.689,333.6514 L128.719,333.6556 L129.1734,337.2793 L129.7646,340.9219 L130.2899,344.5554 L130.941,348.2062 L131.1816,351.8006 L131.478,351.8342 L131.9684,356.1294 L132.2677,360.403 L132.8468,364.7083 L133.439,369.0151 L133.6157,373.2748 L133.2968,373.243 L134.3938,378.0983 L134.4406,382.8489 L135.2859,387.6791 L135.3089,392.4273 L136.0059,397.2427 L135.9149,397.2345 L137.9321,407.7502 L137.824,418.0738 L138.9699,428.5107 L140.2212,438.9571 L140.7129,449.335 L141.2656,449.3849 L141.6491,459.7529 L142.9771,470.2063 L142.777,480.5216 L144.8562,491.0429 L145.4199,501.4272 L145.6624,501.4514 L146.0945,506.2404 L146.6471,511.0414 L146.6404,515.7866 L147.0436,520.5728 L147.8101,525.3951 L147.5356,525.364 L148.2709,529.687 L148.6969,533.975 L149.5714,538.3138 L149.6802,542.5657 L150.2441,546.8693 L150.0931,546.8486 L150.8432,550.513 L150.9476,554.0887 L151.5112,557.7274 L152.524,561.4279 L152.7368,565.0185 L152.9273,565.0534 L153.5711,567.8759 L153.6225,570.5898 L154.4159,573.4398 L155.0477,576.2601 L155.3027,579.0113 L155.1108,578.9262 L156.3458,581.4324 L157.518,583.9108 L158.8136,586.4439 L159.6292,588.764 L160.7129,591.2031 L160.7129,591.6143 L162.7129,590.7109 L164.7129,590.6011 L166.7129,591.6508 L168.7129,590.5658 L170.7129,591.2031" fill="none" style="stroke:#FF6F00;stroke-width:1.5;"/><!--SRC=[xLbjRzis4FwkNy6jm9gWKnmtIJ4KHL77UMbQEp7ijCKm304jqJONcjH8AgbNzB_lA8dMYos_LTvQmFvYYJm-Tpo-t9sUDqfZgSUK-sCS88zHmhLxzEBGSNxooO1oWaulxzgDg-kxvathfekYtvFZmvDw_oGhqZjltboVDRg_9t9pH3gDvll6vVaKQ4RafdjstitgGKy6WnU3myEfoCNDzMrE818nlwb8ezkz-PINiIYEkgSym1AFKHzxzqCfGkut1HCIFT4ISmLzCFsCsDj9G2IZ_3wHIYnsdYBAFHRw1EaHGKF2YSGCJSSfD03flj2ZNn6Zmv56cFl8n_8UHcg1n0EHZv9gWXwf7iKOz85mf8ZMb0zLqIUtRw-Qxw_FUprKXuKHWQQ2en606XGD0mUOAP8nl8Dz7u3GSQQj6qzNWh7ejqnxRuHzyMYaYoZJwN_WVlH04f6Cp1aPu91fzCMv45nVup51FtS5p5ty7BN4daiNBchiqNy8gXyxNxD83Id58-3C7J4VHayO-4WmFuyKmEhY8KbicXbwMbZyt0vtJeM4oIOzcIq9Ab8DNFZhmEUs_ceQF34E18Vj26esD7YkTR7FmZ5xdlUPZpNkOqKgLfVJuJ4H-bjL81WZdZaTgd8rgPOc24Z1jgZXr41YETcYYdEkgTwc0ieraGFiaItgw96_Gy8zqe4OHZqQOAvZiDiHzUuvKGekp5HS9U9WKNR4GkDceEVOcP59hoKkv1YpOj_CT5fqG5fmivQ2JmKMcXbTdZFWKMifSjGxrwYe9_NXaTFmj91BB8X4IdMPth83_1GrZv7n6WGXU7coz9Szyn8EFEP3HbwzWcYb17_z6jQt1vkF20q1h3HwL1KNYZkk6BFpLrJ6NF8PZEIOtLLlTo4TsuBnQg8q6VzulgxUxYtvsWRa7yFLgRK_dgSpswIV1DxOwa9Yd9z5bCCUBi_sDfhxued50SR7QaJyLUOwTweUACOGL-IgSuLyVV5Msi9C5o_XscM8BU3IEHt5yUS6AZ998QVt4nnJmDcgs2Jx2hbe72fjydA2y02cQdKMoeACjgGqBQrnChLgcP7PL29rHY5tXnfUBq-pvaTwhINjXvgKvm6pjYueO7BPFbPgCwiMANYAsicwg81uT40zc7-KEi0IFOvCLQtX3eByKva5ZHRlLzHd8O6ruvoOH4GX4MhJFLlILMnjYe_pETN2GjvvPQP4NZl95ZoZU6WmlZY9bRQ-Ft7QM0ufH_MJoFBBKijRSyhuhqvVV6OaMgLqPlbnNnqfXBxEgwrdT-ULnenw8CW87XG5CqVj14HmwVutAMx6EmT6sYU17ktLznFpKfYuutc-utZQSPJlE9fs7ESxp37wwhog9Svsdg4__a2rK17NWr1MIx-6rL0pUaRmZFxyqtdsxAvKz9wBHtSYGkbwS5_0RI5hwFtlpNZOUkEWPg3kM70oSHaEpUA1Jske0SseRPfHQzgCzXhjrdwYfGerdf2Ig430EmmriTrtyPY1AsOx4EYkK3Kd-b78-wpIwsnJnUgYRtyu-coGLNcRDjSkACTGECweNqixDGup5nQEL478cRxKq5Mk4ttCT6wYAo21gg6EO1IgJypO19r_3eGnlXCL6mhjTSuxQdyJR4_ICN4XbO1x3vGqpIlgng-Ru2bmRVJDfePwzd4J74dLlJl670_96CHgg0iDg3rjs0HpH8SZ5_QZ2xjFZrouZka3zKEuFcleBVIPZOa-cJvqbVQXlRVNdwusSkxG3-32k3phT3TQ6Y7jokGy0MVMBj6iGofHuK7WWLI2c0rX7wl4bsGORv5k_50bzbyXR1sVsatuBljQfHv6XfYvvfpho54jynv_YQlOMqp4LuTHOX-hnE-7b9a03_Ydzh5AV4WV8COeuwI6VQmKF_Gf78k6-LiMq2LXiGD7D50kv6fkaaVQ_PZfHh-OhyEsS-a9NWpT3nKrsL1UtsdIMg6Y0HvJDichkOZQAbIYX4TXz-UKzAAs2fK4Dk3bzKpZuAogSas9mMFYKpmrjMtUbXgP6vgyG08VZAOub-PjFPpeWpfHsY9T9UzPh3jqS700-to2X1v1e8Stvms16YAk8npdJIdVMnqx-XtpaBOaNv64p8hF0LY3VhJZYkMbTLgsXhHyzKB2yLi15_6BYp1cBTY0KLnFmKeSuhT0BcGDrmLUXIVS77C1CxWvQ2aNk3da8lPlSzIjy7tMd1AcprgsDibd9p2FuREWPUIUjIdp0Sx2pN1w5gj0v-Nabt9vKuL55c-AdYVmCWTf8owk_6PTPxVCBlwtSct_jLrBI9B_pKtVWrqhCs3_iJNVbPCg9Q-i7MlEfjJgXKHLVPlCLDKpAVY_AkPfO-feJhoiZ3RA8XLYoInRb0ipypnNJ45NO8ZA3LWAMSBYV0FYB6zJ2JjZBLgTbx4Zjid8f7d9ZetPiJ4xDcR7nkpOc1qRisDZTcpCZetPiJ4xDgPYDgR380Vw0FaBP1_Av1RrW-U7pqyEwlK-qRX-kFU1crF4ew_r539x3S5ztzcxxBIGWfFbGN5DLLoJmV1zvnr-mAWB5px8lKGt0U7lpjxR1hZR7gWKt9mvvzt7TYhmujWzXQFN8n8CGH_RZYrgpxadp7No4dsulN1_SrfGeeTmR5yYmfquiaoWh_Sl]--></g></svg>