<svg xmlns="http://www.w3.org/2000/svg" xmlns:xlink="http://www.w3.org/1999/xlink" contentStyleType="text/css" data-diagram-type="MINDMAP" height="253px" preserveAspectRatio="none" style="width:614px;height:253px;" version="1.1" viewBox="0 0 614 253" width="614px" zoomAndPan="magnify"><defs/><g><a href="/use-case/legal-entity-management/" target="_top" title="/use-case/legal-entity-management/" xlink:actuate="onRequest" xlink:href="/use-case/legal-entity-management/" xlink:show="new" xlink:title="/use-case/legal-entity-management/" xlink:type="simple"><text fill="#4051B5" font-family="'Roboto'" font-size="13" lengthAdjust="spacing" textLength="166.9243" x="17" y="130.0317">Legal Entity Management</text></a><a href="/use-case/legal-entity-management/identification-and-registration/" target="_top" title="/use-case/legal-entity-management/identification-and-registration/" xlink:actuate="onRequest" xlink:href="/use-case/legal-entity-management/identification-and-registration/" xlink:show="new" xlink:title="/use-case/legal-entity-management/identification-and-registration/" xlink:type="simple"><text fill="#4051B5" font-family="'Roboto'" font-size="13" lengthAdjust="spacing" textLength="182.6157" x="249.0566" y="27.0669">Identification &amp; Registration</text></a><path d="M192.0566,125.5313 L192.0566,125.7181 L194.0566,125.163 L196.0566,125.7031 L198.0566,125.8865 L200.0566,124.8971 L202.0566,125.5313 L202.0566,125.5313 L202.0264,125.5145 L203.6721,122.2218 L205.47,119.0134 L207.3739,115.8636 L208.9128,112.5118 L210.9629,109.443 L211.2044,109.4902 L211.3325,106.0912 L212.1657,102.8299 L213.0849,99.5855 L213.5036,96.2433 L214.1855,92.9525 L214.2155,92.9571 L214.7457,89.1697 L215.4124,85.403 L216.0133,81.6263 L216.7398,77.8687 L217.0566,74.0488 L217.3515,74.0936 L217.9293,70.3134 L218.317,66.5043 L218.983,62.7375 L219.6621,58.9727 L219.9277,55.1451 L219.6132,55.0837 L220.8682,51.9049 L221.0875,48.5237 L222.0942,45.2964 L222.2899,41.9106 L223.1504,38.6547 L223.1238,38.6399 L225.22,35.5966 L226.6939,32.2089 L228.5351,29.0244 L230.4071,25.8569 L232.0566,22.5664 L232.0566,22.9364 L234.0566,22.5629 L236.0566,22.8217 L238.0566,22.0576 L240.0566,22.8192 L242.0566,22.5664" fill="none" style="stroke:#FF6F00;stroke-width:1;"/><a href="/use-case/legal-entity-management/corporate-governance/" target="_top" title="/use-case/legal-entity-management/corporate-governance/" xlink:actuate="onRequest" xlink:href="/use-case/legal-entity-management/corporate-governance/" xlink:show="new" xlink:title="/use-case/legal-entity-management/corporate-governance/" xlink:type="simple"><text fill="#4051B5" font-family="'Roboto'" font-size="13" lengthAdjust="spacing" textLength="147.7734" x="249.0566" y="52.1997">Corporate Governance</text></a><path d="M192.0566,125.5313 L192.0566,125.7181 L194.0566,125.163 L196.0566,125.7031 L198.0566,125.8865 L200.0566,124.8971 L202.0566,125.5313 L202.0566,125.5313 L202.0288,125.5108 L203.685,122.987 L205.4816,120.566 L207.376,118.2166 L208.9337,115.6207 L210.9629,113.37 L211.2011,113.4316 L211.3362,110.8068 L212.1669,108.3619 L213.0823,105.9389 L213.5041,103.3882 L214.1855,100.9047 L214.2153,100.9107 L214.7458,98.044 L215.4118,95.2045 L216.0124,92.352 L216.7376,89.5244 L217.0566,86.6152 L217.349,86.674 L217.9268,83.8168 L218.316,80.9217 L218.9813,78.0821 L219.6595,75.2451 L219.9277,72.3258 L219.6174,72.2455 L220.8642,69.9082 L221.0892,67.3067 L222.091,64.906 L222.2929,62.2985 L223.1504,59.8605 L223.1258,59.8425 L225.1976,57.623 L226.6954,54.9832 L228.5319,52.5914 L230.3968,50.2204 L232.0566,47.6992 L232.0566,48.0692 L234.0566,47.6957 L236.0566,47.9545 L238.0566,47.1904 L240.0566,47.952 L242.0566,47.6992" fill="none" style="stroke:#FF6F00;stroke-width:1;"/><a href="/use-case/legal-entity-management/ownership-and-capital-structure/" target="_top" title="/use-case/legal-entity-management/ownership-and-capital-structure/" xlink:actuate="onRequest" xlink:href="/use-case/legal-entity-management/ownership-and-capital-structure/" xlink:show="new" xlink:title="/use-case/legal-entity-management/ownership-and-capital-structure/" xlink:type="simple"><text fill="#4051B5" font-family="'Roboto'" font-size="13" lengthAdjust="spacing" textLength="198.1992" x="249.0566" y="77.3325">Ownership &amp; Capital Structure</text></a><path d="M192.0566,125.5313 L192.0566,125.7181 L194.0566,125.163 L196.0566,125.7031 L198.0566,125.8865 L200.0566,124.8971 L202.0566,125.5313 L202.0566,125.5313 L202.0332,125.5059 L203.7092,123.7452 L205.5034,122.1124 L207.3798,120.5685 L208.973,118.7182 L210.9629,117.297 L211.1961,117.3754 L211.9161,113.5846 L213.3171,110.0228 L214.8011,106.489 L215.8018,102.7926 L217.0566,99.1816 L217.0854,99.1913 L218.2619,95.554 L219.5693,91.9608 L220.8136,88.3463 L222.1784,84.7723 L223.1504,81.0663 L223.3529,81.2853 L225.1366,79.6411 L226.7897,77.8557 L228.634,76.277 L230.4873,74.708 L232.0566,72.832 L232.0566,72.191 L234.0566,73.4352 L236.0566,72.5685 L238.0566,73.3065 L240.0566,72.392 L242.0566,72.832" fill="none" style="stroke:#FF6F00;stroke-width:1;"/><a href="/use-case/legal-entity-management/financial-information/" target="_top" title="/use-case/legal-entity-management/financial-information/" xlink:actuate="onRequest" xlink:href="/use-case/legal-entity-management/financial-information/" xlink:show="new" xlink:title="/use-case/legal-entity-management/financial-information/" xlink:type="simple"><text fill="#4051B5" font-family="'Roboto'" font-size="13" lengthAdjust="spacing" textLength="137.4839" x="249.0566" y="102.4653">Financial Information</text></a><path d="M192.0566,125.5313 L192.0566,125.7181 L194.0566,125.163 L196.0566,125.7031 L198.0566,125.8865 L200.0566,124.8971 L202.0566,125.5313 L202.0566,125.5313 L202.0416,125.5002 L203.7554,124.4992 L205.5449,123.6549 L207.3872,122.9196 L209.0479,121.8088 L210.9629,121.224 L211.1699,121.3571 L211.946,119.1773 L213.3265,117.3861 L214.7806,115.6423 L215.8058,113.6226 L217.0566,111.748 L217.0821,111.7645 L218.2634,109.8452 L219.5609,108.0006 L220.8023,106.12 L222.1506,104.3081 L223.1504,102.2721 L223.2802,102.5406 L225.0631,101.6824 L226.7622,100.6511 L228.5838,99.8732 L230.4113,99.1073 L232.0566,97.9648 L232.0566,97.3238 L234.0566,98.568 L236.0566,97.7013 L238.0566,98.4393 L240.0566,97.5248 L242.0566,97.9648" fill="none" style="stroke:#FF6F00;stroke-width:1;"/><a href="/use-case/legal-entity-management/lifecycle-and-status/" target="_top" title="/use-case/legal-entity-management/lifecycle-and-status/" xlink:actuate="onRequest" xlink:href="/use-case/legal-entity-management/lifecycle-and-status/" xlink:show="new" xlink:title="/use-case/legal-entity-management/lifecycle-and-status/" xlink:type="simple"><text fill="#4051B5" font-family="'Roboto'" font-size="13" lengthAdjust="spacing" textLength="116.854" x="249.0566" y="127.5981">Lifecycle &amp; Status</text></a><path d="M192.0566,125.5313 L192.0566,125.7181 L194.0566,125.163 L196.0566,125.7031 L198.0566,125.8865 L200.0566,124.8971 L202.0566,125.5313 L202.0566,125.5313 L202.0538,125.4968 L205.0413,125.099 L208.0429,124.8746 L211.0542,124.771 L214.0318,124.2515 L217.0566,124.3145 L217.0765,124.5597 L220.034,123.7919 L223.0495,123.7401 L226.0722,123.7757 L229.0536,123.303 L232.0566,123.0977 L232.0566,123.1583 L234.0566,123.0693 L236.0566,123.2563 L238.0566,123.3102 L240.0566,123.6183 L242.0566,123.0977" fill="none" style="stroke:#FF6F00;stroke-width:1;"/><a href="/use-case/legal-entity-management/contact-and-location-information/" target="_top" title="/use-case/legal-entity-management/contact-and-location-information/" xlink:actuate="onRequest" xlink:href="/use-case/legal-entity-management/contact-and-location-information/" xlink:show="new" xlink:title="/use-case/legal-entity-management/contact-and-location-information/" xlink:type="simple"><text fill="#4051B5" font-family="'Roboto'" font-size="13" lengthAdjust="spacing" textLength="203.8042" x="249.0566" y="152.731">Contact &amp; Location Information</text></a><path d="M192.0566,125.5313 L192.0566,125.7181 L194.0566,125.163 L196.0566,125.7031 L198.0566,125.8865 L200.0566,124.8971 L202.0566,125.5313 L202.0566,125.5313 L202.0358,125.5037 L204.9423,127.65 L207.9538,129.9352 L211.0384,132.3169 L213.8712,134.3659 L217.0566,136.8809 L217.2051,137.0771 L219.8876,138.9274 L223.0036,141.3506 L226.1725,143.8437 L229.0336,145.9301 L232.0566,148.2305 L232.0566,148.2911 L234.0566,148.2021 L236.0566,148.3892 L238.0566,148.443 L240.0566,148.7511 L242.0566,148.2305" fill="none" style="stroke:#FF6F00;stroke-width:1;"/><polygon fill="#4051B5" points="246.0566,170.7969,246.0566,171.0071,256.1172,170.3826,266.1778,170.9902,276.2384,171.1966,286.2989,170.0835,296.3595,170.7192,306.4201,170.3704,316.4806,170.4134,326.5412,170.7287,336.6018,170.1055,346.6623,171.3505,356.7229,170.1666,366.7835,170.5991,376.8441,171.2288,386.9046,170.7111,396.9652,170.8651,407.0258,170.7649,417.0863,170.9754,427.1469,171.036,437.2075,171.3826,447.268,171.4679,457.3286,170.7969,457.4153,171.0061,457.9268,171.1096,458.5191,171.4083,459.1152,171.7161,459.4994,171.512,460.157,171.9684,460.366,172.055,460.3,172.4963,460.7901,173.1679,460.7075,173.6024,461.0732,174.2225,461.3286,174.7969,461.5758,174.7969,461.3124,180.2234,461.3637,185.65,461.4415,191.0766,461.4674,196.5031,461.3286,201.9297,461.3274,201.9292,461.1827,202.532,460.6837,202.988,460.7132,203.663,460.5602,204.2624,460.157,204.7581,460.2137,204.895,459.6696,205.1812,458.964,205.078,458.3768,205.2602,457.815,205.504,457.3286,205.9297,457.3286,205.8708,447.268,205.7332,437.2075,206.6111,427.1469,205.755,417.0863,205.5866,407.0258,206.158,396.9652,205.2628,386.9046,205.4106,376.8441,206.5786,366.7835,206.3654,356.7229,206.6642,346.6623,205.6079,336.6018,206.2489,326.5412,206.5201,316.4806,205.4573,306.4201,205.8338,296.3595,206.0557,286.2989,206.5814,276.2384,205.9255,266.1778,206.3923,256.1172,205.3759,246.0566,205.9297,245.9702,205.7211,245.5552,205.8505,244.8338,205.2403,244.4245,205.3835,243.8203,205.0561,243.2282,204.7581,243.1457,204.7239,242.885,204.1473,242.9009,203.6853,242.4331,203.0229,242.4732,202.5709,242.0566,201.9297,241.8724,201.9297,242.2624,196.5031,242.2181,191.0766,242.1383,185.65,242.0724,180.2234,242.0566,174.7969,242.2804,174.8896,242.4799,174.3095,242.5774,173.6871,242.8422,173.134,242.9538,172.5175,243.2282,171.9684,243.3196,172.1891,243.8137,171.7818,244.3816,171.553,244.8477,171.0782,245.4393,170.9064,246.0566,170.7969" style="stroke:#FF6F00;stroke-width:1.5;"/><a href="/use-case/legal-entity-management/compliance-and-documentation/" target="_top" title="/use-case/legal-entity-management/compliance-and-documentation/" xlink:actuate="onRequest" xlink:href="/use-case/legal-entity-management/compliance-and-documentation/" xlink:show="new" xlink:title="/use-case/legal-entity-management/compliance-and-documentation/" xlink:type="simple"><text fill="#4051B5" font-family="'Roboto'" font-size="13" lengthAdjust="spacing" textLength="195.1396" x="252.0566" y="192.8638">Compliance &amp; Documentation</text></a><a href="/use-case/legal-entity-management/compliance-and-documentation/compliance/" target="_top" title="/use-case/legal-entity-management/compliance-and-documentation/compliance/" xlink:actuate="onRequest" xlink:href="/use-case/legal-entity-management/compliance-and-documentation/compliance/" xlink:show="new" xlink:title="/use-case/legal-entity-management/compliance-and-documentation/compliance/" xlink:type="simple"><text fill="#4051B5" font-family="'Roboto'" font-size="13" lengthAdjust="spacing" textLength="76.521" x="518.3286" y="180.2974">Compliance</text></a><path d="M461.3286,188.3633 L461.3286,188.5501 L463.3286,187.995 L465.3286,188.5351 L467.3286,188.7186 L469.3286,187.7292 L471.3286,188.3633 L471.3286,188.3633 L471.3153,188.3314 L474.2554,186.9318 L477.2628,185.6928 L480.3169,184.5654 L483.2099,183.0533 L486.3286,182.0801 L486.4237,182.307 L489.2204,180.5651 L492.2947,179.4857 L495.4028,178.4872 L498.3139,177.0184 L501.3286,175.7969 L501.3286,175.8575 L503.3286,175.7685 L505.3286,175.9556 L507.3286,176.0094 L509.3286,176.3175 L511.3286,175.7969" fill="none" style="stroke:#FF6F00;stroke-width:1;"/><a href="/use-case/legal-entity-management/compliance-and-documentation/documents/" target="_top" title="/use-case/legal-entity-management/compliance-and-documentation/documents/" xlink:actuate="onRequest" xlink:href="/use-case/legal-entity-management/compliance-and-documentation/documents/" xlink:show="new" xlink:title="/use-case/legal-entity-management/compliance-and-documentation/documents/" xlink:type="simple"><text fill="#4051B5" font-family="'Roboto'" font-size="13" lengthAdjust="spacing" textLength="74.1216" x="518.3286" y="205.4302">Documents</text></a><path d="M461.3286,188.3633 L461.3286,188.5501 L463.3286,187.995 L465.3286,188.5351 L467.3286,188.7186 L469.3286,187.7292 L471.3286,188.3633 L471.3286,188.3633 L471.3153,188.3314 L474.2554,189.4451 L477.2628,190.7194 L480.3169,192.1053 L483.2099,193.1064 L486.3286,194.6465 L486.4237,194.8734 L489.2204,195.6448 L492.2947,197.0787 L495.4028,198.5935 L498.3139,199.6379 L501.3286,200.9297 L501.3286,200.9903 L503.3286,200.9013 L505.3286,201.0884 L507.3286,201.1423 L509.3286,201.4503 L511.3286,200.9297" fill="none" style="stroke:#FF6F00;stroke-width:1;"/><path d="M192.0566,125.5313 L192.0566,125.7181 L194.0566,125.163 L196.0566,125.7031 L198.0566,125.8865 L200.0566,124.8971 L202.0566,125.5313 L202.0566,125.5313 L202.0311,125.508 L203.6975,127.3674 L205.4929,129.3437 L207.378,131.4014 L208.9541,133.1788 L210.9629,135.3488 L211.1972,135.4238 L211.3406,137.2759 L212.1682,139.3471 L213.0793,141.4451 L213.5047,143.3875 L214.1855,145.4117 L214.215,145.419 L214.746,147.7154 L215.411,150.0451 L216.0113,152.3587 L216.735,154.703 L217.0566,156.9473 L217.3461,157.0193 L217.9238,159.3273 L218.3149,161.5888 L218.9792,163.9184 L219.6564,166.2511 L219.9277,168.4828 L219.6225,168.3851 L220.8595,170.5874 L221.0913,172.4678 L222.0873,174.593 L222.2963,176.4661 L223.1504,178.5458 L223.1278,178.5253 L225.1758,180.7307 L226.6968,182.4582 L228.5288,184.4677 L230.3869,186.5009 L232.0566,188.3633 L232.0566,188.7333 L234.0566,188.3598 L236.0566,188.6186 L238.0566,187.8545 L240.0566,188.6161 L242.0566,188.3633" fill="none" style="stroke:#FF6F00;stroke-width:1;"/><a href="/use-case/legal-entity-management/supporting-information/" target="_top" title="/use-case/legal-entity-management/supporting-information/" xlink:actuate="onRequest" xlink:href="/use-case/legal-entity-management/supporting-information/" xlink:show="new" xlink:title="/use-case/legal-entity-management/supporting-information/" xlink:type="simple"><text fill="#4051B5" font-family="'Roboto'" font-size="13" lengthAdjust="spacing" textLength="151.106" x="249.0566" y="232.9966">Supporting Information</text></a><path d="M192.0566,125.5313 L192.0566,125.7181 L194.0566,125.163 L196.0566,125.7031 L198.0566,125.8865 L200.0566,124.8971 L202.0566,125.5313 L202.0566,125.5313 L202.0264,125.5145 L203.6721,128.6571 L205.47,131.884 L207.3739,135.1695 L208.9128,138.253 L210.9629,141.6195 L211.2044,141.6667 L211.3325,144.8639 L212.1657,148.1988 L213.0849,151.5506 L213.5036,154.8046 L214.1855,158.11 L214.2155,158.1145 L214.7457,161.8886 L215.4124,165.6834 L216.0133,169.4682 L216.7398,173.272 L217.0566,177.0137 L217.3515,177.0585 L217.9293,180.8397 L218.317,184.5921 L218.983,188.3868 L219.6621,192.1835 L219.9277,195.9174 L219.6132,195.8559 L220.8682,199.2733 L221.0875,202.4883 L222.0942,205.8572 L222.2899,209.0675 L223.1504,212.4078 L223.1238,212.3931 L225.22,215.7851 L226.6939,218.8326 L228.5351,222.0835 L230.4071,225.3513 L232.0566,228.4961 L232.0566,228.8661 L234.0566,228.4926 L236.0566,228.7514 L238.0566,227.9873 L240.0566,228.7489 L242.0566,228.4961" fill="none" style="stroke:#FF6F00;stroke-width:1;"/><!--SRC=[xLXjJniv4Fw-ly9NfADLcq8ehQgggXh2Iu50K08zdQeAERlUnC9hRsql77Uw_txZpJhxakmc6v9UaSWdi6UVUMRyCkFdiz9Owe1oBy2Xu_pc4PzoWlQEhizQn-VNxMwdsqFnRsDt-srpy3PhqZzeTy_tMxq_4xiP9XUjzcdhw602D6NIxUqVzB9-q8Rll_EtjoScXztpovn1R69-4vDMhzVz8szZKHnrGtc89GxG0BitGoaYxhK54n9jQ8cvWZd2TSRiotr89AFy9h5A63kRY7ANHHv1UaJGa70YCKEJxnJomNeWzEWLOdGuqWXp3tbOti2NMY1nI-ITf9gWEwf7OmnwIpXIH6lAXwgOayiln-tJyuD-7pLXOKIegU1e1A06HSE7FcQAP8XVOCy38BIR6UkDmvL05htFZFT7s1Dtnhg8CWd_Ydln7oGnoTZi4nz7JAD_d4F1zJaE27hM4n2xU1QFZ3ENBbmysAT_4zJSTVxD8hMa57U0C_EBsJ3wda6E1FFoI26iBXwIXDFKftk5nS_jS6TFI0WscSbiIN2HUk32gmEVs_gBUN1540eEsn7SB4bu9hjnpgA0xUHpvc6D1rYH5RlB-N2PYBorEX2C4TUS3hLoDwcNDXX8mTReOSz0Odc_HXS7N5EzJWUKQo9zx98r-kYJ7n7XBhc0maLT6cAkns2N8-hUSA8KN9YfkKhCWL7sYqfoKz0pU6Piqck92nbWLfoR2gT3VTA1cxKKV69GIJE-FAV0uz5Iv7Xs9gbu9itX6wVbQY7dC8XDIdsPsR83l8dQkyXa3OeG_BCnzvSzyn8EFEP3HZv-X6gb1F_q2TQt3vkF20q5hBHwhAek57TSiMRdhwWCNV8NaEIONQ-UTw4TMmDvTQyq2HvVhbVFUqsvjWNvSQGwPVluCftP9eEay8vP5nhZV1Hn3xizlzjRAlRgmCO5niDgHBn5OfqPgWkECTGLkMYiqAzNRwKrH5gzXBMV8VO1byRqPbn_kl0YanHwUY_1CG-uv2aSD_iADL0GAMtwSeAm3w5QduLdGSPRyZGjVUDatgfb9BEjH9gCGkyE3tSzlysQNUcrbdGGQLBU1qnphNZ0vBfzhDHohAeSRAApP5rKI5pgKnVYZri7MAAxaNbLQxY3eFzKPa7ZnNk51YmYi7QS4zE8A2GYRQQddtGhPflYutnF1Gzvv-Kr-lODRKMAD5ouExSO6MBM875dtWWmXpTi0FzjeOwPi2txsMG2VV_kl5mK1AA5CKWNDk-Z1kPUGv8XLLh60rleE6U0VaUzp7GjLwwGeO3lI6Def0wEeUVUWcTJCegE9gErOCKTt5PgHCEOl8j3gi4E64QkZYHuw5e38DyUJqDRcKpNSkLJGu_27EM-ENtZ51tQONIS3jS2Pj3Dk_Sk8t4Cvk162jRNZWBnVZnMCzzmbRiwXcGYMU0SyVRO0k0xoVnq18lw2a96pTh5xZpXHcPyuiVEWglzxDpOn-8HLNX99tCEL-V0_WShOsEejo0g2c6h6oallmpzoNWn_Py9t6bMUlsSLs9Nfrl-mWgXBPOBoeDPyna0DOH1-rtnuhT9ozxkLackb08V2bYb_5LXJ3DOGkkhvs0XTUyXa9LwNbtWHHIyvJ4hDBlbGKjLkkKXgtIvvL7NeiHPEYKQd6LMMtwp0SpItYnecUncEMLQOmitfRPPh8BGbhEVgx9D71RrjGbwNbhB7AIbLBBocxNERfbU_8UgO3-RrnpvudzBqw_0Qs5jwYUp-QMIj59PoVAe6Kqfwqe9gRbEpMZLaHJolofDQ6bHPqQzN9cWaqKgr99f7ITNPcPbhjY2Bg3Tb1EO2rcYhpm0yKbHUL9KdXIL9qLb0KNbWi43uEgiW-2OA6FGVBsplVFsTRCv81etjvzVyHiEfo5-V5FODPe6v8Np_EYYWvI892J3CoVNNB7m-Gld1DzYr8kuiVk0kY7X9_kdTW3kbLig1JVCdPElPwd1kzt67jNmMf9017qzSsoDEk2kC7hC1tHrUTXuxtIWuaOG_0T4E1GMm9NtCDV_3m00]--></g></svg>