<svg xmlns="http://www.w3.org/2000/svg" xmlns:xlink="http://www.w3.org/1999/xlink" contentStyleType="text/css" data-diagram-type="MINDMAP" height="234px" preserveAspectRatio="none" style="width:649px;height:234px;" version="1.1" viewBox="0 0 649 234" width="649px" zoomAndPan="magnify"><defs/><g><a href="/use-case/legal-entity-management/" target="_top" title="/use-case/legal-entity-management/" xlink:actuate="onRequest" xlink:href="/use-case/legal-entity-management/" xlink:show="new" xlink:title="/use-case/legal-entity-management/" xlink:type="simple"><text fill="#90EE90" font-family="'Roboto'" font-size="14" lengthAdjust="spacing" textLength="179.7646" x="17" y="120.96">Legal Entity Management</text></a><a href="/use-case/legal-entity-management/identification-and-registration/" target="_top" title="/use-case/legal-entity-management/identification-and-registration/" xlink:actuate="onRequest" xlink:href="/use-case/legal-entity-management/identification-and-registration/" xlink:show="new" xlink:title="/use-case/legal-entity-management/identification-and-registration/" xlink:type="simple"><text fill="#90EE90" font-family="'Roboto'" font-size="14" lengthAdjust="spacing" textLength="196.6631" x="262.2148" y="27.9951">Identification &amp; Registration</text></a><path d="M205.2148,116.1133 L205.2148,116.3001 L207.2148,115.745 L209.2148,116.2851 L211.2148,116.4686 L213.2148,115.4792 L215.2148,116.1133 L215.2148,116.1133 L215.1854,116.0952 L216.8345,113.109 L218.632,110.2139 L220.5328,107.382 L222.0779,104.3321 L224.1211,101.5875 L224.3616,101.6396 L224.4918,98.5505 L225.3242,95.6134 L226.2423,92.6948 L226.662,89.6683 L227.3438,86.6986 L227.3737,86.7037 L227.904,83.2827 L228.5704,79.8847 L229.1712,76.4756 L229.8973,73.0876 L230.2148,69.6309 L230.509,69.6803 L231.0868,66.2674 L231.4749,62.8225 L232.1407,59.4244 L232.8195,56.0284 L233.0859,52.5631 L232.7727,52.4953 L234.0252,49.6491 L234.2462,46.5797 L235.2514,43.6799 L235.449,40.6054 L236.3086,37.6742 L236.2826,37.6583 L238.3708,34.9413 L239.8526,31.8526 L241.6922,28.9832 L243.5619,26.1323 L245.2148,23.1484 L245.2148,23.5184 L247.2148,23.145 L249.2148,23.4037 L251.2148,22.6396 L253.2148,23.4012 L255.2148,23.1484" fill="none" style="stroke:#FF9900;stroke-width:1;"/><a href="/use-case/legal-entity-management/corporate-governance/" target="_top" title="/use-case/legal-entity-management/corporate-governance/" xlink:actuate="onRequest" xlink:href="/use-case/legal-entity-management/corporate-governance/" xlink:show="new" xlink:title="/use-case/legal-entity-management/corporate-governance/" xlink:type="simple"><text fill="#90EE90" font-family="'Roboto'" font-size="14" lengthAdjust="spacing" textLength="159.1406" x="262.2148" y="54.292">Corporate Governance</text></a><path d="M205.2148,116.1133 L205.2148,116.3001 L207.2148,115.745 L209.2148,116.2851 L211.2148,116.4686 L213.2148,115.4792 L215.2148,116.1133 L215.2148,116.1133 L215.1886,116.0908 L216.852,113.9067 L218.6478,111.8358 L220.5356,109.8435 L222.1063,107.5801 L224.1211,105.6964 L224.3567,105.7675 L224.4974,103.48 L225.326,101.4001 L226.2385,99.3455 L226.6627,97.1436 L227.3438,95.0191 L227.3733,95.026 L227.9041,92.5679 L228.5694,90.1413 L229.1699,87.6995 L229.8941,85.2867 L230.2148,82.7793 L230.5052,82.8474 L231.083,80.4003 L231.4735,77.9092 L232.1381,75.4825 L232.8156,73.0587 L233.0859,70.5395 L232.7791,70.4469 L234.0192,68.4912 L234.2488,66.2305 L235.2467,64.2017 L235.4534,61.9341 L236.3086,59.8622 L236.2855,59.8424 L238.3404,57.993 L239.8546,55.6814 L241.6879,53.6425 L243.548,51.6265 L245.2148,49.4453 L245.2148,49.8153 L247.2148,49.4418 L249.2148,49.7006 L251.2148,48.9365 L253.2148,49.6981 L255.2148,49.4453" fill="none" style="stroke:#FF9900;stroke-width:1;"/><a href="/use-case/legal-entity-management/ownership-and-capital-structure/" target="_top" title="/use-case/legal-entity-management/ownership-and-capital-structure/" xlink:actuate="onRequest" xlink:href="/use-case/legal-entity-management/ownership-and-capital-structure/" xlink:show="new" xlink:title="/use-case/legal-entity-management/ownership-and-capital-structure/" xlink:type="simple"><text fill="#90EE90" font-family="'Roboto'" font-size="14" lengthAdjust="spacing" textLength="213.4453" x="262.2148" y="80.5889">Ownership &amp; Capital Structure</text></a><path d="M205.2148,116.1133 L205.2148,116.3001 L207.2148,115.745 L209.2148,116.2851 L211.2148,116.4686 L213.2148,115.4792 L215.2148,116.1133 L215.2148,116.1133 L215.1949,116.0851 L216.8865,114.697 L218.6788,113.451 L220.5411,112.3038 L222.1622,110.8161 L224.1211,109.8053 L224.3464,109.9042 L225.0834,106.9172 L226.4781,104.2189 L227.9531,101.5559 L228.9612,98.6879 L230.2148,95.9277 L230.2426,95.9399 L231.4206,93.1465 L232.725,90.4086 L233.9684,87.6439 L235.3282,84.9303 L236.3086,82.0502 L236.481,82.2936 L238.2643,81.0349 L239.9365,79.6193 L241.7714,78.4335 L243.614,77.2585 L245.2148,75.7422 L245.2148,75.1011 L247.2148,76.3453 L249.2148,75.4786 L251.2148,76.2167 L253.2148,75.3022 L255.2148,75.7422" fill="none" style="stroke:#FF9900;stroke-width:1;"/><a href="/use-case/legal-entity-management/financial-information/" target="_top" title="/use-case/legal-entity-management/financial-information/" xlink:actuate="onRequest" xlink:href="/use-case/legal-entity-management/financial-information/" xlink:show="new" xlink:title="/use-case/legal-entity-management/financial-information/" xlink:type="simple"><text fill="#90EE90" font-family="'Roboto'" font-size="14" lengthAdjust="spacing" textLength="148.0596" x="262.2148" y="106.8857">Financial Information</text></a><path d="M205.2148,116.1133 L205.2148,116.3001 L207.2148,115.745 L209.2148,116.2851 L211.2148,116.4686 L213.2148,115.4792 L215.2148,116.1133 L215.2148,116.1133 L215.2002,116.082 L218.1343,114.5343 L221.1425,113.1441 L224.202,111.8636 L227.0843,110.2054 L230.2148,109.0762 L230.3194,109.2989 L233.0959,107.4151 L236.1775,106.1818 L239.2964,105.0277 L242.1987,103.412 L245.2148,102.0391 L245.2148,102.0997 L247.2148,102.0107 L249.2148,102.1978 L251.2148,102.2516 L253.2148,102.5597 L255.2148,102.0391" fill="none" style="stroke:#FF9900;stroke-width:1;"/><a href="/use-case/legal-entity-management/lifecycle-and-status/" target="_top" title="/use-case/legal-entity-management/lifecycle-and-status/" xlink:actuate="onRequest" xlink:href="/use-case/legal-entity-management/lifecycle-and-status/" xlink:show="new" xlink:title="/use-case/legal-entity-management/lifecycle-and-status/" xlink:type="simple"><text fill="#90EE90" font-family="'Roboto'" font-size="14" lengthAdjust="spacing" textLength="125.8428" x="262.2148" y="133.1826">Lifecycle &amp; Status</text></a><path d="M205.2148,116.1133 L205.2148,116.3001 L207.2148,115.745 L209.2148,116.2851 L211.2148,116.4686 L213.2148,115.4792 L215.2148,116.1133 L215.2148,116.1133 L215.2018,116.0813 L218.1433,117.16 L221.1505,118.4 L224.2034,119.752 L227.0989,120.7178 L230.2148,122.2246 L230.3077,122.4525 L233.1092,123.1875 L236.1817,124.5877 L239.2873,126.0692 L242.2005,127.0784 L245.2148,128.3359 L245.2148,128.3966 L247.2148,128.3075 L249.2148,128.4946 L251.2148,128.5485 L253.2148,128.8566 L255.2148,128.3359" fill="none" style="stroke:#FF9900;stroke-width:1;"/><a href="/use-case/legal-entity-management/contact-and-location-information/" target="_top" title="/use-case/legal-entity-management/contact-and-location-information/" xlink:actuate="onRequest" xlink:href="/use-case/legal-entity-management/contact-and-location-information/" xlink:show="new" xlink:title="/use-case/legal-entity-management/contact-and-location-information/" xlink:type="simple"><text fill="#90EE90" font-family="'Roboto'" font-size="14" lengthAdjust="spacing" textLength="219.4814" x="262.2148" y="159.4795">Contact &amp; Location Information</text></a><path d="M205.2148,116.1133 L205.2148,116.3001 L207.2148,115.745 L209.2148,116.2851 L211.2148,116.4686 L213.2148,115.4792 L215.2148,116.1133 L215.2148,116.1133 L215.1955,116.0847 L216.89,117.16 L218.6819,118.3795 L220.5416,119.6994 L222.1678,120.6736 L224.1211,122.132 L224.3446,122.2348 L225.0854,124.6631 L226.4787,127.3916 L227.9517,130.1569 L228.9615,132.7089 L230.2148,135.373 L230.2424,135.3857 L231.4207,138.0153 L232.7244,140.7027 L233.9676,143.3621 L235.3263,146.0747 L236.3086,148.6141 L236.4756,148.8612 L238.2589,150.068 L239.9345,151.1154 L241.7677,152.3961 L243.6083,153.6877 L245.2148,154.6328 L245.2148,153.9918 L247.2148,155.2359 L249.2148,154.3693 L251.2148,155.1073 L253.2148,154.1928 L255.2148,154.6328" fill="none" style="stroke:#FF9900;stroke-width:1;"/><a href="/use-case/legal-entity-management/compliance-and-documentation/" target="_top" title="/use-case/legal-entity-management/compliance-and-documentation/" xlink:actuate="onRequest" xlink:href="/use-case/legal-entity-management/compliance-and-documentation/" xlink:show="new" xlink:title="/use-case/legal-entity-management/compliance-and-documentation/" xlink:type="simple"><text fill="#90EE90" font-family="'Roboto'" font-size="14" lengthAdjust="spacing" textLength="210.1504" x="262.2148" y="185.7764">Compliance &amp; Documentation</text></a><polygon fill="#4051B5" points="534.8154,149.6328,534.8154,149.843,544.7012,149.2185,554.5869,149.8261,564.4727,150.0325,574.3584,148.9194,584.2441,149.5551,594.1299,149.2063,604.0156,149.2493,613.9014,149.5647,623.7871,148.9414,633.6729,149.6328,633.7435,149.8033,634.1581,149.673,634.779,150.0405,635.425,150.4688,635.9247,150.5437,636.5013,150.8044,636.5223,150.8131,636.7258,151.366,637.0249,151.9585,637.2779,152.5319,637.6189,153.1418,637.6729,153.6328,637.8965,153.6328,637.8993,159.2922,637.7577,164.9516,637.8274,170.6109,637.9069,176.2703,637.6729,181.9297,637.4508,181.8377,637.6475,182.5819,637.1129,183.0232,637.1343,183.6948,636.5831,184.1293,636.5013,184.7581,636.4925,184.737,636.0302,185.2208,635.3637,185.2117,634.8177,185.4935,634.2817,185.7997,633.6729,185.9297,633.6729,186.3459,623.7871,185.9258,613.9014,186.2169,604.0156,185.3573,594.1299,186.2141,584.2441,186.4779,574.3584,186.3742,564.4727,186.5427,554.5869,185.4466,544.7012,185.2775,534.8154,185.9297,534.7362,185.7383,534.2422,185.6772,533.659,185.4005,533.2053,185.4366,532.5304,184.9386,531.987,184.7581,531.8814,184.7144,531.823,184.2215,531.313,183.5417,531.1242,182.9948,531.2496,182.5782,530.8154,181.9297,530.9607,181.9297,531.0603,176.2703,530.7082,170.6109,530.9218,164.9516,531.0122,159.2922,530.8154,153.6328,530.6699,153.5726,531.0202,153.0549,531.3229,152.5175,531.7191,152.0189,531.7514,151.3695,531.987,150.8044,532.046,150.9468,532.482,150.3995,533.032,150.1272,533.7483,150.2565,534.1583,149.6463,534.8154,149.6328" style="stroke:#FF6F00;stroke-width:1.5;"/><a href="/use-case/legal-entity-management/compliance-and-documentation/compliance/" target="_top" title="/use-case/legal-entity-management/compliance-and-documentation/compliance/" xlink:actuate="onRequest" xlink:href="/use-case/legal-entity-management/compliance-and-documentation/compliance/" xlink:show="new" xlink:title="/use-case/legal-entity-management/compliance-and-documentation/compliance/" xlink:type="simple"><text fill="#90EE90" font-family="'Roboto'" font-size="14" lengthAdjust="spacing" textLength="82.4072" x="540.8154" y="172.6279">Compliance</text></a><path d="M480.8154,180.9297 L480.8154,181.1165 L482.8154,180.5614 L484.8154,181.1015 L486.8154,181.285 L488.8154,180.2956 L490.8154,180.9297 L490.8154,180.9297 L490.8016,180.8981 L493.7393,179.4412 L496.747,178.1439 L499.8033,176.9574 L502.6921,175.3889 L505.8154,174.3555 L505.9142,174.5808 L508.703,172.7841 L511.7801,171.6453 L514.8925,170.5868 L517.8001,169.0612 L520.8154,167.7813 L520.8154,167.8419 L522.8154,167.7529 L524.8154,167.9399 L526.8154,167.9938 L528.8154,168.3019 L530.8154,167.7813" fill="none" style="stroke:#FF9900;stroke-width:1;"/><a href="/use-case/legal-entity-management/compliance-and-documentation/documents/" target="_top" title="/use-case/legal-entity-management/compliance-and-documentation/documents/" xlink:actuate="onRequest" xlink:href="/use-case/legal-entity-management/compliance-and-documentation/documents/" xlink:show="new" xlink:title="/use-case/legal-entity-management/compliance-and-documentation/documents/" xlink:type="simple"><text fill="#90EE90" font-family="'Roboto'" font-size="14" lengthAdjust="spacing" textLength="79.8232" x="537.8154" y="213.9248">Documents</text></a><path d="M480.8154,180.9297 L480.8154,181.1165 L482.8154,180.5614 L484.8154,181.1015 L486.8154,181.285 L488.8154,180.2956 L490.8154,180.9297 L490.8154,180.9297 L490.8001,180.8987 L492.5127,181.6394 L494.3025,182.5361 L496.1458,183.5414 L497.8044,184.1727 L499.7217,185.3279 L499.9299,185.459 L500.7034,187.1138 L502.0848,189.1515 L503.5404,191.2358 L504.5644,193.0484 L505.8154,195.0039 L505.8411,195.0201 L507.0222,196.9315 L508.3201,198.9166 L509.5616,200.8662 L510.9107,202.8834 L511.9092,204.6799 L512.0412,204.9473 L513.8241,205.8303 L515.5218,206.5407 L517.3442,207.5036 L519.1724,208.4783 L520.8154,209.0781 L520.8154,208.4371 L522.8154,209.6812 L524.8154,208.8146 L526.8154,209.5526 L528.8154,208.6381 L530.8154,209.0781" fill="none" style="stroke:#FF9900;stroke-width:1;"/><path d="M205.2148,116.1133 L205.2148,116.3001 L207.2148,115.745 L209.2148,116.2851 L211.2148,116.4686 L213.2148,115.4792 L215.2148,116.1133 L215.2148,116.1133 L215.1889,116.0905 L216.8538,118.0136 L218.6494,120.0517 L220.5358,122.1698 L222.1091,124.0124 L224.1211,126.2408 L224.3561,126.3138 L224.4981,128.2339 L225.3262,130.3671 L226.238,132.5262 L226.6628,134.5341 L227.3438,136.6216 L227.3732,136.6287 L227.9042,138.9982 L228.5693,141.4002 L229.1697,143.7865 L229.8937,146.2026 L230.2148,148.5215 L230.5048,148.5914 L231.0825,150.9723 L231.4733,153.308 L232.1378,155.7097 L232.8151,158.1146 L233.0859,160.4214 L232.7798,160.3263 L234.0185,162.5869 L234.2491,164.5346 L235.2461,166.7202 L235.4539,168.6607 L236.3086,170.8021 L236.2857,170.782 L238.3374,173.0453 L239.8548,174.8388 L241.6875,176.9096 L243.5466,179.0036 L245.2148,180.9297 L245.2148,181.2997 L247.2148,180.9262 L249.2148,181.185 L251.2148,180.4209 L253.2148,181.1825 L255.2148,180.9297" fill="none" style="stroke:#FF9900;stroke-width:1;"/><a href="/use-case/legal-entity-management/supporting-information/" target="_top" title="/use-case/legal-entity-management/supporting-information/" xlink:actuate="onRequest" xlink:href="/use-case/legal-entity-management/supporting-information/" xlink:show="new" xlink:title="/use-case/legal-entity-management/supporting-information/" xlink:type="simple"><text fill="#90EE90" font-family="'Roboto'" font-size="14" lengthAdjust="spacing" textLength="162.7295" x="262.2148" y="212.0732">Supporting Information</text></a><path d="M205.2148,116.1133 L205.2148,116.3001 L207.2148,115.745 L209.2148,116.2851 L211.2148,116.4686 L213.2148,115.4792 L215.2148,116.1133 L215.2148,116.1133 L215.1856,116.095 L216.8354,118.86 L218.6328,121.7175 L220.5329,124.6391 L222.0793,127.3395 L224.1211,130.3497 L224.3614,130.4028 L224.4921,133.2078 L225.3243,136.1677 L226.2421,139.1465 L226.662,142.0154 L227.3438,144.9421 L227.3736,144.9472 L227.904,148.2853 L228.5704,151.6466 L229.1712,154.9968 L229.8972,158.3684 L230.2148,161.6699 L230.5088,161.7204 L231.0866,165.0666 L231.4748,168.3802 L232.1406,171.7415 L232.8193,175.105 L233.0859,178.3978 L232.773,178.3286 L234.0249,181.3813 L234.2463,184.2063 L235.2512,187.2043 L235.4492,190.0242 L236.3086,192.9901 L236.2828,192.974 L238.3693,196.0122 L239.8527,198.6732 L241.692,201.5568 L243.5612,204.4591 L245.2148,207.2266 L245.2148,207.5965 L247.2148,207.2231 L249.2148,207.4819 L251.2148,206.7177 L253.2148,207.4794 L255.2148,207.2266" fill="none" style="stroke:#FF9900;stroke-width:1;"/><!--SRC=[xLXjJzj84FxkNx5Nf6ihBYNXe6fHLH52Ge64e0GgdQeARUnriegpw-wkuNAd- -ytQyUlIPmun3quaK-mCtxccTctsUTOAYpKX39hWbt3-CKYDcK4dPpTTUhdLtUDRhlRG_vlvw1wM1iS9btwpKRtwhJU-sFcjy3bkjwuh9yr8w0vbsxljDbBna4xjltUhbOZbrRtwYRbuBleds78CMKk5dY21jWS3mNtcDNW3XUXenAOIV0WJ2MSlqnT8jgKZPE-QCUXmv4Q2aAOORn6b9cEPn6aHWGD2IC2EoY2aCY63mTSZNv3_cS8CmjPM8pXIyKHloVYGL15q0DLem23tXE6956Aig7CLk3cotdZyghPxwCQJ0Dt5UKCZG1KeoZuqCQE98aShh5b0H0wI8prWlm5a4KV4kFz4RRuW_REelYLSA0Ijypo_o0pbuJFAR6nvoZqjz7YJ5tX2K6lUXnovw_yaQ28yJJvWttw5q6r0-EV959T2Fu0E0k_M0oZfWxKY3jM6ic5wSP3CkCqz-b9PZMarhDnmWKaExCa5Y24Y2CmRXM1JotqzIAOVE9o1YiJmcn8U26xe6RUnDbFryp22W-m95iEbufXEjopIWt07OUOUdV8hOU9epJ0GN2dn0Wd6XABQOaXcanHLMO0oXGHDZP9YJ7wv8T7c4ckuPgY9dKnKm7OpOYQOqQaX0CpTfSpTs2K_2ANt1pq0fu9d_XOObnCi9ErpQNJfZQ1ouOi1OySScdwX-SSk3-w5DctBYJbM-8Q_cxKJSN52WQ-oz9Oshfi0xz6ZGEagmQN4Fopi_ANtFC2DZncGuTy-WItbUJiysUOtpuiFi8LN61BRuzjtGlP5PUzizD7L88k-HD8CkpSRPztflagWRoSIaKcpw_Ms-TTKgt32_bvb3fc-_mgdLWcWzd56x3EDCRfBFmUjhgwsziez_p4WWl6md94h7LoNPYg2O4nt2jYtLoXNyzVIYLacZ-5oQjTORMeqmYVb77my7bOLqhGWQV8l2b9AdnmPXfPB6N9qLwZJl3mHj8b9hMf2Ka6L-JSEsHz7YjJmt4ZiTDgVVm8zemnsLiPnkuT-lODxNcIL4pO_tiE6MAdGlpkiZB13DvX4_Xl3xMr8MmxEv41VVzkxAuBGYqz1gN0kiUlm0Eu8iYGIdZ8wu4zT9voGB-YNi9SA9J9XSlXEr8PwkSwmz0txa7hFnj5Pz5e8LZ-03jEZgZhapUnInNu0KFFL9w02DtG0SWt0ZEqHZDpeL0srVGes2YpTJCQbAWL3gFpUBWGi0CTgJar7UBde7UU9s5-mr4WtlV72jORZYDJ-P0EdqrmYdWZy03uzio-SGRwSUrGFNb-F8kRdXwF0eLMY7MQj0L1ThSG93QcuWNusyWY_0zc9aoXs8H8puMbhkMez3Jqe_5i-Oy9d5UXM7YSrWvB5EEUiEmLdhfhQbv9zmK01TIkwBXVSZ4ilWPozAt70kR9MNaOymms4B2A1LXBideCPAv8LHHu7LbgSymS8MfpqANIq-QGUMBJvgYbo4iXdIN2KiYiiAOK9h18K0f1bsb98QU4YXGrhba9ASJAg4Sf_vNIKHGmAnf5w6czAB6HDf9-bf-iHLRB_EG_LjhvsRnMlCd_ip8z1Lvh2ou_cSsJAj9MjPAGHy5ibhBErKLgPGeXsyuaK___jT3necQyg1alQiQBcl6KrOnh1thjsquRmJQHsg7sRh-wV_YkLXiGXMlLDxTip60t-EzS2gj6qGbvQxmvksuZoJq1nR3qpjKd8tp-rhZ0znZrFARzZb3N9UpYz38SW7FbdWhED7FZucidTdX_K3cX2Xuc0eYWhnqZr26QpEHQ-ZX2jpUjoWUZ3PUR1yaV8SAC1fobIap1rlyN]--></g></svg>