<svg xmlns="http://www.w3.org/2000/svg" xmlns:xlink="http://www.w3.org/1999/xlink" contentStyleType="text/css" data-diagram-type="MINDMAP" height="127px" preserveAspectRatio="none" style="width:879px;height:127px;" version="1.1" viewBox="0 0 879 127" width="879px" zoomAndPan="magnify"><defs/><g><a href="/use-case/construction-project-quotations/proposal-submission-and-negotiation/" target="_top" title="/use-case/construction-project-quotations/proposal-submission-and-negotiation/" xlink:actuate="onRequest" xlink:href="/use-case/construction-project-quotations/proposal-submission-and-negotiation/" xlink:show="new" xlink:title="/use-case/construction-project-quotations/proposal-submission-and-negotiation/" xlink:type="simple"><text fill="#4051B5" font-family="'Roboto'" font-size="13" lengthAdjust="spacing" textLength="149.6016" x="350.708" y="67.1997">Proposal &amp; Negotiation</text></a><a href="/use-case/construction-project-quotations/proposal-submission-and-negotiation/proposal-document-generation/" target="_top" title="/use-case/construction-project-quotations/proposal-submission-and-negotiation/proposal-document-generation/" xlink:actuate="onRequest" xlink:href="/use-case/construction-project-quotations/proposal-submission-and-negotiation/proposal-document-generation/" xlink:show="new" xlink:title="/use-case/construction-project-quotations/proposal-submission-and-negotiation/proposal-document-generation/" xlink:type="simple"><text fill="#4051B5" font-family="'Roboto'" font-size="13" lengthAdjust="spacing" textLength="284.8892" x="565.4419" y="27.0669">Proposal Document Generation &amp; Assembly</text></a><path d="M508.4419,62.6992 L508.4419,62.886 L510.4419,62.3309 L512.4419,62.871 L514.4419,63.0545 L516.4419,62.0651 L518.4419,62.6992 L518.4419,62.6992 L518.422,62.671 L520.114,61.2901 L521.9063,60.0516 L523.7682,58.912 L525.39,57.4314 L527.3481,56.4285 L527.5732,56.5279 L528.3107,53.5562 L529.7052,50.8747 L531.18,48.2286 L532.1883,45.3765 L533.4419,42.6328 L533.4696,42.6451 L534.6477,39.8679 L535.952,37.1466 L537.1954,34.3984 L538.555,31.7015 L539.5356,28.8372 L539.7073,29.081 L541.4907,27.8299 L543.1633,26.4214 L544.998,25.2432 L546.8403,24.0758 L548.4419,22.5664 L548.4419,21.9254 L550.4419,23.1695 L552.4419,22.3028 L554.4419,23.0409 L556.4419,22.1264 L558.4419,22.5664" fill="none" style="stroke:#FF6F00;stroke-width:1;"/><polygon fill="#4051B5" points="562.4419,45.1328,562.4419,45.343,572.4893,44.7185,582.5367,45.3261,592.584,45.5325,602.6314,44.4194,612.6788,45.0551,622.7262,44.7063,632.7736,44.7493,642.8209,45.0647,652.8683,44.4414,662.9157,45.6865,672.9631,44.5025,683.0104,44.935,693.0578,45.5648,703.1052,45.047,713.1526,45.2011,723.2,45.1009,733.2473,45.3113,743.2947,45.3719,753.3421,45.7185,763.3895,45.8039,773.4369,45.8121,783.4842,45.3874,793.5316,45.5964,803.579,45.835,813.6264,44.4116,823.6738,45.8113,833.7211,44.8363,843.7685,45.6666,853.8159,44.6378,863.8633,45.1328,863.8545,45.1117,864.5236,45.5955,864.9884,45.5864,865.5738,45.8682,866.1692,46.1744,866.6917,46.3044,866.8199,46.3575,866.9248,46.8696,867.2488,47.4724,867.2184,47.9284,867.7165,48.6034,867.8633,49.1328,868.046,49.1328,868.0115,54.5594,868.0676,59.9859,867.7023,65.4125,867.6459,70.8391,867.8633,76.2656,867.6719,76.1864,867.6108,76.8238,867.3341,77.3719,867.3702,78.0496,866.8722,78.5061,866.6917,79.0941,866.6479,78.9884,866.1551,79.3987,865.4753,79.3573,864.9284,79.6371,864.5117,80.2312,863.8633,80.2656,863.8633,80.7013,853.8159,81.0001,843.7685,79.9438,833.7211,80.5848,823.6738,80.856,813.6264,79.7932,803.579,80.1698,793.5316,80.3916,783.4842,80.9174,773.4369,80.2614,763.3895,80.7282,753.3421,79.7118,743.2947,79.5884,733.2473,80.7692,723.2,79.5487,713.1526,80.7746,703.1052,80.4723,693.0578,79.9977,683.0104,79.9119,672.9631,80.7244,662.9157,79.9663,652.8683,80.8575,642.8209,79.7129,632.7736,80.8831,622.7262,80.7499,612.6788,80.5106,602.6314,80.3128,592.584,80.9922,582.5367,80.8792,572.4893,80.4349,562.4419,80.2656,562.4761,80.3482,561.8596,79.9912,561.4019,80.0176,560.7646,79.6104,560.2012,79.3815,559.6135,79.0941,559.4261,79.0165,559.2544,78.4767,559.3083,78.0304,559.0429,77.4518,558.663,76.8258,558.4419,76.2656,558.3345,76.2656,558.3689,70.8391,558.2132,65.4125,558.5801,59.9859,558.6884,54.5594,558.4419,49.1328,558.604,49.2,558.8902,48.6558,558.8684,47.984,559.1717,47.4469,559.2598,46.8206,559.6135,46.3044,559.6497,46.3919,560.2106,46.1461,560.8153,46.0059,561.2812,45.5307,561.8591,45.3257,562.4419,45.1328" style="stroke:#FF6F00;stroke-width:1.5;"/><a href="/use-case/construction-project-quotations/proposal-submission-and-negotiation/compliance-matrix-and-submission-packaging/" target="_top" title="/use-case/construction-project-quotations/proposal-submission-and-negotiation/compliance-matrix-and-submission-packaging/" xlink:actuate="onRequest" xlink:href="/use-case/construction-project-quotations/proposal-submission-and-negotiation/compliance-matrix-and-submission-packaging/" xlink:show="new" xlink:title="/use-case/construction-project-quotations/proposal-submission-and-negotiation/compliance-matrix-and-submission-packaging/" xlink:type="simple"><text fill="#4051B5" font-family="'Roboto'" font-size="13" lengthAdjust="spacing" textLength="285.2891" x="568.4419" y="67.1997">Compliance Matrix &amp; Submission Packaging</text></a><path d="M508.4419,62.6992 L508.4419,62.886 L510.4419,62.3309 L512.4419,62.871 L514.4419,63.0545 L516.4419,62.0651 L518.4419,62.6992 L518.4419,62.6992 L518.4419,62.6647 L524.4419,62.5097 L530.4419,62.5288 L536.4419,62.6689 L542.4419,62.3919 L548.4419,62.6992 L548.4419,63.1913 L550.4419,62.139 L552.4419,62.5234 L554.4419,63.0832 L556.4419,62.623 L558.4419,62.6992" fill="none" style="stroke:#FF6F00;stroke-width:1;"/><a href="/use-case/construction-project-quotations/proposal-submission-and-negotiation/negotiation-support-and-revisions/" target="_top" title="/use-case/construction-project-quotations/proposal-submission-and-negotiation/negotiation-support-and-revisions/" xlink:actuate="onRequest" xlink:href="/use-case/construction-project-quotations/proposal-submission-and-negotiation/negotiation-support-and-revisions/" xlink:show="new" xlink:title="/use-case/construction-project-quotations/proposal-submission-and-negotiation/negotiation-support-and-revisions/" xlink:type="simple"><text fill="#4051B5" font-family="'Roboto'" font-size="13" lengthAdjust="spacing" textLength="211.1167" x="565.4419" y="107.3325">Negotiation Support &amp; Revisions</text></a><path d="M508.4419,62.6992 L508.4419,62.886 L510.4419,62.3309 L512.4419,62.871 L514.4419,63.0545 L516.4419,62.0651 L518.4419,62.6992 L518.4419,62.6992 L518.422,62.671 L520.114,63.7984 L521.9063,65.0682 L523.7682,66.4369 L525.39,67.4646 L527.3481,68.97 L527.5732,69.0694 L528.3107,71.6159 L529.7052,74.4527 L531.18,77.3249 L532.1883,79.9911 L533.4419,82.7656 L533.4696,82.7779 L534.6477,85.519 L535.952,88.3159 L537.1954,91.086 L538.555,93.9073 L539.5356,96.5613 L539.7073,96.8051 L541.4907,98.0623 L543.1633,99.1621 L544.998,100.4922 L546.8403,101.8331 L548.4419,102.832 L548.4419,102.191 L550.4419,103.4352 L552.4419,102.5685 L554.4419,103.3065 L556.4419,102.392 L558.4419,102.832" fill="none" style="stroke:#FF6F00;stroke-width:1;"/><a href="/use-case/construction-project-quotations/" target="_top" title="/use-case/construction-project-quotations/" xlink:actuate="onRequest" xlink:href="/use-case/construction-project-quotations/" xlink:show="new" xlink:title="/use-case/construction-project-quotations/" xlink:type="simple"><text fill="#4051B5" font-family="'Roboto'" font-size="13" lengthAdjust="spacing" textLength="268.5757" x="14" y="67.1997">Complex Construction Project Quotations</text></a><path d="M343.708,62.6992 L343.708,62.886 L341.708,62.3309 L339.708,62.871 L337.708,63.0545 L335.708,62.0651 L333.708,62.6992 L333.708,62.6992 L333.708,62.6647 L327.708,62.5097 L321.708,62.5288 L315.708,62.6689 L309.708,62.3919 L303.708,62.6992 L303.708,63.1913 L301.708,62.139 L299.708,62.5234 L297.708,63.0832 L295.708,62.623 L293.708,62.6992" fill="none" style="stroke:#FF6F00;stroke-width:1;"/><!--SRC=[xLXhRzis5FskNy4rmDgYTHEdIL44HH77ST8cVirEEWn54T0IRNEMI9Max7Z3_likzR8aM_8ZTfSCzQT4F3htN98YxpsdKc6X7Cei1xk6yOj5-fGHT7PvrwXyRjvLM_LM1_c_lQE3utBlE0dfrggjvdcbyqU8Mm1fLwhNbSjQJ3G7QNNEQvra7BJNxx_h7np4a8jMyoO5y27w5qCgdKxhzpGcOZ7aY38N2-oW7ZP70y4zPbMvpGNQKm8p2ME4gGJiqzGbmgPi5A92nSPpH9bfUnP1QaZGW30Yi8tYzoJg0xh7rV0rikbWg11c5hAm6C6RYYC-9c8Yg29eGjKmuA1Zmf0aIb4saDavkVdqkNhTh7Mxg0mBmrr5EKD38DKi2bxiOrkIXF0sjYmWGaU9PvqWNG5YqVl4y-uGMtoYqLcMEFrRPlb_a12Im9oJFlPiXVusBZXJJUmGzAp38NV-p7yIpDniuVo7NVeNGUKZuvyaKqK8FW6UXMyifb5J6-Q8srQQoONLnGCIQffxzIop-AaTRfnn0Sc68uaj2I5c4HYtrg5FRVtL8fZSSJc3xGXXDXIyK5qmPvvZ7wRdpC8Azx0aMmwNYc7QtBDs6e3RDZ7rro6t7cOMfGe0mUqTHZZJb5XCTnYYnXHLkmn0cIAYZqsomnXTyjqZp2HjkBYeILtCL41sCwJcY14fuS2SmMK81qN9Dmh5pL4lq9d0p8ubneM3xUpON3frsYTrE5bpoMD0eKp_y9mZzv_cClkZ2qNv8xCvV6jKJCN54WK-93UM7itxW9-ZwX7IimQN4Fopj_IN_EO5VF2O3MpouGFSLfApZnzXVRkm-GXNS87btXxRkXUoEovxPwUFg8HSSWyY6RRljgyxKuxjGBoSIaMSfpVNszUzexcEBkIdCTKpjKzlfXFRf1TUl87gJ66SpiAlOG-MLtiRvLwSM731M5WEYRLAhWjJDI4mXdj5h9ehrEl5Msa7cHOluTfjIDJ0pN9w6zm_BUZ818MQtWfvT0CNji9-iIzH2JcULBek9mZt8TKePgOjI4GBMzFS7YVHg-Q9J9OIiyd8rExGkAlbPTRYcrufGNkU8lbrmBpMWWOcLUrZAJTJLHJWEMg4wo9TOj8-DI5_ltI09PeCTLUju0o2-bFg1VKNxpNgsHw1jMECw4948kufFJpVqcrPxOmVfsigQEIDLtVewrUqxqbICk7it0TzKWdFRs1Ahk1_WjZITu_3ykgMPXyUkLnYkoIzdaEbr33Ch18Z0wwe3zf7xH24VaNDsNFqxPlnQXVnOep5JS-1VhKKs24PCUVXABgCHq5WHKhYzEnfe6xxudGJRLCC9N_9mR3Hxtr4ueN0AO2zimzTNOH53HyB-hen4hKZvCvcCl4tm5oN2-LZ11bJwREa5hGRG41b9m9eQQNIcjA2nCczRcjZe5uu3KI_nK1DVahWouiCmjEqNxWzT-qH-rZHaRwYYPM4Bo1OmxwAtiiUJz6a9S-WoEyiDAmUIbZaJnLnp2lOm95QBy1A7jH3A0jTftM9L_6PDkSiS9Os9ytraZQdB7AFDcVTYLyKoSbnYY9bQvj4KGAB7AA8DCySYZGb2hY8RiuJYhWoTb0AlzGBYWDcNQ2OFMq09JwaZRoS_9DrdTqol_WFzMf-jAubJVP_DasFGTVA3ieFLlEe9cchvaUaOyriSbKN6XtbNJeRsyuaC__RSYusjXuMt9TRinsIJ9cxPDvjI5qpYsOkMuAku33a2rXAcUC2F83nPz__i-__N_NzRHlArDj67OsX5DBlbDyS7XmUlocNUqJXyi6BMpPYVCBy5f72EQAeGruQBoxRTIIv9s2YBIg3Wm1UVsbSuJ567Ozft0bgkOHTdLz73w2v65F1cTv4njMNnWpmxgXqHXNKz0A4e2yD8pf9QypasZKuGRSt5wNtHXtk1GyQwXD461n_m2kcCDRz5m00]--></g></svg>