<svg xmlns="http://www.w3.org/2000/svg" xmlns:xlink="http://www.w3.org/1999/xlink" contentStyleType="text/css" data-diagram-type="MINDMAP" height="262px" preserveAspectRatio="none" style="width:649px;height:262px;" version="1.1" viewBox="0 0 649 262" width="649px" zoomAndPan="magnify"><defs/><g><a href="/use-case/legal-entity-management/" target="_top" title="/use-case/legal-entity-management/" xlink:actuate="onRequest" xlink:href="/use-case/legal-entity-management/" xlink:show="new" xlink:title="/use-case/legal-entity-management/" xlink:type="simple"><text fill="#90EE90" font-family="'Roboto'" font-size="14" lengthAdjust="spacing" textLength="179.7646" x="17" y="135.0342">Legal Entity Management</text></a><a href="/use-case/legal-entity-management/identification-and-registration/" target="_top" title="/use-case/legal-entity-management/identification-and-registration/" xlink:actuate="onRequest" xlink:href="/use-case/legal-entity-management/identification-and-registration/" xlink:show="new" xlink:title="/use-case/legal-entity-management/identification-and-registration/" xlink:type="simple"><text fill="#90EE90" font-family="'Roboto'" font-size="14" lengthAdjust="spacing" textLength="196.6631" x="262.2148" y="27.9951">Identification &amp; Registration</text></a><path d="M205.2148,130.1875 L205.2148,130.3743 L207.2148,129.8192 L209.2148,130.3593 L211.2148,130.5428 L213.2148,129.5534 L215.2148,130.1875 L215.2148,130.1875 L215.1844,130.1713 L216.8288,126.7534 L218.6269,123.4174 L220.5319,120.1383 L222.0686,116.6632 L224.1211,113.4626 L224.3629,113.5081 L224.4903,109.9823 L225.3238,106.5892 L226.2434,103.2123 L226.6618,99.7412 L227.3438,96.3197 L227.3738,96.3241 L227.9039,92.3873 L228.5707,88.4705 L229.1716,84.544 L229.8982,80.6359 L230.2148,76.668 L230.51,76.7111 L231.0878,72.7813 L231.4753,68.8236 L232.1414,64.9067 L232.8205,60.9917 L233.0859,57.0163 L232.7709,56.957 L234.0268,53.6434 L234.2455,50.1347 L235.2527,46.7743 L235.4478,43.2612 L236.3086,39.8733 L236.2817,39.859 L238.3808,36.6832 L239.852,33.1732 L241.6937,29.8604 L243.5664,26.5641 L245.2148,23.1484 L245.2148,23.5184 L247.2148,23.145 L249.2148,23.4037 L251.2148,22.6396 L253.2148,23.4012 L255.2148,23.1484" fill="none" style="stroke:#FF9900;stroke-width:1;"/><a href="/use-case/legal-entity-management/corporate-governance/" target="_top" title="/use-case/legal-entity-management/corporate-governance/" xlink:actuate="onRequest" xlink:href="/use-case/legal-entity-management/corporate-governance/" xlink:show="new" xlink:title="/use-case/legal-entity-management/corporate-governance/" xlink:type="simple"><text fill="#90EE90" font-family="'Roboto'" font-size="14" lengthAdjust="spacing" textLength="159.1406" x="262.2148" y="54.292">Corporate Governance</text></a><path d="M205.2148,130.1875 L205.2148,130.3743 L207.2148,129.8192 L209.2148,130.3593 L211.2148,130.5428 L213.2148,129.5534 L215.2148,130.1875 L215.2148,130.1875 L215.1866,130.1676 L216.8412,127.555 L218.6381,125.0428 L220.5338,122.6005 L222.0888,119.9175 L224.1211,117.5715 L224.3599,117.631 L224.4938,114.9175 L225.3249,112.3777 L226.241,109.8591 L226.6622,107.2172 L227.3438,104.6402 L227.3735,104.6459 L227.904,101.6727 L228.5701,98.7258 L229.1707,95.7661 L229.8962,92.8307 L230.2148,89.8164 L230.5076,89.8731 L231.0854,86.9091 L231.4744,83.9084 L232.1398,80.9613 L232.8181,78.0167 L233.0859,74.9926 L232.7749,74.9151 L234.0231,72.4793 L234.2471,69.7882 L235.2497,67.2912 L235.4506,64.5944 L236.3086,62.0613 L236.2837,62.0437 L238.3591,59.7282 L239.8534,57.0024 L241.6906,54.5187 L243.5565,52.0553 L245.2148,49.4453 L245.2148,49.8153 L247.2148,49.4418 L249.2148,49.7006 L251.2148,48.9365 L253.2148,49.6981 L255.2148,49.4453" fill="none" style="stroke:#FF9900;stroke-width:1;"/><a href="/use-case/legal-entity-management/ownership-and-capital-structure/" target="_top" title="/use-case/legal-entity-management/ownership-and-capital-structure/" xlink:actuate="onRequest" xlink:href="/use-case/legal-entity-management/ownership-and-capital-structure/" xlink:show="new" xlink:title="/use-case/legal-entity-management/ownership-and-capital-structure/" xlink:type="simple"><text fill="#90EE90" font-family="'Roboto'" font-size="14" lengthAdjust="spacing" textLength="213.4453" x="262.2148" y="80.5889">Ownership &amp; Capital Structure</text></a><path d="M205.2148,130.1875 L205.2148,130.3743 L207.2148,129.8192 L209.2148,130.3593 L211.2148,130.5428 L213.2148,129.5534 L215.2148,130.1875 L215.2148,130.1875 L215.191,130.1625 L216.8652,128.349 L218.6596,126.6614 L220.5377,125.0613 L222.1276,123.1596 L224.1211,121.6804 L224.3551,121.7566 L225.0735,117.8506 L226.475,114.167 L227.9599,110.5105 L228.9598,106.6962 L230.2148,102.9648 L230.2437,102.9742 L231.4201,99.2173 L232.7278,95.5032 L233.9722,91.7684 L235.3374,88.073 L236.3086,84.2493 L236.5146,84.4649 L238.2984,82.7662 L239.9493,80.9283 L241.7947,79.294 L243.6492,77.6693 L245.2148,75.7422 L245.2148,75.1011 L247.2148,76.3453 L249.2148,75.4786 L251.2148,76.2167 L253.2148,75.3022 L255.2148,75.7422" fill="none" style="stroke:#FF9900;stroke-width:1;"/><a href="/use-case/legal-entity-management/financial-information/" target="_top" title="/use-case/legal-entity-management/financial-information/" xlink:actuate="onRequest" xlink:href="/use-case/legal-entity-management/financial-information/" xlink:show="new" xlink:title="/use-case/legal-entity-management/financial-information/" xlink:type="simple"><text fill="#90EE90" font-family="'Roboto'" font-size="14" lengthAdjust="spacing" textLength="148.0596" x="262.2148" y="106.8857">Financial Information</text></a><path d="M205.2148,130.1875 L205.2148,130.3743 L207.2148,129.8192 L209.2148,130.3593 L211.2148,130.5428 L213.2148,129.5534 L215.2148,130.1875 L215.2148,130.1875 L215.1996,130.1565 L216.9122,129.1379 L218.7019,128.2754 L220.5452,127.5214 L222.2038,126.3934 L224.1211,125.7893 L224.3293,125.9204 L225.1028,123.7048 L226.4842,121.8721 L227.9398,120.086 L228.9638,118.0282 L230.2148,116.1133 L230.2405,116.1294 L231.4216,114.1705 L232.7195,112.2852 L233.961,110.3643 L235.3101,108.5112 L236.3086,106.4373 L236.4407,106.7047 L238.2235,105.8283 L239.9212,104.7794 L241.7436,103.9831 L243.5718,103.1985 L245.2148,102.0391 L245.2148,101.398 L247.2148,102.6422 L249.2148,101.7755 L251.2148,102.5136 L253.2148,101.599 L255.2148,102.0391" fill="none" style="stroke:#FF9900;stroke-width:1;"/><a href="/use-case/legal-entity-management/lifecycle-and-status/" target="_top" title="/use-case/legal-entity-management/lifecycle-and-status/" xlink:actuate="onRequest" xlink:href="/use-case/legal-entity-management/lifecycle-and-status/" xlink:show="new" xlink:title="/use-case/legal-entity-management/lifecycle-and-status/" xlink:type="simple"><text fill="#90EE90" font-family="'Roboto'" font-size="14" lengthAdjust="spacing" textLength="125.8428" x="262.2148" y="133.1826">Lifecycle &amp; Status</text></a><path d="M205.2148,130.1875 L205.2148,130.3743 L207.2148,129.8192 L209.2148,130.3593 L211.2148,130.5428 L213.2148,129.5534 L215.2148,130.1875 L215.2148,130.1875 L215.2127,130.153 L218.2032,129.8132 L221.2043,129.6471 L224.213,129.6018 L227.1959,129.1402 L230.2148,129.2617 L230.23,129.5073 L233.1976,128.797 L236.2094,128.8037 L239.2267,128.8979 L242.2125,128.483 L245.2148,128.3359 L245.2148,128.3966 L247.2148,128.3075 L249.2148,128.4946 L251.2148,128.5485 L253.2148,128.8566 L255.2148,128.3359" fill="none" style="stroke:#FF9900;stroke-width:1;"/><a href="/use-case/legal-entity-management/contact-and-location-information/" target="_top" title="/use-case/legal-entity-management/contact-and-location-information/" xlink:actuate="onRequest" xlink:href="/use-case/legal-entity-management/contact-and-location-information/" xlink:show="new" xlink:title="/use-case/legal-entity-management/contact-and-location-information/" xlink:type="simple"><text fill="#90EE90" font-family="'Roboto'" font-size="14" lengthAdjust="spacing" textLength="219.4814" x="262.2148" y="159.4795">Contact &amp; Location Information</text></a><path d="M205.2148,130.1875 L205.2148,130.3743 L207.2148,129.8192 L209.2148,130.3593 L211.2148,130.5428 L213.2148,129.5534 L215.2148,130.1875 L215.2148,130.1875 L215.193,130.1607 L218.0951,132.4851 L221.1072,134.9444 L224.1957,137.4976 L227.0207,139.7274 L230.2148,142.4102 L230.3703,142.6009 L233.0379,144.6375 L236.1593,147.2311 L239.3361,149.8926 L242.1908,152.1587 L245.2148,154.6328 L245.2148,154.6935 L247.2148,154.6044 L249.2148,154.7915 L251.2148,154.8454 L253.2148,155.1534 L255.2148,154.6328" fill="none" style="stroke:#FF9900;stroke-width:1;"/><polygon fill="#4051B5" points="259.2148,177.7813,259.2148,177.9914,269.067,177.3669,278.9192,177.9745,288.7714,178.1809,298.6236,177.0679,308.4758,177.7035,318.328,177.3548,328.1802,177.3978,338.0324,177.7131,347.8846,177.0899,357.7368,178.3349,367.589,177.151,377.4412,177.5835,387.2934,178.2132,397.1456,177.6955,406.9978,177.8495,416.85,177.7493,426.7022,177.9598,436.5544,178.0204,446.4066,178.3669,456.2588,178.4523,466.111,178.4605,475.9632,178.0359,485.8154,177.7813,485.8746,177.924,486.4707,178.2318,486.8548,178.0278,487.599,178.6931,488.0403,178.6272,488.6439,178.9528,488.8082,179.0209,488.7257,179.4554,489.0914,180.0755,489.5752,180.7445,489.5661,181.2093,489.8154,181.7813,489.8505,181.7813,489.9283,187.4406,489.9542,193.1,489.8141,198.7594,489.9112,204.4188,489.8154,210.0781,489.6391,210.0051,489.6687,210.6801,489.5156,211.2794,489.2494,211.8319,489.067,212.4191,488.6439,212.9066,488.5822,212.7578,487.995,212.94,487.4332,213.1838,486.9393,213.5914,486.356,213.7833,485.8154,214.0781,485.8154,214.7595,475.9632,213.9034,466.111,213.7351,456.2588,214.3064,446.4066,213.4113,436.5544,213.559,426.7022,214.7271,416.85,214.5138,406.9978,214.8126,397.1456,213.7563,387.2934,214.3973,377.4412,214.6685,367.589,213.6057,357.7368,213.9823,347.8846,214.2041,338.0324,214.7299,328.1802,214.0739,318.328,214.5407,308.4758,213.5243,298.6236,213.4009,288.7714,214.5817,278.9192,213.3612,269.067,214.5871,259.2148,214.0781,259.2412,214.1418,258.615,213.7613,258.0383,213.5005,257.5763,213.5165,256.9139,213.0487,256.3864,212.9066,256.5687,212.9821,255.9819,212.2704,256.1079,211.8539,255.8326,211.2713,255.5246,210.6751,255.2148,210.0781,255.2306,210.0781,255.457,204.4188,255.4194,198.7594,255.2713,193.1,255.3042,187.4406,255.2148,181.7813,255.1747,181.7646,255.6698,181.307,255.7312,180.6696,255.9709,180.1062,255.9648,179.4409,256.3864,178.9528,256.3347,178.828,257.0198,178.882,257.5726,178.6165,258.078,178.2367,258.6081,177.9163,259.2148,177.7813" style="stroke:#FF6F00;stroke-width:1.5;"/><a href="/use-case/legal-entity-management/compliance-and-documentation/" target="_top" title="/use-case/legal-entity-management/compliance-and-documentation/" xlink:actuate="onRequest" xlink:href="/use-case/legal-entity-management/compliance-and-documentation/" xlink:show="new" xlink:title="/use-case/legal-entity-management/compliance-and-documentation/" xlink:type="simple"><text fill="#90EE90" font-family="'Roboto'" font-size="14" lengthAdjust="spacing" textLength="210.1504" x="265.2148" y="200.7764">Compliance &amp; Documentation</text></a><a href="/use-case/legal-entity-management/compliance-and-documentation/compliance/" target="_top" title="/use-case/legal-entity-management/compliance-and-documentation/compliance/" xlink:actuate="onRequest" xlink:href="/use-case/legal-entity-management/compliance-and-documentation/compliance/" xlink:show="new" xlink:title="/use-case/legal-entity-management/compliance-and-documentation/compliance/" xlink:type="simple"><text fill="#90EE90" font-family="'Roboto'" font-size="14" lengthAdjust="spacing" textLength="82.4072" x="546.8154" y="187.6279">Compliance</text></a><path d="M489.8154,195.9297 L489.8154,196.1165 L491.8154,195.5614 L493.8154,196.1015 L495.8154,196.285 L497.8154,195.2956 L499.8154,195.9297 L499.8154,195.9297 L499.8016,195.8981 L502.7393,194.4412 L505.747,193.1439 L508.8033,191.9574 L511.6921,190.3889 L514.8154,189.3555 L514.9142,189.5808 L517.703,187.7841 L520.7801,186.6453 L523.8925,185.5868 L526.8001,184.0612 L529.8154,182.7813 L529.8154,182.8419 L531.8154,182.7529 L533.8154,182.9399 L535.8154,182.9938 L537.8154,183.3019 L539.8154,182.7813" fill="none" style="stroke:#FF9900;stroke-width:1;"/><a href="/use-case/legal-entity-management/compliance-and-documentation/documents/" target="_top" title="/use-case/legal-entity-management/compliance-and-documentation/documents/" xlink:actuate="onRequest" xlink:href="/use-case/legal-entity-management/compliance-and-documentation/documents/" xlink:show="new" xlink:title="/use-case/legal-entity-management/compliance-and-documentation/documents/" xlink:type="simple"><text fill="#90EE90" font-family="'Roboto'" font-size="14" lengthAdjust="spacing" textLength="79.8232" x="546.8154" y="213.9248">Documents</text></a><path d="M489.8154,195.9297 L489.8154,196.1165 L491.8154,195.5614 L493.8154,196.1015 L495.8154,196.285 L497.8154,195.2956 L499.8154,195.9297 L499.8154,195.9297 L499.8016,195.8981 L502.7393,197.0709 L505.747,198.4033 L508.8033,199.8465 L511.6921,200.9076 L514.8154,202.5039 L514.9142,202.7293 L517.703,203.5622 L520.7801,205.0531 L523.8925,206.6243 L526.8001,207.7284 L529.8154,209.0781 L529.8154,209.1388 L531.8154,209.0497 L533.8154,209.2368 L535.8154,209.2907 L537.8154,209.5987 L539.8154,209.0781" fill="none" style="stroke:#FF9900;stroke-width:1;"/><path d="M205.2148,130.1875 L205.2148,130.3743 L207.2148,129.8192 L209.2148,130.3593 L211.2148,130.5428 L213.2148,129.5534 L215.2148,130.1875 L215.2148,130.1875 L215.1887,130.1649 L216.8529,132.1178 L218.6486,134.1847 L220.5357,136.331 L222.1077,138.204 L224.1211,140.4597 L224.3564,140.5317 L224.4978,142.4835 L225.3261,144.6456 L226.2383,146.8333 L226.6628,148.8718 L227.3438,150.9887 L227.3733,150.9958 L227.9042,153.3994 L228.5694,155.835 L229.1698,158.2552 L229.8939,160.7049 L230.2148,163.0586 L230.505,163.1276 L231.0828,165.5424 L231.4734,167.9127 L232.1379,170.3482 L232.8153,172.7867 L233.0859,175.1284 L232.7794,175.0346 L234.0188,177.3225 L234.249,179.3015 L235.2464,181.5153 L235.4537,183.4873 L236.3086,185.6575 L236.2856,185.6375 L238.3389,187.9278 L239.8547,189.7522 L241.6877,191.8515 L243.5473,193.9738 L245.2148,195.9297 L245.2148,196.2997 L247.2148,195.9262 L249.2148,196.185 L251.2148,195.4209 L253.2148,196.1825 L255.2148,195.9297" fill="none" style="stroke:#FF9900;stroke-width:1;"/><a href="/use-case/legal-entity-management/supporting-information/" target="_top" title="/use-case/legal-entity-management/supporting-information/" xlink:actuate="onRequest" xlink:href="/use-case/legal-entity-management/supporting-information/" xlink:show="new" xlink:title="/use-case/legal-entity-management/supporting-information/" xlink:type="simple"><text fill="#90EE90" font-family="'Roboto'" font-size="14" lengthAdjust="spacing" textLength="162.7295" x="262.2148" y="242.0732">Supporting Information</text></a><path d="M205.2148,130.1875 L205.2148,130.3743 L207.2148,129.8192 L209.2148,130.3593 L211.2148,130.5428 L213.2148,129.5534 L215.2148,130.1875 L215.2148,130.1875 L215.1844,130.1713 L216.8288,133.4434 L218.6269,136.7973 L220.5319,140.2082 L222.0686,143.423 L224.1211,146.9124 L224.3629,146.9578 L224.4903,150.2892 L225.3238,153.7533 L226.2434,157.2336 L226.6618,160.6197 L227.3438,164.0553 L227.3738,164.0597 L227.9039,167.9836 L228.5707,171.9275 L229.1716,175.8617 L229.8982,179.8143 L230.2148,183.707 L230.51,183.7501 L231.0878,187.681 L231.4753,191.5841 L232.1414,195.5278 L232.8205,199.4735 L233.0859,203.3587 L232.7709,203.2995 L234.0268,206.843 L234.2455,210.1916 L235.2527,213.6884 L235.4478,217.0325 L236.3086,220.5017 L236.2817,220.4874 L238.3808,224.0016 L239.852,227.1815 L241.6937,230.5586 L243.5664,233.9523 L245.2148,237.2266 L245.2148,237.5965 L247.2148,237.2231 L249.2148,237.4819 L251.2148,236.7177 L253.2148,237.4794 L255.2148,237.2266" fill="none" style="stroke:#FF9900;stroke-width:1;"/><!--SRC=[xLXjJzj84FxkNx5NfADLBoNXe6fHLH52Ge64e0GgdQeARUnDiifwrzrTm-LEzzzlRCUlIPmun3quaK-mCtxccTctsUTOQIorJRbbOySmVh78a7A2JixkElNpgxj6jztj8V-tSr0zh0qEaoxzPgDxTLhl_J7pM-1oNMzSri-Q4T2SIxTtskmbuw2TuV3zi5gDN5hTgvkKW-_Y_Gn3JIXtiCGs6c1pCfB2vLP3C253HoqnL-11k4uuVvawHBOfdoHzqGwZex4UIKAuOUmYoatcMWJfCK4Zmed434KG2WtXmu7Guz-G_nd2t48MbXFuKWiaxebya5GJz43rEC2WzuGZHRIcVAIo5RZvSjwul6hs-wW6qo0SJGL7Om3rK3HyECHCaKGErzYo00WT9CPwGVuIoA8FYV7-65lYmVFEelYLO529MsxvVv2PIyBdb0onopJwssW9hg-mJT2hde3SnIj_92XYF4t-O9_-HL3jmFWdYLINKZm0pi8l5iFeAOCQ2MQbaHoORZmYCqvpdvvaLaDgFHidGaAoCqjY0KA8E08NLX7ur49VBu8fR4TmM9aGPaF22za5DNDjjf-kcOKr7c15jXmk5SDamhLA3I0O8wQtEzJMmyHH6k0W1Iinmea7YUMqn11DhgakCm3bciWXDac9CVhaXqkuIQxXcg8cTJ3N0TZDc9eJJfI20pDsLpDtO9Jy8fVS7FG2dWcV-5ZYGjgOPMrpwRJfaC1bGvQ2HmwvDFt3SmxS7rsAx5iNal8jSGr_D-gc5d850zzbQIpFkcm3xwB60VAg1fSG_BEpyfVSyn8sFEOZHZvzWjjA2VxvCynl7nOV4HekiAMtnxRkXUoAozxPwICgGPVy2IGvPdVRvvrflaeWhwPA4_lvrNhxl4kgTNWXFuzInsoVNwKJosGmktW3rfd6E9s5tyDMLtTx6-MUdrXmmLXOZOcrJguBKpKXC8PxHQwRA_Jh-KkfX4ppfp1vjMki5tKQuPCo3Xu-3-jQIpfmDPat9Kc53yvC8ukLAZdQBke43s-a76BI8JKXoU2Ad7k7hCzZPMeuRYHsMgsF7y6UCIPxAyDuUuU-VKDxhY8L4_R_7YCZp2h4xouhDkRm3hFXlptKzWnXszc93EZxT-FjkY3KyiQW5DZhyIlm0Av8Cg8A7lBUm1uwJpcWNr4lOIuKoXJI4V0TgOoyvph7q3VkGUi_6qLdqMWXMF40EqwDgUEJDx53DVW1GzVKheG8tT01o3S2CxH6CtEXK4FgqQDWetpeDQD1YLhXC3gFXmi1C-X8pQd9Y9-3j_DS1VCRZWBnlZzMiDvm79dQXsHYDi4fuet00-3RC_jy1kl6iXr6lRdpmrd2TBtnA4veXL2dILiGO_sCSgB4nbJ0xGK8_uEP2NCeDY7ATM2fUt9KUXhwqNYs_CS4pgjGB3nEQuSbYd5FMFOAJzqrDQ-a-mA00cfNTDmlkHWMNmCv-jPZ0VFah3oCUGOR25Z50gmbMJq6CbUaAWgyZYorEMQE4BKvw5BfQNF8FB5fSzHIvAMGpX9XAMHMM5CA4rWaA8MWoxIaa5D2HOeQrwo4569brAEK_qhfA0gO5OqYzBHUbDX86qa_oq_M8gjbVl8VA-tyR5uhtkJ_MPcU0g-r1PUVpEP95MchMad8es0sIrddwYArCeMGRMUIgV__MkXuKJDUr8mNDUD5pNZAQiOrWrxxjjD6i4sKvr1xjr_TFtnNgms8nhNgwri-uR0R_7SkXLMZgKtU6A_Fhjj82LT2CInlvted8tp-nhZ0znZrNExv7Q6kG_Z5wMKu0EVAFPM2UyoDYw-TsE7zGUM4QdYOI222ldQCK8TeSbDuqiSHkhrfLJuORRZSN4Z-215kDE0irN8Ajlw_]--></g></svg>