<svg xmlns="http://www.w3.org/2000/svg" xmlns:xlink="http://www.w3.org/1999/xlink" contentStyleType="text/css" data-diagram-type="MINDMAP" height="130px" preserveAspectRatio="none" style="width:934px;height:130px;" version="1.1" viewBox="0 0 934 130" width="934px" zoomAndPan="magnify"><defs/><g><a href="/use-case/construction-project-quotations/proposal-submission-and-negotiation/" target="_top" title="/use-case/construction-project-quotations/proposal-submission-and-negotiation/" xlink:actuate="onRequest" xlink:href="/use-case/construction-project-quotations/proposal-submission-and-negotiation/" xlink:show="new" xlink:title="/use-case/construction-project-quotations/proposal-submission-and-negotiation/" xlink:type="simple"><text fill="#90EE90" font-family="'Roboto'" font-size="14" lengthAdjust="spacing" textLength="161.1094" x="371.6855" y="69.292">Proposal &amp; Negotiation</text></a><a href="/use-case/construction-project-quotations/proposal-submission-and-negotiation/proposal-document-generation/" target="_top" title="/use-case/construction-project-quotations/proposal-submission-and-negotiation/proposal-document-generation/" xlink:actuate="onRequest" xlink:href="/use-case/construction-project-quotations/proposal-submission-and-negotiation/proposal-document-generation/" xlink:show="new" xlink:title="/use-case/construction-project-quotations/proposal-submission-and-negotiation/proposal-document-generation/" xlink:type="simple"><text fill="#90EE90" font-family="'Roboto'" font-size="14" lengthAdjust="spacing" textLength="306.8037" x="598.2451" y="27.9951">Proposal Document Generation &amp; Assembly</text></a><path d="M541.2451,64.4453 L541.2451,64.6321 L543.2451,64.077 L545.2451,64.6171 L547.2451,64.8006 L549.2451,63.8112 L551.2451,64.4453 L551.2451,64.4453 L551.2249,64.4173 L552.9152,63.0013 L554.7076,61.7262 L556.5711,60.5492 L558.1898,59.0344 L560.1514,57.9927 L560.3775,58.0897 L561.1127,55.043 L562.5081,52.2797 L563.984,49.5509 L564.9913,46.621 L566.2451,43.7969 L566.273,43.8088 L567.4508,40.9521 L568.7555,38.1499 L569.999,35.3213 L571.3593,32.5429 L572.3389,29.6011 L572.5138,29.8426 L574.2972,28.555 L575.9678,27.1117 L577.8035,25.8963 L579.647,24.6917 L581.2451,23.1484 L581.2451,22.5074 L583.2451,23.7516 L585.2451,22.8849 L587.2451,23.6229 L589.2451,22.7084 L591.2451,23.1484" fill="none" style="stroke:#FF9900;stroke-width:1;"/><polygon fill="#4051B5" points="595.2451,46.2969,595.2451,46.5071,605.3603,45.8826,615.4754,46.4902,625.5905,46.6966,635.7057,45.5835,645.8208,46.2192,655.936,45.8704,666.0511,45.9134,676.1663,46.2287,686.2814,45.6055,696.3965,46.8505,706.5117,45.6666,716.6268,46.0991,726.742,46.7288,736.8571,46.2111,746.9723,46.3651,757.0874,46.2649,767.2025,46.4754,777.3177,46.536,787.4328,46.8826,797.548,46.9679,807.6631,46.9761,817.7783,46.5515,827.8934,46.7605,838.0085,46.9991,848.1237,45.5757,858.2388,46.9754,868.354,46.0004,878.4691,46.8307,888.5843,45.8019,898.6994,46.2284,908.8145,47.0385,918.9297,46.2969,918.9235,46.2819,919.5088,46.5636,920.1043,46.8698,920.6798,47.128,921.1919,47.2329,921.7581,47.4684,921.8466,47.5051,921.8161,47.9611,922.3143,48.6361,922.6299,49.2354,922.8323,49.7879,922.9297,50.2969,923.134,50.2969,922.7687,55.9563,922.7123,61.6156,922.7226,67.275,922.9101,72.9344,922.9297,78.5938,922.8692,78.5687,922.9052,79.2464,922.4073,79.7028,922.1211,80.247,922.0627,80.8856,921.7581,81.4222,921.6731,81.2168,921.1262,81.4966,920.7095,82.0907,920.1166,82.2593,919.5891,82.5856,918.9297,82.5938,918.9297,82.272,908.8145,82.9129,898.6994,83.1842,888.5843,82.1213,878.4691,82.4979,868.354,82.7197,858.2388,83.2455,848.1237,82.5896,838.0085,83.0563,827.8934,82.04,817.7783,81.9165,807.6631,83.0974,797.548,81.8768,787.4328,83.1027,777.3177,82.8004,767.2025,82.3258,757.0874,82.24,746.9723,83.0525,736.8571,82.2944,726.742,83.1856,716.6268,82.041,706.5117,83.2112,696.3965,83.0781,686.2814,82.8387,676.1663,82.641,666.0511,83.3204,655.936,83.2073,645.8208,82.763,635.7057,82.8619,625.5905,82.4635,615.4754,83.3102,605.3603,82.7486,595.2451,82.5938,595.2671,82.6469,594.6018,82.1721,594.0621,82.0003,593.6158,82.0543,593.0372,81.7888,592.4167,81.4222,592.4035,81.4167,592.0832,80.8154,591.8806,80.2629,591.5024,79.6376,591.6072,79.2123,591.2451,78.5938,591.4916,78.5938,591.4206,72.9344,591.4768,67.275,591.1995,61.6156,591.2742,55.9563,591.2451,50.2969,591.1258,50.2474,591.5669,49.7674,591.7897,49.197,592.1182,48.6703,592.1117,48.0048,592.4167,47.4684,592.3995,47.4271,593.0389,47.3707,593.6204,47.1745,594.0484,46.6077,594.6547,46.4715,595.2451,46.2969" style="stroke:#FF6F00;stroke-width:1.5;"/><a href="/use-case/construction-project-quotations/proposal-submission-and-negotiation/compliance-matrix-and-submission-packaging/" target="_top" title="/use-case/construction-project-quotations/proposal-submission-and-negotiation/compliance-matrix-and-submission-packaging/" xlink:actuate="onRequest" xlink:href="/use-case/construction-project-quotations/proposal-submission-and-negotiation/compliance-matrix-and-submission-packaging/" xlink:show="new" xlink:title="/use-case/construction-project-quotations/proposal-submission-and-negotiation/compliance-matrix-and-submission-packaging/" xlink:type="simple"><text fill="#90EE90" font-family="'Roboto'" font-size="14" lengthAdjust="spacing" textLength="307.2344" x="601.2451" y="69.292">Compliance Matrix &amp; Submission Packaging</text></a><path d="M541.2451,64.4453 L541.2451,64.6321 L543.2451,64.077 L545.2451,64.6171 L547.2451,64.8006 L549.2451,63.8112 L551.2451,64.4453 L551.2451,64.4453 L551.2451,64.4108 L557.2451,64.2558 L563.2451,64.2749 L569.2451,64.415 L575.2451,64.138 L581.2451,64.4453 L581.2451,64.9374 L583.2451,63.8851 L585.2451,64.2695 L587.2451,64.8293 L589.2451,64.3691 L591.2451,64.4453" fill="none" style="stroke:#FF9900;stroke-width:1;"/><a href="/use-case/construction-project-quotations/proposal-submission-and-negotiation/negotiation-support-and-revisions/" target="_top" title="/use-case/construction-project-quotations/proposal-submission-and-negotiation/negotiation-support-and-revisions/" xlink:actuate="onRequest" xlink:href="/use-case/construction-project-quotations/proposal-submission-and-negotiation/negotiation-support-and-revisions/" xlink:show="new" xlink:title="/use-case/construction-project-quotations/proposal-submission-and-negotiation/negotiation-support-and-revisions/" xlink:type="simple"><text fill="#90EE90" font-family="'Roboto'" font-size="14" lengthAdjust="spacing" textLength="227.3564" x="598.2451" y="110.5889">Negotiation Support &amp; Revisions</text></a><path d="M541.2451,64.4453 L541.2451,64.6321 L543.2451,64.077 L545.2451,64.6171 L547.2451,64.8006 L549.2451,63.8112 L551.2451,64.4453 L551.2451,64.4453 L551.2249,64.4173 L552.9152,65.5823 L554.7076,66.8883 L556.5711,68.2924 L558.1898,69.3586 L560.1514,70.8979 L560.3775,70.995 L561.1127,73.6266 L562.5081,76.5416 L563.984,79.4912 L564.9913,82.2396 L566.2451,85.0938 L566.273,85.1057 L567.4508,87.9273 L568.7555,90.8034 L569.999,93.6532 L571.3593,96.5531 L572.3389,99.2896 L572.5138,99.5311 L574.2972,100.8246 L575.9678,101.9622 L577.8035,103.328 L579.647,104.7044 L581.2451,105.7422 L581.2451,105.1011 L583.2451,106.3453 L585.2451,105.4786 L587.2451,106.2167 L589.2451,105.3022 L591.2451,105.7422" fill="none" style="stroke:#FF9900;stroke-width:1;"/><a href="/use-case/construction-project-quotations/" target="_top" title="/use-case/construction-project-quotations/" xlink:actuate="onRequest" xlink:href="/use-case/construction-project-quotations/" xlink:show="new" xlink:title="/use-case/construction-project-quotations/" xlink:type="simple"><text fill="#90EE90" font-family="'Roboto'" font-size="14" lengthAdjust="spacing" textLength="289.2354" x="14" y="69.292">Complex Construction Project Quotations</text></a><path d="M364.6855,64.4453 L364.6855,64.6321 L362.6855,64.077 L360.6855,64.6171 L358.6855,64.8006 L356.6855,63.8112 L354.6855,64.4453 L354.6855,64.4453 L354.6855,64.4108 L348.6855,64.2558 L342.6855,64.2749 L336.6855,64.415 L330.6855,64.138 L324.6855,64.4453 L324.6855,64.9374 L322.6855,63.8851 L320.6855,64.2695 L318.6855,64.8293 L316.6855,64.3691 L314.6855,64.4453" fill="none" style="stroke:#FF9900;stroke-width:1;"/><!--SRC=[xLXjRzis4FwkNy4rmDAYSsEdIT46HH77iTCcVfkT51YA8g0bskOiaIf9EV66_VUT94kcP5j-YTKbG_mf4Hy-zzpnxUvEfS92EPHP3dODunUBz2aZwEpYjb7-qhojjEgj3Wf-UqV5urBlM8TqgvLMyxpS-MEAMm1fbojNvOjgJ3G7QNNEgntT3jhhzz_rYyKOKcirhnE00EB_34EEA7Enm0xgONCq4DnZLeNRN4H09J2JW21CQU3F4vU8EcKZ7OlsR3eOge4WX1d6FgBCj3sB83KaQ40O4TX6COL4VPZOushu6mgc8SmiP64nWfcA8pucuavGHT0TLSEGWuu9Gv8eHTb0fYDm_VbBvQfPxNPH2PQ1kufoXeP0whCecDZ7jYIQ3sriMK24ZhHldT1_0MBHU-rxTuWjVkUZqon196o8n0spWZ_85A9XpaaVUxP2VnirpbGJEmIzw73mdRy8leH1d2rJyB5B_oAeT6JyepELXU1tmBDmnc8QDR4XHjosaamkB3SUaAcckQbdgTsGsC_66HVWx7H4su1WOcQ1SMiJ-iH6Ny-2oHsNCzYPO6PBmGlLXJ7p7Fim6JCBAzp3akpONCA6QNFFojK0jsrY-gT3xjpCp4e508BRELeuyocncEHeeieKLNaQe4mHqSScoT56b_pm23D96vufQb8NCnMING-fEM94IhWmPt0vXOCYVKQck3dg1JerpEnQObmus4wFpRbJftq2ZmrPIXu3CcK6b-SSUV1rANCmkb1KC3ABuLkZR2ekLYW884jj-QFB3l0-gXmXFshm2C4_Uoj_-faNSE0n6zZauqTuhIHddpx1-dPXyn6ku05R-dhiwbr8xxZqcvsyeZIvv1v4CcpVxbvtAldAGRoSI4MSfnVhtUlEATRHW_mqGZrJ-_GYhMsJtlJX3LMd4kEa5q4EMroTxMtbUxPZuGDZOJaarZg-BdJL1CCOtXMnhg-GhsTlfHmypLv2_MbNM2tADAAIScOyAW_BIWdQynIP7z95HGLdAf75KkPiRHyrmi8RIPUOj4zDS39y8kVgaFLrh7GDpnA9lLhjmmSOJmtgkPLXlBv5txwX0q-IWWdd_m2sbLJ22vBmWYludx3Z2Zyy3klZf-K7yCdb4ji5wVKSAgKFWqAsmCY0Ang03b1x2aA_ekRiE_h-tNYTXxqOOt7JSw3cAeGbVKhC-NGKNSIZ8B0i9N5wzYHKjtjnVY5eKmnfQy71i8dk0uGs8QnsOLySG6KIOL4Zm8A-Ren4xGYPMoIrlm7ckboe02F8cCg09R6WtH02AZiHm9TMA6meBNIStFkbMGpq5yu7ejzZe4z-Ik1KHIsjqsI7AyUMqIDkpaHtmvgT6Hs-W623danyAIsvlXPVLXbTc8SIPZLTiZZc5MpHPjdCm5gDbOTGPhPIDYLUftcoFMT6ksHxqgKDakqfireYsxFcqWI9v2nfVqJADkvyH0uiQdj4fCiw7f4chTSHfrVfHaV4bUfn9F0h6nonmNHh8sPFTZMqWxHLWsBvpRh9RfbV_8Ss87wshXMLutyMfiUWQ-ssm4zMywY2jDEAFjAneJTBLMTMxwKyo_LTUvAA__-w77-kkPzhxkUQUnSrTzk6ZF2cKKTZo3hyEQKtXyN3upUbKeyeN2g-l64ZnkzOK8rHk2eLTSWhu-L5kuuazmG4sg8oFBym_PLnYSSOTJpcuqvGooNiylmg-W1v_9WAplnDP5n-RSm0xuuAPrH1-Yn02FhQCA9gkSfCxXVe9-ZckbPuRzJX2lQWTZr1KCXNuCGhCO6nxhy0]--></g></svg>