<svg xmlns="http://www.w3.org/2000/svg" xmlns:xlink="http://www.w3.org/1999/xlink" contentStyleType="text/css" data-diagram-type="MINDMAP" height="152px" preserveAspectRatio="none" style="width:852px;height:152px;" version="1.1" viewBox="0 0 852 152" width="852px" zoomAndPan="magnify"><defs/><g><a href="/use-case/construction-project-quotations/scope-and-requirements/" target="_top" title="/use-case/construction-project-quotations/scope-and-requirements/" xlink:actuate="onRequest" xlink:href="/use-case/construction-project-quotations/scope-and-requirements/" xlink:show="new" xlink:title="/use-case/construction-project-quotations/scope-and-requirements/" xlink:type="simple"><text fill="#4051B5" font-family="'Roboto'" font-size="13" lengthAdjust="spacing" textLength="149.2524" x="350.708" y="79.7661">Scope &amp; Requirements</text></a><a href="/use-case/construction-project-quotations/scope-and-requirements/scope-decomposition-wbs-boq/" target="_top" title="/use-case/construction-project-quotations/scope-and-requirements/scope-decomposition-wbs-boq/" xlink:actuate="onRequest" xlink:href="/use-case/construction-project-quotations/scope-and-requirements/scope-decomposition-wbs-boq/" xlink:show="new" xlink:title="/use-case/construction-project-quotations/scope-and-requirements/scope-decomposition-wbs-boq/" xlink:type="simple"><text fill="#4051B5" font-family="'Roboto'" font-size="13" lengthAdjust="spacing" textLength="216.7852" x="565.0928" y="27.0669">Scope Decomposition (WBS/BoQ)</text></a><path d="M508.0928,75.2656 L508.0928,75.4525 L510.0928,74.8973 L512.0928,75.4374 L514.0928,75.6209 L516.0928,74.6315 L518.0928,75.2656 L518.0928,75.2656 L518.0693,75.2403 L519.7453,73.4796 L521.5396,71.8468 L523.416,70.3028 L525.0092,68.4526 L526.999,67.0314 L527.2322,67.1098 L527.9523,63.319 L529.3532,59.7572 L530.8372,56.2234 L531.8379,52.5269 L533.0928,48.916 L533.1215,48.9257 L534.2981,45.2884 L535.6055,41.6952 L536.8498,38.0807 L538.2145,34.5067 L539.1865,30.8007 L539.389,31.0197 L541.1727,29.3755 L542.8258,27.5901 L544.6701,26.0114 L546.5234,24.4424 L548.0928,22.5664 L548.0928,21.9254 L550.0928,23.1695 L552.0928,22.3028 L554.0928,23.0409 L556.0928,22.1264 L558.0928,22.5664" fill="none" style="stroke:#FF6F00;stroke-width:1;"/><a href="/use-case/construction-project-quotations/scope-and-requirements/assumptions-exclusions-qualifications/" target="_top" title="/use-case/construction-project-quotations/scope-and-requirements/assumptions-exclusions-qualifications/" xlink:actuate="onRequest" xlink:href="/use-case/construction-project-quotations/scope-and-requirements/assumptions-exclusions-qualifications/" xlink:show="new" xlink:title="/use-case/construction-project-quotations/scope-and-requirements/assumptions-exclusions-qualifications/" xlink:type="simple"><text fill="#4051B5" font-family="'Roboto'" font-size="13" lengthAdjust="spacing" textLength="266.8301" x="565.0928" y="52.1997">Assumptions, Exclusions &amp; Qualifications</text></a><path d="M508.0928,75.2656 L508.0928,75.4525 L510.0928,74.8973 L512.0928,75.4374 L514.0928,75.6209 L516.0928,74.6315 L518.0928,75.2656 L518.0928,75.2656 L518.0777,75.2345 L519.7915,74.2335 L521.5811,73.3893 L523.4233,72.654 L525.084,71.5432 L526.999,70.9584 L527.206,71.0915 L527.9822,68.9117 L529.3626,67.1205 L530.8167,65.3766 L531.842,63.357 L533.0928,61.4824 L533.1183,61.4988 L534.2996,59.5796 L535.597,57.735 L536.8384,55.8543 L538.1867,54.0425 L539.1865,52.0065 L539.3164,52.275 L541.0992,51.4168 L542.7983,50.3854 L544.62,49.6076 L546.4474,48.8416 L548.0928,47.6992 L548.0928,47.0582 L550.0928,48.3023 L552.0928,47.4357 L554.0928,48.1737 L556.0928,47.2592 L558.0928,47.6992" fill="none" style="stroke:#FF6F00;stroke-width:1;"/><a href="/use-case/construction-project-quotations/scope-and-requirements/rfis-clarifications-addenda/" target="_top" title="/use-case/construction-project-quotations/scope-and-requirements/rfis-clarifications-addenda/" xlink:actuate="onRequest" xlink:href="/use-case/construction-project-quotations/scope-and-requirements/rfis-clarifications-addenda/" xlink:show="new" xlink:title="/use-case/construction-project-quotations/scope-and-requirements/rfis-clarifications-addenda/" xlink:type="simple"><text fill="#4051B5" font-family="'Roboto'" font-size="13" lengthAdjust="spacing" textLength="196.2251" x="565.0928" y="77.3325">RFIs, Clarifications &amp; Addenda</text></a><path d="M508.0928,75.2656 L508.0928,75.4525 L510.0928,74.8973 L512.0928,75.4374 L514.0928,75.6209 L516.0928,74.6315 L518.0928,75.2656 L518.0928,75.2656 L518.09,75.2312 L521.0774,74.8333 L524.079,74.609 L527.0903,74.5054 L530.0679,73.9859 L533.0928,74.0488 L533.1127,74.2941 L536.0701,73.5263 L539.0857,73.4745 L542.1083,73.5101 L545.0897,73.0374 L548.0928,72.832 L548.0928,72.8927 L550.0928,72.8036 L552.0928,72.9907 L554.0928,73.0446 L556.0928,73.3526 L558.0928,72.832" fill="none" style="stroke:#FF6F00;stroke-width:1;"/><polygon fill="#4051B5" points="562.0928,95.3984,562.0928,95.6086,572.0954,94.9841,582.0979,95.5917,592.1005,95.7981,602.1031,94.685,612.1057,95.3207,622.1083,94.9719,632.1109,95.0149,642.1135,95.3303,652.116,94.7071,662.1186,95.9521,672.1212,94.7682,682.1238,95.2007,692.1264,95.8304,702.129,95.3127,712.1315,95.4667,722.1341,95.3665,732.1367,95.3984,732.1595,95.4534,732.7329,95.7064,733.3428,96.0474,733.9194,96.308,734.4861,96.5449,734.9651,96.57,735.0436,96.6025,735.3422,97.1948,735.65,97.791,735.446,98.1751,736.1114,98.9193,736.1367,99.3984,736.0379,99.3984,736.3147,104.825,735.9717,110.2516,736.1139,115.6781,736.3839,121.1047,736.1367,126.5313,736.1217,126.525,735.9348,127.1104,735.7724,127.7058,735.562,128.2814,735.1983,128.7935,734.9651,129.3597,735.0018,129.4481,734.3264,129.4177,733.8701,129.9159,733.338,130.2314,732.7591,130.4338,732.1367,130.5313,732.1367,131.1443,722.1341,130.0482,712.1315,129.8791,702.129,129.9098,692.1264,130.4724,682.1238,130.3347,672.1212,131.2127,662.1186,130.3566,652.116,130.1882,642.1135,130.7595,632.1109,129.8644,622.1083,130.0121,612.1057,131.1802,602.1031,130.9669,592.1005,131.2657,582.0979,130.2095,572.0954,130.8504,562.0928,130.5313,562.1681,130.7131,561.4668,130.1515,560.9492,130.0331,560.4118,129.8671,559.9132,129.7947,559.2643,129.3597,559.2631,129.3591,559.1725,128.853,558.6252,128.1577,558.3528,127.5762,558.4822,127.1612,558.0928,126.5313,557.8538,126.5313,558.2624,121.1047,558.1616,115.6781,558.0035,110.2516,557.9748,104.825,558.0928,99.3984,558.2341,99.457,558.2349,98.7946,558.7437,98.3426,558.6255,97.6309,559.2202,97.2145,559.2643,96.57,559.3261,96.7192,559.8613,96.4111,560.4017,96.1159,561.0541,96.0908,561.6054,95.8217,562.0928,95.3984" style="stroke:#FF6F00;stroke-width:1.5;"/><a href="/use-case/construction-project-quotations/scope-and-requirements/constructability-review/" target="_top" title="/use-case/construction-project-quotations/scope-and-requirements/constructability-review/" xlink:actuate="onRequest" xlink:href="/use-case/construction-project-quotations/scope-and-requirements/constructability-review/" xlink:show="new" xlink:title="/use-case/construction-project-quotations/scope-and-requirements/constructability-review/" xlink:type="simple"><text fill="#4051B5" font-family="'Roboto'" font-size="13" lengthAdjust="spacing" textLength="153.9116" x="568.0928" y="117.4653">Constructability Review</text></a><path d="M508.0928,75.2656 L508.0928,75.4525 L510.0928,74.8973 L512.0928,75.4374 L514.0928,75.6209 L516.0928,74.6315 L518.0928,75.2656 L518.0928,75.2656 L518.0737,75.2368 L519.7695,76.2856 L521.5612,77.4797 L523.4198,78.7747 L525.0483,79.7217 L526.999,81.1561 L527.2217,81.2608 L527.9643,83.6287 L529.357,86.3024 L530.829,89.0133 L531.8395,91.5072 L533.0928,94.1152 L533.1202,94.1281 L534.2987,96.701 L535.6021,99.3326 L536.8452,101.9359 L538.2033,104.5933 L539.1865,107.0743 L539.3511,107.3231 L541.1343,108.5042 L542.8115,109.5249 L544.6439,110.7805 L546.4837,112.0471 L548.0928,112.9648 L548.0928,112.3238 L550.0928,113.568 L552.0928,112.7013 L554.0928,113.4393 L556.0928,112.5248 L558.0928,112.9648" fill="none" style="stroke:#FF6F00;stroke-width:1;"/><a href="/use-case/construction-project-quotations/" target="_top" title="/use-case/construction-project-quotations/" xlink:actuate="onRequest" xlink:href="/use-case/construction-project-quotations/" xlink:show="new" xlink:title="/use-case/construction-project-quotations/" xlink:type="simple"><text fill="#4051B5" font-family="'Roboto'" font-size="13" lengthAdjust="spacing" textLength="268.5757" x="14" y="79.7661">Complex Construction Project Quotations</text></a><path d="M343.708,75.2656 L343.708,75.4525 L341.708,74.8973 L339.708,75.4374 L337.708,75.6209 L335.708,74.6315 L333.708,75.2656 L333.708,75.2656 L333.708,75.2311 L327.708,75.0761 L321.708,75.0952 L315.708,75.2353 L309.708,74.9583 L303.708,75.2656 L303.708,75.7578 L301.708,74.7054 L299.708,75.0898 L297.708,75.6496 L295.708,75.1894 L293.708,75.2656" fill="none" style="stroke:#FF6F00;stroke-width:1;"/><!--SRC=[xLXjRnCv4Fw-ly97fGC4Inee2264IDAKjxOfIGiw8LGvkvF6rrqxjRqDlTFzznllI_ObsSrBDnpeoAVM7Z_pUEprp3olbQPI-uoxFfrOrcykZ1W7qdvpVjHwTtpUwHts-YJyxUpjFcqEdsPD1jrExtY_rVyZjbjWSjBgV6YzwSw0vanw_VrkF-k7x8n6pqQxkpEJWzxnQSuWD36_cKcht-zzpjiaA9QwP7n29VN9a3gN5r84tEq8JqYoeoNb2kU0wupPsvi9I8_nozWgPcpT9OmxNk02qMCW5y11Ke_CrYaoGkkXqEE7n6CNOqqeTubBvIMkr8A8Qv1JoJIGATFZ28DT0oSAj6RyGXLZSlhsNUV3SNSm84qy637HJ70oHb23ed7XY7eACiHFgEiY4DdBZFMZxKeaIvvdnWTZwegfiIwYpBP_njtm3uXDCZRxCAA1fydVre7W-fZwGExq1UvTt0b7eiYb1nSE3jXVG9fxrZzPf9QKOeeu2rSiXj4t7iP8U6uUQOAdIoyWvZItj5qu_DmDjzf2ucRZcSoLH1Uf1oxSTU1pLtyr3uxm9uBZTKGt6n9Uo2wAMU1xZ_CnSwccGwgWPdSv7uud0dUh3eJdWME-3bMxczHB1msayBReeMqWgRpPeeikrqnlqm7Z6kI8Eh157mEu2e0xS8A9YpbiGhcEm4x7pBdae1G-cAcvYisHKNP59Ravw0KyCpRfiyI5zAbNd9lRpY4RmI6-hANWCuDAck7ZEGSUZfOYXxCBIOKpQGoVM2r72xc4GMXIwilCbdt0TqbdZvYeOHB2VtQM_hBVlCGFdl8B3rw-n6ob17_r2iztW9SFXCO4LfezwieBnHjNpDdv9of35xuXIKwzy_fv5ygnBP1NDqg3__F5kdxUMufraf1_Zb2dR7- -I6UkoJ1El17hGc6StqLOm-ukh_Ossdlrng84ur8r1dULlIxSgeEEAUOLkUfUiLwllafRs6dr4QxTXYGDNBgd9r7-wM579XdMz6wCOnguk1KEYtr5RE87Ifkw70WTuLOJduMs8ECjRarBUvnChrf6CbjAfC4erExOkElbPTRYJA-rPCD0GtaTCC-ree79LVjKgSrOLJcuIuxYSr4JSDY8ERZ_i7J08vgEJLUjyGt2-bEP0mqFxo4PUW7WsN4EfX1HH0JQJC-tT3MpJV5flgR2HjvwS4w-V26DG87juDlPG7vAoo1iOEo957yYMVig47YyfgLfA4TCmCQstvPOoJ89FlQ7ga46PfpyJlgPKVBrg_MW9WVHi0jXJwfOk7ewLFPGN2NEzxEJvDxdzg3H5X_lrya2RrFWXzA7ik6RumKg_FCge9wv1V5YqahD7fBkp0x3yp5dMISrEMBAnlikKtYRkYvWBccG_i4xPDB9pIARLZGVqQY5nMmP7J8FcpkSlMOmRPY6DJU15yLC6DUslMO44CoVUF0j1JK7VX8POeWJGmF-6ZSuqnDVv-N5-iIu7rZsIZB0YffNrdm1m1fgLxAk-9ebGSi-MOayMgbltHQmIiwgmfXdi860jPw3bIIhsq1MYbJh0gyYIssEMI54RGvQAZrj3babDcsEkXLvAQ5J8YmbpDRMb98DB1AK4j0oBIdXbAdt4hWv2Id1AgX7EVkbqj7COL4qcg7dzQBCXxIHz5F-igvpM-OF_xRIplVcjQGd_y_2z2FmMbbm-SviVgWWrQgL93pMt4qfwqfTfBbD8QJkdHJYNvVGiR5IiI1VrgPIP94AkMHUdCYbcKMHAvQWAmWIvGIMGfQ81hT0_2KJ_989_iyomOc7LUtPqI6vnih9h6a-Uhpx-EcZPdC8cZPtxvtnIowcFEme6JuxclbmtxhtvkIGA158BBzTfg9t0vVVjzxJQqhw0JTsBqXl0lpz_eTa07kHQoO5Dv6ntdywIWsUxTbjfh45a4Y4V3goaeUtonrXH8ONvEpqm7vk7M8Q2R3_Va60usk9kF86vmR_0W00]--></g></svg>