<svg xmlns="http://www.w3.org/2000/svg" xmlns:xlink="http://www.w3.org/1999/xlink" contentStyleType="text/css" data-diagram-type="MINDMAP" height="758px" preserveAspectRatio="none" style="width:1116px;height:758px;" version="1.1" viewBox="0 0 1116 758" width="1116px" zoomAndPan="magnify"><defs/><g><polygon fill="#4051B5" points="14,360.0078,14,360.218,23.8608,359.5935,33.7216,360.2011,43.5825,360.4075,53.4433,359.2944,63.3041,359.9301,73.1649,359.5813,83.0258,359.6243,92.8866,359.9397,102.7474,359.3164,112.6082,360.5615,122.4691,359.3775,132.3299,359.81,142.1907,360.4398,152.0515,359.922,161.9124,360.0761,171.7732,359.9759,181.634,360.1863,191.4948,360.2469,201.3557,360.5935,211.2165,360.6789,221.0773,360.6871,230.9381,360.2624,240.799,360.4714,250.6598,360.71,260.5206,359.2866,270.3814,360.6863,280.2423,359.7113,290.1031,360.5416,299.9639,359.5128,309.8247,359.9393,319.6855,360.0078,319.7801,360.2362,320.245,360.2271,320.8304,360.5089,321.4258,360.815,322.0014,361.0733,322.514,361.1794,322.5128,361.1789,322.8367,361.7817,322.8063,362.2377,323.3045,362.9127,323.6201,363.5121,323.6855,364.0078,323.8337,364.0078,323.8899,369.6672,323.5245,375.3266,323.4682,380.9859,323.4784,386.6453,323.6855,392.3047,323.6674,392.2972,323.3907,392.8453,323.4268,393.523,322.9288,393.9795,322.6426,394.5237,322.514,395.1331,322.5431,395.2034,321.8632,395.1621,321.3164,395.4419,320.8997,396.0359,320.3068,396.2045,319.6855,396.3047,319.6855,397.0392,309.8247,395.9829,299.9639,396.6239,290.1031,396.8951,280.2423,395.8323,270.3814,396.2088,260.5206,396.4307,250.6598,396.9564,240.799,396.3005,230.9381,396.7673,221.0773,395.7509,211.2165,395.6274,201.3557,396.8083,191.4948,395.5877,181.634,396.8136,171.7732,396.5113,161.9124,396.0368,152.0515,395.9509,142.1907,396.7634,132.3299,396.0054,122.4691,396.8965,112.6082,395.7519,102.7474,396.9221,92.8866,396.789,83.0258,396.5497,73.1649,396.3519,63.3041,397.0313,53.4433,396.9183,43.5825,396.4739,33.7216,396.5729,23.8608,396.1744,14,396.3047,14.0914,396.5253,13.4541,396.1181,12.8906,395.8892,12.2253,395.4144,11.6856,395.2426,11.1716,395.1331,11.335,395.2008,11.0696,394.6222,10.6897,393.9963,10.3694,393.395,10.1669,392.8424,10,392.3047,9.7713,392.3047,10.1382,386.6453,10.2465,380.9859,10.1755,375.3266,10.2316,369.6672,10,364.0078,9.9579,363.9904,10.2612,363.4533,10.3493,362.827,10.7904,362.347,11.0133,361.7765,11.1716,361.1794,11.242,361.3495,11.708,360.8743,12.2858,360.6694,12.9252,360.613,13.5067,360.4168,14,360.0078" style="stroke:#FF6F00;stroke-width:1.5;"/><a href="/use-case/construction-project-quotations/" target="_top" title="/use-case/construction-project-quotations/" xlink:actuate="onRequest" xlink:href="/use-case/construction-project-quotations/" xlink:show="new" xlink:title="/use-case/construction-project-quotations/" xlink:type="simple"><text fill="#90EE90" font-family="'Roboto'" font-size="14" lengthAdjust="spacing" textLength="289.2354" x="20" y="383.0029">Complex Construction Project Quotations</text></a><a href="/use-case/construction-project-quotations/opportunity-and-tender-intake/" target="_top" title="/use-case/construction-project-quotations/opportunity-and-tender-intake/" xlink:actuate="onRequest" xlink:href="/use-case/construction-project-quotations/opportunity-and-tender-intake/" xlink:show="new" xlink:title="/use-case/construction-project-quotations/opportunity-and-tender-intake/" xlink:type="simple"><text fill="#90EE90" font-family="'Roboto'" font-size="14" lengthAdjust="spacing" textLength="201.3662" x="380.6855" y="54.292">Opportunity &amp; Tender Intake</text></a><a href="/use-case/construction-project-quotations/opportunity-and-tender-intake/rfp-rfq-intake/" target="_top" title="/use-case/construction-project-quotations/opportunity-and-tender-intake/rfp-rfq-intake/" xlink:actuate="onRequest" xlink:href="/use-case/construction-project-quotations/opportunity-and-tender-intake/rfp-rfq-intake/" xlink:show="new" xlink:title="/use-case/construction-project-quotations/opportunity-and-tender-intake/rfp-rfq-intake/" xlink:type="simple"><text fill="#90EE90" font-family="'Roboto'" font-size="14" lengthAdjust="spacing" textLength="258.542" x="647.502" y="27.9951">RFP/RFQ Intake &amp; Document Catalog</text></a><path d="M590.502,49.4453 L590.502,49.6321 L592.502,49.077 L594.502,49.6171 L596.502,49.8006 L598.502,48.8112 L600.502,49.4453 L600.502,49.4453 L600.4792,49.4193 L603.377,46.6731 L606.3896,44.0578 L609.482,41.5335 L612.2994,38.6955 L615.502,36.2969 L615.6642,36.4819 L618.3173,33.4565 L621.444,30.9714 L624.6285,28.5522 L627.4768,25.7495 L630.502,23.1484 L630.502,23.2091 L632.502,23.12 L634.502,23.3071 L636.502,23.361 L638.502,23.6691 L640.502,23.1484" fill="none" style="stroke:#FF9900;stroke-width:1;"/><a href="/use-case/construction-project-quotations/opportunity-and-tender-intake/bid-no-bid-decisioning/" target="_top" title="/use-case/construction-project-quotations/opportunity-and-tender-intake/bid-no-bid-decisioning/" xlink:actuate="onRequest" xlink:href="/use-case/construction-project-quotations/opportunity-and-tender-intake/bid-no-bid-decisioning/" xlink:show="new" xlink:title="/use-case/construction-project-quotations/opportunity-and-tender-intake/bid-no-bid-decisioning/" xlink:type="simple"><text fill="#90EE90" font-family="'Roboto'" font-size="14" lengthAdjust="spacing" textLength="159.2705" x="647.502" y="54.292">Bid/No-Bid Decisioning</text></a><path d="M590.502,49.4453 L590.502,49.6321 L592.502,49.077 L594.502,49.6171 L596.502,49.8006 L598.502,48.8112 L600.502,49.4453 L600.502,49.4453 L600.502,49.4108 L606.502,49.2558 L612.502,49.2749 L618.502,49.415 L624.502,49.138 L630.502,49.4453 L630.502,49.9374 L632.502,48.8851 L634.502,49.2695 L636.502,49.8293 L638.502,49.3691 L640.502,49.4453" fill="none" style="stroke:#FF9900;stroke-width:1;"/><a href="/use-case/construction-project-quotations/opportunity-and-tender-intake/site-visit-and-existing-conditions/" target="_top" title="/use-case/construction-project-quotations/opportunity-and-tender-intake/site-visit-and-existing-conditions/" xlink:actuate="onRequest" xlink:href="/use-case/construction-project-quotations/opportunity-and-tender-intake/site-visit-and-existing-conditions/" xlink:show="new" xlink:title="/use-case/construction-project-quotations/opportunity-and-tender-intake/site-visit-and-existing-conditions/" xlink:type="simple"><text fill="#90EE90" font-family="'Roboto'" font-size="14" lengthAdjust="spacing" textLength="215.291" x="647.502" y="80.5889">Site Visit &amp; Existing Conditions</text></a><path d="M590.502,49.4453 L590.502,49.6321 L592.502,49.077 L594.502,49.6171 L596.502,49.8006 L598.502,48.8112 L600.502,49.4453 L600.502,49.4453 L600.4792,49.4193 L603.377,51.9325 L606.3896,54.5765 L609.482,57.3116 L612.2994,59.733 L615.502,62.5938 L615.6642,62.7788 L618.3173,65.0128 L621.444,67.787 L624.6285,70.6272 L627.4768,73.0838 L630.502,75.7422 L630.502,75.8028 L632.502,75.7138 L634.502,75.9009 L636.502,75.9548 L638.502,76.2628 L640.502,75.7422" fill="none" style="stroke:#FF9900;stroke-width:1;"/><path d="M323.6855,378.1563 L323.6855,378.3431 L325.6855,377.788 L327.6855,378.3281 L329.6855,378.5115 L331.6855,377.5221 L333.6855,378.1563 L333.6855,378.1563 L333.653,378.1448 L334.5029,375.2684 L335.517,372.4498 L336.6453,369.6716 L337.3801,366.7546 L338.666,364.032 L338.9101,364.0632 L338.8027,360.7543 L339.4079,357.5365 L340.1001,354.3298 L340.2864,351.0584 L340.7388,347.8211 L340.769,347.8238 L341.0952,343.6147 L341.559,339.4177 L341.9565,335.2149 L342.4805,331.0232 L342.5918,326.7952 L342.8894,326.8152 L343.2285,321.8399 L343.3756,316.8516 L343.8037,311.8822 L344.245,306.9137 L344.269,301.9171 L343.949,301.8993 L344.8792,296.3805 L344.7556,290.803 L345.4332,285.2701 L345.2857,279.6912 L345.8145,274.1501 L345.7232,274.1457 L347.2807,264.1388 L346.7066,254.0305 L347.3902,243.9821 L348.1795,233.9387 L348.7614,223.8854 L348.6855,213.8008 L348.6803,213.8005 L349.5466,203.7608 L348.8802,193.6481 L350.4998,183.6442 L351.3297,173.6027 L351.6702,163.5379 L351.5566,153.4515 L351.8287,153.4666 L351.6514,147.8862 L351.8854,142.3286 L352.2081,136.7759 L352.7668,131.2364 L353.1021,125.6844 L353.0149,125.6785 L353.7397,120.7292 L353.6955,115.728 L353.9563,110.7474 L354.5451,105.7888 L354.7793,100.8064 L354.4841,100.7804 L354.9201,96.581 L355.8078,92.4213 L356.084,88.2078 L356.5869,84.0143 L356.6323,79.7805 L356.4905,79.7623 L357.1876,76.5563 L357.7217,73.3294 L357.6677,70.0273 L358.2483,66.8064 L358.7051,63.5696 L358.7579,63.5882 L359.9744,60.8411 L360.6955,57.9193 L361.8872,55.1634 L362.4573,52.1883 L363.6855,49.4453 L363.6855,48.8433 L365.6855,49.893 L367.6855,48.808 L369.6855,49.8977 L371.6855,49.629 L373.6855,49.4453" fill="none" style="stroke:#FF9900;stroke-width:1;"/><a href="/use-case/construction-project-quotations/scope-and-requirements/" target="_top" title="/use-case/construction-project-quotations/scope-and-requirements/" xlink:actuate="onRequest" xlink:href="/use-case/construction-project-quotations/scope-and-requirements/" xlink:show="new" xlink:title="/use-case/construction-project-quotations/scope-and-requirements/" xlink:type="simple"><text fill="#90EE90" font-family="'Roboto'" font-size="14" lengthAdjust="spacing" textLength="160.7334" x="380.6855" y="146.3311">Scope &amp; Requirements</text></a><a href="/use-case/construction-project-quotations/scope-and-requirements/scope-decomposition-wbs-boq/" target="_top" title="/use-case/construction-project-quotations/scope-and-requirements/scope-decomposition-wbs-boq/" xlink:actuate="onRequest" xlink:href="/use-case/construction-project-quotations/scope-and-requirements/scope-decomposition-wbs-boq/" xlink:show="new" xlink:title="/use-case/construction-project-quotations/scope-and-requirements/scope-decomposition-wbs-boq/" xlink:type="simple"><text fill="#90EE90" font-family="'Roboto'" font-size="14" lengthAdjust="spacing" textLength="233.4609" x="606.8691" y="106.8857">Scope Decomposition (WBS/BoQ)</text></a><path d="M549.8691,141.4844 L549.8691,141.6712 L551.8691,141.1161 L553.8691,141.6562 L555.8691,141.8396 L557.8691,140.8502 L559.8691,141.4844 L559.8691,141.4844 L559.8495,141.456 L561.5425,140.0958 L563.3346,138.8789 L565.1957,137.7615 L566.8193,136.301 L568.7754,135.321 L568.9998,135.4219 L569.7386,132.4944 L571.1327,129.8613 L572.6067,127.2641 L573.6156,124.458 L574.8691,121.7617 L574.8968,121.7742 L576.0749,119.044 L577.379,116.3705 L578.6223,113.6697 L579.9816,111.021 L580.9629,108.2024 L581.1326,108.4476 L582.9159,107.218 L584.5898,105.8301 L586.4239,104.6738 L588.2655,103.5284 L589.8691,102.0391 L589.8691,101.398 L591.8691,102.6422 L593.8691,101.7755 L595.8691,102.5136 L597.8691,101.599 L599.8691,102.0391" fill="none" style="stroke:#FF9900;stroke-width:1;"/><a href="/use-case/construction-project-quotations/scope-and-requirements/assumptions-exclusions-qualifications/" target="_top" title="/use-case/construction-project-quotations/scope-and-requirements/assumptions-exclusions-qualifications/" xlink:actuate="onRequest" xlink:href="/use-case/construction-project-quotations/scope-and-requirements/assumptions-exclusions-qualifications/" xlink:show="new" xlink:title="/use-case/construction-project-quotations/scope-and-requirements/assumptions-exclusions-qualifications/" xlink:type="simple"><text fill="#90EE90" font-family="'Roboto'" font-size="14" lengthAdjust="spacing" textLength="287.3555" x="606.8691" y="133.1826">Assumptions, Exclusions &amp; Qualifications</text></a><path d="M549.8691,141.4844 L549.8691,141.6712 L551.8691,141.1161 L553.8691,141.6562 L555.8691,141.8396 L557.8691,140.8502 L559.8691,141.4844 L559.8691,141.4844 L559.8553,141.4527 L562.7931,139.9959 L565.8007,138.6986 L568.857,137.5121 L571.7458,135.9436 L574.8691,134.9102 L574.9679,135.1355 L577.7567,133.3387 L580.8339,132.2 L583.9462,131.1415 L586.8538,129.6159 L589.8691,128.3359 L589.8691,128.3966 L591.8691,128.3075 L593.8691,128.4946 L595.8691,128.5485 L597.8691,128.8566 L599.8691,128.3359" fill="none" style="stroke:#FF9900;stroke-width:1;"/><a href="/use-case/construction-project-quotations/scope-and-requirements/rfis-clarifications-addenda/" target="_top" title="/use-case/construction-project-quotations/scope-and-requirements/rfis-clarifications-addenda/" xlink:actuate="onRequest" xlink:href="/use-case/construction-project-quotations/scope-and-requirements/rfis-clarifications-addenda/" xlink:show="new" xlink:title="/use-case/construction-project-quotations/scope-and-requirements/rfis-clarifications-addenda/" xlink:type="simple"><text fill="#90EE90" font-family="'Roboto'" font-size="14" lengthAdjust="spacing" textLength="211.3193" x="606.8691" y="159.4795">RFIs, Clarifications &amp; Addenda</text></a><path d="M549.8691,141.4844 L549.8691,141.6712 L551.8691,141.1161 L553.8691,141.6562 L555.8691,141.8396 L557.8691,140.8502 L559.8691,141.4844 L559.8691,141.4844 L559.8553,141.4527 L562.7931,142.6256 L565.8007,143.958 L568.857,145.4012 L571.7458,146.4623 L574.8691,148.0586 L574.9679,148.284 L577.7567,149.1169 L580.8339,150.6078 L583.9462,152.179 L586.8538,153.2831 L589.8691,154.6328 L589.8691,154.6935 L591.8691,154.6044 L593.8691,154.7915 L595.8691,154.8454 L597.8691,155.1534 L599.8691,154.6328" fill="none" style="stroke:#FF9900;stroke-width:1;"/><a href="/use-case/construction-project-quotations/scope-and-requirements/constructability-review/" target="_top" title="/use-case/construction-project-quotations/scope-and-requirements/constructability-review/" xlink:actuate="onRequest" xlink:href="/use-case/construction-project-quotations/scope-and-requirements/constructability-review/" xlink:show="new" xlink:title="/use-case/construction-project-quotations/scope-and-requirements/constructability-review/" xlink:type="simple"><text fill="#90EE90" font-family="'Roboto'" font-size="14" lengthAdjust="spacing" textLength="165.751" x="606.8691" y="185.7764">Constructability Review</text></a><path d="M549.8691,141.4844 L549.8691,141.6712 L551.8691,141.1161 L553.8691,141.6562 L555.8691,141.8396 L557.8691,140.8502 L559.8691,141.4844 L559.8691,141.4844 L559.8495,141.456 L561.5425,142.5612 L563.3346,143.8096 L565.1957,145.1575 L566.8193,146.1624 L568.7754,147.6477 L568.9998,147.7486 L569.7386,150.2447 L571.1327,153.0354 L572.6067,155.862 L573.6156,158.4795 L574.8691,161.207 L574.8968,161.2195 L576.0749,163.9131 L577.379,166.6633 L578.6223,169.3862 L579.9816,172.1612 L580.9629,174.7664 L581.1326,175.0116 L582.9159,176.2473 L584.5898,177.3247 L586.4239,178.6338 L588.2655,179.9537 L589.8691,180.9297 L589.8691,180.2886 L591.8691,181.5328 L593.8691,180.6661 L595.8691,181.4042 L597.8691,180.4897 L599.8691,180.9297" fill="none" style="stroke:#FF9900;stroke-width:1;"/><path d="M323.6855,378.1563 L323.6855,378.3431 L325.6855,377.788 L327.6855,378.3281 L329.6855,378.5115 L331.6855,377.5221 L333.6855,378.1563 L333.6855,378.1563 L333.6545,378.1411 L334.5114,376.039 L335.5247,374.0135 L336.6466,372.0412 L337.394,369.8855 L338.666,367.9868 L338.9083,368.0298 L338.8048,365.6034 L339.4086,363.3027 L340.0987,361.0172 L340.2867,358.6426 L340.7388,356.3149 L340.7689,356.3186 L341.0953,353.2855 L341.5587,350.2691 L341.9561,347.2447 L342.4796,344.2356 L342.5918,341.1763 L342.8887,341.2041 L343.2278,337.622 L343.3754,334.0219 L343.8033,330.4482 L344.2443,326.8756 L344.269,323.2641 L343.9495,323.2394 L344.8788,319.2889 L344.7558,315.257 L345.4328,311.287 L345.286,307.2533 L345.8145,303.2718 L345.7841,303.2698 L346.7176,294.6032 L346.9413,285.8898 L347.5838,277.204 L348.2615,268.5205 L348.6855,259.8203 L348.8701,259.8325 L349.258,251.1299 L349.9614,242.4481 L350.1543,233.7327 L351.1085,225.0675 L351.5566,216.3688 L351.7996,216.3876 L352.0627,212.3856 L352.4464,208.3929 L352.2698,204.3569 L352.504,200.3527 L353.1021,196.3765 L352.8271,196.3508 L353.4114,192.7917 L353.686,189.2035 L354.4099,185.6575 L354.3666,182.0396 L354.7793,178.4644 L354.628,178.4458 L355.2506,175.4489 L355.2263,172.3729 L355.6621,169.3531 L356.548,166.3885 L356.6323,163.3257 L356.823,163.3595 L357.3683,161.0484 L357.3206,158.6319 L358.0157,156.3474 L358.5489,154.0341 L358.7051,151.6539 L358.5165,151.5615 L359.6629,149.6012 L360.7476,147.6107 L361.9535,145.6796 L362.6878,143.5175 L363.6855,141.4844 L363.6855,141.8955 L365.6855,140.9921 L367.6855,140.8824 L369.6855,141.932 L371.6855,140.8471 L373.6855,141.4844" fill="none" style="stroke:#FF9900;stroke-width:1;"/><a href="/use-case/construction-project-quotations/estimating-and-pricing/" target="_top" title="/use-case/construction-project-quotations/estimating-and-pricing/" xlink:actuate="onRequest" xlink:href="/use-case/construction-project-quotations/estimating-and-pricing/" xlink:show="new" xlink:title="/use-case/construction-project-quotations/estimating-and-pricing/" xlink:type="simple"><text fill="#90EE90" font-family="'Roboto'" font-size="14" lengthAdjust="spacing" textLength="142.126" x="380.6855" y="277.8154">Estimating &amp; Pricing</text></a><a href="/use-case/construction-project-quotations/estimating-and-pricing/quantity-takeoff/" target="_top" title="/use-case/construction-project-quotations/estimating-and-pricing/quantity-takeoff/" xlink:actuate="onRequest" xlink:href="/use-case/construction-project-quotations/estimating-and-pricing/quantity-takeoff/" xlink:show="new" xlink:title="/use-case/construction-project-quotations/estimating-and-pricing/quantity-takeoff/" xlink:type="simple"><text fill="#90EE90" font-family="'Roboto'" font-size="14" lengthAdjust="spacing" textLength="207.2178" x="588.2617" y="212.0732">Quantity Takeoff (2D/3D/BIM)</text></a><path d="M531.2617,272.9688 L531.2617,273.1556 L533.2617,272.6005 L535.2617,273.1406 L537.2617,273.324 L539.2617,272.3346 L541.2617,272.9688 L541.2617,272.9688 L541.2356,272.9461 L542.8998,270.7901 L544.6954,268.7482 L546.5826,266.7856 L548.1546,264.5497 L550.168,262.6965 L550.4033,262.7685 L550.5446,260.5087 L551.373,258.4592 L552.2851,256.4353 L552.7096,254.2622 L553.3906,252.1675 L553.4201,252.1745 L553.951,249.7503 L554.6163,247.3579 L555.2167,244.9502 L555.9407,242.5719 L556.2617,240.0977 L556.5519,240.1667 L557.1296,237.7535 L557.5203,235.2959 L558.1848,232.9034 L558.8622,230.514 L559.1328,228.0278 L558.8263,227.934 L560.0657,226.0103 L560.2959,223.7776 L561.2933,221.7798 L561.5006,219.5402 L562.3555,217.4988 L562.3325,217.4788 L564.3858,215.6603 L565.9016,213.3757 L567.7346,211.3661 L569.5942,209.3796 L571.2617,207.2266 L571.2617,207.5965 L573.2617,207.2231 L575.2617,207.4819 L577.2617,206.7177 L579.2617,207.4794 L581.2617,207.2266" fill="none" style="stroke:#FF9900;stroke-width:1;"/><a href="/use-case/construction-project-quotations/estimating-and-pricing/unit-rates-and-cost-libraries/" target="_top" title="/use-case/construction-project-quotations/estimating-and-pricing/unit-rates-and-cost-libraries/" xlink:actuate="onRequest" xlink:href="/use-case/construction-project-quotations/estimating-and-pricing/unit-rates-and-cost-libraries/" xlink:show="new" xlink:title="/use-case/construction-project-quotations/estimating-and-pricing/unit-rates-and-cost-libraries/" xlink:type="simple"><text fill="#90EE90" font-family="'Roboto'" font-size="14" lengthAdjust="spacing" textLength="188.5078" x="588.2617" y="238.3701">Unit Rates &amp; Cost Libraries</text></a><path d="M531.2617,272.9688 L531.2617,273.1556 L533.2617,272.6005 L535.2617,273.1406 L537.2617,273.324 L539.2617,272.3346 L541.2617,272.9688 L541.2617,272.9688 L541.2421,272.9403 L542.9351,271.5802 L544.7272,270.3633 L546.5882,269.2458 L548.2119,267.7854 L550.168,266.8054 L550.3924,266.9063 L551.1312,263.9787 L552.5253,261.3457 L553.9993,258.7485 L555.0082,255.9423 L556.2617,253.2461 L556.2894,253.2585 L557.4675,250.5284 L558.7716,247.8549 L560.0149,245.1541 L561.3742,242.5053 L562.3555,239.6868 L562.5252,239.932 L564.3085,238.7023 L565.9824,237.3145 L567.8165,236.1582 L569.6581,235.0127 L571.2617,233.5234 L571.2617,232.8824 L573.2617,234.1266 L575.2617,233.2599 L577.2617,233.9979 L579.2617,233.0834 L581.2617,233.5234" fill="none" style="stroke:#FF9900;stroke-width:1;"/><a href="/use-case/construction-project-quotations/estimating-and-pricing/labor-productivity-and-crew-modeling/" target="_top" title="/use-case/construction-project-quotations/estimating-and-pricing/labor-productivity-and-crew-modeling/" xlink:actuate="onRequest" xlink:href="/use-case/construction-project-quotations/estimating-and-pricing/labor-productivity-and-crew-modeling/" xlink:show="new" xlink:title="/use-case/construction-project-quotations/estimating-and-pricing/labor-productivity-and-crew-modeling/" xlink:type="simple"><text fill="#90EE90" font-family="'Roboto'" font-size="14" lengthAdjust="spacing" textLength="251.1318" x="588.2617" y="264.667">Labor Productivity &amp; Crew Modeling</text></a><path d="M531.2617,272.9688 L531.2617,273.1556 L533.2617,272.6005 L535.2617,273.1406 L537.2617,273.324 L539.2617,272.3346 L541.2617,272.9688 L541.2617,272.9688 L541.2479,272.9371 L544.1856,271.4803 L547.1933,270.183 L550.2496,268.9965 L553.1384,267.4279 L556.2617,266.3945 L556.3605,266.6199 L559.1493,264.8231 L562.2264,263.6843 L565.3388,262.6258 L568.2464,261.1002 L571.2617,259.8203 L571.2617,259.881 L573.2617,259.7919 L575.2617,259.979 L577.2617,260.0329 L579.2617,260.3409 L581.2617,259.8203" fill="none" style="stroke:#FF9900;stroke-width:1;"/><a href="/use-case/construction-project-quotations/estimating-and-pricing/indirects-overheads-general-conditions/" target="_top" title="/use-case/construction-project-quotations/estimating-and-pricing/indirects-overheads-general-conditions/" xlink:actuate="onRequest" xlink:href="/use-case/construction-project-quotations/estimating-and-pricing/indirects-overheads-general-conditions/" xlink:show="new" xlink:title="/use-case/construction-project-quotations/estimating-and-pricing/indirects-overheads-general-conditions/" xlink:type="simple"><text fill="#90EE90" font-family="'Roboto'" font-size="14" lengthAdjust="spacing" textLength="298.9902" x="588.2617" y="290.9639">Indirects, Overheads &amp; General Conditions</text></a><path d="M531.2617,272.9688 L531.2617,273.1556 L533.2617,272.6005 L535.2617,273.1406 L537.2617,273.324 L539.2617,272.3346 L541.2617,272.9688 L541.2617,272.9688 L541.2479,272.9371 L544.1856,274.11 L547.1933,275.4423 L550.2496,276.8855 L553.1384,277.9467 L556.2617,279.543 L556.3605,279.7683 L559.1493,280.6012 L562.2264,282.0922 L565.3388,283.6633 L568.2464,284.7674 L571.2617,286.1172 L571.2617,286.1778 L573.2617,286.0888 L575.2617,286.2759 L577.2617,286.3298 L579.2617,286.6378 L581.2617,286.1172" fill="none" style="stroke:#FF9900;stroke-width:1;"/><a href="/use-case/construction-project-quotations/estimating-and-pricing/contingency-and-escalation/" target="_top" title="/use-case/construction-project-quotations/estimating-and-pricing/contingency-and-escalation/" xlink:actuate="onRequest" xlink:href="/use-case/construction-project-quotations/estimating-and-pricing/contingency-and-escalation/" xlink:show="new" xlink:title="/use-case/construction-project-quotations/estimating-and-pricing/contingency-and-escalation/" xlink:type="simple"><text fill="#90EE90" font-family="'Roboto'" font-size="14" lengthAdjust="spacing" textLength="179.3408" x="588.2617" y="317.2607">Contingency &amp; Escalation</text></a><path d="M531.2617,272.9688 L531.2617,273.1556 L533.2617,272.6005 L535.2617,273.1406 L537.2617,273.324 L539.2617,272.3346 L541.2617,272.9688 L541.2617,272.9688 L541.2421,272.9403 L542.9351,274.0455 L544.7272,275.2939 L546.5882,276.6418 L548.2119,277.6467 L550.168,279.1321 L550.3924,279.2329 L551.1312,281.7291 L552.5253,284.5198 L553.9993,287.3464 L555.0082,289.9639 L556.2617,292.6914 L556.2894,292.7038 L557.4675,295.3975 L558.7716,298.1477 L560.0149,300.8706 L561.3742,303.6456 L562.3555,306.2507 L562.5252,306.496 L564.3085,307.7316 L565.9824,308.8091 L567.8165,310.1182 L569.6581,311.438 L571.2617,312.4141 L571.2617,311.773 L573.2617,313.0172 L575.2617,312.1505 L577.2617,312.8886 L579.2617,311.974 L581.2617,312.4141" fill="none" style="stroke:#FF9900;stroke-width:1;"/><a href="/use-case/construction-project-quotations/estimating-and-pricing/pricing-strategy-margin-markups/" target="_top" title="/use-case/construction-project-quotations/estimating-and-pricing/pricing-strategy-margin-markups/" xlink:actuate="onRequest" xlink:href="/use-case/construction-project-quotations/estimating-and-pricing/pricing-strategy-margin-markups/" xlink:show="new" xlink:title="/use-case/construction-project-quotations/estimating-and-pricing/pricing-strategy-margin-markups/" xlink:type="simple"><text fill="#90EE90" font-family="'Roboto'" font-size="14" lengthAdjust="spacing" textLength="239.5996" x="588.2617" y="343.5576">Pricing Strategy (Margin/Markups)</text></a><path d="M531.2617,272.9688 L531.2617,273.1556 L533.2617,272.6005 L535.2617,273.1406 L537.2617,273.324 L539.2617,272.3346 L541.2617,272.9688 L541.2617,272.9688 L541.2356,272.9461 L542.8998,274.899 L544.6954,276.966 L546.5826,279.1122 L548.1546,280.9852 L550.168,283.241 L550.4033,283.313 L550.5446,285.2648 L551.373,287.4269 L552.2851,289.6146 L552.7096,291.653 L553.3906,293.77 L553.4201,293.777 L553.951,296.1807 L554.6163,298.6163 L555.2167,301.0365 L555.9407,303.4861 L556.2617,305.8398 L556.5519,305.9089 L557.1296,308.3237 L557.5203,310.694 L558.1848,313.1294 L558.8622,315.568 L559.1328,317.9097 L558.8263,317.8159 L560.0657,320.1038 L560.2959,322.0827 L561.2933,324.2965 L561.5006,326.2685 L562.3555,328.4387 L562.3325,328.4188 L564.3858,330.7091 L565.9016,332.5334 L567.7346,334.6327 L569.5942,336.7551 L571.2617,338.7109 L571.2617,339.0809 L573.2617,338.7075 L575.2617,338.9662 L577.2617,338.2021 L579.2617,338.9637 L581.2617,338.7109" fill="none" style="stroke:#FF9900;stroke-width:1;"/><path d="M323.6855,378.1563 L323.6855,378.3431 L325.6855,377.788 L327.6855,378.3281 L329.6855,378.5115 L331.6855,377.5221 L333.6855,378.1563 L333.6855,378.1563 L333.6552,378.1398 L335.3001,374.7788 L337.0982,371.5008 L339.0027,368.2805 L340.5404,364.8614 L342.5918,361.7207 L342.8335,361.7669 L342.9612,358.2988 L343.7945,354.9656 L344.7139,351.6489 L345.1325,348.2364 L345.8145,344.8743 L345.8445,344.8787 L346.3746,341.0098 L347.0414,337.1612 L347.6422,333.3028 L348.3688,329.4631 L348.6855,325.5625 L348.9806,325.6064 L349.5584,321.7445 L349.9459,317.8544 L350.612,314.0057 L351.2911,310.159 L351.5566,306.2507 L351.2418,306.1905 L352.4974,302.9381 L352.7163,299.4874 L353.7233,296.1874 L353.9187,292.7322 L354.7793,289.4043 L354.7525,289.3898 L356.8503,286.2742 L358.3228,282.8198 L360.1642,279.5653 L362.0366,276.3276 L363.6855,272.9688 L363.6855,273.3387 L365.6855,272.9653 L367.6855,273.2241 L369.6855,272.4599 L371.6855,273.2215 L373.6855,272.9688" fill="none" style="stroke:#FF9900;stroke-width:1;"/><a href="/use-case/construction-project-quotations/supply-chain-and-subcontractors/" target="_top" title="/use-case/construction-project-quotations/supply-chain-and-subcontractors/" xlink:actuate="onRequest" xlink:href="/use-case/construction-project-quotations/supply-chain-and-subcontractors/" xlink:show="new" xlink:title="/use-case/construction-project-quotations/supply-chain-and-subcontractors/" xlink:type="simple"><text fill="#90EE90" font-family="'Roboto'" font-size="14" lengthAdjust="spacing" textLength="218.374" x="380.6855" y="409.2998">Supply Chain &amp; Subcontractors</text></a><a href="/use-case/construction-project-quotations/supply-chain-and-subcontractors/supplier-rfqs-and-material-pricing/" target="_top" title="/use-case/construction-project-quotations/supply-chain-and-subcontractors/supplier-rfqs-and-material-pricing/" xlink:actuate="onRequest" xlink:href="/use-case/construction-project-quotations/supply-chain-and-subcontractors/supplier-rfqs-and-material-pricing/" xlink:show="new" xlink:title="/use-case/construction-project-quotations/supply-chain-and-subcontractors/supplier-rfqs-and-material-pricing/" xlink:type="simple"><text fill="#90EE90" font-family="'Roboto'" font-size="14" lengthAdjust="spacing" textLength="226.8027" x="664.5098" y="369.8545">Supplier RFQs &amp; Material Pricing</text></a><path d="M607.5098,404.4531 L607.5098,404.64 L609.5098,404.0848 L611.5098,404.6249 L613.5098,404.8084 L615.5098,403.819 L617.5098,404.4531 L617.5098,404.4531 L617.4901,404.4247 L619.1832,403.0646 L620.9753,401.8476 L622.8363,400.7302 L624.4599,399.2698 L626.416,398.2898 L626.6405,398.3907 L627.3793,395.4631 L628.7733,392.83 L630.2474,390.2329 L631.2562,387.4267 L632.5098,384.7305 L632.5374,384.7429 L633.7156,382.0128 L635.0196,379.3393 L636.263,376.6384 L637.6222,373.9897 L638.6035,371.1711 L638.7732,371.4164 L640.5566,370.1867 L642.2304,368.7989 L644.0645,367.6426 L645.9061,366.4971 L647.5098,365.0078 L647.5098,364.3668 L649.5098,365.6109 L651.5098,364.7443 L653.5098,365.4823 L655.5098,364.5678 L657.5098,365.0078" fill="none" style="stroke:#FF9900;stroke-width:1;"/><a href="/use-case/construction-project-quotations/supply-chain-and-subcontractors/subcontractor-scope-packages/" target="_top" title="/use-case/construction-project-quotations/supply-chain-and-subcontractors/subcontractor-scope-packages/" xlink:actuate="onRequest" xlink:href="/use-case/construction-project-quotations/supply-chain-and-subcontractors/subcontractor-scope-packages/" xlink:show="new" xlink:title="/use-case/construction-project-quotations/supply-chain-and-subcontractors/subcontractor-scope-packages/" xlink:type="simple"><text fill="#90EE90" font-family="'Roboto'" font-size="14" lengthAdjust="spacing" textLength="216.8633" x="664.5098" y="396.1514">Subcontractor Scope Packages</text></a><path d="M607.5098,404.4531 L607.5098,404.64 L609.5098,404.0848 L611.5098,404.6249 L613.5098,404.8084 L615.5098,403.819 L617.5098,404.4531 L617.5098,404.4531 L617.4959,404.4215 L620.4337,402.9647 L623.4413,401.6673 L626.4976,400.4808 L629.3864,398.9123 L632.5098,397.8789 L632.6085,398.1043 L635.3973,396.3075 L638.4745,395.1687 L641.5868,394.1102 L644.4945,392.5846 L647.5098,391.3047 L647.5098,391.3653 L649.5098,391.2763 L651.5098,391.4634 L653.5098,391.5173 L655.5098,391.8253 L657.5098,391.3047" fill="none" style="stroke:#FF9900;stroke-width:1;"/><a href="/use-case/construction-project-quotations/supply-chain-and-subcontractors/subcontractor-bid-solicitation-and-comparison/" target="_top" title="/use-case/construction-project-quotations/supply-chain-and-subcontractors/subcontractor-bid-solicitation-and-comparison/" xlink:actuate="onRequest" xlink:href="/use-case/construction-project-quotations/supply-chain-and-subcontractors/subcontractor-bid-solicitation-and-comparison/" xlink:show="new" xlink:title="/use-case/construction-project-quotations/supply-chain-and-subcontractors/subcontractor-bid-solicitation-and-comparison/" xlink:type="simple"><text fill="#90EE90" font-family="'Roboto'" font-size="14" lengthAdjust="spacing" textLength="311.7393" x="664.5098" y="422.4482">Subcontractor Bid Solicitation &amp; Comparison</text></a><path d="M607.5098,404.4531 L607.5098,404.64 L609.5098,404.0848 L611.5098,404.6249 L613.5098,404.8084 L615.5098,403.819 L617.5098,404.4531 L617.5098,404.4531 L617.4959,404.4215 L620.4337,405.5944 L623.4413,406.9267 L626.4976,408.3699 L629.3864,409.4311 L632.5098,411.0273 L632.6085,411.2527 L635.3973,412.0856 L638.4745,413.5765 L641.5868,415.1477 L644.4945,416.2518 L647.5098,417.6016 L647.5098,417.6622 L649.5098,417.5732 L651.5098,417.7603 L653.5098,417.8141 L655.5098,418.1222 L657.5098,417.6016" fill="none" style="stroke:#FF9900;stroke-width:1;"/><a href="/use-case/construction-project-quotations/supply-chain-and-subcontractors/bid-leveling/" target="_top" title="/use-case/construction-project-quotations/supply-chain-and-subcontractors/bid-leveling/" xlink:actuate="onRequest" xlink:href="/use-case/construction-project-quotations/supply-chain-and-subcontractors/bid-leveling/" xlink:show="new" xlink:title="/use-case/construction-project-quotations/supply-chain-and-subcontractors/bid-leveling/" xlink:type="simple"><text fill="#90EE90" font-family="'Roboto'" font-size="14" lengthAdjust="spacing" textLength="257.6875" x="664.5098" y="448.7451">Bid Leveling &amp; Comparative Analysis</text></a><path d="M607.5098,404.4531 L607.5098,404.64 L609.5098,404.0848 L611.5098,404.6249 L613.5098,404.8084 L615.5098,403.819 L617.5098,404.4531 L617.5098,404.4531 L617.4901,404.4247 L619.1832,405.5299 L620.9753,406.7783 L622.8363,408.1262 L624.4599,409.1311 L626.416,410.6165 L626.6405,410.7173 L627.3793,413.2135 L628.7733,416.0042 L630.2474,418.8307 L631.2562,421.4483 L632.5098,424.1758 L632.5374,424.1882 L633.7156,426.8818 L635.0196,429.632 L636.263,432.3549 L637.6222,435.1299 L638.6035,437.7351 L638.7732,437.9804 L640.5566,439.216 L642.2304,440.2935 L644.0645,441.6025 L645.9061,442.9224 L647.5098,443.8984 L647.5098,443.2574 L649.5098,444.5016 L651.5098,443.6349 L653.5098,444.3729 L655.5098,443.4584 L657.5098,443.8984" fill="none" style="stroke:#FF9900;stroke-width:1;"/><path d="M323.6855,378.1563 L323.6855,378.3431 L325.6855,377.788 L327.6855,378.3281 L329.6855,378.5115 L331.6855,377.5221 L333.6855,378.1563 L333.6855,378.1563 L333.6628,378.1303 L336.5606,380.6434 L339.5732,383.2875 L342.6656,386.0225 L345.483,388.4439 L348.6855,391.3047 L348.8477,391.4897 L351.5009,393.7237 L354.6276,396.498 L357.8121,399.3381 L360.6604,401.7948 L363.6855,404.4531 L363.6855,404.5138 L365.6855,404.4247 L367.6855,404.6118 L369.6855,404.6657 L371.6855,404.9737 L373.6855,404.4531" fill="none" style="stroke:#FF9900;stroke-width:1;"/><a href="/use-case/construction-project-quotations/risk-compliance-and-contracts/" target="_top" title="/use-case/construction-project-quotations/risk-compliance-and-contracts/" xlink:actuate="onRequest" xlink:href="/use-case/construction-project-quotations/risk-compliance-and-contracts/" xlink:show="new" xlink:title="/use-case/construction-project-quotations/risk-compliance-and-contracts/" xlink:type="simple"><text fill="#90EE90" font-family="'Roboto'" font-size="14" lengthAdjust="spacing" textLength="207.6621" x="380.6855" y="514.4873">Risk, Compliance &amp; Contracts</text></a><a href="/use-case/construction-project-quotations/risk-compliance-and-contracts/risk-register-and-scenario-analysis/" target="_top" title="/use-case/construction-project-quotations/risk-compliance-and-contracts/risk-register-and-scenario-analysis/" xlink:actuate="onRequest" xlink:href="/use-case/construction-project-quotations/risk-compliance-and-contracts/risk-register-and-scenario-analysis/" xlink:show="new" xlink:title="/use-case/construction-project-quotations/risk-compliance-and-contracts/risk-register-and-scenario-analysis/" xlink:type="simple"><text fill="#90EE90" font-family="'Roboto'" font-size="14" lengthAdjust="spacing" textLength="234.5479" x="653.7979" y="475.042">Risk Register &amp; Scenario Analysis</text></a><path d="M596.7979,509.6406 L596.7979,509.8275 L598.7979,509.2723 L600.7979,509.8124 L602.7979,509.9959 L604.7979,509.0065 L606.7979,509.6406 L606.7979,509.6406 L606.7782,509.6122 L608.4712,508.2521 L610.2634,507.0351 L612.1244,505.9177 L613.748,504.4573 L615.7041,503.4773 L615.9285,503.5782 L616.6673,500.6506 L618.0614,498.0175 L619.5355,495.4204 L620.5443,492.6142 L621.7979,489.918 L621.8255,489.9304 L623.0037,487.2003 L624.3077,484.5268 L625.551,481.8259 L626.9103,479.1772 L627.8916,476.3586 L628.0613,476.6039 L629.8446,475.3742 L631.5185,473.9864 L633.3526,472.8301 L635.1942,471.6846 L636.7979,470.1953 L636.7979,469.5543 L638.7979,470.7984 L640.7979,469.9318 L642.7979,470.6698 L644.7979,469.7553 L646.7979,470.1953" fill="none" style="stroke:#FF9900;stroke-width:1;"/><a href="/use-case/construction-project-quotations/risk-compliance-and-contracts/regulatory-safety-environmental-compliance/" target="_top" title="/use-case/construction-project-quotations/risk-compliance-and-contracts/regulatory-safety-environmental-compliance/" xlink:actuate="onRequest" xlink:href="/use-case/construction-project-quotations/risk-compliance-and-contracts/regulatory-safety-environmental-compliance/" xlink:show="new" xlink:title="/use-case/construction-project-quotations/risk-compliance-and-contracts/regulatory-safety-environmental-compliance/" xlink:type="simple"><text fill="#90EE90" font-family="'Roboto'" font-size="14" lengthAdjust="spacing" textLength="339.1924" x="653.7979" y="501.3389">Regulatory, Safety &amp; Environmental Compliance</text></a><path d="M596.7979,509.6406 L596.7979,509.8275 L598.7979,509.2723 L600.7979,509.8124 L602.7979,509.9959 L604.7979,509.0065 L606.7979,509.6406 L606.7979,509.6406 L606.784,509.609 L609.7218,508.1522 L612.7294,506.8548 L615.7857,505.6683 L618.6745,504.0998 L621.7979,503.0664 L621.8966,503.2918 L624.6854,501.495 L627.7626,500.3562 L630.8749,499.2977 L633.7825,497.7721 L636.7979,496.4922 L636.7979,496.5528 L638.7979,496.4638 L640.7979,496.6509 L642.7979,496.7048 L644.7979,497.0128 L646.7979,496.4922" fill="none" style="stroke:#FF9900;stroke-width:1;"/><a href="/use-case/construction-project-quotations/risk-compliance-and-contracts/contract-terms-and-commercial-review/" target="_top" title="/use-case/construction-project-quotations/risk-compliance-and-contracts/contract-terms-and-commercial-review/" xlink:actuate="onRequest" xlink:href="/use-case/construction-project-quotations/risk-compliance-and-contracts/contract-terms-and-commercial-review/" xlink:show="new" xlink:title="/use-case/construction-project-quotations/risk-compliance-and-contracts/contract-terms-and-commercial-review/" xlink:type="simple"><text fill="#90EE90" font-family="'Roboto'" font-size="14" lengthAdjust="spacing" textLength="267.415" x="653.7979" y="527.6357">Contract Terms &amp; Commercial Review</text></a><path d="M596.7979,509.6406 L596.7979,509.8275 L598.7979,509.2723 L600.7979,509.8124 L602.7979,509.9959 L604.7979,509.0065 L606.7979,509.6406 L606.7979,509.6406 L606.784,509.609 L609.7218,510.7819 L612.7294,512.1142 L615.7857,513.5574 L618.6745,514.6186 L621.7979,516.2148 L621.8966,516.4402 L624.6854,517.2731 L627.7626,518.764 L630.8749,520.3352 L633.7825,521.4393 L636.7979,522.7891 L636.7979,522.8497 L638.7979,522.7607 L640.7979,522.9478 L642.7979,523.0016 L644.7979,523.3097 L646.7979,522.7891" fill="none" style="stroke:#FF9900;stroke-width:1;"/><a href="/use-case/construction-project-quotations/risk-compliance-and-contracts/bonds-insurance-warranties/" target="_top" title="/use-case/construction-project-quotations/risk-compliance-and-contracts/bonds-insurance-warranties/" xlink:actuate="onRequest" xlink:href="/use-case/construction-project-quotations/risk-compliance-and-contracts/bonds-insurance-warranties/" xlink:show="new" xlink:title="/use-case/construction-project-quotations/risk-compliance-and-contracts/bonds-insurance-warranties/" xlink:type="simple"><text fill="#90EE90" font-family="'Roboto'" font-size="14" lengthAdjust="spacing" textLength="217.3008" x="653.7979" y="553.9326">Bonds, Insurance &amp; Warranties</text></a><path d="M596.7979,509.6406 L596.7979,509.8275 L598.7979,509.2723 L600.7979,509.8124 L602.7979,509.9959 L604.7979,509.0065 L606.7979,509.6406 L606.7979,509.6406 L606.7782,509.6122 L608.4712,510.7174 L610.2634,511.9658 L612.1244,513.3137 L613.748,514.3186 L615.7041,515.804 L615.9285,515.9048 L616.6673,518.401 L618.0614,521.1917 L619.5355,524.0182 L620.5443,526.6358 L621.7979,529.3633 L621.8255,529.3757 L623.0037,532.0693 L624.3077,534.8195 L625.551,537.5424 L626.9103,540.3174 L627.8916,542.9226 L628.0613,543.1679 L629.8446,544.4035 L631.5185,545.481 L633.3526,546.79 L635.1942,548.1099 L636.7979,549.0859 L636.7979,548.4449 L638.7979,549.6891 L640.7979,548.8224 L642.7979,549.5604 L644.7979,548.6459 L646.7979,549.0859" fill="none" style="stroke:#FF9900;stroke-width:1;"/><path d="M323.6855,378.1563 L323.6855,378.3431 L325.6855,377.788 L327.6855,378.3281 L329.6855,378.5115 L331.6855,377.5221 L333.6855,378.1563 L333.6855,378.1563 L333.6596,378.1334 L334.5394,379.1608 L335.5499,380.3034 L336.6511,381.5261 L337.4394,382.4728 L338.666,383.806 L338.904,383.8687 L339.1803,386.7135 L340.1513,389.7415 L341.2071,392.7917 L341.7698,395.712 L342.5918,398.7007 L342.6217,398.7057 L342.9132,400.6886 L343.3409,402.6944 L343.7029,404.6891 L344.1903,406.7049 L344.269,408.6519 L344.5644,408.693 L344.8771,410.9149 L344.9993,413.1102 L345.4004,415.3444 L345.8145,417.5804 L345.8145,419.7587 L345.4962,419.7209 L346.6881,424.6223 L346.832,429.399 L347.7727,434.2706 L347.8929,439.0445 L348.6855,443.8984 L348.6553,443.8948 L349.5871,448.7653 L349.8125,453.5518 L350.4547,458.3878 L351.1319,463.228 L351.5566,468.0381 L351.7399,468.0636 L351.864,470.2593 L352.3012,472.4985 L352.2319,474.6672 L352.9182,476.941 L353.1021,479.145 L353.3423,479.1855 L353.6323,481.1681 L354.0416,483.1707 L353.8967,485.08 L354.158,487.0578 L354.7793,489.0962 L354.5122,489.0258 L355.5391,492.0685 L356.2651,495.0318 L357.4276,498.1102 L357.8449,500.9922 L358.7051,503.9909 L358.5907,503.8901 L359.7773,505.1879 L360.4749,506.0548 L361.5203,507.2282 L362.9058,508.7014 L363.6855,509.6406 L363.6855,510.0279 L365.6855,510.2935 L367.6855,509.3546 L369.6855,509.9244 L371.6855,510.1654 L373.6855,509.6406" fill="none" style="stroke:#FF9900;stroke-width:1;"/><a href="/use-case/construction-project-quotations/proposal-submission-and-negotiation/" target="_top" title="/use-case/construction-project-quotations/proposal-submission-and-negotiation/" xlink:actuate="onRequest" xlink:href="/use-case/construction-project-quotations/proposal-submission-and-negotiation/" xlink:show="new" xlink:title="/use-case/construction-project-quotations/proposal-submission-and-negotiation/" xlink:type="simple"><text fill="#90EE90" font-family="'Roboto'" font-size="14" lengthAdjust="spacing" textLength="161.1094" x="380.6855" y="606.5264">Proposal &amp; Negotiation</text></a><a href="/use-case/construction-project-quotations/proposal-submission-and-negotiation/proposal-document-generation/" target="_top" title="/use-case/construction-project-quotations/proposal-submission-and-negotiation/proposal-document-generation/" xlink:actuate="onRequest" xlink:href="/use-case/construction-project-quotations/proposal-submission-and-negotiation/proposal-document-generation/" xlink:show="new" xlink:title="/use-case/construction-project-quotations/proposal-submission-and-negotiation/proposal-document-generation/" xlink:type="simple"><text fill="#90EE90" font-family="'Roboto'" font-size="14" lengthAdjust="spacing" textLength="306.8037" x="607.2451" y="580.2295">Proposal Document Generation &amp; Assembly</text></a><path d="M550.2451,601.6797 L550.2451,601.8665 L552.2451,601.3114 L554.2451,601.8515 L556.2451,602.035 L558.2451,601.0456 L560.2451,601.6797 L560.2451,601.6797 L560.2224,601.6537 L563.1202,598.9075 L566.1328,596.2921 L569.2251,593.7678 L572.0426,590.9299 L575.2451,588.5313 L575.4073,588.7163 L578.0605,585.6909 L581.1872,583.2058 L584.3717,580.7866 L587.22,577.9838 L590.2451,575.3828 L590.2451,575.4435 L592.2451,575.3544 L594.2451,575.5415 L596.2451,575.5954 L598.2451,575.9034 L600.2451,575.3828" fill="none" style="stroke:#FF9900;stroke-width:1;"/><a href="/use-case/construction-project-quotations/proposal-submission-and-negotiation/compliance-matrix-and-submission-packaging/" target="_top" title="/use-case/construction-project-quotations/proposal-submission-and-negotiation/compliance-matrix-and-submission-packaging/" xlink:actuate="onRequest" xlink:href="/use-case/construction-project-quotations/proposal-submission-and-negotiation/compliance-matrix-and-submission-packaging/" xlink:show="new" xlink:title="/use-case/construction-project-quotations/proposal-submission-and-negotiation/compliance-matrix-and-submission-packaging/" xlink:type="simple"><text fill="#90EE90" font-family="'Roboto'" font-size="14" lengthAdjust="spacing" textLength="307.2344" x="607.2451" y="606.5264">Compliance Matrix &amp; Submission Packaging</text></a><path d="M550.2451,601.6797 L550.2451,601.8665 L552.2451,601.3114 L554.2451,601.8515 L556.2451,602.035 L558.2451,601.0456 L560.2451,601.6797 L560.2451,601.6797 L560.2451,601.6451 L566.2451,601.4901 L572.2451,601.5092 L578.2451,601.6494 L584.2451,601.3724 L590.2451,601.6797 L590.2451,602.1718 L592.2451,601.1194 L594.2451,601.5039 L596.2451,602.0636 L598.2451,601.6034 L600.2451,601.6797" fill="none" style="stroke:#FF9900;stroke-width:1;"/><a href="/use-case/construction-project-quotations/proposal-submission-and-negotiation/negotiation-support-and-revisions/" target="_top" title="/use-case/construction-project-quotations/proposal-submission-and-negotiation/negotiation-support-and-revisions/" xlink:actuate="onRequest" xlink:href="/use-case/construction-project-quotations/proposal-submission-and-negotiation/negotiation-support-and-revisions/" xlink:show="new" xlink:title="/use-case/construction-project-quotations/proposal-submission-and-negotiation/negotiation-support-and-revisions/" xlink:type="simple"><text fill="#90EE90" font-family="'Roboto'" font-size="14" lengthAdjust="spacing" textLength="227.3564" x="607.2451" y="632.8232">Negotiation Support &amp; Revisions</text></a><path d="M550.2451,601.6797 L550.2451,601.8665 L552.2451,601.3114 L554.2451,601.8515 L556.2451,602.035 L558.2451,601.0456 L560.2451,601.6797 L560.2451,601.6797 L560.2224,601.6537 L563.1202,604.1668 L566.1328,606.8109 L569.2251,609.546 L572.0426,611.9674 L575.2451,614.8281 L575.4073,615.0132 L578.0605,617.2472 L581.1872,620.0214 L584.3717,622.8616 L587.22,625.3182 L590.2451,627.9766 L590.2451,628.0372 L592.2451,627.9482 L594.2451,628.1353 L596.2451,628.1891 L598.2451,628.4972 L600.2451,627.9766" fill="none" style="stroke:#FF9900;stroke-width:1;"/><path d="M323.6855,378.1563 L323.6855,378.3431 L325.6855,377.788 L327.6855,378.3281 L329.6855,378.5115 L331.6855,377.5221 L333.6855,378.1563 L333.6855,378.1563 L333.6549,378.1404 L334.5134,379.9899 L335.5264,381.9196 L336.6469,383.905 L337.3971,385.6984 L338.666,387.7608 L338.9078,387.8062 L338.8053,389.9137 L339.4087,392.1539 L340.0983,394.4103 L340.2868,396.5724 L340.7388,398.7841 L340.7688,398.788 L341.0953,401.6418 L341.5587,404.5134 L341.956,407.3764 L342.4793,410.2557 L342.5918,413.0818 L342.8886,413.1112 L343.2277,416.495 L343.3753,419.8598 L343.8032,423.2523 L344.2442,426.6462 L344.269,429.9988 L343.9496,429.9727 L344.8787,433.7998 L344.7559,437.5407 L345.4327,441.3472 L345.2861,445.0862 L345.8145,448.8805 L345.7841,448.8783 L346.7175,457.111 L346.9413,465.294 L347.5838,473.5062 L348.2615,481.721 L348.6855,489.918 L348.8701,489.9309 L349.258,498.1253 L349.9613,506.3419 L350.1544,514.5227 L351.1085,522.7568 L351.5566,530.9555 L351.7995,530.9753 L352.0626,534.7479 L352.4464,538.5303 L352.2699,542.2669 L352.5041,546.0371 L353.1021,549.8371 L352.8272,549.8098 L353.4115,553.2179 L353.686,556.5953 L354.4098,560.0172 L354.3666,563.3631 L354.7793,566.7542 L354.6281,566.7346 L355.2505,569.6267 L355.2266,572.4351 L355.6623,575.3031 L356.5477,578.2293 L356.6323,581.0518 L356.8226,581.0876 L357.3677,583.3168 L357.3209,585.4347 L358.0154,587.692 L358.5484,589.919 L358.7051,592.0752 L358.5187,591.9785 L359.6634,593.9765 L360.747,595.9427 L361.9505,597.9712 L362.6878,599.7579 L363.6855,601.6797 L363.6855,602.0909 L365.6855,601.1874 L367.6855,601.0777 L369.6855,602.1273 L371.6855,601.0424 L373.6855,601.6797" fill="none" style="stroke:#FF9900;stroke-width:1;"/><a href="/use-case/construction-project-quotations/knowledge-capture-and-improvement/" target="_top" title="/use-case/construction-project-quotations/knowledge-capture-and-improvement/" xlink:actuate="onRequest" xlink:href="/use-case/construction-project-quotations/knowledge-capture-and-improvement/" xlink:show="new" xlink:title="/use-case/construction-project-quotations/knowledge-capture-and-improvement/" xlink:type="simple"><text fill="#90EE90" font-family="'Roboto'" font-size="14" lengthAdjust="spacing" textLength="335.207" x="380.6855" y="698.5654">Knowledge Capture &amp; Continuous Improvement</text></a><a href="/use-case/construction-project-quotations/knowledge-capture-and-improvement/sme-knowledge-capture/" target="_top" title="/use-case/construction-project-quotations/knowledge-capture-and-improvement/sme-knowledge-capture/" xlink:actuate="onRequest" xlink:href="/use-case/construction-project-quotations/knowledge-capture-and-improvement/sme-knowledge-capture/" xlink:show="new" xlink:title="/use-case/construction-project-quotations/knowledge-capture-and-improvement/sme-knowledge-capture/" xlink:type="simple"><text fill="#90EE90" font-family="'Roboto'" font-size="14" lengthAdjust="spacing" textLength="171.6436" x="781.3428" y="659.1201">SME Knowledge Capture</text></a><path d="M724.3428,693.7188 L724.3428,693.9056 L726.3428,693.3505 L728.3428,693.8906 L730.3428,694.074 L732.3428,693.0846 L734.3428,693.7188 L734.3428,693.7188 L734.3231,693.6903 L736.0162,692.3302 L737.8083,691.1133 L739.6693,689.9958 L741.2929,688.5354 L743.249,687.5554 L743.4735,687.6563 L744.2123,684.7287 L745.6064,682.0957 L747.0804,679.4985 L748.0893,676.6923 L749.3428,673.9961 L749.3704,674.0085 L750.5486,671.2784 L751.8526,668.6049 L753.096,665.9041 L754.4552,663.2553 L755.4365,660.4368 L755.6062,660.682 L757.3896,659.4523 L759.0634,658.0645 L760.8975,656.9082 L762.7391,655.7627 L764.3428,654.2734 L764.3428,653.6324 L766.3428,654.8766 L768.3428,654.0099 L770.3428,654.7479 L772.3428,653.8334 L774.3428,654.2734" fill="none" style="stroke:#FF9900;stroke-width:1;"/><a href="/use-case/construction-project-quotations/knowledge-capture-and-improvement/document-ingestion-and-knowledge-extraction/" target="_top" title="/use-case/construction-project-quotations/knowledge-capture-and-improvement/document-ingestion-and-knowledge-extraction/" xlink:actuate="onRequest" xlink:href="/use-case/construction-project-quotations/knowledge-capture-and-improvement/document-ingestion-and-knowledge-extraction/" xlink:show="new" xlink:title="/use-case/construction-project-quotations/knowledge-capture-and-improvement/document-ingestion-and-knowledge-extraction/" xlink:type="simple"><text fill="#90EE90" font-family="'Roboto'" font-size="14" lengthAdjust="spacing" textLength="314.2891" x="781.3428" y="685.417">Document Ingestion &amp; Knowledge Extraction</text></a><path d="M724.3428,693.7188 L724.3428,693.9056 L726.3428,693.3505 L728.3428,693.8906 L730.3428,694.074 L732.3428,693.0846 L734.3428,693.7188 L734.3428,693.7188 L734.3289,693.6871 L737.2667,692.2303 L740.2744,690.933 L743.3306,689.7465 L746.2194,688.1779 L749.3428,687.1445 L749.4415,687.3699 L752.2303,685.5731 L755.3075,684.4343 L758.4198,683.3758 L761.3275,681.8502 L764.3428,680.5703 L764.3428,680.631 L766.3428,680.5419 L768.3428,680.729 L770.3428,680.7829 L772.3428,681.0909 L774.3428,680.5703" fill="none" style="stroke:#FF9900;stroke-width:1;"/><a href="/use-case/construction-project-quotations/knowledge-capture-and-improvement/traceability-and-provenance/" target="_top" title="/use-case/construction-project-quotations/knowledge-capture-and-improvement/traceability-and-provenance/" xlink:actuate="onRequest" xlink:href="/use-case/construction-project-quotations/knowledge-capture-and-improvement/traceability-and-provenance/" xlink:show="new" xlink:title="/use-case/construction-project-quotations/knowledge-capture-and-improvement/traceability-and-provenance/" xlink:type="simple"><text fill="#90EE90" font-family="'Roboto'" font-size="14" lengthAdjust="spacing" textLength="184.2217" x="781.3428" y="711.7139">Traceability &amp; Provenance</text></a><path d="M724.3428,693.7188 L724.3428,693.9056 L726.3428,693.3505 L728.3428,693.8906 L730.3428,694.074 L732.3428,693.0846 L734.3428,693.7188 L734.3428,693.7188 L734.3289,693.6871 L737.2667,694.86 L740.2744,696.1923 L743.3306,697.6355 L746.2194,698.6967 L749.3428,700.293 L749.4415,700.5183 L752.2303,701.3512 L755.3075,702.8422 L758.4198,704.4133 L761.3275,705.5174 L764.3428,706.8672 L764.3428,706.9278 L766.3428,706.8388 L768.3428,707.0259 L770.3428,707.0798 L772.3428,707.3878 L774.3428,706.8672" fill="none" style="stroke:#FF9900;stroke-width:1;"/><a href="/use-case/construction-project-quotations/knowledge-capture-and-improvement/estimate-vs-actual-and-lessons-learned/" target="_top" title="/use-case/construction-project-quotations/knowledge-capture-and-improvement/estimate-vs-actual-and-lessons-learned/" xlink:actuate="onRequest" xlink:href="/use-case/construction-project-quotations/knowledge-capture-and-improvement/estimate-vs-actual-and-lessons-learned/" xlink:show="new" xlink:title="/use-case/construction-project-quotations/knowledge-capture-and-improvement/estimate-vs-actual-and-lessons-learned/" xlink:type="simple"><text fill="#90EE90" font-family="'Roboto'" font-size="14" lengthAdjust="spacing" textLength="267.5449" x="781.3428" y="738.0107">Estimate vs Actual &amp; Lessons Learned</text></a><path d="M724.3428,693.7188 L724.3428,693.9056 L726.3428,693.3505 L728.3428,693.8906 L730.3428,694.074 L732.3428,693.0846 L734.3428,693.7188 L734.3428,693.7188 L734.3231,693.6903 L736.0162,694.7955 L737.8083,696.0439 L739.6693,697.3918 L741.2929,698.3967 L743.249,699.8821 L743.4735,699.9829 L744.2123,702.4791 L745.6064,705.2698 L747.0804,708.0964 L748.0893,710.7139 L749.3428,713.4414 L749.3704,713.4538 L750.5486,716.1475 L751.8526,718.8977 L753.096,721.6206 L754.4552,724.3956 L755.4365,727.0007 L755.6062,727.246 L757.3896,728.4816 L759.0634,729.5591 L760.8975,730.8682 L762.7391,732.188 L764.3428,733.1641 L764.3428,732.523 L766.3428,733.7672 L768.3428,732.9005 L770.3428,733.6386 L772.3428,732.724 L774.3428,733.1641" fill="none" style="stroke:#FF9900;stroke-width:1;"/><path d="M323.6855,378.1563 L323.6855,378.3431 L325.6855,377.788 L327.6855,378.3281 L329.6855,378.5115 L331.6855,377.5221 L333.6855,378.1563 L333.6855,378.1563 L333.6531,378.1443 L334.5037,380.8028 L335.5177,383.5212 L336.6454,386.2814 L337.3815,388.8978 L338.666,391.7156 L338.9099,391.7481 L338.8029,394.7911 L339.408,397.9289 L340.1,401.0784 L340.2864,404.1605 L340.7388,407.278 L340.769,407.2808 L341.0952,411.3137 L341.559,415.3592 L341.9564,419.3986 L342.4804,423.4497 L342.5918,427.4629 L342.8893,427.4838 L343.2284,432.2606 L343.3756,437.024 L343.8037,441.8071 L344.2449,446.5911 L344.269,451.3458 L343.9491,451.3272 L344.8792,456.6945 L344.7556,462.0007 L345.4331,467.3534 L345.2857,472.6582 L345.8145,478.0022 L345.7232,477.9977 L347.2806,487.707 L346.7066,497.3107 L347.3902,506.9768 L348.1795,516.6481 L348.7613,526.3091 L348.6855,535.9375 L348.6803,535.9372 L349.5465,545.6123 L348.8803,555.2115 L350.4998,564.9239 L351.3296,574.5972 L351.6701,584.2463 L351.5566,593.8728 L351.8286,593.8886 L351.6514,599.1917 L351.8854,604.5186 L352.2082,609.8507 L352.7668,615.1964 L353.1021,620.5292 L353.0149,620.5231 L353.7396,625.327 L353.6955,630.0769 L353.9563,634.8483 L354.5451,639.6426 L354.7793,644.4121 L354.4842,644.385 L354.9201,648.428 L355.8077,652.5124 L356.0839,656.5408 L356.5868,660.5899 L356.6323,664.597 L356.4906,664.5781 L357.1875,667.7282 L357.7215,670.8566 L357.6679,673.9067 L358.2483,677.0413 L358.7051,680.1594 L358.7576,680.1787 L359.9731,682.9712 L360.6955,685.5825 L361.8863,688.3659 L362.4584,690.922 L363.6855,693.7188 L363.6855,693.1167 L365.6855,694.1664 L367.6855,693.0815 L369.6855,694.1712 L371.6855,693.9024 L373.6855,693.7188" fill="none" style="stroke:#FF9900;stroke-width:1;"/><!--SRC=[xLfjRziu4lwkNy7R0Di4ZTP9Drti5ej5RSV9fhKJnqwxE2mM1IsDRLuaKY4b9xd3_VSRKfGiloUgrMlld2-sDGzd7ev6CqDbtggOoZXat0zfH3p1LImJBsQ2kv4K_m0lTkyI4LDzHJdEttmOCWwaSVwfKx-u_DIyQb_rYFdREpbwVJnuNOJqMyshozDwx-yMjmJIhJVVryzRkQ85o5NljDKhsY5xm-5FmwEZ779sTNap0p0G_USuwfRnY4eQaW7rRaTI9DnlYa3831XBoXKYWCS5yE-F4SWsuxT5BDaBs6WSZoG0TvmNX74lI7mWyHZ823X86f1SXI93N3WGyVYGc6M4Sf_uLDxYobWGCG5vBraCv9x5urG7cm0d2kAOyP6Qzy3DxnVDzvUjVfySusqGaRuXP8nAjPOO5mvfeA2mXoxrVLH4JWhNUkd-9P8bFnUkzyVK5_SQFQ_5U290JtpWlla25bB0dCAG9a5C_kMS2HvVqX38Tps1UnVVcIkf4wUtoLpiity2EJvn_btKL9TItAEUfIkMguaV0_IH2FnPJH7URZe2osbXQMCk6cRYsMa8YPkraa80eecf1IxyvwYV2VIdMV1460cEaObcIX9UoYxrMH86hsPzvjEO3gY2BPkRiU458l4hDI2204m2KritCxNIH80KGOKM6bebbOyLccZncCLL6c0y1Zca7bHeemzt2N0FkbZ6cCSYokDKsSsOURSSbCA4EOKh2qT6nHLhoIseNiApW9cc9IvaI8DvsS9sscm8M6nWfV8Si9QcIPuBoitLbPgDT2af8vdwy4UdxiL2Rc1W82jjQUcg1_W5QPuGxJKiGlXZR-DVyPcN-C1JFWhWrr-nMYd1V_iDxsyVWmz4Z0LiPVNOLbsOZxZvcZsReWfquG59SXfysZxlkUQh0lBgKSKGVdk-tZxlYdoT5UHlmzLJjj-UfmjXCh25DsKzrnZFxiBqi4URkxrIUr-_iRJ0-5IDmN_ANfTk5OzxCSMw8f-wL-pNruTI1JjTVmkBfHrFgSiwZUn8EJMU7G_hSIpP88bXKLGabHquvnfPgbJ5rbwGZZsOgmWyDcGURZ8jaGldaAVpsBWrEcqazixEVla5vNF2Oc_bE2_9dt-IMgB0zV3nhsruYL33vZcC0dZGJNGE9DqKIAvp8FdhB-Vboq_FKowYICWuuTZOkdWuTl5aZ9jriHEbjr0ZLrCn-PxS626vCCBKt7RjoM7aok5TRhvtrgtrpgupYz-JK-4beJxXDJ5v1c9K1Oa1yrqkNFtXOnGfN88HL2CDvjSkXOiVU8BFhrV1GB4Ot0bQY8qG7fZIxpXSrEep6nHz_IxaeyQWMreMeKF48af5W_941CQcnBwVIT2-riRqTRJJArmjj_4L5jBBw6vzX5Tc1-xzGBa3SPTPFoqAoVuVZNwj8QuFjae3KrGIcbT52htk1OaoN-yI6kXiaZsGzIdi47sVuT11rpF8hNAJGwPSpA9ogj-ble-1G_M3Se5KcZDIf5DFvLlbaI-Z0nRe-9KmON1VcwOdAy1eqO9IWGWOpY4rGQy9H1BFW_ePRENNSNVTz6gvtQsmWBVQdF9T_I2AuR2cRsbwxhz9hv3zLwUr7qzhZOlEmLPDwspWIgp9obpsX8hTW0qatbF0eFk0OjBJOjnw4uMadGctIYEW0o4rtjTB9rc6yYJSko7Mpi3SYBP6wIAKepGhn92EnMoL59PrfXinvUeNmMEWldBjE-IPh7YHuGx9LGP4OkVsTVDyUjmIEzqNuYTmB_KLA8y6PebvAZAPJjIvPAi4xAUBQp50HezkIEM8SVrncqJeb-nHwLi0sUyOHAsJ8WxAbOiaYe97rnjZKspug6IWVI6fVdMXwuO1aAO6uExxC-AIMMc3JIDdM4knZqWV9FGNI8Q1acUHliLWshpMuT6nYC_BA9kP5NwwQNQrhzsDgmfIM_AwLleb-EXsHua0zv-kjpaen2wMAHt8imHr5zGlm4rEoi3LyDKC0vZO1AG9jEslt3XgcW2fur7wKR5oBH1kuDRiEs2KUs3TaBB0szH3yM7QaHkvCMsbvRQztg2HIXXXVuSnRRpY0KSt2_oHRZCbXTKs1Uddp4BcFB5bPZ1AC9K9-UWgEWGi4y0dJ0gksmIJbhE5DStDOWz9tu1rBYp2YowjW6ps3Hjj6MRrDGn1UZen53eOWyA33gBIgBAOcMPckzm6M9GKjlugaKPwZqT6tNBehD3GiaCiQrQ8dFx8nQNY6ozX4usRngShP4fbZpg7aOYPBLfT2q9pbzFhvJR_58CvnhVdErlSvzZafx_pNAgRNAKW762PgOnUuTPXCP7i8KjFsO8qZPkyL8ZZZi6cTSyYRKelNMEUmhRmtTKv5G-QjekVc4ChXbNnflPJY3dTMK2fmBhbuZu0VwJXKPp8DCnPYD29EJhKoFiCWiTt0x7Pa_5498fSJB7blBEPWWh1NK1XRUkqbf2hY4CUuxejL7cjdIw41vCPJEpd8N-HWT5dKwgj75eLMwqVigDUsdEYYATv_QOWD0UoJ5GL6zl_WZl19Ex5UDesa02KqkVX0AZauEVdH20JHUe6X_JQAGe_3KfpV8l7OplCupXldpVRK-6mp5SybfAz5NtYJ4eHlaJ1CwPHyjUnArxSBdzDksR-v7CLhXitMQTZaK690PFd6NZIICddg5mxHF9SnKyP6oclSysWI7cbAqT3ogjSDmnINcibunyPdHM37ncpPyzyP1jODl2HALqrwv5nAanvvFzOcX_no7JDJNVCu3UETkG6vuSwSkspyno51wdKQCRgpFgSQ5cy-PyxUl6bUMtud_b_pKrV0wyd3qHyOJPVbPEsEikGyNZcRbQoNZktS5pbeCAsTpBd___fGOJTjC5ksc0tRR2RDjXD6-oc3NRJ1hjfWzsqmMxQO3Tji9iss4qRxAODTjC6ksc3tRJ1RjfWDstm_prjq0qmhtxej0cU7Cp3Ulp3gwDNhtyuFXv0J8-FzZzmpP2R_pEp00ZQW0Dd_xpR9aea4hVjOmasRoPn-O7pZauewILSuzwGgmZukzFtsOLY_NFUVUnC0J-Tk0qyw_L18X7oiUDaSm0jxWazUl26VBWvStzssfIF4cmGtn3WJbEWNlc8ilv_0000]--></g></svg>