<svg xmlns="http://www.w3.org/2000/svg" xmlns:xlink="http://www.w3.org/1999/xlink" contentStyleType="text/css" data-diagram-type="MINDMAP" height="157px" preserveAspectRatio="none" style="width:905px;height:157px;" version="1.1" viewBox="0 0 905 157" width="905px" zoomAndPan="magnify"><defs/><g><a href="/use-case/construction-project-quotations/scope-and-requirements/" target="_top" title="/use-case/construction-project-quotations/scope-and-requirements/" xlink:actuate="onRequest" xlink:href="/use-case/construction-project-quotations/scope-and-requirements/" xlink:show="new" xlink:title="/use-case/construction-project-quotations/scope-and-requirements/" xlink:type="simple"><text fill="#90EE90" font-family="'Roboto'" font-size="14" lengthAdjust="spacing" textLength="160.7334" x="371.6855" y="82.4404">Scope &amp; Requirements</text></a><a href="/use-case/construction-project-quotations/scope-and-requirements/scope-decomposition-wbs-boq/" target="_top" title="/use-case/construction-project-quotations/scope-and-requirements/scope-decomposition-wbs-boq/" xlink:actuate="onRequest" xlink:href="/use-case/construction-project-quotations/scope-and-requirements/scope-decomposition-wbs-boq/" xlink:show="new" xlink:title="/use-case/construction-project-quotations/scope-and-requirements/scope-decomposition-wbs-boq/" xlink:type="simple"><text fill="#90EE90" font-family="'Roboto'" font-size="14" lengthAdjust="spacing" textLength="233.4609" x="597.8691" y="27.9951">Scope Decomposition (WBS/BoQ)</text></a><path d="M540.8691,77.5938 L540.8691,77.7806 L542.8691,77.2255 L544.8691,77.7656 L546.8691,77.949 L548.8691,76.9596 L550.8691,77.5938 L550.8691,77.5938 L550.8453,77.5688 L552.5195,75.7553 L554.3139,74.0677 L556.192,72.4676 L557.7819,70.5659 L559.7754,69.0867 L560.0094,69.1629 L560.7278,65.2568 L562.1293,61.5732 L563.6142,57.9168 L564.6141,54.1024 L565.8691,50.3711 L565.898,50.3805 L567.0744,46.6236 L568.3821,42.9094 L569.6265,39.1747 L570.9917,35.4792 L571.9629,31.6555 L572.1689,31.8712 L573.9527,30.1724 L575.6036,28.3345 L577.449,26.7003 L579.3035,25.0755 L580.8691,23.1484 L580.8691,22.5074 L582.8691,23.7516 L584.8691,22.8849 L586.8691,23.6229 L588.8691,22.7084 L590.8691,23.1484" fill="none" style="stroke:#FF9900;stroke-width:1;"/><a href="/use-case/construction-project-quotations/scope-and-requirements/assumptions-exclusions-qualifications/" target="_top" title="/use-case/construction-project-quotations/scope-and-requirements/assumptions-exclusions-qualifications/" xlink:actuate="onRequest" xlink:href="/use-case/construction-project-quotations/scope-and-requirements/assumptions-exclusions-qualifications/" xlink:show="new" xlink:title="/use-case/construction-project-quotations/scope-and-requirements/assumptions-exclusions-qualifications/" xlink:type="simple"><text fill="#90EE90" font-family="'Roboto'" font-size="14" lengthAdjust="spacing" textLength="287.3555" x="597.8691" y="54.292">Assumptions, Exclusions &amp; Qualifications</text></a><path d="M540.8691,77.5938 L540.8691,77.7806 L542.8691,77.2255 L544.8691,77.7656 L546.8691,77.949 L548.8691,76.9596 L550.8691,77.5938 L550.8691,77.5938 L550.8538,77.5628 L552.5665,76.5442 L554.3562,75.6816 L556.1995,74.9277 L557.8581,73.7997 L559.7754,73.1956 L559.9836,73.3267 L560.7571,71.1111 L562.1385,69.2783 L563.5941,67.4922 L564.6181,65.4344 L565.8691,63.5195 L565.8948,63.5357 L567.0759,61.5768 L568.3738,59.6914 L569.6153,57.7706 L570.9644,55.9174 L571.9629,53.8435 L572.0949,54.1109 L573.8778,53.2346 L575.5755,52.1857 L577.3979,51.3893 L579.2261,50.6048 L580.8691,49.4453 L580.8691,48.8043 L582.8691,50.0484 L584.8691,49.1818 L586.8691,49.9198 L588.8691,49.0053 L590.8691,49.4453" fill="none" style="stroke:#FF9900;stroke-width:1;"/><a href="/use-case/construction-project-quotations/scope-and-requirements/rfis-clarifications-addenda/" target="_top" title="/use-case/construction-project-quotations/scope-and-requirements/rfis-clarifications-addenda/" xlink:actuate="onRequest" xlink:href="/use-case/construction-project-quotations/scope-and-requirements/rfis-clarifications-addenda/" xlink:show="new" xlink:title="/use-case/construction-project-quotations/scope-and-requirements/rfis-clarifications-addenda/" xlink:type="simple"><text fill="#90EE90" font-family="'Roboto'" font-size="14" lengthAdjust="spacing" textLength="211.3193" x="597.8691" y="80.5889">RFIs, Clarifications &amp; Addenda</text></a><path d="M540.8691,77.5938 L540.8691,77.7806 L542.8691,77.2255 L544.8691,77.7656 L546.8691,77.949 L548.8691,76.9596 L550.8691,77.5938 L550.8691,77.5938 L550.867,77.5593 L553.8575,77.2194 L556.8586,77.0533 L559.8673,77.008 L562.8502,76.5464 L565.8691,76.668 L565.8843,76.9136 L568.8519,76.2032 L571.8637,76.2099 L574.881,76.3041 L577.8668,75.8893 L580.8691,75.7422 L580.8691,75.8028 L582.8691,75.7138 L584.8691,75.9009 L586.8691,75.9548 L588.8691,76.2628 L590.8691,75.7422" fill="none" style="stroke:#FF9900;stroke-width:1;"/><polygon fill="#4051B5" points="594.8691,98.8906,594.8691,99.1008,604.9914,98.4763,615.1137,99.0839,625.236,99.2903,635.3583,98.1772,645.4806,98.8129,655.6029,98.4641,665.7252,98.5071,675.8474,98.8225,685.9697,98.1993,696.092,99.4443,706.2143,98.2603,716.3366,98.6929,726.4589,99.3226,736.5812,98.8048,746.7035,98.9589,756.8257,98.8587,766.948,99.0692,777.0703,98.8906,777.1008,98.9643,777.7107,99.3053,778.2873,99.5659,778.854,99.8028,779.3655,99.9063,779.8987,100.0622,780.0415,100.1213,780.3493,100.7175,780.1453,101.1016,780.8106,101.8458,780.7447,102.2871,781.0703,102.8906,781.2482,102.8906,780.9053,108.55,781.0475,114.2094,781.3175,119.8688,781.0541,125.5281,781.0703,131.1875,781.1027,131.2009,780.9403,131.7964,780.7299,132.372,780.3662,132.8841,780.2215,133.4869,779.8987,134.0159,779.8257,133.8396,779.3693,134.3378,778.8373,134.6534,778.2584,134.8558,777.7142,135.142,777.0703,135.1875,777.0703,134.7044,766.948,134.5353,756.8257,134.5661,746.7035,135.1286,736.5812,134.991,726.4589,135.8689,716.3366,135.0128,706.2143,134.8444,696.092,135.4158,685.9697,134.5207,675.8474,134.6684,665.7252,135.8365,655.6029,135.6232,645.4806,135.922,635.3583,134.8657,625.236,135.5067,615.1137,135.7779,604.9914,134.7151,594.8691,135.1875,594.8569,135.158,594.3195,134.992,593.8209,134.9196,593.1715,134.4833,592.6654,134.3927,592.0407,134.0159,591.8702,133.9453,591.5978,133.3639,591.7272,132.9488,591.117,132.2274,591.2602,131.8181,590.8691,131.1875,590.938,131.1875,590.7798,125.5281,590.7512,119.8688,591.0221,114.2094,590.7694,108.55,590.8691,102.8906,591.0514,102.9661,590.9332,102.2544,591.5279,101.838,591.7212,101.2553,591.8818,100.6591,592.0407,100.0622,592.0467,100.0767,592.6991,100.0516,593.2504,99.7825,593.7594,99.4114,594.3377,99.2075,594.8691,98.8906" style="stroke:#FF6F00;stroke-width:1.5;"/><a href="/use-case/construction-project-quotations/scope-and-requirements/constructability-review/" target="_top" title="/use-case/construction-project-quotations/scope-and-requirements/constructability-review/" xlink:actuate="onRequest" xlink:href="/use-case/construction-project-quotations/scope-and-requirements/constructability-review/" xlink:show="new" xlink:title="/use-case/construction-project-quotations/scope-and-requirements/constructability-review/" xlink:type="simple"><text fill="#90EE90" font-family="'Roboto'" font-size="14" lengthAdjust="spacing" textLength="165.751" x="600.8691" y="121.8857">Constructability Review</text></a><path d="M540.8691,77.5938 L540.8691,77.7806 L542.8691,77.2255 L544.8691,77.7656 L546.8691,77.949 L548.8691,76.9596 L550.8691,77.5938 L550.8691,77.5938 L550.8495,77.5653 L552.5425,78.6705 L554.3346,79.9189 L556.1957,81.2668 L557.8193,82.2717 L559.7754,83.7571 L559.9998,83.8579 L560.7386,86.3541 L562.1327,89.1448 L563.6067,91.9714 L564.6156,94.5889 L565.8691,97.3164 L565.8968,97.3288 L567.0749,100.0225 L568.379,102.7727 L569.6223,105.4956 L570.9816,108.2706 L571.9629,110.8757 L572.1326,111.121 L573.9159,112.3566 L575.5898,113.4341 L577.4239,114.7432 L579.2655,116.063 L580.8691,117.0391 L580.8691,116.398 L582.8691,117.6422 L584.8691,116.7755 L586.8691,117.5136 L588.8691,116.599 L590.8691,117.0391" fill="none" style="stroke:#FF9900;stroke-width:1;"/><a href="/use-case/construction-project-quotations/" target="_top" title="/use-case/construction-project-quotations/" xlink:actuate="onRequest" xlink:href="/use-case/construction-project-quotations/" xlink:show="new" xlink:title="/use-case/construction-project-quotations/" xlink:type="simple"><text fill="#90EE90" font-family="'Roboto'" font-size="14" lengthAdjust="spacing" textLength="289.2354" x="14" y="82.4404">Complex Construction Project Quotations</text></a><path d="M364.6855,77.5938 L364.6855,77.7806 L362.6855,77.2255 L360.6855,77.7656 L358.6855,77.949 L356.6855,76.9596 L354.6855,77.5938 L354.6855,77.5938 L354.6855,77.5592 L348.6855,77.4042 L342.6855,77.4233 L336.6855,77.5635 L330.6855,77.2865 L324.6855,77.5938 L324.6855,78.0859 L322.6855,77.0335 L320.6855,77.418 L318.6855,77.9777 L316.6855,77.5175 L314.6855,77.5938" fill="none" style="stroke:#FF9900;stroke-width:1;"/><!--SRC=[xLXjKziu4FxkNw4hCmTCwuPmq6cPJeSa91G894sWDpUT3gFOIgB6bema9t0tzzzlRSVnInBdXRY56_89jAjddrsjfTqzbWeBPLDcsjZHjDzCqgMCeFBfxMNfxEgsqgWtMiZ_RHti7HOxXt6LThNIk3efjVuQwyrGQPOg5wNJwWHeIgNHEgcsudRGLhVxhhktDr6fDQwk4mg-YlVJD3cWpC42swY3ZK5FS9UP5Mvn4IegWPa43S9KJFdpWqD4dR91N1TjMRJNLpr12DEqRKIPORacGQfFK8ym8h259X0ITM5ZXwl-6-HlGvYPoCHY03iLHtn8n4XGHT28gdw0GOU48KcKegmdqn6u_dnMkRYgjjke2CV07KKvGtq0zL0KREnYIvAO3qricW243c9hhS1_0MJH-zXwkuzDFlAqqoX-92o8n0qp_J_8M2McSqAwsBKK-aUhSQQki4tGgnO7t_ahVoK8OdHC_cAR_arGyK3xDuvK4eAF06VcZjamwi62677BJ28vSDouHyQSfhQMKzcGo6Ujp0KuEvR44X1CH1OODrU1JoJwSXOCRZkSGMQ2cJK9psGNnCorhVrap4oiS0TBic5p2Hk6nLqpLmFSieZXVHrousOYAnLG4DpAqKBPWyJY8KSJLQQeojC0POg8BZP8ZZRQvCubp21DUAQeGHtCL01stQV6W14fuSACrELO7HZ5TsIIcuAUmJEc4rrBZ0iRMsdPb3jrsYNms92vu1E5J9h-vJa5xg_EHVQbCqdvaYY6VsWbGt6nW86lCjUM9vtt0M-ZoW7oeWQF4FopjV0N_-O5VF2OzIpoyIEyLfApJv_WVDkGV8GhUC3clXwRUXVI6PT-ivDNL8mkkGUI35ktc-UTAhvo82yVf2Bsyulrvddd5ElmGNuUeOxOFhz8nzAaCtvu0zQfmZZfXL_3xYskzjRoFTknu84niUmJSnbVPxfgW64CxufOrbUerxDJAGTFiuym_hGhh6PL6c5B6HaFsyEIKe9sN4McHN5IOSEPAcInb3bRsqQNGUEDf4CCsgK6E1ayaLDzoF8y5hg6eq9YgrRxy07aAM6yjjAqrxVespTKS2NH3VZ-2v1MKWdNBy9rH_0Va77wdSlXVBool20DxX0TMbTTG3L61R6Xnv45rFRMqU-e5Lj5txzhhpTa85WsYTzNIUhl7dMatk5teV6Jk13j_5bk5yhyo-ucMK3QkBRVlakTt1kMA_q_xrniUISytenAaTeRL9teGNY-93GtIKrqgTGXiKK4hsFJ970V5b2hTWPCAWafi2a5ye36HbXCjk4EjQ110UcGab71QxeI0aWKJ-2PrlKL8m1WjcEH-mZKE_1ce0WX3XKzy6DmS381EquEn7ASC3tXMKvubImvo8chpm1OOOGpkSFct7QpxxQCeSrZ0RDcD5aOqmpMcCgiPc2fESnZ83CdBwi2BpDhMHypOxgoFkZSUShwa5aJbFLHSvcPX7JcJ4j2PYiFIa87Par9Gj1v0vAGKsmqCgd6qdEH42ir4adeBvo7J0oc9o4JzEGG9FOXhJNFc7-phf8jquV_s7d5p-QreD7yPM5w2hoMdYByP3PFAaWR7G24F5RqPYxhp6Q_c6TtlsbFKl7_NtVlBotwIul-qgB_WXQzQK41UNDPHqCeKhmznRVxU_k7Rul53b6ukBTpmmQCZvZVl56uMHMroQwsSzgi8ybT0PMkIMNmkSFsNUqS3p5gkSpJEq8DXx3paujm0Sh-8HMSUP7HphzUHWhl3lGoLL1j2o22lbvgONDTPGRt-laZT7DTqzzhTRYnNMXrZn3q_HMu89Hu05dxFm00]--></g></svg>