<svg xmlns="http://www.w3.org/2000/svg" xmlns:xlink="http://www.w3.org/1999/xlink" contentStyleType="text/css" data-diagram-type="MINDMAP" height="152px" preserveAspectRatio="none" style="width:943px;height:152px;" version="1.1" viewBox="0 0 943 152" width="943px" zoomAndPan="magnify"><defs/><g><a href="/use-case/construction-project-quotations/risk-compliance-and-contracts/" target="_top" title="/use-case/construction-project-quotations/risk-compliance-and-contracts/" xlink:actuate="onRequest" xlink:href="/use-case/construction-project-quotations/risk-compliance-and-contracts/" xlink:show="new" xlink:title="/use-case/construction-project-quotations/risk-compliance-and-contracts/" xlink:type="simple"><text fill="#4051B5" font-family="'Roboto'" font-size="13" lengthAdjust="spacing" textLength="192.8291" x="350.708" y="79.7661">Risk, Compliance &amp; Contracts</text></a><a href="/use-case/construction-project-quotations/risk-compliance-and-contracts/risk-register-and-scenario-analysis/" target="_top" title="/use-case/construction-project-quotations/risk-compliance-and-contracts/risk-register-and-scenario-analysis/" xlink:actuate="onRequest" xlink:href="/use-case/construction-project-quotations/risk-compliance-and-contracts/risk-register-and-scenario-analysis/" xlink:show="new" xlink:title="/use-case/construction-project-quotations/risk-compliance-and-contracts/risk-register-and-scenario-analysis/" xlink:type="simple"><text fill="#4051B5" font-family="'Roboto'" font-size="13" lengthAdjust="spacing" textLength="217.7944" x="608.6694" y="27.0669">Risk Register &amp; Scenario Analysis</text></a><path d="M551.6694,75.2656 L551.6694,75.4525 L553.6694,74.8973 L555.6694,75.4374 L557.6694,75.6209 L559.6694,74.6315 L561.6694,75.2656 L561.6694,75.2656 L561.646,75.2403 L563.322,73.4796 L565.1162,71.8468 L566.9926,70.3028 L568.5858,68.4526 L570.5757,67.0314 L570.8089,67.1098 L571.5289,63.319 L572.9299,59.7572 L574.4139,56.2234 L575.4146,52.5269 L576.6694,48.916 L576.6982,48.9257 L577.8747,45.2884 L579.1821,41.6952 L580.4264,38.0807 L581.7912,34.5067 L582.7632,30.8007 L582.9657,31.0197 L584.7494,29.3755 L586.4025,27.5901 L588.2468,26.0114 L590.1001,24.4424 L591.6694,22.5664 L591.6694,21.9254 L593.6694,23.1695 L595.6694,22.3028 L597.6694,23.0409 L599.6694,22.1264 L601.6694,22.5664" fill="none" style="stroke:#FF6F00;stroke-width:1;"/><a href="/use-case/construction-project-quotations/risk-compliance-and-contracts/regulatory-safety-environmental-compliance/" target="_top" title="/use-case/construction-project-quotations/risk-compliance-and-contracts/regulatory-safety-environmental-compliance/" xlink:actuate="onRequest" xlink:href="/use-case/construction-project-quotations/risk-compliance-and-contracts/regulatory-safety-environmental-compliance/" xlink:show="new" xlink:title="/use-case/construction-project-quotations/risk-compliance-and-contracts/regulatory-safety-environmental-compliance/" xlink:type="simple"><text fill="#4051B5" font-family="'Roboto'" font-size="13" lengthAdjust="spacing" textLength="314.9644" x="608.6694" y="52.1997">Regulatory, Safety &amp; Environmental Compliance</text></a><path d="M551.6694,75.2656 L551.6694,75.4525 L553.6694,74.8973 L555.6694,75.4374 L557.6694,75.6209 L559.6694,74.6315 L561.6694,75.2656 L561.6694,75.2656 L561.6544,75.2345 L563.3682,74.2335 L565.1577,73.3893 L567,72.654 L568.6607,71.5432 L570.5757,70.9584 L570.7826,71.0915 L571.5588,68.9117 L572.9393,67.1205 L574.3934,65.3766 L575.4186,63.357 L576.6694,61.4824 L576.6949,61.4988 L577.8762,59.5796 L579.1737,57.735 L580.4151,55.8543 L581.7634,54.0425 L582.7632,52.0065 L582.893,52.275 L584.6759,51.4168 L586.375,50.3854 L588.1966,49.6076 L590.0241,48.8416 L591.6694,47.6992 L591.6694,47.0582 L593.6694,48.3023 L595.6694,47.4357 L597.6694,48.1737 L599.6694,47.2592 L601.6694,47.6992" fill="none" style="stroke:#FF6F00;stroke-width:1;"/><polygon fill="#4051B5" points="605.6694,70.2656,605.6694,70.4758,615.8404,69.8513,626.0115,70.4589,636.1825,70.6653,646.3535,69.5522,656.5245,70.1879,666.6955,69.8391,676.8665,69.8821,687.0375,70.1975,697.2085,69.5743,707.3795,70.8193,717.5506,69.6353,727.7216,70.0679,737.8926,70.6976,748.0636,70.1798,758.2346,70.3339,768.4056,70.2337,778.5766,70.4442,788.7476,70.5048,798.9186,70.8513,809.0897,70.9367,819.2607,70.9449,829.4317,70.5203,839.6027,70.7292,849.7737,70.9679,859.9447,69.5444,870.1157,70.2656,870.2023,70.4746,870.6436,70.4086,871.3152,70.8986,871.7496,70.8161,872.3697,71.1818,872.9441,71.4372,873.1725,71.5318,873.1635,71.9967,873.4452,72.582,873.7514,73.1774,874.0096,73.753,874.1157,74.2656,874.1144,74.2656,874.2115,79.6922,873.9249,85.1188,874.2105,90.5453,874.2985,95.9719,874.1157,101.3984,874.2526,101.4551,874.0702,102.0423,873.4983,102.4682,873.2119,103.0123,872.9871,103.5819,872.9441,104.2269,872.9366,104.2087,872.3534,104.4007,871.8997,104.9053,871.2248,104.876,870.6376,105.0585,870.1157,105.3984,870.1157,105.6267,859.9447,104.7316,849.7737,104.8793,839.6027,106.0474,829.4317,105.8341,819.2607,106.1329,809.0897,105.0766,798.9186,105.7176,788.7476,105.9889,778.5766,104.926,768.4056,105.3026,758.2346,105.5244,748.0636,106.0502,737.8926,105.3942,727.7216,105.861,717.5506,104.8447,707.3795,104.7212,697.2085,105.9021,687.0375,104.6815,676.8665,105.9074,666.6955,105.6051,656.5245,105.1305,646.3535,105.0447,636.1825,105.8572,626.0115,105.0991,615.8404,105.9903,605.6694,105.3984,605.5989,105.2282,605.1825,105.3543,604.5998,105.079,604.0036,104.7709,603.4127,104.4757,602.841,104.2269,603.0648,104.3196,602.7956,103.7394,602.4245,103.1171,602.2207,102.564,601.8636,101.9475,601.6694,101.3984,601.9083,101.3984,601.7211,95.9719,601.727,90.5453,601.4666,85.1188,601.5344,79.6922,601.6694,74.2656,601.8329,74.3333,602.0361,73.7548,602.1248,73.1288,602.2732,72.5275,602.5393,71.975,602.841,71.4372,602.7535,71.2259,603.4596,71.3306,604.0667,71.1963,604.6052,70.8964,605.1924,70.714,605.6694,70.2656" style="stroke:#FF6F00;stroke-width:1.5;"/><a href="/use-case/construction-project-quotations/risk-compliance-and-contracts/contract-terms-and-commercial-review/" target="_top" title="/use-case/construction-project-quotations/risk-compliance-and-contracts/contract-terms-and-commercial-review/" xlink:actuate="onRequest" xlink:href="/use-case/construction-project-quotations/risk-compliance-and-contracts/contract-terms-and-commercial-review/" xlink:show="new" xlink:title="/use-case/construction-project-quotations/risk-compliance-and-contracts/contract-terms-and-commercial-review/" xlink:type="simple"><text fill="#4051B5" font-family="'Roboto'" font-size="13" lengthAdjust="spacing" textLength="248.314" x="611.6694" y="92.3325">Contract Terms &amp; Commercial Review</text></a><path d="M551.6694,75.2656 L551.6694,75.4525 L553.6694,74.8973 L555.6694,75.4374 L557.6694,75.6209 L559.6694,74.6315 L561.6694,75.2656 L561.6694,75.2656 L561.6561,75.2338 L564.5962,76.3474 L567.6036,77.6217 L570.6577,79.0076 L573.5507,80.0088 L576.6694,81.5488 L576.7645,81.7758 L579.5612,82.5471 L582.6355,83.981 L585.7436,85.4958 L588.6547,86.5402 L591.6694,87.832 L591.6694,87.8927 L593.6694,87.8036 L595.6694,87.9907 L597.6694,88.0446 L599.6694,88.3526 L601.6694,87.832" fill="none" style="stroke:#FF6F00;stroke-width:1;"/><a href="/use-case/construction-project-quotations/risk-compliance-and-contracts/bonds-insurance-warranties/" target="_top" title="/use-case/construction-project-quotations/risk-compliance-and-contracts/bonds-insurance-warranties/" xlink:actuate="onRequest" xlink:href="/use-case/construction-project-quotations/risk-compliance-and-contracts/bonds-insurance-warranties/" xlink:show="new" xlink:title="/use-case/construction-project-quotations/risk-compliance-and-contracts/bonds-insurance-warranties/" xlink:type="simple"><text fill="#4051B5" font-family="'Roboto'" font-size="13" lengthAdjust="spacing" textLength="201.7793" x="608.6694" y="132.4653">Bonds, Insurance &amp; Warranties</text></a><path d="M551.6694,75.2656 L551.6694,75.4525 L553.6694,74.8973 L555.6694,75.4374 L557.6694,75.6209 L559.6694,74.6315 L561.6694,75.2656 L561.6694,75.2656 L561.646,75.2403 L563.322,76.7733 L565.1162,78.4342 L566.9926,80.1839 L568.5858,81.6274 L570.5757,83.4999 L570.8089,83.5783 L571.5289,87.0336 L572.9299,90.718 L574.4139,94.4303 L575.4146,97.98 L576.6694,101.6152 L576.6982,101.6249 L577.8747,105.2338 L579.1821,108.8867 L580.4264,112.5183 L581.7912,116.1905 L582.7632,119.7306 L582.9657,119.9496 L584.7494,121.5991 L586.4025,123.1074 L588.2468,124.8224 L590.1001,126.5472 L591.6694,127.9648 L591.6694,127.3238 L593.6694,128.568 L595.6694,127.7013 L597.6694,128.4393 L599.6694,127.5248 L601.6694,127.9648" fill="none" style="stroke:#FF6F00;stroke-width:1;"/><a href="/use-case/construction-project-quotations/" target="_top" title="/use-case/construction-project-quotations/" xlink:actuate="onRequest" xlink:href="/use-case/construction-project-quotations/" xlink:show="new" xlink:title="/use-case/construction-project-quotations/" xlink:type="simple"><text fill="#4051B5" font-family="'Roboto'" font-size="13" lengthAdjust="spacing" textLength="268.5757" x="14" y="79.7661">Complex Construction Project Quotations</text></a><path d="M343.708,75.2656 L343.708,75.4525 L341.708,74.8973 L339.708,75.4374 L337.708,75.6209 L335.708,74.6315 L333.708,75.2656 L333.708,75.2656 L333.708,75.2311 L327.708,75.0761 L321.708,75.0952 L315.708,75.2353 L309.708,74.9583 L303.708,75.2656 L303.708,75.7578 L301.708,74.7054 L299.708,75.0898 L297.708,75.6496 L295.708,75.1894 L293.708,75.2656" fill="none" style="stroke:#FF6F00;stroke-width:1;"/><!--SRC=[xLXjRzD84FxkNx57fGD4JHie2264IDFmsZQzf0MT4AeszYJPYxqRTjSDkTFzzvjrx6JjnCvB7GuaygdrpZxppEpRpFDAQIfroBWVqf7Z_EP3Zt4Wns-kp-hlpgyRhTDMcyI_lQF39xNk4zkaqsoqpa_gxJyJkoKc5_N6X_gRvWnemQJLFccsRJzahzTxsZiyd9cyRfrVPWnY4_ERcTJRxTQdh4sAugWXuoCgQKYwr1lsfOYutn21a6HFIyeLZW7NbjdRoGXamFWmiKeOEtS9uruG-K3q04WVE4WQaDayHNfetHLwi4y2rXzeGhbFV2g7E5CB8cv0ZYNJGCPC3wOOx0OuKQ0rutsLpydbstUD3-VDJeVKS674I3F1oG113Oh6YJqQAB28Nr3VHo1oP7rhJyELI9Oyixvt1jGNOsETHvc5VyNz-0z8J2oR4-ZHAD3a7-UruFgSXa3kj0N6Bkx4NwQPcozS_B73_WPIEtB-jP7gKeenuYoTiHn6JmBCaGZyBD88LvVs8U6qCFKuj_YP7UuS2ud19YFMbaGNSmzS-9l0PxR-UXuy4Ou4n-s8RhOal9JTD6TH63pAviodcdQfWehTPNnuWOZydJeGGG2UEHsgSZTpBmqqa2BOeOTZ0qdbP8SkcbmplKi7Z6kGFUh13drqu6i4t8CBVBYOnqQKwodOvO1vGmvAuOKvDrU9EJAoPvIIMu1UmjEocLzBNCYG1lcnXN1EMGzEyMOj19yPbDACByy5yFXh8N8ykfHKF3BFuMEdxcaXLp28JGfzcT6Y0toND8w8oHe-GlZFtigVVUOb7dZA-m6yU86lbHByvKjStmvkFX0Q7x32rwEgTo6_u_9lTlQAikZ2DoJ9QN1TFUzSERO3ycgYD8G_NwwhvxsZNASFyi-HwZdRdo_JrZRf9W_lb7MkCCv64TUmXwkhlQrYBmzi-i3uL0t0NoVMfQ5ww9ZYkoBNZHNhzVAjj8D8ovTmupOaRU3cCJsUlZyjxCWamvhUJt1C0vUqmd6nhuXBmaXfKvS3eJqCDVMPQmiiRqbhMjZZMBrg4Kcxb9Wd8rUxO-EkLvTPorzwhINhHXgAwu15hYKDJARQfqfjnwhCmLrobgoB6e77Uip3-EFI0PTeF31TjSOx2EjFPHOqNhnzqWqYmBNZ74mXeeY8j1bUREagPZl7fzcQ2Xjvvy4r-VoP74GAN0_lpWFafxICuWR67Kdn5v9rlqO2bzUqD0UIgQ5h6iE0KInZNSfzrnnZIJsj3aWRX_UnEqd7oU_JLiMCaYzVd0VL-ej79VGPNlCo7bCUS2gPm7zeC54iuKJQYH4IwYGcf9wOx88OzAE0uZ9FN4Lxe2Sky1ic1G-ndQQ1DV70K4jizqadDaQIJTlSJcZCjKggwLykPYTKoM0OWlGO4fLmms1yC5j5ScciucLDRJ00OxE3B7O5zvMBfoYIyUWODp0sCGnmLO_Ds3vvbmuYfK-pOSF5TJVaCiqoV3EnpWp9nTIG_34pDE2l0Cz_AbE-oggMrMbyFx2QbZuiQqffjlaIW0r4j7HU_f9CasRVXAdgMYgRtHQmJ2KhmrXai8Kkjfc3jPImsq2MQb-R0g-ZTcsFMQ9lRGzQg6Xj3rccOMsFkXFLAgLJe5Ubp3QMgj80bkbKAMYHH9Loiih856v1cKgnSg9Kndwb8ZLpcDUYPkXP6SewI5ifIiKtwoQxPN7nRwiOVMzUArhz_orDFmAljNMSxypcXqfIfH9CocF3Q0fPbyejjLtgArL7aij_LVh9rWB8alUoCl73Higz9OkQH-QPMPQvV0cwXivHJ60bP84MSGl4N-h3B_NXb_fGkVfm4Q3NgxDJSeC5cPbJU_ZeyD6JXxLQ5pIj7TwxuaCknZnkL1dUPfg5SD-vz-RYb2WHIIJlu-QChoESVjzvJsyeQKVSs3qdhH7mzoSVqW_srd3UVpoR6pmzSe-Pniv28X7oySn9x_CczuJHBfwJgylNxZFd55-d2DlwvmGuNiA8AoSurlaF]--></g></svg>