<svg xmlns="http://www.w3.org/2000/svg" xmlns:xlink="http://www.w3.org/1999/xlink" contentStyleType="text/css" data-diagram-type="MINDMAP" height="157px" preserveAspectRatio="none" style="width:1004px;height:157px;" version="1.1" viewBox="0 0 1004 157" width="1004px" zoomAndPan="magnify"><defs/><g><a href="/use-case/construction-project-quotations/risk-compliance-and-contracts/" target="_top" title="/use-case/construction-project-quotations/risk-compliance-and-contracts/" xlink:actuate="onRequest" xlink:href="/use-case/construction-project-quotations/risk-compliance-and-contracts/" xlink:show="new" xlink:title="/use-case/construction-project-quotations/risk-compliance-and-contracts/" xlink:type="simple"><text fill="#90EE90" font-family="'Roboto'" font-size="14" lengthAdjust="spacing" textLength="207.6621" x="371.6855" y="82.4404">Risk, Compliance &amp; Contracts</text></a><a href="/use-case/construction-project-quotations/risk-compliance-and-contracts/risk-register-and-scenario-analysis/" target="_top" title="/use-case/construction-project-quotations/risk-compliance-and-contracts/risk-register-and-scenario-analysis/" xlink:actuate="onRequest" xlink:href="/use-case/construction-project-quotations/risk-compliance-and-contracts/risk-register-and-scenario-analysis/" xlink:show="new" xlink:title="/use-case/construction-project-quotations/risk-compliance-and-contracts/risk-register-and-scenario-analysis/" xlink:type="simple"><text fill="#90EE90" font-family="'Roboto'" font-size="14" lengthAdjust="spacing" textLength="234.5479" x="644.7979" y="27.9951">Risk Register &amp; Scenario Analysis</text></a><path d="M587.7979,77.5938 L587.7979,77.7806 L589.7979,77.2255 L591.7979,77.7656 L593.7979,77.949 L595.7979,76.9596 L597.7979,77.5938 L597.7979,77.5938 L597.774,77.5688 L599.4482,75.7553 L601.2426,74.0677 L603.1207,72.4676 L604.7106,70.5659 L606.7041,69.0867 L606.9381,69.1629 L607.6565,65.2568 L609.058,61.5732 L610.5429,57.9168 L611.5429,54.1024 L612.7979,50.3711 L612.8267,50.3805 L614.0031,46.6236 L615.3108,42.9094 L616.5552,39.1747 L617.9204,35.4792 L618.8916,31.6555 L619.0976,31.8712 L620.8814,30.1724 L622.5323,28.3345 L624.3777,26.7003 L626.2322,25.0755 L627.7979,23.1484 L627.7979,22.5074 L629.7979,23.7516 L631.7979,22.8849 L633.7979,23.6229 L635.7979,22.7084 L637.7979,23.1484" fill="none" style="stroke:#FF9900;stroke-width:1;"/><a href="/use-case/construction-project-quotations/risk-compliance-and-contracts/regulatory-safety-environmental-compliance/" target="_top" title="/use-case/construction-project-quotations/risk-compliance-and-contracts/regulatory-safety-environmental-compliance/" xlink:actuate="onRequest" xlink:href="/use-case/construction-project-quotations/risk-compliance-and-contracts/regulatory-safety-environmental-compliance/" xlink:show="new" xlink:title="/use-case/construction-project-quotations/risk-compliance-and-contracts/regulatory-safety-environmental-compliance/" xlink:type="simple"><text fill="#90EE90" font-family="'Roboto'" font-size="14" lengthAdjust="spacing" textLength="339.1924" x="644.7979" y="54.292">Regulatory, Safety &amp; Environmental Compliance</text></a><path d="M587.7979,77.5938 L587.7979,77.7806 L589.7979,77.2255 L591.7979,77.7656 L593.7979,77.949 L595.7979,76.9596 L597.7979,77.5938 L597.7979,77.5938 L597.7826,77.5628 L599.4952,76.5442 L601.2849,75.6816 L603.1282,74.9277 L604.7868,73.7997 L606.7041,73.1956 L606.9123,73.3267 L607.6858,71.1111 L609.0672,69.2783 L610.5228,67.4922 L611.5468,65.4344 L612.7979,63.5195 L612.8235,63.5357 L614.0046,61.5768 L615.3025,59.6914 L616.544,57.7706 L617.8931,55.9174 L618.8916,53.8435 L619.0237,54.1109 L620.8065,53.2346 L622.5042,52.1857 L624.3266,51.3893 L626.1548,50.6048 L627.7979,49.4453 L627.7979,48.8043 L629.7979,50.0484 L631.7979,49.1818 L633.7979,49.9198 L635.7979,49.0053 L637.7979,49.4453" fill="none" style="stroke:#FF9900;stroke-width:1;"/><polygon fill="#4051B5" points="641.7979,72.5938,641.7979,72.8039,651.9359,72.1794,662.0739,72.787,672.212,72.9934,682.35,71.8804,692.4881,72.516,702.6261,72.1673,712.7642,72.2103,722.9022,72.5256,733.0402,71.9024,743.1783,73.1474,753.3163,71.9635,763.4544,72.396,773.5924,73.0257,783.7305,72.508,793.8685,72.662,804.0066,72.5618,814.1446,72.7723,824.2826,72.8329,834.4207,73.1794,844.5587,73.2648,854.6968,73.273,864.8348,72.8484,874.9729,73.0573,885.1109,73.296,895.249,71.8726,905.387,73.2723,915.525,72.2972,925.6631,72.5938,925.7312,72.7581,926.1656,72.6756,926.7857,73.0413,927.4547,73.5251,927.9196,73.516,928.4915,73.7653,928.5239,73.7788,928.8301,74.3742,929.0883,74.9498,929.1933,75.4619,929.5172,76.0647,929.6631,76.5938,929.4723,76.5938,929.7579,82.2531,929.8458,87.9125,929.8113,93.5719,929.8674,99.2313,929.6631,104.8906,929.5143,104.829,929.2279,105.3731,929.0031,105.9427,928.942,106.5802,928.6653,107.1283,928.4915,107.7191,928.5784,107.9289,927.9035,107.8996,927.3164,108.082,926.8236,108.4923,926.1437,108.451,925.6631,108.8906,925.6631,108.3715,915.525,109.5396,905.387,109.3263,895.249,109.6251,885.1109,108.5688,874.9729,109.2098,864.8348,109.481,854.6968,108.4182,844.5587,108.7948,834.4207,109.0166,824.2826,109.5424,814.1446,108.8864,804.0066,109.3532,793.8685,108.3368,783.7305,108.2134,773.5924,109.3942,763.4544,108.1737,753.3163,109.3996,743.1783,109.0973,733.0402,108.6227,722.9022,108.5369,712.7642,109.3494,702.6261,108.5913,692.4881,109.4825,682.35,108.3379,672.212,109.5081,662.0739,109.3749,651.9359,109.1356,641.7979,108.8906,641.8039,108.9052,641.3249,108.8801,640.7447,108.611,640.1224,108.2398,639.5693,108.036,638.9694,107.7191,638.9293,107.7024,638.9557,107.2448,638.5485,106.6074,638.3196,106.044,637.8448,105.3787,637.7979,104.8906,637.6628,104.8906,637.9748,99.2313,637.9411,93.5719,637.7835,87.9125,637.6905,82.2531,637.7979,76.5938,637.7304,76.5658,637.8209,75.9405,638.3942,75.5153,638.7286,74.991,638.8972,74.3982,638.9694,73.7653,639.0581,73.9793,639.5177,73.4889,640.1119,73.3236,640.617,72.943,641.2684,72.9155,641.7979,72.5938" style="stroke:#FF6F00;stroke-width:1.5;"/><a href="/use-case/construction-project-quotations/risk-compliance-and-contracts/contract-terms-and-commercial-review/" target="_top" title="/use-case/construction-project-quotations/risk-compliance-and-contracts/contract-terms-and-commercial-review/" xlink:actuate="onRequest" xlink:href="/use-case/construction-project-quotations/risk-compliance-and-contracts/contract-terms-and-commercial-review/" xlink:show="new" xlink:title="/use-case/construction-project-quotations/risk-compliance-and-contracts/contract-terms-and-commercial-review/" xlink:type="simple"><text fill="#90EE90" font-family="'Roboto'" font-size="14" lengthAdjust="spacing" textLength="267.415" x="647.7979" y="95.5889">Contract Terms &amp; Commercial Review</text></a><path d="M587.7979,77.5938 L587.7979,77.7806 L589.7979,77.2255 L591.7979,77.7656 L593.7979,77.949 L595.7979,76.9596 L597.7979,77.5938 L597.7979,77.5938 L597.784,77.5621 L600.7218,78.735 L603.7294,80.0673 L606.7857,81.5105 L609.6745,82.5717 L612.7979,84.168 L612.8966,84.3933 L615.6854,85.2262 L618.7626,86.7172 L621.8749,88.2883 L624.7825,89.3924 L627.7979,90.7422 L627.7979,90.8028 L629.7979,90.7138 L631.7979,90.9009 L633.7979,90.9548 L635.7979,91.2628 L637.7979,90.7422" fill="none" style="stroke:#FF9900;stroke-width:1;"/><a href="/use-case/construction-project-quotations/risk-compliance-and-contracts/bonds-insurance-warranties/" target="_top" title="/use-case/construction-project-quotations/risk-compliance-and-contracts/bonds-insurance-warranties/" xlink:actuate="onRequest" xlink:href="/use-case/construction-project-quotations/risk-compliance-and-contracts/bonds-insurance-warranties/" xlink:show="new" xlink:title="/use-case/construction-project-quotations/risk-compliance-and-contracts/bonds-insurance-warranties/" xlink:type="simple"><text fill="#90EE90" font-family="'Roboto'" font-size="14" lengthAdjust="spacing" textLength="217.3008" x="644.7979" y="136.8857">Bonds, Insurance &amp; Warranties</text></a><path d="M587.7979,77.5938 L587.7979,77.7806 L589.7979,77.2255 L591.7979,77.7656 L593.7979,77.949 L595.7979,76.9596 L597.7979,77.5938 L597.7979,77.5938 L597.774,77.5688 L599.4482,79.1581 L601.2426,80.8733 L603.1207,82.6761 L604.7106,84.1772 L606.7041,86.1008 L606.9381,86.177 L607.6565,89.7572 L609.058,93.5598 L610.5429,97.3896 L611.5429,101.0615 L612.7979,104.8164 L612.8267,104.8258 L614.0031,108.5551 L615.3108,112.3272 L616.5552,116.0787 L617.9204,119.8695 L618.8916,123.532 L619.0976,123.7477 L620.8814,125.4517 L622.5323,127.0166 L624.3777,128.7852 L626.2322,130.5633 L627.7979,132.0391 L627.7979,131.398 L629.7979,132.6422 L631.7979,131.7755 L633.7979,132.5136 L635.7979,131.599 L637.7979,132.0391" fill="none" style="stroke:#FF9900;stroke-width:1;"/><a href="/use-case/construction-project-quotations/" target="_top" title="/use-case/construction-project-quotations/" xlink:actuate="onRequest" xlink:href="/use-case/construction-project-quotations/" xlink:show="new" xlink:title="/use-case/construction-project-quotations/" xlink:type="simple"><text fill="#90EE90" font-family="'Roboto'" font-size="14" lengthAdjust="spacing" textLength="289.2354" x="14" y="82.4404">Complex Construction Project Quotations</text></a><path d="M364.6855,77.5938 L364.6855,77.7806 L362.6855,77.2255 L360.6855,77.7656 L358.6855,77.949 L356.6855,76.9596 L354.6855,77.5938 L354.6855,77.5938 L354.6855,77.5592 L348.6855,77.4042 L342.6855,77.4233 L336.6855,77.5635 L330.6855,77.2865 L324.6855,77.5938 L324.6855,78.0859 L322.6855,77.0335 L320.6855,77.418 L318.6855,77.9777 L316.6855,77.5175 L314.6855,77.5938" fill="none" style="stroke:#FF9900;stroke-width:1;"/><!--SRC=[xLXjSzeu4FxkNw5hPYxjD2uXbtJQJASJ82HDGW87IMzkEfsCi1VGOKjKag7SpVttMniCmhmJt4iwyIVmFjfzTYLBg-T4QIgrpxZhquvb_U92Wt4W-VFxwzp5pNsXN2fNIVJi7EuVPUj79gHMB9HlJdFLFuUu6P1Ahd2LEo-E74r1ojNJOjMCGtOQZRUD_VqHvAnySpi1Y23XOrcgpNY7IkgJEdNQJIa2xXQ49sGCr99oXGZWsW1_wdT0bXXlcrYoux5cIpSb0BUiNSAuumKk4Dq2qWGEadfav4AH1Wwi2ztQ8z4mGhbBN2hRE58B8heWUv9f83scMmCVh0kSAD2QyQPALk3sqqNXwgPOgv4iJeFeQ2OuQQ7Jq8l6WGtgAJ1og53NHKVaq7XN7UGlaInvPxoljQWhUY4wwIMgX8ULkEDkz0E640Dp2WqQU9hyOvq9hc-e3-H5LM3kuaNqPb34yJH5BsliRo3PG-jVqrDEIj53FpD7p7QZ-nxMI7ZkfASEJZTjmf3JrD1yOZLCh6ShBoGcExGO2n13Z2DmuQxZVcAXhnR14Nv7S5oP66P3mZFP3MeM-Dx1PCrSgccTAjXok8aOZYS2DzK0mlF02RyEjVKmuoW514ZXfHWX7xgaifzYY2BNJASPW74Dia4TI3563Ru5m1seu3757DQXN0-StRQOq-QW56wOOxWQmf6HEM8XkIdNCtWQcF6sn8NqgPUqJQLJOWt0mmRcEXy15jACDiyfvz7RkPuZwqnIaMLSmz-idAE5NC8WWioD5LhdVS2xf718mghX8OH_TfO-vZSlyOEdlEd1XmzuMYd1Ftx4-QtXuWEXyG2RUtfiwrn8hhZacJsvHHbquJkIvDIxtpxlHFEL0ddLLnhyfrVhxVDEgTRnWVmqIZrc-_GgRIoJ-l3W7R1EDCQJMKGzxFxoRc-Zt1SdDZXWNAfQuAwIwynK7GnCyLoHg-QA_VhYfPH2fekdq3pQDTMpEetuIZaE7byFSrfBLWyqJ9jCKl65Cz78KgLIZhPBhWSNRw8wuB06Sp39mH4vTGzPdSVIrEYuaTWvEtl_7kq9ezbRMTRhU_Bb2ya42cm7l_yCBYkbPH0ruNP7YhzmnTdV0e7p4xRb6SbKsmulDnwZs8hPU8crmwKegQDLXbJHl8STTcmdlmxQxT1AldwrNcytNcILq6IuLSd8fXpWL3A1VwZNLsp8YLI782HK6q98RWX9WnWq0uzYpzIt5Ms0xjl0kqmAxkELa7h6m4n8ROZT8xK8Z2IB9jmiQCHrcrJZNpPMnrT3e- -3T1WIbT1bqCkCPf7SXgXeMcCC9X1YKgXYNN1NsOohG4RM7YvWRCGPuApcGziUkOYDIEcFaJdaOjjhSXbK6Rw7kOw0f380ajz7mD3v2U2t7Gjh9vCwMuh2rIEMYE8TQaLzo8JFSB26CZJQ6kTiehEtp0LQq4CTBf9-5lcOPh21sBDUW9NadOUuN2ZehEju5GbdSvyBH9lDdSwLQJPtkKYOsTnhAb9CJ6UE21CpMrj_YHEO9Rx4JkVfBZ4dGt4PDNb9kINsbL1Q9l1BPPPHmAJ0Cl8-gQqO7z96CidydNMTrJ8z-G-LGNuqhoNtr_-jJ8-1ryhYn0zcywYAj5LT8UQnPZPpMI_K4B9fYWRRpYHH_vzQ57Y- -J_V_9zl_Z_FpR_YOTIxwnBfOkyJZic-ETW_E7gJpTP1q-p-oplUvgB7epiXmmrRCnzUMI_FAoMYH22Hl8kBCzf5SFWhwv9sAQa6FCGTat87-ENfLVp2N1hMvUVhCU3jePrd6fjuYKJ8vsihlhCNkID2cU2OtDsUsU-i4Xu40TwWZmbml8cZNzb7M-q_]--></g></svg>