<svg xmlns="http://www.w3.org/2000/svg" xmlns:xlink="http://www.w3.org/1999/xlink" contentStyleType="text/css" data-diagram-type="MINDMAP" height="202px" preserveAspectRatio="none" style="width:845px;height:202px;" version="1.1" viewBox="0 0 845 202" width="845px" zoomAndPan="magnify"><defs/><g><a href="/use-case/construction-project-quotations/estimating-and-pricing/" target="_top" title="/use-case/construction-project-quotations/estimating-and-pricing/" xlink:actuate="onRequest" xlink:href="/use-case/construction-project-quotations/estimating-and-pricing/" xlink:show="new" xlink:title="/use-case/construction-project-quotations/estimating-and-pricing/" xlink:type="simple"><text fill="#4051B5" font-family="'Roboto'" font-size="13" lengthAdjust="spacing" textLength="131.9741" x="350.708" y="104.8989">Estimating &amp; Pricing</text></a><a href="/use-case/construction-project-quotations/estimating-and-pricing/quantity-takeoff/" target="_top" title="/use-case/construction-project-quotations/estimating-and-pricing/quantity-takeoff/" xlink:actuate="onRequest" xlink:href="/use-case/construction-project-quotations/estimating-and-pricing/quantity-takeoff/" xlink:show="new" xlink:title="/use-case/construction-project-quotations/estimating-and-pricing/quantity-takeoff/" xlink:type="simple"><text fill="#4051B5" font-family="'Roboto'" font-size="13" lengthAdjust="spacing" textLength="192.4165" x="547.8145" y="27.0669">Quantity Takeoff (2D/3D/BIM)</text></a><path d="M490.8145,100.3984 L490.8145,100.5853 L492.8145,100.0302 L494.8145,100.5702 L496.8145,100.7537 L498.8145,99.7643 L500.8145,100.3984 L500.8145,100.3984 L500.7866,100.378 L502.4428,97.8542 L504.2394,95.4332 L506.1338,93.0838 L507.6915,90.4879 L509.7207,88.2372 L509.9589,88.2988 L510.094,85.674 L510.9247,83.2291 L511.8402,80.8061 L512.2619,78.2554 L512.9434,75.7719 L512.9731,75.7779 L513.5037,72.9112 L514.1696,70.0717 L514.7702,67.2191 L515.4954,64.3916 L515.8145,61.4824 L516.1069,61.5412 L516.6846,58.684 L517.0738,55.7889 L517.7391,52.9493 L518.4173,50.1123 L518.6855,47.1929 L518.3752,47.1127 L519.622,44.7754 L519.847,42.1738 L520.8488,39.7732 L521.0507,37.1656 L521.9082,34.7277 L521.8836,34.7097 L523.9554,32.4902 L525.4532,29.8504 L527.2897,27.4586 L529.1546,25.0876 L530.8145,22.5664 L530.8145,22.9364 L532.8145,22.5629 L534.8145,22.8217 L536.8145,22.0576 L538.8145,22.8192 L540.8145,22.5664" fill="none" style="stroke:#FF6F00;stroke-width:1;"/><a href="/use-case/construction-project-quotations/estimating-and-pricing/unit-rates-and-cost-libraries/" target="_top" title="/use-case/construction-project-quotations/estimating-and-pricing/unit-rates-and-cost-libraries/" xlink:actuate="onRequest" xlink:href="/use-case/construction-project-quotations/estimating-and-pricing/unit-rates-and-cost-libraries/" xlink:show="new" xlink:title="/use-case/construction-project-quotations/estimating-and-pricing/unit-rates-and-cost-libraries/" xlink:type="simple"><text fill="#4051B5" font-family="'Roboto'" font-size="13" lengthAdjust="spacing" textLength="175.043" x="547.8145" y="52.1997">Unit Rates &amp; Cost Libraries</text></a><path d="M490.8145,100.3984 L490.8145,100.5853 L492.8145,100.0302 L494.8145,100.5702 L496.8145,100.7537 L498.8145,99.7643 L500.8145,100.3984 L500.8145,100.3984 L500.791,100.3731 L502.467,98.6124 L504.2612,96.9796 L506.1376,95.4356 L507.7309,93.5854 L509.7207,92.1642 L509.9539,92.2426 L510.6739,88.4518 L512.0749,84.89 L513.5589,81.3562 L514.5596,77.6597 L515.8145,74.0488 L515.8432,74.0585 L517.0197,70.4212 L518.3272,66.828 L519.5714,63.2135 L520.9362,59.6395 L521.9082,55.9335 L522.1107,56.1525 L523.8944,54.5083 L525.5475,52.7229 L527.3918,51.1442 L529.2451,49.5752 L530.8145,47.6992 L530.8145,47.0582 L532.8145,48.3023 L534.8145,47.4357 L536.8145,48.1737 L538.8145,47.2592 L540.8145,47.6992" fill="none" style="stroke:#FF6F00;stroke-width:1;"/><a href="/use-case/construction-project-quotations/estimating-and-pricing/labor-productivity-and-crew-modeling/" target="_top" title="/use-case/construction-project-quotations/estimating-and-pricing/labor-productivity-and-crew-modeling/" xlink:actuate="onRequest" xlink:href="/use-case/construction-project-quotations/estimating-and-pricing/labor-productivity-and-crew-modeling/" xlink:show="new" xlink:title="/use-case/construction-project-quotations/estimating-and-pricing/labor-productivity-and-crew-modeling/" xlink:type="simple"><text fill="#4051B5" font-family="'Roboto'" font-size="13" lengthAdjust="spacing" textLength="233.1938" x="547.8145" y="77.3325">Labor Productivity &amp; Crew Modeling</text></a><path d="M490.8145,100.3984 L490.8145,100.5853 L492.8145,100.0302 L494.8145,100.5702 L496.8145,100.7537 L498.8145,99.7643 L500.8145,100.3984 L500.8145,100.3984 L500.7994,100.3673 L502.5132,99.3663 L504.3027,98.5221 L506.145,97.7868 L507.8057,96.676 L509.7207,96.0912 L509.9277,96.2243 L510.7038,94.0445 L512.0843,92.2533 L513.5384,90.5095 L514.5636,88.4898 L515.8145,86.6152 L515.84,86.6316 L517.0213,84.7124 L518.3187,82.8678 L519.5601,80.9871 L520.9084,79.1753 L521.9082,77.1393 L522.0381,77.4078 L523.8209,76.5496 L525.52,75.5183 L527.3417,74.7404 L529.1691,73.9745 L530.8145,72.832 L530.8145,72.191 L532.8145,73.4352 L534.8145,72.5685 L536.8145,73.3065 L538.8145,72.392 L540.8145,72.832" fill="none" style="stroke:#FF6F00;stroke-width:1;"/><a href="/use-case/construction-project-quotations/estimating-and-pricing/indirects-overheads-general-conditions/" target="_top" title="/use-case/construction-project-quotations/estimating-and-pricing/indirects-overheads-general-conditions/" xlink:actuate="onRequest" xlink:href="/use-case/construction-project-quotations/estimating-and-pricing/indirects-overheads-general-conditions/" xlink:show="new" xlink:title="/use-case/construction-project-quotations/estimating-and-pricing/indirects-overheads-general-conditions/" xlink:type="simple"><text fill="#4051B5" font-family="'Roboto'" font-size="13" lengthAdjust="spacing" textLength="277.6338" x="547.8145" y="102.4653">Indirects, Overheads &amp; General Conditions</text></a><path d="M490.8145,100.3984 L490.8145,100.5853 L492.8145,100.0302 L494.8145,100.5702 L496.8145,100.7537 L498.8145,99.7643 L500.8145,100.3984 L500.8145,100.3984 L500.8117,100.364 L503.7991,99.9661 L506.8007,99.7418 L509.812,99.6382 L512.7896,99.1187 L515.8145,99.1816 L515.8343,99.4269 L518.7918,98.6591 L521.8073,98.6073 L524.83,98.6429 L527.8114,98.1702 L530.8145,97.9648 L530.8145,98.0255 L532.8145,97.9364 L534.8145,98.1235 L536.8145,98.1774 L538.8145,98.4855 L540.8145,97.9648" fill="none" style="stroke:#FF6F00;stroke-width:1;"/><polygon fill="#4051B5" points="544.8145,120.5313,544.8145,120.7414,554.9624,120.1169,565.1104,120.7245,575.2583,120.9309,585.4063,119.8179,595.5542,120.4535,605.7021,120.1048,615.8501,120.1478,625.998,120.4631,636.146,119.8399,646.2939,121.0849,656.4419,119.901,666.5898,120.3335,676.7378,120.9632,686.8857,120.4455,697.0337,120.5995,707.1816,120.4993,717.3296,120.7098,727.4775,120.5313,727.508,120.6049,728.1179,120.9459,728.6945,121.2065,729.2612,121.4434,729.7728,121.5469,730.306,121.7028,730.4487,121.762,730.7565,122.3581,730.5525,122.7422,731.2179,123.4864,731.1519,123.9277,731.4775,124.5313,731.6555,124.5313,731.3125,129.9578,731.4547,135.3844,731.7247,140.8109,731.4613,146.2375,731.4775,151.6641,731.51,151.6775,731.3475,152.2729,731.1371,152.8485,730.7734,153.3606,730.6287,153.9634,730.306,154.4925,730.2329,154.3162,729.7766,154.8144,729.2445,155.1299,728.6656,155.3323,728.1214,155.6185,727.4775,155.6641,727.4775,155.181,717.3296,155.0119,707.1816,155.0427,697.0337,155.6052,686.8857,155.4675,676.7378,156.3455,666.5898,155.4894,656.4419,155.321,646.2939,155.8923,636.146,154.9972,625.998,155.1449,615.8501,156.313,605.7021,156.0997,595.5542,156.3986,585.4063,155.3423,575.2583,155.9833,565.1104,156.2545,554.9624,155.1917,544.8145,155.6641,544.8022,155.6345,544.2648,155.4685,543.7662,155.3961,543.1169,154.9598,542.6107,154.8693,541.986,154.4925,541.8155,154.4218,541.5431,153.8404,541.6725,153.4254,541.0623,152.704,541.2055,152.2947,540.8145,151.6641,540.8833,151.6641,540.7251,146.2375,540.6965,140.8109,540.9674,135.3844,540.7147,129.9578,540.8145,124.5313,540.9967,124.6067,540.8785,123.8951,541.4732,123.4786,541.6665,122.896,541.8272,122.2998,541.986,121.7028,541.992,121.7174,542.6444,121.6923,543.1957,121.4232,543.7047,121.052,544.283,120.8482,544.8145,120.5313" style="stroke:#FF6F00;stroke-width:1.5;"/><a href="/use-case/construction-project-quotations/estimating-and-pricing/contingency-and-escalation/" target="_top" title="/use-case/construction-project-quotations/estimating-and-pricing/contingency-and-escalation/" xlink:actuate="onRequest" xlink:href="/use-case/construction-project-quotations/estimating-and-pricing/contingency-and-escalation/" xlink:show="new" xlink:title="/use-case/construction-project-quotations/estimating-and-pricing/contingency-and-escalation/" xlink:type="simple"><text fill="#4051B5" font-family="'Roboto'" font-size="13" lengthAdjust="spacing" textLength="166.5308" x="550.8145" y="142.5981">Contingency &amp; Escalation</text></a><path d="M490.8145,100.3984 L490.8145,100.5853 L492.8145,100.0302 L494.8145,100.5702 L496.8145,100.7537 L498.8145,99.7643 L500.8145,100.3984 L500.8145,100.3984 L500.7954,100.3696 L502.4911,101.4184 L504.2829,102.6125 L506.1415,103.9075 L507.7699,104.8545 L509.7207,106.2889 L509.9434,106.3936 L510.686,108.7616 L512.0787,111.4352 L513.5507,114.1461 L514.5612,116.64 L515.8145,119.248 L515.8419,119.261 L517.0204,121.8338 L518.3238,124.4655 L519.5669,127.0687 L520.925,129.7261 L521.9082,132.2072 L522.0727,132.4559 L523.856,133.6371 L525.5331,134.6577 L527.3656,135.9133 L529.2054,137.1799 L530.8145,138.0977 L530.8145,137.4566 L532.8145,138.7008 L534.8145,137.8341 L536.8145,138.5722 L538.8145,137.6576 L540.8145,138.0977" fill="none" style="stroke:#FF6F00;stroke-width:1;"/><a href="/use-case/construction-project-quotations/estimating-and-pricing/pricing-strategy-margin-markups/" target="_top" title="/use-case/construction-project-quotations/estimating-and-pricing/pricing-strategy-margin-markups/" xlink:actuate="onRequest" xlink:href="/use-case/construction-project-quotations/estimating-and-pricing/pricing-strategy-margin-markups/" xlink:show="new" xlink:title="/use-case/construction-project-quotations/estimating-and-pricing/pricing-strategy-margin-markups/" xlink:type="simple"><text fill="#4051B5" font-family="'Roboto'" font-size="13" lengthAdjust="spacing" textLength="222.4854" x="547.8145" y="182.731">Pricing Strategy (Margin/Markups)</text></a><path d="M490.8145,100.3984 L490.8145,100.5853 L492.8145,100.0302 L494.8145,100.5702 L496.8145,100.7537 L498.8145,99.7643 L500.8145,100.3984 L500.8145,100.3984 L500.7866,100.378 L502.4428,102.7187 L504.2394,105.1622 L506.1338,107.6773 L507.6915,109.9459 L509.7207,112.5597 L509.9589,112.6213 L510.094,114.9826 L510.9247,117.5238 L511.8402,120.0869 L512.2619,122.5224 L512.9434,125.025 L512.9731,125.031 L513.5037,127.8801 L514.1696,130.7564 L514.7702,133.6196 L515.4954,136.5078 L515.8145,139.3145 L516.1069,139.3732 L516.6846,142.2318 L517.0738,145.0525 L517.7391,147.9287 L518.4173,150.8075 L518.6855,153.6039 L518.3752,153.5237 L519.622,156.1725 L519.847,158.5571 L520.8488,161.1425 L521.0507,163.5211 L521.9082,166.0692 L521.8836,166.0512 L523.9554,168.6962 L525.4532,170.9209 L527.2897,173.3936 L529.1546,175.8871 L530.8145,178.2305 L530.8145,178.6005 L532.8145,178.227 L534.8145,178.4858 L536.8145,177.7217 L538.8145,178.4833 L540.8145,178.2305" fill="none" style="stroke:#FF6F00;stroke-width:1;"/><a href="/use-case/construction-project-quotations/" target="_top" title="/use-case/construction-project-quotations/" xlink:actuate="onRequest" xlink:href="/use-case/construction-project-quotations/" xlink:show="new" xlink:title="/use-case/construction-project-quotations/" xlink:type="simple"><text fill="#4051B5" font-family="'Roboto'" font-size="13" lengthAdjust="spacing" textLength="268.5757" x="14" y="104.8989">Complex Construction Project Quotations</text></a><path d="M343.708,100.3984 L343.708,100.5853 L341.708,100.0302 L339.708,100.5702 L337.708,100.7537 L335.708,99.7643 L333.708,100.3984 L333.708,100.3984 L333.708,100.3639 L327.708,100.2089 L321.708,100.228 L315.708,100.3681 L309.708,100.0912 L303.708,100.3984 L303.708,100.8906 L301.708,99.8382 L299.708,100.2226 L297.708,100.7824 L295.708,100.3222 L293.708,100.3984" fill="none" style="stroke:#FF6F00;stroke-width:1;"/><!--SRC=[xLZ_RzCu5FyzVuMFISSGXAvZ88GGeklA6BJhhjqudH2QtCHjVKtiOZihutJ_-pqxIPkaIVfbAGVIzal1_lYzptjs_Fm-RwN2GlcKkJwUMjPlBXbIHj3nwNMdSNP-tUoskpra_lQE3fxN1y-Ja7whsJq_QVJ-Yd0va8j6ysFZj3Ktj0JfzavQlQGVj3SSlXWU7CmXxxhdboc0WUY_EQJHwtN_J6DYAvQSK3R50ljeW9t9IF20kKtkSO7sbC1CmXnXAW5xVpibmgDi4g4YnjP3H9dZ1Iv1QapGY30Yi8VcwoGQ0dh0rVW9ykXeh11cBdAncC1AnH6_8M8cg29eHjKuj45l24EIA4NPI6PpSld-hFdnlDNlepfi39ygoXaQWr5jHS728VOaIH2_mAuBXj1HOgmNXYk0B7gP6E-FiSjd6fsrCW__Yhdc7oI2930dP8W3Jw5_h7USgNFi4_IWno5s_i2CX9bRR9mPxDFl1DMFh7-JbXf2y1dOoLsHRqRTUf0ZxhbfIrFONJmY4QUbfSUPpK-TSEkO2mWscaaSIN2nyC2ukudvrD5VpuF3_IbdS1p1pPQ4Szc5EGjyxp2TCnShFC2ILEmkvSFnUE3kr07tFEBehqDMxcRXfGa0mRqTUZZM9h6utQ6B5bDKxT81POg88NR83dtqoTU0C8TSGE6Y3frYfa9ZbsFgJ1YH4YxC1Ln6S62KN55ARibq3iy4Pd4jCIvyx6Ndbi9fqo5fmyrQQ7mEAALfBiybusQqqBAPpILbPXOvV6Or7CN52WO6KkXBpnPzm0zHymZfh44HWl_ihVnBVlC2FdZCHXvv_HggbUJipHlOtpuSFi8L5B32wb5LNSYUk6pDJbzH2Rha6v1asBkkddVcERO3yl9MAkB_UhckdlUESXqNv5yZrGkslrwc4yTa41NUa7NcOPoEmhnX3rQ_zhQAlJomiC2uM8w9kqwikQ4wu1X3NH7hnWhlzVAZj8D8oxTmupOaRk0MCJqBwqyNEZ91uKtlHdPq0nUrmkQnBv6D_40g_Iud20yXrDXdfYr8U8jQqy8U9z6h5f5CFYKMoSYytQ5nLwkVMVcLNYb11u4YnU-0PQub3KpgjO-bt8vLcOE7g1FjYvmIXmwf0_6RfmDiqMoikse5Tn2yFwNUKBDvJz302mZi7MD4FqGaue7IqyijNSLi5_Pn-aq5ZRpr-1fz_engWIIs0tTd3VX99GBJmDXJmVy6ilRNWCFswfQcHgIYFjOAWGszFo3WOSb6DTIQZwFVqKKuYhvyiHvNvE1hW4stO2iy8NmuhA4_eX5q6OwW_SEJshEJsl5Pvr6LdWD6bItWT4ipx72fR8yE11QKo1gwWcdKqzCGU1CcKJkUh9A5XmTSQBohbzxeJ1WsWini7uwDPtQXhL6G_WLAam8CwaIOAZd1Dq3rRIvjhIQD2NQb7GbHa2QO35UZinZtn5no1WYyJYFDgZc7XkGguQPB2_n2gnKcYaW7UsP9pJJFqHpGQCrdginDz6l3MZWRerlRns94cVwP15D8IloDz2C0skyOHAqJ8imPjkqDsK1i_jGZttICSw0-41e8dqmCrCRV4hZ3OgdrRLfvhKwd_8aLmRWuhYa79k4v1ZOG0kDrsOi-JbhoDe-LurBfxwu6ovI-CXlB3BRGzZPpi9QQTnUJfVhTfeRNKUosjrcYqMrlj52LszvacGwtlTMTA6yndGBDBMQsiTmM1v2djSL6YsIsc5FYAHoRMrBNObiPOIs5NwcgpHrczRIvzRIKblYGjbB5Yc_MJKxBykRVLVNwqRnMo1N_Mvf-1bvhQr4_cCrFbQHAPQIOnuRH5B8kbOpgkzI8geuaa_-gDA2jHPoSUbcPW9EqbAaboxfDgipaPIxx15r3goaciD9aWPvo1ult2igzWdAleDmhA3aAoeK7NzDLfurWWwHUKtzwU73u_6czFY0Arm_shzY4yHappJQ56ncY9e-i_TEBDf8y4D2Pk5I6LoeiVsHzm3SOzGAcSQzGTqhOXvEFyG2qQJTKSEPh5UR3fyu2yEB8FeOFgay4446VEbPSarhCuLf_UOMkBj_PBwqsLDW0Zy0sOL18mAwuXRd-Vm00]--></g></svg>