<svg xmlns="http://www.w3.org/2000/svg" xmlns:xlink="http://www.w3.org/1999/xlink" contentStyleType="text/css" data-diagram-type="MINDMAP" height="253px" preserveAspectRatio="none" style="width:614px;height:253px;" version="1.1" viewBox="0 0 614 253" width="614px" zoomAndPan="magnify"><defs/><g><a href="/use-case/legal-entity-management/" target="_top" title="/use-case/legal-entity-management/" xlink:actuate="onRequest" xlink:href="/use-case/legal-entity-management/" xlink:show="new" xlink:title="/use-case/legal-entity-management/" xlink:type="simple"><text fill="#4051B5" font-family="'Roboto'" font-size="13" lengthAdjust="spacing" textLength="166.9243" x="17" y="130.0317">Legal Entity Management</text></a><a href="/use-case/legal-entity-management/identification-and-registration/" target="_top" title="/use-case/legal-entity-management/identification-and-registration/" xlink:actuate="onRequest" xlink:href="/use-case/legal-entity-management/identification-and-registration/" xlink:show="new" xlink:title="/use-case/legal-entity-management/identification-and-registration/" xlink:type="simple"><text fill="#4051B5" font-family="'Roboto'" font-size="13" lengthAdjust="spacing" textLength="182.6157" x="249.0566" y="27.0669">Identification &amp; Registration</text></a><path d="M192.0566,125.5313 L192.0566,125.7181 L194.0566,125.163 L196.0566,125.7031 L198.0566,125.8865 L200.0566,124.8971 L202.0566,125.5313 L202.0566,125.5313 L202.0264,125.5145 L203.6721,122.2218 L205.47,119.0134 L207.3739,115.8636 L208.9128,112.5118 L210.9629,109.443 L211.2044,109.4902 L211.3325,106.0912 L212.1657,102.8299 L213.0849,99.5855 L213.5036,96.2433 L214.1855,92.9525 L214.2155,92.9571 L214.7457,89.1697 L215.4124,85.403 L216.0133,81.6263 L216.7398,77.8687 L217.0566,74.0488 L217.3515,74.0936 L217.9293,70.3134 L218.317,66.5043 L218.983,62.7375 L219.6621,58.9727 L219.9277,55.1451 L219.6132,55.0837 L220.8682,51.9049 L221.0875,48.5237 L222.0942,45.2964 L222.2899,41.9106 L223.1504,38.6547 L223.1238,38.6399 L225.22,35.5966 L226.6939,32.2089 L228.5351,29.0244 L230.4071,25.8569 L232.0566,22.5664 L232.0566,22.9364 L234.0566,22.5629 L236.0566,22.8217 L238.0566,22.0576 L240.0566,22.8192 L242.0566,22.5664" fill="none" style="stroke:#FF6F00;stroke-width:1;"/><a href="/use-case/legal-entity-management/corporate-governance/" target="_top" title="/use-case/legal-entity-management/corporate-governance/" xlink:actuate="onRequest" xlink:href="/use-case/legal-entity-management/corporate-governance/" xlink:show="new" xlink:title="/use-case/legal-entity-management/corporate-governance/" xlink:type="simple"><text fill="#4051B5" font-family="'Roboto'" font-size="13" lengthAdjust="spacing" textLength="147.7734" x="249.0566" y="52.1997">Corporate Governance</text></a><path d="M192.0566,125.5313 L192.0566,125.7181 L194.0566,125.163 L196.0566,125.7031 L198.0566,125.8865 L200.0566,124.8971 L202.0566,125.5313 L202.0566,125.5313 L202.0288,125.5108 L203.685,122.987 L205.4816,120.566 L207.376,118.2166 L208.9337,115.6207 L210.9629,113.37 L211.2011,113.4316 L211.3362,110.8068 L212.1669,108.3619 L213.0823,105.9389 L213.5041,103.3882 L214.1855,100.9047 L214.2153,100.9107 L214.7458,98.044 L215.4118,95.2045 L216.0124,92.352 L216.7376,89.5244 L217.0566,86.6152 L217.349,86.674 L217.9268,83.8168 L218.316,80.9217 L218.9813,78.0821 L219.6595,75.2451 L219.9277,72.3258 L219.6174,72.2455 L220.8642,69.9082 L221.0892,67.3067 L222.091,64.906 L222.2929,62.2985 L223.1504,59.8605 L223.1258,59.8425 L225.1976,57.623 L226.6954,54.9832 L228.5319,52.5914 L230.3968,50.2204 L232.0566,47.6992 L232.0566,48.0692 L234.0566,47.6957 L236.0566,47.9545 L238.0566,47.1904 L240.0566,47.952 L242.0566,47.6992" fill="none" style="stroke:#FF6F00;stroke-width:1;"/><a href="/use-case/legal-entity-management/ownership-and-capital-structure/" target="_top" title="/use-case/legal-entity-management/ownership-and-capital-structure/" xlink:actuate="onRequest" xlink:href="/use-case/legal-entity-management/ownership-and-capital-structure/" xlink:show="new" xlink:title="/use-case/legal-entity-management/ownership-and-capital-structure/" xlink:type="simple"><text fill="#4051B5" font-family="'Roboto'" font-size="13" lengthAdjust="spacing" textLength="198.1992" x="249.0566" y="77.3325">Ownership &amp; Capital Structure</text></a><path d="M192.0566,125.5313 L192.0566,125.7181 L194.0566,125.163 L196.0566,125.7031 L198.0566,125.8865 L200.0566,124.8971 L202.0566,125.5313 L202.0566,125.5313 L202.0332,125.5059 L203.7092,123.7452 L205.5034,122.1124 L207.3798,120.5685 L208.973,118.7182 L210.9629,117.297 L211.1961,117.3754 L211.9161,113.5846 L213.3171,110.0228 L214.8011,106.489 L215.8018,102.7926 L217.0566,99.1816 L217.0854,99.1913 L218.2619,95.554 L219.5693,91.9608 L220.8136,88.3463 L222.1784,84.7723 L223.1504,81.0663 L223.3529,81.2853 L225.1366,79.6411 L226.7897,77.8557 L228.634,76.277 L230.4873,74.708 L232.0566,72.832 L232.0566,72.191 L234.0566,73.4352 L236.0566,72.5685 L238.0566,73.3065 L240.0566,72.392 L242.0566,72.832" fill="none" style="stroke:#FF6F00;stroke-width:1;"/><a href="/use-case/legal-entity-management/financial-information/" target="_top" title="/use-case/legal-entity-management/financial-information/" xlink:actuate="onRequest" xlink:href="/use-case/legal-entity-management/financial-information/" xlink:show="new" xlink:title="/use-case/legal-entity-management/financial-information/" xlink:type="simple"><text fill="#4051B5" font-family="'Roboto'" font-size="13" lengthAdjust="spacing" textLength="137.4839" x="249.0566" y="102.4653">Financial Information</text></a><path d="M192.0566,125.5313 L192.0566,125.7181 L194.0566,125.163 L196.0566,125.7031 L198.0566,125.8865 L200.0566,124.8971 L202.0566,125.5313 L202.0566,125.5313 L202.0416,125.5002 L203.7554,124.4992 L205.5449,123.6549 L207.3872,122.9196 L209.0479,121.8088 L210.9629,121.224 L211.1699,121.3571 L211.946,119.1773 L213.3265,117.3861 L214.7806,115.6423 L215.8058,113.6226 L217.0566,111.748 L217.0821,111.7645 L218.2634,109.8452 L219.5609,108.0006 L220.8023,106.12 L222.1506,104.3081 L223.1504,102.2721 L223.2802,102.5406 L225.0631,101.6824 L226.7622,100.6511 L228.5838,99.8732 L230.4113,99.1073 L232.0566,97.9648 L232.0566,97.3238 L234.0566,98.568 L236.0566,97.7013 L238.0566,98.4393 L240.0566,97.5248 L242.0566,97.9648" fill="none" style="stroke:#FF6F00;stroke-width:1;"/><a href="/use-case/legal-entity-management/lifecycle-and-status/" target="_top" title="/use-case/legal-entity-management/lifecycle-and-status/" xlink:actuate="onRequest" xlink:href="/use-case/legal-entity-management/lifecycle-and-status/" xlink:show="new" xlink:title="/use-case/legal-entity-management/lifecycle-and-status/" xlink:type="simple"><text fill="#4051B5" font-family="'Roboto'" font-size="13" lengthAdjust="spacing" textLength="116.854" x="249.0566" y="127.5981">Lifecycle &amp; Status</text></a><path d="M192.0566,125.5313 L192.0566,125.7181 L194.0566,125.163 L196.0566,125.7031 L198.0566,125.8865 L200.0566,124.8971 L202.0566,125.5313 L202.0566,125.5313 L202.0538,125.4968 L205.0413,125.099 L208.0429,124.8746 L211.0542,124.771 L214.0318,124.2515 L217.0566,124.3145 L217.0765,124.5597 L220.034,123.7919 L223.0495,123.7401 L226.0722,123.7757 L229.0536,123.303 L232.0566,123.0977 L232.0566,123.1583 L234.0566,123.0693 L236.0566,123.2563 L238.0566,123.3102 L240.0566,123.6183 L242.0566,123.0977" fill="none" style="stroke:#FF6F00;stroke-width:1;"/><polygon fill="#4051B5" points="246.0566,145.6641,246.0566,145.8742,256.0538,145.2497,266.0509,145.8573,276.048,146.0637,286.0451,144.9507,296.0422,145.5863,306.0393,145.2376,316.0364,145.2806,326.0336,145.5959,336.0307,144.9727,346.0278,146.2177,356.0249,145.0338,366.022,145.4663,376.0191,146.096,386.0162,145.5783,396.0134,145.7323,406.0105,145.6321,416.0076,145.8426,426.0047,145.9032,436.0018,146.2498,445.9989,146.3351,455.996,146.3433,465.9932,145.6641,466.0256,145.7425,466.618,146.0411,467.2141,146.349,467.5982,146.1449,468.3425,146.8103,468.8216,146.8356,468.7303,146.7978,469.2203,147.4694,469.1378,147.9039,469.5034,148.524,469.9872,149.193,469.9932,149.6641,469.9769,149.6641,470.0283,155.0906,470.106,160.5172,470.1319,165.9438,469.9919,171.3703,469.9932,176.7969,470.0816,176.8335,469.5826,177.2895,469.6121,177.9645,469.459,178.5639,469.1928,179.1163,468.8216,179.6253,468.8998,179.8141,468.1943,179.7108,467.607,179.8931,467.0453,180.1369,466.5513,180.5444,465.9932,180.7969,465.9932,180.6003,455.996,181.4783,445.9989,180.6222,436.0018,180.4538,426.0047,181.0251,416.0076,180.13,406.0105,180.2777,396.0134,181.4458,386.0162,181.2325,376.0191,181.5314,366.022,180.4751,356.0249,181.1161,346.0278,181.3873,336.0307,180.3245,326.0336,180.701,316.0364,180.9229,306.0393,181.4486,296.0422,180.7927,286.0451,181.2594,276.048,180.2431,266.0509,180.1196,256.0538,181.3005,246.0566,180.7969,245.9652,180.5761,245.5559,180.7193,244.9516,180.3919,244.3254,180.0114,243.7488,179.7507,243.2282,179.6253,243.3695,179.6838,242.9017,179.0214,242.9419,178.5694,242.355,177.8577,242.4811,177.4413,242.0566,176.7969,242.2181,176.7969,242.1383,171.3703,242.0724,165.9438,242.2988,160.5172,242.2612,155.0906,242.0566,149.6641,242.1088,149.6857,242.3735,149.1326,242.4852,148.5161,242.9802,148.0584,243.0416,147.4211,243.2282,146.8356,243.2502,146.8888,243.7163,146.414,244.3079,146.2422,244.993,146.2961,245.5458,146.0307,246.0566,145.6641" style="stroke:#FF6F00;stroke-width:1.5;"/><a href="/use-case/legal-entity-management/contact-and-location-information/" target="_top" title="/use-case/legal-entity-management/contact-and-location-information/" xlink:actuate="onRequest" xlink:href="/use-case/legal-entity-management/contact-and-location-information/" xlink:show="new" xlink:title="/use-case/legal-entity-management/contact-and-location-information/" xlink:type="simple"><text fill="#4051B5" font-family="'Roboto'" font-size="13" lengthAdjust="spacing" textLength="203.8042" x="252.0566" y="167.731">Contact &amp; Location Information</text></a><a href="/use-case/legal-entity-management/contact-and-location-information/addresses/" target="_top" title="/use-case/legal-entity-management/contact-and-location-information/addresses/" xlink:actuate="onRequest" xlink:href="/use-case/legal-entity-management/contact-and-location-information/addresses/" xlink:show="new" xlink:title="/use-case/legal-entity-management/contact-and-location-information/addresses/" xlink:type="simple"><text fill="#4051B5" font-family="'Roboto'" font-size="13" lengthAdjust="spacing" textLength="67.0566" x="526.9932" y="155.1646">Addresses</text></a><path d="M469.9932,163.2305 L469.9932,163.4173 L471.9932,162.8622 L473.9932,163.4023 L475.9932,163.5857 L477.9932,162.5963 L479.9932,163.2305 L479.9932,163.2305 L479.9798,163.1986 L482.9199,161.799 L485.9273,160.56 L488.9815,159.4326 L491.8744,157.9205 L494.9932,156.9473 L495.0882,157.1742 L497.8849,155.4323 L500.9592,154.3529 L504.0673,153.3544 L506.9784,151.8855 L509.9932,150.6641 L509.9932,150.7247 L511.9932,150.6357 L513.9932,150.8228 L515.9932,150.8766 L517.9932,151.1847 L519.9932,150.6641" fill="none" style="stroke:#FF6F00;stroke-width:1;"/><a href="/use-case/legal-entity-management/contact-and-location-information/contacts/" target="_top" title="/use-case/legal-entity-management/contact-and-location-information/contacts/" xlink:actuate="onRequest" xlink:href="/use-case/legal-entity-management/contact-and-location-information/contacts/" xlink:show="new" xlink:title="/use-case/legal-entity-management/contact-and-location-information/contacts/" xlink:type="simple"><text fill="#4051B5" font-family="'Roboto'" font-size="13" lengthAdjust="spacing" textLength="57.3511" x="526.9932" y="180.2974">Contacts</text></a><path d="M469.9932,163.2305 L469.9932,163.4173 L471.9932,162.8622 L473.9932,163.4023 L475.9932,163.5857 L477.9932,162.5963 L479.9932,163.2305 L479.9932,163.2305 L479.9798,163.1986 L482.9199,164.3123 L485.9273,165.5865 L488.9815,166.9725 L491.8744,167.9736 L494.9932,169.5137 L495.0882,169.7406 L497.8849,170.5119 L500.9592,171.9459 L504.0673,173.4607 L506.9784,174.5051 L509.9932,175.7969 L509.9932,175.8575 L511.9932,175.7685 L513.9932,175.9556 L515.9932,176.0094 L517.9932,176.3175 L519.9932,175.7969" fill="none" style="stroke:#FF6F00;stroke-width:1;"/><path d="M192.0566,125.5313 L192.0566,125.7181 L194.0566,125.163 L196.0566,125.7031 L198.0566,125.8865 L200.0566,124.8971 L202.0566,125.5313 L202.0566,125.5313 L202.0376,125.5024 L203.7333,126.5512 L205.5251,127.7453 L207.3837,129.0403 L209.0121,129.9874 L210.9629,131.4218 L211.1856,131.5265 L211.9281,133.8944 L213.3208,136.568 L214.7929,139.2789 L215.8034,141.7728 L217.0566,144.3809 L217.0841,144.3938 L218.2625,146.9666 L219.5659,149.5983 L220.8091,152.2015 L222.1672,154.8589 L223.1504,157.34 L223.3149,157.5887 L225.0982,158.7699 L226.7753,159.7906 L228.6078,161.0461 L230.4476,162.3127 L232.0566,163.2305 L232.0566,162.5894 L234.0566,163.8336 L236.0566,162.9669 L238.0566,163.705 L240.0566,162.7904 L242.0566,163.2305" fill="none" style="stroke:#FF6F00;stroke-width:1;"/><a href="/use-case/legal-entity-management/compliance-and-documentation/" target="_top" title="/use-case/legal-entity-management/compliance-and-documentation/" xlink:actuate="onRequest" xlink:href="/use-case/legal-entity-management/compliance-and-documentation/" xlink:show="new" xlink:title="/use-case/legal-entity-management/compliance-and-documentation/" xlink:type="simple"><text fill="#4051B5" font-family="'Roboto'" font-size="13" lengthAdjust="spacing" textLength="195.1396" x="249.0566" y="207.8638">Compliance &amp; Documentation</text></a><path d="M192.0566,125.5313 L192.0566,125.7181 L194.0566,125.163 L196.0566,125.7031 L198.0566,125.8865 L200.0566,124.8971 L202.0566,125.5313 L202.0566,125.5313 L202.0288,125.5108 L203.685,127.8515 L205.4816,130.295 L207.376,132.8101 L208.9337,135.0787 L210.9629,137.6925 L211.2011,137.7541 L211.3362,140.1154 L212.1669,142.6566 L213.0823,145.2197 L213.5041,147.6552 L214.1855,150.1578 L214.2153,150.1638 L214.7458,153.0129 L215.4118,155.8892 L216.0124,158.7524 L216.7376,161.6406 L217.0566,164.4473 L217.349,164.506 L217.9268,167.3646 L218.316,170.1853 L218.9813,173.0615 L219.6595,175.9403 L219.9277,178.7367 L219.6174,178.6565 L220.8642,181.3053 L221.0892,183.6899 L222.091,186.2753 L222.2929,188.6539 L223.1504,191.202 L223.1258,191.184 L225.1976,193.829 L226.6954,196.0537 L228.5319,198.5264 L230.3968,201.02 L232.0566,203.3633 L232.0566,203.7333 L234.0566,203.3598 L236.0566,203.6186 L238.0566,202.8545 L240.0566,203.6161 L242.0566,203.3633" fill="none" style="stroke:#FF6F00;stroke-width:1;"/><a href="/use-case/legal-entity-management/supporting-information/" target="_top" title="/use-case/legal-entity-management/supporting-information/" xlink:actuate="onRequest" xlink:href="/use-case/legal-entity-management/supporting-information/" xlink:show="new" xlink:title="/use-case/legal-entity-management/supporting-information/" xlink:type="simple"><text fill="#4051B5" font-family="'Roboto'" font-size="13" lengthAdjust="spacing" textLength="151.106" x="249.0566" y="232.9966">Supporting Information</text></a><path d="M192.0566,125.5313 L192.0566,125.7181 L194.0566,125.163 L196.0566,125.7031 L198.0566,125.8865 L200.0566,124.8971 L202.0566,125.5313 L202.0566,125.5313 L202.0264,125.5145 L203.6721,128.6571 L205.47,131.884 L207.3739,135.1695 L208.9128,138.253 L210.9629,141.6195 L211.2044,141.6667 L211.3325,144.8639 L212.1657,148.1988 L213.0849,151.5506 L213.5036,154.8046 L214.1855,158.11 L214.2155,158.1145 L214.7457,161.8886 L215.4124,165.6834 L216.0133,169.4682 L216.7398,173.272 L217.0566,177.0137 L217.3515,177.0585 L217.9293,180.8397 L218.317,184.5921 L218.983,188.3868 L219.6621,192.1835 L219.9277,195.9174 L219.6132,195.8559 L220.8682,199.2733 L221.0875,202.4883 L222.0942,205.8572 L222.2899,209.0675 L223.1504,212.4078 L223.1238,212.3931 L225.22,215.7851 L226.6939,218.8326 L228.5351,222.0835 L230.4071,225.3513 L232.0566,228.4961 L232.0566,228.8661 L234.0566,228.4926 L236.0566,228.7514 L238.0566,227.9873 L240.0566,228.7489 L242.0566,228.4961" fill="none" style="stroke:#FF6F00;stroke-width:1;"/><!--SRC=[xLXjRzis4FwkNy4rmDAYTHEdQL4KHL77UMaI9mxifCDG504jKJOHYbH9AbasxB_lA8ko95kovTXT0yIV4lBqt7F7bpi-dvN6KWUKUm4E7UStZ_YK4xHtT7tMEZw_RdSxtHwAVnkxss-RWxTPa_v1ktk-t-hzcTZDCBbejKzRHmSfq9H9jxT_qClwGHk-_yxVtavD3hldbpc3sCJyKfDMhzVz8szZKHnrGtc89GxG0BitGoaYxhK54n9jQ8cvWZd2TSRiotr89AFy9h5A63kRY7ANHHv1UaJGa70YCKFfTmhvO3qGUlGACJeSQOIvXpmiR-1BBP2u9V9EKatG7TMZCGQz9HmfeZNbGrNCoUMNu_Rf-K6_ZvgmC2BKL70q0b23ek537pD5CiGliES14DhDZFN6uKeWYzvdnliZx8axOrr4ISE_ubxy1qbCCZRxnCSHq-WVvr1mVOu3Wfxr1CGkdiKZuynD5YuUxDE_2MhkElzcaLfIYZl0cVd5R1Xzpo17Wdbvf11M5mz9mcdgqxt2ukTskBCd90IRp6Is9BYOUE32gmEVs_gBUN1540eEsn7SB4bu9hjnpgA0xUHpvc6D1rYH5RlB-N2PYBorEX2C4TUS3hLoDnClRJ2GWgtHmvw1nF9-ZIuEkAPwdGuerqJws2LhzD4dFoB2NN81XOkwDCHSZy4kHzIzuKGfk30dvYen1qRPBoh9JK7Fu9cncLnBNCW0i-BSL3WTwfCEtAobuAb19Stuyfm2ZqTBaUFPcQJYcKaEtpWjLmivXq5iKkhBp9OTu4tKtaKcQr24u9-DkR_icPTmu34VClBn8rGh9VYdJx2-VTXyH6WeOANLOrLreRZZYZKxVqLbw9A_W2J7x7hrl0ljs1h8gtkbIV3uShrwtclAjIt8ZoFL4xQFBzEPRJ982k-OTQ4npaSHzx3RyxkzfMAl3cnSO3oiHiHR9DQPeRhW64DTaOl62lrwzLPQGwJLIrZx6M8VS9EOtephJnTUP992J-ybEEO1bpo5usPVeGOA8gLDNquGzY5KwxFmBCXuIvwcfM-Sp5krZ6IsbPWaez2xmyDTps-pPbTwhIKTH9gKzm7JN2iUCBbk7okr7Aig1vleB5aN5HAN-jI5-EFM0PReRcHUrHhk8EW_bLdGUF5UeG6B2AmTvyGq8Wg9I9lfwIVTYjbEy76-fuA7lFFo6dtxXhOYHHekt9rRZ0mnQv2uCsy4cCCRDe3_jb37JDYM_IoTGD-_EoyN1O5eOGpIXStxg86vrv1aI9MMyS0MEiuPeDzHBpDTovKhP2ZWEz8O6gc3O-Yvj-3Pb8oYetIq5gouWzjAZMWOatTnI3NO0SF8rP443rrh0EJRusbeAvFfMgvyQkXHcAFSDwTldA93EuoE9yErW1bqy-wzoqWSWpcuaOBrjQD0l1-FZK4NJJVSvAwE4Pb8rZV7kpss0FHECZyTmEABEySRzZm9Evn0N2txvufT90OgZKpLt9z1oAZPVx4BJxYH6K-JPMSXN_lPkLfEL1J2TZToNduj-kbuSGq-4xZNhFpwEQ_6hawx_8LLGbim5vG8i-Op06g8W_QxukLlavQzuQsQN2a7FXImIlshmfXci8JULy_1GWhVGo0hDRswm8keUCjZLkXsouEMAdNBGrPfSykZhaMDitHAT3ZBhBO4PmEOfRzPq3BfpNBAjCSMRafnirW5iIrdFrTfInqMDROKFI-lPGxIKafP-SrQPxTCB_v3bR2VpMkEXF6_fUbNuBMmFlMJsVnIILgfj6Hvr8ocb7MbZDHSfswqwaWA-L-LBhIqi3EZNgvCrCaY5Mh9j9QJApEpCbTiGHVGRye9p8KiqLWUWFYagZofAa-gofEgig2gSi7W4N1rra5mL9GnQBxUsTvv-xhP712DczlFh_WDXnCHFy0fx1nD0_B2UNvqqK5AH1BOU-RqcciMFd_XdE1RZ7eHDtOVK3Sa_6J_r0x0tN9BfU26kNFozMnYy6wtiKSrl9Wa445VpnnRfmwuAumcym5TNHustZiTgBeH1Fy14Gx51N3bFSpr_mC0]--></g></svg>