<svg xmlns="http://www.w3.org/2000/svg" xmlns:xlink="http://www.w3.org/1999/xlink" contentStyleType="text/css" data-diagram-type="MINDMAP" height="232px" preserveAspectRatio="none" style="width:639px;height:232px;" version="1.1" viewBox="0 0 639 232" width="639px" zoomAndPan="magnify"><defs/><g><a href="/use-case/legal-entity-management/" target="_top" title="/use-case/legal-entity-management/" xlink:actuate="onRequest" xlink:href="/use-case/legal-entity-management/" xlink:show="new" xlink:title="/use-case/legal-entity-management/" xlink:type="simple"><text fill="#90EE90" font-family="'Roboto'" font-size="14" lengthAdjust="spacing" textLength="179.7646" x="17" y="120.0342">Legal Entity Management</text></a><a href="/use-case/legal-entity-management/identification-and-registration/" target="_top" title="/use-case/legal-entity-management/identification-and-registration/" xlink:actuate="onRequest" xlink:href="/use-case/legal-entity-management/identification-and-registration/" xlink:show="new" xlink:title="/use-case/legal-entity-management/identification-and-registration/" xlink:type="simple"><text fill="#90EE90" font-family="'Roboto'" font-size="14" lengthAdjust="spacing" textLength="196.6631" x="262.2148" y="27.9951">Identification &amp; Registration</text></a><path d="M205.2148,115.1875 L205.2148,115.3743 L207.2148,114.8192 L209.2148,115.3593 L211.2148,115.5428 L213.2148,114.5534 L215.2148,115.1875 L215.2148,115.1875 L215.1855,115.1693 L216.8349,112.2115 L218.6324,109.3453 L220.5328,106.5429 L222.0786,103.5208 L224.1211,100.8064 L224.3615,100.859 L224.492,97.7984 L225.3243,94.8914 L226.2422,92.003 L226.662,89.0057 L227.3438,86.0658 L227.3736,86.0708 L227.904,82.6838 L228.5704,79.3199 L229.1712,75.9449 L229.8973,72.5911 L230.2148,69.168 L230.5089,69.2179 L231.0867,65.839 L231.4748,62.4278 L232.1406,59.0638 L232.8194,55.702 L233.0859,52.2702 L232.7728,52.2017 L234.0251,49.3865 L234.2463,46.3458 L235.2513,43.4765 L235.4491,40.4307 L236.3086,37.5295 L236.2827,37.5135 L238.3701,34.8269 L239.8527,31.7657 L241.6921,28.9255 L243.5615,26.1039 L245.2148,23.1484 L245.2148,23.5184 L247.2148,23.145 L249.2148,23.4037 L251.2148,22.6396 L253.2148,23.4012 L255.2148,23.1484" fill="none" style="stroke:#FF9900;stroke-width:1;"/><a href="/use-case/legal-entity-management/corporate-governance/" target="_top" title="/use-case/legal-entity-management/corporate-governance/" xlink:actuate="onRequest" xlink:href="/use-case/legal-entity-management/corporate-governance/" xlink:show="new" xlink:title="/use-case/legal-entity-management/corporate-governance/" xlink:type="simple"><text fill="#90EE90" font-family="'Roboto'" font-size="14" lengthAdjust="spacing" textLength="159.1406" x="262.2148" y="54.292">Corporate Governance</text></a><path d="M205.2148,115.1875 L205.2148,115.3743 L207.2148,114.8192 L209.2148,115.3593 L211.2148,115.5428 L213.2148,114.5534 L215.2148,115.1875 L215.2148,115.1875 L215.1887,115.1649 L216.8529,113.0089 L218.6486,110.967 L220.5357,109.0043 L222.1077,106.7684 L224.1211,104.9153 L224.3564,104.9873 L224.4978,102.7275 L225.3261,100.6779 L226.2383,98.6541 L226.6628,96.4809 L227.3438,94.3863 L227.3733,94.3933 L227.9042,91.969 L228.5694,89.5767 L229.1698,87.1689 L229.8939,84.7906 L230.2148,82.3164 L230.505,82.3854 L231.0828,79.9723 L231.4734,77.5147 L232.1379,75.1222 L232.8153,72.7327 L233.0859,70.2466 L232.7794,70.1527 L234.0188,68.229 L234.249,65.9964 L235.2464,63.9986 L235.4537,61.7589 L236.3086,59.7175 L236.2856,59.6976 L238.3389,57.879 L239.8547,55.5945 L241.6877,53.5849 L243.5473,51.5983 L245.2148,49.4453 L245.2148,49.8153 L247.2148,49.4418 L249.2148,49.7006 L251.2148,48.9365 L253.2148,49.6981 L255.2148,49.4453" fill="none" style="stroke:#FF9900;stroke-width:1;"/><a href="/use-case/legal-entity-management/ownership-and-capital-structure/" target="_top" title="/use-case/legal-entity-management/ownership-and-capital-structure/" xlink:actuate="onRequest" xlink:href="/use-case/legal-entity-management/ownership-and-capital-structure/" xlink:show="new" xlink:title="/use-case/legal-entity-management/ownership-and-capital-structure/" xlink:type="simple"><text fill="#90EE90" font-family="'Roboto'" font-size="14" lengthAdjust="spacing" textLength="213.4453" x="262.2148" y="80.5889">Ownership &amp; Capital Structure</text></a><path d="M205.2148,115.1875 L205.2148,115.3743 L207.2148,114.8192 L209.2148,115.3593 L211.2148,115.5428 L213.2148,114.5534 L215.2148,115.1875 L215.2148,115.1875 L215.1952,115.1591 L216.8882,113.799 L218.6804,112.582 L220.5414,111.4646 L222.165,110.0042 L224.1211,109.0242 L224.3455,109.125 L225.0843,106.1975 L226.4784,103.5644 L227.9524,100.9673 L228.9613,98.1611 L230.2148,95.4648 L230.2425,95.4773 L231.4206,92.7472 L232.7247,90.0736 L233.968,87.3728 L235.3273,84.7241 L236.3086,81.9055 L236.4783,82.1508 L238.2616,80.9211 L239.9355,79.5332 L241.7696,78.3769 L243.6112,77.2315 L245.2148,75.7422 L245.2148,75.1011 L247.2148,76.3453 L249.2148,75.4786 L251.2148,76.2167 L253.2148,75.3022 L255.2148,75.7422" fill="none" style="stroke:#FF9900;stroke-width:1;"/><a href="/use-case/legal-entity-management/financial-information/" target="_top" title="/use-case/legal-entity-management/financial-information/" xlink:actuate="onRequest" xlink:href="/use-case/legal-entity-management/financial-information/" xlink:show="new" xlink:title="/use-case/legal-entity-management/financial-information/" xlink:type="simple"><text fill="#90EE90" font-family="'Roboto'" font-size="14" lengthAdjust="spacing" textLength="148.0596" x="262.2148" y="106.8857">Financial Information</text></a><path d="M205.2148,115.1875 L205.2148,115.3743 L207.2148,114.8192 L209.2148,115.3593 L211.2148,115.5428 L213.2148,114.5534 L215.2148,115.1875 L215.2148,115.1875 L215.201,115.1559 L218.1388,113.699 L221.1464,112.4017 L224.2027,111.2152 L227.0915,109.6467 L230.2148,108.6133 L230.3136,108.8386 L233.1024,107.0419 L236.1796,105.9031 L239.2919,104.8446 L242.1995,103.319 L245.2148,102.0391 L245.2148,102.0997 L247.2148,102.0107 L249.2148,102.1978 L251.2148,102.2516 L253.2148,102.5597 L255.2148,102.0391" fill="none" style="stroke:#FF9900;stroke-width:1;"/><a href="/use-case/legal-entity-management/lifecycle-and-status/" target="_top" title="/use-case/legal-entity-management/lifecycle-and-status/" xlink:actuate="onRequest" xlink:href="/use-case/legal-entity-management/lifecycle-and-status/" xlink:show="new" xlink:title="/use-case/legal-entity-management/lifecycle-and-status/" xlink:type="simple"><text fill="#90EE90" font-family="'Roboto'" font-size="14" lengthAdjust="spacing" textLength="125.8428" x="262.2148" y="133.1826">Lifecycle &amp; Status</text></a><path d="M205.2148,115.1875 L205.2148,115.3743 L207.2148,114.8192 L209.2148,115.3593 L211.2148,115.5428 L213.2148,114.5534 L215.2148,115.1875 L215.2148,115.1875 L215.201,115.1559 L218.1388,116.3287 L221.1464,117.6611 L224.2027,119.1043 L227.0915,120.1654 L230.2148,121.7617 L230.3136,121.9871 L233.1024,122.82 L236.1796,124.3109 L239.2919,125.8821 L242.1995,126.9862 L245.2148,128.3359 L245.2148,128.3966 L247.2148,128.3075 L249.2148,128.4946 L251.2148,128.5485 L253.2148,128.8566 L255.2148,128.3359" fill="none" style="stroke:#FF9900;stroke-width:1;"/><a href="/use-case/legal-entity-management/contact-and-location-information/" target="_top" title="/use-case/legal-entity-management/contact-and-location-information/" xlink:actuate="onRequest" xlink:href="/use-case/legal-entity-management/contact-and-location-information/" xlink:show="new" xlink:title="/use-case/legal-entity-management/contact-and-location-information/" xlink:type="simple"><text fill="#90EE90" font-family="'Roboto'" font-size="14" lengthAdjust="spacing" textLength="219.4814" x="262.2148" y="159.4795">Contact &amp; Location Information</text></a><a href="/use-case/legal-entity-management/contact-and-location-information/addresses/" target="_top" title="/use-case/legal-entity-management/contact-and-location-information/addresses/" xlink:actuate="onRequest" xlink:href="/use-case/legal-entity-management/contact-and-location-information/addresses/" xlink:show="new" xlink:title="/use-case/legal-entity-management/contact-and-location-information/addresses/" xlink:type="simple"><text fill="#90EE90" font-family="'Roboto'" font-size="14" lengthAdjust="spacing" textLength="72.2148" x="547.1465" y="131.3311">Addresses</text></a><path d="M490.1465,154.6328 L490.1465,154.8196 L492.1465,154.2645 L494.1465,154.8046 L496.1465,154.9881 L498.1465,153.9987 L500.1465,154.6328 L500.1465,154.6328 L500.1312,154.6018 L501.8438,153.5832 L503.6335,152.7207 L505.4768,151.9667 L507.1354,150.8387 L509.0527,150.2346 L509.2609,150.3657 L510.0344,148.1501 L511.4159,146.3174 L512.8714,144.5313 L513.8955,142.4735 L515.1465,140.5586 L515.1721,140.5748 L516.3532,138.6158 L517.6511,136.7305 L518.8927,134.8096 L520.2417,132.9565 L521.2402,130.8826 L521.3723,131.15 L523.1552,130.2736 L524.8528,129.2248 L526.6752,128.4284 L528.5034,127.6439 L530.1465,126.4844 L530.1465,125.8433 L532.1465,127.0875 L534.1465,126.2208 L536.1465,126.9589 L538.1465,126.0444 L540.1465,126.4844" fill="none" style="stroke:#FF9900;stroke-width:1;"/><polygon fill="#4051B5" points="544.1465,149.6328,544.1465,149.843,553.9231,149.2185,563.6997,149.8261,573.4763,150.0325,583.2529,148.9194,593.0295,149.5551,602.8062,149.2063,612.5828,149.2493,622.3594,149.6328,622.3507,149.6118,622.8369,149.6542,623.5614,150.2719,623.976,150.1417,624.5969,150.5092,625.1878,150.8044,625.3208,150.8595,625.3957,151.3591,625.6774,151.9445,625.8809,152.4974,626.18,153.0899,626.3594,153.6328,626.4391,153.6328,626.5546,159.2922,626.5831,164.9516,626.5858,170.6109,626.4443,176.2703,626.3594,181.9297,626.5021,181.9888,626.3413,182.585,625.6686,182.9691,625.8654,183.7133,625.3308,184.1546,625.1878,184.7581,625.2559,184.9225,624.559,184.84,624.0477,185.2056,623.5853,185.6894,622.9188,185.6804,622.3594,185.9297,622.3594,186.035,612.5828,186.2683,602.8062,186.3459,593.0295,185.9258,583.2529,186.2169,573.4763,185.3573,563.6997,186.2141,553.9231,186.4779,544.1465,185.9297,544.2032,186.0666,543.659,185.8842,542.9535,185.3123,542.3662,185.0259,541.8045,184.8011,541.3181,184.7581,541.2999,184.7506,541.0232,184.1674,541.0593,183.7137,540.5613,183.0388,540.2752,182.4516,540.1465,181.9297,540.2226,181.9297,539.9242,176.2703,539.9734,170.6109,540.3628,164.9516,540.2917,159.2922,540.1465,153.6328,540.3727,153.7265,540.2817,153.0261,540.7134,152.5422,541.0313,152.0111,540.9383,151.3098,541.3181,150.8044,541.3058,150.7749,541.8998,150.6089,542.5326,150.5365,543.0146,150.1002,543.6398,150.0096,544.1465,149.6328" style="stroke:#FF6F00;stroke-width:1.5;"/><a href="/use-case/legal-entity-management/contact-and-location-information/contacts/" target="_top" title="/use-case/legal-entity-management/contact-and-location-information/contacts/" xlink:actuate="onRequest" xlink:href="/use-case/legal-entity-management/contact-and-location-information/contacts/" xlink:show="new" xlink:title="/use-case/legal-entity-management/contact-and-location-information/contacts/" xlink:type="simple"><text fill="#90EE90" font-family="'Roboto'" font-size="14" lengthAdjust="spacing" textLength="61.7627" x="550.1465" y="172.6279">Contacts</text></a><path d="M490.1465,154.6328 L490.1465,154.8196 L492.1465,154.2645 L494.1465,154.8046 L496.1465,154.9881 L498.1465,153.9987 L500.1465,154.6328 L500.1465,154.6328 L500.1326,154.6012 L503.0704,155.774 L506.0781,157.1064 L509.1343,158.5496 L512.0231,159.6108 L515.1465,161.207 L515.2453,161.4324 L518.034,162.2653 L521.1112,163.7562 L524.2235,165.3274 L527.1312,166.4315 L530.1465,167.7813 L530.1465,167.8419 L532.1465,167.7529 L534.1465,167.9399 L536.1465,167.9938 L538.1465,168.3019 L540.1465,167.7813" fill="none" style="stroke:#FF9900;stroke-width:1;"/><path d="M205.2148,115.1875 L205.2148,115.3743 L207.2148,114.8192 L209.2148,115.3593 L211.2148,115.5428 L213.2148,114.5534 L215.2148,115.1875 L215.2148,115.1875 L215.1952,115.1591 L216.8882,116.2643 L218.6804,117.5127 L220.5414,118.8606 L222.165,119.8655 L224.1211,121.3508 L224.3455,121.4517 L225.0843,123.9479 L226.4784,126.7385 L227.9524,129.5651 L228.9613,132.1827 L230.2148,134.9102 L230.2425,134.9226 L231.4206,137.6162 L232.7247,140.3664 L233.968,143.0893 L235.3273,145.8643 L236.3086,148.4695 L236.4783,148.7147 L238.2616,149.9504 L239.9355,151.0279 L241.7696,152.3369 L243.6112,153.6568 L245.2148,154.6328 L245.2148,153.9918 L247.2148,155.2359 L249.2148,154.3693 L251.2148,155.1073 L253.2148,154.1928 L255.2148,154.6328" fill="none" style="stroke:#FF9900;stroke-width:1;"/><a href="/use-case/legal-entity-management/compliance-and-documentation/" target="_top" title="/use-case/legal-entity-management/compliance-and-documentation/" xlink:actuate="onRequest" xlink:href="/use-case/legal-entity-management/compliance-and-documentation/" xlink:show="new" xlink:title="/use-case/legal-entity-management/compliance-and-documentation/" xlink:type="simple"><text fill="#90EE90" font-family="'Roboto'" font-size="14" lengthAdjust="spacing" textLength="210.1504" x="262.2148" y="185.7764">Compliance &amp; Documentation</text></a><path d="M205.2148,115.1875 L205.2148,115.3743 L207.2148,114.8192 L209.2148,115.3593 L211.2148,115.5428 L213.2148,114.5534 L215.2148,115.1875 L215.2148,115.1875 L215.1887,115.1649 L216.8529,117.1178 L218.6486,119.1847 L220.5357,121.331 L222.1077,123.204 L224.1211,125.4597 L224.3564,125.5317 L224.4978,127.4835 L225.3261,129.6456 L226.2383,131.8333 L226.6628,133.8718 L227.3438,135.9887 L227.3733,135.9958 L227.9042,138.3994 L228.5694,140.835 L229.1698,143.2552 L229.8939,145.7049 L230.2148,148.0586 L230.505,148.1276 L231.0828,150.5424 L231.4734,152.9127 L232.1379,155.3482 L232.8153,157.7867 L233.0859,160.1284 L232.7794,160.0346 L234.0188,162.3225 L234.249,164.3015 L235.2464,166.5153 L235.4537,168.4873 L236.3086,170.6575 L236.2856,170.6375 L238.3389,172.9278 L239.8547,174.7522 L241.6877,176.8515 L243.5473,178.9738 L245.2148,180.9297 L245.2148,181.2997 L247.2148,180.9262 L249.2148,181.185 L251.2148,180.4209 L253.2148,181.1825 L255.2148,180.9297" fill="none" style="stroke:#FF9900;stroke-width:1;"/><a href="/use-case/legal-entity-management/supporting-information/" target="_top" title="/use-case/legal-entity-management/supporting-information/" xlink:actuate="onRequest" xlink:href="/use-case/legal-entity-management/supporting-information/" xlink:show="new" xlink:title="/use-case/legal-entity-management/supporting-information/" xlink:type="simple"><text fill="#90EE90" font-family="'Roboto'" font-size="14" lengthAdjust="spacing" textLength="162.7295" x="262.2148" y="212.0732">Supporting Information</text></a><path d="M205.2148,115.1875 L205.2148,115.3743 L207.2148,114.8192 L209.2148,115.3593 L211.2148,115.5428 L213.2148,114.5534 L215.2148,115.1875 L215.2148,115.1875 L215.1855,115.1693 L216.8349,117.9639 L218.6324,120.8502 L220.5328,123.8002 L222.0786,126.5306 L224.1211,129.5686 L224.3615,129.6212 L224.492,132.4569 L225.3243,135.4461 L226.2422,138.454 L226.662,141.353 L227.3438,144.3092 L227.3736,144.3143 L227.904,147.6864 L228.5704,151.0816 L229.1712,154.4657 L229.8973,157.8711 L230.2148,161.207 L230.5089,161.257 L231.0867,164.6372 L231.4748,167.9851 L232.1406,171.3802 L232.8194,174.7775 L233.0859,178.1048 L232.7728,178.0364 L234.0251,181.1174 L234.2463,183.9729 L235.2513,186.9999 L235.4491,189.8503 L236.3086,192.8455 L236.2827,192.8294 L238.3701,195.8952 L239.8527,198.5865 L241.6921,201.4988 L243.5615,204.4296 L245.2148,207.2266 L245.2148,207.5965 L247.2148,207.2231 L249.2148,207.4819 L251.2148,206.7177 L253.2148,207.4794 L255.2148,207.2266" fill="none" style="stroke:#FF9900;stroke-width:1;"/><!--SRC=[xLXjRzf84FxkNx7NI9TMFHh89LKRLLK8WJG9X0YIIgUgYXPxW1NshhkxJeuxtN-_iS76Dc0mmRta53ubE-DddfbzctsEbQPIEunR3dKDunSB-em3EJcxQrNFh-vgxMQxGuBVpa7viD8xZBjqwxNsrMcryyVKRu7BTRLsMJshHq1pBktEQRqJZqDs-ltt_N8vSccqhsuI3e6B_pCCDMBSfP8wf4VDqK0AZrirOGiPEcf9kK8Fu3hc_6NiWcmoFehxaXsR3OPw806uOUmInatRiu3e8P01S93K9X648dtyi2Vqy3SIV4OejuX5vGY_r8A8Uv0FacaW3qmF9nZi7ZXHe3NZ0vMkmCsNyzhbLRtR9HMS1k5g9ZWP8gYFel73FhKLn7AuffQ5GEGWDjQPv2-HBFaG6-yEgIKUVEyqIb096ojnowtW3vYwn7nEeKyzMvE_ZORW-eewG5vr1EOkNWKZaoBEfYaOxBA_W5GEZ7_YI5KfnGFYBFnYCOmUsrWZOLj991UdcmvWocdkqvFKQaYiP-D4I4nsQeajG0mnYy25bGS-iT3NYs0AnnKSLoQ6sP3mGdQJcdcElP-icKKrxL45MmwNY67QmhCA3I1i6qn_TwYjXvb5gQ6357Q14KvyI2h71OQeSyrqaG4Oro3xr8G2OtJXXmVSX6kyffZ9NChr1EncoCmH1wNmm9ovgwaxCef_aKbk3de1pvZFx5ZYGZhKJjlcqccoFk1b0ql18uTCci7XEGSUZ2v53gmBIGMMMGr_Dwgc5d85Wy1bQIpVkcm3xvBQ0V6hXfSG_hEpyXVVyn8tFEK36pvzmjjA2VxvCyvl5nSV28qNsDBROrltGdh5fU_iv14Lemj_8abExRljyqurNmMGLsEbmNb-jTu-xu9g7Lx8pwFKCxRFhzAnPTARNhmJrgd6E9b5qCEMLtTx6-MUdTZaWh6e6eArJguBKpKnCCLxHQwRA_RhsKkfW4opfp1-jMkg5tKQuPDo5Zny7bQrbgpdQPWtnKc53yvK8qkLAZZQBcbD7jv4kM2oFZCnoSaLEVSEMP_7ojJeh97OQJG-VaHxoXZlhGpZxHtvzetiUGfA9kx_FHi6r2v1q5sM7Chn7URWVtkawHl2jhCL6SZtxyRRTK6OvOzXAQZVuvVm0LoIC60A7_B-m1uvJpYGNqadPiuLoXJI5VWTb0R-SvrJx1ltiFMVZfApQ3GNh7Z07QU6p0t8czHb6lsGeMTgJsA4TkY0v6iJCxP6KtEkK7tcqsDeOxplDwEJ4ZN2ON8-6yu5R6D7QevD6u8S_9tdAPpVS1I9TuEndFN6uyZK0QGjfXES85wRU21ySsgVps1hqQXbILpYW8bLmp-d8ROKOUgWeiJorijnRUQllo249KpF7uzg5LgnNATnMwuWodDnkVkIL78gkj5uUWgE0S-iK30yJkg71GfoJrZw2a_UDNMlkFi2W1oALtJaBxaS5by56HhNOm6p9AqiZ7a66uXO-GAi9Liz1Z9JgCeBl8uqjJbcXXYrEUXI-Mbpo2p1QNFKGYIcaCuISIbabbjN2XDO92g5eClqf91JJ4cAcjUqZ1HYfHIaXFzA-IWAc1QE8lIaPXJRI1l9FyjFrZohPNxo7oll_6nUAzxb_rcPdWAljKMNdypcIHLfgtf9o2DdDajPPseZbIB5a6rdagh__rhiU54qNXID5qNZHT5uweh6jOtzzcshIN2hAD-Xycw_l7_uhbBfWQQLykjRFkAu8uAtBiELeva3RupNPzTDeeGdaRtbxrx_TCJFtnWNz9wIZiTzloFITe5Vd5w60tYst3CfkC_SkFZQcZcyFoYTC8sF4ub4oDUM4MeHTMuAN_uu8hStZT87euaNd8V97n7WHWtFKot7QEl-2m00]--></g></svg>