<svg xmlns="http://www.w3.org/2000/svg" xmlns:xlink="http://www.w3.org/1999/xlink" contentStyleType="text/css" data-diagram-type="MINDMAP" height="262px" preserveAspectRatio="none" style="width:648px;height:262px;" version="1.1" viewBox="0 0 648 262" width="648px" zoomAndPan="magnify"><defs/><g><a href="/use-case/legal-entity-management/" target="_top" title="/use-case/legal-entity-management/" xlink:actuate="onRequest" xlink:href="/use-case/legal-entity-management/" xlink:show="new" xlink:title="/use-case/legal-entity-management/" xlink:type="simple"><text fill="#90EE90" font-family="'Roboto'" font-size="14" lengthAdjust="spacing" textLength="179.7646" x="17" y="135.0342">Legal Entity Management</text></a><a href="/use-case/legal-entity-management/identification-and-registration/" target="_top" title="/use-case/legal-entity-management/identification-and-registration/" xlink:actuate="onRequest" xlink:href="/use-case/legal-entity-management/identification-and-registration/" xlink:show="new" xlink:title="/use-case/legal-entity-management/identification-and-registration/" xlink:type="simple"><text fill="#90EE90" font-family="'Roboto'" font-size="14" lengthAdjust="spacing" textLength="196.6631" x="262.2148" y="27.9951">Identification &amp; Registration</text></a><path d="M205.2148,130.1875 L205.2148,130.3743 L207.2148,129.8192 L209.2148,130.3593 L211.2148,130.5428 L213.2148,129.5534 L215.2148,130.1875 L215.2148,130.1875 L215.1844,130.1713 L216.8288,126.7534 L218.6269,123.4174 L220.5319,120.1383 L222.0686,116.6632 L224.1211,113.4626 L224.3629,113.5081 L224.4903,109.9823 L225.3238,106.5892 L226.2434,103.2123 L226.6618,99.7412 L227.3438,96.3197 L227.3738,96.3241 L227.9039,92.3873 L228.5707,88.4705 L229.1716,84.544 L229.8982,80.6359 L230.2148,76.668 L230.51,76.7111 L231.0878,72.7813 L231.4753,68.8236 L232.1414,64.9067 L232.8205,60.9917 L233.0859,57.0163 L232.7709,56.957 L234.0268,53.6434 L234.2455,50.1347 L235.2527,46.7743 L235.4478,43.2612 L236.3086,39.8733 L236.2817,39.859 L238.3808,36.6832 L239.852,33.1732 L241.6937,29.8604 L243.5664,26.5641 L245.2148,23.1484 L245.2148,23.5184 L247.2148,23.145 L249.2148,23.4037 L251.2148,22.6396 L253.2148,23.4012 L255.2148,23.1484" fill="none" style="stroke:#FF9900;stroke-width:1;"/><a href="/use-case/legal-entity-management/corporate-governance/" target="_top" title="/use-case/legal-entity-management/corporate-governance/" xlink:actuate="onRequest" xlink:href="/use-case/legal-entity-management/corporate-governance/" xlink:show="new" xlink:title="/use-case/legal-entity-management/corporate-governance/" xlink:type="simple"><text fill="#90EE90" font-family="'Roboto'" font-size="14" lengthAdjust="spacing" textLength="159.1406" x="262.2148" y="54.292">Corporate Governance</text></a><path d="M205.2148,130.1875 L205.2148,130.3743 L207.2148,129.8192 L209.2148,130.3593 L211.2148,130.5428 L213.2148,129.5534 L215.2148,130.1875 L215.2148,130.1875 L215.1866,130.1676 L216.8412,127.555 L218.6381,125.0428 L220.5338,122.6005 L222.0888,119.9175 L224.1211,117.5715 L224.3599,117.631 L224.4938,114.9175 L225.3249,112.3777 L226.241,109.8591 L226.6622,107.2172 L227.3438,104.6402 L227.3735,104.6459 L227.904,101.6727 L228.5701,98.7258 L229.1707,95.7661 L229.8962,92.8307 L230.2148,89.8164 L230.5076,89.8731 L231.0854,86.9091 L231.4744,83.9084 L232.1398,80.9613 L232.8181,78.0167 L233.0859,74.9926 L232.7749,74.9151 L234.0231,72.4793 L234.2471,69.7882 L235.2497,67.2912 L235.4506,64.5944 L236.3086,62.0613 L236.2837,62.0437 L238.3591,59.7282 L239.8534,57.0024 L241.6906,54.5187 L243.5565,52.0553 L245.2148,49.4453 L245.2148,49.8153 L247.2148,49.4418 L249.2148,49.7006 L251.2148,48.9365 L253.2148,49.6981 L255.2148,49.4453" fill="none" style="stroke:#FF9900;stroke-width:1;"/><a href="/use-case/legal-entity-management/ownership-and-capital-structure/" target="_top" title="/use-case/legal-entity-management/ownership-and-capital-structure/" xlink:actuate="onRequest" xlink:href="/use-case/legal-entity-management/ownership-and-capital-structure/" xlink:show="new" xlink:title="/use-case/legal-entity-management/ownership-and-capital-structure/" xlink:type="simple"><text fill="#90EE90" font-family="'Roboto'" font-size="14" lengthAdjust="spacing" textLength="213.4453" x="262.2148" y="80.5889">Ownership &amp; Capital Structure</text></a><path d="M205.2148,130.1875 L205.2148,130.3743 L207.2148,129.8192 L209.2148,130.3593 L211.2148,130.5428 L213.2148,129.5534 L215.2148,130.1875 L215.2148,130.1875 L215.191,130.1625 L216.8652,128.349 L218.6596,126.6614 L220.5377,125.0613 L222.1276,123.1596 L224.1211,121.6804 L224.3551,121.7566 L225.0735,117.8506 L226.475,114.167 L227.9599,110.5105 L228.9598,106.6962 L230.2148,102.9648 L230.2437,102.9742 L231.4201,99.2173 L232.7278,95.5032 L233.9722,91.7684 L235.3374,88.073 L236.3086,84.2493 L236.5146,84.4649 L238.2984,82.7662 L239.9493,80.9283 L241.7947,79.294 L243.6492,77.6693 L245.2148,75.7422 L245.2148,75.1011 L247.2148,76.3453 L249.2148,75.4786 L251.2148,76.2167 L253.2148,75.3022 L255.2148,75.7422" fill="none" style="stroke:#FF9900;stroke-width:1;"/><a href="/use-case/legal-entity-management/financial-information/" target="_top" title="/use-case/legal-entity-management/financial-information/" xlink:actuate="onRequest" xlink:href="/use-case/legal-entity-management/financial-information/" xlink:show="new" xlink:title="/use-case/legal-entity-management/financial-information/" xlink:type="simple"><text fill="#90EE90" font-family="'Roboto'" font-size="14" lengthAdjust="spacing" textLength="148.0596" x="262.2148" y="106.8857">Financial Information</text></a><path d="M205.2148,130.1875 L205.2148,130.3743 L207.2148,129.8192 L209.2148,130.3593 L211.2148,130.5428 L213.2148,129.5534 L215.2148,130.1875 L215.2148,130.1875 L215.1996,130.1565 L216.9122,129.1379 L218.7019,128.2754 L220.5452,127.5214 L222.2038,126.3934 L224.1211,125.7893 L224.3293,125.9204 L225.1028,123.7048 L226.4842,121.8721 L227.9398,120.086 L228.9638,118.0282 L230.2148,116.1133 L230.2405,116.1294 L231.4216,114.1705 L232.7195,112.2852 L233.961,110.3643 L235.3101,108.5112 L236.3086,106.4373 L236.4407,106.7047 L238.2235,105.8283 L239.9212,104.7794 L241.7436,103.9831 L243.5718,103.1985 L245.2148,102.0391 L245.2148,101.398 L247.2148,102.6422 L249.2148,101.7755 L251.2148,102.5136 L253.2148,101.599 L255.2148,102.0391" fill="none" style="stroke:#FF9900;stroke-width:1;"/><a href="/use-case/legal-entity-management/lifecycle-and-status/" target="_top" title="/use-case/legal-entity-management/lifecycle-and-status/" xlink:actuate="onRequest" xlink:href="/use-case/legal-entity-management/lifecycle-and-status/" xlink:show="new" xlink:title="/use-case/legal-entity-management/lifecycle-and-status/" xlink:type="simple"><text fill="#90EE90" font-family="'Roboto'" font-size="14" lengthAdjust="spacing" textLength="125.8428" x="262.2148" y="133.1826">Lifecycle &amp; Status</text></a><path d="M205.2148,130.1875 L205.2148,130.3743 L207.2148,129.8192 L209.2148,130.3593 L211.2148,130.5428 L213.2148,129.5534 L215.2148,130.1875 L215.2148,130.1875 L215.2127,130.153 L218.2032,129.8132 L221.2043,129.6471 L224.213,129.6018 L227.1959,129.1402 L230.2148,129.2617 L230.23,129.5073 L233.1976,128.797 L236.2094,128.8037 L239.2267,128.8979 L242.2125,128.483 L245.2148,128.3359 L245.2148,128.3966 L247.2148,128.3075 L249.2148,128.4946 L251.2148,128.5485 L253.2148,128.8566 L255.2148,128.3359" fill="none" style="stroke:#FF9900;stroke-width:1;"/><polygon fill="#4051B5" points="259.2148,151.4844,259.2148,151.6946,269.0453,151.0701,278.8758,151.6777,288.7063,151.8841,298.5368,150.771,308.3673,151.4067,318.1978,151.0579,328.0282,151.1009,337.8587,151.4162,347.6892,150.793,357.5197,152.038,367.3502,150.8541,377.1807,151.2866,387.0111,151.9163,396.8416,151.3986,406.6721,151.5526,416.5026,151.4524,426.3331,151.6629,436.1636,151.7235,445.9941,152.0701,455.8245,152.1554,465.655,152.1636,475.4855,151.739,485.316,151.948,495.1465,151.4844,495.2361,151.7006,495.6202,151.4966,496.3644,152.162,496.8057,152.096,497.4773,152.586,497.9749,152.6559,497.8225,152.5928,498.1881,153.2129,498.6719,153.8819,498.6628,154.3468,498.9446,154.9321,499.1465,155.4844,499.2594,155.4844,499.2852,161.1438,499.1452,166.8031,499.2422,172.4625,498.9557,178.1219,499.1465,183.7813,499.2341,183.8175,499.081,184.4169,498.8148,184.9693,498.6323,185.5565,498.0605,185.9824,497.9749,186.6097,497.8917,186.4088,497.33,186.6526,496.836,187.0602,496.2528,187.2521,495.7991,187.7568,495.1465,187.7813,495.1465,187.6066,485.316,187.4382,475.4855,188.0095,465.655,187.1144,455.8245,187.2621,445.9941,188.4302,436.1636,188.2169,426.3331,188.5157,416.5026,187.4595,406.6721,188.1004,396.8416,188.3717,387.0111,187.3088,377.1807,187.6854,367.3502,187.9072,357.5197,188.433,347.6892,187.7771,337.8587,188.2438,328.0282,187.2275,318.1978,187.104,308.3673,188.2849,298.5368,187.0643,288.7063,188.2902,278.8758,187.9879,269.0453,187.5133,259.2148,187.7813,259.1697,187.6723,258.7077,187.6882,258.0453,187.2204,257.5933,187.2606,256.8816,186.6738,256.3864,186.6097,256.5766,186.6884,256.3012,186.1058,255.9932,185.5096,255.698,184.9186,255.6729,184.4396,255.2148,183.7813,255.4194,183.7813,255.2713,178.1219,255.3042,172.4625,255.1714,166.8031,255.4537,161.1438,255.2148,155.4844,255.2625,155.5041,255.5023,154.9407,255.4961,154.2754,255.793,153.7356,256.3156,153.2893,256.3864,152.6559,256.4412,152.7883,256.9466,152.4084,257.4767,152.0881,258.0555,151.8856,258.5616,151.5074,259.2148,151.4844" style="stroke:#FF6F00;stroke-width:1.5;"/><a href="/use-case/legal-entity-management/contact-and-location-information/" target="_top" title="/use-case/legal-entity-management/contact-and-location-information/" xlink:actuate="onRequest" xlink:href="/use-case/legal-entity-management/contact-and-location-information/" xlink:show="new" xlink:title="/use-case/legal-entity-management/contact-and-location-information/" xlink:type="simple"><text fill="#90EE90" font-family="'Roboto'" font-size="14" lengthAdjust="spacing" textLength="219.4814" x="265.2148" y="174.4795">Contact &amp; Location Information</text></a><a href="/use-case/legal-entity-management/contact-and-location-information/addresses/" target="_top" title="/use-case/legal-entity-management/contact-and-location-information/addresses/" xlink:actuate="onRequest" xlink:href="/use-case/legal-entity-management/contact-and-location-information/addresses/" xlink:show="new" xlink:title="/use-case/legal-entity-management/contact-and-location-information/addresses/" xlink:type="simple"><text fill="#90EE90" font-family="'Roboto'" font-size="14" lengthAdjust="spacing" textLength="72.2148" x="556.1465" y="161.3311">Addresses</text></a><path d="M499.1465,169.6328 L499.1465,169.8196 L501.1465,169.2645 L503.1465,169.8046 L505.1465,169.9881 L507.1465,168.9987 L509.1465,169.6328 L509.1465,169.6328 L509.1326,169.6012 L512.0704,168.1444 L515.0781,166.847 L518.1343,165.6605 L521.0231,164.092 L524.1465,163.0586 L524.2453,163.284 L527.034,161.4872 L530.1112,160.3484 L533.2235,159.2899 L536.1312,157.7643 L539.1465,156.4844 L539.1465,156.545 L541.1465,156.456 L543.1465,156.6431 L545.1465,156.6969 L547.1465,157.005 L549.1465,156.4844" fill="none" style="stroke:#FF9900;stroke-width:1;"/><a href="/use-case/legal-entity-management/contact-and-location-information/contacts/" target="_top" title="/use-case/legal-entity-management/contact-and-location-information/contacts/" xlink:actuate="onRequest" xlink:href="/use-case/legal-entity-management/contact-and-location-information/contacts/" xlink:show="new" xlink:title="/use-case/legal-entity-management/contact-and-location-information/contacts/" xlink:type="simple"><text fill="#90EE90" font-family="'Roboto'" font-size="14" lengthAdjust="spacing" textLength="61.7627" x="556.1465" y="187.6279">Contacts</text></a><path d="M499.1465,169.6328 L499.1465,169.8196 L501.1465,169.2645 L503.1465,169.8046 L505.1465,169.9881 L507.1465,168.9987 L509.1465,169.6328 L509.1465,169.6328 L509.1326,169.6012 L512.0704,170.774 L515.0781,172.1064 L518.1343,173.5496 L521.0231,174.6108 L524.1465,176.207 L524.2453,176.4324 L527.034,177.2653 L530.1112,178.7562 L533.2235,180.3274 L536.1312,181.4315 L539.1465,182.7813 L539.1465,182.8419 L541.1465,182.7529 L543.1465,182.9399 L545.1465,182.9938 L547.1465,183.3019 L549.1465,182.7813" fill="none" style="stroke:#FF9900;stroke-width:1;"/><path d="M205.2148,130.1875 L205.2148,130.3743 L207.2148,129.8192 L209.2148,130.3593 L211.2148,130.5428 L213.2148,129.5534 L215.2148,130.1875 L215.2148,130.1875 L215.1952,130.1591 L216.8882,131.2643 L218.6804,132.5127 L220.5414,133.8606 L222.165,134.8655 L224.1211,136.3508 L224.3455,136.4517 L225.0843,138.9479 L226.4784,141.7385 L227.9524,144.5651 L228.9613,147.1827 L230.2148,149.9102 L230.2425,149.9226 L231.4206,152.6162 L232.7247,155.3664 L233.968,158.0893 L235.3273,160.8643 L236.3086,163.4695 L236.4783,163.7147 L238.2616,164.9504 L239.9355,166.0279 L241.7696,167.3369 L243.6112,168.6568 L245.2148,169.6328 L245.2148,168.9918 L247.2148,170.2359 L249.2148,169.3693 L251.2148,170.1073 L253.2148,169.1928 L255.2148,169.6328" fill="none" style="stroke:#FF9900;stroke-width:1;"/><a href="/use-case/legal-entity-management/compliance-and-documentation/" target="_top" title="/use-case/legal-entity-management/compliance-and-documentation/" xlink:actuate="onRequest" xlink:href="/use-case/legal-entity-management/compliance-and-documentation/" xlink:show="new" xlink:title="/use-case/legal-entity-management/compliance-and-documentation/" xlink:type="simple"><text fill="#90EE90" font-family="'Roboto'" font-size="14" lengthAdjust="spacing" textLength="210.1504" x="262.2148" y="215.7764">Compliance &amp; Documentation</text></a><path d="M205.2148,130.1875 L205.2148,130.3743 L207.2148,129.8192 L209.2148,130.3593 L211.2148,130.5428 L213.2148,129.5534 L215.2148,130.1875 L215.2148,130.1875 L215.1866,130.1676 L216.8412,132.6014 L218.6381,135.1356 L220.5338,137.7396 L222.0888,140.1031 L224.1211,142.8035 L224.3599,142.863 L224.4938,145.322 L225.3249,147.9548 L226.241,150.6087 L226.6622,153.1393 L227.3438,155.7348 L227.3735,155.7406 L227.904,158.6969 L228.5701,161.6794 L229.1707,164.6493 L229.8962,167.6433 L230.2148,170.5586 L230.5076,170.6153 L231.0854,173.5808 L231.4744,176.5096 L232.1398,179.492 L232.8181,182.4769 L233.0859,185.3824 L232.7749,185.3048 L234.0231,188.0416 L234.2471,190.523 L235.2497,193.1985 L235.4506,195.6742 L236.3086,198.3137 L236.2837,198.2962 L238.3591,201.027 L239.8534,203.3476 L241.6906,205.9103 L243.5565,208.4933 L245.2148,210.9297 L245.2148,211.2997 L247.2148,210.9262 L249.2148,211.185 L251.2148,210.4209 L253.2148,211.1825 L255.2148,210.9297" fill="none" style="stroke:#FF9900;stroke-width:1;"/><a href="/use-case/legal-entity-management/supporting-information/" target="_top" title="/use-case/legal-entity-management/supporting-information/" xlink:actuate="onRequest" xlink:href="/use-case/legal-entity-management/supporting-information/" xlink:show="new" xlink:title="/use-case/legal-entity-management/supporting-information/" xlink:type="simple"><text fill="#90EE90" font-family="'Roboto'" font-size="14" lengthAdjust="spacing" textLength="162.7295" x="262.2148" y="242.0732">Supporting Information</text></a><path d="M205.2148,130.1875 L205.2148,130.3743 L207.2148,129.8192 L209.2148,130.3593 L211.2148,130.5428 L213.2148,129.5534 L215.2148,130.1875 L215.2148,130.1875 L215.1844,130.1713 L216.8288,133.4434 L218.6269,136.7973 L220.5319,140.2082 L222.0686,143.423 L224.1211,146.9124 L224.3629,146.9578 L224.4903,150.2892 L225.3238,153.7533 L226.2434,157.2336 L226.6618,160.6197 L227.3438,164.0553 L227.3738,164.0597 L227.9039,167.9836 L228.5707,171.9275 L229.1716,175.8617 L229.8982,179.8143 L230.2148,183.707 L230.51,183.7501 L231.0878,187.681 L231.4753,191.5841 L232.1414,195.5278 L232.8205,199.4735 L233.0859,203.3587 L232.7709,203.2995 L234.0268,206.843 L234.2455,210.1916 L235.2527,213.6884 L235.4478,217.0325 L236.3086,220.5017 L236.2817,220.4874 L238.3808,224.0016 L239.852,227.1815 L241.6937,230.5586 L243.5664,233.9523 L245.2148,237.2266 L245.2148,237.5965 L247.2148,237.2231 L249.2148,237.4819 L251.2148,236.7177 L253.2148,237.4794 L255.2148,237.2266" fill="none" style="stroke:#FF9900;stroke-width:1;"/><!--SRC=[xLXjJzj84FxkNx5NfADLBoNXe6fHLH52Ge64e0GgdQeARUnniegpw-wkuNAd- -ytjcF7TbuTuXwSo2VO6J_ppEpRx7EiD9LwnBWregvX_6A1pJYGaxExLlNywgxMRhOx9FZj79GFAxt3f4ktNcjVdLOxVqpyvhXSLskNrRDw33JZqkwSrZl9E6J7jj_RvNBiqcXVtQGS0XV_PnXgoBXB9HsH7ZM7VIayRjM48sJag2Nb2Zs0wuJpbx4BiiduCEbBTXpM7-Y-1E26iKiODntF0g87GFh0GLA7n12AsFXXJ-Z1RoJuZ51k4OlA8Nwf1H7t81yaqq0Uc1w46EmUE56WDUDzbQt0pPVpskLLlTib5Pm6uMecE1aWg8-YyKEREWeIELnJoq8WSf0OwuJvIoHBFYJ6kmDgYGVVEuiILCB1IjnoA_W39Yu9drEmgUTeyhVH45nVqH6GLns1kOjNmKXOnEaq1ODTzXUGoe7nJnAfAgLuG9ovNyo7qMC7QoGSAutaudJJFamupNnwabaDgVLid0Y9oKuiYGM88QOHkB3omASM-deHJ35o1SULYM4s93oNNLWpR-JifsjcKKrxLC6MmwLYc8xmh4832CS1qzyTQkjXfb5gw225Ks244n-Iod618UfSCrra0COrI9kQK62CBlpmW9jmZTSKCvbBkGx1RWRC779G2W_CgRkQk2EZv1TBoSr0p-6Py9aUIrp84NMojfbqcim6l6nW8NZii9HcS7ZEW0UZ2v43wrnIWMLQmz-Dggc5NC4WS5aOoxSksi2xf7P0_AhX9OJ_xApy9VUyn0rFUT-1Jv_mjbA2V_wCyzl5nGT2umMsyFROrhsGNN7PEpjzH2Nemfz8abFdRlkyCyrN0UJLM6aOFRzQRvztGRMEBkJdKUefs-TNwSGowKqktf1rfZ5EPn7qiENLtTv6kIzFBBnWBAe6OAsJwznKJGnCyLwHw-QA_VhofLH0fikdC7crQwhdTHhHat8QF7eULhMMhETfc3KbIKKFpamZIvKgEDekQOKFRw9SC9dDJ4mol29dtY7hyrYP6fqs4ZkDniUFQCyOaxsLORoz8z- -aJrFGSd4_R_dG9yw9GYwozA8Sdo7ZV2_FTBq3L7RsOeDvFjtu-sw8Cponx0KrE_nI_W0BadeCuKFUNzWZvod7CYlf9Cmvmfb2kaA_0vAVV-vpYdsZNlO-az6oLaycWjMFE2EKmFc1kHDwZADViZGCxKdCK8xSa3ojT2ChT74d2kKpNnw36sCstup6fQe4GsJy-bmBc07Er9pR3eGvE3lF4_X_4QZIBmRZ8MWwvORJoDJ1uYEcCnlYdSjz43qviG-cy3waxiY6hKiYIiSCAzgzEUMGqmSL9oPoha-Hwx3_FKNXB24wVdZSR4YAzRhD6dB5KHvBYvtNv9ApqKt7i_EmJ7WcHK9XiTf_R10GUu9Ir_HoRkcxfLqdmEGG_6AZ_m5byFygs29nlLOm6MIrZACMGORY5Zv0gmbMpq6SgbGbHTu7MbgSymbOjJce0lbfyqXbmbEcwCM8Z55T1Q8In6ptBfIbC0yKIa2NQGdHPmIIbBSl6Pbf0Wheo2b_5VAHt70h70KewSreyH6saZ-MNoovbajivF_M7ddP_DQyIx_pyhq57YjBRhyP3PFgaXRrKiY7ZcpMSXwgJPIAL8CsNOccVh_hyME5qNZHT5uKJHU58sdhcXSEzXltxQQ1BUAyXqgx_RB-uVlAfKUQ5eflxxbGuux8dZhCbmvcetWZV7wxBf9bF0aihVytUkVZlZv6-E2tbFIyRZlTqJQBl2Bqyje0C-MUoO5zvaR5rzRKuVt1wKJfl5n8f48-Teo8YsYpatXonz7vFQcKVfWDF62yp3v8mBSgE5vgkKORTr_0G00]--></g></svg>