<svg xmlns="http://www.w3.org/2000/svg" xmlns:xlink="http://www.w3.org/1999/xlink" contentStyleType="text/css" data-diagram-type="MINDMAP" height="232px" preserveAspectRatio="none" style="width:644px;height:232px;background:#FFFFFF;" version="1.1" viewBox="0 0 644 232" width="644px" zoomAndPan="magnify"><defs/><g><polygon fill="#EEB291" points="269.0518,97.0391,269.0518,97.2492,279.0283,96.6247,289.0048,97.2323,298.9813,97.4387,308.9578,96.3257,318.9343,96.9613,328.9108,96.6126,338.8874,96.6556,348.8639,96.9709,358.8404,96.3477,368.8169,97.5927,378.7934,96.4088,388.7699,96.8413,398.7464,97.471,408.7229,96.9533,418.6995,97.1073,428.676,97.0071,438.6525,97.2176,448.629,97.2782,458.6055,97.6248,468.582,97.0391,468.6676,97.2457,469.2344,97.4826,469.7459,97.5861,470.3382,97.8848,470.9344,98.1926,471.4105,98.2106,471.1884,98.1186,471.8537,98.8629,471.7878,99.3042,472.2778,99.9758,472.1953,100.4102,472.582,101.0391,472.5592,101.0391,472.8292,106.6984,472.5658,112.3578,472.6171,118.0172,472.6949,123.6766,472.582,129.3359,472.7102,129.389,472.3465,129.9011,472.2019,130.5039,471.7028,130.96,471.7324,131.635,471.4105,132.1644,471.4804,132.3332,470.9015,132.5356,470.3573,132.8218,469.6518,132.7185,469.0645,132.9008,468.582,133.3359,468.582,132.7145,458.6055,133.2771,448.629,133.1394,438.6525,134.0173,428.676,133.1613,418.6995,132.9929,408.7229,133.5642,398.7464,132.6691,388.7699,132.8168,378.7934,133.9849,368.8169,133.7716,358.8404,134.0704,348.8639,133.0141,338.8874,133.6551,328.9108,133.9264,318.9343,132.8635,308.9578,133.2401,298.9813,133.4619,289.0048,133.9877,279.0283,133.3317,269.0518,133.3359,269.1108,133.4784,268.4154,132.9311,267.834,132.6587,267.4189,132.7881,266.6976,132.1779,266.2233,132.1644,266.3801,132.2293,266.0526,131.625,265.6722,130.9988,265.4114,130.4222,265.4274,129.9601,265.0518,129.3359,264.952,129.3359,265.249,123.6766,264.8675,118.0172,265.2576,112.3578,265.2132,106.6984,265.0518,101.0391,265.1272,101.0703,265.3006,100.4794,265.7442,100.0004,265.9437,99.4203,266.0411,98.7979,266.2233,98.2106,266.2575,98.2932,266.7724,97.9362,267.4461,97.9626,267.9401,97.5554,268.5081,97.3265,269.0518,97.0391" style="stroke:#444444;stroke-width:1.5;"/><a href="/use-case/client-360/know-your-customer/core-record-management/" target="_top" title="/use-case/client-360/know-your-customer/core-record-management/" xlink:actuate="onRequest" xlink:href="/use-case/client-360/know-your-customer/core-record-management/" xlink:show="new" xlink:title="/use-case/client-360/know-your-customer/core-record-management/" xlink:type="simple"><text fill="#0000FF" font-family="'Roboto'" font-size="14" lengthAdjust="spacing" textLength="183.0801" x="275.0518" y="120.0342">Core Record Management</text></a><a href="/use-case/client-360/know-your-customer/core-record-management/countries/" target="_top" title="/use-case/client-360/know-your-customer/core-record-management/countries/" xlink:actuate="onRequest" xlink:href="/use-case/client-360/know-your-customer/core-record-management/countries/" xlink:show="new" xlink:title="/use-case/client-360/know-your-customer/core-record-management/countries/" xlink:type="simple"><text fill="#0000FF" font-family="'Roboto'" font-size="14" lengthAdjust="spacing" textLength="67.1289" x="529.582" y="27.9951">Countries</text></a><path d="M472.582,115.1875 L472.582,115.3743 L474.582,114.8192 L476.582,115.3593 L478.582,115.5428 L480.582,114.5534 L482.582,115.1875 L482.582,115.1875 L482.5527,115.1693 L484.2021,112.2115 L485.9996,109.3453 L487.9,106.5429 L489.4458,103.5208 L491.4883,100.8064 L491.7287,100.859 L491.8592,97.7984 L492.6915,94.8914 L493.6094,92.003 L494.0292,89.0057 L494.7109,86.0658 L494.7408,86.0708 L495.2712,82.6838 L495.9376,79.3199 L496.5384,75.9449 L497.2644,72.5911 L497.582,69.168 L497.8761,69.2179 L498.4539,65.839 L498.842,62.4278 L499.5078,59.0638 L500.1866,55.702 L500.4531,52.2702 L500.14,52.2017 L501.3923,49.3865 L501.6134,46.3458 L502.6185,43.4765 L502.8163,40.4307 L503.6758,37.5295 L503.6499,37.5135 L505.7372,34.8269 L507.2199,31.7657 L509.0593,28.9255 L510.9287,26.1039 L512.582,23.1484 L512.582,23.5184 L514.582,23.145 L516.582,23.4037 L518.582,22.6396 L520.582,23.4012 L522.582,23.1484" fill="none" style="stroke:#023E8A;stroke-width:1;"/><a href="/use-case/client-360/know-your-customer/core-record-management/regions/" target="_top" title="/use-case/client-360/know-your-customer/core-record-management/regions/" xlink:actuate="onRequest" xlink:href="/use-case/client-360/know-your-customer/core-record-management/regions/" xlink:show="new" xlink:title="/use-case/client-360/know-your-customer/core-record-management/regions/" xlink:type="simple"><text fill="#0000FF" font-family="'Roboto'" font-size="14" lengthAdjust="spacing" textLength="55.8496" x="529.582" y="54.292">Regions</text></a><path d="M472.582,115.1875 L472.582,115.3743 L474.582,114.8192 L476.582,115.3593 L478.582,115.5428 L480.582,114.5534 L482.582,115.1875 L482.582,115.1875 L482.5559,115.1649 L484.2201,113.0089 L486.0158,110.967 L487.9029,109.0043 L489.4749,106.7684 L491.4883,104.9153 L491.7236,104.9873 L491.865,102.7275 L492.6933,100.6779 L493.6054,98.6541 L494.03,96.4809 L494.7109,94.3863 L494.7404,94.3933 L495.2713,91.969 L495.9366,89.5767 L496.537,87.1689 L497.2611,84.7906 L497.582,82.3164 L497.8722,82.3854 L498.4499,79.9723 L498.8406,77.5147 L499.5051,75.1222 L500.1825,72.7327 L500.4531,70.2466 L500.1466,70.1527 L501.386,68.229 L501.6162,65.9964 L502.6136,63.9986 L502.8209,61.7589 L503.6758,59.7175 L503.6528,59.6976 L505.7061,57.879 L507.2219,55.5945 L509.0549,53.5849 L510.9145,51.5983 L512.582,49.4453 L512.582,49.8153 L514.582,49.4418 L516.582,49.7006 L518.582,48.9365 L520.582,49.6981 L522.582,49.4453" fill="none" style="stroke:#023E8A;stroke-width:1;"/><a href="/use-case/client-360/know-your-customer/core-record-management/jurisdictions/" target="_top" title="/use-case/client-360/know-your-customer/core-record-management/jurisdictions/" xlink:actuate="onRequest" xlink:href="/use-case/client-360/know-your-customer/core-record-management/jurisdictions/" xlink:show="new" xlink:title="/use-case/client-360/know-your-customer/core-record-management/jurisdictions/" xlink:type="simple"><text fill="#0000FF" font-family="'Roboto'" font-size="14" lengthAdjust="spacing" textLength="84.5264" x="529.582" y="80.5889">Jurisdictions</text></a><path d="M472.582,115.1875 L472.582,115.3743 L474.582,114.8192 L476.582,115.3593 L478.582,115.5428 L480.582,114.5534 L482.582,115.1875 L482.582,115.1875 L482.5624,115.1591 L484.2554,113.799 L486.0475,112.582 L487.9085,111.4646 L489.5322,110.0042 L491.4883,109.0242 L491.7127,109.125 L492.4515,106.1975 L493.8456,103.5644 L495.3196,100.9673 L496.3285,98.1611 L497.582,95.4648 L497.6097,95.4773 L498.7878,92.7472 L500.0919,90.0736 L501.3352,87.3728 L502.6945,84.7241 L503.6758,81.9055 L503.8455,82.1508 L505.6288,80.9211 L507.3027,79.5332 L509.1368,78.3769 L510.9784,77.2315 L512.582,75.7422 L512.582,75.1011 L514.582,76.3453 L516.582,75.4786 L518.582,76.2167 L520.582,75.3022 L522.582,75.7422" fill="none" style="stroke:#023E8A;stroke-width:1;"/><a href="/use-case/client-360/know-your-customer/core-record-management/legal-entities/" target="_top" title="/use-case/client-360/know-your-customer/core-record-management/legal-entities/" xlink:actuate="onRequest" xlink:href="/use-case/client-360/know-your-customer/core-record-management/legal-entities/" xlink:show="new" xlink:title="/use-case/client-360/know-your-customer/core-record-management/legal-entities/" xlink:type="simple"><text fill="#0000FF" font-family="'Roboto'" font-size="14" lengthAdjust="spacing" textLength="94.6025" x="529.582" y="106.8857">Legal Entities</text></a><path d="M472.582,115.1875 L472.582,115.3743 L474.582,114.8192 L476.582,115.3593 L478.582,115.5428 L480.582,114.5534 L482.582,115.1875 L482.582,115.1875 L482.5682,115.1559 L485.5059,113.699 L488.5136,112.4017 L491.5699,111.2152 L494.4587,109.6467 L497.582,108.6133 L497.6808,108.8386 L500.4696,107.0419 L503.5467,105.9031 L506.6591,104.8446 L509.5667,103.319 L512.582,102.0391 L512.582,102.0997 L514.582,102.0107 L516.582,102.1978 L518.582,102.2516 L520.582,102.5597 L522.582,102.0391" fill="none" style="stroke:#023E8A;stroke-width:1;"/><a href="/use-case/client-360/know-your-customer/core-record-management/locations/" target="_top" title="/use-case/client-360/know-your-customer/core-record-management/locations/" xlink:actuate="onRequest" xlink:href="/use-case/client-360/know-your-customer/core-record-management/locations/" xlink:show="new" xlink:title="/use-case/client-360/know-your-customer/core-record-management/locations/" xlink:type="simple"><text fill="#0000FF" font-family="'Roboto'" font-size="14" lengthAdjust="spacing" textLength="66.7529" x="529.582" y="133.1826">Locations</text></a><path d="M472.582,115.1875 L472.582,115.3743 L474.582,114.8192 L476.582,115.3593 L478.582,115.5428 L480.582,114.5534 L482.582,115.1875 L482.582,115.1875 L482.5682,115.1559 L485.5059,116.3287 L488.5136,117.6611 L491.5699,119.1043 L494.4587,120.1654 L497.582,121.7617 L497.6808,121.9871 L500.4696,122.82 L503.5467,124.3109 L506.6591,125.8821 L509.5667,126.9862 L512.582,128.3359 L512.582,128.3966 L514.582,128.3075 L516.582,128.4946 L518.582,128.5485 L520.582,128.8566 L522.582,128.3359" fill="none" style="stroke:#023E8A;stroke-width:1;"/><a href="/use-case/client-360/know-your-customer/core-record-management/buildings/" target="_top" title="/use-case/client-360/know-your-customer/core-record-management/buildings/" xlink:actuate="onRequest" xlink:href="/use-case/client-360/know-your-customer/core-record-management/buildings/" xlink:show="new" xlink:title="/use-case/client-360/know-your-customer/core-record-management/buildings/" xlink:type="simple"><text fill="#0000FF" font-family="'Roboto'" font-size="14" lengthAdjust="spacing" textLength="64.0869" x="529.582" y="159.4795">Buildings</text></a><path d="M472.582,115.1875 L472.582,115.3743 L474.582,114.8192 L476.582,115.3593 L478.582,115.5428 L480.582,114.5534 L482.582,115.1875 L482.582,115.1875 L482.5624,115.1591 L484.2554,116.2643 L486.0475,117.5127 L487.9085,118.8606 L489.5322,119.8655 L491.4883,121.3508 L491.7127,121.4517 L492.4515,123.9479 L493.8456,126.7385 L495.3196,129.5651 L496.3285,132.1827 L497.582,134.9102 L497.6097,134.9226 L498.7878,137.6162 L500.0919,140.3664 L501.3352,143.0893 L502.6945,145.8643 L503.6758,148.4695 L503.8455,148.7147 L505.6288,149.9504 L507.3027,151.0279 L509.1368,152.3369 L510.9784,153.6568 L512.582,154.6328 L512.582,153.9918 L514.582,155.2359 L516.582,154.3693 L518.582,155.1073 L520.582,154.1928 L522.582,154.6328" fill="none" style="stroke:#023E8A;stroke-width:1;"/><a href="/use-case/client-360/know-your-customer/core-record-management/addresses/" target="_top" title="/use-case/client-360/know-your-customer/core-record-management/addresses/" xlink:actuate="onRequest" xlink:href="/use-case/client-360/know-your-customer/core-record-management/addresses/" xlink:show="new" xlink:title="/use-case/client-360/know-your-customer/core-record-management/addresses/" xlink:type="simple"><text fill="#0000FF" font-family="'Roboto'" font-size="14" lengthAdjust="spacing" textLength="72.2148" x="529.582" y="185.7764">Addresses</text></a><path d="M472.582,115.1875 L472.582,115.3743 L474.582,114.8192 L476.582,115.3593 L478.582,115.5428 L480.582,114.5534 L482.582,115.1875 L482.582,115.1875 L482.5559,115.1649 L484.2201,117.1178 L486.0158,119.1847 L487.9029,121.331 L489.4749,123.204 L491.4883,125.4597 L491.7236,125.5317 L491.865,127.4835 L492.6933,129.6456 L493.6054,131.8333 L494.03,133.8718 L494.7109,135.9887 L494.7404,135.9958 L495.2713,138.3994 L495.9366,140.835 L496.537,143.2552 L497.2611,145.7049 L497.582,148.0586 L497.8722,148.1276 L498.4499,150.5424 L498.8406,152.9127 L499.5051,155.3482 L500.1825,157.7867 L500.4531,160.1284 L500.1466,160.0346 L501.386,162.3225 L501.6162,164.3015 L502.6136,166.5153 L502.8209,168.4873 L503.6758,170.6575 L503.6528,170.6375 L505.7061,172.9278 L507.2219,174.7522 L509.0549,176.8515 L510.9145,178.9738 L512.582,180.9297 L512.582,181.2997 L514.582,180.9262 L516.582,181.185 L518.582,180.4209 L520.582,181.1825 L522.582,180.9297" fill="none" style="stroke:#023E8A;stroke-width:1;"/><a href="/use-case/client-360/know-your-customer/core-record-management/audit/" target="_top" title="/use-case/client-360/know-your-customer/core-record-management/audit/" xlink:actuate="onRequest" xlink:href="/use-case/client-360/know-your-customer/core-record-management/audit/" xlink:show="new" xlink:title="/use-case/client-360/know-your-customer/core-record-management/audit/" xlink:type="simple"><text fill="#0000FF" font-family="'Roboto'" font-size="14" lengthAdjust="spacing" textLength="36.7158" x="529.582" y="212.0732">Audit</text></a><path d="M472.582,115.1875 L472.582,115.3743 L474.582,114.8192 L476.582,115.3593 L478.582,115.5428 L480.582,114.5534 L482.582,115.1875 L482.582,115.1875 L482.5527,115.1693 L484.2021,117.9639 L485.9996,120.8502 L487.9,123.8002 L489.4458,126.5306 L491.4883,129.5686 L491.7287,129.6212 L491.8592,132.4569 L492.6915,135.4461 L493.6094,138.454 L494.0292,141.353 L494.7109,144.3092 L494.7408,144.3143 L495.2712,147.6864 L495.9376,151.0816 L496.5384,154.4657 L497.2644,157.8711 L497.582,161.207 L497.8761,161.257 L498.4539,164.6372 L498.842,167.9851 L499.5078,171.3802 L500.1866,174.7775 L500.4531,178.1048 L500.14,178.0364 L501.3923,181.1174 L501.6134,183.9729 L502.6185,186.9999 L502.8163,189.8503 L503.6758,192.8455 L503.6499,192.8294 L505.7372,195.8952 L507.2199,198.5865 L509.0593,201.4988 L510.9287,204.4296 L512.582,207.2266 L512.582,207.5965 L514.582,207.2231 L516.582,207.4819 L518.582,206.7177 L520.582,207.4794 L522.582,207.2266" fill="none" style="stroke:#023E8A;stroke-width:1;"/><a href="/use-case/client-360/know-your-customer/" target="_top" title="/use-case/client-360/know-your-customer/" xlink:actuate="onRequest" xlink:href="/use-case/client-360/know-your-customer/" xlink:show="new" xlink:title="/use-case/client-360/know-your-customer/" xlink:type="simple"><text fill="#0000FF" font-family="'Roboto'" font-size="14" lengthAdjust="spacing" textLength="189.6016" x="14" y="120.0342">Know Your Customer (KYC)</text></a><path d="M265.0518,115.1875 L265.0518,115.3743 L263.0518,114.8192 L261.0518,115.3593 L259.0518,115.5428 L257.0518,114.5534 L255.0518,115.1875 L255.0518,115.1875 L255.0518,115.153 L249.0518,114.9979 L243.0518,115.0171 L237.0518,115.1572 L231.0518,114.8802 L225.0518,115.1875 L225.0518,115.6796 L223.0518,114.6273 L221.0518,115.0117 L219.0518,115.5715 L217.0518,115.1113 L215.0518,115.1875" fill="none" style="stroke:#023E8A;stroke-width:1;"/><!--SRC=[xLfjRzf84FxkNx5NFhHHZW89INDHLGK8IPkG445IAQggQB47sCFUfRlhSDpf_lkDty3cnG5YseiKVuczE_lCCxDlCqDEbAPIEunR3XqQncyMT1a7KZr_kAfykNweDHlD5l6VtE5XjNPMZ8kqwxNczMcbTH_AvQhbQgrQZulSL6gNbVFw12W7qDdxepGLQRPEwwsu7f8h-yz4vAnvVPiGc8eOQi3ua4hga0ur1pqfN6xLX2qaoOtwJ8DXl2MCcxPh0T5z83tW8AbD9kCKwQ9mH-Z-xyHclRucb5l4edA08xKWuX7aI28I6J7T3p3O8t2YG6l6UshMajlFNsgNr_LscvJGdMAecU2aZw0UYiQ1NMehY16_ePQ5GAGSQsi5TaWaIuvYxUq-jSJ8avv5-JmUWhGP7znnot-1K2GcSmfTwjgQ_6ES2QwlgGFaJKkWxUADtn8uRkfklx7D_WPIAXl_nf4gKeeHuYmSiHX6ZstqaR2j9D8Gfuts8EGqDxGwCwk9TMbKXKHZmvxOGa8LKmrSMEl09nRiQXfCuGm51-vvTaF22za5FdCTUo_fCujgsg4ACbQNq67QmhMsga3ODfZUxb2PgvbggQ605FOMDLGzI2h7MrHHvvhfRIfWN8FiKXEsgACDFrpW9jpWTSDCDgHS1s2tVMOEE2Y51-PKN8NYo2W-8fNS7FG2dZ6PwR74XNIeFTitPqw3TQ619-jIy8b0Aat_y9m3zrkN8lkz2qdvFLCVxXiLKmlv10DVPAakhtVP1dvBQcNYUGql8Vp8FVd4zxp43KzvpuQF7_6sKe9_-eJpsyR51qBZ1RRqziZgNfXTSRDtTlA8Yj65lv0af_P3zhndWgWja5TZfS5vURxEdlUMV1rTo2_3rLEsBy_JiMNI2I_UWFLCO9oqmezXYqz7UnlPdcvOSC5OLFN1MiNMXQQQg9ZYlI9NjHNZzVIbj0LBqwSmVhLhgXT56ZbgmL6t75EUA-uNomTWLBIMhEDgMD0rlKnpnRrzEA89dhbYySE7pk5iR4kLIY6G4AR9-nMJEiFO9T- -aOAh86_YFYgODiFWFxz_M2mCk1ZbnyALUTDLMZWW2wQGaCV9H5PvXt9CTXoKBc1eAe6q_7PoDMadtxyRkxiF6IWmqJ1q6oXFLVYQ7Rg4dXUw5z02_oKxv3zToPJ5WjIWG2xYdzbfiQ57xJnuaRNleeRt7KJQcVh95YODBMb4hzcXTrncUyK3HAz6hzcXKykIkEOzzrIYrmpHNOlXDgXuVppKV7ujL7A9RUGUsqWjR2FlBkzhEnxM2N1hKjCwIPQuLgWP_O-hCr7bQyNIJ5ny0S0QHPbetDoX6PO54wTkA9jQXbaA65O8dm9CgxgaaPfdi46TPJq5ArLMdWEPMajP5tYLwidcc2drair1brP8DeTCgubiZhgLAaX4Pqdz8-AnTkaZ6hYexZ7NjuHJF3uBXynLEX8Ty-fNgt1C5CxMDYOmoR96R2DjLA5OFj_hh9RvoNzk1M8DNk6lDS_ZzKJg-ClSb1slpTsqSbtWftXf_Rp_Pw-bvwVqKV2mfZLBMQUcxwLjvklHH6TboOp_N_FnrtpyDHz_pST_GJv-OsEKUNVL88yOoNZ_7L5wlrVSEtXVAdL0quDtTzo3vtw2n_3qrSo17UFT-Ks3A8J7QDXYAZY0SFIESK4VAMdXZaAvOz8S0hyulOmQS0azCYcuPw9nyVLgAd1OpbVHqZP8v46-NXbH0bxdfl1cxfZStPxbZum6dkekUkcO03U2hJl6llP_]--></g></svg>