<svg xmlns="http://www.w3.org/2000/svg" xmlns:xlink="http://www.w3.org/1999/xlink" contentStyleType="text/css" data-diagram-type="MINDMAP" height="182px" preserveAspectRatio="none" style="width:164px;height:182px;" version="1.1" viewBox="0 0 164 182" width="164px" zoomAndPan="magnify"><defs/><g><polygon fill="#4051B5" points="75,75,75,75.0701,77.4,74.8619,79.8,75.0644,82.2,75.1332,84.6,74.7622,87,75,86.9901,74.9761,87.5113,75.103,88.0825,75.3505,88.6884,75.682,89.1745,75.7243,89.8284,76.1716,89.9989,76.2422,89.8686,76.6569,90.2362,77.2777,90.6644,77.9237,90.7393,78.4234,91,79,91.0227,79,90.9894,83.4,91.0595,87.8,91.0797,92.2,91.1952,96.6,91,101,91.2067,101.0856,90.9749,101.6523,90.6098,102.1639,90.4398,102.7562,90.279,103.3523,89.8284,103.8284,89.7364,103.6063,89.3493,104.2717,88.6592,104.2057,88.1995,104.6958,87.5025,104.6132,87,105,87,104.9772,84.6,105.2472,82.2,104.9838,79.8,105.0351,77.4,105.1129,75,105,75.0531,105.1282,74.4338,104.7645,73.9053,104.6198,73.2299,104.1208,72.7735,104.1503,72.1716,103.8284,72.3404,103.8984,72.0742,103.3194,71.8917,102.7753,71.3199,102.0697,71.0335,101.4825,71,101,70.7929,101,70.9804,96.6,70.9345,92.2,71.2271,87.8,70.9418,83.4,71,79,70.8944,78.9562,71.3046,78.4634,71.2633,77.7836,71.5431,77.2367,72.1371,76.82,72.1716,76.1716,72.2271,76.3057,72.831,76.1635,73.2619,75.6038,73.9093,75.5669,74.5096,75.4161,75,75" style="stroke:#FF6F00;stroke-width:1.5;"/><a href="/use-case/client-360/know-your-customer/core-record-management/" target="_top" title="/use-case/client-360/know-your-customer/core-record-management/" xlink:actuate="onRequest" xlink:href="/use-case/client-360/know-your-customer/core-record-management/" xlink:show="new" xlink:title="/use-case/client-360/know-your-customer/core-record-management/" xlink:type="simple"><text fill="#90EE90" font-family="'Roboto'" font-size="14" lengthAdjust="spacing" textLength="0" x="81" y="85">Core Record Management</text></a><a href="/use-case/client-360/know-your-customer/core-record-management/countries/" target="_top" title="/use-case/client-360/know-your-customer/core-record-management/countries/" xlink:actuate="onRequest" xlink:href="/use-case/client-360/know-your-customer/core-record-management/countries/" xlink:show="new" xlink:title="/use-case/client-360/know-your-customer/core-record-management/countries/" xlink:type="simple"><text fill="#90EE90" font-family="'Roboto'" font-size="14" lengthAdjust="spacing" textLength="0" x="148" y="15">Countries</text></a><path d="M91,90 L91,90.1868 L93,89.6317 L95,90.1718 L97,90.3553 L99,89.3659 L101,90 L101,90 L100.9732,89.9782 L102.6343,87.6928 L104.4303,85.5174 L106.3203,83.4184 L107.8867,81.056 L109.9063,79.0625 L110.1427,79.1305 L110.2816,76.7429 L111.1108,74.5538 L112.0243,72.389 L112.4477,70.0832 L113.1289,67.8516 L113.1585,67.8582 L113.6893,65.2782 L114.3548,62.7282 L114.9553,60.1638 L115.6798,57.6271 L116,55 L116.2911,55.065 L116.8688,52.4955 L117.2589,49.884 L117.9237,47.334 L118.6015,44.7868 L118.8711,42.1484 L118.563,42.0599 L119.8054,39.9896 L120.0335,37.6277 L121.0327,35.4874 L121.2378,33.1189 L122.0938,30.9375 L122.0701,30.9183 L124.1306,28.9581 L125.6395,26.5488 L127.4738,24.4046 L129.3355,22.2825 L131,20 L131,20.37 L133,19.9965 L135,20.2553 L137,19.4912 L139,20.2528 L141,20" fill="none" style="stroke:#FF9900;stroke-width:1;"/><a href="/use-case/client-360/know-your-customer/core-record-management/regions/" target="_top" title="/use-case/client-360/know-your-customer/core-record-management/regions/" xlink:actuate="onRequest" xlink:href="/use-case/client-360/know-your-customer/core-record-management/regions/" xlink:show="new" xlink:title="/use-case/client-360/know-your-customer/core-record-management/regions/" xlink:type="simple"><text fill="#90EE90" font-family="'Roboto'" font-size="14" lengthAdjust="spacing" textLength="0" x="148" y="35">Regions</text></a><path d="M91,90 L91,90.1868 L93,89.6317 L95,90.1718 L97,90.3553 L99,89.3659 L101,90 L101,90 L100.9772,89.974 L102.6563,88.295 L104.4501,86.7469 L106.3238,85.2897 L107.9224,83.519 L109.9063,82.1875 L110.1382,82.2697 L110.861,78.6564 L112.2609,75.2831 L113.7434,71.9392 L114.7453,68.4248 L116,65 L116.0286,65.0101 L117.2054,61.5578 L118.5123,58.1515 L119.7564,54.723 L121.1203,51.337 L122.0938,47.8125 L122.2904,48.0367 L124.0741,46.477 L125.7309,44.7726 L127.5734,43.2799 L129.4246,41.7971 L131,40 L131,39.3589 L133,40.6031 L135,39.7364 L137,40.4745 L139,39.56 L141,40" fill="none" style="stroke:#FF9900;stroke-width:1;"/><a href="/use-case/client-360/know-your-customer/core-record-management/jurisdictions/" target="_top" title="/use-case/client-360/know-your-customer/core-record-management/jurisdictions/" xlink:actuate="onRequest" xlink:href="/use-case/client-360/know-your-customer/core-record-management/jurisdictions/" xlink:show="new" xlink:title="/use-case/client-360/know-your-customer/core-record-management/jurisdictions/" xlink:type="simple"><text fill="#90EE90" font-family="'Roboto'" font-size="14" lengthAdjust="spacing" textLength="0" x="148" y="55">Jurisdictions</text></a><path d="M91,90 L91,90.1868 L93,89.6317 L95,90.1718 L97,90.3553 L99,89.3659 L101,90 L101,90 L100.9839,89.9694 L102.693,88.8948 L104.4831,87.9742 L106.3296,87.1607 L107.9819,85.9781 L109.9063,85.3125 L110.1181,85.4377 L110.8838,83.1075 L112.2681,81.1428 L113.7278,79.2227 L114.7484,77.0431 L116,75 L116.0261,75.0154 L117.2065,72.9303 L118.5058,70.9154 L119.7478,68.8666 L121.0991,66.8824 L122.0938,64.6875 L122.2327,64.9514 L124.0156,64.0171 L125.709,62.9126 L127.5335,62.0573 L129.3641,61.2137 L131,60 L131,59.3589 L133,60.6031 L135,59.7364 L137,60.4745 L139,59.56 L141,60" fill="none" style="stroke:#FF9900;stroke-width:1;"/><a href="/use-case/client-360/know-your-customer/core-record-management/legal-entities/" target="_top" title="/use-case/client-360/know-your-customer/core-record-management/legal-entities/" xlink:actuate="onRequest" xlink:href="/use-case/client-360/know-your-customer/core-record-management/legal-entities/" xlink:show="new" xlink:title="/use-case/client-360/know-your-customer/core-record-management/legal-entities/" xlink:type="simple"><text fill="#90EE90" font-family="'Roboto'" font-size="14" lengthAdjust="spacing" textLength="0" x="148" y="75">Legal Entities</text></a><path d="M91,90 L91,90.1868 L93,89.6317 L95,90.1718 L97,90.3553 L99,89.3659 L101,90 L101,90 L100.9891,89.9672 L103.9401,88.8202 L106.9461,87.8383 L109.9904,86.9713 L112.9028,85.7085 L116,85 L116.0778,85.2334 L118.9114,83.7343 L121.9722,82.9166 L125.0607,82.1821 L127.9879,80.9638 L131,80 L131,80.0607 L133,79.9716 L135,80.1587 L137,80.2126 L139,80.5206 L141,80" fill="none" style="stroke:#FF9900;stroke-width:1;"/><a href="/use-case/client-360/know-your-customer/core-record-management/locations/" target="_top" title="/use-case/client-360/know-your-customer/core-record-management/locations/" xlink:actuate="onRequest" xlink:href="/use-case/client-360/know-your-customer/core-record-management/locations/" xlink:show="new" xlink:title="/use-case/client-360/know-your-customer/core-record-management/locations/" xlink:type="simple"><text fill="#90EE90" font-family="'Roboto'" font-size="14" lengthAdjust="spacing" textLength="0" x="148" y="95">Locations</text></a><path d="M91,90 L91,90.1868 L93,89.6317 L95,90.1718 L97,90.3553 L99,89.3659 L101,90 L101,90 L100.9891,89.9672 L103.9401,90.8202 L106.9461,91.8383 L109.9904,92.9713 L112.9028,93.7085 L116,95 L116.0778,95.2334 L118.9114,95.7343 L121.9722,96.9166 L125.0607,98.1821 L127.9879,98.9638 L131,100 L131,100.0607 L133,99.9716 L135,100.1587 L137,100.2126 L139,100.5206 L141,100" fill="none" style="stroke:#FF9900;stroke-width:1;"/><a href="/use-case/client-360/know-your-customer/core-record-management/buildings/" target="_top" title="/use-case/client-360/know-your-customer/core-record-management/buildings/" xlink:actuate="onRequest" xlink:href="/use-case/client-360/know-your-customer/core-record-management/buildings/" xlink:show="new" xlink:title="/use-case/client-360/know-your-customer/core-record-management/buildings/" xlink:type="simple"><text fill="#90EE90" font-family="'Roboto'" font-size="14" lengthAdjust="spacing" textLength="0" x="148" y="115">Buildings</text></a><path d="M91,90 L91,90.1868 L93,89.6317 L95,90.1718 L97,90.3553 L99,89.3659 L101,90 L101,90 L100.9839,89.9694 L102.693,90.7698 L104.4831,91.7242 L106.3296,92.7857 L107.9819,93.4781 L109.9063,94.6875 L110.1181,94.8127 L110.8838,96.6075 L112.2681,98.7678 L113.7278,100.9727 L114.7484,102.9181 L116,105 L116.0261,105.0154 L117.2065,107.0553 L118.5058,109.1654 L119.7478,111.2416 L121.0991,113.3824 L122.0938,115.3125 L122.2327,115.5764 L124.0156,116.5171 L125.709,117.2876 L127.5335,118.3073 L129.3641,119.3387 L131,120 L131,119.3589 L133,120.6031 L135,119.7364 L137,120.4745 L139,119.56 L141,120" fill="none" style="stroke:#FF9900;stroke-width:1;"/><a href="/use-case/client-360/know-your-customer/core-record-management/addresses/" target="_top" title="/use-case/client-360/know-your-customer/core-record-management/addresses/" xlink:actuate="onRequest" xlink:href="/use-case/client-360/know-your-customer/core-record-management/addresses/" xlink:show="new" xlink:title="/use-case/client-360/know-your-customer/core-record-management/addresses/" xlink:type="simple"><text fill="#90EE90" font-family="'Roboto'" font-size="14" lengthAdjust="spacing" textLength="0" x="148" y="135">Addresses</text></a><path d="M91,90 L91,90.1868 L93,89.6317 L95,90.1718 L97,90.3553 L99,89.3659 L101,90 L101,90 L100.9772,89.974 L102.6563,91.42 L104.4501,92.9969 L106.3238,94.6647 L107.9224,96.019 L109.9063,97.8125 L110.1382,97.8947 L110.861,101.1564 L112.2609,104.6581 L113.7434,108.1892 L114.7453,111.5498 L116,115 L116.0286,115.0101 L117.2054,118.4328 L118.5123,121.9015 L119.7564,125.348 L121.1203,128.837 L122.0938,132.1875 L122.2904,132.4117 L124.0741,133.977 L125.7309,135.3976 L127.5734,137.0299 L129.4246,138.6721 L131,140 L131,139.3589 L133,140.6031 L135,139.7364 L137,140.4745 L139,139.56 L141,140" fill="none" style="stroke:#FF9900;stroke-width:1;"/><a href="/use-case/client-360/know-your-customer/core-record-management/audit/" target="_top" title="/use-case/client-360/know-your-customer/core-record-management/audit/" xlink:actuate="onRequest" xlink:href="/use-case/client-360/know-your-customer/core-record-management/audit/" xlink:show="new" xlink:title="/use-case/client-360/know-your-customer/core-record-management/audit/" xlink:type="simple"><text fill="#90EE90" font-family="'Roboto'" font-size="14" lengthAdjust="spacing" textLength="0" x="148" y="155">Audit</text></a><path d="M91,90 L91,90.1868 L93,89.6317 L95,90.1718 L97,90.3553 L99,89.3659 L101,90 L101,90 L100.9732,89.9782 L102.6343,92.0678 L104.4303,94.2674 L106.3203,96.5434 L107.8867,98.556 L109.9063,100.9375 L110.1427,101.0055 L110.2816,103.1023 L111.1108,105.3976 L112.0243,107.7171 L112.4477,109.8957 L113.1289,112.1484 L113.1585,112.155 L113.6893,114.7157 L114.3548,117.3064 L114.9553,119.8825 L115.6798,122.4864 L116,125 L116.2911,125.065 L116.8688,127.6361 L117.2589,130.1653 L117.9237,132.7559 L118.6015,135.3493 L118.8711,137.8516 L118.563,137.763 L119.8054,140.1771 L120.0335,142.2995 L121.0327,144.6437 L121.2378,146.7595 L122.0938,149.0625 L122.0701,149.0433 L124.1306,151.4581 L125.6395,153.4238 L127.4738,155.6546 L129.3355,157.9075 L131,160 L131,160.37 L133,159.9965 L135,160.2553 L137,159.4912 L139,160.2528 L141,160" fill="none" style="stroke:#FF9900;stroke-width:1;"/><a href="/use-case/client-360/know-your-customer/" target="_top" title="/use-case/client-360/know-your-customer/" xlink:actuate="onRequest" xlink:href="/use-case/client-360/know-your-customer/" xlink:show="new" xlink:title="/use-case/client-360/know-your-customer/" xlink:type="simple"><text fill="#90EE90" font-family="'Roboto'" font-size="14" lengthAdjust="spacing" textLength="0" x="14" y="85">Know Your Customer (KYC)</text></a><path d="M71,90 L71,90.1868 L69,89.6317 L67,90.1718 L65,90.3553 L63,89.3659 L61,90 L61,90 L61,89.9655 L55,89.8104 L49,89.8296 L43,89.9697 L37,89.6927 L31,90 L31,90.4921 L29,89.4398 L27,89.8242 L25,90.384 L23,89.9238 L21,90" fill="none" style="stroke:#FF9900;stroke-width:1;"/><!--SRC=[xLfjKziu4FxkNw4h7u3XqYGKc9RfT4X2e8M4C0bqXkbq6CNU9BhOKYh9SBbE__kjxJXndCHvmUx13Vc2BQsUVNOjQQLdE56QIkqmRZbqO1X_MD1X74Zv_BvU-d9rNsdK6atY_xOE2eV5zc7Kf5MjDAvEIysxaTqSa-jIvR9qNXq3pPWqcgVLPjGFsUfqZZg5mjZah75rCsNWctW_mr1znWTKKeUqgTdlIk5ogo9i8KD3BIbNQ05SHum_3mSWQuptexPaosRTdkvA06uOsuHnqtOj8Be7f0iS9BN964AH3Wvi2ztxa_Z32EKMiQZiuqWjY7W0-IYP1lB8T2_0O0_0YGAj6U-gU0PkFd-fN5vLMorInCyW1fe9Jde8wg5e7DYXje983DVKiX2874JQca7y4icIzv7sLezQuj6pZgFucR0n4xVSyXzWP1AnEOKETMrDVXfdWkihwW1vqnGOktZZjmH9d7mclx75_W5IF31-HP5AKef7n9axOZwC7jgO8s5RqqW3_Doq2oDECqFBiTamDP-Dif0OxAWdCW7HnSG35zOwy5CJVJKFfd06WkFCH3SR4fxBBiYPwzZxqpcpgAPjgY1bTrC-J5kuLgOEX6s3wQqEbRgRYPSA6aXXP-YXx45IESpGHPLhfhDqmBW6sQ4cPEYZ1JzSu2PSOvbY9XjGhWEmcnup-noKmWrpOgv6viWeEYAHt0pq79uHcycsn8Lqg1tlcmcdnZg0nGOMWeyD4cdwc-SCkD-w4DdldKlAxvday9rHChMGInZu9WjzURsB5l0sgHmGBsjOXF1bQ-alkkObBdZAkpPy_8ZLIWd-wHD-tnPEFX0Q2zZ2wf5MNOZFk7ZDdjwY8dJXRoJ9gNsVFk_OuIi3ycgeD3WlBzVfyyuers51VXcfdh1zUPcEJ9FsgF06h6C7u-ae_3DiOVbfRwFOamCB2en5LG-iLMAT6wg9ZYdM5Rbgh7XUJvvA6KIQ_0cZfLrJFU-a4Luf9yx3ws59QydQheRPhYYfyC8PEyXIfJBsjatgmSMRg06OhCDC338eaJFtaDLvB0sDJWuIMsTd7pvWVwmpUhOoZ3toxHl9kmfo9Yx_l6aplBFatXqLydqk7dD3uSgSwIej791vKqZ8uHn44Zc7ShoZEMYTnnEr1DBqsqbzt4w-VpVszkvJS61YQZ3_e3nNeyVqq2LqlHj77YFm7z93_ikLJ5aikD7aoKNqDJqlDdIfdGFlGk2dgEQz1nU4LFDa2vEE8gc5Z-cXjrrcUve7efV3n_JGgML9dF9UUahXOuhehiLm6PIyFnvgBhSMAhd4DdA7RQGoQYCxbtULNG_h170N2IMyasb5BqE9x1cBKU5UkA8I5JMV0x261ZNUX1Tir_CtvmJLwQc0II9J4iOiWmrafVKSh2GaFGKoKJfQ5tWLiMXpp0HvQ7FGXOBGvf194j3cg9c8FY6T1N9Fo6njfISCO9xC4u8kKdX2JX5jPtoSZ0ix8LPCqvcoNoheZ1t6fPmn-hIA4rb86maoYtVMTMRBxCT_gk3oktajkId_Psbw3hnMba5-CvjdbQHK5OoGnvhHB6ITg5OKivGdqeuabl__jVpmgZ6yQWol6iEhnh2-nd1jumdujbuZ3tZAylvHfVXslx1_-BPOR8EcnSBEBVVmkN_xP5WQD7DWrzWvlwuHXVXuLBUO2lOh7BvhND07IfgufD3kc3G6m2zEByC6d4CFJ0hknMXSVArF38uEScKCjGKIYP2lTIDK1whS5DwdEoQtDsUvzqODIuwBQJecm8rWxGwnh_Kl]--></g></svg>