<svg xmlns="http://www.w3.org/2000/svg" xmlns:xlink="http://www.w3.org/1999/xlink" contentStyleType="text/css" data-diagram-type="MINDMAP" height="223px" preserveAspectRatio="none" style="width:610px;height:223px;" version="1.1" viewBox="0 0 610 223" width="610px" zoomAndPan="magnify"><defs/><g><polygon fill="#4051B5" points="255.1909,92.9648,255.1909,93.175,264.9875,92.5505,274.7841,93.1581,284.5807,93.3645,294.3773,92.2514,304.1739,92.8871,313.9705,92.5384,323.7671,92.5813,333.5637,92.8967,343.3602,92.2735,353.1568,93.5185,362.9534,92.3346,372.75,92.7671,382.5466,93.3968,392.3432,92.8791,402.1398,93.0331,411.9364,92.9329,421.733,93.1434,431.5296,93.204,441.3262,92.9648,441.4009,93.1452,441.9775,93.4058,442.5442,93.6427,443.0557,93.7462,443.648,94.0449,444.1546,94.1364,444.3709,94.226,444.1668,94.6101,444.8322,95.3543,444.7662,95.7957,445.2562,96.4673,445.3262,96.9648,445.1612,96.9648,445.3033,102.3914,445.5734,107.818,445.3099,113.2445,445.3613,118.6711,445.3262,124.0977,445.4305,124.1409,445.22,124.7164,444.8563,125.2285,444.7117,125.8313,444.2126,126.2874,444.1546,126.9261,444.1909,127.0137,443.6588,127.3292,443.0799,127.5316,442.5357,127.8178,441.8302,127.7146,441.3262,128.0977,441.3262,127.4455,431.5296,127.4763,421.733,128.0388,411.9364,127.9011,402.1398,128.7791,392.3432,127.923,382.5466,127.7546,372.75,128.3259,362.9534,127.4308,353.1568,127.5785,343.3602,128.7466,333.5637,128.5333,323.7671,128.8321,313.9705,127.7759,304.1739,128.4169,294.3773,128.6881,284.5807,127.6253,274.7841,128.0018,264.9875,128.2236,255.1909,128.0977,255.2741,128.2984,254.6247,127.8621,254.1186,127.7715,253.4232,127.2242,252.8418,126.9518,252.3625,126.9261,252.5176,126.9903,251.9074,126.2689,252.0506,125.8596,251.7232,125.2554,251.3427,124.6292,251.1909,124.0977,251.073,124.0977,251.3438,118.6711,251.0911,113.2445,251.3882,107.818,251.0067,102.3914,251.1909,96.9648,251.3811,97.0436,251.5744,96.4609,251.735,95.8647,251.9084,95.2738,252.3519,94.7948,252.3625,94.1364,252.4408,94.3254,252.9498,93.9542,253.5281,93.7504,254.0429,93.3934,254.7166,93.4198,255.1909,92.9648" style="stroke:#FF6F00;stroke-width:1.5;"/><a href="/use-case/client-360/know-your-customer/core-record-management/" target="_top" title="/use-case/client-360/know-your-customer/core-record-management/" xlink:actuate="onRequest" xlink:href="/use-case/client-360/know-your-customer/core-record-management/" xlink:show="new" xlink:title="/use-case/client-360/know-your-customer/core-record-management/" xlink:type="simple"><text fill="#4051B5" font-family="'Roboto'" font-size="13" lengthAdjust="spacing" textLength="170.0029" x="261.1909" y="115.0317">Core Record Management</text></a><a href="/use-case/client-360/know-your-customer/core-record-management/countries/" target="_top" title="/use-case/client-360/know-your-customer/core-record-management/countries/" xlink:actuate="onRequest" xlink:href="/use-case/client-360/know-your-customer/core-record-management/countries/" xlink:show="new" xlink:title="/use-case/client-360/know-your-customer/core-record-management/countries/" xlink:type="simple"><text fill="#4051B5" font-family="'Roboto'" font-size="13" lengthAdjust="spacing" textLength="62.334" x="502.3262" y="27.0669">Countries</text></a><path d="M445.3262,110.5313 L445.3262,110.7181 L447.3262,110.163 L449.3262,110.7031 L451.3262,110.8865 L453.3262,109.8971 L455.3262,110.5313 L455.3262,110.5313 L455.2972,110.5125 L456.9483,107.6793 L458.7456,104.9408 L460.6445,102.2681 L462.1933,99.3685 L464.2324,96.7867 L464.4723,96.8416 L464.6039,93.9067 L465.4358,91.1319 L466.3532,88.3767 L466.7734,85.5077 L467.4551,82.6986 L467.4849,82.7039 L468.0153,79.4662 L468.6816,76.2526 L469.2824,73.0273 L470.0082,69.8243 L470.3262,66.5488 L470.6198,66.601 L471.1976,63.3717 L471.586,60.1087 L472.2517,56.895 L472.9303,53.6836 L473.1973,50.399 L472.8848,50.3276 L474.1358,47.6487 L474.3579,44.7344 L475.3621,41.9991 L475.5609,39.0795 L476.4199,36.3109 L476.3944,36.2944 L478.4778,33.7412 L479.9642,30.8013 L481.8029,28.0897 L483.6712,25.3972 L485.3262,22.5664 L485.3262,22.9364 L487.3262,22.5629 L489.3262,22.8217 L491.3262,22.0576 L493.3262,22.8192 L495.3262,22.5664" fill="none" style="stroke:#FF6F00;stroke-width:1;"/><a href="/use-case/client-360/know-your-customer/core-record-management/regions/" target="_top" title="/use-case/client-360/know-your-customer/core-record-management/regions/" xlink:actuate="onRequest" xlink:href="/use-case/client-360/know-your-customer/core-record-management/regions/" xlink:show="new" xlink:title="/use-case/client-360/know-your-customer/core-record-management/regions/" xlink:type="simple"><text fill="#4051B5" font-family="'Roboto'" font-size="13" lengthAdjust="spacing" textLength="51.8604" x="502.3262" y="52.1997">Regions</text></a><path d="M445.3262,110.5313 L445.3262,110.7181 L447.3262,110.163 L449.3262,110.7031 L451.3262,110.8865 L453.3262,109.8971 L455.3262,110.5313 L455.3262,110.5313 L455.3006,110.508 L456.967,108.4404 L458.7624,106.4897 L460.6475,104.6204 L462.2236,102.4708 L464.2324,100.7137 L464.4668,100.7888 L464.6102,98.6157 L465.4378,96.6618 L466.3488,94.7345 L466.7742,92.6518 L467.4551,90.6508 L467.4845,90.6581 L468.0155,88.3403 L468.6805,86.0557 L469.2809,83.7551 L470.0046,81.4852 L470.3262,79.1152 L470.6156,79.1873 L471.1933,76.881 L471.5844,74.5283 L472.2488,72.2437 L472.9259,69.9622 L473.1973,67.5797 L472.892,67.4819 L474.129,65.6591 L474.3608,63.5143 L475.3568,61.6143 L475.5659,59.4622 L476.4199,57.5167 L476.3974,57.4963 L478.4453,55.7747 L479.9664,53.5752 L481.7983,51.6577 L483.6564,49.7638 L485.3262,47.6992 L485.3262,48.0692 L487.3262,47.6957 L489.3262,47.9545 L491.3262,47.1904 L493.3262,47.952 L495.3262,47.6992" fill="none" style="stroke:#FF6F00;stroke-width:1;"/><a href="/use-case/client-360/know-your-customer/core-record-management/jurisdictions/" target="_top" title="/use-case/client-360/know-your-customer/core-record-management/jurisdictions/" xlink:actuate="onRequest" xlink:href="/use-case/client-360/know-your-customer/core-record-management/jurisdictions/" xlink:show="new" xlink:title="/use-case/client-360/know-your-customer/core-record-management/jurisdictions/" xlink:type="simple"><text fill="#4051B5" font-family="'Roboto'" font-size="13" lengthAdjust="spacing" textLength="78.4888" x="502.3262" y="77.3325">Jurisdictions</text></a><path d="M445.3262,110.5313 L445.3262,110.7181 L447.3262,110.163 L449.3262,110.7031 L451.3262,110.8865 L453.3262,109.8971 L455.3262,110.5313 L455.3262,110.5313 L455.3071,110.5024 L457.0029,109.195 L458.7946,108.0329 L460.6532,106.9717 L462.2817,105.5626 L464.2324,104.6407 L464.4551,104.7455 L465.1977,101.9297 L466.5904,99.4197 L468.0624,96.947 L469.0729,94.2572 L470.3262,91.6816 L470.3536,91.6945 L471.5321,89.0838 L472.8355,86.5318 L474.0786,83.9514 L475.4367,81.4251 L476.4199,78.7225 L476.5844,78.9713 L478.3677,77.7962 L480.0449,76.4607 L481.8773,75.3601 L483.7171,74.2704 L485.3262,72.832 L485.3262,72.191 L487.3262,73.4352 L489.3262,72.5685 L491.3262,73.3065 L493.3262,72.392 L495.3262,72.832" fill="none" style="stroke:#FF6F00;stroke-width:1;"/><a href="/use-case/client-360/know-your-customer/core-record-management/legal-entities/" target="_top" title="/use-case/client-360/know-your-customer/core-record-management/legal-entities/" xlink:actuate="onRequest" xlink:href="/use-case/client-360/know-your-customer/core-record-management/legal-entities/" xlink:show="new" xlink:title="/use-case/client-360/know-your-customer/core-record-management/legal-entities/" xlink:type="simple"><text fill="#4051B5" font-family="'Roboto'" font-size="13" lengthAdjust="spacing" textLength="87.8452" x="502.3262" y="102.4653">Legal Entities</text></a><path d="M445.3262,110.5313 L445.3262,110.7181 L447.3262,110.163 L449.3262,110.7031 L451.3262,110.8865 L453.3262,109.8971 L455.3262,110.5313 L455.3262,110.5313 L455.3128,110.4994 L458.2529,109.0998 L461.2603,107.8608 L464.3145,106.7334 L467.2075,105.2213 L470.3262,104.248 L470.4212,104.475 L473.2179,102.733 L476.2922,101.6537 L479.4003,100.6552 L482.3114,99.1863 L485.3262,97.9648 L485.3262,98.0255 L487.3262,97.9364 L489.3262,98.1235 L491.3262,98.1774 L493.3262,98.4855 L495.3262,97.9648" fill="none" style="stroke:#FF6F00;stroke-width:1;"/><a href="/use-case/client-360/know-your-customer/core-record-management/locations/" target="_top" title="/use-case/client-360/know-your-customer/core-record-management/locations/" xlink:actuate="onRequest" xlink:href="/use-case/client-360/know-your-customer/core-record-management/locations/" xlink:show="new" xlink:title="/use-case/client-360/know-your-customer/core-record-management/locations/" xlink:type="simple"><text fill="#4051B5" font-family="'Roboto'" font-size="13" lengthAdjust="spacing" textLength="61.9849" x="502.3262" y="127.5981">Locations</text></a><path d="M445.3262,110.5313 L445.3262,110.7181 L447.3262,110.163 L449.3262,110.7031 L451.3262,110.8865 L453.3262,109.8971 L455.3262,110.5313 L455.3262,110.5313 L455.3128,110.4994 L458.2529,111.6131 L461.2603,112.8873 L464.3145,114.2732 L467.2075,115.2744 L470.3262,116.8145 L470.4212,117.0414 L473.2179,117.8127 L476.2922,119.2467 L479.4003,120.7614 L482.3114,121.8059 L485.3262,123.0977 L485.3262,123.1583 L487.3262,123.0693 L489.3262,123.2563 L491.3262,123.3102 L493.3262,123.6183 L495.3262,123.0977" fill="none" style="stroke:#FF6F00;stroke-width:1;"/><a href="/use-case/client-360/know-your-customer/core-record-management/buildings/" target="_top" title="/use-case/client-360/know-your-customer/core-record-management/buildings/" xlink:actuate="onRequest" xlink:href="/use-case/client-360/know-your-customer/core-record-management/buildings/" xlink:show="new" xlink:title="/use-case/client-360/know-your-customer/core-record-management/buildings/" xlink:type="simple"><text fill="#4051B5" font-family="'Roboto'" font-size="13" lengthAdjust="spacing" textLength="59.5093" x="502.3262" y="152.731">Buildings</text></a><path d="M445.3262,110.5313 L445.3262,110.7181 L447.3262,110.163 L449.3262,110.7031 L451.3262,110.8865 L453.3262,109.8971 L455.3262,110.5313 L455.3262,110.5313 L455.3071,110.5024 L457.0029,111.5512 L458.7946,112.7453 L460.6532,114.0403 L462.2817,114.9874 L464.2324,116.4218 L464.4551,116.5265 L465.1977,118.8944 L466.5904,121.568 L468.0624,124.2789 L469.0729,126.7728 L470.3262,129.3809 L470.3536,129.3938 L471.5321,131.9666 L472.8355,134.5983 L474.0786,137.2015 L475.4367,139.8589 L476.4199,142.34 L476.5844,142.5887 L478.3677,143.7699 L480.0449,144.7906 L481.8773,146.0461 L483.7171,147.3127 L485.3262,148.2305 L485.3262,147.5894 L487.3262,148.8336 L489.3262,147.9669 L491.3262,148.705 L493.3262,147.7904 L495.3262,148.2305" fill="none" style="stroke:#FF6F00;stroke-width:1;"/><a href="/use-case/client-360/know-your-customer/core-record-management/addresses/" target="_top" title="/use-case/client-360/know-your-customer/core-record-management/addresses/" xlink:actuate="onRequest" xlink:href="/use-case/client-360/know-your-customer/core-record-management/addresses/" xlink:show="new" xlink:title="/use-case/client-360/know-your-customer/core-record-management/addresses/" xlink:type="simple"><text fill="#4051B5" font-family="'Roboto'" font-size="13" lengthAdjust="spacing" textLength="67.0566" x="502.3262" y="177.8638">Addresses</text></a><path d="M445.3262,110.5313 L445.3262,110.7181 L447.3262,110.163 L449.3262,110.7031 L451.3262,110.8865 L453.3262,109.8971 L455.3262,110.5313 L455.3262,110.5313 L455.3006,110.508 L456.967,112.3674 L458.7624,114.3437 L460.6475,116.4014 L462.2236,118.1788 L464.2324,120.3488 L464.4668,120.4238 L464.6102,122.2759 L465.4378,124.3471 L466.3488,126.4451 L466.7742,128.3875 L467.4551,130.4117 L467.4845,130.419 L468.0155,132.7154 L468.6805,135.0451 L469.2809,137.3587 L470.0046,139.703 L470.3262,141.9473 L470.6156,142.0193 L471.1933,144.3273 L471.5844,146.5888 L472.2488,148.9184 L472.9259,151.2511 L473.1973,153.4828 L472.892,153.3851 L474.129,155.5874 L474.3608,157.4678 L475.3568,159.593 L475.5659,161.4661 L476.4199,163.5458 L476.3974,163.5253 L478.4453,165.7307 L479.9664,167.4582 L481.7983,169.4677 L483.6564,171.5009 L485.3262,173.3633 L485.3262,173.7333 L487.3262,173.3598 L489.3262,173.6186 L491.3262,172.8545 L493.3262,173.6161 L495.3262,173.3633" fill="none" style="stroke:#FF6F00;stroke-width:1;"/><a href="/use-case/client-360/know-your-customer/core-record-management/audit/" target="_top" title="/use-case/client-360/know-your-customer/core-record-management/audit/" xlink:actuate="onRequest" xlink:href="/use-case/client-360/know-your-customer/core-record-management/audit/" xlink:show="new" xlink:title="/use-case/client-360/know-your-customer/core-record-management/audit/" xlink:type="simple"><text fill="#4051B5" font-family="'Roboto'" font-size="13" lengthAdjust="spacing" textLength="34.0933" x="502.3262" y="202.9966">Audit</text></a><path d="M445.3262,110.5313 L445.3262,110.7181 L447.3262,110.163 L449.3262,110.7031 L451.3262,110.8865 L453.3262,109.8971 L455.3262,110.5313 L455.3262,110.5313 L455.2972,110.5125 L456.9483,113.1771 L458.7456,115.9364 L460.6445,118.7615 L462.1933,121.3598 L464.2324,124.2758 L464.4723,124.3306 L464.6039,127.0309 L465.4358,129.8914 L466.3532,132.7714 L466.7734,135.5378 L467.4551,138.3639 L467.4849,138.3692 L468.0153,141.5914 L468.6816,144.8377 L469.2824,148.0724 L470.0082,151.3293 L470.3262,154.5137 L470.6198,154.5659 L471.1976,157.7965 L471.586,160.9934 L472.2517,164.2396 L472.9303,167.4881 L473.1973,170.6635 L472.8848,170.592 L474.1358,173.5483 L474.3579,176.2693 L475.3621,179.1692 L475.5609,181.8849 L476.4199,184.7516 L476.3944,184.735 L478.4778,187.6797 L479.9642,190.2376 L481.8029,193.0237 L483.6712,195.829 L485.3262,198.4961 L485.3262,198.8661 L487.3262,198.4926 L489.3262,198.7514 L491.3262,197.9873 L493.3262,198.7489 L495.3262,198.4961" fill="none" style="stroke:#FF6F00;stroke-width:1;"/><a href="/use-case/client-360/know-your-customer/" target="_top" title="/use-case/client-360/know-your-customer/" xlink:actuate="onRequest" xlink:href="/use-case/client-360/know-your-customer/" xlink:show="new" xlink:title="/use-case/client-360/know-your-customer/" xlink:type="simple"><text fill="#4051B5" font-family="'Roboto'" font-size="13" lengthAdjust="spacing" textLength="176.0586" x="14" y="115.0317">Know Your Customer (KYC)</text></a><path d="M251.1909,110.5313 L251.1909,110.7181 L249.1909,110.163 L247.1909,110.7031 L245.1909,110.8865 L243.1909,109.8971 L241.1909,110.5313 L241.1909,110.5313 L241.1909,110.4967 L235.1909,110.3417 L229.1909,110.3608 L223.1909,110.501 L217.1909,110.224 L211.1909,110.5313 L211.1909,111.0234 L209.1909,109.971 L207.1909,110.3555 L205.1909,110.9152 L203.1909,110.455 L201.1909,110.5313" fill="none" style="stroke:#FF6F00;stroke-width:1;"/><!--SRC=[xLfRRzf857xthvXj7j8efK1kggAg2f1Bcq288Eagggfei0ym6pF3peoJpQxsl-yPOuDjiBd4T1CflCGUd_dEPIxdd4yvKffAFM3S6T2XPVtcG9Tn8DMpkqRbs-LThLbljeZ_szWhxPSx-r6HzacjUNbSQTq6SZD4hYgrYyhPoHXeIgJPEZvfHVMGZMxte5igZKLEcvVNCG5VnFp68fLMg_bxN2P4iTGzuqCgwO1qg7tVayBZJasuGf8DBIbN-0suZeXzVHg2T1c_3wG2YwrDmhZjUWuGtGVI0mwIkcGyJv4kIdU4xdyWBklrDQ7S8GwLzpXJ2o8UG3vAfe4yCjqVOR07u4I1reptL38crr-_rIukJzfjKiQ54KFD12Tz13Ke6YTsgQiWOlWLTHm48dkHiTR8NOd6aa-HyNQVEkBHI2THnkxVSCT_W40a8dCCNUgvclnZdGgkB-a0oBkMGD_5Etza5Bd9mlc3RVOtaFAUzMyKgIAbU4IScJDcm-Wd5sCaN2UEDCJLfJq8R9gQMaqiVco7MrKXqTdWIsHBeeg91YwSPU1ZMtyn3ROO30N7xOXgLZHufdMZc7a3ToSUCuTgsg4ASbONqs6xmdFMga2uBjZcTAZSrKoqr5102dUD6ge6aigdDQeuuPhfTIfWN8FiKXlMgACDVth0RRZ2nCLiDgHSZy2k-yo-vw0KNfWJSHM8eqNH6Pd6JK7Fi3CYCxcMk903wYQ_JRbJPrseuysQ2ZuMo3JJlpodmFtHL6J_wqoZ_2-J6EvQ5LiBESS2NoHLb_cQTe0tIMsFcAXX4iANZRc_w9cNUE0fxxdm-JDcAoNubo-ulctSV20q9h3Kx95NNaZkk6JEZbzH4NFXBpIIK_SkVxiJvTWQZ5TFIiFWzSKwVxlN5Eim8R-EK4-iVNsHZcoJJf1uHrOd2kEu5tuDMvfVxQtaUxPZemJZKDK7Pn5VPxfgesAAUKKkwYlMwzbRQGsUPY_Xqcr8sC1DVDeTvPycTcIIOKtl13YcWGjQOR_OLwH01fxIfYu7GhleQgWpqHP4j0MjQMgF4-bLquoCbXAJO2HgTspSzVmoQtQcrrgoZgSXlGwOjZMZWObL-rIfrQpAKh196i6wg27OhCjizDyl7N297lkcgzPu1s7zgSo2-eltWNHS3t3jE0TJY2WYF6q-JxTqELixmQVncWeRUMkR_FX1Yfw2WerNPz5s6VPxXTs3Kl6UYyV2a_1amSPDXrjE5cqXeO3d5vKL1fHZVpj0wI9s8n98onydZV4u-VdJsjw-oq61ZR70FGBAg0eUyqENq3FTMX4zy1_oG_x3aqmvRDGD5ibvz3K_BIxqg5i0qqpv8QgRzr5pbMkSN67Jm9Dw-9WVUiTZhk6B4BqQFkQ7JXr7ufOtuQc4ZpcYUmx3Or0nVmngeR0KAhd0CNABOwGMZ97t5xUrBODr17ZJX8JeKPmVpOzDVC6yNPZ25YJjek8p09QWwy9voUiu35hqpWtvtKo2xhc0MNnS5iQq1IimSCifM8XpUmva9iksBF0YlDhgc1bCskgWgTpPwf1PRDdgg6lXnq9pKfYnqBAbIR7GWLcCM0YQHeQ5DaKArX1kYWCBiHBqLqn-BlSrLfXalSReSS8hSf1MugxIRzPbTilquZ-Nc_hLTiqX5VwtCBq4knPcZ7wnDIygIBcIFQ4TItgJQdKciLDU9vEJjoU9-EV5rAnCjSp8bxdHB56aH2wPPbTYQMPMv98bw0ACIhe1So5JM8zd8Bxn76yynnlFyOfvZYiNo_ARHfqyOEbd_j6e_76djBF_iLpkWARbqliRRl2vtn8pl3Sr6y2MzVxigauKucF_u30rklXm-fPrJXyeQU6HGhb3qXm2Fp- -20Tm3pqmARZnqJh_tfW87EmLgkXg6oGQGhuth31pd71RcAKx93VNfuLFLXtpe8TXEYJ0hT7PVS9lxVy0]--></g></svg>