<svg xmlns="http://www.w3.org/2000/svg" xmlns:xlink="http://www.w3.org/1999/xlink" contentStyleType="text/css" data-diagram-type="MINDMAP" height="268px" preserveAspectRatio="none" style="width:909px;height:268px;" version="1.1" viewBox="0 0 909 268" width="909px" zoomAndPan="magnify"><defs/><g><a href="/use-case/legal-entity-management/" target="_top" title="/use-case/legal-entity-management/" xlink:actuate="onRequest" xlink:href="/use-case/legal-entity-management/" xlink:show="new" xlink:title="/use-case/legal-entity-management/" xlink:type="simple"><text fill="#4051B5" font-family="'Roboto'" font-size="13" lengthAdjust="spacing" textLength="166.9243" x="17" y="137.6313">Legal Entity Management</text></a><a href="/use-case/legal-entity-management/identification-and-registration/" target="_top" title="/use-case/legal-entity-management/identification-and-registration/" xlink:actuate="onRequest" xlink:href="/use-case/legal-entity-management/identification-and-registration/" xlink:show="new" xlink:title="/use-case/legal-entity-management/identification-and-registration/" xlink:type="simple"><text fill="#4051B5" font-family="'Roboto'" font-size="13" lengthAdjust="spacing" textLength="182.6157" x="249.0566" y="72.2661">Identification &amp; Registration</text></a><path d="M192.0566,133.1309 L192.0566,133.3177 L194.0566,132.7626 L196.0566,133.3027 L198.0566,133.4861 L200.0566,132.4967 L202.0566,133.1309 L202.0566,133.1309 L202.0306,133.1082 L203.695,130.9636 L205.4907,128.9335 L207.3776,126.983 L208.9501,124.7583 L210.9629,122.9175 L211.1981,122.9899 L211.3397,120.7414 L212.1679,118.7042 L213.08,116.6928 L213.5046,114.5314 L214.1855,112.4489 L214.215,112.4559 L214.746,110.0455 L215.4112,107.6671 L216.0116,105.2732 L216.7356,102.9089 L217.0566,100.4482 L217.3467,100.5176 L217.9245,98.1184 L218.3151,95.6743 L218.9797,93.2958 L219.6571,90.9203 L219.9277,88.4476 L219.6214,88.3533 L220.8605,86.4426 L221.0909,84.2214 L222.0881,82.2362 L222.2956,80.0079 L223.1504,77.9789 L223.1274,77.9589 L225.1801,76.1529 L226.6966,73.8794 L228.5294,71.8817 L230.3888,69.9072 L232.0566,67.7656 L232.0566,68.1356 L234.0566,67.7622 L236.0566,68.0209 L238.0566,67.2568 L240.0566,68.0184 L242.0566,67.7656" fill="none" style="stroke:#FF6F00;stroke-width:1;"/><a href="/use-case/legal-entity-management/corporate-governance/" target="_top" title="/use-case/legal-entity-management/corporate-governance/" xlink:actuate="onRequest" xlink:href="/use-case/legal-entity-management/corporate-governance/" xlink:show="new" xlink:title="/use-case/legal-entity-management/corporate-governance/" xlink:type="simple"><text fill="#4051B5" font-family="'Roboto'" font-size="13" lengthAdjust="spacing" textLength="147.7734" x="249.0566" y="97.3989">Corporate Governance</text></a><path d="M192.0566,133.1309 L192.0566,133.3177 L194.0566,132.7626 L196.0566,133.3027 L198.0566,133.4861 L200.0566,132.4967 L202.0566,133.1309 L202.0566,133.1309 L202.0367,133.1026 L203.7286,131.7187 L205.5209,130.4771 L207.3829,129.3343 L209.0044,127.8508 L210.9629,126.8445 L211.1881,126.9438 L211.9253,123.9656 L213.32,121.2771 L214.7948,118.624 L215.803,115.7653 L217.0566,113.0146 L217.0844,113.0269 L218.2624,110.2429 L219.5667,107.5147 L220.8101,104.7596 L222.1698,102.0557 L223.1504,99.1848 L223.3224,99.4284 L225.1057,98.1741 L226.7781,96.7627 L228.613,95.5813 L230.4554,94.4107 L232.0566,92.8984 L232.0566,92.2574 L234.0566,93.5016 L236.0566,92.6349 L238.0566,93.3729 L240.0566,92.4584 L242.0566,92.8984" fill="none" style="stroke:#FF6F00;stroke-width:1;"/><a href="/use-case/legal-entity-management/ownership-and-capital-structure/" target="_top" title="/use-case/legal-entity-management/ownership-and-capital-structure/" xlink:actuate="onRequest" xlink:href="/use-case/legal-entity-management/ownership-and-capital-structure/" xlink:show="new" xlink:title="/use-case/legal-entity-management/ownership-and-capital-structure/" xlink:type="simple"><text fill="#4051B5" font-family="'Roboto'" font-size="13" lengthAdjust="spacing" textLength="198.1992" x="249.0566" y="122.5317">Ownership &amp; Capital Structure</text></a><a href="/use-case/legal-entity-management/ownership-and-capital-structure/ownership/" target="_top" title="/use-case/legal-entity-management/ownership-and-capital-structure/ownership/" xlink:actuate="onRequest" xlink:href="/use-case/legal-entity-management/ownership-and-capital-structure/ownership/" xlink:show="new" xlink:title="/use-case/legal-entity-management/ownership-and-capital-structure/ownership/" xlink:type="simple"><text fill="#4051B5" font-family="'Roboto'" font-size="13" lengthAdjust="spacing" textLength="69.3228" x="512.3882" y="27.0669">Ownership</text></a><path d="M455.3882,118.0313 L455.3882,118.2181 L457.3882,117.663 L459.3882,118.2031 L461.3882,118.3865 L463.3882,117.3971 L465.3882,118.0313 L465.3882,118.0313 L465.3585,118.0135 L467.0067,114.9508 L468.8043,111.9773 L470.7059,109.0659 L472.2494,105.9406 L474.2944,103.1149 L474.5352,103.1656 L474.6649,99.9992 L475.4975,96.981 L476.4159,93.9809 L476.8353,90.8756 L477.5171,87.8256 L477.547,87.8305 L478.0773,84.3179 L478.7438,80.8277 L479.3446,77.3267 L480.0708,73.8463 L480.3882,70.2988 L480.6825,70.347 L481.2603,66.8423 L481.6483,63.3064 L482.3142,59.8161 L482.9931,56.3279 L483.2593,52.7721 L482.9456,52.706 L484.1989,49.7764 L484.4194,46.6292 L485.425,43.6474 L485.6221,40.4953 L486.4819,37.4828 L486.4558,37.4672 L488.5462,34.6685 L490.0258,31.5051 L491.8659,28.557 L493.7362,25.6268 L495.3882,22.5664 L495.3882,22.9364 L497.3882,22.5629 L499.3882,22.8217 L501.3882,22.0576 L503.3882,22.8192 L505.3882,22.5664" fill="none" style="stroke:#FF6F00;stroke-width:1;"/><a href="/use-case/legal-entity-management/ownership-and-capital-structure/control/" target="_top" title="/use-case/legal-entity-management/ownership-and-capital-structure/control/" xlink:actuate="onRequest" xlink:href="/use-case/legal-entity-management/ownership-and-capital-structure/control/" xlink:show="new" xlink:title="/use-case/legal-entity-management/ownership-and-capital-structure/control/" xlink:type="simple"><text fill="#4051B5" font-family="'Roboto'" font-size="13" lengthAdjust="spacing" textLength="47.2773" x="512.3882" y="52.1997">Control</text></a><path d="M455.3882,118.0313 L455.3882,118.2181 L457.3882,117.663 L459.3882,118.2031 L461.3882,118.3865 L463.3882,117.3971 L465.3882,118.0313 L465.3882,118.0313 L465.3614,118.0095 L467.0222,115.714 L468.8183,113.5282 L470.7084,111.4185 L472.2745,109.0463 L474.2944,107.0419 L474.531,107.1096 L474.6696,104.712 L475.499,102.512 L476.4126,100.3362 L476.8359,98.0201 L477.5171,95.7778 L477.5467,95.7843 L478.0774,93.1922 L478.743,90.63 L479.3435,88.0533 L480.0681,85.5042 L480.3882,82.8652 L480.6793,82.93 L481.2571,80.3483 L481.6471,77.7248 L482.312,75.1624 L482.9897,72.603 L483.2593,69.9527 L482.9511,69.8645 L484.1937,67.7828 L484.4216,65.4108 L485.421,63.2595 L485.6259,60.8809 L486.4819,58.6886 L486.4583,58.6694 L488.5193,56.6982 L490.0276,54.2792 L491.862,52.1244 L493.7239,49.9919 L495.3882,47.6992 L495.3882,48.0692 L497.3882,47.6957 L499.3882,47.9545 L501.3882,47.1904 L503.3882,47.952 L505.3882,47.6992" fill="none" style="stroke:#FF6F00;stroke-width:1;"/><a href="/use-case/legal-entity-management/ownership-and-capital-structure/shares/" target="_top" title="/use-case/legal-entity-management/ownership-and-capital-structure/shares/" xlink:actuate="onRequest" xlink:href="/use-case/legal-entity-management/ownership-and-capital-structure/shares/" xlink:show="new" xlink:title="/use-case/legal-entity-management/ownership-and-capital-structure/shares/" xlink:type="simple"><text fill="#4051B5" font-family="'Roboto'" font-size="13" lengthAdjust="spacing" textLength="132.2979" x="512.3882" y="77.3325">Shares &amp; Ownership</text></a><path d="M455.3882,118.0313 L455.3882,118.2181 L457.3882,117.663 L459.3882,118.2031 L461.3882,118.3865 L463.3882,117.3971 L465.3882,118.0313 L465.3882,118.0313 L465.3667,118.0042 L467.0517,116.4703 L468.8448,115.0727 L470.7131,113.7701 L472.3223,112.1406 L474.2944,110.9689 L474.5235,111.0587 L475.2524,107.7591 L476.6501,104.7219 L478.1294,101.7166 L479.1339,98.5252 L480.3882,95.4316 L480.4164,95.4427 L481.5937,92.319 L482.8996,89.2457 L484.1434,86.1481 L485.5055,83.0969 L486.4819,79.8944 L486.6672,80.1281 L488.4508,78.7185 L490.1147,77.1581 L491.9537,75.8184 L493.8009,74.4891 L495.3882,72.832 L495.3882,72.191 L497.3882,73.4352 L499.3882,72.5685 L501.3882,73.3065 L503.3882,72.392 L505.3882,72.832" fill="none" style="stroke:#FF6F00;stroke-width:1;"/><a href="/use-case/legal-entity-management/ownership-and-capital-structure/share-capital/" target="_top" title="/use-case/legal-entity-management/ownership-and-capital-structure/share-capital/" xlink:actuate="onRequest" xlink:href="/use-case/legal-entity-management/ownership-and-capital-structure/share-capital/" xlink:show="new" xlink:title="/use-case/legal-entity-management/ownership-and-capital-structure/share-capital/" xlink:type="simple"><text fill="#4051B5" font-family="'Roboto'" font-size="13" lengthAdjust="spacing" textLength="87.5151" x="512.3882" y="102.4653">Share Capital</text></a><path d="M455.3882,118.0313 L455.3882,118.2181 L457.3882,117.663 L459.3882,118.2031 L461.3882,118.3865 L463.3882,117.3971 L465.3882,118.0313 L465.3882,118.0313 L465.369,118.0025 L468.2828,115.8671 L471.2934,113.8763 L474.3713,111.9861 L477.2173,109.7493 L480.3882,107.998 L480.525,108.2026 L483.2324,105.7586 L486.3393,103.9117 L489.4949,102.1377 L492.367,99.9398 L495.3882,97.9648 L495.3882,98.0255 L497.3882,97.9364 L499.3882,98.1235 L501.3882,98.1774 L503.3882,98.4855 L505.3882,97.9648" fill="none" style="stroke:#FF6F00;stroke-width:1;"/><a href="/use-case/legal-entity-management/ownership-and-capital-structure/issued-capital/" target="_top" title="/use-case/legal-entity-management/ownership-and-capital-structure/issued-capital/" xlink:actuate="onRequest" xlink:href="/use-case/legal-entity-management/ownership-and-capital-structure/issued-capital/" xlink:show="new" xlink:title="/use-case/legal-entity-management/ownership-and-capital-structure/issued-capital/" xlink:type="simple"><text fill="#4051B5" font-family="'Roboto'" font-size="13" lengthAdjust="spacing" textLength="91.584" x="512.3882" y="127.5981">Issued Capital</text></a><path d="M455.3882,118.0313 L455.3882,118.2181 L457.3882,117.663 L459.3882,118.2031 L461.3882,118.3865 L463.3882,117.3971 L465.3882,118.0313 L465.3882,118.0313 L465.3824,117.9972 L468.3566,118.351 L471.3598,118.8765 L474.3831,119.5213 L477.337,119.7548 L480.3882,120.5645 L480.4292,120.8071 L483.3415,120.7949 L486.3735,121.4911 L489.4202,122.2737 L492.3818,122.5534 L495.3882,123.0977 L495.3882,123.1583 L497.3882,123.0693 L499.3882,123.2563 L501.3882,123.3102 L503.3882,123.6183 L505.3882,123.0977" fill="none" style="stroke:#FF6F00;stroke-width:1;"/><polygon fill="#4051B5" points="509.3882,145.6641,509.3882,145.8742,519.6164,145.2497,529.8447,145.8573,540.0729,146.0637,550.3012,144.9507,560.5294,145.5863,570.7577,145.2376,580.986,145.2806,591.2142,145.5959,601.4425,144.9727,611.6707,146.2177,621.899,145.0338,632.1272,145.4663,642.3555,145.6641,642.4106,145.7971,642.9102,145.872,643.4955,146.1537,644.0484,146.3572,644.641,146.6563,645.1839,146.8356,645.2575,146.8661,645.5986,147.476,645.8592,148.0526,646.096,148.6193,646.1996,149.1309,646.3555,149.6641,646.51,149.6641,646.5895,155.0906,646.1151,160.5172,646.5816,165.9438,646.2566,171.3703,646.3555,176.7969,646.5199,176.865,645.9687,177.2994,645.8657,177.9195,645.8809,178.5885,645.4032,179.0534,645.1839,179.6253,645.1973,179.6577,644.6614,179.9639,644.1056,180.2221,643.4863,180.327,642.9578,180.651,642.3555,180.7969,642.3555,180.2245,632.1272,181.0813,621.899,181.3451,611.6707,181.2414,601.4425,181.4099,591.2142,180.3138,580.986,180.1447,570.7577,180.1755,560.5294,180.738,550.3012,180.6003,540.0729,181.4783,529.8447,180.6222,519.6164,180.4538,509.3882,180.7969,509.4173,180.8672,508.7374,180.3572,508.1906,180.1684,507.7739,180.2938,507.181,179.9938,506.5598,179.6253,506.786,179.719,506.2263,179.0186,506.1894,178.5346,506.0386,178.0036,505.477,177.3023,505.3882,176.7969,505.3562,176.7969,505.4302,171.3703,505.6054,165.9438,505.3868,160.5172,505.5424,155.0906,505.3882,149.6641,505.2176,149.5934,505.4139,149.012,506.0119,148.5969,505.8703,147.8756,506.4822,147.4662,506.5598,146.8356,506.5861,146.8993,507.0913,146.5188,507.646,146.2581,508.3153,146.274,508.7843,145.8062,509.3882,145.6641" style="stroke:#FF6F00;stroke-width:1.5;"/><a href="/use-case/legal-entity-management/ownership-and-capital-structure/corporate-actions/" target="_top" title="/use-case/legal-entity-management/ownership-and-capital-structure/corporate-actions/" xlink:actuate="onRequest" xlink:href="/use-case/legal-entity-management/ownership-and-capital-structure/corporate-actions/" xlink:show="new" xlink:title="/use-case/legal-entity-management/ownership-and-capital-structure/corporate-actions/" xlink:type="simple"><text fill="#4051B5" font-family="'Roboto'" font-size="13" lengthAdjust="spacing" textLength="116.835" x="515.3882" y="167.731">Corporate Actions</text></a><a href="/use-case/legal-entity-management/ownership-and-capital-structure/corporate-actions/merger-and-acquisition-history/" target="_top" title="/use-case/legal-entity-management/ownership-and-capital-structure/corporate-actions/merger-and-acquisition-history/" xlink:actuate="onRequest" xlink:href="/use-case/legal-entity-management/ownership-and-capital-structure/corporate-actions/merger-and-acquisition-history/" xlink:show="new" xlink:title="/use-case/legal-entity-management/ownership-and-capital-structure/corporate-actions/merger-and-acquisition-history/" xlink:type="simple"><text fill="#4051B5" font-family="'Roboto'" font-size="13" lengthAdjust="spacing" textLength="186.3672" x="703.3555" y="117.4653">Merger &amp; Acquisition History</text></a><path d="M646.3555,163.2305 L646.3555,163.4173 L648.3555,162.8622 L650.3555,163.4023 L652.3555,163.5857 L654.3555,162.5963 L656.3555,163.2305 L656.3555,163.2305 L656.3326,163.2046 L658.0113,161.5175 L659.8052,159.961 L661.6792,158.4953 L663.2772,156.7168 L665.2617,155.3765 L665.4938,155.4583 L666.2163,151.8275 L667.6163,148.4357 L669.099,145.073 L670.1008,141.5407 L671.3555,138.0977 L671.3841,138.1077 L672.5608,134.6372 L673.8678,131.2125 L675.1119,127.7657 L676.476,124.3612 L677.4492,120.8188 L677.6465,121.0425 L679.4301,119.4745 L681.0866,117.7621 L682.9292,116.261 L684.7806,114.7697 L686.3555,112.9648 L686.3555,112.3238 L688.3555,113.568 L690.3555,112.7013 L692.3555,113.4393 L694.3555,112.5248 L696.3555,112.9648" fill="none" style="stroke:#FF6F00;stroke-width:1;"/><a href="/use-case/legal-entity-management/ownership-and-capital-structure/corporate-actions/spin-offs/" target="_top" title="/use-case/legal-entity-management/ownership-and-capital-structure/corporate-actions/spin-offs/" xlink:actuate="onRequest" xlink:href="/use-case/legal-entity-management/ownership-and-capital-structure/corporate-actions/spin-offs/" xlink:show="new" xlink:title="/use-case/legal-entity-management/ownership-and-capital-structure/corporate-actions/spin-offs/" xlink:type="simple"><text fill="#4051B5" font-family="'Roboto'" font-size="13" lengthAdjust="spacing" textLength="56.9258" x="703.3555" y="142.5981">Spin-offs</text></a><path d="M646.3555,163.2305 L646.3555,163.4173 L648.3555,162.8622 L650.3555,163.4023 L652.3555,163.5857 L654.3555,162.5963 L656.3555,163.2305 L656.3555,163.2305 L656.3333,163.204 L659.2337,160.5719 L662.246,158.0733 L665.336,155.6674 L668.1581,152.9418 L671.3555,150.6641 L671.5135,150.8527 L674.1756,147.9361 L677.299,145.5701 L680.4788,143.2714 L683.331,140.5817 L686.3555,138.0977 L686.3555,138.1583 L688.3555,138.0693 L690.3555,138.2563 L692.3555,138.3102 L694.3555,138.6183 L696.3555,138.0977" fill="none" style="stroke:#FF6F00;stroke-width:1;"/><a href="/use-case/legal-entity-management/ownership-and-capital-structure/corporate-actions/parents-and-subsidiaries/" target="_top" title="/use-case/legal-entity-management/ownership-and-capital-structure/corporate-actions/parents-and-subsidiaries/" xlink:actuate="onRequest" xlink:href="/use-case/legal-entity-management/ownership-and-capital-structure/corporate-actions/parents-and-subsidiaries/" xlink:show="new" xlink:title="/use-case/legal-entity-management/ownership-and-capital-structure/corporate-actions/parents-and-subsidiaries/" xlink:type="simple"><text fill="#4051B5" font-family="'Roboto'" font-size="13" lengthAdjust="spacing" textLength="160.6655" x="703.3555" y="167.731">Parents and Subsidiaries</text></a><path d="M646.3555,163.2305 L646.3555,163.4173 L648.3555,162.8622 L650.3555,163.4023 L652.3555,163.5857 L654.3555,162.5963 L656.3555,163.2305 L656.3555,163.2305 L656.3555,163.1959 L662.3555,163.0409 L668.3555,163.06 L674.3555,163.2002 L680.3555,162.9232 L686.3555,163.2305 L686.3555,163.7226 L688.3555,162.6702 L690.3555,163.0547 L692.3555,163.6144 L694.3555,163.1542 L696.3555,163.2305" fill="none" style="stroke:#FF6F00;stroke-width:1;"/><a href="/use-case/legal-entity-management/ownership-and-capital-structure/corporate-actions/stock-splits/" target="_top" title="/use-case/legal-entity-management/ownership-and-capital-structure/corporate-actions/stock-splits/" xlink:actuate="onRequest" xlink:href="/use-case/legal-entity-management/ownership-and-capital-structure/corporate-actions/stock-splits/" xlink:show="new" xlink:title="/use-case/legal-entity-management/ownership-and-capital-structure/corporate-actions/stock-splits/" xlink:type="simple"><text fill="#4051B5" font-family="'Roboto'" font-size="13" lengthAdjust="spacing" textLength="75.7085" x="703.3555" y="192.8638">Stock Splits</text></a><path d="M646.3555,163.2305 L646.3555,163.4173 L648.3555,162.8622 L650.3555,163.4023 L652.3555,163.5857 L654.3555,162.5963 L656.3555,163.2305 L656.3555,163.2305 L656.3333,163.204 L659.2337,165.5984 L662.246,168.1264 L665.336,170.7471 L668.1581,173.0481 L671.3555,175.7969 L671.5135,175.9855 L674.1756,178.0954 L677.299,180.7561 L680.4788,183.4839 L683.331,185.8208 L686.3555,188.3633 L686.3555,188.4239 L688.3555,188.3349 L690.3555,188.522 L692.3555,188.5758 L694.3555,188.8839 L696.3555,188.3633" fill="none" style="stroke:#FF6F00;stroke-width:1;"/><a href="/use-case/legal-entity-management/ownership-and-capital-structure/corporate-actions/dividends/" target="_top" title="/use-case/legal-entity-management/ownership-and-capital-structure/corporate-actions/dividends/" xlink:actuate="onRequest" xlink:href="/use-case/legal-entity-management/ownership-and-capital-structure/corporate-actions/dividends/" xlink:show="new" xlink:title="/use-case/legal-entity-management/ownership-and-capital-structure/corporate-actions/dividends/" xlink:type="simple"><text fill="#4051B5" font-family="'Roboto'" font-size="13" lengthAdjust="spacing" textLength="64.4414" x="703.3555" y="217.9966">Dividends</text></a><path d="M646.3555,163.2305 L646.3555,163.4173 L648.3555,162.8622 L650.3555,163.4023 L652.3555,163.5857 L654.3555,162.5963 L656.3555,163.2305 L656.3555,163.2305 L656.3326,163.2046 L658.0113,164.6591 L659.8052,166.2442 L661.6792,167.9202 L663.2772,169.2832 L665.2617,171.0845 L665.4938,171.1663 L666.2163,174.4471 L667.6163,177.9668 L669.099,181.5156 L670.1008,184.8948 L671.3555,188.3633 L671.3841,188.3734 L672.5608,191.8143 L673.8678,195.3012 L675.1119,198.7659 L676.476,202.2729 L677.4492,205.6421 L677.6465,205.8658 L679.4301,207.4393 L681.0866,208.8686 L682.9292,210.509 L684.7806,212.1594 L686.3555,213.4961 L686.3555,212.855 L688.3555,214.0992 L690.3555,213.2325 L692.3555,213.9706 L694.3555,213.0561 L696.3555,213.4961" fill="none" style="stroke:#FF6F00;stroke-width:1;"/><path d="M455.3882,118.0313 L455.3882,118.2181 L457.3882,117.663 L459.3882,118.2031 L461.3882,118.3865 L463.3882,117.3971 L465.3882,118.0313 L465.3882,118.0313 L465.3667,118.0042 L467.0517,119.2952 L468.8448,120.7226 L470.7131,122.2449 L472.3223,123.4404 L474.2944,125.0936 L474.5235,125.1835 L475.2524,128.0988 L476.6501,131.2764 L478.1294,134.4861 L479.1339,137.5095 L480.3882,140.6309 L480.4164,140.6419 L481.5937,143.7331 L482.8996,146.8747 L484.1434,149.992 L485.5055,153.1557 L486.4819,156.1681 L486.6672,156.4018 L488.4508,157.8171 L490.1147,159.0817 L491.9537,160.567 L493.8009,162.0625 L495.3882,163.2305 L495.3882,162.5894 L497.3882,163.8336 L499.3882,162.9669 L501.3882,163.705 L503.3882,162.7904 L505.3882,163.2305" fill="none" style="stroke:#FF6F00;stroke-width:1;"/><path d="M192.0566,133.1309 L192.0566,133.3177 L194.0566,132.7626 L196.0566,133.3027 L198.0566,133.4861 L200.0566,132.4967 L202.0566,133.1309 L202.0566,133.1309 L202.0411,133.1 L204.9714,131.4516 L207.98,129.9587 L211.043,128.5739 L213.9185,126.8165 L217.0566,125.5811 L217.1673,125.8008 L219.9307,123.8209 L223.0171,122.4826 L226.143,121.2227 L229.0395,119.5072 L232.0566,118.0313 L232.0566,118.0919 L234.0566,118.0029 L236.0566,118.1899 L238.0566,118.2438 L240.0566,118.5519 L242.0566,118.0313" fill="none" style="stroke:#FF6F00;stroke-width:1;"/><a href="/use-case/legal-entity-management/financial-information/" target="_top" title="/use-case/legal-entity-management/financial-information/" xlink:actuate="onRequest" xlink:href="/use-case/legal-entity-management/financial-information/" xlink:show="new" xlink:title="/use-case/legal-entity-management/financial-information/" xlink:type="simple"><text fill="#4051B5" font-family="'Roboto'" font-size="13" lengthAdjust="spacing" textLength="137.4839" x="249.0566" y="147.6646">Financial Information</text></a><path d="M192.0566,133.1309 L192.0566,133.3177 L194.0566,132.7626 L196.0566,133.3027 L198.0566,133.4861 L200.0566,132.4967 L202.0566,133.1309 L202.0566,133.1309 L202.0457,133.0981 L204.9965,133.9544 L208.0026,134.9759 L211.047,136.1121 L213.9592,136.8527 L217.0566,138.1475 L217.1347,138.3808 L219.9678,138.8851 L223.0288,140.0707 L226.1175,141.3395 L229.0445,142.1246 L232.0566,143.1641 L232.0566,143.2247 L234.0566,143.1357 L236.0566,143.3228 L238.0566,143.3766 L240.0566,143.6847 L242.0566,143.1641" fill="none" style="stroke:#FF6F00;stroke-width:1;"/><a href="/use-case/legal-entity-management/lifecycle-and-status/" target="_top" title="/use-case/legal-entity-management/lifecycle-and-status/" xlink:actuate="onRequest" xlink:href="/use-case/legal-entity-management/lifecycle-and-status/" xlink:show="new" xlink:title="/use-case/legal-entity-management/lifecycle-and-status/" xlink:type="simple"><text fill="#4051B5" font-family="'Roboto'" font-size="13" lengthAdjust="spacing" textLength="116.854" x="249.0566" y="172.7974">Lifecycle &amp; Status</text></a><path d="M192.0566,133.1309 L192.0566,133.3177 L194.0566,132.7626 L196.0566,133.3027 L198.0566,133.4861 L200.0566,132.4967 L202.0566,133.1309 L202.0566,133.1309 L202.0385,133.1015 L203.7384,134.0685 L205.5296,135.1837 L207.3845,136.4019 L209.0203,137.2651 L210.9629,138.6255 L211.1826,138.7363 L211.9315,140.9171 L213.3219,143.4213 L214.7906,145.965 L215.8038,148.279 L217.0566,150.7139 L217.0837,150.7275 L218.2627,153.1251 L219.565,155.5849 L220.8078,158.0147 L222.1641,160.5017 L223.1504,162.8022 L223.307,163.056 L225.0902,164.1581 L226.7723,165.0964 L228.6023,166.2744 L230.4393,167.4636 L232.0566,168.2969 L232.0566,167.6558 L234.0566,168.9 L236.0566,168.0333 L238.0566,168.7714 L240.0566,167.8569 L242.0566,168.2969" fill="none" style="stroke:#FF6F00;stroke-width:1;"/><a href="/use-case/legal-entity-management/contact-and-location-information/" target="_top" title="/use-case/legal-entity-management/contact-and-location-information/" xlink:actuate="onRequest" xlink:href="/use-case/legal-entity-management/contact-and-location-information/" xlink:show="new" xlink:title="/use-case/legal-entity-management/contact-and-location-information/" xlink:type="simple"><text fill="#4051B5" font-family="'Roboto'" font-size="13" lengthAdjust="spacing" textLength="203.8042" x="249.0566" y="197.9302">Contact &amp; Location Information</text></a><path d="M192.0566,133.1309 L192.0566,133.3177 L194.0566,132.7626 L196.0566,133.3027 L198.0566,133.4861 L200.0566,132.4967 L202.0566,133.1309 L202.0566,133.1309 L202.0315,133.1071 L203.7001,134.885 L205.4953,136.7824 L207.3784,138.7631 L208.9583,140.4571 L210.9629,142.5526 L211.1963,142.6304 L211.3417,144.3953 L212.1686,146.3876 L213.0786,148.4077 L213.5049,150.2663 L214.1855,152.2098 L214.2149,152.2174 L214.746,154.4203 L215.4108,156.6579 L216.0111,158.8788 L216.7344,161.1315 L217.0566,163.2803 L217.3453,163.3551 L217.9231,165.5702 L218.3146,167.7369 L218.9787,169.9743 L219.6556,172.215 L219.9277,174.3508 L219.6237,174.2493 L220.8583,176.3777 L221.0918,178.1719 L222.0864,180.2202 L222.2972,182.0069 L223.1504,184.008 L223.1283,183.9871 L225.1712,186.1188 L226.6972,187.7618 L228.5282,189.6932 L230.3848,191.6487 L232.0566,193.4297 L232.0566,193.7997 L234.0566,193.4262 L236.0566,193.685 L238.0566,192.9209 L240.0566,193.6825 L242.0566,193.4297" fill="none" style="stroke:#FF6F00;stroke-width:1;"/><a href="/use-case/legal-entity-management/compliance-and-documentation/" target="_top" title="/use-case/legal-entity-management/compliance-and-documentation/" xlink:actuate="onRequest" xlink:href="/use-case/legal-entity-management/compliance-and-documentation/" xlink:show="new" xlink:title="/use-case/legal-entity-management/compliance-and-documentation/" xlink:type="simple"><text fill="#4051B5" font-family="'Roboto'" font-size="13" lengthAdjust="spacing" textLength="195.1396" x="249.0566" y="223.063">Compliance &amp; Documentation</text></a><path d="M192.0566,133.1309 L192.0566,133.3177 L194.0566,132.7626 L196.0566,133.3027 L198.0566,133.4861 L200.0566,132.4967 L202.0566,133.1309 L202.0566,133.1309 L202.0279,133.1117 L203.6802,135.6954 L205.4774,138.3757 L207.3752,141.1233 L208.926,143.6393 L210.9629,146.4796 L211.2024,146.536 L211.3348,149.1518 L212.1664,151.9324 L213.0833,154.733 L213.5039,157.4167 L214.1855,160.162 L214.2154,160.1674 L214.7458,163.2964 L215.412,166.4501 L216.0127,169.5919 L216.7385,172.7566 L217.0566,175.8467 L217.35,175.9004 L217.9278,179.038 L218.3164,182.1409 L218.982,185.2946 L219.6605,188.4506 L219.9277,191.5314 L219.6157,191.4579 L220.8658,194.337 L221.0885,196.9741 L222.0923,199.7952 L222.2917,202.4269 L223.1504,205.2138 L223.1251,205.1969 L225.2058,208.0665 L226.6949,210.5413 L228.5331,213.249 L230.4006,215.9763 L232.0566,218.5625 L232.0566,218.9325 L234.0566,218.559 L236.0566,218.8178 L238.0566,218.0537 L240.0566,218.8153 L242.0566,218.5625" fill="none" style="stroke:#FF6F00;stroke-width:1;"/><a href="/use-case/legal-entity-management/supporting-information/" target="_top" title="/use-case/legal-entity-management/supporting-information/" xlink:actuate="onRequest" xlink:href="/use-case/legal-entity-management/supporting-information/" xlink:show="new" xlink:title="/use-case/legal-entity-management/supporting-information/" xlink:type="simple"><text fill="#4051B5" font-family="'Roboto'" font-size="13" lengthAdjust="spacing" textLength="151.106" x="249.0566" y="248.1958">Supporting Information</text></a><path d="M192.0566,133.1309 L192.0566,133.3177 L194.0566,132.7626 L196.0566,133.3027 L198.0566,133.4861 L200.0566,132.4967 L202.0566,133.1309 L202.0566,133.1309 L202.0259,133.115 L203.6694,136.4991 L205.4676,139.963 L207.3735,143.4824 L208.9085,146.8106 L210.9629,150.4066 L211.205,150.4506 L211.3318,153.8979 L212.1655,157.4739 L213.0854,161.0655 L213.5035,164.5658 L214.1855,168.1141 L214.2156,168.1184 L214.7457,172.1719 L215.4125,176.2448 L216.0134,180.3084 L216.7402,184.3898 L217.0566,188.4131 L217.3519,188.4549 L217.9298,192.5152 L218.3171,196.5485 L218.9833,200.6213 L219.6625,204.6959 L219.9277,208.712 L219.6124,208.6546 L220.869,212.3075 L221.0871,215.7715 L222.0947,219.3791 L222.2894,222.8387 L223.1504,226.4196 L223.1233,226.4057 L225.2246,230.0258 L226.6936,233.32 L228.5357,236.8065 L230.4092,240.3091 L232.0566,243.6953 L232.0566,244.0653 L234.0566,243.6918 L236.0566,243.9506 L238.0566,243.1865 L240.0566,243.9481 L242.0566,243.6953" fill="none" style="stroke:#FF6F00;stroke-width:1;"/><!--SRC=[xLbjRzis4FwkNy4rmDgYTHstQL4KHL77UMtjEB2J3aDH1BH4sKHaKYMfPDwm_xwZtYLRikL8NGlONnBnJdVF7IdUyU57gR1GSygiENODupUBs9GHT7XwC-YUNzpqXltX2Fc_lOFzrvt9wxJA-BWtl3ZgZluCzLQeN7Pxdxkdnx6X9PNXwEXubFQ3zcpxZRs_7wkS32-kCWg-Ylx5AjtHQFX7LYUoOiXRobmiy1nDi7ax5TnZLeyxNA0z9J2J82DCfTJE5YuH3cMteLQ8s7YCA3CTpo98pGYQ4aO4Tb3ydaGsQ4-ucZr73ftE5CBCGXOMj_2cueZV4N4lg2BedgfPO8FU4OOaKOgogSpdvEhilFVvudWyHXsO6EugoXcQWL5jHS6BDdOaIG6_n9O5Xj11QcmKX2i0B7gR6X_FiCNljNRUIXp-DRFyVqYeaj8v8ZRs78N-CKuuKnTuJj2Z4OVO-ID_9CXSCd7-u9Z-JL3dmFWtRQah1By7EolVM6r6BHp84NUih2KNPXTFIOXfwTN3tEHdLhXno0K46qfIIn9S91uOjwgOpopzpJoOVEvo1iiHt6m9U2Mw86VUt7cPpPc55PvWIMfsb_5XEjop6dN07OUO-kkGjRj9lFH0GN2dGG-7sYGMYmPT73D5LPCEA5D4sDWa3VeOa-yUOIQvXC95JUfYfW9ZLpDgtZ8Y9MoOYReCrG5H-erIS4kcL-1CwIJR4kDYZfsyR2cSFhL97tRMGkEnGYbCV_DSCkwF5bhsfIj1-P8aXw-ChgcuM8F0LodqfQL57_1Zr3j0EcjGXE1XR-ql_SqB-E0ncpha_NkeLfAp3nzWViUm-0XNKC0AgqTTTI6_ul8rExj5fU2Ilm0amyvD_RXpxLW3uEL2AZB_zN9TF-w6SXqLv5yZrGdQNo_JgMKo2GjlW3hN66UZy7lO_VNTtbQnbmSM51WBoncnDebrPQWcECPGLyIciKA_NhwK6eYqV0eh7qEY0rmIqwkW_WpXH2OezFHMQ4SVuCAZiD_iIzH2SqygtPSJX6q8DVAPEnQal8L7qy8pJkgiMWGotKeaoSZrxd1mL-lRhDMLNYb19vuYnNt0CjQI0qocsyTIReUgpC5ZD0ZdHRh4f3Or8Nw_TO0fkf_fKxM2FGZwJwadr9-yvsZYU0JcZZ6Y6n69kAUqUFb8LpFQn3xEzbHma3UUtQ2lNr7RawHbmjxPTiWKEotYT-QjEMPmXft3KnlrjI1gsGUn07txPZpRr0X42sEGBgpFHotCh9OWKogLy0VQw3oZW7v7evIuaYkJ2vV3UwGrrLG7mz1pj-7O58wYqtYqabb-3xkLd57N1szYbohG0uIUgJm17eQH0e3l1M9eAqDnuAekNx4yxRLM3sPmocp7nyrQhSiP5aIsDVa3Vo5V3KNX-ud6GtVntDJgYKhf4IjnTUu_vtpLDJNH-iO1sP1UtDsGVmWSrhSQyYxdH4o9yDMn-TsZalhVzGm-MIuMRJJmvJ2ptKIApW9fu-2aIrcBsxPUOT6_ZJiDw5lfwqjl0lixnOBgLNuPI7mQTfoID9y7nStRbdGTgdGgz1CaH3yrxjgYTthBjy3lKVHlfUtMfdgBfY2ZpDOTI50cJg9XT9uCLpBiK9kO2zCXmKn1y-81o7uq2ajsx8zLh3dGpfhAD-dmiCXbWFS23J3V3-LRHw39MOVg0kRxixZfwV7OKIG5NqTfMIKdqdDXIlLzG3QESJoUn_yHvZY-l_cOlSwfx_BZ9xvcY3hk3UyOqkeh35IuNOZUotUFKTBIBM9q7LLwd_1GWsNN1sKsbX5iSM5GpS56LmGFCLbwAL3Ly2RN0DlRB27-jpTQIFLlRxACtD_UQYDqVWIdWCYFa5NcyAC0LX7uaT4YxZx2b3fVH-QMAFl8Lewjp-YlfUfZXtcIFhQUvUTJ7z9ML7lnpbfbjInF_aEfz1-DQmq7-h-bwMV0jJ71_OFH_5H9gfMRZd1KZAOGTIaFtMcIUAuxabp-woAMjsQ6LzJBsbZXjALSBLacWpDbPbNcyYte1WHmCO2r9Wj8sWTOtD6oErfsHylkQDaTBRkZPNUqx8wMRPgMlNGmKzU3Fe9QAxL2vyNB_PUlNtGw4w9mP__9DRjbiAny1ez2sXMTawV6azFBFfBS4u3UqkLVzsdm-bFZ4xx3QEGnhVSE3Lt2FXrzZWQWERcZWZEDtFZqPP0el3be7LA5naG04FHbO4IDxZ4pkIPrtw7hgvFMMwCFRRi7mRz3X45t2dR50cJZ_m00]--></g></svg>