<svg xmlns="http://www.w3.org/2000/svg" xmlns:xlink="http://www.w3.org/1999/xlink" contentStyleType="text/css" data-diagram-type="MINDMAP" height="279px" preserveAspectRatio="none" style="width:962px;height:279px;" version="1.1" viewBox="0 0 962 279" width="962px" zoomAndPan="magnify"><defs/><g><a href="/use-case/legal-entity-management/" target="_top" title="/use-case/legal-entity-management/" xlink:actuate="onRequest" xlink:href="/use-case/legal-entity-management/" xlink:show="new" xlink:title="/use-case/legal-entity-management/" xlink:type="simple"><text fill="#90EE90" font-family="'Roboto'" font-size="14" lengthAdjust="spacing" textLength="179.7646" x="17" y="143.5068">Legal Entity Management</text></a><a href="/use-case/legal-entity-management/identification-and-registration/" target="_top" title="/use-case/legal-entity-management/identification-and-registration/" xlink:actuate="onRequest" xlink:href="/use-case/legal-entity-management/identification-and-registration/" xlink:show="new" xlink:title="/use-case/legal-entity-management/identification-and-registration/" xlink:type="simple"><text fill="#90EE90" font-family="'Roboto'" font-size="14" lengthAdjust="spacing" textLength="196.6631" x="262.2148" y="74.9404">Identification &amp; Registration</text></a><path d="M205.2148,138.6602 L205.2148,138.847 L207.2148,138.2919 L209.2148,138.832 L211.2148,139.0154 L213.2148,138.026 L215.2148,138.6602 L215.2148,138.6602 L215.1883,138.6381 L216.8503,136.3963 L218.6463,134.2658 L220.5353,132.2127 L222.1036,129.8929 L224.1211,127.9467 L224.3572,128.0159 L224.4968,125.6715 L225.3258,123.5294 L226.2389,121.4119 L226.6626,119.1508 L227.3438,116.9653 L227.3733,116.9721 L227.9041,114.4445 L228.5695,111.9476 L229.17,109.4359 L229.8944,106.9525 L230.2148,104.377 L230.5056,104.4433 L231.0834,101.9264 L231.4736,99.3668 L232.1384,96.8698 L232.816,94.3757 L233.0859,91.7886 L232.7784,91.6983 L234.0198,89.6772 L234.2486,87.3589 L235.2472,85.2666 L235.453,82.9416 L236.3086,80.8073 L236.2852,80.7878 L238.3433,78.8753 L239.8544,76.508 L241.6883,74.4091 L243.5493,72.3327 L245.2148,70.0938 L245.2148,70.4637 L247.2148,70.0903 L249.2148,70.3491 L251.2148,69.5849 L253.2148,70.3465 L255.2148,70.0938" fill="none" style="stroke:#FF9900;stroke-width:1;"/><a href="/use-case/legal-entity-management/corporate-governance/" target="_top" title="/use-case/legal-entity-management/corporate-governance/" xlink:actuate="onRequest" xlink:href="/use-case/legal-entity-management/corporate-governance/" xlink:show="new" xlink:title="/use-case/legal-entity-management/corporate-governance/" xlink:type="simple"><text fill="#90EE90" font-family="'Roboto'" font-size="14" lengthAdjust="spacing" textLength="159.1406" x="262.2148" y="101.2373">Corporate Governance</text></a><path d="M205.2148,138.6602 L205.2148,138.847 L207.2148,138.2919 L209.2148,138.832 L211.2148,139.0154 L213.2148,138.026 L215.2148,138.6602 L215.2148,138.6602 L215.1943,138.6324 L216.8832,137.187 L218.6758,135.8814 L220.5406,134.6731 L222.1568,133.1296 L224.1211,132.0555 L224.348,132.1507 L225.0815,129.0412 L226.4775,126.2095 L227.9544,123.4117 L228.9609,120.4167 L230.2148,117.5254 L230.2428,117.5371 L231.4205,114.6139 L232.7255,111.744 L233.9691,108.8484 L235.3299,106.0019 L236.3086,102.9952 L236.4862,103.2348 L238.2697,101.9168 L239.9385,100.4443 L241.7751,99.198 L243.6195,97.9622 L245.2148,96.3906 L245.2148,95.7496 L247.2148,96.9937 L249.2148,96.1271 L251.2148,96.8651 L253.2148,95.9506 L255.2148,96.3906" fill="none" style="stroke:#FF9900;stroke-width:1;"/><a href="/use-case/legal-entity-management/ownership-and-capital-structure/" target="_top" title="/use-case/legal-entity-management/ownership-and-capital-structure/" xlink:actuate="onRequest" xlink:href="/use-case/legal-entity-management/ownership-and-capital-structure/" xlink:show="new" xlink:title="/use-case/legal-entity-management/ownership-and-capital-structure/" xlink:type="simple"><text fill="#90EE90" font-family="'Roboto'" font-size="14" lengthAdjust="spacing" textLength="213.4453" x="262.2148" y="127.5342">Ownership &amp; Capital Structure</text></a><a href="/use-case/legal-entity-management/ownership-and-capital-structure/ownership/" target="_top" title="/use-case/legal-entity-management/ownership-and-capital-structure/ownership/" xlink:actuate="onRequest" xlink:href="/use-case/legal-entity-management/ownership-and-capital-structure/ownership/" xlink:show="new" xlink:title="/use-case/legal-entity-management/ownership-and-capital-structure/ownership/" xlink:type="simple"><text fill="#90EE90" font-family="'Roboto'" font-size="14" lengthAdjust="spacing" textLength="74.6553" x="541.1104" y="27.9951">Ownership</text></a><path d="M484.1104,122.6875 L484.1104,122.8743 L486.1104,122.3192 L488.1104,122.8593 L490.1104,123.0428 L492.1104,122.0534 L494.1104,122.6875 L494.1104,122.6875 L494.0804,122.6703 L495.7271,119.4827 L497.5249,116.3816 L499.4278,113.3407 L500.9687,110.0924 L503.0166,107.1345 L503.2578,107.1833 L503.3866,103.8907 L504.2195,100.7404 L505.1384,97.6075 L505.5574,94.3735 L506.2393,91.1927 L506.2692,91.1974 L506.7994,87.5356 L507.4661,83.8951 L508.0669,80.2444 L508.7933,76.6133 L509.1104,72.918 L509.405,72.9643 L509.9828,69.3099 L510.3706,65.6256 L511.0365,61.9851 L511.7155,58.3466 L511.9814,54.6432 L511.6673,54.5797 L512.9216,51.5146 L513.1413,48.2404 L514.1476,45.1251 L514.3439,41.8462 L515.2041,38.7014 L515.1777,38.6863 L517.2714,35.7546 L518.7478,32.4695 L520.5885,29.3929 L522.4597,26.3338 L524.1104,23.1484 L524.1104,23.5184 L526.1104,23.145 L528.1104,23.4037 L530.1104,22.6396 L532.1104,23.4012 L534.1104,23.1484" fill="none" style="stroke:#FF9900;stroke-width:1;"/><a href="/use-case/legal-entity-management/ownership-and-capital-structure/control/" target="_top" title="/use-case/legal-entity-management/ownership-and-capital-structure/control/" xlink:actuate="onRequest" xlink:href="/use-case/legal-entity-management/ownership-and-capital-structure/control/" xlink:show="new" xlink:title="/use-case/legal-entity-management/ownership-and-capital-structure/control/" xlink:type="simple"><text fill="#90EE90" font-family="'Roboto'" font-size="14" lengthAdjust="spacing" textLength="50.9141" x="541.1104" y="54.292">Control</text></a><path d="M484.1104,122.6875 L484.1104,122.8743 L486.1104,122.3192 L488.1104,122.8593 L490.1104,123.0428 L492.1104,122.0534 L494.1104,122.6875 L494.1104,122.6875 L494.0831,122.6663 L495.742,120.2823 L497.5383,118.0052 L499.4302,115.8024 L500.9929,113.3435 L503.0166,111.2434 L503.2539,111.3086 L503.391,108.8232 L504.2209,106.528 L505.1353,104.2561 L505.558,101.8492 L506.2393,99.5132 L506.2689,99.5195 L506.7996,96.8209 L507.4653,94.1511 L508.0659,91.4673 L508.7907,88.8101 L509.1104,86.0664 L509.402,86.1287 L509.9798,83.4401 L510.3695,80.7113 L511.0345,78.0413 L511.7124,75.3741 L511.9814,72.6196 L511.6724,72.5347 L512.9168,70.3534 L513.1434,67.8926 L514.1438,65.6443 L514.3474,63.1772 L515.2041,60.8894 L515.1801,60.8707 L517.2455,58.803 L518.7495,56.2985 L520.5848,54.0517 L522.4479,51.8266 L524.1104,49.4453 L524.1104,49.8153 L526.1104,49.4418 L528.1104,49.7006 L530.1104,48.9365 L532.1104,49.6981 L534.1104,49.4453" fill="none" style="stroke:#FF9900;stroke-width:1;"/><a href="/use-case/legal-entity-management/ownership-and-capital-structure/shares/" target="_top" title="/use-case/legal-entity-management/ownership-and-capital-structure/shares/" xlink:actuate="onRequest" xlink:href="/use-case/legal-entity-management/ownership-and-capital-structure/shares/" xlink:show="new" xlink:title="/use-case/legal-entity-management/ownership-and-capital-structure/shares/" xlink:type="simple"><text fill="#90EE90" font-family="'Roboto'" font-size="14" lengthAdjust="spacing" textLength="142.4746" x="541.1104" y="80.5889">Shares &amp; Ownership</text></a><path d="M484.1104,122.6875 L484.1104,122.8743 L486.1104,122.3192 L488.1104,122.8593 L490.1104,123.0428 L492.1104,122.0534 L494.1104,122.6875 L494.1104,122.6875 L494.0884,122.6608 L495.7711,121.0741 L497.5645,119.6219 L499.4348,118.263 L501.04,116.5821 L503.0166,115.3523 L503.2468,115.4392 L503.9733,112.0258 L505.3719,108.8663 L506.8524,105.7376 L507.8559,102.4289 L509.1104,99.2148 L509.1387,99.2256 L510.3158,95.9823 L511.6221,92.7879 L512.866,89.5699 L514.2289,86.3968 L515.2041,83.0774 L515.3937,83.3076 L517.1773,81.8434 L518.8385,80.2307 L520.6788,78.8353 L522.5275,77.4501 L524.1104,75.7422 L524.1104,75.1011 L526.1104,76.3453 L528.1104,75.4786 L530.1104,76.2167 L532.1104,75.3022 L534.1104,75.7422" fill="none" style="stroke:#FF9900;stroke-width:1;"/><a href="/use-case/legal-entity-management/ownership-and-capital-structure/share-capital/" target="_top" title="/use-case/legal-entity-management/ownership-and-capital-structure/share-capital/" xlink:actuate="onRequest" xlink:href="/use-case/legal-entity-management/ownership-and-capital-structure/share-capital/" xlink:show="new" xlink:title="/use-case/legal-entity-management/ownership-and-capital-structure/share-capital/" xlink:type="simple"><text fill="#90EE90" font-family="'Roboto'" font-size="14" lengthAdjust="spacing" textLength="94.2471" x="541.1104" y="106.8857">Share Capital</text></a><path d="M484.1104,122.6875 L484.1104,122.8743 L486.1104,122.3192 L488.1104,122.8593 L490.1104,123.0428 L492.1104,122.0534 L494.1104,122.6875 L494.1104,122.6875 L494.0908,122.659 L497.0029,120.4665 L500.0137,118.4174 L503.0932,116.468 L505.9361,114.175 L509.1104,112.3633 L509.2499,112.566 L511.9515,110.0677 L515.0605,108.1612 L518.2192,106.3269 L521.0887,104.0725 L524.1104,102.0391 L524.1104,102.0997 L526.1104,102.0107 L528.1104,102.1978 L530.1104,102.2516 L532.1104,102.5597 L534.1104,102.0391" fill="none" style="stroke:#FF9900;stroke-width:1;"/><a href="/use-case/legal-entity-management/ownership-and-capital-structure/issued-capital/" target="_top" title="/use-case/legal-entity-management/ownership-and-capital-structure/issued-capital/" xlink:actuate="onRequest" xlink:href="/use-case/legal-entity-management/ownership-and-capital-structure/issued-capital/" xlink:show="new" xlink:title="/use-case/legal-entity-management/ownership-and-capital-structure/issued-capital/" xlink:type="simple"><text fill="#90EE90" font-family="'Roboto'" font-size="14" lengthAdjust="spacing" textLength="98.6289" x="541.1104" y="133.1826">Issued Capital</text></a><path d="M484.1104,122.6875 L484.1104,122.8743 L486.1104,122.3192 L488.1104,122.8593 L490.1104,123.0428 L492.1104,122.0534 L494.1104,122.6875 L494.1104,122.6875 L494.104,122.6536 L497.0753,123.0661 L500.0788,123.6497 L503.1047,124.3523 L506.0535,124.6449 L509.1104,125.5117 L509.1559,125.7535 L512.0585,125.8013 L515.0941,126.555 L518.1459,127.3949 L521.1033,127.7336 L524.1104,128.3359 L524.1104,128.3966 L526.1104,128.3075 L528.1104,128.4946 L530.1104,128.5485 L532.1104,128.8566 L534.1104,128.3359" fill="none" style="stroke:#FF9900;stroke-width:1;"/><polygon fill="#4051B5" points="538.1104,151.4844,538.1104,151.6946,548.2727,151.0701,558.435,151.6777,568.5973,151.8841,578.7596,150.771,588.9219,151.4067,599.0843,151.0579,609.2466,151.1009,619.4089,151.4162,629.5712,150.793,639.7335,152.038,649.8959,150.8541,660.0582,151.2866,670.2205,151.9163,680.3828,151.4844,680.3719,151.458,680.9572,151.7397,681.5101,151.9432,682.1026,152.2423,682.6761,152.4953,683.2112,152.6559,683.3916,152.7307,683.6522,153.3072,683.8891,153.874,683.9926,154.3855,684.2913,154.9778,684.3828,155.4844,684.6169,155.4844,684.1424,161.1438,684.609,166.8031,684.284,172.4625,684.5607,178.1219,684.3828,183.7813,684.2304,183.7181,684.1274,184.3382,684.1426,185.0072,683.6649,185.4721,683.478,186.0574,683.2112,186.6097,683.2544,186.714,682.6986,186.9722,682.0794,187.0771,681.5508,187.4011,680.8755,187.3707,680.3828,187.7813,680.3828,188.0656,670.2205,188.3294,660.0582,188.2258,649.8959,188.3943,639.7335,187.2982,629.5712,187.1291,619.4089,187.1598,609.2466,187.7224,599.0843,187.5847,588.9219,188.4627,578.7596,187.6066,568.5973,187.4382,558.435,188.0095,548.2727,187.1144,538.1104,187.7813,538.0441,187.6214,537.6274,187.7468,537.0346,187.4468,536.507,187.3045,535.8066,186.7449,535.2819,186.6097,535.3802,186.6504,535.2294,186.1193,534.6678,185.418,534.5495,184.9004,534.3835,184.363,534.1104,183.7813,534.3276,183.7813,534.109,178.1219,534.2645,172.4625,533.9258,166.8031,533.8846,161.1438,534.1104,155.4844,534.2654,155.5486,534.1239,154.8272,534.7357,154.4179,534.8769,153.8137,534.9651,153.1875,535.2819,152.6559,535.2368,152.547,535.9061,152.5629,536.3751,152.0951,537.0545,152.1353,537.4742,151.5485,538.1104,151.4844" style="stroke:#FF6F00;stroke-width:1.5;"/><a href="/use-case/legal-entity-management/ownership-and-capital-structure/corporate-actions/" target="_top" title="/use-case/legal-entity-management/ownership-and-capital-structure/corporate-actions/" xlink:actuate="onRequest" xlink:href="/use-case/legal-entity-management/ownership-and-capital-structure/corporate-actions/" xlink:show="new" xlink:title="/use-case/legal-entity-management/ownership-and-capital-structure/corporate-actions/" xlink:type="simple"><text fill="#90EE90" font-family="'Roboto'" font-size="14" lengthAdjust="spacing" textLength="125.8223" x="544.1104" y="174.4795">Corporate Actions</text></a><a href="/use-case/legal-entity-management/ownership-and-capital-structure/corporate-actions/merger-and-acquisition-history/" target="_top" title="/use-case/legal-entity-management/ownership-and-capital-structure/corporate-actions/merger-and-acquisition-history/" xlink:actuate="onRequest" xlink:href="/use-case/legal-entity-management/ownership-and-capital-structure/corporate-actions/merger-and-acquisition-history/" xlink:show="new" xlink:title="/use-case/legal-entity-management/ownership-and-capital-structure/corporate-actions/merger-and-acquisition-history/" xlink:type="simple"><text fill="#90EE90" font-family="'Roboto'" font-size="14" lengthAdjust="spacing" textLength="200.7031" x="741.3828" y="121.8857">Merger &amp; Acquisition History</text></a><path d="M684.3828,169.6328 L684.3828,169.8196 L686.3828,169.2645 L688.3828,169.8046 L690.3828,169.9881 L692.3828,168.9987 L694.3828,169.6328 L694.3828,169.6328 L694.3594,169.6074 L696.0355,167.8499 L697.8297,166.2204 L699.706,164.6799 L701.2994,162.8328 L703.2891,161.415 L703.5222,161.4936 L704.2424,157.7097 L705.6433,154.1553 L707.1272,150.6289 L708.1279,146.9396 L709.3828,143.3359 L709.4116,143.3456 L710.5881,139.7156 L711.8955,136.1296 L713.1398,132.5224 L714.5045,128.9558 L715.4766,125.2568 L715.6788,125.476 L717.4625,123.8352 L719.1158,122.0529 L720.96,120.4776 L722.8132,118.912 L724.3828,117.0391 L724.3828,116.398 L726.3828,117.6422 L728.3828,116.7755 L730.3828,117.5136 L732.3828,116.599 L734.3828,117.0391" fill="none" style="stroke:#FF9900;stroke-width:1;"/><a href="/use-case/legal-entity-management/ownership-and-capital-structure/corporate-actions/spin-offs/" target="_top" title="/use-case/legal-entity-management/ownership-and-capital-structure/corporate-actions/spin-offs/" xlink:actuate="onRequest" xlink:href="/use-case/legal-entity-management/ownership-and-capital-structure/corporate-actions/spin-offs/" xlink:show="new" xlink:title="/use-case/legal-entity-management/ownership-and-capital-structure/corporate-actions/spin-offs/" xlink:type="simple"><text fill="#90EE90" font-family="'Roboto'" font-size="14" lengthAdjust="spacing" textLength="61.3047" x="741.3828" y="148.1826">Spin-offs</text></a><path d="M684.3828,169.6328 L684.3828,169.8196 L686.3828,169.2645 L688.3828,169.8046 L690.3828,169.9881 L692.3828,168.9987 L694.3828,169.6328 L694.3828,169.6328 L694.36,169.6068 L697.2579,166.8606 L700.2705,164.2453 L703.3628,161.721 L706.1803,158.883 L709.3828,156.4844 L709.545,156.6694 L712.1982,153.644 L715.3249,151.1589 L718.5094,148.7397 L721.3577,145.937 L724.3828,143.3359 L724.3828,143.3966 L726.3828,143.3075 L728.3828,143.4946 L730.3828,143.5485 L732.3828,143.8566 L734.3828,143.3359" fill="none" style="stroke:#FF9900;stroke-width:1;"/><a href="/use-case/legal-entity-management/ownership-and-capital-structure/corporate-actions/parents-and-subsidiaries/" target="_top" title="/use-case/legal-entity-management/ownership-and-capital-structure/corporate-actions/parents-and-subsidiaries/" xlink:actuate="onRequest" xlink:href="/use-case/legal-entity-management/ownership-and-capital-structure/corporate-actions/parents-and-subsidiaries/" xlink:show="new" xlink:title="/use-case/legal-entity-management/ownership-and-capital-structure/corporate-actions/parents-and-subsidiaries/" xlink:type="simple"><text fill="#90EE90" font-family="'Roboto'" font-size="14" lengthAdjust="spacing" textLength="173.0244" x="741.3828" y="174.4795">Parents and Subsidiaries</text></a><path d="M684.3828,169.6328 L684.3828,169.8196 L686.3828,169.2645 L688.3828,169.8046 L690.3828,169.9881 L692.3828,168.9987 L694.3828,169.6328 L694.3828,169.6328 L694.3828,169.5983 L700.3828,169.4433 L706.3828,169.4624 L712.3828,169.6025 L718.3828,169.3255 L724.3828,169.6328 L724.3828,170.1249 L726.3828,169.0726 L728.3828,169.457 L730.3828,170.0168 L732.3828,169.5566 L734.3828,169.6328" fill="none" style="stroke:#FF9900;stroke-width:1;"/><a href="/use-case/legal-entity-management/ownership-and-capital-structure/corporate-actions/stock-splits/" target="_top" title="/use-case/legal-entity-management/ownership-and-capital-structure/corporate-actions/stock-splits/" xlink:actuate="onRequest" xlink:href="/use-case/legal-entity-management/ownership-and-capital-structure/corporate-actions/stock-splits/" xlink:show="new" xlink:title="/use-case/legal-entity-management/ownership-and-capital-structure/corporate-actions/stock-splits/" xlink:type="simple"><text fill="#90EE90" font-family="'Roboto'" font-size="14" lengthAdjust="spacing" textLength="81.5322" x="741.3828" y="200.7764">Stock Splits</text></a><path d="M684.3828,169.6328 L684.3828,169.8196 L686.3828,169.2645 L688.3828,169.8046 L690.3828,169.9881 L692.3828,168.9987 L694.3828,169.6328 L694.3828,169.6328 L694.36,169.6068 L697.2579,172.12 L700.2705,174.764 L703.3628,177.4991 L706.1803,179.9205 L709.3828,182.7813 L709.545,182.9663 L712.1982,185.2003 L715.3249,187.9745 L718.5094,190.8147 L721.3577,193.2713 L724.3828,195.9297 L724.3828,195.9903 L726.3828,195.9013 L728.3828,196.0884 L730.3828,196.1423 L732.3828,196.4503 L734.3828,195.9297" fill="none" style="stroke:#FF9900;stroke-width:1;"/><a href="/use-case/legal-entity-management/ownership-and-capital-structure/corporate-actions/dividends/" target="_top" title="/use-case/legal-entity-management/ownership-and-capital-structure/corporate-actions/dividends/" xlink:actuate="onRequest" xlink:href="/use-case/legal-entity-management/ownership-and-capital-structure/corporate-actions/dividends/" xlink:show="new" xlink:title="/use-case/legal-entity-management/ownership-and-capital-structure/corporate-actions/dividends/" xlink:type="simple"><text fill="#90EE90" font-family="'Roboto'" font-size="14" lengthAdjust="spacing" textLength="69.3984" x="741.3828" y="227.0732">Dividends</text></a><path d="M684.3828,169.6328 L684.3828,169.8196 L686.3828,169.2645 L688.3828,169.8046 L690.3828,169.9881 L692.3828,168.9987 L694.3828,169.6328 L694.3828,169.6328 L694.3594,169.6074 L696.0355,171.1371 L697.8297,172.7947 L699.706,174.5412 L701.2994,175.9812 L703.2891,177.8506 L703.5222,177.9292 L704.2424,181.3769 L705.6433,185.0542 L707.1272,188.7594 L708.1279,192.3017 L709.3828,195.9297 L709.4116,195.9394 L710.5881,199.541 L711.8955,203.1867 L713.1398,206.8111 L714.5045,210.4761 L715.4766,214.0088 L715.6788,214.228 L717.4625,215.8742 L719.1158,217.3791 L720.96,219.0909 L722.8132,220.8124 L724.3828,222.2266 L724.3828,221.5855 L726.3828,222.8297 L728.3828,221.963 L730.3828,222.7011 L732.3828,221.7865 L734.3828,222.2266" fill="none" style="stroke:#FF9900;stroke-width:1;"/><path d="M484.1104,122.6875 L484.1104,122.8743 L486.1104,122.3192 L488.1104,122.8593 L490.1104,123.0428 L492.1104,122.0534 L494.1104,122.6875 L494.1104,122.6875 L494.0884,122.6608 L495.7711,124.0082 L497.5645,125.49 L499.4348,127.0652 L501.04,128.3185 L503.0166,130.0227 L503.2468,130.1096 L503.9733,133.1512 L505.3719,136.4466 L506.8524,139.773 L507.8559,142.9192 L509.1104,146.1602 L509.1387,146.1709 L510.3158,149.3826 L511.6221,152.6432 L512.866,155.8802 L514.2289,159.1621 L515.2041,162.2976 L515.3937,162.5278 L517.1773,163.9977 L518.8385,165.319 L520.6788,166.8578 L522.5275,168.4067 L524.1104,169.6328 L524.1104,168.9918 L526.1104,170.2359 L528.1104,169.3693 L530.1104,170.1073 L532.1104,169.1928 L534.1104,169.6328" fill="none" style="stroke:#FF9900;stroke-width:1;"/><path d="M205.2148,138.6602 L205.2148,138.847 L207.2148,138.2919 L209.2148,138.832 L211.2148,139.0154 L213.2148,138.026 L215.2148,138.6602 L215.2148,138.6602 L215.1986,138.6297 L218.1258,136.8956 L221.1347,135.3152 L224.2006,133.8416 L227.0704,131.9999 L230.2148,130.6738 L230.3305,130.891 L233.0832,128.8293 L236.1735,127.4017 L239.3051,126.0515 L242.1969,124.2511 L245.2148,122.6875 L245.2148,122.7482 L247.2148,122.6591 L249.2148,122.8462 L251.2148,122.9001 L253.2148,123.2081 L255.2148,122.6875" fill="none" style="stroke:#FF9900;stroke-width:1;"/><a href="/use-case/legal-entity-management/financial-information/" target="_top" title="/use-case/legal-entity-management/financial-information/" xlink:actuate="onRequest" xlink:href="/use-case/legal-entity-management/financial-information/" xlink:show="new" xlink:title="/use-case/legal-entity-management/financial-information/" xlink:type="simple"><text fill="#90EE90" font-family="'Roboto'" font-size="14" lengthAdjust="spacing" textLength="148.0596" x="262.2148" y="153.8311">Financial Information</text></a><path d="M205.2148,138.6602 L205.2148,138.847 L207.2148,138.2919 L209.2148,138.832 L211.2148,139.0154 L213.2148,138.026 L215.2148,138.6602 L215.2148,138.6602 L215.2036,138.6275 L218.1532,139.5133 L221.1594,140.5638 L224.205,141.7288 L227.1149,142.4993 L230.2148,143.8223 L230.2949,144.0549 L233.1237,144.5898 L236.1862,145.804 L239.2773,147.1011 L242.2024,147.9159 L245.2148,148.9844 L245.2148,149.045 L247.2148,148.956 L249.2148,149.1431 L251.2148,149.1969 L253.2148,149.505 L255.2148,148.9844" fill="none" style="stroke:#FF9900;stroke-width:1;"/><a href="/use-case/legal-entity-management/lifecycle-and-status/" target="_top" title="/use-case/legal-entity-management/lifecycle-and-status/" xlink:actuate="onRequest" xlink:href="/use-case/legal-entity-management/lifecycle-and-status/" xlink:show="new" xlink:title="/use-case/legal-entity-management/lifecycle-and-status/" xlink:type="simple"><text fill="#90EE90" font-family="'Roboto'" font-size="14" lengthAdjust="spacing" textLength="125.8428" x="262.2148" y="180.1279">Lifecycle &amp; Status</text></a><path d="M205.2148,138.6602 L205.2148,138.847 L207.2148,138.2919 L209.2148,138.832 L211.2148,139.0154 L213.2148,138.026 L215.2148,138.6602 L215.2148,138.6602 L215.1962,138.6311 L216.8936,139.6451 L218.6852,140.8056 L220.5422,142.0679 L222.1738,142.9793 L224.1211,144.3822 L224.3426,144.4894 L225.0877,146.7778 L226.4795,149.3793 L227.9501,152.0189 L228.9618,154.4364 L230.2148,156.9707 L230.2421,156.9839 L231.4208,159.4822 L232.7238,162.0407 L233.9668,164.5701 L235.3241,167.1549 L236.3086,169.5592 L236.4698,169.8101 L238.253,170.9576 L239.9323,171.9432 L241.7637,173.1658 L243.6023,174.3994 L245.2148,175.2813 L245.2148,174.6402 L247.2148,175.8844 L249.2148,175.0177 L251.2148,175.7557 L253.2148,174.8412 L255.2148,175.2813" fill="none" style="stroke:#FF9900;stroke-width:1;"/><a href="/use-case/legal-entity-management/contact-and-location-information/" target="_top" title="/use-case/legal-entity-management/contact-and-location-information/" xlink:actuate="onRequest" xlink:href="/use-case/legal-entity-management/contact-and-location-information/" xlink:show="new" xlink:title="/use-case/legal-entity-management/contact-and-location-information/" xlink:type="simple"><text fill="#90EE90" font-family="'Roboto'" font-size="14" lengthAdjust="spacing" textLength="219.4814" x="262.2148" y="206.4248">Contact &amp; Location Information</text></a><path d="M205.2148,138.6602 L205.2148,138.847 L207.2148,138.2919 L209.2148,138.832 L211.2148,139.0154 L213.2148,138.026 L215.2148,138.6602 L215.2148,138.6602 L215.1892,138.637 L216.8556,140.4991 L218.651,142.4781 L220.5361,144.5384 L222.1121,146.3186 L224.1211,148.4911 L224.3555,148.566 L224.4988,150.4211 L225.3264,152.495 L226.2375,154.5956 L226.6629,156.5408 L227.3438,158.5678 L227.3732,158.5751 L227.9042,160.8746 L228.5692,163.2075 L229.1695,165.5242 L229.8932,167.8717 L230.2148,170.1191 L230.5043,170.1911 L231.082,172.5022 L231.4731,174.767 L232.1375,177.0996 L232.8146,179.4355 L233.0859,181.6705 L232.7806,181.5728 L234.0177,183.7777 L234.2495,185.661 L235.2455,187.7888 L235.4545,189.6648 L236.3086,191.7472 L236.286,191.7268 L238.3341,193.9347 L239.855,195.665 L241.687,197.6772 L243.5451,199.713 L245.2148,201.5781 L245.2148,201.9481 L247.2148,201.5747 L249.2148,201.8334 L251.2148,201.0693 L253.2148,201.8309 L255.2148,201.5781" fill="none" style="stroke:#FF9900;stroke-width:1;"/><a href="/use-case/legal-entity-management/compliance-and-documentation/" target="_top" title="/use-case/legal-entity-management/compliance-and-documentation/" xlink:actuate="onRequest" xlink:href="/use-case/legal-entity-management/compliance-and-documentation/" xlink:show="new" xlink:title="/use-case/legal-entity-management/compliance-and-documentation/" xlink:type="simple"><text fill="#90EE90" font-family="'Roboto'" font-size="14" lengthAdjust="spacing" textLength="210.1504" x="262.2148" y="232.7217">Compliance &amp; Documentation</text></a><path d="M205.2148,138.6602 L205.2148,138.847 L207.2148,138.2919 L209.2148,138.832 L211.2148,139.0154 L213.2148,138.026 L215.2148,138.6602 L215.2148,138.6602 L215.1857,138.6416 L216.8364,141.3461 L218.6337,144.1443 L220.5331,147.0077 L222.0809,149.6466 L224.1211,152.6 L224.3611,152.6541 L224.4924,155.396 L225.3244,158.296 L226.242,161.2152 L226.662,164.0222 L227.3438,166.8883 L227.3736,166.8935 L227.904,170.1617 L228.5703,173.4537 L229.1711,176.7342 L229.897,180.0367 L230.2148,183.2676 L230.5086,183.3191 L231.0864,186.5956 L231.4747,189.8388 L232.1404,193.1307 L232.8191,196.4249 L233.0859,199.6469 L232.7733,199.5763 L234.0246,202.5709 L234.2464,205.3332 L235.251,208.2721 L235.4494,211.0291 L236.3086,213.9352 L236.2829,213.9188 L238.3676,216.9006 L239.8528,219.4994 L241.6918,222.3243 L243.5604,225.1681 L245.2148,227.875 L245.2148,228.245 L247.2148,227.8715 L249.2148,228.1303 L251.2148,227.3662 L253.2148,228.1278 L255.2148,227.875" fill="none" style="stroke:#FF9900;stroke-width:1;"/><a href="/use-case/legal-entity-management/supporting-information/" target="_top" title="/use-case/legal-entity-management/supporting-information/" xlink:actuate="onRequest" xlink:href="/use-case/legal-entity-management/supporting-information/" xlink:show="new" xlink:title="/use-case/legal-entity-management/supporting-information/" xlink:type="simple"><text fill="#90EE90" font-family="'Roboto'" font-size="14" lengthAdjust="spacing" textLength="162.7295" x="262.2148" y="259.0186">Supporting Information</text></a><path d="M205.2148,138.6602 L205.2148,138.847 L207.2148,138.2919 L209.2148,138.832 L211.2148,139.0154 L213.2148,138.026 L215.2148,138.6602 L215.2148,138.6602 L215.1905,138.6357 L216.0771,139.5186 L217.0867,140.5248 L218.1817,141.6167 L218.9823,142.4132 L220.1953,143.6236 L220.431,143.6943 L220.7122,146.1601 L221.6814,148.8324 L222.7347,151.5299 L223.2994,154.0808 L224.1211,156.7089 L224.151,156.7141 L224.7516,160.4064 L225.4883,164.1224 L226.1594,167.8271 L226.9557,171.5535 L227.3438,175.2088 L227.6393,175.2488 L228.2171,179.4907 L228.6043,183.7069 L229.2706,187.9608 L229.9499,192.2164 L230.2148,196.416 L229.8972,196.373 L231.0879,200.6979 L231.2327,204.8812 L232.1726,209.1722 L232.2937,213.3523 L233.0859,217.6232 L233.0559,217.618 L234.0552,221.3798 L234.3537,225.0195 L235.0656,228.7312 L235.8123,232.449 L236.3086,236.1232 L236.4858,236.1763 L237.0921,238.7397 L238.0012,241.394 L238.4204,243.9012 L239.5703,246.6277 L240.2344,249.2085 L240.4064,249.3811 L241.3699,250.3411 L242.4189,251.3868 L243.0711,252.0344 L244.0141,252.9739 L245.2148,254.1719 L245.2148,253.6195 L247.2148,254.1195 L249.2148,253.9972 L251.2148,254.7776 L253.2148,254.0166 L255.2148,254.1719" fill="none" style="stroke:#FF9900;stroke-width:1;"/><!--SRC=[xLd_RzCu5FyzVuMFIGU8Arrt0m52YAxxmg1TftP3EY4qkOdJMatjO3iRlTFzx_ViD8cJVbbR4WvG-yjQlvVt-RndEtx-xArKMAW9PTu4XuxpcqTyoWWwEhlfDCylRbhTThU7p6VlSFzPO_3CTkcVjBeNnytUNpE_1IwNpTQ7vjb96cZEfTixFkdPE6ZFzv_x-_kfosdtuYhdO5pqnt7acB8G2pn10-oEXu97p6lnW8l4KGdC97WGfYpdTzEGY3PbOziNxGLqE593GGXpd8U8CZU8F8BKYA0XOKJW0AKX9FBXmG5Nep-GUGnXvY4FYp4ygJZYjqJS2Qe8kgDg5CUWjuGXIPIYR2YB5RXwTzxwS77IxwC6J0CF5UKCZI2eZgBWGHy7abWvN6BFWq3eq1hhnVaB88jUMEFz4VRudVOkHZ6L2A0IrympNyZCnV8v9ZwE0eN-SKuvKnTuGj237eVS-GCp4XSncoOpsAT_4zGuTFwr8pM5u7SGP-4JYyEeQG0rue6NZnJ2TECXcN6QU_Iei1fowzavuWAIdLci1GWG6GBZtYRXSmjzFGINJqBEO6K2p9Q45xABQnPDWeDypJoiy01BKZ9S3iCDUEHL2i23WBXwTyZIOJAK5ZW87bI8SAH3OZ6j4EA4AQgg1A1C4U5ZbrI8qITV8i9SSWd757LfY9cAWrsDg3jcH4fuOMRkSkOEZEmdLfAR2xs0f-MJlPOO5nCS56rpwRIfJ-2m8Kk3fmuhQPgNvrnmCxeqih4k96KiMGt_T9gkuk8U1iPbAPQsBjl03r7h4EcgmI44F_Rk_TXxNi26nsmOaDUluRIIdBrv0_FRXyL7k883REdfKTQvK5nnnJCx_ugow9AlG9BXuAPyteNcgmBoSYeLcVnyjIwVTqMrJWxadwFK6TkVhzBMCXdC3jwOTQ4npcTXUjZz-xkzhN9VdLXym7XOZeYtJguBKtK16CEv8jRD5VhrrKkfWanNJw5zj2ki5dKQoPKo0q-kXqsb11r4YioRR5B9XRFGo68fAqPxY3hnnHl9aBZKfoua6H-HS_UGzNdScnhE6eczqzENBy5UCDgzbUCykK6VFg5w94dDXVrV3yWG1pLYkilQ13EuXqtWLnsrjI5fEpkf0Nt-x3nPDmZrz1YK0kiUlmONu9eWGohX8gy7wkWyvu1-HptBl16KoqN8uJbI6-hhEiFGDzQXzP-DehDqTAEm_0vsd1pHq91tSKWL-073o5MH08HkuW3aMx4PMgEPEOOg2okrswYb8hZnJQcUNfbAZIv7M11Prm86_8LwLPI5mKd6Pt3ft9IAHAMCY9T1dPlV1QoofYPPtpY-CDkBkpcxGyU0vQs68kI4Y24HnXsxNo8ggTdN8zYoN4phg6FiCBFDp8hUnTRAoScGiXhtVRt2ag-LWyPgf3J-CXf8wb4ig5xbbx75I8bzor9z7HHtnpKP1bJfKkXVK13zgt9eZzxgLxu7kCV9rurUjpxLhsWADifyVI6FZudJP1YTPyCR1GxWLkvEtO34CmNTHmGasyaeBDc-6Tlmp86Mp5KcPC1dXroEU2lsWF3jcNth3BJ0651zW1ayZxkH7a-14YjW7TksZK1a5CAKQaqxdqS_7I_oVmjpdFx7uMt-7n0LAle_i7QUj6vh2kUs-u806qZcQS-ufBjSt4kk4Cc_DU0gJNnLZ7a6MwZWcm6ifNj_IyYLIlUcWTVHjhUFkKBDtZxeKlrw-v2h5EljerQYKITqbgZJ2REDXUaaWKMgT19qcI2TSBAawFJsMzIXarW52JhdVw_-d08MbUSqUbvqjZRILlhnyZVh9gjbVlA_LH_-thpk4VR-jpBz2BpMLcs_CviVgaYb2gu9ZmspMSfwfRZQg59DBJkJGlr_QRLq9udk9D6T9BgJH7UIw4uItKcYEqdqbvL4BmEui5ztsWZEMgaT6ayFzW-UFMqq1aJXnlwZQpPciAoCM4QXx8fEo6FdqTbb6qaU2M3lwUDVjrVm-6FdFRx5g1SnxVSATKF2tXz_I0QWERcbWZFDt7d_iPCvF3-i7L65-aG04VInuoHYvWbpkTPFNw7hgzFQ2wSD7N84oRz2X3ajQCYKc8Aj_ny0]--></g></svg>