<svg xmlns="http://www.w3.org/2000/svg" xmlns:xlink="http://www.w3.org/1999/xlink" contentStyleType="text/css" data-diagram-type="MINDMAP" height="284px" preserveAspectRatio="none" style="width:688px;height:284px;" version="1.1" viewBox="0 0 688 284" width="688px" zoomAndPan="magnify"><defs/><g><a href="/use-case/legal-entity-management/" target="_top" title="/use-case/legal-entity-management/" xlink:actuate="onRequest" xlink:href="/use-case/legal-entity-management/" xlink:show="new" xlink:title="/use-case/legal-entity-management/" xlink:type="simple"><text fill="#90EE90" font-family="'Roboto'" font-size="14" lengthAdjust="spacing" textLength="179.7646" x="17" y="146.3311">Legal Entity Management</text></a><a href="/use-case/legal-entity-management/identification-and-registration/" target="_top" title="/use-case/legal-entity-management/identification-and-registration/" xlink:actuate="onRequest" xlink:href="/use-case/legal-entity-management/identification-and-registration/" xlink:show="new" xlink:title="/use-case/legal-entity-management/identification-and-registration/" xlink:type="simple"><text fill="#90EE90" font-family="'Roboto'" font-size="14" lengthAdjust="spacing" textLength="196.6631" x="262.2148" y="27.9951">Identification &amp; Registration</text></a><path d="M205.2148,141.4844 L205.2148,141.6712 L207.2148,141.1161 L209.2148,141.6562 L211.2148,141.8396 L213.2148,140.8502 L215.2148,141.4844 L215.2148,141.4844 L215.1902,141.4602 L216.0755,140.3348 L217.0853,139.3312 L218.1815,138.4123 L218.9797,137.2016 L220.1953,136.3996 L220.4315,136.4688 L220.7116,133.6398 L221.6813,131.0128 L222.735,128.4104 L223.2994,125.6647 L224.1211,122.9944 L224.151,122.9995 L224.7516,119.2016 L225.4884,115.4268 L226.1595,111.6409 L226.9558,107.8762 L227.3438,104.0421 L227.6394,104.0812 L228.2173,99.7365 L228.6044,95.3667 L229.2707,91.0337 L229.95,86.7024 L230.2148,82.3164 L229.8971,82.2744 L231.088,78.0108 L231.2326,73.6088 L232.1727,69.312 L232.2936,64.907 L233.0859,60.5907 L233.0559,60.5856 L234.0554,56.8555 L234.3536,53.0061 L235.0657,49.2272 L235.8124,45.4541 L236.3086,41.6384 L236.4861,41.6904 L237.0921,38.9569 L238.0014,36.3122 L238.4199,33.5238 L239.5705,30.9498 L240.2344,28.2332 L240.4084,28.4037 L241.3716,27.3545 L242.4212,26.3899 L243.0693,25.0321 L244.0117,23.9626 L245.2148,23.1484 L245.2148,22.5961 L247.2148,23.0961 L249.2148,22.9737 L251.2148,23.7541 L253.2148,22.9932 L255.2148,23.1484" fill="none" style="stroke:#FF9900;stroke-width:1;"/><polygon fill="#4051B5" points="259.2148,57.5938,259.2148,57.8039,268.9699,57.1794,278.7249,57.787,288.48,57.9934,298.235,56.8804,307.9901,57.516,317.7451,57.1673,327.5002,57.2103,337.2552,57.5256,347.0103,56.9024,356.7653,58.1474,366.5203,56.9635,376.2754,57.396,386.0304,58.0257,395.7855,57.508,405.5405,57.662,415.2956,57.5618,425.0506,57.7723,434.8057,57.5938,434.8362,57.6674,435.4461,58.0084,436.0226,58.269,436.5894,58.5059,437.1009,58.6094,437.6341,58.7653,437.7769,58.8245,438.0847,59.4206,437.8806,59.8047,438.546,60.5489,438.48,60.9902,438.8057,61.5938,438.9836,61.5938,438.6407,67.2531,438.7828,72.9125,439.0529,78.5719,438.7894,84.2313,438.8057,89.8906,438.8381,89.9041,438.6756,90.4995,438.4652,91.0751,438.1015,91.5872,437.9569,92.19,437.6341,92.7191,437.5611,92.5428,437.1047,93.0409,436.5726,93.3565,435.9937,93.5589,435.4495,93.8451,434.8057,93.8906,434.8057,93.4075,425.0506,93.2384,415.2956,93.2692,405.5405,93.8317,395.7855,93.6941,386.0304,94.572,376.2754,93.7159,366.5203,93.5476,356.7653,94.1189,347.0103,93.2238,337.2552,93.3715,327.5002,94.5396,317.7451,94.3263,307.9901,94.6251,298.235,93.5688,288.48,94.2098,278.7249,94.481,268.9699,93.4182,259.2148,93.8906,259.2026,93.8611,258.6652,93.6951,258.1666,93.6227,257.5173,93.1864,257.0111,93.0958,256.3864,92.7191,256.2159,92.6484,255.9435,92.067,256.0729,91.6519,255.4627,90.9305,255.6059,90.5212,255.2148,89.8906,255.2837,89.8906,255.1255,84.2313,255.0969,78.5719,255.3678,72.9125,255.1151,67.2531,255.2148,61.5938,255.3971,61.6692,255.2789,60.9576,255.8736,60.5411,256.0669,59.9585,256.2275,59.3623,256.3864,58.7653,256.3924,58.7799,257.0448,58.7548,257.5961,58.4857,258.1051,58.1145,258.6834,57.9107,259.2148,57.5938" style="stroke:#FF6F00;stroke-width:1.5;"/><a href="/use-case/legal-entity-management/corporate-governance/" target="_top" title="/use-case/legal-entity-management/corporate-governance/" xlink:actuate="onRequest" xlink:href="/use-case/legal-entity-management/corporate-governance/" xlink:show="new" xlink:title="/use-case/legal-entity-management/corporate-governance/" xlink:type="simple"><text fill="#90EE90" font-family="'Roboto'" font-size="14" lengthAdjust="spacing" textLength="159.1406" x="265.2148" y="80.5889">Corporate Governance</text></a><a href="/use-case/legal-entity-management/corporate-governance/directorships/" target="_top" title="/use-case/legal-entity-management/corporate-governance/directorships/" xlink:actuate="onRequest" xlink:href="/use-case/legal-entity-management/corporate-governance/directorships/" xlink:show="new" xlink:title="/use-case/legal-entity-management/corporate-governance/directorships/" xlink:type="simple"><text fill="#90EE90" font-family="'Roboto'" font-size="14" lengthAdjust="spacing" textLength="92.7842" x="495.8057" y="54.292">Directorships</text></a><path d="M438.8057,75.7422 L438.8057,75.929 L440.8057,75.3739 L442.8057,75.914 L444.8057,76.0975 L446.8057,75.1081 L448.8057,75.7422 L448.8057,75.7422 L448.7829,75.7162 L451.6807,72.97 L454.6933,70.3546 L457.7857,67.8303 L460.6031,64.9924 L463.8057,62.5938 L463.9679,62.7788 L466.621,59.7534 L469.7477,57.2683 L472.9322,54.8491 L475.7805,52.0463 L478.8057,49.4453 L478.8057,49.506 L480.8057,49.4169 L482.8057,49.604 L484.8057,49.6579 L486.8057,49.9659 L488.8057,49.4453" fill="none" style="stroke:#FF9900;stroke-width:1;"/><a href="/use-case/legal-entity-management/corporate-governance/signatories/" target="_top" title="/use-case/legal-entity-management/corporate-governance/signatories/" xlink:actuate="onRequest" xlink:href="/use-case/legal-entity-management/corporate-governance/signatories/" xlink:show="new" xlink:title="/use-case/legal-entity-management/corporate-governance/signatories/" xlink:type="simple"><text fill="#90EE90" font-family="'Roboto'" font-size="14" lengthAdjust="spacing" textLength="78.7227" x="495.8057" y="80.5889">Signatories</text></a><path d="M438.8057,75.7422 L438.8057,75.929 L440.8057,75.3739 L442.8057,75.914 L444.8057,76.0975 L446.8057,75.1081 L448.8057,75.7422 L448.8057,75.7422 L448.8057,75.7076 L454.8057,75.5526 L460.8057,75.5717 L466.8057,75.7119 L472.8057,75.4349 L478.8057,75.7422 L478.8057,76.2343 L480.8057,75.1819 L482.8057,75.5664 L484.8057,76.1261 L486.8057,75.6659 L488.8057,75.7422" fill="none" style="stroke:#FF9900;stroke-width:1;"/><a href="/use-case/legal-entity-management/corporate-governance/organizational-structure/" target="_top" title="/use-case/legal-entity-management/corporate-governance/organizational-structure/" xlink:actuate="onRequest" xlink:href="/use-case/legal-entity-management/corporate-governance/organizational-structure/" xlink:show="new" xlink:title="/use-case/legal-entity-management/corporate-governance/organizational-structure/" xlink:type="simple"><text fill="#90EE90" font-family="'Roboto'" font-size="14" lengthAdjust="spacing" textLength="172.1016" x="495.8057" y="106.8857">Organizational Structure</text></a><path d="M438.8057,75.7422 L438.8057,75.929 L440.8057,75.3739 L442.8057,75.914 L444.8057,76.0975 L446.8057,75.1081 L448.8057,75.7422 L448.8057,75.7422 L448.7829,75.7162 L451.6807,78.2293 L454.6933,80.8734 L457.7857,83.6085 L460.6031,86.0299 L463.8057,88.8906 L463.9679,89.0757 L466.621,91.3097 L469.7477,94.0839 L472.9322,96.9241 L475.7805,99.3807 L478.8057,102.0391 L478.8057,102.0997 L480.8057,102.0107 L482.8057,102.1978 L484.8057,102.2516 L486.8057,102.5597 L488.8057,102.0391" fill="none" style="stroke:#FF9900;stroke-width:1;"/><path d="M205.2148,141.4844 L205.2148,141.6712 L207.2148,141.1161 L209.2148,141.6562 L211.2148,141.8396 L213.2148,140.8502 L215.2148,141.4844 L215.2148,141.4844 L215.1887,141.4617 L216.8529,139.3058 L218.6486,137.2638 L220.5357,135.3012 L222.1077,133.0653 L224.1211,131.2122 L224.3564,131.2842 L224.4978,129.0244 L225.3261,126.9748 L226.2383,124.9509 L226.6628,122.7778 L227.3438,120.6831 L227.3733,120.6902 L227.9042,118.2659 L228.5694,115.8736 L229.1698,113.4658 L229.8939,111.0875 L230.2148,108.6133 L230.505,108.6823 L231.0828,106.2692 L231.4734,103.8115 L232.1379,101.419 L232.8153,99.0296 L233.0859,96.5434 L232.7794,96.4496 L234.0188,94.5259 L234.249,92.2932 L235.2464,90.2954 L235.4537,88.0558 L236.3086,86.0144 L236.2856,85.9945 L238.3389,84.1759 L239.8547,81.8913 L241.6877,79.8817 L243.5473,77.8952 L245.2148,75.7422 L245.2148,76.1122 L247.2148,75.7387 L249.2148,75.9975 L251.2148,75.2334 L253.2148,75.995 L255.2148,75.7422" fill="none" style="stroke:#FF9900;stroke-width:1;"/><a href="/use-case/legal-entity-management/ownership-and-capital-structure/" target="_top" title="/use-case/legal-entity-management/ownership-and-capital-structure/" xlink:actuate="onRequest" xlink:href="/use-case/legal-entity-management/ownership-and-capital-structure/" xlink:show="new" xlink:title="/use-case/legal-entity-management/ownership-and-capital-structure/" xlink:type="simple"><text fill="#90EE90" font-family="'Roboto'" font-size="14" lengthAdjust="spacing" textLength="213.4453" x="262.2148" y="133.1826">Ownership &amp; Capital Structure</text></a><path d="M205.2148,141.4844 L205.2148,141.6712 L207.2148,141.1161 L209.2148,141.6562 L211.2148,141.8396 L213.2148,140.8502 L215.2148,141.4844 L215.2148,141.4844 L215.201,141.4527 L218.1388,139.9959 L221.1464,138.6986 L224.2027,137.5121 L227.0915,135.9436 L230.2148,134.9102 L230.3136,135.1355 L233.1024,133.3387 L236.1796,132.2 L239.2919,131.1415 L242.1995,129.6159 L245.2148,128.3359 L245.2148,128.3966 L247.2148,128.3075 L249.2148,128.4946 L251.2148,128.5485 L253.2148,128.8566 L255.2148,128.3359" fill="none" style="stroke:#FF9900;stroke-width:1;"/><a href="/use-case/legal-entity-management/financial-information/" target="_top" title="/use-case/legal-entity-management/financial-information/" xlink:actuate="onRequest" xlink:href="/use-case/legal-entity-management/financial-information/" xlink:show="new" xlink:title="/use-case/legal-entity-management/financial-information/" xlink:type="simple"><text fill="#90EE90" font-family="'Roboto'" font-size="14" lengthAdjust="spacing" textLength="148.0596" x="262.2148" y="159.4795">Financial Information</text></a><path d="M205.2148,141.4844 L205.2148,141.6712 L207.2148,141.1161 L209.2148,141.6562 L211.2148,141.8396 L213.2148,140.8502 L215.2148,141.4844 L215.2148,141.4844 L215.201,141.4527 L218.1388,142.6256 L221.1464,143.958 L224.2027,145.4012 L227.0915,146.4623 L230.2148,148.0586 L230.3136,148.284 L233.1024,149.1169 L236.1796,150.6078 L239.2919,152.179 L242.1995,153.2831 L245.2148,154.6328 L245.2148,154.6935 L247.2148,154.6044 L249.2148,154.7915 L251.2148,154.8454 L253.2148,155.1534 L255.2148,154.6328" fill="none" style="stroke:#FF9900;stroke-width:1;"/><a href="/use-case/legal-entity-management/lifecycle-and-status/" target="_top" title="/use-case/legal-entity-management/lifecycle-and-status/" xlink:actuate="onRequest" xlink:href="/use-case/legal-entity-management/lifecycle-and-status/" xlink:show="new" xlink:title="/use-case/legal-entity-management/lifecycle-and-status/" xlink:type="simple"><text fill="#90EE90" font-family="'Roboto'" font-size="14" lengthAdjust="spacing" textLength="125.8428" x="262.2148" y="185.7764">Lifecycle &amp; Status</text></a><path d="M205.2148,141.4844 L205.2148,141.6712 L207.2148,141.1161 L209.2148,141.6562 L211.2148,141.8396 L213.2148,140.8502 L215.2148,141.4844 L215.2148,141.4844 L215.1952,141.456 L216.8882,142.5612 L218.6804,143.8096 L220.5414,145.1575 L222.165,146.1624 L224.1211,147.6477 L224.3455,147.7486 L225.0843,150.2447 L226.4784,153.0354 L227.9524,155.862 L228.9613,158.4795 L230.2148,161.207 L230.2425,161.2195 L231.4206,163.9131 L232.7247,166.6633 L233.968,169.3862 L235.3273,172.1612 L236.3086,174.7664 L236.4783,175.0116 L238.2616,176.2473 L239.9355,177.3247 L241.7696,178.6338 L243.6112,179.9537 L245.2148,180.9297 L245.2148,180.2886 L247.2148,181.5328 L249.2148,180.6661 L251.2148,181.4042 L253.2148,180.4897 L255.2148,180.9297" fill="none" style="stroke:#FF9900;stroke-width:1;"/><a href="/use-case/legal-entity-management/contact-and-location-information/" target="_top" title="/use-case/legal-entity-management/contact-and-location-information/" xlink:actuate="onRequest" xlink:href="/use-case/legal-entity-management/contact-and-location-information/" xlink:show="new" xlink:title="/use-case/legal-entity-management/contact-and-location-information/" xlink:type="simple"><text fill="#90EE90" font-family="'Roboto'" font-size="14" lengthAdjust="spacing" textLength="219.4814" x="262.2148" y="212.0732">Contact &amp; Location Information</text></a><path d="M205.2148,141.4844 L205.2148,141.6712 L207.2148,141.1161 L209.2148,141.6562 L211.2148,141.8396 L213.2148,140.8502 L215.2148,141.4844 L215.2148,141.4844 L215.1887,141.4617 L216.8529,143.4146 L218.6486,145.4816 L220.5357,147.6279 L222.1077,149.5009 L224.1211,151.7566 L224.3564,151.8286 L224.4978,153.7804 L225.3261,155.9425 L226.2383,158.1302 L226.6628,160.1687 L227.3438,162.2856 L227.3733,162.2926 L227.9042,164.6963 L228.5694,167.1319 L229.1698,169.5521 L229.8939,172.0017 L230.2148,174.3555 L230.505,174.4245 L231.0828,176.8393 L231.4734,179.2096 L232.1379,181.6451 L232.8153,184.0836 L233.0859,186.4253 L232.7794,186.3315 L234.0188,188.6194 L234.249,190.5984 L235.2464,192.8122 L235.4537,194.7842 L236.3086,196.9543 L236.2856,196.9344 L238.3389,199.2247 L239.8547,201.049 L241.6877,203.1483 L243.5473,205.2707 L245.2148,207.2266 L245.2148,207.5965 L247.2148,207.2231 L249.2148,207.4819 L251.2148,206.7177 L253.2148,207.4794 L255.2148,207.2266" fill="none" style="stroke:#FF9900;stroke-width:1;"/><a href="/use-case/legal-entity-management/compliance-and-documentation/" target="_top" title="/use-case/legal-entity-management/compliance-and-documentation/" xlink:actuate="onRequest" xlink:href="/use-case/legal-entity-management/compliance-and-documentation/" xlink:show="new" xlink:title="/use-case/legal-entity-management/compliance-and-documentation/" xlink:type="simple"><text fill="#90EE90" font-family="'Roboto'" font-size="14" lengthAdjust="spacing" textLength="210.1504" x="262.2148" y="238.3701">Compliance &amp; Documentation</text></a><path d="M205.2148,141.4844 L205.2148,141.6712 L207.2148,141.1161 L209.2148,141.6562 L211.2148,141.8396 L213.2148,140.8502 L215.2148,141.4844 L215.2148,141.4844 L215.1855,141.4662 L216.8349,144.2608 L218.6324,147.1471 L220.5328,150.0971 L222.0786,152.8275 L224.1211,155.8655 L224.3615,155.918 L224.492,158.7538 L225.3243,161.743 L226.2422,164.7509 L226.662,167.6498 L227.3438,170.6061 L227.3736,170.6112 L227.904,173.9833 L228.5704,177.3785 L229.1712,180.7626 L229.8973,184.168 L230.2148,187.5039 L230.5089,187.5539 L231.0867,190.934 L231.4748,194.282 L232.1406,197.6771 L232.8194,201.0744 L233.0859,204.4017 L232.7728,204.3332 L234.0251,207.4142 L234.2463,210.2698 L235.2513,213.2968 L235.4491,216.1472 L236.3086,219.1423 L236.2827,219.1263 L238.3701,222.1921 L239.8527,224.8834 L241.6921,227.7956 L243.5615,230.7265 L245.2148,233.5234 L245.2148,233.8934 L247.2148,233.52 L249.2148,233.7787 L251.2148,233.0146 L253.2148,233.7762 L255.2148,233.5234" fill="none" style="stroke:#FF9900;stroke-width:1;"/><a href="/use-case/legal-entity-management/supporting-information/" target="_top" title="/use-case/legal-entity-management/supporting-information/" xlink:actuate="onRequest" xlink:href="/use-case/legal-entity-management/supporting-information/" xlink:show="new" xlink:title="/use-case/legal-entity-management/supporting-information/" xlink:type="simple"><text fill="#90EE90" font-family="'Roboto'" font-size="14" lengthAdjust="spacing" textLength="162.7295" x="262.2148" y="264.667">Supporting Information</text></a><path d="M205.2148,141.4844 L205.2148,141.6712 L207.2148,141.1161 L209.2148,141.6562 L211.2148,141.8396 L213.2148,140.8502 L215.2148,141.4844 L215.2148,141.4844 L215.1902,141.4602 L216.0755,142.3687 L217.0853,143.399 L218.1815,144.514 L218.9797,145.3372 L220.1953,146.5691 L220.4315,146.6383 L220.7116,149.1714 L221.6813,151.9065 L222.735,154.6662 L223.2994,157.2826 L224.1211,159.9744 L224.151,159.9794 L224.7516,163.7624 L225.4884,167.5686 L226.1595,171.3635 L226.9558,175.1798 L227.3438,178.9266 L227.6394,178.9657 L228.2173,183.3113 L228.6044,187.6317 L229.2707,191.989 L229.95,196.3481 L230.2148,200.6523 L229.8971,200.6104 L231.088,205.037 L231.2326,209.3254 L232.1727,213.7189 L232.2936,218.0041 L233.0859,222.3781 L233.0559,222.373 L234.0554,226.2238 L234.3536,229.9553 L235.0657,233.7573 L235.8124,237.5651 L236.3086,241.3303 L236.4861,241.3823 L237.0921,244.0109 L238.0014,246.7283 L238.4199,249.302 L239.5705,252.09 L240.2344,254.7356 L240.4084,254.9061 L241.3716,255.8908 L242.4212,256.9601 L243.0693,257.6362 L244.0117,258.6005 L245.2148,259.8203 L245.2148,259.268 L247.2148,259.768 L249.2148,259.6456 L251.2148,260.426 L253.2148,259.665 L255.2148,259.8203" fill="none" style="stroke:#FF9900;stroke-width:1;"/><!--SRC=[xLXjRzf84FxkNx7NI9TMFGhaaggDgYg4bpG9X0YIIgUgYXPxW1LcrxUxJewUxh_Vh8sDRTu9z99J-8HtPfzvsPUPVKwKfb8F6NU6rBEiNnpeCWxazEokKJg_kYitwyqM2NvxXuMZOkSegTAkbfjNbLBhZx7U39NhKlcoT5QDWQPKcgrAjPMqG_QwtVVTGY5MgJMlRb8AWOhvMPOQCEvHIOUaG-r1JmgVEsNX2XafQacvGWtWEg7yPUI1h3C-IEgIFPVr-hed0RXbxHF6RTTtWEW-a1vmaDGbCOGYNPpO4Rh_6mcc4SeTub0vm9bQ474Fya4o3UI1wNw8mUw14mLQCzvJsGpSV3alNrvLssrIn6KGdcQ2apw26XID4xlKLP28uPew3WAHmyHOAunVehFaGsAytQUEU33QMPGW4ovcufOxmHyOgoHqAj2blgl9trPDS7r5Xq1UjGJ6Bbu58s4I9yiK3BRP3o35G-kV9599Il60E3Ddp8RH8nTp95mdZUJXSjCUZ7sQcdgQsGsf_MoT2ed1ZYM93OWc9XQuSDQ1JstqrIpOOkW9ZZiJpMpey4plmfpvG_SWdJE7QjgX2hPiBcN3TeNlxDI0S5smpUbGMpSpiL961IdS7LeuDP1KZdPeeierqxiqmBW6sQKsxD166_xqWTjmZMMAsSoZN8TWDtrc3pWeXHVcH5sDrT6Zv8o5par1p_0peJEvbhYGG-fcPLFXr5aNiDZ0NF1OOQ6RmUKv1HwCpaKEf3ET2YIJ7FvkbMmjv18F0fMvjenqtW7U9-L3OhA6HGW_zfR-acTUue6dlEV2fqzOhPJWdp_Z-hPnyu7GMC3cLezjrONiZilMxFGLbN0N_a8dENNljkztfldQWVDgf3GCdr-kj-_tZd8T5UJdaUg9jyylqubjqXaNtj3hJ6ESZYBeOGlBkxsDObySM5XW7AhwuAmIwynGRJHCiQx8LMF5VdtnLjf1f8kNC5dQDTMpEeteIJan7ZqFIrfBrl4rJ8kIJaKFpamZIvNQiRLzqWWVtaHvOBCkip78i4HElKDMzsDfQ7JIIEpLQXy_eZmZJFPMblNsZdpxHlA-WfoDvp_lGe-wEGYwozoGSdo73V4hJ-f64BMTZLX0ld-ttguAmXmpXgcWfiVFuGCu9w7753xapK2UdASKoA-abH27fbQpP0lf2Pm6kPvvhNEARMCUE__nA3cBHqFKLIEOYUimSow5L7tcgJof93-t0AzOZrF4Ou3WxSd75g25x57EVWJfnLcOQT_MliHKDLCIxEx6ahNMMppW_MJI42orJJscCrOY1LpgSYZUq5INcOWOoXZlcjOzt52rQ9YSJuRN0dQnVxT7jWj13EQUyd4Pwj4eEjuEnjO23IvlMmUGhXWVXvJZvL03uUjZ-SOH62h2PMQz0tkEi7qp7XkAf6YhafIjPKJv7culmtwbusZ7urd_Jm2lnuYRF4bJbJla_fumonPTyYjIR4dr6G1ha6jnTPbJXsPNdGLqscC15x5dYp2cFTY0BrlFm4eCsMCW5t9YwmAlme9jZhc0zzeST2xJjJda8cvhSzITi5cHEtDuhCYpjIciA81P_5K4Ee-wYdnAa5Pndvnbh2Ai35cLqb_ALCK6innLZ9wcfn87QIEcQVxDkivkcLxynp99Fzkl9HJ0VvQcf-3NolpEJ_RcIILfgzHCvCUQqSprUY4DKzmbxxBjI3Bv_r_pAY_aoGjvyaAUl90dB-H9p9PSkzZQtpRg1BUcCWh5TmU5WwDtnM87D2qMNj_o0SVj53oh6QPTio6yiLwVNTU94hv4xnrpKPYB6AU_iIxeFIKjdnkzOzBqW5zKBgC1lCRkcHJSU6vTV6rC5DuVvawPndUGH4V8ruOLqHvLRWl3j1oJsvjQxeDLnrhgO_371BXLngjRon7Asly2]--></g></svg>