<svg xmlns="http://www.w3.org/2000/svg" xmlns:xlink="http://www.w3.org/1999/xlink" contentStyleType="text/css" data-diagram-type="MINDMAP" height="273px" preserveAspectRatio="none" style="width:650px;height:273px;" version="1.1" viewBox="0 0 650 273" width="650px" zoomAndPan="magnify"><defs/><g><a href="/use-case/legal-entity-management/" target="_top" title="/use-case/legal-entity-management/" xlink:actuate="onRequest" xlink:href="/use-case/legal-entity-management/" xlink:show="new" xlink:title="/use-case/legal-entity-management/" xlink:type="simple"><text fill="#4051B5" font-family="'Roboto'" font-size="13" lengthAdjust="spacing" textLength="166.9243" x="17" y="140.1646">Legal Entity Management</text></a><a href="/use-case/legal-entity-management/identification-and-registration/" target="_top" title="/use-case/legal-entity-management/identification-and-registration/" xlink:actuate="onRequest" xlink:href="/use-case/legal-entity-management/identification-and-registration/" xlink:show="new" xlink:title="/use-case/legal-entity-management/identification-and-registration/" xlink:type="simple"><text fill="#4051B5" font-family="'Roboto'" font-size="13" lengthAdjust="spacing" textLength="182.6157" x="249.0566" y="27.0669">Identification &amp; Registration</text></a><path d="M192.0566,135.6641 L192.0566,135.8509 L194.0566,135.2958 L196.0566,135.8359 L198.0566,136.0193 L200.0566,135.0299 L202.0566,135.6641 L202.0566,135.6641 L202.0258,135.6485 L203.6686,132.0445 L205.4669,128.5187 L207.3733,125.0475 L208.9072,121.3886 L210.9629,117.9926 L211.2051,118.0357 L211.3316,114.3208 L212.1654,110.7318 L213.0855,107.1582 L213.5035,103.4952 L214.1855,99.8793 L214.2156,99.8834 L214.7457,95.7245 L215.4126,91.5845 L216.0135,87.4354 L216.7403,83.3037 L217.0566,79.1152 L217.3521,79.1561 L217.9299,75.0038 L218.3172,70.8251 L218.9834,66.685 L219.6627,62.5468 L219.9277,58.3512 L219.6122,58.2951 L220.8692,54.7814 L221.0871,51.0828 L222.0949,47.5248 L222.2893,43.822 L223.1504,40.2379 L223.1232,40.2242 L225.226,36.852 L226.6935,33.1596 L228.5359,29.6561 L230.4098,26.1684 L232.0566,22.5664 L232.0566,22.9364 L234.0566,22.5629 L236.0566,22.8217 L238.0566,22.0576 L240.0566,22.8192 L242.0566,22.5664" fill="none" style="stroke:#FF6F00;stroke-width:1;"/><polygon fill="#4051B5" points="246.0566,55.2656,246.0566,55.4758,256.3008,54.8513,266.5449,55.4589,276.789,55.6653,287.0331,54.5522,297.2772,55.1879,307.5213,54.8391,317.7654,54.8821,328.0095,55.1975,338.2536,54.5743,348.4977,55.8193,358.7419,54.6353,368.986,55.0679,379.2301,55.6976,389.4742,55.1798,399.7183,55.3339,409.9624,55.2656,409.9583,55.2558,410.5509,55.5549,411.1243,55.8079,411.7342,56.1489,412.3107,56.4095,412.7908,56.4372,413,56.5238,413.1036,57.0354,413.4022,57.6277,413.71,58.2238,413.506,58.6079,413.9624,59.2656,414.1886,59.2656,413.8636,64.6922,414.1403,70.1188,413.7974,75.5453,413.9396,80.9719,413.9624,86.3984,414.1908,86.493,413.7131,86.9579,413.5262,87.5432,413.3637,88.1387,413.1533,88.7143,412.7908,89.2269,412.7903,89.2257,412.2618,89.5496,411.5864,89.5192,411.13,90.0174,410.598,90.3329,409.9624,90.3984,409.9624,90.843,399.7183,91.0115,389.4742,89.9154,379.2301,89.7463,368.986,89.777,358.7419,90.3396,348.4977,90.2019,338.2536,91.0798,328.0095,90.2238,317.7654,90.0554,307.5213,90.6267,297.2772,89.7316,287.0331,89.8793,276.789,91.0474,266.5449,90.8341,256.3008,91.1329,246.0566,90.3984,246.0156,90.2993,245.5317,90.2624,245.0006,90.1116,244.2993,89.55,243.7817,89.4317,243.2282,89.2269,243.267,89.2429,243.1946,88.7443,242.7583,88.095,242.6677,87.5888,242.1204,86.8935,242.0566,86.3984,241.8309,86.3984,242.2245,80.9719,241.8177,75.5453,242.2263,70.1188,242.1255,64.6922,242.0566,59.2656,241.9741,59.2314,242.182,58.6548,242.6665,58.1928,242.6674,57.5304,243.1762,57.0784,243.2282,56.4372,243.1577,56.267,243.8727,56.393,244.4214,56.1177,244.9565,55.8097,245.497,55.5145,246.0566,55.2656" style="stroke:#FF6F00;stroke-width:1.5;"/><a href="/use-case/legal-entity-management/corporate-governance/" target="_top" title="/use-case/legal-entity-management/corporate-governance/" xlink:actuate="onRequest" xlink:href="/use-case/legal-entity-management/corporate-governance/" xlink:show="new" xlink:title="/use-case/legal-entity-management/corporate-governance/" xlink:type="simple"><text fill="#4051B5" font-family="'Roboto'" font-size="13" lengthAdjust="spacing" textLength="147.7734" x="252.0566" y="77.3325">Corporate Governance</text></a><a href="/use-case/legal-entity-management/corporate-governance/directorships/" target="_top" title="/use-case/legal-entity-management/corporate-governance/directorships/" xlink:actuate="onRequest" xlink:href="/use-case/legal-entity-management/corporate-governance/directorships/" xlink:show="new" xlink:title="/use-case/legal-entity-management/corporate-governance/directorships/" xlink:type="simple"><text fill="#4051B5" font-family="'Roboto'" font-size="13" lengthAdjust="spacing" textLength="86.1567" x="470.9624" y="52.1997">Directorships</text></a><path d="M413.9624,72.832 L413.9624,73.0189 L415.9624,72.4637 L417.9624,73.0038 L419.9624,73.1873 L421.9624,72.1979 L423.9624,72.832 L423.9624,72.832 L423.9402,72.8056 L426.8407,70.1734 L429.8529,67.6748 L432.9429,65.269 L435.7651,62.5434 L438.9624,60.2656 L439.1204,60.4542 L441.7825,57.5376 L444.906,55.1717 L448.0857,52.8729 L450.9379,50.1833 L453.9624,47.6992 L453.9624,47.7599 L455.9624,47.6708 L457.9624,47.8579 L459.9624,47.9118 L461.9624,48.2198 L463.9624,47.6992" fill="none" style="stroke:#FF6F00;stroke-width:1;"/><a href="/use-case/legal-entity-management/corporate-governance/signatories/" target="_top" title="/use-case/legal-entity-management/corporate-governance/signatories/" xlink:actuate="onRequest" xlink:href="/use-case/legal-entity-management/corporate-governance/signatories/" xlink:show="new" xlink:title="/use-case/legal-entity-management/corporate-governance/signatories/" xlink:type="simple"><text fill="#4051B5" font-family="'Roboto'" font-size="13" lengthAdjust="spacing" textLength="73.0996" x="470.9624" y="77.3325">Signatories</text></a><path d="M413.9624,72.832 L413.9624,73.0189 L415.9624,72.4637 L417.9624,73.0038 L419.9624,73.1873 L421.9624,72.1979 L423.9624,72.832 L423.9624,72.832 L423.9624,72.7975 L429.9624,72.6425 L435.9624,72.6616 L441.9624,72.8017 L447.9624,72.5248 L453.9624,72.832 L453.9624,73.3242 L455.9624,72.2718 L457.9624,72.6562 L459.9624,73.216 L461.9624,72.7558 L463.9624,72.832" fill="none" style="stroke:#FF6F00;stroke-width:1;"/><a href="/use-case/legal-entity-management/corporate-governance/organizational-structure/" target="_top" title="/use-case/legal-entity-management/corporate-governance/organizational-structure/" xlink:actuate="onRequest" xlink:href="/use-case/legal-entity-management/corporate-governance/organizational-structure/" xlink:show="new" xlink:title="/use-case/legal-entity-management/corporate-governance/organizational-structure/" xlink:type="simple"><text fill="#4051B5" font-family="'Roboto'" font-size="13" lengthAdjust="spacing" textLength="159.8086" x="470.9624" y="102.4653">Organizational Structure</text></a><path d="M413.9624,72.832 L413.9624,73.0189 L415.9624,72.4637 L417.9624,73.0038 L419.9624,73.1873 L421.9624,72.1979 L423.9624,72.832 L423.9624,72.832 L423.9402,72.8056 L426.8407,75.2 L429.8529,77.7279 L432.9429,80.3487 L435.7651,82.6496 L438.9624,85.3984 L439.1204,85.5871 L441.7825,87.697 L444.906,90.3576 L448.0857,93.0854 L450.9379,95.4223 L453.9624,97.9648 L453.9624,98.0255 L455.9624,97.9364 L457.9624,98.1235 L459.9624,98.1774 L461.9624,98.4855 L463.9624,97.9648" fill="none" style="stroke:#FF6F00;stroke-width:1;"/><path d="M192.0566,135.6641 L192.0566,135.8509 L194.0566,135.2958 L196.0566,135.8359 L198.0566,136.0193 L200.0566,135.0299 L202.0566,135.6641 L202.0566,135.6641 L202.0311,135.6409 L203.6975,133.5732 L205.4929,131.6225 L207.378,129.7532 L208.9541,127.6036 L210.9629,125.8466 L211.1972,125.9216 L211.3406,123.7485 L212.1682,121.7946 L213.0793,119.8673 L213.5047,117.7846 L214.1855,115.7836 L214.215,115.7909 L214.746,113.4731 L215.411,111.1886 L216.0113,108.8879 L216.735,106.618 L217.0566,104.248 L217.3461,104.3201 L217.9238,102.0138 L218.3149,99.6612 L218.9792,97.3765 L219.6564,95.095 L219.9277,92.7125 L219.6225,92.6147 L220.8595,90.7919 L221.0913,88.6471 L222.0873,86.7471 L222.2963,84.595 L223.1504,82.6495 L223.1278,82.6291 L225.1758,80.9075 L226.6968,78.708 L228.5288,76.7905 L230.3869,74.8967 L232.0566,72.832 L232.0566,73.202 L234.0566,72.8286 L236.0566,73.0873 L238.0566,72.3232 L240.0566,73.0848 L242.0566,72.832" fill="none" style="stroke:#FF6F00;stroke-width:1;"/><a href="/use-case/legal-entity-management/ownership-and-capital-structure/" target="_top" title="/use-case/legal-entity-management/ownership-and-capital-structure/" xlink:actuate="onRequest" xlink:href="/use-case/legal-entity-management/ownership-and-capital-structure/" xlink:show="new" xlink:title="/use-case/legal-entity-management/ownership-and-capital-structure/" xlink:type="simple"><text fill="#4051B5" font-family="'Roboto'" font-size="13" lengthAdjust="spacing" textLength="198.1992" x="249.0566" y="127.5981">Ownership &amp; Capital Structure</text></a><path d="M192.0566,135.6641 L192.0566,135.8509 L194.0566,135.2958 L196.0566,135.8359 L198.0566,136.0193 L200.0566,135.0299 L202.0566,135.6641 L202.0566,135.6641 L202.0433,135.6322 L204.9834,134.2326 L207.9908,132.9936 L211.0449,131.8662 L213.9379,130.3541 L217.0566,129.3809 L217.1517,129.6078 L219.9484,127.8658 L223.0227,126.7865 L226.1308,125.788 L229.0419,124.3191 L232.0566,123.0977 L232.0566,123.1583 L234.0566,123.0693 L236.0566,123.2563 L238.0566,123.3102 L240.0566,123.6183 L242.0566,123.0977" fill="none" style="stroke:#FF6F00;stroke-width:1;"/><a href="/use-case/legal-entity-management/financial-information/" target="_top" title="/use-case/legal-entity-management/financial-information/" xlink:actuate="onRequest" xlink:href="/use-case/legal-entity-management/financial-information/" xlink:show="new" xlink:title="/use-case/legal-entity-management/financial-information/" xlink:type="simple"><text fill="#4051B5" font-family="'Roboto'" font-size="13" lengthAdjust="spacing" textLength="137.4839" x="249.0566" y="152.731">Financial Information</text></a><path d="M192.0566,135.6641 L192.0566,135.8509 L194.0566,135.2958 L196.0566,135.8359 L198.0566,136.0193 L200.0566,135.0299 L202.0566,135.6641 L202.0566,135.6641 L202.0433,135.6322 L204.9834,136.7459 L207.9908,138.0201 L211.0449,139.406 L213.9379,140.4072 L217.0566,141.9473 L217.1517,142.1742 L219.9484,142.9455 L223.0227,144.3795 L226.1308,145.8943 L229.0419,146.9387 L232.0566,148.2305 L232.0566,148.2911 L234.0566,148.2021 L236.0566,148.3892 L238.0566,148.443 L240.0566,148.7511 L242.0566,148.2305" fill="none" style="stroke:#FF6F00;stroke-width:1;"/><a href="/use-case/legal-entity-management/lifecycle-and-status/" target="_top" title="/use-case/legal-entity-management/lifecycle-and-status/" xlink:actuate="onRequest" xlink:href="/use-case/legal-entity-management/lifecycle-and-status/" xlink:show="new" xlink:title="/use-case/legal-entity-management/lifecycle-and-status/" xlink:type="simple"><text fill="#4051B5" font-family="'Roboto'" font-size="13" lengthAdjust="spacing" textLength="116.854" x="249.0566" y="177.8638">Lifecycle &amp; Status</text></a><path d="M192.0566,135.6641 L192.0566,135.8509 L194.0566,135.2958 L196.0566,135.8359 L198.0566,136.0193 L200.0566,135.0299 L202.0566,135.6641 L202.0566,135.6641 L202.0376,135.6353 L203.7333,136.6841 L205.5251,137.8781 L207.3837,139.1731 L209.0121,140.1202 L210.9629,141.5546 L211.1856,141.6593 L211.9281,144.0272 L213.3208,146.7008 L214.7929,149.4117 L215.8034,151.9056 L217.0566,154.5137 L217.0841,154.5266 L218.2625,157.0995 L219.5659,159.7311 L220.8091,162.3344 L222.1672,164.9917 L223.1504,167.4728 L223.3149,167.7215 L225.0982,168.9027 L226.7753,169.9234 L228.6078,171.1789 L230.4476,172.4455 L232.0566,173.3633 L232.0566,172.7222 L234.0566,173.9664 L236.0566,173.0997 L238.0566,173.8378 L240.0566,172.9233 L242.0566,173.3633" fill="none" style="stroke:#FF6F00;stroke-width:1;"/><a href="/use-case/legal-entity-management/contact-and-location-information/" target="_top" title="/use-case/legal-entity-management/contact-and-location-information/" xlink:actuate="onRequest" xlink:href="/use-case/legal-entity-management/contact-and-location-information/" xlink:show="new" xlink:title="/use-case/legal-entity-management/contact-and-location-information/" xlink:type="simple"><text fill="#4051B5" font-family="'Roboto'" font-size="13" lengthAdjust="spacing" textLength="203.8042" x="249.0566" y="202.9966">Contact &amp; Location Information</text></a><path d="M192.0566,135.6641 L192.0566,135.8509 L194.0566,135.2958 L196.0566,135.8359 L198.0566,136.0193 L200.0566,135.0299 L202.0566,135.6641 L202.0566,135.6641 L202.0311,135.6409 L203.6975,137.5002 L205.4929,139.4765 L207.378,141.5342 L208.9541,143.3116 L210.9629,145.4816 L211.1972,145.5566 L211.3406,147.4087 L212.1682,149.4799 L213.0793,151.5779 L213.5047,153.5203 L214.1855,155.5445 L214.215,155.5518 L214.746,157.8482 L215.411,160.1779 L216.0113,162.4915 L216.735,164.8358 L217.0566,167.0801 L217.3461,167.1521 L217.9238,169.4601 L218.3149,171.7216 L218.9792,174.0512 L219.6564,176.3839 L219.9277,178.6156 L219.6225,178.5179 L220.8595,180.7202 L221.0913,182.6006 L222.0873,184.7258 L222.2963,186.5989 L223.1504,188.6786 L223.1278,188.6581 L225.1758,190.8635 L226.6968,192.591 L228.5288,194.6005 L230.3869,196.6337 L232.0566,198.4961 L232.0566,198.8661 L234.0566,198.4926 L236.0566,198.7514 L238.0566,197.9873 L240.0566,198.7489 L242.0566,198.4961" fill="none" style="stroke:#FF6F00;stroke-width:1;"/><a href="/use-case/legal-entity-management/compliance-and-documentation/" target="_top" title="/use-case/legal-entity-management/compliance-and-documentation/" xlink:actuate="onRequest" xlink:href="/use-case/legal-entity-management/compliance-and-documentation/" xlink:show="new" xlink:title="/use-case/legal-entity-management/compliance-and-documentation/" xlink:type="simple"><text fill="#4051B5" font-family="'Roboto'" font-size="13" lengthAdjust="spacing" textLength="195.1396" x="249.0566" y="228.1294">Compliance &amp; Documentation</text></a><path d="M192.0566,135.6641 L192.0566,135.8509 L194.0566,135.2958 L196.0566,135.8359 L198.0566,136.0193 L200.0566,135.0299 L202.0566,135.6641 L202.0566,135.6641 L202.0277,135.6453 L203.6788,138.3099 L205.4761,141.0692 L207.375,143.8943 L208.9238,146.4926 L210.9629,149.4086 L211.2028,149.4634 L211.3344,152.1637 L212.1663,155.0242 L213.0836,157.9042 L213.5039,160.6706 L214.1855,163.4967 L214.2154,163.502 L214.7458,166.7242 L215.4121,169.9705 L216.0128,173.2052 L216.7387,176.4621 L217.0566,179.6465 L217.3503,179.6987 L217.9281,182.9293 L218.3165,186.1262 L218.9822,189.3724 L219.6608,192.6209 L219.9277,195.7963 L219.6153,195.7248 L220.8662,198.6811 L221.0883,201.4021 L222.0926,204.3021 L222.2914,207.0177 L223.1504,209.8844 L223.1248,209.8678 L225.2082,212.8125 L226.6947,215.3704 L228.5334,218.1566 L230.4017,220.9618 L232.0566,223.6289 L232.0566,223.9989 L234.0566,223.6254 L236.0566,223.8842 L238.0566,223.1201 L240.0566,223.8817 L242.0566,223.6289" fill="none" style="stroke:#FF6F00;stroke-width:1;"/><a href="/use-case/legal-entity-management/supporting-information/" target="_top" title="/use-case/legal-entity-management/supporting-information/" xlink:actuate="onRequest" xlink:href="/use-case/legal-entity-management/supporting-information/" xlink:show="new" xlink:title="/use-case/legal-entity-management/supporting-information/" xlink:type="simple"><text fill="#4051B5" font-family="'Roboto'" font-size="13" lengthAdjust="spacing" textLength="151.106" x="249.0566" y="253.2622">Supporting Information</text></a><path d="M192.0566,135.6641 L192.0566,135.8509 L194.0566,135.2958 L196.0566,135.8359 L198.0566,136.0193 L200.0566,135.0299 L202.0566,135.6641 L202.0566,135.6641 L202.0258,135.6485 L203.6686,139.1131 L205.4669,142.656 L207.3733,146.2533 L208.9072,149.663 L210.9629,153.3356 L211.2051,153.3787 L211.3316,156.9092 L212.1654,160.5655 L213.0855,164.2372 L213.5035,167.8195 L214.1855,171.4489 L214.2156,171.453 L214.7457,175.5997 L215.4126,179.7653 L216.0135,183.9218 L216.7403,188.0957 L217.0566,192.2129 L217.3521,192.2537 L217.9299,196.407 L218.3172,200.534 L218.9834,204.6995 L219.6627,208.8669 L219.9277,212.9769 L219.6122,212.9208 L220.8692,216.6524 L221.0871,220.1991 L222.0949,223.8864 L222.2893,227.429 L223.1504,231.0902 L223.1232,231.0765 L225.226,234.7729 L226.6935,238.1491 L228.5359,241.7142 L230.4098,245.2952 L232.0566,248.7617 L232.0566,249.1317 L234.0566,248.7582 L236.0566,249.017 L238.0566,248.2529 L240.0566,249.0145 L242.0566,248.7617" fill="none" style="stroke:#FF6F00;stroke-width:1;"/><!--SRC=[xLZRRjiu47tNLt0RODkYTHEtQL4KHL77kJIj4mTsqiMYA09QecmYDAabgMJJnVxx3dMnA5cIBv6xAP0ynPpXcGifpipvg3IMUagvDyM1u_pc4PzoWlQEBaywnwUNtNwlFq3HtzRkpklswBMjCZpeza_tEuC_4xqIbRDEzqldw606DAVI7-mV36mxQCltt_WxEpELm_xfUKuXKZ5_CvNEOD3_8w-JeZZgYl80Ipn58-nUZQK8kTSLJ4YqfINc2cI4Qqljqsr09AFyAj5AF7OU8yfT5de4wGb1OyA9n0pDzYdaW_P8wCbpnEXueX7c7lAml8ATMY1nJUIDf9gW6wedCGQz9XmfeZNbOrNCoVcdu-wNquFX4BNXO4IWgU1e0g06HSD67pD5BCVFiES14DgrrWPnk1ASHM-jzU44U-B6Q1THPk5VS2_wXoGgbiu-yN78DFh7EHHSd-8fGOy60c8NZwALE7FPmKMBG_g3eFQkyw-Dr95It01EwOvo67tB84U2UNca04uNZqdYqzpMlSBXvswuioSa19j8h2i99Z8BN7YhmEUk_d8MN34D18Vh26RMTBZKkpXduPIzpEVCmngFi28DcylPS9a8lOqQ48mHrtmTgd4pcPKkA4Z1DcXXpq1YURj14mTSKxr90vHh8dtiaWtQ69A_Gi9TSWQ5Yxeqm5p7OESJwbvneXGyc9cwIjJ18tj7hNDpq2L-MZhPiyI5d69MbCs5qwC-wS7BMWa-KwXrCteyvy2ZrKhaI5hgL2J9SlZAwRXQo0KUH2gLjeoqwWD-ZBgxo6GDYX3ys5huPt_p4ZvupCUCl7yFrKe9_k43dEyGBXyH6WfOPVLegYuKRronPkUVACjTyZSuoJ6xRDxlGZks0UVLhT9a-klbkdc_DvJhj23_6gdElFtrCcrTar5IU6El2urnFegeXzrPtEsj5NjzO761yR2Q46-PM4j3TS4mXheYbuqL-lNwgxI1IEkFSEKn91tWifXUnVMd3nEPfD3JUmcE6U2IKJXgzXLgeMcejEdB2S8-X9hQB8m5bhLaDAsSSQnPjSf9kvN8ab7etM5mrulRhF9AhxMaer2JwZvWtjUQ0IRNxMEbrlEgpi1ZT9ASYmg8IttgGlnHwm17T3CnKxM6DmZwJsKED3gyvsZ4GW9dnpanZOX28jH6F3_IDUnjXe_pFHKCyiwpI_Jj6zeE5Mcvy7PkCpB6h4MYphmrnHncs2dysaOz8qXRzfEP07t_xZnR5WIYXJL85pRpKGjphoN9c2ejeuLjT9nJGB-ZWIMEJIrdoHKo4B2DjCQ6wU0OMkvjc9gILNGqMurHbusW5DUZCZxI2GtKDjgtVpO0h-YOOy2Z1C27sOy6e8KSOqv_HEc5NP3fqDMXX5JrSnBeZ1F9IkSjRk1jDsc8Zjh50TK5Awa277Kt5gzfogSc8WeoodtpLiKNwZ1THiVPyah036OVzzPb98h1F7CX74ClNGN7Xz7QIg1HuNDr1Cb4yZda7E_66W3VI-HhHs1e74RDUKVsFE66PdrcA9M2hNrRjf8H5GPmlGnpc8zZE5il-l-Hm1EQChqVyyHlSpJfFIOaqzgy91jfgvS0hC13flkATIPDcbrCKkAwbdcyAs0TqLY7CU_16jJYQWQM8XFl0bbB7wuAl0nXk3vc3KMuFcWbARW-P1qDk3xgHeY_r9qAoY_rR6MsBmsWZEfBGQjOljGdgnDFuUR8lHIhmElbz1UIUZE3HJflXfvdygmFQIrIhlfbNUMsp1_-NKctd-tN0hRaVqlJVV1hQIhi9tjphvBKA8kL-h5YD9LUrp9MxKrIL4r7KiX_KnJKsXnIIRriZ3-oaGgrP9usofMPiimLMz0bgA9g1nP2Lj0vTq1y870U29m70kU1mBb_1CuPWtdZugI7u6egez1-yNBdvUiNxVQ8QDpUUNB1hpXSfsZMfv1sJQVagVFawAo7b0WbUE-PXyAywB3zgVCPNsCq2BdHUuVw0U6Vzx-a2_2CNLCfkF7S-Vpr95DuizlQeng6CmcEeAydJbeI3xWh3Ftp3bsS7xRUEZqey244_muH3dKCSEKjo8R_0G00]--></g></svg>