<svg xmlns="http://www.w3.org/2000/svg" xmlns:xlink="http://www.w3.org/1999/xlink" contentStyleType="text/css" data-diagram-type="MINDMAP" height="127px" preserveAspectRatio="none" style="width:501px;height:127px;" version="1.1" viewBox="0 0 501 127" width="501px" zoomAndPan="magnify"><defs/><g><a href="/use-case/client-360/know-your-customer/anti-money-laundering/" target="_top" title="/use-case/client-360/know-your-customer/anti-money-laundering/" xlink:actuate="onRequest" xlink:href="/use-case/client-360/know-your-customer/anti-money-laundering/" xlink:show="new" xlink:title="/use-case/client-360/know-your-customer/anti-money-laundering/" xlink:type="simple"><text fill="#4051B5" font-family="'Roboto'" font-size="13" lengthAdjust="spacing" textLength="192.2197" x="17" y="67.1997">Anti Money Laundering (AML)</text></a><polygon fill="#4051B5" points="271.3521,20,271.3521,20.2102,281.2505,19.5857,291.149,20.1933,301.0475,20.3997,310.946,19.2866,320.8445,19.9223,330.743,19.5735,340.6415,19.6165,350.54,19.9318,360.4385,19.3086,370.3369,20.5536,380.2354,19.3697,390.1339,19.8022,400.0324,20.4319,409.9309,19.9142,419.8294,20.0682,429.7279,19.9681,439.6264,20.1785,449.5249,20.2391,459.4233,20,459.4981,20.1804,460.0746,20.441,460.6414,20.6778,461.1529,20.7814,461.7452,21.08,462.2518,21.1716,462.468,21.2612,462.264,21.6453,462.9294,22.3895,462.8634,22.8308,463.3534,23.5024,463.4233,24,463.2583,24,463.4005,29.4266,463.6705,34.8531,463.4071,40.2797,463.4584,45.7063,463.4233,51.1328,463.5276,51.176,463.3172,51.7516,462.9535,52.2637,462.8088,52.8665,462.3098,53.3225,462.2518,53.9612,462.288,54.0488,461.756,54.3644,461.1771,54.5668,460.6329,54.853,459.9274,54.7497,459.4233,55.1328,459.4233,54.4806,449.5249,54.5114,439.6264,55.0739,429.7279,54.9363,419.8294,55.8142,409.9309,54.9581,400.0324,54.7898,390.1339,55.3611,380.2354,54.466,370.3369,54.6137,360.4385,55.7818,350.54,55.5685,340.6415,55.8673,330.743,54.811,320.8445,55.452,310.946,55.7232,301.0475,54.6604,291.149,55.037,281.2505,55.2588,271.3521,55.1328,271.4352,55.3335,270.7858,54.8972,270.2797,54.8066,269.5844,54.2593,269.0029,53.987,268.5236,53.9612,268.6787,54.0255,268.0685,53.3041,268.2117,52.8948,267.8843,52.2905,267.5039,51.6643,267.3521,51.1328,267.2341,51.1328,267.505,45.7063,267.2523,40.2797,267.5493,34.8531,267.1678,29.4266,267.3521,24,267.5422,24.0788,267.7355,23.4961,267.8961,22.8999,268.0695,22.309,268.5131,21.8299,268.5236,21.1716,268.6019,21.3605,269.1109,20.9894,269.6892,20.7855,270.2041,20.4285,270.8778,20.455,271.3521,20" style="stroke:#FF6F00;stroke-width:1.5;"/><a href="/use-case/client-360/know-your-customer/anti-money-laundering/correspondent-based-aml/" target="_top" title="/use-case/client-360/know-your-customer/anti-money-laundering/correspondent-based-aml/" xlink:actuate="onRequest" xlink:href="/use-case/client-360/know-your-customer/anti-money-laundering/correspondent-based-aml/" xlink:show="new" xlink:title="/use-case/client-360/know-your-customer/anti-money-laundering/correspondent-based-aml/" xlink:type="simple"><text fill="#4051B5" font-family="'Roboto'" font-size="13" lengthAdjust="spacing" textLength="171.939" x="277.3521" y="42.0669">Correspondent-based AML</text></a><path d="M217.3521,62.6992 L217.3521,62.886 L219.3521,62.3309 L221.3521,62.871 L223.3521,63.0545 L225.3521,62.0651 L227.3521,62.6992 L227.3521,62.6992 L227.3299,62.6727 L230.2303,60.0406 L233.2426,57.542 L236.3326,55.1362 L239.1547,52.4106 L242.3521,50.1328 L242.5101,50.3214 L245.1722,47.4048 L248.2956,45.0389 L251.4753,42.7401 L254.3276,40.0505 L257.3521,37.5664 L257.3521,37.6271 L259.3521,37.538 L261.3521,37.7251 L263.3521,37.779 L265.3521,38.087 L267.3521,37.5664" fill="none" style="stroke:#FF6F00;stroke-width:1;"/><a href="/use-case/client-360/know-your-customer/anti-money-laundering/network-based-aml/" target="_top" title="/use-case/client-360/know-your-customer/anti-money-laundering/network-based-aml/" xlink:actuate="onRequest" xlink:href="/use-case/client-360/know-your-customer/anti-money-laundering/network-based-aml/" xlink:show="new" xlink:title="/use-case/client-360/know-your-customer/anti-money-laundering/network-based-aml/" xlink:type="simple"><text fill="#4051B5" font-family="'Roboto'" font-size="13" lengthAdjust="spacing" textLength="129.6953" x="274.3521" y="82.1997">Network-based AML</text></a><path d="M217.3521,62.6992 L217.3521,62.886 L219.3521,62.3309 L221.3521,62.871 L223.3521,63.0545 L225.3521,62.0651 L227.3521,62.6992 L227.3521,62.6992 L227.3366,62.6683 L230.2673,64.0297 L233.2758,65.5468 L236.3385,67.1721 L239.2146,68.4244 L242.3521,70.1992 L242.4621,70.4193 L245.2268,71.4487 L248.3127,73.1206 L251.4379,74.8709 L254.335,76.1651 L257.3521,77.6992 L257.3521,77.7599 L259.3521,77.6708 L261.3521,77.8579 L263.3521,77.9118 L265.3521,78.2198 L267.3521,77.6992" fill="none" style="stroke:#FF6F00;stroke-width:1;"/><a href="/use-case/client-360/know-your-customer/anti-money-laundering/transaction-based-aml/" target="_top" title="/use-case/client-360/know-your-customer/anti-money-laundering/transaction-based-aml/" xlink:actuate="onRequest" xlink:href="/use-case/client-360/know-your-customer/anti-money-laundering/transaction-based-aml/" xlink:show="new" xlink:title="/use-case/client-360/know-your-customer/anti-money-laundering/transaction-based-aml/" xlink:type="simple"><text fill="#4051B5" font-family="'Roboto'" font-size="13" lengthAdjust="spacing" textLength="206.7559" x="274.3521" y="107.3325">Transaction/Finance-based AML</text></a><path d="M217.3521,62.6992 L217.3521,62.886 L219.3521,62.3309 L221.3521,62.871 L223.3521,63.0545 L225.3521,62.0651 L227.3521,62.6992 L227.3521,62.6992 L227.3322,62.671 L229.0242,63.7984 L230.8164,65.0682 L232.6784,66.4369 L234.3002,67.4646 L236.2583,68.97 L236.4834,69.0694 L237.2208,71.6159 L238.6154,74.4527 L240.0902,77.3249 L241.0984,79.9911 L242.3521,82.7656 L242.3798,82.7779 L243.5578,85.519 L244.8621,88.3159 L246.1055,91.086 L247.4652,93.9073 L248.4458,96.5613 L248.6175,96.8051 L250.4009,98.0623 L252.0735,99.1621 L253.9082,100.4922 L255.7505,101.8331 L257.3521,102.832 L257.3521,102.191 L259.3521,103.4352 L261.3521,102.5685 L263.3521,103.3065 L265.3521,102.392 L267.3521,102.832" fill="none" style="stroke:#FF6F00;stroke-width:1;"/><!--SRC=[xLhRRjiu47tNLt2RXoH8NTkveGYA8evpQHDV0ZlfOb4K0ItHDc69z99KlDx5_lkEPCcYP4c-HEucsFLJIuxEd1dUvWnoBXKMog7CSl3OC7wnI9yoWYvkdfgrhwsdUhlHxY3_jtDSEQdsJdIJxbMztRgiTNuBx59CxclrkzhDrHnemQJTkRpgw7xGJhz_sgzKvYRNxTP3pC0tyNvpargdq_urRXEY6794sHWBxA0UDaS3mLrcrRdD1TfH0ZC9SuGfpUpBT4o4JTaei0eO6xk8CjDsBOBKaA01OKHW6ys_awWFrZskXk-HJGT3XJ2pa8N52BvK7F5d8YQ2Ae8cL0rd6FIPC2I9KfGDP38d3r- -rkzQLzqkgiB2yB6YdA4XW7ee2ZxiOriIZVWzjYm0GiVQM6SMhW2owACstXrYYqyywoJAFFn7Pld_8869PdD9-jYr5VhBkEPCjR13qBiEXzZvEtzabhbeuVp1BlsJeEgnyRUEL1E2Jm0dzOjq63Mr8KVSjk98OrXTF201fuLFBnAB7zlXnWKN46mmesr9S15vODnQ1pwszLVpO79dp1biHt2p8U5KThESkOvz6C-PXHNkOKaATXVpOThSjRRgWDisCRtJ8Gjt4tcfWu7WzXOzN7YGM4otwEAAAQgswO0oHKGVcsIBFhhaTvSmazp3mqLDEiPCpS0UXjGSCI8bN9YHkGpCWP7-HIwv1UWKdffDT2qnBXni9-SMmcdGFcd0pPe9FZV8fUbVdWlW_cWciZ-RIigVYN9uPDHCnSKI1hv9fYzlDki0xwBwCVAo1eyG_6TdwKy_ym8EF6O3ctpw1A-LvEppPrZVBcm-mXKyO9clHr7lGdB79T_i-1MbqIL_04c6xQVYUIVAiIsGbrEfYFFsSbqyxotbEdoGtqQg8xPlBzFQDka53- -CTQ8mZaVXrx2LvTNUHh7d1pPxO2miXyHQ9TRKK4rmZE5T4Ql62lLw_bRQGgJvIxYs30a5N1JJqUpzQOCY4nHgUYl0yGHS88NzOb-Y4d9SgRowd23SXr13dmbPe7aBf6ccnj6qQXP9lPI8af6etK6ug-LbLlfBhvIWFLUHx3fWaMkEW8bL-rZApLZbETX5pM1Tv9YOj4zDYDyl7M299aDFLIkuWw3-bDw2-elt7lLiby3QCKQyGaGYxYflUb7I5SmsmiVncWg4l77mXBv_HsLNaf89TsVPj2a8ljBHQQKyOdnIcd9Nb4pOTR3dH1agI5foG1DEIpPsFKKECPTH3OPHqnj6ZVamsgir6_lenm_ZuE3bFamk194WHotlK- -QjqhOiSkWX1Oc43YU-IqWE4RKX8kHxhAb3nNgp6y1OLyzwWuVek7oDMKOz4FSkN5EO3-6RRFpU1Ujk9xJA-xkX1VTYgqTtJm5O8scJlXTyj26ITDFPjW5p6tZl1GmhskJXx78O8C-pNeELkhCl0GojnUpBl0gtPVDCNFwBPk3PdPODeVCwwbiZhgLBaf89wD_4Z9RktKI1f3MDmb1irec8IUjh0dX5Zeb8LQYIHApNzeXcJjCzaRcwF6sY7QGDkfmPD-iw-oMnSL_QGVZP_DQ8Zt_jJIz1buhznL-CfjNbQH2Mm8XZpMZoMITA_-hszJxHKUIo7zHUdvZGPxoNXOcndMan5kogC5ZpqnQvf8bw0gwEvl0KiWCRVm2nF_Ly7z23T_RWFu8CyzG87X_j53zS5WvFFbGhVQ8mjNAtYFp635VE54uNOewPD_Okxbl80aieSgqg9mT3_XytxZ5pnXrNERPdQ7scB3Roxjm04hkPoeuSpn5VVkj6HcS7fSkg89ALm0HzArfXFVB5JEvfwNFqEF3TUcZqO3RqWMPUOO8Wqi1SCKKvhh_0000]--></g></svg>