<svg xmlns="http://www.w3.org/2000/svg" xmlns:xlink="http://www.w3.org/1999/xlink" contentStyleType="text/css" data-diagram-type="MINDMAP" height="130px" preserveAspectRatio="none" style="width:532px;height:130px;background:#FFFFFF;" version="1.1" viewBox="0 0 532 130" width="532px" zoomAndPan="magnify"><defs/><g><a href="/use-case/client-360/know-your-customer/anti-money-laundering/" target="_top" title="/use-case/client-360/know-your-customer/anti-money-laundering/" xlink:actuate="onRequest" xlink:href="/use-case/client-360/know-your-customer/anti-money-laundering/" xlink:show="new" xlink:title="/use-case/client-360/know-your-customer/anti-money-laundering/" xlink:type="simple"><text fill="#0000FF" font-family="'Roboto'" font-size="14" lengthAdjust="spacing" textLength="207.0059" x="17" y="69.292">Anti Money Laundering (AML)</text></a><polygon fill="#EEB291" points="286.4561,20,286.4561,20.2102,296.5368,19.5857,306.6176,20.1933,316.6983,20.3997,326.7791,19.2866,336.8599,19.9223,346.9406,19.5735,357.0214,19.6165,367.1021,19.9318,377.1829,19.3086,387.2637,20.5536,397.3444,19.3697,407.4252,19.8022,417.506,20.4319,427.5867,19.9142,437.6675,20.0682,447.7482,19.9681,457.829,20.1785,467.9098,20.2391,477.9905,20.5857,488.0713,20,488.1569,20.2067,488.7236,20.4435,489.2351,20.547,489.8275,20.8457,490.4236,21.1535,490.8997,21.1716,490.6776,21.0796,491.343,21.8238,491.277,22.2651,491.7671,22.9367,491.6845,23.3712,492.0713,24,492.0485,24,492.3185,29.6594,492.055,35.3188,492.1064,40.9781,492.1842,46.6375,492.0713,52.2969,492.1995,52.35,491.8358,52.8621,491.6911,53.4649,491.1921,53.9209,491.2216,54.5959,490.8997,55.1253,490.9696,55.2941,490.3907,55.4965,489.8465,55.7827,489.141,55.6795,488.5538,55.8617,488.0713,56.2969,488.0713,55.6755,477.9905,56.238,467.9098,56.1003,457.829,56.9783,447.7482,56.1222,437.6675,55.9538,427.5867,56.5251,417.506,55.63,407.4252,55.7777,397.3444,56.9458,387.2637,56.7325,377.1829,57.0314,367.1021,55.9751,357.0214,56.6161,346.9406,56.8873,336.8599,55.8245,326.7791,56.201,316.6983,56.4229,306.6176,56.9486,296.5368,56.2927,286.4561,56.2969,286.5151,56.4393,285.8197,55.892,285.2383,55.6197,284.8232,55.749,284.1019,55.1388,283.6276,55.1253,283.7844,55.1902,283.4569,54.586,283.0765,53.9598,282.8157,53.3831,282.8316,52.9211,282.4561,52.2969,282.3563,52.2969,282.6533,46.6375,282.2718,40.9781,282.6619,35.3188,282.6175,29.6594,282.4561,24,282.5315,24.0312,282.7049,23.4403,283.1485,22.9613,283.348,22.3812,283.4454,21.7588,283.6276,21.1716,283.6618,21.2542,284.1767,20.8971,284.8504,20.9236,285.3444,20.5163,285.9124,20.2875,286.4561,20" style="stroke:#444444;stroke-width:1.5;"/><a href="/use-case/client-360/know-your-customer/anti-money-laundering/correspondent-based-aml/" target="_top" title="/use-case/client-360/know-your-customer/anti-money-laundering/correspondent-based-aml/" xlink:actuate="onRequest" xlink:href="/use-case/client-360/know-your-customer/anti-money-laundering/correspondent-based-aml/" xlink:show="new" xlink:title="/use-case/client-360/know-your-customer/anti-money-laundering/correspondent-based-aml/" xlink:type="simple"><text fill="#0000FF" font-family="'Roboto'" font-size="14" lengthAdjust="spacing" textLength="185.165" x="292.4561" y="42.9951">Correspondent-based AML</text></a><path d="M232.4561,64.4453 L232.4561,64.6321 L234.4561,64.077 L236.4561,64.6171 L238.4561,64.8006 L240.4561,63.8112 L242.4561,64.4453 L242.4561,64.4453 L242.4333,64.4193 L245.3311,61.6731 L248.3437,59.0578 L251.4361,56.5335 L254.2535,53.6955 L257.4561,51.2969 L257.6183,51.4819 L260.2714,48.4565 L263.3981,45.9714 L266.5826,43.5522 L269.4309,40.7495 L272.4561,38.1484 L272.4561,38.2091 L274.4561,38.12 L276.4561,38.3071 L278.4561,38.361 L280.4561,38.6691 L282.4561,38.1484" fill="none" style="stroke:#023E8A;stroke-width:1;"/><a href="/use-case/client-360/know-your-customer/anti-money-laundering/network-based-aml/" target="_top" title="/use-case/client-360/know-your-customer/anti-money-laundering/network-based-aml/" xlink:actuate="onRequest" xlink:href="/use-case/client-360/know-your-customer/anti-money-laundering/network-based-aml/" xlink:show="new" xlink:title="/use-case/client-360/know-your-customer/anti-money-laundering/network-based-aml/" xlink:type="simple"><text fill="#0000FF" font-family="'Roboto'" font-size="14" lengthAdjust="spacing" textLength="139.6719" x="289.4561" y="84.292">Network-based AML</text></a><path d="M232.4561,64.4453 L232.4561,64.6321 L234.4561,64.077 L236.4561,64.6171 L238.4561,64.8006 L240.4561,63.8112 L242.4561,64.4453 L242.4561,64.4453 L242.4406,64.4144 L245.3713,65.7758 L248.3798,67.2929 L251.4425,68.9182 L254.3186,70.1705 L257.4561,71.9453 L257.5661,72.1654 L260.3308,73.1948 L263.4167,74.8667 L266.5419,76.617 L269.439,77.9112 L272.4561,79.4453 L272.4561,79.506 L274.4561,79.4169 L276.4561,79.604 L278.4561,79.6579 L280.4561,79.9659 L282.4561,79.4453" fill="none" style="stroke:#023E8A;stroke-width:1;"/><a href="/use-case/client-360/know-your-customer/anti-money-laundering/transaction-based-aml/" target="_top" title="/use-case/client-360/know-your-customer/anti-money-laundering/transaction-based-aml/" xlink:actuate="onRequest" xlink:href="/use-case/client-360/know-your-customer/anti-money-laundering/transaction-based-aml/" xlink:show="new" xlink:title="/use-case/client-360/know-your-customer/anti-money-laundering/transaction-based-aml/" xlink:type="simple"><text fill="#0000FF" font-family="'Roboto'" font-size="14" lengthAdjust="spacing" textLength="222.6602" x="289.4561" y="110.5889">Transaction/Finance-based AML</text></a><path d="M232.4561,64.4453 L232.4561,64.6321 L234.4561,64.077 L236.4561,64.6171 L238.4561,64.8006 L240.4561,63.8112 L242.4561,64.4453 L242.4561,64.4453 L242.4358,64.4173 L244.1261,65.5823 L245.9186,66.8883 L247.782,68.2924 L249.4008,69.3586 L251.3623,70.8979 L251.5884,70.995 L252.3236,73.6266 L253.719,76.5416 L255.195,79.4912 L256.2023,82.2396 L257.4561,85.0938 L257.4839,85.1057 L258.6618,87.9273 L259.9665,90.8034 L261.21,93.6532 L262.5703,96.5531 L263.5498,99.2896 L263.7248,99.5311 L265.5082,100.8246 L267.1787,101.9622 L269.0144,103.328 L270.8579,104.7044 L272.4561,105.7422 L272.4561,105.1011 L274.4561,106.3453 L276.4561,105.4786 L278.4561,106.2167 L280.4561,105.3022 L282.4561,105.7422" fill="none" style="stroke:#023E8A;stroke-width:1;"/><!--SRC=[xLbHSzeu47xthz2LXoQJeq12qbocqmaGaZOXa86aCpUTJaRO2sYm9Ih9uRYR- - -tDWRR63j0eDVCbATMMdtxxKhoxgUSAqsbTXYt73eoZDyiw34Ef7hrU5lvt7oijHgjDl5_kPEJQkso63Nfr6kjvaMb_MTWbwkMgxLgFMfoLwdTLAxgSw0SGFVmZr9eqcfVrDjHFoHNzdzpayjMypvc49eOQiZuY4hga2urXtqfN6xLX2qaoOq7J8DXl2MCcxPh0T4387tW8AbDvkiKwQ5nL-Z1xyHc_O4cb5l4edA8AxKWuWdaM28I6JCzc6Am9-14WTQCzzLY9FUVFjTkclLEXvGmdMAacU1aWA0UYiQ5FMehY12_evQ5GAGS6MjFuv18bfn6nZi3QecnPxs8ycao0capFdpWblyF24mYDXVGewwjoJ_6fU2wIHqWRze2OnTl_95fui9q-uCTzZUGKjduDufKaLAC4MVfYkKmUc9ZZeHjnP56k6sq3m6dnDBgmgx6pgLH5HA33MOY1mbTX1wuiDQ1ZntOrJoOmXa93jpBx8Q4bxARvinrxCDupYogQPSgsBAxc0_J5gwrKmV2ji7qReVQkflGImqDfB1twA7gGL8vsQ6BEjTCxz81unfaZvgmGnyT-Eu2D-4EomqpsOXoFGMx7p1po44f_626vYemHqRH5Pda4j1BU4PimiyI5zAXzk9S8fm6wq43lwofu7E3J9h-npC1xe-c8lkpIqdvCs4EZuoAgOLyXe5lakhBcqsxm6z9hKoyh64Hml_adlr5xxp42qzvtuOF7x1QAS4_ViJzxU3X0w6nWALMZstLXSKJjrYpuv-e25tu2qboQZzkd_T24xK3ycgYD3YlBzVRvxsZNCyAykj8TSZszMKwSaowGU6TibveZEDH-3riyVbkRwFOimER5XYBgW5OgyIwD5GJ7LEiAtBLMB5VppvAEuWqUmkZfLrJlQpJo54BJdlbYFDSyQXOFWQZehLaNLV3agcmcEQAXqTmIcCySyNY-_VTayNUbYgLGI1cJEFr5KMTOHmyagzVIS5La3Vn8XLCcs7tdpywAHQ6N8pp4-7AlEagBHoG1MmdMDv1WJ39szJrv1dkNO5KS9ZSUiEaCHycUvNRnZxvziquE7Yv3rD82GgrYUKjzUwybQUENS2sE351qF7KxnQ2uw37GWwZBflHeQqwqv9oHNqf4NLu7muNBXcds4p6dHldmAtvoyTv_25aXPU5drZ3pzv7LXJmKVCb06j8zzcwnDKA7ezYTpEmpHJhgO31Ez9pW5dQF8jKai46Qdmz1olfxvT0PYhkTO5NqTYROsQewir1KtNqvf1Podbpr9revHcT59Kyux6sG9ujNAQE4tCfdA9LF5YIqCEnYQJxrNJmtE6Y0fx3nCLlv29jf6FJztkTqvBS_9Vgr3Lu1M_wB-FrZC3utzAqFLwRfsbbzVX3ihI-ElpHP-dbmc_MFAmPJIhhJ95NsgMgcstqjY9PoFylrVPBjVtKgktEHlG7d7d2UkVzfRNqxh1uUFokLEg2fiTx3zmZn7qPmF2EQkR0lh5tTTSW2abYpsGnDJsck7hVkAPFbBHTxjcTaTO8-FN5pMm06yWd9WLtC5ZZ-ijjQ71IpbUPnhvD8W_ovTQOoRGwDuMd3C_8m_rb_jHeuDrtKJIT4U0elX1NJd2kyny0]--></g></svg>