<svg xmlns="http://www.w3.org/2000/svg" xmlns:xlink="http://www.w3.org/1999/xlink" contentStyleType="text/css" data-diagram-type="MINDMAP" height="288px" preserveAspectRatio="none" style="width:560px;height:288px;" version="1.1" viewBox="0 0 560 288" width="560px" zoomAndPan="magnify"><defs/><g><a href="/use-case/legal-entity-management/" target="_top" title="/use-case/legal-entity-management/" xlink:actuate="onRequest" xlink:href="/use-case/legal-entity-management/" xlink:show="new" xlink:title="/use-case/legal-entity-management/" xlink:type="simple"><text fill="#90EE90" font-family="'Roboto'" font-size="14" lengthAdjust="spacing" textLength="179.7646" x="17" y="148.1826">Legal Entity Management</text></a><a href="/use-case/legal-entity-management/identification-and-registration/" target="_top" title="/use-case/legal-entity-management/identification-and-registration/" xlink:actuate="onRequest" xlink:href="/use-case/legal-entity-management/identification-and-registration/" xlink:show="new" xlink:title="/use-case/legal-entity-management/identification-and-registration/" xlink:type="simple"><text fill="#90EE90" font-family="'Roboto'" font-size="14" lengthAdjust="spacing" textLength="196.6631" x="262.2148" y="27.9951">Identification &amp; Registration</text></a><path d="M205.2148,143.3359 L205.2148,143.5228 L207.2148,142.9677 L209.2148,143.5077 L211.2148,143.6912 L213.2148,142.7018 L215.2148,143.3359 L215.2148,143.3359 L215.19,143.312 L216.0745,142.1715 L217.0843,141.1519 L218.1813,140.2163 L218.978,138.9912 L220.1953,138.1716 L220.4317,138.2398 L220.7113,135.371 L221.6812,132.7013 L222.7352,130.0558 L223.2993,127.2691 L224.1211,124.5566 L224.151,124.5616 L224.7516,120.7045 L225.4884,116.8702 L226.1595,113.0249 L226.956,109.2006 L227.3438,105.3079 L227.6395,105.3463 L228.2173,100.9337 L228.6044,96.4962 L229.2707,92.095 L229.9501,87.6956 L230.2148,83.2422 L229.897,83.2008 L231.0881,78.868 L231.2326,74.3989 L232.1728,70.0334 L232.2935,65.5613 L233.0859,61.1765 L233.0559,61.1715 L234.0555,57.3812 L234.3536,53.4734 L235.0657,49.635 L235.8125,45.8023 L236.3086,41.9277 L236.4863,41.979 L237.0921,39.2043 L238.0016,36.5171 L238.4196,33.6883 L239.5707,31.0708 L240.2344,28.3127 L240.4097,28.4819 L241.3727,27.417 L242.4227,26.4362 L243.0681,25.0651 L244.0101,23.9801 L245.2148,23.1484 L245.2148,22.5961 L247.2148,23.0961 L249.2148,22.9737 L251.2148,23.7541 L253.2148,22.9932 L255.2148,23.1484" fill="none" style="stroke:#FF9900;stroke-width:1;"/><a href="/use-case/legal-entity-management/corporate-governance/" target="_top" title="/use-case/legal-entity-management/corporate-governance/" xlink:actuate="onRequest" xlink:href="/use-case/legal-entity-management/corporate-governance/" xlink:show="new" xlink:title="/use-case/legal-entity-management/corporate-governance/" xlink:type="simple"><text fill="#90EE90" font-family="'Roboto'" font-size="14" lengthAdjust="spacing" textLength="159.1406" x="262.2148" y="54.292">Corporate Governance</text></a><path d="M205.2148,143.3359 L205.2148,143.5228 L207.2148,142.9677 L209.2148,143.5077 L211.2148,143.6912 L213.2148,142.7018 L215.2148,143.3359 L215.2148,143.3359 L215.1853,143.318 L216.8341,140.3035 L218.6316,137.3793 L220.5327,134.518 L222.0772,131.4402 L224.1211,128.6655 L224.3617,128.7171 L224.4917,125.5994 L225.3242,122.6322 L226.2424,119.6835 L226.6619,116.6278 L227.3438,113.6284 L227.3737,113.6333 L227.904,110.1785 L228.5705,106.7463 L229.1712,103.3032 L229.8974,99.8809 L230.2148,96.3906 L230.509,96.4396 L231.0869,92.9927 L231.4749,89.5141 L232.1407,86.0818 L232.8196,82.6517 L233.0859,79.1529 L232.7725,79.0857 L234.0253,76.2087 L234.2461,73.1104 L235.2515,70.1803 L235.4489,67.0771 L236.3086,64.1157 L236.2826,64.0999 L238.3716,61.3527 L239.8526,58.2363 L241.6923,55.3378 L243.5622,52.4575 L245.2148,49.4453 L245.2148,49.8153 L247.2148,49.4418 L249.2148,49.7006 L251.2148,48.9365 L253.2148,49.6981 L255.2148,49.4453" fill="none" style="stroke:#FF9900;stroke-width:1;"/><a href="/use-case/legal-entity-management/ownership-and-capital-structure/" target="_top" title="/use-case/legal-entity-management/ownership-and-capital-structure/" xlink:actuate="onRequest" xlink:href="/use-case/legal-entity-management/ownership-and-capital-structure/" xlink:show="new" xlink:title="/use-case/legal-entity-management/ownership-and-capital-structure/" xlink:type="simple"><text fill="#90EE90" font-family="'Roboto'" font-size="14" lengthAdjust="spacing" textLength="213.4453" x="262.2148" y="80.5889">Ownership &amp; Capital Structure</text></a><path d="M205.2148,143.3359 L205.2148,143.5228 L207.2148,142.9677 L209.2148,143.5077 L211.2148,143.6912 L213.2148,142.7018 L215.2148,143.3359 L215.2148,143.3359 L215.1884,143.3137 L216.8512,141.1014 L218.647,139.0015 L220.5354,136.9795 L222.1049,134.6886 L224.1211,132.7744 L224.3569,132.8446 L224.4971,130.5294 L225.3259,128.4191 L226.2387,126.3339 L226.6627,124.1031 L227.3438,121.9489 L227.3733,121.9557 L227.9041,119.4637 L228.5695,117.0028 L229.17,114.5269 L229.8942,112.0797 L230.2148,109.5391 L230.5054,109.6063 L231.0832,107.1252 L231.4735,104.6007 L232.1382,102.1396 L232.8158,99.6816 L233.0859,97.1293 L232.7787,97.0378 L234.0195,95.0502 L234.2487,92.7614 L235.2469,90.7016 L235.4532,88.4061 L236.3086,86.3037 L236.2853,86.2841 L238.3418,84.4039 L239.8545,82.0651 L241.6881,79.997 L243.5486,77.9515 L245.2148,75.7422 L245.2148,76.1122 L247.2148,75.7387 L249.2148,75.9975 L251.2148,75.2334 L253.2148,75.995 L255.2148,75.7422" fill="none" style="stroke:#FF9900;stroke-width:1;"/><a href="/use-case/legal-entity-management/financial-information/" target="_top" title="/use-case/legal-entity-management/financial-information/" xlink:actuate="onRequest" xlink:href="/use-case/legal-entity-management/financial-information/" xlink:show="new" xlink:title="/use-case/legal-entity-management/financial-information/" xlink:type="simple"><text fill="#90EE90" font-family="'Roboto'" font-size="14" lengthAdjust="spacing" textLength="148.0596" x="262.2148" y="106.8857">Financial Information</text></a><path d="M205.2148,143.3359 L205.2148,143.5228 L207.2148,142.9677 L209.2148,143.5077 L211.2148,143.6912 L213.2148,142.7018 L215.2148,143.3359 L215.2148,143.3359 L215.1946,143.308 L216.8849,141.8919 L218.6773,140.6169 L220.5408,139.4398 L222.1596,137.925 L224.1211,136.8833 L224.3472,136.9804 L225.0824,133.9336 L226.4778,131.1703 L227.9538,128.4415 L228.9611,125.5116 L230.2148,122.6875 L230.2427,122.6995 L231.4205,119.8427 L232.7253,117.0405 L233.9688,114.2119 L235.329,111.4335 L236.3086,108.4917 L236.4836,108.7332 L238.267,107.4456 L239.9375,106.0023 L241.7732,104.787 L243.6167,103.5823 L245.2148,102.0391 L245.2148,101.398 L247.2148,102.6422 L249.2148,101.7755 L251.2148,102.5136 L253.2148,101.599 L255.2148,102.0391" fill="none" style="stroke:#FF9900;stroke-width:1;"/><a href="/use-case/legal-entity-management/lifecycle-and-status/" target="_top" title="/use-case/legal-entity-management/lifecycle-and-status/" xlink:actuate="onRequest" xlink:href="/use-case/legal-entity-management/lifecycle-and-status/" xlink:show="new" xlink:title="/use-case/legal-entity-management/lifecycle-and-status/" xlink:type="simple"><text fill="#90EE90" font-family="'Roboto'" font-size="14" lengthAdjust="spacing" textLength="125.8428" x="262.2148" y="161.3311">Lifecycle &amp; Status</text></a><polygon fill="#4051B5" points="450.5078,125.1875,450.5078,125.3977,460.936,124.7732,471.3641,125.3808,481.7923,125.5872,492.2205,124.4741,502.6487,125.1098,513.0768,124.761,523.505,124.804,533.9332,125.1193,544.3613,125.1875,544.2731,124.9746,544.9976,125.5923,545.4123,125.462,546.0332,125.8295,546.6792,126.2578,547.1898,126.3591,547.1633,126.3481,547.4451,126.9335,547.6485,127.4864,547.9477,128.0789,548.2007,128.6523,548.3613,129.1875,548.5566,129.1875,548.585,134.8469,548.5877,140.5063,548.4462,146.1656,548.5159,151.825,548.3613,157.4844,548.5776,157.574,547.9049,157.9581,548.1017,158.7023,547.5671,159.1436,547.5885,159.8152,547.1898,160.3128,547.1266,160.1604,546.6153,160.526,546.153,161.0098,545.4865,161.0007,544.9404,161.2825,544.3613,161.4844,544.3613,161.823,533.9332,161.9006,523.505,161.4805,513.0768,161.7716,502.6487,160.912,492.2205,161.7688,481.7923,162.0326,471.3641,161.9289,460.936,162.0974,450.5078,161.4844,450.4462,161.3356,449.8589,161.0492,449.2972,160.8244,448.8032,160.7633,448.22,160.4866,447.6794,160.3128,447.8892,160.3997,447.3913,159.7248,447.1051,159.1377,447.0467,158.6449,446.5368,157.965,446.5078,157.4844,446.3348,157.4844,446.7241,151.825,446.653,146.1656,446.7526,140.5063,446.4005,134.8469,446.5078,129.1875,446.6061,129.2282,446.924,128.6971,446.831,127.9959,447.1812,127.4782,447.4839,126.9408,447.6794,126.3591,447.7625,126.5598,448.2445,126.1235,448.8698,126.0329,449.3058,125.4856,449.8557,125.2132,450.5078,125.1875" style="stroke:#FF6F00;stroke-width:1.5;"/><a href="/use-case/legal-entity-management/lifecycle-and-status/dissolution/" target="_top" title="/use-case/legal-entity-management/lifecycle-and-status/dissolution/" xlink:actuate="onRequest" xlink:href="/use-case/legal-entity-management/lifecycle-and-status/dissolution/" xlink:show="new" xlink:title="/use-case/legal-entity-management/lifecycle-and-status/dissolution/" xlink:type="simple"><text fill="#90EE90" font-family="'Roboto'" font-size="14" lengthAdjust="spacing" textLength="77.4033" x="456.5078" y="148.1826">Dissolution</text></a><path d="M396.5078,156.4844 L396.5078,156.6712 L398.5078,156.1161 L400.5078,156.6562 L402.5078,156.8396 L404.5078,155.8502 L406.5078,156.4844 L406.5078,156.4844 L406.4939,156.4527 L409.4317,154.9959 L412.4394,153.6986 L415.4957,152.5121 L418.3845,150.9436 L421.5078,149.9102 L421.6066,150.1355 L424.3954,148.3387 L427.4725,147.2 L430.5849,146.1415 L433.4925,144.6159 L436.5078,143.3359 L436.5078,143.3966 L438.5078,143.3075 L440.5078,143.4946 L442.5078,143.5485 L444.5078,143.8566 L446.5078,143.3359" fill="none" style="stroke:#FF9900;stroke-width:1;"/><a href="/use-case/legal-entity-management/lifecycle-and-status/liquidation/" target="_top" title="/use-case/legal-entity-management/lifecycle-and-status/liquidation/" xlink:actuate="onRequest" xlink:href="/use-case/legal-entity-management/lifecycle-and-status/liquidation/" xlink:show="new" xlink:title="/use-case/legal-entity-management/lifecycle-and-status/liquidation/" xlink:type="simple"><text fill="#90EE90" font-family="'Roboto'" font-size="14" lengthAdjust="spacing" textLength="77.6221" x="453.5078" y="189.4795">Liquidation</text></a><path d="M396.5078,156.4844 L396.5078,156.6712 L398.5078,156.1161 L400.5078,156.6562 L402.5078,156.8396 L404.5078,155.8502 L406.5078,156.4844 L406.5078,156.4844 L406.4925,156.4534 L408.2051,157.1941 L409.9948,158.0908 L411.8381,159.0961 L413.4968,159.7274 L415.4141,160.8826 L415.6223,161.0137 L416.3958,162.6685 L417.7772,164.7061 L419.2328,166.7905 L420.2568,168.6031 L421.5078,170.5586 L421.5335,170.5748 L422.7145,172.4862 L424.0125,174.4713 L425.254,176.4208 L426.6031,178.4381 L427.6016,180.2346 L427.7336,180.502 L429.5165,181.3849 L431.2142,182.0954 L433.0365,183.0583 L434.8648,184.033 L436.5078,184.6328 L436.5078,183.9918 L438.5078,185.2359 L440.5078,184.3693 L442.5078,185.1073 L444.5078,184.1928 L446.5078,184.6328" fill="none" style="stroke:#FF9900;stroke-width:1;"/><path d="M205.2148,143.3359 L205.2148,143.5228 L207.2148,142.9677 L209.2148,143.5077 L211.2148,143.6912 L213.2148,142.7018 L215.2148,143.3359 L215.2148,143.3359 L215.201,143.3043 L218.1388,144.4772 L221.1464,145.8095 L224.2027,147.2527 L227.0915,148.3139 L230.2148,149.9102 L230.3136,150.1355 L233.1024,150.9684 L236.1796,152.4593 L239.2919,154.0305 L242.1995,155.1346 L245.2148,156.4844 L245.2148,156.545 L247.2148,156.456 L249.2148,156.6431 L251.2148,156.6969 L253.2148,157.005 L255.2148,156.4844" fill="none" style="stroke:#FF9900;stroke-width:1;"/><a href="/use-case/legal-entity-management/contact-and-location-information/" target="_top" title="/use-case/legal-entity-management/contact-and-location-information/" xlink:actuate="onRequest" xlink:href="/use-case/legal-entity-management/contact-and-location-information/" xlink:show="new" xlink:title="/use-case/legal-entity-management/contact-and-location-information/" xlink:type="simple"><text fill="#90EE90" font-family="'Roboto'" font-size="14" lengthAdjust="spacing" textLength="219.4814" x="262.2148" y="215.7764">Contact &amp; Location Information</text></a><path d="M205.2148,143.3359 L205.2148,143.5228 L207.2148,142.9677 L209.2148,143.5077 L211.2148,143.6912 L213.2148,142.7018 L215.2148,143.3359 L215.2148,143.3359 L215.1884,143.3137 L216.8512,145.326 L218.647,147.4507 L220.5354,149.6533 L222.1049,151.5871 L224.1211,153.8975 L224.3569,153.9677 L224.4971,155.9826 L225.3259,158.2026 L226.2387,160.4476 L226.6627,162.547 L227.3438,164.723 L227.3733,164.7299 L227.9041,167.2018 L228.5695,169.7048 L229.17,172.1929 L229.8942,174.7095 L230.2148,177.1328 L230.5054,177.2 L231.0832,179.6828 L231.4735,182.1222 L232.1382,184.6251 L232.8158,187.131 L233.0859,189.5426 L232.7787,189.4512 L234.0195,191.7938 L234.2487,193.8352 L235.2469,196.1056 L235.4532,198.1403 L236.3086,200.3682 L236.2853,200.3485 L238.3418,202.6929 L239.8545,204.5788 L241.6881,206.7352 L243.5486,208.9144 L245.2148,210.9297 L245.2148,211.2997 L247.2148,210.9262 L249.2148,211.185 L251.2148,210.4209 L253.2148,211.1825 L255.2148,210.9297" fill="none" style="stroke:#FF9900;stroke-width:1;"/><a href="/use-case/legal-entity-management/compliance-and-documentation/" target="_top" title="/use-case/legal-entity-management/compliance-and-documentation/" xlink:actuate="onRequest" xlink:href="/use-case/legal-entity-management/compliance-and-documentation/" xlink:show="new" xlink:title="/use-case/legal-entity-management/compliance-and-documentation/" xlink:type="simple"><text fill="#90EE90" font-family="'Roboto'" font-size="14" lengthAdjust="spacing" textLength="210.1504" x="262.2148" y="242.0732">Compliance &amp; Documentation</text></a><path d="M205.2148,143.3359 L205.2148,143.5228 L207.2148,142.9677 L209.2148,143.5077 L211.2148,143.6912 L213.2148,142.7018 L215.2148,143.3359 L215.2148,143.3359 L215.1853,143.318 L216.8341,146.1717 L218.6316,149.1157 L220.5327,152.1225 L222.0772,154.9128 L224.1211,158.0063 L224.3617,158.0579 L224.4917,160.9551 L225.3242,164.0028 L226.2424,167.0689 L226.6619,170.0281 L227.3438,173.0435 L227.3737,173.0485 L227.904,176.4887 L228.5705,179.9516 L229.1712,183.4036 L229.8974,186.8765 L230.2148,190.2813 L230.509,190.3303 L231.0869,193.7784 L231.4749,197.1949 L232.1407,200.6577 L232.8196,204.1227 L233.0859,207.519 L232.7725,207.4518 L234.0253,210.5896 L234.2461,213.5062 L235.2515,216.591 L235.4489,219.5026 L236.3086,222.5562 L236.2826,222.5404 L238.3716,225.6613 L239.8526,228.4131 L241.6923,231.3827 L243.5622,234.3706 L245.2148,237.2266 L245.2148,237.5965 L247.2148,237.2231 L249.2148,237.4819 L251.2148,236.7177 L253.2148,237.4794 L255.2148,237.2266" fill="none" style="stroke:#FF9900;stroke-width:1;"/><a href="/use-case/legal-entity-management/supporting-information/" target="_top" title="/use-case/legal-entity-management/supporting-information/" xlink:actuate="onRequest" xlink:href="/use-case/legal-entity-management/supporting-information/" xlink:show="new" xlink:title="/use-case/legal-entity-management/supporting-information/" xlink:type="simple"><text fill="#90EE90" font-family="'Roboto'" font-size="14" lengthAdjust="spacing" textLength="162.7295" x="262.2148" y="268.3701">Supporting Information</text></a><path d="M205.2148,143.3359 L205.2148,143.5228 L207.2148,142.9677 L209.2148,143.5077 L211.2148,143.6912 L213.2148,142.7018 L215.2148,143.3359 L215.2148,143.3359 L215.19,143.312 L216.0745,144.2372 L217.0843,145.2833 L218.1813,146.4135 L218.978,147.2541 L220.1953,148.5002 L220.4317,148.5684 L220.7113,151.1456 L221.6812,153.9219 L222.7352,156.7224 L223.2993,159.3817 L224.1211,162.1152 L224.151,162.1202 L224.7516,165.9626 L225.4884,169.8278 L226.1595,173.6821 L226.956,177.5572 L227.3438,181.364 L227.6395,181.4025 L228.2173,185.8161 L228.6044,190.2049 L229.2707,194.63 L229.9501,199.0568 L230.2148,203.4297 L229.897,203.3883 L231.0881,207.8817 L231.2326,212.239 L232.1728,216.6997 L232.2935,221.0538 L233.0859,225.4954 L233.0559,225.4903 L234.0555,229.3995 L234.3536,233.1913 L235.0657,237.0524 L235.8125,240.9192 L236.3086,244.7441 L236.4863,244.7954 L237.0921,247.4667 L238.0016,250.2255 L238.4196,252.8426 L239.5707,255.6712 L240.2344,258.3591 L240.4097,258.5283 L241.3727,259.5291 L242.4227,260.614 L243.0681,261.3087 L244.0101,262.2894 L245.2148,263.5234 L245.2148,262.9711 L247.2148,263.4711 L249.2148,263.3487 L251.2148,264.1291 L253.2148,263.3682 L255.2148,263.5234" fill="none" style="stroke:#FF9900;stroke-width:1;"/><!--SRC=[xLXjJniv4Fw-ly9Nf6ihBeLmKBMegWXveK12K0ALJbM5d5qdiUBOMziBbplTVx_nRZRxacIJ3TaUdE0JyOoVUMRMB-FdH6aizPXoPunTo_h58NtA2JezksjLpg_kgkrckuFylvt3_QDoxoZkqgrNsrUrIkUFgTy2b-jAzR9oLfy1pRcqExLw9nu7xVJxx_lx-pENHllg9k7WkvW_or8ZobqiyHZri3qQIE5nfogOaA6ZbfWhy21Snvo_J5mYcvIFuhveXz71K0ya8TooNYFARUOv1EaXGGF2YSGCpI0KwiF4dj33tv0_3M7k80VB4SpK0ebx8XyarGGzK3qCCEWzuKWHhIaVg7G5RhwSLo-lwjqkAiDd4AwcWgCXW1eK3HFxc2aIo-4QEmu0eSFOM2V8Nm9Pz24stXrYHpmOxpIANma6bRZbZlyFcRh4V6gaZpscqTzMGt1zXSS4lUe8o5syyaU28aQVoH_iqhy8AXzQ_yIHAbAA1y1PE6CnZ9umg95WJXB9XS-D1sJAQMxgQMer9DQpTIea93krn1OWX8WYSE7aWKyizFKYs6Bi2Wuh4y9iI7WXkw1ctfWT96lcO8rxM94jXql4i9dmd4832CQ8RNQ7sdgOA4eL7AHW1KOuDP1OJWeCKUUQwY83KAw9x6ER51YZItvuXDla6gufQbCNSns0tGofFU94AJWm8tSrTGT6yHcPvEQW5_2C-KJ74XToZ5dQDfTEa_O9N3PaAVZC8PEcVtZEWVkZIv5zwq9IlYMguUzMnTP2hc3WkooDPQpBDl1hL3r4fcfm2S6FdPL_yJqlOSDZFc3aqoUuhPJWdp_3z-t2uYD2mmMszFROrhsGNd7fEpjvHCNeaZ-19CViRlkyKyrN0UJLH6aoVdwrtZxlWceTNiZFezGHs-TNwTWowKqlte1rgZ5EPk7tiFkhkxsDSizEBBXW7Ao6n5adruMfsX0OmxqYryqL-lNifLH0fjcVC7wrQwmNTHhXap8A7ZuFArfBslCqcJV5IOKFpbGZYvKgEDfhr0eUtaYvnAPzQaEImHKvzmvPdyVAr73KIEmq6Xy_WZrbZFTMbhLxXxvzGtkU8YKRzlyU8mFCIiJlBajZpE4TDePVUwXf367RsPePqFVlrkww8DGnOr0AR7hy4Zo0Iv8Cg8A7l1dOG-S91_GhwiJCkKBPGhe2vf7Im3pNEOQ-SGzQ_-aeEfkDve8L3x3Zr92wFdaRkrI37p3qREr9YD0E7O1yDJ13QpGrvmhLfuOU1HlbVTEC1YLgXCFeF1hE1SoW8xKdDYD-3cRdUGg-RpWAnBl-M02w-mXGXoebc1SGhqK_fiYFuSle3uywqveqenyv5mcSeRRsSPcOhif4jQk11zIaERLlN7QZ231gLfmVpn6sPyPdWK8hnAh5RRc2AC-51Mv4g6GUtTbucly9WLCgb0XFaefXWHBS4nQxmhDsJQKhxhu088V6DJlabrm7Ym__35NhiO1P8bOMnZo33MIhV07M4geU0vafJUK5NaUCsXmpGtxQ77IfuBGvP9R4j3bg8Q9II6U9d1GoowqaXGaiaf52q6KAKiWffXtDsjMqS1HYfJIZXFzAmMWMC2qLpT2JAb5i8sqa-2m_MVEiblcF_rX1vsVpMl4I_y_Az1HuhIsp_6GsJwf8MrL8GXuvirdAEbCDAHSfVsmxarJz_zVonek6yQ9Xl6WOBnh6qzCmhXbqsBUj9eBDeOn3-Tt1_i7HktAvHpGkxx-vvICEUy1_tL9OAvgEoLlhpTbr4odXIM3lcFrgpaEO_jQwmFSOTJnk_8vHsoNyedOP3i1fSa-bu8QvTV6r5JcyFooTKWtF4Gb4qDUM5QeFTMuB8tWSezkRHkc3rOGhpOFaZn7XLXLEK2qdOEl-2m00]--></g></svg>