<svg xmlns="http://www.w3.org/2000/svg" xmlns:xlink="http://www.w3.org/1999/xlink" contentStyleType="text/css" data-diagram-type="MINDMAP" height="157px" preserveAspectRatio="none" style="width:1116px;height:157px;" version="1.1" viewBox="0 0 1116 157" width="1116px" zoomAndPan="magnify"><defs/><g><a href="/use-case/construction-project-quotations/knowledge-capture-and-improvement/" target="_top" title="/use-case/construction-project-quotations/knowledge-capture-and-improvement/" xlink:actuate="onRequest" xlink:href="/use-case/construction-project-quotations/knowledge-capture-and-improvement/" xlink:show="new" xlink:title="/use-case/construction-project-quotations/knowledge-capture-and-improvement/" xlink:type="simple"><text fill="#90EE90" font-family="'Roboto'" font-size="14" lengthAdjust="spacing" textLength="335.207" x="371.6855" y="82.4404">Knowledge Capture &amp; Continuous Improvement</text></a><a href="/use-case/construction-project-quotations/knowledge-capture-and-improvement/sme-knowledge-capture/" target="_top" title="/use-case/construction-project-quotations/knowledge-capture-and-improvement/sme-knowledge-capture/" xlink:actuate="onRequest" xlink:href="/use-case/construction-project-quotations/knowledge-capture-and-improvement/sme-knowledge-capture/" xlink:show="new" xlink:title="/use-case/construction-project-quotations/knowledge-capture-and-improvement/sme-knowledge-capture/" xlink:type="simple"><text fill="#90EE90" font-family="'Roboto'" font-size="14" lengthAdjust="spacing" textLength="171.6436" x="772.3428" y="27.9951">SME Knowledge Capture</text></a><path d="M715.3428,77.5938 L715.3428,77.7806 L717.3428,77.2255 L719.3428,77.7656 L721.3428,77.949 L723.3428,76.9596 L725.3428,77.5938 L725.3428,77.5938 L725.3189,77.5688 L726.9931,75.7553 L728.7875,74.0677 L730.6656,72.4676 L732.2555,70.5659 L734.249,69.0867 L734.483,69.1629 L735.2014,65.2568 L736.6029,61.5732 L738.0878,57.9168 L739.0878,54.1024 L740.3428,50.3711 L740.3716,50.3805 L741.548,46.6236 L742.8557,42.9094 L744.1001,39.1747 L745.4653,35.4792 L746.4365,31.6555 L746.6425,31.8712 L748.4263,30.1724 L750.0772,28.3345 L751.9226,26.7003 L753.7771,25.0755 L755.3428,23.1484 L755.3428,22.5074 L757.3428,23.7516 L759.3428,22.8849 L761.3428,23.6229 L763.3428,22.7084 L765.3428,23.1484" fill="none" style="stroke:#FF9900;stroke-width:1;"/><polygon fill="#4051B5" points="769.3428,46.2969,769.3428,46.5071,779.3652,45.8826,789.3876,46.4902,799.41,46.6966,809.4324,45.5835,819.4548,46.2192,829.4772,45.8704,839.4996,45.9134,849.522,46.2287,859.5444,45.6055,869.5668,46.8505,879.5892,45.6666,889.6116,46.0991,899.634,46.7288,909.6564,46.2111,919.6788,46.3651,929.7012,46.2649,939.7236,46.4754,949.746,46.536,959.7684,46.8826,969.7908,46.9679,979.8132,46.9761,989.8356,46.5515,999.858,46.7605,1009.8804,46.9991,1019.9028,45.5757,1029.9252,46.9754,1039.9476,46.0004,1049.97,46.8307,1059.9924,45.8019,1070.0148,46.2284,1080.0372,47.0385,1090.0596,46.2481,1100.082,46.2969,1100.0955,46.3293,1100.6909,46.6355,1101.2665,46.8937,1101.7786,46.9986,1102.3814,47.3226,1102.9105,47.4684,1102.7342,47.3954,1103.2324,48.0704,1103.5479,48.6697,1103.7503,49.2222,1104.0365,49.8094,1104.082,50.2969,1103.921,50.2969,1103.8646,55.9563,1103.8749,61.6156,1104.0624,67.275,1104.0165,72.9344,1104.082,78.5938,1104.2919,78.6807,1103.7939,79.1372,1103.5078,79.6814,1103.4494,80.3199,1102.9394,80.7714,1102.9105,81.4222,1102.8442,81.2623,1102.4276,81.8563,1101.8347,82.025,1101.3071,82.3513,1100.6067,82.2603,1100.082,82.5938,1100.082,82.9129,1090.0596,83.1842,1080.0372,82.1213,1070.0148,82.4979,1059.9924,82.7197,1049.97,83.2455,1039.9476,82.5896,1029.9252,83.0563,1019.9028,82.04,1009.8804,81.9165,999.858,83.0974,989.8356,81.8768,979.8132,83.1027,969.7908,82.8004,959.7684,82.3258,949.746,82.24,939.7236,83.0525,929.7012,82.2944,919.6788,83.1856,909.6564,82.041,899.634,83.2112,889.6116,83.0781,879.5892,82.8387,869.5668,82.641,859.5444,83.3204,849.522,83.2073,839.4996,82.763,829.4772,82.8619,819.4548,82.4635,809.4324,83.3102,799.41,82.7486,789.3876,82.7663,779.3652,81.9854,769.3428,82.5938,769.2911,82.469,768.8448,82.5229,768.2662,82.2575,767.6402,81.8776,767.0389,81.5573,766.5143,81.4222,766.4469,81.3943,766.0687,80.769,766.1734,80.3437,766.0392,79.8195,765.7392,79.2266,765.3428,78.5938,765.5744,78.5938,765.2972,72.9344,765.3718,67.275,765.2136,61.6156,765.4375,55.9563,765.3428,50.2969,765.4188,50.3284,765.7472,49.8017,765.7407,49.1362,766.0043,48.5827,766.4166,48.0907,766.5143,47.4684,766.5867,47.6432,767.0147,47.0763,767.621,46.9401,768.2304,46.8115,768.6992,46.3431,769.3428,46.2969" style="stroke:#FF6F00;stroke-width:1.5;"/><a href="/use-case/construction-project-quotations/knowledge-capture-and-improvement/document-ingestion-and-knowledge-extraction/" target="_top" title="/use-case/construction-project-quotations/knowledge-capture-and-improvement/document-ingestion-and-knowledge-extraction/" xlink:actuate="onRequest" xlink:href="/use-case/construction-project-quotations/knowledge-capture-and-improvement/document-ingestion-and-knowledge-extraction/" xlink:show="new" xlink:title="/use-case/construction-project-quotations/knowledge-capture-and-improvement/document-ingestion-and-knowledge-extraction/" xlink:type="simple"><text fill="#90EE90" font-family="'Roboto'" font-size="14" lengthAdjust="spacing" textLength="314.2891" x="775.3428" y="69.292">Document Ingestion &amp; Knowledge Extraction</text></a><path d="M715.3428,77.5938 L715.3428,77.7806 L717.3428,77.2255 L719.3428,77.7656 L721.3428,77.949 L723.3428,76.9596 L725.3428,77.5938 L725.3428,77.5938 L725.3289,77.5621 L728.2667,76.1053 L731.2744,74.808 L734.3306,73.6215 L737.2194,72.0529 L740.3428,71.0195 L740.4415,71.2449 L743.2303,69.4481 L746.3075,68.3093 L749.4198,67.2508 L752.3275,65.7252 L755.3428,64.4453 L755.3428,64.506 L757.3428,64.4169 L759.3428,64.604 L761.3428,64.6579 L763.3428,64.9659 L765.3428,64.4453" fill="none" style="stroke:#FF9900;stroke-width:1;"/><a href="/use-case/construction-project-quotations/knowledge-capture-and-improvement/traceability-and-provenance/" target="_top" title="/use-case/construction-project-quotations/knowledge-capture-and-improvement/traceability-and-provenance/" xlink:actuate="onRequest" xlink:href="/use-case/construction-project-quotations/knowledge-capture-and-improvement/traceability-and-provenance/" xlink:show="new" xlink:title="/use-case/construction-project-quotations/knowledge-capture-and-improvement/traceability-and-provenance/" xlink:type="simple"><text fill="#90EE90" font-family="'Roboto'" font-size="14" lengthAdjust="spacing" textLength="184.2217" x="772.3428" y="110.5889">Traceability &amp; Provenance</text></a><path d="M715.3428,77.5938 L715.3428,77.7806 L717.3428,77.2255 L719.3428,77.7656 L721.3428,77.949 L723.3428,76.9596 L725.3428,77.5938 L725.3428,77.5938 L725.3275,77.5628 L727.0401,78.3034 L728.8298,79.2002 L730.6731,80.2055 L732.3317,80.8368 L734.249,81.9919 L734.4572,82.1231 L735.2307,83.7779 L736.6121,85.8155 L738.0677,87.8999 L739.0918,89.7124 L740.3428,91.668 L740.3684,91.6841 L741.5495,93.5956 L742.8474,95.5807 L744.089,97.5302 L745.438,99.5475 L746.4365,101.344 L746.5686,101.6114 L748.3514,102.4943 L750.0491,103.2047 L751.8715,104.1676 L753.6997,105.1424 L755.3428,105.7422 L755.3428,105.1011 L757.3428,106.3453 L759.3428,105.4786 L761.3428,106.2167 L763.3428,105.3022 L765.3428,105.7422" fill="none" style="stroke:#FF9900;stroke-width:1;"/><a href="/use-case/construction-project-quotations/knowledge-capture-and-improvement/estimate-vs-actual-and-lessons-learned/" target="_top" title="/use-case/construction-project-quotations/knowledge-capture-and-improvement/estimate-vs-actual-and-lessons-learned/" xlink:actuate="onRequest" xlink:href="/use-case/construction-project-quotations/knowledge-capture-and-improvement/estimate-vs-actual-and-lessons-learned/" xlink:show="new" xlink:title="/use-case/construction-project-quotations/knowledge-capture-and-improvement/estimate-vs-actual-and-lessons-learned/" xlink:type="simple"><text fill="#90EE90" font-family="'Roboto'" font-size="14" lengthAdjust="spacing" textLength="267.5449" x="772.3428" y="136.8857">Estimate vs Actual &amp; Lessons Learned</text></a><path d="M715.3428,77.5938 L715.3428,77.7806 L717.3428,77.2255 L719.3428,77.7656 L721.3428,77.949 L723.3428,76.9596 L725.3428,77.5938 L725.3428,77.5938 L725.3189,77.5688 L726.9931,79.1581 L728.7875,80.8733 L730.6656,82.6761 L732.2555,84.1772 L734.249,86.1008 L734.483,86.177 L735.2014,89.7572 L736.6029,93.5598 L738.0878,97.3896 L739.0878,101.0615 L740.3428,104.8164 L740.3716,104.8258 L741.548,108.5551 L742.8557,112.3272 L744.1001,116.0787 L745.4653,119.8695 L746.4365,123.532 L746.6425,123.7477 L748.4263,125.4517 L750.0772,127.0166 L751.9226,128.7852 L753.7771,130.5633 L755.3428,132.0391 L755.3428,131.398 L757.3428,132.6422 L759.3428,131.7755 L761.3428,132.5136 L763.3428,131.599 L765.3428,132.0391" fill="none" style="stroke:#FF9900;stroke-width:1;"/><a href="/use-case/construction-project-quotations/" target="_top" title="/use-case/construction-project-quotations/" xlink:actuate="onRequest" xlink:href="/use-case/construction-project-quotations/" xlink:show="new" xlink:title="/use-case/construction-project-quotations/" xlink:type="simple"><text fill="#90EE90" font-family="'Roboto'" font-size="14" lengthAdjust="spacing" textLength="289.2354" x="14" y="82.4404">Complex Construction Project Quotations</text></a><path d="M364.6855,77.5938 L364.6855,77.7806 L362.6855,77.2255 L360.6855,77.7656 L358.6855,77.949 L356.6855,76.9596 L354.6855,77.5938 L354.6855,77.5938 L354.6855,77.5592 L348.6855,77.4042 L342.6855,77.4233 L336.6855,77.5635 L330.6855,77.2865 L324.6855,77.5938 L324.6855,78.0859 L322.6855,77.0335 L320.6855,77.418 L318.6855,77.9777 L316.6855,77.5175 L314.6855,77.5938" fill="none" style="stroke:#FF9900;stroke-width:1;"/><!--SRC=[xLZlJzj84FtklsAkI4UhdXl2GTMYgYA4G864S0bKEbKLsjYJP0zxDzrTXtAd-zzlxCInu_mW2N4FAlW2UD- -UJDUx-wyVMsOCZuNhizwblMBYsqk40wEhskba_FhShrQRq3qix6pjLjixQOXpKgvVdvOQlmvn4s1N9JAPwNZoeXe0b9l75OQwJYmqMw_RMzjZI17zVFBCK042NyiIzzmqMEA-T1Ypar7oK2uPUb95GEDOa8J0eL9WJ_TzL1LkRX9Os73uvskwIX4OLcRm8NZ1Iw2wI9qKA1Y7emeDBHfOakQxcyGJGCcN72Pkg6PHeBiexfLt23SSjCTSF0-2j1e31STdQt0vQUJyjbvfTc48hq6sJDS2kWIQSXYQ6ARUHfJELmmroKYs4azQmpoLoGMtgMUDxlCbRSXEiiILSAZIbm9D_e3Xv0KvX3RBF0C_6CTIM7EcO_meY4fT_aYUZ8eOlAQeeTD_ZT2SSVwDyrKKahU4i_K6TDfp9r7DPAUEyxKezVDEZZKD37r8BCQnjQpTI0L9JiSIIr02f544D9TXdvieIyMmP5-JmfQcHHcHS5JrGrg5lZUzdZDN6POYsbSSxYn68ud0pVN0DBpq0c_3htsC4cKCW6Kz7ACS11ICdMNOuYACDpa6O0BWwhD7CmnHXE_1IWSlA1ZYZkynuGPa5rskNCZK6lQC1Eu7i99KNh6N74Jr5DqfZ39jYIayfcN7Pj8fyhRI8SDpYGV0URAZ3RF2VBewKpcQ7Igg6WagU7lLianKjsZ88BCZ1MEplg0Dw6y0s7Lw12YVpRk_Kb_yue-U2Ow7dxuGAULbkBZHtg_JLfyA0qTO3DFZtMT2zaLbpspnxUeb5pyJY85ywxNhpjp-Sf1lBxJ1lsdL-lrwywfrl61_3HAdQXzUfLEBPFMyE0TgCvSZCUpYEwmM_VVzbRAVNvYWmF6PRgBxYAvJatLeS2CpXMrQAvqNv-_b7B8TFuhJ1_jXfbfDusufKo2n-rXoHZ5Mu71oQ6qgBZXp5nacTOvHzk4sg3n1jr3XxUvGqaEZiY9FcHn7VUcnfABnCRHqVltD9uPJD-jBElrDNpv0eL0e-tGzr-WPQMD2g9BkDrJyYzQSVQtGDBx2Q_bXHiXRprqEo6yPmA5DhMnDlS9saUV-fq2dCKGA0yWy6jqv-OYa866amGBNxzQhzUlGFjeJw0AqAnLfcYB9AnRWIkT8Fp3fjUDEk898Sb4scKLYm8Ku708XfCOJ0LBX5P6q9pA5T8ZQt6F6efeC1eIZ6xQ1RXC3PAiYz5GJcB20lYq5zXzRLFM0VCYY4VhbGZeDrC2tG9KXZZeQoX5E59N7Q3eTuGA9ThsaX9fgVez3x-7ItO43FCEWV3721YIxoDzuR6zjZ_kjkLeNprYeoZUfnPqYTBmAGHB-4EZ3NB6LZfzuvpZ23sKS9u1D8zZKi4Abizo0HOoUHv2ETVMMPPu4IDdTSuvritgf3FDcjKfvzapgxFcOiZ4ScPOCR6ofLsOE85f5anCEijzYJMbV9VHLIzhkiHS6Rzb37-lsJ8AcBLPHkpZ3algGrh9B9cziowpMYPV_aFDa1-jwvukzdyhqsFGjR15yOFLFAeYhTLTY7KicSrCrNETX6AUri6wCydK_wUs1fxx_-V-_xd__zdw_mkFRgTNjIhqwGOKpYc-sTxQtdrJBBRGiEBMooiHfY-Ypf3Jjaq9u2lhvV555RGC59NKvNgmbz3qLzOfwpDe12B4xK6zX-Bqy2n-G3r5doifmg9Pfvzh2U3jZdt03Ltb5Gc1ppKhxjmhmf6XMR07LvT7zZkhIiT1G7tq7g2WVfnurHsDDVy3]--></g></svg>