<svg xmlns="http://www.w3.org/2000/svg" xmlns:xlink="http://www.w3.org/1999/xlink" contentStyleType="text/css" data-diagram-type="MINDMAP" height="225px" preserveAspectRatio="none" style="width:612px;height:225px;" version="1.1" viewBox="0 0 612 225" width="612px" zoomAndPan="magnify"><defs/><g><a href="/use-case/legal-entity-management/" target="_top" title="/use-case/legal-entity-management/" xlink:actuate="onRequest" xlink:href="/use-case/legal-entity-management/" xlink:show="new" xlink:title="/use-case/legal-entity-management/" xlink:type="simple"><text fill="#4051B5" font-family="'Roboto'" font-size="13" lengthAdjust="spacing" textLength="166.9243" x="17" y="116.2485">Legal Entity Management</text></a><a href="/use-case/legal-entity-management/identification-and-registration/" target="_top" title="/use-case/legal-entity-management/identification-and-registration/" xlink:actuate="onRequest" xlink:href="/use-case/legal-entity-management/identification-and-registration/" xlink:show="new" xlink:title="/use-case/legal-entity-management/identification-and-registration/" xlink:type="simple"><text fill="#4051B5" font-family="'Roboto'" font-size="13" lengthAdjust="spacing" textLength="182.6157" x="249.0566" y="27.0669">Identification &amp; Registration</text></a><path d="M192.0566,111.748 L192.0566,111.9349 L194.0566,111.3798 L196.0566,111.9199 L198.0566,112.1033 L200.0566,111.1139 L202.0566,111.748 L202.0566,111.748 L202.0275,111.7294 L203.6782,108.859 L205.4755,106.0824 L207.3749,103.371 L208.9227,100.4349 L210.9629,97.8134 L211.2029,97.8676 L211.3342,94.8952 L212.1662,92.0809 L213.0838,89.2859 L213.5038,86.3786 L214.1855,83.5304 L214.2154,83.5357 L214.7458,80.2533 L215.4121,76.9948 L216.0129,73.7249 L216.7388,70.4768 L217.0566,67.1572 L217.3504,67.2087 L217.9282,63.9347 L218.3165,60.6275 L218.9822,57.3689 L219.6609,54.1126 L219.9277,50.784 L219.6151,50.7135 L220.8664,47.9938 L221.0882,45.0418 L222.0928,42.2665 L222.2912,39.3092 L223.1504,36.501 L223.1247,36.4846 L225.2094,33.8916 L226.6946,30.9155 L228.5336,28.1655 L230.4022,25.4344 L232.0566,22.5664 L232.0566,22.9364 L234.0566,22.5629 L236.0566,22.8217 L238.0566,22.0576 L240.0566,22.8192 L242.0566,22.5664" fill="none" style="stroke:#FF6F00;stroke-width:1;"/><a href="/use-case/legal-entity-management/corporate-governance/" target="_top" title="/use-case/legal-entity-management/corporate-governance/" xlink:actuate="onRequest" xlink:href="/use-case/legal-entity-management/corporate-governance/" xlink:show="new" xlink:title="/use-case/legal-entity-management/corporate-governance/" xlink:type="simple"><text fill="#4051B5" font-family="'Roboto'" font-size="13" lengthAdjust="spacing" textLength="147.7734" x="249.0566" y="52.1997">Corporate Governance</text></a><path d="M192.0566,111.748 L192.0566,111.9349 L194.0566,111.3798 L196.0566,111.9199 L198.0566,112.1033 L200.0566,111.1139 L202.0566,111.748 L202.0566,111.748 L202.0308,111.7251 L203.6963,109.6205 L205.4918,107.6317 L207.3778,105.7233 L208.9521,103.5377 L210.9629,101.7404 L211.1976,101.8142 L211.3402,99.6049 L212.1681,97.6109 L213.0796,95.6433 L213.5046,93.5227 L214.1855,91.4826 L214.215,91.4898 L214.746,89.1274 L215.4111,86.7978 L216.0115,84.4524 L216.7353,82.1372 L217.0566,79.7236 L217.3464,79.7944 L217.9241,77.4434 L218.315,75.0469 L218.9795,72.7171 L219.6567,70.3905 L219.9277,67.9647 L219.6219,67.8686 L220.86,66.0035 L221.0911,63.822 L222.0877,61.8811 L222.296,59.6925 L223.1504,57.7068 L223.1276,57.6866 L225.1779,55.9244 L226.6967,53.6894 L228.5291,51.7334 L230.3878,49.8008 L232.0566,47.6992 L232.0566,48.0692 L234.0566,47.6957 L236.0566,47.9545 L238.0566,47.1904 L240.0566,47.952 L242.0566,47.6992" fill="none" style="stroke:#FF6F00;stroke-width:1;"/><a href="/use-case/legal-entity-management/ownership-and-capital-structure/" target="_top" title="/use-case/legal-entity-management/ownership-and-capital-structure/" xlink:actuate="onRequest" xlink:href="/use-case/legal-entity-management/ownership-and-capital-structure/" xlink:show="new" xlink:title="/use-case/legal-entity-management/ownership-and-capital-structure/" xlink:type="simple"><text fill="#4051B5" font-family="'Roboto'" font-size="13" lengthAdjust="spacing" textLength="198.1992" x="249.0566" y="77.3325">Ownership &amp; Capital Structure</text></a><path d="M192.0566,111.748 L192.0566,111.9349 L194.0566,111.3798 L196.0566,111.9199 L198.0566,112.1033 L200.0566,111.1139 L202.0566,111.748 L202.0566,111.748 L202.0372,111.7195 L203.731,110.3754 L205.523,109.175 L207.3833,108.0747 L209.0084,106.6298 L210.9629,105.6674 L211.1868,105.7694 L211.9267,102.8758 L213.3204,100.28 L214.7938,97.7206 L215.8032,94.9497 L217.0566,92.29 L217.0842,92.3026 L218.2625,89.6087 L219.5663,86.972 L220.8096,84.3077 L222.1685,81.696 L223.1504,78.9127 L223.3186,79.159 L225.1019,77.9459 L226.7767,76.5739 L228.6103,75.4344 L230.4514,74.3059 L232.0566,72.832 L232.0566,72.191 L234.0566,73.4352 L236.0566,72.5685 L238.0566,73.3065 L240.0566,72.392 L242.0566,72.832" fill="none" style="stroke:#FF6F00;stroke-width:1;"/><a href="/use-case/legal-entity-management/financial-information/" target="_top" title="/use-case/legal-entity-management/financial-information/" xlink:actuate="onRequest" xlink:href="/use-case/legal-entity-management/financial-information/" xlink:show="new" xlink:title="/use-case/legal-entity-management/financial-information/" xlink:type="simple"><text fill="#4051B5" font-family="'Roboto'" font-size="13" lengthAdjust="spacing" textLength="137.4839" x="249.0566" y="102.4653">Financial Information</text></a><path d="M192.0566,111.748 L192.0566,111.9349 L194.0566,111.3798 L196.0566,111.9199 L198.0566,112.1033 L200.0566,111.1139 L202.0566,111.748 L202.0566,111.748 L202.0422,111.7167 L204.9775,110.1975 L207.9855,108.8365 L211.044,107.5856 L213.9284,105.9555 L217.0566,104.8564 L217.1594,105.08 L219.9397,103.2236 L223.0199,102.0199 L226.1368,100.8959 L229.0407,99.3085 L232.0566,97.9648 L232.0566,98.0255 L234.0566,97.9364 L236.0566,98.1235 L238.0566,98.1774 L240.0566,98.4855 L242.0566,97.9648" fill="none" style="stroke:#FF6F00;stroke-width:1;"/><a href="/use-case/legal-entity-management/lifecycle-and-status/" target="_top" title="/use-case/legal-entity-management/lifecycle-and-status/" xlink:actuate="onRequest" xlink:href="/use-case/legal-entity-management/lifecycle-and-status/" xlink:show="new" xlink:title="/use-case/legal-entity-management/lifecycle-and-status/" xlink:type="simple"><text fill="#4051B5" font-family="'Roboto'" font-size="13" lengthAdjust="spacing" textLength="116.854" x="249.0566" y="127.5981">Lifecycle &amp; Status</text></a><path d="M192.0566,111.748 L192.0566,111.9349 L194.0566,111.3798 L196.0566,111.9199 L198.0566,112.1033 L200.0566,111.1139 L202.0566,111.748 L202.0566,111.748 L202.0444,111.7157 L204.9896,112.7057 L207.9963,113.8586 L211.0459,115.1246 L213.9479,116.0005 L217.0566,117.4229 L217.1437,117.653 L219.9575,118.2958 L223.0255,119.6106 L226.1246,121.0073 L229.0432,121.927 L232.0566,123.0977 L232.0566,123.1583 L234.0566,123.0693 L236.0566,123.2563 L238.0566,123.3102 L240.0566,123.6183 L242.0566,123.0977" fill="none" style="stroke:#FF6F00;stroke-width:1;"/><a href="/use-case/legal-entity-management/contact-and-location-information/" target="_top" title="/use-case/legal-entity-management/contact-and-location-information/" xlink:actuate="onRequest" xlink:href="/use-case/legal-entity-management/contact-and-location-information/" xlink:show="new" xlink:title="/use-case/legal-entity-management/contact-and-location-information/" xlink:type="simple"><text fill="#4051B5" font-family="'Roboto'" font-size="13" lengthAdjust="spacing" textLength="203.8042" x="249.0566" y="152.731">Contact &amp; Location Information</text></a><path d="M192.0566,111.748 L192.0566,111.9349 L194.0566,111.3798 L196.0566,111.9199 L198.0566,112.1033 L200.0566,111.1139 L202.0566,111.748 L202.0566,111.748 L202.038,111.719 L203.7357,112.7285 L205.5273,113.8846 L207.3841,115.1428 L209.016,116.0495 L210.9629,117.4484 L211.1842,117.556 L211.9297,119.8342 L213.3213,122.4263 L214.7918,125.0568 L215.8036,127.4644 L217.0566,129.9893 L217.0839,130.0025 L218.2626,132.4912 L219.5655,135.0403 L220.8085,137.5602 L222.1658,140.1357 L223.1504,142.5301 L223.3112,142.7813 L225.0944,143.9244 L226.7739,144.9056 L228.6052,146.1239 L230.4436,147.3533 L232.0566,148.2305 L232.0566,147.5894 L234.0566,148.8336 L236.0566,147.9669 L238.0566,148.705 L240.0566,147.7904 L242.0566,148.2305" fill="none" style="stroke:#FF6F00;stroke-width:1;"/><a href="/use-case/legal-entity-management/compliance-and-documentation/" target="_top" title="/use-case/legal-entity-management/compliance-and-documentation/" xlink:actuate="onRequest" xlink:href="/use-case/legal-entity-management/compliance-and-documentation/" xlink:show="new" xlink:title="/use-case/legal-entity-management/compliance-and-documentation/" xlink:type="simple"><text fill="#4051B5" font-family="'Roboto'" font-size="13" lengthAdjust="spacing" textLength="195.1396" x="249.0566" y="177.8638">Compliance &amp; Documentation</text></a><a href="/use-case/legal-entity-management/compliance-and-documentation/compliance/" target="_top" title="/use-case/legal-entity-management/compliance-and-documentation/compliance/" xlink:actuate="onRequest" xlink:href="/use-case/legal-entity-management/compliance-and-documentation/compliance/" xlink:show="new" xlink:title="/use-case/legal-entity-management/compliance-and-documentation/compliance/" xlink:type="simple"><text fill="#4051B5" font-family="'Roboto'" font-size="13" lengthAdjust="spacing" textLength="76.521" x="509.3286" y="150.2974">Compliance</text></a><path d="M452.3286,173.3633 L452.3286,173.5501 L454.3286,172.995 L456.3286,173.5351 L458.3286,173.7186 L460.3286,172.7292 L462.3286,173.3633 L462.3286,173.3633 L462.3136,173.3322 L464.0273,172.3312 L465.8169,171.4869 L467.6592,170.7517 L469.3198,169.6409 L471.2349,169.056 L471.4418,169.1891 L472.218,167.0093 L473.5984,165.2181 L475.0526,163.4743 L476.0778,161.4546 L477.3286,159.5801 L477.3541,159.5965 L478.5354,157.6772 L479.8328,155.8326 L481.0743,153.952 L482.4226,152.1401 L483.4224,150.1041 L483.5522,150.3726 L485.3351,149.5145 L487.0341,148.4831 L488.8558,147.7053 L490.6832,146.9393 L492.3286,145.7969 L492.3286,145.1558 L494.3286,146.4 L496.3286,145.5333 L498.3286,146.2714 L500.3286,145.3569 L502.3286,145.7969" fill="none" style="stroke:#FF6F00;stroke-width:1;"/><polygon fill="#4051B5" points="506.3286,168.3633,506.3286,168.5735,516.3568,167.949,526.385,168.5566,536.4132,168.763,546.4415,167.6499,556.4697,168.2856,566.4979,167.9368,576.5261,167.9798,586.5543,168.2951,596.5825,168.3633,596.4943,168.1504,597.2188,168.7681,597.6335,168.6378,598.2543,169.0053,598.9004,169.4336,599.4109,169.5349,599.3845,169.5239,599.6663,170.1092,599.8697,170.6621,600.1689,171.2547,600.4218,171.8281,600.5825,172.3633,600.7777,172.3633,600.8062,177.7898,600.8089,183.2164,600.6674,188.643,600.737,194.0695,600.5825,199.4961,600.7988,199.5857,600.1261,199.9698,600.3228,200.714,599.7883,201.1553,599.8097,201.8269,599.4109,202.3245,599.3478,202.1721,598.8365,202.5377,598.3742,203.0215,597.7077,203.0125,597.1616,203.2942,596.5825,203.4961,596.5825,203.8347,586.5543,203.9123,576.5261,203.4922,566.4979,203.7833,556.4697,202.9237,546.4415,203.7805,536.4132,204.0443,526.385,203.9406,516.3568,204.1091,506.3286,203.4961,506.267,203.3473,505.6797,203.0609,505.118,202.8361,504.624,202.775,504.0408,202.4983,503.5002,202.3245,503.71,202.4114,503.2121,201.7366,502.9259,201.1494,502.8675,200.6566,502.3576,199.9767,502.3286,199.4961,502.1556,199.4961,502.5449,194.0695,502.4738,188.643,502.5734,183.2164,502.2213,177.7898,502.3286,172.3633,502.4269,172.404,502.7448,171.8729,502.6518,171.1716,503.002,170.654,503.3047,170.1166,503.5002,169.5349,503.5833,169.7356,504.0653,169.2992,504.6906,169.2087,505.1266,168.6614,505.6765,168.389,506.3286,168.3633" style="stroke:#FF6F00;stroke-width:1.5;"/><a href="/use-case/legal-entity-management/compliance-and-documentation/documents/" target="_top" title="/use-case/legal-entity-management/compliance-and-documentation/documents/" xlink:actuate="onRequest" xlink:href="/use-case/legal-entity-management/compliance-and-documentation/documents/" xlink:show="new" xlink:title="/use-case/legal-entity-management/compliance-and-documentation/documents/" xlink:type="simple"><text fill="#4051B5" font-family="'Roboto'" font-size="13" lengthAdjust="spacing" textLength="74.1216" x="512.3286" y="190.4302">Documents</text></a><path d="M452.3286,173.3633 L452.3286,173.5501 L454.3286,172.995 L456.3286,173.5351 L458.3286,173.7186 L460.3286,172.7292 L462.3286,173.3633 L462.3286,173.3633 L462.3153,173.3314 L465.2554,174.4451 L468.2628,175.7194 L471.3169,177.1053 L474.2099,178.1064 L477.3286,179.6465 L477.4237,179.8734 L480.2204,180.6448 L483.2947,182.0787 L486.4028,183.5935 L489.3139,184.6379 L492.3286,185.9297 L492.3286,185.9903 L494.3286,185.9013 L496.3286,186.0884 L498.3286,186.1423 L500.3286,186.4503 L502.3286,185.9297" fill="none" style="stroke:#FF6F00;stroke-width:1;"/><path d="M192.0566,111.748 L192.0566,111.9349 L194.0566,111.3798 L196.0566,111.9199 L198.0566,112.1033 L200.0566,111.1139 L202.0566,111.748 L202.0566,111.748 L202.0313,111.7246 L203.6987,113.5448 L205.494,115.4833 L207.3782,117.5039 L208.9561,119.2413 L210.9629,121.3754 L211.1968,121.4518 L211.3411,123.2621 L212.1684,125.2954 L213.079,127.3559 L213.5048,129.258 L214.1855,131.2435 L214.2149,131.251 L214.746,133.5024 L215.4109,135.7879 L216.0112,138.0569 L216.7347,140.3573 L217.0566,142.5557 L217.3457,142.629 L217.9235,144.8924 L218.3148,147.1084 L218.979,149.3937 L219.656,151.6822 L219.9277,153.8678 L219.623,153.7683 L220.8589,155.9351 L221.0915,157.7742 L222.0869,159.8623 L222.2967,161.694 L223.1504,163.7359 L223.128,163.7152 L225.1736,165.8852 L226.697,167.5721 L228.5285,169.5441 L230.3859,171.54 L232.0566,173.3633 L232.0566,173.7333 L234.0566,173.3598 L236.0566,173.6186 L238.0566,172.8545 L240.0566,173.6161 L242.0566,173.3633" fill="none" style="stroke:#FF6F00;stroke-width:1;"/><a href="/use-case/legal-entity-management/supporting-information/" target="_top" title="/use-case/legal-entity-management/supporting-information/" xlink:actuate="onRequest" xlink:href="/use-case/legal-entity-management/supporting-information/" xlink:show="new" xlink:title="/use-case/legal-entity-management/supporting-information/" xlink:type="simple"><text fill="#4051B5" font-family="'Roboto'" font-size="13" lengthAdjust="spacing" textLength="151.106" x="249.0566" y="202.9966">Supporting Information</text></a><path d="M192.0566,111.748 L192.0566,111.9349 L194.0566,111.3798 L196.0566,111.9199 L198.0566,112.1033 L200.0566,111.1139 L202.0566,111.748 L202.0566,111.748 L202.0278,111.7291 L203.6795,114.3548 L205.4767,117.0762 L207.3751,119.864 L208.9248,122.4228 L210.9629,125.3024 L211.2026,125.358 L211.3345,128.0178 L212.1663,130.8399 L213.0835,133.6818 L213.5039,136.4084 L214.1855,139.1957 L214.2154,139.2011 L214.7458,142.3784 L215.4121,145.5803 L216.0128,148.7704 L216.7386,151.983 L217.0566,155.1221 L217.3502,155.175 L217.928,158.3609 L218.3165,161.5127 L218.9821,164.7145 L219.6607,167.9186 L219.9277,171.0485 L219.6155,170.976 L220.866,173.8953 L221.0884,176.576 L222.0924,179.438 L222.2915,182.1133 L223.1504,184.9417 L223.1249,184.925 L225.2071,187.8336 L226.6948,190.3516 L228.5333,193.1 L230.4012,195.8679 L232.0566,198.4961 L232.0566,198.8661 L234.0566,198.4926 L236.0566,198.7514 L238.0566,197.9873 L240.0566,198.7489 L242.0566,198.4961" fill="none" style="stroke:#FF6F00;stroke-width:1;"/><!--SRC=[xLZRRjiu47tNLt0RODkYTHEdQL4KHL77kJIj4mTsqiMYA09QecmYDAcILBBPnVxx3YNHkjYIBKVkja3yb92ZCsU6bncU3qfZgQUKUrCSECvl7l4f9sZ_-EgqSt9srUtt-WCK_RRsTbwrHw-o9iF3Rl_ie3FuCx5RO7BUwNxk71_EWEPC-eE3mq7M3zho_TV-pixCvAX_Tf4pY4pCRsRI6GpwV-HjB8gZhYaFiCHJDCBkzLYAa7jTmOH4MrfYhc2ES9qn-tWN4Caelqwi4iREOqIvoqAF83qXQ4muaPYXsNSA-M0z4dho734wdcY4kOSyBA_XIosGk27oLb9Dq2tLanY3tX2E5D6Qyh4gvkJYuqdtyzdXS8ZQi30Yq5HmD05GWwBXGnypHJB4px7d0H3QoumDud0ba4LlCkF32VR4hR4keip2l-HUz0T9J38s1yJ78TFe7-T8S7s6fmGz6WY8NJoAHkBCfGiN3GxftmIrzvn_iqWTASKju2pyOZ6ClcEG8y6yF580gul79E4qz-b-OV5pEzpP5nA2JMOoMn9Sf1wuyEh0vxR-QXvSCGq4X-q8RjOal91TdBDmodRpEVEmnYEiICFkSZvS9a9lemu4OyGrfqCrxYRrqWK3ATW6FUmRI2plDkZYa6kgD-c0SasaZrsoGHz3yZqat2NdKBYeImFCTGnsCQ7kDITAmOMPcgl471XblwWaDmUzW6V69hsMk91Jp8fpS-7qg4zwSBEMWiyCAcb6b-SSU3HQYXpDBYGLpQGvVEbqN2ta4WQHIQalCrjsW1-ZxXuoMOCY1FziBVrbpxo40u_vc95txw1QAS7VluVr7SBc8q930Ikj7atLXUAEAzRi_1MLeKl-0f8SiwlcUHVQiGsGLtTAa-clb-lcUMyerxOW_ngfJjd-UfdER9DHKdXZreN6E1z5rCFkBE_sregzEh2um7XOJOYtIgmBGtN1COQw8bUD5VhrwgsqWKYhbx3sCyG-uDAONiRrfmylCacXf_SI7FE0Ivx2KRElK0jDGwLDNquGzY5KwxFmBCXuIvwcfM-Sp5krZ6IsbKYJKUZTuU6kbxTPYokzrfAEGatA-u1vhXKFc5otZvLQZrMLWyVeD5aN5H2N-jI5-AFM0PReTc9UrHhk8EW_bLdGQF6Uen4B2QmTvyGq8Wg9K9lf-ITTmsnJV9plgU0XxpoxGb-_ekrGaPOBT-Ss8sFCMYJgp5jJpE4DEuN_jb7FJDYM_NGsWRvzSvwj2WBHmXYa2vltKGjphoN9c2ejeu5jT98pGB-ZGMQwbYjNo430TwGrDb87nz1pRyEpAHb5nxFHMh3Y5cuhDQ51HDx50TLW1mn3LuSIFFIj0P3lnjFGLYRJjLpvrD2ZC4UvRqvVdA8ZEunEqk5Qm0owUVVEPIIAmHpSKC7wsb4WFep6QkORhd9NHv1C90kS8zwDBG2-byol7O4H9XWrYnVvyuGRcl6P8piBlWwoSx6JHhoaapc7iOC6yEr_i38sX7eBei80jhgHylBBC9oD5zF_WS2TPgNN3tabjZdTyYTM26snN54Up9el0AWX3DhlYXU_JLhsThTASgKKU5_0AkMl2cEUmHfQNpq7Awbxzu6irFFg0g-YuAsFMQ7PhGzQgjAj3rcbowsFkX4bpj8fqU0iizhocmrWaVPcGSjaDyifqnfRk3crpM8LXBQS_LALRUQmgA_DqFFIMkOWhQMIbT-iTNRB_EBVLmNxqRoMo1V_Mvf-1buhQrC_cCrFbQH6PINBesOqfQmh9QJs9ZMZfYCfvByfJMXjKMT1lMnCqCaY5Mh9l8wJApEBCbTiGLVGRie9B8KiqLVkWVYWg3meAW-AoeEYieAYSixW0N1vsaDmJ9GnQB_OtTbzzQBT7X6DspjFBlarXzCGFRufx1fDf-Ify-Jul8UK22NamZCdrronyFbJvnE-mMWGScFt5lK3mZyTVBO3SA_SK2cuOUvy-dAQ6hpUQ-rJ3Qyb2KJGbrF7rgX3xWgZnxn5bnT7hJTE3ofk2C6_HOH3OG5SUGTpm_y0]--></g></svg>