<svg xmlns="http://www.w3.org/2000/svg" xmlns:xlink="http://www.w3.org/1999/xlink" contentStyleType="text/css" data-diagram-type="MINDMAP" height="157px" preserveAspectRatio="none" style="width:1107px;height:157px;" version="1.1" viewBox="0 0 1107 157" width="1107px" zoomAndPan="magnify"><defs/><g><a href="/use-case/construction-project-quotations/knowledge-capture-and-improvement/" target="_top" title="/use-case/construction-project-quotations/knowledge-capture-and-improvement/" xlink:actuate="onRequest" xlink:href="/use-case/construction-project-quotations/knowledge-capture-and-improvement/" xlink:show="new" xlink:title="/use-case/construction-project-quotations/knowledge-capture-and-improvement/" xlink:type="simple"><text fill="#90EE90" font-family="'Roboto'" font-size="14" lengthAdjust="spacing" textLength="335.207" x="371.6855" y="82.4404">Knowledge Capture &amp; Continuous Improvement</text></a><a href="/use-case/construction-project-quotations/knowledge-capture-and-improvement/sme-knowledge-capture/" target="_top" title="/use-case/construction-project-quotations/knowledge-capture-and-improvement/sme-knowledge-capture/" xlink:actuate="onRequest" xlink:href="/use-case/construction-project-quotations/knowledge-capture-and-improvement/sme-knowledge-capture/" xlink:show="new" xlink:title="/use-case/construction-project-quotations/knowledge-capture-and-improvement/sme-knowledge-capture/" xlink:type="simple"><text fill="#90EE90" font-family="'Roboto'" font-size="14" lengthAdjust="spacing" textLength="171.6436" x="772.3428" y="27.9951">SME Knowledge Capture</text></a><path d="M715.3428,77.5938 L715.3428,77.7806 L717.3428,77.2255 L719.3428,77.7656 L721.3428,77.949 L723.3428,76.9596 L725.3428,77.5938 L725.3428,77.5938 L725.3189,77.5688 L726.9931,75.7553 L728.7875,74.0677 L730.6656,72.4676 L732.2555,70.5659 L734.249,69.0867 L734.483,69.1629 L735.2014,65.2568 L736.6029,61.5732 L738.0878,57.9168 L739.0878,54.1024 L740.3428,50.3711 L740.3716,50.3805 L741.548,46.6236 L742.8557,42.9094 L744.1001,39.1747 L745.4653,35.4792 L746.4365,31.6555 L746.6425,31.8712 L748.4263,30.1724 L750.0772,28.3345 L751.9226,26.7003 L753.7771,25.0755 L755.3428,23.1484 L755.3428,22.5074 L757.3428,23.7516 L759.3428,22.8849 L761.3428,23.6229 L763.3428,22.7084 L765.3428,23.1484" fill="none" style="stroke:#FF9900;stroke-width:1;"/><a href="/use-case/construction-project-quotations/knowledge-capture-and-improvement/document-ingestion-and-knowledge-extraction/" target="_top" title="/use-case/construction-project-quotations/knowledge-capture-and-improvement/document-ingestion-and-knowledge-extraction/" xlink:actuate="onRequest" xlink:href="/use-case/construction-project-quotations/knowledge-capture-and-improvement/document-ingestion-and-knowledge-extraction/" xlink:show="new" xlink:title="/use-case/construction-project-quotations/knowledge-capture-and-improvement/document-ingestion-and-knowledge-extraction/" xlink:type="simple"><text fill="#90EE90" font-family="'Roboto'" font-size="14" lengthAdjust="spacing" textLength="314.2891" x="772.3428" y="54.292">Document Ingestion &amp; Knowledge Extraction</text></a><path d="M715.3428,77.5938 L715.3428,77.7806 L717.3428,77.2255 L719.3428,77.7656 L721.3428,77.949 L723.3428,76.9596 L725.3428,77.5938 L725.3428,77.5938 L725.3275,77.5628 L727.0401,76.5442 L728.8298,75.6816 L730.6731,74.9277 L732.3317,73.7997 L734.249,73.1956 L734.4572,73.3267 L735.2307,71.1111 L736.6121,69.2783 L738.0677,67.4922 L739.0918,65.4344 L740.3428,63.5195 L740.3684,63.5357 L741.5495,61.5768 L742.8474,59.6914 L744.089,57.7706 L745.438,55.9174 L746.4365,53.8435 L746.5686,54.1109 L748.3514,53.2346 L750.0491,52.1857 L751.8715,51.3893 L753.6997,50.6048 L755.3428,49.4453 L755.3428,48.8043 L757.3428,50.0484 L759.3428,49.1818 L761.3428,49.9198 L763.3428,49.0053 L765.3428,49.4453" fill="none" style="stroke:#FF9900;stroke-width:1;"/><a href="/use-case/construction-project-quotations/knowledge-capture-and-improvement/traceability-and-provenance/" target="_top" title="/use-case/construction-project-quotations/knowledge-capture-and-improvement/traceability-and-provenance/" xlink:actuate="onRequest" xlink:href="/use-case/construction-project-quotations/knowledge-capture-and-improvement/traceability-and-provenance/" xlink:show="new" xlink:title="/use-case/construction-project-quotations/knowledge-capture-and-improvement/traceability-and-provenance/" xlink:type="simple"><text fill="#90EE90" font-family="'Roboto'" font-size="14" lengthAdjust="spacing" textLength="184.2217" x="772.3428" y="80.5889">Traceability &amp; Provenance</text></a><path d="M715.3428,77.5938 L715.3428,77.7806 L717.3428,77.2255 L719.3428,77.7656 L721.3428,77.949 L723.3428,76.9596 L725.3428,77.5938 L725.3428,77.5938 L725.3406,77.5593 L728.3311,77.2194 L731.3323,77.0533 L734.3409,77.008 L737.3238,76.5464 L740.3428,76.668 L740.3579,76.9136 L743.3255,76.2032 L746.3374,76.2099 L749.3546,76.3041 L752.3404,75.8893 L755.3428,75.7422 L755.3428,75.8028 L757.3428,75.7138 L759.3428,75.9009 L761.3428,75.9548 L763.3428,76.2628 L765.3428,75.7422" fill="none" style="stroke:#FF9900;stroke-width:1;"/><polygon fill="#4051B5" points="769.3428,98.8906,769.3428,99.1008,779.4855,98.4763,789.6281,99.0839,799.7708,99.2903,809.9135,98.1772,820.0562,98.8129,830.1989,98.4641,840.3416,98.5071,850.4842,98.8225,860.6269,98.1993,870.7696,99.4443,880.9123,98.2603,891.055,98.6929,901.1976,99.3226,911.3403,98.8048,921.483,98.9589,931.6257,98.8587,941.7684,99.0692,951.9111,99.1298,962.0537,99.4763,972.1964,99.5617,982.3391,99.5699,992.4818,99.1453,1002.6245,99.3542,1012.7672,99.5929,1022.9098,98.1694,1033.0525,99.5691,1043.1952,98.5941,1053.3379,98.8906,1053.406,99.055,1053.8404,98.9725,1054.4605,99.3382,1055.1295,99.822,1055.5944,99.8129,1056.1663,100.0622,1056.1987,100.0756,1056.5049,100.6711,1056.7631,101.2467,1056.8681,101.7588,1057.192,102.3616,1057.3379,102.8906,1057.1471,102.8906,1057.4327,108.55,1057.5206,114.2094,1057.4861,119.8688,1057.5422,125.5281,1057.3379,131.1875,1057.1891,131.1259,1056.9027,131.67,1056.6779,132.2396,1056.6168,132.877,1056.3401,133.4252,1056.1663,134.0159,1056.2532,134.2258,1055.5784,134.1964,1054.9912,134.3789,1054.4984,134.7892,1053.8185,134.7478,1053.3379,135.1875,1053.3379,134.6684,1043.1952,135.8365,1033.0525,135.6232,1022.9098,135.922,1012.7672,134.8657,1002.6245,135.5067,992.4818,135.7779,982.3391,134.7151,972.1964,135.0916,962.0537,135.3135,951.9111,135.8393,941.7684,135.1833,931.6257,135.6501,921.483,134.6337,911.3403,134.5102,901.1976,135.6911,891.055,134.4706,880.9123,135.6965,870.7696,135.3941,860.6269,134.9196,850.4842,134.8337,840.3416,135.6463,830.1989,134.8882,820.0562,135.7794,809.9135,134.6348,799.7708,135.8049,789.6281,135.6718,779.4855,135.4325,769.3428,135.1875,769.3488,135.202,768.8698,135.177,768.2897,134.9078,767.6673,134.5367,767.1142,134.3328,766.5143,134.0159,766.4742,133.9993,766.5007,133.5416,766.0934,132.9043,765.8645,132.3409,765.3897,131.6756,765.3428,131.1875,765.2077,131.1875,765.5197,125.5281,765.486,119.8688,765.3285,114.2094,765.2354,108.55,765.3428,102.8906,765.2754,102.8627,765.3658,102.2374,765.9391,101.8122,766.2735,101.2879,766.4421,100.695,766.5143,100.0622,766.603,100.2762,767.0626,99.7858,767.6568,99.6204,768.162,99.2399,768.8133,99.2124,769.3428,98.8906" style="stroke:#FF6F00;stroke-width:1.5;"/><a href="/use-case/construction-project-quotations/knowledge-capture-and-improvement/estimate-vs-actual-and-lessons-learned/" target="_top" title="/use-case/construction-project-quotations/knowledge-capture-and-improvement/estimate-vs-actual-and-lessons-learned/" xlink:actuate="onRequest" xlink:href="/use-case/construction-project-quotations/knowledge-capture-and-improvement/estimate-vs-actual-and-lessons-learned/" xlink:show="new" xlink:title="/use-case/construction-project-quotations/knowledge-capture-and-improvement/estimate-vs-actual-and-lessons-learned/" xlink:type="simple"><text fill="#90EE90" font-family="'Roboto'" font-size="14" lengthAdjust="spacing" textLength="267.5449" x="775.3428" y="121.8857">Estimate vs Actual &amp; Lessons Learned</text></a><path d="M715.3428,77.5938 L715.3428,77.7806 L717.3428,77.2255 L719.3428,77.7656 L721.3428,77.949 L723.3428,76.9596 L725.3428,77.5938 L725.3428,77.5938 L725.3231,77.5653 L727.0162,78.6705 L728.8083,79.9189 L730.6693,81.2668 L732.2929,82.2717 L734.249,83.7571 L734.4735,83.8579 L735.2123,86.3541 L736.6064,89.1448 L738.0804,91.9714 L739.0893,94.5889 L740.3428,97.3164 L740.3704,97.3288 L741.5486,100.0225 L742.8526,102.7727 L744.096,105.4956 L745.4552,108.2706 L746.4365,110.8757 L746.6062,111.121 L748.3896,112.3566 L750.0634,113.4341 L751.8975,114.7432 L753.7391,116.063 L755.3428,117.0391 L755.3428,116.398 L757.3428,117.6422 L759.3428,116.7755 L761.3428,117.5136 L763.3428,116.599 L765.3428,117.0391" fill="none" style="stroke:#FF9900;stroke-width:1;"/><a href="/use-case/construction-project-quotations/" target="_top" title="/use-case/construction-project-quotations/" xlink:actuate="onRequest" xlink:href="/use-case/construction-project-quotations/" xlink:show="new" xlink:title="/use-case/construction-project-quotations/" xlink:type="simple"><text fill="#90EE90" font-family="'Roboto'" font-size="14" lengthAdjust="spacing" textLength="289.2354" x="14" y="82.4404">Complex Construction Project Quotations</text></a><path d="M364.6855,77.5938 L364.6855,77.7806 L362.6855,77.2255 L360.6855,77.7656 L358.6855,77.949 L356.6855,76.9596 L354.6855,77.5938 L354.6855,77.5938 L354.6855,77.5592 L348.6855,77.4042 L342.6855,77.4233 L336.6855,77.5635 L330.6855,77.2865 L324.6855,77.5938 L324.6855,78.0859 L322.6855,77.0335 L320.6855,77.418 L318.6855,77.9777 L316.6855,77.5175 L314.6855,77.5938" fill="none" style="stroke:#FF9900;stroke-width:1;"/><!--SRC=[xLXjJzj84FxkNp5NfADLpmtXe6fHLH52e41ukGGgdQeARUn9ieUzc-wkGxdJ_VSRst7iE2ya8Uv11Ly0xxFFF3DUx-uykzemPNmkN9_rBEiN5zjS8EmTNfzMZiwkg-VrymP4FsjR6zlbrdOMqgnLpy_sAuq_1xW9a8jAzQHoM1iIZK7E6_krHZOEhBNRRziR6qF8mVdPvGWWWeG_bgLlkEWnnNneCUUcesGWtAhqf4g0HZ6X2O72PC2VxdgewbpSPB6mvl5ErtGKeh2iTU32yG8NmNGHEYXGCG-651hQDB4bJVStYAO14owuJDtGJ2D1zb7TAcuGRhdfnXoyZm8q6iD5H-ShSFdfg7foLciseKolGVOCbmAwH1go69hOPfx6J0uNp7M92BOopnfn_eh4mhlCysQNkV8sHETPeafuL8ahuKP_u02ImUnZcmMUWN-i0odC6VCHNZGavIvVH4_Y8gQlANhOv7yZbBUiVxDC5QNaBV5Cd36PnjnvL2FfkQDCFNhTh8C3JMDJztAhOMGzMtjIKRA3aSm2f11f127THUX75lfy4HpfzwIWbKbXbXGyKLrSiy3tDaThvZB3MapZYiEDn70y6RY51f2UXqxuTUYLXqcZL0cWf5TWXBsGagcx0aFKXE6co01S65Hjvc21CPhuBK3Xu0KTKzpXFIPCJ7RPvSwDGArfmqpXUW0dHTaPCyMDKK_GcS6asvAGocTUVcmidJfl8nqsE9Ly29WfCzeynyYZfrEPez69egAHj8Q_MnN7I7MFWWWoDLOuEkq3NeVg5eHLeqE8_bcxzoVxpIlwu9deUFZX0vrMMegF7-dzDcdneJHqW4qzFLPrBkHNNFxC7jsYCdBnEuaKpBjUlUxSvQi0yVfE6_IVNgrNhxkWMYS7yjCeTQhswLKwiqnQWuCtLfsx68zc4TrXD-w_xIsL- -p4uWF6PRgBxZovJapLeS2CpXKrRwvqNv-zb0h8TFOhp1xjXfb9DusafKo39-rXnHZ5Mu71yQ6igAJXp5racTO5Hrk7qxZn1jr3XxUvGqd6H-HO7pA_ZdjJO-b5OktWuFrx6iyDPkzMblNw6hvyWLAWqNRe-o_Hij961T4btEuf-HUjEFjR8EdzXDVoqesGjnwwdH3UCu52czfOc_i4xQDF_Ku9JX88L6C8_1hTkRa8PA3XACN2rw_MwzKhq3xQOwWID4zh4xGL8y6LJX3-OTFxHXtnX91q8cspYaK1Ih0_0CDH0gQAfKfhGsX1OaDwP2tkKKSH3KP3Wj5LkmINcK6ITJ4SYiMiMakOlqzxWTtNDYKTC2-2UBHUYO1-CoNGBK5jW8E-Xag48t7r64M_8rIeqBONB1SjLR_duVTmoGw1OTeX4FuO0aFoNQGlFB7NTaVTjWBjgqTi52Nxr9mkKHO-WM01VsYuGKxPIYTld3CSeOSIpZA0Pd6CArZ2ybaim5mcpqCePzewYnBFO-Gippd3kbcUTAfPippbB7jcUTP239b4pXGh9b6si0kJ9339Wab8fxalYQQCxpAywkLDbuGhvxUCuEyrMuO1ypRBa7tKOSbyI4kP9TDtraLMo_ZBVwWPygDrtTF5_czbUWowvhOeVh2QHrMabReBYOu5ivcgUgQJK2xIEbXr9hdw_zJMm7F__zp_F_V_Frl_V-7HxVJgj0vzkW65SyflDZSsjz-KooqqhBpnyag4wOkeC-IqRLC2-CfwUNXH1oq3HHLrkOxt4fh-oZfcVGQDG8Iu7JZleJZUFqaUK4_HvqgAi6ZMyUVJ5F1sozxZXgxoYeJ0vrChwTnhmf6XMR03LvS7zZkhJiT1G7tq3g2WVfnurHsDDVy3]--></g></svg>