<svg xmlns="http://www.w3.org/2000/svg" xmlns:xlink="http://www.w3.org/1999/xlink" contentStyleType="text/css" data-diagram-type="MINDMAP" height="172px" preserveAspectRatio="none" style="width:854px;height:172px;" version="1.1" viewBox="0 0 854 172" width="854px" zoomAndPan="magnify"><defs/><g><polygon fill="#4051B5" points="347.708,67.832,347.708,68.0422,357.5818,67.4177,367.4555,68.0253,377.3293,68.2317,387.2031,67.1186,397.0768,67.7543,406.9506,67.4055,416.8243,67.4485,426.6981,67.7639,436.5719,67.1407,446.4456,68.3857,456.3194,67.2018,466.1932,67.6343,476.0669,68.264,485.9407,67.7463,495.8145,67.832,495.8232,67.853,496.3761,68.0565,496.9686,68.3556,497.542,68.6086,498.1519,68.9497,498.6429,69.0036,498.8495,69.0892,499.0864,69.6559,499.1899,70.1675,499.4886,70.7598,499.7964,71.3559,499.8145,71.832,499.5741,71.832,500.0406,77.2586,499.7156,82.6852,499.9924,88.1117,499.6494,93.5383,499.8145,98.9648,499.7934,98.9561,499.8085,99.6251,499.3308,100.09,499.1439,100.6753,498.9815,101.2708,498.6429,101.7933,498.696,101.9215,498.0767,102.0264,497.5481,102.3504,496.8728,102.3199,496.4164,102.8181,495.8145,102.9648,495.8145,103.513,485.9407,103.4094,476.0669,103.5779,466.1932,102.4818,456.3194,102.3127,446.4456,102.3434,436.5719,102.906,426.6981,102.7683,416.8243,103.6463,406.9506,102.7902,397.0768,102.6218,387.2031,103.1931,377.3293,102.298,367.4555,102.4457,357.5818,103.6138,347.708,102.9648,347.7636,103.099,347.236,102.9567,346.5356,102.3971,346.0517,102.3602,345.5206,102.2094,344.8796,101.7933,344.7341,101.733,344.6157,101.2154,344.4497,100.678,344.3774,100.1794,343.941,99.53,343.708,98.9648,343.8622,98.9648,343.5234,93.5383,343.4823,88.1117,343.8759,82.6852,343.469,77.2586,343.708,71.832,343.8647,71.897,344.006,71.2927,344.0941,70.6665,344.302,70.0898,344.7865,69.6278,344.8796,69.0036,344.8414,68.9114,345.5208,68.9516,345.9404,68.3648,346.6554,68.4908,347.2041,68.2155,347.708,67.832" style="stroke:#FF6F00;stroke-width:1.5;"/><a href="/use-case/construction-project-quotations/estimating-and-pricing/" target="_top" title="/use-case/construction-project-quotations/estimating-and-pricing/" xlink:actuate="onRequest" xlink:href="/use-case/construction-project-quotations/estimating-and-pricing/" xlink:show="new" xlink:title="/use-case/construction-project-quotations/estimating-and-pricing/" xlink:type="simple"><text fill="#4051B5" font-family="'Roboto'" font-size="13" lengthAdjust="spacing" textLength="131.9741" x="353.708" y="89.8989">Estimating &amp; Pricing</text></a><a href="/use-case/construction-project-quotations/estimating-and-pricing/quantity-takeoff/" target="_top" title="/use-case/construction-project-quotations/estimating-and-pricing/quantity-takeoff/" xlink:actuate="onRequest" xlink:href="/use-case/construction-project-quotations/estimating-and-pricing/quantity-takeoff/" xlink:show="new" xlink:title="/use-case/construction-project-quotations/estimating-and-pricing/quantity-takeoff/" xlink:type="simple"><text fill="#4051B5" font-family="'Roboto'" font-size="13" lengthAdjust="spacing" textLength="192.4165" x="556.8145" y="27.0669">Quantity Takeoff (2D/3D/BIM)</text></a><path d="M499.8145,85.3984 L499.8145,85.5853 L501.8145,85.0302 L503.8145,85.5702 L505.8145,85.7537 L507.8145,84.7643 L509.8145,85.3984 L509.8145,85.3984 L509.7889,85.3752 L511.4553,83.3076 L513.2507,81.3569 L515.1358,79.4876 L516.7119,77.338 L518.7207,75.5809 L518.955,75.656 L519.0985,73.4829 L519.9261,71.5289 L520.8371,69.6017 L521.2625,67.519 L521.9434,65.518 L521.9728,65.5253 L522.5038,63.2074 L523.1688,60.9229 L523.7692,58.6223 L524.4928,56.3524 L524.8145,53.9824 L525.1039,54.0545 L525.6816,51.7482 L526.0727,49.3955 L526.737,47.1108 L527.4142,44.8293 L527.6855,42.4469 L527.3803,42.3491 L528.6173,40.5262 L528.8491,38.3815 L529.8451,36.4814 L530.0541,34.3294 L530.9082,32.3839 L530.8857,32.3635 L532.9336,30.6419 L534.4547,28.4424 L536.2866,26.5249 L538.1447,24.631 L539.8145,22.5664 L539.8145,22.9364 L541.8145,22.5629 L543.8145,22.8217 L545.8145,22.0576 L547.8145,22.8192 L549.8145,22.5664" fill="none" style="stroke:#FF6F00;stroke-width:1;"/><a href="/use-case/construction-project-quotations/estimating-and-pricing/unit-rates-and-cost-libraries/" target="_top" title="/use-case/construction-project-quotations/estimating-and-pricing/unit-rates-and-cost-libraries/" xlink:actuate="onRequest" xlink:href="/use-case/construction-project-quotations/estimating-and-pricing/unit-rates-and-cost-libraries/" xlink:show="new" xlink:title="/use-case/construction-project-quotations/estimating-and-pricing/unit-rates-and-cost-libraries/" xlink:type="simple"><text fill="#4051B5" font-family="'Roboto'" font-size="13" lengthAdjust="spacing" textLength="175.043" x="556.8145" y="52.1997">Unit Rates &amp; Cost Libraries</text></a><path d="M499.8145,85.3984 L499.8145,85.5853 L501.8145,85.0302 L503.8145,85.5702 L505.8145,85.7537 L507.8145,84.7643 L509.8145,85.3984 L509.8145,85.3984 L509.7954,85.3696 L511.4911,84.0622 L513.2829,82.9001 L515.1415,81.8389 L516.7699,80.4297 L518.7207,79.5079 L518.9434,79.6126 L519.686,76.7969 L521.0787,74.2869 L522.5507,71.8142 L523.5612,69.1244 L524.8145,66.5488 L524.8419,66.5617 L526.0204,63.951 L527.3238,61.3989 L528.5669,58.8186 L529.925,56.2923 L530.9082,53.5897 L531.0727,53.8385 L532.856,52.6634 L534.5331,51.3279 L536.3656,50.2273 L538.2054,49.1376 L539.8145,47.6992 L539.8145,47.0582 L541.8145,48.3023 L543.8145,47.4357 L545.8145,48.1737 L547.8145,47.2592 L549.8145,47.6992" fill="none" style="stroke:#FF6F00;stroke-width:1;"/><a href="/use-case/construction-project-quotations/estimating-and-pricing/labor-productivity-and-crew-modeling/" target="_top" title="/use-case/construction-project-quotations/estimating-and-pricing/labor-productivity-and-crew-modeling/" xlink:actuate="onRequest" xlink:href="/use-case/construction-project-quotations/estimating-and-pricing/labor-productivity-and-crew-modeling/" xlink:show="new" xlink:title="/use-case/construction-project-quotations/estimating-and-pricing/labor-productivity-and-crew-modeling/" xlink:type="simple"><text fill="#4051B5" font-family="'Roboto'" font-size="13" lengthAdjust="spacing" textLength="233.1938" x="556.8145" y="77.3325">Labor Productivity &amp; Crew Modeling</text></a><path d="M499.8145,85.3984 L499.8145,85.5853 L501.8145,85.0302 L503.8145,85.5702 L505.8145,85.7537 L507.8145,84.7643 L509.8145,85.3984 L509.8145,85.3984 L509.8011,85.3666 L512.7412,83.967 L515.7486,82.7279 L518.8027,81.6006 L521.6957,80.0885 L524.8145,79.1152 L524.9095,79.3422 L527.7062,77.6002 L530.7805,76.5209 L533.8886,75.5224 L536.7997,74.0535 L539.8145,72.832 L539.8145,72.8927 L541.8145,72.8036 L543.8145,72.9907 L545.8145,73.0446 L547.8145,73.3526 L549.8145,72.832" fill="none" style="stroke:#FF6F00;stroke-width:1;"/><a href="/use-case/construction-project-quotations/estimating-and-pricing/indirects-overheads-general-conditions/" target="_top" title="/use-case/construction-project-quotations/estimating-and-pricing/indirects-overheads-general-conditions/" xlink:actuate="onRequest" xlink:href="/use-case/construction-project-quotations/estimating-and-pricing/indirects-overheads-general-conditions/" xlink:show="new" xlink:title="/use-case/construction-project-quotations/estimating-and-pricing/indirects-overheads-general-conditions/" xlink:type="simple"><text fill="#4051B5" font-family="'Roboto'" font-size="13" lengthAdjust="spacing" textLength="277.6338" x="556.8145" y="102.4653">Indirects, Overheads &amp; General Conditions</text></a><path d="M499.8145,85.3984 L499.8145,85.5853 L501.8145,85.0302 L503.8145,85.5702 L505.8145,85.7537 L507.8145,84.7643 L509.8145,85.3984 L509.8145,85.3984 L509.8011,85.3666 L512.7412,86.4802 L515.7486,87.7545 L518.8027,89.1404 L521.6957,90.1416 L524.8145,91.6816 L524.9095,91.9086 L527.7062,92.6799 L530.7805,94.1139 L533.8886,95.6286 L536.7997,96.673 L539.8145,97.9648 L539.8145,98.0255 L541.8145,97.9364 L543.8145,98.1235 L545.8145,98.1774 L547.8145,98.4855 L549.8145,97.9648" fill="none" style="stroke:#FF6F00;stroke-width:1;"/><a href="/use-case/construction-project-quotations/estimating-and-pricing/contingency-and-escalation/" target="_top" title="/use-case/construction-project-quotations/estimating-and-pricing/contingency-and-escalation/" xlink:actuate="onRequest" xlink:href="/use-case/construction-project-quotations/estimating-and-pricing/contingency-and-escalation/" xlink:show="new" xlink:title="/use-case/construction-project-quotations/estimating-and-pricing/contingency-and-escalation/" xlink:type="simple"><text fill="#4051B5" font-family="'Roboto'" font-size="13" lengthAdjust="spacing" textLength="166.5308" x="556.8145" y="127.5981">Contingency &amp; Escalation</text></a><path d="M499.8145,85.3984 L499.8145,85.5853 L501.8145,85.0302 L503.8145,85.5702 L505.8145,85.7537 L507.8145,84.7643 L509.8145,85.3984 L509.8145,85.3984 L509.7954,85.3696 L511.4911,86.4184 L513.2829,87.6125 L515.1415,88.9075 L516.7699,89.8545 L518.7207,91.2889 L518.9434,91.3936 L519.686,93.7616 L521.0787,96.4352 L522.5507,99.1461 L523.5612,101.64 L524.8145,104.248 L524.8419,104.261 L526.0204,106.8338 L527.3238,109.4655 L528.5669,112.0687 L529.925,114.7261 L530.9082,117.2072 L531.0727,117.4559 L532.856,118.6371 L534.5331,119.6577 L536.3656,120.9133 L538.2054,122.1799 L539.8145,123.0977 L539.8145,122.4566 L541.8145,123.7008 L543.8145,122.8341 L545.8145,123.5722 L547.8145,122.6576 L549.8145,123.0977" fill="none" style="stroke:#FF6F00;stroke-width:1;"/><a href="/use-case/construction-project-quotations/estimating-and-pricing/pricing-strategy-margin-markups/" target="_top" title="/use-case/construction-project-quotations/estimating-and-pricing/pricing-strategy-margin-markups/" xlink:actuate="onRequest" xlink:href="/use-case/construction-project-quotations/estimating-and-pricing/pricing-strategy-margin-markups/" xlink:show="new" xlink:title="/use-case/construction-project-quotations/estimating-and-pricing/pricing-strategy-margin-markups/" xlink:type="simple"><text fill="#4051B5" font-family="'Roboto'" font-size="13" lengthAdjust="spacing" textLength="222.4854" x="556.8145" y="152.731">Pricing Strategy (Margin/Markups)</text></a><path d="M499.8145,85.3984 L499.8145,85.5853 L501.8145,85.0302 L503.8145,85.5702 L505.8145,85.7537 L507.8145,84.7643 L509.8145,85.3984 L509.8145,85.3984 L509.7889,85.3752 L511.4553,87.2346 L513.2507,89.2109 L515.1358,91.2686 L516.7119,93.046 L518.7207,95.2159 L518.955,95.291 L519.0985,97.1431 L519.9261,99.2143 L520.8371,101.3123 L521.2625,103.2547 L521.9434,105.2789 L521.9728,105.2862 L522.5038,107.5826 L523.1688,109.9123 L523.7692,112.2259 L524.4928,114.5702 L524.8145,116.8145 L525.1039,116.8865 L525.6816,119.1945 L526.0727,121.456 L526.737,123.7856 L527.4142,126.1183 L527.6855,128.35 L527.3803,128.2523 L528.6173,130.4546 L528.8491,132.335 L529.8451,134.4601 L530.0541,136.3333 L530.9082,138.413 L530.8857,138.3925 L532.9336,140.5979 L534.4547,142.3254 L536.2866,144.3349 L538.1447,146.3681 L539.8145,148.2305 L539.8145,148.6005 L541.8145,148.227 L543.8145,148.4858 L545.8145,147.7217 L547.8145,148.4833 L549.8145,148.2305" fill="none" style="stroke:#FF6F00;stroke-width:1;"/><a href="/use-case/construction-project-quotations/" target="_top" title="/use-case/construction-project-quotations/" xlink:actuate="onRequest" xlink:href="/use-case/construction-project-quotations/" xlink:show="new" xlink:title="/use-case/construction-project-quotations/" xlink:type="simple"><text fill="#4051B5" font-family="'Roboto'" font-size="13" lengthAdjust="spacing" textLength="268.5757" x="14" y="89.8989">Complex Construction Project Quotations</text></a><path d="M343.708,85.3984 L343.708,85.5853 L341.708,85.0302 L339.708,85.5702 L337.708,85.7537 L335.708,84.7643 L333.708,85.3984 L333.708,85.3984 L333.708,85.3639 L327.708,85.2089 L321.708,85.228 L315.708,85.3681 L309.708,85.0912 L303.708,85.3984 L303.708,85.8906 L301.708,84.8382 L299.708,85.2226 L297.708,85.7824 L295.708,85.3222 L293.708,85.3984" fill="none" style="stroke:#FF6F00;stroke-width:1;"/><!--SRC=[xLZ_RzCu5FyzVuMFISSGXAvZ88GGeklA6BJhhjqudH2QtCHjVKtiOZihutJ_-pqxIPkaIVfbAGVIzal1_lYzptjs_Fm-RwN2GlcKkJwUMjPlBXbIHj3nwNMdSNP-tUoskpra_lQE3fxN1y-Ja7whsJq_QVJ-Yd0va8j6ysFZj3Ktj0JfzavQlQGVj3SSlXWU7CmXxxhdboc0WUY_EQJHwtN_J6DYAvQSK3R50ljeW9t9IF20kKtkSO7sbC1CmXnXAW5xVpibmgDi4g4YnjP3H9dZ1Iv1QapGY30Yi8VcwoGQ0dh0rVW9ykXeh11cBdAncC1AnH6_8M8cg29eHjKuj45l24EIA4NPI6PpSld-hFdnlDNlepfi39ygoXaQWr5jHS728VOaIH2_mAuBXj1HOgmNXYk0B7gP6E-FiSjd6fsrCW__Yhdc7oI2930dP8W3Jw5_h7USgNFi4_IWno5s_i2CX9bRR9mPxDFl1DMFh7-JbXf2y1dOoLsHRqRTUf0ZxhbfIrFONJmY4QUbfSUPpK-TSEkO2mWscaaSIN2nyC2ukudvrD5VpuF3_IbdS1p1pPQ4Szc5EGjyxp2TCnShFC2ILEmkvSFnUE3kr07tFEBehqDMxcRXfGa0mRqTUZZM9h6utQ6B5bDKxT81POg88NR83dtqoTU0C8TSGE6Y3frYfa9ZbsFgJ1YH4YxC1Ln6S62KN55ARibq3iy4Pd4jCIvyx6Ndbi9fqo5fmyrQQ7mEAALfBiybusQqqBAPpILbPXOvV6Or7CN52WO6KkXBpnPzm0zHymZfh44HWl_ihVnBVlC2FdZCHXvv_HggbUJipHlOtpuSFi8L5B32wb5LNSYUk6pDJbzH2Rha6v1asBkkddVcERO3yl9MAkB_UhckdlUESXqNv5yZrGkslrwc4yTa41NUa7NcOPoEmhnX3rQ_zhQAlJomiC2uM8w9kqwikQ4wu1X3NH7hnWhlzVAZj8D8oxTmupOaRk0MCJqBwqyNEZ91uKtlHdPq0nUrmkQnBv6D_40g_Iud20yXrDXdfYr8U8jQqy8U9z6h5f5CFYKMoSYytQ5nLwkVMVcLNYb11u4YnU-0PQub3KpgjO-bt8vLcOE7g1FjYvmIXmwf0_6RfmDiqMoikse5Tn2yFwNUKBDvJz302mZi7MD4FqGaue7IqyijNSLi5_Pn-aq5ZRpr67t-Z6g19BO3LsSDw4ab0jE_s5F1_mQkzjU0m-xgZgP6fA8-rWA13Qq_8E1ToKOrr9gFez_HHJYAldon7Z- -hiJ1rm2RPi5MU4BuS5X3VqGZw38SGVk79xLd9xNZiywZAZq7Z2fRmE6MPjZXKjaU7GWiA94rT0NJgAUd8V0cJA9sF5ab2myFkD1uLo-zqPamR0IPsJwS6i_iGbkZ8FqBb2O56DI9C5LoWa-0wijSsbfC6XFiIZlIeI1DC1ckHcSnxecvummGU9r6abLp3gsId2ujy0kjLfWf8XticIKrqpn7Sy2ZDP-fqd_qQyDQE1oZMzl7OaIP_fa4KyXA_97q8m3QxnX4hHCYp26sxGtPG6p-r2FVT8npe3uH6WZVJ0pKnjyIkCDYgVLjMdcjJgVyYHN1k3YkAGScuJa6DX02utNPYpvEMl8sZvNZKkdlhWRBbBuo6yiCjj3sDdEmbfft5vEb-jscXjTHxBQtMQBHRM-qK9NRtcIP3hUzrPqeRp6T0iqjPhQnt1O7aAUrnKQBPBQOK-8f79jRKjTYMnbXBOLVgQhD7MRrjBdrj9IM-92sKiMARzPDJilovjzLzVhHl5R85VzRcdu6NcjhKJ-OpK-Lf4fbf9Z7Xj4KiYwLZEgxr8YgZYIJ_weqeAr5d9nwMPc0axIKgINBkasgpEHbBli4NKEhAIQmqcI1dd87Y_SAohs2Sg-Wt2ieEGhAXGUVqrMdZM27f5vJVtfuSFZyQRq-80hN3_Qls8Jn6JFDDeKR6Q8cZwpzquisaZmGq9cuL8PNAYn_P7t0DnZr0gPnhr1tIjY7au_n0BHfDrHmvciLviEdpWBmuiW-XY-gJmGGGPywLboJMipXMdzvXQuktzalhJPKs02Fm3PXK4Z0hhY5kVv_]--></g></svg>