<svg xmlns="http://www.w3.org/2000/svg" xmlns:xlink="http://www.w3.org/1999/xlink" contentStyleType="text/css" data-diagram-type="MINDMAP" height="179px" preserveAspectRatio="none" style="width:907px;height:179px;" version="1.1" viewBox="0 0 907 179" width="907px" zoomAndPan="magnify"><defs/><g><polygon fill="#4051B5" points="368.6855,70.7422,368.6855,70.9524,378.5966,70.3279,388.5076,70.9355,398.4186,71.1419,408.3296,70.0288,418.2406,70.6645,428.1516,70.3157,438.0626,70.3587,447.9736,70.674,457.8846,70.0508,467.7957,71.2958,477.7067,70.1119,487.6177,70.5444,497.5287,71.1741,507.4397,70.6564,517.3507,70.8104,527.2617,70.7422,527.2576,70.7323,527.8502,71.0315,528.4236,71.2845,529.0335,71.6255,529.6101,71.8861,530.0901,71.9138,530.2993,72.0004,530.4029,72.5119,530.7015,73.1043,531.0093,73.7004,530.8053,74.0845,531.2617,74.7422,531.4879,74.7422,531.1629,80.4016,531.4397,86.0609,531.0967,91.7203,531.2389,97.3797,531.2617,103.0391,531.4901,103.1337,531.0124,103.5985,530.8255,104.1839,530.6631,104.7793,530.4526,105.3549,530.0901,105.8675,530.0896,105.8663,529.5611,106.1903,528.8858,106.1598,528.4294,106.658,527.8973,106.9736,527.2617,107.0391,527.2617,107.4836,517.3507,107.6521,507.4397,106.556,497.5287,106.3869,487.6177,106.4177,477.7067,106.9802,467.7957,106.8425,457.8846,107.7205,447.9736,106.8644,438.0626,106.696,428.1516,107.2673,418.2406,106.3722,408.3296,106.5199,398.4186,107.688,388.5076,107.4747,378.5966,107.7736,368.6855,107.0391,368.6445,106.94,368.1606,106.903,367.6295,106.7523,366.9282,106.1906,366.4106,106.0723,365.8571,105.8675,365.8959,105.8836,365.8235,105.3849,365.3872,104.7356,365.2966,104.2294,364.7493,103.5341,364.6855,103.0391,364.4598,103.0391,364.8534,97.3797,364.4466,91.7203,364.8552,86.0609,364.7544,80.4016,364.6855,74.7422,364.603,74.708,364.8109,74.1314,365.2955,73.6693,365.2963,73.0069,365.8051,72.5549,365.8571,71.9138,365.7866,71.7435,366.5016,71.8696,367.0503,71.5943,367.5854,71.2863,368.1259,70.991,368.6855,70.7422" style="stroke:#FF6F00;stroke-width:1.5;"/><a href="/use-case/construction-project-quotations/estimating-and-pricing/" target="_top" title="/use-case/construction-project-quotations/estimating-and-pricing/" xlink:actuate="onRequest" xlink:href="/use-case/construction-project-quotations/estimating-and-pricing/" xlink:show="new" xlink:title="/use-case/construction-project-quotations/estimating-and-pricing/" xlink:type="simple"><text fill="#90EE90" font-family="'Roboto'" font-size="14" lengthAdjust="spacing" textLength="142.126" x="374.6855" y="93.7373">Estimating &amp; Pricing</text></a><a href="/use-case/construction-project-quotations/estimating-and-pricing/quantity-takeoff/" target="_top" title="/use-case/construction-project-quotations/estimating-and-pricing/quantity-takeoff/" xlink:actuate="onRequest" xlink:href="/use-case/construction-project-quotations/estimating-and-pricing/quantity-takeoff/" xlink:show="new" xlink:title="/use-case/construction-project-quotations/estimating-and-pricing/quantity-takeoff/" xlink:type="simple"><text fill="#90EE90" font-family="'Roboto'" font-size="14" lengthAdjust="spacing" textLength="207.2178" x="588.2617" y="27.9951">Quantity Takeoff (2D/3D/BIM)</text></a><path d="M531.2617,88.8906 L531.2617,89.0775 L533.2617,88.5223 L535.2617,89.0624 L537.2617,89.2459 L539.2617,88.2565 L541.2617,88.8906 L541.2617,88.8906 L541.2356,88.868 L542.8998,86.712 L544.6954,84.6701 L546.5826,82.7075 L548.1546,80.4716 L550.168,78.6184 L550.4033,78.6904 L550.5446,76.4306 L551.373,74.3811 L552.2851,72.3572 L552.7096,70.184 L553.3906,68.0894 L553.4201,68.0964 L553.951,65.6721 L554.6163,63.2798 L555.2167,60.8721 L555.9407,58.4937 L556.2617,56.0195 L556.5519,56.0886 L557.1296,53.6754 L557.5203,51.2178 L558.1848,48.8253 L558.8622,46.4359 L559.1328,43.9497 L558.8263,43.8559 L560.0657,41.9321 L560.2959,39.6995 L561.2933,37.7017 L561.5006,35.4621 L562.3555,33.4207 L562.3325,33.4007 L564.3858,31.5821 L565.9016,29.2976 L567.7346,27.288 L569.5942,25.3015 L571.2617,23.1484 L571.2617,23.5184 L573.2617,23.145 L575.2617,23.4037 L577.2617,22.6396 L579.2617,23.4012 L581.2617,23.1484" fill="none" style="stroke:#FF9900;stroke-width:1;"/><a href="/use-case/construction-project-quotations/estimating-and-pricing/unit-rates-and-cost-libraries/" target="_top" title="/use-case/construction-project-quotations/estimating-and-pricing/unit-rates-and-cost-libraries/" xlink:actuate="onRequest" xlink:href="/use-case/construction-project-quotations/estimating-and-pricing/unit-rates-and-cost-libraries/" xlink:show="new" xlink:title="/use-case/construction-project-quotations/estimating-and-pricing/unit-rates-and-cost-libraries/" xlink:type="simple"><text fill="#90EE90" font-family="'Roboto'" font-size="14" lengthAdjust="spacing" textLength="188.5078" x="588.2617" y="54.292">Unit Rates &amp; Cost Libraries</text></a><path d="M531.2617,88.8906 L531.2617,89.0775 L533.2617,88.5223 L535.2617,89.0624 L537.2617,89.2459 L539.2617,88.2565 L541.2617,88.8906 L541.2617,88.8906 L541.2421,88.8622 L542.9351,87.5021 L544.7272,86.2851 L546.5882,85.1677 L548.2119,83.7073 L550.168,82.7273 L550.3924,82.8282 L551.1312,79.9006 L552.5253,77.2675 L553.9993,74.6704 L555.0082,71.8642 L556.2617,69.168 L556.2894,69.1804 L557.4675,66.4503 L558.7716,63.7768 L560.0149,61.0759 L561.3742,58.4272 L562.3555,55.6086 L562.5252,55.8539 L564.3085,54.6242 L565.9824,53.2364 L567.8165,52.0801 L569.6581,50.9346 L571.2617,49.4453 L571.2617,48.8043 L573.2617,50.0484 L575.2617,49.1818 L577.2617,49.9198 L579.2617,49.0053 L581.2617,49.4453" fill="none" style="stroke:#FF9900;stroke-width:1;"/><a href="/use-case/construction-project-quotations/estimating-and-pricing/labor-productivity-and-crew-modeling/" target="_top" title="/use-case/construction-project-quotations/estimating-and-pricing/labor-productivity-and-crew-modeling/" xlink:actuate="onRequest" xlink:href="/use-case/construction-project-quotations/estimating-and-pricing/labor-productivity-and-crew-modeling/" xlink:show="new" xlink:title="/use-case/construction-project-quotations/estimating-and-pricing/labor-productivity-and-crew-modeling/" xlink:type="simple"><text fill="#90EE90" font-family="'Roboto'" font-size="14" lengthAdjust="spacing" textLength="251.1318" x="588.2617" y="80.5889">Labor Productivity &amp; Crew Modeling</text></a><path d="M531.2617,88.8906 L531.2617,89.0775 L533.2617,88.5223 L535.2617,89.0624 L537.2617,89.2459 L539.2617,88.2565 L541.2617,88.8906 L541.2617,88.8906 L541.2479,88.859 L544.1856,87.4022 L547.1933,86.1048 L550.2496,84.9183 L553.1384,83.3498 L556.2617,82.3164 L556.3605,82.5418 L559.1493,80.745 L562.2264,79.6062 L565.3388,78.5477 L568.2464,77.0221 L571.2617,75.7422 L571.2617,75.8028 L573.2617,75.7138 L575.2617,75.9009 L577.2617,75.9548 L579.2617,76.2628 L581.2617,75.7422" fill="none" style="stroke:#FF9900;stroke-width:1;"/><a href="/use-case/construction-project-quotations/estimating-and-pricing/indirects-overheads-general-conditions/" target="_top" title="/use-case/construction-project-quotations/estimating-and-pricing/indirects-overheads-general-conditions/" xlink:actuate="onRequest" xlink:href="/use-case/construction-project-quotations/estimating-and-pricing/indirects-overheads-general-conditions/" xlink:show="new" xlink:title="/use-case/construction-project-quotations/estimating-and-pricing/indirects-overheads-general-conditions/" xlink:type="simple"><text fill="#90EE90" font-family="'Roboto'" font-size="14" lengthAdjust="spacing" textLength="298.9902" x="588.2617" y="106.8857">Indirects, Overheads &amp; General Conditions</text></a><path d="M531.2617,88.8906 L531.2617,89.0775 L533.2617,88.5223 L535.2617,89.0624 L537.2617,89.2459 L539.2617,88.2565 L541.2617,88.8906 L541.2617,88.8906 L541.2479,88.859 L544.1856,90.0319 L547.1933,91.3642 L550.2496,92.8074 L553.1384,93.8686 L556.2617,95.4648 L556.3605,95.6902 L559.1493,96.5231 L562.2264,98.014 L565.3388,99.5852 L568.2464,100.6893 L571.2617,102.0391 L571.2617,102.0997 L573.2617,102.0107 L575.2617,102.1978 L577.2617,102.2516 L579.2617,102.5597 L581.2617,102.0391" fill="none" style="stroke:#FF9900;stroke-width:1;"/><a href="/use-case/construction-project-quotations/estimating-and-pricing/contingency-and-escalation/" target="_top" title="/use-case/construction-project-quotations/estimating-and-pricing/contingency-and-escalation/" xlink:actuate="onRequest" xlink:href="/use-case/construction-project-quotations/estimating-and-pricing/contingency-and-escalation/" xlink:show="new" xlink:title="/use-case/construction-project-quotations/estimating-and-pricing/contingency-and-escalation/" xlink:type="simple"><text fill="#90EE90" font-family="'Roboto'" font-size="14" lengthAdjust="spacing" textLength="179.3408" x="588.2617" y="133.1826">Contingency &amp; Escalation</text></a><path d="M531.2617,88.8906 L531.2617,89.0775 L533.2617,88.5223 L535.2617,89.0624 L537.2617,89.2459 L539.2617,88.2565 L541.2617,88.8906 L541.2617,88.8906 L541.2421,88.8622 L542.9351,89.9674 L544.7272,91.2158 L546.5882,92.5637 L548.2119,93.5686 L550.168,95.054 L550.3924,95.1548 L551.1312,97.651 L552.5253,100.4417 L553.9993,103.2682 L555.0082,105.8858 L556.2617,108.6133 L556.2894,108.6257 L557.4675,111.3193 L558.7716,114.0695 L560.0149,116.7924 L561.3742,119.5674 L562.3555,122.1726 L562.5252,122.4179 L564.3085,123.6535 L565.9824,124.731 L567.8165,126.04 L569.6581,127.3599 L571.2617,128.3359 L571.2617,127.6949 L573.2617,128.9391 L575.2617,128.0724 L577.2617,128.8104 L579.2617,127.8959 L581.2617,128.3359" fill="none" style="stroke:#FF9900;stroke-width:1;"/><a href="/use-case/construction-project-quotations/estimating-and-pricing/pricing-strategy-margin-markups/" target="_top" title="/use-case/construction-project-quotations/estimating-and-pricing/pricing-strategy-margin-markups/" xlink:actuate="onRequest" xlink:href="/use-case/construction-project-quotations/estimating-and-pricing/pricing-strategy-margin-markups/" xlink:show="new" xlink:title="/use-case/construction-project-quotations/estimating-and-pricing/pricing-strategy-margin-markups/" xlink:type="simple"><text fill="#90EE90" font-family="'Roboto'" font-size="14" lengthAdjust="spacing" textLength="239.5996" x="588.2617" y="159.4795">Pricing Strategy (Margin/Markups)</text></a><path d="M531.2617,88.8906 L531.2617,89.0775 L533.2617,88.5223 L535.2617,89.0624 L537.2617,89.2459 L539.2617,88.2565 L541.2617,88.8906 L541.2617,88.8906 L541.2356,88.868 L542.8998,90.8209 L544.6954,92.8879 L546.5826,95.0341 L548.1546,96.9071 L550.168,99.1628 L550.4033,99.2349 L550.5446,101.1867 L551.373,103.3487 L552.2851,105.5364 L552.7096,107.5749 L553.3906,109.6919 L553.4201,109.6989 L553.951,112.1025 L554.6163,114.5382 L555.2167,116.9584 L555.9407,119.408 L556.2617,121.7617 L556.5519,121.8307 L557.1296,124.2456 L557.5203,126.6158 L558.1848,129.0513 L558.8622,131.4898 L559.1328,133.8316 L558.8263,133.7378 L560.0657,136.0256 L560.2959,138.0046 L561.2933,140.2184 L561.5006,142.1904 L562.3555,144.3606 L562.3325,144.3407 L564.3858,146.631 L565.9016,148.4553 L567.7346,150.5546 L569.5942,152.677 L571.2617,154.6328 L571.2617,155.0028 L573.2617,154.6293 L575.2617,154.8881 L577.2617,154.124 L579.2617,154.8856 L581.2617,154.6328" fill="none" style="stroke:#FF9900;stroke-width:1;"/><a href="/use-case/construction-project-quotations/" target="_top" title="/use-case/construction-project-quotations/" xlink:actuate="onRequest" xlink:href="/use-case/construction-project-quotations/" xlink:show="new" xlink:title="/use-case/construction-project-quotations/" xlink:type="simple"><text fill="#90EE90" font-family="'Roboto'" font-size="14" lengthAdjust="spacing" textLength="289.2354" x="14" y="93.7373">Complex Construction Project Quotations</text></a><path d="M364.6855,88.8906 L364.6855,89.0775 L362.6855,88.5223 L360.6855,89.0624 L358.6855,89.2459 L356.6855,88.2565 L354.6855,88.8906 L354.6855,88.8906 L354.6855,88.8561 L348.6855,88.7011 L342.6855,88.7202 L336.6855,88.8603 L330.6855,88.5833 L324.6855,88.8906 L324.6855,89.3828 L322.6855,88.3304 L320.6855,88.7148 L318.6855,89.2746 L316.6855,88.8144 L314.6855,88.8906" fill="none" style="stroke:#FF9900;stroke-width:1;"/><!--SRC=[xLXjJniv4Fw-ly9Nf0D4jo4KghQgAa8854W8bq2bKrKXPtUI-B9h1ziBfQVxxpVUbsIpUI49cnwSo9S5-_7CC-FnsxElD9NQPzprQT-oVdEXpJYGW-FhMkda_BfShzOR9FojxMxl5LjxQKYpKgwV7vOQVyQu2P2BKlciT5mP61g3r1k7bKRQ3rbhjz-rjxS7aAFw-UK888IOdsMf7kDzAgbFMjJfTQG8k5iMdf09K4lA5IA0wnJuotqVP9NnNXfBrZpMwUgE1E2MjKuOTxp01QAxG3h0GLAF34meqiQ1BQ6xhqauZ53k4fVA7exKWeXRa7UIQI1tJ7SZ6-mME56WDUCTbSt0vPUJyjbvfTaaHPm6qTTCSD95eyQAne5jwYb8nN11NHSDaTrKMoEANo9PyZxLtknILzmPTDPAc0aFCt75tV0FY24fp26qQU1fyhTr9BW-fpwGLms1iOjNOKkKnE4qXOrDzXD8STVw9ssf9AMuGpiJHqmse-yzp97mt55BVPnkse6OqzZGWqmrZDIpTI0a1Xltf0eGNGmzSE4kOdwaqEVpu0Y_BpXM9hfPal14Tb7E0j_R6SsPIpLjKGKvknlnuNWYS5VgG7WUE6PrgDpT3BsK4I25jq8F1yOabVShT57XckbLEc1SWsnJ1rReemat0N07Bl2OOWxhKwuZOvTTvlGuA8KRvX2kOZWoIe-OIMxCz0IUASnmM-92-jJBzes5KsLjmCC6fXeV06RI33VFCUDXwrJBOUz4Kc7FC8TlhPAZXNo0GGYPwilqJbl0wwIyIqpMy132VzOU_ANNlCG5Jtd7Wq-VyBHIWd_-ZFFRnE83eV40ctfwv7KkP2ikUsQFRb4fkl03INBgNUVFEtFvMW5vTQyq-Cylr_dpNb6kamFvUQHwoFRvPJfL9gtuu8rOPox6er64TzZjXszxIyK-Ex3eW76fwe8xJwmJGtNGCSLpHSuRAzxNPvVI2YATFONferrJFUccaJmfXywJvs59QybQWORnhZIfvC6PkSXIfLRiRPtKeeStKNrmM9iv66HqH8wzG-RdyM1eT7YHM3iw-l01-pETwRkLPMsHRzz88L1WExZy2rXLIiiWl8FRVId-meApRmA1qsDkvGLGcldKF79jVBuY0kz6l5CWbK4x-PrSHAta-tThQ-iw5mSt0GqllBQcFH3jTe7y4RUGowY5REmS5juU5WvEQfjvUWuuqxR4wbHXioEKjZtMabGoK0LoXTsaOReny39sachIcISBZxQ4D7ZN3BqrcGZPIBYpVImYBvo5ga5X-eSeGmenf1PZykI4vStCXgHi8uXqWRhAZhKKJ1DsHgF9IO9xJUe947aTnx9BUG3DavpP7l6BpuKeKw0SweL32k43CEv37fL1Jvx-uw-DOx4uElUsJsM7SVFf1NtCIh98cZ60RDH2HA4M8S8Yjkq5sM1iVj-37oR60T1KX07Ycac0nlW-uFwKY8FxerhX2iMt9onp9Rlid1fN6Zx1m0Bgrc1xdt8GJDxsP-XPZpKuIxwQPMESmHA2rM8EvfAe7cDofYYrgE5vPAZbRSuGdfOtEbLgMjxaB75fUQihaPCIEbE4f8JPmXfI4i0a0IanEaqxIZYbLAF1HJKh6IMsCchH2Fv1gMZWC2iI3QoFwaEfXRIKr3DzPrsaMiOd_x5Ipg_czS0R_3zBqrFWDRV0yelPFAaavQgD93mMZ6OgwvawI76LmaVUaMJo_xyMDbxKYnVruaMzU54ldf9wSU7XShggLGdEa39ZYczsjdVstXIBBT2qkBrnnNjStF7mNSlmqC6eOTFQEBwe4YK2YOy0bwbe9yJXczOflQMa4N23-qZgVU2dXsT90xw8RfaKt3VQn-dNsX3mRjS-m1NL18b4oDUQbUWE5Uu88tLy95UNH_Pxgug7MK0xQ1kuLSQzKyjxx6l-2m00]--></g></svg>