<svg xmlns="http://www.w3.org/2000/svg" xmlns:xlink="http://www.w3.org/1999/xlink" contentStyleType="text/css" data-diagram-type="MINDMAP" height="157px" preserveAspectRatio="none" style="width:592px;height:157px;" version="1.1" viewBox="0 0 592 157" width="592px" zoomAndPan="magnify"><defs/><g><a href="/use-case/client-360/" target="_top" title="/use-case/client-360/" xlink:actuate="onRequest" xlink:href="/use-case/client-360/" xlink:show="new" xlink:title="/use-case/client-360/" xlink:type="simple"><text fill="#90EE90" font-family="'Roboto'" font-size="14" lengthAdjust="spacing" textLength="71.7021" x="17" y="82.4404">Client 360</text></a><a href="/use-case/client-360/relationships-and-connections/" target="_top" title="/use-case/client-360/relationships-and-connections/" xlink:actuate="onRequest" xlink:href="/use-case/client-360/relationships-and-connections/" xlink:show="new" xlink:title="/use-case/client-360/relationships-and-connections/" xlink:type="simple"><text fill="#90EE90" font-family="'Roboto'" font-size="14" lengthAdjust="spacing" textLength="200.1904" x="154.1523" y="82.4404">Relationships &amp; Connections</text></a><a href="/use-case/client-360/relationships-and-connections/business-connections/" target="_top" title="/use-case/client-360/relationships-and-connections/business-connections/" xlink:actuate="onRequest" xlink:href="/use-case/client-360/relationships-and-connections/business-connections/" xlink:show="new" xlink:title="/use-case/client-360/relationships-and-connections/business-connections/" xlink:type="simple"><text fill="#90EE90" font-family="'Roboto'" font-size="14" lengthAdjust="spacing" textLength="152.6943" x="419.793" y="27.9951">Business Connections</text></a><path d="M362.793,77.5938 L362.793,77.7806 L364.793,77.2255 L366.793,77.7656 L368.793,77.949 L370.793,76.9596 L372.793,77.5938 L372.793,77.5938 L372.7691,77.5688 L374.4433,75.7553 L376.2377,74.0677 L378.1158,72.4676 L379.7057,70.5659 L381.6992,69.0867 L381.9332,69.1629 L382.6516,65.2568 L384.0531,61.5732 L385.538,57.9168 L386.538,54.1024 L387.793,50.3711 L387.8218,50.3805 L388.9982,46.6236 L390.3059,42.9094 L391.5503,39.1747 L392.9155,35.4792 L393.8867,31.6555 L394.0927,31.8712 L395.8765,30.1724 L397.5274,28.3345 L399.3728,26.7003 L401.2273,25.0755 L402.793,23.1484 L402.793,22.5074 L404.793,23.7516 L406.793,22.8849 L408.793,23.6229 L410.793,22.7084 L412.793,23.1484" fill="none" style="stroke:#FF9900;stroke-width:1;"/><polygon fill="#4051B5" points="416.793,46.2969,416.793,46.5071,427.0425,45.8826,437.2921,46.4902,447.5416,46.6966,457.7911,45.5835,468.0407,46.2192,478.2902,45.8704,488.5398,45.9134,498.7893,46.2287,509.0389,45.6055,519.2884,46.8505,529.538,45.6666,539.7875,46.0991,550.037,46.7288,560.2866,46.2111,570.5361,46.2969,570.5448,46.3179,571.0977,46.5214,571.6903,46.8205,572.2637,47.0735,572.8736,47.4145,573.3646,47.4684,573.5712,47.554,573.8081,48.1208,573.9116,48.6323,574.2103,49.2246,574.5181,49.8208,574.5361,50.2969,574.2957,50.2969,574.7623,55.9563,574.4373,61.6156,574.7141,67.275,574.3711,72.9344,574.5361,78.5938,574.515,78.585,574.5302,79.254,574.0525,79.7189,573.8656,80.3042,573.7032,80.8997,573.3646,81.4222,573.4177,81.5504,572.7984,81.6553,572.2698,81.9793,571.5945,81.9488,571.1381,82.447,570.5361,82.5938,570.5361,83.1419,560.2866,83.0383,550.037,83.2068,539.7875,82.1107,529.538,81.9416,519.2884,81.9723,509.0389,82.5349,498.7893,82.3972,488.5398,83.2752,478.2902,82.4191,468.0407,82.2507,457.7911,82.822,447.5416,81.9269,437.2921,82.0746,427.0425,83.2427,416.793,82.5938,416.8485,82.7279,416.321,82.5856,415.6205,82.026,415.1366,81.9891,414.6055,81.8383,413.9645,81.4222,413.8191,81.3619,413.7007,80.8443,413.5347,80.3069,413.4623,79.8083,413.026,79.1589,412.793,78.5938,412.9472,78.5938,412.6084,72.9344,412.5672,67.275,412.9608,61.6156,412.554,55.9563,412.793,50.2969,412.9497,50.3618,413.0909,49.7575,413.1791,49.1313,413.387,48.5547,413.8715,48.0927,413.9645,47.4684,413.9264,47.3763,414.6057,47.4164,415.0254,46.8296,415.7404,46.9556,416.2891,46.6803,416.793,46.2969" style="stroke:#FF6F00;stroke-width:1.5;"/><a href="/use-case/client-360/relationships-and-connections/family-connections/" target="_top" title="/use-case/client-360/relationships-and-connections/family-connections/" xlink:actuate="onRequest" xlink:href="/use-case/client-360/relationships-and-connections/family-connections/" xlink:show="new" xlink:title="/use-case/client-360/relationships-and-connections/family-connections/" xlink:type="simple"><text fill="#90EE90" font-family="'Roboto'" font-size="14" lengthAdjust="spacing" textLength="137.293" x="422.793" y="69.292">Family Connections</text></a><path d="M362.793,77.5938 L362.793,77.7806 L364.793,77.2255 L366.793,77.7656 L368.793,77.949 L370.793,76.9596 L372.793,77.5938 L372.793,77.5938 L372.7791,77.5621 L375.7169,76.1053 L378.7245,74.808 L381.7808,73.6215 L384.6696,72.0529 L387.793,71.0195 L387.8917,71.2449 L390.6805,69.4481 L393.7577,68.3093 L396.87,67.2508 L399.7777,65.7252 L402.793,64.4453 L402.793,64.506 L404.793,64.4169 L406.793,64.604 L408.793,64.6579 L410.793,64.9659 L412.793,64.4453" fill="none" style="stroke:#FF9900;stroke-width:1;"/><a href="/use-case/client-360/relationships-and-connections/social-connections/" target="_top" title="/use-case/client-360/relationships-and-connections/social-connections/" xlink:actuate="onRequest" xlink:href="/use-case/client-360/relationships-and-connections/social-connections/" xlink:show="new" xlink:title="/use-case/client-360/relationships-and-connections/social-connections/" xlink:type="simple"><text fill="#90EE90" font-family="'Roboto'" font-size="14" lengthAdjust="spacing" textLength="132.4668" x="419.793" y="110.5889">Social Connections</text></a><path d="M362.793,77.5938 L362.793,77.7806 L364.793,77.2255 L366.793,77.7656 L368.793,77.949 L370.793,76.9596 L372.793,77.5938 L372.793,77.5938 L372.7777,77.5628 L374.4903,78.3034 L376.28,79.2002 L378.1233,80.2055 L379.7819,80.8368 L381.6992,81.9919 L381.9074,82.1231 L382.6809,83.7779 L384.0623,85.8155 L385.5179,87.8999 L386.542,89.7124 L387.793,91.668 L387.8186,91.6841 L388.9997,93.5956 L390.2976,95.5807 L391.5392,97.5302 L392.8882,99.5475 L393.8867,101.344 L394.0188,101.6114 L395.8016,102.4943 L397.4993,103.2047 L399.3217,104.1676 L401.1499,105.1424 L402.793,105.7422 L402.793,105.1011 L404.793,106.3453 L406.793,105.4786 L408.793,106.2167 L410.793,105.3022 L412.793,105.7422" fill="none" style="stroke:#FF9900;stroke-width:1;"/><a href="/use-case/client-360/relationships-and-connections/political-connections/" target="_top" title="/use-case/client-360/relationships-and-connections/political-connections/" xlink:actuate="onRequest" xlink:href="/use-case/client-360/relationships-and-connections/political-connections/" xlink:show="new" xlink:title="/use-case/client-360/relationships-and-connections/political-connections/" xlink:type="simple"><text fill="#90EE90" font-family="'Roboto'" font-size="14" lengthAdjust="spacing" textLength="145.291" x="419.793" y="136.8857">Political Connections</text></a><path d="M362.793,77.5938 L362.793,77.7806 L364.793,77.2255 L366.793,77.7656 L368.793,77.949 L370.793,76.9596 L372.793,77.5938 L372.793,77.5938 L372.7691,77.5688 L374.4433,79.1581 L376.2377,80.8733 L378.1158,82.6761 L379.7057,84.1772 L381.6992,86.1008 L381.9332,86.177 L382.6516,89.7572 L384.0531,93.5598 L385.538,97.3896 L386.538,101.0615 L387.793,104.8164 L387.8218,104.8258 L388.9982,108.5551 L390.3059,112.3272 L391.5503,116.0787 L392.9155,119.8695 L393.8867,123.532 L394.0927,123.7477 L395.8765,125.4517 L397.5274,127.0166 L399.3728,128.7852 L401.2273,130.5633 L402.793,132.0391 L402.793,131.398 L404.793,132.6422 L406.793,131.7755 L408.793,132.5136 L410.793,131.599 L412.793,132.0391" fill="none" style="stroke:#FF9900;stroke-width:1;"/><path d="M97.1523,77.5938 L97.1523,77.7806 L99.1523,77.2255 L101.1523,77.7656 L103.1523,77.949 L105.1523,76.9596 L107.1523,77.5938 L107.1523,77.5938 L107.1523,77.5592 L113.1523,77.4042 L119.1523,77.4233 L125.1523,77.5635 L131.1523,77.2865 L137.1523,77.5938 L137.1523,78.0859 L139.1523,77.0335 L141.1523,77.418 L143.1523,77.9777 L145.1523,77.5175 L147.1523,77.5938" fill="none" style="stroke:#FF9900;stroke-width:1;"/><!--SRC=[xLbjRzis4FwkNy4rmDgYSsEdIT06HH7RiTCcJcpOIO6XA09Qecp25AcHL39ls7_VIR9iIPRabrXTCjIV5FBut7F7btl9gT9OQeTooy6kOVnY4PjoWXhdTrVrBzTtpMwdsqV1R- -mUbGR7iL51grcz_gitlzz9fSXqgitB-ldhJdGaaYtVzRgn_MWFTi-jglLkKYxUtsJ40X4_9zXg0dbBfROGKDiJaPIUDng2YPa9AWbvWea2DSnuSzJbyWEvPEuBDfZT3JM8qa8DuoNY7AJUHP1UapGY70YCKDp28LiM3WKUlmR2fOXp2raOJc1bLeWSK_aWwIQe0Ugno46lISSAQ8rvIELzi3Dvo_Do-lMO81gi0t2rLHmD0PG7qN3GXipHM8szB1b0H0wZ8trG_iba4NlO-E3CRR4Wo-THWaymS0JjzmAFiXC92PpHcpiCOt-Djg2wsli4FIYBy1syI8O2PsusAPWS43_8gXsQFmJHwfBAHu09tD5DeoUCl2HO5OIoONjnYCouxIqj94w3OdpR3I416DdCx4322eM6hYmDe5F7FJrD9Z2SGM7ambgjYISoIxqcUUmWwJFBApn42koOtK97IOJdbMg0i4OCVtReNQkPg6b2G9Ii18rD7n8BASbgcXnJNMP2YZNHDhO92Ng690_FC9DqeCmHKtgOgv3i9inDIUSA0KFva9SpSI1KNn58Rabw0oUCPd5iyI5T31BposPqw4sWM13Si7d0eKqWyTp2JmOpKKEPZD91JCB7xupwgOMSWM3G2HNbp-RTu5VekOXyhq6GGZ-s5lvYzzv2HSUyn4Z7pz2j5A2V_e4-pk0mqU4XW2M6prs5HVI9ouTivDFL8mk-HD8SipkTiyxbNoLG5vDbIREy_FrxdcNvEie83yFLo_OFZzFnux9S1PuGzQfn3XfHP33LbTdUrlPNcnO660ihCR4MiVMJ5DDK8mXhiXrROLylVWebM1fyHR6Gxl6EYlJY4hAXVAeFAnhBUdGqsHvAaugAZXJYInMgcHjBz5LM7WZvHAJsjG48yCGkLI7hCzZfMbuaKZijTiVFi1yQZAUMnd6cplqxHlQznIfc73_zqr6eMYfl3kkxgDcy8tW6tt_Rhmf49M4uI1j7rDNLQ2mhS3nvBDKVX_ruzFeLpy3ZoP3vAsXXvwYlYr9VOtPQ8QYBVNOsA5icjJI3iPsQ8mI9iKigMGGZErGYIiOXOmshQSN3QTLdH8unL4BwJJPKIgnHVE4co7HNLop4n8Npm3Oe0SoVmHodelinw6Ww_5OmA8cHn76CeCjsXgRALYhaV4OoCBMnQR0wpGhjiSiQ4zi3vhRaDWUigW5iJrgAKs7Y4vEko5Yjd6d8J8WgyqGWUPr629EiTx2F9r9DnOYh5HF8I6_ig4mLvXk9SpHars4s4NQgY6G_x9kSbgMD_-n1V-FvhMYKllFtFGKUArTXlzWDa_AIJkje2CU6rgJoxgmMgwLMHxlsfAK___NvU_F6lTdZViyQzmUWmpizgg3xY7A-_-ehxqzg1uSlQtLXaJZMlNLBPzmyS23weV2qwIfGruRhyvx7QI49o5LjAWAxmiiVsrSu7kC-XxtvKvGroNyukmo6e2y-PvAmHs_GhxuUhKGE3wiDAY6T5K24VJroeYgqnOtXLyGdw3RctRblT619y-3Ml44GU7SX1kcvHJc1ly2]--></g></svg>