<svg xmlns="http://www.w3.org/2000/svg" xmlns:xlink="http://www.w3.org/1999/xlink" contentStyleType="text/css" data-diagram-type="MINDMAP" height="152px" preserveAspectRatio="none" style="width:561px;height:152px;" version="1.1" viewBox="0 0 561 152" width="561px" zoomAndPan="magnify"><defs/><g><a href="/use-case/client-360/" target="_top" title="/use-case/client-360/" xlink:actuate="onRequest" xlink:href="/use-case/client-360/" xlink:show="new" xlink:title="/use-case/client-360/" xlink:type="simple"><text fill="#4051B5" font-family="'Roboto'" font-size="13" lengthAdjust="spacing" textLength="66.5806" x="17" y="79.7661">Client 360</text></a><a href="/use-case/client-360/relationships-and-connections/" target="_top" title="/use-case/client-360/relationships-and-connections/" xlink:actuate="onRequest" xlink:href="/use-case/client-360/relationships-and-connections/" xlink:show="new" xlink:title="/use-case/client-360/relationships-and-connections/" xlink:type="simple"><text fill="#4051B5" font-family="'Roboto'" font-size="13" lengthAdjust="spacing" textLength="185.8911" x="148.7129" y="79.7661">Relationships &amp; Connections</text></a><a href="/use-case/client-360/relationships-and-connections/business-connections/" target="_top" title="/use-case/client-360/relationships-and-connections/business-connections/" xlink:actuate="onRequest" xlink:href="/use-case/client-360/relationships-and-connections/business-connections/" xlink:show="new" xlink:title="/use-case/client-360/relationships-and-connections/business-connections/" xlink:type="simple"><text fill="#4051B5" font-family="'Roboto'" font-size="13" lengthAdjust="spacing" textLength="141.7876" x="399.7363" y="27.0669">Business Connections</text></a><path d="M342.7363,75.2656 L342.7363,75.4525 L344.7363,74.8973 L346.7363,75.4374 L348.7363,75.6209 L350.7363,74.6315 L352.7363,75.2656 L352.7363,75.2656 L352.7129,75.2403 L354.3889,73.4796 L356.1831,71.8468 L358.0595,70.3028 L359.6527,68.4526 L361.6426,67.0314 L361.8758,67.1098 L362.5958,63.319 L363.9968,59.7572 L365.4808,56.2234 L366.4814,52.5269 L367.7363,48.916 L367.7651,48.9257 L368.9416,45.2884 L370.249,41.6952 L371.4933,38.0807 L372.858,34.5067 L373.8301,30.8007 L374.0325,31.0197 L375.8163,29.3755 L377.4694,27.5901 L379.3137,26.0114 L381.167,24.4424 L382.7363,22.5664 L382.7363,21.9254 L384.7363,23.1695 L386.7363,22.3028 L388.7363,23.0409 L390.7363,22.1264 L392.7363,22.5664" fill="none" style="stroke:#FF6F00;stroke-width:1;"/><polygon fill="#4051B5" points="396.7363,45.1328,396.7363,45.343,406.9948,44.7185,417.2533,45.3261,427.5118,45.5325,437.7702,44.4194,448.0287,45.0551,458.2872,44.7063,468.5457,44.7493,478.8041,45.0647,489.0626,44.4414,499.3211,45.6865,509.5796,44.5025,519.838,44.935,530.0965,45.5648,540.355,45.1328,540.344,45.1064,540.9294,45.3881,541.4823,45.5916,542.0748,45.8907,542.6482,46.1437,543.1834,46.3044,543.3638,46.3791,543.6244,46.9557,543.8612,47.5224,543.9648,48.0339,544.2634,48.6263,544.355,49.1328,544.5891,49.1328,544.1146,54.5594,544.5812,59.9859,544.2561,65.4125,544.5329,70.8391,544.355,76.2656,544.2025,76.2025,544.0996,76.8226,544.1147,77.4916,543.637,77.9565,543.4502,78.5418,543.1834,79.0941,543.2266,79.1983,542.6708,79.4565,542.0515,79.5615,541.523,79.8854,540.8476,79.855,540.355,80.2656,540.355,80.55,530.0965,80.8138,519.838,80.7102,509.5796,80.8786,499.3211,79.7825,489.0626,79.6134,478.8041,79.6442,468.5457,80.2067,458.2872,80.0691,448.0287,80.947,437.7702,80.0909,427.5118,79.9226,417.2533,80.4939,406.9948,79.5988,396.7363,80.2656,396.6701,80.1058,396.2534,80.2312,395.6605,79.9312,395.133,79.7889,394.4325,79.2293,393.9079,79.0941,394.0062,79.1348,393.8554,78.6037,393.2938,77.9024,393.1754,77.3848,393.0094,76.8474,392.7363,76.2656,392.9536,76.2656,392.7349,70.8391,392.8905,65.4125,392.5517,59.9859,392.5106,54.5594,392.7363,49.1328,392.8914,49.1971,392.7499,48.4757,393.3617,48.0664,393.5029,47.4621,393.5911,46.8359,393.9079,46.3044,393.8628,46.1954,394.5321,46.2114,395.0011,45.7436,395.6805,45.7837,396.1001,45.1969,396.7363,45.1328" style="stroke:#FF6F00;stroke-width:1.5;"/><a href="/use-case/client-360/relationships-and-connections/family-connections/" target="_top" title="/use-case/client-360/relationships-and-connections/family-connections/" xlink:actuate="onRequest" xlink:href="/use-case/client-360/relationships-and-connections/family-connections/" xlink:show="new" xlink:title="/use-case/client-360/relationships-and-connections/family-connections/" xlink:type="simple"><text fill="#4051B5" font-family="'Roboto'" font-size="13" lengthAdjust="spacing" textLength="127.4863" x="402.7363" y="67.1997">Family Connections</text></a><path d="M342.7363,75.2656 L342.7363,75.4525 L344.7363,74.8973 L346.7363,75.4374 L348.7363,75.6209 L350.7363,74.6315 L352.7363,75.2656 L352.7363,75.2656 L352.723,75.2338 L355.6631,73.8342 L358.6705,72.5951 L361.7246,71.4678 L364.6176,69.9556 L367.7363,68.9824 L367.8314,69.2094 L370.6281,67.4674 L373.7024,66.3881 L376.8105,65.3896 L379.7216,63.9207 L382.7363,62.6992 L382.7363,62.7599 L384.7363,62.6708 L386.7363,62.8579 L388.7363,62.9118 L390.7363,63.2198 L392.7363,62.6992" fill="none" style="stroke:#FF6F00;stroke-width:1;"/><a href="/use-case/client-360/relationships-and-connections/social-connections/" target="_top" title="/use-case/client-360/relationships-and-connections/social-connections/" xlink:actuate="onRequest" xlink:href="/use-case/client-360/relationships-and-connections/social-connections/" xlink:show="new" xlink:title="/use-case/client-360/relationships-and-connections/social-connections/" xlink:type="simple"><text fill="#4051B5" font-family="'Roboto'" font-size="13" lengthAdjust="spacing" textLength="123.0049" x="399.7363" y="107.3325">Social Connections</text></a><path d="M342.7363,75.2656 L342.7363,75.4525 L344.7363,74.8973 L346.7363,75.4374 L348.7363,75.6209 L350.7363,74.6315 L352.7363,75.2656 L352.7363,75.2656 L352.7213,75.2345 L354.4351,75.9564 L356.2246,76.8351 L358.0669,77.8227 L359.7275,78.4348 L361.6426,79.5729 L361.8495,79.706 L362.6257,81.3166 L364.0061,83.3157 L365.4603,85.3623 L366.4855,87.133 L367.7363,89.0488 L367.7618,89.0652 L368.9431,90.9363 L370.2406,92.8821 L371.482,94.7919 L372.8303,96.7704 L373.8301,98.5248 L373.9599,98.7933 L375.7428,99.658 L377.4418,100.3496 L379.2635,101.2946 L381.091,102.2516 L382.7363,102.832 L382.7363,102.191 L384.7363,103.4352 L386.7363,102.5685 L388.7363,103.3065 L390.7363,102.392 L392.7363,102.832" fill="none" style="stroke:#FF6F00;stroke-width:1;"/><a href="/use-case/client-360/relationships-and-connections/political-connections/" target="_top" title="/use-case/client-360/relationships-and-connections/political-connections/" xlink:actuate="onRequest" xlink:href="/use-case/client-360/relationships-and-connections/political-connections/" xlink:show="new" xlink:title="/use-case/client-360/relationships-and-connections/political-connections/" xlink:type="simple"><text fill="#4051B5" font-family="'Roboto'" font-size="13" lengthAdjust="spacing" textLength="134.9131" x="399.7363" y="132.4653">Political Connections</text></a><path d="M342.7363,75.2656 L342.7363,75.4525 L344.7363,74.8973 L346.7363,75.4374 L348.7363,75.6209 L350.7363,74.6315 L352.7363,75.2656 L352.7363,75.2656 L352.7129,75.2403 L354.3889,76.7733 L356.1831,78.4342 L358.0595,80.1839 L359.6527,81.6274 L361.6426,83.4999 L361.8758,83.5783 L362.5958,87.0336 L363.9968,90.718 L365.4808,94.4303 L366.4814,97.98 L367.7363,101.6152 L367.7651,101.6249 L368.9416,105.2338 L370.249,108.8867 L371.4933,112.5183 L372.858,116.1905 L373.8301,119.7306 L374.0325,119.9496 L375.8163,121.5991 L377.4694,123.1074 L379.3137,124.8224 L381.167,126.5472 L382.7363,127.9648 L382.7363,127.3238 L384.7363,128.568 L386.7363,127.7013 L388.7363,128.4393 L390.7363,127.5248 L392.7363,127.9648" fill="none" style="stroke:#FF6F00;stroke-width:1;"/><path d="M91.7129,75.2656 L91.7129,75.4525 L93.7129,74.8973 L95.7129,75.4374 L97.7129,75.6209 L99.7129,74.6315 L101.7129,75.2656 L101.7129,75.2656 L101.7129,75.2311 L107.7129,75.0761 L113.7129,75.0952 L119.7129,75.2353 L125.7129,74.9583 L131.7129,75.2656 L131.7129,75.7578 L133.7129,74.7054 L135.7129,75.0898 L137.7129,75.6496 L139.7129,75.1894 L141.7129,75.2656" fill="none" style="stroke:#FF6F00;stroke-width:1;"/><!--SRC=[xLfjRzf84FxkNx7NI9TMBGtaJLLKLG7oqYOa84XwEbLLjDXhMB7UfRlhSDpf_lkDZGssiGquffT8vPEpEtxccTdrxioZd2gDfNOejnmyDepVB69JJb3Zyk6c_kNseTbkjRl8_-qSLezg_QEeIU-ysRuzgtV_3EnIJ3hrvdNzydmEj6JIxfwTTwD-q8vj7zlLwjpaedrx5pFmJRpVtAJUxRR_YDk4A8OQKJx64ZkeZytHG0gNMqt1X4GxMcAkO8vm7J7xF1qJoIWV1LO1OsCNKMuoro983maQ44uaPcZ-da8sMFU57hv3Z0w66c5k8GlB4Rof1HAFH4uarGHDg1xECEWZuKWHhIaVg6HExZv_QLxVdlTwg0OB8yQQ2ew60EgXQ7ZHnaoH2F4EjYm0GeUHiUuiN0baqOV8U6-8BJ7nh9Cey_3lkUK_aC0aOdD6REmoZVunBWJNjzWXw5LNGEpYbJyooznYuVp17lsReDgXyMyKgIwbc01EwXlfC7hA84U2MN6aCQmk7f20qzAhZSJYntQuqH0IWWrc8biIN2myS65j0X_R-kjvC8Kp5Xos8xWfI3YLtIndhiFsupcpiCPzh4Z9xc8-J2PSQwiE16F4zBuELRgRXPSc64Z1jkYXuK5YETsYYtEkgTwc0yeraJOsoHPzzCWFbt2JTE3YeYOTOwvdO7T3QeuuKGeEp8Mv2io1KVIDN79Bq2ay8pQBOuaBwM2Md5iAfqLjqeAJDHDyRf1Bqpyyby3zqKnaVpQLb3-poE61KJUra2iO-2QPlhpPh0zu5pKFaPSrk8JWZvsLl-WtB-63ntp0oCUFS5ifmJzzWlNjmUOZGiC5bdbxb7Kl97TSyiwE7r4HkkGl8CanUoYVTw8Ssm9vDLMQE2ylr-NptbAkmmlvPQHwmVRbPJgoJVh1nJjZdIYCur7uDMnrTRLNAFRym6ONZ8NLa5Zhn9eQgWcECTmhSjrOeLxFtqfRY3H_2JTkGy86RX7JmUp-QKD79YdKz5Q0upLmGIli5_iALP3ZAktLvGHX6q8DVIRQWeYte3NDx74YlMeMoMWfiKX6edQ7nbslBhFIRtgj9UsxccJN0SjSSngOMBMFbIh6Ai_1Bhe9raMDYKbjQaByVka0IpGPUbsrXZC8wa_bBQY_UEzGdxa4revpuXKY2WbNUzFBBLt9R1VuE5vJGIDll7r0txwXFLUHYWbdvvx9A3HybOFZwXvg-iy8dj7txyRR75D96FPRdY4TgmhcLYM8qnlRGzteDFhTwrx2oHboOUY-gwWNIznV8nXDSLJGZuqTogPnBnV-M8d1A65IpE9EUlvOYKx6Wb7e1f9-Ek5mqjKfWPqU2dAdSNskF3Nh6Uj6uH6wfcWKDKy1s40k2jzB7WTXqgBVVAWlvWf4JmNCquFoC9OP5520DdEmbkRp5CXSbMTJu7LqdUAOEKfEST1CxQOuP9vQKnnrA_fCI2T3cGcPRIpAX06aAJ8XQ9OO4tAA54mXt9864s8bv9UO_KhjPUumgRhCqUE2I-H3AgITP9-ic-oMvSL_gZRoitcjQ6h_jpGz1rvhAnO_cSspIbAfOaF8OyDeCbdd2WkrRIe9PKUIo7zPIa7XLZ_blYojpOyY9UwIvUu-TisaPIvPWgxHqMSJM0cPqNK_0V5Nd_shptvIdzrXK1RUtxJG8vGUtZzQrDxlL_UFtjTgVQ9nhVhwde-uc72_9QFmtMhga3V6wyjE2odXIgXVBQfc7nwy_iQumeyOTLtksPsWzfZmgxFhS02A-KSg1NUyNltgwyt2uFYmqg0QQcW9HD3N6oCykSwvARmk_GJTtrrKFXWjE8TTQ61F4E5mt02kdC9Sxpy0]--></g></svg>