<svg xmlns="http://www.w3.org/2000/svg" xmlns:xlink="http://www.w3.org/1999/xlink" contentStyleType="text/css" data-diagram-type="MINDMAP" height="298px" preserveAspectRatio="none" style="width:605px;height:298px;" version="1.1" viewBox="0 0 605 298" width="605px" zoomAndPan="magnify"><defs/><g><a href="/use-case/legal-entity-management/" target="_top" title="/use-case/legal-entity-management/" xlink:actuate="onRequest" xlink:href="/use-case/legal-entity-management/" xlink:show="new" xlink:title="/use-case/legal-entity-management/" xlink:type="simple"><text fill="#4051B5" font-family="'Roboto'" font-size="13" lengthAdjust="spacing" textLength="166.9243" x="17" y="152.731">Legal Entity Management</text></a><a href="/use-case/legal-entity-management/identification-and-registration/" target="_top" title="/use-case/legal-entity-management/identification-and-registration/" xlink:actuate="onRequest" xlink:href="/use-case/legal-entity-management/identification-and-registration/" xlink:show="new" xlink:title="/use-case/legal-entity-management/identification-and-registration/" xlink:type="simple"><text fill="#4051B5" font-family="'Roboto'" font-size="13" lengthAdjust="spacing" textLength="182.6157" x="249.0566" y="27.0669">Identification &amp; Registration</text></a><path d="M192.0566,148.2305 L192.0566,148.4173 L194.0566,147.8622 L196.0566,148.4023 L198.0566,148.5857 L200.0566,147.5963 L202.0566,148.2305 L202.0566,148.2305 L202.0313,148.2071 L202.9134,147.022 L203.9235,145.9551 L205.0227,144.9702 L205.8151,143.7024 L207.0371,142.8308 L207.2743,142.8963 L207.5522,139.9093 L208.5227,137.1133 L209.5776,134.3406 L210.141,131.4324 L210.9629,128.5955 L210.9928,128.6007 L211.2844,126.6909 L211.7119,124.805 L212.0739,122.9075 L212.561,121.0321 L212.6401,119.0848 L212.9353,119.1277 L213.248,117.0052 L213.3703,114.855 L213.7713,112.7453 L214.1853,110.6376 L214.1855,108.4696 L213.8675,108.43 L215.059,103.8926 L215.2032,99.2248 L216.1436,94.6562 L216.2641,89.9855 L217.0566,85.3984 L217.0264,85.3947 L217.9579,80.8249 L218.1836,76.1673 L218.8257,71.5615 L219.5029,66.9601 L219.9277,62.3273 L220.1108,62.354 L220.2351,60.204 L220.6722,58.0996 L220.6032,55.9215 L221.2891,53.8534 L221.4731,51.7121 L221.7131,51.7544 L222.0032,49.8443 L222.4124,47.9552 L222.2681,45.9684 L222.5295,44.0532 L223.1504,42.2014 L222.8842,42.128 L223.9103,39.3474 L224.6365,36.484 L225.7978,33.7407 L226.2162,30.7925 L227.0762,27.966 L226.9641,27.8627 L228.1468,26.9549 L228.8505,25.6052 L229.8949,24.5698 L231.2726,23.8419 L232.0566,22.5664 L232.0566,22.9537 L234.0566,23.2193 L236.0566,22.2804 L238.0566,22.8501 L240.0566,23.0912 L242.0566,22.5664" fill="none" style="stroke:#FF6F00;stroke-width:1;"/><a href="/use-case/legal-entity-management/corporate-governance/" target="_top" title="/use-case/legal-entity-management/corporate-governance/" xlink:actuate="onRequest" xlink:href="/use-case/legal-entity-management/corporate-governance/" xlink:show="new" xlink:title="/use-case/legal-entity-management/corporate-governance/" xlink:type="simple"><text fill="#4051B5" font-family="'Roboto'" font-size="13" lengthAdjust="spacing" textLength="147.7734" x="249.0566" y="52.1997">Corporate Governance</text></a><path d="M192.0566,148.2305 L192.0566,148.4173 L194.0566,147.8622 L196.0566,148.4023 L198.0566,148.5857 L200.0566,147.5963 L202.0566,148.2305 L202.0566,148.2305 L202.0266,148.2134 L203.673,144.9954 L205.4709,141.8632 L207.374,138.7907 L208.9143,135.5125 L210.9629,132.5225 L211.2042,132.5708 L211.3327,129.2473 L212.1658,126.0649 L213.0847,122.8997 L213.5036,119.6344 L214.1855,116.4218 L214.2155,116.4264 L214.7457,112.7282 L215.4124,109.0512 L216.0132,105.3639 L216.7396,101.6962 L217.0566,97.9648 L217.3513,98.0107 L217.9292,94.3199 L218.3169,90.5995 L218.9829,86.9224 L219.6619,83.2473 L219.9277,79.5079 L219.6134,79.445 L220.868,76.347 L221.0876,73.0418 L222.094,69.8941 L222.2901,66.5842 L223.1504,63.4072 L223.1239,63.3922 L225.2184,60.4282 L226.694,57.1133 L228.5349,54.0055 L230.4063,50.9151 L232.0566,47.6992 L232.0566,48.0692 L234.0566,47.6957 L236.0566,47.9545 L238.0566,47.1904 L240.0566,47.952 L242.0566,47.6992" fill="none" style="stroke:#FF6F00;stroke-width:1;"/><a href="/use-case/legal-entity-management/ownership-and-capital-structure/" target="_top" title="/use-case/legal-entity-management/ownership-and-capital-structure/" xlink:actuate="onRequest" xlink:href="/use-case/legal-entity-management/ownership-and-capital-structure/" xlink:show="new" xlink:title="/use-case/legal-entity-management/ownership-and-capital-structure/" xlink:type="simple"><text fill="#4051B5" font-family="'Roboto'" font-size="13" lengthAdjust="spacing" textLength="198.1992" x="249.0566" y="77.3325">Ownership &amp; Capital Structure</text></a><path d="M192.0566,148.2305 L192.0566,148.4173 L194.0566,147.8622 L196.0566,148.4023 L198.0566,148.5857 L200.0566,147.5963 L202.0566,148.2305 L202.0566,148.2305 L202.0291,148.2096 L203.6867,145.76 L205.4832,143.4153 L207.3762,141.1436 L208.9365,138.6204 L210.9629,136.4495 L211.2006,136.5129 L211.3368,133.9621 L212.167,131.5966 L213.082,129.2536 L213.5042,126.7792 L214.1855,124.3739 L214.2152,124.3801 L214.7459,121.6025 L215.4117,118.853 L216.0123,116.0899 L216.7373,113.3527 L217.0566,110.5313 L217.3487,110.5918 L217.9265,107.824 L218.3159,105.0172 L218.981,102.2675 L219.6591,99.5205 L219.9277,96.6886 L219.618,96.6059 L220.8636,94.3512 L221.0895,91.8244 L222.0906,89.5044 L222.2933,86.9714 L223.1504,84.613 L223.1261,84.5947 L225.1946,82.4556 L226.6956,79.8876 L228.5315,77.5727 L230.3954,75.279 L232.0566,72.832 L232.0566,73.202 L234.0566,72.8286 L236.0566,73.0873 L238.0566,72.3232 L240.0566,73.0848 L242.0566,72.832" fill="none" style="stroke:#FF6F00;stroke-width:1;"/><polygon fill="#4051B5" points="246.0566,130.6641,246.0566,130.8742,256.2977,130.2497,266.5388,130.8573,276.7799,131.0637,287.021,129.9507,297.262,130.5863,307.5031,130.2376,317.7442,130.2806,327.9853,130.5959,338.2264,129.9727,348.4674,131.2177,358.7085,130.0338,368.9496,130.4663,379.1907,131.096,389.4318,130.5783,399.6729,130.6641,399.6816,130.6851,400.2345,130.8885,400.827,131.1877,401.4004,131.4406,402.0103,131.7817,402.5013,131.8356,402.7079,131.9212,402.9448,132.488,403.0483,132.9995,403.347,133.5918,403.6548,134.188,403.6729,134.6641,403.4325,134.6641,403.899,140.0906,403.574,145.5172,403.8508,150.9438,403.5078,156.3703,403.6729,161.7969,403.6518,161.7881,403.6669,162.4572,403.1892,162.922,403.0023,163.5074,402.8399,164.1028,402.5013,164.6253,402.5544,164.7535,401.9351,164.8584,401.4065,165.1824,400.7312,165.152,400.2748,165.6501,399.6729,165.7969,399.6729,166.3451,389.4318,166.2414,379.1907,166.4099,368.9496,165.3138,358.7085,165.1447,348.4674,165.1755,338.2264,165.738,327.9853,165.6003,317.7442,166.4783,307.5031,165.6222,297.262,165.4538,287.021,166.0251,276.7799,165.13,266.5388,165.2777,256.2977,166.4458,246.0566,165.7969,246.1122,165.931,245.5846,165.7888,244.8842,165.2291,244.4003,165.1922,243.8692,165.0414,243.2282,164.6253,243.0827,164.565,242.9644,164.0474,242.7984,163.51,242.726,163.0114,242.2897,162.362,242.0566,161.7969,242.2108,161.7969,241.872,156.3703,241.8309,150.9438,242.2245,145.5172,241.8177,140.0906,242.0566,134.6641,242.2134,134.729,242.3546,134.1247,242.4428,133.4985,242.6506,132.9219,243.1352,132.4598,243.2282,131.8356,243.19,131.7435,243.8694,131.7836,244.2891,131.1968,245.004,131.3228,245.5527,131.0475,246.0566,130.6641" style="stroke:#FF6F00;stroke-width:1.5;"/><a href="/use-case/legal-entity-management/financial-information/" target="_top" title="/use-case/legal-entity-management/financial-information/" xlink:actuate="onRequest" xlink:href="/use-case/legal-entity-management/financial-information/" xlink:show="new" xlink:title="/use-case/legal-entity-management/financial-information/" xlink:type="simple"><text fill="#4051B5" font-family="'Roboto'" font-size="13" lengthAdjust="spacing" textLength="137.4839" x="252.0566" y="152.731">Financial Information</text></a><a href="/use-case/legal-entity-management/financial-information/assets/" target="_top" title="/use-case/legal-entity-management/financial-information/assets/" xlink:actuate="onRequest" xlink:href="/use-case/legal-entity-management/financial-information/assets/" xlink:show="new" xlink:title="/use-case/legal-entity-management/financial-information/assets/" xlink:type="simple"><text fill="#4051B5" font-family="'Roboto'" font-size="13" lengthAdjust="spacing" textLength="42.3071" x="460.6729" y="102.4653">Assets</text></a><path d="M403.6729,148.2305 L403.6729,148.4173 L405.6729,147.8622 L407.6729,148.4023 L409.6729,148.5857 L411.6729,147.5963 L413.6729,148.2305 L413.6729,148.2305 L413.65,148.2046 L415.3287,146.5175 L417.1226,144.961 L418.9966,143.4953 L420.5946,141.7168 L422.5791,140.3765 L422.8112,140.4583 L423.5337,136.8275 L424.9337,133.4357 L426.4164,130.073 L427.4181,126.5407 L428.6729,123.0977 L428.7015,123.1077 L429.8782,119.6372 L431.1852,116.2125 L432.4293,112.7657 L433.7933,109.3612 L434.7666,105.8188 L434.9639,106.0425 L436.7475,104.4745 L438.404,102.7621 L440.2466,101.261 L442.098,99.7697 L443.6729,97.9648 L443.6729,97.3238 L445.6729,98.568 L447.6729,97.7013 L449.6729,98.4393 L451.6729,97.5248 L453.6729,97.9648" fill="none" style="stroke:#FF6F00;stroke-width:1;"/><a href="/use-case/legal-entity-management/financial-information/fundamentals/" target="_top" title="/use-case/legal-entity-management/financial-information/fundamentals/" xlink:actuate="onRequest" xlink:href="/use-case/legal-entity-management/financial-information/fundamentals/" xlink:show="new" xlink:title="/use-case/legal-entity-management/financial-information/fundamentals/" xlink:type="simple"><text fill="#4051B5" font-family="'Roboto'" font-size="13" lengthAdjust="spacing" textLength="92.5234" x="460.6729" y="127.5981">Fundamentals</text></a><path d="M403.6729,148.2305 L403.6729,148.4173 L405.6729,147.8622 L407.6729,148.4023 L409.6729,148.5857 L411.6729,147.5963 L413.6729,148.2305 L413.6729,148.2305 L413.6507,148.204 L416.5511,145.5719 L419.5634,143.0733 L422.6534,140.6674 L425.4755,137.9418 L428.6729,135.6641 L428.8309,135.8527 L431.493,132.9361 L434.6164,130.5701 L437.7961,128.2714 L440.6484,125.5817 L443.6729,123.0977 L443.6729,123.1583 L445.6729,123.0693 L447.6729,123.2563 L449.6729,123.3102 L451.6729,123.6183 L453.6729,123.0977" fill="none" style="stroke:#FF6F00;stroke-width:1;"/><a href="/use-case/legal-entity-management/financial-information/earnings-estimates/" target="_top" title="/use-case/legal-entity-management/financial-information/earnings-estimates/" xlink:actuate="onRequest" xlink:href="/use-case/legal-entity-management/financial-information/earnings-estimates/" xlink:show="new" xlink:title="/use-case/legal-entity-management/financial-information/earnings-estimates/" xlink:type="simple"><text fill="#4051B5" font-family="'Roboto'" font-size="13" lengthAdjust="spacing" textLength="124.9663" x="460.6729" y="152.731">Earnings Estimates</text></a><path d="M403.6729,148.2305 L403.6729,148.4173 L405.6729,147.8622 L407.6729,148.4023 L409.6729,148.5857 L411.6729,147.5963 L413.6729,148.2305 L413.6729,148.2305 L413.6729,148.1959 L419.6729,148.0409 L425.6729,148.06 L431.6729,148.2002 L437.6729,147.9232 L443.6729,148.2305 L443.6729,148.7226 L445.6729,147.6702 L447.6729,148.0547 L449.6729,148.6144 L451.6729,148.1542 L453.6729,148.2305" fill="none" style="stroke:#FF6F00;stroke-width:1;"/><a href="/use-case/legal-entity-management/financial-information/ratings/" target="_top" title="/use-case/legal-entity-management/financial-information/ratings/" xlink:actuate="onRequest" xlink:href="/use-case/legal-entity-management/financial-information/ratings/" xlink:show="new" xlink:title="/use-case/legal-entity-management/financial-information/ratings/" xlink:type="simple"><text fill="#4051B5" font-family="'Roboto'" font-size="13" lengthAdjust="spacing" textLength="48.9722" x="460.6729" y="177.8638">Ratings</text></a><path d="M403.6729,148.2305 L403.6729,148.4173 L405.6729,147.8622 L407.6729,148.4023 L409.6729,148.5857 L411.6729,147.5963 L413.6729,148.2305 L413.6729,148.2305 L413.6507,148.204 L416.5511,150.5984 L419.5634,153.1264 L422.6534,155.7471 L425.4755,158.0481 L428.6729,160.7969 L428.8309,160.9855 L431.493,163.0954 L434.6164,165.7561 L437.7961,168.4839 L440.6484,170.8208 L443.6729,173.3633 L443.6729,173.4239 L445.6729,173.3349 L447.6729,173.522 L449.6729,173.5758 L451.6729,173.8839 L453.6729,173.3633" fill="none" style="stroke:#FF6F00;stroke-width:1;"/><a href="/use-case/legal-entity-management/financial-information/liability-terms/" target="_top" title="/use-case/legal-entity-management/financial-information/liability-terms/" xlink:actuate="onRequest" xlink:href="/use-case/legal-entity-management/financial-information/liability-terms/" xlink:show="new" xlink:title="/use-case/legal-entity-management/financial-information/liability-terms/" xlink:type="simple"><text fill="#4051B5" font-family="'Roboto'" font-size="13" lengthAdjust="spacing" textLength="95.5513" x="460.6729" y="202.9966">Liability Terms</text></a><path d="M403.6729,148.2305 L403.6729,148.4173 L405.6729,147.8622 L407.6729,148.4023 L409.6729,148.5857 L411.6729,147.5963 L413.6729,148.2305 L413.6729,148.2305 L413.65,148.2046 L415.3287,149.6591 L417.1226,151.2442 L418.9966,152.9202 L420.5946,154.2832 L422.5791,156.0845 L422.8112,156.1663 L423.5337,159.4471 L424.9337,162.9668 L426.4164,166.5156 L427.4181,169.8948 L428.6729,173.3633 L428.7015,173.3734 L429.8782,176.8143 L431.1852,180.3012 L432.4293,183.7659 L433.7933,187.2729 L434.7666,190.6421 L434.9639,190.8658 L436.7475,192.4393 L438.404,193.8686 L440.2466,195.509 L442.098,197.1594 L443.6729,198.4961 L443.6729,197.855 L445.6729,199.0992 L447.6729,198.2325 L449.6729,198.9706 L451.6729,198.0561 L453.6729,198.4961" fill="none" style="stroke:#FF6F00;stroke-width:1;"/><path d="M192.0566,148.2305 L192.0566,148.4173 L194.0566,147.8622 L196.0566,148.4023 L198.0566,148.5857 L200.0566,147.5963 L202.0566,148.2305 L202.0566,148.2305 L202.0566,148.1959 L208.0566,148.0409 L214.0566,148.06 L220.0566,148.2002 L226.0566,147.9232 L232.0566,148.2305 L232.0566,148.7226 L234.0566,147.6702 L236.0566,148.0547 L238.0566,148.6144 L240.0566,148.1542 L242.0566,148.2305" fill="none" style="stroke:#FF6F00;stroke-width:1;"/><a href="/use-case/legal-entity-management/lifecycle-and-status/" target="_top" title="/use-case/legal-entity-management/lifecycle-and-status/" xlink:actuate="onRequest" xlink:href="/use-case/legal-entity-management/lifecycle-and-status/" xlink:show="new" xlink:title="/use-case/legal-entity-management/lifecycle-and-status/" xlink:type="simple"><text fill="#4051B5" font-family="'Roboto'" font-size="13" lengthAdjust="spacing" textLength="116.854" x="249.0566" y="192.8638">Lifecycle &amp; Status</text></a><path d="M192.0566,148.2305 L192.0566,148.4173 L194.0566,147.8622 L196.0566,148.4023 L198.0566,148.5857 L200.0566,147.5963 L202.0566,148.2305 L202.0566,148.2305 L202.0368,148.2022 L203.7288,149.3296 L205.521,150.5994 L207.383,151.9682 L209.0047,152.9958 L210.9629,154.5012 L211.188,154.6006 L211.9254,157.1472 L213.32,159.984 L214.7947,162.8562 L215.803,165.5223 L217.0566,168.2969 L217.0844,168.3091 L218.2624,171.0503 L219.5667,173.8472 L220.8101,176.6172 L222.1698,179.4386 L223.1504,182.0925 L223.3221,182.3364 L225.1054,183.5935 L226.778,184.6934 L228.6128,186.0234 L230.4551,187.3643 L232.0566,188.3633 L232.0566,187.7222 L234.0566,188.9664 L236.0566,188.0997 L238.0566,188.8378 L240.0566,187.9233 L242.0566,188.3633" fill="none" style="stroke:#FF6F00;stroke-width:1;"/><a href="/use-case/legal-entity-management/contact-and-location-information/" target="_top" title="/use-case/legal-entity-management/contact-and-location-information/" xlink:actuate="onRequest" xlink:href="/use-case/legal-entity-management/contact-and-location-information/" xlink:show="new" xlink:title="/use-case/legal-entity-management/contact-and-location-information/" xlink:type="simple"><text fill="#4051B5" font-family="'Roboto'" font-size="13" lengthAdjust="spacing" textLength="203.8042" x="249.0566" y="228.1294">Contact &amp; Location Information</text></a><path d="M192.0566,148.2305 L192.0566,148.4173 L194.0566,147.8622 L196.0566,148.4023 L198.0566,148.5857 L200.0566,147.5963 L202.0566,148.2305 L202.0566,148.2305 L202.0291,148.2096 L203.6867,150.4724 L205.4832,152.8401 L207.3762,155.2808 L208.9365,157.47 L210.9629,160.0115 L211.2006,160.0749 L211.3368,162.3544 L212.167,164.819 L213.082,167.3063 L213.5042,169.6621 L214.1855,172.087 L214.2152,172.0932 L214.7459,174.8527 L215.4117,177.6402 L216.0123,180.4142 L216.7373,183.214 L217.0566,185.9297 L217.3487,185.9903 L217.9265,188.7595 L218.3159,191.4897 L218.981,194.2771 L219.6591,197.0672 L219.9277,199.7724 L219.618,199.6897 L220.8636,202.2652 L221.0895,204.5686 L222.0906,207.0789 L222.2933,209.3761 L223.1504,211.8479 L223.1261,211.8295 L225.1946,214.4029 L226.6956,216.5472 L228.5315,218.9447 L230.3954,221.3635 L232.0566,223.6289 L232.0566,223.9989 L234.0566,223.6254 L236.0566,223.8842 L238.0566,223.1201 L240.0566,223.8817 L242.0566,223.6289" fill="none" style="stroke:#FF6F00;stroke-width:1;"/><a href="/use-case/legal-entity-management/compliance-and-documentation/" target="_top" title="/use-case/legal-entity-management/compliance-and-documentation/" xlink:actuate="onRequest" xlink:href="/use-case/legal-entity-management/compliance-and-documentation/" xlink:show="new" xlink:title="/use-case/legal-entity-management/compliance-and-documentation/" xlink:type="simple"><text fill="#4051B5" font-family="'Roboto'" font-size="13" lengthAdjust="spacing" textLength="195.1396" x="249.0566" y="253.2622">Compliance &amp; Documentation</text></a><path d="M192.0566,148.2305 L192.0566,148.4173 L194.0566,147.8622 L196.0566,148.4023 L198.0566,148.5857 L200.0566,147.5963 L202.0566,148.2305 L202.0566,148.2305 L202.0266,148.2134 L203.673,151.2786 L205.4709,154.4296 L207.374,157.6403 L208.9143,160.6453 L210.9629,163.9385 L211.2042,163.9868 L211.3327,167.1036 L212.1658,170.3615 L213.0847,173.6366 L213.5036,176.8116 L214.1855,180.0392 L214.2155,180.0438 L214.7457,183.7284 L215.4124,187.4341 L216.0132,191.1297 L216.7396,194.8447 L217.0566,198.4961 L217.3513,198.5419 L217.9292,202.2339 L218.3169,205.8963 L218.9829,209.6019 L219.6619,213.3096 L219.9277,216.953 L219.6134,216.8901 L220.868,220.2323 L221.0876,223.3674 L222.094,226.66 L222.2901,229.7904 L223.1504,233.0537 L223.1239,233.0387 L225.2184,236.3579 L226.694,239.3262 L228.5349,242.5016 L230.4063,245.6943 L232.0566,248.7617 L232.0566,249.1317 L234.0566,248.7582 L236.0566,249.017 L238.0566,248.2529 L240.0566,249.0145 L242.0566,248.7617" fill="none" style="stroke:#FF6F00;stroke-width:1;"/><a href="/use-case/legal-entity-management/supporting-information/" target="_top" title="/use-case/legal-entity-management/supporting-information/" xlink:actuate="onRequest" xlink:href="/use-case/legal-entity-management/supporting-information/" xlink:show="new" xlink:title="/use-case/legal-entity-management/supporting-information/" xlink:type="simple"><text fill="#4051B5" font-family="'Roboto'" font-size="13" lengthAdjust="spacing" textLength="151.106" x="249.0566" y="278.395">Supporting Information</text></a><path d="M192.0566,148.2305 L192.0566,148.4173 L194.0566,147.8622 L196.0566,148.4023 L198.0566,148.5857 L200.0566,147.5963 L202.0566,148.2305 L202.0566,148.2305 L202.0313,148.2071 L202.9134,149.1819 L203.9235,150.2748 L205.0227,151.4497 L205.8151,152.3418 L207.0371,153.6301 L207.2743,153.6955 L207.5522,156.4027 L208.5227,159.3009 L209.5776,162.2224 L210.141,165.0083 L210.9629,167.8655 L210.9928,167.8707 L211.2844,169.7652 L211.7119,171.6835 L212.0739,173.5904 L212.561,175.5193 L212.6401,177.3762 L212.9353,177.4192 L213.248,179.5427 L213.3703,181.6386 L213.7713,183.775 L214.1853,185.9133 L214.1855,187.9914 L213.8675,187.9518 L215.059,192.6428 L215.2032,197.2035 L216.1436,201.8633 L216.2641,206.4211 L217.0566,211.0625 L217.0264,211.0587 L217.9579,215.7174 L218.1836,220.2883 L218.8257,224.911 L219.5029,229.538 L219.9277,234.1336 L220.1108,234.1603 L220.2351,236.2564 L220.6722,238.3981 L220.6032,240.4661 L221.2891,242.644 L221.4731,244.7488 L221.7131,244.7911 L222.0032,246.6853 L222.4124,248.6004 L222.2681,250.418 L222.5295,252.307 L223.1504,254.2595 L222.8842,254.1861 L223.9103,257.0996 L224.6365,259.9305 L225.7978,262.8813 L226.2162,265.6272 L227.0762,268.4949 L226.9641,268.3915 L228.1468,269.6436 L228.8505,270.4538 L229.8949,271.5783 L231.2726,273.0102 L232.0566,273.8945 L232.0566,274.2818 L234.0566,274.5474 L236.0566,273.6085 L238.0566,274.1783 L240.0566,274.4193 L242.0566,273.8945" fill="none" style="stroke:#FF6F00;stroke-width:1;"/><!--SRC=[xLXjRzD84FxkNx57fGC48Kqf2264IDEq5DAcIbfE9uIgZRrELbtlcjrrUxtJ_VURzKjYExOJfmu7KlkbxUxucMVsRMQU3qfZgJtA7G_xblMRGrpA2JeulZhjdfnTzOQ3uGY5FplxkwywarTfat6_Dpmxx8x-ZEqAJCwxlS_Tu_uSQCbaE3hiZz9-q8xhldPtT-ScHyEpYun1Q69-vYRTqMZuHzOcGR7KDUK-bjX34snVJwK8kDCJJ4YqeoNc2kO8rocpZtS-aOpowzWgPcmzHfJRB708qZE2feGJYHcQVwUG2zOJeMVF4QFJcKQOEyZ1yXg-r0A96o9l9TK4tL8zYp3e3U584QqfdwhycbnyFEbzFkkFnwW36oDyJGL7Cm0rA1e-T35J94Ny73iE0A7zrDWe2bS2MVGcDJwUOKVS6kiyoZpyI-w4Vv3O96LpI5mSC8t-iOu4rsVO8-ZHI43iub4u4gtSOkF2mJ7zcw3EllLl6gahfRW5dC8lYc7q7OCr4ip98lcmktXAOavBdnxaDZzpmgq38I7OU2Pr9C75mWCNJXtupD5VpuCjF5zmE8xWPaF2XUoYDGiyjfTTCmThFC6ADEmkuyDc8d2swa0mHcnpErJZRXPUUc0W1TkYXmC3YUNT5btqkQPwcmuerqIws2PRz34ctmF2RN8EYOlQrCTSHs0NCsfVSw8KF9WBSnMR0wFq5vNabg0BUAPi5iyI5zB3B3-t5Cw0kcG0Bsif-DoWacRuU2w1XwEboE5i8QbmPh66BwskhOLSmI0qAVLbPiiky6FKsqTcrI09mJyxAt_ITrx2XSTyoiYxTv2jbE3ltyF-Zk7m4Q4XWPLcZwRoGlx4vNDszebAqIL_0KcEsLNpl7Fbs1R8gpkbYVVhhNNplBUqrab2_ZMMUi7srrlfr36Pn8atOfqhZBDHX3NixkfgRwFOgmEB4eo3rOmuwyHQ6AeDZZ7a5Rbkh52lLn-bBKHQlOMrsv2aWLl4z3BAFqFeo2I5cjw9SKm35xV2OR6lK0jvWTAcBYS8kn1guZFN5gIynQrfQO-JwbNBIAPBYSLYv6ftQDprwZAhEDDhBUaaqAIy3bZcMj70PAfzhDHchAeSF4QdyRuedzZKfJR47vOEi4MtCzDLQtY3eFvKPaF3pNkE9YmWi7US4rE8A2G2RQQNMxg6sIxmSRQcWaRUUdQ5ldv5xK2HbWrlPvkHAMOj4bRcBGzpw64z-A-D1cOYATbFvnFespVhsReW42sCmN9Xqn-rC7TQaaofqZ8SQAEJZ07w7OrIqxLSsKBw0huZhQcHEZY6chiDRLCyYexdexLWnIsyLcf6_P2yZNsgmGuO1hOE97WO9WP0lXTDGraPJqUkrlFaKiEEmXpbhhbyqGeT9SFeP34SuQuRGp4oN1IYLHjrmzzD8BecZvbvUCs1UEg_9j09bjpeL2sYD8Kn0ZxwyHZg9sDDU3Ad3q3RQ1JzqGGcetX2cJ65Lzm3x44oW2xCGAr3oQ0zi-ziHi93QLxY84ICH-4aZiEncXS8jihM8IGJyOtD7CLUP07mWtX- -KokxSppOKdWDeR-7647uL5972MpuEimFLVBYGfykFnc2xDnZEVZUVuV2BpoYHZz8QjDDwVa_iIQQL8-h2cOfiqB06f8fSbt-LIOB5ewtoNQUgKuUb_0AYsq2cEPmGRgPpq7Q-cTzu6iL3Zh0g-ZQMwEMQ5YRWvQgbjk3bcbL6wEkXLjCg5Jeaecp6eBaaa0HMfa0becH2QSKir20hUaFoPOEUanOxzITvmxp2kES_Iis9YwI1lfXkKlQvtJihpvzzK5VpIl5OBE_xPCFmEljTMw7ypcfrgaHeMsX4VDQ4fPLufgdMsgQ4r7abl_fbIoZMMkWdpPcCILHihbacLbAvDcYbOkNuAkeMQL4rW9MQ8utGFnGMDwq9WUDAO7ZUb1Ozf0Opfdq19TdWuGF1pA67HUxEtklNhHwKo8nftT9vVyciFx4CeH59OTZY1vQZqvFXyW9G89x1tpbfca0vy_jJxX6un60JTsRz7G9_pJuUTa05xQ6oe5DyojJrzE5mQlzri7L4F_A848-d9g9LcxpsrX5AgtwFBYgFN66a0D4a3mRn7Xa6e1Lzx1tFW_]--></g></svg>