<svg xmlns="http://www.w3.org/2000/svg" xmlns:xlink="http://www.w3.org/1999/xlink" contentStyleType="text/css" data-diagram-type="MINDMAP" height="311px" preserveAspectRatio="none" style="width:639px;height:311px;" version="1.1" viewBox="0 0 639 311" width="639px" zoomAndPan="magnify"><defs/><g><a href="/use-case/legal-entity-management/" target="_top" title="/use-case/legal-entity-management/" xlink:actuate="onRequest" xlink:href="/use-case/legal-entity-management/" xlink:show="new" xlink:title="/use-case/legal-entity-management/" xlink:type="simple"><text fill="#90EE90" font-family="'Roboto'" font-size="14" lengthAdjust="spacing" textLength="179.7646" x="17" y="159.4795">Legal Entity Management</text></a><a href="/use-case/legal-entity-management/identification-and-registration/" target="_top" title="/use-case/legal-entity-management/identification-and-registration/" xlink:actuate="onRequest" xlink:href="/use-case/legal-entity-management/identification-and-registration/" xlink:show="new" xlink:title="/use-case/legal-entity-management/identification-and-registration/" xlink:type="simple"><text fill="#90EE90" font-family="'Roboto'" font-size="14" lengthAdjust="spacing" textLength="196.6631" x="262.2148" y="27.9951">Identification &amp; Registration</text></a><path d="M205.2148,154.6328 L205.2148,154.8196 L207.2148,154.2645 L209.2148,154.8046 L211.2148,154.9881 L213.2148,153.9987 L215.2148,154.6328 L215.2148,154.6328 L215.1889,154.61 L216.0687,153.3775 L217.0792,152.2602 L218.1804,151.2229 L218.9687,149.9098 L220.1953,148.9831 L220.4332,149.0458 L220.7096,145.9328 L221.6806,143.0028 L222.7364,140.0952 L223.2991,137.0576 L224.1211,134.0884 L224.151,134.0934 L224.4425,132.0958 L224.8702,130.1211 L225.2322,128.1353 L225.7196,126.1707 L225.7983,124.1372 L226.0937,124.1783 L226.4064,121.9574 L226.5286,119.71 L226.9297,117.5015 L227.3438,115.2947 L227.3438,113.0303 L227.0255,112.9925 L228.2174,108.238 L228.3613,103.3589 L229.302,98.5745 L229.4222,93.6926 L230.2148,88.8906 L230.1846,88.887 L231.1164,84.1016 L231.3418,79.2322 L231.984,74.4123 L232.6612,69.5966 L233.0859,64.7509 L233.2692,64.7764 L233.3933,62.5293 L233.8305,60.3258 L233.7612,58.0518 L234.4475,55.8829 L234.6313,53.6441 L234.8716,53.6846 L235.1616,51.6867 L235.5709,49.7089 L235.426,47.6377 L235.6873,45.6349 L236.3086,43.6929 L236.0415,43.6225 L237.0684,40.7073 L237.7944,37.7127 L238.9569,34.8332 L239.3741,31.7573 L240.2344,28.7982 L240.12,28.6973 L241.3066,27.7353 L242.0042,26.3423 L243.0496,25.2558 L244.4351,24.4691 L245.2148,23.1484 L245.2148,23.5357 L247.2148,23.8013 L249.2148,22.8624 L251.2148,23.4322 L253.2148,23.6733 L255.2148,23.1484" fill="none" style="stroke:#FF9900;stroke-width:1;"/><a href="/use-case/legal-entity-management/corporate-governance/" target="_top" title="/use-case/legal-entity-management/corporate-governance/" xlink:actuate="onRequest" xlink:href="/use-case/legal-entity-management/corporate-governance/" xlink:show="new" xlink:title="/use-case/legal-entity-management/corporate-governance/" xlink:type="simple"><text fill="#90EE90" font-family="'Roboto'" font-size="14" lengthAdjust="spacing" textLength="159.1406" x="262.2148" y="54.292">Corporate Governance</text></a><path d="M205.2148,154.6328 L205.2148,154.8196 L207.2148,154.2645 L209.2148,154.8046 L211.2148,154.9881 L213.2148,153.9987 L215.2148,154.6328 L215.2148,154.6328 L215.1845,154.6164 L216.8294,151.2554 L218.6275,147.9774 L220.532,144.7571 L222.0697,141.338 L224.1211,138.1973 L224.3628,138.2435 L224.4905,134.7753 L225.3238,131.4422 L226.2432,128.1255 L226.6618,124.713 L227.3438,121.3508 L227.3737,121.3553 L227.9039,117.4864 L228.5707,113.6378 L229.1715,109.7794 L229.8981,105.9397 L230.2148,102.0391 L230.5098,102.0829 L231.0877,98.2211 L231.4752,94.331 L232.1413,90.4823 L232.8204,86.6355 L233.0859,82.7273 L232.7711,82.6671 L234.0267,79.4147 L234.2456,75.964 L235.2526,72.664 L235.448,69.2088 L236.3086,65.8809 L236.2818,65.8664 L238.3796,62.7508 L239.8521,59.2963 L241.6935,56.0418 L243.5659,52.8041 L245.2148,49.4453 L245.2148,49.8153 L247.2148,49.4418 L249.2148,49.7006 L251.2148,48.9365 L253.2148,49.6981 L255.2148,49.4453" fill="none" style="stroke:#FF9900;stroke-width:1;"/><a href="/use-case/legal-entity-management/ownership-and-capital-structure/" target="_top" title="/use-case/legal-entity-management/ownership-and-capital-structure/" xlink:actuate="onRequest" xlink:href="/use-case/legal-entity-management/ownership-and-capital-structure/" xlink:show="new" xlink:title="/use-case/legal-entity-management/ownership-and-capital-structure/" xlink:type="simple"><text fill="#90EE90" font-family="'Roboto'" font-size="14" lengthAdjust="spacing" textLength="213.4453" x="262.2148" y="80.5889">Ownership &amp; Capital Structure</text></a><path d="M205.2148,154.6328 L205.2148,154.8196 L207.2148,154.2645 L209.2148,154.8046 L211.2148,154.9881 L213.2148,153.9987 L215.2148,154.6328 L215.2148,154.6328 L215.1868,154.6126 L216.8424,152.0565 L218.6392,149.6023 L220.534,147.2191 L222.0908,144.5915 L224.1211,142.3062 L224.3595,142.367 L224.4942,139.71 L225.325,137.2305 L226.2407,134.7727 L226.6623,132.1889 L227.3438,129.6713 L227.3735,129.6772 L227.904,126.7718 L228.57,123.8932 L229.1707,121.0017 L229.896,118.1349 L230.2148,115.1875 L230.5074,115.2455 L231.0852,112.3494 L231.4743,109.416 L232.1396,106.5373 L232.8179,103.6611 L233.0859,100.7037 L232.7754,100.6245 L234.0227,98.2512 L234.2473,95.6172 L235.2494,93.1814 L235.4509,90.5414 L236.3086,88.0688 L236.2839,88.051 L238.357,85.7965 L239.8535,83.1255 L241.6903,80.7003 L243.5556,78.2957 L245.2148,75.7422 L245.2148,76.1122 L247.2148,75.7387 L249.2148,75.9975 L251.2148,75.2334 L253.2148,75.995 L255.2148,75.7422" fill="none" style="stroke:#FF9900;stroke-width:1;"/><polygon fill="#4051B5" points="259.2148,136.4844,259.2148,136.6946,269.4967,136.0701,279.7786,136.6777,290.0604,136.8841,300.3423,135.771,310.6241,136.4067,320.906,136.0579,331.1879,136.1009,341.4697,136.4162,351.7516,135.793,362.0334,137.038,372.3153,135.8541,382.5972,136.2866,392.879,136.9163,403.1609,136.3986,413.4427,136.5526,423.7246,136.4844,423.7205,136.4745,424.3131,136.7737,424.8865,137.0266,425.4964,137.3677,426.073,137.6283,426.553,137.6559,426.7622,137.7426,426.8658,138.2541,427.1644,138.8465,427.4722,139.4426,427.2682,139.8267,427.7246,140.4844,427.9508,140.4844,427.6258,146.1438,427.9025,151.8031,427.5596,157.4625,427.7018,163.1219,427.7246,168.7813,427.953,168.8759,427.4753,169.3407,427.2884,169.9261,427.1259,170.5215,426.9155,171.0971,426.553,171.6097,426.5525,171.6085,426.024,171.9324,425.3486,171.902,424.8923,172.4002,424.3602,172.7158,423.7246,172.7813,423.7246,173.2258,413.4427,173.3943,403.1609,172.2982,392.879,172.1291,382.5972,172.1598,372.3153,172.7224,362.0334,172.5847,351.7516,173.4627,341.4697,172.6066,331.1879,172.4382,320.906,173.0095,310.6241,172.1144,300.3423,172.2621,290.0604,173.4302,279.7786,173.2169,269.4967,173.5157,259.2148,172.7813,259.1738,172.6822,258.6899,172.6452,258.1588,172.4944,257.4575,171.9328,256.9399,171.8145,256.3864,171.6097,256.4252,171.6257,256.3528,171.1271,255.9165,170.4778,255.8259,169.9716,255.2786,169.2763,255.2148,168.7813,254.9891,168.7813,255.3827,163.1219,254.9759,157.4625,255.3845,151.8031,255.2837,146.1438,255.2148,140.4844,255.1323,140.4502,255.3402,139.8736,255.8248,139.4115,255.8256,138.7491,256.3344,138.2971,256.3864,137.6559,256.3159,137.4857,257.0309,137.6118,257.5796,137.3365,258.1147,137.0284,258.6552,136.7332,259.2148,136.4844" style="stroke:#FF6F00;stroke-width:1.5;"/><a href="/use-case/legal-entity-management/financial-information/" target="_top" title="/use-case/legal-entity-management/financial-information/" xlink:actuate="onRequest" xlink:href="/use-case/legal-entity-management/financial-information/" xlink:show="new" xlink:title="/use-case/legal-entity-management/financial-information/" xlink:type="simple"><text fill="#90EE90" font-family="'Roboto'" font-size="14" lengthAdjust="spacing" textLength="148.0596" x="265.2148" y="159.4795">Financial Information</text></a><a href="/use-case/legal-entity-management/financial-information/assets/" target="_top" title="/use-case/legal-entity-management/financial-information/assets/" xlink:actuate="onRequest" xlink:href="/use-case/legal-entity-management/financial-information/assets/" xlink:show="new" xlink:title="/use-case/legal-entity-management/financial-information/assets/" xlink:type="simple"><text fill="#90EE90" font-family="'Roboto'" font-size="14" lengthAdjust="spacing" textLength="45.5615" x="484.7246" y="106.8857">Assets</text></a><path d="M427.7246,154.6328 L427.7246,154.8196 L429.7246,154.2645 L431.7246,154.8046 L433.7246,154.9881 L435.7246,153.9987 L437.7246,154.6328 L437.7246,154.6328 L437.7012,154.6074 L439.3773,152.8499 L441.1715,151.2204 L443.0478,149.6799 L444.6412,147.8328 L446.6309,146.415 L446.864,146.4936 L447.5842,142.7097 L448.9851,139.1553 L450.469,135.6289 L451.4697,131.9396 L452.7246,128.3359 L452.7533,128.3456 L453.9299,124.7156 L455.2373,121.1296 L456.4816,117.5224 L457.8463,113.9558 L458.8184,110.2568 L459.0206,110.476 L460.8043,108.8352 L462.4576,107.0529 L464.3018,105.4776 L466.155,103.912 L467.7246,102.0391 L467.7246,101.398 L469.7246,102.6422 L471.7246,101.7755 L473.7246,102.5136 L475.7246,101.599 L477.7246,102.0391" fill="none" style="stroke:#FF9900;stroke-width:1;"/><a href="/use-case/legal-entity-management/financial-information/fundamentals/" target="_top" title="/use-case/legal-entity-management/financial-information/fundamentals/" xlink:actuate="onRequest" xlink:href="/use-case/legal-entity-management/financial-information/fundamentals/" xlink:show="new" xlink:title="/use-case/legal-entity-management/financial-information/fundamentals/" xlink:type="simple"><text fill="#90EE90" font-family="'Roboto'" font-size="14" lengthAdjust="spacing" textLength="99.6406" x="484.7246" y="133.1826">Fundamentals</text></a><path d="M427.7246,154.6328 L427.7246,154.8196 L429.7246,154.2645 L431.7246,154.8046 L433.7246,154.9881 L435.7246,153.9987 L437.7246,154.6328 L437.7246,154.6328 L437.7018,154.6068 L440.5997,151.8606 L443.6123,149.2453 L446.7046,146.721 L449.5221,143.883 L452.7246,141.4844 L452.8868,141.6694 L455.54,138.644 L458.6667,136.1589 L461.8512,133.7397 L464.6995,130.937 L467.7246,128.3359 L467.7246,128.3966 L469.7246,128.3075 L471.7246,128.4946 L473.7246,128.5485 L475.7246,128.8566 L477.7246,128.3359" fill="none" style="stroke:#FF9900;stroke-width:1;"/><a href="/use-case/legal-entity-management/financial-information/earnings-estimates/" target="_top" title="/use-case/legal-entity-management/financial-information/earnings-estimates/" xlink:actuate="onRequest" xlink:href="/use-case/legal-entity-management/financial-information/earnings-estimates/" xlink:show="new" xlink:title="/use-case/legal-entity-management/financial-information/earnings-estimates/" xlink:type="simple"><text fill="#90EE90" font-family="'Roboto'" font-size="14" lengthAdjust="spacing" textLength="134.5791" x="484.7246" y="159.4795">Earnings Estimates</text></a><path d="M427.7246,154.6328 L427.7246,154.8196 L429.7246,154.2645 L431.7246,154.8046 L433.7246,154.9881 L435.7246,153.9987 L437.7246,154.6328 L437.7246,154.6328 L437.7246,154.5983 L443.7246,154.4433 L449.7246,154.4624 L455.7246,154.6025 L461.7246,154.3255 L467.7246,154.6328 L467.7246,155.1249 L469.7246,154.0726 L471.7246,154.457 L473.7246,155.0168 L475.7246,154.5566 L477.7246,154.6328" fill="none" style="stroke:#FF9900;stroke-width:1;"/><a href="/use-case/legal-entity-management/financial-information/ratings/" target="_top" title="/use-case/legal-entity-management/financial-information/ratings/" xlink:actuate="onRequest" xlink:href="/use-case/legal-entity-management/financial-information/ratings/" xlink:show="new" xlink:title="/use-case/legal-entity-management/financial-information/ratings/" xlink:type="simple"><text fill="#90EE90" font-family="'Roboto'" font-size="14" lengthAdjust="spacing" textLength="52.7393" x="484.7246" y="185.7764">Ratings</text></a><path d="M427.7246,154.6328 L427.7246,154.8196 L429.7246,154.2645 L431.7246,154.8046 L433.7246,154.9881 L435.7246,153.9987 L437.7246,154.6328 L437.7246,154.6328 L437.7018,154.6068 L440.5997,157.12 L443.6123,159.764 L446.7046,162.4991 L449.5221,164.9205 L452.7246,167.7813 L452.8868,167.9663 L455.54,170.2003 L458.6667,172.9745 L461.8512,175.8147 L464.6995,178.2713 L467.7246,180.9297 L467.7246,180.9903 L469.7246,180.9013 L471.7246,181.0884 L473.7246,181.1423 L475.7246,181.4503 L477.7246,180.9297" fill="none" style="stroke:#FF9900;stroke-width:1;"/><a href="/use-case/legal-entity-management/financial-information/liability-terms/" target="_top" title="/use-case/legal-entity-management/financial-information/liability-terms/" xlink:actuate="onRequest" xlink:href="/use-case/legal-entity-management/financial-information/liability-terms/" xlink:show="new" xlink:title="/use-case/legal-entity-management/financial-information/liability-terms/" xlink:type="simple"><text fill="#90EE90" font-family="'Roboto'" font-size="14" lengthAdjust="spacing" textLength="102.9014" x="484.7246" y="212.0732">Liability Terms</text></a><path d="M427.7246,154.6328 L427.7246,154.8196 L429.7246,154.2645 L431.7246,154.8046 L433.7246,154.9881 L435.7246,153.9987 L437.7246,154.6328 L437.7246,154.6328 L437.7012,154.6074 L439.3773,156.1371 L441.1715,157.7947 L443.0478,159.5412 L444.6412,160.9812 L446.6309,162.8506 L446.864,162.9292 L447.5842,166.3769 L448.9851,170.0542 L450.469,173.7594 L451.4697,177.3017 L452.7246,180.9297 L452.7533,180.9394 L453.9299,184.541 L455.2373,188.1867 L456.4816,191.8111 L457.8463,195.4761 L458.8184,199.0088 L459.0206,199.228 L460.8043,200.8742 L462.4576,202.3791 L464.3018,204.0909 L466.155,205.8124 L467.7246,207.2266 L467.7246,206.5855 L469.7246,207.8297 L471.7246,206.963 L473.7246,207.7011 L475.7246,206.7865 L477.7246,207.2266" fill="none" style="stroke:#FF9900;stroke-width:1;"/><path d="M205.2148,154.6328 L205.2148,154.8196 L207.2148,154.2645 L209.2148,154.8046 L211.2148,154.9881 L213.2148,153.9987 L215.2148,154.6328 L215.2148,154.6328 L215.2148,154.5983 L221.2148,154.4433 L227.2148,154.4624 L233.2148,154.6025 L239.2148,154.3255 L245.2148,154.6328 L245.2148,155.1249 L247.2148,154.0726 L249.2148,154.457 L251.2148,155.0168 L253.2148,154.5566 L255.2148,154.6328" fill="none" style="stroke:#FF9900;stroke-width:1;"/><a href="/use-case/legal-entity-management/lifecycle-and-status/" target="_top" title="/use-case/legal-entity-management/lifecycle-and-status/" xlink:actuate="onRequest" xlink:href="/use-case/legal-entity-management/lifecycle-and-status/" xlink:show="new" xlink:title="/use-case/legal-entity-management/lifecycle-and-status/" xlink:type="simple"><text fill="#90EE90" font-family="'Roboto'" font-size="14" lengthAdjust="spacing" textLength="125.8428" x="262.2148" y="200.7764">Lifecycle &amp; Status</text></a><path d="M205.2148,154.6328 L205.2148,154.8196 L207.2148,154.2645 L209.2148,154.8046 L211.2148,154.9881 L213.2148,153.9987 L215.2148,154.6328 L215.2148,154.6328 L215.1946,154.6048 L216.8849,155.7698 L218.6773,157.0758 L220.5408,158.4799 L222.1596,159.5461 L224.1211,161.0854 L224.3472,161.1825 L225.0824,163.8141 L226.4778,166.7291 L227.9538,169.6787 L228.9611,172.4271 L230.2148,175.2813 L230.2427,175.2932 L231.4205,178.1148 L232.7253,180.9909 L233.9688,183.8407 L235.329,186.7406 L236.3086,189.4771 L236.4836,189.7186 L238.267,191.0121 L239.9375,192.1497 L241.7732,193.5155 L243.6167,194.8919 L245.2148,195.9297 L245.2148,195.2886 L247.2148,196.5328 L249.2148,195.6661 L251.2148,196.4042 L253.2148,195.4897 L255.2148,195.9297" fill="none" style="stroke:#FF9900;stroke-width:1;"/><a href="/use-case/legal-entity-management/contact-and-location-information/" target="_top" title="/use-case/legal-entity-management/contact-and-location-information/" xlink:actuate="onRequest" xlink:href="/use-case/legal-entity-management/contact-and-location-information/" xlink:show="new" xlink:title="/use-case/legal-entity-management/contact-and-location-information/" xlink:type="simple"><text fill="#90EE90" font-family="'Roboto'" font-size="14" lengthAdjust="spacing" textLength="219.4814" x="262.2148" y="238.3701">Contact &amp; Location Information</text></a><path d="M205.2148,154.6328 L205.2148,154.8196 L207.2148,154.2645 L209.2148,154.8046 L211.2148,154.9881 L213.2148,153.9987 L215.2148,154.6328 L215.2148,154.6328 L215.1868,154.6126 L216.8424,156.9871 L218.6392,159.4637 L220.534,162.0111 L222.0908,164.3142 L224.1211,166.9595 L224.3595,167.0203 L224.4942,169.4172 L225.325,171.9917 L226.2407,174.5878 L226.6623,177.0579 L227.3438,179.5943 L227.3735,179.6002 L227.904,182.4883 L228.57,185.4033 L229.1707,188.3053 L229.896,191.232 L230.2148,194.0781 L230.5074,194.1361 L231.0852,197.0336 L231.4743,199.8937 L232.1396,202.8085 L232.8179,205.7259 L233.0859,208.562 L232.7754,208.4827 L234.0227,211.1634 L234.2473,213.5833 L235.2494,216.2015 L235.4509,218.6154 L236.3086,221.1968 L236.2839,221.1789 L238.357,223.8551 L239.8535,226.1148 L241.6903,228.6202 L243.5556,231.1462 L245.2148,233.5234 L245.2148,233.8934 L247.2148,233.52 L249.2148,233.7787 L251.2148,233.0146 L253.2148,233.7762 L255.2148,233.5234" fill="none" style="stroke:#FF9900;stroke-width:1;"/><a href="/use-case/legal-entity-management/compliance-and-documentation/" target="_top" title="/use-case/legal-entity-management/compliance-and-documentation/" xlink:actuate="onRequest" xlink:href="/use-case/legal-entity-management/compliance-and-documentation/" xlink:show="new" xlink:title="/use-case/legal-entity-management/compliance-and-documentation/" xlink:type="simple"><text fill="#90EE90" font-family="'Roboto'" font-size="14" lengthAdjust="spacing" textLength="210.1504" x="262.2148" y="264.667">Compliance &amp; Documentation</text></a><path d="M205.2148,154.6328 L205.2148,154.8196 L207.2148,154.2645 L209.2148,154.8046 L211.2148,154.9881 L213.2148,153.9987 L215.2148,154.6328 L215.2148,154.6328 L215.1845,154.6164 L216.8294,157.8296 L218.6275,161.1258 L220.532,164.4797 L222.0697,167.6349 L224.1211,171.0684 L224.3628,171.1146 L224.4905,174.385 L225.3238,177.7904 L226.2432,181.2123 L226.6618,184.5383 L227.3438,187.9148 L227.3737,187.9193 L227.9039,191.7751 L228.5707,195.6512 L229.1715,199.5175 L229.8981,203.4025 L230.2148,207.2266 L230.5098,207.2704 L231.0877,211.1333 L231.4752,214.9679 L232.1413,218.8439 L232.8204,222.7219 L233.0859,226.5383 L232.7711,226.4781 L234.0267,229.9643 L234.2456,233.2521 L235.2526,236.6908 L235.448,239.9741 L236.3086,243.3848 L236.2818,243.3703 L238.3796,246.8289 L239.8521,249.9487 L241.6935,253.2684 L243.5659,256.6049 L245.2148,259.8203 L245.2148,260.1903 L247.2148,259.8168 L249.2148,260.0756 L251.2148,259.3115 L253.2148,260.0731 L255.2148,259.8203" fill="none" style="stroke:#FF9900;stroke-width:1;"/><a href="/use-case/legal-entity-management/supporting-information/" target="_top" title="/use-case/legal-entity-management/supporting-information/" xlink:actuate="onRequest" xlink:href="/use-case/legal-entity-management/supporting-information/" xlink:show="new" xlink:title="/use-case/legal-entity-management/supporting-information/" xlink:type="simple"><text fill="#90EE90" font-family="'Roboto'" font-size="14" lengthAdjust="spacing" textLength="162.7295" x="262.2148" y="290.9639">Supporting Information</text></a><path d="M205.2148,154.6328 L205.2148,154.8196 L207.2148,154.2645 L209.2148,154.8046 L211.2148,154.9881 L213.2148,153.9987 L215.2148,154.6328 L215.2148,154.6328 L215.1889,154.61 L216.0687,155.6374 L217.0792,156.78 L218.1804,158.0026 L218.9687,158.9494 L220.1953,160.2825 L220.4332,160.3452 L220.7096,163.1901 L221.6806,166.218 L222.7364,169.2683 L223.2991,172.1886 L224.1211,175.1772 L224.151,175.1823 L224.4425,177.1651 L224.8702,179.1709 L225.2322,181.1656 L225.7196,183.1815 L225.7983,185.1285 L226.0937,185.1696 L226.4064,187.3914 L226.5286,189.5868 L226.9297,191.821 L227.3438,194.0569 L227.3438,196.2353 L227.0255,196.1974 L228.2174,201.0988 L228.3613,205.8756 L229.302,210.7471 L229.4222,215.5211 L230.2148,220.375 L230.1846,220.3714 L231.1164,225.2419 L231.3418,230.0283 L231.984,234.8644 L232.6612,239.7045 L233.0859,244.5147 L233.2692,244.5402 L233.3933,246.7358 L233.8305,248.975 L233.7612,251.1437 L234.4475,253.4176 L234.6313,255.6215 L234.8716,255.662 L235.1616,257.6446 L235.5709,259.6473 L235.426,261.5566 L235.6873,263.5343 L236.3086,265.5728 L236.0415,265.5024 L237.0684,268.545 L237.7944,271.5084 L238.9569,274.5868 L239.3741,277.4687 L240.2344,280.4675 L240.12,280.3666 L241.3066,281.6645 L242.0042,282.5314 L243.0496,283.7047 L244.4351,285.178 L245.2148,286.1172 L245.2148,286.5044 L247.2148,286.7701 L249.2148,285.8311 L251.2148,286.4009 L253.2148,286.642 L255.2148,286.1172" fill="none" style="stroke:#FF9900;stroke-width:1;"/><!--SRC=[xLXjJniv4Fw-ly9NfADLBmtXe6fHLH52Ge50K0ALJbM5dDtPn8fZRsql77Uw_txZtMooktaFIGzEv4kIcTbdNdRiiPz3RQWoVIQyFWqSvnSFV2Q079tSNfHFBsyhZNgZIQBFrjxEVgczdpPfLIkDo-Doyu-1tGIJgtBbl7nI7GADcJIQnzLcsW_Pyltt_ixEqAJMkBpE64GczkCukiT4G1NjapPrUnqbG-5L99SgCJIA2eqM84pA-Cj30AhEH2zjIxOuwtHDHm48nzacJBWyz82OBf0E252Kao649Zu-s9Qc-nk97YDKUCIZgeTF6ada7QXxnGoGUsQwCGQx0q4q6CD4H-ShSFtbj79-MMsrI0bVWmmCau9q4TIY67pGfrn3AeShwda8HFPIicQSly9WoOUKlDMbdhotrdcKg18SAt4ZlEW734nIDiVWqv0RyhTJay9SqZwGLqs9kSjNaIGkukWrHS8M-mj8QS_v9urKLahU8yx49oR3c0UEDPBSoo85-Bff1mOnZJrwbEk6J3yxHr9XiWDDgW7HnSY3aDuoy9b6Nyo3A_k15DYPw6R5W2T65zSixFFTRCqyQcYRQbYpkumFbylGswW3oJcuTdNejRiPUQcWWP9yWnwEB2HL3njqKHM6cKqwOCA0ygaB6_JHWXyX21UkS4mnbmLKc1ZikilSdW2jSSCScUk1EKQKVc9cS6FG4-9CsOos9I5Ld_AyRYoTElC1XmrC1HyQp0mpsZp7m2FfLEH8Ep6eI3EguUzEsJLIpOaWCfdgosgdBU1jKjaZjceuXF3FrjnFUiqhNF1KT3Xy-eJJIaln-JE-tnOs7qY30spgz5ZNNCXtN7vcPxUeLBZm9mOfABzTVzovmzS6WjSFsa3_-TLw_N5lgDR9G7uUfHv5-_mgdMgJzc3mnb7d3iRPBA8pxCxyqzvAkSzEB1um7jLTy1R9TMAgBZgcE5VKehdYUNrsAsqWqzclC3tQ3JMJJXh9bNBaFBaUberHh1qQ65UbWqekdBc3BDLwmzwsoKLyyIOw09VvpCKaun4vTWzPF8wvgT7HGMAhLllu4VKvPVfivJXlRyctRwGOQYYukFwB73gK5o0wNHRwLE0zh8__YgHk5ScnysAe8D-_EsyN1M6UbM4fg3tZ5_02N53GOHelybPG9ASP0_8hQQRKIxbofGeaFWU5Zhsk2uhdnY8U_GTISZAKBWKhxt75wIuBek1T6Z23TXXXw9fGeOT6Oe31Ls8r7eq6wjZLOfvyPgDZg6F2jsVHk4ArH4nEH-8OTz4S9YFZYW2ZYwGSVQy3qRTxiTNZZeI1f_wj0nse4fPhAO0s36M0Fge36QacidLuijs7e4NIZ7-i0vCpscRSckAcsqViUY8WrrQmL5Dol6Au3ow7g2djLXf6Y0CfTc8haYsvWF1LkIQ2v7AmOZEjM8aj4Bu-q8_tvCBE-W6M15TZvC-JRXYrIk8eqQAluxHkAISw373nsrUOpQCrbEVZFmJSmHFwz33BfcwGddp2H60oXnPa0TFc4m2MuF-60t3Ag9my66SmVey5d4NmpS8OZs05Icyv1mkHU8-1d4dRBGky256tEkOCQcvrqAbatEgGi-YtrL4tGhWbuKoXsfB8bcRPaWGcKMm9w3HsBOafnQiDZ_9vKYt1ol5f6VkvPDhGOPv66w9d6RJKGbg939k-ioxJBUCl_x5ary-EQmvByP-LwId4jJ05zPEZUL95MYjxbCInP3PJevx959KsIGsjEvDS_V_NrCyBl_F2xxpmEo_ypWk_yvpudIkEju-RYph1ZKDRWzAxtPtT_NUbKXiCBUsylX4zWVj3TFDdM7PiGNZZl3wvgXCjGuNHUtOlixC27t_ZdD4xIfgXi7O7f160E3i-JmIuqzun9OMDt3dxUZ4oUBzNE686hseA0o5VBvo4cQaALreow83SNDSA7vmwZliGapyW89mAJXUZ7b3N-XS0]--></g></svg>