<svg xmlns="http://www.w3.org/2000/svg" xmlns:xlink="http://www.w3.org/1999/xlink" contentStyleType="text/css" data-diagram-type="MINDMAP" height="286px" preserveAspectRatio="none" style="width:705px;height:286px;" version="1.1" viewBox="0 0 705 286" width="705px" zoomAndPan="magnify"><defs/><g><a href="/use-case/legal-entity-management/" target="_top" title="/use-case/legal-entity-management/" xlink:actuate="onRequest" xlink:href="/use-case/legal-entity-management/" xlink:show="new" xlink:title="/use-case/legal-entity-management/" xlink:type="simple"><text fill="#90EE90" font-family="'Roboto'" font-size="14" lengthAdjust="spacing" textLength="179.7646" x="17" y="147.2568">Legal Entity Management</text></a><polygon fill="#4051B5" points="259.2148,44.4453,259.2148,44.6555,269.3631,44.031,279.5113,44.6386,289.6596,44.845,299.8078,43.7319,309.9561,44.3676,320.1044,44.0188,330.2526,44.0618,340.4009,44.3772,350.5491,43.7539,360.6974,44.999,370.8456,43.815,380.9939,44.2475,391.1421,44.8773,401.2904,44.3595,411.4386,44.5136,421.5869,44.4134,431.7351,44.6238,441.8834,44.6844,452.0316,45.031,462.1799,45.1164,472.3281,44.4453,472.4148,44.6545,472.9263,44.758,473.5186,45.0567,474.1148,45.3645,474.4989,45.1605,475.1566,45.6169,475.3655,45.7034,475.2996,46.1447,475.7896,46.8163,475.707,47.2508,476.0727,47.8709,476.3281,48.4453,476.5753,48.4453,476.3119,54.1047,476.3632,59.7641,476.441,65.4234,476.4669,71.0828,476.3281,76.7422,476.3269,76.7417,476.1823,77.3445,475.6832,77.8005,475.7128,78.4755,475.5597,79.0749,475.1566,79.5706,475.2133,79.7075,474.6691,79.9937,473.9636,79.8905,473.3763,80.0727,472.8145,80.3165,472.3281,80.7422,472.3281,80.6833,462.1799,80.5457,452.0316,81.4236,441.8834,80.5675,431.7351,80.3991,421.5869,80.9705,411.4386,80.0753,401.2904,80.2231,391.1421,81.3911,380.9939,81.1779,370.8456,81.4767,360.6974,80.4204,350.5491,81.0614,340.4009,81.3326,330.2526,80.2698,320.1044,80.6463,309.9561,80.8682,299.8078,81.3939,289.6596,80.738,279.5113,81.2048,269.3631,80.1884,259.2148,80.7422,259.1285,80.5336,258.7134,80.663,257.992,80.0528,257.5827,80.196,256.9785,79.8686,256.3864,79.5706,256.3039,79.5364,256.0432,78.9598,256.0591,78.4978,255.5913,77.8354,255.6314,77.3834,255.2148,76.7422,255.0306,76.7422,255.4207,71.0828,255.3763,65.4234,255.2965,59.7641,255.2306,54.1047,255.2148,48.4453,255.4386,48.538,255.6381,47.9579,255.7356,47.3355,256.0004,46.7825,256.112,46.166,256.3864,45.6169,256.4778,45.8375,256.9719,45.4303,257.5398,45.2014,258.0059,44.7266,258.5975,44.5548,259.2148,44.4453" style="stroke:#FF6F00;stroke-width:1.5;"/><a href="/use-case/legal-entity-management/identification-and-registration/" target="_top" title="/use-case/legal-entity-management/identification-and-registration/" xlink:actuate="onRequest" xlink:href="/use-case/legal-entity-management/identification-and-registration/" xlink:show="new" xlink:title="/use-case/legal-entity-management/identification-and-registration/" xlink:type="simple"><text fill="#90EE90" font-family="'Roboto'" font-size="14" lengthAdjust="spacing" textLength="196.6631" x="265.2148" y="67.4404">Identification &amp; Registration</text></a><a href="/use-case/legal-entity-management/identification-and-registration/legal-form/" target="_top" title="/use-case/legal-entity-management/identification-and-registration/legal-form/" xlink:actuate="onRequest" xlink:href="/use-case/legal-entity-management/identification-and-registration/legal-form/" xlink:show="new" xlink:title="/use-case/legal-entity-management/identification-and-registration/legal-form/" xlink:type="simple"><text fill="#90EE90" font-family="'Roboto'" font-size="14" lengthAdjust="spacing" textLength="78.2305" x="533.3281" y="27.9951">Legal Form</text></a><path d="M476.3281,62.5938 L476.3281,62.7806 L478.3281,62.2255 L480.3281,62.7656 L482.3281,62.949 L484.3281,61.9596 L486.3281,62.5938 L486.3281,62.5938 L486.3085,62.5653 L488.0015,61.2052 L489.7936,59.9883 L491.6546,58.8708 L493.2783,57.4104 L495.2344,56.4304 L495.4588,56.5313 L496.1976,53.6037 L497.5917,50.9707 L499.0657,48.3735 L500.0746,45.5673 L501.3281,42.8711 L501.3558,42.8835 L502.5339,40.1534 L503.838,37.4799 L505.0813,34.7791 L506.4406,32.1303 L507.4219,29.3118 L507.5916,29.557 L509.3749,28.3273 L511.0488,26.9395 L512.8829,25.7832 L514.7245,24.6377 L516.3281,23.1484 L516.3281,22.5074 L518.3281,23.7516 L520.3281,22.8849 L522.3281,23.6229 L524.3281,22.7084 L526.3281,23.1484" fill="none" style="stroke:#FF9900;stroke-width:1;"/><a href="/use-case/legal-entity-management/identification-and-registration/business-registration/" target="_top" title="/use-case/legal-entity-management/identification-and-registration/business-registration/" xlink:actuate="onRequest" xlink:href="/use-case/legal-entity-management/identification-and-registration/business-registration/" xlink:show="new" xlink:title="/use-case/legal-entity-management/identification-and-registration/business-registration/" xlink:type="simple"><text fill="#90EE90" font-family="'Roboto'" font-size="14" lengthAdjust="spacing" textLength="151.2383" x="533.3281" y="54.292">Business Registration</text></a><path d="M476.3281,62.5938 L476.3281,62.7806 L478.3281,62.2255 L480.3281,62.7656 L482.3281,62.949 L484.3281,61.9596 L486.3281,62.5938 L486.3281,62.5938 L486.3143,62.5621 L489.252,61.1053 L492.2597,59.808 L495.316,58.6215 L498.2048,57.0529 L501.3281,56.0195 L501.4269,56.2449 L504.2157,54.4481 L507.2928,53.3093 L510.4052,52.2508 L513.3128,50.7252 L516.3281,49.4453 L516.3281,49.506 L518.3281,49.4169 L520.3281,49.604 L522.3281,49.6579 L524.3281,49.9659 L526.3281,49.4453" fill="none" style="stroke:#FF9900;stroke-width:1;"/><a href="/use-case/legal-entity-management/identification-and-registration/commercial-register/" target="_top" title="/use-case/legal-entity-management/identification-and-registration/commercial-register/" xlink:actuate="onRequest" xlink:href="/use-case/legal-entity-management/identification-and-registration/commercial-register/" xlink:show="new" xlink:title="/use-case/legal-entity-management/identification-and-registration/commercial-register/" xlink:type="simple"><text fill="#90EE90" font-family="'Roboto'" font-size="14" lengthAdjust="spacing" textLength="146.7607" x="533.3281" y="80.5889">Commercial Register</text></a><path d="M476.3281,62.5938 L476.3281,62.7806 L478.3281,62.2255 L480.3281,62.7656 L482.3281,62.949 L484.3281,61.9596 L486.3281,62.5938 L486.3281,62.5938 L486.3143,62.5621 L489.252,63.735 L492.2597,65.0673 L495.316,66.5105 L498.2048,67.5717 L501.3281,69.168 L501.4269,69.3933 L504.2157,70.2262 L507.2928,71.7172 L510.4052,73.2883 L513.3128,74.3924 L516.3281,75.7422 L516.3281,75.8028 L518.3281,75.7138 L520.3281,75.9009 L522.3281,75.9548 L524.3281,76.2628 L526.3281,75.7422" fill="none" style="stroke:#FF9900;stroke-width:1;"/><a href="/use-case/legal-entity-management/identification-and-registration/classification/" target="_top" title="/use-case/legal-entity-management/identification-and-registration/classification/" xlink:actuate="onRequest" xlink:href="/use-case/legal-entity-management/identification-and-registration/classification/" xlink:show="new" xlink:title="/use-case/legal-entity-management/identification-and-registration/classification/" xlink:type="simple"><text fill="#90EE90" font-family="'Roboto'" font-size="14" lengthAdjust="spacing" textLength="92.6338" x="533.3281" y="106.8857">Classification</text></a><path d="M476.3281,62.5938 L476.3281,62.7806 L478.3281,62.2255 L480.3281,62.7656 L482.3281,62.949 L484.3281,61.9596 L486.3281,62.5938 L486.3281,62.5938 L486.3085,62.5653 L488.0015,63.6705 L489.7936,64.9189 L491.6546,66.2668 L493.2783,67.2717 L495.2344,68.7571 L495.4588,68.8579 L496.1976,71.3541 L497.5917,74.1448 L499.0657,76.9714 L500.0746,79.5889 L501.3281,82.3164 L501.3558,82.3288 L502.5339,85.0225 L503.838,87.7727 L505.0813,90.4956 L506.4406,93.2706 L507.4219,95.8757 L507.5916,96.121 L509.3749,97.3566 L511.0488,98.4341 L512.8829,99.7432 L514.7245,101.063 L516.3281,102.0391 L516.3281,101.398 L518.3281,102.6422 L520.3281,101.7755 L522.3281,102.5136 L524.3281,101.599 L526.3281,102.0391" fill="none" style="stroke:#FF9900;stroke-width:1;"/><path d="M205.2148,142.4102 L205.2148,142.597 L207.2148,142.0419 L209.2148,142.582 L211.2148,142.7654 L213.2148,141.776 L215.2148,142.4102 L215.2148,142.4102 L215.1867,142.3901 L216.8418,139.8057 L218.6386,137.3226 L220.5339,134.9098 L222.0898,132.2545 L224.1211,129.9388 L224.3597,129.999 L224.494,127.3137 L225.3249,124.8041 L226.2408,122.3159 L226.6623,119.703 L227.3438,117.1557 L227.3735,117.1616 L227.904,114.2223 L228.5701,111.3095 L229.1707,108.3839 L229.8961,105.4828 L230.2148,102.502 L230.5075,102.5593 L231.0853,99.6292 L231.4743,96.6622 L232.1397,93.7493 L232.818,90.8389 L233.0859,87.8482 L232.7751,87.7698 L234.0229,85.3653 L234.2472,82.7027 L235.2496,80.2363 L235.4507,77.5679 L236.3086,75.0651 L236.2838,75.0474 L238.3581,72.7624 L239.8535,70.064 L241.6904,67.6095 L243.5561,65.1755 L245.2148,62.5938 L245.2148,62.9637 L247.2148,62.5903 L249.2148,62.8491 L251.2148,62.0849 L253.2148,62.8465 L255.2148,62.5938" fill="none" style="stroke:#FF9900;stroke-width:1;"/><a href="/use-case/legal-entity-management/corporate-governance/" target="_top" title="/use-case/legal-entity-management/corporate-governance/" xlink:actuate="onRequest" xlink:href="/use-case/legal-entity-management/corporate-governance/" xlink:show="new" xlink:title="/use-case/legal-entity-management/corporate-governance/" xlink:type="simple"><text fill="#90EE90" font-family="'Roboto'" font-size="14" lengthAdjust="spacing" textLength="159.1406" x="262.2148" y="108.7373">Corporate Governance</text></a><path d="M205.2148,142.4102 L205.2148,142.597 L207.2148,142.0419 L209.2148,142.582 L211.2148,142.7654 L213.2148,141.776 L215.2148,142.4102 L215.2148,142.4102 L215.1955,142.3815 L216.89,141.0494 L218.6819,139.8615 L220.5416,138.7739 L222.1678,137.3406 L224.1211,136.3915 L224.3446,136.4944 L225.0854,133.6262 L226.4787,131.0583 L227.9517,128.5271 L228.9615,125.7827 L230.2148,123.1504 L230.2424,123.1631 L231.4207,120.4962 L232.7244,117.8871 L233.9676,115.2502 L235.3263,112.6663 L236.3086,109.9093 L236.4756,110.1564 L238.2589,108.9557 L239.9345,107.5956 L241.7677,106.4688 L243.6083,105.353 L245.2148,103.8906 L245.2148,103.2496 L247.2148,104.4937 L249.2148,103.6271 L251.2148,104.3651 L253.2148,103.4506 L255.2148,103.8906" fill="none" style="stroke:#FF9900;stroke-width:1;"/><a href="/use-case/legal-entity-management/ownership-and-capital-structure/" target="_top" title="/use-case/legal-entity-management/ownership-and-capital-structure/" xlink:actuate="onRequest" xlink:href="/use-case/legal-entity-management/ownership-and-capital-structure/" xlink:show="new" xlink:title="/use-case/legal-entity-management/ownership-and-capital-structure/" xlink:type="simple"><text fill="#90EE90" font-family="'Roboto'" font-size="14" lengthAdjust="spacing" textLength="213.4453" x="262.2148" y="135.0342">Ownership &amp; Capital Structure</text></a><path d="M205.2148,142.4102 L205.2148,142.597 L207.2148,142.0419 L209.2148,142.582 L211.2148,142.7654 L213.2148,141.776 L215.2148,142.4102 L215.2148,142.4102 L215.2018,142.3782 L218.1433,141.0123 L221.1505,139.8078 L224.2034,138.7153 L227.0989,137.2365 L230.2148,136.2988 L230.3077,136.5267 L233.1092,134.8171 L236.1817,133.7729 L239.2873,132.8098 L242.2005,131.3745 L245.2148,130.1875 L245.2148,130.2482 L247.2148,130.1591 L249.2148,130.3462 L251.2148,130.4001 L253.2148,130.7081 L255.2148,130.1875" fill="none" style="stroke:#FF9900;stroke-width:1;"/><a href="/use-case/legal-entity-management/financial-information/" target="_top" title="/use-case/legal-entity-management/financial-information/" xlink:actuate="onRequest" xlink:href="/use-case/legal-entity-management/financial-information/" xlink:show="new" xlink:title="/use-case/legal-entity-management/financial-information/" xlink:type="simple"><text fill="#90EE90" font-family="'Roboto'" font-size="14" lengthAdjust="spacing" textLength="148.0596" x="262.2148" y="161.3311">Financial Information</text></a><path d="M205.2148,142.4102 L205.2148,142.597 L207.2148,142.0419 L209.2148,142.582 L211.2148,142.7654 L213.2148,141.776 L215.2148,142.4102 L215.2148,142.4102 L215.2002,142.3789 L218.1343,143.646 L221.1425,145.0707 L224.202,146.605 L227.0843,147.7617 L230.2148,149.4473 L230.3194,149.67 L233.0959,150.6011 L236.1775,152.1825 L239.2964,153.8433 L242.1987,155.0424 L245.2148,156.4844 L245.2148,156.545 L247.2148,156.456 L249.2148,156.6431 L251.2148,156.6969 L253.2148,157.005 L255.2148,156.4844" fill="none" style="stroke:#FF9900;stroke-width:1;"/><a href="/use-case/legal-entity-management/lifecycle-and-status/" target="_top" title="/use-case/legal-entity-management/lifecycle-and-status/" xlink:actuate="onRequest" xlink:href="/use-case/legal-entity-management/lifecycle-and-status/" xlink:show="new" xlink:title="/use-case/legal-entity-management/lifecycle-and-status/" xlink:type="simple"><text fill="#90EE90" font-family="'Roboto'" font-size="14" lengthAdjust="spacing" textLength="125.8428" x="262.2148" y="187.6279">Lifecycle &amp; Status</text></a><path d="M205.2148,142.4102 L205.2148,142.597 L207.2148,142.0419 L209.2148,142.582 L211.2148,142.7654 L213.2148,141.776 L215.2148,142.4102 L215.2148,142.4102 L215.1949,142.382 L216.8865,143.5171 L218.6788,144.7943 L220.5411,146.1702 L222.1622,147.2058 L224.1211,148.7181 L224.3464,148.8171 L225.0834,151.381 L226.4781,154.2338 L227.9531,157.1219 L228.9612,159.8049 L230.2148,162.5957 L230.2426,162.6079 L231.4206,165.3655 L232.725,168.1786 L233.9684,170.965 L235.3282,173.8024 L236.3086,176.4733 L236.481,176.7167 L238.2643,177.9812 L239.9365,179.0888 L241.7714,180.4262 L243.614,181.7743 L245.2148,182.7813 L245.2148,182.1402 L247.2148,183.3844 L249.2148,182.5177 L251.2148,183.2557 L253.2148,182.3412 L255.2148,182.7813" fill="none" style="stroke:#FF9900;stroke-width:1;"/><a href="/use-case/legal-entity-management/contact-and-location-information/" target="_top" title="/use-case/legal-entity-management/contact-and-location-information/" xlink:actuate="onRequest" xlink:href="/use-case/legal-entity-management/contact-and-location-information/" xlink:show="new" xlink:title="/use-case/legal-entity-management/contact-and-location-information/" xlink:type="simple"><text fill="#90EE90" font-family="'Roboto'" font-size="14" lengthAdjust="spacing" textLength="219.4814" x="262.2148" y="213.9248">Contact &amp; Location Information</text></a><path d="M205.2148,142.4102 L205.2148,142.597 L207.2148,142.0419 L209.2148,142.582 L211.2148,142.7654 L213.2148,141.776 L215.2148,142.4102 L215.2148,142.4102 L215.1886,142.3877 L216.852,144.3704 L218.6478,146.4661 L220.5356,148.6406 L222.1063,150.544 L224.1211,152.827 L224.3567,152.8981 L224.4974,154.8815 L225.326,157.0725 L226.2385,159.2889 L226.6627,161.3578 L227.3438,163.5043 L227.3733,163.5112 L227.9041,165.949 L228.5694,168.4184 L229.1699,170.8725 L229.8941,173.3556 L230.2148,175.7441 L230.5052,175.8123 L231.083,178.261 L231.4735,180.6659 L232.1381,183.1351 L232.8156,185.6073 L233.0859,187.984 L232.7791,187.8913 L234.0192,190.2066 L234.2488,192.2168 L235.2467,194.4589 L235.4534,196.4622 L236.3086,198.6613 L236.2855,198.6415 L238.3404,200.9588 L239.8546,202.8139 L241.6879,204.9418 L243.548,207.0926 L245.2148,209.0781 L245.2148,209.4481 L247.2148,209.0747 L249.2148,209.3334 L251.2148,208.5693 L253.2148,209.3309 L255.2148,209.0781" fill="none" style="stroke:#FF9900;stroke-width:1;"/><a href="/use-case/legal-entity-management/compliance-and-documentation/" target="_top" title="/use-case/legal-entity-management/compliance-and-documentation/" xlink:actuate="onRequest" xlink:href="/use-case/legal-entity-management/compliance-and-documentation/" xlink:show="new" xlink:title="/use-case/legal-entity-management/compliance-and-documentation/" xlink:type="simple"><text fill="#90EE90" font-family="'Roboto'" font-size="14" lengthAdjust="spacing" textLength="210.1504" x="262.2148" y="240.2217">Compliance &amp; Documentation</text></a><path d="M205.2148,142.4102 L205.2148,142.597 L207.2148,142.0419 L209.2148,142.582 L211.2148,142.7654 L213.2148,141.776 L215.2148,142.4102 L215.2148,142.4102 L215.1854,142.3921 L216.8345,145.2162 L218.632,148.1314 L220.5328,151.1098 L222.0779,153.8701 L224.1211,156.9359 L224.3616,156.988 L224.4918,159.8544 L225.3242,162.8729 L226.2423,165.9099 L226.662,168.839 L227.3438,171.8248 L227.3737,171.8298 L227.904,175.236 L228.5704,178.6651 L229.1712,182.0831 L229.8973,185.5222 L230.2148,188.8926 L230.509,188.9421 L231.0868,192.3562 L231.4749,195.7385 L232.1407,199.1674 L232.8195,202.5986 L233.0859,205.9603 L232.7727,205.8925 L234.0252,209.0019 L234.2462,211.888 L235.2514,214.9439 L235.449,217.8249 L236.3086,220.8492 L236.2826,220.8333 L238.3708,223.9267 L239.8526,226.6482 L241.6922,229.5892 L243.5619,232.5485 L245.2148,235.375 L245.2148,235.745 L247.2148,235.3715 L249.2148,235.6303 L251.2148,234.8662 L253.2148,235.6278 L255.2148,235.375" fill="none" style="stroke:#FF9900;stroke-width:1;"/><a href="/use-case/legal-entity-management/supporting-information/" target="_top" title="/use-case/legal-entity-management/supporting-information/" xlink:actuate="onRequest" xlink:href="/use-case/legal-entity-management/supporting-information/" xlink:show="new" xlink:title="/use-case/legal-entity-management/supporting-information/" xlink:type="simple"><text fill="#90EE90" font-family="'Roboto'" font-size="14" lengthAdjust="spacing" textLength="162.7295" x="262.2148" y="266.5186">Supporting Information</text></a><path d="M205.2148,142.4102 L205.2148,142.597 L207.2148,142.0419 L209.2148,142.582 L211.2148,142.7654 L213.2148,141.776 L215.2148,142.4102 L215.2148,142.4102 L215.1901,142.3861 L216.075,143.303 L217.0848,144.3412 L218.1814,145.4638 L218.9789,146.2956 L220.1953,147.5347 L220.4316,147.6033 L220.7115,150.1585 L221.6812,152.9142 L222.7351,155.6943 L223.2993,158.3321 L224.1211,161.0448 L224.151,161.0498 L224.7516,164.8625 L225.4884,168.6982 L226.1595,172.5228 L226.9559,176.3685 L227.3438,180.1453 L227.6395,180.1841 L228.2173,184.5637 L228.6044,188.9183 L229.2707,193.3095 L229.9501,197.7025 L230.2148,202.041 L229.897,201.9993 L231.0881,206.4594 L231.2326,210.7822 L232.1727,215.2093 L232.2936,219.529 L233.0859,223.9367 L233.0559,223.9317 L234.0555,227.8117 L234.3536,231.5733 L235.0657,235.4048 L235.8125,239.2422 L236.3086,243.0372 L236.4862,243.0889 L237.0921,245.7388 L238.0015,248.4769 L238.4198,251.0723 L239.5706,253.8806 L240.2344,256.5473 L240.4091,256.7172 L241.3721,257.71 L242.4219,258.787 L243.0687,259.4724 L244.0109,260.445 L245.2148,261.6719 L245.2148,261.1195 L247.2148,261.6195 L249.2148,261.4972 L251.2148,262.2776 L253.2148,261.5166 L255.2148,261.6719" fill="none" style="stroke:#FF9900;stroke-width:1;"/><!--SRC=[xLXjJniv4Fw-ly9Nf6ihBeLmKBMegWWXeK0WA85Afwf2pkuaiTYrjxONZZlTVx_nlcLtynwoFJYHJp0UF_FCsEkndmEbgTGUuuv7VSlwnO4-uq0EZs_EQoSND_LsgzqXuMzZTtklsjlBkdGRzVR5KQtpH-mtmUMoLZ-h7JTIe36NTkUeqSd68Hlz_ll-zdRgqcnVNEKSGXVpionroxXF9VL8Zzgt0oa2xjI5AsJYg2Nb2Zs0wuppbmSVP8lnswmlsN3POAW74e1Rrcl2kEq63X0z13803fAw98LGf8yJUq8FVoFXD4AvGnmgRt6c5aJSWRoNJ0EvPteOOR0xu4I1remFLB42LrzEwcSNZMwNL74PXA-Pu6I8e0P5uyG-THLaShYaZeD0P3TZwqJvIoHBFcJitI5rnBtnBgA4bN2n4jVS2V-0s2NZSmHz6hYQ_6qr1TSNr0FogYCmT_4gj4H572rJQEoolu1KTwr_iaWrASKzuaoSCHb6FxXO8-4wUIGVbviE8EOqDlMmi1jo-zaw51AJZKSo6n13Z29muIm3dzleYqMmXUSBZZiJmwn8U2Axg6Q1v-xaQ-PGJNjKmPh3vMBOhWYSKWC8rmNRV1rgxM56KUhe88LROeH30qdbGuaX6bmpNMO0nZN8FhMXn1XT-140j-4IsnIpcK-vZi2kXio-vQ0K7fWZTnMx8wFiZ9dang0dyCpuZ8ubBgH7tUBOM3ejrWTiDZ0LF7MOIJCyFCV0G-jKv71q8gbmP5J3twsQhOMSmo1qcHhBZ4xxW5-J-YunLSCcXFzipFrbltc97ppb0nS-VS9kfGJ__1dNjukR3uJ61ZQrUwohBnHtNB5dvu-e35tu4qbowjwidtVXybK2UVMWD7ZFhzRhvrrIhPE6_3nAFMBx_2gTsIQzkF56h0iNutmMuHrsU_vjRwNSPoSMDHY7gY4uY-GwCLKR0rFiAtBHNF6-FdihbP3fx2NCjdPDzQIRHlAa70LFdeSrhINh1Hh6XxAaaWTduI9BbIevscjo7ZsyYVB1PdrcOv9HYnnxXopEOsvgT7IHs6WsFtx4yS9WzcvbMPitvDitiXKegDZu_M-vCA1k1SBRPSMZ7DzX7lwtHLfc8BbsdgS3vFjtQtDpCGpc61jMWfehVWNVlnK90wRm7MyCM-Gavq1-9PtCS1HfKRxpOaNpy9tl9QaryU_rnkW5Yfb25x8yZCqbPeUlJm-apN1oP0UvXU-Un1X71hdcgEQpIiSnOEx_ADQ2eMmXVO6mK1aOjOLJlFQR368hEKwjIy6AUpmmrP3v8NcR-aoZ7oOGs3gG6A6TEE3cgqV3UBEDXvSArMU6dba1niqsYslIJCpaP6HU2jZ51uNzOBiGvc0Epa3X7awiIBmRsfQiDtOJMuUGheWNE4Uy7daWV2iUNpa3eusup2nU6CyHTc3iQQ1a56CTPSUM2g827_UAaUFoUNHJUv7_0U1vdOYb1tdjj4GnyWdBVadNML3poxfF05X2xKlRtPJ6EBaDpj3t7WiuIywRXJ7EO0K1Rxa02qbsZu6SAT8j2xo8BBSwvWmXRdNGgTBRwf2pnBRLKKkHrn8wKuIrXDdIcbgIm2H1BG6TfgKbd38gMdfnBqfe2LP1FSlvpvNEqe15qIn5p-jbcGzf9Ubh-icwp6uPN_p7Ibi_czSSJU8_AzDJuBMmuFIJsJof8grLAqfuB9dDLDOpTQ5gcKBGkZCfrFz_BVIyg3alQiwBclEYvhoeEKzNpRbqyQrnVTuYkC-KSQY-szdUsNjNhVP0q-hscsj-ot4xXUzyXcNNp8EtrflZonPH8f38tZ5VXkaCEFsjTKhlAEa4tFZjaxOF_FJeB37WkNh7fE26kNNwzNpay7wtSiWqFima4Y5Vpwr4XsbmMnZfPvzSNpKh7wmMDlS0azydmAqwzX8j7t2i-oy0]--></g></svg>