<svg xmlns="http://www.w3.org/2000/svg" xmlns:xlink="http://www.w3.org/1999/xlink" contentStyleType="text/css" data-diagram-type="MINDMAP" height="275px" preserveAspectRatio="none" style="width:666px;height:275px;" version="1.1" viewBox="0 0 666 275" width="666px" zoomAndPan="magnify"><defs/><g><a href="/use-case/legal-entity-management/" target="_top" title="/use-case/legal-entity-management/" xlink:actuate="onRequest" xlink:href="/use-case/legal-entity-management/" xlink:show="new" xlink:title="/use-case/legal-entity-management/" xlink:type="simple"><text fill="#4051B5" font-family="'Roboto'" font-size="13" lengthAdjust="spacing" textLength="166.9243" x="17" y="141.3813">Legal Entity Management</text></a><polygon fill="#4051B5" points="246.0566,42.6992,246.0566,42.9094,255.994,42.2849,265.9314,42.8925,275.8688,43.0989,285.8063,41.9858,295.7437,42.6215,305.6811,42.2727,315.6185,42.3157,325.5559,42.6311,335.4933,42.0078,345.4307,43.2529,355.3681,42.0689,365.3055,42.5015,375.2429,43.1312,385.1803,42.6134,395.1177,42.7675,405.0551,42.6673,414.9925,42.8777,424.9299,42.9384,434.8673,43.2849,444.8047,42.6992,444.8903,42.9059,445.457,43.1427,445.9685,43.2463,446.5609,43.5449,447.157,43.8527,447.6331,43.8708,447.411,43.7788,448.0764,44.523,448.0104,44.9643,448.5005,45.6359,448.4179,46.0704,448.8047,46.6992,448.7819,46.6992,449.0519,52.1258,448.7884,57.5523,448.8398,62.9789,448.9176,68.4055,448.8047,73.832,448.9329,73.8851,448.5692,74.3972,448.4245,75,447.9255,75.4561,447.955,76.131,447.6331,76.6605,447.703,76.8293,447.1241,77.0317,446.5799,77.3179,445.8744,77.2146,445.2872,77.3969,444.8047,77.832,444.8047,77.2106,434.8673,77.7732,424.9299,77.6355,414.9925,78.5134,405.0551,77.6574,395.1177,77.489,385.1803,78.0603,375.2429,77.1652,365.3055,77.3129,355.3681,78.481,345.4307,78.2677,335.4933,78.5665,325.5559,77.5102,315.6185,78.1512,305.6811,78.4225,295.7437,77.3596,285.8063,77.7362,275.8688,77.958,265.9314,78.4838,255.994,77.8278,246.0566,77.832,246.1156,77.9745,245.4203,77.4272,244.8389,77.1548,244.4238,77.2842,243.7024,76.674,243.2282,76.6605,243.385,76.7254,243.0575,76.1211,242.6771,75.4949,242.4163,74.9183,242.4322,74.4562,242.0566,73.832,241.9569,73.832,242.2539,68.4055,241.8724,62.9789,242.2624,57.5523,242.2181,52.1258,242.0566,46.6992,242.1321,46.7305,242.3055,46.1396,242.749,45.6605,242.9485,45.0804,243.046,44.4581,243.2282,43.8708,243.2624,43.9534,243.7773,43.5964,244.451,43.6228,244.945,43.2155,245.513,42.9867,246.0566,42.6992" style="stroke:#FF6F00;stroke-width:1.5;"/><a href="/use-case/legal-entity-management/identification-and-registration/" target="_top" title="/use-case/legal-entity-management/identification-and-registration/" xlink:actuate="onRequest" xlink:href="/use-case/legal-entity-management/identification-and-registration/" xlink:show="new" xlink:title="/use-case/legal-entity-management/identification-and-registration/" xlink:type="simple"><text fill="#4051B5" font-family="'Roboto'" font-size="13" lengthAdjust="spacing" textLength="182.6157" x="252.0566" y="64.7661">Identification &amp; Registration</text></a><a href="/use-case/legal-entity-management/identification-and-registration/legal-form/" target="_top" title="/use-case/legal-entity-management/identification-and-registration/legal-form/" xlink:actuate="onRequest" xlink:href="/use-case/legal-entity-management/identification-and-registration/legal-form/" xlink:show="new" xlink:title="/use-case/legal-entity-management/identification-and-registration/legal-form/" xlink:type="simple"><text fill="#4051B5" font-family="'Roboto'" font-size="13" lengthAdjust="spacing" textLength="72.6426" x="505.8047" y="27.0669">Legal Form</text></a><path d="M448.8047,60.2656 L448.8047,60.4525 L450.8047,59.8973 L452.8047,60.4374 L454.8047,60.6209 L456.8047,59.6315 L458.8047,60.2656 L458.8047,60.2656 L458.7856,60.2368 L460.4814,58.9294 L462.2732,57.7673 L464.1317,56.7061 L465.7602,55.2969 L467.7109,54.3751 L467.9336,54.4798 L468.6762,51.6641 L470.0689,49.1541 L471.5409,46.6814 L472.5514,43.9916 L473.8047,41.416 L473.8321,41.4289 L475.0106,38.8182 L476.314,36.2661 L477.5571,33.6858 L478.9153,31.1595 L479.8984,28.4569 L480.063,28.7057 L481.8462,27.5306 L483.5234,26.1951 L485.3558,25.0945 L487.1956,24.0048 L488.8047,22.5664 L488.8047,21.9254 L490.8047,23.1695 L492.8047,22.3028 L494.8047,23.0409 L496.8047,22.1264 L498.8047,22.5664" fill="none" style="stroke:#FF6F00;stroke-width:1;"/><a href="/use-case/legal-entity-management/identification-and-registration/business-registration/" target="_top" title="/use-case/legal-entity-management/identification-and-registration/business-registration/" xlink:actuate="onRequest" xlink:href="/use-case/legal-entity-management/identification-and-registration/business-registration/" xlink:show="new" xlink:title="/use-case/legal-entity-management/identification-and-registration/business-registration/" xlink:type="simple"><text fill="#4051B5" font-family="'Roboto'" font-size="13" lengthAdjust="spacing" textLength="140.4355" x="505.8047" y="52.1997">Business Registration</text></a><path d="M448.8047,60.2656 L448.8047,60.4525 L450.8047,59.8973 L452.8047,60.4374 L454.8047,60.6209 L456.8047,59.6315 L458.8047,60.2656 L458.8047,60.2656 L458.7913,60.2338 L461.7315,58.8342 L464.7388,57.5951 L467.793,56.4678 L470.686,54.9556 L473.8047,53.9824 L473.8998,54.2094 L476.6965,52.4674 L479.7707,51.3881 L482.8789,50.3896 L485.79,48.9207 L488.8047,47.6992 L488.8047,47.7599 L490.8047,47.6708 L492.8047,47.8579 L494.8047,47.9118 L496.8047,48.2198 L498.8047,47.6992" fill="none" style="stroke:#FF6F00;stroke-width:1;"/><a href="/use-case/legal-entity-management/identification-and-registration/commercial-register/" target="_top" title="/use-case/legal-entity-management/identification-and-registration/commercial-register/" xlink:actuate="onRequest" xlink:href="/use-case/legal-entity-management/identification-and-registration/commercial-register/" xlink:show="new" xlink:title="/use-case/legal-entity-management/identification-and-registration/commercial-register/" xlink:type="simple"><text fill="#4051B5" font-family="'Roboto'" font-size="13" lengthAdjust="spacing" textLength="136.2778" x="505.8047" y="77.3325">Commercial Register</text></a><path d="M448.8047,60.2656 L448.8047,60.4525 L450.8047,59.8973 L452.8047,60.4374 L454.8047,60.6209 L456.8047,59.6315 L458.8047,60.2656 L458.8047,60.2656 L458.7913,60.2338 L461.7315,61.3474 L464.7388,62.6217 L467.793,64.0076 L470.686,65.0088 L473.8047,66.5488 L473.8998,66.7758 L476.6965,67.5471 L479.7707,68.981 L482.8789,70.4958 L485.79,71.5402 L488.8047,72.832 L488.8047,72.8927 L490.8047,72.8036 L492.8047,72.9907 L494.8047,73.0446 L496.8047,73.3526 L498.8047,72.832" fill="none" style="stroke:#FF6F00;stroke-width:1;"/><a href="/use-case/legal-entity-management/identification-and-registration/classification/" target="_top" title="/use-case/legal-entity-management/identification-and-registration/classification/" xlink:actuate="onRequest" xlink:href="/use-case/legal-entity-management/identification-and-registration/classification/" xlink:show="new" xlink:title="/use-case/legal-entity-management/identification-and-registration/classification/" xlink:type="simple"><text fill="#4051B5" font-family="'Roboto'" font-size="13" lengthAdjust="spacing" textLength="86.0171" x="505.8047" y="102.4653">Classification</text></a><path d="M448.8047,60.2656 L448.8047,60.4525 L450.8047,59.8973 L452.8047,60.4374 L454.8047,60.6209 L456.8047,59.6315 L458.8047,60.2656 L458.8047,60.2656 L458.7856,60.2368 L460.4814,61.2856 L462.2732,62.4797 L464.1317,63.7747 L465.7602,64.7217 L467.7109,66.1561 L467.9336,66.2608 L468.6762,68.6287 L470.0689,71.3024 L471.5409,74.0133 L472.5514,76.5072 L473.8047,79.1152 L473.8321,79.1281 L475.0106,81.701 L476.314,84.3326 L477.5571,86.9359 L478.9153,89.5933 L479.8984,92.0743 L480.063,92.3231 L481.8462,93.5042 L483.5234,94.5249 L485.3558,95.7805 L487.1956,97.0471 L488.8047,97.9648 L488.8047,97.3238 L490.8047,98.568 L492.8047,97.7013 L494.8047,98.4393 L496.8047,97.5248 L498.8047,97.9648" fill="none" style="stroke:#FF6F00;stroke-width:1;"/><path d="M192.0566,136.8809 L192.0566,137.0677 L194.0566,136.5126 L196.0566,137.0527 L198.0566,137.2361 L200.0566,136.2467 L202.0566,136.8809 L202.0566,136.8809 L202.0289,136.8602 L203.6858,134.3735 L205.4824,131.9907 L207.3761,129.6801 L208.9351,127.1205 L210.9629,124.9097 L211.2009,124.9722 L211.3365,122.3845 L212.1669,119.9792 L213.0822,117.5962 L213.5041,115.0837 L214.1855,112.6393 L214.2153,112.6454 L214.7459,109.8233 L215.4117,107.0288 L216.0123,104.2209 L216.7375,101.4385 L217.0566,98.5732 L217.3489,98.6329 L217.9267,95.8204 L218.316,92.9694 L218.9812,90.1748 L219.6593,87.3828 L219.9277,84.5072 L219.6177,84.4257 L220.8639,82.1297 L221.0893,79.5655 L222.0908,77.2052 L222.2931,74.6349 L223.1504,72.2368 L223.126,72.2186 L225.1961,70.0393 L226.6955,67.4354 L228.5317,65.082 L230.3961,62.7497 L232.0566,60.2656 L232.0566,60.6356 L234.0566,60.2622 L236.0566,60.5209 L238.0566,59.7568 L240.0566,60.5184 L242.0566,60.2656" fill="none" style="stroke:#FF6F00;stroke-width:1;"/><a href="/use-case/legal-entity-management/corporate-governance/" target="_top" title="/use-case/legal-entity-management/corporate-governance/" xlink:actuate="onRequest" xlink:href="/use-case/legal-entity-management/corporate-governance/" xlink:show="new" xlink:title="/use-case/legal-entity-management/corporate-governance/" xlink:type="simple"><text fill="#4051B5" font-family="'Roboto'" font-size="13" lengthAdjust="spacing" textLength="147.7734" x="249.0566" y="104.8989">Corporate Governance</text></a><path d="M192.0566,136.8809 L192.0566,137.0677 L194.0566,136.5126 L196.0566,137.0527 L198.0566,137.2361 L200.0566,136.2467 L202.0566,136.8809 L202.0566,136.8809 L202.038,136.8518 L203.7357,135.5811 L205.5273,134.4572 L207.3841,133.4351 L209.016,132.0618 L210.9629,131.1805 L211.1842,131.288 L211.9297,128.5499 L213.3213,126.1257 L214.7918,123.7399 L215.8036,121.1312 L217.0566,118.6396 L217.0839,118.6529 L218.2626,116.1253 L219.5655,113.658 L220.8085,111.1616 L222.1658,108.7207 L223.1504,106.0988 L223.3112,106.35 L225.0944,105.213 L226.7739,103.914 L228.6052,102.8521 L230.4436,101.8014 L232.0566,100.3984 L232.0566,99.7574 L234.0566,101.0016 L236.0566,100.1349 L238.0566,100.8729 L240.0566,99.9584 L242.0566,100.3984" fill="none" style="stroke:#FF6F00;stroke-width:1;"/><a href="/use-case/legal-entity-management/ownership-and-capital-structure/" target="_top" title="/use-case/legal-entity-management/ownership-and-capital-structure/" xlink:actuate="onRequest" xlink:href="/use-case/legal-entity-management/ownership-and-capital-structure/" xlink:show="new" xlink:title="/use-case/legal-entity-management/ownership-and-capital-structure/" xlink:type="simple"><text fill="#4051B5" font-family="'Roboto'" font-size="13" lengthAdjust="spacing" textLength="198.1992" x="249.0566" y="130.0317">Ownership &amp; Capital Structure</text></a><path d="M192.0566,136.8809 L192.0566,137.0677 L194.0566,136.5126 L196.0566,137.0527 L198.0566,137.2361 L200.0566,136.2467 L202.0566,136.8809 L202.0566,136.8809 L202.0444,136.8486 L204.9896,135.5686 L207.9963,134.4515 L211.0459,133.4476 L213.9479,132.0536 L217.0566,131.2061 L217.1437,131.4362 L219.9575,129.8091 L223.0255,128.8539 L226.1246,127.9807 L229.0432,126.6306 L232.0566,125.5313 L232.0566,125.5919 L234.0566,125.5029 L236.0566,125.6899 L238.0566,125.7438 L240.0566,126.0519 L242.0566,125.5313" fill="none" style="stroke:#FF6F00;stroke-width:1;"/><a href="/use-case/legal-entity-management/financial-information/" target="_top" title="/use-case/legal-entity-management/financial-information/" xlink:actuate="onRequest" xlink:href="/use-case/legal-entity-management/financial-information/" xlink:show="new" xlink:title="/use-case/legal-entity-management/financial-information/" xlink:type="simple"><text fill="#4051B5" font-family="'Roboto'" font-size="13" lengthAdjust="spacing" textLength="137.4839" x="249.0566" y="155.1646">Financial Information</text></a><path d="M192.0566,136.8809 L192.0566,137.0677 L194.0566,136.5126 L196.0566,137.0527 L198.0566,137.2361 L200.0566,136.2467 L202.0566,136.8809 L202.0566,136.8809 L202.0422,136.8495 L204.9775,138.0869 L207.9855,139.4826 L211.044,140.9883 L213.9284,142.1149 L217.0566,143.7725 L217.1594,143.9961 L219.9397,144.8962 L223.0199,146.4492 L226.1368,148.0819 L229.0407,149.2511 L232.0566,150.6641 L232.0566,150.7247 L234.0566,150.6357 L236.0566,150.8228 L238.0566,150.8766 L240.0566,151.1847 L242.0566,150.6641" fill="none" style="stroke:#FF6F00;stroke-width:1;"/><a href="/use-case/legal-entity-management/lifecycle-and-status/" target="_top" title="/use-case/legal-entity-management/lifecycle-and-status/" xlink:actuate="onRequest" xlink:href="/use-case/legal-entity-management/lifecycle-and-status/" xlink:show="new" xlink:title="/use-case/legal-entity-management/lifecycle-and-status/" xlink:type="simple"><text fill="#4051B5" font-family="'Roboto'" font-size="13" lengthAdjust="spacing" textLength="116.854" x="249.0566" y="180.2974">Lifecycle &amp; Status</text></a><path d="M192.0566,136.8809 L192.0566,137.0677 L194.0566,136.5126 L196.0566,137.0527 L198.0566,137.2361 L200.0566,136.2467 L202.0566,136.8809 L202.0566,136.8809 L202.0372,136.8523 L203.731,137.9404 L205.523,139.1723 L207.3833,140.5042 L209.0084,141.4916 L210.9629,142.9615 L211.1868,143.0635 L211.9267,145.5208 L213.3204,148.276 L214.7938,151.0675 L215.8032,153.6476 L217.0566,156.3389 L217.0842,156.3514 L218.2625,159.0085 L219.5663,161.7227 L220.8096,164.4094 L222.1685,167.1487 L223.1504,169.7162 L223.3186,169.9626 L225.1019,171.1817 L226.7767,172.242 L228.6103,173.5348 L230.4514,174.8385 L232.0566,175.7969 L232.0566,175.1558 L234.0566,176.4 L236.0566,175.5333 L238.0566,176.2714 L240.0566,175.3569 L242.0566,175.7969" fill="none" style="stroke:#FF6F00;stroke-width:1;"/><a href="/use-case/legal-entity-management/contact-and-location-information/" target="_top" title="/use-case/legal-entity-management/contact-and-location-information/" xlink:actuate="onRequest" xlink:href="/use-case/legal-entity-management/contact-and-location-information/" xlink:show="new" xlink:title="/use-case/legal-entity-management/contact-and-location-information/" xlink:type="simple"><text fill="#4051B5" font-family="'Roboto'" font-size="13" lengthAdjust="spacing" textLength="203.8042" x="249.0566" y="205.4302">Contact &amp; Location Information</text></a><path d="M192.0566,136.8809 L192.0566,137.0677 L194.0566,136.5126 L196.0566,137.0527 L198.0566,137.2361 L200.0566,136.2467 L202.0566,136.8809 L202.0566,136.8809 L202.0308,136.8579 L203.6963,138.7564 L205.4918,140.7706 L207.3778,142.8653 L208.9521,144.6827 L210.9629,146.8885 L211.1976,146.9622 L211.3402,148.8561 L212.1681,150.9653 L213.0796,153.1007 L213.5046,155.0833 L214.1855,157.1463 L214.215,157.1535 L214.746,159.4947 L215.4111,161.8687 L216.0115,164.2269 L216.7353,166.6152 L217.0566,168.9053 L217.3464,168.976 L217.9241,171.3287 L218.315,173.6357 L218.9795,176.0095 L219.6567,178.3865 L219.9277,180.6642 L219.6219,180.5682 L220.86,182.8062 L221.0911,184.7279 L222.0877,186.89 L222.296,188.8046 L223.1504,190.9221 L223.1276,190.9018 L225.1779,193.1427 L226.6967,194.9107 L228.5291,196.9577 L230.3878,199.0282 L232.0566,200.9297 L232.0566,201.2997 L234.0566,200.9262 L236.0566,201.185 L238.0566,200.4209 L240.0566,201.1825 L242.0566,200.9297" fill="none" style="stroke:#FF6F00;stroke-width:1;"/><a href="/use-case/legal-entity-management/compliance-and-documentation/" target="_top" title="/use-case/legal-entity-management/compliance-and-documentation/" xlink:actuate="onRequest" xlink:href="/use-case/legal-entity-management/compliance-and-documentation/" xlink:show="new" xlink:title="/use-case/legal-entity-management/compliance-and-documentation/" xlink:type="simple"><text fill="#4051B5" font-family="'Roboto'" font-size="13" lengthAdjust="spacing" textLength="195.1396" x="249.0566" y="230.563">Compliance &amp; Documentation</text></a><path d="M192.0566,136.8809 L192.0566,137.0677 L194.0566,136.5126 L196.0566,137.0527 L198.0566,137.2361 L200.0566,136.2467 L202.0566,136.8809 L202.0566,136.8809 L202.0275,136.8623 L203.6782,139.5657 L205.4755,142.3629 L207.3749,145.2253 L208.9227,147.8631 L210.9629,150.8155 L211.2029,150.8696 L211.3342,153.6104 L212.1662,156.5093 L213.0838,159.4275 L213.5038,162.2335 L214.1855,165.0985 L214.2154,165.1037 L214.7458,168.3707 L215.4121,171.6615 L216.0129,174.9408 L216.7388,178.242 L217.0566,181.4717 L217.3504,181.5232 L217.9282,184.7985 L218.3165,188.0405 L218.9822,191.3312 L219.6609,194.6241 L219.9277,197.8449 L219.6151,197.7743 L220.8664,200.7678 L221.0882,203.5291 L222.0928,206.4669 L222.2912,209.2228 L223.1504,212.1279 L223.1247,212.1115 L225.2094,215.0923 L226.6946,217.6901 L228.5336,220.5139 L230.4022,223.3566 L232.0566,226.0625 L232.0566,226.4325 L234.0566,226.059 L236.0566,226.3178 L238.0566,225.5537 L240.0566,226.3153 L242.0566,226.0625" fill="none" style="stroke:#FF6F00;stroke-width:1;"/><a href="/use-case/legal-entity-management/supporting-information/" target="_top" title="/use-case/legal-entity-management/supporting-information/" xlink:actuate="onRequest" xlink:href="/use-case/legal-entity-management/supporting-information/" xlink:show="new" xlink:title="/use-case/legal-entity-management/supporting-information/" xlink:type="simple"><text fill="#4051B5" font-family="'Roboto'" font-size="13" lengthAdjust="spacing" textLength="151.106" x="249.0566" y="255.6958">Supporting Information</text></a><path d="M192.0566,136.8809 L192.0566,137.0677 L194.0566,136.5126 L196.0566,137.0527 L198.0566,137.2361 L200.0566,136.2467 L202.0566,136.8809 L202.0566,136.8809 L202.0257,136.8654 L203.6683,140.3686 L205.4666,143.9495 L207.3733,147.5843 L208.9067,151.0331 L210.9629,154.7425 L211.2052,154.7851 L211.3315,158.3556 L212.1654,162.0505 L213.0856,165.7607 L213.5035,169.3824 L214.1855,173.0507 L214.2156,173.0548 L214.7457,177.2462 L215.4126,181.4564 L216.0135,185.6575 L216.7403,189.8759 L217.0566,194.0381 L217.3521,194.0785 L217.93,198.2765 L218.3172,202.4484 L218.9834,206.6585 L219.6627,210.8703 L219.9277,215.0255 L219.6121,214.9699 L220.8693,218.7394 L221.087,222.3259 L222.095,226.0515 L222.2892,229.6339 L223.1504,233.3337 L223.1231,233.3201 L225.2266,237.0531 L226.6935,240.4687 L228.536,244.0715 L230.4101,247.6901 L232.0566,251.1953 L232.0566,251.5653 L234.0566,251.1918 L236.0566,251.4506 L238.0566,250.6865 L240.0566,251.4481 L242.0566,251.1953" fill="none" style="stroke:#FF6F00;stroke-width:1;"/><!--SRC=[xLXjRzis4FwkNy4rmDgYTHEdQL4KHL77UMbQ9mxifCDG504jqJOHYbH9AbasxB_lA8co95kovSXT2yIV4lBut7CanRjxFYYDfVOfztmSECvl7XbJJj3-yTLfv-JigjllzGSe-ctjxRngZrvbJOQ7tVxPGMVmPsAtmEIyq_tSEJvCWUPC-eE3mq7M3zeQZr-FTtPIawF-sKNE838nlzIaCnZq_yZRM1H7NLCUO8bzDCBkzKIAa7jTmOH4MrfYhc2ES9qn-tWN4Caelqwi4iREOqIvoqAF83qbQ48uaPYXT9r2Ox0U2JrzZXYTJ3N2t4CUbjUmKWiaReYybLGJT4lrDCQWDuGZHRIcVAAAUtBnyQJx-UnmE4HjE1WHQ2eucWAeGT6mS8oP8XdYvzZp00ZjPSO6SRWIoA8tcV7X57lYrbWNKTBmBxaN_K4IaupD0HdZa6dqZtCak3x3Fa6F1W9Y5u-YaNZdPWSN3GxftmIrzvn_iqWTASKju2nSiHX6tp7O8y6yF580fuid9E4qjtI_SFYv6-xi2md19ZEPAmakPXwuyEh0vwx-QXvSuGU2mtK4DsiINiWkthFGPxlvFVEmnYEiICFkSZvS9a9lemu4OyGrNuTgtCtCInSCf60RzB1l8B6ysw2BGwwftgG3oZMHO-oI3VeOakyXuIuvXyH5NHfWhcEmYobrhpbH2XxCcRbAp85HTaKbkJde1JmpDhDdYGlfOrQScmkdHyUa1ozhANXgK4apUZpdmAFHKkHeTY6fQ6QsXo-TZgk5NC8WCYdrPMRBFk37gBk7pAv14e9_jfR-ij-yX0yUymaZxzv1jbA2ltyFvpk4oqU4XWHMcZsQoWl56rVCsVadAaEN_0KaEMPNpVCkb6CR8A_kb2R-hxVNpVFUq5xRXFnhRFMCxQ-tqvbhCaeIRyowK1ZdeuXgs9tbrTvQiLS75YSO3wifyLQ9TM6eBZZ6a5Vagh52lLvzbJOGQVKHrcv3R0CtY-bbd7_wq9592ZMzb-2O1YvfXQDYNw4MyaEbJLrE41v3gDPdeIt8U4jQqz8U9zEhbf7CbXAppIZKxj2uw-Lbrk9ChxMaer2JyZfWdcj50vEhzh5Iwx6gSl0OdIRdeWBYqZ5r8VweT80ZkfsQhbh36mJrfp876XtUSpHY8O6puvoOGaGX4MepFT_IDSnsXe_pDHKqyiwpA_JrAzeE5Mcvy7PkCpB1h4MYohpbOmuzh0__RQEUcR0b-sawWRvzSvuzMmq3WeKns2risgCMvbvBaWbLMaO3s-WaPu1-HuFCTEnfLRxBVCNhu1FpRMX7y7UpFaQXecQZ2r7k9yCRZ0vU29z8byBYU9p8RUWPxM3Y6TwFPhsQhosT1uUv_sDVAxfoXGm4m9BMn2XL74FBP298Hj5nEbeBLjn2ib5J6aJaNHnG3NOGGEZgK8A7lZM0ozUDfw4hIAPhkHfJGy-S0ENccYLxScI7qSbik1OmWsRClNCPYM8mxsweu0xRKI0-ZCPgxZTaObT7a4ma1vmZteqj0BwNpAyTWT6L63M75_dpX1kQyTIHdGLV1zcvMavK6C1TCL9cFevXEbxa_u70cswbvmzv9RevtVOdLaXjiR2YF9erNm1GGnYrwug9psvQDhjP9RrI2hqlO9NoMOKnps0DhREUWvNKpVj0LkgPTO5NKJ3NnwpGBDS7BLKfruUiqYNNHzs84cdfb6YGbbbj-T46i4XxjA1bigFbb6aDBDoSscYn2a9ZpdwfofWwBEgBANfUMinyI6kfXEKlQvtRCd_uzrK1VpIl9VBD_xPDFmElbRMv7ypcfzgaHcKrowDcDAMiAoMqzYOriwOZAUn_KvhOsgBMWdpPcA2LHIhaadaTAvTc5krSiGHTGRig9x0KiaHVkWVYWwBqe2WzA4eFYjA3ehHKKJfdq01TdlOGt3Db3DelTdTsNxrejqT4u_REaqj-pU4wHU83XMtNr2TFdIV7vpsaH2Y1lMU-39DYOFbJvnE-mMWGScFt5lK3mZyTVBO3yAxUK2cuOUvy-d8wCtYzrzgd6hf52KJGbrF7vkX3xWgZHxr5bnT7hJTE3ogE489_YmY7n0guyWxcXly1]--></g></svg>