<svg xmlns="http://www.w3.org/2000/svg" xmlns:xlink="http://www.w3.org/1999/xlink" contentStyleType="text/css" data-diagram-type="MINDMAP" height="202px" preserveAspectRatio="none" style="width:854px;height:202px;" version="1.1" viewBox="0 0 854 202" width="854px" zoomAndPan="magnify"><defs/><g><a href="/use-case/construction-project-quotations/estimating-and-pricing/" target="_top" title="/use-case/construction-project-quotations/estimating-and-pricing/" xlink:actuate="onRequest" xlink:href="/use-case/construction-project-quotations/estimating-and-pricing/" xlink:show="new" xlink:title="/use-case/construction-project-quotations/estimating-and-pricing/" xlink:type="simple"><text fill="#4051B5" font-family="'Roboto'" font-size="13" lengthAdjust="spacing" textLength="131.9741" x="350.708" y="104.8989">Estimating &amp; Pricing</text></a><a href="/use-case/construction-project-quotations/estimating-and-pricing/quantity-takeoff/" target="_top" title="/use-case/construction-project-quotations/estimating-and-pricing/quantity-takeoff/" xlink:actuate="onRequest" xlink:href="/use-case/construction-project-quotations/estimating-and-pricing/quantity-takeoff/" xlink:show="new" xlink:title="/use-case/construction-project-quotations/estimating-and-pricing/quantity-takeoff/" xlink:type="simple"><text fill="#4051B5" font-family="'Roboto'" font-size="13" lengthAdjust="spacing" textLength="192.4165" x="547.8145" y="27.0669">Quantity Takeoff (2D/3D/BIM)</text></a><path d="M490.8145,100.3984 L490.8145,100.5853 L492.8145,100.0302 L494.8145,100.5702 L496.8145,100.7537 L498.8145,99.7643 L500.8145,100.3984 L500.8145,100.3984 L500.7866,100.378 L502.4428,97.8542 L504.2394,95.4332 L506.1338,93.0838 L507.6915,90.4879 L509.7207,88.2372 L509.9589,88.2988 L510.094,85.674 L510.9247,83.2291 L511.8402,80.8061 L512.2619,78.2554 L512.9434,75.7719 L512.9731,75.7779 L513.5037,72.9112 L514.1696,70.0717 L514.7702,67.2191 L515.4954,64.3916 L515.8145,61.4824 L516.1069,61.5412 L516.6846,58.684 L517.0738,55.7889 L517.7391,52.9493 L518.4173,50.1123 L518.6855,47.1929 L518.3752,47.1127 L519.622,44.7754 L519.847,42.1738 L520.8488,39.7732 L521.0507,37.1656 L521.9082,34.7277 L521.8836,34.7097 L523.9554,32.4902 L525.4532,29.8504 L527.2897,27.4586 L529.1546,25.0876 L530.8145,22.5664 L530.8145,22.9364 L532.8145,22.5629 L534.8145,22.8217 L536.8145,22.0576 L538.8145,22.8192 L540.8145,22.5664" fill="none" style="stroke:#FF6F00;stroke-width:1;"/><a href="/use-case/construction-project-quotations/estimating-and-pricing/unit-rates-and-cost-libraries/" target="_top" title="/use-case/construction-project-quotations/estimating-and-pricing/unit-rates-and-cost-libraries/" xlink:actuate="onRequest" xlink:href="/use-case/construction-project-quotations/estimating-and-pricing/unit-rates-and-cost-libraries/" xlink:show="new" xlink:title="/use-case/construction-project-quotations/estimating-and-pricing/unit-rates-and-cost-libraries/" xlink:type="simple"><text fill="#4051B5" font-family="'Roboto'" font-size="13" lengthAdjust="spacing" textLength="175.043" x="547.8145" y="52.1997">Unit Rates &amp; Cost Libraries</text></a><path d="M490.8145,100.3984 L490.8145,100.5853 L492.8145,100.0302 L494.8145,100.5702 L496.8145,100.7537 L498.8145,99.7643 L500.8145,100.3984 L500.8145,100.3984 L500.791,100.3731 L502.467,98.6124 L504.2612,96.9796 L506.1376,95.4356 L507.7309,93.5854 L509.7207,92.1642 L509.9539,92.2426 L510.6739,88.4518 L512.0749,84.89 L513.5589,81.3562 L514.5596,77.6597 L515.8145,74.0488 L515.8432,74.0585 L517.0197,70.4212 L518.3272,66.828 L519.5714,63.2135 L520.9362,59.6395 L521.9082,55.9335 L522.1107,56.1525 L523.8944,54.5083 L525.5475,52.7229 L527.3918,51.1442 L529.2451,49.5752 L530.8145,47.6992 L530.8145,47.0582 L532.8145,48.3023 L534.8145,47.4357 L536.8145,48.1737 L538.8145,47.2592 L540.8145,47.6992" fill="none" style="stroke:#FF6F00;stroke-width:1;"/><a href="/use-case/construction-project-quotations/estimating-and-pricing/labor-productivity-and-crew-modeling/" target="_top" title="/use-case/construction-project-quotations/estimating-and-pricing/labor-productivity-and-crew-modeling/" xlink:actuate="onRequest" xlink:href="/use-case/construction-project-quotations/estimating-and-pricing/labor-productivity-and-crew-modeling/" xlink:show="new" xlink:title="/use-case/construction-project-quotations/estimating-and-pricing/labor-productivity-and-crew-modeling/" xlink:type="simple"><text fill="#4051B5" font-family="'Roboto'" font-size="13" lengthAdjust="spacing" textLength="233.1938" x="547.8145" y="77.3325">Labor Productivity &amp; Crew Modeling</text></a><path d="M490.8145,100.3984 L490.8145,100.5853 L492.8145,100.0302 L494.8145,100.5702 L496.8145,100.7537 L498.8145,99.7643 L500.8145,100.3984 L500.8145,100.3984 L500.7994,100.3673 L502.5132,99.3663 L504.3027,98.5221 L506.145,97.7868 L507.8057,96.676 L509.7207,96.0912 L509.9277,96.2243 L510.7038,94.0445 L512.0843,92.2533 L513.5384,90.5095 L514.5636,88.4898 L515.8145,86.6152 L515.84,86.6316 L517.0213,84.7124 L518.3187,82.8678 L519.5601,80.9871 L520.9084,79.1753 L521.9082,77.1393 L522.0381,77.4078 L523.8209,76.5496 L525.52,75.5183 L527.3417,74.7404 L529.1691,73.9745 L530.8145,72.832 L530.8145,72.191 L532.8145,73.4352 L534.8145,72.5685 L536.8145,73.3065 L538.8145,72.392 L540.8145,72.832" fill="none" style="stroke:#FF6F00;stroke-width:1;"/><polygon fill="#4051B5" points="544.8145,95.3984,544.8145,95.6086,554.9443,94.9841,565.0742,95.5917,575.2041,95.7981,585.3339,94.685,595.4638,95.3207,605.5936,94.9719,615.7235,95.0149,625.8534,95.3303,635.9832,94.7071,646.1131,95.9521,656.243,94.7682,666.3728,95.2007,676.5027,95.8304,686.6326,95.3127,696.7624,95.4667,706.8923,95.3665,717.0222,95.577,727.152,95.6376,737.2819,95.9841,747.4118,96.0695,757.5416,96.0777,767.6715,95.6531,777.8014,95.862,787.9312,96.1007,798.0611,94.6773,808.191,96.0769,818.3208,95.1019,828.4507,95.9322,838.5806,95.3984,838.5174,95.246,839.1375,95.6117,839.8065,96.0955,840.2714,96.0864,840.8567,96.3681,841.409,96.57,841.5133,96.6132,841.7715,97.1888,841.8764,97.7009,842.2004,98.3037,842.17,98.7597,842.5806,99.3984,842.6754,99.3984,842.7633,104.825,842.7287,110.2516,842.7849,115.6781,842.4195,121.1047,842.5806,126.5313,842.3797,126.4481,842.1549,127.0177,842.0938,127.6551,841.8171,128.2032,841.8532,128.8809,841.409,129.3597,841.3867,129.3059,840.7995,129.4883,840.3067,129.8986,839.6269,129.8573,839.08,130.1371,838.5806,130.5313,838.5806,131.1802,828.4507,130.9669,818.3208,131.2657,808.191,130.2095,798.0611,130.8504,787.9312,131.1217,777.8014,130.0588,767.6715,130.4354,757.5416,130.6572,747.4118,131.183,737.2819,130.5271,727.152,130.9938,717.0222,129.9775,706.8923,129.854,696.7624,131.0349,686.6326,129.8143,676.5027,131.0402,666.3728,130.7379,656.243,130.2633,646.1131,130.1775,635.9832,130.99,625.8534,130.2319,615.7235,131.1231,605.5936,129.9785,595.4638,131.1487,585.3339,131.0156,575.2041,130.7762,565.0742,130.5785,554.9443,131.2579,544.8145,130.5313,544.8927,130.7202,544.2704,130.3491,543.7173,130.1452,543.1008,129.7882,542.6431,129.8146,541.986,129.3597,542.0337,129.3794,541.8049,128.816,541.33,128.1507,541.1583,127.6109,541.2122,127.1646,540.8145,126.5313,540.9577,126.5313,540.8001,121.1047,540.7071,115.6781,540.7415,110.2516,540.5857,104.825,540.8145,99.3984,540.9422,99.4513,541.2765,98.9271,541.4452,98.3342,541.7314,97.79,541.7096,97.1183,541.986,96.57,541.9972,96.5969,542.5023,96.2163,543.1536,96.1889,543.7146,95.9431,544.3192,95.8029,544.8145,95.3984" style="stroke:#FF6F00;stroke-width:1.5;"/><a href="/use-case/construction-project-quotations/estimating-and-pricing/indirects-overheads-general-conditions/" target="_top" title="/use-case/construction-project-quotations/estimating-and-pricing/indirects-overheads-general-conditions/" xlink:actuate="onRequest" xlink:href="/use-case/construction-project-quotations/estimating-and-pricing/indirects-overheads-general-conditions/" xlink:show="new" xlink:title="/use-case/construction-project-quotations/estimating-and-pricing/indirects-overheads-general-conditions/" xlink:type="simple"><text fill="#4051B5" font-family="'Roboto'" font-size="13" lengthAdjust="spacing" textLength="277.6338" x="550.8145" y="117.4653">Indirects, Overheads &amp; General Conditions</text></a><path d="M490.8145,100.3984 L490.8145,100.5853 L492.8145,100.0302 L494.8145,100.5702 L496.8145,100.7537 L498.8145,99.7643 L500.8145,100.3984 L500.8145,100.3984 L500.8011,100.3666 L503.7412,101.4802 L506.7486,102.7545 L509.8027,104.1404 L512.6957,105.1416 L515.8145,106.6816 L515.9095,106.9086 L518.7062,107.6799 L521.7805,109.1139 L524.8886,110.6286 L527.7997,111.673 L530.8145,112.9648 L530.8145,113.0255 L532.8145,112.9364 L534.8145,113.1235 L536.8145,113.1774 L538.8145,113.4855 L540.8145,112.9648" fill="none" style="stroke:#FF6F00;stroke-width:1;"/><a href="/use-case/construction-project-quotations/estimating-and-pricing/contingency-and-escalation/" target="_top" title="/use-case/construction-project-quotations/estimating-and-pricing/contingency-and-escalation/" xlink:actuate="onRequest" xlink:href="/use-case/construction-project-quotations/estimating-and-pricing/contingency-and-escalation/" xlink:show="new" xlink:title="/use-case/construction-project-quotations/estimating-and-pricing/contingency-and-escalation/" xlink:type="simple"><text fill="#4051B5" font-family="'Roboto'" font-size="13" lengthAdjust="spacing" textLength="166.5308" x="547.8145" y="157.5981">Contingency &amp; Escalation</text></a><path d="M490.8145,100.3984 L490.8145,100.5853 L492.8145,100.0302 L494.8145,100.5702 L496.8145,100.7537 L498.8145,99.7643 L500.8145,100.3984 L500.8145,100.3984 L500.791,100.3731 L502.467,101.9061 L504.2612,103.567 L506.1376,105.3167 L507.7309,106.7602 L509.7207,108.6327 L509.9539,108.7111 L510.6739,112.1664 L512.0749,115.8508 L513.5589,119.5631 L514.5596,123.1128 L515.8145,126.748 L515.8432,126.7577 L517.0197,130.3666 L518.3272,134.0195 L519.5714,137.6511 L520.9362,141.3233 L521.9082,144.8634 L522.1107,145.0824 L523.8944,146.7319 L525.5475,148.2402 L527.3918,149.9552 L529.2451,151.68 L530.8145,153.0977 L530.8145,152.4566 L532.8145,153.7008 L534.8145,152.8341 L536.8145,153.5722 L538.8145,152.6576 L540.8145,153.0977" fill="none" style="stroke:#FF6F00;stroke-width:1;"/><a href="/use-case/construction-project-quotations/estimating-and-pricing/pricing-strategy-margin-markups/" target="_top" title="/use-case/construction-project-quotations/estimating-and-pricing/pricing-strategy-margin-markups/" xlink:actuate="onRequest" xlink:href="/use-case/construction-project-quotations/estimating-and-pricing/pricing-strategy-margin-markups/" xlink:show="new" xlink:title="/use-case/construction-project-quotations/estimating-and-pricing/pricing-strategy-margin-markups/" xlink:type="simple"><text fill="#4051B5" font-family="'Roboto'" font-size="13" lengthAdjust="spacing" textLength="222.4854" x="547.8145" y="182.731">Pricing Strategy (Margin/Markups)</text></a><path d="M490.8145,100.3984 L490.8145,100.5853 L492.8145,100.0302 L494.8145,100.5702 L496.8145,100.7537 L498.8145,99.7643 L500.8145,100.3984 L500.8145,100.3984 L500.7866,100.378 L502.4428,102.7187 L504.2394,105.1622 L506.1338,107.6773 L507.6915,109.9459 L509.7207,112.5597 L509.9589,112.6213 L510.094,114.9826 L510.9247,117.5238 L511.8402,120.0869 L512.2619,122.5224 L512.9434,125.025 L512.9731,125.031 L513.5037,127.8801 L514.1696,130.7564 L514.7702,133.6196 L515.4954,136.5078 L515.8145,139.3145 L516.1069,139.3732 L516.6846,142.2318 L517.0738,145.0525 L517.7391,147.9287 L518.4173,150.8075 L518.6855,153.6039 L518.3752,153.5237 L519.622,156.1725 L519.847,158.5571 L520.8488,161.1425 L521.0507,163.5211 L521.9082,166.0692 L521.8836,166.0512 L523.9554,168.6962 L525.4532,170.9209 L527.2897,173.3936 L529.1546,175.8871 L530.8145,178.2305 L530.8145,178.6005 L532.8145,178.227 L534.8145,178.4858 L536.8145,177.7217 L538.8145,178.4833 L540.8145,178.2305" fill="none" style="stroke:#FF6F00;stroke-width:1;"/><a href="/use-case/construction-project-quotations/" target="_top" title="/use-case/construction-project-quotations/" xlink:actuate="onRequest" xlink:href="/use-case/construction-project-quotations/" xlink:show="new" xlink:title="/use-case/construction-project-quotations/" xlink:type="simple"><text fill="#4051B5" font-family="'Roboto'" font-size="13" lengthAdjust="spacing" textLength="268.5757" x="14" y="104.8989">Complex Construction Project Quotations</text></a><path d="M343.708,100.3984 L343.708,100.5853 L341.708,100.0302 L339.708,100.5702 L337.708,100.7537 L335.708,99.7643 L333.708,100.3984 L333.708,100.3984 L333.708,100.3639 L327.708,100.2089 L321.708,100.228 L315.708,100.3681 L309.708,100.0912 L303.708,100.3984 L303.708,100.8906 L301.708,99.8382 L299.708,100.2226 L297.708,100.7824 L295.708,100.3222 L293.708,100.3984" fill="none" style="stroke:#FF6F00;stroke-width:1;"/><!--SRC=[xLZ_RzCu5FyzVuMFISSGXAvZ88GGeklA6BJhhjqudH2QtCHjVKtiOZihutJ_-pqxIPkaIVfbAGVIzal1_lYzptjs_Fm-RwN2GlcKkJwUMjPlBXbIHj3nwNMdSNP-tUoskpra_lQE3fxN1y-Ja7whsJq_QVJ-Yd0va8j6ysFZj3Ktj0JfzavQlQGVj3SSlXWU7CmXxxhdboc0WUY_EQJHwtN_J6DYAvQSK3R50ljeW9t9IF20kKtkSO7sbC1CmXnXAW5xVpibmgDi4g4YnjP3H9dZ1Iv1QapGY30Yi8VcwoGQ0dh0rVW9ykXeh11cBdAncC1AnH6_8M8cg29eHjKuj45l24EIA4NPI6PpSld-hFdnlDNlepfi39ygoXaQWr5jHS728VOaIH2_mAuBXj1HOgmNXYk0B7gP6E-FiSjd6fsrCW__Yhdc7oI2930dP8W3Jw5_h7USgNFi4_IWno5s_i2CX9bRR9mPxDFl1DMFh7-JbXf2y1dOoLsHRqRTUf0ZxhbfIrFONJmY4QUbfSUPpK-TSEkO2mWscaaSIN2nyC2ukudvrD5VpuF3_IbdS1p1pPQ4Szc5EGjyxp2TCnShFC2ILEmkvSFnUE3kr07tFEBehqDMxcRXfGa0mRqTUZZM9h6utQ6B5bDKxT81POg88NR83dtqoTU0C8TSGE6Y3frYfa9ZbsFgJ1YH4YxC1Ln6S62KN55ARibq3iy4Pd4jCIvyx6Ndbi9fqo5fmyrQQ7mEAALfBiybusQqqBAPpILbPXOvV6Or7CN52WO6KkXBpnPzm0zHymZfh44HWl_ihVnBVlC2FdZCHXvv_HggbUJipHlOtpuSFi8L5B32wb5LNSYUk6pDJbzH2Rha6v1asBkkddVcERO3yl9MAkB_UhckdlUESXqNv5yZrGkslrwc4yTa41NUa7NcOPoEmhnX3rQ_zhQAlJomiC2uM8w9kqwikQ4wu1X3NH7hnWhlzVAZj8D8oxTmupOaRk0MCJqBwqyNEZ91uKtlHdPq0nUrmkQnBv6D_40g_Iud20yXrDXdfYr8U8jQqy8U9z6h5f5CFYKMoSYytQ5nLwkVMVcLNYb11u4YnU-0PQub3KpgjO-bt8vLcOE7g1FjYvmIXmwf0_6RfmDiqMoikse5Tn2yFwNUKBDvJz302mZi7MD4FqGaue7IqyijNSLi5_Pn-aq5ZRpr-1fz_engWIIs0tTd3VX99GBJmDXJmVy6ilRNWCFswfQcHgIYFjOAWGszFo3WOSb6DTIQZwFVqKKuYhvyiHvNvE1hW4stO2iy8NmuhA4_eX5q6OwW_SEJshEJsl5Pvr6LdWD6bItWT4ipx72fR8yE11QKo1gwWcdKqzCGU1CcKJkUh9A5XmTSQBohbzxeJ1WsWini7uwDPtQXhL6G_WLAam8CwaIOa5CbbE0JeFeobxOMayO4kzAET2Z84ao6gz5PZ7jYxZW315gdaMJLd4Ehp9SkBV0BhLQOA28Tx9abDTCyHtF0epMVgT9_z6l3MZWRerlRns94cVwP15F8IloDz2C0skyOHAqJ8imPjkqDsK1i_jGZttICSw0-41e8dqmCrCRV4hZ3OgdrRLfvhKwd_8aLmRWuhYa79k4v1ZOG0kDrsOi-JbhoDe-LurBfxwu6ovI-CXlB3BRGzZPpi9QQTnUJfVhTfeRNKUosjrcYqMrlj52LszvacGwtlTMTA6yndGBDBMQsiTmM1v2djSL6YsIsc5FYAHoRMrBNObiPOIs5NwcgpHrczRIvzRIKblYGjbB5Yc_MJKxBykRVLVNwqRnMo1N_Mvf-1bvhQr4_cCrFbQHAPQIOnuRH5B8kbOpgkzI8geuaa_-gDA2jHPoSUbcPW9EqbAaboxfDgipaPIxx15r3goaciD9aWPvo1ult2igzWdAleDmhA3aAoeK7NzDLfurWXwHUKtzwU73u_6czFY0Arm_shzY4yHappJQ56ncY9e-i_TEBDf8y4D2Pk5I6LoeiVsHzm3SOzGAcSQzGTqhOXvEFyG2qQJTKSEPh5UR3fyu2yEB8FeOFgay4446VEbPSarhCuLf_UOMkBj_PBwqsLDW0Zy0sOL18mAwuXRd-Vm00]--></g></svg>