<svg xmlns="http://www.w3.org/2000/svg" xmlns:xlink="http://www.w3.org/1999/xlink" contentStyleType="text/css" data-diagram-type="MINDMAP" height="209px" preserveAspectRatio="none" style="width:907px;height:209px;" version="1.1" viewBox="0 0 907 209" width="907px" zoomAndPan="magnify"><defs/><g><a href="/use-case/construction-project-quotations/estimating-and-pricing/" target="_top" title="/use-case/construction-project-quotations/estimating-and-pricing/" xlink:actuate="onRequest" xlink:href="/use-case/construction-project-quotations/estimating-and-pricing/" xlink:show="new" xlink:title="/use-case/construction-project-quotations/estimating-and-pricing/" xlink:type="simple"><text fill="#90EE90" font-family="'Roboto'" font-size="14" lengthAdjust="spacing" textLength="142.126" x="371.6855" y="108.7373">Estimating &amp; Pricing</text></a><a href="/use-case/construction-project-quotations/estimating-and-pricing/quantity-takeoff/" target="_top" title="/use-case/construction-project-quotations/estimating-and-pricing/quantity-takeoff/" xlink:actuate="onRequest" xlink:href="/use-case/construction-project-quotations/estimating-and-pricing/quantity-takeoff/" xlink:show="new" xlink:title="/use-case/construction-project-quotations/estimating-and-pricing/quantity-takeoff/" xlink:type="simple"><text fill="#90EE90" font-family="'Roboto'" font-size="14" lengthAdjust="spacing" textLength="207.2178" x="579.2617" y="27.9951">Quantity Takeoff (2D/3D/BIM)</text></a><path d="M522.2617,103.8906 L522.2617,104.0775 L524.2617,103.5223 L526.2617,104.0624 L528.2617,104.2459 L530.2617,103.2565 L532.2617,103.8906 L532.2617,103.8906 L532.2335,103.8707 L533.8881,101.2581 L535.685,98.7459 L537.5807,96.3036 L539.1357,93.6206 L541.168,91.2747 L541.4067,91.3342 L541.5407,88.6206 L542.3717,86.0809 L543.2878,83.5623 L543.7091,80.9203 L544.3906,78.3433 L544.4204,78.3491 L544.9509,75.3758 L545.617,72.4289 L546.2176,69.4692 L546.9431,66.5338 L547.2617,63.5195 L547.5545,63.5762 L548.1323,60.6122 L548.5213,57.6115 L549.1867,54.6645 L549.865,51.7199 L550.1328,48.6958 L549.8218,48.6183 L551.07,46.1824 L551.294,43.4914 L552.2966,40.9943 L552.4975,38.2975 L553.3555,35.7644 L553.3306,35.7468 L555.406,33.4313 L556.9003,30.7055 L558.7375,28.2218 L560.6034,25.7584 L562.2617,23.1484 L562.2617,23.5184 L564.2617,23.145 L566.2617,23.4037 L568.2617,22.6396 L570.2617,23.4012 L572.2617,23.1484" fill="none" style="stroke:#FF9900;stroke-width:1;"/><a href="/use-case/construction-project-quotations/estimating-and-pricing/unit-rates-and-cost-libraries/" target="_top" title="/use-case/construction-project-quotations/estimating-and-pricing/unit-rates-and-cost-libraries/" xlink:actuate="onRequest" xlink:href="/use-case/construction-project-quotations/estimating-and-pricing/unit-rates-and-cost-libraries/" xlink:show="new" xlink:title="/use-case/construction-project-quotations/estimating-and-pricing/unit-rates-and-cost-libraries/" xlink:type="simple"><text fill="#90EE90" font-family="'Roboto'" font-size="14" lengthAdjust="spacing" textLength="188.5078" x="579.2617" y="54.292">Unit Rates &amp; Cost Libraries</text></a><path d="M522.2617,103.8906 L522.2617,104.0775 L524.2617,103.5223 L526.2617,104.0624 L528.2617,104.2459 L530.2617,103.2565 L532.2617,103.8906 L532.2617,103.8906 L532.2379,103.8656 L533.912,102.0521 L535.7065,100.3645 L537.5845,98.7645 L539.1745,96.8628 L541.168,95.3835 L541.4019,95.4597 L542.1204,91.5537 L543.5219,87.8701 L545.0068,84.2136 L546.0067,80.3993 L547.2617,76.668 L547.2906,76.6774 L548.467,72.9205 L549.7747,69.2063 L551.019,65.4715 L552.3842,61.7761 L553.3555,57.9524 L553.5615,58.1681 L555.3452,56.4693 L556.9961,54.6314 L558.8415,52.9971 L560.696,51.3724 L562.2617,49.4453 L562.2617,48.8043 L564.2617,50.0484 L566.2617,49.1818 L568.2617,49.9198 L570.2617,49.0053 L572.2617,49.4453" fill="none" style="stroke:#FF9900;stroke-width:1;"/><a href="/use-case/construction-project-quotations/estimating-and-pricing/labor-productivity-and-crew-modeling/" target="_top" title="/use-case/construction-project-quotations/estimating-and-pricing/labor-productivity-and-crew-modeling/" xlink:actuate="onRequest" xlink:href="/use-case/construction-project-quotations/estimating-and-pricing/labor-productivity-and-crew-modeling/" xlink:show="new" xlink:title="/use-case/construction-project-quotations/estimating-and-pricing/labor-productivity-and-crew-modeling/" xlink:type="simple"><text fill="#90EE90" font-family="'Roboto'" font-size="14" lengthAdjust="spacing" textLength="251.1318" x="579.2617" y="80.5889">Labor Productivity &amp; Crew Modeling</text></a><path d="M522.2617,103.8906 L522.2617,104.0775 L524.2617,103.5223 L526.2617,104.0624 L528.2617,104.2459 L530.2617,103.2565 L532.2617,103.8906 L532.2617,103.8906 L532.2464,103.8597 L533.959,102.841 L535.7487,101.9785 L537.5921,101.2245 L539.2507,100.0966 L541.168,99.4924 L541.3762,99.6236 L542.1497,97.4079 L543.5311,95.5752 L544.9867,93.7891 L546.0107,91.7313 L547.2617,89.8164 L547.2874,89.8326 L548.4685,87.8736 L549.7664,85.9883 L551.0079,84.0674 L552.357,82.2143 L553.3555,80.1404 L553.4875,80.4078 L555.2704,79.5314 L556.9681,78.4826 L558.7904,77.6862 L560.6187,76.9017 L562.2617,75.7422 L562.2617,75.1011 L564.2617,76.3453 L566.2617,75.4786 L568.2617,76.2167 L570.2617,75.3022 L572.2617,75.7422" fill="none" style="stroke:#FF9900;stroke-width:1;"/><polygon fill="#4051B5" points="576.2617,98.8906,576.2617,99.1008,586.1192,98.4763,595.9767,99.0839,605.8343,99.2903,615.6918,98.1772,625.5493,98.8129,635.4068,98.4641,645.2643,98.5071,655.1218,98.8225,664.9793,98.1993,674.8369,99.4443,684.6944,98.2603,694.5519,98.6929,704.4094,99.3226,714.2669,98.8048,724.1244,98.9589,733.9819,98.8587,743.8394,99.0692,753.697,99.1298,763.5545,99.4763,773.412,99.5617,783.2695,99.5699,793.127,99.1453,802.9845,99.3542,812.842,99.5929,822.6996,98.1694,832.5571,99.5691,842.4146,98.5941,852.2721,99.4244,862.1296,98.3956,871.9871,98.8221,881.8446,99.6322,891.7021,98.8906,891.6959,98.8756,892.2813,99.1574,892.8767,99.4635,893.4523,99.7218,893.9644,99.8267,894.5306,100.0622,894.619,100.0988,894.5886,100.5549,895.0868,101.2298,895.4023,101.8292,895.6047,102.3816,895.7021,102.8906,895.9065,102.8906,895.5411,108.55,895.4848,114.2094,895.495,119.8688,895.6825,125.5281,895.7021,131.1875,895.6416,131.1624,895.6777,131.8401,895.1797,132.2966,894.8936,132.8408,894.8352,133.4794,894.5306,134.0159,894.4455,133.8106,893.8987,134.0904,893.482,134.6844,892.8891,134.853,892.3615,135.1794,891.7021,135.1875,891.7021,134.8657,881.8446,135.5067,871.9871,135.7779,862.1296,134.7151,852.2721,135.0916,842.4146,135.3135,832.5571,135.8393,822.6996,135.1833,812.842,135.6501,802.9845,134.6337,793.127,134.5102,783.2695,135.6911,773.412,134.4706,763.5545,135.6965,753.697,135.3941,743.8394,134.9196,733.9819,134.8337,724.1244,135.6463,714.2669,134.8882,704.4094,135.7794,694.5519,134.6348,684.6944,135.8049,674.8369,135.6718,664.9793,135.4325,655.1218,135.2347,645.2643,135.9141,635.4068,135.8011,625.5493,135.3568,615.6918,135.4557,605.8343,135.0572,595.9767,135.904,586.1192,135.3424,576.2617,135.1875,576.2837,135.2406,575.6184,134.7658,575.0787,134.5941,574.6324,134.648,574.0538,134.3826,573.4333,134.0159,573.4201,134.0105,573.0998,133.4091,572.8972,132.8566,572.519,132.2313,572.6238,131.8061,572.2617,131.1875,572.5082,131.1875,572.4372,125.5281,572.4934,119.8688,572.2161,114.2094,572.2908,108.55,572.2617,102.8906,572.1424,102.8412,572.5835,102.3612,572.8063,101.7907,573.1348,101.264,573.1283,100.5986,573.4333,100.0622,573.4161,100.0208,574.0555,99.9645,574.637,99.7683,575.065,99.2014,575.6713,99.0652,576.2617,98.8906" style="stroke:#FF6F00;stroke-width:1.5;"/><a href="/use-case/construction-project-quotations/estimating-and-pricing/indirects-overheads-general-conditions/" target="_top" title="/use-case/construction-project-quotations/estimating-and-pricing/indirects-overheads-general-conditions/" xlink:actuate="onRequest" xlink:href="/use-case/construction-project-quotations/estimating-and-pricing/indirects-overheads-general-conditions/" xlink:show="new" xlink:title="/use-case/construction-project-quotations/estimating-and-pricing/indirects-overheads-general-conditions/" xlink:type="simple"><text fill="#90EE90" font-family="'Roboto'" font-size="14" lengthAdjust="spacing" textLength="298.9902" x="582.2617" y="121.8857">Indirects, Overheads &amp; General Conditions</text></a><path d="M522.2617,103.8906 L522.2617,104.0775 L524.2617,103.5223 L526.2617,104.0624 L528.2617,104.2459 L530.2617,103.2565 L532.2617,103.8906 L532.2617,103.8906 L532.2479,103.859 L535.1856,105.0319 L538.1933,106.3642 L541.2496,107.8074 L544.1384,108.8686 L547.2617,110.4648 L547.3605,110.6902 L550.1493,111.5231 L553.2264,113.014 L556.3388,114.5852 L559.2464,115.6893 L562.2617,117.0391 L562.2617,117.0997 L564.2617,117.0107 L566.2617,117.1978 L568.2617,117.2516 L570.2617,117.5597 L572.2617,117.0391" fill="none" style="stroke:#FF9900;stroke-width:1;"/><a href="/use-case/construction-project-quotations/estimating-and-pricing/contingency-and-escalation/" target="_top" title="/use-case/construction-project-quotations/estimating-and-pricing/contingency-and-escalation/" xlink:actuate="onRequest" xlink:href="/use-case/construction-project-quotations/estimating-and-pricing/contingency-and-escalation/" xlink:show="new" xlink:title="/use-case/construction-project-quotations/estimating-and-pricing/contingency-and-escalation/" xlink:type="simple"><text fill="#90EE90" font-family="'Roboto'" font-size="14" lengthAdjust="spacing" textLength="179.3408" x="579.2617" y="163.1826">Contingency &amp; Escalation</text></a><path d="M522.2617,103.8906 L522.2617,104.0775 L524.2617,103.5223 L526.2617,104.0624 L528.2617,104.2459 L530.2617,103.2565 L532.2617,103.8906 L532.2617,103.8906 L532.2379,103.8656 L533.912,105.455 L535.7065,107.1702 L537.5845,108.973 L539.1745,110.4741 L541.168,112.3977 L541.4019,112.4739 L542.1204,116.0541 L543.5219,119.8567 L545.0068,123.6865 L546.0067,127.3584 L547.2617,131.1133 L547.2906,131.1227 L548.467,134.852 L549.7747,138.6241 L551.019,142.3755 L552.3842,146.1663 L553.3555,149.8289 L553.5615,150.0445 L555.3452,151.7486 L556.9961,153.3135 L558.8415,155.0821 L560.696,156.8602 L562.2617,158.3359 L562.2617,157.6949 L564.2617,158.9391 L566.2617,158.0724 L568.2617,158.8104 L570.2617,157.8959 L572.2617,158.3359" fill="none" style="stroke:#FF9900;stroke-width:1;"/><a href="/use-case/construction-project-quotations/estimating-and-pricing/pricing-strategy-margin-markups/" target="_top" title="/use-case/construction-project-quotations/estimating-and-pricing/pricing-strategy-margin-markups/" xlink:actuate="onRequest" xlink:href="/use-case/construction-project-quotations/estimating-and-pricing/pricing-strategy-margin-markups/" xlink:show="new" xlink:title="/use-case/construction-project-quotations/estimating-and-pricing/pricing-strategy-margin-markups/" xlink:type="simple"><text fill="#90EE90" font-family="'Roboto'" font-size="14" lengthAdjust="spacing" textLength="239.5996" x="579.2617" y="189.4795">Pricing Strategy (Margin/Markups)</text></a><path d="M522.2617,103.8906 L522.2617,104.0775 L524.2617,103.5223 L526.2617,104.0624 L528.2617,104.2459 L530.2617,103.2565 L532.2617,103.8906 L532.2617,103.8906 L532.2335,103.8707 L533.8881,106.3045 L535.685,108.8387 L537.5807,111.4427 L539.1357,113.8062 L541.168,116.5066 L541.4067,116.5661 L541.5407,119.0251 L542.3717,121.6579 L543.2878,124.3118 L543.7091,126.8425 L544.3906,129.438 L544.4204,129.4437 L544.9509,132.4 L545.617,135.3825 L546.2176,138.3524 L546.9431,141.3465 L547.2617,144.2617 L547.5545,144.3184 L548.1323,147.2839 L548.5213,150.2127 L549.1867,153.1952 L549.865,156.1801 L550.1328,159.0855 L549.8218,159.008 L551.07,161.7447 L551.294,164.2262 L552.2966,166.9017 L552.4975,169.3774 L553.3555,172.0168 L553.3306,171.9993 L555.406,174.7301 L556.9003,177.0507 L558.7375,179.6134 L560.6034,182.1964 L562.2617,184.6328 L562.2617,185.0028 L564.2617,184.6293 L566.2617,184.8881 L568.2617,184.124 L570.2617,184.8856 L572.2617,184.6328" fill="none" style="stroke:#FF9900;stroke-width:1;"/><a href="/use-case/construction-project-quotations/" target="_top" title="/use-case/construction-project-quotations/" xlink:actuate="onRequest" xlink:href="/use-case/construction-project-quotations/" xlink:show="new" xlink:title="/use-case/construction-project-quotations/" xlink:type="simple"><text fill="#90EE90" font-family="'Roboto'" font-size="14" lengthAdjust="spacing" textLength="289.2354" x="14" y="108.7373">Complex Construction Project Quotations</text></a><path d="M364.6855,103.8906 L364.6855,104.0775 L362.6855,103.5223 L360.6855,104.0624 L358.6855,104.2459 L356.6855,103.2565 L354.6855,103.8906 L354.6855,103.8906 L354.6855,103.8561 L348.6855,103.7011 L342.6855,103.7202 L336.6855,103.8603 L330.6855,103.5833 L324.6855,103.8906 L324.6855,104.3828 L322.6855,103.3304 L320.6855,103.7148 L318.6855,104.2746 L316.6855,103.8144 L314.6855,103.8906" fill="none" style="stroke:#FF9900;stroke-width:1;"/><!--SRC=[xLXjJniv4Fw-ly9Nf2ketOPGgDgggWWXK20XN0ALJbM5dDr9uikk7MmlAJtTVx_nlYIRpGj9sFJWHBuis8zddXcFtvvzfQdKFkEkJ_kMzPiBRSQ171nVrqedvzVbUhNU8E5lOtTxhzZQIqEQbNBz_B3K-3F6JO5SbCfdfUFAqD04fDuuh3JIViX6k_sklRqzX1pLpo_70274_2nBzHZlKqbzqg9EhoD5mDsoy8HCW5fIhX01NAV0N-xw8AkCzz9Oik6nJbTt902th9U4SSSBN22w2wG372JroD248cqSs1Aw-vg4mmZbBd6fxE58BOYu1JcGJ0CPCDsDRB1Ru4I1rentL3O3brzEocVdbMQJ574QH5ypmKaNZHeh6WUsgQSW5SC5TLqqH7PJROqeVebaoVjKUxDBNJ4mwAoLC1CUPkAAk-4V44DIc4Deqy3Jv6_hI71zJdqWBne2OnSlmfOeYQDf2XkRx2UGugxrJzfIIKenG3jJHqmte-yyp97mt75BVPnkse6OqyJGWqmrZDMpTI0a1Xltf0eGNOmySE4kOtwiq1Vpu0Y_BpXM9hfPaV1KTb7E0j_R6S-PIpLjKGKvknlpuNWYSDVgG7WUE6PrgDpTZBoK4I25jqOF1yOabNThT57XckbrEc1SWsnJ1zReemat0N07Bl2OOWxhKwuZOvTTvlGuA8KRvWYkOZWoIe-OIsx2z1IUASneM-92-jJBzas4KsLjmCC6PXeV0kRI33VF2UDXwqpBOUzKKc7FA8TlhPAZXRo7GGYPwSlqpbh0BqbvbvYiuI64_spS-qklUOaBdlAE1vy-uMcb1F_y6UUtYSK7GkC1DlFqoEjSo5PSzimUtw9ITE47akJKkywVT-RojGRowavfy9zUhlFdlQPS9mVoqqZrYEtJotIgJ5hnmHknpboCnwC8xx3Rzz_sLefzVc3H0UDIrGLtaLYdXkgWOuhdYbmqLholpo-bDKGwVmhJHxkcUjfD8tbIZfmdpyEIrfAr0WsJNMbIoOCpSv6bIgtPsqjIYnxUHFN1OMtcO93H4Jdn3bcSnxsXqT55OkFewCC7xCzqfkzMblNgcdpxHWg10jl1zL_0ib9Q1k4btEvByHTMd7qJ29mVSoqlWDBCf-QLQ-Fx5H5uEUAT0gaCsydlv29g9T-_MwzoSd0JqF36QslQ0z5k5yWVSGkvZ5h8vivXuUrXuU2ajfMdvu0pRKiiJnKsEq9fssCjIIK3LI1Ns4qQfXi3BsCdgIQTURBmQ4j8WtVDq5kJYP2DX87jOnLvuInK3GhJFq8PKeWXjHWJSSg54fOtCnkIieqWqWNgAZlMKZ1Bs1cD9YS9xZMf9q2aTHpBBkKXDCzycUqHl_XSY185og5UEAGGFW3ZFkHH6VRawJ_-sZWMQwDpP_jKTXWtdrxGnwmaQwGP0yXcBKGKQX4Yh67RNf8DnkRtFVXXOXm2JK4O82wP16YCxmFkJuauk3-k5QvHV7l4CbUoooweSQNXKmmieMuDj_SP1y7qRN-EdlLGW_Fagtas9Xci85Wjvs0XYUeX9kUAKiiQNaI6Mjtc7E5fTQCpfQRLJSuJbrQtkXOvAQ4pGqXAc2sj8IK1J1EG4gEpjAE4Kqer6bvKiv9HOYkZ5etXxvMAXWwp8j7G-hW-b5f8AqazitVMPQfbSl8VAkNyQbxtlC7_ipGz1buB2oo_cCsZIbAksaZ2OybePhAUguCKrobyv1r99l__Qs7ZMRruLY-UrOjdzU8ngHSN7gwcgrgLu0mfCwRuPcTxP-zDiTW2JOlRcrUynyM0X-zQXeSEHWrRrkRnHPKe4KXy1BXCHJiX3j-oJkaj9Os06zn7Kky3FpqyInhmHNJBfE2-qJvElzP6W7UxzW4kg2P894A-rgn4TwXmHnYfuoEvkZootrjLFCm2sa7RmAqoxfrQtc5Vyry0]--></g></svg>