<svg xmlns="http://www.w3.org/2000/svg" xmlns:xlink="http://www.w3.org/1999/xlink" contentStyleType="text/css" data-diagram-type="MINDMAP" height="250px" preserveAspectRatio="none" style="width:664px;height:250px;" version="1.1" viewBox="0 0 664 250" width="664px" zoomAndPan="magnify"><defs/><g><a href="/use-case/legal-entity-management/" target="_top" title="/use-case/legal-entity-management/" xlink:actuate="onRequest" xlink:href="/use-case/legal-entity-management/" xlink:show="new" xlink:title="/use-case/legal-entity-management/" xlink:type="simple"><text fill="#4051B5" font-family="'Roboto'" font-size="13" lengthAdjust="spacing" textLength="166.9243" x="17" y="128.8149">Legal Entity Management</text></a><a href="/use-case/legal-entity-management/identification-and-registration/" target="_top" title="/use-case/legal-entity-management/identification-and-registration/" xlink:actuate="onRequest" xlink:href="/use-case/legal-entity-management/identification-and-registration/" xlink:show="new" xlink:title="/use-case/legal-entity-management/identification-and-registration/" xlink:type="simple"><text fill="#4051B5" font-family="'Roboto'" font-size="13" lengthAdjust="spacing" textLength="182.6157" x="249.0566" y="54.6333">Identification &amp; Registration</text></a><path d="M192.0566,124.3145 L192.0566,124.5013 L194.0566,123.9462 L196.0566,124.4863 L198.0566,124.6697 L200.0566,123.6803 L202.0566,124.3145 L202.0566,124.3145 L202.0293,124.2934 L203.6876,121.8808 L205.484,119.5743 L207.3764,117.3415 L208.938,114.8545 L210.9629,112.7236 L211.2004,112.788 L211.3371,110.2741 L212.1671,107.9483 L213.0818,105.6454 L213.5042,103.2091 L214.1855,100.8429 L214.2152,100.8492 L214.7459,98.1161 L215.4116,95.4116 L216.0122,92.6933 L216.7371,90.0012 L217.0566,87.2236 L217.3485,87.2852 L217.9263,84.562 L218.3158,81.7993 L218.9809,79.0946 L219.6589,76.3926 L219.9277,73.6043 L219.6184,73.5204 L220.8633,71.3072 L221.0896,68.8176 L222.0903,66.5381 L222.2935,64.0422 L223.1504,61.7237 L223.1263,61.7051 L225.193,59.6063 L226.6957,57.0741 L228.5313,54.7977 L230.3947,52.5427 L232.0566,50.1328 L232.0566,50.5028 L234.0566,50.1293 L236.0566,50.3881 L238.0566,49.624 L240.0566,50.3856 L242.0566,50.1328" fill="none" style="stroke:#FF6F00;stroke-width:1;"/><a href="/use-case/legal-entity-management/corporate-governance/" target="_top" title="/use-case/legal-entity-management/corporate-governance/" xlink:actuate="onRequest" xlink:href="/use-case/legal-entity-management/corporate-governance/" xlink:show="new" xlink:title="/use-case/legal-entity-management/corporate-governance/" xlink:type="simple"><text fill="#4051B5" font-family="'Roboto'" font-size="13" lengthAdjust="spacing" textLength="147.7734" x="249.0566" y="79.7661">Corporate Governance</text></a><path d="M192.0566,124.3145 L192.0566,124.5013 L194.0566,123.9462 L196.0566,124.4863 L198.0566,124.6697 L200.0566,123.6803 L202.0566,124.3145 L202.0566,124.3145 L202.0341,124.2883 L203.7143,122.638 L205.508,121.1197 L207.3806,119.6932 L208.9812,117.9504 L210.9629,116.6506 L211.1943,116.7342 L211.9182,113.1833 L213.3177,109.8765 L214.7997,106.5995 L215.802,103.1492 L217.0566,99.79 L217.0852,99.8003 L218.262,96.4131 L219.5688,93.0728 L220.8128,89.7098 L222.1764,86.3901 L223.1504,82.9295 L223.3449,83.1556 L225.1286,81.6256 L226.7867,79.9497 L228.6285,78.4874 L230.479,77.035 L232.0566,75.2656 L232.0566,74.6246 L234.0566,75.8687 L236.0566,75.0021 L238.0566,75.7401 L240.0566,74.8256 L242.0566,75.2656" fill="none" style="stroke:#FF6F00;stroke-width:1;"/><a href="/use-case/legal-entity-management/ownership-and-capital-structure/" target="_top" title="/use-case/legal-entity-management/ownership-and-capital-structure/" xlink:actuate="onRequest" xlink:href="/use-case/legal-entity-management/ownership-and-capital-structure/" xlink:show="new" xlink:title="/use-case/legal-entity-management/ownership-and-capital-structure/" xlink:type="simple"><text fill="#4051B5" font-family="'Roboto'" font-size="13" lengthAdjust="spacing" textLength="198.1992" x="249.0566" y="104.8989">Ownership &amp; Capital Structure</text></a><a href="/use-case/legal-entity-management/ownership-and-capital-structure/ownership/" target="_top" title="/use-case/legal-entity-management/ownership-and-capital-structure/ownership/" xlink:actuate="onRequest" xlink:href="/use-case/legal-entity-management/ownership-and-capital-structure/ownership/" xlink:show="new" xlink:title="/use-case/legal-entity-management/ownership-and-capital-structure/ownership/" xlink:type="simple"><text fill="#4051B5" font-family="'Roboto'" font-size="13" lengthAdjust="spacing" textLength="69.3228" x="512.3882" y="27.0669">Ownership</text></a><path d="M455.3882,100.3984 L455.3882,100.5853 L457.3882,100.0302 L459.3882,100.5702 L461.3882,100.7537 L463.3882,99.7643 L465.3882,100.3984 L465.3882,100.3984 L465.3603,100.378 L467.0165,97.8542 L468.8132,95.4332 L470.7075,93.0838 L472.2653,90.4879 L474.2944,88.2372 L474.5327,88.2988 L474.6678,85.674 L475.4984,83.2291 L476.4139,80.8061 L476.8356,78.2554 L477.5171,75.7719 L477.5468,75.7779 L478.0774,72.9112 L478.7433,70.0717 L479.3439,67.2191 L480.0692,64.3916 L480.3882,61.4824 L480.6806,61.5412 L481.2584,58.684 L481.6476,55.7889 L482.3128,52.9493 L482.991,50.1123 L483.2593,47.1929 L482.949,47.1127 L484.1958,44.7754 L484.4208,42.1738 L485.4226,39.7732 L485.6244,37.1656 L486.4819,34.7277 L486.4574,34.7097 L488.5291,32.4902 L490.027,29.8504 L491.8634,27.4586 L493.7284,25.0876 L495.3882,22.5664 L495.3882,22.9364 L497.3882,22.5629 L499.3882,22.8217 L501.3882,22.0576 L503.3882,22.8192 L505.3882,22.5664" fill="none" style="stroke:#FF6F00;stroke-width:1;"/><a href="/use-case/legal-entity-management/ownership-and-capital-structure/control/" target="_top" title="/use-case/legal-entity-management/ownership-and-capital-structure/control/" xlink:actuate="onRequest" xlink:href="/use-case/legal-entity-management/ownership-and-capital-structure/control/" xlink:show="new" xlink:title="/use-case/legal-entity-management/ownership-and-capital-structure/control/" xlink:type="simple"><text fill="#4051B5" font-family="'Roboto'" font-size="13" lengthAdjust="spacing" textLength="47.2773" x="512.3882" y="52.1997">Control</text></a><path d="M455.3882,100.3984 L455.3882,100.5853 L457.3882,100.0302 L459.3882,100.5702 L461.3882,100.7537 L463.3882,99.7643 L465.3882,100.3984 L465.3882,100.3984 L465.3647,100.3731 L467.0408,98.6124 L468.835,96.9796 L470.7114,95.4356 L472.3046,93.5854 L474.2944,92.1642 L474.5277,92.2426 L475.2477,88.4518 L476.6486,84.89 L478.1326,81.3562 L479.1333,77.6597 L480.3882,74.0488 L480.4169,74.0585 L481.5935,70.4212 L482.9009,66.828 L484.1452,63.2135 L485.5099,59.6395 L486.4819,55.9335 L486.6844,56.1525 L488.4681,54.5083 L490.1213,52.7229 L491.9656,51.1442 L493.8188,49.5752 L495.3882,47.6992 L495.3882,47.0582 L497.3882,48.3023 L499.3882,47.4357 L501.3882,48.1737 L503.3882,47.2592 L505.3882,47.6992" fill="none" style="stroke:#FF6F00;stroke-width:1;"/><a href="/use-case/legal-entity-management/ownership-and-capital-structure/shares/" target="_top" title="/use-case/legal-entity-management/ownership-and-capital-structure/shares/" xlink:actuate="onRequest" xlink:href="/use-case/legal-entity-management/ownership-and-capital-structure/shares/" xlink:show="new" xlink:title="/use-case/legal-entity-management/ownership-and-capital-structure/shares/" xlink:type="simple"><text fill="#4051B5" font-family="'Roboto'" font-size="13" lengthAdjust="spacing" textLength="132.2979" x="512.3882" y="77.3325">Shares &amp; Ownership</text></a><path d="M455.3882,100.3984 L455.3882,100.5853 L457.3882,100.0302 L459.3882,100.5702 L461.3882,100.7537 L463.3882,99.7643 L465.3882,100.3984 L465.3882,100.3984 L465.3731,100.3673 L467.0869,99.3663 L468.8765,98.5221 L470.7187,97.7868 L472.3794,96.676 L474.2944,96.0912 L474.5014,96.2243 L475.2776,94.0445 L476.658,92.2533 L478.1122,90.5095 L479.1374,88.4898 L480.3882,86.6152 L480.4137,86.6316 L481.595,84.7124 L482.8924,82.8678 L484.1338,80.9871 L485.4821,79.1753 L486.4819,77.1393 L486.6118,77.4078 L488.3946,76.5496 L490.0937,75.5183 L491.9154,74.7404 L493.7428,73.9745 L495.3882,72.832 L495.3882,72.191 L497.3882,73.4352 L499.3882,72.5685 L501.3882,73.3065 L503.3882,72.392 L505.3882,72.832" fill="none" style="stroke:#FF6F00;stroke-width:1;"/><a href="/use-case/legal-entity-management/ownership-and-capital-structure/share-capital/" target="_top" title="/use-case/legal-entity-management/ownership-and-capital-structure/share-capital/" xlink:actuate="onRequest" xlink:href="/use-case/legal-entity-management/ownership-and-capital-structure/share-capital/" xlink:show="new" xlink:title="/use-case/legal-entity-management/ownership-and-capital-structure/share-capital/" xlink:type="simple"><text fill="#4051B5" font-family="'Roboto'" font-size="13" lengthAdjust="spacing" textLength="87.5151" x="512.3882" y="102.4653">Share Capital</text></a><path d="M455.3882,100.3984 L455.3882,100.5853 L457.3882,100.0302 L459.3882,100.5702 L461.3882,100.7537 L463.3882,99.7643 L465.3882,100.3984 L465.3882,100.3984 L465.3854,100.364 L468.3729,99.9661 L471.3744,99.7418 L474.3857,99.6382 L477.3633,99.1187 L480.3882,99.1816 L480.4081,99.4269 L483.3655,98.6591 L486.3811,98.6073 L489.4037,98.6429 L492.3851,98.1702 L495.3882,97.9648 L495.3882,98.0255 L497.3882,97.9364 L499.3882,98.1235 L501.3882,98.1774 L503.3882,98.4855 L505.3882,97.9648" fill="none" style="stroke:#FF6F00;stroke-width:1;"/><polygon fill="#4051B5" points="509.3882,120.5313,509.3882,120.7414,519.1806,120.1169,528.973,120.7245,538.7654,120.9309,548.5578,119.8179,558.3501,120.4535,568.1425,120.1048,577.9349,120.1478,587.7273,120.4631,597.5197,119.8399,607.3121,121.0849,617.1045,120.5313,617.0241,120.3371,617.645,120.7047,618.291,121.1329,618.7906,121.2078,619.3759,121.4895,619.9329,121.7028,619.9231,121.6987,620.2222,122.2913,620.4752,122.8647,620.8162,123.4746,621.0768,124.0512,621.1045,124.5313,621.3309,124.5313,621.1894,129.9578,621.259,135.3844,621.3386,140.8109,620.8641,146.2375,621.1045,151.6641,621.3134,151.7506,620.7789,152.1919,620.8003,152.8635,620.2491,153.298,620.1461,153.9181,619.9329,154.4925,620.0275,154.7209,619.361,154.7118,618.815,154.9935,618.2791,155.2997,617.7233,155.5579,617.1045,155.6641,617.1045,155.6602,607.3121,155.9513,597.5197,155.0916,587.7273,155.9484,577.9349,156.2123,568.1425,156.1086,558.3501,156.2771,548.5578,155.181,538.7654,155.0119,528.973,155.0427,519.1806,155.6052,509.3882,155.6641,509.3631,155.6035,508.9094,155.6396,508.2345,155.1416,507.6474,154.8555,507.1546,154.7971,506.5598,154.4925,506.3544,154.4074,506.1656,153.8606,506.291,153.4439,505.991,152.851,505.8487,152.3234,505.3882,151.6641,505.2809,151.6641,505.4946,146.2375,505.585,140.8109,505.2307,135.3844,505.3562,129.9578,505.3882,124.5313,505.427,124.5473,505.8232,124.0487,505.8555,123.3993,506.2336,122.8932,506.1549,122.1979,506.5598,121.7028,506.4734,121.4943,507.1897,121.6236,507.5997,121.0134,508.3217,121.1566,508.8489,120.8292,509.3882,120.5313" style="stroke:#FF6F00;stroke-width:1.5;"/><a href="/use-case/legal-entity-management/ownership-and-capital-structure/issued-capital/" target="_top" title="/use-case/legal-entity-management/ownership-and-capital-structure/issued-capital/" xlink:actuate="onRequest" xlink:href="/use-case/legal-entity-management/ownership-and-capital-structure/issued-capital/" xlink:show="new" xlink:title="/use-case/legal-entity-management/ownership-and-capital-structure/issued-capital/" xlink:type="simple"><text fill="#4051B5" font-family="'Roboto'" font-size="13" lengthAdjust="spacing" textLength="91.584" x="515.3882" y="142.5981">Issued Capital</text></a><path d="M455.3882,100.3984 L455.3882,100.5853 L457.3882,100.0302 L459.3882,100.5702 L461.3882,100.7537 L463.3882,99.7643 L465.3882,100.3984 L465.3882,100.3984 L465.3691,100.3696 L467.0649,101.4184 L468.8567,102.6125 L470.7152,103.9075 L472.3437,104.8545 L474.2944,106.2889 L474.5171,106.3936 L475.2597,108.7616 L476.6524,111.4352 L478.1244,114.1461 L479.1349,116.64 L480.3882,119.248 L480.4156,119.261 L481.5941,121.8338 L482.8975,124.4655 L484.1406,127.0687 L485.4987,129.7261 L486.4819,132.2072 L486.6465,132.4559 L488.4297,133.6371 L490.1069,134.6577 L491.9393,135.9133 L493.7791,137.1799 L495.3882,138.0977 L495.3882,137.4566 L497.3882,138.7008 L499.3882,137.8341 L501.3882,138.5722 L503.3882,137.6576 L505.3882,138.0977" fill="none" style="stroke:#FF6F00;stroke-width:1;"/><a href="/use-case/legal-entity-management/ownership-and-capital-structure/corporate-actions/" target="_top" title="/use-case/legal-entity-management/ownership-and-capital-structure/corporate-actions/" xlink:actuate="onRequest" xlink:href="/use-case/legal-entity-management/ownership-and-capital-structure/corporate-actions/" xlink:show="new" xlink:title="/use-case/legal-entity-management/ownership-and-capital-structure/corporate-actions/" xlink:type="simple"><text fill="#4051B5" font-family="'Roboto'" font-size="13" lengthAdjust="spacing" textLength="116.835" x="512.3882" y="182.731">Corporate Actions</text></a><path d="M455.3882,100.3984 L455.3882,100.5853 L457.3882,100.0302 L459.3882,100.5702 L461.3882,100.7537 L463.3882,99.7643 L465.3882,100.3984 L465.3882,100.3984 L465.3603,100.378 L467.0165,102.7187 L468.8132,105.1622 L470.7075,107.6773 L472.2653,109.9459 L474.2944,112.5597 L474.5327,112.6213 L474.6678,114.9826 L475.4984,117.5238 L476.4139,120.0869 L476.8356,122.5224 L477.5171,125.025 L477.5468,125.031 L478.0774,127.8801 L478.7433,130.7564 L479.3439,133.6196 L480.0692,136.5078 L480.3882,139.3145 L480.6806,139.3732 L481.2584,142.2318 L481.6476,145.0525 L482.3128,147.9287 L482.991,150.8075 L483.2593,153.6039 L482.949,153.5237 L484.1958,156.1725 L484.4208,158.5571 L485.4226,161.1425 L485.6244,163.5211 L486.4819,166.0692 L486.4574,166.0512 L488.5291,168.6962 L490.027,170.9209 L491.8634,173.3936 L493.7284,175.8871 L495.3882,178.2305 L495.3882,178.6005 L497.3882,178.227 L499.3882,178.4858 L501.3882,177.7217 L503.3882,178.4833 L505.3882,178.2305" fill="none" style="stroke:#FF6F00;stroke-width:1;"/><path d="M192.0566,124.3145 L192.0566,124.5013 L194.0566,123.9462 L196.0566,124.4863 L198.0566,124.6697 L200.0566,123.6803 L202.0566,124.3145 L202.0566,124.3145 L202.0351,124.2874 L204.9385,121.7746 L207.9504,119.398 L211.0378,117.116 L213.8651,114.5078 L217.0566,112.3564 L217.21,112.5489 L219.882,109.7458 L223.0018,107.5045 L226.1763,105.3318 L229.0329,102.7602 L232.0566,100.3984 L232.0566,100.4591 L234.0566,100.37 L236.0566,100.5571 L238.0566,100.611 L240.0566,100.9191 L242.0566,100.3984" fill="none" style="stroke:#FF6F00;stroke-width:1;"/><a href="/use-case/legal-entity-management/financial-information/" target="_top" title="/use-case/legal-entity-management/financial-information/" xlink:actuate="onRequest" xlink:href="/use-case/legal-entity-management/financial-information/" xlink:show="new" xlink:title="/use-case/legal-entity-management/financial-information/" xlink:type="simple"><text fill="#4051B5" font-family="'Roboto'" font-size="13" lengthAdjust="spacing" textLength="137.4839" x="249.0566" y="130.0317">Financial Information</text></a><path d="M192.0566,124.3145 L192.0566,124.5013 L194.0566,123.9462 L196.0566,124.4863 L198.0566,124.6697 L200.0566,123.6803 L202.0566,124.3145 L202.0566,124.3145 L202.0552,124.2799 L205.049,124.2467 L208.0497,124.3875 L211.0554,124.6492 L214.0442,124.4941 L217.0566,124.9229 L217.0666,125.1687 L220.0453,124.7646 L223.0531,125.0784 L226.0644,125.4797 L229.0551,125.3715 L232.0566,125.5313 L232.0566,125.5919 L234.0566,125.5029 L236.0566,125.6899 L238.0566,125.7438 L240.0566,126.0519 L242.0566,125.5313" fill="none" style="stroke:#FF6F00;stroke-width:1;"/><a href="/use-case/legal-entity-management/lifecycle-and-status/" target="_top" title="/use-case/legal-entity-management/lifecycle-and-status/" xlink:actuate="onRequest" xlink:href="/use-case/legal-entity-management/lifecycle-and-status/" xlink:show="new" xlink:title="/use-case/legal-entity-management/lifecycle-and-status/" xlink:type="simple"><text fill="#4051B5" font-family="'Roboto'" font-size="13" lengthAdjust="spacing" textLength="116.854" x="249.0566" y="155.1646">Lifecycle &amp; Status</text></a><path d="M192.0566,124.3145 L192.0566,124.5013 L194.0566,123.9462 L196.0566,124.4863 L198.0566,124.6697 L200.0566,123.6803 L202.0566,124.3145 L202.0566,124.3145 L202.0338,124.2885 L204.9316,126.807 L207.9442,129.4563 L211.0367,132.1966 L213.8539,134.6234 L217.0566,137.4893 L217.219,137.6741 L219.8718,139.9137 L222.9986,142.6931 L226.1833,145.5384 L229.0315,148.0005 L232.0566,150.6641 L232.0566,150.7247 L234.0566,150.6357 L236.0566,150.8228 L238.0566,150.8766 L240.0566,151.1847 L242.0566,150.6641" fill="none" style="stroke:#FF6F00;stroke-width:1;"/><a href="/use-case/legal-entity-management/contact-and-location-information/" target="_top" title="/use-case/legal-entity-management/contact-and-location-information/" xlink:actuate="onRequest" xlink:href="/use-case/legal-entity-management/contact-and-location-information/" xlink:show="new" xlink:title="/use-case/legal-entity-management/contact-and-location-information/" xlink:type="simple"><text fill="#4051B5" font-family="'Roboto'" font-size="13" lengthAdjust="spacing" textLength="203.8042" x="249.0566" y="180.2974">Contact &amp; Location Information</text></a><path d="M192.0566,124.3145 L192.0566,124.5013 L194.0566,123.9462 L196.0566,124.4863 L198.0566,124.6697 L200.0566,123.6803 L202.0566,124.3145 L202.0566,124.3145 L202.0335,124.2888 L203.7108,125.7826 L205.5049,127.4056 L207.3801,129.1185 L208.9757,130.5217 L210.9629,132.3586 L211.1955,132.4387 L211.9168,135.8068 L213.3173,139.4088 L214.8007,143.0393 L215.8018,146.5038 L217.0566,150.0557 L217.0853,150.0655 L218.262,153.5905 L219.5692,157.1603 L220.8134,160.7085 L222.1778,164.2981 L223.1504,167.7527 L223.3503,167.9741 L225.134,169.5856 L226.7887,171.0544 L228.6322,172.7321 L230.4846,174.4197 L232.0566,175.7969 L232.0566,175.1558 L234.0566,176.4 L236.0566,175.5333 L238.0566,176.2714 L240.0566,175.3569 L242.0566,175.7969" fill="none" style="stroke:#FF6F00;stroke-width:1;"/><a href="/use-case/legal-entity-management/compliance-and-documentation/" target="_top" title="/use-case/legal-entity-management/compliance-and-documentation/" xlink:actuate="onRequest" xlink:href="/use-case/legal-entity-management/compliance-and-documentation/" xlink:show="new" xlink:title="/use-case/legal-entity-management/compliance-and-documentation/" xlink:type="simple"><text fill="#4051B5" font-family="'Roboto'" font-size="13" lengthAdjust="spacing" textLength="195.1396" x="249.0566" y="205.4302">Compliance &amp; Documentation</text></a><path d="M192.0566,124.3145 L192.0566,124.5013 L194.0566,123.9462 L196.0566,124.4863 L198.0566,124.6697 L200.0566,123.6803 L202.0566,124.3145 L202.0566,124.3145 L202.0289,124.2938 L203.6858,126.5955 L205.4824,129.0012 L207.3761,131.4791 L208.9351,133.7079 L210.9629,136.2856 L211.2009,136.3481 L211.3365,138.6685 L212.1669,141.1714 L213.0822,143.6966 L213.5041,146.0922 L214.1855,148.556 L214.2153,148.5621 L214.7459,151.3664 L215.4117,154.1983 L216.0123,157.0169 L216.7375,159.8609 L217.0566,162.6221 L217.3489,162.6817 L217.9267,165.4957 L218.316,168.2711 L218.9812,171.1029 L219.6593,173.9374 L219.9277,176.6881 L219.6177,176.6067 L220.8639,179.2188 L221.0893,181.5628 L222.0908,184.1107 L222.2931,186.4486 L223.1504,188.9586 L223.126,188.9404 L225.1961,191.5495 L226.6955,193.7341 L228.5317,196.1692 L230.3961,198.6253 L232.0566,200.9297 L232.0566,201.2997 L234.0566,200.9262 L236.0566,201.185 L238.0566,200.4209 L240.0566,201.1825 L242.0566,200.9297" fill="none" style="stroke:#FF6F00;stroke-width:1;"/><a href="/use-case/legal-entity-management/supporting-information/" target="_top" title="/use-case/legal-entity-management/supporting-information/" xlink:actuate="onRequest" xlink:href="/use-case/legal-entity-management/supporting-information/" xlink:show="new" xlink:title="/use-case/legal-entity-management/supporting-information/" xlink:type="simple"><text fill="#4051B5" font-family="'Roboto'" font-size="13" lengthAdjust="spacing" textLength="151.106" x="249.0566" y="230.563">Supporting Information</text></a><path d="M192.0566,124.3145 L192.0566,124.5013 L194.0566,123.9462 L196.0566,124.4863 L198.0566,124.6697 L200.0566,123.6803 L202.0566,124.3145 L202.0566,124.3145 L202.0265,124.2976 L203.6725,127.4014 L205.4704,130.5904 L207.374,133.8385 L208.9136,136.8828 L210.9629,140.2126 L211.2043,140.2603 L211.3326,143.4174 L212.1657,146.7138 L213.0848,150.0272 L213.5036,153.2417 L214.1855,156.5082 L214.2155,156.5128 L214.7457,160.2421 L215.4124,163.9923 L216.0133,167.7325 L216.7397,171.492 L217.0566,175.1885 L217.3514,175.2338 L217.9292,178.9704 L218.3169,182.6778 L218.9829,186.428 L219.662,190.1801 L219.9277,193.8688 L219.6133,193.8066 L220.8681,197.1864 L221.0875,200.3615 L222.0941,203.6922 L222.29,206.8626 L223.1504,210.1644 L223.1238,210.1495 L225.2192,213.5051 L226.694,216.513 L228.535,219.7261 L230.4067,222.9564 L232.0566,226.0625 L232.0566,226.4325 L234.0566,226.059 L236.0566,226.3178 L238.0566,225.5537 L240.0566,226.3153 L242.0566,226.0625" fill="none" style="stroke:#FF6F00;stroke-width:1;"/><!--SRC=[xLXjRzis4FwkNy4rmDgYTHsdIL44HL77UMbQ9mxifCDG504jKJOHcTH8AbasxB_lg5TAjcJBaRjsIBwq9e_FFKTIlBldWrHOg1bbpWpxblMBGrpA23eukJxhdfvVzmRzmH25VrkxstkTyPvfCZhg3SuFkyFVOxi59XVTtkVkoL4AD6So61uU3Kq_QCjrtxZRswd9yU3yCcSGckY_rAGx70v-oziaA9QyeSp70i_G6Dit4y43vlIunmNQKW8p2NE4ASFiuxrFX4VPJMmLCxQU8ifiBt08KbE29eGHWJsKhfF81UinLzENoAEJgKAOESZ1uWPMAexuBH5tWYg2xgYQHXZqbZ0aYLAKJMHnJou_dlO-dn-DHgW31yDzHJb3Km3LA0eMkjYJn21-WHq7WD2kCJQCmXL05hqrnaTJxF0xRLr4ISE_Oaxu7nAR63Q7nCM1fz3VrZ5dwXpF27eov10xVnAEH3kN7LmuEA9_4TJPjVunaRf2y3l0MRXYCOowzs2FkEVaaNmuNJmXCQUvfGU5my_TSEk02mWsdZ6k9BZ8F33kr87FNVtLFDXyvdC6rn7Sh4bu8RjepuAPjvFVCmShFCQIDEmkvyFsUE1ir07tF6BhhqCsxYRpqWC3mRqDUZZGa5ZSRz354LDKRT81POe85zjaWpv6v8-0C9jSGEAYDlKnKn7OvPJQDun82GzcPYvZSs1ahgWaDmUzWATXaprBZ8iPzefpS-7qgKlwyBAMWgS6bJJ3ntCEF1mjHGvd5v8APx8zV6rrRSN54WQXIQalFLls0Jz5lLsaTmsI4FpOMlfdVlC2FdZC9XvvzmwobUJi_Niutn5SFi8L9B3IxD5KNYZUk6BEpZzH1bto9v1asBjkddUX7Di0UNal5PdzV7lTFEyDxNMIa7-EhSxO_dmxRLoJSPnu8zQ5mZWVHLZ3RY-lzjQAlJgmAC4uM4w9iqgi2qErmJ66l29MZHNgzUghj858gu-mTXkID71PJA-Z_3E0ZanGgEcT64StS74h71Rx4hNGB91Ar-K4OHT2JNmMsWB3MzoQblOuHgzQHj8i9RBDADJkqBYhvMNMuaolbA3ZG97oEc2UQqK3awlsiPJhiQfoy1ITnUSYVM9JbzeGVrWwm17TJNLNhU0DWlfJwWCD3-yb6di1WRDZZEX2H28UA3qztz8rp3R3n_cQ2XfvwyKr-leLjGD9MZQydMsFJB3N8c5btffX1Zti37wrKLzF92NxMJg1ldspNgmA0j7266mNrlrH2pEd9SY4IYN2WJOwpHcWNz7GcAxbokR2vx2Ej2PQwc0OQkusj4tnA3f9Hsl1yZjuhUIK-Y5v6_jKWHqm36mL2F0mI0o0V2-QXh8odevSDUKhdJUzDkh1ZhhCTjfkDeekfrWGsTRY3_mB-xMXA48_oNZiBZsRo5CpZgYK0N4oJwVXxuAhneuckTyu4XlCozsDzOSwDzkb-ckWC4UPgn_xw8iyJeRHQJPS2zY3vj6-jpqIHgBpH01a-yaedFie7AlvUKFbOAiGqkFnUv8Zteii0BuVpwyTWTR1FAhVYj2Vm-r0ZwUEabdmTMZErN8Y0nzEJqkl-JX6wNYH_mS2EIYHoZ_abVFcTEOVMD5DYfiLvLpJV0503I4tMLTCrCcccTauKVuhfTk70bOfjLKOympMq6RhELX9ZNq8PAN-MXTu5SLrVSmAZNLzq59LTNt8AXrrVTIDAAS9dHBDD65MMovD0bYabIQWPJ9fmibePHAuENKqmIe8epdxfQfewh2eXwReUIdK-93MKZNBNzOwjsN-y1-gMdvlNalaflzictu4NYjhYT-PpG-rIOtAW0cFcj6KigwK_3gRrFYQZgIm_qrfU6kBS0loPMC2d8bKo2NpkbikpIpQkM89keBMLavWAMI97lO0n4S5x541UrJ07XMmHmNiVwU0NNZGi5sTzH4yQr8RT5xjRE_ilUfqnaJXplQpAtR3u5A5OWc5RLTqHfvRpquk-aZoG01xHx-qEYN2ykVM9toBqJ1WscuV3Np2FXr-JWOW3znImPbcRdtwSfOPlDbj7L05tQq08kZBcPNK54VCvbe_sqTNbyUjjrOVAgG0Wjz7X44X0BZY7kP6_m80]--></g></svg>