<svg xmlns="http://www.w3.org/2000/svg" xmlns:xlink="http://www.w3.org/1999/xlink" contentStyleType="text/css" data-diagram-type="MINDMAP" height="424px" preserveAspectRatio="none" style="width:883px;height:424px;" version="1.1" viewBox="0 0 883 424" width="883px" zoomAndPan="magnify"><defs/><g><polygon fill="#4051B5" points="145.7129,193.4961,145.7129,193.7063,155.8282,193.0818,165.9435,193.6894,176.0588,193.8958,186.1741,192.7827,196.2894,193.4184,206.4048,193.0696,216.5201,193.1126,226.6354,193.4279,236.7507,192.8047,246.866,194.0497,256.9813,192.8658,267.0966,193.2983,277.2119,193.928,287.3273,193.4103,297.4426,193.5643,307.5579,193.4641,317.6732,193.6746,327.7885,193.7352,337.9038,193.4961,337.9785,193.6765,338.5551,193.9371,339.1218,194.1739,339.6333,194.2775,340.2257,194.5761,340.7322,194.6677,340.9485,194.7572,340.7445,195.1414,341.4098,195.8856,341.3439,196.3269,341.8339,196.9985,341.9038,197.4961,341.7388,197.4961,341.881,202.9227,342.151,208.3492,341.8876,213.7758,341.9389,219.2023,341.9038,224.6289,342.0081,224.6721,341.7977,225.2477,341.434,225.7598,341.2893,226.3626,340.7903,226.8186,340.7322,227.4573,340.7685,227.5449,340.2365,227.8605,339.6576,228.0629,339.1134,228.3491,338.4079,228.2458,337.9038,228.6289,337.9038,227.9767,327.7885,228.0075,317.6732,228.57,307.5579,228.4324,297.4426,229.3103,287.3273,228.4542,277.2119,228.2859,267.0966,228.8572,256.9813,227.9621,246.866,228.1098,236.7507,229.2779,226.6354,229.0646,216.5201,229.3634,206.4048,228.3071,196.2894,228.9481,186.1741,229.2193,176.0588,228.1565,165.9435,228.533,155.8282,228.7549,145.7129,228.6289,145.796,228.8296,145.1467,228.3933,144.6405,228.3027,143.9452,227.7554,143.3638,227.4831,142.8845,227.4573,143.0396,227.5216,142.4294,226.8002,142.5726,226.3909,142.2452,225.7866,141.8647,225.1604,141.7129,224.6289,141.595,224.6289,141.8658,219.2023,141.6131,213.7758,141.9102,208.3492,141.5286,202.9227,141.7129,197.4961,141.903,197.5749,142.0964,196.9922,142.257,196.396,142.4304,195.8051,142.8739,195.326,142.8845,194.6677,142.9627,194.8566,143.4717,194.4855,144.05,194.2816,144.5649,193.9246,145.2386,193.951,145.7129,193.4961" style="stroke:#FF6F00;stroke-width:1.5;"/><a href="/use-case/client-360/know-your-customer/" target="_top" title="/use-case/client-360/know-your-customer/" xlink:actuate="onRequest" xlink:href="/use-case/client-360/know-your-customer/" xlink:show="new" xlink:title="/use-case/client-360/know-your-customer/" xlink:type="simple"><text fill="#4051B5" font-family="'Roboto'" font-size="13" lengthAdjust="spacing" textLength="176.0586" x="151.7129" y="215.563">Know Your Customer (KYC)</text></a><a href="/use-case/client-360/know-your-customer/anti-money-laundering/" target="_top" title="/use-case/client-360/know-your-customer/anti-money-laundering/" xlink:actuate="onRequest" xlink:href="/use-case/client-360/know-your-customer/anti-money-laundering/" xlink:show="new" xlink:title="/use-case/client-360/know-your-customer/anti-money-laundering/" xlink:type="simple"><text fill="#4051B5" font-family="'Roboto'" font-size="13" lengthAdjust="spacing" textLength="192.2197" x="398.9038" y="52.1997">Anti Money Laundering (AML)</text></a><a href="/use-case/client-360/know-your-customer/anti-money-laundering/correspondent-based-aml/" target="_top" title="/use-case/client-360/know-your-customer/anti-money-laundering/correspondent-based-aml/" xlink:actuate="onRequest" xlink:href="/use-case/client-360/know-your-customer/anti-money-laundering/correspondent-based-aml/" xlink:show="new" xlink:title="/use-case/client-360/know-your-customer/anti-money-laundering/correspondent-based-aml/" xlink:type="simple"><text fill="#4051B5" font-family="'Roboto'" font-size="13" lengthAdjust="spacing" textLength="171.939" x="656.2559" y="27.0669">Correspondent-based AML</text></a><path d="M599.2559,47.6992 L599.2559,47.886 L601.2559,47.3309 L603.2559,47.871 L605.2559,48.0545 L607.2559,47.0651 L609.2559,47.6992 L609.2559,47.6992 L609.2337,47.6727 L612.1341,45.0406 L615.1464,42.542 L618.2364,40.1362 L621.0585,37.4106 L624.2559,35.1328 L624.4139,35.3214 L627.076,32.4048 L630.1994,30.0389 L633.3791,27.7401 L636.2314,25.0505 L639.2559,22.5664 L639.2559,22.6271 L641.2559,22.538 L643.2559,22.7251 L645.2559,22.779 L647.2559,23.087 L649.2559,22.5664" fill="none" style="stroke:#FF6F00;stroke-width:1;"/><a href="/use-case/client-360/know-your-customer/anti-money-laundering/network-based-aml/" target="_top" title="/use-case/client-360/know-your-customer/anti-money-laundering/network-based-aml/" xlink:actuate="onRequest" xlink:href="/use-case/client-360/know-your-customer/anti-money-laundering/network-based-aml/" xlink:show="new" xlink:title="/use-case/client-360/know-your-customer/anti-money-laundering/network-based-aml/" xlink:type="simple"><text fill="#4051B5" font-family="'Roboto'" font-size="13" lengthAdjust="spacing" textLength="129.6953" x="656.2559" y="52.1997">Network-based AML</text></a><path d="M599.2559,47.6992 L599.2559,47.886 L601.2559,47.3309 L603.2559,47.871 L605.2559,48.0545 L607.2559,47.0651 L609.2559,47.6992 L609.2559,47.6992 L609.2559,47.6647 L615.2559,47.5097 L621.2559,47.5288 L627.2559,47.6689 L633.2559,47.3919 L639.2559,47.6992 L639.2559,48.1913 L641.2559,47.139 L643.2559,47.5234 L645.2559,48.0832 L647.2559,47.623 L649.2559,47.6992" fill="none" style="stroke:#FF6F00;stroke-width:1;"/><a href="/use-case/client-360/know-your-customer/anti-money-laundering/transaction-based-aml/" target="_top" title="/use-case/client-360/know-your-customer/anti-money-laundering/transaction-based-aml/" xlink:actuate="onRequest" xlink:href="/use-case/client-360/know-your-customer/anti-money-laundering/transaction-based-aml/" xlink:show="new" xlink:title="/use-case/client-360/know-your-customer/anti-money-laundering/transaction-based-aml/" xlink:type="simple"><text fill="#4051B5" font-family="'Roboto'" font-size="13" lengthAdjust="spacing" textLength="206.7559" x="656.2559" y="77.3325">Transaction/Finance-based AML</text></a><path d="M599.2559,47.6992 L599.2559,47.886 L601.2559,47.3309 L603.2559,47.871 L605.2559,48.0545 L607.2559,47.0651 L609.2559,47.6992 L609.2559,47.6992 L609.2337,47.6727 L612.1341,50.0672 L615.1464,52.5951 L618.2364,55.2158 L621.0585,57.5168 L624.2559,60.2656 L624.4139,60.4542 L627.076,62.5642 L630.1994,65.2248 L633.3791,67.9526 L636.2314,70.2895 L639.2559,72.832 L639.2559,72.8927 L641.2559,72.8036 L643.2559,72.9907 L645.2559,73.0446 L647.2559,73.3526 L649.2559,72.832" fill="none" style="stroke:#FF6F00;stroke-width:1;"/><path d="M341.9038,211.0625 L341.9038,211.2493 L343.9038,210.6942 L345.9038,211.2343 L347.9038,211.4178 L349.9038,210.4284 L351.9038,211.0625 L351.9038,211.0625 L351.8756,211.0425 L352.7453,209.5489 L353.757,208.1561 L354.8674,206.8333 L355.6376,205.2691 L356.8843,204.043 L357.125,204.094 L357.3954,200.2837 L358.3686,196.6223 L359.4275,192.9792 L359.9876,189.2303 L360.8101,185.537 L360.8401,185.5411 L361.1314,183.0623 L361.5596,180.6021 L361.9217,178.1329 L362.4098,175.6808 L362.4873,173.1731 L362.7837,173.2063 L363.0964,170.4467 L363.2179,167.6658 L363.6193,164.9162 L364.0338,162.168 L364.0327,159.3733 L363.7136,159.3428 L364.9071,153.4036 L365.05,147.3638 L365.9915,141.4005 L366.1106,135.3584 L366.9038,129.3809 L366.8735,129.378 L367.8061,123.4138 L368.0307,117.3818 L368.6731,111.3898 L369.3505,105.4012 L369.7749,99.3884 L369.9587,99.409 L370.0823,96.6282 L370.5199,93.8827 L370.4493,91.0802 L371.1368,88.3627 L371.3203,85.5887 L371.5617,85.6214 L371.8515,83.1424 L372.2612,80.6797 L372.1139,78.1414 L372.3749,75.6586 L372.9976,73.2247 L372.7274,73.1674 L373.7571,69.5181 L374.4824,65.8042 L375.6493,62.184 L376.0622,58.4038 L376.9233,54.7187 L376.799,54.6305 L378.0022,53.3735 L378.6738,51.7394 L379.7235,50.3735 L381.1429,49.27 L381.9038,47.6992 L381.9038,48.0865 L383.9038,48.3521 L385.9038,47.4132 L387.9038,47.9829 L389.9038,48.224 L391.9038,47.6992" fill="none" style="stroke:#FF6F00;stroke-width:1;"/><a href="/use-case/client-360/know-your-customer/identification-verification/" target="_top" title="/use-case/client-360/know-your-customer/identification-verification/" xlink:actuate="onRequest" xlink:href="/use-case/client-360/know-your-customer/identification-verification/" xlink:show="new" xlink:title="/use-case/client-360/know-your-customer/identification-verification/" xlink:type="simple"><text fill="#4051B5" font-family="'Roboto'" font-size="13" lengthAdjust="spacing" textLength="163.4204" x="398.9038" y="77.3325">Identification Verification</text></a><path d="M341.9038,211.0625 L341.9038,211.2493 L343.9038,210.6942 L345.9038,211.2343 L347.9038,211.4178 L349.9038,210.4284 L351.9038,211.0625 L351.9038,211.0625 L351.8773,211.0403 L352.7547,209.7528 L353.7654,208.5771 L354.8689,207.4793 L355.6527,206.1134 L356.8843,205.1229 L357.123,205.1827 L357.3977,201.923 L358.3693,198.838 L359.426,195.7742 L359.9879,192.5865 L360.8101,189.464 L360.84,189.4688 L361.1315,187.3694 L361.5593,185.2918 L361.9213,183.2037 L362.4089,181.1358 L362.4873,179.0022 L362.783,179.0413 L363.0957,176.7065 L363.2177,174.3464 L363.6188,172.0232 L364.033,169.7018 L364.0327,167.3255 L363.7142,167.2895 L364.9066,162.2838 L365.0502,157.1594 L365.9911,152.1252 L366.111,146.9982 L366.9038,141.9473 L366.8736,141.9438 L367.8055,136.9087 L368.0307,131.7935 L368.673,126.7256 L369.3502,121.6616 L369.7749,116.569 L369.9583,116.5933 L370.0823,114.2334 L370.5196,111.9151 L370.4499,109.5296 L371.1365,107.2442 L371.3203,104.8923 L371.5609,104.9309 L371.8508,102.8312 L372.2602,100.7507 L372.1147,98.5813 L372.3759,96.477 L372.9976,94.4305 L372.7297,94.3634 L373.7573,91.2924 L374.4831,88.1457 L375.6468,85.1088 L376.0629,81.8845 L376.9233,78.7716 L376.8065,78.6737 L377.9972,77.6489 L378.6884,76.2054 L379.7348,75.0596 L381.1287,74.2053 L381.9038,72.832 L381.9038,73.2193 L383.9038,73.4849 L385.9038,72.546 L387.9038,73.1158 L389.9038,73.3568 L391.9038,72.832" fill="none" style="stroke:#FF6F00;stroke-width:1;"/><a href="/use-case/client-360/know-your-customer/peps/" target="_top" title="/use-case/client-360/know-your-customer/peps/" xlink:actuate="onRequest" xlink:href="/use-case/client-360/know-your-customer/peps/" xlink:show="new" xlink:title="/use-case/client-360/know-your-customer/peps/" xlink:type="simple"><text fill="#4051B5" font-family="'Roboto'" font-size="13" lengthAdjust="spacing" textLength="221.019" x="398.9038" y="102.4653">Politically Exposed Persons (PEPs)</text></a><path d="M341.9038,211.0625 L341.9038,211.2493 L343.9038,210.6942 L345.9038,211.2343 L347.9038,211.4178 L349.9038,210.4284 L351.9038,211.0625 L351.9038,211.0625 L351.873,211.047 L353.5158,207.4429 L355.3141,203.9172 L357.2205,200.446 L358.7544,196.787 L360.8101,193.391 L361.0523,193.4341 L361.1788,189.7193 L362.0126,186.1303 L362.9327,182.5566 L363.3507,178.8937 L364.0327,175.2777 L364.0628,175.2818 L364.5929,171.1229 L365.2597,166.983 L365.8607,162.8338 L366.5874,158.7021 L366.9038,154.5137 L367.1992,154.5545 L367.7771,150.4022 L368.1643,146.2236 L368.8306,142.0835 L369.5098,137.9452 L369.7749,133.7496 L369.4593,133.6935 L370.7163,130.1798 L370.9342,126.4812 L371.9421,122.9232 L372.1364,119.2205 L372.9976,115.6364 L372.9704,115.6227 L375.0731,112.2504 L376.5407,108.558 L378.3831,105.0545 L380.257,101.5669 L381.9038,97.9648 L381.9038,98.3348 L383.9038,97.9614 L385.9038,98.2201 L387.9038,97.456 L389.9038,98.2176 L391.9038,97.9648" fill="none" style="stroke:#FF6F00;stroke-width:1;"/><a href="/use-case/client-360/know-your-customer/crime-records/" target="_top" title="/use-case/client-360/know-your-customer/crime-records/" xlink:actuate="onRequest" xlink:href="/use-case/client-360/know-your-customer/crime-records/" xlink:show="new" xlink:title="/use-case/client-360/know-your-customer/crime-records/" xlink:type="simple"><text fill="#4051B5" font-family="'Roboto'" font-size="13" lengthAdjust="spacing" textLength="95.3291" x="398.9038" y="127.5981">Crime Records</text></a><path d="M341.9038,211.0625 L341.9038,211.2493 L343.9038,210.6942 L345.9038,211.2343 L347.9038,211.4178 L349.9038,210.4284 L351.9038,211.0625 L351.9038,211.0625 L351.8748,211.0437 L353.526,208.2105 L355.3233,205.472 L357.2221,202.7993 L358.7709,199.8998 L360.8101,197.318 L361.0499,197.3729 L361.1815,194.4379 L362.0134,191.6631 L362.9308,188.9079 L363.351,186.039 L364.0327,183.2299 L364.0626,183.2352 L364.593,179.9974 L365.2593,176.7838 L365.86,173.5586 L366.5859,170.3556 L366.9038,167.0801 L367.1975,167.1323 L367.7753,163.903 L368.1637,160.64 L368.8293,157.4263 L369.508,154.2149 L369.7749,150.9303 L369.4624,150.8588 L370.7134,148.1799 L370.9355,145.2656 L371.9398,142.5303 L372.1386,139.6107 L372.9976,136.8422 L372.972,136.8256 L375.0554,134.2725 L376.5419,131.3326 L378.3806,128.6209 L380.2489,125.9284 L381.9038,123.0977 L381.9038,123.4676 L383.9038,123.0942 L385.9038,123.353 L387.9038,122.5888 L389.9038,123.3504 L391.9038,123.0977" fill="none" style="stroke:#FF6F00;stroke-width:1;"/><a href="/use-case/client-360/know-your-customer/sanctions/" target="_top" title="/use-case/client-360/know-your-customer/sanctions/" xlink:actuate="onRequest" xlink:href="/use-case/client-360/know-your-customer/sanctions/" xlink:show="new" xlink:title="/use-case/client-360/know-your-customer/sanctions/" xlink:type="simple"><text fill="#4051B5" font-family="'Roboto'" font-size="13" lengthAdjust="spacing" textLength="63.2798" x="398.9038" y="152.731">Sanctions</text></a><path d="M341.9038,211.0625 L341.9038,211.2493 L343.9038,210.6942 L345.9038,211.2343 L347.9038,211.4178 L349.9038,210.4284 L351.9038,211.0625 L351.9038,211.0625 L351.8782,211.0393 L353.5447,208.9716 L355.3401,207.021 L357.2251,205.1516 L358.8012,203.002 L360.8101,201.245 L361.0444,201.32 L361.1878,199.147 L362.0154,197.193 L362.9265,195.2658 L363.3519,193.183 L364.0327,191.1821 L364.0621,191.1894 L364.5932,188.8715 L365.2581,186.587 L365.8585,184.2864 L366.5822,182.0165 L366.9038,179.6465 L367.1932,179.7185 L367.771,177.4123 L368.1621,175.0596 L368.8264,172.7749 L369.5035,170.4934 L369.7749,168.1109 L369.4696,168.0132 L370.7066,166.1903 L370.9385,164.0455 L371.9344,162.1455 L372.1435,159.9935 L372.9976,158.048 L372.975,158.0275 L375.0229,156.3059 L376.544,154.1064 L378.376,152.1889 L380.234,150.2951 L381.9038,148.2305 L381.9038,148.6005 L383.9038,148.227 L385.9038,148.4858 L387.9038,147.7217 L389.9038,148.4833 L391.9038,148.2305" fill="none" style="stroke:#FF6F00;stroke-width:1;"/><a href="/use-case/client-360/know-your-customer/risk-management/" target="_top" title="/use-case/client-360/know-your-customer/risk-management/" xlink:actuate="onRequest" xlink:href="/use-case/client-360/know-your-customer/risk-management/" xlink:show="new" xlink:title="/use-case/client-360/know-your-customer/risk-management/" xlink:type="simple"><text fill="#4051B5" font-family="'Roboto'" font-size="13" lengthAdjust="spacing" textLength="116.7144" x="398.9038" y="177.8638">Risk Management</text></a><path d="M341.9038,211.0625 L341.9038,211.2493 L343.9038,210.6942 L345.9038,211.2343 L347.9038,211.4178 L349.9038,210.4284 L351.9038,211.0625 L351.9038,211.0625 L351.8848,211.0337 L353.5805,209.7263 L355.3723,208.5641 L357.2308,207.5029 L358.8593,206.0938 L360.8101,205.172 L361.0327,205.2767 L361.7753,202.461 L363.168,199.951 L364.64,197.4782 L365.6506,194.7885 L366.9038,192.2129 L366.9313,192.2258 L368.1097,189.615 L369.4131,187.063 L370.6562,184.4827 L372.0144,181.9564 L372.9976,179.2538 L373.1621,179.5025 L374.9453,178.3275 L376.6225,176.992 L378.455,175.8913 L380.2947,174.8017 L381.9038,173.3633 L381.9038,172.7222 L383.9038,173.9664 L385.9038,173.0997 L387.9038,173.8378 L389.9038,172.9233 L391.9038,173.3633" fill="none" style="stroke:#FF6F00;stroke-width:1;"/><a href="/use-case/client-360/know-your-customer/high-net-worth-individuals/" target="_top" title="/use-case/client-360/know-your-customer/high-net-worth-individuals/" xlink:actuate="onRequest" xlink:href="/use-case/client-360/know-your-customer/high-net-worth-individuals/" xlink:show="new" xlink:title="/use-case/client-360/know-your-customer/high-net-worth-individuals/" xlink:type="simple"><text fill="#4051B5" font-family="'Roboto'" font-size="13" lengthAdjust="spacing" textLength="225.1323" x="398.9038" y="202.9966">High Net Worth Individuals (HNWI)</text></a><path d="M341.9038,211.0625 L341.9038,211.2493 L343.9038,210.6942 L345.9038,211.2343 L347.9038,211.4178 L349.9038,210.4284 L351.9038,211.0625 L351.9038,211.0625 L351.8905,211.0306 L354.8306,209.631 L357.838,208.392 L360.8921,207.2646 L363.7851,205.7525 L366.9038,204.7793 L366.9989,205.0063 L369.7956,203.2643 L372.8698,202.1849 L375.978,201.1864 L378.8891,199.7176 L381.9038,198.4961 L381.9038,198.5568 L383.9038,198.4677 L385.9038,198.6548 L387.9038,198.7087 L389.9038,199.0167 L391.9038,198.4961" fill="none" style="stroke:#FF6F00;stroke-width:1;"/><a href="/use-case/client-360/know-your-customer/activity-monitoring/" target="_top" title="/use-case/client-360/know-your-customer/activity-monitoring/" xlink:actuate="onRequest" xlink:href="/use-case/client-360/know-your-customer/activity-monitoring/" xlink:show="new" xlink:title="/use-case/client-360/know-your-customer/activity-monitoring/" xlink:type="simple"><text fill="#4051B5" font-family="'Roboto'" font-size="13" lengthAdjust="spacing" textLength="122.4971" x="398.9038" y="228.1294">Activity Monitoring</text></a><path d="M341.9038,211.0625 L341.9038,211.2493 L343.9038,210.6942 L345.9038,211.2343 L347.9038,211.4178 L349.9038,210.4284 L351.9038,211.0625 L351.9038,211.0625 L351.8905,211.0306 L354.8306,212.1443 L357.838,213.4186 L360.8921,214.8045 L363.7851,215.8056 L366.9038,217.3457 L366.9989,217.5727 L369.7956,218.344 L372.8698,219.7779 L375.978,221.2927 L378.8891,222.3371 L381.9038,223.6289 L381.9038,223.6896 L383.9038,223.6005 L385.9038,223.7876 L387.9038,223.8415 L389.9038,224.1495 L391.9038,223.6289" fill="none" style="stroke:#FF6F00;stroke-width:1;"/><a href="/use-case/client-360/know-your-customer/gdpr/" target="_top" title="/use-case/client-360/know-your-customer/gdpr/" xlink:actuate="onRequest" xlink:href="/use-case/client-360/know-your-customer/gdpr/" xlink:show="new" xlink:title="/use-case/client-360/know-your-customer/gdpr/" xlink:type="simple"><text fill="#4051B5" font-family="'Roboto'" font-size="13" lengthAdjust="spacing" textLength="36.9561" x="398.9038" y="253.2622">GDPR</text></a><path d="M341.9038,211.0625 L341.9038,211.2493 L343.9038,210.6942 L345.9038,211.2343 L347.9038,211.4178 L349.9038,210.4284 L351.9038,211.0625 L351.9038,211.0625 L351.8848,211.0337 L353.5805,212.0825 L355.3723,213.2765 L357.2308,214.5715 L358.8593,215.5186 L360.8101,216.953 L361.0327,217.0577 L361.7753,219.4256 L363.168,222.0992 L364.64,224.8102 L365.6506,227.3041 L366.9038,229.9121 L366.9313,229.925 L368.1097,232.4979 L369.4131,235.1295 L370.6562,237.7328 L372.0144,240.3902 L372.9976,242.8712 L373.1621,243.12 L374.9453,244.3011 L376.6225,245.3218 L378.455,246.5774 L380.2947,247.8439 L381.9038,248.7617 L381.9038,248.1207 L383.9038,249.3648 L385.9038,248.4982 L387.9038,249.2362 L389.9038,248.3217 L391.9038,248.7617" fill="none" style="stroke:#FF6F00;stroke-width:1;"/><a href="/use-case/client-360/know-your-customer/core-record-management/" target="_top" title="/use-case/client-360/know-your-customer/core-record-management/" xlink:actuate="onRequest" xlink:href="/use-case/client-360/know-your-customer/core-record-management/" xlink:show="new" xlink:title="/use-case/client-360/know-your-customer/core-record-management/" xlink:type="simple"><text fill="#4051B5" font-family="'Roboto'" font-size="13" lengthAdjust="spacing" textLength="170.0029" x="398.9038" y="316.0942">Core Record Management</text></a><a href="/use-case/client-360/know-your-customer/core-record-management/countries/" target="_top" title="/use-case/client-360/know-your-customer/core-record-management/countries/" xlink:actuate="onRequest" xlink:href="/use-case/client-360/know-your-customer/core-record-management/countries/" xlink:show="new" xlink:title="/use-case/client-360/know-your-customer/core-record-management/countries/" xlink:type="simple"><text fill="#4051B5" font-family="'Roboto'" font-size="13" lengthAdjust="spacing" textLength="62.334" x="634.0391" y="228.1294">Countries</text></a><path d="M577.0391,311.5938 L577.0391,311.7806 L579.0391,311.2255 L581.0391,311.7656 L583.0391,311.949 L585.0391,310.9596 L587.0391,311.5938 L587.0391,311.5938 L587.0101,311.575 L588.6612,308.7418 L590.4585,306.0033 L592.3574,303.3306 L593.9062,300.431 L595.9453,297.8492 L596.1852,297.9041 L596.3168,294.9692 L597.1487,292.1944 L598.066,289.4392 L598.4863,286.5702 L599.168,283.7611 L599.1978,283.7664 L599.7282,280.5287 L600.3945,277.3151 L600.9953,274.0898 L601.7211,270.8868 L602.0391,267.6113 L602.3327,267.6635 L602.9105,264.4342 L603.2989,261.1712 L603.9646,257.9575 L604.6432,254.7461 L604.9102,251.4615 L604.5977,251.3901 L605.8487,248.7112 L606.0708,245.7969 L607.075,243.0616 L607.2738,240.142 L608.1328,237.3734 L608.1073,237.3569 L610.1907,234.8037 L611.6771,231.8638 L613.5158,229.1522 L615.3841,226.4597 L617.0391,223.6289 L617.0391,223.9989 L619.0391,223.6254 L621.0391,223.8842 L623.0391,223.1201 L625.0391,223.8817 L627.0391,223.6289" fill="none" style="stroke:#FF6F00;stroke-width:1;"/><a href="/use-case/client-360/know-your-customer/core-record-management/regions/" target="_top" title="/use-case/client-360/know-your-customer/core-record-management/regions/" xlink:actuate="onRequest" xlink:href="/use-case/client-360/know-your-customer/core-record-management/regions/" xlink:show="new" xlink:title="/use-case/client-360/know-your-customer/core-record-management/regions/" xlink:type="simple"><text fill="#4051B5" font-family="'Roboto'" font-size="13" lengthAdjust="spacing" textLength="51.8604" x="634.0391" y="253.2622">Regions</text></a><path d="M577.0391,311.5938 L577.0391,311.7806 L579.0391,311.2255 L581.0391,311.7656 L583.0391,311.949 L585.0391,310.9596 L587.0391,311.5938 L587.0391,311.5938 L587.0135,311.5705 L588.6799,309.5029 L590.4753,307.5522 L592.3604,305.6829 L593.9365,303.5333 L595.9453,301.7762 L596.1797,301.8513 L596.3231,299.6782 L597.1507,297.7243 L598.0617,295.797 L598.4871,293.7143 L599.168,291.7133 L599.1974,291.7206 L599.7284,289.4028 L600.3934,287.1182 L600.9938,284.8176 L601.7174,282.5477 L602.0391,280.1777 L602.3285,280.2498 L602.9062,277.9435 L603.2973,275.5908 L603.9617,273.3062 L604.6388,271.0247 L604.9102,268.6422 L604.6049,268.5444 L605.8419,266.7216 L606.0737,264.5768 L607.0697,262.6768 L607.2788,260.5247 L608.1328,258.5792 L608.1103,258.5588 L610.1582,256.8372 L611.6793,254.6377 L613.5112,252.7202 L615.3693,250.8263 L617.0391,248.7617 L617.0391,249.1317 L619.0391,248.7582 L621.0391,249.017 L623.0391,248.2529 L625.0391,249.0145 L627.0391,248.7617" fill="none" style="stroke:#FF6F00;stroke-width:1;"/><a href="/use-case/client-360/know-your-customer/core-record-management/jurisdictions/" target="_top" title="/use-case/client-360/know-your-customer/core-record-management/jurisdictions/" xlink:actuate="onRequest" xlink:href="/use-case/client-360/know-your-customer/core-record-management/jurisdictions/" xlink:show="new" xlink:title="/use-case/client-360/know-your-customer/core-record-management/jurisdictions/" xlink:type="simple"><text fill="#4051B5" font-family="'Roboto'" font-size="13" lengthAdjust="spacing" textLength="78.4888" x="634.0391" y="278.395">Jurisdictions</text></a><path d="M577.0391,311.5938 L577.0391,311.7806 L579.0391,311.2255 L581.0391,311.7656 L583.0391,311.949 L585.0391,310.9596 L587.0391,311.5938 L587.0391,311.5938 L587.02,311.5649 L588.7157,310.2575 L590.5075,309.0954 L592.3661,308.0342 L593.9946,306.6251 L595.9453,305.7032 L596.168,305.808 L596.9106,302.9922 L598.3033,300.4822 L599.7753,298.0095 L600.7858,295.3197 L602.0391,292.7441 L602.0665,292.757 L603.245,290.1463 L604.5484,287.5943 L605.7915,285.0139 L607.1496,282.4876 L608.1328,279.785 L608.2973,280.0338 L610.0806,278.8587 L611.7577,277.5232 L613.5902,276.4226 L615.43,275.3329 L617.0391,273.8945 L617.0391,273.2535 L619.0391,274.4977 L621.0391,273.631 L623.0391,274.369 L625.0391,273.4545 L627.0391,273.8945" fill="none" style="stroke:#FF6F00;stroke-width:1;"/><a href="/use-case/client-360/know-your-customer/core-record-management/legal-entities/" target="_top" title="/use-case/client-360/know-your-customer/core-record-management/legal-entities/" xlink:actuate="onRequest" xlink:href="/use-case/client-360/know-your-customer/core-record-management/legal-entities/" xlink:show="new" xlink:title="/use-case/client-360/know-your-customer/core-record-management/legal-entities/" xlink:type="simple"><text fill="#4051B5" font-family="'Roboto'" font-size="13" lengthAdjust="spacing" textLength="87.8452" x="634.0391" y="303.5278">Legal Entities</text></a><path d="M577.0391,311.5938 L577.0391,311.7806 L579.0391,311.2255 L581.0391,311.7656 L583.0391,311.949 L585.0391,310.9596 L587.0391,311.5938 L587.0391,311.5938 L587.0257,311.5619 L589.9658,310.1623 L592.9732,308.9233 L596.0274,307.7959 L598.9203,306.2838 L602.0391,305.3105 L602.1341,305.5375 L604.9308,303.7955 L608.0051,302.7162 L611.1132,301.7177 L614.0243,300.2488 L617.0391,299.0273 L617.0391,299.088 L619.0391,298.9989 L621.0391,299.186 L623.0391,299.2399 L625.0391,299.548 L627.0391,299.0273" fill="none" style="stroke:#FF6F00;stroke-width:1;"/><a href="/use-case/client-360/know-your-customer/core-record-management/locations/" target="_top" title="/use-case/client-360/know-your-customer/core-record-management/locations/" xlink:actuate="onRequest" xlink:href="/use-case/client-360/know-your-customer/core-record-management/locations/" xlink:show="new" xlink:title="/use-case/client-360/know-your-customer/core-record-management/locations/" xlink:type="simple"><text fill="#4051B5" font-family="'Roboto'" font-size="13" lengthAdjust="spacing" textLength="61.9849" x="634.0391" y="328.6606">Locations</text></a><path d="M577.0391,311.5938 L577.0391,311.7806 L579.0391,311.2255 L581.0391,311.7656 L583.0391,311.949 L585.0391,310.9596 L587.0391,311.5938 L587.0391,311.5938 L587.0257,311.5619 L589.9658,312.6756 L592.9732,313.9498 L596.0274,315.3357 L598.9203,316.3369 L602.0391,317.877 L602.1341,318.1039 L604.9308,318.8752 L608.0051,320.3092 L611.1132,321.8239 L614.0243,322.8684 L617.0391,324.1602 L617.0391,324.2208 L619.0391,324.1318 L621.0391,324.3188 L623.0391,324.3727 L625.0391,324.6808 L627.0391,324.1602" fill="none" style="stroke:#FF6F00;stroke-width:1;"/><a href="/use-case/client-360/know-your-customer/core-record-management/buildings/" target="_top" title="/use-case/client-360/know-your-customer/core-record-management/buildings/" xlink:actuate="onRequest" xlink:href="/use-case/client-360/know-your-customer/core-record-management/buildings/" xlink:show="new" xlink:title="/use-case/client-360/know-your-customer/core-record-management/buildings/" xlink:type="simple"><text fill="#4051B5" font-family="'Roboto'" font-size="13" lengthAdjust="spacing" textLength="59.5093" x="634.0391" y="353.7935">Buildings</text></a><path d="M577.0391,311.5938 L577.0391,311.7806 L579.0391,311.2255 L581.0391,311.7656 L583.0391,311.949 L585.0391,310.9596 L587.0391,311.5938 L587.0391,311.5938 L587.02,311.5649 L588.7157,312.6137 L590.5075,313.8078 L592.3661,315.1028 L593.9946,316.0499 L595.9453,317.4843 L596.168,317.589 L596.9106,319.9569 L598.3033,322.6305 L599.7753,325.3414 L600.7858,327.8353 L602.0391,330.4434 L602.0665,330.4563 L603.245,333.0291 L604.5484,335.6608 L605.7915,338.264 L607.1496,340.9214 L608.1328,343.4025 L608.2973,343.6512 L610.0806,344.8324 L611.7577,345.8531 L613.5902,347.1086 L615.43,348.3752 L617.0391,349.293 L617.0391,348.6519 L619.0391,349.8961 L621.0391,349.0294 L623.0391,349.7675 L625.0391,348.8529 L627.0391,349.293" fill="none" style="stroke:#FF6F00;stroke-width:1;"/><a href="/use-case/client-360/know-your-customer/core-record-management/addresses/" target="_top" title="/use-case/client-360/know-your-customer/core-record-management/addresses/" xlink:actuate="onRequest" xlink:href="/use-case/client-360/know-your-customer/core-record-management/addresses/" xlink:show="new" xlink:title="/use-case/client-360/know-your-customer/core-record-management/addresses/" xlink:type="simple"><text fill="#4051B5" font-family="'Roboto'" font-size="13" lengthAdjust="spacing" textLength="67.0566" x="634.0391" y="378.9263">Addresses</text></a><path d="M577.0391,311.5938 L577.0391,311.7806 L579.0391,311.2255 L581.0391,311.7656 L583.0391,311.949 L585.0391,310.9596 L587.0391,311.5938 L587.0391,311.5938 L587.0135,311.5705 L588.6799,313.4299 L590.4753,315.4062 L592.3604,317.4639 L593.9365,319.2413 L595.9453,321.4113 L596.1797,321.4863 L596.3231,323.3384 L597.1507,325.4096 L598.0617,327.5076 L598.4871,329.45 L599.168,331.4742 L599.1974,331.4815 L599.7284,333.7779 L600.3934,336.1076 L600.9938,338.4212 L601.7174,340.7655 L602.0391,343.0098 L602.3285,343.0818 L602.9062,345.3898 L603.2973,347.6513 L603.9617,349.9809 L604.6388,352.3136 L604.9102,354.5453 L604.6049,354.4476 L605.8419,356.6499 L606.0737,358.5303 L607.0697,360.6555 L607.2788,362.5286 L608.1328,364.6083 L608.1103,364.5878 L610.1582,366.7932 L611.6793,368.5207 L613.5112,370.5302 L615.3693,372.5634 L617.0391,374.4258 L617.0391,374.7958 L619.0391,374.4223 L621.0391,374.6811 L623.0391,373.917 L625.0391,374.6786 L627.0391,374.4258" fill="none" style="stroke:#FF6F00;stroke-width:1;"/><a href="/use-case/client-360/know-your-customer/core-record-management/audit/" target="_top" title="/use-case/client-360/know-your-customer/core-record-management/audit/" xlink:actuate="onRequest" xlink:href="/use-case/client-360/know-your-customer/core-record-management/audit/" xlink:show="new" xlink:title="/use-case/client-360/know-your-customer/core-record-management/audit/" xlink:type="simple"><text fill="#4051B5" font-family="'Roboto'" font-size="13" lengthAdjust="spacing" textLength="34.0933" x="634.0391" y="404.0591">Audit</text></a><path d="M577.0391,311.5938 L577.0391,311.7806 L579.0391,311.2255 L581.0391,311.7656 L583.0391,311.949 L585.0391,310.9596 L587.0391,311.5938 L587.0391,311.5938 L587.0101,311.575 L588.6612,314.2396 L590.4585,316.9989 L592.3574,319.824 L593.9062,322.4223 L595.9453,325.3383 L596.1852,325.3931 L596.3168,328.0934 L597.1487,330.9539 L598.066,333.8339 L598.4863,336.6003 L599.168,339.4264 L599.1978,339.4317 L599.7282,342.6539 L600.3945,345.9002 L600.9953,349.1349 L601.7211,352.3918 L602.0391,355.5762 L602.3327,355.6284 L602.9105,358.859 L603.2989,362.0559 L603.9646,365.3021 L604.6432,368.5506 L604.9102,371.726 L604.5977,371.6545 L605.8487,374.6108 L606.0708,377.3318 L607.075,380.2317 L607.2738,382.9474 L608.1328,385.8141 L608.1073,385.7975 L610.1907,388.7422 L611.6771,391.3001 L613.5158,394.0862 L615.3841,396.8915 L617.0391,399.5586 L617.0391,399.9286 L619.0391,399.5551 L621.0391,399.8139 L623.0391,399.0498 L625.0391,399.8114 L627.0391,399.5586" fill="none" style="stroke:#FF6F00;stroke-width:1;"/><path d="M341.9038,211.0625 L341.9038,211.2493 L343.9038,210.6942 L345.9038,211.2343 L347.9038,211.4178 L349.9038,210.4284 L351.9038,211.0625 L351.9038,211.0625 L351.8738,211.0455 L353.5202,214.1106 L355.318,217.2616 L357.2212,220.4724 L358.7615,223.4774 L360.8101,226.7705 L361.0513,226.8188 L361.1799,229.9357 L362.0129,233.1935 L362.9319,236.4686 L363.3508,239.6436 L364.0327,242.8712 L364.0627,242.8759 L364.5929,246.5604 L365.2596,250.2662 L365.8604,253.9617 L366.5868,257.6768 L366.9038,261.3281 L367.1985,261.374 L367.7763,265.0659 L368.1641,268.7283 L368.8301,272.4339 L369.5091,276.1416 L369.7749,279.785 L369.4606,279.7221 L370.7151,283.0644 L370.9347,286.1995 L371.9411,289.492 L372.1373,292.6224 L372.9976,295.8857 L372.9711,295.8707 L375.0655,299.1899 L376.5412,302.1583 L378.382,305.3336 L380.2535,308.5264 L381.9038,311.5938 L381.9038,311.9637 L383.9038,311.5903 L385.9038,311.8491 L387.9038,311.0849 L389.9038,311.8465 L391.9038,311.5938" fill="none" style="stroke:#FF6F00;stroke-width:1;"/><a href="/use-case/client-360/" target="_top" title="/use-case/client-360/" xlink:actuate="onRequest" xlink:href="/use-case/client-360/" xlink:show="new" xlink:title="/use-case/client-360/" xlink:type="simple"><text fill="#4051B5" font-family="'Roboto'" font-size="13" lengthAdjust="spacing" textLength="66.5806" x="14" y="215.563">Client 360</text></a><path d="M141.7129,211.0625 L141.7129,211.2493 L139.7129,210.6942 L137.7129,211.2343 L135.7129,211.4178 L133.7129,210.4284 L131.7129,211.0625 L131.7129,211.0625 L131.7129,211.028 L125.7129,210.8729 L119.7129,210.8921 L113.7129,211.0322 L107.7129,210.7552 L101.7129,211.0625 L101.7129,211.5546 L99.7129,210.5023 L97.7129,210.8867 L95.7129,211.4465 L93.7129,210.9863 L91.7129,211.0625" fill="none" style="stroke:#FF6F00;stroke-width:1;"/><!--SRC=[xLdhRzew5F-Ul-BSzSCwRHbbwwPfcgPHIf-q86WtJTDKcSI0RuFDjPrstAlxlz_ZF209X48QTZS9lf3O9x_pyB7Fmv-K9bAF67T7P6nPVxYqppY5W-ERYzhfvKszrMnr8FZjxE-zgVRU94cwZNhhyh3M-HhHBI1fr-hdjUF656YEfDKvR7IIV62dtt_RtzkRaXorBgzI1069-Kr9QfrEwqkQ9aQnr2tZOoB927h4kHr8uNEtBZmXOKTBmXNEKQuJP2UJCPKUuxSHLIInzHGOTppVfQ2750QKKqayc7wde8_KFQ67By1ZWw46mbrmYRp5BxK0SKVblMIQmZtJmn23tL4EYchD-41bRN9rSbe_lsnqkr35XH5ZpGI78O8Q58qVzecdQ4BmDd5T18Bzn5WdL5UYiF0kCTuT4bVS6-eiobJzQ-u63pGYIT0SqZxnFGt_M4U2wqioel2a8r1tyIGO2IqtMxXWiCl-fb3Tj_vD8jMa5FU8i_2BnJ1wug6DXEUcaSQukcH08vdcFZt8B7xAmwq38L7PQ2RXaiXYne4BTntubEklni4Hex7Ww8x8fg302wKBRUQFl5Tfcxb4anvHj6HsAHwE9tntemo4vr77x0vLEfiPbpeIIE5jaCE1WIHoia4M3QwPtYG3nZMLVUBG3VBeqhzyoXtQni3573OcN8TWLqFct7Ag51wOCt8LaQD4oI-M2ZS7lK3E1CtiME92ZeYNdPjJfydwj8adQoxub62fcC7XEGSUZEOY1xCBXGfcPZPyRTKSBUG34WGakRpCRDu6VWhrVJ1Mmo24BpiF_f9xNkA69tpWqGyVC5efmJz-nFNjelDHeJ60vKQFik92rkEoCJjzH2N4fJzGI4wyc_BbpgHZ6n1UJPIcez_FrkNBlI5Rnm7vzp3rJDhVpz89D-b5WJUKEfCOfxK8SjYzXxEzGhelLomCC2vHG-gkekj2LHraJ32ko5LrnNnzkIjjGDFbIxXs6H8NS3ETNeVnfuKLcMIOqxiHZYdWeb8uIFOLs33obJPvEGNIHrLZdfco8C4jAarpQvn4hPedP3ALc1aZaxjZuQuVJhCMHtgj9UlvckRd0VEoBYbWKja-KQgOLCiOF8MBQ5tKc3gipnpKFqWTS8dkXwQgrdW6OVwfp886Y_S2UfvFSUqufoOHKI1yRQRdIxgIfPtXatHEXOMyzHo-VOEAhwZjuD5PSJo6zPxz-krUvPQBUtiYV6axw7JeSh82vpW6Nt4Cwj4Ox9v_hJ-3xz-jvyzlri72P9JP8oml9xP7V5FSe_agKCDXk333q9mEmsxjeXanAOEB8wIa2cjRrtngOePhav5NmR9gRWAGTNcSETNtGjucULucXyhb5dIKI52C9ZbUpOOhHumJB4UotDTYpeorp2uW0ISynwOl5JXDJSBdn6G1LcCwLXLe2uzXHKCyRmAD7sDXH6y72Qo2tNQZhOeuf2FPYDeOdN0h8O-wUOLE-5e0Jg5PWov01RhnOm4OoTIjFIAS3EW8oIhGmG6uc0uKW1oomT16HxJHxVJGnfECtJ7NnvXRWHESCnu9NymSdCxcOFVayijfePsEojzXeM_ya-795-xpQD3izMYm0FJ07UEfT7pOxXHPS27ZzKvP60-1UE7d35qA1mUFTWnvr7XP_5WYlAI3qEywuKE9q7_ww8ykYntxBFbQ8XkF3eXdctD31rPgclUmNLIkgJmHdaI6H_nO8dpFPvxfWIFyGVnO8ZnnNOnMobYe5Z-M2U-x3BT3pVmPMDlEHuLwy0puR4W_KKoFubkSJ-bBdVAkG7xXouOuxrxnfY59lW1WZJk6-Bji3XaRBPaenfTIIsyL7Wkux19X6SQy10Mk3TPZiD95mMCWbruDh0kyocL0SSmbxV_YeBaD_-AGorhynL4tqjIFnSbfvyUIhTt9ZnLOrCQFGVCw-B5CYIexXfjhtCTOcPvzYlx1XlsKORPLFqLFT-aJ6wbGmpt_P5t7M-ON_x4DzPyjrmETqF_DJB-2N2ktkN-oDB-KaKhjKCTohAbDhjHBkz7LJRQVozOaO_-osik5-yCBucLflU4aKYQMpBU4Ks5caUMoAUWARU1y0Hw4p6dLFW9nsvpTDcUtpTbjStRRdDqsPxVDsMrpzkSqPziUHgThZ2mO69GvzgilN-szUlEoMkrHJQfxkzVS2CM3FXx3P4_ZoVlCsZrkDq6Xe0wctKo5sHf-_imw8tS4EhXnaEuzjCQKdnsUnmFe9dTC2cvKiCu-Nym8tkxR1wX9bqeK13vVM76ws-2EC6lp7gwlZkntLXEJTn-jy1uejy8TEi6vxdy0]--></g></svg>