<svg xmlns="http://www.w3.org/2000/svg" xmlns:xlink="http://www.w3.org/1999/xlink" contentStyleType="text/css" data-diagram-type="MINDMAP" height="442px" preserveAspectRatio="none" style="width:933px;height:442px;" version="1.1" viewBox="0 0 933 442" width="933px" zoomAndPan="magnify"><defs/><g><polygon fill="#4051B5" points="151.1523,202.2266,151.1523,202.4367,160.9643,201.8122,170.7763,202.4198,180.5883,202.6262,190.4003,201.5132,200.2123,202.1488,210.0243,201.8001,219.8363,201.8431,229.6483,202.1584,239.4602,201.5352,249.2722,202.7802,259.0842,201.5963,268.8962,202.0288,278.7082,202.6585,288.5202,202.1408,298.3322,202.2948,308.1442,202.1946,317.9561,202.4051,327.7681,202.4657,337.5801,202.8123,347.3921,202.8976,357.2041,202.2266,357.2907,202.4357,357.8023,202.5393,358.3946,202.838,358.9907,203.1458,359.3748,202.9417,360.0325,203.3981,360.2415,203.4847,360.1755,203.926,360.6656,204.5976,360.583,205.032,360.9487,205.6521,361.2041,206.2266,361.4513,206.2266,361.1879,211.8859,361.2392,217.5453,361.317,223.2047,361.3428,228.8641,361.2041,234.5234,361.2029,234.5229,361.0582,235.1258,360.5592,235.5818,360.5887,236.2568,360.4357,236.8561,360.0325,237.3519,360.0892,237.4888,359.545,237.775,358.8395,237.6717,358.2523,237.854,357.6905,238.0978,357.2041,238.5234,357.2041,238.4646,347.3921,238.3269,337.5801,239.2048,327.7681,238.3488,317.9561,238.1804,308.1442,238.7517,298.3322,237.8566,288.5202,238.0043,278.7082,239.1724,268.8962,238.9591,259.0842,239.2579,249.2722,238.2016,239.4602,238.8426,229.6483,239.1139,219.8363,238.051,210.0243,238.4276,200.2123,238.6494,190.4003,239.1752,180.5883,238.5192,170.7763,238.986,160.9643,237.9697,151.1523,238.5234,151.066,238.3149,150.6509,238.4442,149.9295,237.834,149.5202,237.9772,148.916,237.6498,148.3239,237.3519,148.2414,237.3177,147.9807,236.7411,147.9966,236.279,147.5288,235.6166,147.5689,235.1646,147.1523,234.5234,146.9681,234.5234,147.3582,228.8641,147.3138,223.2047,147.234,217.5453,147.1681,211.8859,147.1523,206.2266,147.3761,206.3192,147.5756,205.7391,147.6731,205.1168,147.9379,204.5637,148.0495,203.9472,148.3239,203.3981,148.4153,203.6188,148.9094,203.2115,149.4773,202.9827,149.9434,202.5078,150.535,202.3361,151.1523,202.2266" style="stroke:#FF6F00;stroke-width:1.5;"/><a href="/use-case/client-360/know-your-customer/" target="_top" title="/use-case/client-360/know-your-customer/" xlink:actuate="onRequest" xlink:href="/use-case/client-360/know-your-customer/" xlink:show="new" xlink:title="/use-case/client-360/know-your-customer/" xlink:type="simple"><text fill="#90EE90" font-family="'Roboto'" font-size="14" lengthAdjust="spacing" textLength="189.6016" x="157.1523" y="225.2217">Know Your Customer (KYC)</text></a><a href="/use-case/client-360/know-your-customer/anti-money-laundering/" target="_top" title="/use-case/client-360/know-your-customer/anti-money-laundering/" xlink:actuate="onRequest" xlink:href="/use-case/client-360/know-your-customer/anti-money-laundering/" xlink:show="new" xlink:title="/use-case/client-360/know-your-customer/anti-money-laundering/" xlink:type="simple"><text fill="#90EE90" font-family="'Roboto'" font-size="14" lengthAdjust="spacing" textLength="207.0059" x="418.2041" y="54.292">Anti Money Laundering (AML)</text></a><a href="/use-case/client-360/know-your-customer/anti-money-laundering/correspondent-based-aml/" target="_top" title="/use-case/client-360/know-your-customer/anti-money-laundering/correspondent-based-aml/" xlink:actuate="onRequest" xlink:href="/use-case/client-360/know-your-customer/anti-money-laundering/correspondent-based-aml/" xlink:show="new" xlink:title="/use-case/client-360/know-your-customer/anti-money-laundering/correspondent-based-aml/" xlink:type="simple"><text fill="#90EE90" font-family="'Roboto'" font-size="14" lengthAdjust="spacing" textLength="185.165" x="690.6602" y="27.9951">Correspondent-based AML</text></a><path d="M633.6602,49.4453 L633.6602,49.6321 L635.6602,49.077 L637.6602,49.6171 L639.6602,49.8006 L641.6602,48.8112 L643.6602,49.4453 L643.6602,49.4453 L643.6374,49.4193 L646.5352,46.6731 L649.5478,44.0578 L652.6402,41.5335 L655.4576,38.6955 L658.6602,36.2969 L658.8224,36.4819 L661.4755,33.4565 L664.6022,30.9714 L667.7867,28.5522 L670.635,25.7495 L673.6602,23.1484 L673.6602,23.2091 L675.6602,23.12 L677.6602,23.3071 L679.6602,23.361 L681.6602,23.6691 L683.6602,23.1484" fill="none" style="stroke:#FF9900;stroke-width:1;"/><a href="/use-case/client-360/know-your-customer/anti-money-laundering/network-based-aml/" target="_top" title="/use-case/client-360/know-your-customer/anti-money-laundering/network-based-aml/" xlink:actuate="onRequest" xlink:href="/use-case/client-360/know-your-customer/anti-money-laundering/network-based-aml/" xlink:show="new" xlink:title="/use-case/client-360/know-your-customer/anti-money-laundering/network-based-aml/" xlink:type="simple"><text fill="#90EE90" font-family="'Roboto'" font-size="14" lengthAdjust="spacing" textLength="139.6719" x="690.6602" y="54.292">Network-based AML</text></a><path d="M633.6602,49.4453 L633.6602,49.6321 L635.6602,49.077 L637.6602,49.6171 L639.6602,49.8006 L641.6602,48.8112 L643.6602,49.4453 L643.6602,49.4453 L643.6602,49.4108 L649.6602,49.2558 L655.6602,49.2749 L661.6602,49.415 L667.6602,49.138 L673.6602,49.4453 L673.6602,49.9374 L675.6602,48.8851 L677.6602,49.2695 L679.6602,49.8293 L681.6602,49.3691 L683.6602,49.4453" fill="none" style="stroke:#FF9900;stroke-width:1;"/><a href="/use-case/client-360/know-your-customer/anti-money-laundering/transaction-based-aml/" target="_top" title="/use-case/client-360/know-your-customer/anti-money-laundering/transaction-based-aml/" xlink:actuate="onRequest" xlink:href="/use-case/client-360/know-your-customer/anti-money-laundering/transaction-based-aml/" xlink:show="new" xlink:title="/use-case/client-360/know-your-customer/anti-money-laundering/transaction-based-aml/" xlink:type="simple"><text fill="#90EE90" font-family="'Roboto'" font-size="14" lengthAdjust="spacing" textLength="222.6602" x="690.6602" y="80.5889">Transaction/Finance-based AML</text></a><path d="M633.6602,49.4453 L633.6602,49.6321 L635.6602,49.077 L637.6602,49.6171 L639.6602,49.8006 L641.6602,48.8112 L643.6602,49.4453 L643.6602,49.4453 L643.6374,49.4193 L646.5352,51.9325 L649.5478,54.5765 L652.6402,57.3116 L655.4576,59.733 L658.6602,62.5938 L658.8224,62.7788 L661.4755,65.0128 L664.6022,67.787 L667.7867,70.6272 L670.635,73.0838 L673.6602,75.7422 L673.6602,75.8028 L675.6602,75.7138 L677.6602,75.9009 L679.6602,75.9548 L681.6602,76.2628 L683.6602,75.7422" fill="none" style="stroke:#FF9900;stroke-width:1;"/><path d="M361.2041,220.375 L361.2041,220.5618 L363.2041,220.0067 L365.2041,220.5468 L367.2041,220.7303 L369.2041,219.7409 L371.2041,220.375 L371.2041,220.375 L371.1755,220.3556 L372.0433,218.7997 L373.0552,217.3415 L374.1673,215.9512 L374.9342,214.3268 L376.1846,213.0304 L376.4257,213.0793 L376.6952,209.1021 L377.6687,205.2676 L378.7282,201.4506 L379.2878,197.5323 L380.1104,193.6672 L380.1404,193.6711 L380.4317,191.0781 L380.8599,188.5028 L381.2221,185.919 L381.7103,183.3514 L381.7876,180.7307 L382.0842,180.7624 L382.3969,177.875 L382.5183,174.9672 L382.9197,172.0893 L383.3343,169.2128 L383.333,166.2918 L383.0138,166.2626 L384.2075,160.0429 L384.3502,153.7271 L385.2919,147.4844 L385.4108,141.1664 L386.2041,134.9102 L386.1738,134.9074 L387.1066,128.6639 L387.331,122.3555 L387.9734,116.0854 L388.6509,109.8186 L389.0752,103.5285 L389.2591,103.5482 L389.3826,100.6406 L389.8203,97.7666 L389.7495,94.8381 L390.4372,91.9909 L390.6206,89.0896 L390.8622,89.121 L391.152,86.5277 L391.5617,83.9501 L391.414,81.3001 L391.6749,78.7031 L392.2979,76.1531 L392.0272,76.0982 L393.0574,72.2753 L393.7826,68.3905 L394.9501,64.5954 L395.3624,60.6471 L396.2236,56.7899 L396.0974,56.7044 L397.3037,55.378 L397.9705,53.6858 L399.021,52.2537 L400.4467,51.0761 L401.2041,49.4453 L401.2041,49.8326 L403.2041,50.0982 L405.2041,49.1593 L407.2041,49.729 L409.2041,49.9701 L411.2041,49.4453" fill="none" style="stroke:#FF9900;stroke-width:1;"/><a href="/use-case/client-360/know-your-customer/identification-verification/" target="_top" title="/use-case/client-360/know-your-customer/identification-verification/" xlink:actuate="onRequest" xlink:href="/use-case/client-360/know-your-customer/identification-verification/" xlink:show="new" xlink:title="/use-case/client-360/know-your-customer/identification-verification/" xlink:type="simple"><text fill="#90EE90" font-family="'Roboto'" font-size="14" lengthAdjust="spacing" textLength="175.9912" x="418.2041" y="80.5889">Identification Verification</text></a><path d="M361.2041,220.375 L361.2041,220.5618 L363.2041,220.0067 L365.2041,220.5468 L367.2041,220.7303 L369.2041,219.7409 L371.2041,220.375 L371.2041,220.375 L371.1771,220.3534 L372.0523,219.0135 L373.0633,217.7825 L374.1687,216.6272 L374.9487,215.2111 L376.1846,214.1603 L376.4239,214.2176 L376.6973,210.8182 L377.6694,207.5862 L378.7267,204.3745 L379.2881,201.0441 L380.1104,197.7761 L380.1403,197.7807 L380.4318,195.5847 L380.8597,193.4096 L381.2218,191.2244 L381.7095,189.0585 L381.7876,186.8298 L382.0835,186.8672 L382.3962,184.4242 L382.518,181.957 L382.9193,179.5251 L383.3336,177.0949 L383.333,174.6123 L383.0143,174.5778 L384.207,169.334 L384.3504,163.9766 L385.2915,158.7056 L385.4111,153.3457 L386.2041,148.0586 L386.1738,148.0553 L387.106,142.7833 L387.331,137.4348 L387.9733,132.1314 L388.6506,126.8318 L389.0752,121.5049 L389.2587,121.5281 L389.3826,119.0612 L389.82,116.6339 L389.75,114.1425 L390.4369,111.7468 L390.6206,109.2874 L390.8614,109.3243 L391.1513,107.1281 L391.5608,104.9501 L391.4147,102.6871 L391.6759,100.4864 L392.2979,98.3411 L392.0293,98.2767 L393.0576,95.0581 L393.7832,91.767 L394.9478,88.5811 L395.363,85.2156 L396.2236,81.9569 L396.1047,81.8615 L397.2989,80.7774 L397.9846,79.2857 L399.0319,78.0838 L400.4331,77.1655 L401.2041,75.7422 L401.2041,76.1294 L403.2041,76.3951 L405.2041,75.4561 L407.2041,76.0259 L409.2041,76.267 L411.2041,75.7422" fill="none" style="stroke:#FF9900;stroke-width:1;"/><a href="/use-case/client-360/know-your-customer/peps/" target="_top" title="/use-case/client-360/know-your-customer/peps/" xlink:actuate="onRequest" xlink:href="/use-case/client-360/know-your-customer/peps/" xlink:show="new" xlink:title="/use-case/client-360/know-your-customer/peps/" xlink:type="simple"><text fill="#90EE90" font-family="'Roboto'" font-size="14" lengthAdjust="spacing" textLength="238.0205" x="418.2041" y="106.8857">Politically Exposed Persons (PEPs)</text></a><path d="M361.2041,220.375 L361.2041,220.5618 L363.2041,220.0067 L365.2041,220.5468 L367.2041,220.7303 L369.2041,219.7409 L371.2041,220.375 L371.2041,220.375 L371.1794,220.3508 L372.0648,219.2254 L373.0745,218.2218 L374.1707,217.303 L374.969,216.0922 L376.1846,215.2903 L376.4207,215.3594 L376.7009,212.5305 L377.6705,209.9035 L378.7243,207.3011 L379.2886,204.5553 L380.1104,201.885 L380.1403,201.8901 L380.7409,198.0922 L381.4776,194.3174 L382.1487,190.5315 L382.9451,186.7669 L383.333,182.9328 L383.6287,182.9718 L384.2065,178.6272 L384.5936,174.2573 L385.2599,169.9243 L385.9393,165.5931 L386.2041,161.207 L385.8863,161.165 L387.0773,156.9014 L387.2219,152.4995 L388.162,148.2027 L388.2829,143.7976 L389.0752,139.4813 L389.0452,139.4762 L390.0447,135.7461 L390.3429,131.8968 L391.0549,128.1178 L391.8017,124.3447 L392.2979,120.5291 L392.4754,120.581 L393.0813,117.8475 L393.9907,115.2028 L394.4092,112.4144 L395.5598,109.8404 L396.2236,107.1238 L396.3977,107.2943 L397.3609,106.2451 L398.4105,105.2806 L399.0585,103.9227 L400.0009,102.8532 L401.2041,102.0391 L401.2041,101.4867 L403.2041,101.9867 L405.2041,101.8644 L407.2041,102.6448 L409.2041,101.8838 L411.2041,102.0391" fill="none" style="stroke:#FF9900;stroke-width:1;"/><a href="/use-case/client-360/know-your-customer/crime-records/" target="_top" title="/use-case/client-360/know-your-customer/crime-records/" xlink:actuate="onRequest" xlink:href="/use-case/client-360/know-your-customer/crime-records/" xlink:show="new" xlink:title="/use-case/client-360/know-your-customer/crime-records/" xlink:type="simple"><text fill="#90EE90" font-family="'Roboto'" font-size="14" lengthAdjust="spacing" textLength="102.6621" x="418.2041" y="133.1826">Crime Records</text></a><path d="M361.2041,220.375 L361.2041,220.5618 L363.2041,220.0067 L365.2041,220.5468 L367.2041,220.7303 L369.2041,219.7409 L371.2041,220.375 L371.2041,220.375 L371.1747,220.3568 L372.8242,217.399 L374.6217,214.5328 L376.5221,211.7304 L378.0679,208.7083 L380.1104,205.9939 L380.3507,206.0465 L380.4812,202.9859 L381.3135,200.0789 L382.2315,197.1905 L382.6512,194.1932 L383.333,191.2533 L383.3629,191.2583 L383.8932,187.8713 L384.5597,184.5074 L385.1604,181.1324 L385.8865,177.7786 L386.2041,174.3555 L386.4981,174.4054 L387.0759,171.0265 L387.4641,167.6153 L388.1299,164.2513 L388.8087,160.8895 L389.0752,157.4577 L388.7621,157.3892 L390.0143,154.574 L390.2355,151.5333 L391.2406,148.664 L391.4384,145.6182 L392.2979,142.717 L392.272,142.701 L394.3593,140.0144 L395.8419,136.9532 L397.6814,134.113 L399.5508,131.2914 L401.2041,128.3359 L401.2041,128.7059 L403.2041,128.3325 L405.2041,128.5912 L407.2041,127.8271 L409.2041,128.5887 L411.2041,128.3359" fill="none" style="stroke:#FF9900;stroke-width:1;"/><a href="/use-case/client-360/know-your-customer/sanctions/" target="_top" title="/use-case/client-360/know-your-customer/sanctions/" xlink:actuate="onRequest" xlink:href="/use-case/client-360/know-your-customer/sanctions/" xlink:show="new" xlink:title="/use-case/client-360/know-your-customer/sanctions/" xlink:type="simple"><text fill="#90EE90" font-family="'Roboto'" font-size="14" lengthAdjust="spacing" textLength="68.1475" x="418.2041" y="159.4795">Sanctions</text></a><path d="M361.2041,220.375 L361.2041,220.5618 L363.2041,220.0067 L365.2041,220.5468 L367.2041,220.7303 L369.2041,219.7409 L371.2041,220.375 L371.2041,220.375 L371.178,220.3524 L372.8421,218.1964 L374.6378,216.1545 L376.525,214.1918 L378.0969,211.9559 L380.1104,210.1028 L380.3456,210.1748 L380.487,207.915 L381.3154,205.8654 L382.2275,203.8416 L382.652,201.6684 L383.333,199.5738 L383.3625,199.5808 L383.8934,197.1565 L384.5586,194.7642 L385.1591,192.3564 L385.8831,189.9781 L386.2041,187.5039 L386.4943,187.5729 L387.072,185.1598 L387.4626,182.7022 L388.1272,180.3097 L388.8046,177.9202 L389.0752,175.4341 L388.7687,175.3402 L390.0081,173.4165 L390.2382,171.1839 L391.2357,169.1861 L391.4429,166.9464 L392.2979,164.905 L392.2748,164.8851 L394.3281,163.0665 L395.844,160.782 L397.677,158.7724 L399.5366,156.7858 L401.2041,154.6328 L401.2041,155.0028 L403.2041,154.6293 L405.2041,154.8881 L407.2041,154.124 L409.2041,154.8856 L411.2041,154.6328" fill="none" style="stroke:#FF9900;stroke-width:1;"/><a href="/use-case/client-360/know-your-customer/risk-management/" target="_top" title="/use-case/client-360/know-your-customer/risk-management/" xlink:actuate="onRequest" xlink:href="/use-case/client-360/know-your-customer/risk-management/" xlink:show="new" xlink:title="/use-case/client-360/know-your-customer/risk-management/" xlink:type="simple"><text fill="#90EE90" font-family="'Roboto'" font-size="14" lengthAdjust="spacing" textLength="125.6924" x="418.2041" y="185.7764">Risk Management</text></a><path d="M361.2041,220.375 L361.2041,220.5618 L363.2041,220.0067 L365.2041,220.5468 L367.2041,220.7303 L369.2041,219.7409 L371.2041,220.375 L371.2041,220.375 L371.1844,220.3466 L372.8775,218.9865 L374.6696,217.7695 L376.5306,216.6521 L378.1542,215.1917 L380.1104,214.2117 L380.3348,214.3125 L381.0736,211.385 L382.4677,208.7519 L383.9417,206.1548 L384.9506,203.3486 L386.2041,200.6523 L386.2318,200.6648 L387.4099,197.9347 L388.714,195.2611 L389.9573,192.5603 L391.3165,189.9116 L392.2979,187.093 L392.4676,187.3383 L394.2509,186.1086 L395.9247,184.7207 L397.7588,183.5644 L399.6005,182.419 L401.2041,180.9297 L401.2041,180.2886 L403.2041,181.5328 L405.2041,180.6661 L407.2041,181.4042 L409.2041,180.4897 L411.2041,180.9297" fill="none" style="stroke:#FF9900;stroke-width:1;"/><a href="/use-case/client-360/know-your-customer/high-net-worth-individuals/" target="_top" title="/use-case/client-360/know-your-customer/high-net-worth-individuals/" xlink:actuate="onRequest" xlink:href="/use-case/client-360/know-your-customer/high-net-worth-individuals/" xlink:show="new" xlink:title="/use-case/client-360/know-your-customer/high-net-worth-individuals/" xlink:type="simple"><text fill="#90EE90" font-family="'Roboto'" font-size="14" lengthAdjust="spacing" textLength="242.4502" x="418.2041" y="212.0732">High Net Worth Individuals (HNWI)</text></a><path d="M361.2041,220.375 L361.2041,220.5618 L363.2041,220.0067 L365.2041,220.5468 L367.2041,220.7303 L369.2041,219.7409 L371.2041,220.375 L371.2041,220.375 L371.1902,220.3434 L374.128,218.8865 L377.1357,217.5892 L380.1919,216.4027 L383.0808,214.8342 L386.2041,213.8008 L386.3029,214.0261 L389.0917,212.2294 L392.1688,211.0906 L395.2812,210.0321 L398.1888,208.5065 L401.2041,207.2266 L401.2041,207.2872 L403.2041,207.1982 L405.2041,207.3853 L407.2041,207.4391 L409.2041,207.7472 L411.2041,207.2266" fill="none" style="stroke:#FF9900;stroke-width:1;"/><a href="/use-case/client-360/know-your-customer/activity-monitoring/" target="_top" title="/use-case/client-360/know-your-customer/activity-monitoring/" xlink:actuate="onRequest" xlink:href="/use-case/client-360/know-your-customer/activity-monitoring/" xlink:show="new" xlink:title="/use-case/client-360/know-your-customer/activity-monitoring/" xlink:type="simple"><text fill="#90EE90" font-family="'Roboto'" font-size="14" lengthAdjust="spacing" textLength="131.9199" x="418.2041" y="238.3701">Activity Monitoring</text></a><path d="M361.2041,220.375 L361.2041,220.5618 L363.2041,220.0067 L365.2041,220.5468 L367.2041,220.7303 L369.2041,219.7409 L371.2041,220.375 L371.2041,220.375 L371.1902,220.3434 L374.128,221.5162 L377.1357,222.8486 L380.1919,224.2918 L383.0808,225.3529 L386.2041,226.9492 L386.3029,227.1746 L389.0917,228.0075 L392.1688,229.4984 L395.2812,231.0696 L398.1888,232.1737 L401.2041,233.5234 L401.2041,233.5841 L403.2041,233.495 L405.2041,233.6821 L407.2041,233.736 L409.2041,234.0441 L411.2041,233.5234" fill="none" style="stroke:#FF9900;stroke-width:1;"/><a href="/use-case/client-360/know-your-customer/gdpr/" target="_top" title="/use-case/client-360/know-your-customer/gdpr/" xlink:actuate="onRequest" xlink:href="/use-case/client-360/know-your-customer/gdpr/" xlink:show="new" xlink:title="/use-case/client-360/know-your-customer/gdpr/" xlink:type="simple"><text fill="#90EE90" font-family="'Roboto'" font-size="14" lengthAdjust="spacing" textLength="39.7988" x="418.2041" y="264.667">GDPR</text></a><path d="M361.2041,220.375 L361.2041,220.5618 L363.2041,220.0067 L365.2041,220.5468 L367.2041,220.7303 L369.2041,219.7409 L371.2041,220.375 L371.2041,220.375 L371.1844,220.3466 L372.8775,221.4518 L374.6696,222.7002 L376.5306,224.0481 L378.1542,225.053 L380.1104,226.5383 L380.3348,226.6392 L381.0736,229.1354 L382.4677,231.926 L383.9417,234.7526 L384.9506,237.3702 L386.2041,240.0977 L386.2318,240.1101 L387.4099,242.8037 L388.714,245.5539 L389.9573,248.2768 L391.3165,251.0518 L392.2979,253.657 L392.4676,253.9022 L394.2509,255.1379 L395.9247,256.2154 L397.7588,257.5244 L399.6005,258.8443 L401.2041,259.8203 L401.2041,259.1793 L403.2041,260.4234 L405.2041,259.5568 L407.2041,260.2948 L409.2041,259.3803 L411.2041,259.8203" fill="none" style="stroke:#FF9900;stroke-width:1;"/><a href="/use-case/client-360/know-your-customer/core-record-management/" target="_top" title="/use-case/client-360/know-your-customer/core-record-management/" xlink:actuate="onRequest" xlink:href="/use-case/client-360/know-your-customer/core-record-management/" xlink:show="new" xlink:title="/use-case/client-360/know-your-customer/core-record-management/" xlink:type="simple"><text fill="#90EE90" font-family="'Roboto'" font-size="14" lengthAdjust="spacing" textLength="183.0801" x="418.2041" y="330.4092">Core Record Management</text></a><a href="/use-case/client-360/know-your-customer/core-record-management/countries/" target="_top" title="/use-case/client-360/know-your-customer/core-record-management/countries/" xlink:actuate="onRequest" xlink:href="/use-case/client-360/know-your-customer/core-record-management/countries/" xlink:show="new" xlink:title="/use-case/client-360/know-your-customer/core-record-management/countries/" xlink:type="simple"><text fill="#90EE90" font-family="'Roboto'" font-size="14" lengthAdjust="spacing" textLength="67.1289" x="666.7344" y="238.3701">Countries</text></a><path d="M609.7344,325.5625 L609.7344,325.7493 L611.7344,325.1942 L613.7344,325.7343 L615.7344,325.9178 L617.7344,324.9284 L619.7344,325.5625 L619.7344,325.5625 L619.705,325.5443 L621.3545,322.5865 L623.152,319.7203 L625.0524,316.9179 L626.5981,313.8958 L628.6406,311.1814 L628.881,311.234 L629.0115,308.1734 L629.8438,305.2664 L630.7618,302.378 L631.1815,299.3807 L631.8633,296.4408 L631.8932,296.4458 L632.4235,293.0588 L633.0899,289.6949 L633.6907,286.3199 L634.4168,282.9661 L634.7344,279.543 L635.0284,279.5929 L635.6062,276.214 L635.9944,272.8028 L636.6602,269.4388 L637.3389,266.077 L637.6055,262.6452 L637.2923,262.5767 L638.5446,259.7615 L638.7658,256.7208 L639.7708,253.8515 L639.9687,250.8057 L640.8281,247.9045 L640.8022,247.8885 L642.8896,245.2019 L644.3722,242.1407 L646.2117,239.3005 L648.0811,236.4789 L649.7344,233.5234 L649.7344,233.8934 L651.7344,233.52 L653.7344,233.7787 L655.7344,233.0146 L657.7344,233.7762 L659.7344,233.5234" fill="none" style="stroke:#FF9900;stroke-width:1;"/><a href="/use-case/client-360/know-your-customer/core-record-management/regions/" target="_top" title="/use-case/client-360/know-your-customer/core-record-management/regions/" xlink:actuate="onRequest" xlink:href="/use-case/client-360/know-your-customer/core-record-management/regions/" xlink:show="new" xlink:title="/use-case/client-360/know-your-customer/core-record-management/regions/" xlink:type="simple"><text fill="#90EE90" font-family="'Roboto'" font-size="14" lengthAdjust="spacing" textLength="55.8496" x="666.7344" y="264.667">Regions</text></a><path d="M609.7344,325.5625 L609.7344,325.7493 L611.7344,325.1942 L613.7344,325.7343 L615.7344,325.9178 L617.7344,324.9284 L619.7344,325.5625 L619.7344,325.5625 L619.7083,325.5399 L621.3724,323.3839 L623.1681,321.342 L625.0552,319.3793 L626.6272,317.1434 L628.6406,315.2903 L628.8759,315.3623 L629.0173,313.1025 L629.8456,311.0529 L630.7578,309.0291 L631.1823,306.8559 L631.8633,304.7613 L631.8928,304.7683 L632.4237,302.344 L633.0889,299.9517 L633.6893,297.5439 L634.4134,295.1656 L634.7344,292.6914 L635.0245,292.7604 L635.6023,290.3473 L635.9929,287.8897 L636.6575,285.4972 L637.3349,283.1077 L637.6055,280.6216 L637.299,280.5277 L638.5384,278.604 L638.7685,276.3714 L639.7659,274.3736 L639.9732,272.1339 L640.8281,270.0925 L640.8051,270.0726 L642.8584,268.254 L644.3743,265.9695 L646.2072,263.9599 L648.0668,261.9733 L649.7344,259.8203 L649.7344,260.1903 L651.7344,259.8168 L653.7344,260.0756 L655.7344,259.3115 L657.7344,260.0731 L659.7344,259.8203" fill="none" style="stroke:#FF9900;stroke-width:1;"/><a href="/use-case/client-360/know-your-customer/core-record-management/jurisdictions/" target="_top" title="/use-case/client-360/know-your-customer/core-record-management/jurisdictions/" xlink:actuate="onRequest" xlink:href="/use-case/client-360/know-your-customer/core-record-management/jurisdictions/" xlink:show="new" xlink:title="/use-case/client-360/know-your-customer/core-record-management/jurisdictions/" xlink:type="simple"><text fill="#90EE90" font-family="'Roboto'" font-size="14" lengthAdjust="spacing" textLength="84.5264" x="666.7344" y="290.9639">Jurisdictions</text></a><path d="M609.7344,325.5625 L609.7344,325.7493 L611.7344,325.1942 L613.7344,325.7343 L615.7344,325.9178 L617.7344,324.9284 L619.7344,325.5625 L619.7344,325.5625 L619.7147,325.5341 L621.4078,324.174 L623.1999,322.957 L625.0609,321.8396 L626.6845,320.3792 L628.6406,319.3992 L628.8651,319.5 L629.6039,316.5725 L630.998,313.9394 L632.472,311.3423 L633.4809,308.5361 L634.7344,305.8398 L634.762,305.8523 L635.9402,303.1222 L637.2442,300.4486 L638.4876,297.7478 L639.8468,295.0991 L640.8281,292.2805 L640.9978,292.5258 L642.7812,291.2961 L644.455,289.9082 L646.2891,288.7519 L648.1307,287.6065 L649.7344,286.1172 L649.7344,285.4761 L651.7344,286.7203 L653.7344,285.8536 L655.7344,286.5917 L657.7344,285.6772 L659.7344,286.1172" fill="none" style="stroke:#FF9900;stroke-width:1;"/><a href="/use-case/client-360/know-your-customer/core-record-management/legal-entities/" target="_top" title="/use-case/client-360/know-your-customer/core-record-management/legal-entities/" xlink:actuate="onRequest" xlink:href="/use-case/client-360/know-your-customer/core-record-management/legal-entities/" xlink:show="new" xlink:title="/use-case/client-360/know-your-customer/core-record-management/legal-entities/" xlink:type="simple"><text fill="#90EE90" font-family="'Roboto'" font-size="14" lengthAdjust="spacing" textLength="94.6025" x="666.7344" y="317.2607">Legal Entities</text></a><path d="M609.7344,325.5625 L609.7344,325.7493 L611.7344,325.1942 L613.7344,325.7343 L615.7344,325.9178 L617.7344,324.9284 L619.7344,325.5625 L619.7344,325.5625 L619.7205,325.5309 L622.6583,324.074 L625.666,322.7767 L628.7222,321.5902 L631.611,320.0217 L634.7344,318.9883 L634.8331,319.2136 L637.6219,317.4169 L640.6991,316.2781 L643.8114,315.2196 L646.7191,313.694 L649.7344,312.4141 L649.7344,312.4747 L651.7344,312.3857 L653.7344,312.5728 L655.7344,312.6266 L657.7344,312.9347 L659.7344,312.4141" fill="none" style="stroke:#FF9900;stroke-width:1;"/><a href="/use-case/client-360/know-your-customer/core-record-management/locations/" target="_top" title="/use-case/client-360/know-your-customer/core-record-management/locations/" xlink:actuate="onRequest" xlink:href="/use-case/client-360/know-your-customer/core-record-management/locations/" xlink:show="new" xlink:title="/use-case/client-360/know-your-customer/core-record-management/locations/" xlink:type="simple"><text fill="#90EE90" font-family="'Roboto'" font-size="14" lengthAdjust="spacing" textLength="66.7529" x="666.7344" y="343.5576">Locations</text></a><path d="M609.7344,325.5625 L609.7344,325.7493 L611.7344,325.1942 L613.7344,325.7343 L615.7344,325.9178 L617.7344,324.9284 L619.7344,325.5625 L619.7344,325.5625 L619.7205,325.5309 L622.6583,326.7037 L625.666,328.0361 L628.7222,329.4793 L631.611,330.5404 L634.7344,332.1367 L634.8331,332.3621 L637.6219,333.195 L640.6991,334.6859 L643.8114,336.2571 L646.7191,337.3612 L649.7344,338.7109 L649.7344,338.7716 L651.7344,338.6825 L653.7344,338.8696 L655.7344,338.9235 L657.7344,339.2316 L659.7344,338.7109" fill="none" style="stroke:#FF9900;stroke-width:1;"/><a href="/use-case/client-360/know-your-customer/core-record-management/buildings/" target="_top" title="/use-case/client-360/know-your-customer/core-record-management/buildings/" xlink:actuate="onRequest" xlink:href="/use-case/client-360/know-your-customer/core-record-management/buildings/" xlink:show="new" xlink:title="/use-case/client-360/know-your-customer/core-record-management/buildings/" xlink:type="simple"><text fill="#90EE90" font-family="'Roboto'" font-size="14" lengthAdjust="spacing" textLength="64.0869" x="666.7344" y="369.8545">Buildings</text></a><path d="M609.7344,325.5625 L609.7344,325.7493 L611.7344,325.1942 L613.7344,325.7343 L615.7344,325.9178 L617.7344,324.9284 L619.7344,325.5625 L619.7344,325.5625 L619.7147,325.5341 L621.4078,326.6393 L623.1999,327.8877 L625.0609,329.2356 L626.6845,330.2405 L628.6406,331.7258 L628.8651,331.8267 L629.6039,334.3229 L630.998,337.1135 L632.472,339.9401 L633.4809,342.5577 L634.7344,345.2852 L634.762,345.2976 L635.9402,347.9912 L637.2442,350.7414 L638.4876,353.4643 L639.8468,356.2393 L640.8281,358.8445 L640.9978,359.0897 L642.7812,360.3254 L644.455,361.4029 L646.2891,362.7119 L648.1307,364.0318 L649.7344,365.0078 L649.7344,364.3668 L651.7344,365.6109 L653.7344,364.7443 L655.7344,365.4823 L657.7344,364.5678 L659.7344,365.0078" fill="none" style="stroke:#FF9900;stroke-width:1;"/><a href="/use-case/client-360/know-your-customer/core-record-management/addresses/" target="_top" title="/use-case/client-360/know-your-customer/core-record-management/addresses/" xlink:actuate="onRequest" xlink:href="/use-case/client-360/know-your-customer/core-record-management/addresses/" xlink:show="new" xlink:title="/use-case/client-360/know-your-customer/core-record-management/addresses/" xlink:type="simple"><text fill="#90EE90" font-family="'Roboto'" font-size="14" lengthAdjust="spacing" textLength="72.2148" x="666.7344" y="396.1514">Addresses</text></a><path d="M609.7344,325.5625 L609.7344,325.7493 L611.7344,325.1942 L613.7344,325.7343 L615.7344,325.9178 L617.7344,324.9284 L619.7344,325.5625 L619.7344,325.5625 L619.7083,325.5399 L621.3724,327.4928 L623.1681,329.5597 L625.0552,331.706 L626.6272,333.579 L628.6406,335.8347 L628.8759,335.9067 L629.0173,337.8585 L629.8456,340.0206 L630.7578,342.2083 L631.1823,344.2468 L631.8633,346.3637 L631.8928,346.3708 L632.4237,348.7744 L633.0889,351.21 L633.6893,353.6302 L634.4134,356.0799 L634.7344,358.4336 L635.0245,358.5026 L635.6023,360.9174 L635.9929,363.2877 L636.6575,365.7232 L637.3349,368.1617 L637.6055,370.5034 L637.299,370.4096 L638.5384,372.6975 L638.7685,374.6765 L639.7659,376.8903 L639.9732,378.8623 L640.8281,381.0325 L640.8051,381.0125 L642.8584,383.3028 L644.3743,385.1272 L646.2072,387.2265 L648.0668,389.3488 L649.7344,391.3047 L649.7344,391.6747 L651.7344,391.3012 L653.7344,391.56 L655.7344,390.7959 L657.7344,391.5575 L659.7344,391.3047" fill="none" style="stroke:#FF9900;stroke-width:1;"/><a href="/use-case/client-360/know-your-customer/core-record-management/audit/" target="_top" title="/use-case/client-360/know-your-customer/core-record-management/audit/" xlink:actuate="onRequest" xlink:href="/use-case/client-360/know-your-customer/core-record-management/audit/" xlink:show="new" xlink:title="/use-case/client-360/know-your-customer/core-record-management/audit/" xlink:type="simple"><text fill="#90EE90" font-family="'Roboto'" font-size="14" lengthAdjust="spacing" textLength="36.7158" x="666.7344" y="422.4482">Audit</text></a><path d="M609.7344,325.5625 L609.7344,325.7493 L611.7344,325.1942 L613.7344,325.7343 L615.7344,325.9178 L617.7344,324.9284 L619.7344,325.5625 L619.7344,325.5625 L619.705,325.5443 L621.3545,328.3389 L623.152,331.2252 L625.0524,334.1752 L626.5981,336.9056 L628.6406,339.9436 L628.881,339.9962 L629.0115,342.8319 L629.8438,345.8211 L630.7618,348.829 L631.1815,351.728 L631.8633,354.6842 L631.8932,354.6893 L632.4235,358.0614 L633.0899,361.4566 L633.6907,364.8407 L634.4168,368.2461 L634.7344,371.582 L635.0284,371.632 L635.6062,375.0122 L635.9944,378.3601 L636.6602,381.7552 L637.3389,385.1525 L637.6055,388.4798 L637.2923,388.4114 L638.5446,391.4924 L638.7658,394.3479 L639.7708,397.3749 L639.9687,400.2253 L640.8281,403.2205 L640.8022,403.2044 L642.8896,406.2702 L644.3722,408.9615 L646.2117,411.8738 L648.0811,414.8046 L649.7344,417.6016 L649.7344,417.9715 L651.7344,417.5981 L653.7344,417.8569 L655.7344,417.0927 L657.7344,417.8544 L659.7344,417.6016" fill="none" style="stroke:#FF9900;stroke-width:1;"/><path d="M361.2041,220.375 L361.2041,220.5618 L363.2041,220.0067 L365.2041,220.5468 L367.2041,220.7303 L369.2041,219.7409 L371.2041,220.375 L371.2041,220.375 L371.1737,220.3585 L372.8187,223.5718 L374.6167,226.868 L376.5212,230.2219 L378.0589,233.377 L380.1104,236.8105 L380.352,236.8568 L380.4797,240.1272 L381.3131,243.5326 L382.2325,246.9545 L382.651,250.2805 L383.333,253.657 L383.363,253.6614 L383.8932,257.5172 L384.5599,261.3934 L385.1608,265.2597 L385.8874,269.1447 L386.2041,272.9688 L386.4991,273.0126 L387.0769,276.8755 L387.4645,280.7101 L388.1306,284.5861 L388.8097,288.4641 L389.0752,292.2805 L388.7604,292.2203 L390.0159,295.7065 L390.2348,298.9943 L391.2418,302.433 L391.4372,305.7163 L392.2979,309.127 L392.2711,309.1124 L394.3689,312.5711 L395.8413,315.6909 L397.6827,319.0106 L399.5552,322.3471 L401.2041,325.5625 L401.2041,325.9325 L403.2041,325.559 L405.2041,325.8178 L407.2041,325.0537 L409.2041,325.8153 L411.2041,325.5625" fill="none" style="stroke:#FF9900;stroke-width:1;"/><a href="/use-case/client-360/" target="_top" title="/use-case/client-360/" xlink:actuate="onRequest" xlink:href="/use-case/client-360/" xlink:show="new" xlink:title="/use-case/client-360/" xlink:type="simple"><text fill="#90EE90" font-family="'Roboto'" font-size="14" lengthAdjust="spacing" textLength="71.7021" x="14" y="225.2217">Client 360</text></a><path d="M147.1523,220.375 L147.1523,220.5618 L145.1523,220.0067 L143.1523,220.5468 L141.1523,220.7303 L139.1523,219.7409 L137.1523,220.375 L137.1523,220.375 L137.1523,220.3405 L131.1523,220.1854 L125.1523,220.2046 L119.1523,220.3447 L113.1523,220.0677 L107.1523,220.375 L107.1523,220.8671 L105.1523,219.8148 L103.1523,220.1992 L101.1523,220.759 L99.1523,220.2988 L97.1523,220.375" fill="none" style="stroke:#FF9900;stroke-width:1;"/><!--SRC=[xLbjSzeu4FxkNx7NV6WwFHTeqqxRwNHA27a5ma3IJgVJoGXRW0vRuYIPbBkv_tuh6uCnBm7NzDeR-19RMZ_xefLszUI3qaHgdt7N9qFB-isbNSOf79_TrSiNZRlATUsw1U7luAZuijHvcHHfLolNZPDow_D4Reb8irovAfzLfq0B8jUjasehgGSEkjrNtM9nAd9wtRYP4mX5pC-or83n8P74Xmvn1Zqf0kvMX2TaBAWbuGebADS9uVFnaCeQuuEaB1nuhDVNFKafjwp7mBZZ1Iu5tQVGevnAui4KGa4NF-m8tVyTmi-0S1TS8WVufHOWHbJUIwOft3FTZp3OY79GL6l6UoeTWPlpYyfLezfkGmcNGGmr4npw26fGD7xO9PwY2H-Qn7KH28uIOwt8Vud6mkl4UBjFN75lfDCeOIGyZCGjTyC7EX59o9pGBWay3NzRfuBh1l4fF6e9z5qy2aUY8CwMAHniixyeb8wiVv98PId5FU8i_M8vZ1vx62FXkVD8GrnkqgCJcnO-FKvbmrm-MyT2ehEJcKG2eegP1YxSRU3d4dqp3OxmXu9ZPgAQZ0OljIwAMU1xp-TZvX9DEaJHdDNDwN0y4RWxLI0yZpfcTwZSrSoqL5102c-76euD997Z7QgeSitqBXKmhgdi4eVkK4UR_XbGxj0cbYdci27XEWAxwJDdmAbIU63EnDL472rAVh7Mk0Ne9NOcP6R74XVI9rvwRi6T6kjIB3Pq9VXKOAsPuU6v01wEhaGEPvSQ5SxCOlZ2AZjQo0Si24LMwZApgpRmOwWSWOaQ5Y5yENZmbzpp4ZSyuJsFldk7rKe9_luzhcyRauyAZGLiPVN8gowaCovTi-UFg8Ivz1iQoObtbx_TgUPh1yQhiTBK__LYdR_TEufrN91_ZL3FhFtr8fr8ayway4PMfnhZUI_27hRuSBUNoVVrZaK5nYMgJzrDV5tggeEA2TOLkQclsA-lJwKTUBf-2PEbNHEzhDE8hvGpvV7riAorP9r0qyMff57nXJFLo1AbTgpjCTIZYpUe8NLObpdeP5GY5-uXczlne6jaraWSd9w-UOFpgSbaRsLPJ-7B5oW4YjeERl-2up6yizWlNXKB0oxkxR48fEq4IWkVoW9SuHXynZ6eJCRWyEfpvGby_MezVNgt3HOsLCpsyOeqjZqIc0igXgO0PHo6kXc6sdGO3ilrsaH97beS8ILLU3zppQVct7Djudi5l1eiJ02gpaypf_fUo45IPoCvbA-sa20XuOKggV5cDbmuPPnWIvtMlfLoPg9bCfo4caQeF7ufmCNS97nCJ6PGDQH3LO2cy1XsvSJpnb3zDXJ6z6ROX2auR5QRAaj2EfBvrCOJ5hSOwgYOLsX5hndW58OrlCaMe1q_Pe2HJ0ridt3IepwA5Q250r2V3cI0xBDUtyP4j37jTD_6KugDc1jWtIZ0ESwPZ8HFPWukPdDmUDxuT95ffwFp8xoiclnaU8s8zlbaqEproM06w9uxn5FfxAJPohBWGiRhFHTXF0JYXLy8T2uQ73pfiPnGasNnOuxmalQYl6j53pb2_n5WFheiJkpBv6kEQZpQ8vvjpWqTHgbctYFA8zzGUI8wYOoE-357-4x0FCFZ8lnn_9WZF75Th5RAHAWSF-O97xWCjqFP_36mjhqQ5IhXC-2p4Vr0iVM9_-_mOVxV43lazNzY1Zrku3QapvFYIm2s8CwddUEA7dDvHxc6AlzUm7NC-3gCHGioSE7RATY8_VuUoBLyzxR0cp3SsJ7NSDhPGLUosDaXr_7MsL5tmbJ7vgpWg6FBjgQdOmUMSTCnw2fQEhOfGKXFxy1fDZh6IX7HS_8Fij1JXMd-UOe-JpqdDb8c5ddroRfDjYmk_lUon3_QhWVelVyiJ3-3NHjpjp_OcfygIBdIhh4TMtgpqkgr56jfbvngtfwaul-_vaptnEYU6DqJetjYT4-CxedHFJ6w9qR_vyHeqyFgT8kL1Gk3CiT-wTdpulENpqgb3jMaL3oyvSOe7b9c3FjPZIVl4-lmh5a3XOOwsE4o5JLP-FaJwvAC2BHmuw3SMxWUKdvvSXKFO9gCc1JSk61TVgpF15uTsSVeIPjAD0G-rgsOqgnoHvYrUGktDwVsQwk6VNA0KNWBb5lH3XtZNFjV]--></g></svg>