<svg xmlns="http://www.w3.org/2000/svg" xmlns:xlink="http://www.w3.org/1999/xlink" contentStyleType="text/css" data-diagram-type="MINDMAP" height="127px" preserveAspectRatio="none" style="width:1116px;height:127px;" version="1.1" viewBox="0 0 1116 127" width="1116px" zoomAndPan="magnify"><defs/><g><polygon fill="#4051B5" points="368.6855,44.4453,368.6855,44.6555,378.7329,44.031,388.7802,44.6386,398.8276,44.845,408.8749,43.7319,418.9223,44.3676,428.9696,44.0188,439.017,44.0618,449.0643,44.3772,459.1117,43.7539,469.159,44.999,479.2064,43.815,489.2537,44.2475,499.3011,44.8773,509.3484,44.3595,519.3958,44.5136,529.4431,44.4134,539.4905,44.6238,549.5378,44.6844,559.5852,45.031,569.6325,45.1164,579.6799,45.1246,589.7272,44.6999,599.7746,44.9089,609.8219,45.1475,619.8693,43.7241,629.9166,45.1238,639.964,44.1488,650.0113,44.9791,660.0587,43.9503,670.106,44.3768,680.1534,45.1869,690.2007,44.3966,700.2481,44.5506,710.2954,44.7839,720.3428,44.4453,720.3959,44.5735,720.908,44.6784,721.5108,45.0024,721.9668,44.972,722.6418,45.4702,723.1712,45.6169,723.34,45.6868,723.5424,46.2393,723.8286,46.8265,723.7254,47.2523,723.9076,47.7964,724.3428,48.4453,724.1356,48.4453,724.3231,54.1047,724.2773,59.7641,724.5699,65.4234,724.2845,71.0828,724.3428,76.7422,724.2371,76.6984,724.1788,77.337,723.6688,77.7885,723.48,78.373,723.6054,79.0877,723.1712,79.5706,723.2268,79.7048,722.6992,80.0311,721.9988,79.9401,721.5149,80.3719,720.9838,80.6897,720.3428,80.7422,720.3428,80.2698,710.2954,80.6463,700.2481,80.8682,690.2007,81.3939,680.1534,80.738,670.106,81.2048,660.0587,80.1884,650.0113,80.0649,639.964,81.2458,629.9166,80.0252,619.8693,81.2511,609.8219,80.9488,599.7746,80.4743,589.7272,80.3884,579.6799,81.2009,569.6325,80.4429,559.5852,81.334,549.5378,80.1894,539.4905,81.3596,529.4431,81.2265,519.3958,80.9872,509.3484,80.7894,499.3011,81.4688,489.2537,81.3558,479.2064,80.9114,469.159,81.0104,459.1117,80.6119,449.0643,81.4586,439.017,80.8971,428.9696,80.9148,418.9223,80.1338,408.8749,80.337,398.8276,81.2729,388.7802,81.1719,378.7329,80.6993,368.6855,80.7422,368.6445,80.643,368.0919,80.4405,367.4666,80.0622,367.0414,80.167,366.5171,80.0327,365.8571,79.5706,366.0192,79.6378,365.8368,79.0936,365.3464,78.4218,365.181,77.8847,364.8005,77.2584,364.6855,76.7422,364.7802,76.7422,364.7678,71.0828,364.8697,65.4234,364.609,59.7641,364.6407,54.1047,364.6855,48.4453,364.8221,48.5019,365.0946,47.952,364.9963,47.2486,365.3288,46.7235,365.6688,46.2016,365.8571,45.6169,365.7792,45.4288,366.4679,45.4914,367.0214,45.2277,367.5413,44.8829,368.138,44.7234,368.6855,44.4453" style="stroke:#FF6F00;stroke-width:1.5;"/><a href="/use-case/construction-project-quotations/knowledge-capture-and-improvement/" target="_top" title="/use-case/construction-project-quotations/knowledge-capture-and-improvement/" xlink:actuate="onRequest" xlink:href="/use-case/construction-project-quotations/knowledge-capture-and-improvement/" xlink:show="new" xlink:title="/use-case/construction-project-quotations/knowledge-capture-and-improvement/" xlink:type="simple"><text fill="#90EE90" font-family="'Roboto'" font-size="14" lengthAdjust="spacing" textLength="335.207" x="374.6855" y="67.4404">Knowledge Capture &amp; Continuous Improvement</text></a><a href="/use-case/construction-project-quotations/knowledge-capture-and-improvement/sme-knowledge-capture/" target="_top" title="/use-case/construction-project-quotations/knowledge-capture-and-improvement/sme-knowledge-capture/" xlink:actuate="onRequest" xlink:href="/use-case/construction-project-quotations/knowledge-capture-and-improvement/sme-knowledge-capture/" xlink:show="new" xlink:title="/use-case/construction-project-quotations/knowledge-capture-and-improvement/sme-knowledge-capture/" xlink:type="simple"><text fill="#90EE90" font-family="'Roboto'" font-size="14" lengthAdjust="spacing" textLength="171.6436" x="781.3428" y="27.9951">SME Knowledge Capture</text></a><path d="M724.3428,62.5938 L724.3428,62.7806 L726.3428,62.2255 L728.3428,62.7656 L730.3428,62.949 L732.3428,61.9596 L734.3428,62.5938 L734.3428,62.5938 L734.3231,62.5653 L736.0162,61.2052 L737.8083,59.9883 L739.6693,58.8708 L741.2929,57.4104 L743.249,56.4304 L743.4735,56.5313 L744.2123,53.6037 L745.6064,50.9707 L747.0804,48.3735 L748.0893,45.5673 L749.3428,42.8711 L749.3704,42.8835 L750.5486,40.1534 L751.8526,37.4799 L753.096,34.7791 L754.4552,32.1303 L755.4365,29.3118 L755.6062,29.557 L757.3896,28.3273 L759.0634,26.9395 L760.8975,25.7832 L762.7391,24.6377 L764.3428,23.1484 L764.3428,22.5074 L766.3428,23.7516 L768.3428,22.8849 L770.3428,23.6229 L772.3428,22.7084 L774.3428,23.1484" fill="none" style="stroke:#FF9900;stroke-width:1;"/><a href="/use-case/construction-project-quotations/knowledge-capture-and-improvement/document-ingestion-and-knowledge-extraction/" target="_top" title="/use-case/construction-project-quotations/knowledge-capture-and-improvement/document-ingestion-and-knowledge-extraction/" xlink:actuate="onRequest" xlink:href="/use-case/construction-project-quotations/knowledge-capture-and-improvement/document-ingestion-and-knowledge-extraction/" xlink:show="new" xlink:title="/use-case/construction-project-quotations/knowledge-capture-and-improvement/document-ingestion-and-knowledge-extraction/" xlink:type="simple"><text fill="#90EE90" font-family="'Roboto'" font-size="14" lengthAdjust="spacing" textLength="314.2891" x="781.3428" y="54.292">Document Ingestion &amp; Knowledge Extraction</text></a><path d="M724.3428,62.5938 L724.3428,62.7806 L726.3428,62.2255 L728.3428,62.7656 L730.3428,62.949 L732.3428,61.9596 L734.3428,62.5938 L734.3428,62.5938 L734.3289,62.5621 L737.2667,61.1053 L740.2744,59.808 L743.3306,58.6215 L746.2194,57.0529 L749.3428,56.0195 L749.4415,56.2449 L752.2303,54.4481 L755.3075,53.3093 L758.4198,52.2508 L761.3275,50.7252 L764.3428,49.4453 L764.3428,49.506 L766.3428,49.4169 L768.3428,49.604 L770.3428,49.6579 L772.3428,49.9659 L774.3428,49.4453" fill="none" style="stroke:#FF9900;stroke-width:1;"/><a href="/use-case/construction-project-quotations/knowledge-capture-and-improvement/traceability-and-provenance/" target="_top" title="/use-case/construction-project-quotations/knowledge-capture-and-improvement/traceability-and-provenance/" xlink:actuate="onRequest" xlink:href="/use-case/construction-project-quotations/knowledge-capture-and-improvement/traceability-and-provenance/" xlink:show="new" xlink:title="/use-case/construction-project-quotations/knowledge-capture-and-improvement/traceability-and-provenance/" xlink:type="simple"><text fill="#90EE90" font-family="'Roboto'" font-size="14" lengthAdjust="spacing" textLength="184.2217" x="781.3428" y="80.5889">Traceability &amp; Provenance</text></a><path d="M724.3428,62.5938 L724.3428,62.7806 L726.3428,62.2255 L728.3428,62.7656 L730.3428,62.949 L732.3428,61.9596 L734.3428,62.5938 L734.3428,62.5938 L734.3289,62.5621 L737.2667,63.735 L740.2744,65.0673 L743.3306,66.5105 L746.2194,67.5717 L749.3428,69.168 L749.4415,69.3933 L752.2303,70.2262 L755.3075,71.7172 L758.4198,73.2883 L761.3275,74.3924 L764.3428,75.7422 L764.3428,75.8028 L766.3428,75.7138 L768.3428,75.9009 L770.3428,75.9548 L772.3428,76.2628 L774.3428,75.7422" fill="none" style="stroke:#FF9900;stroke-width:1;"/><a href="/use-case/construction-project-quotations/knowledge-capture-and-improvement/estimate-vs-actual-and-lessons-learned/" target="_top" title="/use-case/construction-project-quotations/knowledge-capture-and-improvement/estimate-vs-actual-and-lessons-learned/" xlink:actuate="onRequest" xlink:href="/use-case/construction-project-quotations/knowledge-capture-and-improvement/estimate-vs-actual-and-lessons-learned/" xlink:show="new" xlink:title="/use-case/construction-project-quotations/knowledge-capture-and-improvement/estimate-vs-actual-and-lessons-learned/" xlink:type="simple"><text fill="#90EE90" font-family="'Roboto'" font-size="14" lengthAdjust="spacing" textLength="267.5449" x="781.3428" y="106.8857">Estimate vs Actual &amp; Lessons Learned</text></a><path d="M724.3428,62.5938 L724.3428,62.7806 L726.3428,62.2255 L728.3428,62.7656 L730.3428,62.949 L732.3428,61.9596 L734.3428,62.5938 L734.3428,62.5938 L734.3231,62.5653 L736.0162,63.6705 L737.8083,64.9189 L739.6693,66.2668 L741.2929,67.2717 L743.249,68.7571 L743.4735,68.8579 L744.2123,71.3541 L745.6064,74.1448 L747.0804,76.9714 L748.0893,79.5889 L749.3428,82.3164 L749.3704,82.3288 L750.5486,85.0225 L751.8526,87.7727 L753.096,90.4956 L754.4552,93.2706 L755.4365,95.8757 L755.6062,96.121 L757.3896,97.3566 L759.0634,98.4341 L760.8975,99.7432 L762.7391,101.063 L764.3428,102.0391 L764.3428,101.398 L766.3428,102.6422 L768.3428,101.7755 L770.3428,102.5136 L772.3428,101.599 L774.3428,102.0391" fill="none" style="stroke:#FF9900;stroke-width:1;"/><a href="/use-case/construction-project-quotations/" target="_top" title="/use-case/construction-project-quotations/" xlink:actuate="onRequest" xlink:href="/use-case/construction-project-quotations/" xlink:show="new" xlink:title="/use-case/construction-project-quotations/" xlink:type="simple"><text fill="#90EE90" font-family="'Roboto'" font-size="14" lengthAdjust="spacing" textLength="289.2354" x="14" y="67.4404">Complex Construction Project Quotations</text></a><path d="M364.6855,62.5938 L364.6855,62.7806 L362.6855,62.2255 L360.6855,62.7656 L358.6855,62.949 L356.6855,61.9596 L354.6855,62.5938 L354.6855,62.5938 L354.6855,62.5592 L348.6855,62.4042 L342.6855,62.4233 L336.6855,62.5635 L330.6855,62.2865 L324.6855,62.5938 L324.6855,63.0859 L322.6855,62.0335 L320.6855,62.418 L318.6855,62.9777 L316.6855,62.5175 L314.6855,62.5938" fill="none" style="stroke:#FF9900;stroke-width:1;"/><!--SRC=[xLZlJzj84FtklsAkIDTMd1l2GTMYgYA4G864S0bKEbKLsjYJP0zxDzrTXtAd-zzlxCInu_mW2N4FAlW2UD- -UJDUx-wyVMsOCZuNhizwblMBYsqk40wEhskba_FhShrQRq3qix6pjLjixQOXpKgvVdvOQlmvn4s1N9JAPwNZoeXe0b9l75OQwJYmqMw_RMzjZI17zVFBCK042NyiIzzmqMEA-T1Ypar7oK2uPUb95GEDOa8J0eL9WJ_TzL1LkRX9Os73uvskwIX4OLalWGl72rm4qqNee435F1XHQ6ZJn9OqtTyWcWPCkE0oTKCpZGJPHtMhk46uvQOxuE1z5A3H62uwEbk1oqydvRFpIhC9HNeDicUu5D0bqf35qCGsypIcShXWhaj4i9DwrXZahqWil4izRtQPAsz3T9ObgeH7bRWIRlG73Y4fp26sMU0P-CSwaiASCn_XHKDIxl95z6HGnEGrHG-R_6-4uexrRvgff9Iy9PwfCwRJc3kFQYGzTvofHw-RTN2eQMBgGMOrZArdwq0gIdOuabg052A98AIx3FtOGbyiWYFzdXIqCYdCYeAdgXlKBF2zxV6QkSom5jEuvd1ZCHnF1cwk0QJdeHD-7NhjOP8ePG8ewUKOuI2aPEeknn0LORZ9Cm0N1bMREPXZZ2P-2r0uU47757TuZmap8BliSkT6eDQqOIPmFOIJelICkU8cgAVeJ66IRKb8vJClEpQHJfMtaGuRd4a-0ioL6MsU4-JHqvdCqUXKKT58KiFVhP9ZfBf7GGIP6IiSdVK1luJo3eHLeqE8_jcuzoVzpIlwu9deUFZX0vrMMegF7-dzDcdneJHqWCqyFTPrBcHNNFRC7j-YKdBnEuaKpBjUl-xCvIi7yVfE6_IVNgtNhpkdMiS7yjCeTQBswLKwjKnQmuDte3fpCHxF8hh3Rjr_srifz_c93GuOb-akkelaEZLLXm8pEbVKehdIVNt-KieXq_clC7sq6sQctJJYbZ897hU79MCKRmK69uVIekA6CtEHPLhd7Eqbr0QDD-WUEhpD7KfoS4HEz26BwxWtDPPS93QEZjw_f_7COFfkPLcRyEKB50ADjaEVVu5MbJOgYExWTa_9lsZ1sTy2IQydl9KNReIyzT3jXF2U2HJQrCNQt2Te7trgTmfm5aEWF830hz6Lcuj01XfE4Yny_MfjRbwlMu7sqPv05Q1PgqpHbey4Lpf1-8TDhnjrn1D2aecqooeM1IZ0uH0C9p6OAfOehOoWEOaDwP6rk4SDHJGO3Gb6D-q2NAO6ITR5Q2WdCM41VDeBxBwsAUk0UH74e_LA1FIRAO5k0If37FGrb28SgQiEKFGxGeKIRNj9YRHM_Pw7tyCrEmA6UOT0-6C43CdtaRxms5xR7tVRShIl7h5H5EzJ2xf4QVWKWYNyeT46EMChdRvnpd647aeupm2Qnp6fO0NBPxa02vay3w6SQ-iiIxo8aRCwvnphPdNIcMRDwfJpx9dLMNCnP68vCwoOMDdIBaoSm3GB9YQTvRx4cbA-o-YgbpLTOgwCtpA6lzTi6GNCsYmZzd679VKXhMIMpDvPbrajao__eMR8ZzPrJnVxlvNfCUXQsABumMeULP7MwYx4EfRCPgRgkKv2CK_hODsPPEh_Kri3p_t_S___tF__RFt_XKUtqwjQ5Vfq0mhd5DziRstllYaMMsXOSUlLbGZJ5r5do6dRfWJmjVNg-A8AMWQAIkfoFTXBQFfhwvJr6JG24UBseDv3SNfu5Z-WdgBFbHHXqQpJpxK4y7R7Fk26hlAAXC3dcXLtxXNXoD0is8EhooFxdLMbuo2WFdeFK50_JhpgZiQQ_m40]--></g></svg>