<svg xmlns="http://www.w3.org/2000/svg" xmlns:xlink="http://www.w3.org/1999/xlink" contentStyleType="text/css" data-diagram-type="MINDMAP" height="122px" preserveAspectRatio="none" style="width:1048px;height:122px;" version="1.1" viewBox="0 0 1048 122" width="1048px" zoomAndPan="magnify"><defs/><g><polygon fill="#4051B5" points="347.708,42.6992,347.708,42.9094,357.6291,42.2849,367.5502,42.8925,377.4713,43.0989,387.3924,41.9858,397.3135,42.6215,407.2346,42.2727,417.1556,42.3157,427.0767,42.6311,436.9978,42.0078,446.9189,43.2529,456.84,42.0689,466.7611,42.5015,476.6822,43.1312,486.6033,42.6134,496.5244,42.7675,506.4455,42.6673,516.3666,42.8777,526.2876,42.9384,536.2087,43.2849,546.1298,43.3703,556.0509,43.3785,565.972,42.9538,575.8931,43.1628,585.8142,43.4015,595.7353,41.978,605.6564,43.3777,615.5775,42.4027,625.4985,43.233,635.4196,42.2042,645.3407,42.6307,655.2618,43.4408,665.1829,42.6505,675.104,42.6992,675.1174,42.7316,675.7129,43.0378,676.2885,43.296,676.8006,43.401,677.4034,43.7249,677.9324,43.8708,677.7561,43.7978,678.2543,44.4728,678.5699,45.0721,678.7723,45.6246,679.0585,46.2117,679.104,46.6992,678.943,46.6992,678.8866,52.1258,678.8969,57.5523,679.0844,62.9789,679.0385,68.4055,679.104,73.832,679.3139,73.919,678.8159,74.3754,678.5297,74.9196,678.4714,75.5582,677.9614,76.0097,677.9324,76.6605,677.8662,76.5006,677.4495,77.0946,676.8566,77.2633,676.3291,77.5896,675.6286,77.4986,675.104,77.832,675.104,78.1512,665.1829,78.4225,655.2618,77.3596,645.3407,77.7362,635.4196,77.958,625.4985,78.4838,615.5775,77.8278,605.6564,78.2946,595.7353,77.2782,585.8142,77.1548,575.8931,78.3356,565.972,77.1151,556.0509,78.341,546.1298,78.0387,536.2087,77.5641,526.2876,77.4783,516.3666,78.2908,506.4455,77.5327,496.5244,78.4239,486.6033,77.2793,476.6822,78.4495,466.7611,78.3163,456.84,78.077,446.9189,77.8793,436.9978,78.5586,427.0767,78.4456,417.1556,78.0013,407.2346,78.1002,397.3135,77.7018,387.3924,78.5485,377.4713,77.9869,367.5502,78.0046,357.6291,77.2237,347.708,77.832,347.6563,77.7072,347.21,77.7612,346.6315,77.4958,346.0055,77.1159,345.4042,76.7956,344.8796,76.6605,344.8122,76.6325,344.434,76.0072,344.5387,75.582,344.4044,75.0577,344.1044,74.4649,343.708,73.832,343.9397,73.832,343.6624,68.4055,343.7371,62.9789,343.5788,57.5523,343.8027,52.1258,343.708,46.6992,343.784,46.7307,344.1124,46.204,344.1059,45.5386,344.3696,44.985,344.7818,44.493,344.8796,43.8708,344.952,44.0455,345.3799,43.4786,345.9862,43.3425,346.5957,43.2138,347.0644,42.7454,347.708,42.6992" style="stroke:#FF6F00;stroke-width:1.5;"/><a href="/use-case/construction-project-quotations/knowledge-capture-and-improvement/" target="_top" title="/use-case/construction-project-quotations/knowledge-capture-and-improvement/" xlink:actuate="onRequest" xlink:href="/use-case/construction-project-quotations/knowledge-capture-and-improvement/" xlink:show="new" xlink:title="/use-case/construction-project-quotations/knowledge-capture-and-improvement/" xlink:type="simple"><text fill="#4051B5" font-family="'Roboto'" font-size="13" lengthAdjust="spacing" textLength="311.2637" x="353.708" y="64.7661">Knowledge Capture &amp; Continuous Improvement</text></a><a href="/use-case/construction-project-quotations/knowledge-capture-and-improvement/sme-knowledge-capture/" target="_top" title="/use-case/construction-project-quotations/knowledge-capture-and-improvement/sme-knowledge-capture/" xlink:actuate="onRequest" xlink:href="/use-case/construction-project-quotations/knowledge-capture-and-improvement/sme-knowledge-capture/" xlink:show="new" xlink:title="/use-case/construction-project-quotations/knowledge-capture-and-improvement/sme-knowledge-capture/" xlink:type="simple"><text fill="#4051B5" font-family="'Roboto'" font-size="13" lengthAdjust="spacing" textLength="159.3833" x="736.104" y="27.0669">SME Knowledge Capture</text></a><path d="M679.104,60.2656 L679.104,60.4525 L681.104,59.8973 L683.104,60.4374 L685.104,60.6209 L687.104,59.6315 L689.104,60.2656 L689.104,60.2656 L689.085,60.2368 L690.7807,58.9294 L692.5725,57.7673 L694.431,56.7061 L696.0595,55.2969 L698.0103,54.3751 L698.2329,54.4798 L698.9755,51.6641 L700.3682,49.1541 L701.8402,46.6814 L702.8508,43.9916 L704.104,41.416 L704.1314,41.4289 L705.3099,38.8182 L706.6133,36.2661 L707.8564,33.6858 L709.2146,31.1595 L710.1978,28.4569 L710.3623,28.7057 L712.1455,27.5306 L713.8227,26.1951 L715.6552,25.0945 L717.4949,24.0048 L719.104,22.5664 L719.104,21.9254 L721.104,23.1695 L723.104,22.3028 L725.104,23.0409 L727.104,22.1264 L729.104,22.5664" fill="none" style="stroke:#FF6F00;stroke-width:1;"/><a href="/use-case/construction-project-quotations/knowledge-capture-and-improvement/document-ingestion-and-knowledge-extraction/" target="_top" title="/use-case/construction-project-quotations/knowledge-capture-and-improvement/document-ingestion-and-knowledge-extraction/" xlink:actuate="onRequest" xlink:href="/use-case/construction-project-quotations/knowledge-capture-and-improvement/document-ingestion-and-knowledge-extraction/" xlink:show="new" xlink:title="/use-case/construction-project-quotations/knowledge-capture-and-improvement/document-ingestion-and-knowledge-extraction/" xlink:type="simple"><text fill="#4051B5" font-family="'Roboto'" font-size="13" lengthAdjust="spacing" textLength="291.8398" x="736.104" y="52.1997">Document Ingestion &amp; Knowledge Extraction</text></a><path d="M679.104,60.2656 L679.104,60.4525 L681.104,59.8973 L683.104,60.4374 L685.104,60.6209 L687.104,59.6315 L689.104,60.2656 L689.104,60.2656 L689.0907,60.2338 L692.0308,58.8342 L695.0382,57.5951 L698.0923,56.4678 L700.9853,54.9556 L704.104,53.9824 L704.1991,54.2094 L706.9958,52.4674 L710.07,51.3881 L713.1782,50.3896 L716.0893,48.9207 L719.104,47.6992 L719.104,47.7599 L721.104,47.6708 L723.104,47.8579 L725.104,47.9118 L727.104,48.2198 L729.104,47.6992" fill="none" style="stroke:#FF6F00;stroke-width:1;"/><a href="/use-case/construction-project-quotations/knowledge-capture-and-improvement/traceability-and-provenance/" target="_top" title="/use-case/construction-project-quotations/knowledge-capture-and-improvement/traceability-and-provenance/" xlink:actuate="onRequest" xlink:href="/use-case/construction-project-quotations/knowledge-capture-and-improvement/traceability-and-provenance/" xlink:show="new" xlink:title="/use-case/construction-project-quotations/knowledge-capture-and-improvement/traceability-and-provenance/" xlink:type="simple"><text fill="#4051B5" font-family="'Roboto'" font-size="13" lengthAdjust="spacing" textLength="171.063" x="736.104" y="77.3325">Traceability &amp; Provenance</text></a><path d="M679.104,60.2656 L679.104,60.4525 L681.104,59.8973 L683.104,60.4374 L685.104,60.6209 L687.104,59.6315 L689.104,60.2656 L689.104,60.2656 L689.0907,60.2338 L692.0308,61.3474 L695.0382,62.6217 L698.0923,64.0076 L700.9853,65.0088 L704.104,66.5488 L704.1991,66.7758 L706.9958,67.5471 L710.07,68.981 L713.1782,70.4958 L716.0893,71.5402 L719.104,72.832 L719.104,72.8927 L721.104,72.8036 L723.104,72.9907 L725.104,73.0446 L727.104,73.3526 L729.104,72.832" fill="none" style="stroke:#FF6F00;stroke-width:1;"/><a href="/use-case/construction-project-quotations/knowledge-capture-and-improvement/estimate-vs-actual-and-lessons-learned/" target="_top" title="/use-case/construction-project-quotations/knowledge-capture-and-improvement/estimate-vs-actual-and-lessons-learned/" xlink:actuate="onRequest" xlink:href="/use-case/construction-project-quotations/knowledge-capture-and-improvement/estimate-vs-actual-and-lessons-learned/" xlink:show="new" xlink:title="/use-case/construction-project-quotations/knowledge-capture-and-improvement/estimate-vs-actual-and-lessons-learned/" xlink:type="simple"><text fill="#4051B5" font-family="'Roboto'" font-size="13" lengthAdjust="spacing" textLength="248.4346" x="736.104" y="102.4653">Estimate vs Actual &amp; Lessons Learned</text></a><path d="M679.104,60.2656 L679.104,60.4525 L681.104,59.8973 L683.104,60.4374 L685.104,60.6209 L687.104,59.6315 L689.104,60.2656 L689.104,60.2656 L689.085,60.2368 L690.7807,61.2856 L692.5725,62.4797 L694.431,63.7747 L696.0595,64.7217 L698.0103,66.1561 L698.2329,66.2608 L698.9755,68.6287 L700.3682,71.3024 L701.8402,74.0133 L702.8508,76.5072 L704.104,79.1152 L704.1314,79.1281 L705.3099,81.701 L706.6133,84.3326 L707.8564,86.9359 L709.2146,89.5933 L710.1978,92.0743 L710.3623,92.3231 L712.1455,93.5042 L713.8227,94.5249 L715.6552,95.7805 L717.4949,97.0471 L719.104,97.9648 L719.104,97.3238 L721.104,98.568 L723.104,97.7013 L725.104,98.4393 L727.104,97.5248 L729.104,97.9648" fill="none" style="stroke:#FF6F00;stroke-width:1;"/><a href="/use-case/construction-project-quotations/" target="_top" title="/use-case/construction-project-quotations/" xlink:actuate="onRequest" xlink:href="/use-case/construction-project-quotations/" xlink:show="new" xlink:title="/use-case/construction-project-quotations/" xlink:type="simple"><text fill="#4051B5" font-family="'Roboto'" font-size="13" lengthAdjust="spacing" textLength="268.5757" x="14" y="64.7661">Complex Construction Project Quotations</text></a><path d="M343.708,60.2656 L343.708,60.4525 L341.708,59.8973 L339.708,60.4374 L337.708,60.6209 L335.708,59.6315 L333.708,60.2656 L333.708,60.2656 L333.708,60.2311 L327.708,60.0761 L321.708,60.0952 L315.708,60.2353 L309.708,59.9583 L303.708,60.2656 L303.708,60.7578 L301.708,59.7054 L299.708,60.0898 L297.708,60.6496 L295.708,60.1894 L293.708,60.2656" fill="none" style="stroke:#FF6F00;stroke-width:1;"/><!--SRC=[xLXhRzD85FtkNt6NIWi8l6cW88GG8aq3bAPDDsbPhH2g9lOacQqz4sR6ATtL_lUzuzZn8xRpQCo2HBwazHoVU-xCPERUyqPf8hNFkEkJgMNzuj8HunGEtrsTjexFhjgzRgyFuMVlOFzPS_Wi3HbqshsperR_pmXN03bljKzQxpeBeYL8ht_KwQVZmDvez7oqlx-0lEsTNMG08SHy5f1Mlz_x8uk9MInrpVYKIEB3a3ZNOoa2xhQ59oJiQKcumZ7ATGhs_dPAfSVuTOIA55ltWN772rmAUa9XJ3cLn8F5Umf6Y1uAFNaC7XjFD13kWalaDRwf1OWPbJUIQGetJ4_c76n6EIYgDUDZbP-JY_V7xPEppc00JLmOCTLCS9WWgM7H-EA8U8gcX9yJrqKYE4Wzwy_JbIWMNgIU3oR45JS6dMTPf7_9tV0F6a5Ic2Cw8e6duH_hhU3wZFWKxlK5vYxkXK_cCvSiNFXmmFwcq3om_aqpjQGKDyXJ-4OnZRxrS8w4vsQPfhYwP4mZJKkl7kOMFxF3hKCXCTbe9BKbCKGIWGjt4_hCrbylWYFygU2u7J7Cbe8BrStdBF2z9zavSuacGwBeZiDbOZYU2DnQ0mZFeuxvTQYTXqcYj14WXLTZX4D3IUHjZI4wN3DTPm36DPKZuj0QOmpebu1oXvxZnSKSDYLSpyak9iovvbGfF30Jk8hWg2ZzHgMu9Ue2dIbCSYnn8NtYvSUMqkco4UtYoLfAlW1KoWmFpoNoy6afSpXQA2eSIURmgTLoj90h58IGqbXcjEm7V1_Q1s1c3IyX_6TlvIVzcvVuWoTyxD5Nh_2sKeA_VethEy3DHuN62wpqzjZLlP3VSVaxEtj4fUJIhoYI4-zgzxfpvLWDujMjqjJ_yUPwzxfhckluGlunfZfH- -FDT6gR3AEBTwuwLnXdimXhsFtLrTvMkLSdDhzWNA8cr5qdry9K7GnCy5wHw-QAzNhrLgeXq-ebtBWDYHku9AUdy_kdXnsPP5ZJkn6FQU2YLZWizXNOu0TAcxgS0XbXgd7CN5kGYXQrfgKzJgfNBHEPBYMIoSZLxjYuwzLbLl5DhxLamq3JyZfWMMj50vEfzebIswcg2d0VJgDrKLFgi15pCF-mTC0bkfcOhbhZ6OJrfp8B6YxUOnXw0SMruvoQGaI12BGPNcxfTgmsuIVPcWeRUUiHVFe4ZK1Hsy6Ziu7ob9P1sB_OKod-Ggtsbq3WwfgEfd7DnOr7tR61JtKWgKsuQpCVeJFgOwlOW9CO0kqv17uDsnN60n4eE4wmyFcpzUZHrQuLA9_QIwW634ux1ThgaU0A9p1_sBWbg0fv32Hv4NU796601Xn5O3YEmJXZYTBE0bgJM4DFoP1vs8o5W-4G9zYbDE0YDOYopXT3DOan4-3ZKMBFb8rP1yGB8HxkLoJ0Ro8vTHlGYN0mKz0ASQYkEqVXTuWo4crxGucuL_sfHx-QFRi0chmD47vV00tv6ugdG6nMlibwbxjp-hvZJos-NjOqrDBm0e8DhBJulVnH6KzQ-ZoClTTAy-okX5LUMHN7ie8jtB7D0gpbXzs5ij81svHu7SzhUyuAbsjxqb9VQtlAAYThUzPQlAjOJebh5IlRsB2A4oXogsBICgCgrfGg9cEw9NygvifPKndyIbzg4J3lI2tOisPKweUqbQzKVh9kibkM5_-klj6trhMYuV_VfkbxqBMsc_EDrNnNaxHJ8oRMiM4sfQehJPTcdIxBhZF9pV-kN9IjRP22-t9d5aYQANUNB3iVcMkcQERo9UWQRaUvW9MK9Ox47HX_UX0_FOYV7aHD7iIvXoNpvMaNPbYMcNUQlptPV_BijsPpI3LfxZ-uv2Pz7hQh3CyqJ80-j1wyE- -24e74ANMPcXzA-Ff3wmEP4UW7tE1UGczA-OUZa_W1DZep9WKtasPz-7YQ09uVs8TCOtyXKGXyFBNYKxt37M4SZ9TmUV7MVc5ryOuAiBb_2PJZKOoyyXR71ly1]--></g></svg>