<svg xmlns="http://www.w3.org/2000/svg" xmlns:xlink="http://www.w3.org/1999/xlink" contentStyleType="text/css" data-diagram-type="MINDMAP" height="252px" preserveAspectRatio="none" style="width:103px;height:252px;" version="1.1" viewBox="0 0 103 252" width="103px" zoomAndPan="magnify"><defs/><g><a href="/use-case/client-360/know-your-customer/" target="_top" title="/use-case/client-360/know-your-customer/" xlink:actuate="onRequest" xlink:href="/use-case/client-360/know-your-customer/" xlink:show="new" xlink:title="/use-case/client-360/know-your-customer/" xlink:type="simple"><text fill="#4051B5" font-family="'Roboto'" font-size="13" lengthAdjust="spacing" textLength="0" x="17" y="120">Know Your Customer (KYC)</text></a><a href="/use-case/client-360/know-your-customer/anti-money-laundering/" target="_top" title="/use-case/client-360/know-your-customer/anti-money-laundering/" xlink:actuate="onRequest" xlink:href="/use-case/client-360/know-your-customer/anti-money-laundering/" xlink:show="new" xlink:title="/use-case/client-360/know-your-customer/anti-money-laundering/" xlink:type="simple"><text fill="#4051B5" font-family="'Roboto'" font-size="13" lengthAdjust="spacing" textLength="0" x="78" y="15">Anti Money Laundering (AML)</text></a><path d="M21,125 L21,125.1868 L23,124.6317 L25,125.1718 L27,125.3553 L29,124.3659 L31,125 L31,125 L30.9696,124.9835 L32.6147,121.6283 L34.4127,118.3562 L36.3171,115.1418 L37.855,111.7284 L39.9063,108.5938 L40.1479,108.6401 L40.2757,105.1777 L41.109,101.8506 L42.0284,98.54 L42.4469,95.1334 L43.1289,91.7773 L43.1589,91.7818 L43.6891,87.9198 L44.3558,84.0781 L44.9567,80.2266 L45.6832,76.3938 L46,72.5 L46.295,72.5439 L46.8728,68.689 L47.2604,64.8057 L47.9264,60.9639 L48.6056,57.1241 L48.8711,53.2227 L48.5563,53.1623 L49.8118,49.9161 L50.0307,46.4713 L51.0377,43.1775 L51.2331,39.7281 L52.0938,36.4063 L52.067,36.3917 L54.1647,33.2823 L55.6372,29.8334 L57.4786,26.5848 L59.351,23.3531 L61,20 L61,20.37 L63,19.9965 L65,20.2553 L67,19.4912 L69,20.2528 L71,20" fill="none" style="stroke:#FF6F00;stroke-width:1;"/><a href="/use-case/client-360/know-your-customer/identification-verification/" target="_top" title="/use-case/client-360/know-your-customer/identification-verification/" xlink:actuate="onRequest" xlink:href="/use-case/client-360/know-your-customer/identification-verification/" xlink:show="new" xlink:title="/use-case/client-360/know-your-customer/identification-verification/" xlink:type="simple"><text fill="#4051B5" font-family="'Roboto'" font-size="13" lengthAdjust="spacing" textLength="0" x="78" y="35">Identification Verification</text></a><path d="M21,125 L21,125.1868 L23,124.6317 L25,125.1718 L27,125.3553 L29,124.3659 L31,125 L31,125 L30.9713,124.9808 L32.6238,122.2382 L34.4209,119.5926 L36.3186,117.0144 L37.8698,114.2039 L39.9063,111.7188 L40.1457,111.7754 L40.2782,108.9316 L41.1098,106.2532 L42.0267,103.595 L42.4473,100.8193 L43.1289,98.1055 L43.1587,98.111 L43.6892,94.9818 L44.3554,91.8776 L44.9561,88.7614 L45.6818,85.6682 L46,82.5 L46.2933,82.554 L46.8711,79.4335 L47.2597,76.2783 L47.9253,73.174 L48.6038,70.0721 L48.8711,66.8945 L48.5592,66.8207 L49.8091,64.2413 L50.0319,61.4189 L51.0356,58.7812 L51.2351,55.9532 L52.0938,53.2813 L52.0685,53.2643 L54.1487,50.8086 L55.6383,47.9567 L57.4764,45.3386 L59.3437,42.7401 L61,40 L61,40.37 L63,39.9965 L65,40.2553 L67,39.4912 L69,40.2528 L71,40" fill="none" style="stroke:#FF6F00;stroke-width:1;"/><a href="/use-case/client-360/know-your-customer/peps/" target="_top" title="/use-case/client-360/know-your-customer/peps/" xlink:actuate="onRequest" xlink:href="/use-case/client-360/know-your-customer/peps/" xlink:show="new" xlink:title="/use-case/client-360/know-your-customer/peps/" xlink:type="simple"><text fill="#4051B5" font-family="'Roboto'" font-size="13" lengthAdjust="spacing" textLength="0" x="78" y="55">Politically Exposed Persons (PEPs)</text></a><path d="M21,125 L21,125.1868 L23,124.6317 L25,125.1718 L27,125.3553 L29,124.3659 L31,125 L31,125 L30.974,124.9772 L32.6387,122.8438 L34.4344,120.8251 L36.321,118.8863 L37.894,116.6724 L39.9063,114.8438 L40.1413,114.9165 L40.2832,112.6789 L41.1113,110.6537 L42.0232,108.6544 L42.448,106.5044 L43.1289,104.4336 L43.1584,104.4407 L43.6893,102.0436 L44.3545,99.6787 L44.9549,97.2983 L45.6789,94.9476 L46,92.5 L46.29,92.5698 L46.8677,90.1839 L47.2585,87.753 L47.923,85.388 L48.6003,83.0261 L48.8711,80.5664 L48.5649,80.4716 L49.8037,78.5736 L50.0343,76.3634 L51.0313,74.3905 L51.239,72.1732 L52.0938,70.1563 L52.0709,70.1362 L54.1228,68.3423 L55.64,66.0795 L57.4727,64.0934 L59.3319,62.1305 L61,60 L61,60.37 L63,59.9965 L65,60.2553 L67,59.4912 L69,60.2528 L71,60" fill="none" style="stroke:#FF6F00;stroke-width:1;"/><a href="/use-case/client-360/know-your-customer/crime-records/" target="_top" title="/use-case/client-360/know-your-customer/crime-records/" xlink:actuate="onRequest" xlink:href="/use-case/client-360/know-your-customer/crime-records/" xlink:show="new" xlink:title="/use-case/client-360/know-your-customer/crime-records/" xlink:type="simple"><text fill="#4051B5" font-family="'Roboto'" font-size="13" lengthAdjust="spacing" textLength="0" x="78" y="75">Crime Records</text></a><path d="M21,125 L21,125.1868 L23,124.6317 L25,125.1718 L27,125.3553 L29,124.3659 L31,125 L31,125 L30.9786,124.9729 L32.6638,123.445 L34.4569,122.0537 L36.325,120.7575 L37.9346,119.1338 L39.9063,117.9688 L40.1352,118.0589 L40.8644,114.7723 L42.262,111.749 L43.7411,108.7579 L44.7458,105.5798 L46,102.5 L46.0282,102.5111 L47.2055,99.401 L48.5113,96.3416 L49.7551,93.2577 L51.1172,90.2204 L52.0938,87.0313 L52.2786,87.2653 L54.0621,85.8619 L55.7264,84.3076 L57.5652,82.9742 L59.4121,81.6512 L61,80 L61,79.3589 L63,80.6031 L65,79.7364 L67,80.4745 L69,79.56 L71,80" fill="none" style="stroke:#FF6F00;stroke-width:1;"/><a href="/use-case/client-360/know-your-customer/sanctions/" target="_top" title="/use-case/client-360/know-your-customer/sanctions/" xlink:actuate="onRequest" xlink:href="/use-case/client-360/know-your-customer/sanctions/" xlink:show="new" xlink:title="/use-case/client-360/know-your-customer/sanctions/" xlink:type="simple"><text fill="#4051B5" font-family="'Roboto'" font-size="13" lengthAdjust="spacing" textLength="0" x="78" y="95">Sanctions</text></a><path d="M21,125 L21,125.1868 L23,124.6317 L25,125.1718 L27,125.3553 L29,124.3659 L31,125 L31,125 L30.9779,124.9735 L33.8787,122.3544 L36.8909,119.8691 L39.9806,117.4767 L42.8033,114.7639 L46,112.5 L46.1575,112.689 L48.8207,109.7848 L51.9437,107.4325 L55.1229,105.1475 L57.9756,102.4707 L61,100 L61,100.0607 L63,99.9716 L65,100.1587 L67,100.2126 L69,100.5206 L71,100" fill="none" style="stroke:#FF6F00;stroke-width:1;"/><polygon fill="#4051B5" points="75,120,75,120.0701,77.4,119.8619,79.8,120.0644,82.2,120.1332,84.6,119.7622,87,120,86.9901,119.9761,87.5113,120.103,88.0825,120.3505,88.6884,120.682,89.1745,120.7243,89.8284,121.1716,89.9989,121.2422,89.8686,121.6569,90.2362,122.2777,90.6644,122.9237,90.7393,123.4234,91,124,91.0227,124,90.9894,128.4,91.0595,132.8,91.0797,137.2,91.1952,141.6,91,146,91.2067,146.0856,90.9749,146.6523,90.6098,147.1639,90.4398,147.7562,90.279,148.3523,89.8284,148.8284,89.7364,148.6063,89.3493,149.2717,88.6592,149.2057,88.1995,149.6958,87.5025,149.6132,87,150,87,149.9772,84.6,150.2472,82.2,149.9838,79.8,150.0351,77.4,150.1129,75,150,75.0531,150.1282,74.4338,149.7645,73.9053,149.6198,73.2299,149.1208,72.7735,149.1503,72.1716,148.8284,72.3404,148.8984,72.0742,148.3194,71.8917,147.7753,71.3199,147.0697,71.0335,146.4825,71,146,70.7929,146,70.9804,141.6,70.9345,137.2,71.2271,132.8,70.9418,128.4,71,124,70.8944,123.9562,71.3046,123.4634,71.2633,122.7836,71.5431,122.2367,72.1371,121.82,72.1716,121.1716,72.2271,121.3057,72.831,121.1635,73.2619,120.6038,73.9093,120.5669,74.5096,120.4161,75,120" style="stroke:#FF6F00;stroke-width:1.5;"/><a href="/use-case/client-360/know-your-customer/risk-management/" target="_top" title="/use-case/client-360/know-your-customer/risk-management/" xlink:actuate="onRequest" xlink:href="/use-case/client-360/know-your-customer/risk-management/" xlink:show="new" xlink:title="/use-case/client-360/know-your-customer/risk-management/" xlink:type="simple"><text fill="#4051B5" font-family="'Roboto'" font-size="13" lengthAdjust="spacing" textLength="0" x="81" y="130">Risk Management</text></a><path d="M21,125 L21,125.1868 L23,124.6317 L25,125.1718 L27,125.3553 L29,124.3659 L31,125 L31,125 L30.9891,124.9672 L33.9401,125.8202 L36.9461,126.8383 L39.9904,127.9713 L42.9028,128.7085 L46,130 L46.0778,130.2334 L48.9114,130.7343 L51.9722,131.9166 L55.0607,133.1821 L57.9879,133.9638 L61,135 L61,135.0607 L63,134.9716 L65,135.1587 L67,135.2126 L69,135.5206 L71,135" fill="none" style="stroke:#FF6F00;stroke-width:1;"/><a href="/use-case/client-360/know-your-customer/high-net-worth-individuals/" target="_top" title="/use-case/client-360/know-your-customer/high-net-worth-individuals/" xlink:actuate="onRequest" xlink:href="/use-case/client-360/know-your-customer/high-net-worth-individuals/" xlink:show="new" xlink:title="/use-case/client-360/know-your-customer/high-net-worth-individuals/" xlink:type="simple"><text fill="#4051B5" font-family="'Roboto'" font-size="13" lengthAdjust="spacing" textLength="0" x="78" y="165">High Net Worth Individuals (HNWI)</text></a><path d="M21,125 L21,125.1868 L23,124.6317 L25,125.1718 L27,125.3553 L29,124.3659 L31,125 L31,125 L30.9786,124.9729 L32.6638,126.2575 L34.4569,127.6787 L36.325,129.195 L37.9346,130.3838 L39.9063,132.0313 L40.1352,132.1214 L40.8644,135.0223 L42.262,138.1865 L43.7411,141.3829 L44.7458,144.3923 L46,147.5 L46.0282,147.5111 L47.2055,150.5885 L48.5113,153.7166 L49.7551,156.8202 L51.1172,159.9704 L52.0938,162.9688 L52.2786,163.2028 L54.0621,164.6119 L55.7264,165.8701 L57.5652,167.3492 L59.4121,168.8387 L61,170 L61,169.3589 L63,170.6031 L65,169.7364 L67,170.4745 L69,169.56 L71,170" fill="none" style="stroke:#FF6F00;stroke-width:1;"/><a href="/use-case/client-360/know-your-customer/gdpr/" target="_top" title="/use-case/client-360/know-your-customer/gdpr/" xlink:actuate="onRequest" xlink:href="/use-case/client-360/know-your-customer/gdpr/" xlink:show="new" xlink:title="/use-case/client-360/know-your-customer/gdpr/" xlink:type="simple"><text fill="#4051B5" font-family="'Roboto'" font-size="13" lengthAdjust="spacing" textLength="0" x="78" y="185">GDPR</text></a><path d="M21,125 L21,125.1868 L23,124.6317 L25,125.1718 L27,125.3553 L29,124.3659 L31,125 L31,125 L30.974,124.9772 L32.6387,126.9063 L34.4344,128.9501 L36.321,131.0738 L37.894,132.9224 L39.9063,135.1563 L40.1413,135.229 L40.2832,137.1554 L41.1113,139.2943 L42.0232,141.4591 L42.448,143.4731 L43.1289,145.5664 L43.1584,145.5735 L43.6893,147.9498 L44.3545,150.3584 L44.9549,152.7514 L45.6789,155.1742 L46,157.5 L46.29,157.5698 L46.8677,159.9573 L47.2585,162.2999 L47.923,164.7084 L48.6003,167.1199 L48.8711,169.4336 L48.5649,169.3388 L49.8037,171.6048 L50.0343,173.5587 L51.0313,175.7498 L51.239,177.6967 L52.0938,179.8438 L52.0709,179.8237 L54.1228,182.0923 L55.64,183.892 L57.4727,185.9684 L59.3319,188.068 L61,190 L61,190.37 L63,189.9965 L65,190.2553 L67,189.4912 L69,190.2528 L71,190" fill="none" style="stroke:#FF6F00;stroke-width:1;"/><a href="/use-case/client-360/know-your-customer/activity-monitoring/" target="_top" title="/use-case/client-360/know-your-customer/activity-monitoring/" xlink:actuate="onRequest" xlink:href="/use-case/client-360/know-your-customer/activity-monitoring/" xlink:show="new" xlink:title="/use-case/client-360/know-your-customer/activity-monitoring/" xlink:type="simple"><text fill="#4051B5" font-family="'Roboto'" font-size="13" lengthAdjust="spacing" textLength="0" x="78" y="205">Activity Monitoring</text></a><path d="M21,125 L21,125.1868 L23,124.6317 L25,125.1718 L27,125.3553 L29,124.3659 L31,125 L31,125 L30.9713,124.9808 L32.6238,127.5507 L34.4209,130.2176 L36.3186,132.9519 L37.8698,135.4539 L39.9063,138.2813 L40.1457,138.3379 L40.2782,140.9394 L41.1098,143.7063 L42.0267,146.4934 L42.4473,149.1631 L43.1289,151.8945 L43.1587,151.9 L43.6892,155.0131 L44.3554,158.1511 L44.9561,161.277 L45.6818,164.426 L46,167.5 L46.2933,167.554 L46.8711,170.6757 L47.2597,173.7627 L47.9253,176.9006 L48.6038,180.0408 L48.8711,183.1055 L48.5592,183.0316 L49.8091,185.8976 L50.0319,188.5204 L51.0356,191.3281 L51.2351,193.9454 L52.0938,196.7188 L52.0685,196.7018 L54.1487,199.5586 L55.6383,202.0192 L57.4764,204.7136 L59.3437,207.4276 L61,210 L61,210.37 L63,209.9965 L65,210.2553 L67,209.4912 L69,210.2528 L71,210" fill="none" style="stroke:#FF6F00;stroke-width:1;"/><a href="/use-case/client-360/know-your-customer/core-record-management/" target="_top" title="/use-case/client-360/know-your-customer/core-record-management/" xlink:actuate="onRequest" xlink:href="/use-case/client-360/know-your-customer/core-record-management/" xlink:show="new" xlink:title="/use-case/client-360/know-your-customer/core-record-management/" xlink:type="simple"><text fill="#4051B5" font-family="'Roboto'" font-size="13" lengthAdjust="spacing" textLength="0" x="78" y="225">Core Record Management</text></a><path d="M21,125 L21,125.1868 L23,124.6317 L25,125.1718 L27,125.3553 L29,124.3659 L31,125 L31,125 L30.9696,124.9835 L32.6147,128.1908 L34.4127,131.4812 L36.3171,134.8293 L37.855,137.9784 L39.9063,141.4063 L40.1479,141.4526 L40.2757,144.7168 L41.109,148.1163 L42.0284,151.5322 L42.4469,154.8522 L43.1289,158.2227 L43.1589,158.2271 L43.6891,162.076 L44.3558,165.9453 L44.9567,169.8047 L45.6832,173.6829 L46,177.5 L46.295,177.5439 L46.8728,181.3999 L47.2604,185.2276 L47.9264,189.0968 L48.6056,192.9679 L48.8711,196.7773 L48.5563,196.717 L49.8118,200.1974 L50.0307,203.4791 L51.0377,206.9118 L51.2331,210.1891 L52.0938,213.5938 L52.067,213.5792 L54.1647,217.0323 L55.6372,220.1459 L57.4786,223.4598 L59.351,226.7906 L61,230 L61,230.37 L63,229.9965 L65,230.2553 L67,229.4912 L69,230.2528 L71,230" fill="none" style="stroke:#FF6F00;stroke-width:1;"/><!--SRC=[xLXjRzf84FxkNp7NV6YgrWNIjAgggYeXD4d3co1fLLLLjDWBh32xljrrA7Uw_tvZOuDji047UksfVCAxusTUThmpyxnNcaWzOToU4DSm_h3fW74APnTtpUfLwwxMRhIx4FoEJiilA_sNSP5UlTPkdLUxNqAvDIATQkswUb5V0As8jBldzMvS3nmD1gy6vV92v4ExTPCG24JytqAaskssFoTb8XH3ZHbtYIGJw1DhF9J2utPDE4B2aPQ4AzoZNCV4BcSkbGxZur0gjDXu38nRZcTJq2CAGygf90uitbCmGEc-qADduB3XI0FXDjX4Zl5DBK3SKpcLJ5EOCZsQOx1xoa5HhHaVgdHCRYwlQjUjUgy75JmOuMecE8mGr4VH-EA0E8h63EyGsqOWE8sjTUVkIZGMNiVMUoDYYwaldKPPk7_BxU0F3KLYCkTqG3n7mz_61y5rYqmeFEeAz5qy2bRcaLiUNB3OOtzHg9mQ_yIHgbAAAUAiVMCzZ9uv62FXs4aa5q-N36beqyghPwd3JsIuSIOaEXlkn58ILImrS67l0fz8_UqqM6BY2exfY6eA6hpMkddCl8bpaeoPJJJf4qNth2wXmtA4PnzKWN0SQlbVXzgxcgMM6Wf8uHnGmvaFIUJiW2hgN3DzI0MCQoe7nA87rD6ZVtgKMxI3XOjPp2LSpy5kHimQSweKNfXBSHMAeqNnDtADMu5UOsTCPdajSI4dn4dlhRZJO0FQm9ir4tmXa6jcS7ckW0UhcSZ1xbgZWfrb35yOLKiBkS62G2HJbx-RzG4_Xjef-5738eGFHnj_yMzUuWTF-D2XRzzYjLA2ltk7vzl3vAD2Om7Bh1xxgWlfZ4lNxEGL5JENVaSZEN7kzcztgXqxWF5gfZIT_7gnth_T1ufrL91_ZL0lhVtr8XrBatvOUETMfnhZf1T13rlUtEqLyZtViNc1iOaQKNiRNzUwQg5YWdL5RkihzklvgNG0J_EFSESn91hWbZwzcDUVDavaac5FRuSu_W0NZi91iw_0X8cdjD-NKo03T3NIcHeBOjh2qJHpnedDgbb6nbk9PJ1IlJiExdfpcxM-qcijMT_JDBiFMBKrPu19TFj4gM9MvIbu3CtmN9HBBJPW5leVj0vuHDEHFrLhl8Em_rJ-WGQ7zmpwZaVnx3YdVYEYG7ZQtruTwVPixHAV97ig7EIDftVmzIkKF4LD2-_EakKm7FZC5w_AfJ4NKtCcF6bQc7MOSx84rxW6Nt0DQk4Q75z_gJs1Rz-CfxjXOJVAp0dEbpFJ8Pu_tMFyIb35PMZwoz1OBCDnjTaeeWJZYtXuGCIVo4pyn1OF9RXARCAds6O1LIvrLGawmc7OR1F7cK7zkoiKjQ4Jz5OAZZlrZYhYXINPX9fuSU8feuwQ_mZT-MC1E4NuV40jGI_wEuVP1KKoDJOdX9CXdQ1O2Rgu0Ct5GW73HcmuCZdLvbH8FJBn6sFtpFQm6fJW4lUWHJLyzlVWQha7nvUjprT5uZgqNSpfY_DEjqZ-Ok3kSNxrSvZX1ptFtd3Hp-1miSXv2naTToB2DLmFppqLwFSKxwE8DdsVP57tnpd-nEnULEYsfFRYuci0TY3relVIbtOKjFZD7B70kJJUGm7pMBiyZ5KB2l1qkodOYfbx26Gk5xShy3RiMt7C7BwjE6WcmrOSCezJAuvw41OjCYU3FuiisvawYnnOnvj5e5cKMMHJhAsDu5QOiWWhHP8bv3SoP0k5QMviWPwanM8VKY66A_jctILRLW__eGpMZxPh0_NmduNfPx1hQrxf1rlpKmLfhvHGPCUEtcHQdKl_L0x9z-pRarJyzyNd52ParjJBlP4nSQHKBLdbO19bPbtaqYte5hnBjW4R8JEuaGSW_cP3VhCXlzcG_pqRqd7msxfjDW3JNVd9N7b-KZvv-RnIwLDDAkNZM-uhvS7WpF1srPXFJupZYqu351g2KuRDrFnwnDUV61_9FO6kntsvDz1sAVzuVXqjuCXrpwJWlYd6nq_DfS2hK_ECQPnq91e2dvf6L5_gt18-b_86Rcy-cA-D1bPB3xrv0vHZKK1SESEzthy0]--></g></svg>