<svg xmlns="http://www.w3.org/2000/svg" xmlns:xlink="http://www.w3.org/1999/xlink" contentStyleType="text/css" data-diagram-type="MINDMAP" height="202px" preserveAspectRatio="none" style="width:845px;height:202px;" version="1.1" viewBox="0 0 845 202" width="845px" zoomAndPan="magnify"><defs/><g><a href="/use-case/construction-project-quotations/estimating-and-pricing/" target="_top" title="/use-case/construction-project-quotations/estimating-and-pricing/" xlink:actuate="onRequest" xlink:href="/use-case/construction-project-quotations/estimating-and-pricing/" xlink:show="new" xlink:title="/use-case/construction-project-quotations/estimating-and-pricing/" xlink:type="simple"><text fill="#4051B5" font-family="'Roboto'" font-size="13" lengthAdjust="spacing" textLength="131.9741" x="350.708" y="104.8989">Estimating &amp; Pricing</text></a><a href="/use-case/construction-project-quotations/estimating-and-pricing/quantity-takeoff/" target="_top" title="/use-case/construction-project-quotations/estimating-and-pricing/quantity-takeoff/" xlink:actuate="onRequest" xlink:href="/use-case/construction-project-quotations/estimating-and-pricing/quantity-takeoff/" xlink:show="new" xlink:title="/use-case/construction-project-quotations/estimating-and-pricing/quantity-takeoff/" xlink:type="simple"><text fill="#4051B5" font-family="'Roboto'" font-size="13" lengthAdjust="spacing" textLength="192.4165" x="547.8145" y="27.0669">Quantity Takeoff (2D/3D/BIM)</text></a><path d="M490.8145,100.3984 L490.8145,100.5853 L492.8145,100.0302 L494.8145,100.5702 L496.8145,100.7537 L498.8145,99.7643 L500.8145,100.3984 L500.8145,100.3984 L500.7866,100.378 L502.4428,97.8542 L504.2394,95.4332 L506.1338,93.0838 L507.6915,90.4879 L509.7207,88.2372 L509.9589,88.2988 L510.094,85.674 L510.9247,83.2291 L511.8402,80.8061 L512.2619,78.2554 L512.9434,75.7719 L512.9731,75.7779 L513.5037,72.9112 L514.1696,70.0717 L514.7702,67.2191 L515.4954,64.3916 L515.8145,61.4824 L516.1069,61.5412 L516.6846,58.684 L517.0738,55.7889 L517.7391,52.9493 L518.4173,50.1123 L518.6855,47.1929 L518.3752,47.1127 L519.622,44.7754 L519.847,42.1738 L520.8488,39.7732 L521.0507,37.1656 L521.9082,34.7277 L521.8836,34.7097 L523.9554,32.4902 L525.4532,29.8504 L527.2897,27.4586 L529.1546,25.0876 L530.8145,22.5664 L530.8145,22.9364 L532.8145,22.5629 L534.8145,22.8217 L536.8145,22.0576 L538.8145,22.8192 L540.8145,22.5664" fill="none" style="stroke:#FF6F00;stroke-width:1;"/><a href="/use-case/construction-project-quotations/estimating-and-pricing/unit-rates-and-cost-libraries/" target="_top" title="/use-case/construction-project-quotations/estimating-and-pricing/unit-rates-and-cost-libraries/" xlink:actuate="onRequest" xlink:href="/use-case/construction-project-quotations/estimating-and-pricing/unit-rates-and-cost-libraries/" xlink:show="new" xlink:title="/use-case/construction-project-quotations/estimating-and-pricing/unit-rates-and-cost-libraries/" xlink:type="simple"><text fill="#4051B5" font-family="'Roboto'" font-size="13" lengthAdjust="spacing" textLength="175.043" x="547.8145" y="52.1997">Unit Rates &amp; Cost Libraries</text></a><path d="M490.8145,100.3984 L490.8145,100.5853 L492.8145,100.0302 L494.8145,100.5702 L496.8145,100.7537 L498.8145,99.7643 L500.8145,100.3984 L500.8145,100.3984 L500.791,100.3731 L502.467,98.6124 L504.2612,96.9796 L506.1376,95.4356 L507.7309,93.5854 L509.7207,92.1642 L509.9539,92.2426 L510.6739,88.4518 L512.0749,84.89 L513.5589,81.3562 L514.5596,77.6597 L515.8145,74.0488 L515.8432,74.0585 L517.0197,70.4212 L518.3272,66.828 L519.5714,63.2135 L520.9362,59.6395 L521.9082,55.9335 L522.1107,56.1525 L523.8944,54.5083 L525.5475,52.7229 L527.3918,51.1442 L529.2451,49.5752 L530.8145,47.6992 L530.8145,47.0582 L532.8145,48.3023 L534.8145,47.4357 L536.8145,48.1737 L538.8145,47.2592 L540.8145,47.6992" fill="none" style="stroke:#FF6F00;stroke-width:1;"/><polygon fill="#4051B5" points="544.8145,70.2656,544.8145,70.4758,554.7875,69.8513,564.7605,70.4589,574.7336,70.6653,584.7066,69.5522,594.6797,70.1879,604.6527,69.8391,614.6258,69.8821,624.5988,70.1975,634.5719,69.5743,644.5449,70.8193,654.518,69.6353,664.491,70.0679,674.4641,70.6976,684.4371,70.1798,694.4102,70.3339,704.3832,70.2337,714.3563,70.4442,724.3293,70.5048,734.3023,70.8513,744.2754,70.9367,754.2484,70.9449,764.2215,70.5203,774.1945,70.7292,784.1676,70.9679,794.1406,70.2656,794.0486,70.0435,794.7929,70.7089,795.2342,70.6429,795.9058,71.133,796.3402,71.0504,796.9691,71.4372,796.948,71.4285,797.4318,72.0975,797.4227,72.5624,797.7044,73.1477,798.0106,73.7431,798.1406,74.2656,798.2794,74.2656,798.1393,79.6922,798.2364,85.1188,797.9498,90.5453,798.2354,95.9719,798.1406,101.3984,798.3094,101.4684,798.0432,102.0208,797.8608,102.608,797.2889,103.0339,797.0025,103.578,796.9691,104.2269,796.8898,104.0355,796.3959,104.443,795.8126,104.635,795.3589,105.1397,794.684,105.1103,794.1406,105.3984,794.1406,105.0554,784.1676,105.6267,774.1945,104.7316,764.2215,104.8793,754.2484,106.0474,744.2754,105.8341,734.3023,106.1329,724.3293,105.0766,714.3563,105.7176,704.3832,105.9889,694.4102,104.926,684.4371,105.3026,674.4641,105.5244,664.491,106.0502,654.518,105.3942,644.5449,105.861,634.5719,104.8447,624.5988,104.7212,614.6258,105.9021,604.6527,104.6815,594.6797,105.9074,584.7066,105.6051,574.7336,105.1305,564.7605,105.0447,554.7875,105.8572,544.8145,105.3984,544.7763,105.3063,544.3243,105.3464,543.6126,104.7596,543.1962,104.8856,542.6135,104.6103,541.986,104.2269,542.0615,104.2581,541.7663,103.6672,541.7412,103.1882,541.472,102.6081,541.1009,101.9857,540.8145,101.3984,540.9038,101.3984,540.771,95.9719,541.0533,90.5453,540.8661,85.1188,540.872,79.6922,540.8145,74.2656,540.6271,74.188,540.924,73.6482,541.4465,73.202,541.6497,72.6234,541.7385,71.9974,541.986,71.4372,541.9449,71.338,542.5238,71.1355,543.0299,70.7573,543.736,70.862,544.3431,70.7277,544.8145,70.2656" style="stroke:#FF6F00;stroke-width:1.5;"/><a href="/use-case/construction-project-quotations/estimating-and-pricing/labor-productivity-and-crew-modeling/" target="_top" title="/use-case/construction-project-quotations/estimating-and-pricing/labor-productivity-and-crew-modeling/" xlink:actuate="onRequest" xlink:href="/use-case/construction-project-quotations/estimating-and-pricing/labor-productivity-and-crew-modeling/" xlink:show="new" xlink:title="/use-case/construction-project-quotations/estimating-and-pricing/labor-productivity-and-crew-modeling/" xlink:type="simple"><text fill="#4051B5" font-family="'Roboto'" font-size="13" lengthAdjust="spacing" textLength="233.1938" x="550.8145" y="92.3325">Labor Productivity &amp; Crew Modeling</text></a><path d="M490.8145,100.3984 L490.8145,100.5853 L492.8145,100.0302 L494.8145,100.5702 L496.8145,100.7537 L498.8145,99.7643 L500.8145,100.3984 L500.8145,100.3984 L500.8011,100.3666 L503.7412,98.967 L506.7486,97.7279 L509.8027,96.6006 L512.6957,95.0885 L515.8145,94.1152 L515.9095,94.3422 L518.7062,92.6002 L521.7805,91.5209 L524.8886,90.5224 L527.7997,89.0535 L530.8145,87.832 L530.8145,87.8927 L532.8145,87.8036 L534.8145,87.9907 L536.8145,88.0446 L538.8145,88.3526 L540.8145,87.832" fill="none" style="stroke:#FF6F00;stroke-width:1;"/><a href="/use-case/construction-project-quotations/estimating-and-pricing/indirects-overheads-general-conditions/" target="_top" title="/use-case/construction-project-quotations/estimating-and-pricing/indirects-overheads-general-conditions/" xlink:actuate="onRequest" xlink:href="/use-case/construction-project-quotations/estimating-and-pricing/indirects-overheads-general-conditions/" xlink:show="new" xlink:title="/use-case/construction-project-quotations/estimating-and-pricing/indirects-overheads-general-conditions/" xlink:type="simple"><text fill="#4051B5" font-family="'Roboto'" font-size="13" lengthAdjust="spacing" textLength="277.6338" x="547.8145" y="132.4653">Indirects, Overheads &amp; General Conditions</text></a><path d="M490.8145,100.3984 L490.8145,100.5853 L492.8145,100.0302 L494.8145,100.5702 L496.8145,100.7537 L498.8145,99.7643 L500.8145,100.3984 L500.8145,100.3984 L500.7994,100.3673 L502.5132,101.0892 L504.3027,101.9679 L506.145,102.9555 L507.8057,103.5676 L509.7207,104.7057 L509.9277,104.8388 L510.7038,106.4494 L512.0843,108.4485 L513.5384,110.4951 L514.5636,112.2658 L515.8145,114.1816 L515.84,114.198 L517.0213,116.0692 L518.3187,118.0149 L519.5601,119.9247 L520.9084,121.9032 L521.9082,123.6576 L522.0381,123.9261 L523.8209,124.7908 L525.52,125.4824 L527.3417,126.4274 L529.1691,127.3844 L530.8145,127.9648 L530.8145,127.3238 L532.8145,128.568 L534.8145,127.7013 L536.8145,128.4393 L538.8145,127.5248 L540.8145,127.9648" fill="none" style="stroke:#FF6F00;stroke-width:1;"/><a href="/use-case/construction-project-quotations/estimating-and-pricing/contingency-and-escalation/" target="_top" title="/use-case/construction-project-quotations/estimating-and-pricing/contingency-and-escalation/" xlink:actuate="onRequest" xlink:href="/use-case/construction-project-quotations/estimating-and-pricing/contingency-and-escalation/" xlink:show="new" xlink:title="/use-case/construction-project-quotations/estimating-and-pricing/contingency-and-escalation/" xlink:type="simple"><text fill="#4051B5" font-family="'Roboto'" font-size="13" lengthAdjust="spacing" textLength="166.5308" x="547.8145" y="157.5981">Contingency &amp; Escalation</text></a><path d="M490.8145,100.3984 L490.8145,100.5853 L492.8145,100.0302 L494.8145,100.5702 L496.8145,100.7537 L498.8145,99.7643 L500.8145,100.3984 L500.8145,100.3984 L500.791,100.3731 L502.467,101.9061 L504.2612,103.567 L506.1376,105.3167 L507.7309,106.7602 L509.7207,108.6327 L509.9539,108.7111 L510.6739,112.1664 L512.0749,115.8508 L513.5589,119.5631 L514.5596,123.1128 L515.8145,126.748 L515.8432,126.7577 L517.0197,130.3666 L518.3272,134.0195 L519.5714,137.6511 L520.9362,141.3233 L521.9082,144.8634 L522.1107,145.0824 L523.8944,146.7319 L525.5475,148.2402 L527.3918,149.9552 L529.2451,151.68 L530.8145,153.0977 L530.8145,152.4566 L532.8145,153.7008 L534.8145,152.8341 L536.8145,153.5722 L538.8145,152.6576 L540.8145,153.0977" fill="none" style="stroke:#FF6F00;stroke-width:1;"/><a href="/use-case/construction-project-quotations/estimating-and-pricing/pricing-strategy-margin-markups/" target="_top" title="/use-case/construction-project-quotations/estimating-and-pricing/pricing-strategy-margin-markups/" xlink:actuate="onRequest" xlink:href="/use-case/construction-project-quotations/estimating-and-pricing/pricing-strategy-margin-markups/" xlink:show="new" xlink:title="/use-case/construction-project-quotations/estimating-and-pricing/pricing-strategy-margin-markups/" xlink:type="simple"><text fill="#4051B5" font-family="'Roboto'" font-size="13" lengthAdjust="spacing" textLength="222.4854" x="547.8145" y="182.731">Pricing Strategy (Margin/Markups)</text></a><path d="M490.8145,100.3984 L490.8145,100.5853 L492.8145,100.0302 L494.8145,100.5702 L496.8145,100.7537 L498.8145,99.7643 L500.8145,100.3984 L500.8145,100.3984 L500.7866,100.378 L502.4428,102.7187 L504.2394,105.1622 L506.1338,107.6773 L507.6915,109.9459 L509.7207,112.5597 L509.9589,112.6213 L510.094,114.9826 L510.9247,117.5238 L511.8402,120.0869 L512.2619,122.5224 L512.9434,125.025 L512.9731,125.031 L513.5037,127.8801 L514.1696,130.7564 L514.7702,133.6196 L515.4954,136.5078 L515.8145,139.3145 L516.1069,139.3732 L516.6846,142.2318 L517.0738,145.0525 L517.7391,147.9287 L518.4173,150.8075 L518.6855,153.6039 L518.3752,153.5237 L519.622,156.1725 L519.847,158.5571 L520.8488,161.1425 L521.0507,163.5211 L521.9082,166.0692 L521.8836,166.0512 L523.9554,168.6962 L525.4532,170.9209 L527.2897,173.3936 L529.1546,175.8871 L530.8145,178.2305 L530.8145,178.6005 L532.8145,178.227 L534.8145,178.4858 L536.8145,177.7217 L538.8145,178.4833 L540.8145,178.2305" fill="none" style="stroke:#FF6F00;stroke-width:1;"/><a href="/use-case/construction-project-quotations/" target="_top" title="/use-case/construction-project-quotations/" xlink:actuate="onRequest" xlink:href="/use-case/construction-project-quotations/" xlink:show="new" xlink:title="/use-case/construction-project-quotations/" xlink:type="simple"><text fill="#4051B5" font-family="'Roboto'" font-size="13" lengthAdjust="spacing" textLength="268.5757" x="14" y="104.8989">Complex Construction Project Quotations</text></a><path d="M343.708,100.3984 L343.708,100.5853 L341.708,100.0302 L339.708,100.5702 L337.708,100.7537 L335.708,99.7643 L333.708,100.3984 L333.708,100.3984 L333.708,100.3639 L327.708,100.2089 L321.708,100.228 L315.708,100.3681 L309.708,100.0912 L303.708,100.3984 L303.708,100.8906 L301.708,99.8382 L299.708,100.2226 L297.708,100.7824 L295.708,100.3222 L293.708,100.3984" fill="none" style="stroke:#FF6F00;stroke-width:1;"/><!--SRC=[xLZ_RzCu5FyzVuMFISSGXAvZ88GGeklA6BJhhjqudH2QtCHjVKtiOZihutJ_-pqxIPkaIVfbAGVIzal1_lYzptjs_Fm-RwN2GlcKkJwUMjPlBXbIHj3nwNMdSNP-tUoskpra_lQE3fxN1y-Ja7whsJq_QVJ-Yd0va8j6ysFZj3Ktj0JfzavQlQGVj3SSlXWU7CmXxxhdboc0WUY_EQJHwtN_J6DYAvQSK3R50ljeW9t9IF20kKtkSO7sbC1CmXnXAW5xVpibmgDi4g4YnjP3H9dZ1Iv1QapGY30Yi8VcwoGQ0dh0rVW9ykXeh11cBdAncC1AnH6_8M8cg29eHjKuj45l24EIA4NPI6PpSld-hFdnlDNlepfi39ygoXaQWr5jHS728VOaIH2_mAuBXj1HOgmNXYk0B7gP6E-FiSjd6fsrCW__Yhdc7oI2930dP8W3Jw5_h7USgNFi4_IWno5s_i2CX9bRR9mPxDFl1DMFh7-JbXf2y1dOoLsHRqRTUf0ZxhbfIrFONJmY4QUbfSUPpK-TSEkO2mWscaaSIN2nyC2ukudvrD5VpuF3_IbdS1p1pPQ4Szc5EGjyxp2TCnShFC2ILEmkvSFnUE3kr07tFEBehqDMxcRXfGa0mRqTUZZM9h6utQ6B5bDKxT81POg88NR83dtqoTU0C8TSGE6Y3frYfa9ZbsFgJ1YH4YxC1Ln6S62KN55ARibq3iy4Pd4jCIvyx6Ndbi9fqo5fmyrQQ7mEAALfBiybusQqqBAPpILbPXOvV6Or7CN52WO6KkXBpnPzm0zHymZfh44HWl_ihVnBVlC2FdZCHXvv_HggbUJipHlOtpuSFi8L5B32wb5LNSYUk6pDJbzH2Rha6v1asBkkddVcERO3yl9MAkB_UhckdlUESXqNv5yZrGkslrwc4yTa41NUa7NcOPoEmhnX3rQ_zhQAlJomiC2uM8w9kqwikQ4wu1X3NH7hnWhlzVAZj8D8oxTmupOaRk0MCJqBwqyNEZ91uKtlHdPq0nUrmkQnBv6D_40g_Iud20yXrDXdfYr8U8jQqy8U9z6h5f5CFYKMoSYytQ5nLwkVMVcLNYb11u4YnU-0PQub3KpgjO-bt8vLcOE7g1FjYvmIXmwf0_6RfmDiqMoikse5Tn2yFwNUKBDvJz302mZi7MD4FqGaue7IqyijNSLi5_Pn-aq5ZRpr-1fz_engWIIs0tTd3VX99GBJmDXJmVy6ilRNWCFswfQcHgIYFjOAWGszFo3WOSb6DTIQZwFVqKKuYhvyiHvNvE1hW4stO2iy8NmuhA4_eX5q6OwW_SEJshEJsl5Pvr6LdWD6bItWT4ipx72fR8yE11QKo1gwWcdKqzCGU1CcKJkU35bKGiB30ouqtjLBRtGY31b1PhOFfyOpcz3MACZ-0gKv0GPr8aoLYO5FWEhBNDfQJ1eJx4exqg4WIp0PhaPdCUw9kUCC47YTHf9LSmwjafmkBV0BhLQOAI8Tx9abDTCyHtF0epMVgT9_z6l3MZWRerlRns94cVwP15F8IloDz2C0skyOHAqJ8imPjkqDsK1i_jGZttICSw0-4He8dqmCrCRV4hZ3OgdrRLfvhKwd_8aLmRWuhYa79k4v1ZOG0kDrsOi-JbhoDe-LurBfxwu6ovI-CXlB3BRGzZPpi9QQTnUJfVhTfeRNKUosjrcYqMrlj52LszvacGwtlTMTA6yndGBDBMQsiTmM1v2djSL6YsIsc5FYAHoRMrBNObiPOIs5NwcgpHrczRIvzRIKblYGjbB5Yc_MJKxBykRVLVNwqRnMo1N_Mvf-1bvhQr4_cCrFbQHAPQIOnuRH5B8kbOpgkzI8geuaa_-gDA2jHPoSUbcPW9EqbAaboxfDgipaPIxx15r3goaciD9aWPvo1ult2igzWdAleDmhA3aAoeK7NzDLfurWXwHUKtzwU73u_6czFY0Arm_shzY4yHappJQ56ncY9e-i_TEBDf8y4D2Pk5I6LoeiVsHzm3SOzGAcSQzGTqhOXvEFyG2qQJTKSEPh5UR3fyu2yEB8FeOFgay4446VEbPSarhCuLf_UOMkBj_PBwqsLDW0Zy0sOL18mAwuXRd-Vm00]--></g></svg>