<svg xmlns="http://www.w3.org/2000/svg" xmlns:xlink="http://www.w3.org/1999/xlink" contentStyleType="text/css" data-diagram-type="MINDMAP" height="732px" preserveAspectRatio="none" style="width:958px;height:732px;" version="1.1" viewBox="0 0 958 732" width="958px" zoomAndPan="magnify"><defs/><g><polygon fill="#4051B5" points="14,346.8594,14,347.0696,23.8107,346.4451,33.6215,347.0527,43.4322,347.2591,53.243,346.146,63.0537,346.7817,72.8645,346.4329,82.6752,346.4759,92.4859,346.7912,102.2967,346.168,112.1074,347.413,121.9182,346.2291,131.7289,346.6616,141.5396,347.2913,151.3504,346.7736,161.1611,346.9276,170.9719,346.8274,180.7826,347.0379,190.5934,347.0985,200.4041,347.4451,210.2148,346.8594,210.3004,347.066,210.8672,347.3029,211.3787,347.4064,211.971,347.7051,212.5672,348.0129,213.0433,348.0309,212.8212,347.939,213.4865,348.6832,213.4206,349.1245,213.9106,349.7961,213.8281,350.2305,214.2148,350.8594,214.192,350.8594,214.462,356.5188,214.1986,362.1781,214.2499,367.8375,214.3277,373.4969,214.2148,379.1563,214.343,379.2093,213.9793,379.7214,213.8347,380.3243,213.3356,380.7803,213.3652,381.4553,213.0433,381.9847,213.1132,382.1535,212.5343,382.3559,211.9901,382.6421,211.2846,382.5389,210.6973,382.7211,210.2148,383.1563,210.2148,382.5348,200.4041,383.0974,190.5934,382.9597,180.7826,383.8377,170.9719,382.9816,161.1611,382.8132,151.3504,383.3845,141.5396,382.4894,131.7289,382.6371,121.9182,383.8052,112.1074,383.5919,102.2967,383.8907,92.4859,382.8345,82.6752,383.4754,72.8645,383.7467,63.0537,382.6838,53.243,383.0604,43.4322,383.2822,33.6215,383.808,23.8107,383.1521,14,383.1563,14.059,383.2987,13.3637,382.7514,12.7822,382.4791,12.3672,382.6084,11.6458,381.9982,11.1716,381.9847,11.3283,382.0496,11.0009,381.4453,10.6204,380.8191,10.3597,380.2425,10.3756,379.7805,10,379.1563,9.9002,379.1563,10.1973,373.4969,9.8158,367.8375,10.2058,362.1781,10.1614,356.5188,10,350.8594,10.0754,350.8906,10.2489,350.2997,10.6924,349.8207,10.8919,349.2406,10.9894,348.6182,11.1716,348.0309,11.2058,348.1135,11.7206,347.7565,12.3943,347.783,12.8884,347.3757,13.4563,347.1468,14,346.8594" style="stroke:#FF6F00;stroke-width:1.5;"/><a href="/use-case/legal-entity-management/" target="_top" title="/use-case/legal-entity-management/" xlink:actuate="onRequest" xlink:href="/use-case/legal-entity-management/" xlink:show="new" xlink:title="/use-case/legal-entity-management/" xlink:type="simple"><text fill="#0000FF" font-family="'Roboto'" font-size="14" lengthAdjust="spacing" textLength="179.7646" x="20" y="369.8545">Legal Entity Management</text></a><text fill="#FFFFFF" font-family="'Roboto'" font-size="14" lengthAdjust="spacing" textLength="196.6631" x="271.2148" y="67.4404">Identification &amp; Registration</text><a href="/use-case/legal-entity-management/identification-and-registration/legal-form/" target="_top" title="/use-case/legal-entity-management/identification-and-registration/legal-form/" xlink:actuate="onRequest" xlink:href="/use-case/legal-entity-management/identification-and-registration/legal-form/" xlink:show="new" xlink:title="/use-case/legal-entity-management/identification-and-registration/legal-form/" xlink:type="simple"><text fill="#0000FF" font-family="'Roboto'" font-size="14" lengthAdjust="spacing" textLength="78.2305" x="528.8779" y="27.9951">Legal Form</text></a><path d="M471.8779,62.5938 L471.8779,62.7806 L473.8779,62.2255 L475.8779,62.7656 L477.8779,62.949 L479.8779,61.9596 L481.8779,62.5938 L481.8779,62.5938 L481.8583,62.5653 L483.5513,61.2052 L485.3434,59.9883 L487.2044,58.8708 L488.8281,57.4104 L490.7842,56.4304 L491.0086,56.5313 L491.7474,53.6037 L493.1415,50.9707 L494.6155,48.3735 L495.6244,45.5673 L496.8779,42.8711 L496.9056,42.8835 L498.0837,40.1534 L499.3878,37.4799 L500.6311,34.7791 L501.9904,32.1303 L502.9717,29.3118 L503.1414,29.557 L504.9247,28.3273 L506.5986,26.9395 L508.4327,25.7832 L510.2743,24.6377 L511.8779,23.1484 L511.8779,22.5074 L513.8779,23.7516 L515.8779,22.8849 L517.8779,23.6229 L519.8779,22.7084 L521.8779,23.1484" fill="none" style="stroke:#FF6F00;stroke-width:1;"/><a href="/use-case/legal-entity-management/identification-and-registration/business-registration/" target="_top" title="/use-case/legal-entity-management/identification-and-registration/business-registration/" xlink:actuate="onRequest" xlink:href="/use-case/legal-entity-management/identification-and-registration/business-registration/" xlink:show="new" xlink:title="/use-case/legal-entity-management/identification-and-registration/business-registration/" xlink:type="simple"><text fill="#0000FF" font-family="'Roboto'" font-size="14" lengthAdjust="spacing" textLength="151.2383" x="528.8779" y="54.292">Business Registration</text></a><path d="M471.8779,62.5938 L471.8779,62.7806 L473.8779,62.2255 L475.8779,62.7656 L477.8779,62.949 L479.8779,61.9596 L481.8779,62.5938 L481.8779,62.5938 L481.8641,62.5621 L484.8018,61.1053 L487.8095,59.808 L490.8658,58.6215 L493.7546,57.0529 L496.8779,56.0195 L496.9767,56.2449 L499.7655,54.4481 L502.8426,53.3093 L505.955,52.2508 L508.8626,50.7252 L511.8779,49.4453 L511.8779,49.506 L513.8779,49.4169 L515.8779,49.604 L517.8779,49.6579 L519.8779,49.9659 L521.8779,49.4453" fill="none" style="stroke:#FF6F00;stroke-width:1;"/><a href="/use-case/legal-entity-management/identification-and-registration/commercial-register/" target="_top" title="/use-case/legal-entity-management/identification-and-registration/commercial-register/" xlink:actuate="onRequest" xlink:href="/use-case/legal-entity-management/identification-and-registration/commercial-register/" xlink:show="new" xlink:title="/use-case/legal-entity-management/identification-and-registration/commercial-register/" xlink:type="simple"><text fill="#0000FF" font-family="'Roboto'" font-size="14" lengthAdjust="spacing" textLength="146.7607" x="528.8779" y="80.5889">Commercial Register</text></a><path d="M471.8779,62.5938 L471.8779,62.7806 L473.8779,62.2255 L475.8779,62.7656 L477.8779,62.949 L479.8779,61.9596 L481.8779,62.5938 L481.8779,62.5938 L481.8641,62.5621 L484.8018,63.735 L487.8095,65.0673 L490.8658,66.5105 L493.7546,67.5717 L496.8779,69.168 L496.9767,69.3933 L499.7655,70.2262 L502.8426,71.7172 L505.955,73.2883 L508.8626,74.3924 L511.8779,75.7422 L511.8779,75.8028 L513.8779,75.7138 L515.8779,75.9009 L517.8779,75.9548 L519.8779,76.2628 L521.8779,75.7422" fill="none" style="stroke:#FF6F00;stroke-width:1;"/><a href="/use-case/legal-entity-management/identification-and-registration/classification/" target="_top" title="/use-case/legal-entity-management/identification-and-registration/classification/" xlink:actuate="onRequest" xlink:href="/use-case/legal-entity-management/identification-and-registration/classification/" xlink:show="new" xlink:title="/use-case/legal-entity-management/identification-and-registration/classification/" xlink:type="simple"><text fill="#0000FF" font-family="'Roboto'" font-size="14" lengthAdjust="spacing" textLength="92.6338" x="528.8779" y="106.8857">Classification</text></a><path d="M471.8779,62.5938 L471.8779,62.7806 L473.8779,62.2255 L475.8779,62.7656 L477.8779,62.949 L479.8779,61.9596 L481.8779,62.5938 L481.8779,62.5938 L481.8583,62.5653 L483.5513,63.6705 L485.3434,64.9189 L487.2044,66.2668 L488.8281,67.2717 L490.7842,68.7571 L491.0086,68.8579 L491.7474,71.3541 L493.1415,74.1448 L494.6155,76.9714 L495.6244,79.5889 L496.8779,82.3164 L496.9056,82.3288 L498.0837,85.0225 L499.3878,87.7727 L500.6311,90.4956 L501.9904,93.2706 L502.9717,95.8757 L503.1414,96.121 L504.9247,97.3566 L506.5986,98.4341 L508.4327,99.7432 L510.2743,101.063 L511.8779,102.0391 L511.8779,101.398 L513.8779,102.6422 L515.8779,101.7755 L517.8779,102.5136 L519.8779,101.599 L521.8779,102.0391" fill="none" style="stroke:#FF6F00;stroke-width:1;"/><path d="M214.2148,365.0078 L214.2148,365.1946 L216.2148,364.6395 L218.2148,365.1796 L220.2148,365.3631 L222.2148,364.3737 L224.2148,365.0078 L224.2148,365.0078 L224.1826,364.9955 L225.0339,362.3411 L226.0479,359.7491 L227.1748,357.2004 L227.9123,354.5024 L229.1953,352.0135 L229.439,352.0473 L229.3324,348.9921 L229.9374,346.0358 L230.6291,343.0915 L230.8158,340.077 L231.2681,337.0995 L231.2983,337.1024 L231.6245,333.2294 L232.0883,329.3695 L232.4857,325.5033 L233.0096,321.6492 L233.1211,317.7556 L233.4185,317.7774 L233.7576,313.2001 L233.9049,308.6088 L234.3329,304.038 L234.7742,299.4682 L234.7983,294.8678 L234.4784,294.8485 L235.4084,289.7769 L235.285,284.6416 L235.9624,279.5547 L235.8151,274.418 L236.3438,269.3221 L236.2525,269.3174 L237.8098,260.1196 L237.2359,250.8116 L237.9195,241.5687 L238.7087,232.3312 L239.2906,223.083 L239.2148,213.8008 L239.2096,213.8005 L240.0758,204.567 L239.4097,195.2543 L241.0291,186.0597 L241.8589,176.8243 L242.1993,167.5636 L242.0859,158.2794 L242.3579,158.2959 L242.1807,153.1573 L242.4148,148.0437 L242.7375,142.9353 L243.2961,137.8413 L243.6313,132.7337 L243.5442,132.7273 L244.2688,128.1783 L244.2248,123.5729 L244.4856,118.9899 L245.0743,114.4309 L245.3086,109.8459 L245.0136,109.8177 L245.4495,105.9552 L246.3369,102.1359 L246.6132,98.2581 L247.116,94.402 L247.1616,90.5021 L247.02,90.4824 L247.7167,87.5388 L248.2506,84.5726 L248.1973,81.5248 L248.7776,78.565 L249.2344,75.5881 L249.2867,75.6081 L250.501,73.0929 L251.2248,70.3897 L252.4146,67.8651 L252.9889,65.1045 L254.2148,62.5938 L254.2148,61.9917 L256.2148,63.0414 L258.2148,61.9565 L260.2148,63.0462 L262.2148,62.7774 L264.2148,62.5938" fill="none" style="stroke:#FF6F00;stroke-width:1;"/><text fill="#FFFFFF" font-family="'Roboto'" font-size="14" lengthAdjust="spacing" textLength="159.1406" x="271.2148" y="159.4795">Corporate Governance</text><a href="/use-case/legal-entity-management/corporate-governance/directorships/" target="_top" title="/use-case/legal-entity-management/corporate-governance/directorships/" xlink:actuate="onRequest" xlink:href="/use-case/legal-entity-management/corporate-governance/directorships/" xlink:show="new" xlink:title="/use-case/legal-entity-management/corporate-governance/directorships/" xlink:type="simple"><text fill="#0000FF" font-family="'Roboto'" font-size="14" lengthAdjust="spacing" textLength="92.7842" x="491.3555" y="133.1826">Directorships</text></a><path d="M434.3555,154.6328 L434.3555,154.8196 L436.3555,154.2645 L438.3555,154.8046 L440.3555,154.9881 L442.3555,153.9987 L444.3555,154.6328 L444.3555,154.6328 L444.3327,154.6068 L447.2305,151.8606 L450.2431,149.2453 L453.3355,146.721 L456.1529,143.883 L459.3555,141.4844 L459.5177,141.6694 L462.1708,138.644 L465.2975,136.1589 L468.482,133.7397 L471.3303,130.937 L474.3555,128.3359 L474.3555,128.3966 L476.3555,128.3075 L478.3555,128.4946 L480.3555,128.5485 L482.3555,128.8566 L484.3555,128.3359" fill="none" style="stroke:#FF6F00;stroke-width:1;"/><a href="/use-case/legal-entity-management/corporate-governance/signatories/" target="_top" title="/use-case/legal-entity-management/corporate-governance/signatories/" xlink:actuate="onRequest" xlink:href="/use-case/legal-entity-management/corporate-governance/signatories/" xlink:show="new" xlink:title="/use-case/legal-entity-management/corporate-governance/signatories/" xlink:type="simple"><text fill="#0000FF" font-family="'Roboto'" font-size="14" lengthAdjust="spacing" textLength="78.7227" x="491.3555" y="159.4795">Signatories</text></a><path d="M434.3555,154.6328 L434.3555,154.8196 L436.3555,154.2645 L438.3555,154.8046 L440.3555,154.9881 L442.3555,153.9987 L444.3555,154.6328 L444.3555,154.6328 L444.3555,154.5983 L450.3555,154.4433 L456.3555,154.4624 L462.3555,154.6025 L468.3555,154.3255 L474.3555,154.6328 L474.3555,155.1249 L476.3555,154.0726 L478.3555,154.457 L480.3555,155.0168 L482.3555,154.5566 L484.3555,154.6328" fill="none" style="stroke:#FF6F00;stroke-width:1;"/><a href="/use-case/legal-entity-management/corporate-governance/organizational-structure/" target="_top" title="/use-case/legal-entity-management/corporate-governance/organizational-structure/" xlink:actuate="onRequest" xlink:href="/use-case/legal-entity-management/corporate-governance/organizational-structure/" xlink:show="new" xlink:title="/use-case/legal-entity-management/corporate-governance/organizational-structure/" xlink:type="simple"><text fill="#0000FF" font-family="'Roboto'" font-size="14" lengthAdjust="spacing" textLength="172.1016" x="491.3555" y="185.7764">Organizational Structure</text></a><path d="M434.3555,154.6328 L434.3555,154.8196 L436.3555,154.2645 L438.3555,154.8046 L440.3555,154.9881 L442.3555,153.9987 L444.3555,154.6328 L444.3555,154.6328 L444.3327,154.6068 L447.2305,157.12 L450.2431,159.764 L453.3355,162.4991 L456.1529,164.9205 L459.3555,167.7813 L459.5177,167.9663 L462.1708,170.2003 L465.2975,172.9745 L468.482,175.8147 L471.3303,178.2713 L474.3555,180.9297 L474.3555,180.9903 L476.3555,180.9013 L478.3555,181.0884 L480.3555,181.1423 L482.3555,181.4503 L484.3555,180.9297" fill="none" style="stroke:#FF6F00;stroke-width:1;"/><path d="M214.2148,365.0078 L214.2148,365.1946 L216.2148,364.6395 L218.2148,365.1796 L220.2148,365.3631 L222.2148,364.3737 L224.2148,365.0078 L224.2148,365.0078 L224.1846,364.9911 L225.0449,363.1084 L226.0577,361.3097 L227.1766,359.5695 L227.9301,357.6279 L229.1953,355.9683 L229.4366,356.0165 L229.3352,353.8384 L229.9382,351.8011 L230.6272,349.7809 L230.8161,347.6608 L231.2681,345.5933 L231.2981,345.5975 L231.6246,342.9001 L232.0879,340.2215 L232.4852,337.5339 L233.0084,334.8635 L233.1211,332.1367 L233.4177,332.168 L233.7568,328.984 L233.9045,325.7798 L234.3323,322.6051 L234.7733,319.4319 L234.7983,316.2148 L234.479,316.187 L235.4078,312.6867 L235.2852,309.095 L235.9619,305.5728 L235.8155,301.979 L236.3438,298.4438 L236.3134,298.4416 L237.2467,290.7436 L237.4706,282.9928 L238.1131,275.2732 L238.7907,267.5562 L239.2148,259.8203 L239.3993,259.834 L239.7873,252.0955 L240.4906,244.3804 L240.6838,236.6273 L241.6378,228.9309 L242.0859,221.1968 L242.3287,221.2179 L242.5918,217.6597 L242.9755,214.112 L242.7993,210.5156 L243.0335,206.9549 L243.6313,203.4258 L243.3567,203.3969 L243.9408,200.2387 L244.2154,197.0479 L244.9389,193.9044 L244.8959,190.6802 L245.3086,187.5039 L245.1576,187.4831 L245.7797,184.8264 L245.7562,182.0808 L246.1918,179.3985 L247.0767,176.778 L247.1616,174.0473 L247.3515,174.0852 L247.8963,172.0363 L247.8505,169.8693 L248.5444,167.8501 L249.0771,165.7988 L249.2344,163.6724 L249.0505,163.571 L250.1932,161.8439 L251.2756,160.0836 L252.4764,158.3884 L253.2171,156.4398 L254.2148,154.6328 L254.2148,155.044 L256.2148,154.1406 L258.2148,154.0308 L260.2148,155.0805 L262.2148,153.9955 L264.2148,154.6328" fill="none" style="stroke:#FF6F00;stroke-width:1;"/><text fill="#FFFFFF" font-family="'Roboto'" font-size="14" lengthAdjust="spacing" textLength="213.4453" x="271.2148" y="304.1123">Ownership &amp; Capital Structure</text><a href="/use-case/legal-entity-management/ownership-and-capital-structure/ownership/" target="_top" title="/use-case/legal-entity-management/ownership-and-capital-structure/ownership/" xlink:actuate="onRequest" xlink:href="/use-case/legal-entity-management/ownership-and-capital-structure/ownership/" xlink:show="new" xlink:title="/use-case/legal-entity-management/ownership-and-capital-structure/ownership/" xlink:type="simple"><text fill="#0000FF" font-family="'Roboto'" font-size="14" lengthAdjust="spacing" textLength="74.6553" x="545.6602" y="212.0732">Ownership</text></a><path d="M488.6602,299.2656 L488.6602,299.4525 L490.6602,298.8973 L492.6602,299.4374 L494.6602,299.6209 L496.6602,298.6315 L498.6602,299.2656 L498.6602,299.2656 L498.6308,299.2474 L500.2803,296.2896 L502.0778,293.4234 L503.9782,290.621 L505.5239,287.599 L507.5664,284.8845 L507.8068,284.9371 L507.9373,281.8766 L508.7696,278.9695 L509.6875,276.0811 L510.1073,273.0839 L510.7891,270.1439 L510.819,270.149 L511.3493,266.762 L512.0157,263.3981 L512.6165,260.023 L513.3426,256.6693 L513.6602,253.2461 L513.9542,253.2961 L514.532,249.9171 L514.9202,246.5059 L515.5859,243.1419 L516.2647,239.7801 L516.5313,236.3483 L516.2181,236.2798 L517.4704,233.4646 L517.6916,230.4239 L518.6966,227.5546 L518.8944,224.5088 L519.7539,221.6077 L519.728,221.5916 L521.8154,218.905 L523.298,215.8438 L525.1374,213.0036 L527.0069,210.182 L528.6602,207.2266 L528.6602,207.5965 L530.6602,207.2231 L532.6602,207.4819 L534.6602,206.7177 L536.6602,207.4794 L538.6602,207.2266" fill="none" style="stroke:#FF6F00;stroke-width:1;"/><a href="/use-case/legal-entity-management/ownership-and-capital-structure/control/" target="_top" title="/use-case/legal-entity-management/ownership-and-capital-structure/control/" xlink:actuate="onRequest" xlink:href="/use-case/legal-entity-management/ownership-and-capital-structure/control/" xlink:show="new" xlink:title="/use-case/legal-entity-management/ownership-and-capital-structure/control/" xlink:type="simple"><text fill="#0000FF" font-family="'Roboto'" font-size="14" lengthAdjust="spacing" textLength="50.9141" x="545.6602" y="238.3701">Control</text></a><path d="M488.6602,299.2656 L488.6602,299.4525 L490.6602,298.8973 L492.6602,299.4374 L494.6602,299.6209 L496.6602,298.6315 L498.6602,299.2656 L498.6602,299.2656 L498.6341,299.243 L500.2982,297.087 L502.0939,295.0451 L503.981,293.0825 L505.553,290.8466 L507.5664,288.9934 L507.8017,289.0654 L507.9431,286.8056 L508.7714,284.7561 L509.6836,282.7322 L510.1081,280.559 L510.7891,278.4644 L510.8186,278.4714 L511.3495,276.0471 L512.0147,273.6548 L512.6151,271.2471 L513.3392,268.8687 L513.6602,266.3945 L513.9503,266.4636 L514.5281,264.0504 L514.9187,261.5928 L515.5833,259.2003 L516.2607,256.8109 L516.5313,254.3247 L516.2248,254.2309 L517.4641,252.3071 L517.6943,250.0745 L518.6917,248.0767 L518.899,245.8371 L519.7539,243.7957 L519.7309,243.7757 L521.7842,241.9571 L523.3,239.6726 L525.133,237.663 L526.9926,235.6765 L528.6602,233.5234 L528.6602,233.8934 L530.6602,233.52 L532.6602,233.7787 L534.6602,233.0146 L536.6602,233.7762 L538.6602,233.5234" fill="none" style="stroke:#FF6F00;stroke-width:1;"/><a href="/use-case/legal-entity-management/ownership-and-capital-structure/shares/" target="_top" title="/use-case/legal-entity-management/ownership-and-capital-structure/shares/" xlink:actuate="onRequest" xlink:href="/use-case/legal-entity-management/ownership-and-capital-structure/shares/" xlink:show="new" xlink:title="/use-case/legal-entity-management/ownership-and-capital-structure/shares/" xlink:type="simple"><text fill="#0000FF" font-family="'Roboto'" font-size="14" lengthAdjust="spacing" textLength="142.4746" x="545.6602" y="264.667">Shares &amp; Ownership</text></a><path d="M488.6602,299.2656 L488.6602,299.4525 L490.6602,298.8973 L492.6602,299.4374 L494.6602,299.6209 L496.6602,298.6315 L498.6602,299.2656 L498.6602,299.2656 L498.6405,299.2372 L500.3335,297.8771 L502.1257,296.6601 L503.9867,295.5427 L505.6103,294.0823 L507.5664,293.1023 L507.7908,293.2032 L508.5296,290.2756 L509.9237,287.6425 L511.3978,285.0454 L512.4066,282.2392 L513.6602,279.543 L513.6878,279.5554 L514.866,276.8253 L516.17,274.1518 L517.4133,271.4509 L518.7726,268.8022 L519.7539,265.9836 L519.9236,266.2289 L521.7069,264.9992 L523.3808,263.6114 L525.2149,262.4551 L527.0565,261.3096 L528.6602,259.8203 L528.6602,259.1793 L530.6602,260.4234 L532.6602,259.5568 L534.6602,260.2948 L536.6602,259.3803 L538.6602,259.8203" fill="none" style="stroke:#FF6F00;stroke-width:1;"/><a href="/use-case/legal-entity-management/ownership-and-capital-structure/share-capital/" target="_top" title="/use-case/legal-entity-management/ownership-and-capital-structure/share-capital/" xlink:actuate="onRequest" xlink:href="/use-case/legal-entity-management/ownership-and-capital-structure/share-capital/" xlink:show="new" xlink:title="/use-case/legal-entity-management/ownership-and-capital-structure/share-capital/" xlink:type="simple"><text fill="#0000FF" font-family="'Roboto'" font-size="14" lengthAdjust="spacing" textLength="94.2471" x="545.6602" y="290.9639">Share Capital</text></a><path d="M488.6602,299.2656 L488.6602,299.4525 L490.6602,298.8973 L492.6602,299.4374 L494.6602,299.6209 L496.6602,298.6315 L498.6602,299.2656 L498.6602,299.2656 L498.6463,299.234 L501.5841,297.7772 L504.5917,296.4798 L507.648,295.2933 L510.5368,293.7248 L513.6602,292.6914 L513.7589,292.9168 L516.5477,291.12 L519.6249,289.9812 L522.7372,288.9227 L525.6449,287.3971 L528.6602,286.1172 L528.6602,286.1778 L530.6602,286.0888 L532.6602,286.2759 L534.6602,286.3298 L536.6602,286.6378 L538.6602,286.1172" fill="none" style="stroke:#FF6F00;stroke-width:1;"/><a href="/use-case/legal-entity-management/ownership-and-capital-structure/issued-capital/" target="_top" title="/use-case/legal-entity-management/ownership-and-capital-structure/issued-capital/" xlink:actuate="onRequest" xlink:href="/use-case/legal-entity-management/ownership-and-capital-structure/issued-capital/" xlink:show="new" xlink:title="/use-case/legal-entity-management/ownership-and-capital-structure/issued-capital/" xlink:type="simple"><text fill="#0000FF" font-family="'Roboto'" font-size="14" lengthAdjust="spacing" textLength="98.6289" x="545.6602" y="317.2607">Issued Capital</text></a><path d="M488.6602,299.2656 L488.6602,299.4525 L490.6602,298.8973 L492.6602,299.4374 L494.6602,299.6209 L496.6602,298.6315 L498.6602,299.2656 L498.6602,299.2656 L498.6463,299.234 L501.5841,300.4069 L504.5917,301.7392 L507.648,303.1824 L510.5368,304.2436 L513.6602,305.8398 L513.7589,306.0652 L516.5477,306.8981 L519.6249,308.389 L522.7372,309.9602 L525.6449,311.0643 L528.6602,312.4141 L528.6602,312.4747 L530.6602,312.3857 L532.6602,312.5728 L534.6602,312.6266 L536.6602,312.9347 L538.6602,312.4141" fill="none" style="stroke:#FF6F00;stroke-width:1;"/><a href="/use-case/legal-entity-management/ownership-and-capital-structure/corporate-actions/" target="_top" title="/use-case/legal-entity-management/ownership-and-capital-structure/corporate-actions/" xlink:actuate="onRequest" xlink:href="/use-case/legal-entity-management/ownership-and-capital-structure/corporate-actions/" xlink:show="new" xlink:title="/use-case/legal-entity-management/ownership-and-capital-structure/corporate-actions/" xlink:type="simple"><text fill="#0000FF" font-family="'Roboto'" font-size="14" lengthAdjust="spacing" textLength="125.8223" x="545.6602" y="343.5576">Corporate Actions</text></a><a href="/use-case/legal-entity-management/ownership-and-capital-structure/corporate-actions/merger-and-acquisition-history/" target="_top" title="/use-case/legal-entity-management/ownership-and-capital-structure/corporate-actions/merger-and-acquisition-history/" xlink:actuate="onRequest" xlink:href="/use-case/legal-entity-management/ownership-and-capital-structure/corporate-actions/merger-and-acquisition-history/" xlink:show="new" xlink:title="/use-case/legal-entity-management/ownership-and-capital-structure/corporate-actions/merger-and-acquisition-history/" xlink:type="simple"><text fill="#0000FF" font-family="'Roboto'" font-size="14" lengthAdjust="spacing" textLength="200.7031" x="736.9326" y="290.9639">Merger &amp; Acquisition History</text></a><path d="M679.9326,338.7109 L679.9326,338.8978 L681.9326,338.3427 L683.9326,338.8827 L685.9326,339.0662 L687.9326,338.0768 L689.9326,338.7109 L689.9326,338.7109 L689.9092,338.6856 L691.5853,336.9281 L693.3795,335.2986 L695.2558,333.758 L696.8492,331.9109 L698.8389,330.4932 L699.072,330.5718 L699.7922,326.7879 L701.1931,323.2334 L702.677,319.707 L703.6777,316.0177 L704.9326,312.4141 L704.9614,312.4237 L706.1379,308.7937 L707.4453,305.2078 L708.6896,301.6005 L710.0543,298.0339 L711.0264,294.335 L711.2286,294.5542 L713.0123,292.9133 L714.6656,291.131 L716.5098,289.5557 L718.363,287.9901 L719.9326,286.1172 L719.9326,285.4761 L721.9326,286.7203 L723.9326,285.8536 L725.9326,286.5917 L727.9326,285.6772 L729.9326,286.1172" fill="none" style="stroke:#FF6F00;stroke-width:1;"/><a href="/use-case/legal-entity-management/ownership-and-capital-structure/corporate-actions/spin-offs/" target="_top" title="/use-case/legal-entity-management/ownership-and-capital-structure/corporate-actions/spin-offs/" xlink:actuate="onRequest" xlink:href="/use-case/legal-entity-management/ownership-and-capital-structure/corporate-actions/spin-offs/" xlink:show="new" xlink:title="/use-case/legal-entity-management/ownership-and-capital-structure/corporate-actions/spin-offs/" xlink:type="simple"><text fill="#0000FF" font-family="'Roboto'" font-size="14" lengthAdjust="spacing" textLength="61.3047" x="736.9326" y="317.2607">Spin-offs</text></a><path d="M679.9326,338.7109 L679.9326,338.8978 L681.9326,338.3427 L683.9326,338.8827 L685.9326,339.0662 L687.9326,338.0768 L689.9326,338.7109 L689.9326,338.7109 L689.9099,338.685 L692.8077,335.9387 L695.8203,333.3234 L698.9126,330.7991 L701.7301,327.9611 L704.9326,325.5625 L705.0948,325.7475 L707.748,322.7222 L710.8747,320.237 L714.0592,317.8178 L716.9075,315.0151 L719.9326,312.4141 L719.9326,312.4747 L721.9326,312.3857 L723.9326,312.5728 L725.9326,312.6266 L727.9326,312.9347 L729.9326,312.4141" fill="none" style="stroke:#FF6F00;stroke-width:1;"/><a href="/use-case/legal-entity-management/ownership-and-capital-structure/corporate-actions/parents-and-subsidiaries/" target="_top" title="/use-case/legal-entity-management/ownership-and-capital-structure/corporate-actions/parents-and-subsidiaries/" xlink:actuate="onRequest" xlink:href="/use-case/legal-entity-management/ownership-and-capital-structure/corporate-actions/parents-and-subsidiaries/" xlink:show="new" xlink:title="/use-case/legal-entity-management/ownership-and-capital-structure/corporate-actions/parents-and-subsidiaries/" xlink:type="simple"><text fill="#0000FF" font-family="'Roboto'" font-size="14" lengthAdjust="spacing" textLength="173.0244" x="736.9326" y="343.5576">Parents and Subsidiaries</text></a><path d="M679.9326,338.7109 L679.9326,338.8978 L681.9326,338.3427 L683.9326,338.8827 L685.9326,339.0662 L687.9326,338.0768 L689.9326,338.7109 L689.9326,338.7109 L689.9326,338.6764 L695.9326,338.5214 L701.9326,338.5405 L707.9326,338.6806 L713.9326,338.4037 L719.9326,338.7109 L719.9326,339.2031 L721.9326,338.1507 L723.9326,338.5351 L725.9326,339.0949 L727.9326,338.6347 L729.9326,338.7109" fill="none" style="stroke:#FF6F00;stroke-width:1;"/><a href="/use-case/legal-entity-management/ownership-and-capital-structure/corporate-actions/stock-splits/" target="_top" title="/use-case/legal-entity-management/ownership-and-capital-structure/corporate-actions/stock-splits/" xlink:actuate="onRequest" xlink:href="/use-case/legal-entity-management/ownership-and-capital-structure/corporate-actions/stock-splits/" xlink:show="new" xlink:title="/use-case/legal-entity-management/ownership-and-capital-structure/corporate-actions/stock-splits/" xlink:type="simple"><text fill="#0000FF" font-family="'Roboto'" font-size="14" lengthAdjust="spacing" textLength="81.5322" x="736.9326" y="369.8545">Stock Splits</text></a><path d="M679.9326,338.7109 L679.9326,338.8978 L681.9326,338.3427 L683.9326,338.8827 L685.9326,339.0662 L687.9326,338.0768 L689.9326,338.7109 L689.9326,338.7109 L689.9099,338.685 L692.8077,341.1981 L695.8203,343.8421 L698.9126,346.5772 L701.7301,348.9986 L704.9326,351.8594 L705.0948,352.0444 L707.748,354.2784 L710.8747,357.0527 L714.0592,359.8928 L716.9075,362.3495 L719.9326,365.0078 L719.9326,365.0685 L721.9326,364.9794 L723.9326,365.1665 L725.9326,365.2204 L727.9326,365.5284 L729.9326,365.0078" fill="none" style="stroke:#FF6F00;stroke-width:1;"/><a href="/use-case/legal-entity-management/ownership-and-capital-structure/corporate-actions/dividends/" target="_top" title="/use-case/legal-entity-management/ownership-and-capital-structure/corporate-actions/dividends/" xlink:actuate="onRequest" xlink:href="/use-case/legal-entity-management/ownership-and-capital-structure/corporate-actions/dividends/" xlink:show="new" xlink:title="/use-case/legal-entity-management/ownership-and-capital-structure/corporate-actions/dividends/" xlink:type="simple"><text fill="#0000FF" font-family="'Roboto'" font-size="14" lengthAdjust="spacing" textLength="69.3984" x="736.9326" y="396.1514">Dividends</text></a><path d="M679.9326,338.7109 L679.9326,338.8978 L681.9326,338.3427 L683.9326,338.8827 L685.9326,339.0662 L687.9326,338.0768 L689.9326,338.7109 L689.9326,338.7109 L689.9092,338.6856 L691.5853,340.2152 L693.3795,341.8728 L695.2558,343.6193 L696.8492,345.0593 L698.8389,346.9287 L699.072,347.0073 L699.7922,350.4551 L701.1931,354.1323 L702.677,357.8375 L703.6777,361.3798 L704.9326,365.0078 L704.9614,365.0175 L706.1379,368.6191 L707.4453,372.2648 L708.6896,375.8892 L710.0543,379.5542 L711.0264,383.0869 L711.2286,383.3061 L713.0123,384.9523 L714.6656,386.4572 L716.5098,388.169 L718.363,389.8905 L719.9326,391.3047 L719.9326,390.6636 L721.9326,391.9078 L723.9326,391.0411 L725.9326,391.7792 L727.9326,390.8647 L729.9326,391.3047" fill="none" style="stroke:#FF6F00;stroke-width:1;"/><path d="M488.6602,299.2656 L488.6602,299.4525 L490.6602,298.8973 L492.6602,299.4374 L494.6602,299.6209 L496.6602,298.6315 L498.6602,299.2656 L498.6602,299.2656 L498.6405,299.2372 L500.3335,300.3424 L502.1257,301.5908 L503.9867,302.9387 L505.6103,303.9436 L507.5664,305.429 L507.7908,305.5298 L508.5296,308.026 L509.9237,310.8167 L511.3978,313.6432 L512.4066,316.2608 L513.6602,318.9883 L513.6878,319.0007 L514.866,321.6943 L516.17,324.4445 L517.4133,327.1674 L518.7726,329.9424 L519.7539,332.5476 L519.9236,332.7929 L521.7069,334.0285 L523.3808,335.106 L525.2149,336.415 L527.0565,337.7349 L528.6602,338.7109 L528.6602,338.0699 L530.6602,339.3141 L532.6602,338.4474 L534.6602,339.1854 L536.6602,338.2709 L538.6602,338.7109" fill="none" style="stroke:#FF6F00;stroke-width:1;"/><path d="M214.2148,365.0078 L214.2148,365.1946 L216.2148,364.6395 L218.2148,365.1796 L220.2148,365.3631 L222.2148,364.3737 L224.2148,365.0078 L224.2148,365.0078 L224.1887,364.9852 L225.8529,362.8292 L227.6486,360.7873 L229.5357,358.8246 L231.1077,356.5887 L233.1211,354.7356 L233.3564,354.8076 L233.4978,352.5478 L234.3261,350.4983 L235.2383,348.4744 L235.6628,346.3012 L236.3438,344.2066 L236.3733,344.2136 L236.9042,341.7893 L237.5694,339.397 L238.1698,336.9893 L238.8939,334.6109 L239.2148,332.1367 L239.505,332.2057 L240.0828,329.7926 L240.4734,327.335 L241.1379,324.9425 L241.8153,322.5531 L242.0859,320.0669 L241.7794,319.9731 L243.0188,318.0493 L243.249,315.8167 L244.2464,313.8189 L244.4537,311.5793 L245.3086,309.5378 L245.2856,309.5179 L247.3389,307.6993 L248.8547,305.4148 L250.6877,303.4052 L252.5473,301.4187 L254.2148,299.2656 L254.2148,299.6356 L256.2148,299.2622 L258.2148,299.5209 L260.2148,298.7568 L262.2148,299.5184 L264.2148,299.2656" fill="none" style="stroke:#FF6F00;stroke-width:1;"/><text fill="#FFFFFF" font-family="'Roboto'" font-size="14" lengthAdjust="spacing" textLength="148.0596" x="271.2148" y="475.042">Financial Information</text><a href="/use-case/legal-entity-management/financial-information/assets/" target="_top" title="/use-case/legal-entity-management/financial-information/assets/" xlink:actuate="onRequest" xlink:href="/use-case/legal-entity-management/financial-information/assets/" xlink:show="new" xlink:title="/use-case/legal-entity-management/financial-information/assets/" xlink:type="simple"><text fill="#0000FF" font-family="'Roboto'" font-size="14" lengthAdjust="spacing" textLength="45.5615" x="480.2744" y="422.4482">Assets</text></a><path d="M423.2744,470.1953 L423.2744,470.3821 L425.2744,469.827 L427.2744,470.3671 L429.2744,470.5506 L431.2744,469.5612 L433.2744,470.1953 L433.2744,470.1953 L433.251,470.1699 L434.9271,468.4124 L436.7213,466.7829 L438.5976,465.2424 L440.191,463.3953 L442.1807,461.9775 L442.4138,462.0561 L443.134,458.2722 L444.5349,454.7178 L446.0188,451.1914 L447.0195,447.5021 L448.2744,443.8984 L448.3032,443.9081 L449.4797,440.2781 L450.7871,436.6921 L452.0314,433.0849 L453.3961,429.5183 L454.3682,425.8193 L454.5704,426.0385 L456.3541,424.3977 L458.0074,422.6154 L459.8516,421.0401 L461.7048,419.4745 L463.2744,417.6016 L463.2744,416.9605 L465.2744,418.2047 L467.2744,417.338 L469.2744,418.0761 L471.2744,417.1615 L473.2744,417.6016" fill="none" style="stroke:#FF6F00;stroke-width:1;"/><a href="/use-case/legal-entity-management/financial-information/fundamentals/" target="_top" title="/use-case/legal-entity-management/financial-information/fundamentals/" xlink:actuate="onRequest" xlink:href="/use-case/legal-entity-management/financial-information/fundamentals/" xlink:show="new" xlink:title="/use-case/legal-entity-management/financial-information/fundamentals/" xlink:type="simple"><text fill="#0000FF" font-family="'Roboto'" font-size="14" lengthAdjust="spacing" textLength="99.6406" x="480.2744" y="448.7451">Fundamentals</text></a><path d="M423.2744,470.1953 L423.2744,470.3821 L425.2744,469.827 L427.2744,470.3671 L429.2744,470.5506 L431.2744,469.5612 L433.2744,470.1953 L433.2744,470.1953 L433.2516,470.1693 L436.1495,467.4231 L439.1621,464.8078 L442.2544,462.2835 L445.0719,459.4455 L448.2744,457.0469 L448.4366,457.2319 L451.0898,454.2065 L454.2165,451.7214 L457.401,449.3022 L460.2493,446.4995 L463.2744,443.8984 L463.2744,443.9591 L465.2744,443.87 L467.2744,444.0571 L469.2744,444.111 L471.2744,444.4191 L473.2744,443.8984" fill="none" style="stroke:#FF6F00;stroke-width:1;"/><a href="/use-case/legal-entity-management/financial-information/earnings-estimates/" target="_top" title="/use-case/legal-entity-management/financial-information/earnings-estimates/" xlink:actuate="onRequest" xlink:href="/use-case/legal-entity-management/financial-information/earnings-estimates/" xlink:show="new" xlink:title="/use-case/legal-entity-management/financial-information/earnings-estimates/" xlink:type="simple"><text fill="#0000FF" font-family="'Roboto'" font-size="14" lengthAdjust="spacing" textLength="134.5791" x="480.2744" y="475.042">Earnings Estimates</text></a><path d="M423.2744,470.1953 L423.2744,470.3821 L425.2744,469.827 L427.2744,470.3671 L429.2744,470.5506 L431.2744,469.5612 L433.2744,470.1953 L433.2744,470.1953 L433.2744,470.1608 L439.2744,470.0058 L445.2744,470.0249 L451.2744,470.165 L457.2744,469.888 L463.2744,470.1953 L463.2744,470.6874 L465.2744,469.6351 L467.2744,470.0195 L469.2744,470.5793 L471.2744,470.1191 L473.2744,470.1953" fill="none" style="stroke:#FF6F00;stroke-width:1;"/><a href="/use-case/legal-entity-management/financial-information/ratings/" target="_top" title="/use-case/legal-entity-management/financial-information/ratings/" xlink:actuate="onRequest" xlink:href="/use-case/legal-entity-management/financial-information/ratings/" xlink:show="new" xlink:title="/use-case/legal-entity-management/financial-information/ratings/" xlink:type="simple"><text fill="#0000FF" font-family="'Roboto'" font-size="14" lengthAdjust="spacing" textLength="52.7393" x="480.2744" y="501.3389">Ratings</text></a><path d="M423.2744,470.1953 L423.2744,470.3821 L425.2744,469.827 L427.2744,470.3671 L429.2744,470.5506 L431.2744,469.5612 L433.2744,470.1953 L433.2744,470.1953 L433.2516,470.1693 L436.1495,472.6825 L439.1621,475.3265 L442.2544,478.0616 L445.0719,480.483 L448.2744,483.3438 L448.4366,483.5288 L451.0898,485.7628 L454.2165,488.537 L457.401,491.3772 L460.2493,493.8338 L463.2744,496.4922 L463.2744,496.5528 L465.2744,496.4638 L467.2744,496.6509 L469.2744,496.7048 L471.2744,497.0128 L473.2744,496.4922" fill="none" style="stroke:#FF6F00;stroke-width:1;"/><a href="/use-case/legal-entity-management/financial-information/liability-terms/" target="_top" title="/use-case/legal-entity-management/financial-information/liability-terms/" xlink:actuate="onRequest" xlink:href="/use-case/legal-entity-management/financial-information/liability-terms/" xlink:show="new" xlink:title="/use-case/legal-entity-management/financial-information/liability-terms/" xlink:type="simple"><text fill="#0000FF" font-family="'Roboto'" font-size="14" lengthAdjust="spacing" textLength="102.9014" x="480.2744" y="527.6357">Liability Terms</text></a><path d="M423.2744,470.1953 L423.2744,470.3821 L425.2744,469.827 L427.2744,470.3671 L429.2744,470.5506 L431.2744,469.5612 L433.2744,470.1953 L433.2744,470.1953 L433.251,470.1699 L434.9271,471.6996 L436.7213,473.3572 L438.5976,475.1037 L440.191,476.5437 L442.1807,478.4131 L442.4138,478.4917 L443.134,481.9394 L444.5349,485.6167 L446.0188,489.3219 L447.0195,492.8642 L448.2744,496.4922 L448.3032,496.5019 L449.4797,500.1035 L450.7871,503.7492 L452.0314,507.3736 L453.3961,511.0386 L454.3682,514.5713 L454.5704,514.7905 L456.3541,516.4367 L458.0074,517.9416 L459.8516,519.6534 L461.7048,521.3749 L463.2744,522.7891 L463.2744,522.148 L465.2744,523.3922 L467.2744,522.5255 L469.2744,523.2636 L471.2744,522.349 L473.2744,522.7891" fill="none" style="stroke:#FF6F00;stroke-width:1;"/><path d="M214.2148,365.0078 L214.2148,365.1946 L216.2148,364.6395 L218.2148,365.1796 L220.2148,365.3631 L222.2148,364.3737 L224.2148,365.0078 L224.2148,365.0078 L224.1845,364.9914 L225.8294,368.2046 L227.6275,371.5008 L229.532,374.8547 L231.0697,378.0099 L233.1211,381.4434 L233.3628,381.4896 L233.4905,384.76 L234.3238,388.1654 L235.2432,391.5873 L235.6618,394.9133 L236.3438,398.2898 L236.3737,398.2943 L236.9039,402.1501 L237.5707,406.0262 L238.1715,409.8925 L238.8981,413.7775 L239.2148,417.6016 L239.5098,417.6454 L240.0877,421.5083 L240.4752,425.3429 L241.1413,429.2189 L241.8204,433.0969 L242.0859,436.9133 L241.7711,436.8531 L243.0267,440.3393 L243.2456,443.6271 L244.2526,447.0658 L244.448,450.3491 L245.3086,453.7598 L245.2818,453.7453 L247.3796,457.2039 L248.8521,460.3237 L250.6935,463.6434 L252.5659,466.9799 L254.2148,470.1953 L254.2148,470.5653 L256.2148,470.1918 L258.2148,470.4506 L260.2148,469.6865 L262.2148,470.4481 L264.2148,470.1953" fill="none" style="stroke:#FF6F00;stroke-width:1;"/><text fill="#FFFFFF" font-family="'Roboto'" font-size="14" lengthAdjust="spacing" textLength="125.8428" x="271.2148" y="567.0811">Lifecycle &amp; Status</text><a href="/use-case/legal-entity-management/lifecycle-and-status/dissolution/" target="_top" title="/use-case/legal-entity-management/lifecycle-and-status/dissolution/" xlink:actuate="onRequest" xlink:href="/use-case/legal-entity-management/lifecycle-and-status/dissolution/" xlink:show="new" xlink:title="/use-case/legal-entity-management/lifecycle-and-status/dissolution/" xlink:type="simple"><text fill="#0000FF" font-family="'Roboto'" font-size="14" lengthAdjust="spacing" textLength="77.4033" x="458.0576" y="553.9326">Dissolution</text></a><path d="M401.0576,562.2344 L401.0576,562.4212 L403.0576,561.8661 L405.0576,562.4062 L407.0576,562.5896 L409.0576,561.6002 L411.0576,562.2344 L411.0576,562.2344 L411.0438,562.2027 L413.9815,560.7459 L416.9892,559.4486 L420.0455,558.2621 L422.9343,556.6936 L426.0576,555.6602 L426.1564,555.8855 L428.9452,554.0887 L432.0223,552.95 L435.1347,551.8915 L438.0423,550.3659 L441.0576,549.0859 L441.0576,549.1466 L443.0576,549.0575 L445.0576,549.2446 L447.0576,549.2985 L449.0576,549.6066 L451.0576,549.0859" fill="none" style="stroke:#FF6F00;stroke-width:1;"/><a href="/use-case/legal-entity-management/lifecycle-and-status/liquidation/" target="_top" title="/use-case/legal-entity-management/lifecycle-and-status/liquidation/" xlink:actuate="onRequest" xlink:href="/use-case/legal-entity-management/lifecycle-and-status/liquidation/" xlink:show="new" xlink:title="/use-case/legal-entity-management/lifecycle-and-status/liquidation/" xlink:type="simple"><text fill="#0000FF" font-family="'Roboto'" font-size="14" lengthAdjust="spacing" textLength="77.6221" x="458.0576" y="580.2295">Liquidation</text></a><path d="M401.0576,562.2344 L401.0576,562.4212 L403.0576,561.8661 L405.0576,562.4062 L407.0576,562.5896 L409.0576,561.6002 L411.0576,562.2344 L411.0576,562.2344 L411.0438,562.2027 L413.9815,563.3756 L416.9892,564.708 L420.0455,566.1512 L422.9343,567.2123 L426.0576,568.8086 L426.1564,569.034 L428.9452,569.8669 L432.0223,571.3578 L435.1347,572.929 L438.0423,574.0331 L441.0576,575.3828 L441.0576,575.4435 L443.0576,575.3544 L445.0576,575.5415 L447.0576,575.5954 L449.0576,575.9034 L451.0576,575.3828" fill="none" style="stroke:#FF6F00;stroke-width:1;"/><path d="M214.2148,365.0078 L214.2148,365.1946 L216.2148,364.6395 L218.2148,365.1796 L220.2148,365.3631 L222.2148,364.3737 L224.2148,365.0078 L224.2148,365.0078 L224.1851,364.9903 L225.0475,366.6067 L226.0601,368.3113 L227.177,370.0772 L227.9343,371.6318 L229.1953,373.4824 L229.436,373.5337 L229.3359,375.3693 L229.9384,377.3547 L230.6267,379.3583 L230.8162,381.2556 L231.2681,383.2089 L231.2981,383.2133 L231.6246,385.7299 L232.0878,388.2667 L232.485,390.7937 L233.008,393.3392 L233.1211,395.8245 L233.4175,395.8578 L233.7565,398.8435 L233.9045,401.8078 L234.3322,404.8036 L234.773,407.8008 L234.7983,410.7513 L234.4792,410.7217 L235.4077,414.1112 L235.2853,417.4032 L235.9618,420.7693 L235.8156,424.0592 L236.3438,427.4115 L236.3134,427.4091 L237.2465,434.6795 L237.4706,441.8936 L238.1131,449.141 L238.7907,456.3911 L239.2148,463.6211 L239.3993,463.6357 L239.7873,470.8629 L240.4905,478.115 L240.6839,485.3267 L241.6377,492.5987 L242.0859,499.8307 L242.3285,499.8532 L242.5917,503.181 L242.9754,506.5199 L242.7994,509.807 L243.0336,513.1321 L243.6313,516.4909 L243.3569,516.4601 L243.9408,519.4734 L244.2154,522.4519 L244.9387,525.4808 L244.896,528.4237 L245.3086,531.4177 L245.1577,531.3956 L245.7796,533.9556 L245.7566,536.4209 L246.1921,538.9535 L247.0764,541.5521 L247.1616,544.0333 L247.351,544.0736 L247.8954,546.0466 L247.8508,547.8941 L248.544,549.8988 L249.0765,551.8692 L249.2344,553.7598 L249.0534,553.6534 L250.1937,555.4331 L251.2748,557.178 L252.4724,558.9913 L253.2171,560.5385 L254.2148,562.2344 L254.2148,562.6455 L256.2148,561.7421 L258.2148,561.6324 L260.2148,562.682 L262.2148,561.5971 L264.2148,562.2344" fill="none" style="stroke:#FF6F00;stroke-width:1;"/><text fill="#FFFFFF" font-family="'Roboto'" font-size="14" lengthAdjust="spacing" textLength="219.4814" x="271.2148" y="619.6748">Contact &amp; Location Information</text><a href="/use-case/legal-entity-management/contact-and-location-information/contacts/" target="_top" title="/use-case/legal-entity-management/contact-and-location-information/contacts/" xlink:actuate="onRequest" xlink:href="/use-case/legal-entity-management/contact-and-location-information/contacts/" xlink:show="new" xlink:title="/use-case/legal-entity-management/contact-and-location-information/contacts/" xlink:type="simple"><text fill="#0000FF" font-family="'Roboto'" font-size="14" lengthAdjust="spacing" textLength="61.7627" x="551.6963" y="606.5264">Contacts</text></a><path d="M494.6963,614.8281 L494.6963,615.015 L496.6963,614.4598 L498.6963,614.9999 L500.6963,615.1834 L502.6963,614.194 L504.6963,614.8281 L504.6963,614.8281 L504.6824,614.7965 L507.6202,613.3397 L510.6279,612.0423 L513.6841,610.8558 L516.5729,609.2873 L519.6963,608.2539 L519.7951,608.4793 L522.5838,606.6825 L525.661,605.5437 L528.7734,604.4852 L531.681,602.9596 L534.6963,601.6797 L534.6963,601.7403 L536.6963,601.6513 L538.6963,601.8384 L540.6963,601.8923 L542.6963,602.2003 L544.6963,601.6797" fill="none" style="stroke:#FF6F00;stroke-width:1;"/><a href="/use-case/legal-entity-management/contact-and-location-information/addresses/" target="_top" title="/use-case/legal-entity-management/contact-and-location-information/addresses/" xlink:actuate="onRequest" xlink:href="/use-case/legal-entity-management/contact-and-location-information/addresses/" xlink:show="new" xlink:title="/use-case/legal-entity-management/contact-and-location-information/addresses/" xlink:type="simple"><text fill="#0000FF" font-family="'Roboto'" font-size="14" lengthAdjust="spacing" textLength="72.2148" x="551.6963" y="632.8232">Addresses</text></a><path d="M494.6963,614.8281 L494.6963,615.015 L496.6963,614.4598 L498.6963,614.9999 L500.6963,615.1834 L502.6963,614.194 L504.6963,614.8281 L504.6963,614.8281 L504.6824,614.7965 L507.6202,615.9694 L510.6279,617.3017 L513.6841,618.7449 L516.5729,619.8061 L519.6963,621.4023 L519.7951,621.6277 L522.5838,622.4606 L525.661,623.9515 L528.7734,625.5227 L531.681,626.6268 L534.6963,627.9766 L534.6963,628.0372 L536.6963,627.9482 L538.6963,628.1353 L540.6963,628.1891 L542.6963,628.4972 L544.6963,627.9766" fill="none" style="stroke:#FF6F00;stroke-width:1;"/><path d="M214.2148,365.0078 L214.2148,365.1946 L216.2148,364.6395 L218.2148,365.1796 L220.2148,365.3631 L222.2148,364.3737 L224.2148,365.0078 L224.2148,365.0078 L224.1835,364.9933 L225.039,367.0749 L226.0524,369.2299 L227.1756,371.4357 L227.9205,373.4661 L229.1953,375.7423 L229.438,375.7831 L229.3336,378.1599 L229.9377,380.6558 L230.6283,383.1663 L230.8159,385.5921 L231.2681,388.0625 L231.2982,388.066 L231.6246,391.2568 L232.0881,394.4635 L232.4855,397.6626 L233.0091,400.8763 L233.1211,404.0422 L233.4182,404.0686 L233.7573,407.8504 L233.9047,411.6152 L234.3327,415.4048 L234.7738,419.1957 L234.7983,422.9495 L234.4787,422.9261 L235.4082,427.1922 L235.2851,431.3811 L235.9622,435.6287 L235.8152,439.8159 L236.3438,444.0525 L236.2526,444.0468 L237.9048,453.2874 L237.4273,462.3946 L238.2065,471.5806 L239.0912,480.7731 L239.2148,489.918 L239.7687,489.9526 L239.7839,499.0907 L240.7455,508.2881 L240.1758,517.3896 L241.8902,526.634 L242.0859,535.7834 L242.3289,535.8012 L242.5921,540.0184 L242.9758,544.2445 L242.7991,548.4295 L243.0332,552.6446 L243.6313,556.8864 L243.3563,556.862 L243.9407,560.6655 L244.2152,564.4416 L244.9394,568.2575 L244.8958,572.0054 L245.3086,575.7937 L245.1571,575.7761 L245.78,579.0013 L245.7554,582.1514 L246.1912,585.355 L247.0775,588.6107 L247.1616,591.7734 L247.3526,591.8055 L247.8981,594.2916 L247.8497,596.6778 L248.5452,599.1891 L249.0786,601.6731 L249.2344,604.0937 L249.0439,604.0053 L250.1918,606.2226 L251.2774,608.411 L252.4854,610.6563 L253.2171,612.6804 L254.2148,614.8281 L254.2148,615.2393 L256.2148,614.3359 L258.2148,614.2261 L260.2148,615.2758 L262.2148,614.1908 L264.2148,614.8281" fill="none" style="stroke:#FF6F00;stroke-width:1;"/><text fill="#FFFFFF" font-family="'Roboto'" font-size="14" lengthAdjust="spacing" textLength="210.1504" x="271.2148" y="672.2686">Compliance &amp; Documentation</text><a href="/use-case/legal-entity-management/compliance-and-documentation/compliance/" target="_top" title="/use-case/legal-entity-management/compliance-and-documentation/compliance/" xlink:actuate="onRequest" xlink:href="/use-case/legal-entity-management/compliance-and-documentation/compliance/" xlink:show="new" xlink:title="/use-case/legal-entity-management/compliance-and-documentation/compliance/" xlink:type="simple"><text fill="#0000FF" font-family="'Roboto'" font-size="14" lengthAdjust="spacing" textLength="82.4072" x="542.3652" y="659.1201">Compliance</text></a><path d="M485.3652,667.4219 L485.3652,667.6087 L487.3652,667.0536 L489.3652,667.5937 L491.3652,667.7771 L493.3652,666.7877 L495.3652,667.4219 L495.3652,667.4219 L495.3514,667.3902 L498.2891,665.9334 L501.2968,664.6361 L504.3531,663.4496 L507.2419,661.8811 L510.3652,660.8477 L510.464,661.073 L513.2528,659.2762 L516.33,658.1375 L519.4423,657.079 L522.3499,655.5534 L525.3652,654.2734 L525.3652,654.3341 L527.3652,654.245 L529.3652,654.4321 L531.3652,654.486 L533.3652,654.7941 L535.3652,654.2734" fill="none" style="stroke:#FF6F00;stroke-width:1;"/><a href="/use-case/legal-entity-management/compliance-and-documentation/documents/" target="_top" title="/use-case/legal-entity-management/compliance-and-documentation/documents/" xlink:actuate="onRequest" xlink:href="/use-case/legal-entity-management/compliance-and-documentation/documents/" xlink:show="new" xlink:title="/use-case/legal-entity-management/compliance-and-documentation/documents/" xlink:type="simple"><text fill="#0000FF" font-family="'Roboto'" font-size="14" lengthAdjust="spacing" textLength="79.8232" x="542.3652" y="685.417">Documents</text></a><path d="M485.3652,667.4219 L485.3652,667.6087 L487.3652,667.0536 L489.3652,667.5937 L491.3652,667.7771 L493.3652,666.7877 L495.3652,667.4219 L495.3652,667.4219 L495.3514,667.3902 L498.2891,668.5631 L501.2968,669.8955 L504.3531,671.3387 L507.2419,672.3998 L510.3652,673.9961 L510.464,674.2215 L513.2528,675.0544 L516.33,676.5453 L519.4423,678.1165 L522.3499,679.2206 L525.3652,680.5703 L525.3652,680.631 L527.3652,680.5419 L529.3652,680.729 L531.3652,680.7829 L533.3652,681.0909 L535.3652,680.5703" fill="none" style="stroke:#FF6F00;stroke-width:1;"/><path d="M214.2148,365.0078 L214.2148,365.1946 L216.2148,364.6395 L218.2148,365.1796 L220.2148,365.3631 L222.2148,364.3737 L224.2148,365.0078 L224.2148,365.0078 L224.1826,364.9955 L225.0339,367.5388 L226.0479,370.1446 L227.1748,372.7936 L227.9123,375.2933 L229.1953,378.0022 L229.439,378.036 L229.3324,380.9464 L229.9374,383.9557 L230.6291,386.977 L230.8158,389.9281 L231.2681,392.9161 L231.2983,392.919 L231.6245,396.7836 L232.0883,400.6613 L232.4857,404.5326 L233.0096,408.4161 L233.1211,412.26 L233.4185,412.2818 L233.7576,416.8596 L233.9049,421.4234 L234.3329,426.0077 L234.7742,430.593 L234.7983,435.1478 L234.4784,435.1284 L235.4084,440.2751 L235.285,445.3581 L235.9624,450.4896 L235.8151,455.5711 L236.3438,460.6935 L236.2525,460.6888 L237.8098,469.9981 L237.2359,479.1973 L237.9195,488.4614 L238.7087,497.731 L239.2906,506.9899 L239.2148,516.2148 L239.2096,516.2146 L240.0758,525.4882 L239.4097,534.6825 L241.0291,543.9951 L241.8589,553.2668 L242.1993,562.5132 L242.0859,571.7362 L242.3579,571.7526 L242.1807,576.8324 L242.4148,581.937 L242.7375,587.0469 L243.2961,592.1712 L243.6313,597.2819 L243.5442,597.2755 L244.2688,601.8816 L244.2248,606.4313 L244.4856,611.0034 L245.0743,615.5995 L245.3086,620.1697 L245.0136,620.1414 L245.4495,624.0165 L246.3369,627.9347 L246.6132,631.7945 L247.116,635.6759 L247.1616,639.5135 L247.02,639.4939 L247.7167,642.5159 L248.2506,645.5153 L248.1973,648.433 L248.7776,651.4389 L249.2344,654.4275 L249.2867,654.4476 L250.501,657.1301 L251.2248,659.6246 L252.4146,662.2977 L252.9889,664.7349 L254.2148,667.4219 L254.2148,666.8199 L256.2148,667.8695 L258.2148,666.7846 L260.2148,667.8743 L262.2148,667.6055 L264.2148,667.4219" fill="none" style="stroke:#FF6F00;stroke-width:1;"/><text fill="#FFFFFF" font-family="'Roboto'" font-size="14" lengthAdjust="spacing" textLength="162.7295" x="271.2148" y="711.7139">Supporting Information</text><a href="/use-case/legal-entity-management/supporting-information/currencies/" target="_top" title="/use-case/legal-entity-management/supporting-information/currencies/" xlink:actuate="onRequest" xlink:href="/use-case/legal-entity-management/supporting-information/currencies/" xlink:show="new" xlink:title="/use-case/legal-entity-management/supporting-information/currencies/" xlink:type="simple"><text fill="#0000FF" font-family="'Roboto'" font-size="14" lengthAdjust="spacing" textLength="75.1406" x="494.9443" y="711.7139">Currencies</text></a><path d="M437.9443,706.8672 L437.9443,707.054 L439.9443,706.4989 L441.9443,707.039 L443.9443,707.2225 L445.9443,706.2331 L447.9443,706.8672 L447.9443,706.8672 L447.9443,706.8326 L453.9443,706.6776 L459.9443,706.6967 L465.9443,706.8369 L471.9443,706.5599 L477.9443,706.8672 L477.9443,707.3593 L479.9443,706.3069 L481.9443,706.6914 L483.9443,707.2511 L485.9443,706.7909 L487.9443,706.8672" fill="none" style="stroke:#FF6F00;stroke-width:1;"/><path d="M214.2148,365.0078 L214.2148,365.1946 L216.2148,364.6395 L218.2148,365.1796 L220.2148,365.3631 L222.2148,364.3737 L224.2148,365.0078 L224.2148,365.0078 L224.1821,364.9967 L225.0314,367.8848 L226.0456,370.8288 L227.1744,373.8116 L227.9082,376.6606 L229.1953,379.6971 L229.4395,379.7271 L229.3318,383.0348 L229.9372,386.4301 L230.6295,389.8361 L230.8157,393.1799 L231.2681,396.5564 L231.2983,396.5589 L231.6245,400.9286 L232.0883,405.3099 L232.4858,409.6855 L233.0099,414.0719 L233.1211,418.4233 L233.4187,418.4426 L233.7578,423.6175 L233.9049,428.7799 L234.333,433.9606 L234.7743,439.142 L234.7983,444.2965 L234.4783,444.2794 L235.4086,450.0882 L235.2849,455.8406 L235.9625,461.6358 L235.815,467.3869 L236.3438,473.1743 L236.2525,473.1701 L237.81,483.68 L237.2359,494.0924 L237.9196,504.5623 L238.7088,515.0371 L239.2907,525.5023 L239.2148,535.9375 L239.2096,535.9373 L240.0759,546.4155 L239.4094,556.8237 L241.0292,567.3364 L241.8591,577.8131 L242.1995,588.2673 L242.0859,598.7007 L242.358,598.7153 L242.1806,604.4648 L242.4147,610.2364 L242.7374,616.0126 L243.2961,621.8016 L243.6313,627.5785 L243.5442,627.5729 L244.269,632.7727 L244.2248,637.9228 L244.4855,643.0925 L245.0744,648.2836 L245.3086,653.4517 L245.0133,653.4266 L245.4493,657.8056 L246.3372,662.2228 L246.6133,666.5882 L247.1163,670.9728 L247.1616,675.3186 L247.0197,675.3012 L247.717,678.7078 L248.2512,682.0944 L248.1969,685.4086 L248.7775,688.8009 L249.2344,692.1779 L249.2874,692.1959 L250.5048,695.2088 L251.2248,698.053 L252.4174,701.0575 L252.9857,703.8503 L254.2148,706.8672 L254.2148,706.2652 L256.2148,707.3148 L258.2148,706.2299 L260.2148,707.3196 L262.2148,707.0509 L264.2148,706.8672" fill="none" style="stroke:#FF6F00;stroke-width:1;"/><!--SRC=[xLbRRzis57xNh-0Qe1Tqhk8kBOgYAEeuJfhMYGCxAJ0KHK1Bj4r49bsIIfeE- -yxf4HTRDcn7AbhD_l54ddudGl9GnvzxwJ2GaqfywTuvZY_-MH46K7xHvSdhUFJotQls-iZyzlPsttH7Bx8YWmwxTxfGQl_PonN87BMQdzi7NKIe0MHNl-Wqy_gGJkZqSlHxcuYSjWxFSy9617zSnnvHTaC2pn5G-nTZGKFcT_c0HTeHmdC9FGHfXpd4QBC2qAV83KXQ4mO4JX0oMY9HZ1aoDNaTnJGyKGXp7paOt458nL7_9g86q4LGJTKJI8CUaqOaaGfoiPotf_pzyVjZwUTmG0r8QXyfYXdQ0AW6aN1m14E9CcOVuPz7u3GNgQj7taZm5ZqAjC-c62VtsZfUPJtjpCY0igkBfXl7aWiaf4v82CS1WhzvHnofaxnbA07VGw-ymUc9GfV6dJJEA3V2MhkENzdaLf2y1l0AHnH3ADk0uWH3_myqWmc3uz9RDF2qFsvkSsjJcUV2t0sxiai9r2HQc3SBmEVMxRhQV3uTCOPh3PGiw71XTP5CGkdmVDyp7oiy11BKh6wd0uluA5Vgm8U1CJJkqDMhYRLqWO1mOCQDUnhI2nkQrJHOOggEXLGfeWOOO_Kg6D0leQ4UUGC3XtgqHbcAW8xdr3lYX4f8M6cuZ8M1uko8rOQjm1TO6T69arBZ8if3kRx5jpfqX7fGcPT2fu8h3JJ9Cy5SDEw5Ddq5XfbUj8O_k6qFCN57HOOaQMwTE-o3Vm8jVUGZXeSGl2oS-Slk-S5R7ZCnW5vymPEAydPsxSmlmDOV8GhEC2MdXvLdGlpAsx-pCwdg8ovv1iOoN1mMRtTSrUf6eoNjrAHwQyNw-hjhYdMza3-DKATMllhHJgpJ8RnmHjPFNSnpdjXxh2xTz_sDl9zjMFH0UDZEI7-EhuMkkg1OWpdYbZNLxYlhrvADNYwUWgpHxl2gkYcOGl4LBajzbfA2JeC5IdeIWzJMprcxRHjStTRB6Kf0vP0Fa8dKVcCv8nuT4GzS2uw6XVgZtihIn5n_iY7EjDvYZv_HcueISE3dUq6P8o31Z7tniOKCwYmfl3cegxki1VAawG3VVdYF7rwYOvzFGRymAPiVOZwP4mbrDFw5IH0P2qzD8VJWEgt8J98yJYelAVMf4DuZgoeIiSmb5J79z-AzkFcd6lLQePwS4g4Hs5mr4w42vM8ROmrGsbVhLQzgfD-K9XxjpFSvcB6XTw0H_hJ1iDmnovXX6U7DyR9SDUdEbTn8ITq9brqa7qjvsCXlAHZXW6F4W0Vf2yLG7Cnnen-Dn62KH3Bq5EX82xgvNhWnXlts3ZsRY0TQmzXaxJnZAgiK0cpkCKn4-f5I1b3adutexAKutTfyA8IsKrgvKhHvGGBCs_c7u9LanT6ZssFrIKJKwacAcL8_5JLiNclHrUwQ77qgSJDRE1M_FKaqbYVIaXROoACEFQ-XbHIau0ca7guk7NHYUc7gMsblUXzr5kxSN96MOEFHdg9sSVQbKRVbgMHb-5GKf_YA3sTHJtc8_8WqrD_71JthXfo5b2bGw7V823whNRLFhtMPvDlKd_yQDFa8TM9LXzwnqmVzsKl4YCxla7JyIuSR4IxsJB_vRPSCU98rnAw7sxKBZhCl5M1Jh1WcYje4AaejEcLqedRKCUsLQ59tmK0r4NzwA4Ap83Y8GsqADnPfe3TjGteN3VOkTPVlxnR3ygTXx00iGfb2TM17HnjAZCSLfQKF0YZ-yn1-bBEgqBeW4AkykEhKZTzIUz9CFkU0bUwFBv1RRQ2lGZ8w0vYg5nuOm7fMfsbBpPtAC2-3qUlr8kkPHzJDwUG9FHT23mzu5veLdrf5os8CSBFmcGwtQosaYwkK63VTFgnZzQzGJY3PALtmeQp9nE0_9o50lAyPr9-EtdMMjz1zaiurNTvYdLjpl8dPWTjaRecDPWLBm0eGGecrV6IEhguQbv10zuNS1NhjmfZqO8DUBvo2jPYzku3kPBBAmky3dktEUOAlcvpqAKCtUQGgpYvpL5hOU6iEKluDsjPQUhDEb34krdGPPIRjId_VJ3zP5Y4DKUovUJlPDWIXVFSMeAUfzKo6saZXcnvPYspMXOd_xuCs8-swmxgubyBqyzWrzgyr0-svgSAKgMKahMZf3TBhLv97pNhv8kgzcGk_lz9FcXB-cn9dotfioLzjgJFblJPaZvRqcTB-cn9dotfioLzjgJF_uZqEGimKnSdNGGNJgcNKFFPyztdBvurcqEYS7FtyGMxOf1m3O50OUD09Y1FdCT7PrqaUIWWJhw-uEi25uO_SJxWQupw8TDohr5lHjY7Wu-s0SgwQoeuquOx7pwTf08lznhxLA414M08-dJYM8AdmpokEQNNwEByiF7AwM8s3i7truWmfmt5gXAtq3Vu1m00]--></g></svg>