<svg xmlns="http://www.w3.org/2000/svg" xmlns:xlink="http://www.w3.org/1999/xlink" contentStyleType="text/css" data-diagram-type="MINDMAP" height="700px" preserveAspectRatio="none" style="width:909px;height:700px;" version="1.1" viewBox="0 0 909 700" width="909px" zoomAndPan="magnify"><defs/><g><polygon fill="#4051B5" points="14,331.7266,14,331.9367,24.1698,331.3122,34.3396,331.9198,44.5094,332.1262,54.6793,331.0132,64.8491,331.6488,75.0189,331.3001,85.1887,331.3431,95.3585,331.6584,105.5283,331.0352,115.6981,332.2802,125.8679,331.0963,136.0378,331.5288,146.2076,332.1585,156.3774,331.6408,166.5472,331.7948,176.717,331.6946,186.8868,331.9051,197.0566,331.7266,197.0871,331.8002,197.697,332.1412,198.2736,332.4018,198.8403,332.6387,199.3519,332.7422,199.8851,332.8981,200.0278,332.9573,200.3356,333.5534,200.1316,333.9375,200.797,334.6817,200.731,335.1231,201.0566,335.7266,201.2346,335.7266,200.8916,341.1531,201.0338,346.5797,201.3038,352.0063,201.0404,357.4328,201.0566,362.8594,201.0891,362.8728,200.9266,363.4683,200.7162,364.0438,200.3525,364.5559,200.2078,365.1588,199.8851,365.6878,199.812,365.5115,199.3557,366.0097,198.8236,366.3253,198.2447,366.5276,197.7005,366.8138,197.0566,366.8594,197.0566,366.3763,186.8868,366.2072,176.717,366.238,166.5472,366.8005,156.3774,366.6628,146.2076,367.5408,136.0378,366.6847,125.8679,366.5163,115.6981,367.0876,105.5283,366.1925,95.3585,366.3402,85.1887,367.5083,75.0189,367.295,64.8491,367.5939,54.6793,366.5376,44.5094,367.1786,34.3396,367.4498,24.1698,366.387,14,366.8594,13.9878,366.8299,13.4504,366.6639,12.9518,366.5915,12.3024,366.1551,11.7963,366.0646,11.1716,365.6878,11.001,365.6172,10.7287,365.0357,10.858,364.6207,10.2478,363.8993,10.3911,363.49,10,362.8594,10.0689,362.8594,9.9107,357.4328,9.8821,352.0063,10.1529,346.5797,9.9002,341.1531,10,335.7266,10.1823,335.8021,10.0641,335.0904,10.6588,334.674,10.8521,334.0913,11.0127,333.4951,11.1716,332.8981,11.1776,332.9127,11.8299,332.8876,12.3812,332.6185,12.8902,332.2473,13.4685,332.0435,14,331.7266" style="stroke:#FF6F00;stroke-width:1.5;"/><a href="/use-case/legal-entity-management/" target="_top" title="/use-case/legal-entity-management/" xlink:actuate="onRequest" xlink:href="/use-case/legal-entity-management/" xlink:show="new" xlink:title="/use-case/legal-entity-management/" xlink:type="simple"><text fill="#4051B5" font-family="'Roboto'" font-size="13" lengthAdjust="spacing" textLength="166.9243" x="20" y="353.7935">Legal Entity Management</text></a><a href="/use-case/legal-entity-management/identification-and-registration/" target="_top" title="/use-case/legal-entity-management/identification-and-registration/" xlink:actuate="onRequest" xlink:href="/use-case/legal-entity-management/identification-and-registration/" xlink:show="new" xlink:title="/use-case/legal-entity-management/identification-and-registration/" xlink:type="simple"><text fill="#4051B5" font-family="'Roboto'" font-size="13" lengthAdjust="spacing" textLength="182.6157" x="258.0566" y="64.7661">Identification &amp; Registration</text></a><a href="/use-case/legal-entity-management/identification-and-registration/legal-form/" target="_top" title="/use-case/legal-entity-management/identification-and-registration/legal-form/" xlink:actuate="onRequest" xlink:href="/use-case/legal-entity-management/identification-and-registration/legal-form/" xlink:show="new" xlink:title="/use-case/legal-entity-management/identification-and-registration/legal-form/" xlink:type="simple"><text fill="#4051B5" font-family="'Roboto'" font-size="13" lengthAdjust="spacing" textLength="72.6426" x="505.8047" y="27.0669">Legal Form</text></a><path d="M448.8047,60.2656 L448.8047,60.4525 L450.8047,59.8973 L452.8047,60.4374 L454.8047,60.6209 L456.8047,59.6315 L458.8047,60.2656 L458.8047,60.2656 L458.7856,60.2368 L460.4814,58.9294 L462.2732,57.7673 L464.1317,56.7061 L465.7602,55.2969 L467.7109,54.3751 L467.9336,54.4798 L468.6762,51.6641 L470.0689,49.1541 L471.5409,46.6814 L472.5514,43.9916 L473.8047,41.416 L473.8321,41.4289 L475.0106,38.8182 L476.314,36.2661 L477.5571,33.6858 L478.9153,31.1595 L479.8984,28.4569 L480.063,28.7057 L481.8462,27.5306 L483.5234,26.1951 L485.3558,25.0945 L487.1956,24.0048 L488.8047,22.5664 L488.8047,21.9254 L490.8047,23.1695 L492.8047,22.3028 L494.8047,23.0409 L496.8047,22.1264 L498.8047,22.5664" fill="none" style="stroke:#FF6F00;stroke-width:1;"/><a href="/use-case/legal-entity-management/identification-and-registration/business-registration/" target="_top" title="/use-case/legal-entity-management/identification-and-registration/business-registration/" xlink:actuate="onRequest" xlink:href="/use-case/legal-entity-management/identification-and-registration/business-registration/" xlink:show="new" xlink:title="/use-case/legal-entity-management/identification-and-registration/business-registration/" xlink:type="simple"><text fill="#4051B5" font-family="'Roboto'" font-size="13" lengthAdjust="spacing" textLength="140.4355" x="505.8047" y="52.1997">Business Registration</text></a><path d="M448.8047,60.2656 L448.8047,60.4525 L450.8047,59.8973 L452.8047,60.4374 L454.8047,60.6209 L456.8047,59.6315 L458.8047,60.2656 L458.8047,60.2656 L458.7913,60.2338 L461.7315,58.8342 L464.7388,57.5951 L467.793,56.4678 L470.686,54.9556 L473.8047,53.9824 L473.8998,54.2094 L476.6965,52.4674 L479.7707,51.3881 L482.8789,50.3896 L485.79,48.9207 L488.8047,47.6992 L488.8047,47.7599 L490.8047,47.6708 L492.8047,47.8579 L494.8047,47.9118 L496.8047,48.2198 L498.8047,47.6992" fill="none" style="stroke:#FF6F00;stroke-width:1;"/><a href="/use-case/legal-entity-management/identification-and-registration/commercial-register/" target="_top" title="/use-case/legal-entity-management/identification-and-registration/commercial-register/" xlink:actuate="onRequest" xlink:href="/use-case/legal-entity-management/identification-and-registration/commercial-register/" xlink:show="new" xlink:title="/use-case/legal-entity-management/identification-and-registration/commercial-register/" xlink:type="simple"><text fill="#4051B5" font-family="'Roboto'" font-size="13" lengthAdjust="spacing" textLength="136.2778" x="505.8047" y="77.3325">Commercial Register</text></a><path d="M448.8047,60.2656 L448.8047,60.4525 L450.8047,59.8973 L452.8047,60.4374 L454.8047,60.6209 L456.8047,59.6315 L458.8047,60.2656 L458.8047,60.2656 L458.7913,60.2338 L461.7315,61.3474 L464.7388,62.6217 L467.793,64.0076 L470.686,65.0088 L473.8047,66.5488 L473.8998,66.7758 L476.6965,67.5471 L479.7707,68.981 L482.8789,70.4958 L485.79,71.5402 L488.8047,72.832 L488.8047,72.8927 L490.8047,72.8036 L492.8047,72.9907 L494.8047,73.0446 L496.8047,73.3526 L498.8047,72.832" fill="none" style="stroke:#FF6F00;stroke-width:1;"/><a href="/use-case/legal-entity-management/identification-and-registration/classification/" target="_top" title="/use-case/legal-entity-management/identification-and-registration/classification/" xlink:actuate="onRequest" xlink:href="/use-case/legal-entity-management/identification-and-registration/classification/" xlink:show="new" xlink:title="/use-case/legal-entity-management/identification-and-registration/classification/" xlink:type="simple"><text fill="#4051B5" font-family="'Roboto'" font-size="13" lengthAdjust="spacing" textLength="86.0171" x="505.8047" y="102.4653">Classification</text></a><path d="M448.8047,60.2656 L448.8047,60.4525 L450.8047,59.8973 L452.8047,60.4374 L454.8047,60.6209 L456.8047,59.6315 L458.8047,60.2656 L458.8047,60.2656 L458.7856,60.2368 L460.4814,61.2856 L462.2732,62.4797 L464.1317,63.7747 L465.7602,64.7217 L467.7109,66.1561 L467.9336,66.2608 L468.6762,68.6287 L470.0689,71.3024 L471.5409,74.0133 L472.5514,76.5072 L473.8047,79.1152 L473.8321,79.1281 L475.0106,81.701 L476.314,84.3326 L477.5571,86.9359 L478.9153,89.5933 L479.8984,92.0743 L480.063,92.3231 L481.8462,93.5042 L483.5234,94.5249 L485.3558,95.7805 L487.1956,97.0471 L488.8047,97.9648 L488.8047,97.3238 L490.8047,98.568 L492.8047,97.7013 L494.8047,98.4393 L496.8047,97.5248 L498.8047,97.9648" fill="none" style="stroke:#FF6F00;stroke-width:1;"/><path d="M201.0566,349.293 L201.0566,349.4798 L203.0566,348.9247 L205.0566,349.4648 L207.0566,349.6482 L209.0566,348.6588 L211.0566,349.293 L211.0566,349.293 L211.0246,349.2801 L211.8768,346.7386 L212.8906,344.2619 L214.0168,341.8302 L214.7558,339.2433 L216.0371,336.8738 L216.2806,336.9092 L216.1745,333.9828 L216.7792,331.1597 L217.4707,328.3492 L217.6576,325.4653 L218.1099,322.62 L218.14,322.6231 L218.4663,318.9211 L218.93,315.2329 L219.3274,311.5381 L219.8513,307.8559 L219.9629,304.1324 L220.2603,304.1552 L220.5993,299.7806 L220.7466,295.3912 L221.1747,291.0234 L221.6159,286.6566 L221.6401,282.2578 L221.3203,282.2376 L222.2502,277.3939 L222.1268,272.4835 L222.8042,267.6239 L222.6569,262.712 L223.1855,257.8429 L223.0943,257.838 L224.7471,247.2836 L224.2691,236.614 L225.0484,226.0123 L225.9333,215.4164 L226.0566,204.7793 L226.6108,204.8093 L226.6257,194.1663 L227.5875,183.5745 L227.0172,172.8999 L228.7321,162.3489 L228.9277,151.7157 L229.1709,151.7311 L229.434,146.8452 L229.8178,141.9669 L229.6407,137.0532 L229.8748,132.1654 L230.4731,127.3008 L230.1978,127.2797 L230.7825,122.9238 L231.057,118.5442 L231.7815,114.1992 L231.7375,109.7951 L232.1504,105.4261 L231.9987,105.4109 L232.6219,101.7387 L232.5967,98.0016 L233.0326,94.3106 L233.9198,90.6648 L234.0034,86.9386 L234.195,86.9664 L234.741,84.1348 L234.691,81.2165 L235.3875,78.4067 L235.9213,75.5733 L236.0762,72.6848 L235.8813,72.6066 L237.0327,70.1851 L238.1203,67.738 L239.3333,65.3411 L240.0588,62.7488 L241.0566,60.2656 L241.0566,60.6768 L243.0566,59.7734 L245.0566,59.6636 L247.0566,60.7133 L249.0566,59.6283 L251.0566,60.2656" fill="none" style="stroke:#FF6F00;stroke-width:1;"/><a href="/use-case/legal-entity-management/corporate-governance/" target="_top" title="/use-case/legal-entity-management/corporate-governance/" xlink:actuate="onRequest" xlink:href="/use-case/legal-entity-management/corporate-governance/" xlink:show="new" xlink:title="/use-case/legal-entity-management/corporate-governance/" xlink:type="simple"><text fill="#4051B5" font-family="'Roboto'" font-size="13" lengthAdjust="spacing" textLength="147.7734" x="258.0566" y="152.731">Corporate Governance</text></a><a href="/use-case/legal-entity-management/corporate-governance/directorships/" target="_top" title="/use-case/legal-entity-management/corporate-governance/directorships/" xlink:actuate="onRequest" xlink:href="/use-case/legal-entity-management/corporate-governance/directorships/" xlink:show="new" xlink:title="/use-case/legal-entity-management/corporate-governance/directorships/" xlink:type="simple"><text fill="#4051B5" font-family="'Roboto'" font-size="13" lengthAdjust="spacing" textLength="86.1567" x="470.9624" y="127.5981">Directorships</text></a><path d="M413.9624,148.2305 L413.9624,148.4173 L415.9624,147.8622 L417.9624,148.4023 L419.9624,148.5857 L421.9624,147.5963 L423.9624,148.2305 L423.9624,148.2305 L423.9402,148.204 L426.8407,145.5719 L429.8529,143.0733 L432.9429,140.6674 L435.7651,137.9418 L438.9624,135.6641 L439.1204,135.8527 L441.7825,132.9361 L444.906,130.5701 L448.0857,128.2714 L450.9379,125.5817 L453.9624,123.0977 L453.9624,123.1583 L455.9624,123.0693 L457.9624,123.2563 L459.9624,123.3102 L461.9624,123.6183 L463.9624,123.0977" fill="none" style="stroke:#FF6F00;stroke-width:1;"/><a href="/use-case/legal-entity-management/corporate-governance/signatories/" target="_top" title="/use-case/legal-entity-management/corporate-governance/signatories/" xlink:actuate="onRequest" xlink:href="/use-case/legal-entity-management/corporate-governance/signatories/" xlink:show="new" xlink:title="/use-case/legal-entity-management/corporate-governance/signatories/" xlink:type="simple"><text fill="#4051B5" font-family="'Roboto'" font-size="13" lengthAdjust="spacing" textLength="73.0996" x="470.9624" y="152.731">Signatories</text></a><path d="M413.9624,148.2305 L413.9624,148.4173 L415.9624,147.8622 L417.9624,148.4023 L419.9624,148.5857 L421.9624,147.5963 L423.9624,148.2305 L423.9624,148.2305 L423.9624,148.1959 L429.9624,148.0409 L435.9624,148.06 L441.9624,148.2002 L447.9624,147.9232 L453.9624,148.2305 L453.9624,148.7226 L455.9624,147.6702 L457.9624,148.0547 L459.9624,148.6144 L461.9624,148.1542 L463.9624,148.2305" fill="none" style="stroke:#FF6F00;stroke-width:1;"/><a href="/use-case/legal-entity-management/corporate-governance/organizational-structure/" target="_top" title="/use-case/legal-entity-management/corporate-governance/organizational-structure/" xlink:actuate="onRequest" xlink:href="/use-case/legal-entity-management/corporate-governance/organizational-structure/" xlink:show="new" xlink:title="/use-case/legal-entity-management/corporate-governance/organizational-structure/" xlink:type="simple"><text fill="#4051B5" font-family="'Roboto'" font-size="13" lengthAdjust="spacing" textLength="159.8086" x="470.9624" y="177.8638">Organizational Structure</text></a><path d="M413.9624,148.2305 L413.9624,148.4173 L415.9624,147.8622 L417.9624,148.4023 L419.9624,148.5857 L421.9624,147.5963 L423.9624,148.2305 L423.9624,148.2305 L423.9402,148.204 L426.8407,150.5984 L429.8529,153.1264 L432.9429,155.7471 L435.7651,158.0481 L438.9624,160.7969 L439.1204,160.9855 L441.7825,163.0954 L444.906,165.7561 L448.0857,168.4839 L450.9379,170.8208 L453.9624,173.3633 L453.9624,173.4239 L455.9624,173.3349 L457.9624,173.522 L459.9624,173.5758 L461.9624,173.8839 L463.9624,173.3633" fill="none" style="stroke:#FF6F00;stroke-width:1;"/><path d="M201.0566,349.293 L201.0566,349.4798 L203.0566,348.9247 L205.0566,349.4648 L207.0566,349.6482 L209.0566,348.6588 L211.0566,349.293 L211.0566,349.293 L211.0267,349.2757 L211.8885,347.4704 L212.9012,345.7521 L214.0187,344.0942 L214.7748,342.228 L216.0371,340.6536 L216.278,340.7039 L216.1775,338.6131 L216.7802,336.6693 L217.4687,334.7434 L217.658,332.7132 L218.1099,330.7379 L218.1399,330.7422 L218.4664,328.1637 L218.9296,325.6048 L219.3269,323.0365 L219.8499,320.4863 L219.9629,317.877 L220.2593,317.9096 L220.5984,314.8666 L220.7463,311.8025 L221.174,308.7692 L221.6149,305.7374 L221.6401,302.6598 L221.3209,302.6308 L222.2495,299.2903 L222.1271,295.8542 L222.8037,292.4907 L222.6574,289.0525 L223.1855,285.6755 L223.1552,285.6732 L224.0884,278.3183 L224.3124,270.9083 L224.9549,263.5309 L225.6325,256.1562 L226.0566,248.7617 L226.2411,248.7761 L226.6291,241.3788 L227.3323,234.0061 L227.5257,226.5937 L228.4795,219.2405 L228.9277,211.8479 L229.1704,211.87 L229.4336,208.4689 L229.8172,205.0789 L229.6412,201.6379 L229.8754,198.2342 L230.4731,194.8636 L230.1986,194.8334 L230.7826,191.8173 L231.0572,188.7672 L231.7805,185.7665 L231.7378,182.6814 L232.1504,179.6465 L231.9995,179.6247 L232.6214,177.0888 L232.5983,174.4598 L233.0338,171.897 L233.9183,169.3989 L234.0034,166.7856 L234.193,166.8252 L234.7375,164.8692 L234.6925,162.79 L235.3859,160.8652 L235.9185,158.9067 L236.0762,156.8699 L235.8943,156.765 L237.0354,155.1207 L238.1169,153.4421 L239.3154,151.8309 L240.0589,149.9574 L241.0566,148.2305 L241.0566,148.6416 L243.0566,147.7382 L245.0566,147.6285 L247.0566,148.6781 L249.0566,147.5932 L251.0566,148.2305" fill="none" style="stroke:#FF6F00;stroke-width:1;"/><a href="/use-case/legal-entity-management/ownership-and-capital-structure/" target="_top" title="/use-case/legal-entity-management/ownership-and-capital-structure/" xlink:actuate="onRequest" xlink:href="/use-case/legal-entity-management/ownership-and-capital-structure/" xlink:show="new" xlink:title="/use-case/legal-entity-management/ownership-and-capital-structure/" xlink:type="simple"><text fill="#4051B5" font-family="'Roboto'" font-size="13" lengthAdjust="spacing" textLength="198.1992" x="258.0566" y="290.9614">Ownership &amp; Capital Structure</text></a><a href="/use-case/legal-entity-management/ownership-and-capital-structure/ownership/" target="_top" title="/use-case/legal-entity-management/ownership-and-capital-structure/ownership/" xlink:actuate="onRequest" xlink:href="/use-case/legal-entity-management/ownership-and-capital-structure/ownership/" xlink:show="new" xlink:title="/use-case/legal-entity-management/ownership-and-capital-structure/ownership/" xlink:type="simple"><text fill="#4051B5" font-family="'Roboto'" font-size="13" lengthAdjust="spacing" textLength="69.3228" x="521.3882" y="202.9966">Ownership</text></a><path d="M464.3882,286.4609 L464.3882,286.6478 L466.3882,286.0927 L468.3882,286.6327 L470.3882,286.8162 L472.3882,285.8268 L474.3882,286.4609 L474.3882,286.4609 L474.3592,286.4422 L476.0104,283.609 L477.8076,280.8704 L479.7065,278.1978 L481.2553,275.2982 L483.2944,272.7164 L483.5343,272.7713 L483.6659,269.8363 L484.4978,267.0616 L485.4152,264.3064 L485.8354,261.4374 L486.5171,258.6283 L486.5469,258.6336 L487.0773,255.3959 L487.7436,252.1823 L488.3444,248.957 L489.0703,245.754 L489.3882,242.4785 L489.6818,242.5307 L490.2596,239.3014 L490.648,236.0384 L491.3137,232.8247 L491.9923,229.6133 L492.2593,226.3287 L491.9468,226.2572 L493.1978,223.5783 L493.4199,220.6641 L494.4241,217.9288 L494.6229,215.0092 L495.4819,212.2406 L495.4564,212.224 L497.5398,209.6709 L499.0263,206.731 L500.865,204.0193 L502.7332,201.3268 L504.3882,198.4961 L504.3882,198.8661 L506.3882,198.4926 L508.3882,198.7514 L510.3882,197.9873 L512.3882,198.7489 L514.3882,198.4961" fill="none" style="stroke:#FF6F00;stroke-width:1;"/><a href="/use-case/legal-entity-management/ownership-and-capital-structure/control/" target="_top" title="/use-case/legal-entity-management/ownership-and-capital-structure/control/" xlink:actuate="onRequest" xlink:href="/use-case/legal-entity-management/ownership-and-capital-structure/control/" xlink:show="new" xlink:title="/use-case/legal-entity-management/ownership-and-capital-structure/control/" xlink:type="simple"><text fill="#4051B5" font-family="'Roboto'" font-size="13" lengthAdjust="spacing" textLength="47.2773" x="521.3882" y="228.1294">Control</text></a><path d="M464.3882,286.4609 L464.3882,286.6478 L466.3882,286.0927 L468.3882,286.6327 L470.3882,286.8162 L472.3882,285.8268 L474.3882,286.4609 L474.3882,286.4609 L474.3626,286.4377 L476.029,284.3701 L477.8244,282.4194 L479.7095,280.5501 L481.2856,278.4005 L483.2944,276.6434 L483.5288,276.7185 L483.6722,274.5454 L484.4998,272.5914 L485.4109,270.6642 L485.8363,268.5815 L486.5171,266.5805 L486.5465,266.5878 L487.0775,264.2699 L487.7425,261.9854 L488.3429,259.6848 L489.0666,257.4149 L489.3882,255.0449 L489.6776,255.117 L490.2554,252.8107 L490.6464,250.458 L491.3108,248.1733 L491.9879,245.8918 L492.2593,243.5094 L491.954,243.4116 L493.191,241.5887 L493.4228,239.444 L494.4188,237.5439 L494.6279,235.3919 L495.4819,233.4464 L495.4594,233.426 L497.5073,231.7044 L499.0284,229.5049 L500.8603,227.5874 L502.7184,225.6935 L504.3882,223.6289 L504.3882,223.9989 L506.3882,223.6254 L508.3882,223.8842 L510.3882,223.1201 L512.3882,223.8817 L514.3882,223.6289" fill="none" style="stroke:#FF6F00;stroke-width:1;"/><a href="/use-case/legal-entity-management/ownership-and-capital-structure/shares/" target="_top" title="/use-case/legal-entity-management/ownership-and-capital-structure/shares/" xlink:actuate="onRequest" xlink:href="/use-case/legal-entity-management/ownership-and-capital-structure/shares/" xlink:show="new" xlink:title="/use-case/legal-entity-management/ownership-and-capital-structure/shares/" xlink:type="simple"><text fill="#4051B5" font-family="'Roboto'" font-size="13" lengthAdjust="spacing" textLength="132.2979" x="521.3882" y="253.2622">Shares &amp; Ownership</text></a><path d="M464.3882,286.4609 L464.3882,286.6478 L466.3882,286.0927 L468.3882,286.6327 L470.3882,286.8162 L472.3882,285.8268 L474.3882,286.4609 L474.3882,286.4609 L474.3691,286.4321 L476.0649,285.1247 L477.8567,283.9626 L479.7152,282.9014 L481.3437,281.4922 L483.2944,280.5704 L483.5171,280.6751 L484.2597,277.8594 L485.6524,275.3494 L487.1244,272.8767 L488.1349,270.1869 L489.3882,267.6113 L489.4156,267.6242 L490.5941,265.0135 L491.8975,262.4614 L493.1406,259.8811 L494.4987,257.3548 L495.4819,254.6522 L495.6465,254.901 L497.4297,253.7259 L499.1069,252.3904 L500.9393,251.2898 L502.7791,250.2001 L504.3882,248.7617 L504.3882,248.1207 L506.3882,249.3648 L508.3882,248.4982 L510.3882,249.2362 L512.3882,248.3217 L514.3882,248.7617" fill="none" style="stroke:#FF6F00;stroke-width:1;"/><a href="/use-case/legal-entity-management/ownership-and-capital-structure/share-capital/" target="_top" title="/use-case/legal-entity-management/ownership-and-capital-structure/share-capital/" xlink:actuate="onRequest" xlink:href="/use-case/legal-entity-management/ownership-and-capital-structure/share-capital/" xlink:show="new" xlink:title="/use-case/legal-entity-management/ownership-and-capital-structure/share-capital/" xlink:type="simple"><text fill="#4051B5" font-family="'Roboto'" font-size="13" lengthAdjust="spacing" textLength="87.5151" x="521.3882" y="278.395">Share Capital</text></a><path d="M464.3882,286.4609 L464.3882,286.6478 L466.3882,286.0927 L468.3882,286.6327 L470.3882,286.8162 L472.3882,285.8268 L474.3882,286.4609 L474.3882,286.4609 L474.3748,286.4291 L477.3149,285.0295 L480.3223,283.7904 L483.3765,282.6631 L486.2695,281.151 L489.3882,280.1777 L489.4833,280.4047 L492.28,278.6627 L495.3542,277.5834 L498.4624,276.5849 L501.3735,275.116 L504.3882,273.8945 L504.3882,273.9552 L506.3882,273.8661 L508.3882,274.0532 L510.3882,274.1071 L512.3882,274.4151 L514.3882,273.8945" fill="none" style="stroke:#FF6F00;stroke-width:1;"/><a href="/use-case/legal-entity-management/ownership-and-capital-structure/issued-capital/" target="_top" title="/use-case/legal-entity-management/ownership-and-capital-structure/issued-capital/" xlink:actuate="onRequest" xlink:href="/use-case/legal-entity-management/ownership-and-capital-structure/issued-capital/" xlink:show="new" xlink:title="/use-case/legal-entity-management/ownership-and-capital-structure/issued-capital/" xlink:type="simple"><text fill="#4051B5" font-family="'Roboto'" font-size="13" lengthAdjust="spacing" textLength="91.584" x="521.3882" y="303.5278">Issued Capital</text></a><path d="M464.3882,286.4609 L464.3882,286.6478 L466.3882,286.0927 L468.3882,286.6327 L470.3882,286.8162 L472.3882,285.8268 L474.3882,286.4609 L474.3882,286.4609 L474.3748,286.4291 L477.3149,287.5427 L480.3223,288.817 L483.3765,290.2029 L486.2695,291.2041 L489.3882,292.7441 L489.4833,292.9711 L492.28,293.7424 L495.3542,295.1764 L498.4624,296.6911 L501.3735,297.7355 L504.3882,299.0273 L504.3882,299.088 L506.3882,298.9989 L508.3882,299.186 L510.3882,299.2399 L512.3882,299.548 L514.3882,299.0273" fill="none" style="stroke:#FF6F00;stroke-width:1;"/><a href="/use-case/legal-entity-management/ownership-and-capital-structure/corporate-actions/" target="_top" title="/use-case/legal-entity-management/ownership-and-capital-structure/corporate-actions/" xlink:actuate="onRequest" xlink:href="/use-case/legal-entity-management/ownership-and-capital-structure/corporate-actions/" xlink:show="new" xlink:title="/use-case/legal-entity-management/ownership-and-capital-structure/corporate-actions/" xlink:type="simple"><text fill="#4051B5" font-family="'Roboto'" font-size="13" lengthAdjust="spacing" textLength="116.835" x="521.3882" y="328.6606">Corporate Actions</text></a><a href="/use-case/legal-entity-management/ownership-and-capital-structure/corporate-actions/merger-and-acquisition-history/" target="_top" title="/use-case/legal-entity-management/ownership-and-capital-structure/corporate-actions/merger-and-acquisition-history/" xlink:actuate="onRequest" xlink:href="/use-case/legal-entity-management/ownership-and-capital-structure/corporate-actions/merger-and-acquisition-history/" xlink:show="new" xlink:title="/use-case/legal-entity-management/ownership-and-capital-structure/corporate-actions/merger-and-acquisition-history/" xlink:type="simple"><text fill="#4051B5" font-family="'Roboto'" font-size="13" lengthAdjust="spacing" textLength="186.3672" x="703.3555" y="278.395">Merger &amp; Acquisition History</text></a><path d="M646.3555,324.1602 L646.3555,324.347 L648.3555,323.7919 L650.3555,324.332 L652.3555,324.5154 L654.3555,323.526 L656.3555,324.1602 L656.3555,324.1602 L656.3326,324.1343 L658.0113,322.4472 L659.8052,320.8907 L661.6792,319.425 L663.2772,317.6465 L665.2617,316.3062 L665.4938,316.388 L666.2163,312.7572 L667.6163,309.3654 L669.099,306.0027 L670.1008,302.4704 L671.3555,299.0273 L671.3841,299.0374 L672.5608,295.5669 L673.8678,292.1422 L675.1119,288.6954 L676.476,285.2909 L677.4492,281.7485 L677.6465,281.9722 L679.4301,280.4042 L681.0866,278.6918 L682.9292,277.1907 L684.7806,275.6994 L686.3555,273.8945 L686.3555,273.2535 L688.3555,274.4977 L690.3555,273.631 L692.3555,274.369 L694.3555,273.4545 L696.3555,273.8945" fill="none" style="stroke:#FF6F00;stroke-width:1;"/><a href="/use-case/legal-entity-management/ownership-and-capital-structure/corporate-actions/spin-offs/" target="_top" title="/use-case/legal-entity-management/ownership-and-capital-structure/corporate-actions/spin-offs/" xlink:actuate="onRequest" xlink:href="/use-case/legal-entity-management/ownership-and-capital-structure/corporate-actions/spin-offs/" xlink:show="new" xlink:title="/use-case/legal-entity-management/ownership-and-capital-structure/corporate-actions/spin-offs/" xlink:type="simple"><text fill="#4051B5" font-family="'Roboto'" font-size="13" lengthAdjust="spacing" textLength="56.9258" x="703.3555" y="303.5278">Spin-offs</text></a><path d="M646.3555,324.1602 L646.3555,324.347 L648.3555,323.7919 L650.3555,324.332 L652.3555,324.5154 L654.3555,323.526 L656.3555,324.1602 L656.3555,324.1602 L656.3333,324.1337 L659.2337,321.5016 L662.246,319.0029 L665.336,316.5971 L668.1581,313.8715 L671.3555,311.5938 L671.5135,311.7824 L674.1756,308.8657 L677.299,306.4998 L680.4788,304.2011 L683.331,301.5114 L686.3555,299.0273 L686.3555,299.088 L688.3555,298.9989 L690.3555,299.186 L692.3555,299.2399 L694.3555,299.548 L696.3555,299.0273" fill="none" style="stroke:#FF6F00;stroke-width:1;"/><a href="/use-case/legal-entity-management/ownership-and-capital-structure/corporate-actions/parents-and-subsidiaries/" target="_top" title="/use-case/legal-entity-management/ownership-and-capital-structure/corporate-actions/parents-and-subsidiaries/" xlink:actuate="onRequest" xlink:href="/use-case/legal-entity-management/ownership-and-capital-structure/corporate-actions/parents-and-subsidiaries/" xlink:show="new" xlink:title="/use-case/legal-entity-management/ownership-and-capital-structure/corporate-actions/parents-and-subsidiaries/" xlink:type="simple"><text fill="#4051B5" font-family="'Roboto'" font-size="13" lengthAdjust="spacing" textLength="160.6655" x="703.3555" y="328.6606">Parents and Subsidiaries</text></a><path d="M646.3555,324.1602 L646.3555,324.347 L648.3555,323.7919 L650.3555,324.332 L652.3555,324.5154 L654.3555,323.526 L656.3555,324.1602 L656.3555,324.1602 L656.3555,324.1256 L662.3555,323.9706 L668.3555,323.9897 L674.3555,324.1299 L680.3555,323.8529 L686.3555,324.1602 L686.3555,324.6523 L688.3555,323.5999 L690.3555,323.9844 L692.3555,324.5441 L694.3555,324.0839 L696.3555,324.1602" fill="none" style="stroke:#FF6F00;stroke-width:1;"/><a href="/use-case/legal-entity-management/ownership-and-capital-structure/corporate-actions/stock-splits/" target="_top" title="/use-case/legal-entity-management/ownership-and-capital-structure/corporate-actions/stock-splits/" xlink:actuate="onRequest" xlink:href="/use-case/legal-entity-management/ownership-and-capital-structure/corporate-actions/stock-splits/" xlink:show="new" xlink:title="/use-case/legal-entity-management/ownership-and-capital-structure/corporate-actions/stock-splits/" xlink:type="simple"><text fill="#4051B5" font-family="'Roboto'" font-size="13" lengthAdjust="spacing" textLength="75.7085" x="703.3555" y="353.7935">Stock Splits</text></a><path d="M646.3555,324.1602 L646.3555,324.347 L648.3555,323.7919 L650.3555,324.332 L652.3555,324.5154 L654.3555,323.526 L656.3555,324.1602 L656.3555,324.1602 L656.3333,324.1337 L659.2337,326.5281 L662.246,329.0561 L665.336,331.6768 L668.1581,333.9777 L671.3555,336.7266 L671.5135,336.9152 L674.1756,339.0251 L677.299,341.6857 L680.4788,344.4136 L683.331,346.7505 L686.3555,349.293 L686.3555,349.3536 L688.3555,349.2646 L690.3555,349.4517 L692.3555,349.5055 L694.3555,349.8136 L696.3555,349.293" fill="none" style="stroke:#FF6F00;stroke-width:1;"/><a href="/use-case/legal-entity-management/ownership-and-capital-structure/corporate-actions/dividends/" target="_top" title="/use-case/legal-entity-management/ownership-and-capital-structure/corporate-actions/dividends/" xlink:actuate="onRequest" xlink:href="/use-case/legal-entity-management/ownership-and-capital-structure/corporate-actions/dividends/" xlink:show="new" xlink:title="/use-case/legal-entity-management/ownership-and-capital-structure/corporate-actions/dividends/" xlink:type="simple"><text fill="#4051B5" font-family="'Roboto'" font-size="13" lengthAdjust="spacing" textLength="64.4414" x="703.3555" y="378.9263">Dividends</text></a><path d="M646.3555,324.1602 L646.3555,324.347 L648.3555,323.7919 L650.3555,324.332 L652.3555,324.5154 L654.3555,323.526 L656.3555,324.1602 L656.3555,324.1602 L656.3326,324.1343 L658.0113,325.5888 L659.8052,327.1739 L661.6792,328.8498 L663.2772,330.2129 L665.2617,332.0142 L665.4938,332.096 L666.2163,335.3768 L667.6163,338.8964 L669.099,342.4453 L670.1008,345.8245 L671.3555,349.293 L671.3841,349.3031 L672.5608,352.744 L673.8678,356.2309 L675.1119,359.6956 L676.476,363.2026 L677.4492,366.5718 L677.6465,366.7955 L679.4301,368.369 L681.0866,369.7983 L682.9292,371.4387 L684.7806,373.0891 L686.3555,374.4258 L686.3555,373.7847 L688.3555,375.0289 L690.3555,374.1622 L692.3555,374.9003 L694.3555,373.9858 L696.3555,374.4258" fill="none" style="stroke:#FF6F00;stroke-width:1;"/><path d="M464.3882,286.4609 L464.3882,286.6478 L466.3882,286.0927 L468.3882,286.6327 L470.3882,286.8162 L472.3882,285.8268 L474.3882,286.4609 L474.3882,286.4609 L474.3691,286.4321 L476.0649,287.4809 L477.8567,288.675 L479.7152,289.97 L481.3437,290.917 L483.2944,292.3514 L483.5171,292.4561 L484.2597,294.8241 L485.6524,297.4977 L487.1244,300.2086 L488.1349,302.7025 L489.3882,305.3105 L489.4156,305.3235 L490.5941,307.8963 L491.8975,310.528 L493.1406,313.1312 L494.4987,315.7886 L495.4819,318.2697 L495.6465,318.5184 L497.4297,319.6996 L499.1069,320.7202 L500.9393,321.9758 L502.7791,323.2424 L504.3882,324.1602 L504.3882,323.5191 L506.3882,324.7633 L508.3882,323.8966 L510.3882,324.6347 L512.3882,323.7201 L514.3882,324.1602" fill="none" style="stroke:#FF6F00;stroke-width:1;"/><path d="M201.0566,349.293 L201.0566,349.4798 L203.0566,348.9247 L205.0566,349.4648 L207.0566,349.6482 L209.0566,348.6588 L211.0566,349.293 L211.0566,349.293 L211.0311,349.2698 L212.6975,347.2021 L214.4929,345.2514 L216.378,343.3821 L217.9541,341.2325 L219.9629,339.4755 L220.1972,339.5505 L220.3406,337.3774 L221.1682,335.4235 L222.0793,333.4962 L222.5047,331.4135 L223.1855,329.4125 L223.215,329.4198 L223.746,327.102 L224.411,324.8175 L225.0113,322.5168 L225.735,320.2469 L226.0566,317.877 L226.3461,317.949 L226.9238,315.6428 L227.3149,313.2901 L227.9792,311.0054 L228.6564,308.7239 L228.9277,306.3414 L228.6225,306.2436 L229.8595,304.4208 L230.0913,302.276 L231.0873,300.376 L231.2963,298.2239 L232.1504,296.2784 L232.1278,296.258 L234.1758,294.5364 L235.6968,292.3369 L237.5288,290.4194 L239.3869,288.5256 L241.0566,286.4609 L241.0566,286.8309 L243.0566,286.4575 L245.0566,286.7162 L247.0566,285.9521 L249.0566,286.7137 L251.0566,286.4609" fill="none" style="stroke:#FF6F00;stroke-width:1;"/><a href="/use-case/legal-entity-management/financial-information/" target="_top" title="/use-case/legal-entity-management/financial-information/" xlink:actuate="onRequest" xlink:href="/use-case/legal-entity-management/financial-information/" xlink:show="new" xlink:title="/use-case/legal-entity-management/financial-information/" xlink:type="simple"><text fill="#4051B5" font-family="'Roboto'" font-size="13" lengthAdjust="spacing" textLength="137.4839" x="258.0566" y="454.3247">Financial Information</text></a><a href="/use-case/legal-entity-management/financial-information/assets/" target="_top" title="/use-case/legal-entity-management/financial-information/assets/" xlink:actuate="onRequest" xlink:href="/use-case/legal-entity-management/financial-information/assets/" xlink:show="new" xlink:title="/use-case/legal-entity-management/financial-information/assets/" xlink:type="simple"><text fill="#4051B5" font-family="'Roboto'" font-size="13" lengthAdjust="spacing" textLength="42.3071" x="460.6729" y="404.0591">Assets</text></a><path d="M403.6729,449.8242 L403.6729,450.011 L405.6729,449.4559 L407.6729,449.996 L409.6729,450.1795 L411.6729,449.1901 L413.6729,449.8242 L413.6729,449.8242 L413.65,449.7983 L415.3287,448.1112 L417.1226,446.5548 L418.9966,445.0891 L420.5946,443.3106 L422.5791,441.9702 L422.8112,442.0521 L423.5337,438.4213 L424.9337,435.0295 L426.4164,431.6668 L427.4181,428.1345 L428.6729,424.6914 L428.7015,424.7015 L429.8782,421.2309 L431.1852,417.8063 L432.4293,414.3595 L433.7933,410.9549 L434.7666,407.4126 L434.9639,407.6363 L436.7475,406.0682 L438.404,404.3559 L440.2466,402.8547 L442.098,401.3635 L443.6729,399.5586 L443.6729,398.9175 L445.6729,400.1617 L447.6729,399.295 L449.6729,400.0331 L451.6729,399.1186 L453.6729,399.5586" fill="none" style="stroke:#FF6F00;stroke-width:1;"/><a href="/use-case/legal-entity-management/financial-information/fundamentals/" target="_top" title="/use-case/legal-entity-management/financial-information/fundamentals/" xlink:actuate="onRequest" xlink:href="/use-case/legal-entity-management/financial-information/fundamentals/" xlink:show="new" xlink:title="/use-case/legal-entity-management/financial-information/fundamentals/" xlink:type="simple"><text fill="#4051B5" font-family="'Roboto'" font-size="13" lengthAdjust="spacing" textLength="92.5234" x="460.6729" y="429.1919">Fundamentals</text></a><path d="M403.6729,449.8242 L403.6729,450.011 L405.6729,449.4559 L407.6729,449.996 L409.6729,450.1795 L411.6729,449.1901 L413.6729,449.8242 L413.6729,449.8242 L413.6507,449.7977 L416.5511,447.1656 L419.5634,444.667 L422.6534,442.2612 L425.4755,439.5356 L428.6729,437.2578 L428.8309,437.4464 L431.493,434.5298 L434.6164,432.1639 L437.7961,429.8651 L440.6484,427.1755 L443.6729,424.6914 L443.6729,424.7521 L445.6729,424.663 L447.6729,424.8501 L449.6729,424.904 L451.6729,425.212 L453.6729,424.6914" fill="none" style="stroke:#FF6F00;stroke-width:1;"/><a href="/use-case/legal-entity-management/financial-information/earnings-estimates/" target="_top" title="/use-case/legal-entity-management/financial-information/earnings-estimates/" xlink:actuate="onRequest" xlink:href="/use-case/legal-entity-management/financial-information/earnings-estimates/" xlink:show="new" xlink:title="/use-case/legal-entity-management/financial-information/earnings-estimates/" xlink:type="simple"><text fill="#4051B5" font-family="'Roboto'" font-size="13" lengthAdjust="spacing" textLength="124.9663" x="460.6729" y="454.3247">Earnings Estimates</text></a><path d="M403.6729,449.8242 L403.6729,450.011 L405.6729,449.4559 L407.6729,449.996 L409.6729,450.1795 L411.6729,449.1901 L413.6729,449.8242 L413.6729,449.8242 L413.6729,449.7897 L419.6729,449.6347 L425.6729,449.6538 L431.6729,449.7939 L437.6729,449.5169 L443.6729,449.8242 L443.6729,450.3163 L445.6729,449.264 L447.6729,449.6484 L449.6729,450.2082 L451.6729,449.748 L453.6729,449.8242" fill="none" style="stroke:#FF6F00;stroke-width:1;"/><a href="/use-case/legal-entity-management/financial-information/ratings/" target="_top" title="/use-case/legal-entity-management/financial-information/ratings/" xlink:actuate="onRequest" xlink:href="/use-case/legal-entity-management/financial-information/ratings/" xlink:show="new" xlink:title="/use-case/legal-entity-management/financial-information/ratings/" xlink:type="simple"><text fill="#4051B5" font-family="'Roboto'" font-size="13" lengthAdjust="spacing" textLength="48.9722" x="460.6729" y="479.4575">Ratings</text></a><path d="M403.6729,449.8242 L403.6729,450.011 L405.6729,449.4559 L407.6729,449.996 L409.6729,450.1795 L411.6729,449.1901 L413.6729,449.8242 L413.6729,449.8242 L413.6507,449.7977 L416.5511,452.1922 L419.5634,454.7201 L422.6534,457.3408 L425.4755,459.6418 L428.6729,462.3906 L428.8309,462.5792 L431.493,464.6892 L434.6164,467.3498 L437.7961,470.0776 L440.6484,472.4145 L443.6729,474.957 L443.6729,475.0177 L445.6729,474.9286 L447.6729,475.1157 L449.6729,475.1696 L451.6729,475.4776 L453.6729,474.957" fill="none" style="stroke:#FF6F00;stroke-width:1;"/><a href="/use-case/legal-entity-management/financial-information/liability-terms/" target="_top" title="/use-case/legal-entity-management/financial-information/liability-terms/" xlink:actuate="onRequest" xlink:href="/use-case/legal-entity-management/financial-information/liability-terms/" xlink:show="new" xlink:title="/use-case/legal-entity-management/financial-information/liability-terms/" xlink:type="simple"><text fill="#4051B5" font-family="'Roboto'" font-size="13" lengthAdjust="spacing" textLength="95.5513" x="460.6729" y="504.5903">Liability Terms</text></a><path d="M403.6729,449.8242 L403.6729,450.011 L405.6729,449.4559 L407.6729,449.996 L409.6729,450.1795 L411.6729,449.1901 L413.6729,449.8242 L413.6729,449.8242 L413.65,449.7983 L415.3287,451.2529 L417.1226,452.838 L418.9966,454.5139 L420.5946,455.877 L422.5791,457.6782 L422.8112,457.7601 L423.5337,461.0408 L424.9337,464.5605 L426.4164,468.1094 L427.4181,471.4886 L428.6729,474.957 L428.7015,474.9671 L429.8782,478.4081 L431.1852,481.8949 L432.4293,485.3597 L433.7933,488.8667 L434.7666,492.2358 L434.9639,492.4595 L436.7475,494.0331 L438.404,495.4623 L440.2466,497.1028 L442.098,498.7531 L443.6729,500.0898 L443.6729,499.4488 L445.6729,500.693 L447.6729,499.8263 L449.6729,500.5643 L451.6729,499.6498 L453.6729,500.0898" fill="none" style="stroke:#FF6F00;stroke-width:1;"/><path d="M201.0566,349.293 L201.0566,349.4798 L203.0566,348.9247 L205.0566,349.4648 L207.0566,349.6482 L209.0566,348.6588 L211.0566,349.293 L211.0566,349.293 L211.0266,349.2759 L212.673,352.3411 L214.4709,355.4921 L216.374,358.7028 L217.9143,361.7078 L219.9629,365.001 L220.2042,365.0493 L220.3327,368.1661 L221.1658,371.424 L222.0847,374.6991 L222.5036,377.8741 L223.1855,381.1017 L223.2155,381.1063 L223.7457,384.7909 L224.4124,388.4966 L225.0132,392.1922 L225.7396,395.9072 L226.0566,399.5586 L226.3513,399.6044 L226.9292,403.2964 L227.3169,406.9588 L227.9829,410.6644 L228.6619,414.3721 L228.9277,418.0155 L228.6134,417.9526 L229.868,421.2948 L230.0876,424.4299 L231.094,427.7225 L231.2901,430.8529 L232.1504,434.1162 L232.1239,434.1012 L234.2184,437.4204 L235.694,440.3887 L237.5349,443.5641 L239.4063,446.7568 L241.0566,449.8242 L241.0566,450.1942 L243.0566,449.8207 L245.0566,450.0795 L247.0566,449.3154 L249.0566,450.077 L251.0566,449.8242" fill="none" style="stroke:#FF6F00;stroke-width:1;"/><a href="/use-case/legal-entity-management/lifecycle-and-status/" target="_top" title="/use-case/legal-entity-management/lifecycle-and-status/" xlink:actuate="onRequest" xlink:href="/use-case/legal-entity-management/lifecycle-and-status/" xlink:show="new" xlink:title="/use-case/legal-entity-management/lifecycle-and-status/" xlink:type="simple"><text fill="#4051B5" font-family="'Roboto'" font-size="13" lengthAdjust="spacing" textLength="116.854" x="258.0566" y="542.2896">Lifecycle &amp; Status</text></a><a href="/use-case/legal-entity-management/lifecycle-and-status/dissolution/" target="_top" title="/use-case/legal-entity-management/lifecycle-and-status/dissolution/" xlink:actuate="onRequest" xlink:href="/use-case/legal-entity-management/lifecycle-and-status/dissolution/" xlink:show="new" xlink:title="/use-case/legal-entity-management/lifecycle-and-status/dissolution/" xlink:type="simple"><text fill="#4051B5" font-family="'Roboto'" font-size="13" lengthAdjust="spacing" textLength="71.8745" x="440.043" y="529.7231">Dissolution</text></a><path d="M383.043,537.7891 L383.043,537.9759 L385.043,537.4208 L387.043,537.9609 L389.043,538.1443 L391.043,537.1549 L393.043,537.7891 L393.043,537.7891 L393.0296,537.7572 L395.9697,536.3576 L398.9771,535.1186 L402.0313,533.9912 L404.9243,532.4791 L408.043,531.5059 L408.138,531.7328 L410.9347,529.9908 L414.009,528.9115 L417.1171,527.913 L420.0282,526.4441 L423.043,525.2227 L423.043,525.2833 L425.043,525.1943 L427.043,525.3813 L429.043,525.4352 L431.043,525.7433 L433.043,525.2227" fill="none" style="stroke:#FF6F00;stroke-width:1;"/><a href="/use-case/legal-entity-management/lifecycle-and-status/liquidation/" target="_top" title="/use-case/legal-entity-management/lifecycle-and-status/liquidation/" xlink:actuate="onRequest" xlink:href="/use-case/legal-entity-management/lifecycle-and-status/liquidation/" xlink:show="new" xlink:title="/use-case/legal-entity-management/lifecycle-and-status/liquidation/" xlink:type="simple"><text fill="#4051B5" font-family="'Roboto'" font-size="13" lengthAdjust="spacing" textLength="72.0776" x="440.043" y="554.856">Liquidation</text></a><path d="M383.043,537.7891 L383.043,537.9759 L385.043,537.4208 L387.043,537.9609 L389.043,538.1443 L391.043,537.1549 L393.043,537.7891 L393.043,537.7891 L393.0296,537.7572 L395.9697,538.8709 L398.9771,540.1451 L402.0313,541.531 L404.9243,542.5322 L408.043,544.0723 L408.138,544.2992 L410.9347,545.0705 L414.009,546.5045 L417.1171,548.0193 L420.0282,549.0637 L423.043,550.3555 L423.043,550.4161 L425.043,550.3271 L427.043,550.5142 L429.043,550.568 L431.043,550.8761 L433.043,550.3555" fill="none" style="stroke:#FF6F00;stroke-width:1;"/><path d="M201.0566,349.293 L201.0566,349.4798 L203.0566,348.9247 L205.0566,349.4648 L207.0566,349.6482 L209.0566,348.6588 L211.0566,349.293 L211.0566,349.293 L211.0272,349.2749 L211.8913,350.8136 L212.9036,352.4435 L214.0191,354.1368 L214.7793,355.6116 L216.0371,357.3924 L216.2773,357.446 L216.1782,359.1906 L216.7804,361.0917 L217.4681,363.0118 L217.6581,364.8209 L218.1099,366.6884 L218.1398,366.693 L218.4664,369.0976 L218.9295,371.5233 L219.3267,373.9388 L219.8496,376.3736 L219.9629,378.7455 L220.2591,378.7803 L220.5982,381.6339 L220.7462,384.4651 L221.1739,387.3292 L221.6147,390.1948 L221.6401,393.0115 L221.3211,392.9806 L222.2494,396.2252 L222.1271,399.3679 L222.8035,402.5881 L222.6575,405.7285 L223.1855,408.9343 L223.1552,408.9318 L224.0882,415.8829 L224.3124,422.7752 L224.9548,429.7022 L225.6324,436.6321 L226.0566,443.541 L226.241,443.5563 L226.6291,450.4622 L227.3323,457.3943 L227.5258,464.284 L228.4795,471.2368 L228.9277,478.1477 L229.1702,478.1713 L229.4335,481.3514 L229.8171,484.5431 L229.6413,487.6806 L229.8756,490.8579 L230.4731,494.0705 L230.1989,494.0382 L230.7826,496.9206 L231.0573,499.7667 L231.7803,502.6655 L231.7378,505.4743 L232.1504,508.3365 L231.9997,508.3134 L232.6213,510.7634 L232.5987,513.1144 L233.0342,515.5358 L233.9179,518.0261 L234.0034,520.3937 L234.1924,520.4358 L234.7366,522.3239 L234.6929,524.0809 L235.3855,526.0021 L235.9177,527.8875 L236.0762,529.6896 L235.8973,529.5796 L237.036,531.2872 L238.1161,532.9587 L239.3112,534.701 L240.059,536.1682 L241.0566,537.7891 L241.0566,538.2002 L243.0566,537.2968 L245.0566,537.1871 L247.0566,538.2367 L249.0566,537.1518 L251.0566,537.7891" fill="none" style="stroke:#FF6F00;stroke-width:1;"/><a href="/use-case/legal-entity-management/contact-and-location-information/" target="_top" title="/use-case/legal-entity-management/contact-and-location-information/" xlink:actuate="onRequest" xlink:href="/use-case/legal-entity-management/contact-and-location-information/" xlink:show="new" xlink:title="/use-case/legal-entity-management/contact-and-location-information/" xlink:type="simple"><text fill="#4051B5" font-family="'Roboto'" font-size="13" lengthAdjust="spacing" textLength="203.8042" x="258.0566" y="592.5552">Contact &amp; Location Information</text></a><a href="/use-case/legal-entity-management/contact-and-location-information/contacts/" target="_top" title="/use-case/legal-entity-management/contact-and-location-information/contacts/" xlink:actuate="onRequest" xlink:href="/use-case/legal-entity-management/contact-and-location-information/contacts/" xlink:show="new" xlink:title="/use-case/legal-entity-management/contact-and-location-information/contacts/" xlink:type="simple"><text fill="#4051B5" font-family="'Roboto'" font-size="13" lengthAdjust="spacing" textLength="57.3511" x="526.9932" y="579.9888">Contacts</text></a><path d="M469.9932,588.0547 L469.9932,588.2415 L471.9932,587.6864 L473.9932,588.2265 L475.9932,588.41 L477.9932,587.4206 L479.9932,588.0547 L479.9932,588.0547 L479.9798,588.0228 L482.9199,586.6232 L485.9273,585.3842 L488.9815,584.2568 L491.8744,582.7447 L494.9932,581.7715 L495.0882,581.9984 L497.8849,580.2565 L500.9592,579.1771 L504.0673,578.1786 L506.9784,576.7098 L509.9932,575.4883 L509.9932,575.5489 L511.9932,575.4599 L513.9932,575.647 L515.9932,575.7008 L517.9932,576.0089 L519.9932,575.4883" fill="none" style="stroke:#FF6F00;stroke-width:1;"/><a href="/use-case/legal-entity-management/contact-and-location-information/addresses/" target="_top" title="/use-case/legal-entity-management/contact-and-location-information/addresses/" xlink:actuate="onRequest" xlink:href="/use-case/legal-entity-management/contact-and-location-information/addresses/" xlink:show="new" xlink:title="/use-case/legal-entity-management/contact-and-location-information/addresses/" xlink:type="simple"><text fill="#4051B5" font-family="'Roboto'" font-size="13" lengthAdjust="spacing" textLength="67.0566" x="526.9932" y="605.1216">Addresses</text></a><path d="M469.9932,588.0547 L469.9932,588.2415 L471.9932,587.6864 L473.9932,588.2265 L475.9932,588.41 L477.9932,587.4206 L479.9932,588.0547 L479.9932,588.0547 L479.9798,588.0228 L482.9199,589.1365 L485.9273,590.4108 L488.9815,591.7967 L491.8744,592.7978 L494.9932,594.3379 L495.0882,594.5648 L497.8849,595.3362 L500.9592,596.7701 L504.0673,598.2849 L506.9784,599.3293 L509.9932,600.6211 L509.9932,600.6818 L511.9932,600.5927 L513.9932,600.7798 L515.9932,600.8337 L517.9932,601.1417 L519.9932,600.6211" fill="none" style="stroke:#FF6F00;stroke-width:1;"/><path d="M201.0566,349.293 L201.0566,349.4798 L203.0566,348.9247 L205.0566,349.4648 L207.0566,349.6482 L209.0566,348.6588 L211.0566,349.293 L211.0566,349.293 L211.0256,349.2779 L211.8822,351.262 L212.8955,353.3222 L214.0177,355.4353 L214.7646,357.3662 L216.0371,359.5523 L216.2794,359.5949 L216.1758,361.8587 L216.7796,364.247 L217.4698,366.6505 L217.6578,368.9655 L218.1099,371.3271 L218.14,371.3308 L218.4664,374.3799 L218.9298,377.4456 L219.3272,380.5033 L219.8507,383.5764 L219.9629,386.5995 L220.2599,386.6271 L220.5989,390.2415 L220.7465,393.8381 L221.1744,397.4607 L221.6155,401.0846 L221.6401,404.6698 L221.3205,404.6453 L222.2499,408.7266 L222.1269,412.7273 L222.8039,416.7893 L222.6571,420.7881 L223.1855,424.8387 L223.1552,424.8367 L224.0887,433.6272 L224.3124,442.3713 L224.9549,451.1428 L225.6326,459.9166 L226.0566,468.6738 L226.2412,468.6859 L226.6291,477.4407 L227.3325,486.2162 L227.5254,494.9583 L228.4796,503.7502 L228.9277,512.509 L229.1707,512.5276 L229.4338,516.5578 L229.8176,520.5973 L229.6409,524.5939 L229.8751,528.6219 L230.4731,532.6778 L230.1981,532.6523 L230.7825,536.2895 L231.0571,539.8979 L231.781,543.548 L231.7376,547.1269 L232.1504,550.7482 L231.999,550.7298 L232.6217,553.8149 L232.5974,556.8214 L233.0332,559.8838 L233.9191,563.0008 L234.0034,566.0205 L234.1941,566.0541 L234.7395,568.4321 L234.6917,570.7057 L235.3868,573.11 L235.9201,575.4859 L236.0762,577.7954 L235.8873,577.7037 L237.0339,579.8286 L238.1187,581.9236 L239.325,584.0775 L240.0589,586.002 L241.0566,588.0547 L241.0566,588.4659 L243.0566,587.5624 L245.0566,587.4527 L247.0566,588.5023 L249.0566,587.4174 L251.0566,588.0547" fill="none" style="stroke:#FF6F00;stroke-width:1;"/><a href="/use-case/legal-entity-management/compliance-and-documentation/" target="_top" title="/use-case/legal-entity-management/compliance-and-documentation/" xlink:actuate="onRequest" xlink:href="/use-case/legal-entity-management/compliance-and-documentation/" xlink:show="new" xlink:title="/use-case/legal-entity-management/compliance-and-documentation/" xlink:type="simple"><text fill="#4051B5" font-family="'Roboto'" font-size="13" lengthAdjust="spacing" textLength="195.1396" x="258.0566" y="642.8208">Compliance &amp; Documentation</text></a><a href="/use-case/legal-entity-management/compliance-and-documentation/compliance/" target="_top" title="/use-case/legal-entity-management/compliance-and-documentation/compliance/" xlink:actuate="onRequest" xlink:href="/use-case/legal-entity-management/compliance-and-documentation/compliance/" xlink:show="new" xlink:title="/use-case/legal-entity-management/compliance-and-documentation/compliance/" xlink:type="simple"><text fill="#4051B5" font-family="'Roboto'" font-size="13" lengthAdjust="spacing" textLength="76.521" x="518.3286" y="630.2544">Compliance</text></a><path d="M461.3286,638.3203 L461.3286,638.5071 L463.3286,637.952 L465.3286,638.4921 L467.3286,638.6756 L469.3286,637.6862 L471.3286,638.3203 L471.3286,638.3203 L471.3153,638.2885 L474.2554,636.8888 L477.2628,635.6498 L480.3169,634.5225 L483.2099,633.0103 L486.3286,632.0371 L486.4237,632.2641 L489.2204,630.5221 L492.2947,629.4428 L495.4028,628.4443 L498.3139,626.9754 L501.3286,625.7539 L501.3286,625.8146 L503.3286,625.7255 L505.3286,625.9126 L507.3286,625.9665 L509.3286,626.2745 L511.3286,625.7539" fill="none" style="stroke:#FF6F00;stroke-width:1;"/><a href="/use-case/legal-entity-management/compliance-and-documentation/documents/" target="_top" title="/use-case/legal-entity-management/compliance-and-documentation/documents/" xlink:actuate="onRequest" xlink:href="/use-case/legal-entity-management/compliance-and-documentation/documents/" xlink:show="new" xlink:title="/use-case/legal-entity-management/compliance-and-documentation/documents/" xlink:type="simple"><text fill="#4051B5" font-family="'Roboto'" font-size="13" lengthAdjust="spacing" textLength="74.1216" x="518.3286" y="655.3872">Documents</text></a><path d="M461.3286,638.3203 L461.3286,638.5071 L463.3286,637.952 L465.3286,638.4921 L467.3286,638.6756 L469.3286,637.6862 L471.3286,638.3203 L471.3286,638.3203 L471.3153,638.2885 L474.2554,639.4021 L477.2628,640.6764 L480.3169,642.0623 L483.2099,643.0635 L486.3286,644.6035 L486.4237,644.8305 L489.2204,645.6018 L492.2947,647.0357 L495.4028,648.5505 L498.3139,649.5949 L501.3286,650.8867 L501.3286,650.9474 L503.3286,650.8583 L505.3286,651.0454 L507.3286,651.0993 L509.3286,651.4073 L511.3286,650.8867" fill="none" style="stroke:#FF6F00;stroke-width:1;"/><path d="M201.0566,349.293 L201.0566,349.4798 L203.0566,348.9247 L205.0566,349.4648 L207.0566,349.6482 L209.0566,348.6588 L211.0566,349.293 L211.0566,349.293 L211.0246,349.2801 L211.8768,351.7062 L212.8906,354.1972 L214.0168,356.7332 L214.7558,359.1139 L216.0371,361.7121 L216.2806,361.7475 L216.1745,364.5226 L216.7792,367.401 L217.4707,370.292 L217.6576,373.1097 L218.1099,375.9659 L218.14,375.9689 L218.4663,379.662 L218.93,383.3689 L219.3274,387.0691 L219.8513,390.7819 L219.9629,394.4535 L220.2603,394.4763 L220.5993,398.8515 L220.7466,403.212 L221.1747,407.594 L221.6159,411.9771 L221.6401,416.3281 L221.3203,416.3079 L222.2502,421.2302 L222.1268,426.0858 L222.8042,430.9921 L222.6569,435.8461 L223.1855,440.743 L223.0943,440.7381 L224.7471,451.4092 L224.2691,461.965 L225.0484,472.5888 L225.9333,483.2183 L226.0566,493.8066 L226.6108,493.8366 L226.6257,504.4191 L227.5875,515.0528 L227.0172,525.6036 L228.7321,536.278 L228.9277,546.8703 L229.1709,546.8856 L229.434,551.7657 L229.8178,556.6534 L229.6407,561.5056 L229.8748,566.3839 L230.4731,571.2852 L230.1978,571.264 L230.7825,575.6581 L231.057,580.0283 L231.7815,584.4331 L231.7375,588.7789 L232.1504,593.1598 L231.9987,593.1446 L232.6219,596.8674 L232.5967,600.5253 L233.0326,604.2293 L233.9198,607.9786 L234.0034,611.6474 L234.195,611.6752 L234.741,614.5451 L234.691,617.3283 L235.3875,620.2201 L235.9213,623.0882 L236.0762,625.9012 L235.8813,625.823 L237.0327,628.3691 L238.1203,630.8897 L239.3333,633.4605 L240.0588,635.8358 L241.0566,638.3203 L241.0566,638.7315 L243.0566,637.8281 L245.0566,637.7183 L247.0566,638.768 L249.0566,637.683 L251.0566,638.3203" fill="none" style="stroke:#FF6F00;stroke-width:1;"/><a href="/use-case/legal-entity-management/supporting-information/" target="_top" title="/use-case/legal-entity-management/supporting-information/" xlink:actuate="onRequest" xlink:href="/use-case/legal-entity-management/supporting-information/" xlink:show="new" xlink:title="/use-case/legal-entity-management/supporting-information/" xlink:type="simple"><text fill="#4051B5" font-family="'Roboto'" font-size="13" lengthAdjust="spacing" textLength="151.106" x="258.0566" y="680.52">Supporting Information</text></a><a href="/use-case/legal-entity-management/supporting-information/currencies/" target="_top" title="/use-case/legal-entity-management/supporting-information/currencies/" xlink:actuate="onRequest" xlink:href="/use-case/legal-entity-management/supporting-information/currencies/" xlink:show="new" xlink:title="/use-case/legal-entity-management/supporting-information/currencies/" xlink:type="simple"><text fill="#4051B5" font-family="'Roboto'" font-size="13" lengthAdjust="spacing" textLength="69.7734" x="474.2949" y="680.52">Currencies</text></a><path d="M417.2949,676.0195 L417.2949,676.2064 L419.2949,675.6512 L421.2949,676.1913 L423.2949,676.3748 L425.2949,675.3854 L427.2949,676.0195 L427.2949,676.0195 L427.2949,675.985 L433.2949,675.83 L439.2949,675.8491 L445.2949,675.9892 L451.2949,675.7123 L457.2949,676.0195 L457.2949,676.5117 L459.2949,675.4593 L461.2949,675.8437 L463.2949,676.4035 L465.2949,675.9433 L467.2949,676.0195" fill="none" style="stroke:#FF6F00;stroke-width:1;"/><path d="M201.0566,349.293 L201.0566,349.4798 L203.0566,348.9247 L205.0566,349.4648 L207.0566,349.6482 L209.0566,348.6588 L211.0566,349.293 L211.0566,349.293 L211.0241,349.2814 L211.8741,352.0374 L212.8882,354.8516 L214.0164,357.7063 L214.7514,360.4215 L216.0371,363.332 L216.2812,363.3634 L216.1738,366.5189 L216.779,369.766 L217.4712,373.0243 L217.6575,376.2175 L218.1099,379.445 L218.1401,379.4477 L218.4663,383.6235 L218.9301,387.8116 L219.3275,391.9938 L219.8516,396.1872 L219.9629,400.344 L220.2605,400.3642 L220.5995,405.31 L220.7467,410.2428 L221.1748,415.1946 L221.6161,420.1474 L221.6401,425.0718 L221.3201,425.0539 L222.2503,430.6086 L222.1267,436.1043 L222.8043,441.6448 L222.6568,447.1391 L223.1855,452.6713 L223.0943,452.6669 L224.6517,462.7161 L224.0777,472.6632 L224.7613,482.6705 L225.5506,492.6829 L226.1325,502.6853 L226.0566,512.6563 L226.0514,512.656 L226.9177,522.6721 L226.2513,532.6147 L227.8709,542.6669 L228.7008,552.6812 L229.0413,562.672 L228.9277,572.6412 L229.1998,572.6564 L229.0224,578.1491 L229.2565,583.6648 L229.5792,589.1854 L230.1379,594.7193 L230.4731,600.2407 L230.386,600.2348 L231.1107,605.2067 L231.0666,610.1265 L231.3274,615.0671 L231.9162,620.0298 L232.1504,624.9685 L231.8552,624.9423 L232.2912,629.1279 L233.1789,633.3536 L233.4551,637.525 L233.958,641.7165 L234.0034,645.8675 L233.8616,645.8493 L234.5587,649.1082 L235.0928,652.3462 L235.0388,655.5085 L235.6194,658.7525 L236.0762,661.9805 L236.1289,661.9992 L237.3453,664.8852 L238.0666,667.5955 L239.2582,670.4727 L239.8286,673.1294 L241.0566,676.0195 L241.0566,675.4175 L243.0566,676.4672 L245.0566,675.3823 L247.0566,676.4719 L249.0566,676.2032 L251.0566,676.0195" fill="none" style="stroke:#FF6F00;stroke-width:1;"/><!--SRC=[xLfRRzis57xNh-0QO6tHUexRj2YAegZZN9hMYGCxwJ0KHK1Bj4r49bsIIfOE- -yxf4JTRDcM8tKDuBn498- -S-7b7Ehp1wcmK5FAl2cUESvl7XbHHj3-yTLf- -JigjFhzlh8_EtixRvg3L-bHGQ7dTxPGRl_LoItGEIytVdSFZwCWUP4Uls3mtvQ3zePZLwFTdTZaQFUsKL6m8ZelrYatU_t_ipAM1H7NbCsmm9FqH2xrsF10-PrkCy5sb42CmbZXAcKsCUx6H4-PTUHL6InynXHvlg1Hv2Q43GcZ0Zie_WzYKOWFUHgyXpvT3nH23CFULXSmvkA8tv3nAsWYg1RgYOX1hqX34cY56LZcO_9nSUJpkUpmy40jM1Y-4nHpj04G3MAWXT7s9SaPVWvzZm0GdkfldxehW1ZqPjK_s22FNwhfVCeiVkNp3CF9199oHoG4GvyXVvnZZXJPtXAqAC-1z_v8zCJHYwPEDCve3y8Qkqv_wQHsaBmMy1P-CPY67NdGuouxsMHPZ2xU4mYc-PUtSzDVcQ5E_jSWBFHI6f9Wef40-DU6VZCqbzFWykdCyvWEOAQ3GrUQ5qOis3glyZ6pCCA3x4a5QlBw71z7dYrAk2-JrozEsJbQX8j7H0GtAzHmxw6nEAkHXM7J55LfmBA514Zx98QTGp8zu0mbvn3ug8kdM6cGh2B2NMl6P4I3in4N4RYO57wZQN6pK4li3CbannBZ8ifzlDZS-vqwOXquMGj18y5bfff3iyvSDDRY6n65nfbHf8OldJQhk9YXGL6f52N7YtQm8zHPm_fg44IWiREoh_qdXUmuJ4R- -JTEyXMahFtxs5-1x3u25UGm0gpHrLv8R_YyZaxUqIbp2L_Wv4C-rVLsvqhnsemNjv9HQOFBzRLsrrJh6r2VXYXJgnzU95EBPDXb7X3gtE5STOBKyFkhgxsDl9zkMDXWl6md11l7LyNkkg2OWnvHQphAzJhovTI3PukdyBIrn1xWKjyUXdcdnxSo0I5cjwBSFG5BheAcs9VeWQQ1bBfkfmWF09NhSxSjI2bBRgQ5jvnKdVL8YFJfKGIZ5pj3XTtjRhCMfpfbH9q62XIN0VCsxha0fEfzh6KcrcrJC5ZT1hDYvmHbuwe2_wRqW6cw7QYRzKApY2eFwMUK3Dvpz7G3mZC7MD45o8IyK3fuVahNSNM9lWuMrF1HTvvXhv-HSr0aeOBHsVJ9sFiDuWfp1jJpE0AEuLM4tNrWAtOJ-C1zEsRy-pPrNeWu2pqGRImlXurCFCQWeofLC9qDD59HW3zZlgfuL1LLRh2zs2BJQrlH_1ShOvX8AaETCxB_QYxHk_WX9WIuL9uEUmdeWbtHjiPQORpergjUhV5uw0mqowrL5mkPXnWIMEilrGn35ScxK7KYuxZtd8kBCJrg0Ytv8JEP1CTf9iLm4iwPXZmA07mGTAe09gBCMRqXuall0Kp4RWg412gNcO4RZRHIAbPuBUGctKOp5oxU4PLJeiLWBtQ2OVpgghI5O-djLQgmGs_gJJZZokLeii95cO1cFyGhvgyC7fiVwGkdfjADL4f0-8bgavCknvToUh7uRUrz67GZZwtXHhhKmcdvvW88uxTxm6Lr9o34pW1kRXhebCp3bFRJaRHnt2qTkFaZB867utq4hEFjIiDsGffv6KmX7A6ul2SEmz73EimI8tK7mV5tUk6dFbKwL3e5WH4jsfNxT4RdI8zaqEYnrBdxOZgOrrdRSfqQHBbqIFRZKwIxdBxQp4of6UYezGs_wj07Ecxgnw76nmOdcfLWKwmO9gRQX2fAFJfXNOOzQ53srU59btH06WJzSE7AZ1zYeVKrw9GUKq1ksixq8NkABLKV3eYxfthat3lmUqhC8XHBnn20zDNpl25g1uSzDmFmhLua3GgWFOf79HUjCoxIQDahGWBp5K6r-THSPhPG9rG0eBIZSOttqahjKK2CbOhArQ0FGyg2AaNVzi-bWpO50v4NK0Q9Hvt0xD9RR3iACJh83rMreybMfB1ZCBg5DYMFeljOwaWoM06nxlU_DcrD8ZxDrz31TXk821fkYP_Tk9d3Vq1KadyguWFsHz9LFUJWb-OlBVViTPaxjFY2m1ASFRslVmt6Hkqz8SN-oEFfIpzVG6NaVBBCEOjs826BwTWBUBzFf1BgVQomEkGwvjZBg7JDmSj9D0tXrn6cM-EMWj9RiqfeCUjPQMPSUl08bhSWXOnujQcr5Th2pT7X5ki70UUaLz9WCSAyzHtZ9vblLCRQIC2k_XaBRDQvYV_lWJrpxPh1RFuluNfLx1hRThu9rlpImMfKiRNsb7IcqAhbxAxhJhftAezoSM_AhfsOxvrGRwiZ6jD8-LooJp5caapYoANBq7Ne5MB3LW9MK1ztWDnItPkoSujsRabExTavvRit9ATMx9pItPkoSujsRabExTavvRit9AT3uNiFFSnKvUdNGJN0Abrj_vuiVlYrH-jrf0etDfzSick6MGlmujHE0lWN2HFdIV7vrqaUI0Wpfw-jEcl7_3wK-SJli6e7p0jznRrPeHzElXiE-3EVqC5PzfmvzENqqJWzLvZdoeq808CGLzE7Vlvw92vN5EbRz7bnL7ZZTF5R1o0xsyHOKw70wwuWx71Vm00]--></g></svg>