<svg xmlns="http://www.w3.org/2000/svg" xmlns:xlink="http://www.w3.org/1999/xlink" contentStyleType="text/css" data-diagram-type="MINDMAP" height="700px" preserveAspectRatio="none" style="width:905px;height:700px;" version="1.1" viewBox="0 0 905 700" width="905px" zoomAndPan="magnify"><defs/><g><polygon fill="#4051B5" points="14,331.7266,14,331.9367,24.1698,331.3122,34.3396,331.9198,44.5094,332.1262,54.6793,331.0132,64.8491,331.6488,75.0189,331.3001,85.1887,331.3431,95.3585,331.6584,105.5283,331.0352,115.6981,332.2802,125.8679,331.0963,136.0378,331.5288,146.2076,332.1585,156.3774,331.6408,166.5472,331.7948,176.717,331.6946,186.8868,331.9051,197.0566,331.7266,197.0871,331.8002,197.697,332.1412,198.2736,332.4018,198.8403,332.6387,199.3519,332.7422,199.8851,332.8981,200.0278,332.9573,200.3356,333.5534,200.1316,333.9375,200.797,334.6817,200.731,335.1231,201.0566,335.7266,201.2346,335.7266,200.8916,341.1531,201.0338,346.5797,201.3038,352.0063,201.0404,357.4328,201.0566,362.8594,201.0891,362.8728,200.9266,363.4683,200.7162,364.0438,200.3525,364.5559,200.2078,365.1588,199.8851,365.6878,199.812,365.5115,199.3557,366.0097,198.8236,366.3253,198.2447,366.5276,197.7005,366.8138,197.0566,366.8594,197.0566,366.3763,186.8868,366.2072,176.717,366.238,166.5472,366.8005,156.3774,366.6628,146.2076,367.5408,136.0378,366.6847,125.8679,366.5163,115.6981,367.0876,105.5283,366.1925,95.3585,366.3402,85.1887,367.5083,75.0189,367.295,64.8491,367.5939,54.6793,366.5376,44.5094,367.1786,34.3396,367.4498,24.1698,366.387,14,366.8594,13.9878,366.8299,13.4504,366.6639,12.9518,366.5915,12.3024,366.1551,11.7963,366.0646,11.1716,365.6878,11.001,365.6172,10.7287,365.0357,10.858,364.6207,10.2478,363.8993,10.3911,363.49,10,362.8594,10.0689,362.8594,9.9107,357.4328,9.8821,352.0063,10.1529,346.5797,9.9002,341.1531,10,335.7266,10.1823,335.8021,10.0641,335.0904,10.6588,334.674,10.8521,334.0913,11.0127,333.4951,11.1716,332.8981,11.1776,332.9127,11.8299,332.8876,12.3812,332.6185,12.8902,332.2473,13.4685,332.0435,14,331.7266" style="stroke:#FF6F00;stroke-width:1.5;"/><a href="/use-case/legal-entity-management/" target="_top" title="/use-case/legal-entity-management/" xlink:actuate="onRequest" xlink:href="/use-case/legal-entity-management/" xlink:show="new" xlink:title="/use-case/legal-entity-management/" xlink:type="simple"><text fill="#4051B5" font-family="'Roboto'" font-size="13" lengthAdjust="spacing" textLength="166.9243" x="20" y="353.7935">Legal Entity Management</text></a><text fill="#FFFFFF" font-family="'Roboto'" font-size="13" lengthAdjust="spacing" textLength="182.6157" x="258.0566" y="64.7661">Identification &amp; Registration</text><a href="/use-case/legal-entity-management/identification-and-registration/legal-form/" target="_top" title="/use-case/legal-entity-management/identification-and-registration/legal-form/" xlink:actuate="onRequest" xlink:href="/use-case/legal-entity-management/identification-and-registration/legal-form/" xlink:show="new" xlink:title="/use-case/legal-entity-management/identification-and-registration/legal-form/" xlink:type="simple"><text fill="#4051B5" font-family="'Roboto'" font-size="13" lengthAdjust="spacing" textLength="72.6426" x="501.6724" y="27.0669">Legal Form</text></a><path d="M444.6724,60.2656 L444.6724,60.4525 L446.6724,59.8973 L448.6724,60.4374 L450.6724,60.6209 L452.6724,59.6315 L454.6724,60.2656 L454.6724,60.2656 L454.6533,60.2368 L456.349,58.9294 L458.1408,57.7673 L459.9994,56.7061 L461.6279,55.2969 L463.5786,54.3751 L463.8013,54.4798 L464.5439,51.6641 L465.9366,49.1541 L467.4086,46.6814 L468.4191,43.9916 L469.6724,41.416 L469.6998,41.4289 L470.8783,38.8182 L472.1817,36.2661 L473.4248,33.6858 L474.7829,31.1595 L475.7661,28.4569 L475.9306,28.7057 L477.7139,27.5306 L479.391,26.1951 L481.2235,25.0945 L483.0633,24.0048 L484.6724,22.5664 L484.6724,21.9254 L486.6724,23.1695 L488.6724,22.3028 L490.6724,23.0409 L492.6724,22.1264 L494.6724,22.5664" fill="none" style="stroke:#FF6F00;stroke-width:1;"/><a href="/use-case/legal-entity-management/identification-and-registration/business-registration/" target="_top" title="/use-case/legal-entity-management/identification-and-registration/business-registration/" xlink:actuate="onRequest" xlink:href="/use-case/legal-entity-management/identification-and-registration/business-registration/" xlink:show="new" xlink:title="/use-case/legal-entity-management/identification-and-registration/business-registration/" xlink:type="simple"><text fill="#4051B5" font-family="'Roboto'" font-size="13" lengthAdjust="spacing" textLength="140.4355" x="501.6724" y="52.1997">Business Registration</text></a><path d="M444.6724,60.2656 L444.6724,60.4525 L446.6724,59.8973 L448.6724,60.4374 L450.6724,60.6209 L452.6724,59.6315 L454.6724,60.2656 L454.6724,60.2656 L454.659,60.2338 L457.5991,58.8342 L460.6065,57.5951 L463.6607,56.4678 L466.5536,54.9556 L469.6724,53.9824 L469.7674,54.2094 L472.5641,52.4674 L475.6384,51.3881 L478.7465,50.3896 L481.6576,48.9207 L484.6724,47.6992 L484.6724,47.7599 L486.6724,47.6708 L488.6724,47.8579 L490.6724,47.9118 L492.6724,48.2198 L494.6724,47.6992" fill="none" style="stroke:#FF6F00;stroke-width:1;"/><a href="/use-case/legal-entity-management/identification-and-registration/commercial-register/" target="_top" title="/use-case/legal-entity-management/identification-and-registration/commercial-register/" xlink:actuate="onRequest" xlink:href="/use-case/legal-entity-management/identification-and-registration/commercial-register/" xlink:show="new" xlink:title="/use-case/legal-entity-management/identification-and-registration/commercial-register/" xlink:type="simple"><text fill="#4051B5" font-family="'Roboto'" font-size="13" lengthAdjust="spacing" textLength="136.2778" x="501.6724" y="77.3325">Commercial Register</text></a><path d="M444.6724,60.2656 L444.6724,60.4525 L446.6724,59.8973 L448.6724,60.4374 L450.6724,60.6209 L452.6724,59.6315 L454.6724,60.2656 L454.6724,60.2656 L454.659,60.2338 L457.5991,61.3474 L460.6065,62.6217 L463.6607,64.0076 L466.5536,65.0088 L469.6724,66.5488 L469.7674,66.7758 L472.5641,67.5471 L475.6384,68.981 L478.7465,70.4958 L481.6576,71.5402 L484.6724,72.832 L484.6724,72.8927 L486.6724,72.8036 L488.6724,72.9907 L490.6724,73.0446 L492.6724,73.3526 L494.6724,72.832" fill="none" style="stroke:#FF6F00;stroke-width:1;"/><a href="/use-case/legal-entity-management/identification-and-registration/classification/" target="_top" title="/use-case/legal-entity-management/identification-and-registration/classification/" xlink:actuate="onRequest" xlink:href="/use-case/legal-entity-management/identification-and-registration/classification/" xlink:show="new" xlink:title="/use-case/legal-entity-management/identification-and-registration/classification/" xlink:type="simple"><text fill="#4051B5" font-family="'Roboto'" font-size="13" lengthAdjust="spacing" textLength="86.0171" x="501.6724" y="102.4653">Classification</text></a><path d="M444.6724,60.2656 L444.6724,60.4525 L446.6724,59.8973 L448.6724,60.4374 L450.6724,60.6209 L452.6724,59.6315 L454.6724,60.2656 L454.6724,60.2656 L454.6533,60.2368 L456.349,61.2856 L458.1408,62.4797 L459.9994,63.7747 L461.6279,64.7217 L463.5786,66.1561 L463.8013,66.2608 L464.5439,68.6287 L465.9366,71.3024 L467.4086,74.0133 L468.4191,76.5072 L469.6724,79.1152 L469.6998,79.1281 L470.8783,81.701 L472.1817,84.3326 L473.4248,86.9359 L474.7829,89.5933 L475.7661,92.0743 L475.9306,92.3231 L477.7139,93.5042 L479.391,94.5249 L481.2235,95.7805 L483.0633,97.0471 L484.6724,97.9648 L484.6724,97.3238 L486.6724,98.568 L488.6724,97.7013 L490.6724,98.4393 L492.6724,97.5248 L494.6724,97.9648" fill="none" style="stroke:#FF6F00;stroke-width:1;"/><path d="M201.0566,349.293 L201.0566,349.4798 L203.0566,348.9247 L205.0566,349.4648 L207.0566,349.6482 L209.0566,348.6588 L211.0566,349.293 L211.0566,349.293 L211.0246,349.2801 L211.8768,346.7386 L212.8906,344.2619 L214.0168,341.8302 L214.7558,339.2433 L216.0371,336.8738 L216.2806,336.9092 L216.1745,333.9828 L216.7792,331.1597 L217.4707,328.3492 L217.6576,325.4653 L218.1099,322.62 L218.14,322.6231 L218.4663,318.9211 L218.93,315.2329 L219.3274,311.5381 L219.8513,307.8559 L219.9629,304.1324 L220.2603,304.1552 L220.5993,299.7806 L220.7466,295.3912 L221.1747,291.0234 L221.6159,286.6566 L221.6401,282.2578 L221.3203,282.2376 L222.2502,277.3939 L222.1268,272.4835 L222.8042,267.6239 L222.6569,262.712 L223.1855,257.8429 L223.0943,257.838 L224.7471,247.2836 L224.2691,236.614 L225.0484,226.0123 L225.9333,215.4164 L226.0566,204.7793 L226.6108,204.8093 L226.6257,194.1663 L227.5875,183.5745 L227.0172,172.8999 L228.7321,162.3489 L228.9277,151.7157 L229.1709,151.7311 L229.434,146.8452 L229.8178,141.9669 L229.6407,137.0532 L229.8748,132.1654 L230.4731,127.3008 L230.1978,127.2797 L230.7825,122.9238 L231.057,118.5442 L231.7815,114.1992 L231.7375,109.7951 L232.1504,105.4261 L231.9987,105.4109 L232.6219,101.7387 L232.5967,98.0016 L233.0326,94.3106 L233.9198,90.6648 L234.0034,86.9386 L234.195,86.9664 L234.741,84.1348 L234.691,81.2165 L235.3875,78.4067 L235.9213,75.5733 L236.0762,72.6848 L235.8813,72.6066 L237.0327,70.1851 L238.1203,67.738 L239.3333,65.3411 L240.0588,62.7488 L241.0566,60.2656 L241.0566,60.6768 L243.0566,59.7734 L245.0566,59.6636 L247.0566,60.7133 L249.0566,59.6283 L251.0566,60.2656" fill="none" style="stroke:#FF6F00;stroke-width:1;"/><text fill="#FFFFFF" font-family="'Roboto'" font-size="13" lengthAdjust="spacing" textLength="147.7734" x="258.0566" y="152.731">Corporate Governance</text><a href="/use-case/legal-entity-management/corporate-governance/directorships/" target="_top" title="/use-case/legal-entity-management/corporate-governance/directorships/" xlink:actuate="onRequest" xlink:href="/use-case/legal-entity-management/corporate-governance/directorships/" xlink:show="new" xlink:title="/use-case/legal-entity-management/corporate-governance/directorships/" xlink:type="simple"><text fill="#4051B5" font-family="'Roboto'" font-size="13" lengthAdjust="spacing" textLength="86.1567" x="466.8301" y="127.5981">Directorships</text></a><path d="M409.8301,148.2305 L409.8301,148.4173 L411.8301,147.8622 L413.8301,148.4023 L415.8301,148.5857 L417.8301,147.5963 L419.8301,148.2305 L419.8301,148.2305 L419.8079,148.204 L422.7084,145.5719 L425.7206,143.0733 L428.8106,140.6674 L431.6328,137.9418 L434.8301,135.6641 L434.9881,135.8527 L437.6502,132.9361 L440.7736,130.5701 L443.9534,128.2714 L446.8056,125.5817 L449.8301,123.0977 L449.8301,123.1583 L451.8301,123.0693 L453.8301,123.2563 L455.8301,123.3102 L457.8301,123.6183 L459.8301,123.0977" fill="none" style="stroke:#FF6F00;stroke-width:1;"/><a href="/use-case/legal-entity-management/corporate-governance/signatories/" target="_top" title="/use-case/legal-entity-management/corporate-governance/signatories/" xlink:actuate="onRequest" xlink:href="/use-case/legal-entity-management/corporate-governance/signatories/" xlink:show="new" xlink:title="/use-case/legal-entity-management/corporate-governance/signatories/" xlink:type="simple"><text fill="#4051B5" font-family="'Roboto'" font-size="13" lengthAdjust="spacing" textLength="73.0996" x="466.8301" y="152.731">Signatories</text></a><path d="M409.8301,148.2305 L409.8301,148.4173 L411.8301,147.8622 L413.8301,148.4023 L415.8301,148.5857 L417.8301,147.5963 L419.8301,148.2305 L419.8301,148.2305 L419.8301,148.1959 L425.8301,148.0409 L431.8301,148.06 L437.8301,148.2002 L443.8301,147.9232 L449.8301,148.2305 L449.8301,148.7226 L451.8301,147.6702 L453.8301,148.0547 L455.8301,148.6144 L457.8301,148.1542 L459.8301,148.2305" fill="none" style="stroke:#FF6F00;stroke-width:1;"/><a href="/use-case/legal-entity-management/corporate-governance/organizational-structure/" target="_top" title="/use-case/legal-entity-management/corporate-governance/organizational-structure/" xlink:actuate="onRequest" xlink:href="/use-case/legal-entity-management/corporate-governance/organizational-structure/" xlink:show="new" xlink:title="/use-case/legal-entity-management/corporate-governance/organizational-structure/" xlink:type="simple"><text fill="#4051B5" font-family="'Roboto'" font-size="13" lengthAdjust="spacing" textLength="159.8086" x="466.8301" y="177.8638">Organizational Structure</text></a><path d="M409.8301,148.2305 L409.8301,148.4173 L411.8301,147.8622 L413.8301,148.4023 L415.8301,148.5857 L417.8301,147.5963 L419.8301,148.2305 L419.8301,148.2305 L419.8079,148.204 L422.7084,150.5984 L425.7206,153.1264 L428.8106,155.7471 L431.6328,158.0481 L434.8301,160.7969 L434.9881,160.9855 L437.6502,163.0954 L440.7736,165.7561 L443.9534,168.4839 L446.8056,170.8208 L449.8301,173.3633 L449.8301,173.4239 L451.8301,173.3349 L453.8301,173.522 L455.8301,173.5758 L457.8301,173.8839 L459.8301,173.3633" fill="none" style="stroke:#FF6F00;stroke-width:1;"/><path d="M201.0566,349.293 L201.0566,349.4798 L203.0566,348.9247 L205.0566,349.4648 L207.0566,349.6482 L209.0566,348.6588 L211.0566,349.293 L211.0566,349.293 L211.0267,349.2757 L211.8885,347.4704 L212.9012,345.7521 L214.0187,344.0942 L214.7748,342.228 L216.0371,340.6536 L216.278,340.7039 L216.1775,338.6131 L216.7802,336.6693 L217.4687,334.7434 L217.658,332.7132 L218.1099,330.7379 L218.1399,330.7422 L218.4664,328.1637 L218.9296,325.6048 L219.3269,323.0365 L219.8499,320.4863 L219.9629,317.877 L220.2593,317.9096 L220.5984,314.8666 L220.7463,311.8025 L221.174,308.7692 L221.6149,305.7374 L221.6401,302.6598 L221.3209,302.6308 L222.2495,299.2903 L222.1271,295.8542 L222.8037,292.4907 L222.6574,289.0525 L223.1855,285.6755 L223.1552,285.6732 L224.0884,278.3183 L224.3124,270.9083 L224.9549,263.5309 L225.6325,256.1562 L226.0566,248.7617 L226.2411,248.7761 L226.6291,241.3788 L227.3323,234.0061 L227.5257,226.5937 L228.4795,219.2405 L228.9277,211.8479 L229.1704,211.87 L229.4336,208.4689 L229.8172,205.0789 L229.6412,201.6379 L229.8754,198.2342 L230.4731,194.8636 L230.1986,194.8334 L230.7826,191.8173 L231.0572,188.7672 L231.7805,185.7665 L231.7378,182.6814 L232.1504,179.6465 L231.9995,179.6247 L232.6214,177.0888 L232.5983,174.4598 L233.0338,171.897 L233.9183,169.3989 L234.0034,166.7856 L234.193,166.8252 L234.7375,164.8692 L234.6925,162.79 L235.3859,160.8652 L235.9185,158.9067 L236.0762,156.8699 L235.8943,156.765 L237.0354,155.1207 L238.1169,153.4421 L239.3154,151.8309 L240.0589,149.9574 L241.0566,148.2305 L241.0566,148.6416 L243.0566,147.7382 L245.0566,147.6285 L247.0566,148.6781 L249.0566,147.5932 L251.0566,148.2305" fill="none" style="stroke:#FF6F00;stroke-width:1;"/><text fill="#FFFFFF" font-family="'Roboto'" font-size="13" lengthAdjust="spacing" textLength="198.1992" x="258.0566" y="290.9614">Ownership &amp; Capital Structure</text><a href="/use-case/legal-entity-management/ownership-and-capital-structure/ownership/" target="_top" title="/use-case/legal-entity-management/ownership-and-capital-structure/ownership/" xlink:actuate="onRequest" xlink:href="/use-case/legal-entity-management/ownership-and-capital-structure/ownership/" xlink:show="new" xlink:title="/use-case/legal-entity-management/ownership-and-capital-structure/ownership/" xlink:type="simple"><text fill="#4051B5" font-family="'Roboto'" font-size="13" lengthAdjust="spacing" textLength="69.3228" x="517.2559" y="202.9966">Ownership</text></a><path d="M460.2559,286.4609 L460.2559,286.6478 L462.2559,286.0927 L464.2559,286.6327 L466.2559,286.8162 L468.2559,285.8268 L470.2559,286.4609 L470.2559,286.4609 L470.2269,286.4422 L471.878,283.609 L473.6753,280.8704 L475.5742,278.1978 L477.123,275.2982 L479.1621,272.7164 L479.402,272.7713 L479.5336,269.8363 L480.3655,267.0616 L481.2828,264.3064 L481.7031,261.4374 L482.3848,258.6283 L482.4146,258.6336 L482.945,255.3959 L483.6113,252.1823 L484.2121,248.957 L484.9379,245.754 L485.2559,242.4785 L485.5495,242.5307 L486.1273,239.3014 L486.5157,236.0384 L487.1814,232.8247 L487.86,229.6133 L488.127,226.3287 L487.8145,226.2572 L489.0655,223.5783 L489.2876,220.6641 L490.2918,217.9288 L490.4906,215.0092 L491.3496,212.2406 L491.3241,212.224 L493.4075,209.6709 L494.8939,206.731 L496.7326,204.0193 L498.6009,201.3268 L500.2559,198.4961 L500.2559,198.8661 L502.2559,198.4926 L504.2559,198.7514 L506.2559,197.9873 L508.2559,198.7489 L510.2559,198.4961" fill="none" style="stroke:#FF6F00;stroke-width:1;"/><a href="/use-case/legal-entity-management/ownership-and-capital-structure/control/" target="_top" title="/use-case/legal-entity-management/ownership-and-capital-structure/control/" xlink:actuate="onRequest" xlink:href="/use-case/legal-entity-management/ownership-and-capital-structure/control/" xlink:show="new" xlink:title="/use-case/legal-entity-management/ownership-and-capital-structure/control/" xlink:type="simple"><text fill="#4051B5" font-family="'Roboto'" font-size="13" lengthAdjust="spacing" textLength="47.2773" x="517.2559" y="228.1294">Control</text></a><path d="M460.2559,286.4609 L460.2559,286.6478 L462.2559,286.0927 L464.2559,286.6327 L466.2559,286.8162 L468.2559,285.8268 L470.2559,286.4609 L470.2559,286.4609 L470.2303,286.4377 L471.8967,284.3701 L473.6921,282.4194 L475.5772,280.5501 L477.1533,278.4005 L479.1621,276.6434 L479.3964,276.7185 L479.5399,274.5454 L480.3675,272.5914 L481.2785,270.6642 L481.7039,268.5815 L482.3848,266.5805 L482.4142,266.5878 L482.9452,264.2699 L483.6102,261.9854 L484.2106,259.6848 L484.9342,257.4149 L485.2559,255.0449 L485.5453,255.117 L486.123,252.8107 L486.5141,250.458 L487.1785,248.1733 L487.8556,245.8918 L488.127,243.5094 L487.8217,243.4116 L489.0587,241.5887 L489.2905,239.444 L490.2865,237.5439 L490.4956,235.3919 L491.3496,233.4464 L491.3271,233.426 L493.375,231.7044 L494.8961,229.5049 L496.728,227.5874 L498.5861,225.6935 L500.2559,223.6289 L500.2559,223.9989 L502.2559,223.6254 L504.2559,223.8842 L506.2559,223.1201 L508.2559,223.8817 L510.2559,223.6289" fill="none" style="stroke:#FF6F00;stroke-width:1;"/><a href="/use-case/legal-entity-management/ownership-and-capital-structure/shares/" target="_top" title="/use-case/legal-entity-management/ownership-and-capital-structure/shares/" xlink:actuate="onRequest" xlink:href="/use-case/legal-entity-management/ownership-and-capital-structure/shares/" xlink:show="new" xlink:title="/use-case/legal-entity-management/ownership-and-capital-structure/shares/" xlink:type="simple"><text fill="#4051B5" font-family="'Roboto'" font-size="13" lengthAdjust="spacing" textLength="132.2979" x="517.2559" y="253.2622">Shares &amp; Ownership</text></a><path d="M460.2559,286.4609 L460.2559,286.6478 L462.2559,286.0927 L464.2559,286.6327 L466.2559,286.8162 L468.2559,285.8268 L470.2559,286.4609 L470.2559,286.4609 L470.2368,286.4321 L471.9325,285.1247 L473.7243,283.9626 L475.5829,282.9014 L477.2114,281.4922 L479.1621,280.5704 L479.3848,280.6751 L480.1274,277.8594 L481.5201,275.3494 L482.9921,272.8767 L484.0026,270.1869 L485.2559,267.6113 L485.2833,267.6242 L486.4618,265.0135 L487.7652,262.4614 L489.0083,259.8811 L490.3664,257.3548 L491.3496,254.6522 L491.5141,254.901 L493.2974,253.7259 L494.9745,252.3904 L496.807,251.2898 L498.6468,250.2001 L500.2559,248.7617 L500.2559,248.1207 L502.2559,249.3648 L504.2559,248.4982 L506.2559,249.2362 L508.2559,248.3217 L510.2559,248.7617" fill="none" style="stroke:#FF6F00;stroke-width:1;"/><a href="/use-case/legal-entity-management/ownership-and-capital-structure/share-capital/" target="_top" title="/use-case/legal-entity-management/ownership-and-capital-structure/share-capital/" xlink:actuate="onRequest" xlink:href="/use-case/legal-entity-management/ownership-and-capital-structure/share-capital/" xlink:show="new" xlink:title="/use-case/legal-entity-management/ownership-and-capital-structure/share-capital/" xlink:type="simple"><text fill="#4051B5" font-family="'Roboto'" font-size="13" lengthAdjust="spacing" textLength="87.5151" x="517.2559" y="278.395">Share Capital</text></a><path d="M460.2559,286.4609 L460.2559,286.6478 L462.2559,286.0927 L464.2559,286.6327 L466.2559,286.8162 L468.2559,285.8268 L470.2559,286.4609 L470.2559,286.4609 L470.2425,286.4291 L473.1826,285.0295 L476.19,283.7904 L479.2442,282.6631 L482.1371,281.151 L485.2559,280.1777 L485.3509,280.4047 L488.1476,278.6627 L491.2219,277.5834 L494.33,276.5849 L497.2411,275.116 L500.2559,273.8945 L500.2559,273.9552 L502.2559,273.8661 L504.2559,274.0532 L506.2559,274.1071 L508.2559,274.4151 L510.2559,273.8945" fill="none" style="stroke:#FF6F00;stroke-width:1;"/><a href="/use-case/legal-entity-management/ownership-and-capital-structure/issued-capital/" target="_top" title="/use-case/legal-entity-management/ownership-and-capital-structure/issued-capital/" xlink:actuate="onRequest" xlink:href="/use-case/legal-entity-management/ownership-and-capital-structure/issued-capital/" xlink:show="new" xlink:title="/use-case/legal-entity-management/ownership-and-capital-structure/issued-capital/" xlink:type="simple"><text fill="#4051B5" font-family="'Roboto'" font-size="13" lengthAdjust="spacing" textLength="91.584" x="517.2559" y="303.5278">Issued Capital</text></a><path d="M460.2559,286.4609 L460.2559,286.6478 L462.2559,286.0927 L464.2559,286.6327 L466.2559,286.8162 L468.2559,285.8268 L470.2559,286.4609 L470.2559,286.4609 L470.2425,286.4291 L473.1826,287.5427 L476.19,288.817 L479.2442,290.2029 L482.1371,291.2041 L485.2559,292.7441 L485.3509,292.9711 L488.1476,293.7424 L491.2219,295.1764 L494.33,296.6911 L497.2411,297.7355 L500.2559,299.0273 L500.2559,299.088 L502.2559,298.9989 L504.2559,299.186 L506.2559,299.2399 L508.2559,299.548 L510.2559,299.0273" fill="none" style="stroke:#FF6F00;stroke-width:1;"/><a href="/use-case/legal-entity-management/ownership-and-capital-structure/corporate-actions/" target="_top" title="/use-case/legal-entity-management/ownership-and-capital-structure/corporate-actions/" xlink:actuate="onRequest" xlink:href="/use-case/legal-entity-management/ownership-and-capital-structure/corporate-actions/" xlink:show="new" xlink:title="/use-case/legal-entity-management/ownership-and-capital-structure/corporate-actions/" xlink:type="simple"><text fill="#4051B5" font-family="'Roboto'" font-size="13" lengthAdjust="spacing" textLength="116.835" x="517.2559" y="328.6606">Corporate Actions</text></a><a href="/use-case/legal-entity-management/ownership-and-capital-structure/corporate-actions/merger-and-acquisition-history/" target="_top" title="/use-case/legal-entity-management/ownership-and-capital-structure/corporate-actions/merger-and-acquisition-history/" xlink:actuate="onRequest" xlink:href="/use-case/legal-entity-management/ownership-and-capital-structure/corporate-actions/merger-and-acquisition-history/" xlink:show="new" xlink:title="/use-case/legal-entity-management/ownership-and-capital-structure/corporate-actions/merger-and-acquisition-history/" xlink:type="simple"><text fill="#4051B5" font-family="'Roboto'" font-size="13" lengthAdjust="spacing" textLength="186.3672" x="699.2231" y="278.395">Merger &amp; Acquisition History</text></a><path d="M642.2231,324.1602 L642.2231,324.347 L644.2231,323.7919 L646.2231,324.332 L648.2231,324.5154 L650.2231,323.526 L652.2231,324.1602 L652.2231,324.1602 L652.2003,324.1343 L653.879,322.4472 L655.6729,320.8907 L657.5469,319.425 L659.1449,317.6465 L661.1294,316.3062 L661.3614,316.388 L662.084,312.7572 L663.484,309.3654 L664.9667,306.0027 L665.9684,302.4704 L667.2231,299.0273 L667.2517,299.0374 L668.4285,295.5669 L669.7355,292.1422 L670.9796,288.6954 L672.3436,285.2909 L673.3169,281.7485 L673.5142,281.9722 L675.2978,280.4042 L676.9542,278.6918 L678.7969,277.1907 L680.6483,275.6994 L682.2231,273.8945 L682.2231,273.2535 L684.2231,274.4977 L686.2231,273.631 L688.2231,274.369 L690.2231,273.4545 L692.2231,273.8945" fill="none" style="stroke:#FF6F00;stroke-width:1;"/><a href="/use-case/legal-entity-management/ownership-and-capital-structure/corporate-actions/spin-offs/" target="_top" title="/use-case/legal-entity-management/ownership-and-capital-structure/corporate-actions/spin-offs/" xlink:actuate="onRequest" xlink:href="/use-case/legal-entity-management/ownership-and-capital-structure/corporate-actions/spin-offs/" xlink:show="new" xlink:title="/use-case/legal-entity-management/ownership-and-capital-structure/corporate-actions/spin-offs/" xlink:type="simple"><text fill="#4051B5" font-family="'Roboto'" font-size="13" lengthAdjust="spacing" textLength="56.9258" x="699.2231" y="303.5278">Spin-offs</text></a><path d="M642.2231,324.1602 L642.2231,324.347 L644.2231,323.7919 L646.2231,324.332 L648.2231,324.5154 L650.2231,323.526 L652.2231,324.1602 L652.2231,324.1602 L652.201,324.1337 L655.1014,321.5016 L658.1137,319.0029 L661.2037,316.5971 L664.0258,313.8715 L667.2231,311.5938 L667.3812,311.7824 L670.0433,308.8657 L673.1667,306.4998 L676.3464,304.2011 L679.1987,301.5114 L682.2231,299.0273 L682.2231,299.088 L684.2231,298.9989 L686.2231,299.186 L688.2231,299.2399 L690.2231,299.548 L692.2231,299.0273" fill="none" style="stroke:#FF6F00;stroke-width:1;"/><a href="/use-case/legal-entity-management/ownership-and-capital-structure/corporate-actions/parents-and-subsidiaries/" target="_top" title="/use-case/legal-entity-management/ownership-and-capital-structure/corporate-actions/parents-and-subsidiaries/" xlink:actuate="onRequest" xlink:href="/use-case/legal-entity-management/ownership-and-capital-structure/corporate-actions/parents-and-subsidiaries/" xlink:show="new" xlink:title="/use-case/legal-entity-management/ownership-and-capital-structure/corporate-actions/parents-and-subsidiaries/" xlink:type="simple"><text fill="#4051B5" font-family="'Roboto'" font-size="13" lengthAdjust="spacing" textLength="160.6655" x="699.2231" y="328.6606">Parents and Subsidiaries</text></a><path d="M642.2231,324.1602 L642.2231,324.347 L644.2231,323.7919 L646.2231,324.332 L648.2231,324.5154 L650.2231,323.526 L652.2231,324.1602 L652.2231,324.1602 L652.2231,324.1256 L658.2231,323.9706 L664.2231,323.9897 L670.2231,324.1299 L676.2231,323.8529 L682.2231,324.1602 L682.2231,324.6523 L684.2231,323.5999 L686.2231,323.9844 L688.2231,324.5441 L690.2231,324.0839 L692.2231,324.1602" fill="none" style="stroke:#FF6F00;stroke-width:1;"/><a href="/use-case/legal-entity-management/ownership-and-capital-structure/corporate-actions/stock-splits/" target="_top" title="/use-case/legal-entity-management/ownership-and-capital-structure/corporate-actions/stock-splits/" xlink:actuate="onRequest" xlink:href="/use-case/legal-entity-management/ownership-and-capital-structure/corporate-actions/stock-splits/" xlink:show="new" xlink:title="/use-case/legal-entity-management/ownership-and-capital-structure/corporate-actions/stock-splits/" xlink:type="simple"><text fill="#4051B5" font-family="'Roboto'" font-size="13" lengthAdjust="spacing" textLength="75.7085" x="699.2231" y="353.7935">Stock Splits</text></a><path d="M642.2231,324.1602 L642.2231,324.347 L644.2231,323.7919 L646.2231,324.332 L648.2231,324.5154 L650.2231,323.526 L652.2231,324.1602 L652.2231,324.1602 L652.201,324.1337 L655.1014,326.5281 L658.1137,329.0561 L661.2037,331.6768 L664.0258,333.9777 L667.2231,336.7266 L667.3812,336.9152 L670.0433,339.0251 L673.1667,341.6857 L676.3464,344.4136 L679.1987,346.7505 L682.2231,349.293 L682.2231,349.3536 L684.2231,349.2646 L686.2231,349.4517 L688.2231,349.5055 L690.2231,349.8136 L692.2231,349.293" fill="none" style="stroke:#FF6F00;stroke-width:1;"/><a href="/use-case/legal-entity-management/ownership-and-capital-structure/corporate-actions/dividends/" target="_top" title="/use-case/legal-entity-management/ownership-and-capital-structure/corporate-actions/dividends/" xlink:actuate="onRequest" xlink:href="/use-case/legal-entity-management/ownership-and-capital-structure/corporate-actions/dividends/" xlink:show="new" xlink:title="/use-case/legal-entity-management/ownership-and-capital-structure/corporate-actions/dividends/" xlink:type="simple"><text fill="#4051B5" font-family="'Roboto'" font-size="13" lengthAdjust="spacing" textLength="64.4414" x="699.2231" y="378.9263">Dividends</text></a><path d="M642.2231,324.1602 L642.2231,324.347 L644.2231,323.7919 L646.2231,324.332 L648.2231,324.5154 L650.2231,323.526 L652.2231,324.1602 L652.2231,324.1602 L652.2003,324.1343 L653.879,325.5888 L655.6729,327.1739 L657.5469,328.8498 L659.1449,330.2129 L661.1294,332.0142 L661.3614,332.096 L662.084,335.3768 L663.484,338.8964 L664.9667,342.4453 L665.9684,345.8245 L667.2231,349.293 L667.2517,349.3031 L668.4285,352.744 L669.7355,356.2309 L670.9796,359.6956 L672.3436,363.2026 L673.3169,366.5718 L673.5142,366.7955 L675.2978,368.369 L676.9542,369.7983 L678.7969,371.4387 L680.6483,373.0891 L682.2231,374.4258 L682.2231,373.7847 L684.2231,375.0289 L686.2231,374.1622 L688.2231,374.9003 L690.2231,373.9858 L692.2231,374.4258" fill="none" style="stroke:#FF6F00;stroke-width:1;"/><path d="M460.2559,286.4609 L460.2559,286.6478 L462.2559,286.0927 L464.2559,286.6327 L466.2559,286.8162 L468.2559,285.8268 L470.2559,286.4609 L470.2559,286.4609 L470.2368,286.4321 L471.9325,287.4809 L473.7243,288.675 L475.5829,289.97 L477.2114,290.917 L479.1621,292.3514 L479.3848,292.4561 L480.1274,294.8241 L481.5201,297.4977 L482.9921,300.2086 L484.0026,302.7025 L485.2559,305.3105 L485.2833,305.3235 L486.4618,307.8963 L487.7652,310.528 L489.0083,313.1312 L490.3664,315.7886 L491.3496,318.2697 L491.5141,318.5184 L493.2974,319.6996 L494.9745,320.7202 L496.807,321.9758 L498.6468,323.2424 L500.2559,324.1602 L500.2559,323.5191 L502.2559,324.7633 L504.2559,323.8966 L506.2559,324.6347 L508.2559,323.7201 L510.2559,324.1602" fill="none" style="stroke:#FF6F00;stroke-width:1;"/><path d="M201.0566,349.293 L201.0566,349.4798 L203.0566,348.9247 L205.0566,349.4648 L207.0566,349.6482 L209.0566,348.6588 L211.0566,349.293 L211.0566,349.293 L211.0311,349.2698 L212.6975,347.2021 L214.4929,345.2514 L216.378,343.3821 L217.9541,341.2325 L219.9629,339.4755 L220.1972,339.5505 L220.3406,337.3774 L221.1682,335.4235 L222.0793,333.4962 L222.5047,331.4135 L223.1855,329.4125 L223.215,329.4198 L223.746,327.102 L224.411,324.8175 L225.0113,322.5168 L225.735,320.2469 L226.0566,317.877 L226.3461,317.949 L226.9238,315.6428 L227.3149,313.2901 L227.9792,311.0054 L228.6564,308.7239 L228.9277,306.3414 L228.6225,306.2436 L229.8595,304.4208 L230.0913,302.276 L231.0873,300.376 L231.2963,298.2239 L232.1504,296.2784 L232.1278,296.258 L234.1758,294.5364 L235.6968,292.3369 L237.5288,290.4194 L239.3869,288.5256 L241.0566,286.4609 L241.0566,286.8309 L243.0566,286.4575 L245.0566,286.7162 L247.0566,285.9521 L249.0566,286.7137 L251.0566,286.4609" fill="none" style="stroke:#FF6F00;stroke-width:1;"/><text fill="#FFFFFF" font-family="'Roboto'" font-size="13" lengthAdjust="spacing" textLength="137.4839" x="258.0566" y="454.3247">Financial Information</text><a href="/use-case/legal-entity-management/financial-information/assets/" target="_top" title="/use-case/legal-entity-management/financial-information/assets/" xlink:actuate="onRequest" xlink:href="/use-case/legal-entity-management/financial-information/assets/" xlink:show="new" xlink:title="/use-case/legal-entity-management/financial-information/assets/" xlink:type="simple"><text fill="#4051B5" font-family="'Roboto'" font-size="13" lengthAdjust="spacing" textLength="42.3071" x="456.5405" y="404.0591">Assets</text></a><path d="M399.5405,449.8242 L399.5405,450.011 L401.5405,449.4559 L403.5405,449.996 L405.5405,450.1795 L407.5405,449.1901 L409.5405,449.8242 L409.5405,449.8242 L409.5177,449.7983 L411.1964,448.1112 L412.9903,446.5548 L414.8642,445.0891 L416.4623,443.3106 L418.4468,441.9702 L418.6788,442.0521 L419.4013,438.4213 L420.8014,435.0295 L422.2841,431.6668 L423.2858,428.1345 L424.5405,424.6914 L424.5691,424.7015 L425.7459,421.2309 L427.0529,417.8063 L428.297,414.3595 L429.661,410.9549 L430.6343,407.4126 L430.8315,407.6363 L432.6152,406.0682 L434.2716,404.3559 L436.1143,402.8547 L437.9657,401.3635 L439.5405,399.5586 L439.5405,398.9175 L441.5405,400.1617 L443.5405,399.295 L445.5405,400.0331 L447.5405,399.1186 L449.5405,399.5586" fill="none" style="stroke:#FF6F00;stroke-width:1;"/><a href="/use-case/legal-entity-management/financial-information/fundamentals/" target="_top" title="/use-case/legal-entity-management/financial-information/fundamentals/" xlink:actuate="onRequest" xlink:href="/use-case/legal-entity-management/financial-information/fundamentals/" xlink:show="new" xlink:title="/use-case/legal-entity-management/financial-information/fundamentals/" xlink:type="simple"><text fill="#4051B5" font-family="'Roboto'" font-size="13" lengthAdjust="spacing" textLength="92.5234" x="456.5405" y="429.1919">Fundamentals</text></a><path d="M399.5405,449.8242 L399.5405,450.011 L401.5405,449.4559 L403.5405,449.996 L405.5405,450.1795 L407.5405,449.1901 L409.5405,449.8242 L409.5405,449.8242 L409.5183,449.7977 L412.4188,447.1656 L415.4311,444.667 L418.5211,442.2612 L421.3432,439.5356 L424.5405,437.2578 L424.6985,437.4464 L427.3606,434.5298 L430.4841,432.1639 L433.6638,429.8651 L436.516,427.1755 L439.5405,424.6914 L439.5405,424.7521 L441.5405,424.663 L443.5405,424.8501 L445.5405,424.904 L447.5405,425.212 L449.5405,424.6914" fill="none" style="stroke:#FF6F00;stroke-width:1;"/><a href="/use-case/legal-entity-management/financial-information/earnings-estimates/" target="_top" title="/use-case/legal-entity-management/financial-information/earnings-estimates/" xlink:actuate="onRequest" xlink:href="/use-case/legal-entity-management/financial-information/earnings-estimates/" xlink:show="new" xlink:title="/use-case/legal-entity-management/financial-information/earnings-estimates/" xlink:type="simple"><text fill="#4051B5" font-family="'Roboto'" font-size="13" lengthAdjust="spacing" textLength="124.9663" x="456.5405" y="454.3247">Earnings Estimates</text></a><path d="M399.5405,449.8242 L399.5405,450.011 L401.5405,449.4559 L403.5405,449.996 L405.5405,450.1795 L407.5405,449.1901 L409.5405,449.8242 L409.5405,449.8242 L409.5405,449.7897 L415.5405,449.6347 L421.5405,449.6538 L427.5405,449.7939 L433.5405,449.5169 L439.5405,449.8242 L439.5405,450.3163 L441.5405,449.264 L443.5405,449.6484 L445.5405,450.2082 L447.5405,449.748 L449.5405,449.8242" fill="none" style="stroke:#FF6F00;stroke-width:1;"/><a href="/use-case/legal-entity-management/financial-information/ratings/" target="_top" title="/use-case/legal-entity-management/financial-information/ratings/" xlink:actuate="onRequest" xlink:href="/use-case/legal-entity-management/financial-information/ratings/" xlink:show="new" xlink:title="/use-case/legal-entity-management/financial-information/ratings/" xlink:type="simple"><text fill="#4051B5" font-family="'Roboto'" font-size="13" lengthAdjust="spacing" textLength="48.9722" x="456.5405" y="479.4575">Ratings</text></a><path d="M399.5405,449.8242 L399.5405,450.011 L401.5405,449.4559 L403.5405,449.996 L405.5405,450.1795 L407.5405,449.1901 L409.5405,449.8242 L409.5405,449.8242 L409.5183,449.7977 L412.4188,452.1922 L415.4311,454.7201 L418.5211,457.3408 L421.3432,459.6418 L424.5405,462.3906 L424.6985,462.5792 L427.3606,464.6892 L430.4841,467.3498 L433.6638,470.0776 L436.516,472.4145 L439.5405,474.957 L439.5405,475.0177 L441.5405,474.9286 L443.5405,475.1157 L445.5405,475.1696 L447.5405,475.4776 L449.5405,474.957" fill="none" style="stroke:#FF6F00;stroke-width:1;"/><a href="/use-case/legal-entity-management/financial-information/liability-terms/" target="_top" title="/use-case/legal-entity-management/financial-information/liability-terms/" xlink:actuate="onRequest" xlink:href="/use-case/legal-entity-management/financial-information/liability-terms/" xlink:show="new" xlink:title="/use-case/legal-entity-management/financial-information/liability-terms/" xlink:type="simple"><text fill="#4051B5" font-family="'Roboto'" font-size="13" lengthAdjust="spacing" textLength="95.5513" x="456.5405" y="504.5903">Liability Terms</text></a><path d="M399.5405,449.8242 L399.5405,450.011 L401.5405,449.4559 L403.5405,449.996 L405.5405,450.1795 L407.5405,449.1901 L409.5405,449.8242 L409.5405,449.8242 L409.5177,449.7983 L411.1964,451.2529 L412.9903,452.838 L414.8642,454.5139 L416.4623,455.877 L418.4468,457.6782 L418.6788,457.7601 L419.4013,461.0408 L420.8014,464.5605 L422.2841,468.1094 L423.2858,471.4886 L424.5405,474.957 L424.5691,474.9671 L425.7459,478.4081 L427.0529,481.8949 L428.297,485.3597 L429.661,488.8667 L430.6343,492.2358 L430.8315,492.4595 L432.6152,494.0331 L434.2716,495.4623 L436.1143,497.1028 L437.9657,498.7531 L439.5405,500.0898 L439.5405,499.4488 L441.5405,500.693 L443.5405,499.8263 L445.5405,500.5643 L447.5405,499.6498 L449.5405,500.0898" fill="none" style="stroke:#FF6F00;stroke-width:1;"/><path d="M201.0566,349.293 L201.0566,349.4798 L203.0566,348.9247 L205.0566,349.4648 L207.0566,349.6482 L209.0566,348.6588 L211.0566,349.293 L211.0566,349.293 L211.0266,349.2759 L212.673,352.3411 L214.4709,355.4921 L216.374,358.7028 L217.9143,361.7078 L219.9629,365.001 L220.2042,365.0493 L220.3327,368.1661 L221.1658,371.424 L222.0847,374.6991 L222.5036,377.8741 L223.1855,381.1017 L223.2155,381.1063 L223.7457,384.7909 L224.4124,388.4966 L225.0132,392.1922 L225.7396,395.9072 L226.0566,399.5586 L226.3513,399.6044 L226.9292,403.2964 L227.3169,406.9588 L227.9829,410.6644 L228.6619,414.3721 L228.9277,418.0155 L228.6134,417.9526 L229.868,421.2948 L230.0876,424.4299 L231.094,427.7225 L231.2901,430.8529 L232.1504,434.1162 L232.1239,434.1012 L234.2184,437.4204 L235.694,440.3887 L237.5349,443.5641 L239.4063,446.7568 L241.0566,449.8242 L241.0566,450.1942 L243.0566,449.8207 L245.0566,450.0795 L247.0566,449.3154 L249.0566,450.077 L251.0566,449.8242" fill="none" style="stroke:#FF6F00;stroke-width:1;"/><text fill="#FFFFFF" font-family="'Roboto'" font-size="13" lengthAdjust="spacing" textLength="116.854" x="258.0566" y="542.2896">Lifecycle &amp; Status</text><a href="/use-case/legal-entity-management/lifecycle-and-status/dissolution/" target="_top" title="/use-case/legal-entity-management/lifecycle-and-status/dissolution/" xlink:actuate="onRequest" xlink:href="/use-case/legal-entity-management/lifecycle-and-status/dissolution/" xlink:show="new" xlink:title="/use-case/legal-entity-management/lifecycle-and-status/dissolution/" xlink:type="simple"><text fill="#4051B5" font-family="'Roboto'" font-size="13" lengthAdjust="spacing" textLength="71.8745" x="435.9106" y="529.7231">Dissolution</text></a><path d="M378.9106,537.7891 L378.9106,537.9759 L380.9106,537.4208 L382.9106,537.9609 L384.9106,538.1443 L386.9106,537.1549 L388.9106,537.7891 L388.9106,537.7891 L388.8973,537.7572 L391.8374,536.3576 L394.8448,535.1186 L397.8989,533.9912 L400.7919,532.4791 L403.9106,531.5059 L404.0057,531.7328 L406.8024,529.9908 L409.8767,528.9115 L412.9848,527.913 L415.8959,526.4441 L418.9106,525.2227 L418.9106,525.2833 L420.9106,525.1943 L422.9106,525.3813 L424.9106,525.4352 L426.9106,525.7433 L428.9106,525.2227" fill="none" style="stroke:#FF6F00;stroke-width:1;"/><a href="/use-case/legal-entity-management/lifecycle-and-status/liquidation/" target="_top" title="/use-case/legal-entity-management/lifecycle-and-status/liquidation/" xlink:actuate="onRequest" xlink:href="/use-case/legal-entity-management/lifecycle-and-status/liquidation/" xlink:show="new" xlink:title="/use-case/legal-entity-management/lifecycle-and-status/liquidation/" xlink:type="simple"><text fill="#4051B5" font-family="'Roboto'" font-size="13" lengthAdjust="spacing" textLength="72.0776" x="435.9106" y="554.856">Liquidation</text></a><path d="M378.9106,537.7891 L378.9106,537.9759 L380.9106,537.4208 L382.9106,537.9609 L384.9106,538.1443 L386.9106,537.1549 L388.9106,537.7891 L388.9106,537.7891 L388.8973,537.7572 L391.8374,538.8709 L394.8448,540.1451 L397.8989,541.531 L400.7919,542.5322 L403.9106,544.0723 L404.0057,544.2992 L406.8024,545.0705 L409.8767,546.5045 L412.9848,548.0193 L415.8959,549.0637 L418.9106,550.3555 L418.9106,550.4161 L420.9106,550.3271 L422.9106,550.5142 L424.9106,550.568 L426.9106,550.8761 L428.9106,550.3555" fill="none" style="stroke:#FF6F00;stroke-width:1;"/><path d="M201.0566,349.293 L201.0566,349.4798 L203.0566,348.9247 L205.0566,349.4648 L207.0566,349.6482 L209.0566,348.6588 L211.0566,349.293 L211.0566,349.293 L211.0272,349.2749 L211.8913,350.8136 L212.9036,352.4435 L214.0191,354.1368 L214.7793,355.6116 L216.0371,357.3924 L216.2773,357.446 L216.1782,359.1906 L216.7804,361.0917 L217.4681,363.0118 L217.6581,364.8209 L218.1099,366.6884 L218.1398,366.693 L218.4664,369.0976 L218.9295,371.5233 L219.3267,373.9388 L219.8496,376.3736 L219.9629,378.7455 L220.2591,378.7803 L220.5982,381.6339 L220.7462,384.4651 L221.1739,387.3292 L221.6147,390.1948 L221.6401,393.0115 L221.3211,392.9806 L222.2494,396.2252 L222.1271,399.3679 L222.8035,402.5881 L222.6575,405.7285 L223.1855,408.9343 L223.1552,408.9318 L224.0882,415.8829 L224.3124,422.7752 L224.9548,429.7022 L225.6324,436.6321 L226.0566,443.541 L226.241,443.5563 L226.6291,450.4622 L227.3323,457.3943 L227.5258,464.284 L228.4795,471.2368 L228.9277,478.1477 L229.1702,478.1713 L229.4335,481.3514 L229.8171,484.5431 L229.6413,487.6806 L229.8756,490.8579 L230.4731,494.0705 L230.1989,494.0382 L230.7826,496.9206 L231.0573,499.7667 L231.7803,502.6655 L231.7378,505.4743 L232.1504,508.3365 L231.9997,508.3134 L232.6213,510.7634 L232.5987,513.1144 L233.0342,515.5358 L233.9179,518.0261 L234.0034,520.3937 L234.1924,520.4358 L234.7366,522.3239 L234.6929,524.0809 L235.3855,526.0021 L235.9177,527.8875 L236.0762,529.6896 L235.8973,529.5796 L237.036,531.2872 L238.1161,532.9587 L239.3112,534.701 L240.059,536.1682 L241.0566,537.7891 L241.0566,538.2002 L243.0566,537.2968 L245.0566,537.1871 L247.0566,538.2367 L249.0566,537.1518 L251.0566,537.7891" fill="none" style="stroke:#FF6F00;stroke-width:1;"/><text fill="#FFFFFF" font-family="'Roboto'" font-size="13" lengthAdjust="spacing" textLength="203.8042" x="258.0566" y="592.5552">Contact &amp; Location Information</text><a href="/use-case/legal-entity-management/contact-and-location-information/contacts/" target="_top" title="/use-case/legal-entity-management/contact-and-location-information/contacts/" xlink:actuate="onRequest" xlink:href="/use-case/legal-entity-management/contact-and-location-information/contacts/" xlink:show="new" xlink:title="/use-case/legal-entity-management/contact-and-location-information/contacts/" xlink:type="simple"><text fill="#4051B5" font-family="'Roboto'" font-size="13" lengthAdjust="spacing" textLength="57.3511" x="522.8608" y="579.9888">Contacts</text></a><path d="M465.8608,588.0547 L465.8608,588.2415 L467.8608,587.6864 L469.8608,588.2265 L471.8608,588.41 L473.8608,587.4206 L475.8608,588.0547 L475.8608,588.0547 L475.8475,588.0228 L478.7876,586.6232 L481.795,585.3842 L484.8491,584.2568 L487.7421,582.7447 L490.8608,581.7715 L490.9559,581.9984 L493.7526,580.2565 L496.8269,579.1771 L499.935,578.1786 L502.8461,576.7098 L505.8608,575.4883 L505.8608,575.5489 L507.8608,575.4599 L509.8608,575.647 L511.8608,575.7008 L513.8608,576.0089 L515.8608,575.4883" fill="none" style="stroke:#FF6F00;stroke-width:1;"/><a href="/use-case/legal-entity-management/contact-and-location-information/addresses/" target="_top" title="/use-case/legal-entity-management/contact-and-location-information/addresses/" xlink:actuate="onRequest" xlink:href="/use-case/legal-entity-management/contact-and-location-information/addresses/" xlink:show="new" xlink:title="/use-case/legal-entity-management/contact-and-location-information/addresses/" xlink:type="simple"><text fill="#4051B5" font-family="'Roboto'" font-size="13" lengthAdjust="spacing" textLength="67.0566" x="522.8608" y="605.1216">Addresses</text></a><path d="M465.8608,588.0547 L465.8608,588.2415 L467.8608,587.6864 L469.8608,588.2265 L471.8608,588.41 L473.8608,587.4206 L475.8608,588.0547 L475.8608,588.0547 L475.8475,588.0228 L478.7876,589.1365 L481.795,590.4108 L484.8491,591.7967 L487.7421,592.7978 L490.8608,594.3379 L490.9559,594.5648 L493.7526,595.3362 L496.8269,596.7701 L499.935,598.2849 L502.8461,599.3293 L505.8608,600.6211 L505.8608,600.6818 L507.8608,600.5927 L509.8608,600.7798 L511.8608,600.8337 L513.8608,601.1417 L515.8608,600.6211" fill="none" style="stroke:#FF6F00;stroke-width:1;"/><path d="M201.0566,349.293 L201.0566,349.4798 L203.0566,348.9247 L205.0566,349.4648 L207.0566,349.6482 L209.0566,348.6588 L211.0566,349.293 L211.0566,349.293 L211.0256,349.2779 L211.8822,351.262 L212.8955,353.3222 L214.0177,355.4353 L214.7646,357.3662 L216.0371,359.5523 L216.2794,359.5949 L216.1758,361.8587 L216.7796,364.247 L217.4698,366.6505 L217.6578,368.9655 L218.1099,371.3271 L218.14,371.3308 L218.4664,374.3799 L218.9298,377.4456 L219.3272,380.5033 L219.8507,383.5764 L219.9629,386.5995 L220.2599,386.6271 L220.5989,390.2415 L220.7465,393.8381 L221.1744,397.4607 L221.6155,401.0846 L221.6401,404.6698 L221.3205,404.6453 L222.2499,408.7266 L222.1269,412.7273 L222.8039,416.7893 L222.6571,420.7881 L223.1855,424.8387 L223.1552,424.8367 L224.0887,433.6272 L224.3124,442.3713 L224.9549,451.1428 L225.6326,459.9166 L226.0566,468.6738 L226.2412,468.6859 L226.6291,477.4407 L227.3325,486.2162 L227.5254,494.9583 L228.4796,503.7502 L228.9277,512.509 L229.1707,512.5276 L229.4338,516.5578 L229.8176,520.5973 L229.6409,524.5939 L229.8751,528.6219 L230.4731,532.6778 L230.1981,532.6523 L230.7825,536.2895 L231.0571,539.8979 L231.781,543.548 L231.7376,547.1269 L232.1504,550.7482 L231.999,550.7298 L232.6217,553.8149 L232.5974,556.8214 L233.0332,559.8838 L233.9191,563.0008 L234.0034,566.0205 L234.1941,566.0541 L234.7395,568.4321 L234.6917,570.7057 L235.3868,573.11 L235.9201,575.4859 L236.0762,577.7954 L235.8873,577.7037 L237.0339,579.8286 L238.1187,581.9236 L239.325,584.0775 L240.0589,586.002 L241.0566,588.0547 L241.0566,588.4659 L243.0566,587.5624 L245.0566,587.4527 L247.0566,588.5023 L249.0566,587.4174 L251.0566,588.0547" fill="none" style="stroke:#FF6F00;stroke-width:1;"/><text fill="#FFFFFF" font-family="'Roboto'" font-size="13" lengthAdjust="spacing" textLength="195.1396" x="258.0566" y="642.8208">Compliance &amp; Documentation</text><a href="/use-case/legal-entity-management/compliance-and-documentation/compliance/" target="_top" title="/use-case/legal-entity-management/compliance-and-documentation/compliance/" xlink:actuate="onRequest" xlink:href="/use-case/legal-entity-management/compliance-and-documentation/compliance/" xlink:show="new" xlink:title="/use-case/legal-entity-management/compliance-and-documentation/compliance/" xlink:type="simple"><text fill="#4051B5" font-family="'Roboto'" font-size="13" lengthAdjust="spacing" textLength="76.521" x="514.1963" y="630.2544">Compliance</text></a><path d="M457.1963,638.3203 L457.1963,638.5071 L459.1963,637.952 L461.1963,638.4921 L463.1963,638.6756 L465.1963,637.6862 L467.1963,638.3203 L467.1963,638.3203 L467.1829,638.2885 L470.1231,636.8888 L473.1304,635.6498 L476.1846,634.5225 L479.0776,633.0103 L482.1963,632.0371 L482.2914,632.2641 L485.0881,630.5221 L488.1623,629.4428 L491.2705,628.4443 L494.1816,626.9754 L497.1963,625.7539 L497.1963,625.8146 L499.1963,625.7255 L501.1963,625.9126 L503.1963,625.9665 L505.1963,626.2745 L507.1963,625.7539" fill="none" style="stroke:#FF6F00;stroke-width:1;"/><a href="/use-case/legal-entity-management/compliance-and-documentation/documents/" target="_top" title="/use-case/legal-entity-management/compliance-and-documentation/documents/" xlink:actuate="onRequest" xlink:href="/use-case/legal-entity-management/compliance-and-documentation/documents/" xlink:show="new" xlink:title="/use-case/legal-entity-management/compliance-and-documentation/documents/" xlink:type="simple"><text fill="#4051B5" font-family="'Roboto'" font-size="13" lengthAdjust="spacing" textLength="74.1216" x="514.1963" y="655.3872">Documents</text></a><path d="M457.1963,638.3203 L457.1963,638.5071 L459.1963,637.952 L461.1963,638.4921 L463.1963,638.6756 L465.1963,637.6862 L467.1963,638.3203 L467.1963,638.3203 L467.1829,638.2885 L470.1231,639.4021 L473.1304,640.6764 L476.1846,642.0623 L479.0776,643.0635 L482.1963,644.6035 L482.2914,644.8305 L485.0881,645.6018 L488.1623,647.0357 L491.2705,648.5505 L494.1816,649.5949 L497.1963,650.8867 L497.1963,650.9474 L499.1963,650.8583 L501.1963,651.0454 L503.1963,651.0993 L505.1963,651.4073 L507.1963,650.8867" fill="none" style="stroke:#FF6F00;stroke-width:1;"/><path d="M201.0566,349.293 L201.0566,349.4798 L203.0566,348.9247 L205.0566,349.4648 L207.0566,349.6482 L209.0566,348.6588 L211.0566,349.293 L211.0566,349.293 L211.0246,349.2801 L211.8768,351.7062 L212.8906,354.1972 L214.0168,356.7332 L214.7558,359.1139 L216.0371,361.7121 L216.2806,361.7475 L216.1745,364.5226 L216.7792,367.401 L217.4707,370.292 L217.6576,373.1097 L218.1099,375.9659 L218.14,375.9689 L218.4663,379.662 L218.93,383.3689 L219.3274,387.0691 L219.8513,390.7819 L219.9629,394.4535 L220.2603,394.4763 L220.5993,398.8515 L220.7466,403.212 L221.1747,407.594 L221.6159,411.9771 L221.6401,416.3281 L221.3203,416.3079 L222.2502,421.2302 L222.1268,426.0858 L222.8042,430.9921 L222.6569,435.8461 L223.1855,440.743 L223.0943,440.7381 L224.7471,451.4092 L224.2691,461.965 L225.0484,472.5888 L225.9333,483.2183 L226.0566,493.8066 L226.6108,493.8366 L226.6257,504.4191 L227.5875,515.0528 L227.0172,525.6036 L228.7321,536.278 L228.9277,546.8703 L229.1709,546.8856 L229.434,551.7657 L229.8178,556.6534 L229.6407,561.5056 L229.8748,566.3839 L230.4731,571.2852 L230.1978,571.264 L230.7825,575.6581 L231.057,580.0283 L231.7815,584.4331 L231.7375,588.7789 L232.1504,593.1598 L231.9987,593.1446 L232.6219,596.8674 L232.5967,600.5253 L233.0326,604.2293 L233.9198,607.9786 L234.0034,611.6474 L234.195,611.6752 L234.741,614.5451 L234.691,617.3283 L235.3875,620.2201 L235.9213,623.0882 L236.0762,625.9012 L235.8813,625.823 L237.0327,628.3691 L238.1203,630.8897 L239.3333,633.4605 L240.0588,635.8358 L241.0566,638.3203 L241.0566,638.7315 L243.0566,637.8281 L245.0566,637.7183 L247.0566,638.768 L249.0566,637.683 L251.0566,638.3203" fill="none" style="stroke:#FF6F00;stroke-width:1;"/><text fill="#FFFFFF" font-family="'Roboto'" font-size="13" lengthAdjust="spacing" textLength="151.106" x="258.0566" y="680.52">Supporting Information</text><a href="/use-case/legal-entity-management/supporting-information/currencies/" target="_top" title="/use-case/legal-entity-management/supporting-information/currencies/" xlink:actuate="onRequest" xlink:href="/use-case/legal-entity-management/supporting-information/currencies/" xlink:show="new" xlink:title="/use-case/legal-entity-management/supporting-information/currencies/" xlink:type="simple"><text fill="#4051B5" font-family="'Roboto'" font-size="13" lengthAdjust="spacing" textLength="69.7734" x="470.1626" y="680.52">Currencies</text></a><path d="M413.1626,676.0195 L413.1626,676.2064 L415.1626,675.6512 L417.1626,676.1913 L419.1626,676.3748 L421.1626,675.3854 L423.1626,676.0195 L423.1626,676.0195 L423.1626,675.985 L429.1626,675.83 L435.1626,675.8491 L441.1626,675.9892 L447.1626,675.7123 L453.1626,676.0195 L453.1626,676.5117 L455.1626,675.4593 L457.1626,675.8437 L459.1626,676.4035 L461.1626,675.9433 L463.1626,676.0195" fill="none" style="stroke:#FF6F00;stroke-width:1;"/><path d="M201.0566,349.293 L201.0566,349.4798 L203.0566,348.9247 L205.0566,349.4648 L207.0566,349.6482 L209.0566,348.6588 L211.0566,349.293 L211.0566,349.293 L211.0241,349.2814 L211.8741,352.0374 L212.8882,354.8516 L214.0164,357.7063 L214.7514,360.4215 L216.0371,363.332 L216.2812,363.3634 L216.1738,366.5189 L216.779,369.766 L217.4712,373.0243 L217.6575,376.2175 L218.1099,379.445 L218.1401,379.4477 L218.4663,383.6235 L218.9301,387.8116 L219.3275,391.9938 L219.8516,396.1872 L219.9629,400.344 L220.2605,400.3642 L220.5995,405.31 L220.7467,410.2428 L221.1748,415.1946 L221.6161,420.1474 L221.6401,425.0718 L221.3201,425.0539 L222.2503,430.6086 L222.1267,436.1043 L222.8043,441.6448 L222.6568,447.1391 L223.1855,452.6713 L223.0943,452.6669 L224.6517,462.7161 L224.0777,472.6632 L224.7613,482.6705 L225.5506,492.6829 L226.1325,502.6853 L226.0566,512.6563 L226.0514,512.656 L226.9177,522.6721 L226.2513,532.6147 L227.8709,542.6669 L228.7008,552.6812 L229.0413,562.672 L228.9277,572.6412 L229.1998,572.6564 L229.0224,578.1491 L229.2565,583.6648 L229.5792,589.1854 L230.1379,594.7193 L230.4731,600.2407 L230.386,600.2348 L231.1107,605.2067 L231.0666,610.1265 L231.3274,615.0671 L231.9162,620.0298 L232.1504,624.9685 L231.8552,624.9423 L232.2912,629.1279 L233.1789,633.3536 L233.4551,637.525 L233.958,641.7165 L234.0034,645.8675 L233.8616,645.8493 L234.5587,649.1082 L235.0928,652.3462 L235.0388,655.5085 L235.6194,658.7525 L236.0762,661.9805 L236.1289,661.9992 L237.3453,664.8852 L238.0666,667.5955 L239.2582,670.4727 L239.8286,673.1294 L241.0566,676.0195 L241.0566,675.4175 L243.0566,676.4672 L245.0566,675.3823 L247.0566,676.4719 L249.0566,676.2032 L251.0566,676.0195" fill="none" style="stroke:#FF6F00;stroke-width:1;"/><!--SRC=[xLdhRzCw5F_UlyANIJm4fIiCX112TDs3GRTExSRL5KAJcxYjjTGkjhFTSNN_ztlin8cJFbCIxf3QBqtiuzzv-7LEVX-ama9DAFCdU5gh_U6J8MK4xHzVdRPEpgxQtKwtXynlPs_tLNFmoXNf7xQxPmUjtb-nt1oHyrRxS-luC06Q4Uds3WvxhXwqCno-7kxk9Y97tREBZ80HqRz4fDNhTV_CobYKchocR8e5dg01zgv7WeVCR_E02xIZ16OI-WXJZjZ7koaH0MNNiLHiSUqHeimBGfyWDIPeH1WHE439E8c683tWQlmC1NGqLWWp7_bONCD8nH6_8U9MK4NGBLNZ28FU48OaKOgoaSp7vEBZIVlpsM6_ZvemCNogA6Te3A0QHS708GuaSGm_nxuFG6ZFQUj5xWem5hrnsljZxFDRBPr7ITo_PBvv8B688tD0XZWC5FgdTiIPEiCJWXxqEFZE7vYMA7Bfn9d6Flr1K7Elzg-Br1A2tmBEt17pOTHT037YWPz5ciBiuX69RPePkf-R_CmAh-rp0Sx6FSwI11Mf1iRz8l2PfR-U1ezFffp1SWGr6neyrxeePk4aU96DcOyL7c19IbQNqU45FFGhLS23W7XwTyZIrQHQsY0WU52XXdqDYSLTXIeEcQAgIWMKAIA6s2CLwkYJxo5X7Zc7YujwT8gPYi0knjIxPaHAE31JSHcBWqNkYAN6pK3FiTEHIOybniK41_c-6NSwT4WwSB8k14y4bfff3iyPSDEw4DdqpZNAzAGnV5bhUOgB5HOOaOMwTE-Y3Vm8jVUGZXfSGl2oi_Bdxda16nwpKK3UlOFRIdBs_ZtCRnyM7-4ABh25jqTPzq9-nUNlxEmHvPXB_WOZ6GwkohSxbuvLOBoyaufCVhzObsztHR6s5_Bl4UhKsjylqiuo6SGNRsHrBZ7EUc5osDtLsTv6lYztBBfWV2p7n5_7rxckUg0OmxqYrlKLylNbIwa2JvTFOU4on1PmgKyle_kd2nMPe93J-p6EBk3YKjWa-nBLqIIKIkVb1E4Xk6frvie2HrjScYwiSPnQTP6HRYgH1YENkqFXhbQdMVDlUgK47OIABCu3PcrTKi1aidqivMPMBLFm29t6yoAdnAD3we7_9dM0AReTwwfQmHa4-QVK4secxnaQ1261kMECw4H48XugtJrRqfLiROgFipaL5FArf-ZhLzG89QbxS7Gs0ZB2GPsOnBm-mGnAs0cyDL17TzYC_JJfGD- -rPu-lK8dlXu3WS3cky13r2CZAfKmho018clfeHcSEcP-NJX8yJZO6HDhqX4yHrQKfMCGIghZasr5-t5pnhLoDSF6dX3XKHWSjHFHW5BFDiQQOTkNgrLlagGV56RUxGotkPXoeJVviVvsn30KCGMCyEpm-YWPtl2fYFR2c4vb0nsuhyLyd0ilwOXXmAC4mFlfImdGN8mmepzCX60Kn3BqL2X80tKpFL1In3qsZjrRkE-qXx19sdXAbIjKm2nkSSo4UX6IOqZItt1K5d9ybGOl-WRHI3v6b8eknrYOUJF_4AoAl31wR7kiBfcOKZLHAKFYfwfEp7irkj95YwDlKGrd0xVYprEHnkfKmh4r8iA8O-zxI2Kr1z0OZXukxXherFJ3rBRINlGnwgtSE3cbhCw7Gxt4x6FbIgEl-zB8ot00rp_5qV5q7lMOh_HzfwVwE2ZkNTVbDA1AXqA_GK3qM-MgVNgZxoRV7FtnepqcZwW-QFMbTyBqTLyqaHZQyNMQZc_0nKQqcotpNspBpKSSwc9DzqF9qa17pbiPw0GBficOEf6AGfjUAOTn6pgqRMLeqha0W3PGBtee0pEWU403BGevomImExO1NUW6EzVwyw9tvq6LyH0M85QXBA0wi8EZJMM6mygIaWTXbCySf2_5l9eB7L0ug_muLUgaBscU1BFlAN2bm-CCQhCLx4L0HdSGGsN26ml8XjLPEB5PeG3xFbozKY-wbdrCtPp08Q5p8V3qW7kXMVM5NRGWnWZVXN4w6wwsWYukKM3VzF5Z7wrx_N0AXvNU2HlEdam0idCM2ZZdFNFajvDdhVK3d7u9yVqXouENnnhVOtxMVgfOavnrnUS05A1bxRXysMs3vjRMbiTVIiJ-BE0otdKPngm56p2jnHIinQt-3EHIDhKey3hywUQOInZJpK4NSgIRGovZHJT7hOG7jUOiO42jPON9J-l0FERJWYuYFQrDpeT92pV3TLgi7CsPaL_9SIOAy-ncWfubDfsDj157kVXaBR9QPYV_Ppd8NstN2lBeVmlJVR1hRMRm5rjphu9KAgbdxIZepKAhbn9upIePkx8zoSM_B4PkOqfjpdrP6ftc8kNkabaMBNFDp8jSFWLTWpbRRC1Ao0NirayWRlciBP-rvREsVDQMpzhoMLi-QyjdRVciBP-rvREsVDQMpxfdVDPvW9cwFEqWI3YbNaBDvozsNxnwtcmEYCBDtSUNx9h1WMke3meR1qu2ygJs-FYyWoGF1SJ9rmc-Bd1X-9FQ9to3KIzaMkujwau9-tJmsJP0MNT31MVQyDgdBwUfmEkz-ZvLg4y468A-dDRi5u93vd7DXhr5bnT7zJUr3cQZ47n_YmY3iXvmnHtqzVy3]--></g></svg>