<svg xmlns="http://www.w3.org/2000/svg" xmlns:xlink="http://www.w3.org/1999/xlink" contentStyleType="text/css" data-diagram-type="MINDMAP" height="732px" preserveAspectRatio="none" style="width:962px;height:732px;" version="1.1" viewBox="0 0 962 732" width="962px" zoomAndPan="magnify"><defs/><g><polygon fill="#4051B5" points="14,346.8594,14,347.0696,23.8107,346.4451,33.6215,347.0527,43.4322,347.2591,53.243,346.146,63.0537,346.7817,72.8645,346.4329,82.6752,346.4759,92.4859,346.7912,102.2967,346.168,112.1074,347.413,121.9182,346.2291,131.7289,346.6616,141.5396,347.2913,151.3504,346.7736,161.1611,346.9276,170.9719,346.8274,180.7826,347.0379,190.5934,347.0985,200.4041,347.4451,210.2148,346.8594,210.3004,347.066,210.8672,347.3029,211.3787,347.4064,211.971,347.7051,212.5672,348.0129,213.0433,348.0309,212.8212,347.939,213.4865,348.6832,213.4206,349.1245,213.9106,349.7961,213.8281,350.2305,214.2148,350.8594,214.192,350.8594,214.462,356.5188,214.1986,362.1781,214.2499,367.8375,214.3277,373.4969,214.2148,379.1563,214.343,379.2093,213.9793,379.7214,213.8347,380.3243,213.3356,380.7803,213.3652,381.4553,213.0433,381.9847,213.1132,382.1535,212.5343,382.3559,211.9901,382.6421,211.2846,382.5389,210.6973,382.7211,210.2148,383.1563,210.2148,382.5348,200.4041,383.0974,190.5934,382.9597,180.7826,383.8377,170.9719,382.9816,161.1611,382.8132,151.3504,383.3845,141.5396,382.4894,131.7289,382.6371,121.9182,383.8052,112.1074,383.5919,102.2967,383.8907,92.4859,382.8345,82.6752,383.4754,72.8645,383.7467,63.0537,382.6838,53.243,383.0604,43.4322,383.2822,33.6215,383.808,23.8107,383.1521,14,383.1563,14.059,383.2987,13.3637,382.7514,12.7822,382.4791,12.3672,382.6084,11.6458,381.9982,11.1716,381.9847,11.3283,382.0496,11.0009,381.4453,10.6204,380.8191,10.3597,380.2425,10.3756,379.7805,10,379.1563,9.9002,379.1563,10.1973,373.4969,9.8158,367.8375,10.2058,362.1781,10.1614,356.5188,10,350.8594,10.0754,350.8906,10.2489,350.2997,10.6924,349.8207,10.8919,349.2406,10.9894,348.6182,11.1716,348.0309,11.2058,348.1135,11.7206,347.7565,12.3943,347.783,12.8884,347.3757,13.4563,347.1468,14,346.8594" style="stroke:#FF6F00;stroke-width:1.5;"/><a href="/use-case/legal-entity-management/" target="_top" title="/use-case/legal-entity-management/" xlink:actuate="onRequest" xlink:href="/use-case/legal-entity-management/" xlink:show="new" xlink:title="/use-case/legal-entity-management/" xlink:type="simple"><text fill="#90EE90" font-family="'Roboto'" font-size="14" lengthAdjust="spacing" textLength="179.7646" x="20" y="369.8545">Legal Entity Management</text></a><a href="/use-case/legal-entity-management/identification-and-registration/" target="_top" title="/use-case/legal-entity-management/identification-and-registration/" xlink:actuate="onRequest" xlink:href="/use-case/legal-entity-management/identification-and-registration/" xlink:show="new" xlink:title="/use-case/legal-entity-management/identification-and-registration/" xlink:type="simple"><text fill="#90EE90" font-family="'Roboto'" font-size="14" lengthAdjust="spacing" textLength="196.6631" x="271.2148" y="67.4404">Identification &amp; Registration</text></a><a href="/use-case/legal-entity-management/identification-and-registration/legal-form/" target="_top" title="/use-case/legal-entity-management/identification-and-registration/legal-form/" xlink:actuate="onRequest" xlink:href="/use-case/legal-entity-management/identification-and-registration/legal-form/" xlink:show="new" xlink:title="/use-case/legal-entity-management/identification-and-registration/legal-form/" xlink:type="simple"><text fill="#90EE90" font-family="'Roboto'" font-size="14" lengthAdjust="spacing" textLength="78.2305" x="533.3281" y="27.9951">Legal Form</text></a><path d="M476.3281,62.5938 L476.3281,62.7806 L478.3281,62.2255 L480.3281,62.7656 L482.3281,62.949 L484.3281,61.9596 L486.3281,62.5938 L486.3281,62.5938 L486.3085,62.5653 L488.0015,61.2052 L489.7936,59.9883 L491.6546,58.8708 L493.2783,57.4104 L495.2344,56.4304 L495.4588,56.5313 L496.1976,53.6037 L497.5917,50.9707 L499.0657,48.3735 L500.0746,45.5673 L501.3281,42.8711 L501.3558,42.8835 L502.5339,40.1534 L503.838,37.4799 L505.0813,34.7791 L506.4406,32.1303 L507.4219,29.3118 L507.5916,29.557 L509.3749,28.3273 L511.0488,26.9395 L512.8829,25.7832 L514.7245,24.6377 L516.3281,23.1484 L516.3281,22.5074 L518.3281,23.7516 L520.3281,22.8849 L522.3281,23.6229 L524.3281,22.7084 L526.3281,23.1484" fill="none" style="stroke:#FF9900;stroke-width:1;"/><a href="/use-case/legal-entity-management/identification-and-registration/business-registration/" target="_top" title="/use-case/legal-entity-management/identification-and-registration/business-registration/" xlink:actuate="onRequest" xlink:href="/use-case/legal-entity-management/identification-and-registration/business-registration/" xlink:show="new" xlink:title="/use-case/legal-entity-management/identification-and-registration/business-registration/" xlink:type="simple"><text fill="#90EE90" font-family="'Roboto'" font-size="14" lengthAdjust="spacing" textLength="151.2383" x="533.3281" y="54.292">Business Registration</text></a><path d="M476.3281,62.5938 L476.3281,62.7806 L478.3281,62.2255 L480.3281,62.7656 L482.3281,62.949 L484.3281,61.9596 L486.3281,62.5938 L486.3281,62.5938 L486.3143,62.5621 L489.252,61.1053 L492.2597,59.808 L495.316,58.6215 L498.2048,57.0529 L501.3281,56.0195 L501.4269,56.2449 L504.2157,54.4481 L507.2928,53.3093 L510.4052,52.2508 L513.3128,50.7252 L516.3281,49.4453 L516.3281,49.506 L518.3281,49.4169 L520.3281,49.604 L522.3281,49.6579 L524.3281,49.9659 L526.3281,49.4453" fill="none" style="stroke:#FF9900;stroke-width:1;"/><a href="/use-case/legal-entity-management/identification-and-registration/commercial-register/" target="_top" title="/use-case/legal-entity-management/identification-and-registration/commercial-register/" xlink:actuate="onRequest" xlink:href="/use-case/legal-entity-management/identification-and-registration/commercial-register/" xlink:show="new" xlink:title="/use-case/legal-entity-management/identification-and-registration/commercial-register/" xlink:type="simple"><text fill="#90EE90" font-family="'Roboto'" font-size="14" lengthAdjust="spacing" textLength="146.7607" x="533.3281" y="80.5889">Commercial Register</text></a><path d="M476.3281,62.5938 L476.3281,62.7806 L478.3281,62.2255 L480.3281,62.7656 L482.3281,62.949 L484.3281,61.9596 L486.3281,62.5938 L486.3281,62.5938 L486.3143,62.5621 L489.252,63.735 L492.2597,65.0673 L495.316,66.5105 L498.2048,67.5717 L501.3281,69.168 L501.4269,69.3933 L504.2157,70.2262 L507.2928,71.7172 L510.4052,73.2883 L513.3128,74.3924 L516.3281,75.7422 L516.3281,75.8028 L518.3281,75.7138 L520.3281,75.9009 L522.3281,75.9548 L524.3281,76.2628 L526.3281,75.7422" fill="none" style="stroke:#FF9900;stroke-width:1;"/><a href="/use-case/legal-entity-management/identification-and-registration/classification/" target="_top" title="/use-case/legal-entity-management/identification-and-registration/classification/" xlink:actuate="onRequest" xlink:href="/use-case/legal-entity-management/identification-and-registration/classification/" xlink:show="new" xlink:title="/use-case/legal-entity-management/identification-and-registration/classification/" xlink:type="simple"><text fill="#90EE90" font-family="'Roboto'" font-size="14" lengthAdjust="spacing" textLength="92.6338" x="533.3281" y="106.8857">Classification</text></a><path d="M476.3281,62.5938 L476.3281,62.7806 L478.3281,62.2255 L480.3281,62.7656 L482.3281,62.949 L484.3281,61.9596 L486.3281,62.5938 L486.3281,62.5938 L486.3085,62.5653 L488.0015,63.6705 L489.7936,64.9189 L491.6546,66.2668 L493.2783,67.2717 L495.2344,68.7571 L495.4588,68.8579 L496.1976,71.3541 L497.5917,74.1448 L499.0657,76.9714 L500.0746,79.5889 L501.3281,82.3164 L501.3558,82.3288 L502.5339,85.0225 L503.838,87.7727 L505.0813,90.4956 L506.4406,93.2706 L507.4219,95.8757 L507.5916,96.121 L509.3749,97.3566 L511.0488,98.4341 L512.8829,99.7432 L514.7245,101.063 L516.3281,102.0391 L516.3281,101.398 L518.3281,102.6422 L520.3281,101.7755 L522.3281,102.5136 L524.3281,101.599 L526.3281,102.0391" fill="none" style="stroke:#FF9900;stroke-width:1;"/><path d="M214.2148,365.0078 L214.2148,365.1946 L216.2148,364.6395 L218.2148,365.1796 L220.2148,365.3631 L222.2148,364.3737 L224.2148,365.0078 L224.2148,365.0078 L224.1826,364.9955 L225.0339,362.3411 L226.0479,359.7491 L227.1748,357.2004 L227.9123,354.5024 L229.1953,352.0135 L229.439,352.0473 L229.3324,348.9921 L229.9374,346.0358 L230.6291,343.0915 L230.8158,340.077 L231.2681,337.0995 L231.2983,337.1024 L231.6245,333.2294 L232.0883,329.3695 L232.4857,325.5033 L233.0096,321.6492 L233.1211,317.7556 L233.4185,317.7774 L233.7576,313.2001 L233.9049,308.6088 L234.3329,304.038 L234.7742,299.4682 L234.7983,294.8678 L234.4784,294.8485 L235.4084,289.7769 L235.285,284.6416 L235.9624,279.5547 L235.8151,274.418 L236.3438,269.3221 L236.2525,269.3174 L237.8098,260.1196 L237.2359,250.8116 L237.9195,241.5687 L238.7087,232.3312 L239.2906,223.083 L239.2148,213.8008 L239.2096,213.8005 L240.0758,204.567 L239.4097,195.2543 L241.0291,186.0597 L241.8589,176.8243 L242.1993,167.5636 L242.0859,158.2794 L242.3579,158.2959 L242.1807,153.1573 L242.4148,148.0437 L242.7375,142.9353 L243.2961,137.8413 L243.6313,132.7337 L243.5442,132.7273 L244.2688,128.1783 L244.2248,123.5729 L244.4856,118.9899 L245.0743,114.4309 L245.3086,109.8459 L245.0136,109.8177 L245.4495,105.9552 L246.3369,102.1359 L246.6132,98.2581 L247.116,94.402 L247.1616,90.5021 L247.02,90.4824 L247.7167,87.5388 L248.2506,84.5726 L248.1973,81.5248 L248.7776,78.565 L249.2344,75.5881 L249.2867,75.6081 L250.501,73.0929 L251.2248,70.3897 L252.4146,67.8651 L252.9889,65.1045 L254.2148,62.5938 L254.2148,61.9917 L256.2148,63.0414 L258.2148,61.9565 L260.2148,63.0462 L262.2148,62.7774 L264.2148,62.5938" fill="none" style="stroke:#FF9900;stroke-width:1;"/><a href="/use-case/legal-entity-management/corporate-governance/" target="_top" title="/use-case/legal-entity-management/corporate-governance/" xlink:actuate="onRequest" xlink:href="/use-case/legal-entity-management/corporate-governance/" xlink:show="new" xlink:title="/use-case/legal-entity-management/corporate-governance/" xlink:type="simple"><text fill="#90EE90" font-family="'Roboto'" font-size="14" lengthAdjust="spacing" textLength="159.1406" x="271.2148" y="159.4795">Corporate Governance</text></a><a href="/use-case/legal-entity-management/corporate-governance/directorships/" target="_top" title="/use-case/legal-entity-management/corporate-governance/directorships/" xlink:actuate="onRequest" xlink:href="/use-case/legal-entity-management/corporate-governance/directorships/" xlink:show="new" xlink:title="/use-case/legal-entity-management/corporate-governance/directorships/" xlink:type="simple"><text fill="#90EE90" font-family="'Roboto'" font-size="14" lengthAdjust="spacing" textLength="92.7842" x="495.8057" y="133.1826">Directorships</text></a><path d="M438.8057,154.6328 L438.8057,154.8196 L440.8057,154.2645 L442.8057,154.8046 L444.8057,154.9881 L446.8057,153.9987 L448.8057,154.6328 L448.8057,154.6328 L448.7829,154.6068 L451.6807,151.8606 L454.6933,149.2453 L457.7857,146.721 L460.6031,143.883 L463.8057,141.4844 L463.9679,141.6694 L466.621,138.644 L469.7477,136.1589 L472.9322,133.7397 L475.7805,130.937 L478.8057,128.3359 L478.8057,128.3966 L480.8057,128.3075 L482.8057,128.4946 L484.8057,128.5485 L486.8057,128.8566 L488.8057,128.3359" fill="none" style="stroke:#FF9900;stroke-width:1;"/><a href="/use-case/legal-entity-management/corporate-governance/signatories/" target="_top" title="/use-case/legal-entity-management/corporate-governance/signatories/" xlink:actuate="onRequest" xlink:href="/use-case/legal-entity-management/corporate-governance/signatories/" xlink:show="new" xlink:title="/use-case/legal-entity-management/corporate-governance/signatories/" xlink:type="simple"><text fill="#90EE90" font-family="'Roboto'" font-size="14" lengthAdjust="spacing" textLength="78.7227" x="495.8057" y="159.4795">Signatories</text></a><path d="M438.8057,154.6328 L438.8057,154.8196 L440.8057,154.2645 L442.8057,154.8046 L444.8057,154.9881 L446.8057,153.9987 L448.8057,154.6328 L448.8057,154.6328 L448.8057,154.5983 L454.8057,154.4433 L460.8057,154.4624 L466.8057,154.6025 L472.8057,154.3255 L478.8057,154.6328 L478.8057,155.1249 L480.8057,154.0726 L482.8057,154.457 L484.8057,155.0168 L486.8057,154.5566 L488.8057,154.6328" fill="none" style="stroke:#FF9900;stroke-width:1;"/><a href="/use-case/legal-entity-management/corporate-governance/organizational-structure/" target="_top" title="/use-case/legal-entity-management/corporate-governance/organizational-structure/" xlink:actuate="onRequest" xlink:href="/use-case/legal-entity-management/corporate-governance/organizational-structure/" xlink:show="new" xlink:title="/use-case/legal-entity-management/corporate-governance/organizational-structure/" xlink:type="simple"><text fill="#90EE90" font-family="'Roboto'" font-size="14" lengthAdjust="spacing" textLength="172.1016" x="495.8057" y="185.7764">Organizational Structure</text></a><path d="M438.8057,154.6328 L438.8057,154.8196 L440.8057,154.2645 L442.8057,154.8046 L444.8057,154.9881 L446.8057,153.9987 L448.8057,154.6328 L448.8057,154.6328 L448.7829,154.6068 L451.6807,157.12 L454.6933,159.764 L457.7857,162.4991 L460.6031,164.9205 L463.8057,167.7813 L463.9679,167.9663 L466.621,170.2003 L469.7477,172.9745 L472.9322,175.8147 L475.7805,178.2713 L478.8057,180.9297 L478.8057,180.9903 L480.8057,180.9013 L482.8057,181.0884 L484.8057,181.1423 L486.8057,181.4503 L488.8057,180.9297" fill="none" style="stroke:#FF9900;stroke-width:1;"/><path d="M214.2148,365.0078 L214.2148,365.1946 L216.2148,364.6395 L218.2148,365.1796 L220.2148,365.3631 L222.2148,364.3737 L224.2148,365.0078 L224.2148,365.0078 L224.1846,364.9911 L225.0449,363.1084 L226.0577,361.3097 L227.1766,359.5695 L227.9301,357.6279 L229.1953,355.9683 L229.4366,356.0165 L229.3352,353.8384 L229.9382,351.8011 L230.6272,349.7809 L230.8161,347.6608 L231.2681,345.5933 L231.2981,345.5975 L231.6246,342.9001 L232.0879,340.2215 L232.4852,337.5339 L233.0084,334.8635 L233.1211,332.1367 L233.4177,332.168 L233.7568,328.984 L233.9045,325.7798 L234.3323,322.6051 L234.7733,319.4319 L234.7983,316.2148 L234.479,316.187 L235.4078,312.6867 L235.2852,309.095 L235.9619,305.5728 L235.8155,301.979 L236.3438,298.4438 L236.3134,298.4416 L237.2467,290.7436 L237.4706,282.9928 L238.1131,275.2732 L238.7907,267.5562 L239.2148,259.8203 L239.3993,259.834 L239.7873,252.0955 L240.4906,244.3804 L240.6838,236.6273 L241.6378,228.9309 L242.0859,221.1968 L242.3287,221.2179 L242.5918,217.6597 L242.9755,214.112 L242.7993,210.5156 L243.0335,206.9549 L243.6313,203.4258 L243.3567,203.3969 L243.9408,200.2387 L244.2154,197.0479 L244.9389,193.9044 L244.8959,190.6802 L245.3086,187.5039 L245.1576,187.4831 L245.7797,184.8264 L245.7562,182.0808 L246.1918,179.3985 L247.0767,176.778 L247.1616,174.0473 L247.3515,174.0852 L247.8963,172.0363 L247.8505,169.8693 L248.5444,167.8501 L249.0771,165.7988 L249.2344,163.6724 L249.0505,163.571 L250.1932,161.8439 L251.2756,160.0836 L252.4764,158.3884 L253.2171,156.4398 L254.2148,154.6328 L254.2148,155.044 L256.2148,154.1406 L258.2148,154.0308 L260.2148,155.0805 L262.2148,153.9955 L264.2148,154.6328" fill="none" style="stroke:#FF9900;stroke-width:1;"/><a href="/use-case/legal-entity-management/ownership-and-capital-structure/" target="_top" title="/use-case/legal-entity-management/ownership-and-capital-structure/" xlink:actuate="onRequest" xlink:href="/use-case/legal-entity-management/ownership-and-capital-structure/" xlink:show="new" xlink:title="/use-case/legal-entity-management/ownership-and-capital-structure/" xlink:type="simple"><text fill="#90EE90" font-family="'Roboto'" font-size="14" lengthAdjust="spacing" textLength="213.4453" x="271.2148" y="304.1123">Ownership &amp; Capital Structure</text></a><a href="/use-case/legal-entity-management/ownership-and-capital-structure/ownership/" target="_top" title="/use-case/legal-entity-management/ownership-and-capital-structure/ownership/" xlink:actuate="onRequest" xlink:href="/use-case/legal-entity-management/ownership-and-capital-structure/ownership/" xlink:show="new" xlink:title="/use-case/legal-entity-management/ownership-and-capital-structure/ownership/" xlink:type="simple"><text fill="#90EE90" font-family="'Roboto'" font-size="14" lengthAdjust="spacing" textLength="74.6553" x="550.1104" y="212.0732">Ownership</text></a><path d="M493.1104,299.2656 L493.1104,299.4525 L495.1104,298.8973 L497.1104,299.4374 L499.1104,299.6209 L501.1104,298.6315 L503.1104,299.2656 L503.1104,299.2656 L503.081,299.2474 L504.7304,296.2896 L506.5279,293.4234 L508.4283,290.621 L509.9741,287.599 L512.0166,284.8845 L512.257,284.9371 L512.3875,281.8766 L513.2198,278.9695 L514.1377,276.0811 L514.5575,273.0839 L515.2393,270.1439 L515.2692,270.149 L515.7995,266.762 L516.4659,263.3981 L517.0667,260.023 L517.7928,256.6693 L518.1104,253.2461 L518.4044,253.2961 L518.9822,249.9171 L519.3704,246.5059 L520.0361,243.1419 L520.7149,239.7801 L520.9814,236.3483 L520.6683,236.2798 L521.9206,233.4646 L522.1418,230.4239 L523.1468,227.5546 L523.3446,224.5088 L524.2041,221.6077 L524.1782,221.5916 L526.2656,218.905 L527.7482,215.8438 L529.5876,213.0036 L531.4571,210.182 L533.1104,207.2266 L533.1104,207.5965 L535.1104,207.2231 L537.1104,207.4819 L539.1104,206.7177 L541.1104,207.4794 L543.1104,207.2266" fill="none" style="stroke:#FF9900;stroke-width:1;"/><a href="/use-case/legal-entity-management/ownership-and-capital-structure/control/" target="_top" title="/use-case/legal-entity-management/ownership-and-capital-structure/control/" xlink:actuate="onRequest" xlink:href="/use-case/legal-entity-management/ownership-and-capital-structure/control/" xlink:show="new" xlink:title="/use-case/legal-entity-management/ownership-and-capital-structure/control/" xlink:type="simple"><text fill="#90EE90" font-family="'Roboto'" font-size="14" lengthAdjust="spacing" textLength="50.9141" x="550.1104" y="238.3701">Control</text></a><path d="M493.1104,299.2656 L493.1104,299.4525 L495.1104,298.8973 L497.1104,299.4374 L499.1104,299.6209 L501.1104,298.6315 L503.1104,299.2656 L503.1104,299.2656 L503.0843,299.243 L504.7484,297.087 L506.5441,295.0451 L508.4312,293.0825 L510.0032,290.8466 L512.0166,288.9934 L512.2519,289.0654 L512.3933,286.8056 L513.2216,284.7561 L514.1338,282.7322 L514.5583,280.559 L515.2393,278.4644 L515.2688,278.4714 L515.7997,276.0471 L516.4649,273.6548 L517.0653,271.2471 L517.7894,268.8687 L518.1104,266.3945 L518.4005,266.4636 L518.9783,264.0504 L519.3689,261.5928 L520.0335,259.2003 L520.7109,256.8109 L520.9814,254.3247 L520.675,254.2309 L521.9143,252.3071 L522.1445,250.0745 L523.1419,248.0767 L523.3492,245.8371 L524.2041,243.7957 L524.1811,243.7757 L526.2344,241.9571 L527.7502,239.6726 L529.5832,237.663 L531.4428,235.6765 L533.1104,233.5234 L533.1104,233.8934 L535.1104,233.52 L537.1104,233.7787 L539.1104,233.0146 L541.1104,233.7762 L543.1104,233.5234" fill="none" style="stroke:#FF9900;stroke-width:1;"/><a href="/use-case/legal-entity-management/ownership-and-capital-structure/shares/" target="_top" title="/use-case/legal-entity-management/ownership-and-capital-structure/shares/" xlink:actuate="onRequest" xlink:href="/use-case/legal-entity-management/ownership-and-capital-structure/shares/" xlink:show="new" xlink:title="/use-case/legal-entity-management/ownership-and-capital-structure/shares/" xlink:type="simple"><text fill="#90EE90" font-family="'Roboto'" font-size="14" lengthAdjust="spacing" textLength="142.4746" x="550.1104" y="264.667">Shares &amp; Ownership</text></a><path d="M493.1104,299.2656 L493.1104,299.4525 L495.1104,298.8973 L497.1104,299.4374 L499.1104,299.6209 L501.1104,298.6315 L503.1104,299.2656 L503.1104,299.2656 L503.0907,299.2372 L504.7837,297.8771 L506.5759,296.6601 L508.4369,295.5427 L510.0605,294.0823 L512.0166,293.1023 L512.241,293.2032 L512.9798,290.2756 L514.3739,287.6425 L515.848,285.0454 L516.8568,282.2392 L518.1104,279.543 L518.138,279.5554 L519.3162,276.8253 L520.6202,274.1518 L521.8635,271.4509 L523.2228,268.8022 L524.2041,265.9836 L524.3738,266.2289 L526.1571,264.9992 L527.831,263.6114 L529.6651,262.4551 L531.5067,261.3096 L533.1104,259.8203 L533.1104,259.1793 L535.1104,260.4234 L537.1104,259.5568 L539.1104,260.2948 L541.1104,259.3803 L543.1104,259.8203" fill="none" style="stroke:#FF9900;stroke-width:1;"/><a href="/use-case/legal-entity-management/ownership-and-capital-structure/share-capital/" target="_top" title="/use-case/legal-entity-management/ownership-and-capital-structure/share-capital/" xlink:actuate="onRequest" xlink:href="/use-case/legal-entity-management/ownership-and-capital-structure/share-capital/" xlink:show="new" xlink:title="/use-case/legal-entity-management/ownership-and-capital-structure/share-capital/" xlink:type="simple"><text fill="#90EE90" font-family="'Roboto'" font-size="14" lengthAdjust="spacing" textLength="94.2471" x="550.1104" y="290.9639">Share Capital</text></a><path d="M493.1104,299.2656 L493.1104,299.4525 L495.1104,298.8973 L497.1104,299.4374 L499.1104,299.6209 L501.1104,298.6315 L503.1104,299.2656 L503.1104,299.2656 L503.0965,299.234 L506.0343,297.7772 L509.0419,296.4798 L512.0982,295.2933 L514.987,293.7248 L518.1104,292.6914 L518.2091,292.9168 L520.9979,291.12 L524.0751,289.9812 L527.1874,288.9227 L530.095,287.3971 L533.1104,286.1172 L533.1104,286.1778 L535.1104,286.0888 L537.1104,286.2759 L539.1104,286.3298 L541.1104,286.6378 L543.1104,286.1172" fill="none" style="stroke:#FF9900;stroke-width:1;"/><a href="/use-case/legal-entity-management/ownership-and-capital-structure/issued-capital/" target="_top" title="/use-case/legal-entity-management/ownership-and-capital-structure/issued-capital/" xlink:actuate="onRequest" xlink:href="/use-case/legal-entity-management/ownership-and-capital-structure/issued-capital/" xlink:show="new" xlink:title="/use-case/legal-entity-management/ownership-and-capital-structure/issued-capital/" xlink:type="simple"><text fill="#90EE90" font-family="'Roboto'" font-size="14" lengthAdjust="spacing" textLength="98.6289" x="550.1104" y="317.2607">Issued Capital</text></a><path d="M493.1104,299.2656 L493.1104,299.4525 L495.1104,298.8973 L497.1104,299.4374 L499.1104,299.6209 L501.1104,298.6315 L503.1104,299.2656 L503.1104,299.2656 L503.0965,299.234 L506.0343,300.4069 L509.0419,301.7392 L512.0982,303.1824 L514.987,304.2436 L518.1104,305.8398 L518.2091,306.0652 L520.9979,306.8981 L524.0751,308.389 L527.1874,309.9602 L530.095,311.0643 L533.1104,312.4141 L533.1104,312.4747 L535.1104,312.3857 L537.1104,312.5728 L539.1104,312.6266 L541.1104,312.9347 L543.1104,312.4141" fill="none" style="stroke:#FF9900;stroke-width:1;"/><a href="/use-case/legal-entity-management/ownership-and-capital-structure/corporate-actions/" target="_top" title="/use-case/legal-entity-management/ownership-and-capital-structure/corporate-actions/" xlink:actuate="onRequest" xlink:href="/use-case/legal-entity-management/ownership-and-capital-structure/corporate-actions/" xlink:show="new" xlink:title="/use-case/legal-entity-management/ownership-and-capital-structure/corporate-actions/" xlink:type="simple"><text fill="#90EE90" font-family="'Roboto'" font-size="14" lengthAdjust="spacing" textLength="125.8223" x="550.1104" y="343.5576">Corporate Actions</text></a><a href="/use-case/legal-entity-management/ownership-and-capital-structure/corporate-actions/merger-and-acquisition-history/" target="_top" title="/use-case/legal-entity-management/ownership-and-capital-structure/corporate-actions/merger-and-acquisition-history/" xlink:actuate="onRequest" xlink:href="/use-case/legal-entity-management/ownership-and-capital-structure/corporate-actions/merger-and-acquisition-history/" xlink:show="new" xlink:title="/use-case/legal-entity-management/ownership-and-capital-structure/corporate-actions/merger-and-acquisition-history/" xlink:type="simple"><text fill="#90EE90" font-family="'Roboto'" font-size="14" lengthAdjust="spacing" textLength="200.7031" x="741.3828" y="290.9639">Merger &amp; Acquisition History</text></a><path d="M684.3828,338.7109 L684.3828,338.8978 L686.3828,338.3427 L688.3828,338.8827 L690.3828,339.0662 L692.3828,338.0768 L694.3828,338.7109 L694.3828,338.7109 L694.3594,338.6856 L696.0355,336.9281 L697.8297,335.2986 L699.706,333.758 L701.2994,331.9109 L703.2891,330.4932 L703.5222,330.5718 L704.2424,326.7879 L705.6433,323.2334 L707.1272,319.707 L708.1279,316.0177 L709.3828,312.4141 L709.4116,312.4237 L710.5881,308.7937 L711.8955,305.2078 L713.1398,301.6005 L714.5045,298.0339 L715.4766,294.335 L715.6788,294.5542 L717.4625,292.9133 L719.1158,291.131 L720.96,289.5557 L722.8132,287.9901 L724.3828,286.1172 L724.3828,285.4761 L726.3828,286.7203 L728.3828,285.8536 L730.3828,286.5917 L732.3828,285.6772 L734.3828,286.1172" fill="none" style="stroke:#FF9900;stroke-width:1;"/><a href="/use-case/legal-entity-management/ownership-and-capital-structure/corporate-actions/spin-offs/" target="_top" title="/use-case/legal-entity-management/ownership-and-capital-structure/corporate-actions/spin-offs/" xlink:actuate="onRequest" xlink:href="/use-case/legal-entity-management/ownership-and-capital-structure/corporate-actions/spin-offs/" xlink:show="new" xlink:title="/use-case/legal-entity-management/ownership-and-capital-structure/corporate-actions/spin-offs/" xlink:type="simple"><text fill="#90EE90" font-family="'Roboto'" font-size="14" lengthAdjust="spacing" textLength="61.3047" x="741.3828" y="317.2607">Spin-offs</text></a><path d="M684.3828,338.7109 L684.3828,338.8978 L686.3828,338.3427 L688.3828,338.8827 L690.3828,339.0662 L692.3828,338.0768 L694.3828,338.7109 L694.3828,338.7109 L694.36,338.685 L697.2579,335.9387 L700.2705,333.3234 L703.3628,330.7991 L706.1803,327.9611 L709.3828,325.5625 L709.545,325.7475 L712.1982,322.7222 L715.3249,320.237 L718.5094,317.8178 L721.3577,315.0151 L724.3828,312.4141 L724.3828,312.4747 L726.3828,312.3857 L728.3828,312.5728 L730.3828,312.6266 L732.3828,312.9347 L734.3828,312.4141" fill="none" style="stroke:#FF9900;stroke-width:1;"/><a href="/use-case/legal-entity-management/ownership-and-capital-structure/corporate-actions/parents-and-subsidiaries/" target="_top" title="/use-case/legal-entity-management/ownership-and-capital-structure/corporate-actions/parents-and-subsidiaries/" xlink:actuate="onRequest" xlink:href="/use-case/legal-entity-management/ownership-and-capital-structure/corporate-actions/parents-and-subsidiaries/" xlink:show="new" xlink:title="/use-case/legal-entity-management/ownership-and-capital-structure/corporate-actions/parents-and-subsidiaries/" xlink:type="simple"><text fill="#90EE90" font-family="'Roboto'" font-size="14" lengthAdjust="spacing" textLength="173.0244" x="741.3828" y="343.5576">Parents and Subsidiaries</text></a><path d="M684.3828,338.7109 L684.3828,338.8978 L686.3828,338.3427 L688.3828,338.8827 L690.3828,339.0662 L692.3828,338.0768 L694.3828,338.7109 L694.3828,338.7109 L694.3828,338.6764 L700.3828,338.5214 L706.3828,338.5405 L712.3828,338.6806 L718.3828,338.4037 L724.3828,338.7109 L724.3828,339.2031 L726.3828,338.1507 L728.3828,338.5351 L730.3828,339.0949 L732.3828,338.6347 L734.3828,338.7109" fill="none" style="stroke:#FF9900;stroke-width:1;"/><a href="/use-case/legal-entity-management/ownership-and-capital-structure/corporate-actions/stock-splits/" target="_top" title="/use-case/legal-entity-management/ownership-and-capital-structure/corporate-actions/stock-splits/" xlink:actuate="onRequest" xlink:href="/use-case/legal-entity-management/ownership-and-capital-structure/corporate-actions/stock-splits/" xlink:show="new" xlink:title="/use-case/legal-entity-management/ownership-and-capital-structure/corporate-actions/stock-splits/" xlink:type="simple"><text fill="#90EE90" font-family="'Roboto'" font-size="14" lengthAdjust="spacing" textLength="81.5322" x="741.3828" y="369.8545">Stock Splits</text></a><path d="M684.3828,338.7109 L684.3828,338.8978 L686.3828,338.3427 L688.3828,338.8827 L690.3828,339.0662 L692.3828,338.0768 L694.3828,338.7109 L694.3828,338.7109 L694.36,338.685 L697.2579,341.1981 L700.2705,343.8421 L703.3628,346.5772 L706.1803,348.9986 L709.3828,351.8594 L709.545,352.0444 L712.1982,354.2784 L715.3249,357.0527 L718.5094,359.8928 L721.3577,362.3495 L724.3828,365.0078 L724.3828,365.0685 L726.3828,364.9794 L728.3828,365.1665 L730.3828,365.2204 L732.3828,365.5284 L734.3828,365.0078" fill="none" style="stroke:#FF9900;stroke-width:1;"/><a href="/use-case/legal-entity-management/ownership-and-capital-structure/corporate-actions/dividends/" target="_top" title="/use-case/legal-entity-management/ownership-and-capital-structure/corporate-actions/dividends/" xlink:actuate="onRequest" xlink:href="/use-case/legal-entity-management/ownership-and-capital-structure/corporate-actions/dividends/" xlink:show="new" xlink:title="/use-case/legal-entity-management/ownership-and-capital-structure/corporate-actions/dividends/" xlink:type="simple"><text fill="#90EE90" font-family="'Roboto'" font-size="14" lengthAdjust="spacing" textLength="69.3984" x="741.3828" y="396.1514">Dividends</text></a><path d="M684.3828,338.7109 L684.3828,338.8978 L686.3828,338.3427 L688.3828,338.8827 L690.3828,339.0662 L692.3828,338.0768 L694.3828,338.7109 L694.3828,338.7109 L694.3594,338.6856 L696.0355,340.2152 L697.8297,341.8728 L699.706,343.6193 L701.2994,345.0593 L703.2891,346.9287 L703.5222,347.0073 L704.2424,350.4551 L705.6433,354.1323 L707.1272,357.8375 L708.1279,361.3798 L709.3828,365.0078 L709.4116,365.0175 L710.5881,368.6191 L711.8955,372.2648 L713.1398,375.8892 L714.5045,379.5542 L715.4766,383.0869 L715.6788,383.3061 L717.4625,384.9523 L719.1158,386.4572 L720.96,388.169 L722.8132,389.8905 L724.3828,391.3047 L724.3828,390.6636 L726.3828,391.9078 L728.3828,391.0411 L730.3828,391.7792 L732.3828,390.8647 L734.3828,391.3047" fill="none" style="stroke:#FF9900;stroke-width:1;"/><path d="M493.1104,299.2656 L493.1104,299.4525 L495.1104,298.8973 L497.1104,299.4374 L499.1104,299.6209 L501.1104,298.6315 L503.1104,299.2656 L503.1104,299.2656 L503.0907,299.2372 L504.7837,300.3424 L506.5759,301.5908 L508.4369,302.9387 L510.0605,303.9436 L512.0166,305.429 L512.241,305.5298 L512.9798,308.026 L514.3739,310.8167 L515.848,313.6432 L516.8568,316.2608 L518.1104,318.9883 L518.138,319.0007 L519.3162,321.6943 L520.6202,324.4445 L521.8635,327.1674 L523.2228,329.9424 L524.2041,332.5476 L524.3738,332.7929 L526.1571,334.0285 L527.831,335.106 L529.6651,336.415 L531.5067,337.7349 L533.1104,338.7109 L533.1104,338.0699 L535.1104,339.3141 L537.1104,338.4474 L539.1104,339.1854 L541.1104,338.2709 L543.1104,338.7109" fill="none" style="stroke:#FF9900;stroke-width:1;"/><path d="M214.2148,365.0078 L214.2148,365.1946 L216.2148,364.6395 L218.2148,365.1796 L220.2148,365.3631 L222.2148,364.3737 L224.2148,365.0078 L224.2148,365.0078 L224.1887,364.9852 L225.8529,362.8292 L227.6486,360.7873 L229.5357,358.8246 L231.1077,356.5887 L233.1211,354.7356 L233.3564,354.8076 L233.4978,352.5478 L234.3261,350.4983 L235.2383,348.4744 L235.6628,346.3012 L236.3438,344.2066 L236.3733,344.2136 L236.9042,341.7893 L237.5694,339.397 L238.1698,336.9893 L238.8939,334.6109 L239.2148,332.1367 L239.505,332.2057 L240.0828,329.7926 L240.4734,327.335 L241.1379,324.9425 L241.8153,322.5531 L242.0859,320.0669 L241.7794,319.9731 L243.0188,318.0493 L243.249,315.8167 L244.2464,313.8189 L244.4537,311.5793 L245.3086,309.5378 L245.2856,309.5179 L247.3389,307.6993 L248.8547,305.4148 L250.6877,303.4052 L252.5473,301.4187 L254.2148,299.2656 L254.2148,299.6356 L256.2148,299.2622 L258.2148,299.5209 L260.2148,298.7568 L262.2148,299.5184 L264.2148,299.2656" fill="none" style="stroke:#FF9900;stroke-width:1;"/><a href="/use-case/legal-entity-management/financial-information/" target="_top" title="/use-case/legal-entity-management/financial-information/" xlink:actuate="onRequest" xlink:href="/use-case/legal-entity-management/financial-information/" xlink:show="new" xlink:title="/use-case/legal-entity-management/financial-information/" xlink:type="simple"><text fill="#90EE90" font-family="'Roboto'" font-size="14" lengthAdjust="spacing" textLength="148.0596" x="271.2148" y="475.042">Financial Information</text></a><a href="/use-case/legal-entity-management/financial-information/assets/" target="_top" title="/use-case/legal-entity-management/financial-information/assets/" xlink:actuate="onRequest" xlink:href="/use-case/legal-entity-management/financial-information/assets/" xlink:show="new" xlink:title="/use-case/legal-entity-management/financial-information/assets/" xlink:type="simple"><text fill="#90EE90" font-family="'Roboto'" font-size="14" lengthAdjust="spacing" textLength="45.5615" x="484.7246" y="422.4482">Assets</text></a><path d="M427.7246,470.1953 L427.7246,470.3821 L429.7246,469.827 L431.7246,470.3671 L433.7246,470.5506 L435.7246,469.5612 L437.7246,470.1953 L437.7246,470.1953 L437.7012,470.1699 L439.3773,468.4124 L441.1715,466.7829 L443.0478,465.2424 L444.6412,463.3953 L446.6309,461.9775 L446.864,462.0561 L447.5842,458.2722 L448.9851,454.7178 L450.469,451.1914 L451.4697,447.5021 L452.7246,443.8984 L452.7533,443.9081 L453.9299,440.2781 L455.2373,436.6921 L456.4816,433.0849 L457.8463,429.5183 L458.8184,425.8193 L459.0206,426.0385 L460.8043,424.3977 L462.4576,422.6154 L464.3018,421.0401 L466.155,419.4745 L467.7246,417.6016 L467.7246,416.9605 L469.7246,418.2047 L471.7246,417.338 L473.7246,418.0761 L475.7246,417.1615 L477.7246,417.6016" fill="none" style="stroke:#FF9900;stroke-width:1;"/><a href="/use-case/legal-entity-management/financial-information/fundamentals/" target="_top" title="/use-case/legal-entity-management/financial-information/fundamentals/" xlink:actuate="onRequest" xlink:href="/use-case/legal-entity-management/financial-information/fundamentals/" xlink:show="new" xlink:title="/use-case/legal-entity-management/financial-information/fundamentals/" xlink:type="simple"><text fill="#90EE90" font-family="'Roboto'" font-size="14" lengthAdjust="spacing" textLength="99.6406" x="484.7246" y="448.7451">Fundamentals</text></a><path d="M427.7246,470.1953 L427.7246,470.3821 L429.7246,469.827 L431.7246,470.3671 L433.7246,470.5506 L435.7246,469.5612 L437.7246,470.1953 L437.7246,470.1953 L437.7018,470.1693 L440.5997,467.4231 L443.6123,464.8078 L446.7046,462.2835 L449.5221,459.4455 L452.7246,457.0469 L452.8868,457.2319 L455.54,454.2065 L458.6667,451.7214 L461.8512,449.3022 L464.6995,446.4995 L467.7246,443.8984 L467.7246,443.9591 L469.7246,443.87 L471.7246,444.0571 L473.7246,444.111 L475.7246,444.4191 L477.7246,443.8984" fill="none" style="stroke:#FF9900;stroke-width:1;"/><a href="/use-case/legal-entity-management/financial-information/earnings-estimates/" target="_top" title="/use-case/legal-entity-management/financial-information/earnings-estimates/" xlink:actuate="onRequest" xlink:href="/use-case/legal-entity-management/financial-information/earnings-estimates/" xlink:show="new" xlink:title="/use-case/legal-entity-management/financial-information/earnings-estimates/" xlink:type="simple"><text fill="#90EE90" font-family="'Roboto'" font-size="14" lengthAdjust="spacing" textLength="134.5791" x="484.7246" y="475.042">Earnings Estimates</text></a><path d="M427.7246,470.1953 L427.7246,470.3821 L429.7246,469.827 L431.7246,470.3671 L433.7246,470.5506 L435.7246,469.5612 L437.7246,470.1953 L437.7246,470.1953 L437.7246,470.1608 L443.7246,470.0058 L449.7246,470.0249 L455.7246,470.165 L461.7246,469.888 L467.7246,470.1953 L467.7246,470.6874 L469.7246,469.6351 L471.7246,470.0195 L473.7246,470.5793 L475.7246,470.1191 L477.7246,470.1953" fill="none" style="stroke:#FF9900;stroke-width:1;"/><a href="/use-case/legal-entity-management/financial-information/ratings/" target="_top" title="/use-case/legal-entity-management/financial-information/ratings/" xlink:actuate="onRequest" xlink:href="/use-case/legal-entity-management/financial-information/ratings/" xlink:show="new" xlink:title="/use-case/legal-entity-management/financial-information/ratings/" xlink:type="simple"><text fill="#90EE90" font-family="'Roboto'" font-size="14" lengthAdjust="spacing" textLength="52.7393" x="484.7246" y="501.3389">Ratings</text></a><path d="M427.7246,470.1953 L427.7246,470.3821 L429.7246,469.827 L431.7246,470.3671 L433.7246,470.5506 L435.7246,469.5612 L437.7246,470.1953 L437.7246,470.1953 L437.7018,470.1693 L440.5997,472.6825 L443.6123,475.3265 L446.7046,478.0616 L449.5221,480.483 L452.7246,483.3438 L452.8868,483.5288 L455.54,485.7628 L458.6667,488.537 L461.8512,491.3772 L464.6995,493.8338 L467.7246,496.4922 L467.7246,496.5528 L469.7246,496.4638 L471.7246,496.6509 L473.7246,496.7048 L475.7246,497.0128 L477.7246,496.4922" fill="none" style="stroke:#FF9900;stroke-width:1;"/><a href="/use-case/legal-entity-management/financial-information/liability-terms/" target="_top" title="/use-case/legal-entity-management/financial-information/liability-terms/" xlink:actuate="onRequest" xlink:href="/use-case/legal-entity-management/financial-information/liability-terms/" xlink:show="new" xlink:title="/use-case/legal-entity-management/financial-information/liability-terms/" xlink:type="simple"><text fill="#90EE90" font-family="'Roboto'" font-size="14" lengthAdjust="spacing" textLength="102.9014" x="484.7246" y="527.6357">Liability Terms</text></a><path d="M427.7246,470.1953 L427.7246,470.3821 L429.7246,469.827 L431.7246,470.3671 L433.7246,470.5506 L435.7246,469.5612 L437.7246,470.1953 L437.7246,470.1953 L437.7012,470.1699 L439.3773,471.6996 L441.1715,473.3572 L443.0478,475.1037 L444.6412,476.5437 L446.6309,478.4131 L446.864,478.4917 L447.5842,481.9394 L448.9851,485.6167 L450.469,489.3219 L451.4697,492.8642 L452.7246,496.4922 L452.7533,496.5019 L453.9299,500.1035 L455.2373,503.7492 L456.4816,507.3736 L457.8463,511.0386 L458.8184,514.5713 L459.0206,514.7905 L460.8043,516.4367 L462.4576,517.9416 L464.3018,519.6534 L466.155,521.3749 L467.7246,522.7891 L467.7246,522.148 L469.7246,523.3922 L471.7246,522.5255 L473.7246,523.2636 L475.7246,522.349 L477.7246,522.7891" fill="none" style="stroke:#FF9900;stroke-width:1;"/><path d="M214.2148,365.0078 L214.2148,365.1946 L216.2148,364.6395 L218.2148,365.1796 L220.2148,365.3631 L222.2148,364.3737 L224.2148,365.0078 L224.2148,365.0078 L224.1845,364.9914 L225.8294,368.2046 L227.6275,371.5008 L229.532,374.8547 L231.0697,378.0099 L233.1211,381.4434 L233.3628,381.4896 L233.4905,384.76 L234.3238,388.1654 L235.2432,391.5873 L235.6618,394.9133 L236.3438,398.2898 L236.3737,398.2943 L236.9039,402.1501 L237.5707,406.0262 L238.1715,409.8925 L238.8981,413.7775 L239.2148,417.6016 L239.5098,417.6454 L240.0877,421.5083 L240.4752,425.3429 L241.1413,429.2189 L241.8204,433.0969 L242.0859,436.9133 L241.7711,436.8531 L243.0267,440.3393 L243.2456,443.6271 L244.2526,447.0658 L244.448,450.3491 L245.3086,453.7598 L245.2818,453.7453 L247.3796,457.2039 L248.8521,460.3237 L250.6935,463.6434 L252.5659,466.9799 L254.2148,470.1953 L254.2148,470.5653 L256.2148,470.1918 L258.2148,470.4506 L260.2148,469.6865 L262.2148,470.4481 L264.2148,470.1953" fill="none" style="stroke:#FF9900;stroke-width:1;"/><a href="/use-case/legal-entity-management/lifecycle-and-status/" target="_top" title="/use-case/legal-entity-management/lifecycle-and-status/" xlink:actuate="onRequest" xlink:href="/use-case/legal-entity-management/lifecycle-and-status/" xlink:show="new" xlink:title="/use-case/legal-entity-management/lifecycle-and-status/" xlink:type="simple"><text fill="#90EE90" font-family="'Roboto'" font-size="14" lengthAdjust="spacing" textLength="125.8428" x="271.2148" y="567.0811">Lifecycle &amp; Status</text></a><a href="/use-case/legal-entity-management/lifecycle-and-status/dissolution/" target="_top" title="/use-case/legal-entity-management/lifecycle-and-status/dissolution/" xlink:actuate="onRequest" xlink:href="/use-case/legal-entity-management/lifecycle-and-status/dissolution/" xlink:show="new" xlink:title="/use-case/legal-entity-management/lifecycle-and-status/dissolution/" xlink:type="simple"><text fill="#90EE90" font-family="'Roboto'" font-size="14" lengthAdjust="spacing" textLength="77.4033" x="462.5078" y="553.9326">Dissolution</text></a><path d="M405.5078,562.2344 L405.5078,562.4212 L407.5078,561.8661 L409.5078,562.4062 L411.5078,562.5896 L413.5078,561.6002 L415.5078,562.2344 L415.5078,562.2344 L415.4939,562.2027 L418.4317,560.7459 L421.4394,559.4486 L424.4957,558.2621 L427.3845,556.6936 L430.5078,555.6602 L430.6066,555.8855 L433.3954,554.0887 L436.4725,552.95 L439.5849,551.8915 L442.4925,550.3659 L445.5078,549.0859 L445.5078,549.1466 L447.5078,549.0575 L449.5078,549.2446 L451.5078,549.2985 L453.5078,549.6066 L455.5078,549.0859" fill="none" style="stroke:#FF9900;stroke-width:1;"/><a href="/use-case/legal-entity-management/lifecycle-and-status/liquidation/" target="_top" title="/use-case/legal-entity-management/lifecycle-and-status/liquidation/" xlink:actuate="onRequest" xlink:href="/use-case/legal-entity-management/lifecycle-and-status/liquidation/" xlink:show="new" xlink:title="/use-case/legal-entity-management/lifecycle-and-status/liquidation/" xlink:type="simple"><text fill="#90EE90" font-family="'Roboto'" font-size="14" lengthAdjust="spacing" textLength="77.6221" x="462.5078" y="580.2295">Liquidation</text></a><path d="M405.5078,562.2344 L405.5078,562.4212 L407.5078,561.8661 L409.5078,562.4062 L411.5078,562.5896 L413.5078,561.6002 L415.5078,562.2344 L415.5078,562.2344 L415.4939,562.2027 L418.4317,563.3756 L421.4394,564.708 L424.4957,566.1512 L427.3845,567.2123 L430.5078,568.8086 L430.6066,569.034 L433.3954,569.8669 L436.4725,571.3578 L439.5849,572.929 L442.4925,574.0331 L445.5078,575.3828 L445.5078,575.4435 L447.5078,575.3544 L449.5078,575.5415 L451.5078,575.5954 L453.5078,575.9034 L455.5078,575.3828" fill="none" style="stroke:#FF9900;stroke-width:1;"/><path d="M214.2148,365.0078 L214.2148,365.1946 L216.2148,364.6395 L218.2148,365.1796 L220.2148,365.3631 L222.2148,364.3737 L224.2148,365.0078 L224.2148,365.0078 L224.1851,364.9903 L225.0475,366.6067 L226.0601,368.3113 L227.177,370.0772 L227.9343,371.6318 L229.1953,373.4824 L229.436,373.5337 L229.3359,375.3693 L229.9384,377.3547 L230.6267,379.3583 L230.8162,381.2556 L231.2681,383.2089 L231.2981,383.2133 L231.6246,385.7299 L232.0878,388.2667 L232.485,390.7937 L233.008,393.3392 L233.1211,395.8245 L233.4175,395.8578 L233.7565,398.8435 L233.9045,401.8078 L234.3322,404.8036 L234.773,407.8008 L234.7983,410.7513 L234.4792,410.7217 L235.4077,414.1112 L235.2853,417.4032 L235.9618,420.7693 L235.8156,424.0592 L236.3438,427.4115 L236.3134,427.4091 L237.2465,434.6795 L237.4706,441.8936 L238.1131,449.141 L238.7907,456.3911 L239.2148,463.6211 L239.3993,463.6357 L239.7873,470.8629 L240.4905,478.115 L240.6839,485.3267 L241.6377,492.5987 L242.0859,499.8307 L242.3285,499.8532 L242.5917,503.181 L242.9754,506.5199 L242.7994,509.807 L243.0336,513.1321 L243.6313,516.4909 L243.3569,516.4601 L243.9408,519.4734 L244.2154,522.4519 L244.9387,525.4808 L244.896,528.4237 L245.3086,531.4177 L245.1577,531.3956 L245.7796,533.9556 L245.7566,536.4209 L246.1921,538.9535 L247.0764,541.5521 L247.1616,544.0333 L247.351,544.0736 L247.8954,546.0466 L247.8508,547.8941 L248.544,549.8988 L249.0765,551.8692 L249.2344,553.7598 L249.0534,553.6534 L250.1937,555.4331 L251.2748,557.178 L252.4724,558.9913 L253.2171,560.5385 L254.2148,562.2344 L254.2148,562.6455 L256.2148,561.7421 L258.2148,561.6324 L260.2148,562.682 L262.2148,561.5971 L264.2148,562.2344" fill="none" style="stroke:#FF9900;stroke-width:1;"/><a href="/use-case/legal-entity-management/contact-and-location-information/" target="_top" title="/use-case/legal-entity-management/contact-and-location-information/" xlink:actuate="onRequest" xlink:href="/use-case/legal-entity-management/contact-and-location-information/" xlink:show="new" xlink:title="/use-case/legal-entity-management/contact-and-location-information/" xlink:type="simple"><text fill="#90EE90" font-family="'Roboto'" font-size="14" lengthAdjust="spacing" textLength="219.4814" x="271.2148" y="619.6748">Contact &amp; Location Information</text></a><a href="/use-case/legal-entity-management/contact-and-location-information/contacts/" target="_top" title="/use-case/legal-entity-management/contact-and-location-information/contacts/" xlink:actuate="onRequest" xlink:href="/use-case/legal-entity-management/contact-and-location-information/contacts/" xlink:show="new" xlink:title="/use-case/legal-entity-management/contact-and-location-information/contacts/" xlink:type="simple"><text fill="#90EE90" font-family="'Roboto'" font-size="14" lengthAdjust="spacing" textLength="61.7627" x="556.1465" y="606.5264">Contacts</text></a><path d="M499.1465,614.8281 L499.1465,615.015 L501.1465,614.4598 L503.1465,614.9999 L505.1465,615.1834 L507.1465,614.194 L509.1465,614.8281 L509.1465,614.8281 L509.1326,614.7965 L512.0704,613.3397 L515.0781,612.0423 L518.1343,610.8558 L521.0231,609.2873 L524.1465,608.2539 L524.2453,608.4793 L527.034,606.6825 L530.1112,605.5437 L533.2235,604.4852 L536.1312,602.9596 L539.1465,601.6797 L539.1465,601.7403 L541.1465,601.6513 L543.1465,601.8384 L545.1465,601.8923 L547.1465,602.2003 L549.1465,601.6797" fill="none" style="stroke:#FF9900;stroke-width:1;"/><a href="/use-case/legal-entity-management/contact-and-location-information/addresses/" target="_top" title="/use-case/legal-entity-management/contact-and-location-information/addresses/" xlink:actuate="onRequest" xlink:href="/use-case/legal-entity-management/contact-and-location-information/addresses/" xlink:show="new" xlink:title="/use-case/legal-entity-management/contact-and-location-information/addresses/" xlink:type="simple"><text fill="#90EE90" font-family="'Roboto'" font-size="14" lengthAdjust="spacing" textLength="72.2148" x="556.1465" y="632.8232">Addresses</text></a><path d="M499.1465,614.8281 L499.1465,615.015 L501.1465,614.4598 L503.1465,614.9999 L505.1465,615.1834 L507.1465,614.194 L509.1465,614.8281 L509.1465,614.8281 L509.1326,614.7965 L512.0704,615.9694 L515.0781,617.3017 L518.1343,618.7449 L521.0231,619.8061 L524.1465,621.4023 L524.2453,621.6277 L527.034,622.4606 L530.1112,623.9515 L533.2235,625.5227 L536.1312,626.6268 L539.1465,627.9766 L539.1465,628.0372 L541.1465,627.9482 L543.1465,628.1353 L545.1465,628.1891 L547.1465,628.4972 L549.1465,627.9766" fill="none" style="stroke:#FF9900;stroke-width:1;"/><path d="M214.2148,365.0078 L214.2148,365.1946 L216.2148,364.6395 L218.2148,365.1796 L220.2148,365.3631 L222.2148,364.3737 L224.2148,365.0078 L224.2148,365.0078 L224.1835,364.9933 L225.039,367.0749 L226.0524,369.2299 L227.1756,371.4357 L227.9205,373.4661 L229.1953,375.7423 L229.438,375.7831 L229.3336,378.1599 L229.9377,380.6558 L230.6283,383.1663 L230.8159,385.5921 L231.2681,388.0625 L231.2982,388.066 L231.6246,391.2568 L232.0881,394.4635 L232.4855,397.6626 L233.0091,400.8763 L233.1211,404.0422 L233.4182,404.0686 L233.7573,407.8504 L233.9047,411.6152 L234.3327,415.4048 L234.7738,419.1957 L234.7983,422.9495 L234.4787,422.9261 L235.4082,427.1922 L235.2851,431.3811 L235.9622,435.6287 L235.8152,439.8159 L236.3438,444.0525 L236.2526,444.0468 L237.9048,453.2874 L237.4273,462.3946 L238.2065,471.5806 L239.0912,480.7731 L239.2148,489.918 L239.7687,489.9526 L239.7839,499.0907 L240.7455,508.2881 L240.1758,517.3896 L241.8902,526.634 L242.0859,535.7834 L242.3289,535.8012 L242.5921,540.0184 L242.9758,544.2445 L242.7991,548.4295 L243.0332,552.6446 L243.6313,556.8864 L243.3563,556.862 L243.9407,560.6655 L244.2152,564.4416 L244.9394,568.2575 L244.8958,572.0054 L245.3086,575.7937 L245.1571,575.7761 L245.78,579.0013 L245.7554,582.1514 L246.1912,585.355 L247.0775,588.6107 L247.1616,591.7734 L247.3526,591.8055 L247.8981,594.2916 L247.8497,596.6778 L248.5452,599.1891 L249.0786,601.6731 L249.2344,604.0937 L249.0439,604.0053 L250.1918,606.2226 L251.2774,608.411 L252.4854,610.6563 L253.2171,612.6804 L254.2148,614.8281 L254.2148,615.2393 L256.2148,614.3359 L258.2148,614.2261 L260.2148,615.2758 L262.2148,614.1908 L264.2148,614.8281" fill="none" style="stroke:#FF9900;stroke-width:1;"/><a href="/use-case/legal-entity-management/compliance-and-documentation/" target="_top" title="/use-case/legal-entity-management/compliance-and-documentation/" xlink:actuate="onRequest" xlink:href="/use-case/legal-entity-management/compliance-and-documentation/" xlink:show="new" xlink:title="/use-case/legal-entity-management/compliance-and-documentation/" xlink:type="simple"><text fill="#90EE90" font-family="'Roboto'" font-size="14" lengthAdjust="spacing" textLength="210.1504" x="271.2148" y="672.2686">Compliance &amp; Documentation</text></a><a href="/use-case/legal-entity-management/compliance-and-documentation/compliance/" target="_top" title="/use-case/legal-entity-management/compliance-and-documentation/compliance/" xlink:actuate="onRequest" xlink:href="/use-case/legal-entity-management/compliance-and-documentation/compliance/" xlink:show="new" xlink:title="/use-case/legal-entity-management/compliance-and-documentation/compliance/" xlink:type="simple"><text fill="#90EE90" font-family="'Roboto'" font-size="14" lengthAdjust="spacing" textLength="82.4072" x="546.8154" y="659.1201">Compliance</text></a><path d="M489.8154,667.4219 L489.8154,667.6087 L491.8154,667.0536 L493.8154,667.5937 L495.8154,667.7771 L497.8154,666.7877 L499.8154,667.4219 L499.8154,667.4219 L499.8016,667.3902 L502.7393,665.9334 L505.747,664.6361 L508.8033,663.4496 L511.6921,661.8811 L514.8154,660.8477 L514.9142,661.073 L517.703,659.2762 L520.7801,658.1375 L523.8925,657.079 L526.8001,655.5534 L529.8154,654.2734 L529.8154,654.3341 L531.8154,654.245 L533.8154,654.4321 L535.8154,654.486 L537.8154,654.7941 L539.8154,654.2734" fill="none" style="stroke:#FF9900;stroke-width:1;"/><a href="/use-case/legal-entity-management/compliance-and-documentation/documents/" target="_top" title="/use-case/legal-entity-management/compliance-and-documentation/documents/" xlink:actuate="onRequest" xlink:href="/use-case/legal-entity-management/compliance-and-documentation/documents/" xlink:show="new" xlink:title="/use-case/legal-entity-management/compliance-and-documentation/documents/" xlink:type="simple"><text fill="#90EE90" font-family="'Roboto'" font-size="14" lengthAdjust="spacing" textLength="79.8232" x="546.8154" y="685.417">Documents</text></a><path d="M489.8154,667.4219 L489.8154,667.6087 L491.8154,667.0536 L493.8154,667.5937 L495.8154,667.7771 L497.8154,666.7877 L499.8154,667.4219 L499.8154,667.4219 L499.8016,667.3902 L502.7393,668.5631 L505.747,669.8955 L508.8033,671.3387 L511.6921,672.3998 L514.8154,673.9961 L514.9142,674.2215 L517.703,675.0544 L520.7801,676.5453 L523.8925,678.1165 L526.8001,679.2206 L529.8154,680.5703 L529.8154,680.631 L531.8154,680.5419 L533.8154,680.729 L535.8154,680.7829 L537.8154,681.0909 L539.8154,680.5703" fill="none" style="stroke:#FF9900;stroke-width:1;"/><path d="M214.2148,365.0078 L214.2148,365.1946 L216.2148,364.6395 L218.2148,365.1796 L220.2148,365.3631 L222.2148,364.3737 L224.2148,365.0078 L224.2148,365.0078 L224.1826,364.9955 L225.0339,367.5388 L226.0479,370.1446 L227.1748,372.7936 L227.9123,375.2933 L229.1953,378.0022 L229.439,378.036 L229.3324,380.9464 L229.9374,383.9557 L230.6291,386.977 L230.8158,389.9281 L231.2681,392.9161 L231.2983,392.919 L231.6245,396.7836 L232.0883,400.6613 L232.4857,404.5326 L233.0096,408.4161 L233.1211,412.26 L233.4185,412.2818 L233.7576,416.8596 L233.9049,421.4234 L234.3329,426.0077 L234.7742,430.593 L234.7983,435.1478 L234.4784,435.1284 L235.4084,440.2751 L235.285,445.3581 L235.9624,450.4896 L235.8151,455.5711 L236.3438,460.6935 L236.2525,460.6888 L237.8098,469.9981 L237.2359,479.1973 L237.9195,488.4614 L238.7087,497.731 L239.2906,506.9899 L239.2148,516.2148 L239.2096,516.2146 L240.0758,525.4882 L239.4097,534.6825 L241.0291,543.9951 L241.8589,553.2668 L242.1993,562.5132 L242.0859,571.7362 L242.3579,571.7526 L242.1807,576.8324 L242.4148,581.937 L242.7375,587.0469 L243.2961,592.1712 L243.6313,597.2819 L243.5442,597.2755 L244.2688,601.8816 L244.2248,606.4313 L244.4856,611.0034 L245.0743,615.5995 L245.3086,620.1697 L245.0136,620.1414 L245.4495,624.0165 L246.3369,627.9347 L246.6132,631.7945 L247.116,635.6759 L247.1616,639.5135 L247.02,639.4939 L247.7167,642.5159 L248.2506,645.5153 L248.1973,648.433 L248.7776,651.4389 L249.2344,654.4275 L249.2867,654.4476 L250.501,657.1301 L251.2248,659.6246 L252.4146,662.2977 L252.9889,664.7349 L254.2148,667.4219 L254.2148,666.8199 L256.2148,667.8695 L258.2148,666.7846 L260.2148,667.8743 L262.2148,667.6055 L264.2148,667.4219" fill="none" style="stroke:#FF9900;stroke-width:1;"/><a href="/use-case/legal-entity-management/supporting-information/" target="_top" title="/use-case/legal-entity-management/supporting-information/" xlink:actuate="onRequest" xlink:href="/use-case/legal-entity-management/supporting-information/" xlink:show="new" xlink:title="/use-case/legal-entity-management/supporting-information/" xlink:type="simple"><text fill="#90EE90" font-family="'Roboto'" font-size="14" lengthAdjust="spacing" textLength="162.7295" x="271.2148" y="711.7139">Supporting Information</text></a><a href="/use-case/legal-entity-management/supporting-information/currencies/" target="_top" title="/use-case/legal-entity-management/supporting-information/currencies/" xlink:actuate="onRequest" xlink:href="/use-case/legal-entity-management/supporting-information/currencies/" xlink:show="new" xlink:title="/use-case/legal-entity-management/supporting-information/currencies/" xlink:type="simple"><text fill="#90EE90" font-family="'Roboto'" font-size="14" lengthAdjust="spacing" textLength="75.1406" x="499.3945" y="711.7139">Currencies</text></a><path d="M442.3945,706.8672 L442.3945,707.054 L444.3945,706.4989 L446.3945,707.039 L448.3945,707.2225 L450.3945,706.2331 L452.3945,706.8672 L452.3945,706.8672 L452.3945,706.8326 L458.3945,706.6776 L464.3945,706.6967 L470.3945,706.8369 L476.3945,706.5599 L482.3945,706.8672 L482.3945,707.3593 L484.3945,706.3069 L486.3945,706.6914 L488.3945,707.2511 L490.3945,706.7909 L492.3945,706.8672" fill="none" style="stroke:#FF9900;stroke-width:1;"/><path d="M214.2148,365.0078 L214.2148,365.1946 L216.2148,364.6395 L218.2148,365.1796 L220.2148,365.3631 L222.2148,364.3737 L224.2148,365.0078 L224.2148,365.0078 L224.1821,364.9967 L225.0314,367.8848 L226.0456,370.8288 L227.1744,373.8116 L227.9082,376.6606 L229.1953,379.6971 L229.4395,379.7271 L229.3318,383.0348 L229.9372,386.4301 L230.6295,389.8361 L230.8157,393.1799 L231.2681,396.5564 L231.2983,396.5589 L231.6245,400.9286 L232.0883,405.3099 L232.4858,409.6855 L233.0099,414.0719 L233.1211,418.4233 L233.4187,418.4426 L233.7578,423.6175 L233.9049,428.7799 L234.333,433.9606 L234.7743,439.142 L234.7983,444.2965 L234.4783,444.2794 L235.4086,450.0882 L235.2849,455.8406 L235.9625,461.6358 L235.815,467.3869 L236.3438,473.1743 L236.2525,473.1701 L237.81,483.68 L237.2359,494.0924 L237.9196,504.5623 L238.7088,515.0371 L239.2907,525.5023 L239.2148,535.9375 L239.2096,535.9373 L240.0759,546.4155 L239.4094,556.8237 L241.0292,567.3364 L241.8591,577.8131 L242.1995,588.2673 L242.0859,598.7007 L242.358,598.7153 L242.1806,604.4648 L242.4147,610.2364 L242.7374,616.0126 L243.2961,621.8016 L243.6313,627.5785 L243.5442,627.5729 L244.269,632.7727 L244.2248,637.9228 L244.4855,643.0925 L245.0744,648.2836 L245.3086,653.4517 L245.0133,653.4266 L245.4493,657.8056 L246.3372,662.2228 L246.6133,666.5882 L247.1163,670.9728 L247.1616,675.3186 L247.0197,675.3012 L247.717,678.7078 L248.2512,682.0944 L248.1969,685.4086 L248.7775,688.8009 L249.2344,692.1779 L249.2874,692.1959 L250.5048,695.2088 L251.2248,698.053 L252.4174,701.0575 L252.9857,703.8503 L254.2148,706.8672 L254.2148,706.2652 L256.2148,707.3148 L258.2148,706.2299 L260.2148,707.3196 L262.2148,707.0509 L264.2148,706.8672" fill="none" style="stroke:#FF9900;stroke-width:1;"/><!--SRC=[xLbRRzD857xthvYbqW9YGngs841eHPecfP1UbBH8AuIgYJrEHdLcpCoutRBQ_xvdndVdwc2pi79UuZdd-3iNp_rxAnKMQawPCyU-PVtY49SoWWwFhq-x9sVNlVFX-GYPtzx1_lFEv7dMPDpldPyTTKT_HdPBJ2wwlG_Tutu2j61oFZhgZx9-q9xhld3tznEJmVdPPSx0cEYVPSaRodmiy1nDi7qp5JnWJezxNCI6Ic0cmO8mbJ5-T-yJCQJi9ckBzZmwdQcf88HPraD4cUq53a5gHj2KC2AmXn88YLnuSSBLx3TaNaEOESZ1uWRUL1pnMoBk15K4tL4r2p7eBM584gKecyfY1IxVdVG-dFN7OzI1py1zHJb3Cm3LA0fUTB4dIIQ72-mu08GECh9HcB-0OD7BZ7mymmw_qzP555C93ofnnHppG2AJZCqHSN7WAVItDU1CdU4vGGz677Bd3umaB6BwcOnmJByIr3cm_iaYTONWTu2pz8tbCEhUWnfnpyaZ-V2vyPH4CIsyUbZe3Rd-R1ro0Sb6cam711Uf1yQTCl2vZhwT1vlFVSwWPuAR7GDU6brOis3kFSlNpC4AJx0a5RlB-R0z7ZYrEk2UHsmzEcJbRb8lFJ0GtAlHmw66nEA-HXTzfgYgqm5bYWWNswH67sFo9I3C9XUmJ56R-fYf4EnoHkqRHgI42JCrbv4vH9HzOsrm2z1BuipOfDCIusAElQ9k8PqXTGaiDcGbU6AmDampUIw06-bAPADT6fJHf3NytUhQYeiD4HYJbRwqTjK0VeXw1qXN3HOXQEnj_6N7l801ZzdK8s_Um6ebEVlZ3_Y-O-XyX2jOm5Qk7bMj2yKULropyrDK9bpo5mJ9i7TTVTo5pLSDmSjxgSZyvwjrzN7NLEjuGVuvIfr6-_DLEjDD9j726qPTs1Zdip1xsFtDkxsTSb-VMBZ0E5ZEYBDDhajJjS4nXdL5R9ihxDVNTwKQCbt_2RDBky9gsKuZFbAcpkFZOLSfGIU18ekgR53nWREmaSLIrkpj8JeD3zv8-iIcBhKXoN29N3Y7R1_7njHmkf7O6mnUlG9zGPdTMrdM4_Jf4se7ahHi6FvjZqonro9cSzcQOmR7i3cqscYe5V6kypHHeC-VhITFhhS3eOwMGIMmtkAtuFpR4cHA9PpZjQ2DJd86w5SqogX3LrNv2j-3S_uypcq0pzNwc0IIwa8NiZoCn3Lc1wVFEH4sXPT3EH5jEFV4miWp4HLxrSCgqOF3NBjKLx6vy3d0ajPKtxOm3Dj-dK4aHSU9j5mAIt4TgkTLBkIC-hADZhBD2k0bdJ8CU9G0-3XjL03DnHGp-jNK5zw2Bn7OAX1GglES1dRdaQRKL-1tiBxeCfXlRMEVgeANs036QYzK5rrLvIlHPxrMwi4ExmNQoGL1fUXoXeNf0EOVwbLJ5iPFB8_S9T-cKazKoe0ugQiJqwx7LzhxSNW_b9qCkj6LKUYnFfSmUqw9CERO_X9GISqyE8CPa8lxDZerUlYqtLIBteNQseEJFcKjxhgwYyMFjJiDBz-biPV1H5A7ud2UkmWrvkPydD7KNmV5xPkMz3sgT2bq2mgYMxMxTkYjNY8TiuP4ZwNcMvVgQLslsfJfhKcqZWvYCJf9nUN6rt9aM9w9hbBN_5U1wEhpbzR3AGG2pxIgG2TOCCslj8XK56Iwe_KZ6Uh7iYeywHqDWBRHA7oe0jEZU48zRGexhpbW3sC1kjI2Kbt5eownxssFX6CFZa-1GOoaC0cDZQnSu4jH7PZekHU4VV4eRLG0xL6OA9secm_JHicz8dGmMnbSZqURqzm0weKMK9HXfDzz96tq5Xd8nAsis05s7DX1IDtvk_5ZoOBDOKBK6qZZnE5sO0PfNAnO2_KwokhAvh76IwhCEQpEGTpISt7yMAf8Cl1XUjU3Fz-Nnebyzpwq0jiE12oQjba_UycpXduBIqd2ux_Dq_erykG_C2CTNuXiIKTdpPS0b22YavkO5NSsoszerb3FtmguZcbUXx4OmGxSSZa7Mx79tmAvbZyk2xmDOxmxvXgEU7VGbQpmxf3hUE3TKMjXVkDmLd2-SMIbwTuuWMLSRmowYkQDOyeGlCcTSf7TZR4An6xEVYEhcpWiyha9UfxApGoadLZPrJDhcTwo-F6_bNNztd5jeCl-ipBz275jpOL-vsX-g29LIcF6SPJCPcNKQodBJfqSPTMP5Eh_l-OW6wAn8HeReh4X6XkYiI4Q6wAn8HeReh4X6XkYiI4Q6wAn8HeReh4X6ZSGZHSUPkhgT8ZW622rxyxJP_lFdZ_jT2P4uSx-eojsms3rCXGKXRa0vaNos7fqV354aWS2wkpeGvk-j83N7rllyIr6eu1fkzVet2Vi_T67M01d_bigEDE1M-y_dgO6BmvQXrIXCH4G2FfuQiKKOP_PNBEIhz7LvQ3rqXfYDWqWzzU8CAl70LVSWsxyBm00]--></g></svg>