<svg xmlns="http://www.w3.org/2000/svg" xmlns:xlink="http://www.w3.org/1999/xlink" contentStyleType="text/css" data-diagram-type="MINDMAP" height="314px" preserveAspectRatio="none" style="width:696px;height:314px;" version="1.1" viewBox="0 0 696 314" width="696px" zoomAndPan="magnify"><defs/><g><a href="/use-case/legal-entity-management/" target="_top" title="/use-case/legal-entity-management/" xlink:actuate="onRequest" xlink:href="/use-case/legal-entity-management/" xlink:show="new" xlink:title="/use-case/legal-entity-management/" xlink:type="simple"><text fill="#90EE90" font-family="'Roboto'" font-size="14" lengthAdjust="spacing" textLength="179.7646" x="17" y="161.3311">Legal Entity Management</text></a><a href="/use-case/legal-entity-management/identification-and-registration/" target="_top" title="/use-case/legal-entity-management/identification-and-registration/" xlink:actuate="onRequest" xlink:href="/use-case/legal-entity-management/identification-and-registration/" xlink:show="new" xlink:title="/use-case/legal-entity-management/identification-and-registration/" xlink:type="simple"><text fill="#90EE90" font-family="'Roboto'" font-size="14" lengthAdjust="spacing" textLength="196.6631" x="262.2148" y="82.4404">Identification &amp; Registration</text></a><polygon fill="#4051B5" points="521.3281,20,521.3281,20.2102,531.8482,19.5857,542.3683,20.1933,552.8883,20.3997,563.4084,19.2866,573.9285,19.9223,584.4486,19.5735,594.9686,19.6165,605.4887,19.9318,616.0088,20,615.9206,19.7871,616.6451,20.4048,617.0598,20.2745,617.6806,20.642,618.3266,21.0703,618.8372,21.1716,618.8108,21.1606,619.0925,21.746,619.296,22.2989,619.5951,22.8914,619.8481,23.4648,620.0088,24,620.204,24,620.2325,29.6594,620.2352,35.3188,620.0937,40.9781,620.1633,46.6375,620.0088,52.2969,620.225,52.3865,619.5524,52.7706,619.7491,53.5148,619.2145,53.9561,619.2359,54.6277,618.8372,55.1253,618.7741,54.9729,618.2628,55.3385,617.8004,55.8223,617.1339,55.8132,616.5879,56.095,616.0088,56.2969,616.0088,56.6355,605.4887,56.7131,594.9686,56.293,584.4486,56.5841,573.9285,55.7245,563.4084,56.5813,552.8883,56.8451,542.3683,56.7414,531.8482,56.9099,521.3281,56.2969,521.2665,56.1481,520.6792,55.8617,520.1175,55.6369,519.6236,55.5758,519.0403,55.2991,518.4997,55.1253,518.7095,55.2122,518.2116,54.5373,517.9254,53.9502,517.8671,53.4574,517.3571,52.7775,517.3281,52.2969,517.1551,52.2969,517.5444,46.6375,517.4733,40.9781,517.573,35.3188,517.2209,29.6594,517.3281,24,517.4264,24.0407,517.7443,23.5096,517.6513,22.8084,518.0015,22.2907,518.3042,21.7533,518.4997,21.1716,518.5828,21.3723,519.0648,20.936,519.6901,20.8454,520.1261,20.2981,520.676,20.0257,521.3281,20" style="stroke:#FF6F00;stroke-width:1.5;"/><a href="/use-case/legal-entity-management/identification-and-registration/legal-form/" target="_top" title="/use-case/legal-entity-management/identification-and-registration/legal-form/" xlink:actuate="onRequest" xlink:href="/use-case/legal-entity-management/identification-and-registration/legal-form/" xlink:show="new" xlink:title="/use-case/legal-entity-management/identification-and-registration/legal-form/" xlink:type="simple"><text fill="#90EE90" font-family="'Roboto'" font-size="14" lengthAdjust="spacing" textLength="78.2305" x="527.3281" y="42.9951">Legal Form</text></a><path d="M467.3281,77.5938 L467.3281,77.7806 L469.3281,77.2255 L471.3281,77.7656 L473.3281,77.949 L475.3281,76.9596 L477.3281,77.5938 L477.3281,77.5938 L477.3085,77.5653 L479.0015,76.2052 L480.7936,74.9883 L482.6546,73.8708 L484.2783,72.4104 L486.2344,71.4304 L486.4588,71.5313 L487.1976,68.6037 L488.5917,65.9707 L490.0657,63.3735 L491.0746,60.5673 L492.3281,57.8711 L492.3558,57.8835 L493.5339,55.1534 L494.838,52.4799 L496.0813,49.7791 L497.4406,47.1303 L498.4219,44.3118 L498.5916,44.557 L500.3749,43.3273 L502.0488,41.9395 L503.8829,40.7832 L505.7245,39.6377 L507.3281,38.1484 L507.3281,37.5074 L509.3281,38.7516 L511.3281,37.8849 L513.3281,38.6229 L515.3281,37.7084 L517.3281,38.1484" fill="none" style="stroke:#FF9900;stroke-width:1;"/><a href="/use-case/legal-entity-management/identification-and-registration/business-registration/" target="_top" title="/use-case/legal-entity-management/identification-and-registration/business-registration/" xlink:actuate="onRequest" xlink:href="/use-case/legal-entity-management/identification-and-registration/business-registration/" xlink:show="new" xlink:title="/use-case/legal-entity-management/identification-and-registration/business-registration/" xlink:type="simple"><text fill="#90EE90" font-family="'Roboto'" font-size="14" lengthAdjust="spacing" textLength="151.2383" x="524.3281" y="84.292">Business Registration</text></a><path d="M467.3281,77.5938 L467.3281,77.7806 L469.3281,77.2255 L471.3281,77.7656 L473.3281,77.949 L475.3281,76.9596 L477.3281,77.5938 L477.3281,77.5938 L477.326,77.5593 L480.3164,77.5897 L483.3176,77.7939 L486.3263,78.119 L489.3092,78.0277 L492.3281,78.5195 L492.3433,78.7651 L495.3109,78.4251 L498.3227,78.8021 L501.34,79.2666 L504.3258,79.2221 L507.3281,79.4453 L507.3281,79.506 L509.3281,79.4169 L511.3281,79.604 L513.3281,79.6579 L515.3281,79.9659 L517.3281,79.4453" fill="none" style="stroke:#FF9900;stroke-width:1;"/><a href="/use-case/legal-entity-management/identification-and-registration/commercial-register/" target="_top" title="/use-case/legal-entity-management/identification-and-registration/commercial-register/" xlink:actuate="onRequest" xlink:href="/use-case/legal-entity-management/identification-and-registration/commercial-register/" xlink:show="new" xlink:title="/use-case/legal-entity-management/identification-and-registration/commercial-register/" xlink:type="simple"><text fill="#90EE90" font-family="'Roboto'" font-size="14" lengthAdjust="spacing" textLength="146.7607" x="524.3281" y="110.5889">Commercial Register</text></a><path d="M467.3281,77.5938 L467.3281,77.7806 L469.3281,77.2255 L471.3281,77.7656 L473.3281,77.949 L475.3281,76.9596 L477.3281,77.5938 L477.3281,77.5938 L477.3128,77.5628 L479.0254,78.3034 L480.8152,79.2002 L482.6585,80.2055 L484.3171,80.8368 L486.2344,81.9919 L486.4426,82.1231 L487.2161,83.7779 L488.5975,85.8155 L490.0531,87.8999 L491.0771,89.7124 L492.3281,91.668 L492.3538,91.6841 L493.5349,93.5956 L494.8328,95.5807 L496.0743,97.5302 L497.4234,99.5475 L498.4219,101.344 L498.5539,101.6114 L500.3368,102.4943 L502.0345,103.2047 L503.8569,104.1676 L505.6851,105.1424 L507.3281,105.7422 L507.3281,105.1011 L509.3281,106.3453 L511.3281,105.4786 L513.3281,106.2167 L515.3281,105.3022 L517.3281,105.7422" fill="none" style="stroke:#FF9900;stroke-width:1;"/><a href="/use-case/legal-entity-management/identification-and-registration/classification/" target="_top" title="/use-case/legal-entity-management/identification-and-registration/classification/" xlink:actuate="onRequest" xlink:href="/use-case/legal-entity-management/identification-and-registration/classification/" xlink:show="new" xlink:title="/use-case/legal-entity-management/identification-and-registration/classification/" xlink:type="simple"><text fill="#90EE90" font-family="'Roboto'" font-size="14" lengthAdjust="spacing" textLength="92.6338" x="524.3281" y="136.8857">Classification</text></a><path d="M467.3281,77.5938 L467.3281,77.7806 L469.3281,77.2255 L471.3281,77.7656 L473.3281,77.949 L475.3281,76.9596 L477.3281,77.5938 L477.3281,77.5938 L477.3043,77.5688 L478.9784,79.1581 L480.7729,80.8733 L482.651,82.6761 L484.2409,84.1772 L486.2344,86.1008 L486.4683,86.177 L487.1868,89.7572 L488.5883,93.5598 L490.0732,97.3896 L491.0731,101.0615 L492.3281,104.8164 L492.357,104.8258 L493.5334,108.5551 L494.8411,112.3272 L496.0854,116.0787 L497.4506,119.8695 L498.4219,123.532 L498.6279,123.7477 L500.4116,125.4517 L502.0625,127.0166 L503.9079,128.7852 L505.7624,130.5633 L507.3281,132.0391 L507.3281,131.398 L509.3281,132.6422 L511.3281,131.7755 L513.3281,132.5136 L515.3281,131.599 L517.3281,132.0391" fill="none" style="stroke:#FF9900;stroke-width:1;"/><path d="M205.2148,156.4844 L205.2148,156.6712 L207.2148,156.1161 L209.2148,156.6562 L211.2148,156.8396 L213.2148,155.8502 L215.2148,156.4844 L215.2148,156.4844 L215.1868,156.4641 L216.8424,153.908 L218.6392,151.4539 L220.534,149.0706 L222.0908,146.4431 L224.1211,144.1577 L224.3595,144.2185 L224.4942,141.5615 L225.325,139.0821 L226.2407,136.6243 L226.6623,134.0404 L227.3438,131.5229 L227.3735,131.5288 L227.904,128.6234 L228.57,125.7448 L229.1707,122.8533 L229.896,119.9864 L230.2148,117.0391 L230.5074,117.0971 L231.0852,114.201 L231.4743,111.2675 L232.1396,108.3888 L232.8179,105.5127 L233.0859,102.5552 L232.7754,102.476 L234.0227,100.1028 L234.2473,97.4687 L235.2494,95.033 L235.4509,92.393 L236.3086,89.9204 L236.2839,89.9026 L238.357,87.6481 L239.8535,84.9771 L241.6903,82.5518 L243.5556,80.1472 L245.2148,77.5938 L245.2148,77.9637 L247.2148,77.5903 L249.2148,77.8491 L251.2148,77.0849 L253.2148,77.8465 L255.2148,77.5938" fill="none" style="stroke:#FF9900;stroke-width:1;"/><a href="/use-case/legal-entity-management/corporate-governance/" target="_top" title="/use-case/legal-entity-management/corporate-governance/" xlink:actuate="onRequest" xlink:href="/use-case/legal-entity-management/corporate-governance/" xlink:show="new" xlink:title="/use-case/legal-entity-management/corporate-governance/" xlink:type="simple"><text fill="#90EE90" font-family="'Roboto'" font-size="14" lengthAdjust="spacing" textLength="159.1406" x="262.2148" y="108.7373">Corporate Governance</text></a><path d="M205.2148,156.4844 L205.2148,156.6712 L207.2148,156.1161 L209.2148,156.6562 L211.2148,156.8396 L213.2148,155.8502 L215.2148,156.4844 L215.2148,156.4844 L215.1914,156.459 L216.8676,154.7015 L218.6618,153.072 L220.5381,151.5314 L222.1315,149.6843 L224.1211,148.2666 L224.3543,148.3452 L225.0744,144.5613 L226.4753,141.0069 L227.9593,137.4805 L228.96,133.7911 L230.2148,130.1875 L230.2436,130.1972 L231.4201,126.5671 L232.7275,122.9812 L233.9718,119.374 L235.3365,115.8074 L236.3086,112.1084 L236.5108,112.3276 L238.2946,110.6867 L239.9478,108.9045 L241.7921,107.3292 L243.6452,105.7636 L245.2148,103.8906 L245.2148,103.2496 L247.2148,104.4937 L249.2148,103.6271 L251.2148,104.3651 L253.2148,103.4506 L255.2148,103.8906" fill="none" style="stroke:#FF9900;stroke-width:1;"/><a href="/use-case/legal-entity-management/ownership-and-capital-structure/" target="_top" title="/use-case/legal-entity-management/ownership-and-capital-structure/" xlink:actuate="onRequest" xlink:href="/use-case/legal-entity-management/ownership-and-capital-structure/" xlink:show="new" xlink:title="/use-case/legal-entity-management/ownership-and-capital-structure/" xlink:type="simple"><text fill="#90EE90" font-family="'Roboto'" font-size="14" lengthAdjust="spacing" textLength="213.4453" x="262.2148" y="163.1826">Ownership &amp; Capital Structure</text></a><path d="M205.2148,156.4844 L205.2148,156.6712 L207.2148,156.1161 L209.2148,156.6562 L211.2148,156.8396 L213.2148,155.8502 L215.2148,156.4844 L215.2148,156.4844 L215.2127,156.4499 L218.2032,156.4803 L221.2043,156.6846 L224.213,157.0096 L227.1959,156.9183 L230.2148,157.4102 L230.23,157.6558 L233.1976,157.3157 L236.2094,157.6927 L239.2267,158.1572 L242.2125,158.1127 L245.2148,158.3359 L245.2148,158.3966 L247.2148,158.3075 L249.2148,158.4946 L251.2148,158.5485 L253.2148,158.8566 L255.2148,158.3359" fill="none" style="stroke:#FF9900;stroke-width:1;"/><a href="/use-case/legal-entity-management/financial-information/" target="_top" title="/use-case/legal-entity-management/financial-information/" xlink:actuate="onRequest" xlink:href="/use-case/legal-entity-management/financial-information/" xlink:show="new" xlink:title="/use-case/legal-entity-management/financial-information/" xlink:type="simple"><text fill="#90EE90" font-family="'Roboto'" font-size="14" lengthAdjust="spacing" textLength="148.0596" x="262.2148" y="189.4795">Financial Information</text></a><path d="M205.2148,156.4844 L205.2148,156.6712 L207.2148,156.1161 L209.2148,156.6562 L211.2148,156.8396 L213.2148,155.8502 L215.2148,156.4844 L215.2148,156.4844 L215.1996,156.4534 L216.9122,157.1941 L218.7019,158.0908 L220.5452,159.0961 L222.2038,159.7274 L224.1211,160.8826 L224.3293,161.0137 L225.1028,162.6685 L226.4842,164.7061 L227.9398,166.7905 L228.9638,168.6031 L230.2148,170.5586 L230.2405,170.5748 L231.4216,172.4862 L232.7195,174.4713 L233.961,176.4208 L235.3101,178.4381 L236.3086,180.2346 L236.4407,180.502 L238.2235,181.3849 L239.9212,182.0954 L241.7436,183.0583 L243.5718,184.033 L245.2148,184.6328 L245.2148,183.9918 L247.2148,185.2359 L249.2148,184.3693 L251.2148,185.1073 L253.2148,184.1928 L255.2148,184.6328" fill="none" style="stroke:#FF9900;stroke-width:1;"/><a href="/use-case/legal-entity-management/lifecycle-and-status/" target="_top" title="/use-case/legal-entity-management/lifecycle-and-status/" xlink:actuate="onRequest" xlink:href="/use-case/legal-entity-management/lifecycle-and-status/" xlink:show="new" xlink:title="/use-case/legal-entity-management/lifecycle-and-status/" xlink:type="simple"><text fill="#90EE90" font-family="'Roboto'" font-size="14" lengthAdjust="spacing" textLength="125.8428" x="262.2148" y="215.7764">Lifecycle &amp; Status</text></a><path d="M205.2148,156.4844 L205.2148,156.6712 L207.2148,156.1161 L209.2148,156.6562 L211.2148,156.8396 L213.2148,155.8502 L215.2148,156.4844 L215.2148,156.4844 L215.191,156.4594 L216.8652,158.0487 L218.6596,159.764 L220.5377,161.5667 L222.1276,163.0678 L224.1211,164.9915 L224.3551,165.0676 L225.0735,168.6478 L226.475,172.4505 L227.9599,176.2802 L228.9598,179.9521 L230.2148,183.707 L230.2437,183.7164 L231.4201,187.4458 L232.7278,191.2178 L233.9722,194.9693 L235.3374,198.7601 L236.3086,202.4226 L236.5146,202.6383 L238.2984,204.3423 L239.9493,205.9073 L241.7947,207.6758 L243.6492,209.454 L245.2148,210.9297 L245.2148,210.2886 L247.2148,211.5328 L249.2148,210.6661 L251.2148,211.4042 L253.2148,210.4897 L255.2148,210.9297" fill="none" style="stroke:#FF9900;stroke-width:1;"/><a href="/use-case/legal-entity-management/contact-and-location-information/" target="_top" title="/use-case/legal-entity-management/contact-and-location-information/" xlink:actuate="onRequest" xlink:href="/use-case/legal-entity-management/contact-and-location-information/" xlink:show="new" xlink:title="/use-case/legal-entity-management/contact-and-location-information/" xlink:type="simple"><text fill="#90EE90" font-family="'Roboto'" font-size="14" lengthAdjust="spacing" textLength="219.4814" x="262.2148" y="242.0732">Contact &amp; Location Information</text></a><path d="M205.2148,156.4844 L205.2148,156.6712 L207.2148,156.1161 L209.2148,156.6562 L211.2148,156.8396 L213.2148,155.8502 L215.2148,156.4844 L215.2148,156.4844 L215.1866,156.4645 L216.8412,158.8982 L218.6381,161.4325 L220.5338,164.0365 L222.0888,166.3999 L224.1211,169.1003 L224.3599,169.1598 L224.4938,171.6189 L225.3249,174.2516 L226.241,176.9056 L226.6622,179.4362 L227.3438,182.0317 L227.3735,182.0375 L227.904,184.9938 L228.5701,187.9763 L229.1707,190.9462 L229.8962,193.9402 L230.2148,196.8555 L230.5076,196.9122 L231.0854,199.8776 L231.4744,202.8065 L232.1398,205.7889 L232.8181,208.7738 L233.0859,211.6792 L232.7749,211.6017 L234.0231,214.3384 L234.2471,216.8199 L235.2497,219.4954 L235.4506,221.9711 L236.3086,224.6106 L236.2837,224.593 L238.3591,227.3239 L239.8534,229.6445 L241.6906,232.2072 L243.5565,234.7902 L245.2148,237.2266 L245.2148,237.5965 L247.2148,237.2231 L249.2148,237.4819 L251.2148,236.7177 L253.2148,237.4794 L255.2148,237.2266" fill="none" style="stroke:#FF9900;stroke-width:1;"/><a href="/use-case/legal-entity-management/compliance-and-documentation/" target="_top" title="/use-case/legal-entity-management/compliance-and-documentation/" xlink:actuate="onRequest" xlink:href="/use-case/legal-entity-management/compliance-and-documentation/" xlink:show="new" xlink:title="/use-case/legal-entity-management/compliance-and-documentation/" xlink:type="simple"><text fill="#90EE90" font-family="'Roboto'" font-size="14" lengthAdjust="spacing" textLength="210.1504" x="262.2148" y="268.3701">Compliance &amp; Documentation</text></a><path d="M205.2148,156.4844 L205.2148,156.6712 L207.2148,156.1161 L209.2148,156.6562 L211.2148,156.8396 L213.2148,155.8502 L215.2148,156.4844 L215.2148,156.4844 L215.1844,156.4681 L216.8288,159.7403 L218.6269,163.0942 L220.5319,166.505 L222.0686,169.7198 L224.1211,173.2092 L224.3629,173.2547 L224.4903,176.5861 L225.3238,180.0502 L226.2434,183.5305 L226.6618,186.9166 L227.3438,190.3522 L227.3738,190.3566 L227.9039,194.2805 L228.5707,198.2244 L229.1716,202.1586 L229.8982,206.1112 L230.2148,210.0039 L230.51,210.047 L231.0878,213.9779 L231.4753,217.8809 L232.1414,221.8247 L232.8205,225.7704 L233.0859,229.6556 L232.7709,229.5964 L234.0268,233.1399 L234.2455,236.4885 L235.2527,239.9852 L235.4478,243.3293 L236.3086,246.7986 L236.2817,246.7843 L238.3808,250.2985 L239.852,253.4783 L241.6937,256.8555 L243.5664,260.2492 L245.2148,263.5234 L245.2148,263.8934 L247.2148,263.52 L249.2148,263.7787 L251.2148,263.0146 L253.2148,263.7762 L255.2148,263.5234" fill="none" style="stroke:#FF9900;stroke-width:1;"/><a href="/use-case/legal-entity-management/supporting-information/" target="_top" title="/use-case/legal-entity-management/supporting-information/" xlink:actuate="onRequest" xlink:href="/use-case/legal-entity-management/supporting-information/" xlink:show="new" xlink:title="/use-case/legal-entity-management/supporting-information/" xlink:type="simple"><text fill="#90EE90" font-family="'Roboto'" font-size="14" lengthAdjust="spacing" textLength="162.7295" x="262.2148" y="294.667">Supporting Information</text></a><path d="M205.2148,156.4844 L205.2148,156.6712 L207.2148,156.1161 L209.2148,156.6562 L211.2148,156.8396 L213.2148,155.8502 L215.2148,156.4844 L215.2148,156.4844 L215.1888,156.4617 L216.0679,157.5059 L217.0784,158.6643 L218.1803,159.9021 L218.9673,160.8662 L220.1953,162.2137 L220.4335,162.2756 L220.7094,165.1641 L221.6806,168.2333 L222.7366,171.3246 L223.299,174.2876 L224.1211,177.3181 L224.151,177.3231 L224.4425,179.3341 L224.8703,181.3677 L225.2323,183.3903 L225.7197,185.4339 L225.7983,187.4095 L226.0938,187.45 L226.4065,189.7031 L226.5286,191.9301 L226.9297,194.1954 L227.3439,196.4625 L227.3438,198.6727 L227.0254,198.6354 L228.2175,203.6038 L228.3613,208.4492 L229.302,213.3881 L229.4221,218.2308 L230.2148,223.1523 L230.1846,223.1488 L231.1164,228.0867 L231.3418,232.9417 L231.984,237.8456 L232.6612,242.7536 L233.0859,247.632 L233.2692,247.6571 L233.3933,249.8844 L233.8306,252.1546 L233.7611,254.3554 L234.4475,256.6598 L234.6313,258.8952 L234.8717,258.9352 L235.1617,260.9459 L235.571,262.9764 L235.4259,264.9148 L235.6872,266.9208 L236.3086,268.9866 L236.0413,268.9171 L237.0684,272.0009 L237.7944,275.0064 L238.9572,278.1254 L239.3741,281.0506 L240.2344,284.091 L240.1193,283.991 L241.307,285.3034 L242.0029,286.1883 L243.0485,287.3772 L244.4364,288.8637 L245.2148,289.8203 L245.2148,290.2076 L247.2148,290.4732 L249.2148,289.5343 L251.2148,290.104 L253.2148,290.3451 L255.2148,289.8203" fill="none" style="stroke:#FF9900;stroke-width:1;"/><!--SRC=[xLXjJniv4Fw-ly9Nf6ihBeLmKBMegWY1K20XA85Afwf2pkuaiTYrjxONZZlTVx_nlcLtyxeXwS69V8Bn-9bdnbwF_HmeJQNs67SywblMBmxq6GToU7BJgfrUtDJRpNQ7XB-DtUszQcylwz8zhhSlZcgTFsA_2IwNjVfvxUGu1HfpQNUEZZlPE6IZtt_VtzvENHhjYwkSG-XYVfQbRXdtgQGUwL7xTY15m9swS8LC7BMaNA47S9rn_lBWWsmoVflr9Hik6mprG09motfD6BVTm06YXq06m45IbwGGYlHnOa_euMyad4OeTuX3vItEr8A8Ev3tacaWzqmF8mns1vmeq9hnWIfMuEhBQVtyuhZR9LLS1k5h9ZWP8gX1qJYnJrq5cHmkgUCW4DdDs3fH_XB9aWyPUtT87N5ll8ieOILShCGrTy8_87R9-1n1dmQk9dzR3S7r1VM0lEe8p5sy2YrH4KVB51gxx2yWrLthdonIJKfnZpWJPqo6qGykraYuJXx9n-Mc0uWvZKqzBEo6t7ws3eN4PEEHp0R44AC8N3Xbu7CRVR48jl1ymN5dOfWb2Kza5zKiyDoTVCqSgccFAbXnk5mCsnM1izO0mdN1Db-7MdcOKPGwEaZXhZ72eO6ayc6D8OwvPdgT0HZN8FlKXZN6wCAF0BWDbzYccCryodK4TZLazYq7fV307Bchs1qPPMVC93S6FO5dncTqB74XFUeMnyRIQR8-OBE1gU2fmqoQuU4v1XvQfoA7enD9XIEZ6lvkrMmjv1m6eSlKM6PqsWVycjHtYQaQDY7yPsFkB_lDI_pWAH-uyEaJTYib-EVFkBvTt7mWD3QmgTrZLNsXkEEAFJj_H6Nemfz8abFtPlMy2vUlDP1N3qg3z_nglNhUQwfrqf2VHwb7R9zVfJFRf1StteXruMASpoAymsxFl-qjbVlinA86ur0r16UHN2UcQcDWYdr5BfehtjTdRwKrP3fx2REjNLCzwQQHF2b7mPFdOKrhoNg1Xl6XBAdamLcuo5AbrXpjDMb53s-YVB1PdzcOPDGYnzuXY_EOcneTNIGs6esF7t6yC9YzMrdMvWtvzeri1GegDdx_MouCg5k1y7PPyIZ7TvY7_ssHfXb8hfsjT81y_svjBWh276F3Kb1pnw_W0xWYOS0KFkIDOOkSvXp8hwIJ6Ov2RQucL3GFt_bUabe3_uv3h2YTNg2OANGXoSFOF2cv5KN6rwS7qcOuERA3tC9tJsAC8uDSSLJpMQNZ633tVwcTOWlf2uI5oi2eBPpYjTza45l9IMej1IlkyS1KG-Q7v6tgCur-c41Wwq1YX7RYW7kl7WtZpJOUBXMgpmmzimACcsqMrwIHcCdfo5mAsCK7XVrWkn3cO0xEGE4UJgn8l1lQIjORkucjGqXNn0kS8rwFF12-6OyldO7HHbnc5Y-CvmWxCFOqK3AAiOwoOwM2gC37lMBak7mUtTHUv7y0U5udOkb1NZjTenZvX6M_fEiigFbbtIS0b53xqdOtfJ5EReCpzBt70iwIysPXZ3DOGi0h5s0XoUuna3D5khB0YyXoosFE4EAM1vqglIqFEKjiMnvrBV9QGcUAi9OmAwsf9GbC4jGIq6bQMi8fewAb5_UYX9PW5TIpdFzSwImDM1JDKlIyNfRva9QIlgQVh6Lso_ZYFrRQ-jcyvcWI_rcPdWAlXGMddypcIHLffLfHmgDaDbDPpzI5gkiKWbQTIQ7-_skXvqNDUL5pNjIS5pNdHSrvkchEfOjlZUjMa-0-KyQX-cvdUsVlNRNQ0qshss-k-It7xHI-yncMNJCFtbflJYwRH8b08dl7V1ccC-3qjzOPlQEa4t3Zjq_QFl2pe_F4WEVg7PE26-RMsTVMoE7zRkMGQNoOIIH2lhQiH8SvvhOmqiy-kRvgL3vOJMpk0IQ_Ju1RTUmbMZxWMFTV]--></g></svg>