<svg xmlns="http://www.w3.org/2000/svg" xmlns:xlink="http://www.w3.org/1999/xlink" contentStyleType="text/css" data-diagram-type="MINDMAP" height="303px" preserveAspectRatio="none" style="width:657px;height:303px;" version="1.1" viewBox="0 0 657 303" width="657px" zoomAndPan="magnify"><defs/><g><a href="/use-case/legal-entity-management/" target="_top" title="/use-case/legal-entity-management/" xlink:actuate="onRequest" xlink:href="/use-case/legal-entity-management/" xlink:show="new" xlink:title="/use-case/legal-entity-management/" xlink:type="simple"><text fill="#4051B5" font-family="'Roboto'" font-size="13" lengthAdjust="spacing" textLength="166.9243" x="17" y="155.1646">Legal Entity Management</text></a><a href="/use-case/legal-entity-management/identification-and-registration/" target="_top" title="/use-case/legal-entity-management/identification-and-registration/" xlink:actuate="onRequest" xlink:href="/use-case/legal-entity-management/identification-and-registration/" xlink:show="new" xlink:title="/use-case/legal-entity-management/identification-and-registration/" xlink:type="simple"><text fill="#4051B5" font-family="'Roboto'" font-size="13" lengthAdjust="spacing" textLength="182.6157" x="249.0566" y="79.7661">Identification &amp; Registration</text></a><polygon fill="#4051B5" points="493.8047,20,493.8047,20.2102,503.6686,19.5857,513.5324,20.1933,523.3963,20.3997,533.2602,19.2866,543.1241,19.9223,552.988,19.5735,562.8518,19.6165,572.7157,19.9318,582.5796,20,582.4914,19.7871,583.2159,20.4048,583.6306,20.2745,584.2514,20.642,584.8974,21.0703,585.408,21.1716,585.3816,21.1606,585.6633,21.746,585.8668,22.2989,586.1659,22.8914,586.4189,23.4648,586.5796,24,586.7748,24,586.8033,29.4266,586.806,34.8531,586.6645,40.2797,586.7341,45.7063,586.5796,51.1328,586.7958,51.2224,586.1232,51.6065,586.3199,52.3507,585.7853,52.792,585.8067,53.4636,585.408,53.9612,585.3449,53.8088,584.8336,54.1745,584.3712,54.6583,583.7047,54.6492,583.1587,54.9309,582.5796,55.1328,582.5796,55.4714,572.7157,55.549,562.8518,55.1289,552.988,55.42,543.1241,54.5604,533.2602,55.4172,523.3963,55.681,513.5324,55.5773,503.6686,55.7458,493.8047,55.1328,493.7431,54.984,493.1558,54.6977,492.5941,54.4728,492.1001,54.4117,491.5169,54.135,490.9763,53.9612,491.1861,54.0482,490.6882,53.3733,490.402,52.7861,490.3436,52.2933,489.8336,51.6134,489.8047,51.1328,489.6316,51.1328,490.021,45.7063,489.9499,40.2797,490.0495,34.8531,489.6974,29.4266,489.8047,24,489.903,24.0407,490.2208,23.5096,490.1278,22.8084,490.4781,22.2907,490.7807,21.7533,490.9763,21.1716,491.0594,21.3723,491.5414,20.936,492.1666,20.8454,492.6027,20.2981,493.1526,20.0257,493.8047,20" style="stroke:#FF6F00;stroke-width:1.5;"/><a href="/use-case/legal-entity-management/identification-and-registration/legal-form/" target="_top" title="/use-case/legal-entity-management/identification-and-registration/legal-form/" xlink:actuate="onRequest" xlink:href="/use-case/legal-entity-management/identification-and-registration/legal-form/" xlink:show="new" xlink:title="/use-case/legal-entity-management/identification-and-registration/legal-form/" xlink:type="simple"><text fill="#4051B5" font-family="'Roboto'" font-size="13" lengthAdjust="spacing" textLength="72.6426" x="499.8047" y="42.0669">Legal Form</text></a><path d="M439.8047,75.2656 L439.8047,75.4525 L441.8047,74.8973 L443.8047,75.4374 L445.8047,75.6209 L447.8047,74.6315 L449.8047,75.2656 L449.8047,75.2656 L449.7856,75.2368 L451.4814,73.9294 L453.2732,72.7673 L455.1317,71.7061 L456.7602,70.2969 L458.7109,69.3751 L458.9336,69.4798 L459.6762,66.6641 L461.0689,64.1541 L462.5409,61.6814 L463.5514,58.9916 L464.8047,56.416 L464.8321,56.4289 L466.0106,53.8182 L467.314,51.2661 L468.5571,48.6858 L469.9153,46.1595 L470.8984,43.4569 L471.063,43.7057 L472.8462,42.5306 L474.5234,41.1951 L476.3558,40.0945 L478.1956,39.0048 L479.8047,37.5664 L479.8047,36.9254 L481.8047,38.1695 L483.8047,37.3028 L485.8047,38.0409 L487.8047,37.1264 L489.8047,37.5664" fill="none" style="stroke:#FF6F00;stroke-width:1;"/><a href="/use-case/legal-entity-management/identification-and-registration/business-registration/" target="_top" title="/use-case/legal-entity-management/identification-and-registration/business-registration/" xlink:actuate="onRequest" xlink:href="/use-case/legal-entity-management/identification-and-registration/business-registration/" xlink:show="new" xlink:title="/use-case/legal-entity-management/identification-and-registration/business-registration/" xlink:type="simple"><text fill="#4051B5" font-family="'Roboto'" font-size="13" lengthAdjust="spacing" textLength="140.4355" x="496.8047" y="82.1997">Business Registration</text></a><path d="M439.8047,75.2656 L439.8047,75.4525 L441.8047,74.8973 L443.8047,75.4374 L445.8047,75.6209 L447.8047,74.6315 L449.8047,75.2656 L449.8047,75.2656 L449.8019,75.2312 L452.7894,75.3201 L455.7909,75.5825 L458.8022,75.9655 L461.7798,75.9328 L464.8047,76.4824 L464.8246,76.7277 L467.782,76.4466 L470.7976,76.8815 L473.8202,77.4038 L476.8016,77.4179 L479.8047,77.6992 L479.8047,77.7599 L481.8047,77.6708 L483.8047,77.8579 L485.8047,77.9118 L487.8047,78.2198 L489.8047,77.6992" fill="none" style="stroke:#FF6F00;stroke-width:1;"/><a href="/use-case/legal-entity-management/identification-and-registration/commercial-register/" target="_top" title="/use-case/legal-entity-management/identification-and-registration/commercial-register/" xlink:actuate="onRequest" xlink:href="/use-case/legal-entity-management/identification-and-registration/commercial-register/" xlink:show="new" xlink:title="/use-case/legal-entity-management/identification-and-registration/commercial-register/" xlink:type="simple"><text fill="#4051B5" font-family="'Roboto'" font-size="13" lengthAdjust="spacing" textLength="136.2778" x="496.8047" y="107.3325">Commercial Register</text></a><path d="M439.8047,75.2656 L439.8047,75.4525 L441.8047,74.8973 L443.8047,75.4374 L445.8047,75.6209 L447.8047,74.6315 L449.8047,75.2656 L449.8047,75.2656 L449.7896,75.2345 L451.5034,75.9564 L453.293,76.8351 L455.1352,77.8227 L456.7959,78.4348 L458.7109,79.5729 L458.9179,79.706 L459.6941,81.3166 L461.0745,83.3157 L462.5287,85.3623 L463.5539,87.133 L464.8047,89.0488 L464.8302,89.0652 L466.0115,90.9363 L467.3089,92.8821 L468.5503,94.7919 L469.8986,96.7704 L470.8984,98.5248 L471.0283,98.7933 L472.8111,99.658 L474.5102,100.3496 L476.3319,101.2946 L478.1593,102.2516 L479.8047,102.832 L479.8047,102.191 L481.8047,103.4352 L483.8047,102.5685 L485.8047,103.3065 L487.8047,102.392 L489.8047,102.832" fill="none" style="stroke:#FF6F00;stroke-width:1;"/><a href="/use-case/legal-entity-management/identification-and-registration/classification/" target="_top" title="/use-case/legal-entity-management/identification-and-registration/classification/" xlink:actuate="onRequest" xlink:href="/use-case/legal-entity-management/identification-and-registration/classification/" xlink:show="new" xlink:title="/use-case/legal-entity-management/identification-and-registration/classification/" xlink:type="simple"><text fill="#4051B5" font-family="'Roboto'" font-size="13" lengthAdjust="spacing" textLength="86.0171" x="496.8047" y="132.4653">Classification</text></a><path d="M439.8047,75.2656 L439.8047,75.4525 L441.8047,74.8973 L443.8047,75.4374 L445.8047,75.6209 L447.8047,74.6315 L449.8047,75.2656 L449.8047,75.2656 L449.7812,75.2403 L451.4573,76.7733 L453.2515,78.4342 L455.1279,80.1839 L456.7211,81.6274 L458.7109,83.4999 L458.9442,83.5783 L459.6642,87.0336 L461.0651,90.718 L462.5491,94.4303 L463.5498,97.98 L464.8047,101.6152 L464.8334,101.6249 L466.01,105.2338 L467.3174,108.8867 L468.5617,112.5183 L469.9264,116.1905 L470.8984,119.7306 L471.1009,119.9496 L472.8846,121.5991 L474.5378,123.1074 L476.3821,124.8224 L478.2353,126.5472 L479.8047,127.9648 L479.8047,127.3238 L481.8047,128.568 L483.8047,127.7013 L485.8047,128.4393 L487.8047,127.5248 L489.8047,127.9648" fill="none" style="stroke:#FF6F00;stroke-width:1;"/><path d="M192.0566,150.6641 L192.0566,150.8509 L194.0566,150.2958 L196.0566,150.8359 L198.0566,151.0193 L200.0566,150.0299 L202.0566,150.6641 L202.0566,150.6641 L202.0291,150.6432 L203.6867,148.1936 L205.4832,145.8489 L207.3762,143.5772 L208.9365,141.054 L210.9629,138.8831 L211.2006,138.9465 L211.3368,136.3957 L212.167,134.0302 L213.082,131.6872 L213.5042,129.2128 L214.1855,126.8075 L214.2152,126.8137 L214.7459,124.0361 L215.4117,121.2866 L216.0123,118.5235 L216.7373,115.7862 L217.0566,112.9648 L217.3487,113.0254 L217.9265,110.2576 L218.3159,107.4508 L218.981,104.7011 L219.6591,101.9541 L219.9277,99.1222 L219.618,99.0395 L220.8636,96.7848 L221.0895,94.258 L222.0906,91.938 L222.2933,89.405 L223.1504,87.0466 L223.1261,87.0283 L225.1946,84.8892 L226.6956,82.3212 L228.5315,80.0063 L230.3954,77.7126 L232.0566,75.2656 L232.0566,75.6356 L234.0566,75.2622 L236.0566,75.5209 L238.0566,74.7568 L240.0566,75.5184 L242.0566,75.2656" fill="none" style="stroke:#FF6F00;stroke-width:1;"/><a href="/use-case/legal-entity-management/corporate-governance/" target="_top" title="/use-case/legal-entity-management/corporate-governance/" xlink:actuate="onRequest" xlink:href="/use-case/legal-entity-management/corporate-governance/" xlink:show="new" xlink:title="/use-case/legal-entity-management/corporate-governance/" xlink:type="simple"><text fill="#4051B5" font-family="'Roboto'" font-size="13" lengthAdjust="spacing" textLength="147.7734" x="249.0566" y="104.8989">Corporate Governance</text></a><path d="M192.0566,150.6641 L192.0566,150.8509 L194.0566,150.2958 L196.0566,150.8359 L198.0566,151.0193 L200.0566,150.0299 L202.0566,150.6641 L202.0566,150.6641 L202.0338,150.6382 L203.7125,148.9511 L205.5064,147.3946 L207.3804,145.9289 L208.9784,144.1504 L210.9629,142.8101 L211.1949,142.8919 L211.9175,139.2611 L213.3175,135.8693 L214.8002,132.5066 L215.8019,128.9743 L217.0566,125.5313 L217.0852,125.5413 L218.262,122.0708 L219.569,118.6461 L220.8131,115.1993 L222.1771,111.7948 L223.1504,108.2524 L223.3477,108.4761 L225.1313,106.9081 L226.7877,105.1957 L228.6304,103.6946 L230.4818,102.2033 L232.0566,100.3984 L232.0566,99.7574 L234.0566,101.0016 L236.0566,100.1349 L238.0566,100.8729 L240.0566,99.9584 L242.0566,100.3984" fill="none" style="stroke:#FF6F00;stroke-width:1;"/><a href="/use-case/legal-entity-management/ownership-and-capital-structure/" target="_top" title="/use-case/legal-entity-management/ownership-and-capital-structure/" xlink:actuate="onRequest" xlink:href="/use-case/legal-entity-management/ownership-and-capital-structure/" xlink:show="new" xlink:title="/use-case/legal-entity-management/ownership-and-capital-structure/" xlink:type="simple"><text fill="#4051B5" font-family="'Roboto'" font-size="13" lengthAdjust="spacing" textLength="198.1992" x="249.0566" y="157.5981">Ownership &amp; Capital Structure</text></a><path d="M192.0566,150.6641 L192.0566,150.8509 L194.0566,150.2958 L196.0566,150.8359 L198.0566,151.0193 L200.0566,150.0299 L202.0566,150.6641 L202.0566,150.6641 L202.0538,150.6296 L205.0413,150.7185 L208.0429,150.9809 L211.0542,151.3639 L214.0318,151.3312 L217.0566,151.8809 L217.0765,152.1261 L220.034,151.845 L223.0495,152.28 L226.0722,152.8023 L229.0536,152.8163 L232.0566,153.0977 L232.0566,153.1583 L234.0566,153.0693 L236.0566,153.2563 L238.0566,153.3102 L240.0566,153.6183 L242.0566,153.0977" fill="none" style="stroke:#FF6F00;stroke-width:1;"/><a href="/use-case/legal-entity-management/financial-information/" target="_top" title="/use-case/legal-entity-management/financial-information/" xlink:actuate="onRequest" xlink:href="/use-case/legal-entity-management/financial-information/" xlink:show="new" xlink:title="/use-case/legal-entity-management/financial-information/" xlink:type="simple"><text fill="#4051B5" font-family="'Roboto'" font-size="13" lengthAdjust="spacing" textLength="137.4839" x="249.0566" y="182.731">Financial Information</text></a><path d="M192.0566,150.6641 L192.0566,150.8509 L194.0566,150.2958 L196.0566,150.8359 L198.0566,151.0193 L200.0566,150.0299 L202.0566,150.6641 L202.0566,150.6641 L202.0416,150.633 L203.7554,151.3549 L205.5449,152.2335 L207.3872,153.2211 L209.0479,153.8332 L210.9629,154.9713 L211.1699,155.1044 L211.946,156.715 L213.3265,158.7142 L214.7806,160.7607 L215.8058,162.5315 L217.0566,164.4473 L217.0821,164.4637 L218.2634,166.3348 L219.5609,168.2806 L220.8023,170.1903 L222.1506,172.1688 L223.1504,173.9232 L223.2802,174.1917 L225.0631,175.0564 L226.7622,175.748 L228.5838,176.6931 L230.4113,177.65 L232.0566,178.2305 L232.0566,177.5894 L234.0566,178.8336 L236.0566,177.9669 L238.0566,178.705 L240.0566,177.7904 L242.0566,178.2305" fill="none" style="stroke:#FF6F00;stroke-width:1;"/><a href="/use-case/legal-entity-management/lifecycle-and-status/" target="_top" title="/use-case/legal-entity-management/lifecycle-and-status/" xlink:actuate="onRequest" xlink:href="/use-case/legal-entity-management/lifecycle-and-status/" xlink:show="new" xlink:title="/use-case/legal-entity-management/lifecycle-and-status/" xlink:type="simple"><text fill="#4051B5" font-family="'Roboto'" font-size="13" lengthAdjust="spacing" textLength="116.854" x="249.0566" y="207.8638">Lifecycle &amp; Status</text></a><path d="M192.0566,150.6641 L192.0566,150.8509 L194.0566,150.2958 L196.0566,150.8359 L198.0566,151.0193 L200.0566,150.0299 L202.0566,150.6641 L202.0566,150.6641 L202.0332,150.6387 L203.7092,152.1717 L205.5034,153.8326 L207.3798,155.5824 L208.973,157.0258 L210.9629,158.8983 L211.1961,158.9768 L211.9161,162.4321 L213.3171,166.1164 L214.8011,169.8287 L215.8018,173.3784 L217.0566,177.0137 L217.0854,177.0233 L218.2619,180.6322 L219.5693,184.2851 L220.8136,187.9168 L222.1784,191.589 L223.1504,195.129 L223.3529,195.348 L225.1366,196.9975 L226.7897,198.5058 L228.634,200.2209 L230.4873,201.9456 L232.0566,203.3633 L232.0566,202.7222 L234.0566,203.9664 L236.0566,203.0997 L238.0566,203.8378 L240.0566,202.9233 L242.0566,203.3633" fill="none" style="stroke:#FF6F00;stroke-width:1;"/><a href="/use-case/legal-entity-management/contact-and-location-information/" target="_top" title="/use-case/legal-entity-management/contact-and-location-information/" xlink:actuate="onRequest" xlink:href="/use-case/legal-entity-management/contact-and-location-information/" xlink:show="new" xlink:title="/use-case/legal-entity-management/contact-and-location-information/" xlink:type="simple"><text fill="#4051B5" font-family="'Roboto'" font-size="13" lengthAdjust="spacing" textLength="203.8042" x="249.0566" y="232.9966">Contact &amp; Location Information</text></a><path d="M192.0566,150.6641 L192.0566,150.8509 L194.0566,150.2958 L196.0566,150.8359 L198.0566,151.0193 L200.0566,150.0299 L202.0566,150.6641 L202.0566,150.6641 L202.0288,150.6437 L203.685,152.9843 L205.4816,155.4279 L207.376,157.9429 L208.9337,160.2115 L210.9629,162.8253 L211.2011,162.8869 L211.3362,165.2483 L212.1669,167.7894 L213.0823,170.3525 L213.5041,172.788 L214.1855,175.2906 L214.2153,175.2966 L214.7458,178.1457 L215.4118,181.022 L216.0124,183.8852 L216.7376,186.7735 L217.0566,189.5801 L217.349,189.6388 L217.9268,192.4974 L218.316,195.3182 L218.9813,198.1943 L219.6595,201.0731 L219.9277,203.8696 L219.6174,203.7893 L220.8642,206.4381 L221.0892,208.8227 L222.091,211.4081 L222.2929,213.7867 L223.1504,216.3348 L223.1258,216.3169 L225.1976,218.9618 L226.6954,221.1865 L228.5319,223.6592 L230.3968,226.1528 L232.0566,228.4961 L232.0566,228.8661 L234.0566,228.4926 L236.0566,228.7514 L238.0566,227.9873 L240.0566,228.7489 L242.0566,228.4961" fill="none" style="stroke:#FF6F00;stroke-width:1;"/><a href="/use-case/legal-entity-management/compliance-and-documentation/" target="_top" title="/use-case/legal-entity-management/compliance-and-documentation/" xlink:actuate="onRequest" xlink:href="/use-case/legal-entity-management/compliance-and-documentation/" xlink:show="new" xlink:title="/use-case/legal-entity-management/compliance-and-documentation/" xlink:type="simple"><text fill="#4051B5" font-family="'Roboto'" font-size="13" lengthAdjust="spacing" textLength="195.1396" x="249.0566" y="258.1294">Compliance &amp; Documentation</text></a><path d="M192.0566,150.6641 L192.0566,150.8509 L194.0566,150.2958 L196.0566,150.8359 L198.0566,151.0193 L200.0566,150.0299 L202.0566,150.6641 L202.0566,150.6641 L202.0264,150.6473 L203.6721,153.7899 L205.47,157.0168 L207.3739,160.3023 L208.9128,163.3858 L210.9629,166.7523 L211.2044,166.7995 L211.3325,169.9967 L212.1657,173.3316 L213.0849,176.6834 L213.5036,179.9374 L214.1855,183.2428 L214.2155,183.2473 L214.7457,187.0214 L215.4124,190.8162 L216.0133,194.601 L216.7398,198.4048 L217.0566,202.1465 L217.3515,202.1913 L217.9293,205.9726 L218.317,209.725 L218.983,213.5196 L219.6621,217.3163 L219.9277,221.0502 L219.6132,220.9887 L220.8682,224.4061 L221.0875,227.6211 L222.0942,230.99 L222.2899,234.2004 L223.1504,237.5406 L223.1238,237.5259 L225.22,240.9179 L226.6939,243.9655 L228.5351,247.2163 L230.4071,250.4841 L232.0566,253.6289 L232.0566,253.9989 L234.0566,253.6254 L236.0566,253.8842 L238.0566,253.1201 L240.0566,253.8817 L242.0566,253.6289" fill="none" style="stroke:#FF6F00;stroke-width:1;"/><a href="/use-case/legal-entity-management/supporting-information/" target="_top" title="/use-case/legal-entity-management/supporting-information/" xlink:actuate="onRequest" xlink:href="/use-case/legal-entity-management/supporting-information/" xlink:show="new" xlink:title="/use-case/legal-entity-management/supporting-information/" xlink:type="simple"><text fill="#4051B5" font-family="'Roboto'" font-size="13" lengthAdjust="spacing" textLength="151.106" x="249.0566" y="283.2622">Supporting Information</text></a><path d="M192.0566,150.6641 L192.0566,150.8509 L194.0566,150.2958 L196.0566,150.8359 L198.0566,151.0193 L200.0566,150.0299 L202.0566,150.6641 L202.0566,150.6641 L202.031,150.6409 L202.9122,151.6377 L203.9224,152.7514 L205.0225,153.9463 L205.8132,154.8613 L207.0371,156.1683 L207.2746,156.2325 L207.5519,158.9973 L208.5226,161.9497 L209.5779,164.925 L210.1409,167.7672 L210.9629,170.6793 L210.9928,170.6845 L211.2843,172.6159 L211.712,174.5708 L212.074,176.5144 L212.5612,178.4796 L212.6401,180.3742 L212.9354,180.4164 L213.2481,182.581 L213.3703,184.7185 L213.7714,186.8958 L214.1854,189.0749 L214.1855,191.195 L213.8674,191.1561 L215.0591,195.9351 L215.2032,200.5862 L216.1437,205.3345 L216.264,209.9826 L217.0566,214.7129 L217.0264,214.7092 L217.958,219.4564 L218.1836,224.1174 L218.8258,228.8293 L219.5029,233.5455 L219.9277,238.2308 L220.1109,238.257 L220.2351,240.3947 L220.6723,242.5772 L220.6031,244.6873 L221.2892,246.9053 L221.4731,249.0516 L221.7132,249.0931 L222.0033,251.0242 L222.4125,252.976 L222.2679,254.8319 L222.5293,256.7581 L223.1504,258.7465 L222.8838,258.6743 L223.9103,261.6418 L224.6364,264.5281 L225.7982,267.5322 L226.2161,270.335 L227.0762,273.2575 L226.9631,273.1552 L228.1475,274.4264 L228.8486,275.2604 L229.8934,276.4052 L231.2744,277.8544 L232.0566,278.7617 L232.0566,279.149 L234.0566,279.4146 L236.0566,278.4757 L238.0566,279.0454 L240.0566,279.2865 L242.0566,278.7617" fill="none" style="stroke:#FF6F00;stroke-width:1;"/><!--SRC=[xLZ_Jziu5FyzVuLlIBTDMmTbR9gcQQAKBmCAHItiT9ecv2PkQv7OcUt0SQVxt-yvYTCaJTAcfBiXqP_W-VdpljZnU- -pAnKMogFCyR1lMRyvP4mPGNj7rsUTu_FhRh_N7w3mjx6pzQuzUfTM6Hvq- -VxdS6ViLw1oaMdUzevEaY0vbJwW_s3GTeEsXYFtu-tjXALm_xvPKOXLD6_HAKp6FJ_oEeO54lUKEPZWJqqmlRDHF20ELtkSe4sbC1CmXfXAgNsvTudmgNi9jQAFRQU8yfiDt08KbE29eGHWLsKx9De3DeZhgQlaKidKuKmSv23nGtiL1pnMoBk15K4tL4rZJ3eBM584gKecyXyJYw_77TFpm-6GzI6W-6-efoXAO1g50KRnzYL9ENu1NOS048xATaW2bU0i-X3IZwSOeVVQUqyIXB-5NF2FqYiajBP9sCSk0hzOnrofiwnHz2p0OVO-RDG4cLkTd2XS4Z_9gYzO_sRHke8mUy0ft17COowTo57t7MoI3wSBfwGsAUvhNkvmy_SS6kF2mWsNabTIJ0niy2uKmS-S_MNis1pp-SChYEOMT7XGk-Yd0MUkvtDcOCL7c596ZQNiM6xF73MQe2xBh7rro4RDpEpqWK5mTqrMjZJa5ZShz740LDKhTC0POg8CRR96cqCoO-0C9jSGE6YDlKnKn7OvPJQDun82G_cJ5t6wk1HUaUbStFG1NwcT6RF4kF2msv-RIwS7XsJ7hoifU29GgMRuUCv1nvAIv73rKAdmfLP3jzQ7LjniS23KANKbbuj-u2Ve-uEqbc38WJ_R2pyfRzv0HyyPXENVFe4rKfozlapdEyGBX_X2WfOQVLegYxaRro-PcUVg9Ixv2zmac7tkdc_S-tO6foNzr8Hx_7bkdc_rvHhKv0VHwfdtZw-JAUkoIWkl97NkSOu6qNOmsujxlPMYhqwiAZ0E5XEYRDCh8MXsc0OGrqHoyOA_NhrLLf3fDL7M7iCCGFSBAQtKVtfmqGcAFJqJeoZ1xXu50wRVObQo0kaqdqvGNWCeHgRkR4WPIqUJKjddDIiMkPakfMO9IFNkyFWhXQtMSMLNYb1Hu4YvNt0lAyL0qocsyTIhkPLbO7dw2m-5-aJcuwf3V67hGCSqTrKJzKAtY3eFwK-qF3mNgEH6n0uEyQ8RaGaue7Io_CZNSFUpl1njgU2GTvwTOs-VKERWIGj6zxEJPTCiDiYOMVUyZ236TQ3_pPHJo-OblqiMK3VlrklbWM1Q446wS9wFcfXvhG4cL2fH2ZOHCSP1VGx6gIM8rElcZ4LxODFp3EX7SBViOc6mXa5akf4vuBSYyL5mJLa6Lu8ZmYRmkP8JiGcp8n665k6zwDPg_fhIzR1OER_MZV5viBd04jQ4yrKCGmZauuWbgAZH5eBbjz1iP5JweVEszYd2lGWWC1MWG0BVQC0TwyRBSDK42_NCZMcsZrz0fJfQnRdvD28qV5CN0lOXM7ClhTT4iQWtzr0mXqsKd1y6CfgvXigiQr2I9V71vnnl1jf07mlNbyv0iqhkLGVNcZFuNQWvOaXimgszjDhjOp8m8UxegdCR1p3H9xtVvV0cswevzqi4zqSR_iBCwIcMLYI7ash5m3K84RDldpXCqbBLpV3f5TIeGy5h68-gp3cFLY1wwndO2bsyo6GbNncNU1b6CpLCIiuozL1IrdArI6hUCdLKTV2H1ftIZX8urbj-j44KCGz6j0osj7ub1eD3DmSssYmSaHZHdyXovWOpFEB2NgMManzI2knXEKlQvtRCd_u3sK1VxPV2-YR_orDlu9VItDpFzcRNof9ZT9gne-QqPHwNKcXjTV9cJKTIIx_JN5YAvDQ1VMoCK8hZPIh9VCyLgRC56Kktu8kmLsLEx0GieHVUW3Y4wFqn2WzCKfFZD8JexIGKRfmOG2wEkiXk6TIAxJVR6zjltlJRe-8mksj5rViXi5r2ia72cbNr2ClhHT75pqaUI30UqT_6Rh4mFQNrWc-nMWGCAtt4VLzmaxsJuq0tjLRAZZJdbidNyzc2kztMdjKmRGem17qzSmoDVg0sLppKH_HrULXwuFLWuuZWE0_8iAWi0Akk8UruNy0]--></g></svg>