<svg xmlns="http://www.w3.org/2000/svg" xmlns:xlink="http://www.w3.org/1999/xlink" contentStyleType="text/css" data-diagram-type="MINDMAP" height="253px" preserveAspectRatio="none" style="width:532px;height:253px;" version="1.1" viewBox="0 0 532 253" width="532px" zoomAndPan="magnify"><defs/><g><a href="/use-case/legal-entity-management/" target="_top" title="/use-case/legal-entity-management/" xlink:actuate="onRequest" xlink:href="/use-case/legal-entity-management/" xlink:show="new" xlink:title="/use-case/legal-entity-management/" xlink:type="simple"><text fill="#4051B5" font-family="'Roboto'" font-size="13" lengthAdjust="spacing" textLength="166.9243" x="17" y="130.0317">Legal Entity Management</text></a><a href="/use-case/legal-entity-management/identification-and-registration/" target="_top" title="/use-case/legal-entity-management/identification-and-registration/" xlink:actuate="onRequest" xlink:href="/use-case/legal-entity-management/identification-and-registration/" xlink:show="new" xlink:title="/use-case/legal-entity-management/identification-and-registration/" xlink:type="simple"><text fill="#4051B5" font-family="'Roboto'" font-size="13" lengthAdjust="spacing" textLength="182.6157" x="249.0566" y="27.0669">Identification &amp; Registration</text></a><path d="M192.0566,125.5313 L192.0566,125.7181 L194.0566,125.163 L196.0566,125.7031 L198.0566,125.8865 L200.0566,124.8971 L202.0566,125.5313 L202.0566,125.5313 L202.0264,125.5145 L203.6721,122.2218 L205.47,119.0134 L207.3739,115.8636 L208.9128,112.5118 L210.9629,109.443 L211.2044,109.4902 L211.3325,106.0912 L212.1657,102.8299 L213.0849,99.5855 L213.5036,96.2433 L214.1855,92.9525 L214.2155,92.9571 L214.7457,89.1697 L215.4124,85.403 L216.0133,81.6263 L216.7398,77.8687 L217.0566,74.0488 L217.3515,74.0936 L217.9293,70.3134 L218.317,66.5043 L218.983,62.7375 L219.6621,58.9727 L219.9277,55.1451 L219.6132,55.0837 L220.8682,51.9049 L221.0875,48.5237 L222.0942,45.2964 L222.2899,41.9106 L223.1504,38.6547 L223.1238,38.6399 L225.22,35.5966 L226.6939,32.2089 L228.5351,29.0244 L230.4071,25.8569 L232.0566,22.5664 L232.0566,22.9364 L234.0566,22.5629 L236.0566,22.8217 L238.0566,22.0576 L240.0566,22.8192 L242.0566,22.5664" fill="none" style="stroke:#FF6F00;stroke-width:1;"/><a href="/use-case/legal-entity-management/corporate-governance/" target="_top" title="/use-case/legal-entity-management/corporate-governance/" xlink:actuate="onRequest" xlink:href="/use-case/legal-entity-management/corporate-governance/" xlink:show="new" xlink:title="/use-case/legal-entity-management/corporate-governance/" xlink:type="simple"><text fill="#4051B5" font-family="'Roboto'" font-size="13" lengthAdjust="spacing" textLength="147.7734" x="249.0566" y="52.1997">Corporate Governance</text></a><path d="M192.0566,125.5313 L192.0566,125.7181 L194.0566,125.163 L196.0566,125.7031 L198.0566,125.8865 L200.0566,124.8971 L202.0566,125.5313 L202.0566,125.5313 L202.0288,125.5108 L203.685,122.987 L205.4816,120.566 L207.376,118.2166 L208.9337,115.6207 L210.9629,113.37 L211.2011,113.4316 L211.3362,110.8068 L212.1669,108.3619 L213.0823,105.9389 L213.5041,103.3882 L214.1855,100.9047 L214.2153,100.9107 L214.7458,98.044 L215.4118,95.2045 L216.0124,92.352 L216.7376,89.5244 L217.0566,86.6152 L217.349,86.674 L217.9268,83.8168 L218.316,80.9217 L218.9813,78.0821 L219.6595,75.2451 L219.9277,72.3258 L219.6174,72.2455 L220.8642,69.9082 L221.0892,67.3067 L222.091,64.906 L222.2929,62.2985 L223.1504,59.8605 L223.1258,59.8425 L225.1976,57.623 L226.6954,54.9832 L228.5319,52.5914 L230.3968,50.2204 L232.0566,47.6992 L232.0566,48.0692 L234.0566,47.6957 L236.0566,47.9545 L238.0566,47.1904 L240.0566,47.952 L242.0566,47.6992" fill="none" style="stroke:#FF6F00;stroke-width:1;"/><a href="/use-case/legal-entity-management/ownership-and-capital-structure/" target="_top" title="/use-case/legal-entity-management/ownership-and-capital-structure/" xlink:actuate="onRequest" xlink:href="/use-case/legal-entity-management/ownership-and-capital-structure/" xlink:show="new" xlink:title="/use-case/legal-entity-management/ownership-and-capital-structure/" xlink:type="simple"><text fill="#4051B5" font-family="'Roboto'" font-size="13" lengthAdjust="spacing" textLength="198.1992" x="249.0566" y="77.3325">Ownership &amp; Capital Structure</text></a><path d="M192.0566,125.5313 L192.0566,125.7181 L194.0566,125.163 L196.0566,125.7031 L198.0566,125.8865 L200.0566,124.8971 L202.0566,125.5313 L202.0566,125.5313 L202.0332,125.5059 L203.7092,123.7452 L205.5034,122.1124 L207.3798,120.5685 L208.973,118.7182 L210.9629,117.297 L211.1961,117.3754 L211.9161,113.5846 L213.3171,110.0228 L214.8011,106.489 L215.8018,102.7926 L217.0566,99.1816 L217.0854,99.1913 L218.2619,95.554 L219.5693,91.9608 L220.8136,88.3463 L222.1784,84.7723 L223.1504,81.0663 L223.3529,81.2853 L225.1366,79.6411 L226.7897,77.8557 L228.634,76.277 L230.4873,74.708 L232.0566,72.832 L232.0566,72.191 L234.0566,73.4352 L236.0566,72.5685 L238.0566,73.3065 L240.0566,72.392 L242.0566,72.832" fill="none" style="stroke:#FF6F00;stroke-width:1;"/><a href="/use-case/legal-entity-management/financial-information/" target="_top" title="/use-case/legal-entity-management/financial-information/" xlink:actuate="onRequest" xlink:href="/use-case/legal-entity-management/financial-information/" xlink:show="new" xlink:title="/use-case/legal-entity-management/financial-information/" xlink:type="simple"><text fill="#4051B5" font-family="'Roboto'" font-size="13" lengthAdjust="spacing" textLength="137.4839" x="249.0566" y="102.4653">Financial Information</text></a><path d="M192.0566,125.5313 L192.0566,125.7181 L194.0566,125.163 L196.0566,125.7031 L198.0566,125.8865 L200.0566,124.8971 L202.0566,125.5313 L202.0566,125.5313 L202.0416,125.5002 L203.7554,124.4992 L205.5449,123.6549 L207.3872,122.9196 L209.0479,121.8088 L210.9629,121.224 L211.1699,121.3571 L211.946,119.1773 L213.3265,117.3861 L214.7806,115.6423 L215.8058,113.6226 L217.0566,111.748 L217.0821,111.7645 L218.2634,109.8452 L219.5609,108.0006 L220.8023,106.12 L222.1506,104.3081 L223.1504,102.2721 L223.2802,102.5406 L225.0631,101.6824 L226.7622,100.6511 L228.5838,99.8732 L230.4113,99.1073 L232.0566,97.9648 L232.0566,97.3238 L234.0566,98.568 L236.0566,97.7013 L238.0566,98.4393 L240.0566,97.5248 L242.0566,97.9648" fill="none" style="stroke:#FF6F00;stroke-width:1;"/><polygon fill="#4051B5" points="246.0566,120.5313,246.0566,120.7414,256.2864,120.1169,266.5161,120.7245,276.7458,120.9309,286.9755,119.8179,297.2052,120.4535,307.4349,120.1048,317.6647,120.1478,327.8944,120.4631,338.1241,119.8399,348.3538,121.0849,358.5835,119.901,368.8133,120.3335,379.043,120.5313,379.0981,120.6643,379.5977,120.7391,380.183,121.0209,380.7359,121.2244,381.3285,121.5235,381.8714,121.7028,381.945,121.7333,382.2861,122.3432,382.5467,122.9198,382.7835,123.4865,382.8871,123.998,383.043,124.5313,383.1975,124.5313,383.277,129.9578,382.8026,135.3844,383.2691,140.8109,382.9441,146.2375,383.043,151.6641,383.2074,151.7322,382.6562,152.1666,382.5532,152.7867,382.5684,153.4557,382.0907,153.9206,381.8714,154.4925,381.8848,154.5249,381.3489,154.8311,380.7931,155.0893,380.1738,155.1942,379.6453,155.5182,379.043,155.6641,379.043,155.0916,368.8133,155.9484,358.5835,156.2123,348.3538,156.1086,338.1241,156.2771,327.8944,155.181,317.6647,155.0119,307.4349,155.0427,297.2052,155.6052,286.9755,155.4675,276.7458,156.3455,266.5161,155.4894,256.2864,155.321,246.0566,155.6641,246.0858,155.7344,245.4059,155.2244,244.859,155.0356,244.4424,155.161,243.8495,154.861,243.2282,154.4925,243.4544,154.5862,242.8948,153.8858,242.8579,153.4018,242.7071,152.8707,242.1455,152.1695,242.0566,151.6641,242.0247,151.6641,242.0986,146.2375,242.2739,140.8109,242.0552,135.3844,242.2108,129.9578,242.0566,124.5313,241.8861,124.4606,242.0824,123.8792,242.6804,123.4641,242.5388,122.7427,243.1506,122.3334,243.2282,121.7028,243.2546,121.7665,243.7597,121.386,244.3145,121.1252,244.9838,121.1412,245.4528,120.6734,246.0566,120.5313" style="stroke:#FF6F00;stroke-width:1.5;"/><a href="/use-case/legal-entity-management/lifecycle-and-status/" target="_top" title="/use-case/legal-entity-management/lifecycle-and-status/" xlink:actuate="onRequest" xlink:href="/use-case/legal-entity-management/lifecycle-and-status/" xlink:show="new" xlink:title="/use-case/legal-entity-management/lifecycle-and-status/" xlink:type="simple"><text fill="#4051B5" font-family="'Roboto'" font-size="13" lengthAdjust="spacing" textLength="116.854" x="252.0566" y="142.5981">Lifecycle &amp; Status</text></a><a href="/use-case/legal-entity-management/lifecycle-and-status/dissolution/" target="_top" title="/use-case/legal-entity-management/lifecycle-and-status/dissolution/" xlink:actuate="onRequest" xlink:href="/use-case/legal-entity-management/lifecycle-and-status/dissolution/" xlink:show="new" xlink:title="/use-case/legal-entity-management/lifecycle-and-status/dissolution/" xlink:type="simple"><text fill="#4051B5" font-family="'Roboto'" font-size="13" lengthAdjust="spacing" textLength="71.8745" x="440.043" y="130.0317">Dissolution</text></a><path d="M383.043,138.0977 L383.043,138.2845 L385.043,137.7294 L387.043,138.2695 L389.043,138.4529 L391.043,137.4635 L393.043,138.0977 L393.043,138.0977 L393.0296,138.0658 L395.9697,136.6662 L398.9771,135.4272 L402.0313,134.2998 L404.9243,132.7877 L408.043,131.8145 L408.138,132.0414 L410.9347,130.2994 L414.009,129.2201 L417.1171,128.2216 L420.0282,126.7527 L423.043,125.5313 L423.043,125.5919 L425.043,125.5029 L427.043,125.6899 L429.043,125.7438 L431.043,126.0519 L433.043,125.5313" fill="none" style="stroke:#FF6F00;stroke-width:1;"/><a href="/use-case/legal-entity-management/lifecycle-and-status/liquidation/" target="_top" title="/use-case/legal-entity-management/lifecycle-and-status/liquidation/" xlink:actuate="onRequest" xlink:href="/use-case/legal-entity-management/lifecycle-and-status/liquidation/" xlink:show="new" xlink:title="/use-case/legal-entity-management/lifecycle-and-status/liquidation/" xlink:type="simple"><text fill="#4051B5" font-family="'Roboto'" font-size="13" lengthAdjust="spacing" textLength="72.0776" x="440.043" y="155.1646">Liquidation</text></a><path d="M383.043,138.0977 L383.043,138.2845 L385.043,137.7294 L387.043,138.2695 L389.043,138.4529 L391.043,137.4635 L393.043,138.0977 L393.043,138.0977 L393.0296,138.0658 L395.9697,139.1795 L398.9771,140.4537 L402.0313,141.8396 L404.9243,142.8408 L408.043,144.3809 L408.138,144.6078 L410.9347,145.3791 L414.009,146.8131 L417.1171,148.3279 L420.0282,149.3723 L423.043,150.6641 L423.043,150.7247 L425.043,150.6357 L427.043,150.8228 L429.043,150.8766 L431.043,151.1847 L433.043,150.6641" fill="none" style="stroke:#FF6F00;stroke-width:1;"/><path d="M192.0566,125.5313 L192.0566,125.7181 L194.0566,125.163 L196.0566,125.7031 L198.0566,125.8865 L200.0566,124.8971 L202.0566,125.5313 L202.0566,125.5313 L202.0433,125.4994 L204.9834,126.6131 L207.9908,127.8873 L211.0449,129.2732 L213.9379,130.2744 L217.0566,131.8145 L217.1517,132.0414 L219.9484,132.8127 L223.0227,134.2467 L226.1308,135.7614 L229.0419,136.8059 L232.0566,138.0977 L232.0566,138.1583 L234.0566,138.0693 L236.0566,138.2563 L238.0566,138.3102 L240.0566,138.6183 L242.0566,138.0977" fill="none" style="stroke:#FF6F00;stroke-width:1;"/><a href="/use-case/legal-entity-management/contact-and-location-information/" target="_top" title="/use-case/legal-entity-management/contact-and-location-information/" xlink:actuate="onRequest" xlink:href="/use-case/legal-entity-management/contact-and-location-information/" xlink:show="new" xlink:title="/use-case/legal-entity-management/contact-and-location-information/" xlink:type="simple"><text fill="#4051B5" font-family="'Roboto'" font-size="13" lengthAdjust="spacing" textLength="203.8042" x="249.0566" y="182.731">Contact &amp; Location Information</text></a><path d="M192.0566,125.5313 L192.0566,125.7181 L194.0566,125.163 L196.0566,125.7031 L198.0566,125.8865 L200.0566,124.8971 L202.0566,125.5313 L202.0566,125.5313 L202.0332,125.5059 L203.7092,127.0389 L205.5034,128.6998 L207.3798,130.4496 L208.973,131.893 L210.9629,133.7655 L211.1961,133.844 L211.9161,137.2993 L213.3171,140.9836 L214.8011,144.6959 L215.8018,148.2456 L217.0566,151.8809 L217.0854,151.8905 L218.2619,155.4994 L219.5693,159.1523 L220.8136,162.784 L222.1784,166.4561 L223.1504,169.9962 L223.3529,170.2152 L225.1366,171.8647 L226.7897,173.373 L228.634,175.0881 L230.4873,176.8128 L232.0566,178.2305 L232.0566,177.5894 L234.0566,178.8336 L236.0566,177.9669 L238.0566,178.705 L240.0566,177.7904 L242.0566,178.2305" fill="none" style="stroke:#FF6F00;stroke-width:1;"/><a href="/use-case/legal-entity-management/compliance-and-documentation/" target="_top" title="/use-case/legal-entity-management/compliance-and-documentation/" xlink:actuate="onRequest" xlink:href="/use-case/legal-entity-management/compliance-and-documentation/" xlink:show="new" xlink:title="/use-case/legal-entity-management/compliance-and-documentation/" xlink:type="simple"><text fill="#4051B5" font-family="'Roboto'" font-size="13" lengthAdjust="spacing" textLength="195.1396" x="249.0566" y="207.8638">Compliance &amp; Documentation</text></a><path d="M192.0566,125.5313 L192.0566,125.7181 L194.0566,125.163 L196.0566,125.7031 L198.0566,125.8865 L200.0566,124.8971 L202.0566,125.5313 L202.0566,125.5313 L202.0288,125.5108 L203.685,127.8515 L205.4816,130.295 L207.376,132.8101 L208.9337,135.0787 L210.9629,137.6925 L211.2011,137.7541 L211.3362,140.1154 L212.1669,142.6566 L213.0823,145.2197 L213.5041,147.6552 L214.1855,150.1578 L214.2153,150.1638 L214.7458,153.0129 L215.4118,155.8892 L216.0124,158.7524 L216.7376,161.6406 L217.0566,164.4473 L217.349,164.506 L217.9268,167.3646 L218.316,170.1853 L218.9813,173.0615 L219.6595,175.9403 L219.9277,178.7367 L219.6174,178.6565 L220.8642,181.3053 L221.0892,183.6899 L222.091,186.2753 L222.2929,188.6539 L223.1504,191.202 L223.1258,191.184 L225.1976,193.829 L226.6954,196.0537 L228.5319,198.5264 L230.3968,201.02 L232.0566,203.3633 L232.0566,203.7333 L234.0566,203.3598 L236.0566,203.6186 L238.0566,202.8545 L240.0566,203.6161 L242.0566,203.3633" fill="none" style="stroke:#FF6F00;stroke-width:1;"/><a href="/use-case/legal-entity-management/supporting-information/" target="_top" title="/use-case/legal-entity-management/supporting-information/" xlink:actuate="onRequest" xlink:href="/use-case/legal-entity-management/supporting-information/" xlink:show="new" xlink:title="/use-case/legal-entity-management/supporting-information/" xlink:type="simple"><text fill="#4051B5" font-family="'Roboto'" font-size="13" lengthAdjust="spacing" textLength="151.106" x="249.0566" y="232.9966">Supporting Information</text></a><path d="M192.0566,125.5313 L192.0566,125.7181 L194.0566,125.163 L196.0566,125.7031 L198.0566,125.8865 L200.0566,124.8971 L202.0566,125.5313 L202.0566,125.5313 L202.0264,125.5145 L203.6721,128.6571 L205.47,131.884 L207.3739,135.1695 L208.9128,138.253 L210.9629,141.6195 L211.2044,141.6667 L211.3325,144.8639 L212.1657,148.1988 L213.0849,151.5506 L213.5036,154.8046 L214.1855,158.11 L214.2155,158.1145 L214.7457,161.8886 L215.4124,165.6834 L216.0133,169.4682 L216.7398,173.272 L217.0566,177.0137 L217.3515,177.0585 L217.9293,180.8397 L218.317,184.5921 L218.983,188.3868 L219.6621,192.1835 L219.9277,195.9174 L219.6132,195.8559 L220.8682,199.2733 L221.0875,202.4883 L222.0942,205.8572 L222.2899,209.0675 L223.1504,212.4078 L223.1238,212.3931 L225.22,215.7851 L226.6939,218.8326 L228.5351,222.0835 L230.4071,225.3513 L232.0566,228.4961 L232.0566,228.8661 L234.0566,228.4926 L236.0566,228.7514 L238.0566,227.9873 L240.0566,228.7489 L242.0566,228.4961" fill="none" style="stroke:#FF6F00;stroke-width:1;"/><!--SRC=[xLXhJniv5Fq-ly9Rf6shDeLGg2fKLOJmA6qWA86kLbM5d1bFOk6nfxO7bbtjVz_hUMGUcPbaGjAb4dmYzfrppxr-tEkphpIMsgFSyR1lMRyvnAMSe8EJwxFEwVbrjz_h3r3ujx6pjTiUxMPDXaVT_lbXP_1dR5TYSj7fVkcS74s1PapwWyEZGTOFsd3TT-xMrjJak7z-cJC8JSpVrAGp6FJ_oDiaA9QweTp74djeXEsRiHG1Txg22OasjCHSmHpXEcFswTudab5-4rl5ZAtdY7AR1Gv1UaBGc70YCKFJxnHomNeazEGrOdGyqGXp1pbOti2NMY1nI-ITf9gWEwed4GQz9HmfeZNbOrNCoUMdq-wNywFX4BLXOOIlgU1e0g06HSE7BcQAP8XVOCS18BIJ6Hj4uKeWYzvdneSJx8WxOrr4cOP_nPtm7nARP6mEYOi3fj4_rh7W-Xnx13qR28XTF0j7eiob2nSE3kdV1BLth7-pI1qfnHtWb7vH3gFl6UH8C2UFvCFguZ69ESryUb1O_DmEjmw4X63ZcSoM11Uf1owS9l2vhR-O1rjulk2m7S7DaeHBsKKv2posdS-PWpKUOKLMx2xdmsOYSDRgG316R7CwrChTf5wwO205MwE70mE9vVqQNHnnJVKw7L2kYNInJTReOqX-18JRv08A5xMfZxcEm2udrBxXH2cuC5Dp5Pi3e-mNjUHce4juPcpIQuaBwM5Md9i9fqTTqeERjH9yQb1BCxmyPy33qKhaSBQKL3YJvl2jrR6ra7COX2QLlinirG5-Zhexo6GDYX3ys9Zxbptp4WuyvcD6Fdo0QgK4__WHrdS8cuy83GMiidgigYuKTronPkUlg0nTyXUGv9XThvvteHrR0tbrhpJnVhrShvxtcdAT5EHV8zKfsrylqvbjCeeBRyIwq1ZdemXxsAtvtTvIiTS75XKO1wi9SHQ9jJHK6nnZg2joqLYXNw_VIck8j7u96pz3aWTS6jFRgFxquKKcAVJqJenZ7d3nKpXizXLg8IzGslJb164NGary5fu56M_nqxJoZPDvgrQHpBOIQJ8AlJiytFNyDgkyqcijwIZGfBeFcELQyu39TVjOgULOrJbuZixYTL4-iQbBROW_R1rWYUucvbMjuGw2_bEP1GqNxpKQiO30sd5EJ2EYa0YqcPvzqgsOROgFypqLFEIjLzVespUq6IZIik7kt6HaZ5cBX9rvoyCSth0U_Df4FJEHjEndqmdq_RlrQb4GY1R685tOl8zQc3ijISPKQHaERABJd07w7GqoqurSsKBw0huZhR6HEZY6ddiJdatnA3gPZZQ25NTmMwa9zKFoDlQf1ZjW6DWwaE2XdnW0-Muq3MrbFDt8bKiDFGfpbBlcz4KfEaw6qMaw704lXikWcRVlRKR24Cov3HGiRp8Al8VXM8IvADjIL8Sg9LWG4JzCVwm0cj4V0NNYdFJI7mqt2TGVMuUuJCIxCfVjRcG1IUd5yxDfNzYPvpDgTbpepn5sOCQdZf9Py7MOdMlaH0K-R70ZuENZ64x7Y_pt2TnaYU2wdzTVLwTMFc9TC2cH2ug2MVCIW0PoOF9TyRfFafQzqnFzk5O0V2XWdTvNXp7BO0c5hvc3XJIzXq3MgdXDWHVHxPR7h57gbWUjrEQMXwnJuvP7NOl-bj2fKDuIPer5joI0CiKj0QqIsn9EcOOuWPlHs1AiWhoMiv-hhKqT5bMrANfUKCiSfAMqiUgRjSbkcLtyXsfVFvlN7D7YVqlJO-2ri2BrazaygYIjL4nAU3ICff9rhN3KNgTIjEf82lbVbHAqj9HJKYzN9kDaaGgrP5QzoPMPiimLMz0559jg0dCXArIL1o0-wIXFEigJZlAaerJgA1SCslwhinw2mw6CGVlDzjRsxfjsUqGqRc-zkE8t7Cv0-EIci5aqzSXBwyN9HGyf4KXWxvZpQYvM-FobzHdVOZG8kB7RGtsVyC-7Nv81k4rkgHJSCBS-VprB3Txjj0weXZUI12BewvcLLAOZRWkZmkoXgylZrdkh1tKsWE3t4E5GJW1NtiFSy3y0]--></g></svg>