<svg xmlns="http://www.w3.org/2000/svg" xmlns:xlink="http://www.w3.org/1999/xlink" contentStyleType="text/css" data-diagram-type="MINDMAP" height="262px" preserveAspectRatio="none" style="width:560px;height:262px;" version="1.1" viewBox="0 0 560 262" width="560px" zoomAndPan="magnify"><defs/><g><a href="/use-case/legal-entity-management/" target="_top" title="/use-case/legal-entity-management/" xlink:actuate="onRequest" xlink:href="/use-case/legal-entity-management/" xlink:show="new" xlink:title="/use-case/legal-entity-management/" xlink:type="simple"><text fill="#90EE90" font-family="'Roboto'" font-size="14" lengthAdjust="spacing" textLength="179.7646" x="17" y="135.0342">Legal Entity Management</text></a><a href="/use-case/legal-entity-management/identification-and-registration/" target="_top" title="/use-case/legal-entity-management/identification-and-registration/" xlink:actuate="onRequest" xlink:href="/use-case/legal-entity-management/identification-and-registration/" xlink:show="new" xlink:title="/use-case/legal-entity-management/identification-and-registration/" xlink:type="simple"><text fill="#90EE90" font-family="'Roboto'" font-size="14" lengthAdjust="spacing" textLength="196.6631" x="262.2148" y="27.9951">Identification &amp; Registration</text></a><path d="M205.2148,130.1875 L205.2148,130.3743 L207.2148,129.8192 L209.2148,130.3593 L211.2148,130.5428 L213.2148,129.5534 L215.2148,130.1875 L215.2148,130.1875 L215.1844,130.1713 L216.8288,126.7534 L218.6269,123.4174 L220.5319,120.1383 L222.0686,116.6632 L224.1211,113.4626 L224.3629,113.5081 L224.4903,109.9823 L225.3238,106.5892 L226.2434,103.2123 L226.6618,99.7412 L227.3438,96.3197 L227.3738,96.3241 L227.9039,92.3873 L228.5707,88.4705 L229.1716,84.544 L229.8982,80.6359 L230.2148,76.668 L230.51,76.7111 L231.0878,72.7813 L231.4753,68.8236 L232.1414,64.9067 L232.8205,60.9917 L233.0859,57.0163 L232.7709,56.957 L234.0268,53.6434 L234.2455,50.1347 L235.2527,46.7743 L235.4478,43.2612 L236.3086,39.8733 L236.2817,39.859 L238.3808,36.6832 L239.852,33.1732 L241.6937,29.8604 L243.5664,26.5641 L245.2148,23.1484 L245.2148,23.5184 L247.2148,23.145 L249.2148,23.4037 L251.2148,22.6396 L253.2148,23.4012 L255.2148,23.1484" fill="none" style="stroke:#FF9900;stroke-width:1;"/><a href="/use-case/legal-entity-management/corporate-governance/" target="_top" title="/use-case/legal-entity-management/corporate-governance/" xlink:actuate="onRequest" xlink:href="/use-case/legal-entity-management/corporate-governance/" xlink:show="new" xlink:title="/use-case/legal-entity-management/corporate-governance/" xlink:type="simple"><text fill="#90EE90" font-family="'Roboto'" font-size="14" lengthAdjust="spacing" textLength="159.1406" x="262.2148" y="54.292">Corporate Governance</text></a><path d="M205.2148,130.1875 L205.2148,130.3743 L207.2148,129.8192 L209.2148,130.3593 L211.2148,130.5428 L213.2148,129.5534 L215.2148,130.1875 L215.2148,130.1875 L215.1866,130.1676 L216.8412,127.555 L218.6381,125.0428 L220.5338,122.6005 L222.0888,119.9175 L224.1211,117.5715 L224.3599,117.631 L224.4938,114.9175 L225.3249,112.3777 L226.241,109.8591 L226.6622,107.2172 L227.3438,104.6402 L227.3735,104.6459 L227.904,101.6727 L228.5701,98.7258 L229.1707,95.7661 L229.8962,92.8307 L230.2148,89.8164 L230.5076,89.8731 L231.0854,86.9091 L231.4744,83.9084 L232.1398,80.9613 L232.8181,78.0167 L233.0859,74.9926 L232.7749,74.9151 L234.0231,72.4793 L234.2471,69.7882 L235.2497,67.2912 L235.4506,64.5944 L236.3086,62.0613 L236.2837,62.0437 L238.3591,59.7282 L239.8534,57.0024 L241.6906,54.5187 L243.5565,52.0553 L245.2148,49.4453 L245.2148,49.8153 L247.2148,49.4418 L249.2148,49.7006 L251.2148,48.9365 L253.2148,49.6981 L255.2148,49.4453" fill="none" style="stroke:#FF9900;stroke-width:1;"/><a href="/use-case/legal-entity-management/ownership-and-capital-structure/" target="_top" title="/use-case/legal-entity-management/ownership-and-capital-structure/" xlink:actuate="onRequest" xlink:href="/use-case/legal-entity-management/ownership-and-capital-structure/" xlink:show="new" xlink:title="/use-case/legal-entity-management/ownership-and-capital-structure/" xlink:type="simple"><text fill="#90EE90" font-family="'Roboto'" font-size="14" lengthAdjust="spacing" textLength="213.4453" x="262.2148" y="80.5889">Ownership &amp; Capital Structure</text></a><path d="M205.2148,130.1875 L205.2148,130.3743 L207.2148,129.8192 L209.2148,130.3593 L211.2148,130.5428 L213.2148,129.5534 L215.2148,130.1875 L215.2148,130.1875 L215.191,130.1625 L216.8652,128.349 L218.6596,126.6614 L220.5377,125.0613 L222.1276,123.1596 L224.1211,121.6804 L224.3551,121.7566 L225.0735,117.8506 L226.475,114.167 L227.9599,110.5105 L228.9598,106.6962 L230.2148,102.9648 L230.2437,102.9742 L231.4201,99.2173 L232.7278,95.5032 L233.9722,91.7684 L235.3374,88.073 L236.3086,84.2493 L236.5146,84.4649 L238.2984,82.7662 L239.9493,80.9283 L241.7947,79.294 L243.6492,77.6693 L245.2148,75.7422 L245.2148,75.1011 L247.2148,76.3453 L249.2148,75.4786 L251.2148,76.2167 L253.2148,75.3022 L255.2148,75.7422" fill="none" style="stroke:#FF9900;stroke-width:1;"/><a href="/use-case/legal-entity-management/financial-information/" target="_top" title="/use-case/legal-entity-management/financial-information/" xlink:actuate="onRequest" xlink:href="/use-case/legal-entity-management/financial-information/" xlink:show="new" xlink:title="/use-case/legal-entity-management/financial-information/" xlink:type="simple"><text fill="#90EE90" font-family="'Roboto'" font-size="14" lengthAdjust="spacing" textLength="148.0596" x="262.2148" y="106.8857">Financial Information</text></a><path d="M205.2148,130.1875 L205.2148,130.3743 L207.2148,129.8192 L209.2148,130.3593 L211.2148,130.5428 L213.2148,129.5534 L215.2148,130.1875 L215.2148,130.1875 L215.1996,130.1565 L216.9122,129.1379 L218.7019,128.2754 L220.5452,127.5214 L222.2038,126.3934 L224.1211,125.7893 L224.3293,125.9204 L225.1028,123.7048 L226.4842,121.8721 L227.9398,120.086 L228.9638,118.0282 L230.2148,116.1133 L230.2405,116.1294 L231.4216,114.1705 L232.7195,112.2852 L233.961,110.3643 L235.3101,108.5112 L236.3086,106.4373 L236.4407,106.7047 L238.2235,105.8283 L239.9212,104.7794 L241.7436,103.9831 L243.5718,103.1985 L245.2148,102.0391 L245.2148,101.398 L247.2148,102.6422 L249.2148,101.7755 L251.2148,102.5136 L253.2148,101.599 L255.2148,102.0391" fill="none" style="stroke:#FF9900;stroke-width:1;"/><polygon fill="#4051B5" points="259.2148,125.1875,259.2148,125.3977,269.3786,124.7732,279.5424,125.3808,289.7062,125.5872,299.87,124.4741,310.0338,125.1098,320.1975,124.761,330.3613,124.804,340.5251,125.1193,350.6889,124.4961,360.8527,125.7411,371.0165,124.5572,381.1802,124.9897,391.344,125.6194,401.5078,125.1875,401.4969,125.1611,402.0822,125.4428,402.6351,125.6463,403.2276,125.9454,403.8011,126.1984,404.3362,126.3591,404.5166,126.4338,404.7772,127.0104,405.0141,127.5771,405.1176,128.0886,405.4163,128.681,405.5078,129.1875,405.7419,129.1875,405.2674,134.8469,405.734,140.5063,405.409,146.1656,405.6857,151.825,405.5078,157.4844,405.3554,157.4212,405.2524,158.0413,405.2676,158.7103,404.7899,159.1752,404.603,159.7605,404.3362,160.3128,404.3794,160.4171,403.8236,160.6753,403.2044,160.7802,402.6758,161.1042,402.0005,161.0738,401.5078,161.4844,401.5078,161.7688,391.344,162.0326,381.1802,161.9289,371.0165,162.0974,360.8527,161.0013,350.6889,160.8322,340.5251,160.863,330.3613,161.4255,320.1975,161.2878,310.0338,162.1658,299.87,161.3097,289.7062,161.1413,279.5424,161.7126,269.3786,160.8175,259.2148,161.4844,259.1486,161.3245,258.7319,161.4499,258.139,161.1499,257.6115,161.0076,256.9111,160.448,256.3864,160.3128,256.4847,160.3535,256.3339,159.8224,255.7723,159.1212,255.654,158.6035,255.488,158.0661,255.2148,157.4844,255.4321,157.4844,255.2134,151.825,255.369,146.1656,255.0302,140.5063,254.9891,134.8469,255.2148,129.1875,255.3699,129.2517,255.2284,128.5304,255.8402,128.1211,255.9814,127.5168,256.0696,126.8906,256.3864,126.3591,256.3413,126.2501,257.0106,126.266,257.4796,125.7983,258.159,125.8384,258.5786,125.2516,259.2148,125.1875" style="stroke:#FF6F00;stroke-width:1.5;"/><a href="/use-case/legal-entity-management/lifecycle-and-status/" target="_top" title="/use-case/legal-entity-management/lifecycle-and-status/" xlink:actuate="onRequest" xlink:href="/use-case/legal-entity-management/lifecycle-and-status/" xlink:show="new" xlink:title="/use-case/legal-entity-management/lifecycle-and-status/" xlink:type="simple"><text fill="#90EE90" font-family="'Roboto'" font-size="14" lengthAdjust="spacing" textLength="125.8428" x="265.2148" y="148.1826">Lifecycle &amp; Status</text></a><a href="/use-case/legal-entity-management/lifecycle-and-status/dissolution/" target="_top" title="/use-case/legal-entity-management/lifecycle-and-status/dissolution/" xlink:actuate="onRequest" xlink:href="/use-case/legal-entity-management/lifecycle-and-status/dissolution/" xlink:show="new" xlink:title="/use-case/legal-entity-management/lifecycle-and-status/dissolution/" xlink:type="simple"><text fill="#90EE90" font-family="'Roboto'" font-size="14" lengthAdjust="spacing" textLength="77.4033" x="462.5078" y="135.0342">Dissolution</text></a><path d="M405.5078,143.3359 L405.5078,143.5228 L407.5078,142.9677 L409.5078,143.5077 L411.5078,143.6912 L413.5078,142.7018 L415.5078,143.3359 L415.5078,143.3359 L415.4939,143.3043 L418.4317,141.8475 L421.4394,140.5501 L424.4957,139.3637 L427.3845,137.7951 L430.5078,136.7617 L430.6066,136.9871 L433.3954,135.1903 L436.4725,134.0515 L439.5849,132.993 L442.4925,131.4674 L445.5078,130.1875 L445.5078,130.2482 L447.5078,130.1591 L449.5078,130.3462 L451.5078,130.4001 L453.5078,130.7081 L455.5078,130.1875" fill="none" style="stroke:#FF9900;stroke-width:1;"/><a href="/use-case/legal-entity-management/lifecycle-and-status/liquidation/" target="_top" title="/use-case/legal-entity-management/lifecycle-and-status/liquidation/" xlink:actuate="onRequest" xlink:href="/use-case/legal-entity-management/lifecycle-and-status/liquidation/" xlink:show="new" xlink:title="/use-case/legal-entity-management/lifecycle-and-status/liquidation/" xlink:type="simple"><text fill="#90EE90" font-family="'Roboto'" font-size="14" lengthAdjust="spacing" textLength="77.6221" x="462.5078" y="161.3311">Liquidation</text></a><path d="M405.5078,143.3359 L405.5078,143.5228 L407.5078,142.9677 L409.5078,143.5077 L411.5078,143.6912 L413.5078,142.7018 L415.5078,143.3359 L415.5078,143.3359 L415.4939,143.3043 L418.4317,144.4772 L421.4394,145.8095 L424.4957,147.2527 L427.3845,148.3139 L430.5078,149.9102 L430.6066,150.1355 L433.3954,150.9684 L436.4725,152.4593 L439.5849,154.0305 L442.4925,155.1346 L445.5078,156.4844 L445.5078,156.545 L447.5078,156.456 L449.5078,156.6431 L451.5078,156.6969 L453.5078,157.005 L455.5078,156.4844" fill="none" style="stroke:#FF9900;stroke-width:1;"/><path d="M205.2148,130.1875 L205.2148,130.3743 L207.2148,129.8192 L209.2148,130.3593 L211.2148,130.5428 L213.2148,129.5534 L215.2148,130.1875 L215.2148,130.1875 L215.201,130.1559 L218.1388,131.3287 L221.1464,132.6611 L224.2027,134.1043 L227.0915,135.1654 L230.2148,136.7617 L230.3136,136.9871 L233.1024,137.82 L236.1796,139.3109 L239.2919,140.8821 L242.1995,141.9862 L245.2148,143.3359 L245.2148,143.3966 L247.2148,143.3075 L249.2148,143.4946 L251.2148,143.5485 L253.2148,143.8566 L255.2148,143.3359" fill="none" style="stroke:#FF9900;stroke-width:1;"/><a href="/use-case/legal-entity-management/contact-and-location-information/" target="_top" title="/use-case/legal-entity-management/contact-and-location-information/" xlink:actuate="onRequest" xlink:href="/use-case/legal-entity-management/contact-and-location-information/" xlink:show="new" xlink:title="/use-case/legal-entity-management/contact-and-location-information/" xlink:type="simple"><text fill="#90EE90" font-family="'Roboto'" font-size="14" lengthAdjust="spacing" textLength="219.4814" x="262.2148" y="189.4795">Contact &amp; Location Information</text></a><path d="M205.2148,130.1875 L205.2148,130.3743 L207.2148,129.8192 L209.2148,130.3593 L211.2148,130.5428 L213.2148,129.5534 L215.2148,130.1875 L215.2148,130.1875 L215.191,130.1625 L216.8652,131.7518 L218.6596,133.4671 L220.5377,135.2698 L222.1276,136.771 L224.1211,138.6946 L224.3551,138.7708 L225.0735,142.351 L226.475,146.1536 L227.9599,149.9834 L228.9598,153.6552 L230.2148,157.4102 L230.2437,157.4195 L231.4201,161.1489 L232.7278,164.921 L233.9722,168.6724 L235.3374,172.4632 L236.3086,176.1257 L236.5146,176.3414 L238.2984,178.0455 L239.9493,179.6104 L241.7947,181.379 L243.6492,183.1571 L245.2148,184.6328 L245.2148,183.9918 L247.2148,185.2359 L249.2148,184.3693 L251.2148,185.1073 L253.2148,184.1928 L255.2148,184.6328" fill="none" style="stroke:#FF9900;stroke-width:1;"/><a href="/use-case/legal-entity-management/compliance-and-documentation/" target="_top" title="/use-case/legal-entity-management/compliance-and-documentation/" xlink:actuate="onRequest" xlink:href="/use-case/legal-entity-management/compliance-and-documentation/" xlink:show="new" xlink:title="/use-case/legal-entity-management/compliance-and-documentation/" xlink:type="simple"><text fill="#90EE90" font-family="'Roboto'" font-size="14" lengthAdjust="spacing" textLength="210.1504" x="262.2148" y="215.7764">Compliance &amp; Documentation</text></a><path d="M205.2148,130.1875 L205.2148,130.3743 L207.2148,129.8192 L209.2148,130.3593 L211.2148,130.5428 L213.2148,129.5534 L215.2148,130.1875 L215.2148,130.1875 L215.1866,130.1676 L216.8412,132.6014 L218.6381,135.1356 L220.5338,137.7396 L222.0888,140.1031 L224.1211,142.8035 L224.3599,142.863 L224.4938,145.322 L225.3249,147.9548 L226.241,150.6087 L226.6622,153.1393 L227.3438,155.7348 L227.3735,155.7406 L227.904,158.6969 L228.5701,161.6794 L229.1707,164.6493 L229.8962,167.6433 L230.2148,170.5586 L230.5076,170.6153 L231.0854,173.5808 L231.4744,176.5096 L232.1398,179.492 L232.8181,182.4769 L233.0859,185.3824 L232.7749,185.3048 L234.0231,188.0416 L234.2471,190.523 L235.2497,193.1985 L235.4506,195.6742 L236.3086,198.3137 L236.2837,198.2962 L238.3591,201.027 L239.8534,203.3476 L241.6906,205.9103 L243.5565,208.4933 L245.2148,210.9297 L245.2148,211.2997 L247.2148,210.9262 L249.2148,211.185 L251.2148,210.4209 L253.2148,211.1825 L255.2148,210.9297" fill="none" style="stroke:#FF9900;stroke-width:1;"/><a href="/use-case/legal-entity-management/supporting-information/" target="_top" title="/use-case/legal-entity-management/supporting-information/" xlink:actuate="onRequest" xlink:href="/use-case/legal-entity-management/supporting-information/" xlink:show="new" xlink:title="/use-case/legal-entity-management/supporting-information/" xlink:type="simple"><text fill="#90EE90" font-family="'Roboto'" font-size="14" lengthAdjust="spacing" textLength="162.7295" x="262.2148" y="242.0732">Supporting Information</text></a><path d="M205.2148,130.1875 L205.2148,130.3743 L207.2148,129.8192 L209.2148,130.3593 L211.2148,130.5428 L213.2148,129.5534 L215.2148,130.1875 L215.2148,130.1875 L215.1844,130.1713 L216.8288,133.4434 L218.6269,136.7973 L220.5319,140.2082 L222.0686,143.423 L224.1211,146.9124 L224.3629,146.9578 L224.4903,150.2892 L225.3238,153.7533 L226.2434,157.2336 L226.6618,160.6197 L227.3438,164.0553 L227.3738,164.0597 L227.9039,167.9836 L228.5707,171.9275 L229.1716,175.8617 L229.8982,179.8143 L230.2148,183.707 L230.51,183.7501 L231.0878,187.681 L231.4753,191.5841 L232.1414,195.5278 L232.8205,199.4735 L233.0859,203.3587 L232.7709,203.2995 L234.0268,206.843 L234.2455,210.1916 L235.2527,213.6884 L235.4478,217.0325 L236.3086,220.5017 L236.2817,220.4874 L238.3808,224.0016 L239.852,227.1815 L241.6937,230.5586 L243.5664,233.9523 L245.2148,237.2266 L245.2148,237.5965 L247.2148,237.2231 L249.2148,237.4819 L251.2148,236.7177 L253.2148,237.4794 L255.2148,237.2266" fill="none" style="stroke:#FF9900;stroke-width:1;"/><!--SRC=[xLXhJniv5Fq-ly9RfALLDuMmKBMegWXvK20XA85Agwf2pemdiUAnfxO7DhlQ_xxNCvdC8- -GwS8AFX7VwtFFlUF7zJbH6aljKUvusBUiNnpYKaxGwTbTgt9-TLTjDziT5Fxj7EuVbNj7QPTklTg-gbKwVupzPhXSLwgNbRFw16ZAfTsfrJlfE6Z7TT-x-_iJbqRxwYRZ4BgOFyjIGyfzBB67UjWUzgK8k5CLJCZOKKlC5NWGhbFENqO-aKtAXsbVjCDeVw3xaX1kMRk8Sfi53a5wG52VS28nGnC8XLoOs1Dwy1iAfo7C7UHWEOIPMY1nJ-I3f9gW1we74GQz9nmfeZNbVPMlmCsNy-hbLRtRHMNu3CBNL70q0523ec6YYvaYgHokiUC043fCZNMY_2MGHHzIuzq1TiI3ySwZX9LWK8bRxeJ_aB5BogT6N1mmZVws6eBhA-mHzAeZ87VnAXo9YfXyfd2mI_yYg7ne_PD6gaWf7W1dvepPC7h4e4Q2ELaa7putxfCnfwcffxdLa5dFrgcGaEpOabg042A9m8Mp3dnceQyMmHQUBpYiJ0Yp8U6PxAAQ1HuxoDRCmHhti29R3fU9OJCHE8K648mHs-mEjVKmIPGgE4Z12enmQY2n71KOeiurrKK6e5mJwMAR51YZItu4XDla6gufQbCVSns1tGoeFUH4AJWm4tSrTWT6wHaBoKr1p-2PyacE9IwaXrdUDfLEaxe4BXio5tpYi91cU7XEWOUZSv53wqnIeIMfuUzMnTP2Bc4GkioDPQppDl0kgXuYKpMuXE37pjA_z9wNiE4nxpFowHFSLahmpv_X-tPXyH6XuGARUtjiwrx8hxZydPqzeb9qoPz0acDsjttUkUQh0F9gf3Jndb-jjy-xe5h75_BpA7N2zlbLEhLCUkEBDsATQuopMOGzxFxoRc-Zt1Sd5bqm3bO3ugoIwynKRGYCuLwHg-OA_VhYfLH0fei_OVfgrrZFwZJY9sKIF7uULhIMj1TeCcrAaueVdBb65YjLSBHTr8eUtaZvnAOkjI79w8gSUeUipcDfQZXf97OQZOyVmPupfdihotfxXxvzGtk18YKRzlyU8ttCIYJiBaiUvl0Ey-3N7ceQGznsjYO6zFsxzNPL4EgOCIW5DZr-2Hx09KdwLC53tWpieVEC0_eLTLBcjKBPGle2vf5ItppNEOQ-SGzQ__4eEfkChWKh7c37gG7rG_8szga6Fs0Os3gG4A4TEm3vQcI6rcXiNYkKImqz2ZRANTECHYLgnCFeF1cEW5V3PT2GsYERaJ05i_421Pyt7WNUtN0imboLxKnKXoebM10HhoK_jW3Dw8-0EkEQD9CVQouIE4Dj7U8oCLwLcMfN8myeIdDidoxxoi4ydr6pui9uZh03Cpu955iXLYrjMok82dnOu4Q4okRHdOpd-PyGEALYYV0agnWMAC4zOR4hFcjNLBhIxZC0rj2u9eVydEjWzk6_GDLwBE0Y4MiHnZI33MIhzGAi95Gz1dAXDBKky2fYrEQO2-IdpK7d2awRGowIc3P7BKHKYkdCaPDYPcihIN42isIa67IUWXHpIcb7atOrBnp5M3dDAEE_L32Q1CnBHHFqh4gKsaWR2JxpJzPrLilqnt-ieFEpUIrvYVzdPNeAl5QMMNuocoTLfAqg936FDREPotgX6b8kKlxOTYQv-l-lvOqN3UD5mtZHC5uqZAUdOLmpwB1lMqq4cqCPX_AxW_s3etVbSezeNDv_VSk77FP0-Bgbi5WqzSWRw_NPTHCf4KXWxvZzQiv3cFx6ki3t67K2RloEKTid_A9s6G_0QN9FfU26kNNnjPKul3yidL8Dpn49HD3NbXMh3tLk2oDu7AFRcqRfWzM4Aos0v8yHuLOLJb0jHs3h_Wi0]--></g></svg>