<svg xmlns="http://www.w3.org/2000/svg" xmlns:xlink="http://www.w3.org/1999/xlink" contentStyleType="text/css" data-diagram-type="MINDMAP" height="278px" preserveAspectRatio="none" style="width:532px;height:278px;" version="1.1" viewBox="0 0 532 278" width="532px" zoomAndPan="magnify"><defs/><g><a href="/use-case/legal-entity-management/" target="_top" title="/use-case/legal-entity-management/" xlink:actuate="onRequest" xlink:href="/use-case/legal-entity-management/" xlink:show="new" xlink:title="/use-case/legal-entity-management/" xlink:type="simple"><text fill="#4051B5" font-family="'Roboto'" font-size="13" lengthAdjust="spacing" textLength="166.9243" x="17" y="142.5981">Legal Entity Management</text></a><a href="/use-case/legal-entity-management/identification-and-registration/" target="_top" title="/use-case/legal-entity-management/identification-and-registration/" xlink:actuate="onRequest" xlink:href="/use-case/legal-entity-management/identification-and-registration/" xlink:show="new" xlink:title="/use-case/legal-entity-management/identification-and-registration/" xlink:type="simple"><text fill="#4051B5" font-family="'Roboto'" font-size="13" lengthAdjust="spacing" textLength="182.6157" x="249.0566" y="27.0669">Identification &amp; Registration</text></a><path d="M192.0566,138.0977 L192.0566,138.2845 L194.0566,137.7294 L196.0566,138.2695 L198.0566,138.4529 L200.0566,137.4635 L202.0566,138.0977 L202.0566,138.0977 L202.0323,138.0732 L202.9189,136.9706 L203.9285,135.9912 L205.0235,135.0977 L205.8241,133.9086 L207.0371,133.1334 L207.2728,133.2041 L207.554,130.4354 L208.5232,127.8732 L209.5765,125.3361 L210.1412,122.6524 L210.9629,120.0459 L210.9928,120.0511 L211.5934,116.3429 L212.3301,112.6583 L213.0012,108.9623 L213.7975,105.2881 L214.1855,101.5428 L214.4811,101.5829 L215.0589,97.3412 L215.4461,93.0737 L216.1124,88.844 L216.7917,84.6161 L217.0566,80.332 L216.739,80.289 L217.9297,76.1303 L218.0745,71.83 L219.0144,67.6374 L219.1355,63.3339 L219.9277,59.1212 L219.8977,59.116 L220.897,55.4772 L221.1955,51.7163 L221.9074,48.0274 L222.6541,44.3446 L223.1504,40.6182 L223.3276,40.6713 L223.9339,38.0002 L224.843,35.4198 L225.2622,32.6926 L226.4121,30.1845 L227.0762,27.5306 L227.2482,27.7032 L228.2117,26.6777 L229.2607,25.7379 L229.9129,24.4 L230.8559,23.354 L232.0566,22.5664 L232.0566,22.0141 L234.0566,22.5141 L236.0566,22.3917 L238.0566,23.1721 L240.0566,22.4111 L242.0566,22.5664" fill="none" style="stroke:#FF6F00;stroke-width:1;"/><a href="/use-case/legal-entity-management/corporate-governance/" target="_top" title="/use-case/legal-entity-management/corporate-governance/" xlink:actuate="onRequest" xlink:href="/use-case/legal-entity-management/corporate-governance/" xlink:show="new" xlink:title="/use-case/legal-entity-management/corporate-governance/" xlink:type="simple"><text fill="#4051B5" font-family="'Roboto'" font-size="13" lengthAdjust="spacing" textLength="147.7734" x="249.0566" y="52.1997">Corporate Governance</text></a><path d="M192.0566,138.0977 L192.0566,138.2845 L194.0566,137.7294 L196.0566,138.2695 L198.0566,138.4529 L200.0566,137.4635 L202.0566,138.0977 L202.0566,138.0977 L202.0274,138.0792 L203.6776,135.1716 L205.475,132.3568 L207.3748,129.6066 L208.9217,126.634 L210.9629,123.9729 L211.2031,124.0264 L211.334,121.0165 L212.1662,118.1627 L213.0839,115.3279 L213.5038,112.3823 L214.1855,109.495 L214.2154,109.5002 L214.7458,106.1733 L215.4122,102.8699 L216.0129,99.5552 L216.7389,96.2621 L217.0566,92.8984 L217.3505,92.9493 L217.9283,89.6306 L218.3166,86.2791 L218.9823,82.9756 L219.6611,79.6744 L219.9277,76.3018 L219.6149,76.2322 L220.8666,73.4718 L221.0882,70.4821 L222.0929,67.6667 L222.2911,64.6717 L223.1504,61.824 L223.1246,61.8077 L225.2104,59.1748 L226.6946,56.1625 L228.5337,53.3741 L230.4027,50.6044 L232.0566,47.6992 L232.0566,48.0692 L234.0566,47.6957 L236.0566,47.9545 L238.0566,47.1904 L240.0566,47.952 L242.0566,47.6992" fill="none" style="stroke:#FF6F00;stroke-width:1;"/><a href="/use-case/legal-entity-management/ownership-and-capital-structure/" target="_top" title="/use-case/legal-entity-management/ownership-and-capital-structure/" xlink:actuate="onRequest" xlink:href="/use-case/legal-entity-management/ownership-and-capital-structure/" xlink:show="new" xlink:title="/use-case/legal-entity-management/ownership-and-capital-structure/" xlink:type="simple"><text fill="#4051B5" font-family="'Roboto'" font-size="13" lengthAdjust="spacing" textLength="198.1992" x="249.0566" y="77.3325">Ownership &amp; Capital Structure</text></a><path d="M192.0566,138.0977 L192.0566,138.2845 L194.0566,137.7294 L196.0566,138.2695 L198.0566,138.4529 L200.0566,137.4635 L202.0566,138.0977 L202.0566,138.0977 L202.0306,138.0749 L203.6951,135.9334 L205.4908,133.9064 L207.3776,131.9591 L208.9502,129.7373 L210.9629,127.8999 L211.198,127.9724 L211.3397,125.7268 L212.168,123.6929 L213.0799,121.6848 L213.5046,119.5265 L214.1855,117.4472 L214.215,117.4543 L214.746,115.0474 L215.4111,112.6727 L216.0116,110.2826 L216.7356,107.922 L217.0566,105.4648 L217.3467,105.5343 L217.9244,103.1387 L218.3151,100.6983 L218.9797,98.3234 L219.657,95.9517 L219.9277,93.4825 L219.6214,93.388 L220.8604,91.4808 L221.0909,89.2626 L222.088,87.2808 L222.2956,85.0555 L223.1504,83.0298 L223.1275,83.0098 L225.1799,81.207 L226.6966,78.9364 L228.5294,76.9419 L230.3887,74.9706 L232.0566,72.832 L232.0566,73.202 L234.0566,72.8286 L236.0566,73.0873 L238.0566,72.3232 L240.0566,73.0848 L242.0566,72.832" fill="none" style="stroke:#FF6F00;stroke-width:1;"/><a href="/use-case/legal-entity-management/financial-information/" target="_top" title="/use-case/legal-entity-management/financial-information/" xlink:actuate="onRequest" xlink:href="/use-case/legal-entity-management/financial-information/" xlink:show="new" xlink:title="/use-case/legal-entity-management/financial-information/" xlink:type="simple"><text fill="#4051B5" font-family="'Roboto'" font-size="13" lengthAdjust="spacing" textLength="137.4839" x="249.0566" y="102.4653">Financial Information</text></a><path d="M192.0566,138.0977 L192.0566,138.2845 L194.0566,137.7294 L196.0566,138.2695 L198.0566,138.4529 L200.0566,137.4635 L202.0566,138.0977 L202.0566,138.0977 L202.0368,138.0694 L203.7288,136.6885 L205.521,135.45 L207.383,134.3104 L209.0047,132.8298 L210.9629,131.8269 L211.188,131.9263 L211.9254,128.9546 L213.32,126.2731 L214.7947,123.6271 L215.803,120.775 L217.0566,118.0313 L217.0844,118.0435 L218.2624,115.2664 L219.5667,112.545 L220.8101,109.7968 L222.1698,107.0999 L223.1504,104.2356 L223.3221,104.4795 L225.1054,103.2283 L226.778,101.8198 L228.6128,100.6416 L230.4551,99.4742 L232.0566,97.9648 L232.0566,97.3238 L234.0566,98.568 L236.0566,97.7013 L238.0566,98.4393 L240.0566,97.5248 L242.0566,97.9648" fill="none" style="stroke:#FF6F00;stroke-width:1;"/><a href="/use-case/legal-entity-management/lifecycle-and-status/" target="_top" title="/use-case/legal-entity-management/lifecycle-and-status/" xlink:actuate="onRequest" xlink:href="/use-case/legal-entity-management/lifecycle-and-status/" xlink:show="new" xlink:title="/use-case/legal-entity-management/lifecycle-and-status/" xlink:type="simple"><text fill="#4051B5" font-family="'Roboto'" font-size="13" lengthAdjust="spacing" textLength="116.854" x="249.0566" y="155.1646">Lifecycle &amp; Status</text></a><a href="/use-case/legal-entity-management/lifecycle-and-status/dissolution/" target="_top" title="/use-case/legal-entity-management/lifecycle-and-status/dissolution/" xlink:actuate="onRequest" xlink:href="/use-case/legal-entity-management/lifecycle-and-status/dissolution/" xlink:show="new" xlink:title="/use-case/legal-entity-management/lifecycle-and-status/dissolution/" xlink:type="simple"><text fill="#4051B5" font-family="'Roboto'" font-size="13" lengthAdjust="spacing" textLength="71.8745" x="431.043" y="127.5981">Dissolution</text></a><path d="M374.043,150.6641 L374.043,150.8509 L376.043,150.2958 L378.043,150.8359 L380.043,151.0193 L382.043,150.0299 L384.043,150.6641 L384.043,150.6641 L384.0279,150.633 L385.7417,149.632 L387.5313,148.7877 L389.3735,148.0524 L391.0342,146.9416 L392.9492,146.3568 L393.1562,146.4899 L393.9324,144.3101 L395.3128,142.5189 L396.7669,140.7751 L397.7922,138.7554 L399.043,136.8809 L399.0685,136.8973 L400.2498,134.978 L401.5472,133.1334 L402.7886,131.2528 L404.1369,129.4409 L405.1367,127.4049 L405.2666,127.6734 L407.0494,126.8152 L408.7485,125.7839 L410.5702,125.006 L412.3976,124.2401 L414.043,123.0977 L414.043,122.4566 L416.043,123.7008 L418.043,122.8341 L420.043,123.5722 L422.043,122.6576 L424.043,123.0977" fill="none" style="stroke:#FF6F00;stroke-width:1;"/><polygon fill="#4051B5" points="428.043,145.6641,428.043,145.8742,437.8441,145.2497,447.6452,145.8573,457.4463,146.0637,467.2474,144.9507,477.0485,145.5863,486.8496,145.2376,496.6507,145.2806,506.4518,145.5959,516.2529,145.6641,516.1647,145.4511,516.8892,146.0689,517.3039,145.9386,517.9248,146.3061,518.5708,146.7343,519.0814,146.8356,519.0549,146.8247,519.3367,147.41,519.5401,147.9629,519.8393,148.5555,520.0923,149.1289,520.2529,149.6641,520.4482,149.6641,520.4766,155.0906,520.4793,160.5172,520.3378,165.9438,520.4075,171.3703,520.2529,176.7969,520.4692,176.8865,519.7965,177.2706,519.9933,178.0148,519.4587,178.4561,519.4801,179.1277,519.0814,179.6253,519.0182,179.4729,518.5069,179.8385,518.0446,180.3223,517.3781,180.3132,516.832,180.595,516.2529,180.7969,516.2529,181.1355,506.4518,181.2131,496.6507,180.793,486.8496,181.0841,477.0485,180.2245,467.2474,181.0813,457.4463,181.3451,447.6452,181.2414,437.8441,181.4099,428.043,180.7969,427.9813,180.6481,427.3941,180.3617,426.8323,180.1369,426.3384,180.0758,425.7552,179.7991,425.2145,179.6253,425.4244,179.7122,424.9264,179.0373,424.6403,178.4502,424.5819,177.9574,424.0719,177.2775,424.043,176.7969,423.8699,176.7969,424.2593,171.3703,424.1882,165.9438,424.2878,160.5172,423.9357,155.0906,424.043,149.6641,424.1413,149.7048,424.4591,149.1737,424.3661,148.4724,424.7164,147.9548,425.019,147.4174,425.2145,146.8356,425.2977,147.0364,425.7797,146.6,426.4049,146.5095,426.841,145.9621,427.3909,145.6898,428.043,145.6641" style="stroke:#FF6F00;stroke-width:1.5;"/><a href="/use-case/legal-entity-management/lifecycle-and-status/liquidation/" target="_top" title="/use-case/legal-entity-management/lifecycle-and-status/liquidation/" xlink:actuate="onRequest" xlink:href="/use-case/legal-entity-management/lifecycle-and-status/liquidation/" xlink:show="new" xlink:title="/use-case/legal-entity-management/lifecycle-and-status/liquidation/" xlink:type="simple"><text fill="#4051B5" font-family="'Roboto'" font-size="13" lengthAdjust="spacing" textLength="72.0776" x="434.043" y="167.731">Liquidation</text></a><path d="M374.043,150.6641 L374.043,150.8509 L376.043,150.2958 L378.043,150.8359 L380.043,151.0193 L382.043,150.0299 L384.043,150.6641 L384.043,150.6641 L384.0296,150.6322 L386.9697,151.7459 L389.9771,153.0201 L393.0313,154.406 L395.9243,155.4072 L399.043,156.9473 L399.138,157.1742 L401.9347,157.9455 L405.009,159.3795 L408.1171,160.8943 L411.0282,161.9387 L414.043,163.2305 L414.043,163.2911 L416.043,163.2021 L418.043,163.3892 L420.043,163.443 L422.043,163.7511 L424.043,163.2305" fill="none" style="stroke:#FF6F00;stroke-width:1;"/><path d="M192.0566,138.0977 L192.0566,138.2845 L194.0566,137.7294 L196.0566,138.2695 L198.0566,138.4529 L200.0566,137.4635 L202.0566,138.0977 L202.0566,138.0977 L202.0433,138.0658 L204.9834,139.1795 L207.9908,140.4537 L211.0449,141.8396 L213.9379,142.8408 L217.0566,144.3809 L217.1517,144.6078 L219.9484,145.3791 L223.0227,146.8131 L226.1308,148.3279 L229.0419,149.3723 L232.0566,150.6641 L232.0566,150.7247 L234.0566,150.6357 L236.0566,150.8228 L238.0566,150.8766 L240.0566,151.1847 L242.0566,150.6641" fill="none" style="stroke:#FF6F00;stroke-width:1;"/><a href="/use-case/legal-entity-management/contact-and-location-information/" target="_top" title="/use-case/legal-entity-management/contact-and-location-information/" xlink:actuate="onRequest" xlink:href="/use-case/legal-entity-management/contact-and-location-information/" xlink:show="new" xlink:title="/use-case/legal-entity-management/contact-and-location-information/" xlink:type="simple"><text fill="#4051B5" font-family="'Roboto'" font-size="13" lengthAdjust="spacing" textLength="203.8042" x="249.0566" y="207.8638">Contact &amp; Location Information</text></a><path d="M192.0566,138.0977 L192.0566,138.2845 L194.0566,137.7294 L196.0566,138.2695 L198.0566,138.4529 L200.0566,137.4635 L202.0566,138.0977 L202.0566,138.0977 L202.0306,138.0749 L203.6951,140.0125 L205.4908,142.0646 L207.3776,144.1964 L208.9502,146.0537 L210.9629,148.2954 L211.198,148.3679 L211.3397,150.3034 L212.168,152.4506 L213.0799,154.6236 L213.5046,156.6463 L214.1855,158.7481 L214.215,158.7552 L214.746,161.1413 L215.4111,163.5595 L216.0116,165.9623 L216.7356,168.3947 L217.0566,170.7305 L217.3467,170.8 L217.9244,173.1973 L218.3151,175.5498 L218.9797,177.9679 L219.657,180.3891 L219.9277,182.7128 L219.6214,182.6184 L220.8604,184.8922 L221.0909,186.8551 L222.088,189.0543 L222.2956,191.0102 L223.1504,193.1655 L223.1275,193.1455 L225.1799,195.4219 L226.6966,197.2304 L228.5294,199.315 L230.3887,201.4227 L232.0566,203.3633 L232.0566,203.7333 L234.0566,203.3598 L236.0566,203.6186 L238.0566,202.8545 L240.0566,203.6161 L242.0566,203.3633" fill="none" style="stroke:#FF6F00;stroke-width:1;"/><a href="/use-case/legal-entity-management/compliance-and-documentation/" target="_top" title="/use-case/legal-entity-management/compliance-and-documentation/" xlink:actuate="onRequest" xlink:href="/use-case/legal-entity-management/compliance-and-documentation/" xlink:show="new" xlink:title="/use-case/legal-entity-management/compliance-and-documentation/" xlink:type="simple"><text fill="#4051B5" font-family="'Roboto'" font-size="13" lengthAdjust="spacing" textLength="195.1396" x="249.0566" y="232.9966">Compliance &amp; Documentation</text></a><path d="M192.0566,138.0977 L192.0566,138.2845 L194.0566,137.7294 L196.0566,138.2695 L198.0566,138.4529 L200.0566,137.4635 L202.0566,138.0977 L202.0566,138.0977 L202.0274,138.0792 L203.6776,140.8215 L205.475,143.6566 L207.3748,146.5564 L208.9217,149.2336 L210.9629,152.2224 L211.2031,152.2759 L211.334,155.0571 L212.1662,157.9945 L213.0839,160.9508 L213.5038,163.7964 L214.1855,166.7003 L214.2154,166.7055 L214.7458,170.0172 L215.4122,173.3524 L216.0129,176.6764 L216.7389,180.0219 L217.0566,183.2969 L217.3505,183.3477 L217.9283,186.6677 L218.3166,189.9548 L218.9823,193.2899 L219.6611,196.6273 L219.9277,199.8935 L219.6149,199.8238 L220.8666,202.8546 L221.0882,205.656 L222.0929,208.6317 L222.2911,211.428 L223.1504,214.3713 L223.1246,214.3551 L225.2104,217.3721 L226.6946,220.0097 L228.5337,222.8712 L230.4027,225.7514 L232.0566,228.4961 L232.0566,228.8661 L234.0566,228.4926 L236.0566,228.7514 L238.0566,227.9873 L240.0566,228.7489 L242.0566,228.4961" fill="none" style="stroke:#FF6F00;stroke-width:1;"/><a href="/use-case/legal-entity-management/supporting-information/" target="_top" title="/use-case/legal-entity-management/supporting-information/" xlink:actuate="onRequest" xlink:href="/use-case/legal-entity-management/supporting-information/" xlink:show="new" xlink:title="/use-case/legal-entity-management/supporting-information/" xlink:type="simple"><text fill="#4051B5" font-family="'Roboto'" font-size="13" lengthAdjust="spacing" textLength="151.106" x="249.0566" y="258.1294">Supporting Information</text></a><path d="M192.0566,138.0977 L192.0566,138.2845 L194.0566,137.7294 L196.0566,138.2695 L198.0566,138.4529 L200.0566,137.4635 L202.0566,138.0977 L202.0566,138.0977 L202.0323,138.0732 L202.9189,138.9563 L203.9285,139.9626 L205.0235,141.0547 L205.8241,141.8514 L207.0371,143.0619 L207.2728,143.1326 L207.554,145.5989 L208.5232,148.2716 L209.5765,150.9696 L210.1412,153.521 L210.9629,156.1494 L210.9928,156.1546 L211.5934,159.8476 L212.3301,163.5642 L213.0012,167.2695 L213.7975,170.9965 L214.1855,174.6525 L214.4811,174.6925 L215.0589,178.9351 L215.4461,183.152 L216.1124,187.4066 L216.7917,191.663 L217.0566,195.8633 L216.739,195.8203 L217.9297,200.1459 L218.0745,204.3299 L219.0144,208.6216 L219.1355,212.8024 L219.9277,217.0741 L219.8977,217.0689 L220.897,220.8313 L221.1955,224.4716 L221.9074,228.184 L222.6541,231.9024 L223.1504,235.5771 L223.3276,235.6303 L223.9339,238.1942 L224.843,240.8488 L225.2622,243.3566 L226.4121,246.0835 L227.0762,248.6647 L227.2482,248.8372 L228.2117,249.7975 L229.2607,250.8433 L229.9129,251.4911 L230.8559,252.4308 L232.0566,253.6289 L232.0566,253.0766 L234.0566,253.5766 L236.0566,253.4542 L238.0566,254.2346 L240.0566,253.4736 L242.0566,253.6289" fill="none" style="stroke:#FF6F00;stroke-width:1;"/><!--SRC=[xLXhJniv5Fq-ly9RfALLcq8eL1MgAa9u54W8Ig2hLLKXPyQJM3ZsrFR0iglzxtizZymZcKacZov8y8dOTyuzz_fnhy-1qbZg4UNE27kMzPj3NCe9EZozRJVEBc-RdLQdYuA_ZTtjlNf_BstIEsvsBeyQtJyZkoacLutcHUFqU0mqOTBf7XrtqtxGXkj-TBUtnoOddSlhZ45WOlx69erkj_D7rYP6iTGTvHwMU8JwsBuRIE5pfocOa6X3IymLp16kKsPV7pqY6ULtaLN4sDf4bDlCTmZIGu86X1E96Hf_fv0BrdsXX-yGeuEXHfWxoC7o3hxK0ebx8XyarGGzK3qCCUWzuKWHhIaVg7nEhh-UDIykZtizL8U54PwcWgCXW1eK3H-wc2cI8dw57GU0q6vgh1k6Au4i-fGQxmsn8nwCTHvb7FuDTu9_I6IIiZaYBlQPHlzO9uBhIpmYw5LNGEpYLJ0IPYvPk62mH_ycgBvh_Pj6QaWf7W1dwXVJOVGZWnm9vcIHF5XTF20HfubF3tEBdzdXrg6G46mqazgIu2Bnm8LJ1JwpzUVpO8kH9pXiHt2p8E6fxCAS-IEsaysPWpNkOqLMx2xZmsR2TzRgG316R7CwrChT95wQO205MwE7GmE9vUCQNHnpJVKw7L2kYNInJTReeqT- -eJRv0eA5xMfXxaEmQw7rBxZH2cuC1Dp5Pa3e_GNfUGceAVmJDaarn8NSeHPVcuYd1PrIGjkraBmiK4fpU3od00FHWkHWzcff8AP98SVh8QjXPp1830fz6LcYmxm9chk8fCrA4BmOsFcN_hCIpZmc0yO-VmPgfKI_CiNMDyUR3uYD1ImmkgnghgGtt7vcfszeb9qoLz0acDskthUkNPi3UJLez9azFnolNhUQyfrN92VHweJjiylqwbjqeyARyWwrnXdemXwsEtPtTv2iPS75XOO1wiXSUQ9TMgeDZZ6K5ValB52lrw-bTOGQVaILdw6n0-u9AOFOVtfm8jCKkZfdGZ7FE2Yft3Gx2jKGoDVQTEN4uHT23NscNiMfBn5JzF2DqxghLf4CjrA9Cd8zUxmSDUpswpfbLvhIVk-9iLzm2JNaWTCfjl7IYt6gip19cf7ww8yObENsX1_q3h04ZqCpQjQmnq4_QSo2neitZlKPpw1jUESc4P48U5hCptvf5insmGVPtigUCXRRs_Hz-zeorUaPiFTkSN80BCQ2JhpsWXpUCEEuDSMQfc9k6LlZoVGZn_Mstb185eOWtHXypwgOUxK91bGfMKmi8NECWReTzHDJLToPGlf2VYEr0P6wk0OUkujU3P5e-XqF5e9LZp0RQM6r0l8szYZ6ko0eMzhNuA7Jcm0v9lXDBILqNGbLourz2ZCKUwQqnUcw2GUHcV9S2LW1jsy_MWp4iHW3gwlO7tZKI3U2yP2qALG7QgKO7x8_2Zv4K4lWSpeJvywKKvQoO-AcmJgZwq3N2QYNPd9TZEqW9oqelc5qsxK54RDZWlyESBspVZOKJmBlexISvMSAD-33Mu4l6mSlV5udly1WPii5bmFilhhwjJA9wmBnYLoJb4mRJu5e88S67-Nl-xZfANlz5W_BXK0bmKiq_lAC2OPBA3mLNCmbwQt36IfYbSLU1xTRd7C4gLkST12RMvno38rRd7KjUXlCPq2vIrcLbbqYmEOfhZ5e4LYMymfrH37S1CQMuoLazSozZErjR73lAesHiyAQgc3j90sLdopLjajauk_hFRrgtdD42t-jpGz1LvpArA_cCsJIj9AnQIOHyLe2bcN2aVrTIf5guuab_zLAK4BIpbJwkNAP9mqKgwMJAetcJ8pBNFv5dGEnQQOm4p80bLb2SGN7UL5HtdHKLvqb48TvOf1st_JRY4u7CeOrD_lRE_ilQ_N-qJZ-lRh6tx7uGm4JsuAUqNJ4NbZlJwzQY4bV0di7NDUpSKAdx-npl4zHbsV6xjzrF48Fp-wY0VWDhcdKd33t3h_rauCFkxM3gc6Dv848kXRsuehqp6tXL5Xzj7DzKdjazM2Ekj3yFk8S2WdW2iVOQxt7m00]--></g></svg>