<svg xmlns="http://www.w3.org/2000/svg" xmlns:xlink="http://www.w3.org/1999/xlink" contentStyleType="text/css" data-diagram-type="MINDMAP" height="286px" preserveAspectRatio="none" style="width:962px;height:286px;" version="1.1" viewBox="0 0 962 286" width="962px" zoomAndPan="magnify"><defs/><g><a href="/use-case/legal-entity-management/" target="_top" title="/use-case/legal-entity-management/" xlink:actuate="onRequest" xlink:href="/use-case/legal-entity-management/" xlink:show="new" xlink:title="/use-case/legal-entity-management/" xlink:type="simple"><text fill="#90EE90" font-family="'Roboto'" font-size="14" lengthAdjust="spacing" textLength="179.7646" x="17" y="147.2568">Legal Entity Management</text></a><a href="/use-case/legal-entity-management/identification-and-registration/" target="_top" title="/use-case/legal-entity-management/identification-and-registration/" xlink:actuate="onRequest" xlink:href="/use-case/legal-entity-management/identification-and-registration/" xlink:show="new" xlink:title="/use-case/legal-entity-management/identification-and-registration/" xlink:type="simple"><text fill="#90EE90" font-family="'Roboto'" font-size="14" lengthAdjust="spacing" textLength="196.6631" x="262.2148" y="82.4404">Identification &amp; Registration</text></a><path d="M205.2148,142.4102 L205.2148,142.597 L207.2148,142.0419 L209.2148,142.582 L211.2148,142.7654 L213.2148,141.776 L215.2148,142.4102 L215.2148,142.4102 L215.1889,142.3873 L216.8538,140.2595 L218.6494,138.2466 L220.5358,136.3136 L222.1091,134.1052 L224.1211,132.2826 L224.3561,132.3555 L224.4981,130.1234 L225.3262,128.1042 L226.238,126.1111 L226.6628,123.9667 L227.3438,121.9018 L227.3732,121.909 L227.9042,119.5185 L228.5693,117.1605 L229.1697,114.7868 L229.8937,112.443 L230.2148,110.002 L230.5048,110.0719 L231.0825,107.6928 L231.4733,105.2685 L232.1378,102.9103 L232.8151,100.5552 L233.0859,98.1021 L232.7798,98.007 L234.0185,96.1153 L234.2491,93.9107 L235.2461,91.944 L235.4539,89.7322 L236.3086,87.7213 L236.2857,87.7012 L238.3374,85.9135 L239.8548,83.656 L241.6875,81.6757 L243.5466,79.7187 L245.2148,77.5938 L245.2148,77.9637 L247.2148,77.5903 L249.2148,77.8491 L251.2148,77.0849 L253.2148,77.8465 L255.2148,77.5938" fill="none" style="stroke:#FF9900;stroke-width:1;"/><a href="/use-case/legal-entity-management/corporate-governance/" target="_top" title="/use-case/legal-entity-management/corporate-governance/" xlink:actuate="onRequest" xlink:href="/use-case/legal-entity-management/corporate-governance/" xlink:show="new" xlink:title="/use-case/legal-entity-management/corporate-governance/" xlink:type="simple"><text fill="#90EE90" font-family="'Roboto'" font-size="14" lengthAdjust="spacing" textLength="159.1406" x="262.2148" y="108.7373">Corporate Governance</text></a><path d="M205.2148,142.4102 L205.2148,142.597 L207.2148,142.0419 L209.2148,142.582 L211.2148,142.7654 L213.2148,141.776 L215.2148,142.4102 L215.2148,142.4102 L215.1955,142.3815 L216.89,141.0494 L218.6819,139.8615 L220.5416,138.7739 L222.1678,137.3406 L224.1211,136.3915 L224.3446,136.4944 L225.0854,133.6262 L226.4787,131.0583 L227.9517,128.5271 L228.9615,125.7827 L230.2148,123.1504 L230.2424,123.1631 L231.4207,120.4962 L232.7244,117.8871 L233.9676,115.2502 L235.3263,112.6663 L236.3086,109.9093 L236.4756,110.1564 L238.2589,108.9557 L239.9345,107.5956 L241.7677,106.4688 L243.6083,105.353 L245.2148,103.8906 L245.2148,103.2496 L247.2148,104.4937 L249.2148,103.6271 L251.2148,104.3651 L253.2148,103.4506 L255.2148,103.8906" fill="none" style="stroke:#FF9900;stroke-width:1;"/><a href="/use-case/legal-entity-management/ownership-and-capital-structure/" target="_top" title="/use-case/legal-entity-management/ownership-and-capital-structure/" xlink:actuate="onRequest" xlink:href="/use-case/legal-entity-management/ownership-and-capital-structure/" xlink:show="new" xlink:title="/use-case/legal-entity-management/ownership-and-capital-structure/" xlink:type="simple"><text fill="#90EE90" font-family="'Roboto'" font-size="14" lengthAdjust="spacing" textLength="213.4453" x="262.2148" y="135.0342">Ownership &amp; Capital Structure</text></a><a href="/use-case/legal-entity-management/ownership-and-capital-structure/ownership/" target="_top" title="/use-case/legal-entity-management/ownership-and-capital-structure/ownership/" xlink:actuate="onRequest" xlink:href="/use-case/legal-entity-management/ownership-and-capital-structure/ownership/" xlink:show="new" xlink:title="/use-case/legal-entity-management/ownership-and-capital-structure/ownership/" xlink:type="simple"><text fill="#90EE90" font-family="'Roboto'" font-size="14" lengthAdjust="spacing" textLength="74.6553" x="541.1104" y="27.9951">Ownership</text></a><path d="M484.1104,130.1875 L484.1104,130.3743 L486.1104,129.8192 L488.1104,130.3593 L490.1104,130.5428 L492.1104,129.5534 L494.1104,130.1875 L494.1104,130.1875 L494.0799,130.1713 L495.7243,126.7534 L497.5224,123.4174 L499.4274,120.1383 L500.9641,116.6632 L503.0166,113.4626 L503.2584,113.5081 L503.3858,109.9823 L504.2193,106.5892 L505.1389,103.2123 L505.5573,99.7412 L506.2393,96.3197 L506.2693,96.3241 L506.7994,92.3873 L507.4662,88.4705 L508.0671,84.544 L508.7937,80.6359 L509.1104,76.668 L509.4055,76.7111 L509.9833,72.7813 L510.3708,68.8236 L511.0369,64.9067 L511.7161,60.9917 L511.9814,57.0163 L511.6664,56.957 L512.9223,53.6434 L513.141,50.1347 L514.1482,46.7743 L514.3433,43.2612 L515.2041,39.8733 L515.1772,39.859 L517.2763,36.6832 L518.7475,33.1732 L520.5892,29.8604 L522.4619,26.5641 L524.1104,23.1484 L524.1104,23.5184 L526.1104,23.145 L528.1104,23.4037 L530.1104,22.6396 L532.1104,23.4012 L534.1104,23.1484" fill="none" style="stroke:#FF9900;stroke-width:1;"/><a href="/use-case/legal-entity-management/ownership-and-capital-structure/control/" target="_top" title="/use-case/legal-entity-management/ownership-and-capital-structure/control/" xlink:actuate="onRequest" xlink:href="/use-case/legal-entity-management/ownership-and-capital-structure/control/" xlink:show="new" xlink:title="/use-case/legal-entity-management/ownership-and-capital-structure/control/" xlink:type="simple"><text fill="#90EE90" font-family="'Roboto'" font-size="14" lengthAdjust="spacing" textLength="50.9141" x="541.1104" y="54.292">Control</text></a><path d="M484.1104,130.1875 L484.1104,130.3743 L486.1104,129.8192 L488.1104,130.3593 L490.1104,130.5428 L492.1104,129.5534 L494.1104,130.1875 L494.1104,130.1875 L494.0821,130.1676 L495.7367,127.555 L497.5336,125.0428 L499.4294,122.6005 L500.9843,119.9175 L503.0166,117.5715 L503.2554,117.631 L503.3893,114.9175 L504.2204,112.3777 L505.1365,109.8591 L505.5577,107.2172 L506.2393,104.6402 L506.269,104.6459 L506.7995,101.6727 L507.4656,98.7258 L508.0663,95.7661 L508.7917,92.8307 L509.1104,89.8164 L509.4032,89.8731 L509.981,86.9091 L510.3699,83.9084 L511.0353,80.9613 L511.7136,78.0167 L511.9814,74.9926 L511.6704,74.9151 L512.9186,72.4793 L513.1426,69.7882 L514.1452,67.2912 L514.3461,64.5944 L515.2041,62.0613 L515.1792,62.0437 L517.2546,59.7282 L518.7489,57.0024 L520.5861,54.5187 L522.4521,52.0553 L524.1104,49.4453 L524.1104,49.8153 L526.1104,49.4418 L528.1104,49.7006 L530.1104,48.9365 L532.1104,49.6981 L534.1104,49.4453" fill="none" style="stroke:#FF9900;stroke-width:1;"/><a href="/use-case/legal-entity-management/ownership-and-capital-structure/shares/" target="_top" title="/use-case/legal-entity-management/ownership-and-capital-structure/shares/" xlink:actuate="onRequest" xlink:href="/use-case/legal-entity-management/ownership-and-capital-structure/shares/" xlink:show="new" xlink:title="/use-case/legal-entity-management/ownership-and-capital-structure/shares/" xlink:type="simple"><text fill="#90EE90" font-family="'Roboto'" font-size="14" lengthAdjust="spacing" textLength="142.4746" x="541.1104" y="80.5889">Shares &amp; Ownership</text></a><path d="M484.1104,130.1875 L484.1104,130.3743 L486.1104,129.8192 L488.1104,130.3593 L490.1104,130.5428 L492.1104,129.5534 L494.1104,130.1875 L494.1104,130.1875 L494.0865,130.1625 L495.7607,128.349 L497.5551,126.6614 L499.4332,125.0613 L501.0231,123.1596 L503.0166,121.6804 L503.2506,121.7566 L503.969,117.8506 L505.3705,114.167 L506.8554,110.5105 L507.8554,106.6962 L509.1104,102.9648 L509.1392,102.9742 L510.3156,99.2173 L511.6233,95.5032 L512.8677,91.7684 L514.2329,88.073 L515.2041,84.2493 L515.4101,84.4649 L517.1939,82.7662 L518.8448,80.9283 L520.6902,79.294 L522.5447,77.6693 L524.1104,75.7422 L524.1104,75.1011 L526.1104,76.3453 L528.1104,75.4786 L530.1104,76.2167 L532.1104,75.3022 L534.1104,75.7422" fill="none" style="stroke:#FF9900;stroke-width:1;"/><a href="/use-case/legal-entity-management/ownership-and-capital-structure/share-capital/" target="_top" title="/use-case/legal-entity-management/ownership-and-capital-structure/share-capital/" xlink:actuate="onRequest" xlink:href="/use-case/legal-entity-management/ownership-and-capital-structure/share-capital/" xlink:show="new" xlink:title="/use-case/legal-entity-management/ownership-and-capital-structure/share-capital/" xlink:type="simple"><text fill="#90EE90" font-family="'Roboto'" font-size="14" lengthAdjust="spacing" textLength="94.2471" x="541.1104" y="106.8857">Share Capital</text></a><path d="M484.1104,130.1875 L484.1104,130.3743 L486.1104,129.8192 L488.1104,130.3593 L490.1104,130.5428 L492.1104,129.5534 L494.1104,130.1875 L494.1104,130.1875 L494.0951,130.1565 L495.8077,129.1379 L497.5974,128.2754 L499.4407,127.5214 L501.0993,126.3934 L503.0166,125.7893 L503.2248,125.9204 L503.9983,123.7048 L505.3797,121.8721 L506.8353,120.086 L507.8593,118.0282 L509.1104,116.1133 L509.136,116.1294 L510.3171,114.1705 L511.615,112.2852 L512.8565,110.3643 L514.2056,108.5112 L515.2041,106.4373 L515.3362,106.7047 L517.119,105.8283 L518.8167,104.7794 L520.6391,103.9831 L522.4673,103.1985 L524.1104,102.0391 L524.1104,101.398 L526.1104,102.6422 L528.1104,101.7755 L530.1104,102.5136 L532.1104,101.599 L534.1104,102.0391" fill="none" style="stroke:#FF9900;stroke-width:1;"/><a href="/use-case/legal-entity-management/ownership-and-capital-structure/issued-capital/" target="_top" title="/use-case/legal-entity-management/ownership-and-capital-structure/issued-capital/" xlink:actuate="onRequest" xlink:href="/use-case/legal-entity-management/ownership-and-capital-structure/issued-capital/" xlink:show="new" xlink:title="/use-case/legal-entity-management/ownership-and-capital-structure/issued-capital/" xlink:type="simple"><text fill="#90EE90" font-family="'Roboto'" font-size="14" lengthAdjust="spacing" textLength="98.6289" x="541.1104" y="133.1826">Issued Capital</text></a><path d="M484.1104,130.1875 L484.1104,130.3743 L486.1104,129.8192 L488.1104,130.3593 L490.1104,130.5428 L492.1104,129.5534 L494.1104,130.1875 L494.1104,130.1875 L494.1082,130.153 L497.0987,129.8132 L500.0999,129.6471 L503.1085,129.6018 L506.0914,129.1402 L509.1104,129.2617 L509.1255,129.5073 L512.0931,128.797 L515.1049,128.8037 L518.1222,128.8979 L521.108,128.483 L524.1104,128.3359 L524.1104,128.3966 L526.1104,128.3075 L528.1104,128.4946 L530.1104,128.5485 L532.1104,128.8566 L534.1104,128.3359" fill="none" style="stroke:#FF9900;stroke-width:1;"/><a href="/use-case/legal-entity-management/ownership-and-capital-structure/corporate-actions/" target="_top" title="/use-case/legal-entity-management/ownership-and-capital-structure/corporate-actions/" xlink:actuate="onRequest" xlink:href="/use-case/legal-entity-management/ownership-and-capital-structure/corporate-actions/" xlink:show="new" xlink:title="/use-case/legal-entity-management/ownership-and-capital-structure/corporate-actions/" xlink:type="simple"><text fill="#90EE90" font-family="'Roboto'" font-size="14" lengthAdjust="spacing" textLength="125.8223" x="541.1104" y="174.4795">Corporate Actions</text></a><polygon fill="#4051B5" points="729.3828,98.8906,729.3828,99.1008,739.2534,98.4763,749.124,99.0839,758.9946,99.2903,768.8652,98.1772,778.7358,98.8129,788.6064,98.4641,798.4771,98.5071,808.3477,98.8225,818.2183,98.1993,828.0889,99.4443,837.9595,98.2603,847.8301,98.6929,857.7007,99.3226,867.5713,98.8048,877.4419,98.9589,887.3125,98.8587,897.1831,99.0692,907.0537,99.1298,916.9243,99.4763,926.7949,99.5617,936.6655,99.5699,946.5361,98.8906,946.5686,98.969,947.161,99.2677,947.7571,99.5755,948.1412,99.3715,948.8854,100.0368,949.3646,100.0622,949.2732,100.0244,949.7633,100.696,949.6807,101.1304,950.0464,101.7505,950.5302,102.4195,950.5361,102.8906,950.5199,102.8906,950.5712,108.55,950.649,114.2094,950.6749,119.8688,950.5348,125.5281,950.5361,131.1875,950.6246,131.2241,950.1255,131.6802,950.1551,132.3551,950.002,132.9545,949.7358,133.5069,949.3646,134.0159,949.4428,134.2047,948.7373,134.1015,948.15,134.2837,947.5882,134.5275,947.0943,134.9351,946.5361,135.1875,946.5361,134.991,936.6655,135.8689,926.7949,135.0128,916.9243,134.8444,907.0537,135.4158,897.1831,134.5207,887.3125,134.6684,877.4419,135.8365,867.5713,135.6232,857.7007,135.922,847.8301,134.8657,837.9595,135.5067,828.0889,135.7779,818.2183,134.7151,808.3477,135.0916,798.4771,135.3135,788.6064,135.8393,778.7358,135.1833,768.8652,135.6501,758.9946,134.6337,749.124,134.5102,739.2534,135.6911,729.3828,135.1875,729.2914,134.9667,728.8821,135.1099,728.2778,134.7825,727.6516,134.402,727.0749,134.1413,726.5544,134.0159,726.6957,134.0744,726.2279,133.4121,726.268,132.9601,725.6812,132.2484,725.8073,131.8319,725.3828,131.1875,725.5442,131.1875,725.4645,125.5281,725.3986,119.8688,725.625,114.2094,725.5873,108.55,725.3828,102.8906,725.4349,102.9122,725.6997,102.3592,725.8113,101.7426,726.3064,101.285,726.3678,100.6476,726.5544,100.0622,726.5764,100.1153,727.0425,99.6405,727.6341,99.4688,728.3191,99.5227,728.8719,99.2573,729.3828,98.8906" style="stroke:#FF6F00;stroke-width:1.5;"/><a href="/use-case/legal-entity-management/ownership-and-capital-structure/corporate-actions/merger-and-acquisition-history/" target="_top" title="/use-case/legal-entity-management/ownership-and-capital-structure/corporate-actions/merger-and-acquisition-history/" xlink:actuate="onRequest" xlink:href="/use-case/legal-entity-management/ownership-and-capital-structure/corporate-actions/merger-and-acquisition-history/" xlink:show="new" xlink:title="/use-case/legal-entity-management/ownership-and-capital-structure/corporate-actions/merger-and-acquisition-history/" xlink:type="simple"><text fill="#90EE90" font-family="'Roboto'" font-size="14" lengthAdjust="spacing" textLength="200.7031" x="735.3828" y="121.8857">Merger &amp; Acquisition History</text></a><path d="M675.3828,169.6328 L675.3828,169.8196 L677.3828,169.2645 L679.3828,169.8046 L681.3828,169.9881 L683.3828,168.9987 L685.3828,169.6328 L685.3828,169.6328 L685.3594,169.6074 L687.0355,167.8499 L688.8297,166.2204 L690.706,164.6799 L692.2994,162.8328 L694.2891,161.415 L694.5222,161.4936 L695.2424,157.7097 L696.6433,154.1553 L698.1272,150.6289 L699.1279,146.9396 L700.3828,143.3359 L700.4116,143.3456 L701.5881,139.7156 L702.8955,136.1296 L704.1398,132.5224 L705.5045,128.9558 L706.4766,125.2568 L706.6788,125.476 L708.4625,123.8352 L710.1158,122.0529 L711.96,120.4776 L713.8132,118.912 L715.3828,117.0391 L715.3828,116.398 L717.3828,117.6422 L719.3828,116.7755 L721.3828,117.5136 L723.3828,116.599 L725.3828,117.0391" fill="none" style="stroke:#FF9900;stroke-width:1;"/><a href="/use-case/legal-entity-management/ownership-and-capital-structure/corporate-actions/spin-offs/" target="_top" title="/use-case/legal-entity-management/ownership-and-capital-structure/corporate-actions/spin-offs/" xlink:actuate="onRequest" xlink:href="/use-case/legal-entity-management/ownership-and-capital-structure/corporate-actions/spin-offs/" xlink:show="new" xlink:title="/use-case/legal-entity-management/ownership-and-capital-structure/corporate-actions/spin-offs/" xlink:type="simple"><text fill="#90EE90" font-family="'Roboto'" font-size="14" lengthAdjust="spacing" textLength="61.3047" x="732.3828" y="163.1826">Spin-offs</text></a><path d="M675.3828,169.6328 L675.3828,169.8196 L677.3828,169.2645 L679.3828,169.8046 L681.3828,169.9881 L683.3828,168.9987 L685.3828,169.6328 L685.3828,169.6328 L685.3706,169.6005 L688.316,168.3257 L691.3227,167.2139 L694.3721,166.2154 L697.2745,164.8265 L700.3828,163.9844 L700.4695,164.2147 L703.2841,162.5925 L706.3518,161.6427 L709.4505,160.775 L712.3694,159.4299 L715.3828,158.3359 L715.3828,158.3966 L717.3828,158.3075 L719.3828,158.4946 L721.3828,158.5485 L723.3828,158.8566 L725.3828,158.3359" fill="none" style="stroke:#FF9900;stroke-width:1;"/><a href="/use-case/legal-entity-management/ownership-and-capital-structure/corporate-actions/parents-and-subsidiaries/" target="_top" title="/use-case/legal-entity-management/ownership-and-capital-structure/corporate-actions/parents-and-subsidiaries/" xlink:actuate="onRequest" xlink:href="/use-case/legal-entity-management/ownership-and-capital-structure/corporate-actions/parents-and-subsidiaries/" xlink:show="new" xlink:title="/use-case/legal-entity-management/ownership-and-capital-structure/corporate-actions/parents-and-subsidiaries/" xlink:type="simple"><text fill="#90EE90" font-family="'Roboto'" font-size="14" lengthAdjust="spacing" textLength="173.0244" x="732.3828" y="189.4795">Parents and Subsidiaries</text></a><path d="M675.3828,169.6328 L675.3828,169.8196 L677.3828,169.2645 L679.3828,169.8046 L681.3828,169.9881 L683.3828,168.9987 L685.3828,169.6328 L685.3828,169.6328 L685.3674,169.6019 L688.298,170.9633 L691.3066,172.4804 L694.3693,174.1057 L697.2454,175.358 L700.3828,177.1328 L700.4929,177.3529 L703.2575,178.3823 L706.3435,180.0542 L709.4687,181.8045 L712.3658,183.0987 L715.3828,184.6328 L715.3828,184.6935 L717.3828,184.6044 L719.3828,184.7915 L721.3828,184.8454 L723.3828,185.1534 L725.3828,184.6328" fill="none" style="stroke:#FF9900;stroke-width:1;"/><a href="/use-case/legal-entity-management/ownership-and-capital-structure/corporate-actions/stock-splits/" target="_top" title="/use-case/legal-entity-management/ownership-and-capital-structure/corporate-actions/stock-splits/" xlink:actuate="onRequest" xlink:href="/use-case/legal-entity-management/ownership-and-capital-structure/corporate-actions/stock-splits/" xlink:show="new" xlink:title="/use-case/legal-entity-management/ownership-and-capital-structure/corporate-actions/stock-splits/" xlink:type="simple"><text fill="#90EE90" font-family="'Roboto'" font-size="14" lengthAdjust="spacing" textLength="81.5322" x="732.3828" y="215.7764">Stock Splits</text></a><path d="M675.3828,169.6328 L675.3828,169.8196 L677.3828,169.2645 L679.3828,169.8046 L681.3828,169.9881 L683.3828,168.9987 L685.3828,169.6328 L685.3828,169.6328 L685.3625,169.6048 L687.0529,170.7698 L688.8453,172.0758 L690.7088,173.4799 L692.3275,174.5461 L694.2891,176.0854 L694.5152,176.1825 L695.2504,178.8141 L696.6458,181.7291 L698.1217,184.6787 L699.129,187.4271 L700.3828,190.2813 L700.4107,190.2932 L701.5885,193.1148 L702.8932,195.9909 L704.1367,198.8407 L705.497,201.7406 L706.4766,204.4771 L706.6515,204.7186 L708.4349,206.0121 L710.1055,207.1497 L711.9412,208.5155 L713.7847,209.8919 L715.3828,210.9297 L715.3828,210.2886 L717.3828,211.5328 L719.3828,210.6661 L721.3828,211.4042 L723.3828,210.4897 L725.3828,210.9297" fill="none" style="stroke:#FF9900;stroke-width:1;"/><a href="/use-case/legal-entity-management/ownership-and-capital-structure/corporate-actions/dividends/" target="_top" title="/use-case/legal-entity-management/ownership-and-capital-structure/corporate-actions/dividends/" xlink:actuate="onRequest" xlink:href="/use-case/legal-entity-management/ownership-and-capital-structure/corporate-actions/dividends/" xlink:show="new" xlink:title="/use-case/legal-entity-management/ownership-and-capital-structure/corporate-actions/dividends/" xlink:type="simple"><text fill="#90EE90" font-family="'Roboto'" font-size="14" lengthAdjust="spacing" textLength="69.3984" x="732.3828" y="242.0732">Dividends</text></a><path d="M675.3828,169.6328 L675.3828,169.8196 L677.3828,169.2645 L679.3828,169.8046 L681.3828,169.9881 L683.3828,168.9987 L685.3828,169.6328 L685.3828,169.6328 L685.3564,169.6105 L687.0192,171.6229 L688.815,173.7475 L690.7034,175.9502 L692.2729,177.8839 L694.2891,180.1943 L694.5249,180.2645 L694.6651,182.2795 L695.4939,184.4995 L696.4067,186.7444 L696.8306,188.8439 L697.5117,191.0199 L697.5413,191.0267 L698.0721,193.4987 L698.7375,196.0017 L699.3379,198.4897 L700.0622,201.0064 L700.3828,203.4297 L700.6734,203.4969 L701.2512,205.9797 L701.6415,208.4191 L702.3062,210.922 L702.9838,213.4279 L703.2539,215.8395 L702.9467,215.748 L704.1875,218.0906 L704.4167,220.1321 L705.4149,222.4025 L705.6212,224.4372 L706.4766,226.665 L706.4533,226.6454 L708.5098,228.9898 L710.0225,230.8757 L711.8561,233.0321 L713.7166,235.2113 L715.3828,237.2266 L715.3828,237.5965 L717.3828,237.2231 L719.3828,237.4819 L721.3828,236.7177 L723.3828,237.4794 L725.3828,237.2266" fill="none" style="stroke:#FF9900;stroke-width:1;"/><path d="M484.1104,130.1875 L484.1104,130.3743 L486.1104,129.8192 L488.1104,130.3593 L490.1104,130.5428 L492.1104,129.5534 L494.1104,130.1875 L494.1104,130.1875 L494.0907,130.1591 L495.7837,131.2643 L497.5759,132.5127 L499.4369,133.8606 L501.0605,134.8655 L503.0166,136.3508 L503.241,136.4517 L503.9798,138.9479 L505.3739,141.7385 L506.848,144.5651 L507.8568,147.1827 L509.1104,149.9102 L509.138,149.9226 L510.3162,152.6162 L511.6202,155.3664 L512.8635,158.0893 L514.2228,160.8643 L515.2041,163.4695 L515.3738,163.7147 L517.1571,164.9504 L518.831,166.0279 L520.6651,167.3369 L522.5067,168.6568 L524.1104,169.6328 L524.1104,168.9918 L526.1104,170.2359 L528.1104,169.3693 L530.1104,170.1073 L532.1104,169.1928 L534.1104,169.6328" fill="none" style="stroke:#FF9900;stroke-width:1;"/><path d="M205.2148,142.4102 L205.2148,142.597 L207.2148,142.0419 L209.2148,142.582 L211.2148,142.7654 L213.2148,141.776 L215.2148,142.4102 L215.2148,142.4102 L215.2018,142.3782 L218.1433,141.0123 L221.1505,139.8078 L224.2034,138.7153 L227.0989,137.2365 L230.2148,136.2988 L230.3077,136.5267 L233.1092,134.8171 L236.1817,133.7729 L239.2873,132.8098 L242.2005,131.3745 L245.2148,130.1875 L245.2148,130.2482 L247.2148,130.1591 L249.2148,130.3462 L251.2148,130.4001 L253.2148,130.7081 L255.2148,130.1875" fill="none" style="stroke:#FF9900;stroke-width:1;"/><a href="/use-case/legal-entity-management/financial-information/" target="_top" title="/use-case/legal-entity-management/financial-information/" xlink:actuate="onRequest" xlink:href="/use-case/legal-entity-management/financial-information/" xlink:show="new" xlink:title="/use-case/legal-entity-management/financial-information/" xlink:type="simple"><text fill="#90EE90" font-family="'Roboto'" font-size="14" lengthAdjust="spacing" textLength="148.0596" x="262.2148" y="161.3311">Financial Information</text></a><path d="M205.2148,142.4102 L205.2148,142.597 L207.2148,142.0419 L209.2148,142.582 L211.2148,142.7654 L213.2148,141.776 L215.2148,142.4102 L215.2148,142.4102 L215.2002,142.3789 L218.1343,143.646 L221.1425,145.0707 L224.202,146.605 L227.0843,147.7617 L230.2148,149.4473 L230.3194,149.67 L233.0959,150.6011 L236.1775,152.1825 L239.2964,153.8433 L242.1987,155.0424 L245.2148,156.4844 L245.2148,156.545 L247.2148,156.456 L249.2148,156.6431 L251.2148,156.6969 L253.2148,157.005 L255.2148,156.4844" fill="none" style="stroke:#FF9900;stroke-width:1;"/><a href="/use-case/legal-entity-management/lifecycle-and-status/" target="_top" title="/use-case/legal-entity-management/lifecycle-and-status/" xlink:actuate="onRequest" xlink:href="/use-case/legal-entity-management/lifecycle-and-status/" xlink:show="new" xlink:title="/use-case/legal-entity-management/lifecycle-and-status/" xlink:type="simple"><text fill="#90EE90" font-family="'Roboto'" font-size="14" lengthAdjust="spacing" textLength="125.8428" x="262.2148" y="187.6279">Lifecycle &amp; Status</text></a><path d="M205.2148,142.4102 L205.2148,142.597 L207.2148,142.0419 L209.2148,142.582 L211.2148,142.7654 L213.2148,141.776 L215.2148,142.4102 L215.2148,142.4102 L215.1949,142.382 L216.8865,143.5171 L218.6788,144.7943 L220.5411,146.1702 L222.1622,147.2058 L224.1211,148.7181 L224.3464,148.8171 L225.0834,151.381 L226.4781,154.2338 L227.9531,157.1219 L228.9612,159.8049 L230.2148,162.5957 L230.2426,162.6079 L231.4206,165.3655 L232.725,168.1786 L233.9684,170.965 L235.3282,173.8024 L236.3086,176.4733 L236.481,176.7167 L238.2643,177.9812 L239.9365,179.0888 L241.7714,180.4262 L243.614,181.7743 L245.2148,182.7813 L245.2148,182.1402 L247.2148,183.3844 L249.2148,182.5177 L251.2148,183.2557 L253.2148,182.3412 L255.2148,182.7813" fill="none" style="stroke:#FF9900;stroke-width:1;"/><a href="/use-case/legal-entity-management/contact-and-location-information/" target="_top" title="/use-case/legal-entity-management/contact-and-location-information/" xlink:actuate="onRequest" xlink:href="/use-case/legal-entity-management/contact-and-location-information/" xlink:show="new" xlink:title="/use-case/legal-entity-management/contact-and-location-information/" xlink:type="simple"><text fill="#90EE90" font-family="'Roboto'" font-size="14" lengthAdjust="spacing" textLength="219.4814" x="262.2148" y="213.9248">Contact &amp; Location Information</text></a><path d="M205.2148,142.4102 L205.2148,142.597 L207.2148,142.0419 L209.2148,142.582 L211.2148,142.7654 L213.2148,141.776 L215.2148,142.4102 L215.2148,142.4102 L215.1886,142.3877 L216.852,144.3704 L218.6478,146.4661 L220.5356,148.6406 L222.1063,150.544 L224.1211,152.827 L224.3567,152.8981 L224.4974,154.8815 L225.326,157.0725 L226.2385,159.2889 L226.6627,161.3578 L227.3438,163.5043 L227.3733,163.5112 L227.9041,165.949 L228.5694,168.4184 L229.1699,170.8725 L229.8941,173.3556 L230.2148,175.7441 L230.5052,175.8123 L231.083,178.261 L231.4735,180.6659 L232.1381,183.1351 L232.8156,185.6073 L233.0859,187.984 L232.7791,187.8913 L234.0192,190.2066 L234.2488,192.2168 L235.2467,194.4589 L235.4534,196.4622 L236.3086,198.6613 L236.2855,198.6415 L238.3404,200.9588 L239.8546,202.8139 L241.6879,204.9418 L243.548,207.0926 L245.2148,209.0781 L245.2148,209.4481 L247.2148,209.0747 L249.2148,209.3334 L251.2148,208.5693 L253.2148,209.3309 L255.2148,209.0781" fill="none" style="stroke:#FF9900;stroke-width:1;"/><a href="/use-case/legal-entity-management/compliance-and-documentation/" target="_top" title="/use-case/legal-entity-management/compliance-and-documentation/" xlink:actuate="onRequest" xlink:href="/use-case/legal-entity-management/compliance-and-documentation/" xlink:show="new" xlink:title="/use-case/legal-entity-management/compliance-and-documentation/" xlink:type="simple"><text fill="#90EE90" font-family="'Roboto'" font-size="14" lengthAdjust="spacing" textLength="210.1504" x="262.2148" y="240.2217">Compliance &amp; Documentation</text></a><path d="M205.2148,142.4102 L205.2148,142.597 L207.2148,142.0419 L209.2148,142.582 L211.2148,142.7654 L213.2148,141.776 L215.2148,142.4102 L215.2148,142.4102 L215.1854,142.3921 L216.8345,145.2162 L218.632,148.1314 L220.5328,151.1098 L222.0779,153.8701 L224.1211,156.9359 L224.3616,156.988 L224.4918,159.8544 L225.3242,162.8729 L226.2423,165.9099 L226.662,168.839 L227.3438,171.8248 L227.3737,171.8298 L227.904,175.236 L228.5704,178.6651 L229.1712,182.0831 L229.8973,185.5222 L230.2148,188.8926 L230.509,188.9421 L231.0868,192.3562 L231.4749,195.7385 L232.1407,199.1674 L232.8195,202.5986 L233.0859,205.9603 L232.7727,205.8925 L234.0252,209.0019 L234.2462,211.888 L235.2514,214.9439 L235.449,217.8249 L236.3086,220.8492 L236.2826,220.8333 L238.3708,223.9267 L239.8526,226.6482 L241.6922,229.5892 L243.5619,232.5485 L245.2148,235.375 L245.2148,235.745 L247.2148,235.3715 L249.2148,235.6303 L251.2148,234.8662 L253.2148,235.6278 L255.2148,235.375" fill="none" style="stroke:#FF9900;stroke-width:1;"/><a href="/use-case/legal-entity-management/supporting-information/" target="_top" title="/use-case/legal-entity-management/supporting-information/" xlink:actuate="onRequest" xlink:href="/use-case/legal-entity-management/supporting-information/" xlink:show="new" xlink:title="/use-case/legal-entity-management/supporting-information/" xlink:type="simple"><text fill="#90EE90" font-family="'Roboto'" font-size="14" lengthAdjust="spacing" textLength="162.7295" x="262.2148" y="266.5186">Supporting Information</text></a><path d="M205.2148,142.4102 L205.2148,142.597 L207.2148,142.0419 L209.2148,142.582 L211.2148,142.7654 L213.2148,141.776 L215.2148,142.4102 L215.2148,142.4102 L215.1901,142.3861 L216.075,143.303 L217.0848,144.3412 L218.1814,145.4638 L218.9789,146.2956 L220.1953,147.5347 L220.4316,147.6033 L220.7115,150.1585 L221.6812,152.9142 L222.7351,155.6943 L223.2993,158.3321 L224.1211,161.0448 L224.151,161.0498 L224.7516,164.8625 L225.4884,168.6982 L226.1595,172.5228 L226.9559,176.3685 L227.3438,180.1453 L227.6395,180.1841 L228.2173,184.5637 L228.6044,188.9183 L229.2707,193.3095 L229.9501,197.7025 L230.2148,202.041 L229.897,201.9993 L231.0881,206.4594 L231.2326,210.7822 L232.1727,215.2093 L232.2936,219.529 L233.0859,223.9367 L233.0559,223.9317 L234.0555,227.8117 L234.3536,231.5733 L235.0657,235.4048 L235.8125,239.2422 L236.3086,243.0372 L236.4862,243.0889 L237.0921,245.7388 L238.0015,248.4769 L238.4198,251.0723 L239.5706,253.8806 L240.2344,256.5473 L240.4091,256.7172 L241.3721,257.71 L242.4219,258.787 L243.0687,259.4724 L244.0109,260.445 L245.2148,261.6719 L245.2148,261.1195 L247.2148,261.6195 L249.2148,261.4972 L251.2148,262.2776 L253.2148,261.5166 L255.2148,261.6719" fill="none" style="stroke:#FF9900;stroke-width:1;"/><!--SRC=[xLd_RzCu5FyzVuMFIGU8Arrt0m52YAxxmg1TftP3EY4qkOdJMatjO3iRlTFzx_ViD8cJVbbJ6WvG-yjQlvVt-RndEtx-xArKMAW9PTu4XuxpcqTyoWWwEhlfDCylRbhTThU7p6VlSFzPO_3CTkcVjBeNnytUNpE_1IwNpTQ7vjb96cZEfTixFkdPE6ZFzv_x-_kfosdtuYhdO5pqnt7acB8G2pn10-oEXu97p6lnW8l4KGdC97WGfYpdTzEGY3PbOziNxGLqE593GGXpd8U8CZU8F8BKYA0XOKJW0AKX9FBXmG5Nep-GUGnXvY4FYp4ygJZYjqJS2Qe8kgDg5CUWjuGXIPIYR2YB5RXwTzxwS77IxwC6J0CF5UKCZI2eZgBWGHy7abWvN6BFWq3eq1hhnVaB88jUMEFz4VRudVOkHZ6L2A0IrympNyZCnV8v9ZwE0eN-SKuvKnTuGj237eVS-GCp4XSncoOpsAT_4zGuTFwr8pM5u7SGP-4JYyEeQG0rue6NZnJ2TECXcN6QU_Iei1fowzavuWAIdLci1GWG6GBZNfdmkOM-7eBB9o5di381PaF22zd5DOicmK6-PXvMU80bsJ9S3iCDUEHL2i23WBXwTyYjmsGeBN0GFAWGuKY7n69Q8SG9KrHL2K2P8iB7BgaGeq- -H8Ivv1AEAUhI43CL1xiQKNVCY9JmmipSvSmT6DbFh2Gt5te1JyidUoqnBYOuADhcqcbJdy1XGvO6JnrMqZGlpxdWPdHfP6DTICfOiXh-wJHTnSKz38pBKYnjNRQ17wBM8T9LWqC8VkpT-x7tl80DZzam8AzVmsabENlp1kQt3ukFS0K7sDBJOrldGd755S_i_2lAeak-0ac6WvljyouqNnMGbrEfoEJdg_NsULTKw-H0_ZbAdR7z-IfjBPF1xE2DMHSQutmMfeVTlx_RsoZtrOd51uo7vOXuw-IwC5KNW36SAsBTNA5VNxsKAiXqzHJQHxl2Qb6daLmfC_3aUjXKIj11fCYyoIQLN3WBZIoMicAqXwWJNxoH38bBVUf2al4HENSFMP_7lQdXh97OEprz-HBi1QFTMpdEanlqwHEgHvBKNDZ_zO0CSL0ZfhkiJJ23UzW4VjLHMnkIjhEJ6j3dpywJTODGJuz1AR3kyMjm0Qu9CgGIBl9we8xESmxeTzIppAMWN2v23i-Hsb1Vrnc6lh4EhVzi59sbewN2yZlOSN94GqFUnI5Lu0SC8rT50X2wYGEGRyLcQ8rcvXXgMrYftKRTAe8RtvJgwPLfgz7b20iYwrh0WBzGhugoC3Z9-0mkdPkj8b4f8-9bKEVcTpLOsGB7yOtPNjtDsIKwHdnI5UA4Y24HnXsxNo8ggTdN8zYoN4phg6FiCBFDp8hUnTQ4MsNba25bDUxxUeKbNoi7ZTL8QVnbD93KerXGlSelOukH4lkMfVewAEwEQp8CgDAbqB-W8FfNvT0UlTMlV0zmZvElfLwtFjMlQ0esodnz8O-FYTDa69rdmwK21t0hTwTkGEAPWkuZ0fBjP1IMRD-CbJnpe2LpbGaPyDaXboFUYZqWV7jctpW3BJ06L1zW1i_ZRgJ7Kw342bZ7jgqKY8n2c5AjQUVpwAVZHVvlOOxJ_pYypVy3ea95_mVMpfFMRKtXt7PV4A24P9xsZ4kwoyMzv0gH_5i3hjB4LyMOPx212buEO2tT-rj2hbIwomPUHzlUFEOADNlpe4lrwyr3hbAiDuzQYKQTq5cYJYVCIWlJIGABLEaaw391Ek5aIT7fxRUeGoUn2X9qplzU_Ja5B2hFQVIyw6njf8tqu-LlrZAhPNxolrKV_jwyxX7s_hSo_GYyrbPjlpER7wf8MnLS4nubirdAUgMusgXIJTrs9eNw_z9gwKuItKcYEqbq9udk9D6T9BgJH7UIw2yhYLu6S66_xhGHdBLIEpIU7kmVF7lQQ0o8metzHzTip61P6R6CGjaLdP37pgEpopQIF1B0tjF7lswluF77pdjyYr4lOjhl5Ug6XBq__f0CG7DoImLdchdp_cCdStX-M3kY2lM902BeOyT9nCmJvdAjdxv2rrUdjHTE6pha299_XGXpMj2GAJ45M_y_]--></g></svg>