<svg xmlns="http://www.w3.org/2000/svg" xmlns:xlink="http://www.w3.org/1999/xlink" contentStyleType="text/css" data-diagram-type="MINDMAP" height="127px" preserveAspectRatio="none" style="width:870px;height:127px;" version="1.1" viewBox="0 0 870 127" width="870px" zoomAndPan="magnify"><defs/><g><a href="/use-case/construction-project-quotations/proposal-submission-and-negotiation/" target="_top" title="/use-case/construction-project-quotations/proposal-submission-and-negotiation/" xlink:actuate="onRequest" xlink:href="/use-case/construction-project-quotations/proposal-submission-and-negotiation/" xlink:show="new" xlink:title="/use-case/construction-project-quotations/proposal-submission-and-negotiation/" xlink:type="simple"><text fill="#4051B5" font-family="'Roboto'" font-size="13" lengthAdjust="spacing" textLength="149.6016" x="350.708" y="67.1997">Proposal &amp; Negotiation</text></a><a href="/use-case/construction-project-quotations/proposal-submission-and-negotiation/proposal-document-generation/" target="_top" title="/use-case/construction-project-quotations/proposal-submission-and-negotiation/proposal-document-generation/" xlink:actuate="onRequest" xlink:href="/use-case/construction-project-quotations/proposal-submission-and-negotiation/proposal-document-generation/" xlink:show="new" xlink:title="/use-case/construction-project-quotations/proposal-submission-and-negotiation/proposal-document-generation/" xlink:type="simple"><text fill="#4051B5" font-family="'Roboto'" font-size="13" lengthAdjust="spacing" textLength="284.8892" x="565.4419" y="27.0669">Proposal Document Generation &amp; Assembly</text></a><path d="M508.4419,62.6992 L508.4419,62.886 L510.4419,62.3309 L512.4419,62.871 L514.4419,63.0545 L516.4419,62.0651 L518.4419,62.6992 L518.4419,62.6992 L518.422,62.671 L520.114,61.2901 L521.9063,60.0516 L523.7682,58.912 L525.39,57.4314 L527.3481,56.4285 L527.5732,56.5279 L528.3107,53.5562 L529.7052,50.8747 L531.18,48.2286 L532.1883,45.3765 L533.4419,42.6328 L533.4696,42.6451 L534.6477,39.8679 L535.952,37.1466 L537.1954,34.3984 L538.555,31.7015 L539.5356,28.8372 L539.7073,29.081 L541.4907,27.8299 L543.1633,26.4214 L544.998,25.2432 L546.8403,24.0758 L548.4419,22.5664 L548.4419,21.9254 L550.4419,23.1695 L552.4419,22.3028 L554.4419,23.0409 L556.4419,22.1264 L558.4419,22.5664" fill="none" style="stroke:#FF6F00;stroke-width:1;"/><a href="/use-case/construction-project-quotations/proposal-submission-and-negotiation/compliance-matrix-and-submission-packaging/" target="_top" title="/use-case/construction-project-quotations/proposal-submission-and-negotiation/compliance-matrix-and-submission-packaging/" xlink:actuate="onRequest" xlink:href="/use-case/construction-project-quotations/proposal-submission-and-negotiation/compliance-matrix-and-submission-packaging/" xlink:show="new" xlink:title="/use-case/construction-project-quotations/proposal-submission-and-negotiation/compliance-matrix-and-submission-packaging/" xlink:type="simple"><text fill="#4051B5" font-family="'Roboto'" font-size="13" lengthAdjust="spacing" textLength="285.2891" x="565.4419" y="52.1997">Compliance Matrix &amp; Submission Packaging</text></a><path d="M508.4419,62.6992 L508.4419,62.886 L510.4419,62.3309 L512.4419,62.871 L514.4419,63.0545 L516.4419,62.0651 L518.4419,62.6992 L518.4419,62.6992 L518.4264,62.6683 L521.3571,61.0297 L524.3657,59.5468 L527.4283,58.1721 L530.3045,56.4244 L533.4419,55.1992 L533.5519,55.4193 L536.3166,53.4487 L539.4026,52.1206 L542.5277,50.8709 L545.4248,49.1651 L548.4419,47.6992 L548.4419,47.7599 L550.4419,47.6708 L552.4419,47.8579 L554.4419,47.9118 L556.4419,48.2198 L558.4419,47.6992" fill="none" style="stroke:#FF6F00;stroke-width:1;"/><polygon fill="#4051B5" points="562.4419,70.2656,562.4419,70.4758,572.3223,69.8513,582.2027,70.4589,592.0831,70.6653,601.9635,69.5522,611.8439,70.1879,621.7242,69.8391,631.6046,69.8821,641.485,70.1975,651.3654,69.5743,661.2458,70.8193,671.1262,69.6353,681.0066,70.0679,690.887,70.6976,700.7674,70.1798,710.6478,70.3339,720.5282,70.2337,730.4086,70.4442,740.289,70.5048,750.1693,70.8513,760.0497,70.9367,769.9301,70.9449,779.8105,70.5203,789.6909,70.2656,789.7501,70.4084,790.3462,70.7162,790.7303,70.5122,791.4745,71.1775,791.9158,71.1116,792.5193,71.4372,792.6837,71.5053,792.6012,71.9397,792.9669,72.5598,793.4507,73.2289,793.4416,73.6937,793.6909,74.2656,793.726,74.2656,793.8038,79.6922,793.8297,85.1188,793.6896,90.5453,793.7867,95.9719,793.6909,101.3984,793.5146,101.3254,793.5442,102.0004,793.3911,102.5997,793.1249,103.1522,792.9424,103.7394,792.5193,104.2269,792.4577,104.0781,791.8705,104.2603,791.3087,104.5041,790.8148,104.9117,790.2315,105.1036,789.6909,105.3984,789.6909,106.0798,779.8105,105.2238,769.9301,105.0554,760.0497,105.6267,750.1693,104.7316,740.289,104.8793,730.4086,106.0474,720.5282,105.8341,710.6478,106.1329,700.7674,105.0766,690.887,105.7176,681.0066,105.9889,671.1262,104.926,661.2458,105.3026,651.3654,105.5244,641.485,106.0502,631.6046,105.3942,621.7242,105.861,611.8439,104.8447,601.9635,104.7212,592.0831,105.9021,582.2027,104.6815,572.3223,105.9074,562.4419,105.3984,562.4683,105.4621,561.842,105.0816,561.2654,104.8209,560.8034,104.8368,560.141,104.369,559.6135,104.2269,559.7957,104.3024,559.2089,103.5907,559.335,103.1743,559.0597,102.5916,558.7516,101.9954,558.4419,101.3984,558.4576,101.3984,558.6841,95.9719,558.6464,90.5453,558.4983,85.1188,558.5313,79.6922,558.4419,74.2656,558.4018,74.249,558.8968,73.7913,558.9582,73.154,559.198,72.5906,559.1918,71.9253,559.6135,71.4372,559.5618,71.3124,560.2469,71.3663,560.7997,71.1009,561.305,70.721,561.8351,70.4007,562.4419,70.2656" style="stroke:#FF6F00;stroke-width:1.5;"/><a href="/use-case/construction-project-quotations/proposal-submission-and-negotiation/negotiation-support-and-revisions/" target="_top" title="/use-case/construction-project-quotations/proposal-submission-and-negotiation/negotiation-support-and-revisions/" xlink:actuate="onRequest" xlink:href="/use-case/construction-project-quotations/proposal-submission-and-negotiation/negotiation-support-and-revisions/" xlink:show="new" xlink:title="/use-case/construction-project-quotations/proposal-submission-and-negotiation/negotiation-support-and-revisions/" xlink:type="simple"><text fill="#4051B5" font-family="'Roboto'" font-size="13" lengthAdjust="spacing" textLength="211.1167" x="568.4419" y="92.3325">Negotiation Support &amp; Revisions</text></a><path d="M508.4419,62.6992 L508.4419,62.886 L510.4419,62.3309 L512.4419,62.871 L514.4419,63.0545 L516.4419,62.0651 L518.4419,62.6992 L518.4419,62.6992 L518.4197,62.6727 L521.3202,65.0672 L524.3324,67.5951 L527.4224,70.2158 L530.2446,72.5168 L533.4419,75.2656 L533.5999,75.4542 L536.262,77.5642 L539.3854,80.2248 L542.5652,82.9526 L545.4174,85.2895 L548.4419,87.832 L548.4419,87.8927 L550.4419,87.8036 L552.4419,87.9907 L554.4419,88.0446 L556.4419,88.3526 L558.4419,87.832" fill="none" style="stroke:#FF6F00;stroke-width:1;"/><a href="/use-case/construction-project-quotations/" target="_top" title="/use-case/construction-project-quotations/" xlink:actuate="onRequest" xlink:href="/use-case/construction-project-quotations/" xlink:show="new" xlink:title="/use-case/construction-project-quotations/" xlink:type="simple"><text fill="#4051B5" font-family="'Roboto'" font-size="13" lengthAdjust="spacing" textLength="268.5757" x="14" y="67.1997">Complex Construction Project Quotations</text></a><path d="M343.708,62.6992 L343.708,62.886 L341.708,62.3309 L339.708,62.871 L337.708,63.0545 L335.708,62.0651 L333.708,62.6992 L333.708,62.6992 L333.708,62.6647 L327.708,62.5097 L321.708,62.5288 L315.708,62.6689 L309.708,62.3919 L303.708,62.6992 L303.708,63.1913 L301.708,62.139 L299.708,62.5234 L297.708,63.0832 L295.708,62.623 L293.708,62.6992" fill="none" style="stroke:#FF6F00;stroke-width:1;"/><!--SRC=[xLXhRzis5FskNy4rmDgYTHEdIL44HH77ST8cVirEEWn54T0IRNEMI9Max7Z3_likzR8aM_8ZTfSCzQT4F3htN98YxpsdKc6X7Cei1xk6yOj5-fGHT7PvrwXyRjvLM_LM1_c_lQE3utBlE0dfrggjvdcbyqU8Mm1fLwhNbSjQJ3G7QNNEQvra7BJNxx_h7np4a8jMyoO5y27w5qCgdKxhzpGcOZ7aY38N2-oW7ZP70y4zPbMvpGNQKm8p2ME4gGJiqzGbmgPi5A92nSPpH9bfUnP1QaZGW30Yi8tYzoJg0xh7rV0rikbWg11c5hAm6C6RYYC-9c8Yg29eGjKmuA1Zmf0aIb4saDavkVdqkNhTh7Mxg0mBmrr5EKD38DKi2bxiOrkIXF0sjYmWGaU9PvqWNG5YqVl4y-uGMtoYqLcMEFrRPlb_a12Im9oJFlPiXVusBZXJJUmGzAp38NV-p7yIpDniuVo7NVeNGUKZuvyaKqK8FW6UXMyifb5J6-Q8srQQoONLnGCIQffxzIop-AaTRfnn0Sc68uaj2I5c4HYtrg5FRVtL8fZSSJc3xGXXDXIyK5qmPvvZ7wRdpC8Azx0aMmwNYc7QtBDs6e3RDZ7rro6t7cOMfGe0mUqTHZZJb5XCTnYYnXHLkmn0cIAYZqsomnXTyjqZp2HjkBYeILtCL41sCwJcY14fuS2SmMK81qN9Dmh5pL4lq9d0p8ubneM3xUpON3frsYTrE5bpoMD0eKp_y9mZzv_cClkZ2qNv8xCvV6jKJCN54WK-93UM7itxW9-ZwX7IimQN4Fopj_IN_EO5VF2O3MpouGFSLfApZnzXVRkm-GXNS87btXxRkXUoEovxPwUFg8HSSWyY6RRljgyxKuxjGBoSIaMSfpVNszUzexcEBkIdCTKpjKzlfXFRf1TUl87gJ66SpiAlOG-MLtiRvLwSM731M5WEYRLAhWjJDI4mXdj5h9ehrEl5Msa7cHOluTfjIDJ0pN9w6zm_BUZ818MQtWfvT0CNji9-iIzH2JcULBek9mZt8TKePgOjI4GBMzFS7YVHg-Q9J9OIiyd8rExGkAlbPTRYcrufGNkU8lbrmBpMWWOcLUrZAJTJLHJWEMg4wo9TOj8-DI5_ltI09PeCTLUju0o2-bFg1VKNxpNgsHw1jMECw4948kufFJpVqcrPxOmVfsigQEIDLtVewrUqxqbICk7it0TzKWdFRs1Ahk1_WjZITu_3ykgMPXyUkLnYkoIzdaEbr33Ch18Z0wwe3zf7xH24VaNDsNFqxPlnQXVnOep5JS-1VhKKs24PCUVXABgCHq5WHKhYzEpfpjJfBjgc66h-aeDXfz_xYCGBWLK0csSVshe8Yne-5WHsOoHgHyX0xFQr9lu6cEjoeNoC86CgVPRKWdO328ZiH02jh5HQSng3lCczRcjZe5uu3KI_nK1DVahWouiCmjEqNxWzT-qH-rZHaRwYYPM4Bo1OmxwAtiiUJz6a9S-WoEyiDAmUIbZaJnLnp2lOm95QBy1A7jH3A0jTftM9L_6PDkSiS9Os9ytraZQdB7AFDcVTYLyKoSbnYY9bQvj4KGAB7AA8DCySYZGb2hY8RiuJYhWoTb0AlzGBYWDcNQ2OFMq09JwaZRoS_9DrdTqol_WFzMf-jAubJVP_DasFGTVA3ieFLlEe9cchvaUaOyriSbKN6XtbNJeRsyuaC__RSYusjXuMt9TRinsIJ9cxPDvjI5qpYsOkMuAku33a2rXAcUC2F83nPz__i-__N_NzRHlArDj67OsX5DBlbDyS7XmUlocNUqJXyi6BMpPYVCBy5f72EQAeGruQBoxRTIIv9s2UBIg3Wm1UVsbSuJ567Ozft0bgkOHTdLz73w2v65F1cTv4njMNnWpmxgXqHXNKz0A4e2yD8pf9QypasZKuGRSt5wNtHXtk1GyQwXD461n_m2kcCDRz5m00]--></g></svg>