<svg xmlns="http://www.w3.org/2000/svg" xmlns:xlink="http://www.w3.org/1999/xlink" contentStyleType="text/css" data-diagram-type="MINDMAP" height="130px" preserveAspectRatio="none" style="width:925px;height:130px;" version="1.1" viewBox="0 0 925 130" width="925px" zoomAndPan="magnify"><defs/><g><a href="/use-case/construction-project-quotations/proposal-submission-and-negotiation/" target="_top" title="/use-case/construction-project-quotations/proposal-submission-and-negotiation/" xlink:actuate="onRequest" xlink:href="/use-case/construction-project-quotations/proposal-submission-and-negotiation/" xlink:show="new" xlink:title="/use-case/construction-project-quotations/proposal-submission-and-negotiation/" xlink:type="simple"><text fill="#90EE90" font-family="'Roboto'" font-size="14" lengthAdjust="spacing" textLength="161.1094" x="371.6855" y="69.292">Proposal &amp; Negotiation</text></a><a href="/use-case/construction-project-quotations/proposal-submission-and-negotiation/proposal-document-generation/" target="_top" title="/use-case/construction-project-quotations/proposal-submission-and-negotiation/proposal-document-generation/" xlink:actuate="onRequest" xlink:href="/use-case/construction-project-quotations/proposal-submission-and-negotiation/proposal-document-generation/" xlink:show="new" xlink:title="/use-case/construction-project-quotations/proposal-submission-and-negotiation/proposal-document-generation/" xlink:type="simple"><text fill="#90EE90" font-family="'Roboto'" font-size="14" lengthAdjust="spacing" textLength="306.8037" x="598.2451" y="27.9951">Proposal Document Generation &amp; Assembly</text></a><path d="M541.2451,64.4453 L541.2451,64.6321 L543.2451,64.077 L545.2451,64.6171 L547.2451,64.8006 L549.2451,63.8112 L551.2451,64.4453 L551.2451,64.4453 L551.2249,64.4173 L552.9152,63.0013 L554.7076,61.7262 L556.5711,60.5492 L558.1898,59.0344 L560.1514,57.9927 L560.3775,58.0897 L561.1127,55.043 L562.5081,52.2797 L563.984,49.5509 L564.9913,46.621 L566.2451,43.7969 L566.273,43.8088 L567.4508,40.9521 L568.7555,38.1499 L569.999,35.3213 L571.3593,32.5429 L572.3389,29.6011 L572.5138,29.8426 L574.2972,28.555 L575.9678,27.1117 L577.8035,25.8963 L579.647,24.6917 L581.2451,23.1484 L581.2451,22.5074 L583.2451,23.7516 L585.2451,22.8849 L587.2451,23.6229 L589.2451,22.7084 L591.2451,23.1484" fill="none" style="stroke:#FF9900;stroke-width:1;"/><a href="/use-case/construction-project-quotations/proposal-submission-and-negotiation/compliance-matrix-and-submission-packaging/" target="_top" title="/use-case/construction-project-quotations/proposal-submission-and-negotiation/compliance-matrix-and-submission-packaging/" xlink:actuate="onRequest" xlink:href="/use-case/construction-project-quotations/proposal-submission-and-negotiation/compliance-matrix-and-submission-packaging/" xlink:show="new" xlink:title="/use-case/construction-project-quotations/proposal-submission-and-negotiation/compliance-matrix-and-submission-packaging/" xlink:type="simple"><text fill="#90EE90" font-family="'Roboto'" font-size="14" lengthAdjust="spacing" textLength="307.2344" x="598.2451" y="54.292">Compliance Matrix &amp; Submission Packaging</text></a><path d="M541.2451,64.4453 L541.2451,64.6321 L543.2451,64.077 L545.2451,64.6171 L547.2451,64.8006 L549.2451,63.8112 L551.2451,64.4453 L551.2451,64.4453 L551.2297,64.4144 L554.1603,62.7758 L557.1689,61.2929 L560.2316,59.9182 L563.1077,58.1705 L566.2451,56.9453 L566.3552,57.1654 L569.1198,55.1948 L572.2058,53.8667 L575.331,52.617 L578.2281,50.9112 L581.2451,49.4453 L581.2451,49.506 L583.2451,49.4169 L585.2451,49.604 L587.2451,49.6579 L589.2451,49.9659 L591.2451,49.4453" fill="none" style="stroke:#FF9900;stroke-width:1;"/><polygon fill="#4051B5" points="595.2451,72.5938,595.2451,72.8039,605.4037,72.1794,615.5623,72.787,625.7209,72.9934,635.8796,71.8804,646.0382,72.516,656.1968,72.1673,666.3554,72.2103,676.514,72.5256,686.6726,71.9024,696.8312,73.1474,706.9898,71.9635,717.1484,72.396,727.307,73.0257,737.4657,72.508,747.6243,72.662,757.7829,72.5618,767.9415,72.7723,778.1001,72.8329,788.2587,73.1794,798.4173,73.2648,808.5759,73.273,818.7345,72.8484,828.8931,73.0573,839.0518,72.5938,839.1413,72.81,839.5254,72.606,840.2697,73.2713,840.711,73.2054,841.3826,73.6954,841.8802,73.7653,841.7277,73.7022,842.0934,74.3223,842.5772,74.9913,842.5681,75.4562,842.8499,76.0415,843.0518,76.5938,843.1646,76.5938,843.1905,82.2531,843.0505,87.9125,843.1475,93.5719,842.861,99.2313,843.0518,104.8906,843.1393,104.9269,842.9863,105.5262,842.72,106.0787,842.5376,106.6659,841.9657,107.0917,841.8802,107.7191,841.797,107.5182,841.2352,107.762,840.7413,108.1695,840.1581,108.3615,839.7044,108.8662,839.0518,108.8906,839.0518,108.7159,828.8931,108.5476,818.7345,109.1189,808.5759,108.2238,798.4173,108.3715,788.2587,109.5396,778.1001,109.3263,767.9415,109.6251,757.7829,108.5688,747.6243,109.2098,737.4657,109.481,727.307,108.4182,717.1484,108.7948,706.9898,109.0166,696.8312,109.5424,686.6726,108.8864,676.514,109.3532,666.3554,108.3368,656.1968,108.2134,646.0382,109.3942,635.8796,108.1737,625.7209,109.3996,615.5623,109.0973,605.4037,108.6227,595.2451,108.8906,595.2,108.7817,594.738,108.7976,594.0756,108.3298,593.6236,108.37,592.9119,107.7831,592.4167,107.7191,592.6068,107.7978,592.3315,107.2151,592.0235,106.6189,591.7283,106.028,591.7032,105.549,591.2451,104.8906,591.4496,104.8906,591.3015,99.2313,591.3345,93.5719,591.2017,87.9125,591.4839,82.2531,591.2451,76.5938,591.2928,76.6135,591.5326,76.0501,591.5264,75.3848,591.8233,74.845,592.3458,74.3987,592.4167,73.7653,592.4715,73.8977,592.9769,73.5178,593.507,73.1975,594.0858,72.995,594.5919,72.6168,595.2451,72.5938" style="stroke:#FF6F00;stroke-width:1.5;"/><a href="/use-case/construction-project-quotations/proposal-submission-and-negotiation/negotiation-support-and-revisions/" target="_top" title="/use-case/construction-project-quotations/proposal-submission-and-negotiation/negotiation-support-and-revisions/" xlink:actuate="onRequest" xlink:href="/use-case/construction-project-quotations/proposal-submission-and-negotiation/negotiation-support-and-revisions/" xlink:show="new" xlink:title="/use-case/construction-project-quotations/proposal-submission-and-negotiation/negotiation-support-and-revisions/" xlink:type="simple"><text fill="#90EE90" font-family="'Roboto'" font-size="14" lengthAdjust="spacing" textLength="227.3564" x="601.2451" y="95.5889">Negotiation Support &amp; Revisions</text></a><path d="M541.2451,64.4453 L541.2451,64.6321 L543.2451,64.077 L545.2451,64.6171 L547.2451,64.8006 L549.2451,63.8112 L551.2451,64.4453 L551.2451,64.4453 L551.2224,64.4193 L554.1202,66.9325 L557.1328,69.5765 L560.2251,72.3116 L563.0426,74.733 L566.2451,77.5938 L566.4073,77.7788 L569.0605,80.0128 L572.1872,82.787 L575.3717,85.6272 L578.22,88.0838 L581.2451,90.7422 L581.2451,90.8028 L583.2451,90.7138 L585.2451,90.9009 L587.2451,90.9548 L589.2451,91.2628 L591.2451,90.7422" fill="none" style="stroke:#FF9900;stroke-width:1;"/><a href="/use-case/construction-project-quotations/" target="_top" title="/use-case/construction-project-quotations/" xlink:actuate="onRequest" xlink:href="/use-case/construction-project-quotations/" xlink:show="new" xlink:title="/use-case/construction-project-quotations/" xlink:type="simple"><text fill="#90EE90" font-family="'Roboto'" font-size="14" lengthAdjust="spacing" textLength="289.2354" x="14" y="69.292">Complex Construction Project Quotations</text></a><path d="M364.6855,64.4453 L364.6855,64.6321 L362.6855,64.077 L360.6855,64.6171 L358.6855,64.8006 L356.6855,63.8112 L354.6855,64.4453 L354.6855,64.4453 L354.6855,64.4108 L348.6855,64.2558 L342.6855,64.2749 L336.6855,64.415 L330.6855,64.138 L324.6855,64.4453 L324.6855,64.9374 L322.6855,63.8851 L320.6855,64.2695 L318.6855,64.8293 L316.6855,64.3691 L314.6855,64.4453" fill="none" style="stroke:#FF9900;stroke-width:1;"/><!--SRC=[xLXjRzis4FwkNy4rmDAYSsEdIT46HH77iTCcVfkT51YA8g0bskOiaIf9EV66_VUT94kcP5j-YTKbG_mf4Hy-zzpnxUvEfS92EPHP3dODunUBz2aZwEpYjb7-qhojjEgj3Wf-UqV5urBlM8TqgvLMyxpS-MEAMm1fbojNvOjgJ3G7QNNEgntT3jhhzz_rYyKOKcirhnE00EB_34EEA7Enm0xgONCq4DnZLeNRN4H09J2JW21CQU3F4vU8EcKZ7OlsR3eOge4WX1d6FgBCj3sB83KaQ40O4TX6COL4VPZOushu6mgc8SmiP64nWfcA8pucuavGHT0TLSEGWuu9Gv8eHTb0fYDm_VbBvQfPxNPH2PQ1kufoXeP0whCecDZ7jYIQ3sriMK24ZhHldT1_0MBHU-rxTuWjVkUZqon196o8n0spWZ_85A9XpaaVUxP2VnirpbGJEmIzw73mdRy8leH1d2rJyB5B_oAeT6JyepELXU1tmBDmnc8QDR4XHjosaamkB3SUaAcckQbdgTsGsC_66HVWx7H4su1WOcQ1SMiJ-iH6Ny-2oHsNCzYPO6PBmGlLXJ7p7Fim6JCBAzp3akpONCA6QNFFojK0jsrY-gT3xjpCp4e508BRELeuyocncEHeeieKLNaQe4mHqSScoT56b_pm23D96vufQb8NCnMING-fEM94IhWmPt0vXOCYVKQck3dg1JerpEnQObmus4wFpRbJftq2ZmrPIXu3CcK6b-SSUV1rANCmkb1KC3ABuLkZR2ekLYW884jj-QFB3l0-gXmXFshm2C4_Uoj_-faNSE0n6zZauqTuhIHddpx1-dPXyn6ku05R-dhiwbr8xxZqcvsyeZIvv1v4CcpVxbvtAldAGRoSI4MSfnVhtUlEATRHW_mqGZrJ-_GYhMsJtlJX3LMd4kEa5q4EMroTxMtbUxPZuGDZOJaarZg-BdJL1CCOtXMnhg-GhsTlfHmypLv2_MbNM2tADAAIScOyAW_BIWdQynIP7z95HGLdAf75KkPiRHyrmi8RIPUOj4zDS39y8kVgaFLrh7GDpnA9lLhjmmSOJmtgkPLXlBv5txwX0q-IWWdd_m2sbLJ22vBmWYludx3Z2Zyy3klZf-K7yCdb4ji5wVKSAgKFWqAsmCY0Ang03b1x2aA_ekRiE_h-tNYTXxqOOt7JSw3cAeGbVKhC-NGKNSIZ8B0i9N5wzYGtTNubQ5CCUMl1mR2BxWE4DY4iTs5Z741f4c5H8y22m6wCHEq86OhTlLRjRu2vBXSgm0WofZ9WIIneDuI0o4u4y9KL2Xk6CVIRtFkbMGpq5yu7ejzZe4z-Ik1KHIsjqsI7AyUMqIDkpaHtmvgT6Hs-W623danyAIsvlXPVLXbTc8SIPZLTiZZc5MpHPjdCm5gDbOTGPhPIDYLUftcoFMT6ksHxqgKDakqfireYsxFcqWI9v2nfVqJADkvyH0uiQdj4fCiw7f4chTSHfrVfHaV4bUfn9F0h6nonmNHh8sPFTZMqWxHLWsBvpRh9RfbV_8Ss87wshXMLutyMfiUWQ-ssm4zMywY2jDEAFjAneJTBLMTMxwKyo_LTUvAA__-w77-kkPzhxkUQUnSrTzk6ZF2cKKTZo3hyEQKtXyN3upUbKeyeN2g-l64ZnkzOK8rHk2eLTSWhu-L5kuuazmJ4sQ8oFBym_PLnYSSOTJpcuqvGooNiylmg-W1v_9WAplnDP5n-RSm0xuuAPrH1-Yn02FhQCA9gkSfCxXVe9-ZckbPuRzJX2lQWTZr1KCXNuCGhCO6nxhy0]--></g></svg>