<svg xmlns="http://www.w3.org/2000/svg" xmlns:xlink="http://www.w3.org/1999/xlink" contentStyleType="text/css" data-diagram-type="MINDMAP" height="130px" preserveAspectRatio="none" style="width:532px;height:130px;" version="1.1" viewBox="0 0 532 130" width="532px" zoomAndPan="magnify"><defs/><g><a href="/use-case/client-360/know-your-customer/anti-money-laundering/" target="_top" title="/use-case/client-360/know-your-customer/anti-money-laundering/" xlink:actuate="onRequest" xlink:href="/use-case/client-360/know-your-customer/anti-money-laundering/" xlink:show="new" xlink:title="/use-case/client-360/know-your-customer/anti-money-laundering/" xlink:type="simple"><text fill="#0000FF" font-family="'Roboto'" font-size="14" lengthAdjust="spacing" textLength="207.0059" x="17" y="69.292">Anti Money Laundering (AML)</text></a><a href="/use-case/client-360/know-your-customer/anti-money-laundering/correspondent-based-aml/" target="_top" title="/use-case/client-360/know-your-customer/anti-money-laundering/correspondent-based-aml/" xlink:actuate="onRequest" xlink:href="/use-case/client-360/know-your-customer/anti-money-laundering/correspondent-based-aml/" xlink:show="new" xlink:title="/use-case/client-360/know-your-customer/anti-money-laundering/correspondent-based-aml/" xlink:type="simple"><text fill="#0000FF" font-family="'Roboto'" font-size="14" lengthAdjust="spacing" textLength="185.165" x="289.4561" y="27.9951">Correspondent-based AML</text></a><path d="M232.4561,64.4453 L232.4561,64.6321 L234.4561,64.077 L236.4561,64.6171 L238.4561,64.8006 L240.4561,63.8112 L242.4561,64.4453 L242.4561,64.4453 L242.4358,64.4173 L244.1261,63.0013 L245.9186,61.7262 L247.782,60.5492 L249.4008,59.0344 L251.3623,57.9927 L251.5884,58.0897 L252.3236,55.043 L253.719,52.2797 L255.195,49.5509 L256.2023,46.621 L257.4561,43.7969 L257.4839,43.8088 L258.6618,40.9521 L259.9665,38.1499 L261.21,35.3213 L262.5703,32.5429 L263.5498,29.6011 L263.7248,29.8426 L265.5082,28.555 L267.1787,27.1117 L269.0144,25.8963 L270.8579,24.6917 L272.4561,23.1484 L272.4561,22.5074 L274.4561,23.7516 L276.4561,22.8849 L278.4561,23.6229 L280.4561,22.7084 L282.4561,23.1484" fill="none" style="stroke:#FF6F00;stroke-width:1;"/><polygon fill="#4051B5" points="286.4561,46.2969,286.4561,46.5071,296.2137,45.8826,305.9713,46.4902,315.7289,46.6966,325.4866,45.5835,335.2442,46.2192,345.0018,45.8704,354.7595,45.9134,364.5171,46.2287,374.2747,45.6055,384.0323,46.8505,393.79,45.6666,403.5476,46.0991,413.3052,46.7288,423.0629,46.2111,432.8205,46.3651,442.5781,46.2969,442.574,46.287,443.1666,46.5862,443.74,46.8391,444.3499,47.1802,444.9265,47.4408,445.4066,47.4684,445.6157,47.5551,445.7193,48.0666,446.0179,48.659,446.3258,49.2551,446.1217,49.6392,446.5781,50.2969,446.8043,50.2969,446.4793,55.9563,446.7561,61.6156,446.4131,67.275,446.5553,72.9344,446.5781,78.5938,446.8065,78.6884,446.3288,79.1532,446.1419,79.7386,445.9795,80.334,445.769,80.9096,445.4066,81.4222,445.4061,81.421,444.8775,81.7449,444.2022,81.7145,443.7458,82.2127,443.2137,82.5283,442.5781,82.5938,442.5781,83.0383,432.8205,83.2068,423.0629,82.1107,413.3052,81.9416,403.5476,81.9723,393.79,82.5349,384.0323,82.3972,374.2747,83.2752,364.5171,82.4191,354.7595,82.2507,345.0018,82.822,335.2442,81.9269,325.4866,82.0746,315.7289,83.2427,305.9713,83.0294,296.2137,83.3282,286.4561,82.5938,286.415,82.4947,285.9311,82.4577,285.4,82.3069,284.6987,81.7453,284.1811,81.627,283.6276,81.4222,283.6664,81.4382,283.594,80.9396,283.1577,80.2903,283.0671,79.7841,282.5198,79.0888,282.4561,78.5938,282.2303,78.5938,282.6239,72.9344,282.2171,67.275,282.6257,61.6156,282.5249,55.9563,282.4561,50.2969,282.3735,50.2627,282.5814,49.6861,283.066,49.224,283.0668,48.5616,283.5756,48.1096,283.6276,47.4684,283.5571,47.2982,284.2721,47.4243,284.8208,47.149,285.3559,46.8409,285.8964,46.5457,286.4561,46.2969" style="stroke:#FF6F00;stroke-width:1.5;"/><a href="/use-case/client-360/know-your-customer/anti-money-laundering/network-based-aml/" target="_top" title="/use-case/client-360/know-your-customer/anti-money-laundering/network-based-aml/" xlink:actuate="onRequest" xlink:href="/use-case/client-360/know-your-customer/anti-money-laundering/network-based-aml/" xlink:show="new" xlink:title="/use-case/client-360/know-your-customer/anti-money-laundering/network-based-aml/" xlink:type="simple"><text fill="#0000FF" font-family="'Roboto'" font-size="14" lengthAdjust="spacing" textLength="139.6719" x="292.4561" y="69.292">Network-based AML</text></a><path d="M232.4561,64.4453 L232.4561,64.6321 L234.4561,64.077 L236.4561,64.6171 L238.4561,64.8006 L240.4561,63.8112 L242.4561,64.4453 L242.4561,64.4453 L242.4561,64.4108 L248.4561,64.2558 L254.4561,64.2749 L260.4561,64.415 L266.4561,64.138 L272.4561,64.4453 L272.4561,64.9374 L274.4561,63.8851 L276.4561,64.2695 L278.4561,64.8293 L280.4561,64.3691 L282.4561,64.4453" fill="none" style="stroke:#FF6F00;stroke-width:1;"/><a href="/use-case/client-360/know-your-customer/anti-money-laundering/transaction-based-aml/" target="_top" title="/use-case/client-360/know-your-customer/anti-money-laundering/transaction-based-aml/" xlink:actuate="onRequest" xlink:href="/use-case/client-360/know-your-customer/anti-money-laundering/transaction-based-aml/" xlink:show="new" xlink:title="/use-case/client-360/know-your-customer/anti-money-laundering/transaction-based-aml/" xlink:type="simple"><text fill="#0000FF" font-family="'Roboto'" font-size="14" lengthAdjust="spacing" textLength="222.6602" x="289.4561" y="110.5889">Transaction/Finance-based AML</text></a><path d="M232.4561,64.4453 L232.4561,64.6321 L234.4561,64.077 L236.4561,64.6171 L238.4561,64.8006 L240.4561,63.8112 L242.4561,64.4453 L242.4561,64.4453 L242.4358,64.4173 L244.1261,65.5823 L245.9186,66.8883 L247.782,68.2924 L249.4008,69.3586 L251.3623,70.8979 L251.5884,70.995 L252.3236,73.6266 L253.719,76.5416 L255.195,79.4912 L256.2023,82.2396 L257.4561,85.0938 L257.4839,85.1057 L258.6618,87.9273 L259.9665,90.8034 L261.21,93.6532 L262.5703,96.5531 L263.5498,99.2896 L263.7248,99.5311 L265.5082,100.8246 L267.1787,101.9622 L269.0144,103.328 L270.8579,104.7044 L272.4561,105.7422 L272.4561,105.1011 L274.4561,106.3453 L276.4561,105.4786 L278.4561,106.2167 L280.4561,105.3022 L282.4561,105.7422" fill="none" style="stroke:#FF6F00;stroke-width:1;"/><!--SRC=[xLdRRjiu47tNLt2RXoJekhRJ92Y2eeZZE6aJNm8xAR0eYe2MnZPXYNH9AbxlOlzzHx9bNImfldQJHVtKaiCpPqOaPmvphZILsc7SSkZ8C7wpeCSua8lhnqRbI_EnsggtsiJ_xHsNJihTawX9frPjDIyhxJzcTYacTvNgRUMwDWTQC6crBsljg1-or-kTzagbkSbLgtaVC_1Dl9zXg27Z8ogfGxhK7FQbSBbL5RQGP4zBoXNE0TU6iKyODstN0g87GFh0GLARp5ShqiCbNQ47lnERzGUQK6uHYyeXhjI2Y2UGOyaqa37JWoa6Um9E56ZDU5ybuxd__ALwswnrEgICIHKZpGGd0mJrK3Gkx55RGOJ-7RKi12B7aR7sD1g9PCc7o7XdG2qnzgoJA9yd8v0suyC7Rld_W9b9nEOIUjIrDVdRk19SDwa3v4rROEpYZJyoJL-OT7-mm_u2KZus_eaYLQGKOyH9NP4EeoSsvaZOLXnfX1-Fzc76QM7fHUBRndQdSI4a1ZkRYMmdT15wuC9Q1JwsRPVpO0fd93ZkDdIp9k5KTjESkOvz5C-PHJNjKWLRTXVpOTh2jNRgGDWscDxfK5jt4tgfee4KzWuzN7YGL4vswAB6DTExTC2u1jcZ9kpGHmT-kC1DkCEYmqmsebnFmUu7p1noK0elpD1SpSoHKNH5Bha5w1IU4PlmMk92EjHEpYs4KsSzgEFDcWa-DyYbwL-U2-3-Q2QoFvjAofy9S_ZUg9XQo6SO-2QPlhpPh0EyJwh7nCiQ5Y7ypzwpl-YPbtZWAU_RyF4ZLYib-ATF-7qxkFb0Q2nWcTLZMtKXkUEIDJj-HKNemfz8abFxSVky4wtK3iYhYTBWlBvSRv_tZd8T5EJNaUgGxUlBT6IRT6U5TyewqHZ7e_1xsDBptTvQiUS7DYqm5bK3i9Q9DJLK4nrJh2josLYnNy_VIZk8DFyJHakxfZgjqmW4OkWy47iLhINhkXfIfi9Y6gZ7ACzWBD7RKgLM8f01kKyQK_bCr0XCrcCc1ZSjZGlwOsDd8IADbtpKcSRRH_Bj6ocw2Wec7ksYQJFK8uNtfwNYa8jnOI9SMJ1TfOK3ieWD3YiuA5ac1Pkwdc14oaLImM7Iy8P9VJvC3YgD-Y7v_jrukmqdff0I5CeborlgNKDMWJfs4JlrXGc2dgUED_VBGO-574OzDgD3eQyj1Ea_G51Vt4GTteV3nIl6ARQtSUV6EU1s2bvapkCFD4k_UBpWjuLWYo_vi10rJm5OuKbXVhOoJc7wcSjvHDWKCE_D80zZaS4QhmIhELZgNM0JoDoNW5M1bz7-wsFcgFtrGJFr_VgGUOf-VTITQFY0JePw3vYjBDo30D9KUm2Q9TW3Jl7k8cmuqh0I4Zrc_wm-dpjCAlCvUboKHmxIMlew-sPTPRSiVlnDzVFFvlMCyFdFqlGIU2sjQdyocnULfAqAqe37Yj5aiiuLd-LTgirjHvB8__zIJVwIZByauuQIySv6z0USUS8ow_tXkVpkg7HqygvSxeAcvTB10_SOSLz-CBmRD7FWq3YulgiJXIonLxEOcXuFN7vetD0dIjekz-pEI6i4_ERoDXZ0nlM9IS4TJtRUV6s41gV7XGkciL-KI8HyRHY1FAnnKtYAz8myt5yLFXXrl7DS56jd13YAFiIL4vph_0i0]--></g></svg>