<svg xmlns="http://www.w3.org/2000/svg" xmlns:xlink="http://www.w3.org/1999/xlink" contentStyleType="text/css" data-diagram-type="MINDMAP" height="127px" preserveAspectRatio="none" style="width:501px;height:127px;" version="1.1" viewBox="0 0 501 127" width="501px" zoomAndPan="magnify"><defs/><g><a href="/use-case/client-360/know-your-customer/anti-money-laundering/" target="_top" title="/use-case/client-360/know-your-customer/anti-money-laundering/" xlink:actuate="onRequest" xlink:href="/use-case/client-360/know-your-customer/anti-money-laundering/" xlink:show="new" xlink:title="/use-case/client-360/know-your-customer/anti-money-laundering/" xlink:type="simple"><text fill="#4051B5" font-family="'Roboto'" font-size="13" lengthAdjust="spacing" textLength="192.2197" x="17" y="67.1997">Anti Money Laundering (AML)</text></a><a href="/use-case/client-360/know-your-customer/anti-money-laundering/correspondent-based-aml/" target="_top" title="/use-case/client-360/know-your-customer/anti-money-laundering/correspondent-based-aml/" xlink:actuate="onRequest" xlink:href="/use-case/client-360/know-your-customer/anti-money-laundering/correspondent-based-aml/" xlink:show="new" xlink:title="/use-case/client-360/know-your-customer/anti-money-laundering/correspondent-based-aml/" xlink:type="simple"><text fill="#4051B5" font-family="'Roboto'" font-size="13" lengthAdjust="spacing" textLength="171.939" x="274.3521" y="27.0669">Correspondent-based AML</text></a><path d="M217.3521,62.6992 L217.3521,62.886 L219.3521,62.3309 L221.3521,62.871 L223.3521,63.0545 L225.3521,62.0651 L227.3521,62.6992 L227.3521,62.6992 L227.3322,62.671 L229.0242,61.2901 L230.8164,60.0516 L232.6784,58.912 L234.3002,57.4314 L236.2583,56.4285 L236.4834,56.5279 L237.2208,53.5562 L238.6154,50.8747 L240.0902,48.2286 L241.0984,45.3765 L242.3521,42.6328 L242.3798,42.6451 L243.5578,39.8679 L244.8621,37.1466 L246.1055,34.3984 L247.4652,31.7015 L248.4458,28.8372 L248.6175,29.081 L250.4009,27.8299 L252.0735,26.4214 L253.9082,25.2432 L255.7505,24.0758 L257.3521,22.5664 L257.3521,21.9254 L259.3521,23.1695 L261.3521,22.3028 L263.3521,23.0409 L265.3521,22.1264 L267.3521,22.5664" fill="none" style="stroke:#FF6F00;stroke-width:1;"/><polygon fill="#4051B5" points="271.3521,45.1328,271.3521,45.343,281.0739,44.7185,290.7957,45.3261,300.5176,45.5325,310.2394,44.4194,319.9613,45.0551,329.6831,44.7063,339.4049,44.7493,349.1268,45.0647,358.8486,44.4414,368.5705,45.6865,378.2923,44.5025,388.0142,44.935,397.736,45.5648,407.4578,45.047,417.1797,45.1328,417.1884,45.1538,417.7413,45.3573,418.3338,45.6564,418.9072,45.9094,419.5171,46.2504,420.0081,46.3044,420.2148,46.39,420.4516,46.9567,420.5552,47.4682,420.8538,48.0606,421.1616,48.6567,421.1797,49.1328,420.9393,49.1328,421.4059,54.5594,421.0809,59.9859,421.3576,65.4125,421.0147,70.8391,421.1797,76.2656,421.1586,76.2569,421.1738,76.9259,420.6961,77.3908,420.5092,77.9761,420.3467,78.5716,420.0081,79.0941,420.0612,79.2222,419.4419,79.3272,418.9134,79.6511,418.238,79.6207,417.7816,80.1189,417.1797,80.2656,417.1797,80.8138,407.4578,80.7102,397.736,80.8786,388.0142,79.7825,378.2923,79.6134,368.5705,79.6442,358.8486,80.2067,349.1268,80.0691,339.4049,80.947,329.6831,80.0909,319.9613,79.9226,310.2394,80.4939,300.5176,79.5988,290.7957,79.7465,281.0739,80.9146,271.3521,80.2656,271.4076,80.3998,270.8801,80.2575,270.1796,79.6979,269.6957,79.661,269.1646,79.5102,268.5236,79.0941,268.3781,79.0338,268.2598,78.5161,268.0938,77.9788,268.0214,77.4801,267.5851,76.8308,267.3521,76.2656,267.5062,76.2656,267.1675,70.8391,267.1263,65.4125,267.5199,59.9859,267.1131,54.5594,267.3521,49.1328,267.5088,49.1977,267.65,48.5935,267.7382,47.9673,267.946,47.3906,268.4306,46.9286,268.5236,46.3044,268.4854,46.2122,269.1648,46.2523,269.5845,45.6655,270.2994,45.7916,270.8481,45.5163,271.3521,45.1328" style="stroke:#FF6F00;stroke-width:1.5;"/><a href="/use-case/client-360/know-your-customer/anti-money-laundering/network-based-aml/" target="_top" title="/use-case/client-360/know-your-customer/anti-money-laundering/network-based-aml/" xlink:actuate="onRequest" xlink:href="/use-case/client-360/know-your-customer/anti-money-laundering/network-based-aml/" xlink:show="new" xlink:title="/use-case/client-360/know-your-customer/anti-money-laundering/network-based-aml/" xlink:type="simple"><text fill="#4051B5" font-family="'Roboto'" font-size="13" lengthAdjust="spacing" textLength="129.6953" x="277.3521" y="67.1997">Network-based AML</text></a><path d="M217.3521,62.6992 L217.3521,62.886 L219.3521,62.3309 L221.3521,62.871 L223.3521,63.0545 L225.3521,62.0651 L227.3521,62.6992 L227.3521,62.6992 L227.3521,62.6647 L233.3521,62.5097 L239.3521,62.5288 L245.3521,62.6689 L251.3521,62.3919 L257.3521,62.6992 L257.3521,63.1913 L259.3521,62.139 L261.3521,62.5234 L263.3521,63.0832 L265.3521,62.623 L267.3521,62.6992" fill="none" style="stroke:#FF6F00;stroke-width:1;"/><a href="/use-case/client-360/know-your-customer/anti-money-laundering/transaction-based-aml/" target="_top" title="/use-case/client-360/know-your-customer/anti-money-laundering/transaction-based-aml/" xlink:actuate="onRequest" xlink:href="/use-case/client-360/know-your-customer/anti-money-laundering/transaction-based-aml/" xlink:show="new" xlink:title="/use-case/client-360/know-your-customer/anti-money-laundering/transaction-based-aml/" xlink:type="simple"><text fill="#4051B5" font-family="'Roboto'" font-size="13" lengthAdjust="spacing" textLength="206.7559" x="274.3521" y="107.3325">Transaction/Finance-based AML</text></a><path d="M217.3521,62.6992 L217.3521,62.886 L219.3521,62.3309 L221.3521,62.871 L223.3521,63.0545 L225.3521,62.0651 L227.3521,62.6992 L227.3521,62.6992 L227.3322,62.671 L229.0242,63.7984 L230.8164,65.0682 L232.6784,66.4369 L234.3002,67.4646 L236.2583,68.97 L236.4834,69.0694 L237.2208,71.6159 L238.6154,74.4527 L240.0902,77.3249 L241.0984,79.9911 L242.3521,82.7656 L242.3798,82.7779 L243.5578,85.519 L244.8621,88.3159 L246.1055,91.086 L247.4652,93.9073 L248.4458,96.5613 L248.6175,96.8051 L250.4009,98.0623 L252.0735,99.1621 L253.9082,100.4922 L255.7505,101.8331 L257.3521,102.832 L257.3521,102.191 L259.3521,103.4352 L261.3521,102.5685 L263.3521,103.3065 L265.3521,102.392 L267.3521,102.832" fill="none" style="stroke:#FF6F00;stroke-width:1;"/><!--SRC=[xLhRRjiu47tNLt2RXpHeNTkveGYA8exZf4ry2UoaYqLH1BH4suGbqajIyNeN- -yxaYMBaYNv4hcRODTFBJawSsPucpF8kLHOA8Sooy4Jm_Z58WFA2BguVcpLlhOVwvrcfulytzvnvQJQFz5DUerwftrPw_uMsAMOtDNgjxNhnW9eoQJJlMnqTJzeRp0u7LGg2vEhJli-Pk2RUB-5IQtRxVmQjmbH33ccR885Tb0Vc-EXu2wpwjpc0kqfWPc4ESAKPlPbDY72fcmSM0MCZNr4cMcx5a5gHD2GC2AmZHRVIJG0wpvNe_V8fiEHGfXPoC9Y35ygZlWJ4LD15K5JgaPp3Ff46994ASg6CfcJ-ozVwxVjHg-7gh0mVA8ePsW4e1wAWWy7s9P48tw7BGk0qB4srfs7Au0i-gYDzqROubFFEeco2F-1MVu_I62YsLoI0NPjXVuohZXJRUmGzARB8NR-nX-PPovQE7-mH_yag7fi_AqZrOJWKy19_I8THirio16thJZI15ON3qd0QUdJYyJYntQuSS4511lCQ5iIN4GU6BSsWOzj_VKycDoPS0RR4TniIJYLtJndhcCVndDcOONxM9A2tSLyc3PthPqwuBPDJEzqoCBTH5xgO22ulKCF5nua5hCTkcWmHTKk7L2cY1XWa-pGHu_yxX9caZjukAX99vYfETZzY9fZHgI42pCobu4vCDA_o2Mt19t2KxE9hYN6XOFjvDnIE4qw84suMJF15mQvDFtBSmdS7yr4zcTJIVapKGwFZ9gfk5Z1m3V9zENDPXtWVLG_HbxMu162_-oj_EbdNi21nsneaq-VuBMId7t-3ElRWyr7k887BFFrAEfTIEwuv9iTlw8qkkGF8Ccm_LWyxqGvjWFoSYOLSLvVheldlQDSXm_owqXrnFRrPLhR9ltWuPspJXJ6yIZy6hQokjhRAlRymEOFZ8NbY5Zhn9eQgWcECRmhOjrOeLxFtqexY3H_2JUM8Q60Ys8wchy_7L1aWa9DRmKude0BfB1Vx4jKGeuhbLUN4uG746heCo4BD6-1DCtKE9fMpIAfbn9HCXArEmXtjRhCId_fbHAqxogINGSiSyqHCB5g7qkv7Qiy1_ke5QoBd12J3gW9yVkb0opHTEIfQWLt4DIVqbjGV_7Uexxj4bWxneXNY4Z4NULDBqkwWjb6-3XUKu6GDzuzek_VKTcLf6J2tLasRGg2htHqMYcF6P-MPjmL9HDs7UmvKOOAafOSq8IpaerTJv53p6LKWs7KyePHSp6CtjPQpGFquuVnhWWd9XU2ID2ZblUfTyzR9UpOPP12InC8FCyTFzyl8shAnLZtsDQ78by51EctWB2l7dM7zz5m-Oeo3FeXxjmu9x0VmxRPURoBLbpFwGLtTyABRitMZcwU0h11KoVyBdbemwJf9pFi0kQsSPuBcDUroSDOPh15dsOp1sjrPfu3cTkBsHHudUxBzfWv_PRjGJCxBDj3vlLKjaVTIHSbf9FHFmcPRTmw2GD8wvk4e5ajav2JLjQ4S4kTaX0hqII9sQ_ia2mS9diZ2_HuMqGxI5jrEB9lrarso_BYFxU3yRDvhP2U_rgQNWAljViAFvdDYqfIeIs1aCU6qMIopfN_rLtg_Q8ZIUI_A3s_jI1FUIyB4-CwKk8jMTRWiMScBNF94dGDtPrDO2LaXZP-1kB_QlW_eORlR41_W9adA12yFrgeVZYi79vyg5RxHE5gvUq3ynWnNpXHE5sAEkJ0U7jzrqGIM4ALQL4vFnxm-O5nWvymwhhCipj3dGbXDvUtuG2Kt4zKSEPuYlhcMoioE3qkNL05bQu08kXRomZlbmOpkQUbpz33_LNfez64sz85cNc628DB0N353EPw_m00]--></g></svg>