<svg xmlns="http://www.w3.org/2000/svg" xmlns:xlink="http://www.w3.org/1999/xlink" contentStyleType="text/css" data-diagram-type="MINDMAP" height="100px" preserveAspectRatio="none" style="width:926px;height:100px;" version="1.1" viewBox="0 0 926 100" width="926px" zoomAndPan="magnify"><defs/><g><polygon fill="#4051B5" points="368.6855,31.2969,368.6855,31.5071,378.5863,30.8826,388.487,31.4902,398.3878,31.6966,408.2885,30.5835,418.1893,31.2192,428.09,30.8704,437.9908,30.9134,447.8915,31.2287,457.7923,30.6055,467.693,31.8505,477.5938,30.6666,487.4945,31.0991,497.3952,31.7288,507.296,31.2111,517.1967,31.3651,527.0975,31.2649,536.9982,31.4754,546.899,31.536,556.7997,31.8826,566.7005,31.9679,576.6012,31.9761,586.502,31.2969,586.5344,31.3753,587.1268,31.674,587.7229,31.9818,588.107,31.7777,588.8512,32.4431,589.3304,32.4684,589.2391,32.4306,589.7291,33.1022,589.6466,33.5367,590.0122,34.1568,590.496,34.8258,590.502,35.2969,590.4857,35.2969,590.5371,40.9563,590.6148,46.6156,590.6407,52.275,590.5007,57.9344,590.502,63.5938,590.5904,63.6304,590.0914,64.0864,590.1209,64.7614,589.9678,65.3607,589.7016,65.9132,589.3304,66.4222,589.4086,66.611,588.7031,66.5077,588.1158,66.69,587.5541,66.9338,587.0601,67.3413,586.502,67.5938,586.502,67.3972,576.6012,68.2752,566.7005,67.4191,556.7997,67.2507,546.899,67.822,536.9982,66.9269,527.0975,67.0746,517.1967,68.2427,507.296,68.0294,497.3952,68.3282,487.4945,67.272,477.5938,67.9129,467.693,68.1842,457.7923,67.1213,447.8915,67.4979,437.9908,67.7197,428.09,68.2455,418.1893,67.5896,408.2885,68.0563,398.3878,67.04,388.487,66.9165,378.5863,68.0974,368.6855,67.5938,368.5941,67.373,368.1848,67.5162,367.5805,67.1888,366.9543,66.8083,366.3777,66.5475,365.8571,66.4222,365.9984,66.4807,365.5306,65.8183,365.5708,65.3663,364.984,64.6546,365.11,64.2382,364.6855,63.5938,364.847,63.5938,364.7672,57.9344,364.7013,52.275,364.9278,46.6156,364.8901,40.9563,364.6855,35.2969,364.7377,35.3185,365.0025,34.7654,365.1141,34.1489,365.6091,33.6912,365.6705,33.0539,365.8571,32.4684,365.8791,32.5216,366.3452,32.0468,366.9368,31.875,367.6219,31.929,368.1747,31.6635,368.6855,31.2969" style="stroke:#FF6F00;stroke-width:1.5;"/><a href="/use-case/construction-project-quotations/opportunity-and-tender-intake/" target="_top" title="/use-case/construction-project-quotations/opportunity-and-tender-intake/" xlink:actuate="onRequest" xlink:href="/use-case/construction-project-quotations/opportunity-and-tender-intake/" xlink:show="new" xlink:title="/use-case/construction-project-quotations/opportunity-and-tender-intake/" xlink:type="simple"><text fill="#90EE90" font-family="'Roboto'" font-size="14" lengthAdjust="spacing" textLength="201.3662" x="374.6855" y="54.292">Opportunity &amp; Tender Intake</text></a><a href="/use-case/construction-project-quotations/opportunity-and-tender-intake/rfp-rfq-intake/" target="_top" title="/use-case/construction-project-quotations/opportunity-and-tender-intake/rfp-rfq-intake/" xlink:actuate="onRequest" xlink:href="/use-case/construction-project-quotations/opportunity-and-tender-intake/rfp-rfq-intake/" xlink:show="new" xlink:title="/use-case/construction-project-quotations/opportunity-and-tender-intake/rfp-rfq-intake/" xlink:type="simple"><text fill="#90EE90" font-family="'Roboto'" font-size="14" lengthAdjust="spacing" textLength="258.542" x="647.502" y="27.9951">RFP/RFQ Intake &amp; Document Catalog</text></a><path d="M590.502,49.4453 L590.502,49.6321 L592.502,49.077 L594.502,49.6171 L596.502,49.8006 L598.502,48.8112 L600.502,49.4453 L600.502,49.4453 L600.4792,49.4193 L603.377,46.6731 L606.3896,44.0578 L609.482,41.5335 L612.2994,38.6955 L615.502,36.2969 L615.6642,36.4819 L618.3173,33.4565 L621.444,30.9714 L624.6285,28.5522 L627.4768,25.7495 L630.502,23.1484 L630.502,23.2091 L632.502,23.12 L634.502,23.3071 L636.502,23.361 L638.502,23.6691 L640.502,23.1484" fill="none" style="stroke:#FF9900;stroke-width:1;"/><a href="/use-case/construction-project-quotations/opportunity-and-tender-intake/bid-no-bid-decisioning/" target="_top" title="/use-case/construction-project-quotations/opportunity-and-tender-intake/bid-no-bid-decisioning/" xlink:actuate="onRequest" xlink:href="/use-case/construction-project-quotations/opportunity-and-tender-intake/bid-no-bid-decisioning/" xlink:show="new" xlink:title="/use-case/construction-project-quotations/opportunity-and-tender-intake/bid-no-bid-decisioning/" xlink:type="simple"><text fill="#90EE90" font-family="'Roboto'" font-size="14" lengthAdjust="spacing" textLength="159.2705" x="647.502" y="54.292">Bid/No-Bid Decisioning</text></a><path d="M590.502,49.4453 L590.502,49.6321 L592.502,49.077 L594.502,49.6171 L596.502,49.8006 L598.502,48.8112 L600.502,49.4453 L600.502,49.4453 L600.502,49.4108 L606.502,49.2558 L612.502,49.2749 L618.502,49.415 L624.502,49.138 L630.502,49.4453 L630.502,49.9374 L632.502,48.8851 L634.502,49.2695 L636.502,49.8293 L638.502,49.3691 L640.502,49.4453" fill="none" style="stroke:#FF9900;stroke-width:1;"/><a href="/use-case/construction-project-quotations/opportunity-and-tender-intake/site-visit-and-existing-conditions/" target="_top" title="/use-case/construction-project-quotations/opportunity-and-tender-intake/site-visit-and-existing-conditions/" xlink:actuate="onRequest" xlink:href="/use-case/construction-project-quotations/opportunity-and-tender-intake/site-visit-and-existing-conditions/" xlink:show="new" xlink:title="/use-case/construction-project-quotations/opportunity-and-tender-intake/site-visit-and-existing-conditions/" xlink:type="simple"><text fill="#90EE90" font-family="'Roboto'" font-size="14" lengthAdjust="spacing" textLength="215.291" x="647.502" y="80.5889">Site Visit &amp; Existing Conditions</text></a><path d="M590.502,49.4453 L590.502,49.6321 L592.502,49.077 L594.502,49.6171 L596.502,49.8006 L598.502,48.8112 L600.502,49.4453 L600.502,49.4453 L600.4792,49.4193 L603.377,51.9325 L606.3896,54.5765 L609.482,57.3116 L612.2994,59.733 L615.502,62.5938 L615.6642,62.7788 L618.3173,65.0128 L621.444,67.787 L624.6285,70.6272 L627.4768,73.0838 L630.502,75.7422 L630.502,75.8028 L632.502,75.7138 L634.502,75.9009 L636.502,75.9548 L638.502,76.2628 L640.502,75.7422" fill="none" style="stroke:#FF9900;stroke-width:1;"/><a href="/use-case/construction-project-quotations/" target="_top" title="/use-case/construction-project-quotations/" xlink:actuate="onRequest" xlink:href="/use-case/construction-project-quotations/" xlink:show="new" xlink:title="/use-case/construction-project-quotations/" xlink:type="simple"><text fill="#90EE90" font-family="'Roboto'" font-size="14" lengthAdjust="spacing" textLength="289.2354" x="14" y="54.292">Complex Construction Project Quotations</text></a><path d="M364.6855,49.4453 L364.6855,49.6321 L362.6855,49.077 L360.6855,49.6171 L358.6855,49.8006 L356.6855,48.8112 L354.6855,49.4453 L354.6855,49.4453 L354.6855,49.4108 L348.6855,49.2558 L342.6855,49.2749 L336.6855,49.415 L330.6855,49.138 L324.6855,49.4453 L324.6855,49.9374 L322.6855,48.8851 L320.6855,49.2695 L318.6855,49.8293 L316.6855,49.3691 L314.6855,49.4453" fill="none" style="stroke:#FF9900;stroke-width:1;"/><!--SRC=[xLXjRzf84FxkNx7NI4shd0laaggDgYg4G9g408KaqgcgeiLUmnvcrzbTGtAd- -ytjl4B1inBS2-vAr_IUfzzvfdPjvavbWeBDQJC7697qtunYKKPGITdTrVbyyPTfLbljf7_spae7fQwXqb8frffDaxBxTydk3cGLhboMJwhHaGpa6RxjDfEsa4xblNUAXOZIAtPk9u2-13lfsboG9c31HwYBZO6FS5TPbQupKK8L08p2GZ2L0ByvT4XeaxP88b5EpRjzLLF4C8qRHTHPjYkIP3g4zGZZ0XieuX28WicThdg_uhyQGWp4vbO362cueYFY1WBgWWQKzKFEEY8C2I9KfJrP3e2rr_EAvUDQgU3Ih0Ct56KCzG7Kez5mKGBsv8aV6XXqmGYT93urWxy5o0MVKXyx_InoSSUEitYHyA6IDmmq_y7cK0Ic5DYOTTMw2-jnfbgu251hzeSVEUl_2z14EDbyZzsw9y4bGwqlvDCPI7u67ZcpfXFenvjY16tpMac1vORzyX4qypKazHkcDhFsWaNuEna9B41mKHiWN5p7VgfZRwQ1OCF7SvWPuAP3GNFLHV4p1tQ-zCnCx72NIp9birDsJ1ixfgv6k2sJGplTCYjcucjL00Wk9sZXHEF4el774rKcQ8gJmEKAI8iR90SRNJ8lKkOGLhmJ563EfYfWEowJuq18rB2XHd3vGGEYf8pCiNDKC_HcS34rnBZOeZjzDYCEtLg4NXio4Bo290fqxyyPyZzhmkP_T6veloHE8Q_QML3SR54WGzPQCiRNNI0Tr7b07bHWqS8_hEpz9Syym8EF6Ozctpw1A-LvEppPrZV3cm-mXKyO0jVZssz2-aTbtwpfw-eX5po028Pjk-shpkLVEKWNZvAHOOlBzRRrvrJhCC7-MM4EbRxyYATs2RToSCRg4ubnjDU-3biSNcsjv7lsOu53uo9PP-Og_WwrrK336DuLyIglaA-dhsLSl0qUmcJJxl2Qbwc4PQKiV6mF2mh9MZNLMHsA2agB3XJYIoMCcThk-WgABoHT8X1BMg0ay4JELE7hAvZgMiuJYHsQhMF7s4yDPZChJHj3ttxXWgk9Be1nxy0kqeguVevkEu8_WTiEFtUvR0yNbPUu8x3XN8Pv9uwrAyw5A-WHuTa4Gz80JNZOVGQNVk3wDmVHD-_QtjxTziq9on75zPzPBrTQnNQjQ-XmTVeb1lkqAl1Ad2zsRoNWuOkDNN6TU-F2SiiOGeiSG6TKBFGu3hyWH8x-fw304aLqKTWGFc3v85AhmUX0wj90mBKyNeLjnu6WbAT8BmwQ8BmPEdwch9W_j2noOF74m5HAm2Yhn7G8py6oL4VwdYwBPLZd-SPTrJ20xrYEoK9dqEmHYCbkaaMt3dpRvYCribJ2RCw9LaSimesw8siPs2bRiXJA3Fx7-iIhzBns9mpeyUnEUd2hiRcb5bzZCrPS-bSX78Mz2n2PMktAq87vlKgGj95ROfGKw914UL4wUv4o9LgJ4pXbtOb8eFfVaJ4FjsAI1oaZReAYs_MTNRBxE8_jMlmetKjAVV-jJ0z1rqhr_8_MCsp2j9Mo_1GnvhUB5ITMNANygonj-r9Alx_wHhwPw7yir3-7nVABHlIk9khEXf1gk3DARtRB-uVlYkLkaJXKl7D3HimFcP-2KNXVbDqIDvgRyvQTIIvAo3VDC45_z31zBVQ1HvXr7QPXpk2FKZOnUbb-06Ixn4Ld7dxGBkulOe1xmzWUHJal0A4eDihBInngypWNbLzX6wkQ_e7hGxtfWi5vn62whi2nrI9HnZh_0C0]--></g></svg>