<svg xmlns="http://www.w3.org/2000/svg" xmlns:xlink="http://www.w3.org/1999/xlink" contentStyleType="text/css" data-diagram-type="MINDMAP" height="97px" preserveAspectRatio="none" style="width:872px;height:97px;" version="1.1" viewBox="0 0 872 97" width="872px" zoomAndPan="magnify"><defs/><g><polygon fill="#4051B5" points="347.708,30.1328,347.708,30.343,357.8638,29.7185,368.0195,30.3261,378.1753,30.5325,388.3311,29.4194,398.4868,30.0551,408.6426,29.7063,418.7983,29.7493,428.9541,30.0647,439.1099,29.4414,449.2656,30.6865,459.4214,29.5025,469.5771,29.935,479.7329,30.5648,489.8887,30.047,500.0444,30.2011,510.2002,30.1009,520.356,30.3113,530.5117,30.3719,540.6675,30.7185,550.8232,30.1328,550.9088,30.3395,551.4756,30.5763,551.9871,30.6799,552.5794,30.9785,553.1756,31.2863,553.6517,31.3044,553.4296,31.2124,554.0949,31.9566,554.029,32.3979,554.519,33.0695,554.4365,33.504,554.8232,34.1328,554.8004,34.1328,555.0704,39.5594,554.807,44.9859,554.8583,50.4125,554.9361,55.8391,554.8232,61.2656,554.9514,61.3187,554.5877,61.8308,554.4431,62.4336,553.944,62.8897,553.9736,63.5646,553.6517,64.0941,553.7216,64.2629,553.1427,64.4653,552.5985,64.7515,551.893,64.6482,551.3057,64.8305,550.8232,65.2656,550.8232,64.6442,540.6675,65.2067,530.5117,65.0691,520.356,65.947,510.2002,65.0909,500.0444,64.9226,489.8887,65.4939,479.7329,64.5988,469.5771,64.7465,459.4214,65.9146,449.2656,65.7013,439.1099,66.0001,428.9541,64.9438,418.7983,65.5848,408.6426,65.856,398.4868,64.7932,388.3311,65.1698,378.1753,65.3916,368.0195,65.9174,357.8638,65.2614,347.708,65.2656,347.767,65.4081,347.0717,64.8608,346.4902,64.5884,346.0752,64.7178,345.3538,64.1076,344.8796,64.0941,345.0363,64.159,344.7089,63.5547,344.3284,62.9285,344.0677,62.3519,344.0836,61.8898,343.708,61.2656,343.6082,61.2656,343.9053,55.8391,343.5238,50.4125,343.9138,44.9859,343.8694,39.5594,343.708,34.1328,343.7834,34.1641,343.9569,33.5732,344.4004,33.0941,344.5999,32.514,344.6974,31.8917,344.8796,31.3044,344.9138,31.387,345.4286,31.03,346.1023,31.0564,346.5964,30.6491,347.1643,30.4203,347.708,30.1328" style="stroke:#FF6F00;stroke-width:1.5;"/><a href="/use-case/construction-project-quotations/opportunity-and-tender-intake/" target="_top" title="/use-case/construction-project-quotations/opportunity-and-tender-intake/" xlink:actuate="onRequest" xlink:href="/use-case/construction-project-quotations/opportunity-and-tender-intake/" xlink:show="new" xlink:title="/use-case/construction-project-quotations/opportunity-and-tender-intake/" xlink:type="simple"><text fill="#4051B5" font-family="'Roboto'" font-size="13" lengthAdjust="spacing" textLength="186.9829" x="353.708" y="52.1997">Opportunity &amp; Tender Intake</text></a><a href="/use-case/construction-project-quotations/opportunity-and-tender-intake/rfp-rfq-intake/" target="_top" title="/use-case/construction-project-quotations/opportunity-and-tender-intake/rfp-rfq-intake/" xlink:actuate="onRequest" xlink:href="/use-case/construction-project-quotations/opportunity-and-tender-intake/rfp-rfq-intake/" xlink:show="new" xlink:title="/use-case/construction-project-quotations/opportunity-and-tender-intake/rfp-rfq-intake/" xlink:type="simple"><text fill="#4051B5" font-family="'Roboto'" font-size="13" lengthAdjust="spacing" textLength="240.0747" x="611.8232" y="27.0669">RFP/RFQ Intake &amp; Document Catalog</text></a><path d="M554.8232,47.6992 L554.8232,47.886 L556.8232,47.3309 L558.8232,47.871 L560.8232,48.0545 L562.8232,47.0651 L564.8232,47.6992 L564.8232,47.6992 L564.8011,47.6727 L567.7015,45.0406 L570.7138,42.542 L573.8038,40.1362 L576.6259,37.4106 L579.8232,35.1328 L579.9813,35.3214 L582.6434,32.4048 L585.7668,30.0389 L588.9465,27.7401 L591.7988,25.0505 L594.8232,22.5664 L594.8232,22.6271 L596.8232,22.538 L598.8232,22.7251 L600.8232,22.779 L602.8232,23.087 L604.8232,22.5664" fill="none" style="stroke:#FF6F00;stroke-width:1;"/><a href="/use-case/construction-project-quotations/opportunity-and-tender-intake/bid-no-bid-decisioning/" target="_top" title="/use-case/construction-project-quotations/opportunity-and-tender-intake/bid-no-bid-decisioning/" xlink:actuate="onRequest" xlink:href="/use-case/construction-project-quotations/opportunity-and-tender-intake/bid-no-bid-decisioning/" xlink:show="new" xlink:title="/use-case/construction-project-quotations/opportunity-and-tender-intake/bid-no-bid-decisioning/" xlink:type="simple"><text fill="#4051B5" font-family="'Roboto'" font-size="13" lengthAdjust="spacing" textLength="147.894" x="611.8232" y="52.1997">Bid/No-Bid Decisioning</text></a><path d="M554.8232,47.6992 L554.8232,47.886 L556.8232,47.3309 L558.8232,47.871 L560.8232,48.0545 L562.8232,47.0651 L564.8232,47.6992 L564.8232,47.6992 L564.8232,47.6647 L570.8232,47.5097 L576.8232,47.5288 L582.8232,47.6689 L588.8232,47.3919 L594.8232,47.6992 L594.8232,48.1913 L596.8232,47.139 L598.8232,47.5234 L600.8232,48.0832 L602.8232,47.623 L604.8232,47.6992" fill="none" style="stroke:#FF6F00;stroke-width:1;"/><a href="/use-case/construction-project-quotations/opportunity-and-tender-intake/site-visit-and-existing-conditions/" target="_top" title="/use-case/construction-project-quotations/opportunity-and-tender-intake/site-visit-and-existing-conditions/" xlink:actuate="onRequest" xlink:href="/use-case/construction-project-quotations/opportunity-and-tender-intake/site-visit-and-existing-conditions/" xlink:show="new" xlink:title="/use-case/construction-project-quotations/opportunity-and-tender-intake/site-visit-and-existing-conditions/" xlink:type="simple"><text fill="#4051B5" font-family="'Roboto'" font-size="13" lengthAdjust="spacing" textLength="199.9131" x="611.8232" y="77.3325">Site Visit &amp; Existing Conditions</text></a><path d="M554.8232,47.6992 L554.8232,47.886 L556.8232,47.3309 L558.8232,47.871 L560.8232,48.0545 L562.8232,47.0651 L564.8232,47.6992 L564.8232,47.6992 L564.8011,47.6727 L567.7015,50.0672 L570.7138,52.5951 L573.8038,55.2158 L576.6259,57.5168 L579.8232,60.2656 L579.9813,60.4542 L582.6434,62.5642 L585.7668,65.2248 L588.9465,67.9526 L591.7988,70.2895 L594.8232,72.832 L594.8232,72.8927 L596.8232,72.8036 L598.8232,72.9907 L600.8232,73.0446 L602.8232,73.3526 L604.8232,72.832" fill="none" style="stroke:#FF6F00;stroke-width:1;"/><a href="/use-case/construction-project-quotations/" target="_top" title="/use-case/construction-project-quotations/" xlink:actuate="onRequest" xlink:href="/use-case/construction-project-quotations/" xlink:show="new" xlink:title="/use-case/construction-project-quotations/" xlink:type="simple"><text fill="#4051B5" font-family="'Roboto'" font-size="13" lengthAdjust="spacing" textLength="268.5757" x="14" y="52.1997">Complex Construction Project Quotations</text></a><path d="M343.708,47.6992 L343.708,47.886 L341.708,47.3309 L339.708,47.871 L337.708,48.0545 L335.708,47.0651 L333.708,47.6992 L333.708,47.6992 L333.708,47.6647 L327.708,47.5097 L321.708,47.5288 L315.708,47.6689 L309.708,47.3919 L303.708,47.6992 L303.708,48.1913 L301.708,47.139 L299.708,47.5234 L297.708,48.0832 L295.708,47.623 L293.708,47.6992" fill="none" style="stroke:#FF6F00;stroke-width:1;"/><!--SRC=[xLZxRzD84FxTVyKSbNW8J1ee2264IDEqG1y9ISlfX52riTV9NfnTixlkuqxtlz-iOpks4pkF9Zmayal1E_lDDxElcU-TqaJgCUFkc0IMzOTBFSOfx1zTdZO-d5qssoVjBaI_dRtT5_N-Ywn9hzLidnqqkd_5TdDCEetcSUEebGBDcBIx1wrkrW_iUDvBRtStDJbidvtd328JyqjD6jrk-y-yJO9YgH7Z0P5a37tYZ0PIXDnj2bz8sD6IS8LZbEkCsVlRW4gVyL5i5JEs7W3ZZX-w5FIGme1oAeaFwJm57bhtXHu-0PyDXXe8Ty4bSeGpjG1nHUMrP9h2DTF32GQxeXmKrPhnWIhcvFpzX-RnMQlNWpekZ0Wq4no626fGD4xqYAzeXdY7k2u2mLxcMtSIhaIoy2hplJSahhWsraMKDFmBxaR_eB59nkQ0UYJqDVnh7GgkpyYOmhskmDZ5lUZB97FJXOi-zjW_5EfxrdzPf8QKuXfnviwO3wDlVSoHyDqyKe2hImOqvZGpTR-m-BaTRkqBYS768vajYIwc7hXmLu7FRVtbF3XY70YEsn7Th4buBhj9piAn_ooVCvTeqYUARjXTpeVZYz3TgWFX-zGnfqDjtCtKInCDfF2tw67VG19vkqKNBQwPtgO3nZML7d7e5dtqwBUGSeTsyE5Y3Wi8rnEmyo5pHfmgXHVcr5p5viWeEwEIt0pq79uPc-crn8KS4xyuDXFE2VFe2TwifU2fGINDwFAS0O- -bY97etD9HIFJ73wt6euMSW63oAJKbnajEy0FeBa79clu2E5_TXR-icTUue4dVE3JDs_mjLA2ltsBwzl3pKU5nWUizFNOrBjGt775Dpj_HMNeqXiaoOb_kNdUXN9i2-JLhT9q_ElbUlEyjvJhv47-DL8zPVlhPJgpJVhnmpjXNIYCyr54DUpkucflhTYh0viyC2vHG-ek4-lSK1rqJF1TaSl6YlLwzLRQGgJLIxXo6v8qSDEOda_UdpPsP99XJU_6EAQ1YrlXgDXNOCCuLDhKvHI8Xw4cFWjjGSPRt9gMzZYPNhMCPBQKc2QZKBjZuwuNbrdpNtgj9Uk7cfRN0RDSAngONBLFb5gFLPM31t0QhuiAgCCyvc3yKUc0ItGzD5srnZi8wqzb5ZHQl2VGzqEAQySvDOM80X5gCppRqcsOxHIVv6igREIjn_3b2zH2HMq7hyuQqbDQXb7_OWTI_8rSxM-XmDKr7KrD186GEkHOjzlO-zlO-ADV6mjjCg8rQ4-7uJwSHuFm8Hg4hr-jnuylD-bEUe4jlM-fz-vXfzOz_9Gul0y7mWd7fdzjujFWYy4MEFIPQtDXcpykRWM5Kt0Rr62VkRKpOUCVFAFfzoqGKBZRx2jqeAD1UiEKqMziH7NP101wPaT-DZQOb5PiONh8sCBGikqLQU7ySU3J6uEJ6a9dOWYVKaC3_WuffwhUkxp8jpb9x2SMdv9xU4dbAMi-1s05pIcPLxnJagHbBuv4fAnKcUuAM2KgLM7CCbX3HbhDmLB2qLqWAwMYLO6N4OVMnwoGWzO7BHM0reUiadpMHzsAo9FGAP5t4cOhApj90FDadGIqJD59E6MghWHkHiX9i0eQJiv-eO2JEYnADobwNhN97AIr19ZoctMLtJAx-7SLMButhmMTyGzBqy_0QsdPupkp-QcIj5758k6nOZIbh2lLYVesvOXDHrB8_wRaXhNrWZdlvSQqWYnIuIsPbGXopyoyp1LBq2LaWN822o5BMlSx8Fvkrdytwp- -MU_uM5jUd9x05TOlPaxzwRFTPo-Urkjzgabzz-457t5npQE-Zk7XrsnC7raFZpede4GeiGXsCOJezEBqHzP7SaMW6t9Zznht8EKV3uwJ3zWHN34fkDa7riVFfrE3btkuF1eBSOb4uFEfbLn_BUu8q-g_XelpG_kLTOANUOXTy6kW7Eyin9MtEDRx7m00]--></g></svg>