<svg xmlns="http://www.w3.org/2000/svg" xmlns:xlink="http://www.w3.org/1999/xlink" contentStyleType="text/css" data-diagram-type="MINDMAP" height="314px" preserveAspectRatio="none" style="width:688px;height:314px;" version="1.1" viewBox="0 0 688 314" width="688px" zoomAndPan="magnify"><defs/><g><a href="/use-case/legal-entity-management/" target="_top" title="/use-case/legal-entity-management/" xlink:actuate="onRequest" xlink:href="/use-case/legal-entity-management/" xlink:show="new" xlink:title="/use-case/legal-entity-management/" xlink:type="simple"><text fill="#90EE90" font-family="'Roboto'" font-size="14" lengthAdjust="spacing" textLength="179.7646" x="17" y="161.3311">Legal Entity Management</text></a><a href="/use-case/legal-entity-management/identification-and-registration/" target="_top" title="/use-case/legal-entity-management/identification-and-registration/" xlink:actuate="onRequest" xlink:href="/use-case/legal-entity-management/identification-and-registration/" xlink:show="new" xlink:title="/use-case/legal-entity-management/identification-and-registration/" xlink:type="simple"><text fill="#90EE90" font-family="'Roboto'" font-size="14" lengthAdjust="spacing" textLength="196.6631" x="262.2148" y="27.9951">Identification &amp; Registration</text></a><path d="M205.2148,156.4844 L205.2148,156.6712 L207.2148,156.1161 L209.2148,156.6562 L211.2148,156.8396 L213.2148,155.8502 L215.2148,156.4844 L215.2148,156.4844 L215.1888,156.4617 L216.0679,155.2142 L217.0784,154.0808 L218.1803,153.0269 L218.9673,151.6994 L220.1953,150.7551 L220.4335,150.817 L220.7094,147.6637 L221.6806,144.6912 L222.7366,141.7407 L223.299,138.6619 L224.1211,135.6506 L224.151,135.6556 L224.4425,133.63 L224.8703,131.6271 L225.2323,129.6133 L225.7197,127.6202 L225.7983,125.5593 L226.0938,125.5998 L226.4065,123.3477 L226.5286,121.0694 L226.9297,118.8294 L227.3439,116.5911 L227.3438,114.2961 L227.0254,114.2587 L228.2175,109.4352 L228.3613,104.4888 L229.302,99.6359 L229.4221,94.6867 L230.2148,89.8164 L230.1846,89.8129 L231.1164,84.9589 L231.3418,80.022 L231.984,75.1341 L232.6612,70.2502 L233.0859,65.3368 L233.2692,65.3619 L233.3933,63.0839 L233.8306,60.8488 L233.7611,58.5442 L234.4475,56.3434 L234.6313,54.0735 L234.8717,54.1135 L235.1617,52.0876 L235.571,50.0817 L235.4259,47.9835 L235.6872,45.9529 L236.3086,43.9822 L236.0413,43.9127 L237.0684,40.9547 L237.7944,37.9184 L238.9572,34.9957 L239.3741,31.8791 L240.2344,28.8777 L240.1193,28.7777 L241.307,27.7984 L242.0029,26.3916 L243.0485,25.2888 L244.4364,24.4835 L245.2148,23.1484 L245.2148,23.5357 L247.2148,23.8013 L249.2148,22.8624 L251.2148,23.4322 L253.2148,23.6733 L255.2148,23.1484" fill="none" style="stroke:#FF9900;stroke-width:1;"/><a href="/use-case/legal-entity-management/corporate-governance/" target="_top" title="/use-case/legal-entity-management/corporate-governance/" xlink:actuate="onRequest" xlink:href="/use-case/legal-entity-management/corporate-governance/" xlink:show="new" xlink:title="/use-case/legal-entity-management/corporate-governance/" xlink:type="simple"><text fill="#90EE90" font-family="'Roboto'" font-size="14" lengthAdjust="spacing" textLength="159.1406" x="262.2148" y="95.5889">Corporate Governance</text></a><a href="/use-case/legal-entity-management/corporate-governance/directorships/" target="_top" title="/use-case/legal-entity-management/corporate-governance/directorships/" xlink:actuate="onRequest" xlink:href="/use-case/legal-entity-management/corporate-governance/directorships/" xlink:show="new" xlink:title="/use-case/legal-entity-management/corporate-governance/directorships/" xlink:type="simple"><text fill="#90EE90" font-family="'Roboto'" font-size="14" lengthAdjust="spacing" textLength="92.7842" x="486.8057" y="54.292">Directorships</text></a><path d="M429.8057,90.7422 L429.8057,90.929 L431.8057,90.3739 L433.8057,90.914 L435.8057,91.0975 L437.8057,90.1081 L439.8057,90.7422 L439.8057,90.7422 L439.7854,90.7142 L441.4757,89.2982 L443.2682,88.0231 L445.1316,86.8461 L446.7504,85.3312 L448.7119,84.2896 L448.938,84.3866 L449.6733,81.3399 L451.0686,78.5766 L452.5446,75.8478 L453.5519,72.9179 L454.8057,70.0938 L454.8335,70.1057 L456.0114,67.249 L457.3161,64.4467 L458.5596,61.6182 L459.9199,58.8398 L460.8994,55.8979 L461.0744,56.1395 L462.8578,54.8519 L464.5283,53.4085 L466.364,52.1932 L468.2075,50.9886 L469.8057,49.4453 L469.8057,48.8043 L471.8057,50.0484 L473.8057,49.1818 L475.8057,49.9198 L477.8057,49.0053 L479.8057,49.4453" fill="none" style="stroke:#FF9900;stroke-width:1;"/><a href="/use-case/legal-entity-management/corporate-governance/signatories/" target="_top" title="/use-case/legal-entity-management/corporate-governance/signatories/" xlink:actuate="onRequest" xlink:href="/use-case/legal-entity-management/corporate-governance/signatories/" xlink:show="new" xlink:title="/use-case/legal-entity-management/corporate-governance/signatories/" xlink:type="simple"><text fill="#90EE90" font-family="'Roboto'" font-size="14" lengthAdjust="spacing" textLength="78.7227" x="486.8057" y="80.5889">Signatories</text></a><path d="M429.8057,90.7422 L429.8057,90.929 L431.8057,90.3739 L433.8057,90.914 L435.8057,91.0975 L437.8057,90.1081 L439.8057,90.7422 L439.8057,90.7422 L439.7902,90.7113 L442.7209,89.0726 L445.7294,87.5897 L448.7921,86.2151 L451.6682,84.4674 L454.8057,83.2422 L454.9157,83.4623 L457.6804,81.4916 L460.7664,80.1636 L463.8915,78.9139 L466.7886,77.2081 L469.8057,75.7422 L469.8057,75.8028 L471.8057,75.7138 L473.8057,75.9009 L475.8057,75.9548 L477.8057,76.2628 L479.8057,75.7422" fill="none" style="stroke:#FF9900;stroke-width:1;"/><polygon fill="#4051B5" points="483.8057,98.8906,483.8057,99.1008,493.7294,98.4763,503.6532,99.0839,513.577,99.2903,523.5008,98.1772,533.4245,98.8129,543.3483,98.4641,553.2721,98.5071,563.1959,98.8225,573.1197,98.1993,583.0434,99.4443,592.9672,98.2603,602.891,98.6929,612.8148,99.3226,622.7385,98.8048,632.6623,98.9589,642.5861,98.8587,652.5099,99.0692,662.4336,99.1298,672.3574,98.8906,672.4321,99.071,673.0087,99.3316,673.5754,99.5684,674.087,99.672,674.6793,99.9706,675.1858,100.0622,675.4021,100.1518,675.1981,100.5359,675.8634,101.2801,675.7975,101.7214,676.2875,102.393,676.3574,102.8906,676.1924,102.8906,676.3346,108.55,676.6046,114.2094,676.3412,119.8688,676.3925,125.5281,676.3574,131.1875,676.4617,131.2307,676.2513,131.8063,675.8876,132.3184,675.7429,132.9212,675.2439,133.3772,675.1858,134.0159,675.2221,134.1035,674.6901,134.4191,674.1112,134.6215,673.567,134.9077,672.8615,134.8044,672.3574,135.1875,672.3574,134.5353,662.4336,134.5661,652.5099,135.1286,642.5861,134.991,632.6623,135.8689,622.7385,135.0128,612.8148,134.8444,602.891,135.4158,592.9672,134.5207,583.0434,134.6684,573.1197,135.8365,563.1959,135.6232,553.2721,135.922,543.3483,134.8657,533.4245,135.5067,523.5008,135.7779,513.577,134.7151,503.6532,135.0916,493.7294,135.3135,483.8057,135.1875,483.8888,135.3882,483.2394,134.9519,482.7333,134.8613,482.038,134.314,481.4565,134.0417,480.9772,134.0159,481.1323,134.0802,480.5221,133.3588,480.6653,132.9495,480.3379,132.3452,479.9575,131.719,479.8057,131.1875,479.6877,131.1875,479.9586,125.5281,479.7059,119.8688,480.003,114.2094,479.6214,108.55,479.8057,102.8906,479.9958,102.9694,480.1891,102.3867,480.3497,101.7905,480.5231,101.1996,480.9667,100.7206,480.9772,100.0622,481.0555,100.2512,481.5645,99.88,482.1428,99.6762,482.6577,99.3191,483.3314,99.3456,483.8057,98.8906" style="stroke:#FF6F00;stroke-width:1.5;"/><a href="/use-case/legal-entity-management/corporate-governance/organizational-structure/" target="_top" title="/use-case/legal-entity-management/corporate-governance/organizational-structure/" xlink:actuate="onRequest" xlink:href="/use-case/legal-entity-management/corporate-governance/organizational-structure/" xlink:show="new" xlink:title="/use-case/legal-entity-management/corporate-governance/organizational-structure/" xlink:type="simple"><text fill="#90EE90" font-family="'Roboto'" font-size="14" lengthAdjust="spacing" textLength="172.1016" x="489.8057" y="121.8857">Organizational Structure</text></a><path d="M429.8057,90.7422 L429.8057,90.929 L431.8057,90.3739 L433.8057,90.914 L435.8057,91.0975 L437.8057,90.1081 L439.8057,90.7422 L439.8057,90.7422 L439.7829,90.7162 L442.6807,93.2293 L445.6933,95.8734 L448.7857,98.6085 L451.6031,101.0299 L454.8057,103.8906 L454.9679,104.0757 L457.621,106.3097 L460.7477,109.0839 L463.9322,111.9241 L466.7805,114.3807 L469.8057,117.0391 L469.8057,117.0997 L471.8057,117.0107 L473.8057,117.1978 L475.8057,117.2516 L477.8057,117.5597 L479.8057,117.0391" fill="none" style="stroke:#FF9900;stroke-width:1;"/><path d="M205.2148,156.4844 L205.2148,156.6712 L207.2148,156.1161 L209.2148,156.6562 L211.2148,156.8396 L213.2148,155.8502 L215.2148,156.4844 L215.2148,156.4844 L215.1887,156.4617 L216.8529,154.3058 L218.6486,152.2638 L220.5357,150.3012 L222.1077,148.0653 L224.1211,146.2122 L224.3564,146.2842 L224.4978,144.0244 L225.3261,141.9748 L226.2383,139.9509 L226.6628,137.7778 L227.3438,135.6831 L227.3733,135.6902 L227.9042,133.2659 L228.5694,130.8736 L229.1698,128.4658 L229.8939,126.0875 L230.2148,123.6133 L230.505,123.6823 L231.0828,121.2692 L231.4734,118.8115 L232.1379,116.419 L232.8153,114.0296 L233.0859,111.5434 L232.7794,111.4496 L234.0188,109.5259 L234.249,107.2932 L235.2464,105.2954 L235.4537,103.0558 L236.3086,101.0144 L236.2856,100.9945 L238.3389,99.1759 L239.8547,96.8913 L241.6877,94.8817 L243.5473,92.8952 L245.2148,90.7422 L245.2148,91.1122 L247.2148,90.7387 L249.2148,90.9975 L251.2148,90.2334 L253.2148,90.995 L255.2148,90.7422" fill="none" style="stroke:#FF9900;stroke-width:1;"/><a href="/use-case/legal-entity-management/ownership-and-capital-structure/" target="_top" title="/use-case/legal-entity-management/ownership-and-capital-structure/" xlink:actuate="onRequest" xlink:href="/use-case/legal-entity-management/ownership-and-capital-structure/" xlink:show="new" xlink:title="/use-case/legal-entity-management/ownership-and-capital-structure/" xlink:type="simple"><text fill="#90EE90" font-family="'Roboto'" font-size="14" lengthAdjust="spacing" textLength="213.4453" x="262.2148" y="163.1826">Ownership &amp; Capital Structure</text></a><path d="M205.2148,156.4844 L205.2148,156.6712 L207.2148,156.1161 L209.2148,156.6562 L211.2148,156.8396 L213.2148,155.8502 L215.2148,156.4844 L215.2148,156.4844 L215.2127,156.4499 L218.2032,156.4803 L221.2043,156.6846 L224.213,157.0096 L227.1959,156.9183 L230.2148,157.4102 L230.23,157.6558 L233.1976,157.3157 L236.2094,157.6927 L239.2267,158.1572 L242.2125,158.1127 L245.2148,158.3359 L245.2148,158.3966 L247.2148,158.3075 L249.2148,158.4946 L251.2148,158.5485 L253.2148,158.8566 L255.2148,158.3359" fill="none" style="stroke:#FF9900;stroke-width:1;"/><a href="/use-case/legal-entity-management/financial-information/" target="_top" title="/use-case/legal-entity-management/financial-information/" xlink:actuate="onRequest" xlink:href="/use-case/legal-entity-management/financial-information/" xlink:show="new" xlink:title="/use-case/legal-entity-management/financial-information/" xlink:type="simple"><text fill="#90EE90" font-family="'Roboto'" font-size="14" lengthAdjust="spacing" textLength="148.0596" x="262.2148" y="189.4795">Financial Information</text></a><path d="M205.2148,156.4844 L205.2148,156.6712 L207.2148,156.1161 L209.2148,156.6562 L211.2148,156.8396 L213.2148,155.8502 L215.2148,156.4844 L215.2148,156.4844 L215.1996,156.4534 L216.9122,157.1941 L218.7019,158.0908 L220.5452,159.0961 L222.2038,159.7274 L224.1211,160.8826 L224.3293,161.0137 L225.1028,162.6685 L226.4842,164.7061 L227.9398,166.7905 L228.9638,168.6031 L230.2148,170.5586 L230.2405,170.5748 L231.4216,172.4862 L232.7195,174.4713 L233.961,176.4208 L235.3101,178.4381 L236.3086,180.2346 L236.4407,180.502 L238.2235,181.3849 L239.9212,182.0954 L241.7436,183.0583 L243.5718,184.033 L245.2148,184.6328 L245.2148,183.9918 L247.2148,185.2359 L249.2148,184.3693 L251.2148,185.1073 L253.2148,184.1928 L255.2148,184.6328" fill="none" style="stroke:#FF9900;stroke-width:1;"/><a href="/use-case/legal-entity-management/lifecycle-and-status/" target="_top" title="/use-case/legal-entity-management/lifecycle-and-status/" xlink:actuate="onRequest" xlink:href="/use-case/legal-entity-management/lifecycle-and-status/" xlink:show="new" xlink:title="/use-case/legal-entity-management/lifecycle-and-status/" xlink:type="simple"><text fill="#90EE90" font-family="'Roboto'" font-size="14" lengthAdjust="spacing" textLength="125.8428" x="262.2148" y="215.7764">Lifecycle &amp; Status</text></a><path d="M205.2148,156.4844 L205.2148,156.6712 L207.2148,156.1161 L209.2148,156.6562 L211.2148,156.8396 L213.2148,155.8502 L215.2148,156.4844 L215.2148,156.4844 L215.191,156.4594 L216.8652,158.0487 L218.6596,159.764 L220.5377,161.5667 L222.1276,163.0678 L224.1211,164.9915 L224.3551,165.0676 L225.0735,168.6478 L226.475,172.4505 L227.9599,176.2802 L228.9598,179.9521 L230.2148,183.707 L230.2437,183.7164 L231.4201,187.4458 L232.7278,191.2178 L233.9722,194.9693 L235.3374,198.7601 L236.3086,202.4226 L236.5146,202.6383 L238.2984,204.3423 L239.9493,205.9073 L241.7947,207.6758 L243.6492,209.454 L245.2148,210.9297 L245.2148,210.2886 L247.2148,211.5328 L249.2148,210.6661 L251.2148,211.4042 L253.2148,210.4897 L255.2148,210.9297" fill="none" style="stroke:#FF9900;stroke-width:1;"/><a href="/use-case/legal-entity-management/contact-and-location-information/" target="_top" title="/use-case/legal-entity-management/contact-and-location-information/" xlink:actuate="onRequest" xlink:href="/use-case/legal-entity-management/contact-and-location-information/" xlink:show="new" xlink:title="/use-case/legal-entity-management/contact-and-location-information/" xlink:type="simple"><text fill="#90EE90" font-family="'Roboto'" font-size="14" lengthAdjust="spacing" textLength="219.4814" x="262.2148" y="242.0732">Contact &amp; Location Information</text></a><path d="M205.2148,156.4844 L205.2148,156.6712 L207.2148,156.1161 L209.2148,156.6562 L211.2148,156.8396 L213.2148,155.8502 L215.2148,156.4844 L215.2148,156.4844 L215.1866,156.4645 L216.8412,158.8982 L218.6381,161.4325 L220.5338,164.0365 L222.0888,166.3999 L224.1211,169.1003 L224.3599,169.1598 L224.4938,171.6189 L225.3249,174.2516 L226.241,176.9056 L226.6622,179.4362 L227.3438,182.0317 L227.3735,182.0375 L227.904,184.9938 L228.5701,187.9763 L229.1707,190.9462 L229.8962,193.9402 L230.2148,196.8555 L230.5076,196.9122 L231.0854,199.8776 L231.4744,202.8065 L232.1398,205.7889 L232.8181,208.7738 L233.0859,211.6792 L232.7749,211.6017 L234.0231,214.3384 L234.2471,216.8199 L235.2497,219.4954 L235.4506,221.9711 L236.3086,224.6106 L236.2837,224.593 L238.3591,227.3239 L239.8534,229.6445 L241.6906,232.2072 L243.5565,234.7902 L245.2148,237.2266 L245.2148,237.5965 L247.2148,237.2231 L249.2148,237.4819 L251.2148,236.7177 L253.2148,237.4794 L255.2148,237.2266" fill="none" style="stroke:#FF9900;stroke-width:1;"/><a href="/use-case/legal-entity-management/compliance-and-documentation/" target="_top" title="/use-case/legal-entity-management/compliance-and-documentation/" xlink:actuate="onRequest" xlink:href="/use-case/legal-entity-management/compliance-and-documentation/" xlink:show="new" xlink:title="/use-case/legal-entity-management/compliance-and-documentation/" xlink:type="simple"><text fill="#90EE90" font-family="'Roboto'" font-size="14" lengthAdjust="spacing" textLength="210.1504" x="262.2148" y="268.3701">Compliance &amp; Documentation</text></a><path d="M205.2148,156.4844 L205.2148,156.6712 L207.2148,156.1161 L209.2148,156.6562 L211.2148,156.8396 L213.2148,155.8502 L215.2148,156.4844 L215.2148,156.4844 L215.1844,156.4681 L216.8288,159.7403 L218.6269,163.0942 L220.5319,166.505 L222.0686,169.7198 L224.1211,173.2092 L224.3629,173.2547 L224.4903,176.5861 L225.3238,180.0502 L226.2434,183.5305 L226.6618,186.9166 L227.3438,190.3522 L227.3738,190.3566 L227.9039,194.2805 L228.5707,198.2244 L229.1716,202.1586 L229.8982,206.1112 L230.2148,210.0039 L230.51,210.047 L231.0878,213.9779 L231.4753,217.8809 L232.1414,221.8247 L232.8205,225.7704 L233.0859,229.6556 L232.7709,229.5964 L234.0268,233.1399 L234.2455,236.4885 L235.2527,239.9852 L235.4478,243.3293 L236.3086,246.7986 L236.2817,246.7843 L238.3808,250.2985 L239.852,253.4783 L241.6937,256.8555 L243.5664,260.2492 L245.2148,263.5234 L245.2148,263.8934 L247.2148,263.52 L249.2148,263.7787 L251.2148,263.0146 L253.2148,263.7762 L255.2148,263.5234" fill="none" style="stroke:#FF9900;stroke-width:1;"/><a href="/use-case/legal-entity-management/supporting-information/" target="_top" title="/use-case/legal-entity-management/supporting-information/" xlink:actuate="onRequest" xlink:href="/use-case/legal-entity-management/supporting-information/" xlink:show="new" xlink:title="/use-case/legal-entity-management/supporting-information/" xlink:type="simple"><text fill="#90EE90" font-family="'Roboto'" font-size="14" lengthAdjust="spacing" textLength="162.7295" x="262.2148" y="294.667">Supporting Information</text></a><path d="M205.2148,156.4844 L205.2148,156.6712 L207.2148,156.1161 L209.2148,156.6562 L211.2148,156.8396 L213.2148,155.8502 L215.2148,156.4844 L215.2148,156.4844 L215.1888,156.4617 L216.0679,157.5059 L217.0784,158.6643 L218.1803,159.9021 L218.9673,160.8662 L220.1953,162.2137 L220.4335,162.2756 L220.7094,165.1641 L221.6806,168.2333 L222.7366,171.3246 L223.299,174.2876 L224.1211,177.3181 L224.151,177.3231 L224.4425,179.3341 L224.8703,181.3677 L225.2323,183.3903 L225.7197,185.4339 L225.7983,187.4095 L226.0938,187.45 L226.4065,189.7031 L226.5286,191.9301 L226.9297,194.1954 L227.3439,196.4625 L227.3438,198.6727 L227.0254,198.6354 L228.2175,203.6038 L228.3613,208.4492 L229.302,213.3881 L229.4221,218.2308 L230.2148,223.1523 L230.1846,223.1488 L231.1164,228.0867 L231.3418,232.9417 L231.984,237.8456 L232.6612,242.7536 L233.0859,247.632 L233.2692,247.6571 L233.3933,249.8844 L233.8306,252.1546 L233.7611,254.3554 L234.4475,256.6598 L234.6313,258.8952 L234.8717,258.9352 L235.1617,260.9459 L235.571,262.9764 L235.4259,264.9148 L235.6872,266.9208 L236.3086,268.9866 L236.0413,268.9171 L237.0684,272.0009 L237.7944,275.0064 L238.9572,278.1254 L239.3741,281.0506 L240.2344,284.091 L240.1193,283.991 L241.307,285.3034 L242.0029,286.1883 L243.0485,287.3772 L244.4364,288.8637 L245.2148,289.8203 L245.2148,290.2076 L247.2148,290.4732 L249.2148,289.5343 L251.2148,290.104 L253.2148,290.3451 L255.2148,289.8203" fill="none" style="stroke:#FF9900;stroke-width:1;"/><!--SRC=[xLXjRzf84FxkNx7NI9TMFGhaaggDgYg4bpG9X0YIIgUgYXPxW1LcrxUxJewUxh_Vh8sDRTu9z99J-8HtPfzvsPUPVKwKfb8F6NU6rBEiNnpeCWxazEokKJg_kYitwyqM2NvxXuMZOkSegTAkbfjNbLBhZx7U39NhKlcoT5QDWQPKcgrAjPMqG_QwtVVTGY5MgJMlRb8AWOhvMPOQCEvHIOUaG-r1JmgVEsNX2XafQacvGWtWEg7yPUI1h3C-IEgIFPVr-hed0RXbxHF6RTTtWEW-a1vmaDGbCOGYNPpO4Rh_6mcc4SeTub0vm9bQ474Fya4o3UI1wNw8mUw14mLQCzvJsGpSV3alNrvLssrIn6KGdcQ2apw26XID4xlKLP28uPew3WAHmyHOAunVehFaGsAytQUEU33QMPGW4ovcufOxmHyOgoHqAj2blgl9trPDS7r5Xq1UjGJ6Bbu58s4I9yiK3BRP3o35G-kV9599Il60E3Ddp8RH8nTp95mdZUJXSjCUZ7sQcdgQsGsf_MoT2ed1ZYM93OWc9XQuSDQ1JstqrIpOOkW9ZZiJpMpey4plmfpvG_SWdJE7QjgX2hPiBcN3TeNlxDI0S5smpUbGMpSpiL961IdS7LeuDP1KZdPeeierqxiqmBW6sQKsxD166_xqWTjmZMMAsSoZN8TWDtrc3pWeXHVcH5sDrT6Zv8o5par1p_0peJEvbhYGG-fcPLFXr5aNiDZ0NF1OOQ6RmUKv1HwCpaKEf3ET2YIJ7FvkbMmjv18F0fMvjenqtW7U9-L3OhA6HGW_zfR-acTUue6dlEV2fqzOhPJWdp_Z-hPnyu7GMC3cLezjrONiZilMxFGLbN0N_a8dENNljkztfldQWVDgf3GCdr-kj-_tZd8T5UJdaUg9jyylqubjqXaNtj3hJ6ESZYBeOGlBkxsDObySM5XW7AhwuAmIwynGRJHCiQx8LMF5VdtnLjf1f8kNC5dQDTMpEeteIJan7ZqFIrfBrl4rJ8kIJaKFpamZIvNQiRLzqWWVtaHvOBCkip78i4HElKDMzsDfQ7JIIEpLQXy_eZmZJFPMblNsZdpxHlA-WfoDvp_lGe-wEGYwozoGSdo73V4hJ-f64BMTZLX0ld-ttguAmXmpXgcWfiVFuGCu9w7753xapK2UdASKoA-abH2lPSeMqXCu3t8zyrpd5Fl6FBR-ur5o5e-6i8_2TPWvc4AgFlDKdbIIdrk0Lwp7AU8nGF3sv6CC_GXa8NkKinz1Ud4MPjgtjIynKysK1BkxiMIjHH0FU3-PB0HBRLEFwOoLI06NkXoADpJLPIOYXZB6kwPr3pTKBHecvvFXjO1TxD_jaUr248EvftnSXNeqYewtWx4rToTUthOE85qnFWufnykX1iBNn_AD8p1KXClCUWVs767xPZms54dHLYKfMyk8yZtSNeRzIiVHZiUp_fy0NeyHDtcIfYftoFqzOPOjkkHNfDYIwZC0rY3NukeofmxDhZeBwBJ70YvYpnPXJ7km0L-sde6L6BB7G2xanDO5NeK5snnp0U-rEUXSfcjpo4NSrkQeEs6p8dVcy5YHPsjJM540i_Yh27GUTHNvb22juZuvorX5M1coAgM_bAcA3MOvgXWzJKyb3j96JDFyctMTtJAz-8zbadwsNqieWFyiJK_1hvNvdP_ipPDAqbQfcSYFDQEPw_L26gQuIzvbsv5ayl-_vbLUo9CNykI5F7aXJrx8avWjkNQnjRzjr0bkJMKKYkyE2WT7xuh53cXQBBo-vGEEsobuLZDCksP3U6EzFhkk4oLyYTuxvg8m5p5EVsDTq7jAMZutUiUawG6_g5n60tYDtJCfkF7SklZQc2YyFyoTCetl88cEaAyDAw8zgjmMXcav9hStjTm7guwrrCVWZmbmgunNjvOZbBN_1G00]--></g></svg>