<svg xmlns="http://www.w3.org/2000/svg" xmlns:xlink="http://www.w3.org/1999/xlink" contentStyleType="text/css" data-diagram-type="MINDMAP" height="253px" preserveAspectRatio="none" style="width:673px;height:253px;" version="1.1" viewBox="0 0 673 253" width="673px" zoomAndPan="magnify"><defs/><g><a href="/use-case/legal-entity-management/" target="_top" title="/use-case/legal-entity-management/" xlink:actuate="onRequest" xlink:href="/use-case/legal-entity-management/" xlink:show="new" xlink:title="/use-case/legal-entity-management/" xlink:type="simple"><text fill="#4051B5" font-family="'Roboto'" font-size="13" lengthAdjust="spacing" textLength="166.9243" x="17" y="130.0317">Legal Entity Management</text></a><a href="/use-case/legal-entity-management/identification-and-registration/" target="_top" title="/use-case/legal-entity-management/identification-and-registration/" xlink:actuate="onRequest" xlink:href="/use-case/legal-entity-management/identification-and-registration/" xlink:show="new" xlink:title="/use-case/legal-entity-management/identification-and-registration/" xlink:type="simple"><text fill="#4051B5" font-family="'Roboto'" font-size="13" lengthAdjust="spacing" textLength="182.6157" x="249.0566" y="27.0669">Identification &amp; Registration</text></a><path d="M192.0566,125.5313 L192.0566,125.7181 L194.0566,125.163 L196.0566,125.7031 L198.0566,125.8865 L200.0566,124.8971 L202.0566,125.5313 L202.0566,125.5313 L202.0264,125.5145 L203.6721,122.2218 L205.47,119.0134 L207.3739,115.8636 L208.9128,112.5118 L210.9629,109.443 L211.2044,109.4902 L211.3325,106.0912 L212.1657,102.8299 L213.0849,99.5855 L213.5036,96.2433 L214.1855,92.9525 L214.2155,92.9571 L214.7457,89.1697 L215.4124,85.403 L216.0133,81.6263 L216.7398,77.8687 L217.0566,74.0488 L217.3515,74.0936 L217.9293,70.3134 L218.317,66.5043 L218.983,62.7375 L219.6621,58.9727 L219.9277,55.1451 L219.6132,55.0837 L220.8682,51.9049 L221.0875,48.5237 L222.0942,45.2964 L222.2899,41.9106 L223.1504,38.6547 L223.1238,38.6399 L225.22,35.5966 L226.6939,32.2089 L228.5351,29.0244 L230.4071,25.8569 L232.0566,22.5664 L232.0566,22.9364 L234.0566,22.5629 L236.0566,22.8217 L238.0566,22.0576 L240.0566,22.8192 L242.0566,22.5664" fill="none" style="stroke:#FF6F00;stroke-width:1;"/><a href="/use-case/legal-entity-management/corporate-governance/" target="_top" title="/use-case/legal-entity-management/corporate-governance/" xlink:actuate="onRequest" xlink:href="/use-case/legal-entity-management/corporate-governance/" xlink:show="new" xlink:title="/use-case/legal-entity-management/corporate-governance/" xlink:type="simple"><text fill="#4051B5" font-family="'Roboto'" font-size="13" lengthAdjust="spacing" textLength="147.7734" x="249.0566" y="52.1997">Corporate Governance</text></a><path d="M192.0566,125.5313 L192.0566,125.7181 L194.0566,125.163 L196.0566,125.7031 L198.0566,125.8865 L200.0566,124.8971 L202.0566,125.5313 L202.0566,125.5313 L202.0288,125.5108 L203.685,122.987 L205.4816,120.566 L207.376,118.2166 L208.9337,115.6207 L210.9629,113.37 L211.2011,113.4316 L211.3362,110.8068 L212.1669,108.3619 L213.0823,105.9389 L213.5041,103.3882 L214.1855,100.9047 L214.2153,100.9107 L214.7458,98.044 L215.4118,95.2045 L216.0124,92.352 L216.7376,89.5244 L217.0566,86.6152 L217.349,86.674 L217.9268,83.8168 L218.316,80.9217 L218.9813,78.0821 L219.6595,75.2451 L219.9277,72.3258 L219.6174,72.2455 L220.8642,69.9082 L221.0892,67.3067 L222.091,64.906 L222.2929,62.2985 L223.1504,59.8605 L223.1258,59.8425 L225.1976,57.623 L226.6954,54.9832 L228.5319,52.5914 L230.3968,50.2204 L232.0566,47.6992 L232.0566,48.0692 L234.0566,47.6957 L236.0566,47.9545 L238.0566,47.1904 L240.0566,47.952 L242.0566,47.6992" fill="none" style="stroke:#FF6F00;stroke-width:1;"/><polygon fill="#4051B5" points="246.0566,70.2656,246.0566,70.4758,256.2629,69.8513,266.4692,70.4589,276.6754,70.6653,286.8817,69.5522,297.088,70.1879,307.2942,69.8391,317.5005,69.8821,327.7068,70.1975,337.913,69.5743,348.1193,70.8193,358.3255,69.6353,368.5318,70.0679,378.7381,70.6976,388.9443,70.1798,399.1506,70.3339,409.3569,70.2337,419.5631,70.4442,429.7694,70.5048,439.9757,70.8513,450.1819,70.9367,460.3882,70.2656,460.4748,70.4748,460.9863,70.5784,461.5787,70.877,462.1748,71.1848,462.5589,70.9808,463.2166,71.4372,463.4256,71.5237,463.3596,71.9651,463.8496,72.6367,463.7671,73.0711,464.1328,73.6912,464.3882,74.2656,464.6354,74.2656,464.3719,79.6922,464.4233,85.1188,464.5011,90.5453,464.5269,95.9719,464.3882,101.3984,464.387,101.3979,464.2423,102.0008,463.7433,102.4568,463.7728,103.1318,463.6197,103.7311,463.2166,104.2269,463.2733,104.3638,462.7291,104.65,462.0236,104.5467,461.4364,104.729,460.8746,104.9728,460.3882,105.3984,460.3882,105.3396,450.1819,105.2019,439.9757,106.0798,429.7694,105.2238,419.5631,105.0554,409.3569,105.6267,399.1506,104.7316,388.9443,104.8793,378.7381,106.0474,368.5318,105.8341,358.3255,106.1329,348.1193,105.0766,337.913,105.7176,327.7068,105.9889,317.5005,104.926,307.2942,105.3026,297.088,105.5244,286.8817,106.0502,276.6754,105.3942,266.4692,105.861,256.2629,104.8447,246.0566,105.3984,245.9702,105.1899,245.5552,105.3192,244.8338,104.709,244.4245,104.8522,243.8203,104.5248,243.2282,104.2269,243.1457,104.1927,242.885,103.6161,242.9009,103.154,242.4331,102.4916,242.4732,102.0396,242.0566,101.3984,241.8724,101.3984,242.2624,95.9719,242.2181,90.5453,242.1383,85.1188,242.0724,79.6922,242.0566,74.2656,242.2804,74.3583,242.4799,73.7782,242.5774,73.1558,242.8422,72.6028,242.9538,71.9863,243.2282,71.4372,243.3196,71.6578,243.8137,71.2506,244.3816,71.0217,244.8477,70.5469,245.4393,70.3751,246.0566,70.2656" style="stroke:#FF6F00;stroke-width:1.5;"/><a href="/use-case/legal-entity-management/ownership-and-capital-structure/" target="_top" title="/use-case/legal-entity-management/ownership-and-capital-structure/" xlink:actuate="onRequest" xlink:href="/use-case/legal-entity-management/ownership-and-capital-structure/" xlink:show="new" xlink:title="/use-case/legal-entity-management/ownership-and-capital-structure/" xlink:type="simple"><text fill="#4051B5" font-family="'Roboto'" font-size="13" lengthAdjust="spacing" textLength="198.1992" x="252.0566" y="92.3325">Ownership &amp; Capital Structure</text></a><a href="/use-case/legal-entity-management/ownership-and-capital-structure/ownership/" target="_top" title="/use-case/legal-entity-management/ownership-and-capital-structure/ownership/" xlink:actuate="onRequest" xlink:href="/use-case/legal-entity-management/ownership-and-capital-structure/ownership/" xlink:show="new" xlink:title="/use-case/legal-entity-management/ownership-and-capital-structure/ownership/" xlink:type="simple"><text fill="#4051B5" font-family="'Roboto'" font-size="13" lengthAdjust="spacing" textLength="69.3228" x="521.3882" y="29.5005">Ownership</text></a><path d="M464.3882,87.832 L464.3882,88.0189 L466.3882,87.4637 L468.3882,88.0038 L470.3882,88.1873 L472.3882,87.1979 L474.3882,87.832 L474.3882,87.832 L474.3626,87.8088 L476.029,85.7412 L477.8244,83.7905 L479.7095,81.9212 L481.2856,79.7716 L483.2944,78.0145 L483.5288,78.0896 L483.6722,75.9165 L484.4998,73.9625 L485.4109,72.0353 L485.8363,69.9525 L486.5171,67.9516 L486.5465,67.9589 L487.0775,65.641 L487.7425,63.3565 L488.3429,61.0559 L489.0666,58.786 L489.3882,56.416 L489.6776,56.488 L490.2554,54.1818 L490.6464,51.8291 L491.3108,49.5444 L491.9879,47.2629 L492.2593,44.8804 L491.954,44.7827 L493.191,42.9598 L493.4228,40.8151 L494.4188,38.915 L494.6279,36.763 L495.4819,34.8175 L495.4594,34.797 L497.5073,33.0755 L499.0284,30.8759 L500.8603,28.9584 L502.7184,27.0646 L504.3882,25 L504.3882,25.37 L506.3882,24.9965 L508.3882,25.2553 L510.3882,24.4912 L512.3882,25.2528 L514.3882,25" fill="none" style="stroke:#FF6F00;stroke-width:1;"/><a href="/use-case/legal-entity-management/ownership-and-capital-structure/control/" target="_top" title="/use-case/legal-entity-management/ownership-and-capital-structure/control/" xlink:actuate="onRequest" xlink:href="/use-case/legal-entity-management/ownership-and-capital-structure/control/" xlink:show="new" xlink:title="/use-case/legal-entity-management/ownership-and-capital-structure/control/" xlink:type="simple"><text fill="#4051B5" font-family="'Roboto'" font-size="13" lengthAdjust="spacing" textLength="47.2773" x="521.3882" y="54.6333">Control</text></a><path d="M464.3882,87.832 L464.3882,88.0189 L466.3882,87.4637 L468.3882,88.0038 L470.3882,88.1873 L472.3882,87.1979 L474.3882,87.832 L474.3882,87.832 L474.3691,87.8032 L476.0649,86.4958 L477.8567,85.3337 L479.7152,84.2725 L481.3437,82.8633 L483.2944,81.9415 L483.5171,82.0462 L484.2597,79.2305 L485.6524,76.7205 L487.1244,74.2478 L488.1349,71.558 L489.3882,68.9824 L489.4156,68.9953 L490.5941,66.3846 L491.8975,63.8325 L493.1406,61.2522 L494.4987,58.7259 L495.4819,56.0233 L495.6465,56.2721 L497.4297,55.097 L499.1069,53.7615 L500.9393,52.6609 L502.7791,51.5712 L504.3882,50.1328 L504.3882,49.4918 L506.3882,50.7359 L508.3882,49.8693 L510.3882,50.6073 L512.3882,49.6928 L514.3882,50.1328" fill="none" style="stroke:#FF6F00;stroke-width:1;"/><a href="/use-case/legal-entity-management/ownership-and-capital-structure/shares/" target="_top" title="/use-case/legal-entity-management/ownership-and-capital-structure/shares/" xlink:actuate="onRequest" xlink:href="/use-case/legal-entity-management/ownership-and-capital-structure/shares/" xlink:show="new" xlink:title="/use-case/legal-entity-management/ownership-and-capital-structure/shares/" xlink:type="simple"><text fill="#4051B5" font-family="'Roboto'" font-size="13" lengthAdjust="spacing" textLength="132.2979" x="521.3882" y="79.7661">Shares &amp; Ownership</text></a><path d="M464.3882,87.832 L464.3882,88.0189 L466.3882,87.4637 L468.3882,88.0038 L470.3882,88.1873 L472.3882,87.1979 L474.3882,87.832 L474.3882,87.832 L474.3748,87.8002 L477.3149,86.4006 L480.3223,85.1615 L483.3765,84.0342 L486.2695,82.5221 L489.3882,81.5488 L489.4833,81.7758 L492.28,80.0338 L495.3542,78.9545 L498.4624,77.956 L501.3735,76.4871 L504.3882,75.2656 L504.3882,75.3263 L506.3882,75.2372 L508.3882,75.4243 L510.3882,75.4782 L512.3882,75.7862 L514.3882,75.2656" fill="none" style="stroke:#FF6F00;stroke-width:1;"/><a href="/use-case/legal-entity-management/ownership-and-capital-structure/share-capital/" target="_top" title="/use-case/legal-entity-management/ownership-and-capital-structure/share-capital/" xlink:actuate="onRequest" xlink:href="/use-case/legal-entity-management/ownership-and-capital-structure/share-capital/" xlink:show="new" xlink:title="/use-case/legal-entity-management/ownership-and-capital-structure/share-capital/" xlink:type="simple"><text fill="#4051B5" font-family="'Roboto'" font-size="13" lengthAdjust="spacing" textLength="87.5151" x="521.3882" y="104.8989">Share Capital</text></a><path d="M464.3882,87.832 L464.3882,88.0189 L466.3882,87.4637 L468.3882,88.0038 L470.3882,88.1873 L472.3882,87.1979 L474.3882,87.832 L474.3882,87.832 L474.3748,87.8002 L477.3149,88.9138 L480.3223,90.1881 L483.3765,91.574 L486.2695,92.5752 L489.3882,94.1152 L489.4833,94.3422 L492.28,95.1135 L495.3542,96.5474 L498.4624,98.0622 L501.3735,99.1066 L504.3882,100.3984 L504.3882,100.4591 L506.3882,100.37 L508.3882,100.5571 L510.3882,100.611 L512.3882,100.9191 L514.3882,100.3984" fill="none" style="stroke:#FF6F00;stroke-width:1;"/><a href="/use-case/legal-entity-management/ownership-and-capital-structure/issued-capital/" target="_top" title="/use-case/legal-entity-management/ownership-and-capital-structure/issued-capital/" xlink:actuate="onRequest" xlink:href="/use-case/legal-entity-management/ownership-and-capital-structure/issued-capital/" xlink:show="new" xlink:title="/use-case/legal-entity-management/ownership-and-capital-structure/issued-capital/" xlink:type="simple"><text fill="#4051B5" font-family="'Roboto'" font-size="13" lengthAdjust="spacing" textLength="91.584" x="521.3882" y="130.0317">Issued Capital</text></a><path d="M464.3882,87.832 L464.3882,88.0189 L466.3882,87.4637 L468.3882,88.0038 L470.3882,88.1873 L472.3882,87.1979 L474.3882,87.832 L474.3882,87.832 L474.3691,87.8032 L476.0649,88.852 L477.8567,90.0461 L479.7152,91.3411 L481.3437,92.2881 L483.2944,93.7225 L483.5171,93.8272 L484.2597,96.1952 L485.6524,98.8688 L487.1244,101.5797 L488.1349,104.0736 L489.3882,106.6816 L489.4156,106.6945 L490.5941,109.2674 L491.8975,111.899 L493.1406,114.5023 L494.4987,117.1597 L495.4819,119.6407 L495.6465,119.8895 L497.4297,121.0706 L499.1069,122.0913 L500.9393,123.3469 L502.7791,124.6135 L504.3882,125.5313 L504.3882,124.8902 L506.3882,126.1344 L508.3882,125.2677 L510.3882,126.0057 L512.3882,125.0912 L514.3882,125.5313" fill="none" style="stroke:#FF6F00;stroke-width:1;"/><a href="/use-case/legal-entity-management/ownership-and-capital-structure/corporate-actions/" target="_top" title="/use-case/legal-entity-management/ownership-and-capital-structure/corporate-actions/" xlink:actuate="onRequest" xlink:href="/use-case/legal-entity-management/ownership-and-capital-structure/corporate-actions/" xlink:show="new" xlink:title="/use-case/legal-entity-management/ownership-and-capital-structure/corporate-actions/" xlink:type="simple"><text fill="#4051B5" font-family="'Roboto'" font-size="13" lengthAdjust="spacing" textLength="116.835" x="521.3882" y="155.1646">Corporate Actions</text></a><path d="M464.3882,87.832 L464.3882,88.0189 L466.3882,87.4637 L468.3882,88.0038 L470.3882,88.1873 L472.3882,87.1979 L474.3882,87.832 L474.3882,87.832 L474.3626,87.8088 L476.029,89.6682 L477.8244,91.6445 L479.7095,93.7022 L481.2856,95.4796 L483.2944,97.6495 L483.5288,97.7246 L483.6722,99.5767 L484.4998,101.6479 L485.4109,103.7459 L485.8363,105.6883 L486.5171,107.7125 L486.5465,107.7198 L487.0775,110.0162 L487.7425,112.3459 L488.3429,114.6595 L489.0666,117.0038 L489.3882,119.248 L489.6776,119.3201 L490.2554,121.6281 L490.6464,123.8896 L491.3108,126.2192 L491.9879,128.5519 L492.2593,130.7836 L491.954,130.6859 L493.191,132.8882 L493.4228,134.7686 L494.4188,136.8937 L494.6279,138.7669 L495.4819,140.8466 L495.4594,140.8261 L497.5073,143.0315 L499.0284,144.759 L500.8603,146.7685 L502.7184,148.8017 L504.3882,150.6641 L504.3882,151.034 L506.3882,150.6606 L508.3882,150.9194 L510.3882,150.1552 L512.3882,150.9169 L514.3882,150.6641" fill="none" style="stroke:#FF6F00;stroke-width:1;"/><path d="M192.0566,125.5313 L192.0566,125.7181 L194.0566,125.163 L196.0566,125.7031 L198.0566,125.8865 L200.0566,124.8971 L202.0566,125.5313 L202.0566,125.5313 L202.0376,125.5024 L203.7333,124.195 L205.5251,123.0329 L207.3837,121.9717 L209.0121,120.5626 L210.9629,119.6407 L211.1856,119.7455 L211.9281,116.9297 L213.3208,114.4197 L214.7929,111.947 L215.8034,109.2572 L217.0566,106.6816 L217.0841,106.6945 L218.2625,104.0838 L219.5659,101.5318 L220.8091,98.9514 L222.1672,96.4251 L223.1504,93.7225 L223.3149,93.9713 L225.0982,92.7962 L226.7753,91.4607 L228.6078,90.3601 L230.4476,89.2704 L232.0566,87.832 L232.0566,87.191 L234.0566,88.4352 L236.0566,87.5685 L238.0566,88.3065 L240.0566,87.392 L242.0566,87.832" fill="none" style="stroke:#FF6F00;stroke-width:1;"/><a href="/use-case/legal-entity-management/financial-information/" target="_top" title="/use-case/legal-entity-management/financial-information/" xlink:actuate="onRequest" xlink:href="/use-case/legal-entity-management/financial-information/" xlink:show="new" xlink:title="/use-case/legal-entity-management/financial-information/" xlink:type="simple"><text fill="#4051B5" font-family="'Roboto'" font-size="13" lengthAdjust="spacing" textLength="137.4839" x="249.0566" y="132.4653">Financial Information</text></a><path d="M192.0566,125.5313 L192.0566,125.7181 L194.0566,125.163 L196.0566,125.7031 L198.0566,125.8865 L200.0566,124.8971 L202.0566,125.5313 L202.0566,125.5313 L202.0538,125.4968 L205.0413,125.5857 L208.0429,125.8481 L211.0542,126.2311 L214.0318,126.1984 L217.0566,126.748 L217.0765,126.9933 L220.034,126.7122 L223.0495,127.1472 L226.0722,127.6695 L229.0536,127.6835 L232.0566,127.9648 L232.0566,128.0255 L234.0566,127.9364 L236.0566,128.1235 L238.0566,128.1774 L240.0566,128.4855 L242.0566,127.9648" fill="none" style="stroke:#FF6F00;stroke-width:1;"/><a href="/use-case/legal-entity-management/lifecycle-and-status/" target="_top" title="/use-case/legal-entity-management/lifecycle-and-status/" xlink:actuate="onRequest" xlink:href="/use-case/legal-entity-management/lifecycle-and-status/" xlink:show="new" xlink:title="/use-case/legal-entity-management/lifecycle-and-status/" xlink:type="simple"><text fill="#4051B5" font-family="'Roboto'" font-size="13" lengthAdjust="spacing" textLength="116.854" x="249.0566" y="157.5981">Lifecycle &amp; Status</text></a><path d="M192.0566,125.5313 L192.0566,125.7181 L194.0566,125.163 L196.0566,125.7031 L198.0566,125.8865 L200.0566,124.8971 L202.0566,125.5313 L202.0566,125.5313 L202.0416,125.5002 L203.7554,126.2221 L205.5449,127.1007 L207.3872,128.0883 L209.0479,128.7004 L210.9629,129.8385 L211.1699,129.9716 L211.946,131.5822 L213.3265,133.5813 L214.7806,135.6279 L215.8058,137.3986 L217.0566,139.3145 L217.0821,139.3309 L218.2634,141.202 L219.5609,143.1478 L220.8023,145.0575 L222.1506,147.036 L223.1504,148.7904 L223.2802,149.0589 L225.0631,149.9236 L226.7622,150.6152 L228.5838,151.5602 L230.4113,152.5172 L232.0566,153.0977 L232.0566,152.4566 L234.0566,153.7008 L236.0566,152.8341 L238.0566,153.5722 L240.0566,152.6576 L242.0566,153.0977" fill="none" style="stroke:#FF6F00;stroke-width:1;"/><a href="/use-case/legal-entity-management/contact-and-location-information/" target="_top" title="/use-case/legal-entity-management/contact-and-location-information/" xlink:actuate="onRequest" xlink:href="/use-case/legal-entity-management/contact-and-location-information/" xlink:show="new" xlink:title="/use-case/legal-entity-management/contact-and-location-information/" xlink:type="simple"><text fill="#4051B5" font-family="'Roboto'" font-size="13" lengthAdjust="spacing" textLength="203.8042" x="249.0566" y="182.731">Contact &amp; Location Information</text></a><path d="M192.0566,125.5313 L192.0566,125.7181 L194.0566,125.163 L196.0566,125.7031 L198.0566,125.8865 L200.0566,124.8971 L202.0566,125.5313 L202.0566,125.5313 L202.0332,125.5059 L203.7092,127.0389 L205.5034,128.6998 L207.3798,130.4496 L208.973,131.893 L210.9629,133.7655 L211.1961,133.844 L211.9161,137.2993 L213.3171,140.9836 L214.8011,144.6959 L215.8018,148.2456 L217.0566,151.8809 L217.0854,151.8905 L218.2619,155.4994 L219.5693,159.1523 L220.8136,162.784 L222.1784,166.4561 L223.1504,169.9962 L223.3529,170.2152 L225.1366,171.8647 L226.7897,173.373 L228.634,175.0881 L230.4873,176.8128 L232.0566,178.2305 L232.0566,177.5894 L234.0566,178.8336 L236.0566,177.9669 L238.0566,178.705 L240.0566,177.7904 L242.0566,178.2305" fill="none" style="stroke:#FF6F00;stroke-width:1;"/><a href="/use-case/legal-entity-management/compliance-and-documentation/" target="_top" title="/use-case/legal-entity-management/compliance-and-documentation/" xlink:actuate="onRequest" xlink:href="/use-case/legal-entity-management/compliance-and-documentation/" xlink:show="new" xlink:title="/use-case/legal-entity-management/compliance-and-documentation/" xlink:type="simple"><text fill="#4051B5" font-family="'Roboto'" font-size="13" lengthAdjust="spacing" textLength="195.1396" x="249.0566" y="207.8638">Compliance &amp; Documentation</text></a><path d="M192.0566,125.5313 L192.0566,125.7181 L194.0566,125.163 L196.0566,125.7031 L198.0566,125.8865 L200.0566,124.8971 L202.0566,125.5313 L202.0566,125.5313 L202.0288,125.5108 L203.685,127.8515 L205.4816,130.295 L207.376,132.8101 L208.9337,135.0787 L210.9629,137.6925 L211.2011,137.7541 L211.3362,140.1154 L212.1669,142.6566 L213.0823,145.2197 L213.5041,147.6552 L214.1855,150.1578 L214.2153,150.1638 L214.7458,153.0129 L215.4118,155.8892 L216.0124,158.7524 L216.7376,161.6406 L217.0566,164.4473 L217.349,164.506 L217.9268,167.3646 L218.316,170.1853 L218.9813,173.0615 L219.6595,175.9403 L219.9277,178.7367 L219.6174,178.6565 L220.8642,181.3053 L221.0892,183.6899 L222.091,186.2753 L222.2929,188.6539 L223.1504,191.202 L223.1258,191.184 L225.1976,193.829 L226.6954,196.0537 L228.5319,198.5264 L230.3968,201.02 L232.0566,203.3633 L232.0566,203.7333 L234.0566,203.3598 L236.0566,203.6186 L238.0566,202.8545 L240.0566,203.6161 L242.0566,203.3633" fill="none" style="stroke:#FF6F00;stroke-width:1;"/><a href="/use-case/legal-entity-management/supporting-information/" target="_top" title="/use-case/legal-entity-management/supporting-information/" xlink:actuate="onRequest" xlink:href="/use-case/legal-entity-management/supporting-information/" xlink:show="new" xlink:title="/use-case/legal-entity-management/supporting-information/" xlink:type="simple"><text fill="#4051B5" font-family="'Roboto'" font-size="13" lengthAdjust="spacing" textLength="151.106" x="249.0566" y="232.9966">Supporting Information</text></a><path d="M192.0566,125.5313 L192.0566,125.7181 L194.0566,125.163 L196.0566,125.7031 L198.0566,125.8865 L200.0566,124.8971 L202.0566,125.5313 L202.0566,125.5313 L202.0264,125.5145 L203.6721,128.6571 L205.47,131.884 L207.3739,135.1695 L208.9128,138.253 L210.9629,141.6195 L211.2044,141.6667 L211.3325,144.8639 L212.1657,148.1988 L213.0849,151.5506 L213.5036,154.8046 L214.1855,158.11 L214.2155,158.1145 L214.7457,161.8886 L215.4124,165.6834 L216.0133,169.4682 L216.7398,173.272 L217.0566,177.0137 L217.3515,177.0585 L217.9293,180.8397 L218.317,184.5921 L218.983,188.3868 L219.6621,192.1835 L219.9277,195.9174 L219.6132,195.8559 L220.8682,199.2733 L221.0875,202.4883 L222.0942,205.8572 L222.2899,209.0675 L223.1504,212.4078 L223.1238,212.3931 L225.22,215.7851 L226.6939,218.8326 L228.5351,222.0835 L230.4071,225.3513 L232.0566,228.4961 L232.0566,228.8661 L234.0566,228.4926 L236.0566,228.7514 L238.0566,227.9873 L240.0566,228.7489 L242.0566,228.4961" fill="none" style="stroke:#FF6F00;stroke-width:1;"/><!--SRC=[xLXjRzis4FwkNy4rmDgYTHsdIL44HL77UMbQ9mxifCDG504jKJOHcTH8AbasxB_lg5TAjcJBaRjsIBwq9a_FFSUtkti-I8M5cb7cpB1lMRyunAMCe8EJwxFkwVbrRz0V357ujxMxlTSPxvacewFUuFomE_mzjbjWSj7jVUwU7AL0SoQ3uU7HqFI3jbptZRkzdPeS3yulSmQXYVvBJRh3uU2tl4s2OiaRodmiy0oDiNqp4JnWJezxNA0j9J2JC4UOCim-tlj4U9JTn5OnO-ifeips0eSWDILeGXWHs4FfTnAvO3tcQleIUNGoLGWp1pbOtC2NYYD-IyITe8gWEwgc4GQz9Gn9eXHb4rbSaykFfxtFvqUZ4Uh0nd1VKSxG540rYe8FNUn9OX2_m8u3G6ZN61j6uGeWYzuQuwCfTlYTjYwYfE5VCIVy3ubD39j3ukB0K-XlwvWpTOvd13qPSeYTFmb7efNBDYuS7D6_2EhiMl-OI5qX-1tWBFnYCOowzs2DkEVaaNpONJmXCQUvJmyAcvyxuTO15n1iF6CSIN2HUM3SgGEVE_ghUR3vpESCZYEuMPFmGdRHcWKpRoU_PWvMU8mbQTXTpeVjyS3Pg0FkUSJMjqCsxYRpqWC3mRqDUZZGa5ZSRz354LDKRT81POe85zjaWpv6v8-0C9jSGEAYDlKnKn7OvPJQDun82GzcPYvZSs1aVb59RWvw0K_39dkM61Spx1NdviBfKvVquMKj1KyDAcc6Z-SSU3XQYXpEBYGLpcHh-DhgsegB9Gn2ar9VUhRi0Zz5lLsaLmsI4FpOMlfdtda15nwpYKVUlODi9Jbx_nxsTmI7Zt052QmqUpIL5uedhfYpyq-KGPVy2IGPzgwRvrqenpP0NjvBHMO_tretptj3Qvqav9zZgJEsFzzA6yTa72VUY7MXCCv74TQmsykhlRLYhmuiIZ0EbbFYh1Bhmb1jS8mXhuXLOuLwlVeeRI3IwYsitOOa3LmMq-ie_moW8nCKQdednj4DNDmAXyM-H2qq2wJITJb1s8LG4v-5ji3m5hUcfJsEqQkMaJHBYMmn2hKxDEvgUPcrEDCh9UWuKAIy3fZdMj70vAfzBELwhAeSF4LdyRv8dzZKfJR47vOEi4LtKzrLAtY3eFwKUaF3pNk9nbv0OEyO8xeGaOW7Ia_FjtGDiytmSRwcWaRUUd6Dldv5xK2IbWrlPziZ4-orI5YPjsQOGGyxWrzjrDSJISb-bawWRz-i5wk2GBGm1ik5TN_Kminf2JAXKebme8rESmReLpGqfckvihdmENn7MXCjTJ0CDNSRsgPu59saen7iQgZy3XuhEQL-oDt6FbLW1mG3MmK270mI0-3UYwQXgeod8q-hHh3CLpflUctKWnqrcUsqssmKNKwn8BAjjH_u5zPhGr64VfBns5swDurweb86nCbSdOQ_D-ChEzyu4XlCmzsDzOSw5yQb-ZPGcAFCrOzzT2EFas5qcWtN0lQWURJlRO-4aUWy4G3PVZ8A6pyAnsfURwWSR1L2UZn-JtB4Uv45mFVZ-RKZq3gOH_LR4Vfpk1teyTHHCWk-3isvMavauCFkQUar7ySe7I_o_q0W1oLI-OUySjwSplm3Axf9SREYd6kQBm2e8UGctnKJTR9ePZPEbFzAwVQXW5LARHN6F8CrjDbw3bPIOny2MQc_rWLUHN5T7xD2OrqVj5HLNH-oIaTT7tKZocb2fqGpJPZLbakJ01PffGbecKoQS39QcGHkJXrDi0h2QCv-gIgQEYpgeIbwNWerBj9QgcRvorhdjCnl_aDLo-_DQudSz9yjqu_0QsKjyJkp-Q4MgL4PCE5HCvfIrfMINsUJ6b_JaHJMloaDRsqHRa6-R4o0Cv4AkMHUTykbcKKhLon1Lz3QoWaiXIpHmnw0-AY0FIfWZmhOemBsg83zxnIm2myQjgkpFe9dJMg3pgkTxPszLvtEc2ZSsNvsnMuO7AfGBA6mx8hEo7FhsSb57qaU263lw9TMfqJu_Bdr2TzYD0oOjjj70v-mJuUVam780xTKSAQPMv- -d6K6RtPR1rH1Tok02FfoPYKrnH6pkTRFzj7LvN7hhTM72Yc0uFSHOL080AwuXxdHlm00]--></g></svg>