<svg xmlns="http://www.w3.org/2000/svg" xmlns:xlink="http://www.w3.org/1999/xlink" contentStyleType="text/css" data-diagram-type="MINDMAP" height="262px" preserveAspectRatio="none" style="width:713px;height:262px;" version="1.1" viewBox="0 0 713 262" width="713px" zoomAndPan="magnify"><defs/><g><a href="/use-case/legal-entity-management/" target="_top" title="/use-case/legal-entity-management/" xlink:actuate="onRequest" xlink:href="/use-case/legal-entity-management/" xlink:show="new" xlink:title="/use-case/legal-entity-management/" xlink:type="simple"><text fill="#90EE90" font-family="'Roboto'" font-size="14" lengthAdjust="spacing" textLength="179.7646" x="17" y="135.0342">Legal Entity Management</text></a><a href="/use-case/legal-entity-management/identification-and-registration/" target="_top" title="/use-case/legal-entity-management/identification-and-registration/" xlink:actuate="onRequest" xlink:href="/use-case/legal-entity-management/identification-and-registration/" xlink:show="new" xlink:title="/use-case/legal-entity-management/identification-and-registration/" xlink:type="simple"><text fill="#90EE90" font-family="'Roboto'" font-size="14" lengthAdjust="spacing" textLength="196.6631" x="262.2148" y="27.9951">Identification &amp; Registration</text></a><path d="M205.2148,130.1875 L205.2148,130.3743 L207.2148,129.8192 L209.2148,130.3593 L211.2148,130.5428 L213.2148,129.5534 L215.2148,130.1875 L215.2148,130.1875 L215.1844,130.1713 L216.8288,126.7534 L218.6269,123.4174 L220.5319,120.1383 L222.0686,116.6632 L224.1211,113.4626 L224.3629,113.5081 L224.4903,109.9823 L225.3238,106.5892 L226.2434,103.2123 L226.6618,99.7412 L227.3438,96.3197 L227.3738,96.3241 L227.9039,92.3873 L228.5707,88.4705 L229.1716,84.544 L229.8982,80.6359 L230.2148,76.668 L230.51,76.7111 L231.0878,72.7813 L231.4753,68.8236 L232.1414,64.9067 L232.8205,60.9917 L233.0859,57.0163 L232.7709,56.957 L234.0268,53.6434 L234.2455,50.1347 L235.2527,46.7743 L235.4478,43.2612 L236.3086,39.8733 L236.2817,39.859 L238.3808,36.6832 L239.852,33.1732 L241.6937,29.8604 L243.5664,26.5641 L245.2148,23.1484 L245.2148,23.5184 L247.2148,23.145 L249.2148,23.4037 L251.2148,22.6396 L253.2148,23.4012 L255.2148,23.1484" fill="none" style="stroke:#FF9900;stroke-width:1;"/><a href="/use-case/legal-entity-management/corporate-governance/" target="_top" title="/use-case/legal-entity-management/corporate-governance/" xlink:actuate="onRequest" xlink:href="/use-case/legal-entity-management/corporate-governance/" xlink:show="new" xlink:title="/use-case/legal-entity-management/corporate-governance/" xlink:type="simple"><text fill="#90EE90" font-family="'Roboto'" font-size="14" lengthAdjust="spacing" textLength="159.1406" x="262.2148" y="54.292">Corporate Governance</text></a><path d="M205.2148,130.1875 L205.2148,130.3743 L207.2148,129.8192 L209.2148,130.3593 L211.2148,130.5428 L213.2148,129.5534 L215.2148,130.1875 L215.2148,130.1875 L215.1866,130.1676 L216.8412,127.555 L218.6381,125.0428 L220.5338,122.6005 L222.0888,119.9175 L224.1211,117.5715 L224.3599,117.631 L224.4938,114.9175 L225.3249,112.3777 L226.241,109.8591 L226.6622,107.2172 L227.3438,104.6402 L227.3735,104.6459 L227.904,101.6727 L228.5701,98.7258 L229.1707,95.7661 L229.8962,92.8307 L230.2148,89.8164 L230.5076,89.8731 L231.0854,86.9091 L231.4744,83.9084 L232.1398,80.9613 L232.8181,78.0167 L233.0859,74.9926 L232.7749,74.9151 L234.0231,72.4793 L234.2471,69.7882 L235.2497,67.2912 L235.4506,64.5944 L236.3086,62.0613 L236.2837,62.0437 L238.3591,59.7282 L239.8534,57.0024 L241.6906,54.5187 L243.5565,52.0553 L245.2148,49.4453 L245.2148,49.8153 L247.2148,49.4418 L249.2148,49.7006 L251.2148,48.9365 L253.2148,49.6981 L255.2148,49.4453" fill="none" style="stroke:#FF9900;stroke-width:1;"/><polygon fill="#4051B5" points="259.2148,72.5938,259.2148,72.8039,269.2103,72.1794,279.2058,72.787,289.2012,72.9934,299.1967,71.8804,309.1921,72.516,319.1876,72.1673,329.183,72.2103,339.1785,72.5256,349.174,71.9024,359.1694,73.1474,369.1649,71.9635,379.1603,72.396,389.1558,73.0257,399.1512,72.508,409.1467,72.662,419.1422,72.5618,429.1376,72.7723,439.1331,72.8329,449.1285,73.1794,459.124,73.2648,469.1194,73.273,479.1149,72.8484,489.1104,72.5938,489.1695,72.7365,489.7656,73.0443,490.1497,72.8403,490.894,73.5056,491.3353,73.4397,491.9388,73.7653,492.1032,73.8334,492.0206,74.2679,492.3863,74.888,492.8701,75.557,492.861,76.0218,493.1104,76.5938,493.1455,76.5938,493.2232,82.2531,493.2491,87.9125,493.109,93.5719,493.2061,99.2313,493.1104,104.8906,492.9341,104.8176,492.9636,105.4926,492.8105,106.0919,492.5443,106.6444,492.3619,107.2316,491.9388,107.7191,491.8772,107.5703,491.2899,107.7525,490.7281,107.9963,490.2342,108.4039,489.651,108.5958,489.1104,108.8906,489.1104,109.572,479.1149,108.7159,469.1194,108.5476,459.124,109.1189,449.1285,108.2238,439.1331,108.3715,429.1376,109.5396,419.1422,109.3263,409.1467,109.6251,399.1512,108.5688,389.1558,109.2098,379.1603,109.481,369.1649,108.4182,359.1694,108.7948,349.174,109.0166,339.1785,109.5424,329.183,108.8864,319.1876,109.3532,309.1921,108.3368,299.1967,108.2134,289.2012,109.3942,279.2058,108.1737,269.2103,109.3996,259.2148,108.8906,259.2412,108.9543,258.615,108.5738,258.0383,108.313,257.5763,108.329,256.9139,107.8612,256.3864,107.7191,256.5687,107.7946,255.9819,107.0829,256.1079,106.6664,255.8326,106.0838,255.5246,105.4876,255.2148,104.8906,255.2306,104.8906,255.457,99.2313,255.4194,93.5719,255.2713,87.9125,255.3042,82.2531,255.2148,76.5938,255.1747,76.5771,255.6698,76.1195,255.7312,75.4821,255.9709,74.9187,255.9648,74.2534,256.3864,73.7653,256.3347,73.6405,257.0198,73.6945,257.5726,73.429,258.078,73.0492,258.6081,72.7288,259.2148,72.5938" style="stroke:#FF6F00;stroke-width:1.5;"/><a href="/use-case/legal-entity-management/ownership-and-capital-structure/" target="_top" title="/use-case/legal-entity-management/ownership-and-capital-structure/" xlink:actuate="onRequest" xlink:href="/use-case/legal-entity-management/ownership-and-capital-structure/" xlink:show="new" xlink:title="/use-case/legal-entity-management/ownership-and-capital-structure/" xlink:type="simple"><text fill="#90EE90" font-family="'Roboto'" font-size="14" lengthAdjust="spacing" textLength="213.4453" x="265.2148" y="95.5889">Ownership &amp; Capital Structure</text></a><a href="/use-case/legal-entity-management/ownership-and-capital-structure/ownership/" target="_top" title="/use-case/legal-entity-management/ownership-and-capital-structure/ownership/" xlink:actuate="onRequest" xlink:href="/use-case/legal-entity-management/ownership-and-capital-structure/ownership/" xlink:show="new" xlink:title="/use-case/legal-entity-management/ownership-and-capital-structure/ownership/" xlink:type="simple"><text fill="#90EE90" font-family="'Roboto'" font-size="14" lengthAdjust="spacing" textLength="74.6553" x="550.1104" y="29.8467">Ownership</text></a><path d="M493.1104,90.7422 L493.1104,90.929 L495.1104,90.3739 L497.1104,90.914 L499.1104,91.0975 L501.1104,90.1081 L503.1104,90.7422 L503.1104,90.7422 L503.0843,90.7196 L504.7484,88.5636 L506.5441,86.5216 L508.4312,84.559 L510.0032,82.3231 L512.0166,80.47 L512.2519,80.542 L512.3933,78.2822 L513.2216,76.2326 L514.1338,74.2087 L514.5583,72.0356 L515.2393,69.9409 L515.2688,69.948 L515.7997,67.5237 L516.4649,65.1314 L517.0653,62.7236 L517.7894,60.3453 L518.1104,57.8711 L518.4005,57.9401 L518.9783,55.527 L519.3689,53.0693 L520.0335,50.6769 L520.7109,48.2874 L520.9814,45.8012 L520.675,45.7074 L521.9143,43.7837 L522.1445,41.5511 L523.1419,39.5533 L523.3492,37.3136 L524.2041,35.2722 L524.1811,35.2523 L526.2344,33.4337 L527.7502,31.1491 L529.5832,29.1395 L531.4428,27.153 L533.1104,25 L533.1104,25.37 L535.1104,24.9965 L537.1104,25.2553 L539.1104,24.4912 L541.1104,25.2528 L543.1104,25" fill="none" style="stroke:#FF9900;stroke-width:1;"/><a href="/use-case/legal-entity-management/ownership-and-capital-structure/control/" target="_top" title="/use-case/legal-entity-management/ownership-and-capital-structure/control/" xlink:actuate="onRequest" xlink:href="/use-case/legal-entity-management/ownership-and-capital-structure/control/" xlink:show="new" xlink:title="/use-case/legal-entity-management/ownership-and-capital-structure/control/" xlink:type="simple"><text fill="#90EE90" font-family="'Roboto'" font-size="14" lengthAdjust="spacing" textLength="50.9141" x="550.1104" y="56.1436">Control</text></a><path d="M493.1104,90.7422 L493.1104,90.929 L495.1104,90.3739 L497.1104,90.914 L499.1104,91.0975 L501.1104,90.1081 L503.1104,90.7422 L503.1104,90.7422 L503.0907,90.7138 L504.7837,89.3537 L506.5759,88.1367 L508.4369,87.0193 L510.0605,85.5589 L512.0166,84.5789 L512.241,84.6797 L512.9798,81.7522 L514.3739,79.1191 L515.848,76.522 L516.8568,73.7158 L518.1104,71.0195 L518.138,71.032 L519.3162,68.3018 L520.6202,65.6283 L521.8635,62.9275 L523.2228,60.2788 L524.2041,57.4602 L524.3738,57.7055 L526.1571,56.4758 L527.831,55.0879 L529.6651,53.9316 L531.5067,52.7862 L533.1104,51.2969 L533.1104,50.6558 L535.1104,51.9 L537.1104,51.0333 L539.1104,51.7714 L541.1104,50.8569 L543.1104,51.2969" fill="none" style="stroke:#FF9900;stroke-width:1;"/><a href="/use-case/legal-entity-management/ownership-and-capital-structure/shares/" target="_top" title="/use-case/legal-entity-management/ownership-and-capital-structure/shares/" xlink:actuate="onRequest" xlink:href="/use-case/legal-entity-management/ownership-and-capital-structure/shares/" xlink:show="new" xlink:title="/use-case/legal-entity-management/ownership-and-capital-structure/shares/" xlink:type="simple"><text fill="#90EE90" font-family="'Roboto'" font-size="14" lengthAdjust="spacing" textLength="142.4746" x="550.1104" y="82.4404">Shares &amp; Ownership</text></a><path d="M493.1104,90.7422 L493.1104,90.929 L495.1104,90.3739 L497.1104,90.914 L499.1104,91.0975 L501.1104,90.1081 L503.1104,90.7422 L503.1104,90.7422 L503.0965,90.7106 L506.0343,89.2537 L509.0419,87.9564 L512.0982,86.7699 L514.987,85.2014 L518.1104,84.168 L518.2091,84.3933 L520.9979,82.5966 L524.0751,81.4578 L527.1874,80.3993 L530.095,78.8737 L533.1104,77.5938 L533.1104,77.6544 L535.1104,77.5654 L537.1104,77.7524 L539.1104,77.8063 L541.1104,78.1144 L543.1104,77.5938" fill="none" style="stroke:#FF9900;stroke-width:1;"/><a href="/use-case/legal-entity-management/ownership-and-capital-structure/share-capital/" target="_top" title="/use-case/legal-entity-management/ownership-and-capital-structure/share-capital/" xlink:actuate="onRequest" xlink:href="/use-case/legal-entity-management/ownership-and-capital-structure/share-capital/" xlink:show="new" xlink:title="/use-case/legal-entity-management/ownership-and-capital-structure/share-capital/" xlink:type="simple"><text fill="#90EE90" font-family="'Roboto'" font-size="14" lengthAdjust="spacing" textLength="94.2471" x="550.1104" y="108.7373">Share Capital</text></a><path d="M493.1104,90.7422 L493.1104,90.929 L495.1104,90.3739 L497.1104,90.914 L499.1104,91.0975 L501.1104,90.1081 L503.1104,90.7422 L503.1104,90.7422 L503.0965,90.7106 L506.0343,91.8834 L509.0419,93.2158 L512.0982,94.659 L514.987,95.7201 L518.1104,97.3164 L518.2091,97.5418 L520.9979,98.3747 L524.0751,99.8656 L527.1874,101.4368 L530.095,102.5409 L533.1104,103.8906 L533.1104,103.9513 L535.1104,103.8622 L537.1104,104.0493 L539.1104,104.1032 L541.1104,104.4112 L543.1104,103.8906" fill="none" style="stroke:#FF9900;stroke-width:1;"/><a href="/use-case/legal-entity-management/ownership-and-capital-structure/issued-capital/" target="_top" title="/use-case/legal-entity-management/ownership-and-capital-structure/issued-capital/" xlink:actuate="onRequest" xlink:href="/use-case/legal-entity-management/ownership-and-capital-structure/issued-capital/" xlink:show="new" xlink:title="/use-case/legal-entity-management/ownership-and-capital-structure/issued-capital/" xlink:type="simple"><text fill="#90EE90" font-family="'Roboto'" font-size="14" lengthAdjust="spacing" textLength="98.6289" x="550.1104" y="135.0342">Issued Capital</text></a><path d="M493.1104,90.7422 L493.1104,90.929 L495.1104,90.3739 L497.1104,90.914 L499.1104,91.0975 L501.1104,90.1081 L503.1104,90.7422 L503.1104,90.7422 L503.0907,90.7138 L504.7837,91.819 L506.5759,93.0674 L508.4369,94.4153 L510.0605,95.4202 L512.0166,96.9055 L512.241,97.0064 L512.9798,99.5026 L514.3739,102.2932 L515.848,105.1198 L516.8568,107.7374 L518.1104,110.4648 L518.138,110.4773 L519.3162,113.1709 L520.6202,115.9211 L521.8635,118.644 L523.2228,121.419 L524.2041,124.0242 L524.3738,124.2694 L526.1571,125.5051 L527.831,126.5826 L529.6651,127.8916 L531.5067,129.2115 L533.1104,130.1875 L533.1104,129.5464 L535.1104,130.7906 L537.1104,129.9239 L539.1104,130.662 L541.1104,129.7475 L543.1104,130.1875" fill="none" style="stroke:#FF9900;stroke-width:1;"/><a href="/use-case/legal-entity-management/ownership-and-capital-structure/corporate-actions/" target="_top" title="/use-case/legal-entity-management/ownership-and-capital-structure/corporate-actions/" xlink:actuate="onRequest" xlink:href="/use-case/legal-entity-management/ownership-and-capital-structure/corporate-actions/" xlink:show="new" xlink:title="/use-case/legal-entity-management/ownership-and-capital-structure/corporate-actions/" xlink:type="simple"><text fill="#90EE90" font-family="'Roboto'" font-size="14" lengthAdjust="spacing" textLength="125.8223" x="550.1104" y="161.3311">Corporate Actions</text></a><path d="M493.1104,90.7422 L493.1104,90.929 L495.1104,90.3739 L497.1104,90.914 L499.1104,91.0975 L501.1104,90.1081 L503.1104,90.7422 L503.1104,90.7422 L503.0843,90.7196 L504.7484,92.6725 L506.5441,94.7394 L508.4312,96.8857 L510.0032,98.7587 L512.0166,101.0144 L512.2519,101.0864 L512.3933,103.0382 L513.2216,105.2003 L514.1338,107.388 L514.5583,109.4265 L515.2393,111.5434 L515.2688,111.5504 L515.7997,113.9541 L516.4649,116.3897 L517.0653,118.8099 L517.7894,121.2595 L518.1104,123.6133 L518.4005,123.6823 L518.9783,126.0971 L519.3689,128.4674 L520.0335,130.9029 L520.7109,133.3414 L520.9814,135.6831 L520.675,135.5893 L521.9143,137.8772 L522.1445,139.8562 L523.1419,142.07 L523.3492,144.042 L524.2041,146.2122 L524.1811,146.1922 L526.2344,148.4825 L527.7502,150.3069 L529.5832,152.4061 L531.4428,154.5285 L533.1104,156.4844 L533.1104,156.8544 L535.1104,156.4809 L537.1104,156.7397 L539.1104,155.9756 L541.1104,156.7372 L543.1104,156.4844" fill="none" style="stroke:#FF9900;stroke-width:1;"/><path d="M205.2148,130.1875 L205.2148,130.3743 L207.2148,129.8192 L209.2148,130.3593 L211.2148,130.5428 L213.2148,129.5534 L215.2148,130.1875 L215.2148,130.1875 L215.1952,130.1591 L216.8882,128.799 L218.6804,127.582 L220.5414,126.4646 L222.165,125.0042 L224.1211,124.0242 L224.3455,124.125 L225.0843,121.1975 L226.4784,118.5644 L227.9524,115.9673 L228.9613,113.1611 L230.2148,110.4648 L230.2425,110.4773 L231.4206,107.7472 L232.7247,105.0736 L233.968,102.3728 L235.3273,99.7241 L236.3086,96.9055 L236.4783,97.1508 L238.2616,95.9211 L239.9355,94.5332 L241.7696,93.3769 L243.6112,92.2315 L245.2148,90.7422 L245.2148,90.1011 L247.2148,91.3453 L249.2148,90.4786 L251.2148,91.2167 L253.2148,90.3022 L255.2148,90.7422" fill="none" style="stroke:#FF9900;stroke-width:1;"/><a href="/use-case/legal-entity-management/financial-information/" target="_top" title="/use-case/legal-entity-management/financial-information/" xlink:actuate="onRequest" xlink:href="/use-case/legal-entity-management/financial-information/" xlink:show="new" xlink:title="/use-case/legal-entity-management/financial-information/" xlink:type="simple"><text fill="#90EE90" font-family="'Roboto'" font-size="14" lengthAdjust="spacing" textLength="148.0596" x="262.2148" y="136.8857">Financial Information</text></a><path d="M205.2148,130.1875 L205.2148,130.3743 L207.2148,129.8192 L209.2148,130.3593 L211.2148,130.5428 L213.2148,129.5534 L215.2148,130.1875 L215.2148,130.1875 L215.2127,130.153 L218.2032,130.1835 L221.2043,130.3877 L224.213,130.7127 L227.1959,130.6214 L230.2148,131.1133 L230.23,131.3589 L233.1976,131.0188 L236.2094,131.3959 L239.2267,131.8604 L242.2125,131.8159 L245.2148,132.0391 L245.2148,132.0997 L247.2148,132.0107 L249.2148,132.1978 L251.2148,132.2516 L253.2148,132.5597 L255.2148,132.0391" fill="none" style="stroke:#FF9900;stroke-width:1;"/><a href="/use-case/legal-entity-management/lifecycle-and-status/" target="_top" title="/use-case/legal-entity-management/lifecycle-and-status/" xlink:actuate="onRequest" xlink:href="/use-case/legal-entity-management/lifecycle-and-status/" xlink:show="new" xlink:title="/use-case/legal-entity-management/lifecycle-and-status/" xlink:type="simple"><text fill="#90EE90" font-family="'Roboto'" font-size="14" lengthAdjust="spacing" textLength="125.8428" x="262.2148" y="163.1826">Lifecycle &amp; Status</text></a><path d="M205.2148,130.1875 L205.2148,130.3743 L207.2148,129.8192 L209.2148,130.3593 L211.2148,130.5428 L213.2148,129.5534 L215.2148,130.1875 L215.2148,130.1875 L215.1996,130.1565 L216.9122,130.8972 L218.7019,131.794 L220.5452,132.7993 L222.2038,133.4305 L224.1211,134.5857 L224.3293,134.7168 L225.1028,136.3716 L226.4842,138.4093 L227.9398,140.4936 L228.9638,142.3062 L230.2148,144.2617 L230.2405,144.2779 L231.4216,146.1894 L232.7195,148.1744 L233.961,150.124 L235.3101,152.1413 L236.3086,153.9377 L236.4407,154.2052 L238.2235,155.0881 L239.9212,155.7985 L241.7436,156.7614 L243.5718,157.7361 L245.2148,158.3359 L245.2148,157.6949 L247.2148,158.9391 L249.2148,158.0724 L251.2148,158.8104 L253.2148,157.8959 L255.2148,158.3359" fill="none" style="stroke:#FF9900;stroke-width:1;"/><a href="/use-case/legal-entity-management/contact-and-location-information/" target="_top" title="/use-case/legal-entity-management/contact-and-location-information/" xlink:actuate="onRequest" xlink:href="/use-case/legal-entity-management/contact-and-location-information/" xlink:show="new" xlink:title="/use-case/legal-entity-management/contact-and-location-information/" xlink:type="simple"><text fill="#90EE90" font-family="'Roboto'" font-size="14" lengthAdjust="spacing" textLength="219.4814" x="262.2148" y="189.4795">Contact &amp; Location Information</text></a><path d="M205.2148,130.1875 L205.2148,130.3743 L207.2148,129.8192 L209.2148,130.3593 L211.2148,130.5428 L213.2148,129.5534 L215.2148,130.1875 L215.2148,130.1875 L215.191,130.1625 L216.8652,131.7518 L218.6596,133.4671 L220.5377,135.2698 L222.1276,136.771 L224.1211,138.6946 L224.3551,138.7708 L225.0735,142.351 L226.475,146.1536 L227.9599,149.9834 L228.9598,153.6552 L230.2148,157.4102 L230.2437,157.4195 L231.4201,161.1489 L232.7278,164.921 L233.9722,168.6724 L235.3374,172.4632 L236.3086,176.1257 L236.5146,176.3414 L238.2984,178.0455 L239.9493,179.6104 L241.7947,181.379 L243.6492,183.1571 L245.2148,184.6328 L245.2148,183.9918 L247.2148,185.2359 L249.2148,184.3693 L251.2148,185.1073 L253.2148,184.1928 L255.2148,184.6328" fill="none" style="stroke:#FF9900;stroke-width:1;"/><a href="/use-case/legal-entity-management/compliance-and-documentation/" target="_top" title="/use-case/legal-entity-management/compliance-and-documentation/" xlink:actuate="onRequest" xlink:href="/use-case/legal-entity-management/compliance-and-documentation/" xlink:show="new" xlink:title="/use-case/legal-entity-management/compliance-and-documentation/" xlink:type="simple"><text fill="#90EE90" font-family="'Roboto'" font-size="14" lengthAdjust="spacing" textLength="210.1504" x="262.2148" y="215.7764">Compliance &amp; Documentation</text></a><path d="M205.2148,130.1875 L205.2148,130.3743 L207.2148,129.8192 L209.2148,130.3593 L211.2148,130.5428 L213.2148,129.5534 L215.2148,130.1875 L215.2148,130.1875 L215.1866,130.1676 L216.8412,132.6014 L218.6381,135.1356 L220.5338,137.7396 L222.0888,140.1031 L224.1211,142.8035 L224.3599,142.863 L224.4938,145.322 L225.3249,147.9548 L226.241,150.6087 L226.6622,153.1393 L227.3438,155.7348 L227.3735,155.7406 L227.904,158.6969 L228.5701,161.6794 L229.1707,164.6493 L229.8962,167.6433 L230.2148,170.5586 L230.5076,170.6153 L231.0854,173.5808 L231.4744,176.5096 L232.1398,179.492 L232.8181,182.4769 L233.0859,185.3824 L232.7749,185.3048 L234.0231,188.0416 L234.2471,190.523 L235.2497,193.1985 L235.4506,195.6742 L236.3086,198.3137 L236.2837,198.2962 L238.3591,201.027 L239.8534,203.3476 L241.6906,205.9103 L243.5565,208.4933 L245.2148,210.9297 L245.2148,211.2997 L247.2148,210.9262 L249.2148,211.185 L251.2148,210.4209 L253.2148,211.1825 L255.2148,210.9297" fill="none" style="stroke:#FF9900;stroke-width:1;"/><a href="/use-case/legal-entity-management/supporting-information/" target="_top" title="/use-case/legal-entity-management/supporting-information/" xlink:actuate="onRequest" xlink:href="/use-case/legal-entity-management/supporting-information/" xlink:show="new" xlink:title="/use-case/legal-entity-management/supporting-information/" xlink:type="simple"><text fill="#90EE90" font-family="'Roboto'" font-size="14" lengthAdjust="spacing" textLength="162.7295" x="262.2148" y="242.0732">Supporting Information</text></a><path d="M205.2148,130.1875 L205.2148,130.3743 L207.2148,129.8192 L209.2148,130.3593 L211.2148,130.5428 L213.2148,129.5534 L215.2148,130.1875 L215.2148,130.1875 L215.1844,130.1713 L216.8288,133.4434 L218.6269,136.7973 L220.5319,140.2082 L222.0686,143.423 L224.1211,146.9124 L224.3629,146.9578 L224.4903,150.2892 L225.3238,153.7533 L226.2434,157.2336 L226.6618,160.6197 L227.3438,164.0553 L227.3738,164.0597 L227.9039,167.9836 L228.5707,171.9275 L229.1716,175.8617 L229.8982,179.8143 L230.2148,183.707 L230.51,183.7501 L231.0878,187.681 L231.4753,191.5841 L232.1414,195.5278 L232.8205,199.4735 L233.0859,203.3587 L232.7709,203.2995 L234.0268,206.843 L234.2455,210.1916 L235.2527,213.6884 L235.4478,217.0325 L236.3086,220.5017 L236.2817,220.4874 L238.3808,224.0016 L239.852,227.1815 L241.6937,230.5586 L243.5664,233.9523 L245.2148,237.2266 L245.2148,237.5965 L247.2148,237.2231 L249.2148,237.4819 L251.2148,236.7177 L253.2148,237.4794 L255.2148,237.2266" fill="none" style="stroke:#FF9900;stroke-width:1;"/><!--SRC=[xLXjRzis4FwkNy4rmDAYSnrdQT4MHH77STAaJXpOIO6XA09QEjj4P58bgMJPiF- -esH9bFpkMbqo95zQyuxFFNSYUUIphpILUiIuDwA1u_pYGPzn80V7rsVra_FhHhlLxf3eRsjlvtMjzzfswJORxVF3UkUFiTyKbujwutFzk9a2JRYqEuVDZXs7RFNxR_exEwdBKVlyCkSGkPW_nr4tZ0TKqX7fKVTc84N8lORmXKmSjQHSeGTmRJb_kWz0jXY_iNt9biy6GpsG0DnnjWdZhXzwGFGGo00uIEgJ54AHFaxi2JtyZKJJ2EKUyQYymPbQ474Byauo3UIEwM6CmMw14mLQCpvGnGfSVZffV3vlThkaXfz119e9JeO8Qb0qJknJNu6LmmNrF0GYUzPO9yvV8bdorXhl3gadxent4IMgX8-LkE9Uz1yOkrW-Xz2deQ_9tywHuFgSZe0ywmZCNJoBHk8YPfyf6koolu3Kzfn_RAIwbE8ESQREc0wZxtsiaV2zF5A0dviEOCnfOkf1OJNarhDp82GcExPO2n13P16uy5Q1potqvIAuOXG8ZYiJmwn9U2gxk6RXoD_DryoZclQeWWs7oyLmVH5wfGOGlW-ksHrgus6oA0rqaC8lCSA1WQJoliGGJQwPBZC0unfadxfGOemkV0-1kt21ROgvBA1Sns2NG-RUS50A3ypCNOtTaP4zOowv2UWfF2sVx5ZYGeweNxHDfDDYVS1c0pF1KuUvDAF3Sm8y6fs975cdaeeiMGr_T-gk5d81WyXbPYnZdRM1jqbZZvYgOHF27riB_-mzBt73KpxmuSC7x5PAy8yVyVjsSV61qDZ0PdQFJVM5ueehzkpy4MNHXJ-H9AV-zUPv5ovV9P1Nzqh3wF7LUlEyIwfrqf0VHwapje-lqjOowOqRRyowS37EPn7TONSMt_RModr-Od63yQWQWhTChbDJTJ4mnRuYbyqLx-lpbr89cSx_X7PhrrHFksaaJyeiUF8yh6ijMI_KC6coIIKFpi95bYfLShHjSXO_l8aAm6LzvcAISOkSU8SipsDXQZIxI6mT7RrxX_Q2qRvRESxBQ_BrAwc62Yekxl-g3mFgLo2wNLP6bECxR8I_ggHb3Ccryomra6_Vd9VBWZ3FZ64fgBdZL_01N94mO0eVycQWIavo3kHNqh7CAuLoXGm4peFAm3pNESLxOnMl_kDHSfoEnh3BeOext71go8A8kqi3fj4F2OQk3YK6Q2SEoBqHc_5cD3R7aPRDO56ir6v7tMW4DtueLTCNqqRHrP1AK5MZN-2_MA-IieZY9EFZSEctsMWafbG8NXRg9FfTJgniVTFumMmlxlhu3RtAXkapiniOsXZlcxTFl2EFac5oaWsl1EpZ0yYzTts8CZ47VOXaMyaeVlXkDBRYziRkv-e8qXVZyoH7l15x87nhR5yx0wFb-CoS5L4yJxYX6Ky39LQCTMZRLWgYmW2_df4Fytbqq_4Y_tt0_fA8k_jvhRT4yVG1ovH9brnIexJTfm2ie4wcxNb68v_UjkVeaJyAE4z-d8SnoM0DmN6r04j9Z3y2ELTKN1Lu6HbnVSmvmk7we3EbmlKXvuc3wwEM8WScT6O8WGcpbJN0985f0c02EalxIpXPgb_wq2XAVWbMGUtB-I-K-jA0HP4lHS_hUzP6Makgctsohh9Q9Z_-ZqfnFvlN0WtbFolJG-2rj43sazayg29jLDjAUAoOpKpMStMiMfd2rQOpATJ_VorCFQbFJ-hJa_hqf3uzgKzFwjEcrASB7zz6LsSjWiUQCWwrLxixkwzVrMezqBIsy_oAtt1SL94kmR3icetWXVFy-A95b0WbilVCIMiw6Kv_uPpIMqew8JT-xqax07vw-3aPm3vmowJWXhbp-kKiStYpLpbW6X-I4ecGBsTEeXirkIkCLFMUN5qULTuwBRoCX9ZyUmBSQM3lq_8URTr_0G00]--></g></svg>