<svg xmlns="http://www.w3.org/2000/svg" xmlns:xlink="http://www.w3.org/1999/xlink" contentStyleType="text/css" data-diagram-type="MINDMAP" height="250px" preserveAspectRatio="none" style="width:664px;height:250px;" version="1.1" viewBox="0 0 664 250" width="664px" zoomAndPan="magnify"><defs/><g><a href="/use-case/legal-entity-management/" target="_top" title="/use-case/legal-entity-management/" xlink:actuate="onRequest" xlink:href="/use-case/legal-entity-management/" xlink:show="new" xlink:title="/use-case/legal-entity-management/" xlink:type="simple"><text fill="#4051B5" font-family="'Roboto'" font-size="13" lengthAdjust="spacing" textLength="166.9243" x="17" y="128.8149">Legal Entity Management</text></a><a href="/use-case/legal-entity-management/identification-and-registration/" target="_top" title="/use-case/legal-entity-management/identification-and-registration/" xlink:actuate="onRequest" xlink:href="/use-case/legal-entity-management/identification-and-registration/" xlink:show="new" xlink:title="/use-case/legal-entity-management/identification-and-registration/" xlink:type="simple"><text fill="#4051B5" font-family="'Roboto'" font-size="13" lengthAdjust="spacing" textLength="182.6157" x="249.0566" y="54.6333">Identification &amp; Registration</text></a><path d="M192.0566,124.3145 L192.0566,124.5013 L194.0566,123.9462 L196.0566,124.4863 L198.0566,124.6697 L200.0566,123.6803 L202.0566,124.3145 L202.0566,124.3145 L202.0293,124.2934 L203.6876,121.8808 L205.484,119.5743 L207.3764,117.3415 L208.938,114.8545 L210.9629,112.7236 L211.2004,112.788 L211.3371,110.2741 L212.1671,107.9483 L213.0818,105.6454 L213.5042,103.2091 L214.1855,100.8429 L214.2152,100.8492 L214.7459,98.1161 L215.4116,95.4116 L216.0122,92.6933 L216.7371,90.0012 L217.0566,87.2236 L217.3485,87.2852 L217.9263,84.562 L218.3158,81.7993 L218.9809,79.0946 L219.6589,76.3926 L219.9277,73.6043 L219.6184,73.5204 L220.8633,71.3072 L221.0896,68.8176 L222.0903,66.5381 L222.2935,64.0422 L223.1504,61.7237 L223.1263,61.7051 L225.193,59.6063 L226.6957,57.0741 L228.5313,54.7977 L230.3947,52.5427 L232.0566,50.1328 L232.0566,50.5028 L234.0566,50.1293 L236.0566,50.3881 L238.0566,49.624 L240.0566,50.3856 L242.0566,50.1328" fill="none" style="stroke:#FF6F00;stroke-width:1;"/><a href="/use-case/legal-entity-management/corporate-governance/" target="_top" title="/use-case/legal-entity-management/corporate-governance/" xlink:actuate="onRequest" xlink:href="/use-case/legal-entity-management/corporate-governance/" xlink:show="new" xlink:title="/use-case/legal-entity-management/corporate-governance/" xlink:type="simple"><text fill="#4051B5" font-family="'Roboto'" font-size="13" lengthAdjust="spacing" textLength="147.7734" x="249.0566" y="79.7661">Corporate Governance</text></a><path d="M192.0566,124.3145 L192.0566,124.5013 L194.0566,123.9462 L196.0566,124.4863 L198.0566,124.6697 L200.0566,123.6803 L202.0566,124.3145 L202.0566,124.3145 L202.0341,124.2883 L203.7143,122.638 L205.508,121.1197 L207.3806,119.6932 L208.9812,117.9504 L210.9629,116.6506 L211.1943,116.7342 L211.9182,113.1833 L213.3177,109.8765 L214.7997,106.5995 L215.802,103.1492 L217.0566,99.79 L217.0852,99.8003 L218.262,96.4131 L219.5688,93.0728 L220.8128,89.7098 L222.1764,86.3901 L223.1504,82.9295 L223.3449,83.1556 L225.1286,81.6256 L226.7867,79.9497 L228.6285,78.4874 L230.479,77.035 L232.0566,75.2656 L232.0566,74.6246 L234.0566,75.8687 L236.0566,75.0021 L238.0566,75.7401 L240.0566,74.8256 L242.0566,75.2656" fill="none" style="stroke:#FF6F00;stroke-width:1;"/><a href="/use-case/legal-entity-management/ownership-and-capital-structure/" target="_top" title="/use-case/legal-entity-management/ownership-and-capital-structure/" xlink:actuate="onRequest" xlink:href="/use-case/legal-entity-management/ownership-and-capital-structure/" xlink:show="new" xlink:title="/use-case/legal-entity-management/ownership-and-capital-structure/" xlink:type="simple"><text fill="#4051B5" font-family="'Roboto'" font-size="13" lengthAdjust="spacing" textLength="198.1992" x="249.0566" y="104.8989">Ownership &amp; Capital Structure</text></a><polygon fill="#4051B5" points="509.3882,20,509.3882,20.2102,518.8832,19.5857,528.3782,20.1933,537.8732,20.3997,547.3682,19.2866,556.8632,19.9223,566.3582,19.5735,575.8532,19.6165,585.3483,19.9318,594.8433,20,594.7551,19.7871,595.4796,20.4048,595.8942,20.2745,596.5151,20.642,597.1611,21.0703,597.6717,21.1716,597.6453,21.1606,597.927,21.746,598.1305,22.2989,598.4296,22.8914,598.6826,23.4648,598.8433,24,599.0385,24,599.0669,29.4266,599.0697,34.8531,598.9281,40.2797,598.9978,45.7063,598.8433,51.1328,599.0595,51.2224,598.3869,51.6065,598.5836,52.3507,598.049,52.792,598.0704,53.4636,597.6717,53.9612,597.6085,53.8088,597.0973,54.1745,596.6349,54.6583,595.9684,54.6492,595.4224,54.9309,594.8433,55.1328,594.8433,55.4714,585.3483,55.549,575.8532,55.1289,566.3582,55.42,556.8632,54.5604,547.3682,55.4172,537.8732,55.681,528.3782,55.5773,518.8832,55.7458,509.3882,55.1328,509.3266,54.984,508.7393,54.6977,508.1775,54.4728,507.6836,54.4117,507.1004,54.135,506.5598,53.9612,506.7696,54.0482,506.2716,53.3733,505.9855,52.7861,505.9271,52.2933,505.4171,51.6134,505.3882,51.1328,505.2151,51.1328,505.6045,45.7063,505.5334,40.2797,505.633,34.8531,505.2809,29.4266,505.3882,24,505.4865,24.0407,505.8043,23.5096,505.7113,22.8084,506.0616,22.2907,506.3642,21.7533,506.5598,21.1716,506.6429,21.3723,507.1249,20.936,507.7501,20.8454,508.1862,20.2981,508.7361,20.0257,509.3882,20" style="stroke:#FF6F00;stroke-width:1.5;"/><a href="/use-case/legal-entity-management/ownership-and-capital-structure/ownership/" target="_top" title="/use-case/legal-entity-management/ownership-and-capital-structure/ownership/" xlink:actuate="onRequest" xlink:href="/use-case/legal-entity-management/ownership-and-capital-structure/ownership/" xlink:show="new" xlink:title="/use-case/legal-entity-management/ownership-and-capital-structure/ownership/" xlink:type="simple"><text fill="#4051B5" font-family="'Roboto'" font-size="13" lengthAdjust="spacing" textLength="69.3228" x="515.3882" y="42.0669">Ownership</text></a><path d="M455.3882,100.3984 L455.3882,100.5853 L457.3882,100.0302 L459.3882,100.5702 L461.3882,100.7537 L463.3882,99.7643 L465.3882,100.3984 L465.3882,100.3984 L465.3626,100.3752 L467.029,98.3076 L468.8244,96.3569 L470.7095,94.4876 L472.2856,92.338 L474.2944,90.5809 L474.5288,90.656 L474.6722,88.4829 L475.4998,86.5289 L476.4109,84.6017 L476.8363,82.519 L477.5171,80.518 L477.5465,80.5253 L478.0775,78.2074 L478.7425,75.9229 L479.3429,73.6223 L480.0666,71.3524 L480.3882,68.9824 L480.6776,69.0545 L481.2554,66.7482 L481.6464,64.3955 L482.3108,62.1108 L482.9879,59.8293 L483.2593,57.4469 L482.954,57.3491 L484.191,55.5262 L484.4228,53.3815 L485.4188,51.4814 L485.6279,49.3294 L486.4819,47.3839 L486.4594,47.3635 L488.5073,45.6419 L490.0284,43.4424 L491.8603,41.5249 L493.7184,39.631 L495.3882,37.5664 L495.3882,37.9364 L497.3882,37.5629 L499.3882,37.8217 L501.3882,37.0576 L503.3882,37.8192 L505.3882,37.5664" fill="none" style="stroke:#FF6F00;stroke-width:1;"/><a href="/use-case/legal-entity-management/ownership-and-capital-structure/control/" target="_top" title="/use-case/legal-entity-management/ownership-and-capital-structure/control/" xlink:actuate="onRequest" xlink:href="/use-case/legal-entity-management/ownership-and-capital-structure/control/" xlink:show="new" xlink:title="/use-case/legal-entity-management/ownership-and-capital-structure/control/" xlink:type="simple"><text fill="#4051B5" font-family="'Roboto'" font-size="13" lengthAdjust="spacing" textLength="47.2773" x="512.3882" y="82.1997">Control</text></a><path d="M455.3882,100.3984 L455.3882,100.5853 L457.3882,100.0302 L459.3882,100.5702 L461.3882,100.7537 L463.3882,99.7643 L465.3882,100.3984 L465.3882,100.3984 L465.3673,100.3709 L468.2738,97.9774 L471.2853,95.7227 L474.3699,93.5645 L477.2028,91.0737 L480.3882,89.0488 L480.5367,89.2451 L483.2192,86.5555 L486.3351,84.4389 L489.504,82.3922 L492.3652,79.9387 L495.3882,77.6992 L495.3882,77.7599 L497.3882,77.6708 L499.3882,77.8579 L501.3882,77.9118 L503.3882,78.2198 L505.3882,77.6992" fill="none" style="stroke:#FF6F00;stroke-width:1;"/><a href="/use-case/legal-entity-management/ownership-and-capital-structure/shares/" target="_top" title="/use-case/legal-entity-management/ownership-and-capital-structure/shares/" xlink:actuate="onRequest" xlink:href="/use-case/legal-entity-management/ownership-and-capital-structure/shares/" xlink:show="new" xlink:title="/use-case/legal-entity-management/ownership-and-capital-structure/shares/" xlink:type="simple"><text fill="#4051B5" font-family="'Roboto'" font-size="13" lengthAdjust="spacing" textLength="132.2979" x="512.3882" y="107.3325">Shares &amp; Ownership</text></a><path d="M455.3882,100.3984 L455.3882,100.5853 L457.3882,100.0302 L459.3882,100.5702 L461.3882,100.7537 L463.3882,99.7643 L465.3882,100.3984 L465.3882,100.3984 L465.3854,100.364 L468.3729,100.4529 L471.3744,100.7153 L474.3857,101.0983 L477.3633,101.0656 L480.3882,101.6152 L480.4081,101.8605 L483.3655,101.5794 L486.3811,102.0143 L489.4037,102.5367 L492.3851,102.5507 L495.3882,102.832 L495.3882,102.8927 L497.3882,102.8036 L499.3882,102.9907 L501.3882,103.0446 L503.3882,103.3526 L505.3882,102.832" fill="none" style="stroke:#FF6F00;stroke-width:1;"/><a href="/use-case/legal-entity-management/ownership-and-capital-structure/share-capital/" target="_top" title="/use-case/legal-entity-management/ownership-and-capital-structure/share-capital/" xlink:actuate="onRequest" xlink:href="/use-case/legal-entity-management/ownership-and-capital-structure/share-capital/" xlink:show="new" xlink:title="/use-case/legal-entity-management/ownership-and-capital-structure/share-capital/" xlink:type="simple"><text fill="#4051B5" font-family="'Roboto'" font-size="13" lengthAdjust="spacing" textLength="87.5151" x="512.3882" y="132.4653">Share Capital</text></a><path d="M455.3882,100.3984 L455.3882,100.5853 L457.3882,100.0302 L459.3882,100.5702 L461.3882,100.7537 L463.3882,99.7643 L465.3882,100.3984 L465.3882,100.3984 L465.3731,100.3673 L467.0869,101.0892 L468.8765,101.9679 L470.7187,102.9555 L472.3794,103.5676 L474.2944,104.7057 L474.5014,104.8388 L475.2776,106.4494 L476.658,108.4485 L478.1122,110.4951 L479.1374,112.2658 L480.3882,114.1816 L480.4137,114.198 L481.595,116.0692 L482.8924,118.0149 L484.1338,119.9247 L485.4821,121.9032 L486.4819,123.6576 L486.6118,123.9261 L488.3946,124.7908 L490.0937,125.4824 L491.9154,126.4274 L493.7428,127.3844 L495.3882,127.9648 L495.3882,127.3238 L497.3882,128.568 L499.3882,127.7013 L501.3882,128.4393 L503.3882,127.5248 L505.3882,127.9648" fill="none" style="stroke:#FF6F00;stroke-width:1;"/><a href="/use-case/legal-entity-management/ownership-and-capital-structure/issued-capital/" target="_top" title="/use-case/legal-entity-management/ownership-and-capital-structure/issued-capital/" xlink:actuate="onRequest" xlink:href="/use-case/legal-entity-management/ownership-and-capital-structure/issued-capital/" xlink:show="new" xlink:title="/use-case/legal-entity-management/ownership-and-capital-structure/issued-capital/" xlink:type="simple"><text fill="#4051B5" font-family="'Roboto'" font-size="13" lengthAdjust="spacing" textLength="91.584" x="512.3882" y="157.5981">Issued Capital</text></a><path d="M455.3882,100.3984 L455.3882,100.5853 L457.3882,100.0302 L459.3882,100.5702 L461.3882,100.7537 L463.3882,99.7643 L465.3882,100.3984 L465.3882,100.3984 L465.3647,100.3731 L467.0408,101.9061 L468.835,103.567 L470.7114,105.3167 L472.3046,106.7602 L474.2944,108.6327 L474.5277,108.7111 L475.2477,112.1664 L476.6486,115.8508 L478.1326,119.5631 L479.1333,123.1128 L480.3882,126.748 L480.4169,126.7577 L481.5935,130.3666 L482.9009,134.0195 L484.1452,137.6511 L485.5099,141.3233 L486.4819,144.8634 L486.6844,145.0824 L488.4681,146.7319 L490.1213,148.2402 L491.9656,149.9552 L493.8188,151.68 L495.3882,153.0977 L495.3882,152.4566 L497.3882,153.7008 L499.3882,152.8341 L501.3882,153.5722 L503.3882,152.6576 L505.3882,153.0977" fill="none" style="stroke:#FF6F00;stroke-width:1;"/><a href="/use-case/legal-entity-management/ownership-and-capital-structure/corporate-actions/" target="_top" title="/use-case/legal-entity-management/ownership-and-capital-structure/corporate-actions/" xlink:actuate="onRequest" xlink:href="/use-case/legal-entity-management/ownership-and-capital-structure/corporate-actions/" xlink:show="new" xlink:title="/use-case/legal-entity-management/ownership-and-capital-structure/corporate-actions/" xlink:type="simple"><text fill="#4051B5" font-family="'Roboto'" font-size="13" lengthAdjust="spacing" textLength="116.835" x="512.3882" y="182.731">Corporate Actions</text></a><path d="M455.3882,100.3984 L455.3882,100.5853 L457.3882,100.0302 L459.3882,100.5702 L461.3882,100.7537 L463.3882,99.7643 L465.3882,100.3984 L465.3882,100.3984 L465.3603,100.378 L467.0165,102.7187 L468.8132,105.1622 L470.7075,107.6773 L472.2653,109.9459 L474.2944,112.5597 L474.5327,112.6213 L474.6678,114.9826 L475.4984,117.5238 L476.4139,120.0869 L476.8356,122.5224 L477.5171,125.025 L477.5468,125.031 L478.0774,127.8801 L478.7433,130.7564 L479.3439,133.6196 L480.0692,136.5078 L480.3882,139.3145 L480.6806,139.3732 L481.2584,142.2318 L481.6476,145.0525 L482.3128,147.9287 L482.991,150.8075 L483.2593,153.6039 L482.949,153.5237 L484.1958,156.1725 L484.4208,158.5571 L485.4226,161.1425 L485.6244,163.5211 L486.4819,166.0692 L486.4574,166.0512 L488.5291,168.6962 L490.027,170.9209 L491.8634,173.3936 L493.7284,175.8871 L495.3882,178.2305 L495.3882,178.6005 L497.3882,178.227 L499.3882,178.4858 L501.3882,177.7217 L503.3882,178.4833 L505.3882,178.2305" fill="none" style="stroke:#FF6F00;stroke-width:1;"/><path d="M192.0566,124.3145 L192.0566,124.5013 L194.0566,123.9462 L196.0566,124.4863 L198.0566,124.6697 L200.0566,123.6803 L202.0566,124.3145 L202.0566,124.3145 L202.0351,124.2874 L204.9385,121.7746 L207.9504,119.398 L211.0378,117.116 L213.8651,114.5078 L217.0566,112.3564 L217.21,112.5489 L219.882,109.7458 L223.0018,107.5045 L226.1763,105.3318 L229.0329,102.7602 L232.0566,100.3984 L232.0566,100.4591 L234.0566,100.37 L236.0566,100.5571 L238.0566,100.611 L240.0566,100.9191 L242.0566,100.3984" fill="none" style="stroke:#FF6F00;stroke-width:1;"/><a href="/use-case/legal-entity-management/financial-information/" target="_top" title="/use-case/legal-entity-management/financial-information/" xlink:actuate="onRequest" xlink:href="/use-case/legal-entity-management/financial-information/" xlink:show="new" xlink:title="/use-case/legal-entity-management/financial-information/" xlink:type="simple"><text fill="#4051B5" font-family="'Roboto'" font-size="13" lengthAdjust="spacing" textLength="137.4839" x="249.0566" y="130.0317">Financial Information</text></a><path d="M192.0566,124.3145 L192.0566,124.5013 L194.0566,123.9462 L196.0566,124.4863 L198.0566,124.6697 L200.0566,123.6803 L202.0566,124.3145 L202.0566,124.3145 L202.0552,124.2799 L205.049,124.2467 L208.0497,124.3875 L211.0554,124.6492 L214.0442,124.4941 L217.0566,124.9229 L217.0666,125.1687 L220.0453,124.7646 L223.0531,125.0784 L226.0644,125.4797 L229.0551,125.3715 L232.0566,125.5313 L232.0566,125.5919 L234.0566,125.5029 L236.0566,125.6899 L238.0566,125.7438 L240.0566,126.0519 L242.0566,125.5313" fill="none" style="stroke:#FF6F00;stroke-width:1;"/><a href="/use-case/legal-entity-management/lifecycle-and-status/" target="_top" title="/use-case/legal-entity-management/lifecycle-and-status/" xlink:actuate="onRequest" xlink:href="/use-case/legal-entity-management/lifecycle-and-status/" xlink:show="new" xlink:title="/use-case/legal-entity-management/lifecycle-and-status/" xlink:type="simple"><text fill="#4051B5" font-family="'Roboto'" font-size="13" lengthAdjust="spacing" textLength="116.854" x="249.0566" y="155.1646">Lifecycle &amp; Status</text></a><path d="M192.0566,124.3145 L192.0566,124.5013 L194.0566,123.9462 L196.0566,124.4863 L198.0566,124.6697 L200.0566,123.6803 L202.0566,124.3145 L202.0566,124.3145 L202.0338,124.2885 L204.9316,126.807 L207.9442,129.4563 L211.0367,132.1966 L213.8539,134.6234 L217.0566,137.4893 L217.219,137.6741 L219.8718,139.9137 L222.9986,142.6931 L226.1833,145.5384 L229.0315,148.0005 L232.0566,150.6641 L232.0566,150.7247 L234.0566,150.6357 L236.0566,150.8228 L238.0566,150.8766 L240.0566,151.1847 L242.0566,150.6641" fill="none" style="stroke:#FF6F00;stroke-width:1;"/><a href="/use-case/legal-entity-management/contact-and-location-information/" target="_top" title="/use-case/legal-entity-management/contact-and-location-information/" xlink:actuate="onRequest" xlink:href="/use-case/legal-entity-management/contact-and-location-information/" xlink:show="new" xlink:title="/use-case/legal-entity-management/contact-and-location-information/" xlink:type="simple"><text fill="#4051B5" font-family="'Roboto'" font-size="13" lengthAdjust="spacing" textLength="203.8042" x="249.0566" y="180.2974">Contact &amp; Location Information</text></a><path d="M192.0566,124.3145 L192.0566,124.5013 L194.0566,123.9462 L196.0566,124.4863 L198.0566,124.6697 L200.0566,123.6803 L202.0566,124.3145 L202.0566,124.3145 L202.0335,124.2888 L203.7108,125.7826 L205.5049,127.4056 L207.3801,129.1185 L208.9757,130.5217 L210.9629,132.3586 L211.1955,132.4387 L211.9168,135.8068 L213.3173,139.4088 L214.8007,143.0393 L215.8018,146.5038 L217.0566,150.0557 L217.0853,150.0655 L218.262,153.5905 L219.5692,157.1603 L220.8134,160.7085 L222.1778,164.2981 L223.1504,167.7527 L223.3503,167.9741 L225.134,169.5856 L226.7887,171.0544 L228.6322,172.7321 L230.4846,174.4197 L232.0566,175.7969 L232.0566,175.1558 L234.0566,176.4 L236.0566,175.5333 L238.0566,176.2714 L240.0566,175.3569 L242.0566,175.7969" fill="none" style="stroke:#FF6F00;stroke-width:1;"/><a href="/use-case/legal-entity-management/compliance-and-documentation/" target="_top" title="/use-case/legal-entity-management/compliance-and-documentation/" xlink:actuate="onRequest" xlink:href="/use-case/legal-entity-management/compliance-and-documentation/" xlink:show="new" xlink:title="/use-case/legal-entity-management/compliance-and-documentation/" xlink:type="simple"><text fill="#4051B5" font-family="'Roboto'" font-size="13" lengthAdjust="spacing" textLength="195.1396" x="249.0566" y="205.4302">Compliance &amp; Documentation</text></a><path d="M192.0566,124.3145 L192.0566,124.5013 L194.0566,123.9462 L196.0566,124.4863 L198.0566,124.6697 L200.0566,123.6803 L202.0566,124.3145 L202.0566,124.3145 L202.0289,124.2938 L203.6858,126.5955 L205.4824,129.0012 L207.3761,131.4791 L208.9351,133.7079 L210.9629,136.2856 L211.2009,136.3481 L211.3365,138.6685 L212.1669,141.1714 L213.0822,143.6966 L213.5041,146.0922 L214.1855,148.556 L214.2153,148.5621 L214.7459,151.3664 L215.4117,154.1983 L216.0123,157.0169 L216.7375,159.8609 L217.0566,162.6221 L217.3489,162.6817 L217.9267,165.4957 L218.316,168.2711 L218.9812,171.1029 L219.6593,173.9374 L219.9277,176.6881 L219.6177,176.6067 L220.8639,179.2188 L221.0893,181.5628 L222.0908,184.1107 L222.2931,186.4486 L223.1504,188.9586 L223.126,188.9404 L225.1961,191.5495 L226.6955,193.7341 L228.5317,196.1692 L230.3961,198.6253 L232.0566,200.9297 L232.0566,201.2997 L234.0566,200.9262 L236.0566,201.185 L238.0566,200.4209 L240.0566,201.1825 L242.0566,200.9297" fill="none" style="stroke:#FF6F00;stroke-width:1;"/><a href="/use-case/legal-entity-management/supporting-information/" target="_top" title="/use-case/legal-entity-management/supporting-information/" xlink:actuate="onRequest" xlink:href="/use-case/legal-entity-management/supporting-information/" xlink:show="new" xlink:title="/use-case/legal-entity-management/supporting-information/" xlink:type="simple"><text fill="#4051B5" font-family="'Roboto'" font-size="13" lengthAdjust="spacing" textLength="151.106" x="249.0566" y="230.563">Supporting Information</text></a><path d="M192.0566,124.3145 L192.0566,124.5013 L194.0566,123.9462 L196.0566,124.4863 L198.0566,124.6697 L200.0566,123.6803 L202.0566,124.3145 L202.0566,124.3145 L202.0265,124.2976 L203.6725,127.4014 L205.4704,130.5904 L207.374,133.8385 L208.9136,136.8828 L210.9629,140.2126 L211.2043,140.2603 L211.3326,143.4174 L212.1657,146.7138 L213.0848,150.0272 L213.5036,153.2417 L214.1855,156.5082 L214.2155,156.5128 L214.7457,160.2421 L215.4124,163.9923 L216.0133,167.7325 L216.7397,171.492 L217.0566,175.1885 L217.3514,175.2338 L217.9292,178.9704 L218.3169,182.6778 L218.9829,186.428 L219.662,190.1801 L219.9277,193.8688 L219.6133,193.8066 L220.8681,197.1864 L221.0875,200.3615 L222.0941,203.6922 L222.29,206.8626 L223.1504,210.1644 L223.1238,210.1495 L225.2192,213.5051 L226.694,216.513 L228.535,219.7261 L230.4067,222.9564 L232.0566,226.0625 L232.0566,226.4325 L234.0566,226.059 L236.0566,226.3178 L238.0566,225.5537 L240.0566,226.3153 L242.0566,226.0625" fill="none" style="stroke:#FF6F00;stroke-width:1;"/><!--SRC=[xLXjRzis4FwkNy4rmDeYTHsdIL4KHL77UMbQ9mxifCDG504jKJOHcTH8AbasxB_lg5TAjcJBaRjsIBwq9e_FFKTIlBldWrHOg1bbpWpxblMBGrpA23eukJxhdfvVzmRzmH25VrjxE_kTyRvfCZhg3SuFkyFVOxi59XVTtkVkoL4AD6So61uU3Kq_QCjrNxixEwd9yU3yCcSGckY_rAGx70v-oziaA9QyeSp70i_G6Dit4y43vlIunmNQKW8p2NE4ASFiuxrFX4VPJMmLCxQU8ifiBt08KbE29eGHWJsKhfF81UinLzCNoAEJgKAOESZ1uWPMAexuBH5tWYg2xgYQHXZqbZ0aYLAKJMHnJou_dlO-dn-DHgW31yDzHJb3Km3LA0eMkjYJn21-WHq7WD2UCJQCmXL05hqnnaTJxF0xRLr4ISE_Oaxu7nAR63Q7nCM1fz3VrZ5dwXpF27eov10xVnAEH3kN7LmuEA9_4TJPi_unaRf2y3l0MRXYCOowzs2FkEVaaNmuNJmXCQUvfGU5my_TSEk02mWsdZ6k9BZ8F33kr87FNVtLFDXyvdC6rn7Sh4bu8RjepuAPjvlVCmShFCQIDEmkvyFsUE1ir07tF6BhhqCsxYRpqWC3mRqDUZZGa5ZSRz354LDKRT81POe85zjaWpv6v8-0C9jSGEAYDlKnKn7OvPJQDun82GzcPYvZSs1ahgWaDmUzWATXaprBZ8iPzefpS-7qgKlwyBAMWgS6bJJ3ntCEF1mjHGvd5v8APx8zV6LrRSN54WQXIQalFLls0Jz5lJsaTmsI4FpOMlfdVlC2FdZC9XvvzmwobUJi_Niutn5SFi8L9B3IxD5KNYZUk6BEpZzH1bto9v1asBjkddUX7Di0UNal5PdzV7lTFEyDxNMIa7-EhSxO_dmxRLoJSPnu8zQ5mZWVHLZ3xYolzjQAlJgmAC4uM4w9iqgi2qErmJ66l29MZHNgzUghj858gu-mTXkID71PJA-Y_3E0ZanGgEcT64StS74h71Rx4hNGB91Ar-K4OHT2JNmMsWB3MzoQblOuHgzQHj8i9RBDADJkqBYhvMNMuaolbA3ZG97oEc2UQqK3awlsiPJhiQfoy1ITnUSYVM9JbzeGVrWwm17TJNLNhU0DWlfJwWCD3-y56di1WRDZZEX2H28UA3qztz8rp3R3n_cQ2XfvQ_iQVVsAse4aBHlUphP79jXhaR0oRyqmWnvs1h_QgAydafBzB9r0txvPswk2GBGm1jk5TN_Kminf2JAXKebme8rESmReLpGqfckvihdmEQmZhOcMEXY6chiDRLCyYaxIqLgm_0vUApcbVaZUnZvLO0SC0ri50ZmC4WCWtukceQoCfoDNsysuIkTDfv63XeAneoQpdNQRZQBBAHP4jhNs0__2TcqeYj1FCXwxIu-cKKzKoe0ucQlJyFTcV6Nt6qTYWtcvkx7-KETckrH_3HJcA7FrOnzzaSV9C3hDXci1Uz0yslUsHy98T9u8W6m_6OM37uLZDJzlg1ni5K9wF7vFSiHxaGN0z-FvjIFGEfX7zLiH-dEu7UZnr54o2xuEpRbQJcJWm-bfwJKVnoWTB_B_G2079LBvXxnotfpE_0ChkabniwASQvel0AWXv2RhYeawsJGp6oVAVwLq-r30AgMs2cEUmHhQR3q7Awcn3u6ir5_h0g-YkAwFMQ6nhWzQgggk3rcbewwFkX7bDA5Jefacp6hBfKa0YxJI1BHC9aqu6QrC0ZUdZYPO1M4qPxzK5KqT5lNG53qlXHeVqbggPldBMkUsp1_-GrNBxyrhYTpqdstJZy1hPItnExFveJQfKHamuL4pcbBMbP9VPvCQNzEH5FQ_AGrlRH5kGRviJ80paGgvP5vtowMPHJjNB45NqDhA2Io5BD737e3ug80zAc2F2jYZ0lQeWFtl5B0B3ngsgxC-WcTDQeFEozsTtVsNdSwOADpPUNR5RXXSgb0ieR3jYix8S-lPoKKVIHu8OE_ebrQdH5Z-tFg4Rp4Q1apRlKK3dx1FXv-J0SW3jrHmffbRdxwSPGQlzre7L45tAu08-d9c9JN54REvri_UeglBuzORgmyLKW31lqM4GI40kE8UvaR_0W00]--></g></svg>