<svg xmlns="http://www.w3.org/2000/svg" xmlns:xlink="http://www.w3.org/1999/xlink" contentStyleType="text/css" data-diagram-type="MINDMAP" height="275px" preserveAspectRatio="none" style="width:900px;height:275px;" version="1.1" viewBox="0 0 900 275" width="900px" zoomAndPan="magnify"><defs/><g><a href="/use-case/legal-entity-management/" target="_top" title="/use-case/legal-entity-management/" xlink:actuate="onRequest" xlink:href="/use-case/legal-entity-management/" xlink:show="new" xlink:title="/use-case/legal-entity-management/" xlink:type="simple"><text fill="#4051B5" font-family="'Roboto'" font-size="13" lengthAdjust="spacing" textLength="166.9243" x="17" y="141.3813">Legal Entity Management</text></a><a href="/use-case/legal-entity-management/identification-and-registration/" target="_top" title="/use-case/legal-entity-management/identification-and-registration/" xlink:actuate="onRequest" xlink:href="/use-case/legal-entity-management/identification-and-registration/" xlink:show="new" xlink:title="/use-case/legal-entity-management/identification-and-registration/" xlink:type="simple"><text fill="#4051B5" font-family="'Roboto'" font-size="13" lengthAdjust="spacing" textLength="182.6157" x="249.0566" y="79.7661">Identification &amp; Registration</text></a><path d="M192.0566,136.8809 L192.0566,137.0677 L194.0566,136.5126 L196.0566,137.0527 L198.0566,137.2361 L200.0566,136.2467 L202.0566,136.8809 L202.0566,136.8809 L202.0313,136.8574 L203.6987,134.8267 L205.494,132.9142 L207.3782,131.0839 L208.9561,128.9703 L210.9629,127.2535 L211.1968,127.3299 L211.3411,125.1929 L212.1684,123.279 L213.079,121.3922 L213.5048,119.3472 L214.1855,117.3854 L214.2149,117.3929 L214.746,115.1195 L215.4109,112.8801 L216.0112,110.6243 L216.7347,108.3997 L217.0566,106.0732 L217.3457,106.1466 L217.9235,103.8851 L218.3148,101.5762 L218.979,99.3366 L219.656,97.1003 L219.9277,94.7611 L219.623,94.6616 L220.8589,92.8811 L221.0915,90.7729 L222.0869,88.9139 L222.2967,86.7983 L223.1504,84.893 L223.128,84.8723 L225.1736,83.1914 L226.697,81.0273 L228.5285,79.1484 L230.3859,77.2933 L232.0566,75.2656 L232.0566,75.6356 L234.0566,75.2622 L236.0566,75.5209 L238.0566,74.7568 L240.0566,75.5184 L242.0566,75.2656" fill="none" style="stroke:#FF6F00;stroke-width:1;"/><a href="/use-case/legal-entity-management/corporate-governance/" target="_top" title="/use-case/legal-entity-management/corporate-governance/" xlink:actuate="onRequest" xlink:href="/use-case/legal-entity-management/corporate-governance/" xlink:show="new" xlink:title="/use-case/legal-entity-management/corporate-governance/" xlink:type="simple"><text fill="#4051B5" font-family="'Roboto'" font-size="13" lengthAdjust="spacing" textLength="147.7734" x="249.0566" y="104.8989">Corporate Governance</text></a><path d="M192.0566,136.8809 L192.0566,137.0677 L194.0566,136.5126 L196.0566,137.0527 L198.0566,137.2361 L200.0566,136.2467 L202.0566,136.8809 L202.0566,136.8809 L202.038,136.8518 L203.7357,135.5811 L205.5273,134.4572 L207.3841,133.4351 L209.016,132.0618 L210.9629,131.1805 L211.1842,131.288 L211.9297,128.5499 L213.3213,126.1257 L214.7918,123.7399 L215.8036,121.1312 L217.0566,118.6396 L217.0839,118.6529 L218.2626,116.1253 L219.5655,113.658 L220.8085,111.1616 L222.1658,108.7207 L223.1504,106.0988 L223.3112,106.35 L225.0944,105.213 L226.7739,103.914 L228.6052,102.8521 L230.4436,101.8014 L232.0566,100.3984 L232.0566,99.7574 L234.0566,101.0016 L236.0566,100.1349 L238.0566,100.8729 L240.0566,99.9584 L242.0566,100.3984" fill="none" style="stroke:#FF6F00;stroke-width:1;"/><a href="/use-case/legal-entity-management/ownership-and-capital-structure/" target="_top" title="/use-case/legal-entity-management/ownership-and-capital-structure/" xlink:actuate="onRequest" xlink:href="/use-case/legal-entity-management/ownership-and-capital-structure/" xlink:show="new" xlink:title="/use-case/legal-entity-management/ownership-and-capital-structure/" xlink:type="simple"><text fill="#4051B5" font-family="'Roboto'" font-size="13" lengthAdjust="spacing" textLength="198.1992" x="249.0566" y="130.0317">Ownership &amp; Capital Structure</text></a><a href="/use-case/legal-entity-management/ownership-and-capital-structure/ownership/" target="_top" title="/use-case/legal-entity-management/ownership-and-capital-structure/ownership/" xlink:actuate="onRequest" xlink:href="/use-case/legal-entity-management/ownership-and-capital-structure/ownership/" xlink:show="new" xlink:title="/use-case/legal-entity-management/ownership-and-capital-structure/ownership/" xlink:type="simple"><text fill="#4051B5" font-family="'Roboto'" font-size="13" lengthAdjust="spacing" textLength="69.3228" x="512.3882" y="27.0669">Ownership</text></a><path d="M455.3882,125.5313 L455.3882,125.7181 L457.3882,125.163 L459.3882,125.7031 L461.3882,125.8865 L463.3882,124.8971 L465.3882,125.5313 L465.3882,125.5313 L465.358,125.5145 L467.0036,122.2218 L468.8016,119.0134 L470.7054,115.8636 L472.2444,112.5118 L474.2944,109.443 L474.5359,109.4902 L474.664,106.0912 L475.4972,102.8299 L476.4164,99.5855 L476.8351,96.2433 L477.5171,92.9525 L477.5471,92.9571 L478.0773,89.1697 L478.744,85.403 L479.3448,81.6263 L480.0713,77.8687 L480.3882,74.0488 L480.683,74.0936 L481.2609,70.3134 L481.6485,66.5043 L482.3145,62.7375 L482.9936,58.9727 L483.2593,55.1451 L482.9447,55.0837 L484.1998,51.9049 L484.419,48.5237 L485.4257,45.2964 L485.6215,41.9106 L486.4819,38.6547 L486.4553,38.6399 L488.5515,35.5966 L490.0255,32.2089 L491.8666,29.0244 L493.7386,25.8569 L495.3882,22.5664 L495.3882,22.9364 L497.3882,22.5629 L499.3882,22.8217 L501.3882,22.0576 L503.3882,22.8192 L505.3882,22.5664" fill="none" style="stroke:#FF6F00;stroke-width:1;"/><a href="/use-case/legal-entity-management/ownership-and-capital-structure/control/" target="_top" title="/use-case/legal-entity-management/ownership-and-capital-structure/control/" xlink:actuate="onRequest" xlink:href="/use-case/legal-entity-management/ownership-and-capital-structure/control/" xlink:show="new" xlink:title="/use-case/legal-entity-management/ownership-and-capital-structure/control/" xlink:type="simple"><text fill="#4051B5" font-family="'Roboto'" font-size="13" lengthAdjust="spacing" textLength="47.2773" x="512.3882" y="52.1997">Control</text></a><path d="M455.3882,125.5313 L455.3882,125.7181 L457.3882,125.163 L459.3882,125.7031 L461.3882,125.8865 L463.3882,124.8971 L465.3882,125.5313 L465.3882,125.5313 L465.3603,125.5108 L467.0165,122.987 L468.8132,120.566 L470.7075,118.2166 L472.2653,115.6207 L474.2944,113.37 L474.5327,113.4316 L474.6678,110.8068 L475.4984,108.3619 L476.4139,105.9389 L476.8356,103.3882 L477.5171,100.9047 L477.5468,100.9107 L478.0774,98.044 L478.7433,95.2045 L479.3439,92.352 L480.0692,89.5244 L480.3882,86.6152 L480.6806,86.674 L481.2584,83.8168 L481.6476,80.9217 L482.3128,78.0821 L482.991,75.2451 L483.2593,72.3258 L482.949,72.2455 L484.1958,69.9082 L484.4208,67.3067 L485.4226,64.906 L485.6244,62.2985 L486.4819,59.8605 L486.4574,59.8425 L488.5291,57.623 L490.027,54.9832 L491.8634,52.5914 L493.7284,50.2204 L495.3882,47.6992 L495.3882,48.0692 L497.3882,47.6957 L499.3882,47.9545 L501.3882,47.1904 L503.3882,47.952 L505.3882,47.6992" fill="none" style="stroke:#FF6F00;stroke-width:1;"/><a href="/use-case/legal-entity-management/ownership-and-capital-structure/shares/" target="_top" title="/use-case/legal-entity-management/ownership-and-capital-structure/shares/" xlink:actuate="onRequest" xlink:href="/use-case/legal-entity-management/ownership-and-capital-structure/shares/" xlink:show="new" xlink:title="/use-case/legal-entity-management/ownership-and-capital-structure/shares/" xlink:type="simple"><text fill="#4051B5" font-family="'Roboto'" font-size="13" lengthAdjust="spacing" textLength="132.2979" x="512.3882" y="77.3325">Shares &amp; Ownership</text></a><path d="M455.3882,125.5313 L455.3882,125.7181 L457.3882,125.163 L459.3882,125.7031 L461.3882,125.8865 L463.3882,124.8971 L465.3882,125.5313 L465.3882,125.5313 L465.3647,125.5059 L467.0408,123.7452 L468.835,122.1124 L470.7114,120.5685 L472.3046,118.7182 L474.2944,117.297 L474.5277,117.3754 L475.2477,113.5846 L476.6486,110.0228 L478.1326,106.489 L479.1333,102.7926 L480.3882,99.1816 L480.4169,99.1913 L481.5935,95.554 L482.9009,91.9608 L484.1452,88.3463 L485.5099,84.7723 L486.4819,81.0663 L486.6844,81.2853 L488.4681,79.6411 L490.1213,77.8557 L491.9656,76.277 L493.8188,74.708 L495.3882,72.832 L495.3882,72.191 L497.3882,73.4352 L499.3882,72.5685 L501.3882,73.3065 L503.3882,72.392 L505.3882,72.832" fill="none" style="stroke:#FF6F00;stroke-width:1;"/><a href="/use-case/legal-entity-management/ownership-and-capital-structure/share-capital/" target="_top" title="/use-case/legal-entity-management/ownership-and-capital-structure/share-capital/" xlink:actuate="onRequest" xlink:href="/use-case/legal-entity-management/ownership-and-capital-structure/share-capital/" xlink:show="new" xlink:title="/use-case/legal-entity-management/ownership-and-capital-structure/share-capital/" xlink:type="simple"><text fill="#4051B5" font-family="'Roboto'" font-size="13" lengthAdjust="spacing" textLength="87.5151" x="512.3882" y="102.4653">Share Capital</text></a><path d="M455.3882,125.5313 L455.3882,125.7181 L457.3882,125.163 L459.3882,125.7031 L461.3882,125.8865 L463.3882,124.8971 L465.3882,125.5313 L465.3882,125.5313 L465.3731,125.5002 L467.0869,124.4992 L468.8765,123.6549 L470.7187,122.9196 L472.3794,121.8088 L474.2944,121.224 L474.5014,121.3571 L475.2776,119.1773 L476.658,117.3861 L478.1122,115.6423 L479.1374,113.6226 L480.3882,111.748 L480.4137,111.7645 L481.595,109.8452 L482.8924,108.0006 L484.1338,106.12 L485.4821,104.3081 L486.4819,102.2721 L486.6118,102.5406 L488.3946,101.6824 L490.0937,100.6511 L491.9154,99.8732 L493.7428,99.1073 L495.3882,97.9648 L495.3882,97.3238 L497.3882,98.568 L499.3882,97.7013 L501.3882,98.4393 L503.3882,97.5248 L505.3882,97.9648" fill="none" style="stroke:#FF6F00;stroke-width:1;"/><a href="/use-case/legal-entity-management/ownership-and-capital-structure/issued-capital/" target="_top" title="/use-case/legal-entity-management/ownership-and-capital-structure/issued-capital/" xlink:actuate="onRequest" xlink:href="/use-case/legal-entity-management/ownership-and-capital-structure/issued-capital/" xlink:show="new" xlink:title="/use-case/legal-entity-management/ownership-and-capital-structure/issued-capital/" xlink:type="simple"><text fill="#4051B5" font-family="'Roboto'" font-size="13" lengthAdjust="spacing" textLength="91.584" x="512.3882" y="127.5981">Issued Capital</text></a><path d="M455.3882,125.5313 L455.3882,125.7181 L457.3882,125.163 L459.3882,125.7031 L461.3882,125.8865 L463.3882,124.8971 L465.3882,125.5313 L465.3882,125.5313 L465.3854,125.4968 L468.3729,125.099 L471.3744,124.8746 L474.3857,124.771 L477.3633,124.2515 L480.3882,124.3145 L480.4081,124.5597 L483.3655,123.7919 L486.3811,123.7401 L489.4037,123.7757 L492.3851,123.303 L495.3882,123.0977 L495.3882,123.1583 L497.3882,123.0693 L499.3882,123.2563 L501.3882,123.3102 L503.3882,123.6183 L505.3882,123.0977" fill="none" style="stroke:#FF6F00;stroke-width:1;"/><a href="/use-case/legal-entity-management/ownership-and-capital-structure/corporate-actions/" target="_top" title="/use-case/legal-entity-management/ownership-and-capital-structure/corporate-actions/" xlink:actuate="onRequest" xlink:href="/use-case/legal-entity-management/ownership-and-capital-structure/corporate-actions/" xlink:show="new" xlink:title="/use-case/legal-entity-management/ownership-and-capital-structure/corporate-actions/" xlink:type="simple"><text fill="#4051B5" font-family="'Roboto'" font-size="13" lengthAdjust="spacing" textLength="116.835" x="512.3882" y="167.731">Corporate Actions</text></a><a href="/use-case/legal-entity-management/ownership-and-capital-structure/corporate-actions/merger-and-acquisition-history/" target="_top" title="/use-case/legal-entity-management/ownership-and-capital-structure/corporate-actions/merger-and-acquisition-history/" xlink:actuate="onRequest" xlink:href="/use-case/legal-entity-management/ownership-and-capital-structure/corporate-actions/merger-and-acquisition-history/" xlink:show="new" xlink:title="/use-case/legal-entity-management/ownership-and-capital-structure/corporate-actions/merger-and-acquisition-history/" xlink:type="simple"><text fill="#4051B5" font-family="'Roboto'" font-size="13" lengthAdjust="spacing" textLength="186.3672" x="694.3555" y="102.4653">Merger &amp; Acquisition History</text></a><path d="M637.3555,163.2305 L637.3555,163.4173 L639.3555,162.8622 L641.3555,163.4023 L643.3555,163.5857 L645.3555,162.5963 L647.3555,163.2305 L647.3555,163.2305 L647.3295,163.2077 L648.9939,161.0662 L650.7896,159.0392 L652.6764,157.0919 L654.249,154.8701 L656.2617,153.0327 L656.4969,153.1052 L656.6386,150.8596 L657.4668,148.8257 L658.3788,146.8177 L658.8034,144.6593 L659.4844,142.58 L659.5139,142.5871 L660.0448,140.1802 L660.71,137.8056 L661.3104,135.4154 L662.0344,133.0548 L662.3555,130.5977 L662.6455,130.6672 L663.2233,128.2715 L663.614,125.8311 L664.2785,123.4562 L664.9559,121.0845 L665.2266,118.6153 L664.9203,118.5209 L666.1593,116.6136 L666.3897,114.3954 L667.3869,112.4136 L667.5944,110.1883 L668.4492,108.1626 L668.4263,108.1426 L670.4787,106.3399 L671.9954,104.0692 L673.8282,102.0747 L675.6876,100.1034 L677.3555,97.9648 L677.3555,98.3348 L679.3555,97.9614 L681.3555,98.2201 L683.3555,97.456 L685.3555,98.2176 L687.3555,97.9648" fill="none" style="stroke:#FF6F00;stroke-width:1;"/><a href="/use-case/legal-entity-management/ownership-and-capital-structure/corporate-actions/spin-offs/" target="_top" title="/use-case/legal-entity-management/ownership-and-capital-structure/corporate-actions/spin-offs/" xlink:actuate="onRequest" xlink:href="/use-case/legal-entity-management/ownership-and-capital-structure/corporate-actions/spin-offs/" xlink:show="new" xlink:title="/use-case/legal-entity-management/ownership-and-capital-structure/corporate-actions/spin-offs/" xlink:type="simple"><text fill="#4051B5" font-family="'Roboto'" font-size="13" lengthAdjust="spacing" textLength="56.9258" x="694.3555" y="127.5981">Spin-offs</text></a><path d="M637.3555,163.2305 L637.3555,163.4173 L639.3555,162.8622 L641.3555,163.4023 L643.3555,163.5857 L645.3555,162.5963 L647.3555,163.2305 L647.3555,163.2305 L647.3356,163.2022 L649.0276,161.8213 L650.8198,160.5828 L652.6818,159.4432 L654.3036,157.9626 L656.2617,156.9597 L656.4868,157.0591 L657.2242,154.0874 L658.6188,151.4059 L660.0936,148.7599 L661.1018,145.9078 L662.3555,143.1641 L662.3832,143.1763 L663.5612,140.3992 L664.8655,137.6779 L666.1089,134.9296 L667.4686,132.2327 L668.4492,129.3684 L668.6209,129.6123 L670.4043,128.3611 L672.0769,126.9526 L673.9116,125.7744 L675.7539,124.607 L677.3555,123.0977 L677.3555,122.4566 L679.3555,123.7008 L681.3555,122.8341 L683.3555,123.5722 L685.3555,122.6576 L687.3555,123.0977" fill="none" style="stroke:#FF6F00;stroke-width:1;"/><polygon fill="#4051B5" points="691.3555,145.6641,691.3555,145.8742,701.1776,145.2497,710.9997,145.8573,720.8218,146.0637,730.6439,144.9507,740.466,145.5863,750.2881,145.2376,760.1102,145.2806,769.9323,145.5959,779.7544,144.9727,789.5765,146.2177,799.3986,145.0338,809.2207,145.4663,819.0428,146.096,828.8649,145.5783,838.687,145.7323,848.5091,145.6321,858.3312,145.8426,868.1533,145.6641,868.1838,145.7377,868.7937,146.0787,869.3703,146.3393,869.937,146.5762,870.4485,146.6797,870.9817,146.8356,871.1245,146.8948,871.4323,147.4909,871.2283,147.875,871.8936,148.6192,871.8277,149.0606,872.1533,149.6641,872.3313,149.6641,871.9883,155.0906,872.1305,160.5172,872.4005,165.9438,872.1371,171.3703,872.1533,176.7969,872.1857,176.8103,872.0233,177.4058,871.8129,177.9813,871.4492,178.4934,871.3045,179.0963,870.9817,179.6253,870.9087,179.449,870.4523,179.9472,869.9203,180.2628,869.3414,180.4651,868.7972,180.7513,868.1533,180.7969,868.1533,180.3138,858.3312,180.1447,848.5091,180.1755,838.687,180.738,828.8649,180.6003,819.0428,181.4783,809.2207,180.6222,799.3986,180.4538,789.5765,181.0251,779.7544,180.13,769.9323,180.2777,760.1102,181.4458,750.2881,181.2325,740.466,181.5314,730.6439,180.4751,720.8218,181.1161,710.9997,181.3873,701.1776,180.3245,691.3555,180.7969,691.3432,180.7674,690.8059,180.6014,690.3072,180.529,689.6579,180.0926,689.1517,180.0021,688.527,179.6253,688.3565,179.5547,688.0842,178.9732,688.2135,178.5582,687.6033,177.8368,687.7465,177.4275,687.3555,176.7969,687.4243,176.7969,687.2662,171.3703,687.2375,165.9438,687.5084,160.5172,687.2557,155.0906,687.3555,149.6641,687.5377,149.7396,687.4196,149.0279,688.0142,148.6115,688.2076,148.0288,688.3682,147.4326,688.527,146.8356,688.5331,146.8502,689.1854,146.8251,689.7367,146.556,690.2457,146.1848,690.824,145.981,691.3555,145.6641" style="stroke:#FF6F00;stroke-width:1.5;"/><a href="/use-case/legal-entity-management/ownership-and-capital-structure/corporate-actions/parents-and-subsidiaries/" target="_top" title="/use-case/legal-entity-management/ownership-and-capital-structure/corporate-actions/parents-and-subsidiaries/" xlink:actuate="onRequest" xlink:href="/use-case/legal-entity-management/ownership-and-capital-structure/corporate-actions/parents-and-subsidiaries/" xlink:show="new" xlink:title="/use-case/legal-entity-management/ownership-and-capital-structure/corporate-actions/parents-and-subsidiaries/" xlink:type="simple"><text fill="#4051B5" font-family="'Roboto'" font-size="13" lengthAdjust="spacing" textLength="160.6655" x="697.3555" y="167.731">Parents and Subsidiaries</text></a><path d="M637.3555,163.2305 L637.3555,163.4173 L639.3555,162.8622 L641.3555,163.4023 L643.3555,163.5857 L645.3555,162.5963 L647.3555,163.2305 L647.3555,163.2305 L647.3555,163.1959 L653.3555,163.0409 L659.3555,163.06 L665.3555,163.2002 L671.3555,162.9232 L677.3555,163.2305 L677.3555,163.7226 L679.3555,162.6702 L681.3555,163.0547 L683.3555,163.6144 L685.3555,163.1542 L687.3555,163.2305" fill="none" style="stroke:#FF6F00;stroke-width:1;"/><a href="/use-case/legal-entity-management/ownership-and-capital-structure/corporate-actions/stock-splits/" target="_top" title="/use-case/legal-entity-management/ownership-and-capital-structure/corporate-actions/stock-splits/" xlink:actuate="onRequest" xlink:href="/use-case/legal-entity-management/ownership-and-capital-structure/corporate-actions/stock-splits/" xlink:show="new" xlink:title="/use-case/legal-entity-management/ownership-and-capital-structure/corporate-actions/stock-splits/" xlink:type="simple"><text fill="#4051B5" font-family="'Roboto'" font-size="13" lengthAdjust="spacing" textLength="75.7085" x="694.3555" y="207.8638">Stock Splits</text></a><path d="M637.3555,163.2305 L637.3555,163.4173 L639.3555,162.8622 L641.3555,163.4023 L643.3555,163.5857 L645.3555,162.5963 L647.3555,163.2305 L647.3555,163.2305 L647.3356,163.2022 L649.0276,164.3296 L650.8198,165.5994 L652.6818,166.9682 L654.3036,167.9958 L656.2617,169.5012 L656.4868,169.6006 L657.2242,172.1472 L658.6188,174.984 L660.0936,177.8562 L661.1018,180.5223 L662.3555,183.2969 L662.3832,183.3091 L663.5612,186.0503 L664.8655,188.8472 L666.1089,191.6172 L667.4686,194.4386 L668.4492,197.0925 L668.6209,197.3364 L670.4043,198.5935 L672.0769,199.6934 L673.9116,201.0234 L675.7539,202.3643 L677.3555,203.3633 L677.3555,202.7222 L679.3555,203.9664 L681.3555,203.0997 L683.3555,203.8378 L685.3555,202.9233 L687.3555,203.3633" fill="none" style="stroke:#FF6F00;stroke-width:1;"/><a href="/use-case/legal-entity-management/ownership-and-capital-structure/corporate-actions/dividends/" target="_top" title="/use-case/legal-entity-management/ownership-and-capital-structure/corporate-actions/dividends/" xlink:actuate="onRequest" xlink:href="/use-case/legal-entity-management/ownership-and-capital-structure/corporate-actions/dividends/" xlink:show="new" xlink:title="/use-case/legal-entity-management/ownership-and-capital-structure/corporate-actions/dividends/" xlink:type="simple"><text fill="#4051B5" font-family="'Roboto'" font-size="13" lengthAdjust="spacing" textLength="64.4414" x="694.3555" y="232.9966">Dividends</text></a><path d="M637.3555,163.2305 L637.3555,163.4173 L639.3555,162.8622 L641.3555,163.4023 L643.3555,163.5857 L645.3555,162.5963 L647.3555,163.2305 L647.3555,163.2305 L647.3295,163.2077 L648.9939,165.1453 L650.7896,167.1975 L652.6764,169.3292 L654.249,171.1865 L656.2617,173.4282 L656.4969,173.5007 L656.6386,175.4362 L657.4668,177.5834 L658.3788,179.7564 L658.8034,181.7791 L659.4844,183.8809 L659.5139,183.888 L660.0448,186.2741 L660.71,188.6924 L661.3104,191.0951 L662.0344,193.5275 L662.3555,195.8633 L662.6455,195.9328 L663.2233,198.3301 L663.614,200.6826 L664.2785,203.1007 L664.9559,205.5219 L665.2266,207.8456 L664.9203,207.7512 L666.1593,210.025 L666.3897,211.9879 L667.3869,214.1872 L667.5944,216.143 L668.4492,218.2983 L668.4263,218.2783 L670.4787,220.5547 L671.9954,222.3632 L673.8282,224.4478 L675.6876,226.5555 L677.3555,228.4961 L677.3555,228.8661 L679.3555,228.4926 L681.3555,228.7514 L683.3555,227.9873 L685.3555,228.7489 L687.3555,228.4961" fill="none" style="stroke:#FF6F00;stroke-width:1;"/><path d="M455.3882,125.5313 L455.3882,125.7181 L457.3882,125.163 L459.3882,125.7031 L461.3882,125.8865 L463.3882,124.8971 L465.3882,125.5313 L465.3882,125.5313 L465.3691,125.5024 L467.0649,126.5512 L468.8567,127.7453 L470.7152,129.0403 L472.3437,129.9874 L474.2944,131.4218 L474.5171,131.5265 L475.2597,133.8944 L476.6524,136.568 L478.1244,139.2789 L479.1349,141.7728 L480.3882,144.3809 L480.4156,144.3938 L481.5941,146.9666 L482.8975,149.5983 L484.1406,152.2015 L485.4987,154.8589 L486.4819,157.34 L486.6465,157.5887 L488.4297,158.7699 L490.1069,159.7906 L491.9393,161.0461 L493.7791,162.3127 L495.3882,163.2305 L495.3882,162.5894 L497.3882,163.8336 L499.3882,162.9669 L501.3882,163.705 L503.3882,162.7904 L505.3882,163.2305" fill="none" style="stroke:#FF6F00;stroke-width:1;"/><path d="M192.0566,136.8809 L192.0566,137.0677 L194.0566,136.5126 L196.0566,137.0527 L198.0566,137.2361 L200.0566,136.2467 L202.0566,136.8809 L202.0566,136.8809 L202.0444,136.8486 L204.9896,135.5686 L207.9963,134.4515 L211.0459,133.4476 L213.9479,132.0536 L217.0566,131.2061 L217.1437,131.4362 L219.9575,129.8091 L223.0255,128.8539 L226.1246,127.9807 L229.0432,126.6306 L232.0566,125.5313 L232.0566,125.5919 L234.0566,125.5029 L236.0566,125.6899 L238.0566,125.7438 L240.0566,126.0519 L242.0566,125.5313" fill="none" style="stroke:#FF6F00;stroke-width:1;"/><a href="/use-case/legal-entity-management/financial-information/" target="_top" title="/use-case/legal-entity-management/financial-information/" xlink:actuate="onRequest" xlink:href="/use-case/legal-entity-management/financial-information/" xlink:show="new" xlink:title="/use-case/legal-entity-management/financial-information/" xlink:type="simple"><text fill="#4051B5" font-family="'Roboto'" font-size="13" lengthAdjust="spacing" textLength="137.4839" x="249.0566" y="155.1646">Financial Information</text></a><path d="M192.0566,136.8809 L192.0566,137.0677 L194.0566,136.5126 L196.0566,137.0527 L198.0566,137.2361 L200.0566,136.2467 L202.0566,136.8809 L202.0566,136.8809 L202.0422,136.8495 L204.9775,138.0869 L207.9855,139.4826 L211.044,140.9883 L213.9284,142.1149 L217.0566,143.7725 L217.1594,143.9961 L219.9397,144.8962 L223.0199,146.4492 L226.1368,148.0819 L229.0407,149.2511 L232.0566,150.6641 L232.0566,150.7247 L234.0566,150.6357 L236.0566,150.8228 L238.0566,150.8766 L240.0566,151.1847 L242.0566,150.6641" fill="none" style="stroke:#FF6F00;stroke-width:1;"/><a href="/use-case/legal-entity-management/lifecycle-and-status/" target="_top" title="/use-case/legal-entity-management/lifecycle-and-status/" xlink:actuate="onRequest" xlink:href="/use-case/legal-entity-management/lifecycle-and-status/" xlink:show="new" xlink:title="/use-case/legal-entity-management/lifecycle-and-status/" xlink:type="simple"><text fill="#4051B5" font-family="'Roboto'" font-size="13" lengthAdjust="spacing" textLength="116.854" x="249.0566" y="180.2974">Lifecycle &amp; Status</text></a><path d="M192.0566,136.8809 L192.0566,137.0677 L194.0566,136.5126 L196.0566,137.0527 L198.0566,137.2361 L200.0566,136.2467 L202.0566,136.8809 L202.0566,136.8809 L202.0372,136.8523 L203.731,137.9404 L205.523,139.1723 L207.3833,140.5042 L209.0084,141.4916 L210.9629,142.9615 L211.1868,143.0635 L211.9267,145.5208 L213.3204,148.276 L214.7938,151.0675 L215.8032,153.6476 L217.0566,156.3389 L217.0842,156.3514 L218.2625,159.0085 L219.5663,161.7227 L220.8096,164.4094 L222.1685,167.1487 L223.1504,169.7162 L223.3186,169.9626 L225.1019,171.1817 L226.7767,172.242 L228.6103,173.5348 L230.4514,174.8385 L232.0566,175.7969 L232.0566,175.1558 L234.0566,176.4 L236.0566,175.5333 L238.0566,176.2714 L240.0566,175.3569 L242.0566,175.7969" fill="none" style="stroke:#FF6F00;stroke-width:1;"/><a href="/use-case/legal-entity-management/contact-and-location-information/" target="_top" title="/use-case/legal-entity-management/contact-and-location-information/" xlink:actuate="onRequest" xlink:href="/use-case/legal-entity-management/contact-and-location-information/" xlink:show="new" xlink:title="/use-case/legal-entity-management/contact-and-location-information/" xlink:type="simple"><text fill="#4051B5" font-family="'Roboto'" font-size="13" lengthAdjust="spacing" textLength="203.8042" x="249.0566" y="205.4302">Contact &amp; Location Information</text></a><path d="M192.0566,136.8809 L192.0566,137.0677 L194.0566,136.5126 L196.0566,137.0527 L198.0566,137.2361 L200.0566,136.2467 L202.0566,136.8809 L202.0566,136.8809 L202.0308,136.8579 L203.6963,138.7564 L205.4918,140.7706 L207.3778,142.8653 L208.9521,144.6827 L210.9629,146.8885 L211.1976,146.9622 L211.3402,148.8561 L212.1681,150.9653 L213.0796,153.1007 L213.5046,155.0833 L214.1855,157.1463 L214.215,157.1535 L214.746,159.4947 L215.4111,161.8687 L216.0115,164.2269 L216.7353,166.6152 L217.0566,168.9053 L217.3464,168.976 L217.9241,171.3287 L218.315,173.6357 L218.9795,176.0095 L219.6567,178.3865 L219.9277,180.6642 L219.6219,180.5682 L220.86,182.8062 L221.0911,184.7279 L222.0877,186.89 L222.296,188.8046 L223.1504,190.9221 L223.1276,190.9018 L225.1779,193.1427 L226.6967,194.9107 L228.5291,196.9577 L230.3878,199.0282 L232.0566,200.9297 L232.0566,201.2997 L234.0566,200.9262 L236.0566,201.185 L238.0566,200.4209 L240.0566,201.1825 L242.0566,200.9297" fill="none" style="stroke:#FF6F00;stroke-width:1;"/><a href="/use-case/legal-entity-management/compliance-and-documentation/" target="_top" title="/use-case/legal-entity-management/compliance-and-documentation/" xlink:actuate="onRequest" xlink:href="/use-case/legal-entity-management/compliance-and-documentation/" xlink:show="new" xlink:title="/use-case/legal-entity-management/compliance-and-documentation/" xlink:type="simple"><text fill="#4051B5" font-family="'Roboto'" font-size="13" lengthAdjust="spacing" textLength="195.1396" x="249.0566" y="230.563">Compliance &amp; Documentation</text></a><path d="M192.0566,136.8809 L192.0566,137.0677 L194.0566,136.5126 L196.0566,137.0527 L198.0566,137.2361 L200.0566,136.2467 L202.0566,136.8809 L202.0566,136.8809 L202.0275,136.8623 L203.6782,139.5657 L205.4755,142.3629 L207.3749,145.2253 L208.9227,147.8631 L210.9629,150.8155 L211.2029,150.8696 L211.3342,153.6104 L212.1662,156.5093 L213.0838,159.4275 L213.5038,162.2335 L214.1855,165.0985 L214.2154,165.1037 L214.7458,168.3707 L215.4121,171.6615 L216.0129,174.9408 L216.7388,178.242 L217.0566,181.4717 L217.3504,181.5232 L217.9282,184.7985 L218.3165,188.0405 L218.9822,191.3312 L219.6609,194.6241 L219.9277,197.8449 L219.6151,197.7743 L220.8664,200.7678 L221.0882,203.5291 L222.0928,206.4669 L222.2912,209.2228 L223.1504,212.1279 L223.1247,212.1115 L225.2094,215.0923 L226.6946,217.6901 L228.5336,220.5139 L230.4022,223.3566 L232.0566,226.0625 L232.0566,226.4325 L234.0566,226.059 L236.0566,226.3178 L238.0566,225.5537 L240.0566,226.3153 L242.0566,226.0625" fill="none" style="stroke:#FF6F00;stroke-width:1;"/><a href="/use-case/legal-entity-management/supporting-information/" target="_top" title="/use-case/legal-entity-management/supporting-information/" xlink:actuate="onRequest" xlink:href="/use-case/legal-entity-management/supporting-information/" xlink:show="new" xlink:title="/use-case/legal-entity-management/supporting-information/" xlink:type="simple"><text fill="#4051B5" font-family="'Roboto'" font-size="13" lengthAdjust="spacing" textLength="151.106" x="249.0566" y="255.6958">Supporting Information</text></a><path d="M192.0566,136.8809 L192.0566,137.0677 L194.0566,136.5126 L196.0566,137.0527 L198.0566,137.2361 L200.0566,136.2467 L202.0566,136.8809 L202.0566,136.8809 L202.0257,136.8654 L203.6683,140.3686 L205.4666,143.9495 L207.3733,147.5843 L208.9067,151.0331 L210.9629,154.7425 L211.2052,154.7851 L211.3315,158.3556 L212.1654,162.0505 L213.0856,165.7607 L213.5035,169.3824 L214.1855,173.0507 L214.2156,173.0548 L214.7457,177.2462 L215.4126,181.4564 L216.0135,185.6575 L216.7403,189.8759 L217.0566,194.0381 L217.3521,194.0785 L217.93,198.2765 L218.3172,202.4484 L218.9834,206.6585 L219.6627,210.8703 L219.9277,215.0255 L219.6121,214.9699 L220.8693,218.7394 L221.087,222.3259 L222.095,226.0515 L222.2892,229.6339 L223.1504,233.3337 L223.1231,233.3201 L225.2266,237.0531 L226.6935,240.4687 L228.536,244.0715 L230.4101,247.6901 L232.0566,251.1953 L232.0566,251.5653 L234.0566,251.1918 L236.0566,251.4506 L238.0566,250.6865 L240.0566,251.4481 L242.0566,251.1953" fill="none" style="stroke:#FF6F00;stroke-width:1;"/><!--SRC=[xLbjRzis4FwkNy4rmDgYTHstQL4KHL77UMtjEB2J3aDH1BH4sKHaKYMfPDwm_xwZtYLRikL8NGlONnBnJi-zaE8T7twK2WirfyoQOzSmVhE8JHb1XwStW-xvnKrls1-EaF_REzX_tPcyJgkCZtl3YwFkwCzGRuNAPRVtkNjw70CjgGn7HyUZj1sqPzjlxFtzMELaU76LKV1Lz2zMwOv6mp-oEX6A8MyfSx70SpJ1vkrKS8zPFUvmWVQKm4o2Z32LKZjRk4GubDs6Mg77ncD4cUbu5a5gHj2KC2AmW-Bt9B91UyBLx3bow7Ic46OMih2uXJSLH_oEY7j15K7tLCq237f76994ASgcCf-JgxFptkUBu_4OTM1YkAiePsW6e1f5mOisTYH9ENw9BGk0q45gR1I4Ay1Pz3OrFfvXYzzhxJnA7Furi_n_IAYIqZaYDlOSXVunJZXJ5tXEqACHXzZv8tyao5moSVxWcFvDKEV0-3UDr1M2tmFEoZTMmwY50pdYZfL5Sc5syPI4FYszUfYR_CmADmwvW613IMf9Wed40kDM5VZCqj_CWiddBcUm7C7CbWwlz2x8cJTtNcPpPc659rYIcirbR9WEzwn63N378QR-EcJjPX8hFL0Gt6dGmg66n6BHe8bZfgXgqW1bYWWRcwH16sFotIFC99TGkAX9NSnK07Ore-Oj8rB2Xfceor0TF4g_KUhS4lGAFrCwoRR4k9XZ9ozR2gTFRTA7dRKGF5OeTTFVF9V0_T52P5-wqYbVakJmbT4r5HThFF1L2crfQT47_1Zr3f3E6XGXUDXR-qj_ym8-UCoc3dd_7ggLvEp31vZVCIm-mXKKiCBgKLTToA-uVCtERb4fTybVu2J3patzVkVQiGQSbmkfoFpNotNzVZUKwwWW_ngfJhpzzJATMYQJiF06NkSQusmKVW-xlxxRsohsyi220cDXEIFM9h6k3DK4mnZgYjWqLkZNovTI0v6MJs7bOqXqW4jYUXNKdo6So0I5djuASVG1BZmA-ys-H2qqzwJIVJb1s8PG8vkvOq7AMdWqBJpZfCwgHKwcMuaa6RdU7GxkQdsRjRhIAoNen5Eak0zOzhNa09Ffzh6KstbLPk0n6eJp8brYKfkQ4B_VEi0KtS_qgLh17WJzfzGJwa_USpHnF09pnnZHZOX4t5DQl7oagzdR11zdUoeuo1lFRj3NhwZjIT8oOUziEsIAdHRnE_FM73CumyxXgOtwMX2rx8DOWBvzCvvj2WBHmXYa2-lpKGipgoN8b4eb_84sEiyeeD_HA2MkPChamkNm7cbDDTN1CFJSRJWsXQFeD1wj1CllORUIC-hwpflOfGhqm4FFL9u02yD80Ppl1M9eAqDnOAekMx4yRRLM2sPmocp7nyrQqUKC2oBRclo1lv2lXgBmxKJZeRbuRcgrHANqY9MOElUVcx6LB70Si0tfrTqD2OZ0OdCcvqHCYV3LiVdTevBw7_OClbak5cqqyEKmjTr4Yiu2QUFEIPUo5hTjlSIYVoEZJTaCw5lfwqjl0lixnOBgLNuPI7mQTfoID9y6nStRbdGTgdGcz1FaGpyrRjgYTthBjy3kKVHlfUtMfdgBfY2ZpDOTI50cJg9XT9uCLm9sg4tCXUcGOAQWUV70oNuq2Yjsx8zLh3dGpfhAXtHuMEGoZlS23O3lX_Aj8z3ah4Dr0VFjMTpqz7XiA9A2hQEqh98HwRamfVe-81l7E1xF-_yHvZY-l_cOlSwfx_BZ9xvcY3hk3UyOqkeh02hSBaJlvRl7A6df5Z6wZYgzJtWeODdrGHd6iWTRN1XKCx3H5S5384il1Qe2Rt8Di3rc2V6_FMWXrRyzP1cvlprg8tH-v4u1aHzvLfd3Zm9OHU17e4NSVUHJwdmTmIrHzX5MZgtFwA-bwcE3UP8-Hi_oywaFQIkglNXdhR9QbYV_eLJwZ_Ph3GVwlwNfP_1hOuBx1tlpKoMfLcuwygDYD8LUb_BGdIQ9vxeZoUM_Bc9vQsPuHRsiZHLE8-LgoJ8Pd2apgpANRq4t882B7LWBMK3IFW1nHylkQDaTBRkZPNUqx8wMtT6oErgsQLhsqi5CNG_w26gjr0gT5o_tNxv-qUbCYCAT_IVNx9R1il8PF0ffLtHEdXfFJY_xI79FWFUMBl-wJuFNdngVy1r68uzflNTew1BswUXpD03DoHqLd6dFZKzV1ed2cuFM8LLeJ0GuWhuCZAZHFMOcrwJkEtHzTT9wQ_IXRVSW-7U8CEXE0LSiG3R-3m00]--></g></svg>