<svg xmlns="http://www.w3.org/2000/svg" xmlns:xlink="http://www.w3.org/1999/xlink" contentStyleType="text/css" data-diagram-type="MINDMAP" height="303px" preserveAspectRatio="none" style="width:508px;height:303px;" version="1.1" viewBox="0 0 508 303" width="508px" zoomAndPan="magnify"><defs/><g><a href="/use-case/client-360/know-your-customer/" target="_top" title="/use-case/client-360/know-your-customer/" xlink:actuate="onRequest" xlink:href="/use-case/client-360/know-your-customer/" xlink:show="new" xlink:title="/use-case/client-360/know-your-customer/" xlink:type="simple"><text fill="#4051B5" font-family="'Roboto'" font-size="13" lengthAdjust="spacing" textLength="176.0586" x="17" y="155.1646">Know Your Customer (KYC)</text></a><a href="/use-case/client-360/know-your-customer/anti-money-laundering/" target="_top" title="/use-case/client-360/know-your-customer/anti-money-laundering/" xlink:actuate="onRequest" xlink:href="/use-case/client-360/know-your-customer/anti-money-laundering/" xlink:show="new" xlink:title="/use-case/client-360/know-your-customer/anti-money-laundering/" xlink:type="simple"><text fill="#4051B5" font-family="'Roboto'" font-size="13" lengthAdjust="spacing" textLength="192.2197" x="258.1909" y="27.0669">Anti Money Laundering (AML)</text></a><path d="M201.1909,150.6641 L201.1909,150.8509 L203.1909,150.2958 L205.1909,150.8359 L207.1909,151.0193 L209.1909,150.0299 L211.1909,150.6641 L211.1909,150.6641 L211.1653,150.6409 L212.0465,149.436 L213.0567,148.348 L214.1567,147.3412 L214.9474,146.0545 L216.1714,145.1599 L216.4089,145.2241 L216.6861,142.1845 L217.6569,139.3325 L218.7122,136.5034 L219.2752,133.5411 L220.0972,130.6488 L220.1271,130.654 L220.4186,128.7074 L220.8462,126.7844 L221.2082,124.85 L221.6955,122.9373 L221.7744,120.9539 L222.0697,120.9961 L222.3824,118.8324 L222.5046,116.6416 L222.9056,114.4906 L223.3197,112.3414 L223.3198,110.1332 L223.0017,110.0943 L224.1934,105.4661 L224.3375,100.71 L225.278,96.0512 L225.3983,91.2922 L226.1909,86.6152 L226.1607,86.6115 L227.0923,81.9516 L227.3179,77.2054 L227.96,72.5101 L228.6372,67.8191 L229.062,63.0973 L229.2451,63.1235 L229.3694,60.9329 L229.8065,58.7871 L229.7374,56.5689 L230.4235,54.4586 L230.6074,52.2766 L230.8475,52.3181 L231.1375,50.3713 L231.5468,48.445 L231.4022,46.423 L231.6636,44.4712 L232.2847,42.5817 L232.0181,42.5095 L233.0446,39.6726 L233.7707,36.7544 L234.9325,33.9541 L235.3504,30.9525 L236.2104,28.0706 L236.0974,27.9683 L237.2818,27.0378 L237.9829,25.6701 L239.0276,24.6133 L240.4087,23.8608 L241.1909,22.5664 L241.1909,22.9537 L243.1909,23.2193 L245.1909,22.2804 L247.1909,22.8501 L249.1909,23.0912 L251.1909,22.5664" fill="none" style="stroke:#FF6F00;stroke-width:1;"/><a href="/use-case/client-360/know-your-customer/identification-verification/" target="_top" title="/use-case/client-360/know-your-customer/identification-verification/" xlink:actuate="onRequest" xlink:href="/use-case/client-360/know-your-customer/identification-verification/" xlink:show="new" xlink:title="/use-case/client-360/know-your-customer/identification-verification/" xlink:type="simple"><text fill="#4051B5" font-family="'Roboto'" font-size="13" lengthAdjust="spacing" textLength="163.4204" x="258.1909" y="52.1997">Identification Verification</text></a><path d="M201.1909,150.6641 L201.1909,150.8509 L203.1909,150.2958 L205.1909,150.8359 L207.1909,151.0193 L209.1909,150.0299 L211.1909,150.6641 L211.1909,150.6641 L211.1607,150.6473 L212.8063,147.3546 L214.6043,144.1462 L216.5082,140.9964 L218.0471,137.6446 L220.0972,134.5758 L220.3387,134.623 L220.4668,131.224 L221.3,127.9628 L222.2192,124.7183 L222.6379,121.3761 L223.3198,118.0853 L223.3498,118.0899 L223.88,114.3025 L224.5467,110.5358 L225.1476,106.7591 L225.8741,103.0015 L226.1909,99.1816 L226.4858,99.2264 L227.0636,95.4462 L227.4512,91.6372 L228.1173,87.8704 L228.7964,84.1055 L229.062,80.2779 L228.7474,80.2165 L230.0025,77.0377 L230.2217,73.6565 L231.2285,70.4292 L231.4242,67.0434 L232.2847,63.7875 L232.258,63.7727 L234.3543,60.7295 L235.8282,57.3417 L237.6694,54.1572 L239.5413,50.9898 L241.1909,47.6992 L241.1909,48.0692 L243.1909,47.6957 L245.1909,47.9545 L247.1909,47.1904 L249.1909,47.952 L251.1909,47.6992" fill="none" style="stroke:#FF6F00;stroke-width:1;"/><polygon fill="#4051B5" points="255.1909,70.2656,255.1909,70.4758,265.0722,69.8513,274.9535,70.4589,284.8348,70.6653,294.7161,69.5522,304.5975,70.1879,314.4788,69.8391,324.3601,69.8821,334.2414,70.1975,344.1227,69.5743,354.004,70.8193,363.8853,69.6353,373.7666,70.0679,383.6479,70.6976,393.5292,70.1798,403.4105,70.3339,413.2918,70.2337,423.1731,70.4442,433.0544,70.5048,442.9358,70.8513,452.8171,70.9367,462.6984,70.9449,472.5797,70.5203,482.461,70.7292,492.3423,70.2656,492.4319,70.4819,492.816,70.2778,493.5602,70.9432,494.0015,70.8773,494.6731,71.3673,495.1707,71.4372,495.0183,71.3741,495.3839,71.9941,495.8677,72.6632,495.8586,73.128,496.1404,73.7134,496.3423,74.2656,496.4552,74.2656,496.481,79.6922,496.341,85.1188,496.438,90.5453,496.1515,95.9719,496.3423,101.3984,496.4299,101.4347,496.2768,102.0341,496.0106,102.5865,495.8281,103.1737,495.2563,103.5996,495.1707,104.2269,495.0875,104.026,494.5258,104.2698,494.0318,104.6774,493.4486,104.8693,492.9949,105.374,492.3423,105.3984,492.3423,105.2238,482.461,105.0554,472.5797,105.6267,462.6984,104.7316,452.8171,104.8793,442.9358,106.0474,433.0544,105.8341,423.1731,106.1329,413.2918,105.0766,403.4105,105.7176,393.5292,105.9889,383.6479,104.926,373.7666,105.3026,363.8853,105.5244,354.004,106.0502,344.1227,105.3942,334.2414,105.861,324.3601,104.8447,314.4788,104.7212,304.5975,105.9021,294.7161,104.6815,284.8348,105.9074,274.9535,105.6051,265.0722,105.1305,255.1909,105.3984,255.1458,105.2895,254.6838,105.3054,254.0214,104.8376,253.5694,104.8778,252.8577,104.291,252.3625,104.2269,252.5526,104.3056,252.2773,103.723,251.9693,103.1267,251.6741,102.5358,251.649,102.0568,251.1909,101.3984,251.3954,101.3984,251.2473,95.9719,251.2803,90.5453,251.1475,85.1188,251.4297,79.6922,251.1909,74.2656,251.2386,74.2854,251.4784,73.722,251.4722,73.0567,251.7691,72.5169,252.2916,72.0706,252.3625,71.4372,252.4173,71.5695,252.9227,71.1897,253.4528,70.8694,254.0316,70.6668,254.5377,70.2886,255.1909,70.2656" style="stroke:#FF6F00;stroke-width:1.5;"/><a href="/use-case/client-360/know-your-customer/peps/" target="_top" title="/use-case/client-360/know-your-customer/peps/" xlink:actuate="onRequest" xlink:href="/use-case/client-360/know-your-customer/peps/" xlink:show="new" xlink:title="/use-case/client-360/know-your-customer/peps/" xlink:type="simple"><text fill="#4051B5" font-family="'Roboto'" font-size="13" lengthAdjust="spacing" textLength="221.019" x="261.1909" y="92.3325">Politically Exposed Persons (PEPs)</text></a><path d="M201.1909,150.6641 L201.1909,150.8509 L203.1909,150.2958 L205.1909,150.8359 L207.1909,151.0193 L209.1909,150.0299 L211.1909,150.6641 L211.1909,150.6641 L211.1653,150.6409 L212.8318,148.5732 L214.6272,146.6225 L216.5122,144.7532 L218.0883,142.6036 L220.0972,140.8466 L220.3315,140.9216 L220.4749,138.7485 L221.3025,136.7946 L222.2136,134.8673 L222.639,132.7846 L223.3198,130.7836 L223.3493,130.7909 L223.8803,128.4731 L224.5453,126.1886 L225.1456,123.8879 L225.8693,121.618 L226.1909,119.248 L226.4803,119.3201 L227.0581,117.0138 L227.4492,114.6612 L228.1135,112.3765 L228.7907,110.095 L229.062,107.7125 L228.7568,107.6147 L229.9937,105.7919 L230.2256,103.6471 L231.2216,101.7471 L231.4306,99.595 L232.2847,97.6495 L232.2621,97.6291 L234.31,95.9075 L235.8311,93.708 L237.6631,91.7905 L239.5211,89.8967 L241.1909,87.832 L241.1909,88.202 L243.1909,87.8286 L245.1909,88.0873 L247.1909,87.3232 L249.1909,88.0848 L251.1909,87.832" fill="none" style="stroke:#FF6F00;stroke-width:1;"/><a href="/use-case/client-360/know-your-customer/crime-records/" target="_top" title="/use-case/client-360/know-your-customer/crime-records/" xlink:actuate="onRequest" xlink:href="/use-case/client-360/know-your-customer/crime-records/" xlink:show="new" xlink:title="/use-case/client-360/know-your-customer/crime-records/" xlink:type="simple"><text fill="#4051B5" font-family="'Roboto'" font-size="13" lengthAdjust="spacing" textLength="95.3291" x="258.1909" y="132.4653">Crime Records</text></a><path d="M201.1909,150.6641 L201.1909,150.8509 L203.1909,150.2958 L205.1909,150.8359 L207.1909,151.0193 L209.1909,150.0299 L211.1909,150.6641 L211.1909,150.6641 L211.1701,150.6365 L214.0765,148.243 L217.0881,145.9883 L220.1726,143.8301 L223.0055,141.3393 L226.1909,139.3145 L226.3394,139.5107 L229.0219,136.8211 L232.1379,134.7045 L235.3068,132.6578 L238.1679,130.2044 L241.1909,127.9648 L241.1909,128.0255 L243.1909,127.9364 L245.1909,128.1235 L247.1909,128.1774 L249.1909,128.4855 L251.1909,127.9648" fill="none" style="stroke:#FF6F00;stroke-width:1;"/><a href="/use-case/client-360/know-your-customer/sanctions/" target="_top" title="/use-case/client-360/know-your-customer/sanctions/" xlink:actuate="onRequest" xlink:href="/use-case/client-360/know-your-customer/sanctions/" xlink:show="new" xlink:title="/use-case/client-360/know-your-customer/sanctions/" xlink:type="simple"><text fill="#4051B5" font-family="'Roboto'" font-size="13" lengthAdjust="spacing" textLength="63.2798" x="258.1909" y="157.5981">Sanctions</text></a><path d="M201.1909,150.6641 L201.1909,150.8509 L203.1909,150.2958 L205.1909,150.8359 L207.1909,151.0193 L209.1909,150.0299 L211.1909,150.6641 L211.1909,150.6641 L211.1881,150.6296 L214.1756,150.7185 L217.1771,150.9809 L220.1885,151.3639 L223.1661,151.3312 L226.1909,151.8809 L226.2108,152.1261 L229.1683,151.845 L232.1838,152.28 L235.2064,152.8023 L238.1878,152.8163 L241.1909,153.0977 L241.1909,153.1583 L243.1909,153.0693 L245.1909,153.2563 L247.1909,153.3102 L249.1909,153.6183 L251.1909,153.0977" fill="none" style="stroke:#FF6F00;stroke-width:1;"/><a href="/use-case/client-360/know-your-customer/risk-management/" target="_top" title="/use-case/client-360/know-your-customer/risk-management/" xlink:actuate="onRequest" xlink:href="/use-case/client-360/know-your-customer/risk-management/" xlink:show="new" xlink:title="/use-case/client-360/know-your-customer/risk-management/" xlink:type="simple"><text fill="#4051B5" font-family="'Roboto'" font-size="13" lengthAdjust="spacing" textLength="116.7144" x="258.1909" y="182.731">Risk Management</text></a><path d="M201.1909,150.6641 L201.1909,150.8509 L203.1909,150.2958 L205.1909,150.8359 L207.1909,151.0193 L209.1909,150.0299 L211.1909,150.6641 L211.1909,150.6641 L211.1759,150.633 L212.8896,151.3549 L214.6792,152.2335 L216.5215,153.2211 L218.1821,153.8332 L220.0972,154.9713 L220.3041,155.1044 L221.0803,156.715 L222.4607,158.7142 L223.9149,160.7607 L224.9401,162.5315 L226.1909,164.4473 L226.2164,164.4637 L227.3977,166.3348 L228.6952,168.2806 L229.9366,170.1903 L231.2849,172.1688 L232.2847,173.9232 L232.4145,174.1917 L234.1974,175.0564 L235.8964,175.748 L237.7181,176.6931 L239.5456,177.65 L241.1909,178.2305 L241.1909,177.5894 L243.1909,178.8336 L245.1909,177.9669 L247.1909,178.705 L249.1909,177.7904 L251.1909,178.2305" fill="none" style="stroke:#FF6F00;stroke-width:1;"/><a href="/use-case/client-360/know-your-customer/high-net-worth-individuals/" target="_top" title="/use-case/client-360/know-your-customer/high-net-worth-individuals/" xlink:actuate="onRequest" xlink:href="/use-case/client-360/know-your-customer/high-net-worth-individuals/" xlink:show="new" xlink:title="/use-case/client-360/know-your-customer/high-net-worth-individuals/" xlink:type="simple"><text fill="#4051B5" font-family="'Roboto'" font-size="13" lengthAdjust="spacing" textLength="225.1323" x="258.1909" y="207.8638">High Net Worth Individuals (HNWI)</text></a><path d="M201.1909,150.6641 L201.1909,150.8509 L203.1909,150.2958 L205.1909,150.8359 L207.1909,151.0193 L209.1909,150.0299 L211.1909,150.6641 L211.1909,150.6641 L211.1675,150.6387 L212.8435,152.1717 L214.6377,153.8326 L216.5141,155.5824 L218.1073,157.0258 L220.0972,158.8983 L220.3304,158.9768 L221.0504,162.4321 L222.4514,166.1164 L223.9354,169.8287 L224.936,173.3784 L226.1909,177.0137 L226.2197,177.0233 L227.3962,180.6322 L228.7036,184.2851 L229.9479,187.9168 L231.3126,191.589 L232.2847,195.129 L232.4871,195.348 L234.2709,196.9975 L235.924,198.5058 L237.7683,200.2209 L239.6215,201.9456 L241.1909,203.3633 L241.1909,202.7222 L243.1909,203.9664 L245.1909,203.0997 L247.1909,203.8378 L249.1909,202.9233 L251.1909,203.3633" fill="none" style="stroke:#FF6F00;stroke-width:1;"/><a href="/use-case/client-360/know-your-customer/gdpr/" target="_top" title="/use-case/client-360/know-your-customer/gdpr/" xlink:actuate="onRequest" xlink:href="/use-case/client-360/know-your-customer/gdpr/" xlink:show="new" xlink:title="/use-case/client-360/know-your-customer/gdpr/" xlink:type="simple"><text fill="#4051B5" font-family="'Roboto'" font-size="13" lengthAdjust="spacing" textLength="36.9561" x="258.1909" y="232.9966">GDPR</text></a><path d="M201.1909,150.6641 L201.1909,150.8509 L203.1909,150.2958 L205.1909,150.8359 L207.1909,151.0193 L209.1909,150.0299 L211.1909,150.6641 L211.1909,150.6641 L211.1631,150.6437 L212.8192,152.9843 L214.6159,155.4279 L216.5102,157.9429 L218.068,160.2115 L220.0972,162.8253 L220.3354,162.8869 L220.4705,165.2483 L221.3011,167.7894 L222.2166,170.3525 L222.6384,172.788 L223.3198,175.2906 L223.3496,175.2966 L223.8801,178.1457 L224.5461,181.022 L225.1467,183.8852 L225.8719,186.7735 L226.1909,189.5801 L226.4833,189.6388 L227.0611,192.4974 L227.4503,195.3182 L228.1156,198.1943 L228.7938,201.0731 L229.062,203.8696 L228.7517,203.7893 L229.9985,206.4381 L230.2235,208.8227 L231.2253,211.4081 L231.4271,213.7867 L232.2847,216.3348 L232.2601,216.3169 L234.3318,218.9618 L235.8297,221.1865 L237.6662,223.6592 L239.5311,226.1528 L241.1909,228.4961 L241.1909,228.8661 L243.1909,228.4926 L245.1909,228.7514 L247.1909,227.9873 L249.1909,228.7489 L251.1909,228.4961" fill="none" style="stroke:#FF6F00;stroke-width:1;"/><a href="/use-case/client-360/know-your-customer/activity-monitoring/" target="_top" title="/use-case/client-360/know-your-customer/activity-monitoring/" xlink:actuate="onRequest" xlink:href="/use-case/client-360/know-your-customer/activity-monitoring/" xlink:show="new" xlink:title="/use-case/client-360/know-your-customer/activity-monitoring/" xlink:type="simple"><text fill="#4051B5" font-family="'Roboto'" font-size="13" lengthAdjust="spacing" textLength="122.4971" x="258.1909" y="258.1294">Activity Monitoring</text></a><path d="M201.1909,150.6641 L201.1909,150.8509 L203.1909,150.2958 L205.1909,150.8359 L207.1909,151.0193 L209.1909,150.0299 L211.1909,150.6641 L211.1909,150.6641 L211.1607,150.6473 L212.8063,153.7899 L214.6043,157.0168 L216.5082,160.3023 L218.0471,163.3858 L220.0972,166.7523 L220.3387,166.7995 L220.4668,169.9967 L221.3,173.3316 L222.2192,176.6834 L222.6379,179.9374 L223.3198,183.2428 L223.3498,183.2473 L223.88,187.0214 L224.5467,190.8162 L225.1476,194.601 L225.8741,198.4048 L226.1909,202.1465 L226.4858,202.1913 L227.0636,205.9726 L227.4512,209.725 L228.1173,213.5196 L228.7964,217.3163 L229.062,221.0502 L228.7474,220.9887 L230.0025,224.4061 L230.2217,227.6211 L231.2285,230.99 L231.4242,234.2004 L232.2847,237.5406 L232.258,237.5259 L234.3543,240.9179 L235.8282,243.9655 L237.6694,247.2163 L239.5413,250.4841 L241.1909,253.6289 L241.1909,253.9989 L243.1909,253.6254 L245.1909,253.8842 L247.1909,253.1201 L249.1909,253.8817 L251.1909,253.6289" fill="none" style="stroke:#FF6F00;stroke-width:1;"/><a href="/use-case/client-360/know-your-customer/core-record-management/" target="_top" title="/use-case/client-360/know-your-customer/core-record-management/" xlink:actuate="onRequest" xlink:href="/use-case/client-360/know-your-customer/core-record-management/" xlink:show="new" xlink:title="/use-case/client-360/know-your-customer/core-record-management/" xlink:type="simple"><text fill="#4051B5" font-family="'Roboto'" font-size="13" lengthAdjust="spacing" textLength="170.0029" x="258.1909" y="283.2622">Core Record Management</text></a><path d="M201.1909,150.6641 L201.1909,150.8509 L203.1909,150.2958 L205.1909,150.8359 L207.1909,151.0193 L209.1909,150.0299 L211.1909,150.6641 L211.1909,150.6641 L211.1653,150.6409 L212.0465,151.6377 L213.0567,152.7514 L214.1567,153.9463 L214.9474,154.8613 L216.1714,156.1683 L216.4089,156.2325 L216.6861,158.9973 L217.6569,161.9497 L218.7122,164.925 L219.2752,167.7672 L220.0972,170.6793 L220.1271,170.6845 L220.4186,172.6159 L220.8462,174.5708 L221.2082,176.5144 L221.6955,178.4796 L221.7744,180.3742 L222.0697,180.4164 L222.3824,182.581 L222.5046,184.7185 L222.9056,186.8958 L223.3197,189.0749 L223.3198,191.195 L223.0017,191.1561 L224.1934,195.9351 L224.3375,200.5862 L225.278,205.3345 L225.3983,209.9826 L226.1909,214.7129 L226.1607,214.7092 L227.0923,219.4564 L227.3179,224.1174 L227.96,228.8293 L228.6372,233.5455 L229.062,238.2308 L229.2451,238.257 L229.3694,240.3947 L229.8065,242.5772 L229.7374,244.6873 L230.4235,246.9053 L230.6074,249.0516 L230.8475,249.0931 L231.1375,251.0242 L231.5468,252.976 L231.4022,254.8319 L231.6636,256.7581 L232.2847,258.7465 L232.0181,258.6743 L233.0446,261.6418 L233.7707,264.5281 L234.9325,267.5322 L235.3504,270.335 L236.2104,273.2575 L236.0974,273.1552 L237.2818,274.4264 L237.9829,275.2604 L239.0276,276.4052 L240.4087,277.8544 L241.1909,278.7617 L241.1909,279.149 L243.1909,279.4146 L245.1909,278.4757 L247.1909,279.0454 L249.1909,279.2865 L251.1909,278.7617" fill="none" style="stroke:#FF6F00;stroke-width:1;"/><!--SRC=[xLXjRzf84FxkNp7NV6YgrWNIjAgggYeXD4d3co1fLLLLjDWBh32xljrrA7Uw_tvZOuDji047UksfVCAxusTUThmpyxnNcaWzOToU4DSm_h3fW74APnTtpUfLwwxMRhIx4FoEJiilA_sNSP5UlTPkdLUxNqAvDIATQkswUb5V0As8jBldzMvS3nmD1gy6vV92v4ExTPCG24JytqAaskssFoTb8XH3ZHbtYIGJw1DhF9J2utPDE4B2aPQ4AzoZNCV4BcSkbGxZur0gjDXu38nRZcTJq2CAGygf90uitbCmGEc-qADduB3XI0FXDjX4Zl5DBK3SKpcLJ5EOCZsQOx1xoa5HhHaVgdHCRYwlQjUjUgy75JmOuMecE8mGr4VH-EA0E8h63EyGsqOWE8sjTUVkIZGMNiVMUoDYYwaldKPPk7_BxU0F3KLYCkTqG3n7mz_61y5rYqmeFEeAz5qy2bRcaLiUNB3OOtzHg9mQ_yIHgbAAAUAiVMCzZ9uv62FXs4aa5q-N36beqyghPwd3JsIuSIOaEXlkn58ILImrS67l0fz8_UqqM6BY2exfY6eA6hpMkddCl8bpaeoPJJJf4qNth2wXmtA4PnzKWN0SQlbVXzgxcgMM6Wf8uHnGmvaFIUJiW2hgN3DzI0MCQoe7nA87rD6ZVtgKMxI3XOjPp2LSpy5kHimQSweKNfXBSHMAeqNnDtADMu5UOsTCPdajSI4dn4dlhRZJO0FQm9ir4tmXa6jcS7ckW0UhcSZ1xbgZWfrb35yOLKiBkS62G2HJbx-RzG4_Xjef-5738eGFHnj_yMzUuWTF-D2XRzzYjLA2ltk7vzl3vAD2Om7Bh1xxgWlfZ4lNxEGL5JENVaSZEN7kzcztgXqxWF5gfZIT_7gnth_T1ufrL91_ZL0lhVtr8XrBatvOUETMfnhZf1T13rlUtEqLyZtViNc1iOaQKNiRNzUwQg5YWdL5RkihzklvgNG0J_EFSESn91hWbZwzcDUVDavaac5FRuSu_W0NZi91iw_0X8cdjD-NKo03T3NIcHeBOjh2qJHpnedDgbb6nbk9PJ1IlJiExdfpcxM-qcijMT_JDBiFMBKrPu19TFj4gM9MvIbu3CtmN9HBBJPW5leVj0vuHDEHFrLhl8Em_rJ-WGQ7zmpwZaVnx3YdVYEYG7ZQtruTwVPixHAV97ig7EIDftVmzIkKF4LD2-_EakKm7FZC5w_AfJ4NKtCcF6bQc7MOSx84rxW6Nt0DQk4Q75z_gJs1Rz-CfxjXOJVAp0dEbpFJ8Pu_tMFyIb35PMZwoz1OBCDnjTaeeWJZYtXuGCIVo4pyn1OF9RXARCAdsEPSrIwQNEgg4dI4mx3N9eupW_ftLoXgGoTehHGST-eTLSG9Ix89DV7Un4D67JN_4Rhpnm9mYl3vV5g2NlIt08naQcnE22T3Ea6n4dHn0PgBXGAG8pOScPngSoga7fduZR5xPdjO3KfmYNlGeXe- -tjmjTo3uylMvwiYWHtQBkRqnNcdMoH_CNBtEB_wESpmWvvdRxZePt2uMEJ0XOpEEn7X6gw71vyAz7kAzr54cxvFigZxunn_OdOlAdHRKdjnyJK0Ev1wqNlfIpiAMlncZbZWN1hleO1vh5qUnge51NYwtHHinSmz13ANYziLU1lshJXc3jzM73IJOIiEcSUf5KSz28iMcPF1dqMMxKoTHGwiuyqYq2pABB8frjP6S2jCMOIL8iaIyXiPieN2D3UsG4_IOh4FgH33bNspxf8jguV_K0RhHzkrWNhupyBqCzYrDQ_qWwtvgOAqLqeeicD7RpAjpgL_AeVaU_RjIIh- - -9p2XCoQ-hbtiYOE5AgbgnoC8aoiovowHPq2zubsu2Da1dSo0CGVxCXlzcGtsp8_vuDwJZuRTqs6u3fhlnahZm_AP-yV5wfzAacbVBnBVULyc1mPdYxQaoe9yRnHQS12Wt1ASDcQduzukjFZ8_ada3NuxxS6sYxb7yyluuMSEIwPr9mtnJZuwVcKk3LgNd6D4uw4Ws1JqqZgYzrRWcVIta3jpSVpDT60wkbXzwy0SgnA22kdE5Uxry0]--></g></svg>