<svg xmlns="http://www.w3.org/2000/svg" xmlns:xlink="http://www.w3.org/1999/xlink" contentStyleType="text/css" data-diagram-type="MINDMAP" height="314px" preserveAspectRatio="none" style="width:539px;height:314px;background:#2E303E;" version="1.1" viewBox="0 0 539 314" width="539px" zoomAndPan="magnify"><defs/><g><rect fill="#2E303E" height="314" style="stroke:none;stroke-width:1;" width="539" x="0" y="0"/><a href="/use-case/client-360/know-your-customer/" target="_top" title="/use-case/client-360/know-your-customer/" xlink:actuate="onRequest" xlink:href="/use-case/client-360/know-your-customer/" xlink:show="new" xlink:title="/use-case/client-360/know-your-customer/" xlink:type="simple"><text fill="#90EE90" font-family="'Roboto'" font-size="14" lengthAdjust="spacing" textLength="189.6016" x="17" y="161.3311">Know Your Customer (KYC)</text></a><a href="/use-case/client-360/know-your-customer/anti-money-laundering/" target="_top" title="/use-case/client-360/know-your-customer/anti-money-laundering/" xlink:actuate="onRequest" xlink:href="/use-case/client-360/know-your-customer/anti-money-laundering/" xlink:show="new" xlink:title="/use-case/client-360/know-your-customer/anti-money-laundering/" xlink:type="simple"><text fill="#90EE90" font-family="'Roboto'" font-size="14" lengthAdjust="spacing" textLength="207.0059" x="272.0518" y="27.9951">Anti Money Laundering (AML)</text></a><path d="M215.0518,156.4844 L215.0518,156.6712 L217.0518,156.1161 L219.0518,156.6562 L221.0518,156.8396 L223.0518,155.8502 L225.0518,156.4844 L225.0518,156.4844 L225.0257,156.4617 L225.9048,155.2142 L226.9153,154.0808 L228.0172,153.0269 L228.8042,151.6994 L230.0322,150.7551 L230.2704,150.817 L230.5463,147.6637 L231.5175,144.6912 L232.5735,141.7407 L233.136,138.6619 L233.958,135.6506 L233.9879,135.6556 L234.2795,133.63 L234.7072,131.6271 L235.0692,129.6133 L235.5566,127.6202 L235.6353,125.5593 L235.9307,125.5998 L236.2434,123.3477 L236.3655,121.0694 L236.7666,118.8294 L237.1808,116.5911 L237.1807,114.2961 L236.8623,114.2587 L238.0544,109.4352 L238.1982,104.4888 L239.139,99.6359 L239.259,94.6867 L240.0518,89.8164 L240.0215,89.8129 L240.9533,84.9589 L241.1787,80.022 L241.8209,75.1341 L242.4981,70.2502 L242.9229,65.3368 L243.1061,65.3619 L243.2302,63.0839 L243.6675,60.8488 L243.5981,58.5442 L244.2844,56.3434 L244.4683,54.0735 L244.7086,54.1135 L244.9986,52.0876 L245.4079,50.0817 L245.2628,47.9835 L245.5241,45.9529 L246.1455,43.9822 L245.8782,43.9127 L246.9053,40.9547 L247.6313,37.9184 L248.7941,34.9957 L249.211,31.8791 L250.0713,28.8777 L249.9562,28.7777 L251.1439,27.7984 L251.8398,26.3916 L252.8854,25.2888 L254.2733,24.4835 L255.0518,23.1484 L255.0518,23.5357 L257.0518,23.8013 L259.0518,22.8624 L261.0518,23.4322 L263.0518,23.6733 L265.0518,23.1484" fill="none" style="stroke:#FF9900;stroke-width:1;"/><a href="/use-case/client-360/know-your-customer/identification-verification/" target="_top" title="/use-case/client-360/know-your-customer/identification-verification/" xlink:actuate="onRequest" xlink:href="/use-case/client-360/know-your-customer/identification-verification/" xlink:show="new" xlink:title="/use-case/client-360/know-your-customer/identification-verification/" xlink:type="simple"><text fill="#90EE90" font-family="'Roboto'" font-size="14" lengthAdjust="spacing" textLength="175.9912" x="272.0518" y="54.292">Identification Verification</text></a><path d="M215.0518,156.4844 L215.0518,156.6712 L217.0518,156.1161 L219.0518,156.6562 L221.0518,156.8396 L223.0518,155.8502 L225.0518,156.4844 L225.0518,156.4844 L225.0213,156.4681 L226.6657,153.0503 L228.4638,149.7143 L230.3688,146.4352 L231.9055,142.9601 L233.958,139.7595 L234.1998,139.805 L234.3272,136.2792 L235.1607,132.8861 L236.0803,129.5092 L236.4987,126.0381 L237.1807,122.6165 L237.2107,122.6209 L237.7408,118.6842 L238.4076,114.7673 L239.0085,110.8409 L239.7351,106.9328 L240.0518,102.9648 L240.3469,103.008 L240.9247,99.0781 L241.3122,95.1205 L241.9783,91.2036 L242.6575,87.2886 L242.9229,83.3131 L242.6078,83.2539 L243.8638,79.9403 L244.0824,76.4316 L245.0896,73.0712 L245.2848,69.5581 L246.1455,66.1702 L246.1186,66.1559 L248.2177,62.9801 L249.6889,59.47 L251.5306,56.1573 L253.4033,52.861 L255.0518,49.4453 L255.0518,49.8153 L257.0518,49.4418 L259.0518,49.7006 L261.0518,48.9365 L263.0518,49.6981 L265.0518,49.4453" fill="none" style="stroke:#FF9900;stroke-width:1;"/><polygon fill="#7A209F" points="269.0518,72.5938,269.0518,72.8039,279.2306,72.1794,289.4094,72.787,299.5882,72.9934,309.7671,71.8804,319.9459,72.516,330.1247,72.1673,340.3036,72.2103,350.4824,72.5256,360.6612,71.9024,370.84,73.1474,381.0189,71.9635,391.1977,72.396,401.3765,73.0257,411.5554,72.508,421.7342,72.662,431.913,72.5618,442.0918,72.7723,452.2707,72.8329,462.4495,73.1794,472.6283,73.2648,482.8071,73.273,492.986,72.8484,503.1648,73.0573,513.3436,73.296,523.5225,72.5938,523.4305,72.3717,524.1747,73.037,524.616,72.9711,525.2876,73.4611,525.7221,73.3786,526.3509,73.7653,526.3298,73.7566,526.8136,74.4256,526.8045,74.8905,527.0863,75.4758,527.3924,76.0713,527.5225,76.5938,527.6612,76.5938,527.5212,82.2531,527.6182,87.9125,527.3317,93.5719,527.6173,99.2313,527.5225,104.8906,527.6913,104.9606,527.425,105.513,527.2426,106.1002,526.6707,106.5261,526.3844,107.0702,526.3509,107.7191,526.2716,107.5277,525.7777,107.9352,525.1944,108.1272,524.7408,108.6318,524.0659,108.6025,523.5225,108.8906,523.5225,108.5476,513.3436,109.1189,503.1648,108.2238,492.986,108.3715,482.8071,109.5396,472.6283,109.3263,462.4495,109.6251,452.2707,108.5688,442.0918,109.2098,431.913,109.481,421.7342,108.4182,411.5554,108.7948,401.3765,109.0166,391.1977,109.5424,381.0189,108.8864,370.84,109.3532,360.6612,108.3368,350.4824,108.2134,340.3036,109.3942,330.1247,108.1737,319.9459,109.3996,309.7671,109.0973,299.5882,108.6227,289.4094,108.5369,279.2306,109.3494,269.0518,108.8906,269.0136,108.7984,268.5616,108.8386,267.8499,108.2518,267.4335,108.3778,266.8508,108.1025,266.2233,107.7191,266.2988,107.7503,266.0036,107.1594,265.9785,106.6804,265.7093,106.1003,265.3382,105.4779,265.0518,104.8906,265.1412,104.8906,265.0083,99.2313,265.2906,93.5719,265.1034,87.9125,265.1093,82.2531,265.0518,76.5938,264.8644,76.5161,265.1613,75.9764,265.6838,75.5301,265.8871,74.9515,265.9758,74.3255,266.2233,73.7653,266.1822,73.6661,266.7611,73.4636,267.2672,73.0854,267.9733,73.1901,268.5804,73.0558,269.0518,72.5938" style="stroke:#EEEEEE;stroke-width:1.5;"/><a href="/use-case/client-360/know-your-customer/peps/" target="_top" title="/use-case/client-360/know-your-customer/peps/" xlink:actuate="onRequest" xlink:href="/use-case/client-360/know-your-customer/peps/" xlink:show="new" xlink:title="/use-case/client-360/know-your-customer/peps/" xlink:type="simple"><text fill="#90EE90" font-family="'Roboto'" font-size="14" lengthAdjust="spacing" textLength="238.0205" x="275.0518" y="95.5889">Politically Exposed Persons (PEPs)</text></a><path d="M215.0518,156.4844 L215.0518,156.6712 L217.0518,156.1161 L219.0518,156.6562 L221.0518,156.8396 L223.0518,155.8502 L225.0518,156.4844 L225.0518,156.4844 L225.0257,156.4617 L226.6898,154.3058 L228.4855,152.2638 L230.3726,150.3012 L231.9446,148.0653 L233.958,146.2122 L234.1933,146.2842 L234.3347,144.0244 L235.163,141.9748 L236.0752,139.9509 L236.4997,137.7778 L237.1807,135.6831 L237.2102,135.6902 L237.7411,133.2659 L238.4063,130.8736 L239.0067,128.4658 L239.7308,126.0875 L240.0518,123.6133 L240.3419,123.6823 L240.9197,121.2692 L241.3103,118.8115 L241.9749,116.419 L242.6523,114.0296 L242.9229,111.5434 L242.6164,111.4496 L243.8557,109.5259 L244.0859,107.2932 L245.0833,105.2954 L245.2906,103.0558 L246.1455,101.0144 L246.1225,100.9945 L248.1758,99.1759 L249.6916,96.8913 L251.5246,94.8817 L253.3842,92.8952 L255.0518,90.7422 L255.0518,91.1122 L257.0518,90.7387 L259.0518,90.9975 L261.0518,90.2334 L263.0518,90.995 L265.0518,90.7422" fill="none" style="stroke:#FF9900;stroke-width:1;"/><a href="/use-case/client-360/know-your-customer/crime-records/" target="_top" title="/use-case/client-360/know-your-customer/crime-records/" xlink:actuate="onRequest" xlink:href="/use-case/client-360/know-your-customer/crime-records/" xlink:show="new" xlink:title="/use-case/client-360/know-your-customer/crime-records/" xlink:type="simple"><text fill="#90EE90" font-family="'Roboto'" font-size="14" lengthAdjust="spacing" textLength="102.6621" x="272.0518" y="136.8857">Crime Records</text></a><path d="M215.0518,156.4844 L215.0518,156.6712 L217.0518,156.1161 L219.0518,156.6562 L221.0518,156.8396 L223.0518,155.8502 L225.0518,156.4844 L225.0518,156.4844 L225.0299,156.4576 L227.932,153.8929 L230.9441,151.4632 L234.0326,149.1273 L236.8577,146.468 L240.0518,144.2617 L240.2072,144.4525 L242.8748,141.6 L245.9962,139.3045 L249.173,137.0769 L252.0277,134.454 L255.0518,132.0391 L255.0518,132.0997 L257.0518,132.0107 L259.0518,132.1978 L261.0518,132.2516 L263.0518,132.5597 L265.0518,132.0391" fill="none" style="stroke:#FF9900;stroke-width:1;"/><a href="/use-case/client-360/know-your-customer/sanctions/" target="_top" title="/use-case/client-360/know-your-customer/sanctions/" xlink:actuate="onRequest" xlink:href="/use-case/client-360/know-your-customer/sanctions/" xlink:show="new" xlink:title="/use-case/client-360/know-your-customer/sanctions/" xlink:type="simple"><text fill="#90EE90" font-family="'Roboto'" font-size="14" lengthAdjust="spacing" textLength="68.1475" x="272.0518" y="163.1826">Sanctions</text></a><path d="M215.0518,156.4844 L215.0518,156.6712 L217.0518,156.1161 L219.0518,156.6562 L221.0518,156.8396 L223.0518,155.8502 L225.0518,156.4844 L225.0518,156.4844 L225.0496,156.4499 L228.0401,156.4803 L231.0413,156.6846 L234.0499,157.0096 L237.0328,156.9183 L240.0518,157.4102 L240.0669,157.6558 L243.0345,157.3157 L246.0463,157.6927 L249.0636,158.1572 L252.0494,158.1127 L255.0518,158.3359 L255.0518,158.3966 L257.0518,158.3075 L259.0518,158.4946 L261.0518,158.5485 L263.0518,158.8566 L265.0518,158.3359" fill="none" style="stroke:#FF9900;stroke-width:1;"/><a href="/use-case/client-360/know-your-customer/risk-management/" target="_top" title="/use-case/client-360/know-your-customer/risk-management/" xlink:actuate="onRequest" xlink:href="/use-case/client-360/know-your-customer/risk-management/" xlink:show="new" xlink:title="/use-case/client-360/know-your-customer/risk-management/" xlink:type="simple"><text fill="#90EE90" font-family="'Roboto'" font-size="14" lengthAdjust="spacing" textLength="125.6924" x="272.0518" y="189.4795">Risk Management</text></a><path d="M215.0518,156.4844 L215.0518,156.6712 L217.0518,156.1161 L219.0518,156.6562 L221.0518,156.8396 L223.0518,155.8502 L225.0518,156.4844 L225.0518,156.4844 L225.0365,156.4534 L226.7491,157.1941 L228.5388,158.0908 L230.3821,159.0961 L232.0407,159.7274 L233.958,160.8826 L234.1662,161.0137 L234.9397,162.6685 L236.3211,164.7061 L237.7767,166.7905 L238.8007,168.6031 L240.0518,170.5586 L240.0774,170.5748 L241.2585,172.4862 L242.5564,174.4713 L243.7979,176.4208 L245.147,178.4381 L246.1455,180.2346 L246.2776,180.502 L248.0604,181.3849 L249.7581,182.0954 L251.5805,183.0583 L253.4087,184.033 L255.0518,184.6328 L255.0518,183.9918 L257.0518,185.2359 L259.0518,184.3693 L261.0518,185.1073 L263.0518,184.1928 L265.0518,184.6328" fill="none" style="stroke:#FF9900;stroke-width:1;"/><a href="/use-case/client-360/know-your-customer/high-net-worth-individuals/" target="_top" title="/use-case/client-360/know-your-customer/high-net-worth-individuals/" xlink:actuate="onRequest" xlink:href="/use-case/client-360/know-your-customer/high-net-worth-individuals/" xlink:show="new" xlink:title="/use-case/client-360/know-your-customer/high-net-worth-individuals/" xlink:type="simple"><text fill="#90EE90" font-family="'Roboto'" font-size="14" lengthAdjust="spacing" textLength="242.4502" x="272.0518" y="215.7764">High Net Worth Individuals (HNWI)</text></a><path d="M215.0518,156.4844 L215.0518,156.6712 L217.0518,156.1161 L219.0518,156.6562 L221.0518,156.8396 L223.0518,155.8502 L225.0518,156.4844 L225.0518,156.4844 L225.0279,156.4594 L226.7021,158.0487 L228.4965,159.764 L230.3746,161.5667 L231.9645,163.0678 L233.958,164.9915 L234.192,165.0676 L234.9104,168.6478 L236.3119,172.4505 L237.7968,176.2802 L238.7968,179.9521 L240.0518,183.707 L240.0806,183.7164 L241.257,187.4458 L242.5647,191.2178 L243.8091,194.9693 L245.1743,198.7601 L246.1455,202.4226 L246.3515,202.6383 L248.1353,204.3423 L249.7862,205.9073 L251.6316,207.6758 L253.4861,209.454 L255.0518,210.9297 L255.0518,210.2886 L257.0518,211.5328 L259.0518,210.6661 L261.0518,211.4042 L263.0518,210.4897 L265.0518,210.9297" fill="none" style="stroke:#FF9900;stroke-width:1;"/><a href="/use-case/client-360/know-your-customer/gdpr/" target="_top" title="/use-case/client-360/know-your-customer/gdpr/" xlink:actuate="onRequest" xlink:href="/use-case/client-360/know-your-customer/gdpr/" xlink:show="new" xlink:title="/use-case/client-360/know-your-customer/gdpr/" xlink:type="simple"><text fill="#90EE90" font-family="'Roboto'" font-size="14" lengthAdjust="spacing" textLength="39.7988" x="272.0518" y="242.0732">GDPR</text></a><path d="M215.0518,156.4844 L215.0518,156.6712 L217.0518,156.1161 L219.0518,156.6562 L221.0518,156.8396 L223.0518,155.8502 L225.0518,156.4844 L225.0518,156.4844 L225.0235,156.4645 L226.6782,158.8982 L228.475,161.4325 L230.3708,164.0365 L231.9257,166.3999 L233.958,169.1003 L234.1968,169.1598 L234.3307,171.6189 L235.1618,174.2516 L236.0779,176.9056 L236.4991,179.4362 L237.1807,182.0317 L237.2104,182.0375 L237.7409,184.9938 L238.407,187.9763 L239.0077,190.9462 L239.7331,193.9402 L240.0518,196.8555 L240.3446,196.9122 L240.9224,199.8776 L241.3113,202.8065 L241.9767,205.7889 L242.655,208.7738 L242.9229,211.6792 L242.6118,211.6017 L243.86,214.3384 L244.084,216.8199 L245.0867,219.4954 L245.2875,221.9711 L246.1455,224.6106 L246.1206,224.593 L248.196,227.3239 L249.6903,229.6445 L251.5275,232.2072 L253.3935,234.7902 L255.0518,237.2266 L255.0518,237.5965 L257.0518,237.2231 L259.0518,237.4819 L261.0518,236.7177 L263.0518,237.4794 L265.0518,237.2266" fill="none" style="stroke:#FF9900;stroke-width:1;"/><a href="/use-case/client-360/know-your-customer/activity-monitoring/" target="_top" title="/use-case/client-360/know-your-customer/activity-monitoring/" xlink:actuate="onRequest" xlink:href="/use-case/client-360/know-your-customer/activity-monitoring/" xlink:show="new" xlink:title="/use-case/client-360/know-your-customer/activity-monitoring/" xlink:type="simple"><text fill="#90EE90" font-family="'Roboto'" font-size="14" lengthAdjust="spacing" textLength="131.9199" x="272.0518" y="268.3701">Activity Monitoring</text></a><path d="M215.0518,156.4844 L215.0518,156.6712 L217.0518,156.1161 L219.0518,156.6562 L221.0518,156.8396 L223.0518,155.8502 L225.0518,156.4844 L225.0518,156.4844 L225.0213,156.4681 L226.6657,159.7403 L228.4638,163.0942 L230.3688,166.505 L231.9055,169.7198 L233.958,173.2092 L234.1998,173.2547 L234.3272,176.5861 L235.1607,180.0502 L236.0803,183.5305 L236.4987,186.9166 L237.1807,190.3522 L237.2107,190.3566 L237.7408,194.2805 L238.4076,198.2244 L239.0085,202.1586 L239.7351,206.1112 L240.0518,210.0039 L240.3469,210.047 L240.9247,213.9779 L241.3122,217.8809 L241.9783,221.8247 L242.6575,225.7704 L242.9229,229.6556 L242.6078,229.5964 L243.8638,233.1399 L244.0824,236.4885 L245.0896,239.9852 L245.2848,243.3293 L246.1455,246.7986 L246.1186,246.7843 L248.2177,250.2985 L249.6889,253.4783 L251.5306,256.8555 L253.4033,260.2492 L255.0518,263.5234 L255.0518,263.8934 L257.0518,263.52 L259.0518,263.7787 L261.0518,263.0146 L263.0518,263.7762 L265.0518,263.5234" fill="none" style="stroke:#FF9900;stroke-width:1;"/><a href="/use-case/client-360/know-your-customer/core-record-management/" target="_top" title="/use-case/client-360/know-your-customer/core-record-management/" xlink:actuate="onRequest" xlink:href="/use-case/client-360/know-your-customer/core-record-management/" xlink:show="new" xlink:title="/use-case/client-360/know-your-customer/core-record-management/" xlink:type="simple"><text fill="#90EE90" font-family="'Roboto'" font-size="14" lengthAdjust="spacing" textLength="183.0801" x="272.0518" y="294.667">Core Record Management</text></a><path d="M215.0518,156.4844 L215.0518,156.6712 L217.0518,156.1161 L219.0518,156.6562 L221.0518,156.8396 L223.0518,155.8502 L225.0518,156.4844 L225.0518,156.4844 L225.0257,156.4617 L225.9048,157.5059 L226.9153,158.6643 L228.0172,159.9021 L228.8042,160.8662 L230.0322,162.2137 L230.2704,162.2756 L230.5463,165.1641 L231.5175,168.2333 L232.5735,171.3246 L233.136,174.2876 L233.958,177.3181 L233.9879,177.3231 L234.2795,179.3341 L234.7072,181.3677 L235.0692,183.3903 L235.5566,185.4339 L235.6353,187.4095 L235.9307,187.45 L236.2434,189.7031 L236.3655,191.9301 L236.7666,194.1954 L237.1808,196.4625 L237.1807,198.6727 L236.8623,198.6354 L238.0544,203.6038 L238.1982,208.4492 L239.139,213.3881 L239.259,218.2308 L240.0518,223.1523 L240.0215,223.1488 L240.9533,228.0867 L241.1787,232.9417 L241.8209,237.8456 L242.4981,242.7536 L242.9229,247.632 L243.1061,247.6571 L243.2302,249.8844 L243.6675,252.1546 L243.5981,254.3554 L244.2844,256.6598 L244.4683,258.8952 L244.7086,258.9352 L244.9986,260.9459 L245.4079,262.9764 L245.2628,264.9148 L245.5241,266.9208 L246.1455,268.9866 L245.8782,268.9171 L246.9053,272.0009 L247.6313,275.0064 L248.7941,278.1254 L249.211,281.0506 L250.0713,284.091 L249.9562,283.991 L251.1439,285.3034 L251.8398,286.1883 L252.8854,287.3772 L254.2733,288.8637 L255.0518,289.8203 L255.0518,290.2076 L257.0518,290.4732 L259.0518,289.5343 L261.0518,290.104 L263.0518,290.3451 L265.0518,289.8203" fill="none" style="stroke:#FF9900;stroke-width:1;"/><!--SRC=[xLbjRnev4Fw-lsAkw5IYTijRGfAggae8UGM286bLLLNax1gmM6pEzePof_llDxlimYvlWGtqhgVmAJiUFpCUZptZ9v-K9bBt6RVxP60OlzcqpJY5a_FxMkcoVb- -gTuqmV-bSgLYxgWSLMbLoZVrqrBpQw2NAkQAXyMZg4gZLBukdLScGAb3aiyUjwSgDytJIZDg1r8L_pTHERkftyOKfYg6wZ4-89BquO5OlOuKBhVBmX4oLDIIS8KQbEidbN_lAkVUyWJfV27_5d87Ro6VsulCknWDgAmotejEWvJ3EbtTaPHomtWDZ5kEQrFGNGeTogaa3amW5BHnueFGtRVWJmF2RR29xE5CBK0yKZcKJ5COCjqTOx17oa5HhHdlgDd8tLvSbg_hbLOBShXzOg2PuD15K0z5uyGsSHIDhA51R1k1O3yYQuv38T5PE8h8MrrYYw6dFOlYHyB1IDnns_-31YeHdLFQ9gwZuI_ZJ71T9tqAhve2rovU-P9n4AVRwmjRx4yAkNtZxoXIIKenH9o5CnR3w963CHAE7KSQuCwJ3WrycfjwCfCOiNDWd0Y9Ymr68ecB9gOMkB0tWOyTaFKiMA8_41mp6iqaT7YXT-EOkNqd7u-PJJHv88fksLpCXkK8rzwf0U4urF9EXzgwcQcLCYf8uUpGmea7IUHeXoOgN3EzImECQohRnA8xjD6YVxYKMxI1vOrPR42u7eFTTfdLurGfl32dwYfGHu-YCrOwDmUzmC-8plHQuaBsYJCxDhUSAcjJB3PqAVX4OQMR_kKv1-vBboBxemkTyaUcCImO9KiB-OG7lifIMzxeiWFy6ihxu4KDYn1-f9xyHS-yn0DFUCUX7pvWjLA2V_o8-zl2vAD2Om5RMZssLHTcCswsPiUlg8Yxz0SwoObplts_Pvgs7JYlHahJ_gyNw-txlQDOXmNvrmZrrDjVBzAHD7a82k_Owvd6EBuAluVDFjtj9LhxweMD2unDL9VQwwnruL8jD4omhiXrruhz-kfKsi5ALszXjBHheXTr6gdZml7XIJvYVDZ5XvTHqbgo1rT7N4rb2zdz0nfpAPND7Xu-56VRMABKJx95fdKzTNPsV9pDpWv6Mnt3U7CFtxv1nbNKjF0uPYo7uHl2B1IpcHuNGtCaN6bQhjAYJsK6hb46Nr46vK06wUklvJtu_jruinaMDZZCxEEJPMGwnFKUZ9XD6IYX66gU6AeJCQHBjMeI8yp6GTPc5l6QV1FVqPEF35p61k5pP71iQXDB0pfG6MW8Xs7xHXnd19KV0w6e3Gs_MYj8DoeDbMGHbcHzQk9HnCr76sNl4vhZpmHmYl3naoS3hV3F132IgPxP9nmVpdrKoq0J1L2R2190TbcdQtAgpQ6GkcioRhD7PhjumMJW0iUWJZLyySRWSZe6wOlwbyiaWUtO0ypfyzD6Cqd-OkGUyKdavJ33PdMSlO7Go-10c6J3XGptEnRXCig3ZPy9z2VAxGbVzobEtssN3qlbAuLieR8P__KVPff2rd1DcYcglW1W0u8fd3TN5G9ADNRL1xehAQMbW06x-XJWAWPfbLFp7YJWZ3Opi1PBz1p8bRpGfi3hC479CLTmFyb1bx8zoI5NyJl9KNV2w8JkBE5oGZysfd72YOiudBcn9Jv5Y9jmoXnh4nkODxyUMpCnEClJJ63Y54ta82LYMvRlzoRPCh_vpsLJDl0h-4_Ny_nwuXdyhuLfUtub3zFQ7CTFYTBc7CRFpgNdqnDXyx3XQfPwlPAAoEsIUmWtUbihcOd_2xVmmYsyS0iltCB_d5jeE7YsxcfLm7HNNZBdtkMp-ODtkTm3rUGWVSSzczn_J3AywJNcqvwHFczKGQ4Vs7dRJ8sl89ozProHHm9Dbtjwx-5cGFdLwNKem6V88vE2UvuOLvzhKuNYldd2D7R_4ls0ppKZVEnNk2KyVk4ztDsUcKT65Ik8Yujv3vJZ4nvnvGZ7Mly0]--></g></svg>