<svg xmlns="http://www.w3.org/2000/svg" xmlns:xlink="http://www.w3.org/1999/xlink" contentStyleType="text/css" data-diagram-type="MINDMAP" height="152px" preserveAspectRatio="none" style="width:563px;height:152px;" version="1.1" viewBox="0 0 563 152" width="563px" zoomAndPan="magnify"><defs/><g><a href="/use-case/client-360/" target="_top" title="/use-case/client-360/" xlink:actuate="onRequest" xlink:href="/use-case/client-360/" xlink:show="new" xlink:title="/use-case/client-360/" xlink:type="simple"><text fill="#4051B5" font-family="'Roboto'" font-size="13" lengthAdjust="spacing" textLength="66.5806" x="17" y="79.7661">Client 360</text></a><a href="/use-case/client-360/relationships-and-connections/" target="_top" title="/use-case/client-360/relationships-and-connections/" xlink:actuate="onRequest" xlink:href="/use-case/client-360/relationships-and-connections/" xlink:show="new" xlink:title="/use-case/client-360/relationships-and-connections/" xlink:type="simple"><text fill="#4051B5" font-family="'Roboto'" font-size="13" lengthAdjust="spacing" textLength="185.8911" x="148.7129" y="79.7661">Relationships &amp; Connections</text></a><a href="/use-case/client-360/relationships-and-connections/business-connections/" target="_top" title="/use-case/client-360/relationships-and-connections/business-connections/" xlink:actuate="onRequest" xlink:href="/use-case/client-360/relationships-and-connections/business-connections/" xlink:show="new" xlink:title="/use-case/client-360/relationships-and-connections/business-connections/" xlink:type="simple"><text fill="#4051B5" font-family="'Roboto'" font-size="13" lengthAdjust="spacing" textLength="141.7876" x="399.7363" y="27.0669">Business Connections</text></a><path d="M342.7363,75.2656 L342.7363,75.4525 L344.7363,74.8973 L346.7363,75.4374 L348.7363,75.6209 L350.7363,74.6315 L352.7363,75.2656 L352.7363,75.2656 L352.7129,75.2403 L354.3889,73.4796 L356.1831,71.8468 L358.0595,70.3028 L359.6527,68.4526 L361.6426,67.0314 L361.8758,67.1098 L362.5958,63.319 L363.9968,59.7572 L365.4808,56.2234 L366.4814,52.5269 L367.7363,48.916 L367.7651,48.9257 L368.9416,45.2884 L370.249,41.6952 L371.4933,38.0807 L372.858,34.5067 L373.8301,30.8007 L374.0325,31.0197 L375.8163,29.3755 L377.4694,27.5901 L379.3137,26.0114 L381.167,24.4424 L382.7363,22.5664 L382.7363,21.9254 L384.7363,23.1695 L386.7363,22.3028 L388.7363,23.0409 L390.7363,22.1264 L392.7363,22.5664" fill="none" style="stroke:#FF6F00;stroke-width:1;"/><a href="/use-case/client-360/relationships-and-connections/family-connections/" target="_top" title="/use-case/client-360/relationships-and-connections/family-connections/" xlink:actuate="onRequest" xlink:href="/use-case/client-360/relationships-and-connections/family-connections/" xlink:show="new" xlink:title="/use-case/client-360/relationships-and-connections/family-connections/" xlink:type="simple"><text fill="#4051B5" font-family="'Roboto'" font-size="13" lengthAdjust="spacing" textLength="127.4863" x="399.7363" y="52.1997">Family Connections</text></a><path d="M342.7363,75.2656 L342.7363,75.4525 L344.7363,74.8973 L346.7363,75.4374 L348.7363,75.6209 L350.7363,74.6315 L352.7363,75.2656 L352.7363,75.2656 L352.7213,75.2345 L354.4351,74.2335 L356.2246,73.3893 L358.0669,72.654 L359.7275,71.5432 L361.6426,70.9584 L361.8495,71.0915 L362.6257,68.9117 L364.0061,67.1205 L365.4603,65.3766 L366.4855,63.357 L367.7363,61.4824 L367.7618,61.4988 L368.9431,59.5796 L370.2406,57.735 L371.482,55.8543 L372.8303,54.0425 L373.8301,52.0065 L373.9599,52.275 L375.7428,51.4168 L377.4418,50.3854 L379.2635,49.6076 L381.091,48.8416 L382.7363,47.6992 L382.7363,47.0582 L384.7363,48.3023 L386.7363,47.4357 L388.7363,48.1737 L390.7363,47.2592 L392.7363,47.6992" fill="none" style="stroke:#FF6F00;stroke-width:1;"/><a href="/use-case/client-360/relationships-and-connections/social-connections/" target="_top" title="/use-case/client-360/relationships-and-connections/social-connections/" xlink:actuate="onRequest" xlink:href="/use-case/client-360/relationships-and-connections/social-connections/" xlink:show="new" xlink:title="/use-case/client-360/relationships-and-connections/social-connections/" xlink:type="simple"><text fill="#4051B5" font-family="'Roboto'" font-size="13" lengthAdjust="spacing" textLength="123.0049" x="399.7363" y="77.3325">Social Connections</text></a><path d="M342.7363,75.2656 L342.7363,75.4525 L344.7363,74.8973 L346.7363,75.4374 L348.7363,75.6209 L350.7363,74.6315 L352.7363,75.2656 L352.7363,75.2656 L352.7335,75.2312 L355.721,74.8333 L358.7225,74.609 L361.7339,74.5054 L364.7115,73.9859 L367.7363,74.0488 L367.7562,74.2941 L370.7137,73.5263 L373.7292,73.4745 L376.7519,73.5101 L379.7332,73.0374 L382.7363,72.832 L382.7363,72.8927 L384.7363,72.8036 L386.7363,72.9907 L388.7363,73.0446 L390.7363,73.3526 L392.7363,72.832" fill="none" style="stroke:#FF6F00;stroke-width:1;"/><polygon fill="#4051B5" points="396.7363,95.3984,396.7363,95.6086,406.806,94.9841,416.8757,95.5917,426.9454,95.7981,437.0151,94.685,447.0848,95.3207,457.1545,94.9719,467.2242,95.0149,477.2939,95.3303,487.3636,94.7071,497.4333,95.9521,507.503,94.7682,517.5727,95.2007,527.6424,95.8304,537.712,95.3127,547.7817,95.3984,547.7904,95.4195,548.3433,95.6229,548.9359,95.922,549.5093,96.175,550.1192,96.5161,550.6102,96.57,550.8168,96.6556,551.0537,97.2223,551.1572,97.7339,551.4559,98.3262,551.7637,98.9223,551.7817,99.3984,551.5413,99.3984,552.0079,104.825,551.6829,110.2516,551.9597,115.6781,551.6167,121.1047,551.7817,126.5313,551.7606,126.5225,551.7758,127.1915,551.2981,127.6564,551.1112,128.2417,550.9488,128.8372,550.6102,129.3597,550.6633,129.4879,550.044,129.5928,549.5154,129.9168,548.8401,129.8863,548.3837,130.3845,547.7817,130.5313,547.7817,131.0794,537.712,130.9758,527.6424,131.1443,517.5727,130.0482,507.503,129.8791,497.4333,129.9098,487.3636,130.4724,477.2939,130.3347,467.2242,131.2127,457.1545,130.3566,447.0848,130.1882,437.0151,130.7595,426.9454,129.8644,416.8757,130.0121,406.806,131.1802,396.7363,130.5313,396.7919,130.6654,396.2643,130.5231,395.5639,129.9635,395.08,129.9266,394.5489,129.7758,393.9079,129.3597,393.7624,129.2994,393.6441,128.7818,393.4781,128.2444,393.4057,127.7458,392.9694,127.0964,392.7363,126.5313,392.8905,126.5313,392.5517,121.1047,392.5106,115.6781,392.9042,110.2516,392.4973,104.825,392.7363,99.3984,392.8931,99.4634,393.0343,98.8591,393.1224,98.2329,393.3303,97.6563,393.8149,97.1942,393.9079,96.57,393.8697,96.4778,394.5491,96.518,394.9688,95.9312,395.6837,96.0572,396.2324,95.7819,396.7363,95.3984" style="stroke:#FF6F00;stroke-width:1.5;"/><a href="/use-case/client-360/relationships-and-connections/political-connections/" target="_top" title="/use-case/client-360/relationships-and-connections/political-connections/" xlink:actuate="onRequest" xlink:href="/use-case/client-360/relationships-and-connections/political-connections/" xlink:show="new" xlink:title="/use-case/client-360/relationships-and-connections/political-connections/" xlink:type="simple"><text fill="#4051B5" font-family="'Roboto'" font-size="13" lengthAdjust="spacing" textLength="134.9131" x="402.7363" y="117.4653">Political Connections</text></a><path d="M342.7363,75.2656 L342.7363,75.4525 L344.7363,74.8973 L346.7363,75.4374 L348.7363,75.6209 L350.7363,74.6315 L352.7363,75.2656 L352.7363,75.2656 L352.7173,75.2368 L354.413,76.2856 L356.2048,77.4797 L358.0634,78.7747 L359.6918,79.7217 L361.6426,81.1561 L361.8653,81.2608 L362.6078,83.6287 L364.0005,86.3024 L365.4726,89.0133 L366.4831,91.5072 L367.7363,94.1152 L367.7638,94.1281 L368.9422,96.701 L370.2456,99.3326 L371.4888,101.9359 L372.8469,104.5933 L373.8301,107.0743 L373.9946,107.3231 L375.7779,108.5042 L377.455,109.5249 L379.2875,110.7805 L381.1272,112.0471 L382.7363,112.9648 L382.7363,112.3238 L384.7363,113.568 L386.7363,112.7013 L388.7363,113.4393 L390.7363,112.5248 L392.7363,112.9648" fill="none" style="stroke:#FF6F00;stroke-width:1;"/><path d="M91.7129,75.2656 L91.7129,75.4525 L93.7129,74.8973 L95.7129,75.4374 L97.7129,75.6209 L99.7129,74.6315 L101.7129,75.2656 L101.7129,75.2656 L101.7129,75.2311 L107.7129,75.0761 L113.7129,75.0952 L119.7129,75.2353 L125.7129,74.9583 L131.7129,75.2656 L131.7129,75.7578 L133.7129,74.7054 L135.7129,75.0898 L137.7129,75.6496 L139.7129,75.1894 L141.7129,75.2656" fill="none" style="stroke:#FF6F00;stroke-width:1;"/><!--SRC=[xLfjRzf84FxkNx7NI9TMBGtaJLLKLG7oqYOa84XwEbLLjDXhMB7UfRlhSDpf_lkDZGssiGquffT8vPEpEtxccTdrxioZd2gDfNOejnmyDepVB69JJb3Zyk6c_kNseTbkjRl8_-qSLezg_QEeIU-ysRuzgtV_3EnIJ3hrvdNzydmEj6JIxfwTTwD-q8vj7zlLwjpaedrx5pFmJRpVtAJUxRR_YDk4A8OQKJx64ZkeZytHG0gNMqt1X4GxMcAkO8vm7J7xF1qJoIWV1LO1OsCNKMuoro983maQ44uaPcZ-da8sMFU57hv3Z0w66c5k8GlB4Rof1HAFH4uarGHDg1xECEWZuKWHhIaVg6HExZv_QLxVdlTwg0OB8yQQ2ew60EgXQ7ZHnaoH2F4EjYm0GeUHiUuiN0baqOV8U6-8BJ7nh9Cey_3lkUK_aC0aOdD6REmoZVunBWJNjzWXw5LNGEpYbJyooznYuVp17lsReDgXyMyKgIwbc01EwXlfC7hA84U2MN6aCQmk7f20qzAhZSJYntQuqH0IWWrc8biIN2myS65j0X_R-kjvC8Kp5Xos8xWfI3YLtIndhiFsupcpiCPzh4Z9xc8-J2PSQwiE16F4zBuELRgRXPSc64Z1jkYXuK5YETsYYtEkgTwc0yeraJOsoHPzzCWFbt2JTE3YeYOTOwvdO7T3QeuuKGeEp8Mv2io1KVIDN79Bq2ay8pQBOuaBwM2Md5iAfqLjqeAJDHDyRf1Bqpyyby3zqKnaVpQLb3-poE61KJUra2iO-2QPlhpPh0zu5pKFaPSrk8JWZvsLl-WtB-63ntp0oCUFS5ifmJzzWlNjmUOZGiC5bdbxb7Kl97TSyiwE7r4HkkGl8CanUoYVTw8Ssm9vDLMQE2ylr-NptbAkmmlvPQHwmVRbPJgoJVh1nJjZdIYCur7uDMnrTRLNAFRym6ONZ8NLa5Zhn9eQgWcECTmhSjrOeLxFtqfRY3H_2JTkGy86RX7JmUp-QKD79YdKz5Q0upLmGIli5_iALP3ZAktLvGHX6q8DVIRQWeYte3NDx74YlMeMoMWfiKX6edQ7nbslBhFIRtgj9UsxccJN0SjSSngOMBMFbIh6Ai_1Bhe9raMDYKbjQaByVka0IpGPUbsrXZC8wa_bBQY_UEzGdxa4revpuXKY2WbNUzFBBLt9R1VuE5vJGIDll7r0txwXFLUHYWbdvvx9A3HybOFZwXvg-iy8dj7txyRR75D96FPRdY4TgmhcLYM8qnlRGzteDFhTwrx2oHboOUY-gwWNIznV8nWjqP6D7SgcSJSN_bY9JfGmAMPn9pr_BCL9GHzZmIXq0qatdN0uwUcKm4uF1RdJk3vNdfhrZ7MZy0XTKpIAcgS0R20NXUybZuCmQT5lFjGNSmMYfmBcwK5v6CiC2YX0cpbOI_Dv2cIkohCfy3gwJd7C72MdE6YcTbCSCa-jAOww5Nqcf9EXp8JCDXPbmW3I59aGD4kC2Jb52gOGRac32R4IyalCVgNsCdUOL5tcw7719V8X5T9Eia_MJNRByk8_LHlvsRnMDBN_MvgU0w-r5OkVpEPP9QbKiI7aiM4qcQnpXONQDfM4iYD9vByifQ1mgvzoNvRMvaUH4dV9SdSVksRICfSiGTVewBC9h8JCwBgVWFYhp_xLPp-fp-umA0llRrhe4KeFxnyjQk_tg_j7xskrFj6uLdrzpqTSJBZVab7uRZLro1lZzMMdXPHm9TIl5bMp3mzUVsDSuKUCkYxtx4vGUqpurTbrE035_2ELWZjUhtxrzMPXS7nOQL0DDRG48kZhZH6UNEVS55wNVeBkxoug7umMdCCkDB0dY70uRW1NJc6kzny0]--></g></svg>