<svg xmlns="http://www.w3.org/2000/svg" xmlns:xlink="http://www.w3.org/1999/xlink" contentStyleType="text/css" data-diagram-type="MINDMAP" height="130px" preserveAspectRatio="none" style="width:934px;height:130px;" version="1.1" viewBox="0 0 934 130" width="934px" zoomAndPan="magnify"><defs/><g><a href="/use-case/construction-project-quotations/proposal-submission-and-negotiation/" target="_top" title="/use-case/construction-project-quotations/proposal-submission-and-negotiation/" xlink:actuate="onRequest" xlink:href="/use-case/construction-project-quotations/proposal-submission-and-negotiation/" xlink:show="new" xlink:title="/use-case/construction-project-quotations/proposal-submission-and-negotiation/" xlink:type="simple"><text fill="#90EE90" font-family="'Roboto'" font-size="14" lengthAdjust="spacing" textLength="161.1094" x="371.6855" y="69.292">Proposal &amp; Negotiation</text></a><polygon fill="#4051B5" points="595.2451,20,595.2451,20.2102,605.3468,19.5857,615.4485,20.1933,625.5502,20.3997,635.6519,19.2866,645.7535,19.9223,655.8552,19.5735,665.9569,19.6165,676.0586,19.9318,686.1603,19.3086,696.262,20.5536,706.3636,19.3697,716.4653,19.8022,726.567,20.4319,736.6687,19.9142,746.7704,20.0682,756.8721,19.9681,766.9738,20.1785,777.0754,20.2391,787.1771,20.5857,797.2788,20.6711,807.3805,20.6793,817.4822,20.2546,827.5839,20.4636,837.6855,20.7022,847.7872,19.2788,857.8889,20.6785,867.9906,19.7035,878.0923,20.5338,888.194,19.505,898.2957,19.9315,908.3973,20.7416,918.499,20,918.4928,19.985,919.0781,20.2667,919.6736,20.5729,920.2492,20.8311,920.7613,20.9361,921.3275,21.1716,921.4159,21.2082,921.3855,21.6642,921.8837,22.3392,922.1992,22.9386,922.4016,23.491,922.499,24,922.7034,24,922.338,29.6594,922.2816,35.3188,922.2919,40.9781,922.4794,46.6375,922.499,52.2969,922.4385,52.2718,922.4746,52.9495,921.9766,53.406,921.6904,53.9502,921.6321,54.5887,921.3275,55.1253,921.2424,54.9199,920.6955,55.1997,920.2789,55.7938,919.686,55.9624,919.1584,56.2888,918.499,56.2969,918.499,55.9751,908.3973,56.6161,898.2957,56.8873,888.194,55.8245,878.0923,56.201,867.9906,56.4229,857.8889,56.9486,847.7872,56.2927,837.6855,56.7594,827.5839,55.7431,817.4822,55.6196,807.3805,56.8005,797.2788,55.5799,787.1771,56.8058,777.0754,56.5035,766.9738,56.029,756.8721,55.9431,746.7704,56.7556,736.6687,55.9975,726.567,56.8887,716.4653,55.7441,706.3636,56.9143,696.262,56.7812,686.1603,56.5418,676.0586,56.3441,665.9569,57.0235,655.8552,56.9105,645.7535,56.4661,635.6519,56.5651,625.5502,56.1666,615.4485,57.0133,605.3468,56.4517,595.2451,56.2969,595.2671,56.35,594.6018,55.8752,594.0621,55.7035,593.6158,55.7574,593.0372,55.492,592.4167,55.1253,592.4035,55.1198,592.0832,54.5185,591.8806,53.966,591.5024,53.3407,591.6072,52.9155,591.2451,52.2969,591.4916,52.2969,591.4206,46.6375,591.4768,40.9781,591.1995,35.3188,591.2742,29.6594,591.2451,24,591.1258,23.9506,591.5669,23.4705,591.7897,22.9001,592.1182,22.3734,592.1117,21.708,592.4167,21.1716,592.3995,21.1302,593.0389,21.0738,593.6204,20.8777,594.0484,20.3108,594.6547,20.1746,595.2451,20" style="stroke:#FF6F00;stroke-width:1.5;"/><a href="/use-case/construction-project-quotations/proposal-submission-and-negotiation/proposal-document-generation/" target="_top" title="/use-case/construction-project-quotations/proposal-submission-and-negotiation/proposal-document-generation/" xlink:actuate="onRequest" xlink:href="/use-case/construction-project-quotations/proposal-submission-and-negotiation/proposal-document-generation/" xlink:show="new" xlink:title="/use-case/construction-project-quotations/proposal-submission-and-negotiation/proposal-document-generation/" xlink:type="simple"><text fill="#90EE90" font-family="'Roboto'" font-size="14" lengthAdjust="spacing" textLength="306.8037" x="601.2451" y="42.9951">Proposal Document Generation &amp; Assembly</text></a><path d="M541.2451,64.4453 L541.2451,64.6321 L543.2451,64.077 L545.2451,64.6171 L547.2451,64.8006 L549.2451,63.8112 L551.2451,64.4453 L551.2451,64.4453 L551.2224,64.4193 L554.1202,61.6731 L557.1328,59.0578 L560.2251,56.5335 L563.0426,53.6955 L566.2451,51.2969 L566.4073,51.4819 L569.0605,48.4565 L572.1872,45.9714 L575.3717,43.5522 L578.22,40.7495 L581.2451,38.1484 L581.2451,38.2091 L583.2451,38.12 L585.2451,38.3071 L587.2451,38.361 L589.2451,38.6691 L591.2451,38.1484" fill="none" style="stroke:#FF9900;stroke-width:1;"/><a href="/use-case/construction-project-quotations/proposal-submission-and-negotiation/compliance-matrix-and-submission-packaging/" target="_top" title="/use-case/construction-project-quotations/proposal-submission-and-negotiation/compliance-matrix-and-submission-packaging/" xlink:actuate="onRequest" xlink:href="/use-case/construction-project-quotations/proposal-submission-and-negotiation/compliance-matrix-and-submission-packaging/" xlink:show="new" xlink:title="/use-case/construction-project-quotations/proposal-submission-and-negotiation/compliance-matrix-and-submission-packaging/" xlink:type="simple"><text fill="#90EE90" font-family="'Roboto'" font-size="14" lengthAdjust="spacing" textLength="307.2344" x="598.2451" y="84.292">Compliance Matrix &amp; Submission Packaging</text></a><path d="M541.2451,64.4453 L541.2451,64.6321 L543.2451,64.077 L545.2451,64.6171 L547.2451,64.8006 L549.2451,63.8112 L551.2451,64.4453 L551.2451,64.4453 L551.2297,64.4144 L554.1603,65.7758 L557.1689,67.2929 L560.2316,68.9182 L563.1077,70.1705 L566.2451,71.9453 L566.3552,72.1654 L569.1198,73.1948 L572.2058,74.8667 L575.331,76.617 L578.2281,77.9112 L581.2451,79.4453 L581.2451,79.506 L583.2451,79.4169 L585.2451,79.604 L587.2451,79.6579 L589.2451,79.9659 L591.2451,79.4453" fill="none" style="stroke:#FF9900;stroke-width:1;"/><a href="/use-case/construction-project-quotations/proposal-submission-and-negotiation/negotiation-support-and-revisions/" target="_top" title="/use-case/construction-project-quotations/proposal-submission-and-negotiation/negotiation-support-and-revisions/" xlink:actuate="onRequest" xlink:href="/use-case/construction-project-quotations/proposal-submission-and-negotiation/negotiation-support-and-revisions/" xlink:show="new" xlink:title="/use-case/construction-project-quotations/proposal-submission-and-negotiation/negotiation-support-and-revisions/" xlink:type="simple"><text fill="#90EE90" font-family="'Roboto'" font-size="14" lengthAdjust="spacing" textLength="227.3564" x="598.2451" y="110.5889">Negotiation Support &amp; Revisions</text></a><path d="M541.2451,64.4453 L541.2451,64.6321 L543.2451,64.077 L545.2451,64.6171 L547.2451,64.8006 L549.2451,63.8112 L551.2451,64.4453 L551.2451,64.4453 L551.2249,64.4173 L552.9152,65.5823 L554.7076,66.8883 L556.5711,68.2924 L558.1898,69.3586 L560.1514,70.8979 L560.3775,70.995 L561.1127,73.6266 L562.5081,76.5416 L563.984,79.4912 L564.9913,82.2396 L566.2451,85.0938 L566.273,85.1057 L567.4508,87.9273 L568.7555,90.8034 L569.999,93.6532 L571.3593,96.5531 L572.3389,99.2896 L572.5138,99.5311 L574.2972,100.8246 L575.9678,101.9622 L577.8035,103.328 L579.647,104.7044 L581.2451,105.7422 L581.2451,105.1011 L583.2451,106.3453 L585.2451,105.4786 L587.2451,106.2167 L589.2451,105.3022 L591.2451,105.7422" fill="none" style="stroke:#FF9900;stroke-width:1;"/><a href="/use-case/construction-project-quotations/" target="_top" title="/use-case/construction-project-quotations/" xlink:actuate="onRequest" xlink:href="/use-case/construction-project-quotations/" xlink:show="new" xlink:title="/use-case/construction-project-quotations/" xlink:type="simple"><text fill="#90EE90" font-family="'Roboto'" font-size="14" lengthAdjust="spacing" textLength="289.2354" x="14" y="69.292">Complex Construction Project Quotations</text></a><path d="M364.6855,64.4453 L364.6855,64.6321 L362.6855,64.077 L360.6855,64.6171 L358.6855,64.8006 L356.6855,63.8112 L354.6855,64.4453 L354.6855,64.4453 L354.6855,64.4108 L348.6855,64.2558 L342.6855,64.2749 L336.6855,64.415 L330.6855,64.138 L324.6855,64.4453 L324.6855,64.9374 L322.6855,63.8851 L320.6855,64.2695 L318.6855,64.8293 L316.6855,64.3691 L314.6855,64.4453" fill="none" style="stroke:#FF9900;stroke-width:1;"/><!--SRC=[xLXjJzj84FxkNx5NfACLbv9Gg5fKLOGGQ25lbq2bKrMXZRr9zcBlkhlhGExK_zwn7Jjh9t5UY7jm8f_0- -mppyo-pSo9L5WeXpBBmQvX_6QH7cK4dLxSrikV6xULPgtPHi5lvx1uLEeUwP1EjT9id9NRVqrmSo2jSkMgV56DYMOWpVPPjQtRGJkztjjUiHX3pfkDwmGWWFW_mv13obmii8Ews1ps1VUOLU4s5n5G2Sma80XJ6lZJs2MYHjbGnw8Tc_O7gYy8OOQnYoWpRSyYI0q8wXD61BPHJ25H3oPskHhyWO9f23CBMLWCOQRYY8-8k1DK4NH7rI3ae2F2a2HAKTQNwGXSV_fSkMfKEnrKWcNWhgASeG6G-YmA9lQmBOdcGmjR5X2XG-rRE_HVW5ZqJllU6M2Bt_deD4iG2HiYSSEiu0yoWMYOCzB3dgtGlyOvPwg17O9Uj3dupby4Ny8WJfSf-DYX_n1KEZH-w4nb8VWTyCoTCPz6ZMs84RUj99CBoutxPA9fPkffQZSazhDnoWKuEndHDY2Oc5fWt5g7Fh7HLxDWSiVb37OccDbGy5nrOSmynpv8nip22dUn95isbx1XsjopSZN0RPkO_kcGMpSpjL81WE1sZXPEVKeinZcQg395LPu6A5D4zB19ShJH8TyzmapIWcUAcjJ5J8LarmDg3XcH4YxCALnEuA18dv4fRePwZauDCxsM61SEjjDZC-xKQ8_0OqCMaiU0J9d1vJb37dnTo1oCpXKLZ4nZ-COecugB9Ge2o49R_kYY0xoBAeV8ZneyGl3FpjAVVkO577ZC-ZRvy05UAydPnu-mlXtOV8GhUC0MlXxRUXVIEoxzPYUlA4qkkGUH3DktszUTIhvo42_7KX7dwSLw-xfpYdNq83-DK4_LFhr8QzkaEtbuGzMfn3ZfHP335fTdUnlvdkrO-C1OM0w8jOglSrqrmJ26TqMiwYlawzbRAGTFivTGVzeLLlCoZQYad1gFoiEoKe9sFKLcXtHHKS6PIcInb3bRsqNriF16qYKcxL4Jd0oVo9awP7KTIrt3qqHYv_py_NiOJmtgkPLXxDsYhr_HlYT9mOJplm_RIYhX1KbumHNyRzXnXUyUX_Nnq_9z-EHoYUs2zBeEbTA7GI5ROAJF5Gr0-wWr0Q7VKMFw7NtxPkpjRTzSZB6uwJbGSXN2YZwbvMmoYYxYKT1Nbf8uNNiSYiiX67uXQ5CCQMl1mR29xWE4DY6iTc5Vx4Db4c5HFS22m4wCHAq8cPjOxM-0kIuNAi08Cg8oO4aiQ2U4WCfs1F2b5GfhIWiT9_T-QHO3_PNpWUZF6EYJdn0uLL5BwoJPuSgnPVI8cpFHtR1YPqQ7po5OeoSJNqeBhg_vbrL65-QXX5bDbooEMGKRj5dMCx1IO-KXb9cjb7M9LscURCwPqIxPd7HXWsHpogoMoEQikJH18ZaBsX-HihKx7v43yzeU4UcYZaUaIUjrnEbLkj4HSQLw70dyqWP7R33TseZParqDxI1jrA1OVBEkirjc5_-X3OXVhMj9vVYVXUanw5gvBV2BrJog86sreezqhEdDGjMPrNifpt9zsvwaul-_BiUVQ-xdclkvvjv6pTso8IEygTVG2B8EVqxfzK7nuEXrgTGb2fUABs_OaF4x5bHZ5AvAHHtoodXvqQeXoJq1WRQe3CylJ7zbNE8HHcsF-RXZr7G9kpoxYZv07Z-YWZD_5ncNN-fJmDl3mYbLa3uB48A-r8seMguoa_i5-Z6wkJull3DgS0LxKBiU8oZaAt3YbHZ3MESd]--></g></svg>