<svg xmlns="http://www.w3.org/2000/svg" xmlns:xlink="http://www.w3.org/1999/xlink" contentStyleType="text/css" data-diagram-type="MINDMAP" height="100px" preserveAspectRatio="none" style="width:934px;height:100px;" version="1.1" viewBox="0 0 934 100" width="934px" zoomAndPan="magnify"><defs/><g><polygon fill="#4051B5" points="368.6855,31.2969,368.6855,31.5071,378.55,30.8826,388.4144,31.4902,398.2788,31.6966,408.1432,30.5835,418.0076,31.2192,427.8721,30.8704,437.7365,30.9134,447.6009,31.2287,457.4653,30.6055,467.3298,31.8505,477.1942,30.6666,487.0586,31.0991,496.923,31.7288,506.7874,31.2111,516.6519,31.3651,526.5163,31.2649,536.3807,31.4754,546.2451,31.2969,546.2756,31.3705,546.8855,31.7116,547.4621,31.9722,548.0288,32.209,548.5403,32.3125,549.0735,32.4684,549.2163,32.5276,549.5241,33.1237,549.3201,33.5078,549.9854,34.2521,549.9195,34.6934,550.2451,35.2969,550.4231,35.2969,550.0801,40.9563,550.2223,46.6156,550.4923,52.275,550.2289,57.9344,550.2451,63.5938,550.2775,63.6072,550.1151,64.2026,549.9047,64.7782,549.541,65.2903,549.3963,65.8931,549.0735,66.4222,549.0005,66.2459,548.5441,66.7441,548.0121,67.0596,547.4332,67.262,546.889,67.5482,546.2451,67.5938,546.2451,67.1107,536.3807,66.9416,526.5163,66.9723,516.6519,67.5349,506.7874,67.3972,496.923,68.2752,487.0586,67.4191,477.1942,67.2507,467.3298,67.822,457.4653,66.9269,447.6009,67.0746,437.7365,68.2427,427.8721,68.0294,418.0076,68.3282,408.1432,67.272,398.2788,67.9129,388.4144,68.1842,378.55,67.1213,368.6855,67.5938,368.6733,67.5642,368.1359,67.3982,367.6373,67.3258,366.988,66.8895,366.4818,66.7989,365.8571,66.4222,365.6866,66.3515,365.4142,65.7701,365.5436,65.355,364.9334,64.6337,365.0766,64.2244,364.6855,63.5938,364.7544,63.5938,364.5962,57.9344,364.5676,52.275,364.8385,46.6156,364.5858,40.9563,364.6855,35.2969,364.8678,35.3724,364.7496,34.6607,365.3443,34.2443,365.5376,33.6616,365.6982,33.0654,365.8571,32.4684,365.8631,32.483,366.5155,32.4579,367.0668,32.1888,367.5758,31.8176,368.1541,31.6138,368.6855,31.2969" style="stroke:#FF6F00;stroke-width:1.5;"/><a href="/use-case/construction-project-quotations/proposal-submission-and-negotiation/" target="_top" title="/use-case/construction-project-quotations/proposal-submission-and-negotiation/" xlink:actuate="onRequest" xlink:href="/use-case/construction-project-quotations/proposal-submission-and-negotiation/" xlink:show="new" xlink:title="/use-case/construction-project-quotations/proposal-submission-and-negotiation/" xlink:type="simple"><text fill="#90EE90" font-family="'Roboto'" font-size="14" lengthAdjust="spacing" textLength="161.1094" x="374.6855" y="54.292">Proposal &amp; Negotiation</text></a><a href="/use-case/construction-project-quotations/proposal-submission-and-negotiation/proposal-document-generation/" target="_top" title="/use-case/construction-project-quotations/proposal-submission-and-negotiation/proposal-document-generation/" xlink:actuate="onRequest" xlink:href="/use-case/construction-project-quotations/proposal-submission-and-negotiation/proposal-document-generation/" xlink:show="new" xlink:title="/use-case/construction-project-quotations/proposal-submission-and-negotiation/proposal-document-generation/" xlink:type="simple"><text fill="#90EE90" font-family="'Roboto'" font-size="14" lengthAdjust="spacing" textLength="306.8037" x="607.2451" y="27.9951">Proposal Document Generation &amp; Assembly</text></a><path d="M550.2451,49.4453 L550.2451,49.6321 L552.2451,49.077 L554.2451,49.6171 L556.2451,49.8006 L558.2451,48.8112 L560.2451,49.4453 L560.2451,49.4453 L560.2224,49.4193 L563.1202,46.6731 L566.1328,44.0578 L569.2251,41.5335 L572.0426,38.6955 L575.2451,36.2969 L575.4073,36.4819 L578.0605,33.4565 L581.1872,30.9714 L584.3717,28.5522 L587.22,25.7495 L590.2451,23.1484 L590.2451,23.2091 L592.2451,23.12 L594.2451,23.3071 L596.2451,23.361 L598.2451,23.6691 L600.2451,23.1484" fill="none" style="stroke:#FF9900;stroke-width:1;"/><a href="/use-case/construction-project-quotations/proposal-submission-and-negotiation/compliance-matrix-and-submission-packaging/" target="_top" title="/use-case/construction-project-quotations/proposal-submission-and-negotiation/compliance-matrix-and-submission-packaging/" xlink:actuate="onRequest" xlink:href="/use-case/construction-project-quotations/proposal-submission-and-negotiation/compliance-matrix-and-submission-packaging/" xlink:show="new" xlink:title="/use-case/construction-project-quotations/proposal-submission-and-negotiation/compliance-matrix-and-submission-packaging/" xlink:type="simple"><text fill="#90EE90" font-family="'Roboto'" font-size="14" lengthAdjust="spacing" textLength="307.2344" x="607.2451" y="54.292">Compliance Matrix &amp; Submission Packaging</text></a><path d="M550.2451,49.4453 L550.2451,49.6321 L552.2451,49.077 L554.2451,49.6171 L556.2451,49.8006 L558.2451,48.8112 L560.2451,49.4453 L560.2451,49.4453 L560.2451,49.4108 L566.2451,49.2558 L572.2451,49.2749 L578.2451,49.415 L584.2451,49.138 L590.2451,49.4453 L590.2451,49.9374 L592.2451,48.8851 L594.2451,49.2695 L596.2451,49.8293 L598.2451,49.3691 L600.2451,49.4453" fill="none" style="stroke:#FF9900;stroke-width:1;"/><a href="/use-case/construction-project-quotations/proposal-submission-and-negotiation/negotiation-support-and-revisions/" target="_top" title="/use-case/construction-project-quotations/proposal-submission-and-negotiation/negotiation-support-and-revisions/" xlink:actuate="onRequest" xlink:href="/use-case/construction-project-quotations/proposal-submission-and-negotiation/negotiation-support-and-revisions/" xlink:show="new" xlink:title="/use-case/construction-project-quotations/proposal-submission-and-negotiation/negotiation-support-and-revisions/" xlink:type="simple"><text fill="#90EE90" font-family="'Roboto'" font-size="14" lengthAdjust="spacing" textLength="227.3564" x="607.2451" y="80.5889">Negotiation Support &amp; Revisions</text></a><path d="M550.2451,49.4453 L550.2451,49.6321 L552.2451,49.077 L554.2451,49.6171 L556.2451,49.8006 L558.2451,48.8112 L560.2451,49.4453 L560.2451,49.4453 L560.2224,49.4193 L563.1202,51.9325 L566.1328,54.5765 L569.2251,57.3116 L572.0426,59.733 L575.2451,62.5938 L575.4073,62.7788 L578.0605,65.0128 L581.1872,67.787 L584.3717,70.6272 L587.22,73.0838 L590.2451,75.7422 L590.2451,75.8028 L592.2451,75.7138 L594.2451,75.9009 L596.2451,75.9548 L598.2451,76.2628 L600.2451,75.7422" fill="none" style="stroke:#FF9900;stroke-width:1;"/><a href="/use-case/construction-project-quotations/" target="_top" title="/use-case/construction-project-quotations/" xlink:actuate="onRequest" xlink:href="/use-case/construction-project-quotations/" xlink:show="new" xlink:title="/use-case/construction-project-quotations/" xlink:type="simple"><text fill="#90EE90" font-family="'Roboto'" font-size="14" lengthAdjust="spacing" textLength="289.2354" x="14" y="54.292">Complex Construction Project Quotations</text></a><path d="M364.6855,49.4453 L364.6855,49.6321 L362.6855,49.077 L360.6855,49.6171 L358.6855,49.8006 L356.6855,48.8112 L354.6855,49.4453 L354.6855,49.4453 L354.6855,49.4108 L348.6855,49.2558 L342.6855,49.2749 L336.6855,49.415 L330.6855,49.138 L324.6855,49.4453 L324.6855,49.9374 L322.6855,48.8851 L320.6855,49.2695 L318.6855,49.8293 L316.6855,49.3691 L314.6855,49.4453" fill="none" style="stroke:#FF9900;stroke-width:1;"/><!--SRC=[xLXjJzj84FxkNx5NfACLbv9Gg5fKLOGGQ25lbq2bKrMXZRr9zcBlkhlhGExK_zwn7Jjh9t5UY7jm8f_0- -mppyo-pSo9L5WeXpBBmQvX_6QH7cK4dLxSrikV6xULPgtPHi5lvx1uLEeUwP1EjT9id9NRVqrmSo2jSkMgV56DYMOWpVPPjQtRGJkztjjUiHX3pfkDwmGWWFW_mv13obmii8Ews1ps1VUOLU4s5n5G2Sma80XJ6lZJs2MYHjbGnw8Tc_O7gYy8OOQnYoWpRSyYI0q8wXD61BPHJ25H3oPskHhyWO9f23CBMLWCOQRYY8-8k1DK4NH7rI3ae2F2a2HAKTQNwGXSV_fSkMfKEnrKWcNWhgASeG6G-YmA9lQmBOdcGmjR5X2XG-rRE_HVW5ZqJllU6M2Bt_deD4iG2HiYSSEiu0yoWMYOCzB3dgtGlyOvPwg17O9Uj3dupby4Ny8WJfSf-DYX_n1KEZH-w4nb8VWTyCoTCPz6ZMs84RUj99CBoutxPA9fPkffQZSazhDnoWKuEndHDY2Oc5fWt5g7Fh7HLxDWSiVb37OccDbGy5nrOSmynpv8nip22dUn95isbx1XsjopSZN0RPkO_kcGMpSpjL81WE1sZXPEVKeinZcQg395LPu6A5D4zB19ShJH8TyzmapIWcUAcjJ5J8LarmDg3XcH4YxCALnEuA18dv4fRePwZauDCxsM61SEjjDZC-xKQ8_0OqCMaiU0J9d1vJb37dnTo1oCpXKLZ4nZ-COecugB9Ge2o49R_kYY0xoBAeV8ZneyGl3FpjAVVkO577ZC-ZRvy05UAydPnu-mlXtOV8GhUC0MlXxRUXVIEoxzPYUlA4qkkGUH3DktszUTIhvo42_7KX7dwSLw-xfpYdNq83-DK4_LFhr8QzkaEtbuGzMfn3ZfHP335fTdUnlvdkrO-C1OM0w8jOglSrqrmJ26TqMiwYlawzbRAGTFivTGVzeLLlCoZQYad1gFoiEoKe9sFKLcXtHHKS6PIcInb3bRsqNriF16qYKcxL4Jd0oVo9awP7KTIrt3qqHYv_py_NiOJmtgkPLXxA6lNz6-9qd1XEE_3xjAAk45ENZ15Vnls725xnw7vV6pydtuv7A9xOBqkWwLqeT17LjWfCyL3K3xg3K1eTzHO_eTVVjcxEtTRjzUZB6uwJbGSXN2YZubvcmoYYxYKH1Obf8uNNkScpg_4BGfXhIru63OHFS1GfiGLhkmB_QXCecmg1vWGM0dHg9MXCnDhFOtm5oN2nLW11bH6R0aLhGJGa1bEmBuqWg5DQM5ZfDxlpIBWVxA-K3qPmpqoKy8dAgefNMIx73bs39wnCsPw6vOiJEZm-SGhD6JYI-b1TVN_CigemlpKCAifaiMnwo23TeiwnbOgR7o4ChCLigwnAiqJpRdp6YNR4wwi46oEMLMIsHprboQ896S1UsFIDdQdO_8WNbjZuXqKSSZqgJrEkBqAjteYBXIFOu4Vcc38pQORct4xCckXdQGDcfGBBvPrzajiul_q0R4hzQrf7BypyBq67Ijt1RunMeULP2sMj57EjRqPg7gpEgzb6UvlcrFKl7_NvVZppNtSytzN7Dle-PksP0HtjHhQ0HPXp-dzFgWU73qkbJg4eLBnPStRCZu7GkgCGfNfQ8EUMMyl6ZLaEIUW41RL8Rd5wQ_CYxn2AEsntpSCMgwX5sUNKKV88yVKS6PlukCoo_rAU3jOU6KAaYV1GX1N-f6L2rNcSdz0lqOtLoV5zuPDRY2FQXTZn4KyXKuyKgCOQpp4m00]--></g></svg>