<svg xmlns="http://www.w3.org/2000/svg" xmlns:xlink="http://www.w3.org/1999/xlink" contentStyleType="text/css" data-diagram-type="MINDMAP" height="97px" preserveAspectRatio="none" style="width:879px;height:97px;" version="1.1" viewBox="0 0 879 97" width="879px" zoomAndPan="magnify"><defs/><g><polygon fill="#4051B5" points="347.708,30.1328,347.708,30.343,357.4571,29.7185,367.2061,30.3261,376.9552,30.5325,386.7042,29.4194,396.4533,30.0551,406.2023,29.7063,415.9514,29.7493,425.7004,30.0647,435.4495,29.4414,445.1985,30.6865,454.9476,29.5025,464.6966,29.935,474.4457,30.5648,484.1947,30.047,493.9438,30.2011,503.6928,30.1009,513.4419,30.1328,513.4647,30.1878,514.0381,30.4408,514.648,30.7818,515.2246,31.0424,515.7913,31.2793,516.2703,31.3044,516.3487,31.3369,516.6474,31.9292,516.9552,32.5253,516.7512,32.9094,517.4165,33.6537,517.4419,34.1328,517.3431,34.1328,517.6198,39.5594,517.2769,44.9859,517.4191,50.4125,517.6891,55.8391,517.4419,61.2656,517.4269,61.2594,517.24,61.8447,517.0775,62.4402,516.8671,63.0158,516.5034,63.5279,516.2703,64.0941,516.307,64.1825,515.6316,64.1521,515.1752,64.6503,514.6432,64.9658,514.0643,65.1682,513.4419,65.2656,513.4419,65.8786,503.6928,64.7825,493.9438,64.6134,484.1947,64.6442,474.4457,65.2067,464.6966,65.0691,454.9476,65.947,445.1985,65.0909,435.4495,64.9226,425.7004,65.4939,415.9514,64.5988,406.2023,64.7465,396.4533,65.9146,386.7042,65.7013,376.9552,66.0001,367.2061,64.9438,357.4571,65.5848,347.708,65.2656,347.7833,65.4475,347.0821,64.8858,346.5644,64.7675,346.027,64.6015,345.5284,64.5291,344.8796,64.0941,344.8783,64.0935,344.7877,63.5874,344.2404,62.892,343.9681,62.3106,344.0974,61.8956,343.708,61.2656,343.469,61.2656,343.8777,55.8391,343.7769,50.4125,343.6187,44.9859,343.5901,39.5594,343.708,34.1328,343.8493,34.1913,343.8501,33.5289,344.3589,33.0769,344.2407,32.3652,344.8354,31.9488,344.8796,31.3044,344.9414,31.4535,345.4765,31.1455,346.017,30.8503,346.6693,30.8252,347.2206,30.5561,347.708,30.1328" style="stroke:#FF6F00;stroke-width:1.5;"/><a href="/use-case/construction-project-quotations/proposal-submission-and-negotiation/" target="_top" title="/use-case/construction-project-quotations/proposal-submission-and-negotiation/" xlink:actuate="onRequest" xlink:href="/use-case/construction-project-quotations/proposal-submission-and-negotiation/" xlink:show="new" xlink:title="/use-case/construction-project-quotations/proposal-submission-and-negotiation/" xlink:type="simple"><text fill="#4051B5" font-family="'Roboto'" font-size="13" lengthAdjust="spacing" textLength="149.6016" x="353.708" y="52.1997">Proposal &amp; Negotiation</text></a><a href="/use-case/construction-project-quotations/proposal-submission-and-negotiation/proposal-document-generation/" target="_top" title="/use-case/construction-project-quotations/proposal-submission-and-negotiation/proposal-document-generation/" xlink:actuate="onRequest" xlink:href="/use-case/construction-project-quotations/proposal-submission-and-negotiation/proposal-document-generation/" xlink:show="new" xlink:title="/use-case/construction-project-quotations/proposal-submission-and-negotiation/proposal-document-generation/" xlink:type="simple"><text fill="#4051B5" font-family="'Roboto'" font-size="13" lengthAdjust="spacing" textLength="284.8892" x="574.4419" y="27.0669">Proposal Document Generation &amp; Assembly</text></a><path d="M517.4419,47.6992 L517.4419,47.886 L519.4419,47.3309 L521.4419,47.871 L523.4419,48.0545 L525.4419,47.0651 L527.4419,47.6992 L527.4419,47.6992 L527.4197,47.6727 L530.3202,45.0406 L533.3324,42.542 L536.4224,40.1362 L539.2446,37.4106 L542.4419,35.1328 L542.5999,35.3214 L545.262,32.4048 L548.3854,30.0389 L551.5652,27.7401 L554.4174,25.0505 L557.4419,22.5664 L557.4419,22.6271 L559.4419,22.538 L561.4419,22.7251 L563.4419,22.779 L565.4419,23.087 L567.4419,22.5664" fill="none" style="stroke:#FF6F00;stroke-width:1;"/><a href="/use-case/construction-project-quotations/proposal-submission-and-negotiation/compliance-matrix-and-submission-packaging/" target="_top" title="/use-case/construction-project-quotations/proposal-submission-and-negotiation/compliance-matrix-and-submission-packaging/" xlink:actuate="onRequest" xlink:href="/use-case/construction-project-quotations/proposal-submission-and-negotiation/compliance-matrix-and-submission-packaging/" xlink:show="new" xlink:title="/use-case/construction-project-quotations/proposal-submission-and-negotiation/compliance-matrix-and-submission-packaging/" xlink:type="simple"><text fill="#4051B5" font-family="'Roboto'" font-size="13" lengthAdjust="spacing" textLength="285.2891" x="574.4419" y="52.1997">Compliance Matrix &amp; Submission Packaging</text></a><path d="M517.4419,47.6992 L517.4419,47.886 L519.4419,47.3309 L521.4419,47.871 L523.4419,48.0545 L525.4419,47.0651 L527.4419,47.6992 L527.4419,47.6992 L527.4419,47.6647 L533.4419,47.5097 L539.4419,47.5288 L545.4419,47.6689 L551.4419,47.3919 L557.4419,47.6992 L557.4419,48.1913 L559.4419,47.139 L561.4419,47.5234 L563.4419,48.0832 L565.4419,47.623 L567.4419,47.6992" fill="none" style="stroke:#FF6F00;stroke-width:1;"/><a href="/use-case/construction-project-quotations/proposal-submission-and-negotiation/negotiation-support-and-revisions/" target="_top" title="/use-case/construction-project-quotations/proposal-submission-and-negotiation/negotiation-support-and-revisions/" xlink:actuate="onRequest" xlink:href="/use-case/construction-project-quotations/proposal-submission-and-negotiation/negotiation-support-and-revisions/" xlink:show="new" xlink:title="/use-case/construction-project-quotations/proposal-submission-and-negotiation/negotiation-support-and-revisions/" xlink:type="simple"><text fill="#4051B5" font-family="'Roboto'" font-size="13" lengthAdjust="spacing" textLength="211.1167" x="574.4419" y="77.3325">Negotiation Support &amp; Revisions</text></a><path d="M517.4419,47.6992 L517.4419,47.886 L519.4419,47.3309 L521.4419,47.871 L523.4419,48.0545 L525.4419,47.0651 L527.4419,47.6992 L527.4419,47.6992 L527.4197,47.6727 L530.3202,50.0672 L533.3324,52.5951 L536.4224,55.2158 L539.2446,57.5168 L542.4419,60.2656 L542.5999,60.4542 L545.262,62.5642 L548.3854,65.2248 L551.5652,67.9526 L554.4174,70.2895 L557.4419,72.832 L557.4419,72.8927 L559.4419,72.8036 L561.4419,72.9907 L563.4419,73.0446 L565.4419,73.3526 L567.4419,72.832" fill="none" style="stroke:#FF6F00;stroke-width:1;"/><a href="/use-case/construction-project-quotations/" target="_top" title="/use-case/construction-project-quotations/" xlink:actuate="onRequest" xlink:href="/use-case/construction-project-quotations/" xlink:show="new" xlink:title="/use-case/construction-project-quotations/" xlink:type="simple"><text fill="#4051B5" font-family="'Roboto'" font-size="13" lengthAdjust="spacing" textLength="268.5757" x="14" y="52.1997">Complex Construction Project Quotations</text></a><path d="M343.708,47.6992 L343.708,47.886 L341.708,47.3309 L339.708,47.871 L337.708,48.0545 L335.708,47.0651 L333.708,47.6992 L333.708,47.6992 L333.708,47.6647 L327.708,47.5097 L321.708,47.5288 L315.708,47.6689 L309.708,47.3919 L303.708,47.6992 L303.708,48.1913 L301.708,47.139 L299.708,47.5234 L297.708,48.0832 L295.708,47.623 L293.708,47.6992" fill="none" style="stroke:#FF6F00;stroke-width:1;"/><!--SRC=[xLXhRzis5FskNy4rmD8YTHEdIL44HH77URI94tjsqc4eYe2MQ9kpHAeaPSSRzjztgRTaItx4xfAX_fI8H-UUIrBalUTOAYoKGvdbODSmVh58ZpA2JYxkhskVR-xhpKQpZVpVri7UORLxc8PqpkhDczDQ-uyGDmFIgjMlQXTdCT4KfDa-FMkduw2jNkzTRsylXfmtRsup01-YVp6arcutVyzY8XP33YbpiS0Ewc9ps1VSOrQTsroWBIKmap16c4h1FarS8cpAXY4gL6ni8yfCsxC8KWE2-eGHWMqKloTH3z1ThWQlaKtx0uKmiv25nH3UL1pn4H5ZGHL1Owe60GST4OOaKOgolipFoUsdp_MhcxDE1rLXORYhA6Te0AIQHS6BFMnBaXBUmfO5HEWWzQmTf2j0B7gVUjuPO8kFDJhF4gT_nop_3n92KfXJqiEUhT3VnZbdwWOx1BreSyYTl_2V13ENB9p_i4F_8gXwOFoJPge9mSV0C_EDsJHgOiCSSTlAChcmkhXFGarJhvxa5Z-pmuqJBY3PS2Ir9I544e5nQndwpDPVB8B97PSps8uGPaN1CzK5S-OvzdvspYoiS1TBikPmcHYcpJrhem6uRHDJVnroxM6IA7K026vlCCA9fiHYii4GPqnHjSa0b2aYUjWa6upH8TyzmapIWekBcjJ5J0LajmDg3XcH4WxC12v3E2XAlr4gRefwXiuK9ZcM61SEjlDZK-aqQ8yqu6Gj98y1fJBzmtEAt7zQoEoFpXJbZoHp-DQecOgBEGfyI64iFLhq0M-Z-W7IimQN4FopDVUN_kO5VF2OzMtouGFSLfApZnzXVJkm-GXNS84LtXxhkXVoEov_PsUFg9HSyW0Y6RRlrwyxLuvjGBoSI4MSvpVNwzUzeRcEBkJdCTM9skStqwbjqWqlta1rhZ3EPk7Ni7lpgxsLSYzFBBXWB2m7n5earvcfcX0OmxqY5iqLwlNohRI1JCkNSEas96hWafpU1lTF4peoGQ6cjq8UtS25hR1Vx4jKGOudbQxB2S8zI3MAcMiBKj72rhImnqdrgaKYqwL4CXcvsXqQTpM_p9fzqoibQDTJfBWEcDPQqi1agdqivMggoW9ie-jmNQHBJDgZ9kJlbmwmHEE1xgeLd45GVqgzeFxYlKPTsoEmTemHNOX8n3sbXwTRkZMhJVXnjgQ2HjxOGL-_ebrFaee9H-Sko9DAU7x_Kd45_nEqLhvx75PNTpIxyCZb4jiLwNKTAgM6OMPL6EbpHNtGBcg58FGhkacUes_VZ9sT-_N7Yp4MDpq7sjLAu8Ran9o6e-WY7WM1DIc9qxKd6rEdcsYROYZvAmw6ZVxW8r8l14u1x9rTwEeYBBhsiI2m4oDHAq9kJ6pgRu2vBXVAnmWoej9doQne9u20odO4qD8gbIMb1OcJ1ztMna2zSXg8Vek1cloOm9SN6OJ7MRzmVUxQ4_QneYDzGHCh3Pz1i8Hz5RsNFvwYIKkVGP7VMMfOFPQmp9yguvXMi88ZjLo0XJoenr2MkaxB4Y_YCwtEMU8ihKvQw2MjJbdc7gtEkX6_A99Ju1H5ofOsYQ84PZb44McHEHHfIXLm4TsK9nHnvUoW37wk5nG7pBj0CNlM04fzI2jvESKdwpAxPNhn7-lL_6XTSvhi_soQdeAkXHsK7wpcIKtIMisFICUIsHIgBZKwgfjqDjQTIMx-r-LSh6mzpBWlrsOxf9boTycqsv2vPcRDNBu4NS1XA1OmbxB01NW4uy- -_sVV_x_g-risbAbtrmqqWb98lrDzix-tV_YcMkqIXQjxB-_OaF4nyrj42kU8eWvvPRoyQ3MGv9w0YRQe30u2UFsLSOb76BKzfd57gEaITdbw5Js0vc941MTw5ncNNwuJmBk3oWbLKDCB48A-N1lHINh6JAvTWoDqTtjUUMyqu5xmeA4-GeJ1yGUyOW9ZdNy1]--></g></svg>