<svg xmlns="http://www.w3.org/2000/svg" xmlns:xlink="http://www.w3.org/1999/xlink" contentStyleType="text/css" data-diagram-type="MINDMAP" height="202px" preserveAspectRatio="none" style="width:845px;height:202px;" version="1.1" viewBox="0 0 845 202" width="845px" zoomAndPan="magnify"><defs/><g><a href="/use-case/construction-project-quotations/estimating-and-pricing/" target="_top" title="/use-case/construction-project-quotations/estimating-and-pricing/" xlink:actuate="onRequest" xlink:href="/use-case/construction-project-quotations/estimating-and-pricing/" xlink:show="new" xlink:title="/use-case/construction-project-quotations/estimating-and-pricing/" xlink:type="simple"><text fill="#4051B5" font-family="'Roboto'" font-size="13" lengthAdjust="spacing" textLength="131.9741" x="350.708" y="104.8989">Estimating &amp; Pricing</text></a><polygon fill="#4051B5" points="544.8145,20,544.8145,20.2102,554.7453,19.5857,564.6762,20.1933,574.6071,20.3997,584.538,19.2866,594.4689,19.9223,604.3998,19.5735,614.3307,19.6165,624.2616,19.9318,634.1925,19.3086,644.1234,20.5536,654.0543,19.3697,663.9852,19.8022,673.9161,20.4319,683.847,19.9142,693.7779,20.0682,703.7088,19.9681,713.6397,20.1785,723.5706,20.2391,733.5015,20.5857,743.4324,20.6711,753.3633,20,753.4499,20.2092,753.9614,20.3127,754.5538,20.6114,755.1499,20.9192,755.534,20.7152,756.1917,21.1716,756.4007,21.2581,756.3347,21.6994,756.8247,22.371,756.7422,22.8055,757.1079,23.4256,757.3633,24,757.6105,24,757.347,29.4266,757.3984,34.8531,757.4762,40.2797,757.502,45.7063,757.3633,51.1328,757.3621,51.1323,757.2174,51.7351,756.7184,52.1912,756.7479,52.8661,756.5948,53.4655,756.1917,53.9612,756.2484,54.0981,755.7042,54.3843,754.9987,54.2811,754.4115,54.4633,753.8497,54.7071,753.3633,55.1328,753.3633,55.0739,743.4324,54.9363,733.5015,55.8142,723.5706,54.9581,713.6397,54.7898,703.7088,55.3611,693.7779,54.466,683.847,54.6137,673.9161,55.7818,663.9852,55.5685,654.0543,55.8673,644.1234,54.811,634.1925,55.452,624.2616,55.7232,614.3307,54.6604,604.3998,55.037,594.4689,55.2588,584.538,55.7846,574.6071,55.1286,564.6762,55.5954,554.7453,54.579,544.8145,55.1328,544.7281,54.9242,544.313,55.0536,543.5916,54.4434,543.1823,54.5866,542.5781,54.2592,541.986,53.9612,541.9035,53.9271,541.6428,53.3504,541.6587,52.8884,541.1909,52.226,541.231,51.774,540.8145,51.1328,540.6302,51.1328,541.0203,45.7063,540.9759,40.2797,540.8961,34.8531,540.8302,29.4266,540.8145,24,541.0382,24.0927,541.2377,23.5126,541.3352,22.8902,541.6,22.3372,541.7116,21.7206,541.986,21.1716,542.0774,21.3922,542.5715,20.985,543.1394,20.7561,543.6055,20.2813,544.1971,20.1095,544.8145,20" style="stroke:#FF6F00;stroke-width:1.5;"/><a href="/use-case/construction-project-quotations/estimating-and-pricing/quantity-takeoff/" target="_top" title="/use-case/construction-project-quotations/estimating-and-pricing/quantity-takeoff/" xlink:actuate="onRequest" xlink:href="/use-case/construction-project-quotations/estimating-and-pricing/quantity-takeoff/" xlink:show="new" xlink:title="/use-case/construction-project-quotations/estimating-and-pricing/quantity-takeoff/" xlink:type="simple"><text fill="#4051B5" font-family="'Roboto'" font-size="13" lengthAdjust="spacing" textLength="192.4165" x="550.8145" y="42.0669">Quantity Takeoff (2D/3D/BIM)</text></a><path d="M490.8145,100.3984 L490.8145,100.5853 L492.8145,100.0302 L494.8145,100.5702 L496.8145,100.7537 L498.8145,99.7643 L500.8145,100.3984 L500.8145,100.3984 L500.7889,100.3752 L502.4553,98.3076 L504.2507,96.3569 L506.1358,94.4876 L507.7119,92.338 L509.7207,90.5809 L509.955,90.656 L510.0985,88.4829 L510.9261,86.5289 L511.8371,84.6017 L512.2625,82.519 L512.9434,80.518 L512.9728,80.5253 L513.5038,78.2074 L514.1688,75.9229 L514.7692,73.6223 L515.4928,71.3524 L515.8145,68.9824 L516.1039,69.0545 L516.6816,66.7482 L517.0727,64.3955 L517.737,62.1108 L518.4142,59.8293 L518.6855,57.4469 L518.3803,57.3491 L519.6173,55.5262 L519.8491,53.3815 L520.8451,51.4814 L521.0541,49.3294 L521.9082,47.3839 L521.8857,47.3635 L523.9336,45.6419 L525.4547,43.4424 L527.2866,41.5249 L529.1447,39.631 L530.8145,37.5664 L530.8145,37.9364 L532.8145,37.5629 L534.8145,37.8217 L536.8145,37.0576 L538.8145,37.8192 L540.8145,37.5664" fill="none" style="stroke:#FF6F00;stroke-width:1;"/><a href="/use-case/construction-project-quotations/estimating-and-pricing/unit-rates-and-cost-libraries/" target="_top" title="/use-case/construction-project-quotations/estimating-and-pricing/unit-rates-and-cost-libraries/" xlink:actuate="onRequest" xlink:href="/use-case/construction-project-quotations/estimating-and-pricing/unit-rates-and-cost-libraries/" xlink:show="new" xlink:title="/use-case/construction-project-quotations/estimating-and-pricing/unit-rates-and-cost-libraries/" xlink:type="simple"><text fill="#4051B5" font-family="'Roboto'" font-size="13" lengthAdjust="spacing" textLength="175.043" x="547.8145" y="82.1997">Unit Rates &amp; Cost Libraries</text></a><path d="M490.8145,100.3984 L490.8145,100.5853 L492.8145,100.0302 L494.8145,100.5702 L496.8145,100.7537 L498.8145,99.7643 L500.8145,100.3984 L500.8145,100.3984 L500.7936,100.3709 L503.7001,97.9774 L506.7116,95.7227 L509.7962,93.5645 L512.629,91.0737 L515.8145,89.0488 L515.9629,89.2451 L518.6454,86.5555 L521.7614,84.4389 L524.9303,82.3922 L527.7915,79.9387 L530.8145,77.6992 L530.8145,77.7599 L532.8145,77.6708 L534.8145,77.8579 L536.8145,77.9118 L538.8145,78.2198 L540.8145,77.6992" fill="none" style="stroke:#FF6F00;stroke-width:1;"/><a href="/use-case/construction-project-quotations/estimating-and-pricing/labor-productivity-and-crew-modeling/" target="_top" title="/use-case/construction-project-quotations/estimating-and-pricing/labor-productivity-and-crew-modeling/" xlink:actuate="onRequest" xlink:href="/use-case/construction-project-quotations/estimating-and-pricing/labor-productivity-and-crew-modeling/" xlink:show="new" xlink:title="/use-case/construction-project-quotations/estimating-and-pricing/labor-productivity-and-crew-modeling/" xlink:type="simple"><text fill="#4051B5" font-family="'Roboto'" font-size="13" lengthAdjust="spacing" textLength="233.1938" x="547.8145" y="107.3325">Labor Productivity &amp; Crew Modeling</text></a><path d="M490.8145,100.3984 L490.8145,100.5853 L492.8145,100.0302 L494.8145,100.5702 L496.8145,100.7537 L498.8145,99.7643 L500.8145,100.3984 L500.8145,100.3984 L500.8117,100.364 L503.7991,100.4529 L506.8007,100.7153 L509.812,101.0983 L512.7896,101.0656 L515.8145,101.6152 L515.8343,101.8605 L518.7918,101.5794 L521.8073,102.0143 L524.83,102.5367 L527.8114,102.5507 L530.8145,102.832 L530.8145,102.8927 L532.8145,102.8036 L534.8145,102.9907 L536.8145,103.0446 L538.8145,103.3526 L540.8145,102.832" fill="none" style="stroke:#FF6F00;stroke-width:1;"/><a href="/use-case/construction-project-quotations/estimating-and-pricing/indirects-overheads-general-conditions/" target="_top" title="/use-case/construction-project-quotations/estimating-and-pricing/indirects-overheads-general-conditions/" xlink:actuate="onRequest" xlink:href="/use-case/construction-project-quotations/estimating-and-pricing/indirects-overheads-general-conditions/" xlink:show="new" xlink:title="/use-case/construction-project-quotations/estimating-and-pricing/indirects-overheads-general-conditions/" xlink:type="simple"><text fill="#4051B5" font-family="'Roboto'" font-size="13" lengthAdjust="spacing" textLength="277.6338" x="547.8145" y="132.4653">Indirects, Overheads &amp; General Conditions</text></a><path d="M490.8145,100.3984 L490.8145,100.5853 L492.8145,100.0302 L494.8145,100.5702 L496.8145,100.7537 L498.8145,99.7643 L500.8145,100.3984 L500.8145,100.3984 L500.7994,100.3673 L502.5132,101.0892 L504.3027,101.9679 L506.145,102.9555 L507.8057,103.5676 L509.7207,104.7057 L509.9277,104.8388 L510.7038,106.4494 L512.0843,108.4485 L513.5384,110.4951 L514.5636,112.2658 L515.8145,114.1816 L515.84,114.198 L517.0213,116.0692 L518.3187,118.0149 L519.5601,119.9247 L520.9084,121.9032 L521.9082,123.6576 L522.0381,123.9261 L523.8209,124.7908 L525.52,125.4824 L527.3417,126.4274 L529.1691,127.3844 L530.8145,127.9648 L530.8145,127.3238 L532.8145,128.568 L534.8145,127.7013 L536.8145,128.4393 L538.8145,127.5248 L540.8145,127.9648" fill="none" style="stroke:#FF6F00;stroke-width:1;"/><a href="/use-case/construction-project-quotations/estimating-and-pricing/contingency-and-escalation/" target="_top" title="/use-case/construction-project-quotations/estimating-and-pricing/contingency-and-escalation/" xlink:actuate="onRequest" xlink:href="/use-case/construction-project-quotations/estimating-and-pricing/contingency-and-escalation/" xlink:show="new" xlink:title="/use-case/construction-project-quotations/estimating-and-pricing/contingency-and-escalation/" xlink:type="simple"><text fill="#4051B5" font-family="'Roboto'" font-size="13" lengthAdjust="spacing" textLength="166.5308" x="547.8145" y="157.5981">Contingency &amp; Escalation</text></a><path d="M490.8145,100.3984 L490.8145,100.5853 L492.8145,100.0302 L494.8145,100.5702 L496.8145,100.7537 L498.8145,99.7643 L500.8145,100.3984 L500.8145,100.3984 L500.791,100.3731 L502.467,101.9061 L504.2612,103.567 L506.1376,105.3167 L507.7309,106.7602 L509.7207,108.6327 L509.9539,108.7111 L510.6739,112.1664 L512.0749,115.8508 L513.5589,119.5631 L514.5596,123.1128 L515.8145,126.748 L515.8432,126.7577 L517.0197,130.3666 L518.3272,134.0195 L519.5714,137.6511 L520.9362,141.3233 L521.9082,144.8634 L522.1107,145.0824 L523.8944,146.7319 L525.5475,148.2402 L527.3918,149.9552 L529.2451,151.68 L530.8145,153.0977 L530.8145,152.4566 L532.8145,153.7008 L534.8145,152.8341 L536.8145,153.5722 L538.8145,152.6576 L540.8145,153.0977" fill="none" style="stroke:#FF6F00;stroke-width:1;"/><a href="/use-case/construction-project-quotations/estimating-and-pricing/pricing-strategy-margin-markups/" target="_top" title="/use-case/construction-project-quotations/estimating-and-pricing/pricing-strategy-margin-markups/" xlink:actuate="onRequest" xlink:href="/use-case/construction-project-quotations/estimating-and-pricing/pricing-strategy-margin-markups/" xlink:show="new" xlink:title="/use-case/construction-project-quotations/estimating-and-pricing/pricing-strategy-margin-markups/" xlink:type="simple"><text fill="#4051B5" font-family="'Roboto'" font-size="13" lengthAdjust="spacing" textLength="222.4854" x="547.8145" y="182.731">Pricing Strategy (Margin/Markups)</text></a><path d="M490.8145,100.3984 L490.8145,100.5853 L492.8145,100.0302 L494.8145,100.5702 L496.8145,100.7537 L498.8145,99.7643 L500.8145,100.3984 L500.8145,100.3984 L500.7866,100.378 L502.4428,102.7187 L504.2394,105.1622 L506.1338,107.6773 L507.6915,109.9459 L509.7207,112.5597 L509.9589,112.6213 L510.094,114.9826 L510.9247,117.5238 L511.8402,120.0869 L512.2619,122.5224 L512.9434,125.025 L512.9731,125.031 L513.5037,127.8801 L514.1696,130.7564 L514.7702,133.6196 L515.4954,136.5078 L515.8145,139.3145 L516.1069,139.3732 L516.6846,142.2318 L517.0738,145.0525 L517.7391,147.9287 L518.4173,150.8075 L518.6855,153.6039 L518.3752,153.5237 L519.622,156.1725 L519.847,158.5571 L520.8488,161.1425 L521.0507,163.5211 L521.9082,166.0692 L521.8836,166.0512 L523.9554,168.6962 L525.4532,170.9209 L527.2897,173.3936 L529.1546,175.8871 L530.8145,178.2305 L530.8145,178.6005 L532.8145,178.227 L534.8145,178.4858 L536.8145,177.7217 L538.8145,178.4833 L540.8145,178.2305" fill="none" style="stroke:#FF6F00;stroke-width:1;"/><a href="/use-case/construction-project-quotations/" target="_top" title="/use-case/construction-project-quotations/" xlink:actuate="onRequest" xlink:href="/use-case/construction-project-quotations/" xlink:show="new" xlink:title="/use-case/construction-project-quotations/" xlink:type="simple"><text fill="#4051B5" font-family="'Roboto'" font-size="13" lengthAdjust="spacing" textLength="268.5757" x="14" y="104.8989">Complex Construction Project Quotations</text></a><path d="M343.708,100.3984 L343.708,100.5853 L341.708,100.0302 L339.708,100.5702 L337.708,100.7537 L335.708,99.7643 L333.708,100.3984 L333.708,100.3984 L333.708,100.3639 L327.708,100.2089 L321.708,100.228 L315.708,100.3681 L309.708,100.0912 L303.708,100.3984 L303.708,100.8906 L301.708,99.8382 L299.708,100.2226 L297.708,100.7824 L295.708,100.3222 L293.708,100.3984" fill="none" style="stroke:#FF6F00;stroke-width:1;"/><!--SRC=[xLZ_RzCu5FyzVuMFISSGXAvZ88GGeklA6BJhhjqudH2QtCHjVKtiOZihutJ_-pqxIPkaIVfbAGVIzal1Vlwyptjs_Fm-RwN2GlcKkJwUMjPlBXbIHj3nwNMdSNP-tUoskpra_lQE3fxN1y-J9lrMitj-qkZz5Tdbc5mqcXyRfwqvq999jtVIwYNzeBtXyCNmu61kygvxVfaoC2RwRsxIwFMwVwPjOXHBJYYROe5zDC3EP2HumDmczxX0UqfW9c6EC9KmUtyx9SAZR19PHOojXuWonmjSWjIOe15XH60FpTT9D0Jh0LVZ9yYZex52cBd8nM82AnL7_8Q8cQ2Ae1bLun23tX26956Aif7CvkJo_LdputchtqTrs1W-LPGpD0PGZQ9WuH1xaYI8Ns3N1I1qb1ZhXU4A88jU9iRxO-pocRREeip3lsAk-GU9J18s9sI80q-XVwntdAbpx1FqeCSXTlx0Z8IPMsoS6UpJxmJLZwn_aqWD8VWCS79NvCEeMmzon3qtZJI5tSKZ4d5QMdgSsVpK2RUEkO1Wevd4aGGN2m-Ckvl0fux-UXuSxayvW-C8RhOadCikp5dWUuVfdBbOuG6Mf69tAH-EnmDtfmwuvn57VnsoSZSBBqqm4DpReOTZ3Od5xGvTj9YYQfSEA5D43B53TkYZJxu6X3da0WeNTUWKCnM2NOwfCs54IhWm5-OoCWT6oHMbv9QWStWcR1RN4kF2nrvsRYcSDXsIDjoiXU1pWrAQvl9S0ZUZXSXcDfUKcLday9dLS1GNAnWOaq9VUhRe0tw8caT8PmsA4FndR-LVyfiNyC5ZDlB8wzTGhIHdRzx0_lRXy16ke80LLe-gwaBsn6LhTlgAIj0btu0amzvrzRmppx4Ta9UtKX7_ryjrzRntbEku8FyQgLwm_VKodJWcWwZmXgmp3-Dq5EODUx3wjRTLxEM1XGN6nN9Ct7LYpGtL0SSOwefODrPuhvSVfHr4Mhw56xSXSGEtYEbPM7-wq9492czwDyBH3LpK2fl7laGsyWEfzBkS83o4K6EVcROWuIrgJGjxd4IlMaGo-PHO92FpTeV6NQr-PkLNUgK47GIA5By3bhcMD32frpwMSZjMPGuUeawqBt9A73ga3iHldWwmHREnxgeLt47m_fHwGytcFK43Bo2mTumH_H2HY0TAJo-tT1MpNU3Zz9iA6ddhyJNw_1dL0abi1-xE6l2JIWIcWR6dWlyDPEsl0OVjrIrDZKX5VQmL0XjwVx20XoKRrL1hFev-HnVXAFhonNhyk1Byhm4spOAjy8JmuR26_eX6q6KuWlOFJshFJch7Pvr7eUDg8WiOLRQ0motDiCEbiZqw45XG8cle2gPHJqz3t4sOHEruiaeM7XvmeUrTlVH6PyAm4MHc-t1gFBC9RMq5sLzOQL9WWpgHJPMSu1EW-ZANjXQJnWIxqevqA4WJJ8QhqLbizyJSSSOGU9r6abLpRbebELrQu1TQhJ1JH3hOCqjgfdcEve17QpvJfV_eruQrS3X6jxQFnOWo_JC9ff2L-1lfHmPelsCiQftGmXnYszwG3SJcJptoJSSuDzGdGXl2DnCRQl2t1EwmM6fzcrPUgzCfVs95C2wEQyg1IVCSW0s4m7XTzgAFavQypMFbk5JwkojWcT9NXh7CO0jjRpC7QwbvTu4irUys1Lv7iTiUiqIZsnwqK9NR7h9CXziUTIVAMqodG7EBcMqijyK1v6bjCMYHp1PpIZo5OxWbTIt6oWXhAVkLgjhSOLPFcwEdfRJ4XxILAbPyisvoMfOt_wwgru_cjKAk-D_Iz3FmMbkB-i5iVgeaLIeZnJmsZAQGTQbaLD-bHbHr99dyLwK1RItYvDJBoWIS95AcbYphDgaoavUvx1Dq3QsccC1Ao08zvGw8zmhAlO9ohw3SAoWv2ig51v_JLQUDO8UaNbD_UdXm-FnflJuW2jSFzg_OXF4PCyqsXHiPeYQFhFtJYpQIF13GcRXKXbSgB7zaVS0t6FK2fkrUeUwKi0yd7-C1QDDkgE3CrohCXq-TXS6B8_iOlgW-4K04VUfOSKrgCOTh_UKLkhfyPx-qsb1X0pm2RCAWa02kk8Mv_dy0]--></g></svg>