<svg xmlns="http://www.w3.org/2000/svg" xmlns:xlink="http://www.w3.org/1999/xlink" contentStyleType="text/css" data-diagram-type="MINDMAP" height="209px" preserveAspectRatio="none" style="width:898px;height:209px;" version="1.1" viewBox="0 0 898 209" width="898px" zoomAndPan="magnify"><defs/><g><a href="/use-case/construction-project-quotations/estimating-and-pricing/" target="_top" title="/use-case/construction-project-quotations/estimating-and-pricing/" xlink:actuate="onRequest" xlink:href="/use-case/construction-project-quotations/estimating-and-pricing/" xlink:show="new" xlink:title="/use-case/construction-project-quotations/estimating-and-pricing/" xlink:type="simple"><text fill="#90EE90" font-family="'Roboto'" font-size="14" lengthAdjust="spacing" textLength="142.126" x="371.6855" y="108.7373">Estimating &amp; Pricing</text></a><polygon fill="#4051B5" points="576.2617,20,576.2617,20.2102,586.4284,19.5857,596.5952,20.1933,606.7619,20.3997,616.9286,19.2866,627.0953,19.9223,637.2621,19.5735,647.4288,19.6165,657.5955,19.9318,667.7623,19.3086,677.929,20.5536,688.0957,19.3697,698.2624,19.8022,708.4292,20.4319,718.5959,19.9142,728.7626,20.0682,738.9293,19.9681,749.0961,20.1785,759.2628,20.2391,769.4295,20.5857,779.5962,20.6711,789.763,20.6793,799.9297,20,799.9622,20.0784,800.5545,20.3771,801.1506,20.6849,801.5347,20.4808,802.279,21.1462,802.7581,21.1716,802.6668,21.1338,803.1568,21.8054,803.0743,22.2398,803.44,22.8599,803.9238,23.5289,803.9297,24,803.9134,24,803.9648,29.6594,804.0426,35.3188,804.0684,40.9781,803.9284,46.6375,803.9297,52.2969,804.0181,52.3335,803.5191,52.7895,803.5486,53.4645,803.3956,54.0639,803.1293,54.6163,802.7581,55.1253,802.8363,55.3141,802.1308,55.2108,801.5436,55.3931,800.9818,55.6369,800.4879,56.0444,799.9297,56.2969,799.9297,56.1003,789.763,56.9783,779.5962,56.1222,769.4295,55.9538,759.2628,56.5251,749.0961,55.63,738.9293,55.7777,728.7626,56.9458,718.5959,56.7325,708.4292,57.0314,698.2624,55.9751,688.0957,56.6161,677.929,56.8873,667.7623,55.8245,657.5955,56.201,647.4288,56.4229,637.2621,56.9486,627.0953,56.2927,616.9286,56.7594,606.7619,55.7431,596.5952,55.6196,586.4284,56.8005,576.2617,56.2969,576.1703,56.0761,575.761,56.2193,575.1567,55.8919,574.5305,55.5114,573.9538,55.2507,573.4333,55.1253,573.5746,55.1838,573.1068,54.5214,573.1469,54.0694,572.5601,53.3577,572.6862,52.9413,572.2617,52.2969,572.4232,52.2969,572.3434,46.6375,572.2775,40.9781,572.5039,35.3188,572.4662,29.6594,572.2617,24,572.3138,24.0216,572.5786,23.4685,572.6902,22.852,573.1853,22.3943,573.2467,21.757,573.4333,21.1716,573.4553,21.2247,573.9214,20.7499,574.513,20.5782,575.1981,20.6321,575.7509,20.3667,576.2617,20" style="stroke:#FF6F00;stroke-width:1.5;"/><a href="/use-case/construction-project-quotations/estimating-and-pricing/quantity-takeoff/" target="_top" title="/use-case/construction-project-quotations/estimating-and-pricing/quantity-takeoff/" xlink:actuate="onRequest" xlink:href="/use-case/construction-project-quotations/estimating-and-pricing/quantity-takeoff/" xlink:show="new" xlink:title="/use-case/construction-project-quotations/estimating-and-pricing/quantity-takeoff/" xlink:type="simple"><text fill="#90EE90" font-family="'Roboto'" font-size="14" lengthAdjust="spacing" textLength="207.2178" x="582.2617" y="42.9951">Quantity Takeoff (2D/3D/BIM)</text></a><path d="M522.2617,103.8906 L522.2617,104.0775 L524.2617,103.5223 L526.2617,104.0624 L528.2617,104.2459 L530.2617,103.2565 L532.2617,103.8906 L532.2617,103.8906 L532.2356,103.868 L533.8998,101.712 L535.6954,99.6701 L537.5826,97.7075 L539.1546,95.4716 L541.168,93.6184 L541.4033,93.6904 L541.5446,91.4306 L542.373,89.3811 L543.2851,87.3572 L543.7096,85.184 L544.3906,83.0894 L544.4201,83.0964 L544.951,80.6721 L545.6163,78.2798 L546.2167,75.8721 L546.9407,73.4937 L547.2617,71.0195 L547.5519,71.0886 L548.1296,68.6754 L548.5203,66.2178 L549.1848,63.8253 L549.8622,61.4359 L550.1328,58.9497 L549.8263,58.8559 L551.0657,56.9321 L551.2959,54.6995 L552.2933,52.7017 L552.5006,50.4621 L553.3555,48.4207 L553.3325,48.4007 L555.3858,46.5821 L556.9016,44.2976 L558.7346,42.288 L560.5942,40.3015 L562.2617,38.1484 L562.2617,38.5184 L564.2617,38.145 L566.2617,38.4037 L568.2617,37.6396 L570.2617,38.4012 L572.2617,38.1484" fill="none" style="stroke:#FF9900;stroke-width:1;"/><a href="/use-case/construction-project-quotations/estimating-and-pricing/unit-rates-and-cost-libraries/" target="_top" title="/use-case/construction-project-quotations/estimating-and-pricing/unit-rates-and-cost-libraries/" xlink:actuate="onRequest" xlink:href="/use-case/construction-project-quotations/estimating-and-pricing/unit-rates-and-cost-libraries/" xlink:show="new" xlink:title="/use-case/construction-project-quotations/estimating-and-pricing/unit-rates-and-cost-libraries/" xlink:type="simple"><text fill="#90EE90" font-family="'Roboto'" font-size="14" lengthAdjust="spacing" textLength="188.5078" x="579.2617" y="84.292">Unit Rates &amp; Cost Libraries</text></a><path d="M522.2617,103.8906 L522.2617,104.0775 L524.2617,103.5223 L526.2617,104.0624 L528.2617,104.2459 L530.2617,103.2565 L532.2617,103.8906 L532.2617,103.8906 L532.2399,103.8638 L535.142,101.2991 L538.1541,98.8694 L541.2426,96.5335 L544.0676,93.8743 L547.2617,91.668 L547.4172,91.8587 L550.0848,89.0063 L553.2062,86.7108 L556.383,84.4832 L559.2376,81.8603 L562.2617,79.4453 L562.2617,79.506 L564.2617,79.4169 L566.2617,79.604 L568.2617,79.6579 L570.2617,79.9659 L572.2617,79.4453" fill="none" style="stroke:#FF9900;stroke-width:1;"/><a href="/use-case/construction-project-quotations/estimating-and-pricing/labor-productivity-and-crew-modeling/" target="_top" title="/use-case/construction-project-quotations/estimating-and-pricing/labor-productivity-and-crew-modeling/" xlink:actuate="onRequest" xlink:href="/use-case/construction-project-quotations/estimating-and-pricing/labor-productivity-and-crew-modeling/" xlink:show="new" xlink:title="/use-case/construction-project-quotations/estimating-and-pricing/labor-productivity-and-crew-modeling/" xlink:type="simple"><text fill="#90EE90" font-family="'Roboto'" font-size="14" lengthAdjust="spacing" textLength="251.1318" x="579.2617" y="110.5889">Labor Productivity &amp; Crew Modeling</text></a><path d="M522.2617,103.8906 L522.2617,104.0775 L524.2617,103.5223 L526.2617,104.0624 L528.2617,104.2459 L530.2617,103.2565 L532.2617,103.8906 L532.2617,103.8906 L532.2596,103.8562 L535.25,103.8866 L538.2512,104.0908 L541.2599,104.4159 L544.2428,104.3246 L547.2617,104.8164 L547.2769,105.062 L550.2445,104.722 L553.2563,105.099 L556.2735,105.5635 L559.2594,105.519 L562.2617,105.7422 L562.2617,105.8028 L564.2617,105.7138 L566.2617,105.9009 L568.2617,105.9548 L570.2617,106.2628 L572.2617,105.7422" fill="none" style="stroke:#FF9900;stroke-width:1;"/><a href="/use-case/construction-project-quotations/estimating-and-pricing/indirects-overheads-general-conditions/" target="_top" title="/use-case/construction-project-quotations/estimating-and-pricing/indirects-overheads-general-conditions/" xlink:actuate="onRequest" xlink:href="/use-case/construction-project-quotations/estimating-and-pricing/indirects-overheads-general-conditions/" xlink:show="new" xlink:title="/use-case/construction-project-quotations/estimating-and-pricing/indirects-overheads-general-conditions/" xlink:type="simple"><text fill="#90EE90" font-family="'Roboto'" font-size="14" lengthAdjust="spacing" textLength="298.9902" x="579.2617" y="136.8857">Indirects, Overheads &amp; General Conditions</text></a><path d="M522.2617,103.8906 L522.2617,104.0775 L524.2617,103.5223 L526.2617,104.0624 L528.2617,104.2459 L530.2617,103.2565 L532.2617,103.8906 L532.2617,103.8906 L532.2464,103.8597 L533.959,104.6003 L535.7487,105.4971 L537.5921,106.5024 L539.2507,107.1337 L541.168,108.2888 L541.3762,108.4199 L542.1497,110.0747 L543.5311,112.1124 L544.9867,114.1967 L546.0107,116.0093 L547.2617,117.9648 L547.2874,117.981 L548.4685,119.8925 L549.7664,121.8775 L551.0079,123.8271 L552.357,125.8444 L553.3555,127.6409 L553.4875,127.9083 L555.2704,128.7912 L556.9681,129.5016 L558.7904,130.4645 L560.6187,131.4393 L562.2617,132.0391 L562.2617,131.398 L564.2617,132.6422 L566.2617,131.7755 L568.2617,132.5136 L570.2617,131.599 L572.2617,132.0391" fill="none" style="stroke:#FF9900;stroke-width:1;"/><a href="/use-case/construction-project-quotations/estimating-and-pricing/contingency-and-escalation/" target="_top" title="/use-case/construction-project-quotations/estimating-and-pricing/contingency-and-escalation/" xlink:actuate="onRequest" xlink:href="/use-case/construction-project-quotations/estimating-and-pricing/contingency-and-escalation/" xlink:show="new" xlink:title="/use-case/construction-project-quotations/estimating-and-pricing/contingency-and-escalation/" xlink:type="simple"><text fill="#90EE90" font-family="'Roboto'" font-size="14" lengthAdjust="spacing" textLength="179.3408" x="579.2617" y="163.1826">Contingency &amp; Escalation</text></a><path d="M522.2617,103.8906 L522.2617,104.0775 L524.2617,103.5223 L526.2617,104.0624 L528.2617,104.2459 L530.2617,103.2565 L532.2617,103.8906 L532.2617,103.8906 L532.2379,103.8656 L533.912,105.455 L535.7065,107.1702 L537.5845,108.973 L539.1745,110.4741 L541.168,112.3977 L541.4019,112.4739 L542.1204,116.0541 L543.5219,119.8567 L545.0068,123.6865 L546.0067,127.3584 L547.2617,131.1133 L547.2906,131.1227 L548.467,134.852 L549.7747,138.6241 L551.019,142.3755 L552.3842,146.1663 L553.3555,149.8289 L553.5615,150.0445 L555.3452,151.7486 L556.9961,153.3135 L558.8415,155.0821 L560.696,156.8602 L562.2617,158.3359 L562.2617,157.6949 L564.2617,158.9391 L566.2617,158.0724 L568.2617,158.8104 L570.2617,157.8959 L572.2617,158.3359" fill="none" style="stroke:#FF9900;stroke-width:1;"/><a href="/use-case/construction-project-quotations/estimating-and-pricing/pricing-strategy-margin-markups/" target="_top" title="/use-case/construction-project-quotations/estimating-and-pricing/pricing-strategy-margin-markups/" xlink:actuate="onRequest" xlink:href="/use-case/construction-project-quotations/estimating-and-pricing/pricing-strategy-margin-markups/" xlink:show="new" xlink:title="/use-case/construction-project-quotations/estimating-and-pricing/pricing-strategy-margin-markups/" xlink:type="simple"><text fill="#90EE90" font-family="'Roboto'" font-size="14" lengthAdjust="spacing" textLength="239.5996" x="579.2617" y="189.4795">Pricing Strategy (Margin/Markups)</text></a><path d="M522.2617,103.8906 L522.2617,104.0775 L524.2617,103.5223 L526.2617,104.0624 L528.2617,104.2459 L530.2617,103.2565 L532.2617,103.8906 L532.2617,103.8906 L532.2335,103.8707 L533.8881,106.3045 L535.685,108.8387 L537.5807,111.4427 L539.1357,113.8062 L541.168,116.5066 L541.4067,116.5661 L541.5407,119.0251 L542.3717,121.6579 L543.2878,124.3118 L543.7091,126.8425 L544.3906,129.438 L544.4204,129.4437 L544.9509,132.4 L545.617,135.3825 L546.2176,138.3524 L546.9431,141.3465 L547.2617,144.2617 L547.5545,144.3184 L548.1323,147.2839 L548.5213,150.2127 L549.1867,153.1952 L549.865,156.1801 L550.1328,159.0855 L549.8218,159.008 L551.07,161.7447 L551.294,164.2262 L552.2966,166.9017 L552.4975,169.3774 L553.3555,172.0168 L553.3306,171.9993 L555.406,174.7301 L556.9003,177.0507 L558.7375,179.6134 L560.6034,182.1964 L562.2617,184.6328 L562.2617,185.0028 L564.2617,184.6293 L566.2617,184.8881 L568.2617,184.124 L570.2617,184.8856 L572.2617,184.6328" fill="none" style="stroke:#FF9900;stroke-width:1;"/><a href="/use-case/construction-project-quotations/" target="_top" title="/use-case/construction-project-quotations/" xlink:actuate="onRequest" xlink:href="/use-case/construction-project-quotations/" xlink:show="new" xlink:title="/use-case/construction-project-quotations/" xlink:type="simple"><text fill="#90EE90" font-family="'Roboto'" font-size="14" lengthAdjust="spacing" textLength="289.2354" x="14" y="108.7373">Complex Construction Project Quotations</text></a><path d="M364.6855,103.8906 L364.6855,104.0775 L362.6855,103.5223 L360.6855,104.0624 L358.6855,104.2459 L356.6855,103.2565 L354.6855,103.8906 L354.6855,103.8906 L354.6855,103.8561 L348.6855,103.7011 L342.6855,103.7202 L336.6855,103.8603 L330.6855,103.5833 L324.6855,103.8906 L324.6855,104.3828 L322.6855,103.3304 L320.6855,103.7148 L318.6855,104.2746 L316.6855,103.8144 L314.6855,103.8906" fill="none" style="stroke:#FF9900;stroke-width:1;"/><!--SRC=[xLXjJniv4Fw-ly9Nf0D4jo4KghQgAa8854W8bq2bKrKXPtUI-B9h1ziBfQVxxpVUbsIpUI49cnwSo9S5-_7CC-FnsxElD9NQPzprQT-oVdEXpJYGW-FhMkda_BfShzOR9FojxMxl5LjxQKYpKgwV7vOQVyQu2P2BKlciT5mP61g3r1k7bKRQ3rbhjz-rjxS7aAFw-UK888IOdsMf7kDzAgbFMjJfTQG8k5iMdf09K4lA5IA0wnJuotqVP9NnNXfBrZpMwUgE1E2MjKuOTxp01QAxG3h0GLAF34meqiQ1BQ6xhqauZ53k4fVA7exKWeXRa7UIQI1tJ7SZ6-mME56WDUCTbSt0vPUJyjbvfTaaHPm6qTTCSD95eyQAne5jwYb8nN11NHSDaTrKMoEANo9PyZxLtknILzmPTDPAc0aFCt75tV0FY24fp26qQU1fyhTr9BW-fpwGLms1iOjNOKkKnE4qXOrDzXD8STVw9ssf9AMuGpiJHqmse-yzp97mt55BVPnkse6OqzZGWqmrZDIpTI0a1Xltf0eGNGmzSE4kOdwaqEVpu0Y_BpXM9hfPal14Tb7E0j_R6SsPIpLjKGKvknlnuNWYS5VgG7WUE6PrgDpT3BsK4I25jq8F1yOabVShT57XckbLEc1SWsnJ1rReemat0N07Bl2OOWxhKwuZOvTTvlGuA8KRvX2kOZWoIe-OIMxCz0IUASnmM-92-jJBzes5KsLjmCC6fXeV06RI33VFCUDXwrJBOUz4Kc7FC8TlhPAZXNo0GGYPwilqJbl0wwIyIqpMy132VzOU_ANNlCG5Jtd7Wq-VyBHIWd_-ZFFRnE83eV40ctfwv7KkP2ikUsQFRb4fkl03INBgNUVFEtFvMW5vTQyq-Cylr_dpNb6kamFvUQHwoFRvPJfL9gtuu8rOPox6er64TzZjXszxIyK-Ex3eW76fwe8xJwmJGtNGCSLpHSuRAzxNPvVI2YATFONferrJFUccaJmfXywJvs59QybQWORnhZIfvC6PkSXIfLRiRPtKeeStKNrmM9iv66HqH8wzG-RdyM1eT7YHM3iw-l01-pETwRkLPMrTas_VI25GO3ku_WjOLahB8Bo4stqf_iAAisy2WVDZhkK5K9hvrBnoRNo_8W8lHxnJ89L1E_cTN4IjvFjtQsih5_it0GqllBQcFH3jTe7y4RUGowY5REmS5juU5WvEQfkHutmY2pZJjiJgL66p8vIsFTQIL39G1NA5tQHXkZ7kCdQIQjAP9mkFjeGqUDSClJMP2Db8kBDzB28ld8IgGM7sXoX32Z6a5cFov8JbpSo6f6mZY7I1kigEjHHC4tP6eyb9WdjDwWaGUHt7iajv0CsJdDaUyOlFXIXJe1pgXKCAuGCmxaCUbK5FdlxZhurZiJWwzxPFPOTny-a5VSnAiaQQCO1ir494eHOXmYAsxGNPO6n-tuCV9iO1q5I40UAQIO36-3xW_fI8W_kZMk4AnRSdB7Cbk-oS6bSQFi700khMO7kVSX1CtlPdw5cFDJXBlffbOvp14eBLOWxcagWUOtAcABMeuNbagELjpX2UbZSwLMfQtkGiSMbvgokHan8wKuIaXDd26b8Im2G1AJ4wJJjAEALKey55DIiP9ROoQj48_a6fQE0mAn8Dh8_gGwc5j9JKCtrdNQHQnYV_iLBEh-Rrm1lyFqlJK-0rjy3oYzaygIJbgeqaF1QCPYhhcJf8SPN2HzwHPFB_lnOsNjIB5_NYHRruKI-UadfnuU5okgfL2SwGCcEARtQsT_RU58ijqBIulN75UrpSyV1To_3GmQXXqzeulgWI9GA9Zm2NgMWdnE6RrYczfQGHS8FxIEfzuAU7Pqa3leXkcHJSDzh7wTVQ4F1krpx05TK4YKJ8rvgLw0uLxWWZTNmaLvT7zdkhYeTPG3je6xXLnhrJotliQ_uB]--></g></svg>