<svg xmlns="http://www.w3.org/2000/svg" xmlns:xlink="http://www.w3.org/1999/xlink" contentStyleType="text/css" data-diagram-type="MINDMAP" height="341px" preserveAspectRatio="none" style="width:630px;height:341px;" version="1.1" viewBox="0 0 630 341" width="630px" zoomAndPan="magnify"><defs/><g><a href="/use-case/legal-entity-management/" target="_top" title="/use-case/legal-entity-management/" xlink:actuate="onRequest" xlink:href="/use-case/legal-entity-management/" xlink:show="new" xlink:title="/use-case/legal-entity-management/" xlink:type="simple"><text fill="#90EE90" font-family="'Roboto'" font-size="14" lengthAdjust="spacing" textLength="179.7646" x="17" y="174.4795">Legal Entity Management</text></a><a href="/use-case/legal-entity-management/identification-and-registration/" target="_top" title="/use-case/legal-entity-management/identification-and-registration/" xlink:actuate="onRequest" xlink:href="/use-case/legal-entity-management/identification-and-registration/" xlink:show="new" xlink:title="/use-case/legal-entity-management/identification-and-registration/" xlink:type="simple"><text fill="#90EE90" font-family="'Roboto'" font-size="14" lengthAdjust="spacing" textLength="196.6631" x="262.2148" y="27.9951">Identification &amp; Registration</text></a><path d="M205.2148,169.6328 L205.2148,169.8196 L207.2148,169.2645 L209.2148,169.8046 L211.2148,169.9881 L213.2148,168.9987 L215.2148,169.6328 L215.2148,169.6328 L215.1878,169.6114 L216.0623,168.2563 L217.0734,167.0093 L218.1794,165.8375 L218.9583,164.4067 L220.1953,163.3386 L220.4348,163.3952 L220.7079,159.9553 L221.6801,156.6808 L222.7376,153.4264 L223.2988,150.0546 L224.1211,146.7446 L224.1511,146.7492 L224.4425,144.5252 L224.8704,142.3219 L225.2325,140.1086 L225.7203,137.9144 L225.7983,135.6582 L226.0943,135.6951 L226.407,133.2208 L226.5288,130.7226 L226.93,128.2593 L227.3444,125.7977 L227.3438,123.2842 L227.025,123.2502 L228.2178,117.9375 L228.3612,112.5128 L229.3023,107.1733 L229.4219,101.746 L230.2148,96.3906 L230.1846,96.3874 L231.1168,91.0469 L231.3417,85.6309 L231.984,80.2594 L232.6614,74.8917 L233.0859,69.497 L233.2695,69.5199 L233.3933,67.022 L233.8308,64.5633 L233.7607,62.0411 L234.4477,59.6135 L234.6313,57.1231 L234.8722,57.1595 L235.1621,54.9353 L235.5716,52.7293 L235.4254,50.4391 L235.6865,48.2106 L236.3086,46.0366 L236.0398,45.973 L237.0683,42.7118 L237.7939,39.3789 L238.9588,36.15 L239.3737,32.7436 L240.2344,29.4427 L240.1148,29.3481 L241.31,28.2468 L241.9941,26.7411 L243.0417,25.523 L244.4449,24.5863 L245.2148,23.1484 L245.2148,23.5357 L247.2148,23.8013 L249.2148,22.8624 L251.2148,23.4322 L253.2148,23.6733 L255.2148,23.1484" fill="none" style="stroke:#FF9900;stroke-width:1;"/><a href="/use-case/legal-entity-management/corporate-governance/" target="_top" title="/use-case/legal-entity-management/corporate-governance/" xlink:actuate="onRequest" xlink:href="/use-case/legal-entity-management/corporate-governance/" xlink:show="new" xlink:title="/use-case/legal-entity-management/corporate-governance/" xlink:type="simple"><text fill="#90EE90" font-family="'Roboto'" font-size="14" lengthAdjust="spacing" textLength="159.1406" x="262.2148" y="54.292">Corporate Governance</text></a><path d="M205.2148,169.6328 L205.2148,169.8196 L207.2148,169.2645 L209.2148,169.8046 L211.2148,169.9881 L213.2148,168.9987 L215.2148,169.6328 L215.2148,169.6328 L215.19,169.6088 L216.0745,168.4684 L217.0843,167.4488 L218.1813,166.5132 L218.978,165.2881 L220.1953,164.4685 L220.4317,164.5367 L220.7113,161.6679 L221.6812,158.9982 L222.7352,156.3527 L223.2993,153.566 L224.1211,150.8535 L224.151,150.8585 L224.7516,147.0014 L225.4884,143.1671 L226.1595,139.3218 L226.956,135.4975 L227.3438,131.6047 L227.6395,131.6432 L228.2173,127.2306 L228.6044,122.7931 L229.2707,118.3919 L229.9501,113.9925 L230.2148,109.5391 L229.897,109.4977 L231.0881,105.1648 L231.2326,100.6958 L232.1728,96.3303 L232.2935,91.8581 L233.0859,87.4734 L233.0559,87.4684 L234.0555,83.6781 L234.3536,79.7703 L235.0657,75.9318 L235.8125,72.0992 L236.3086,68.2246 L236.4863,68.2759 L237.0921,65.5011 L238.0016,62.814 L238.4196,59.9851 L239.5707,57.3676 L240.2344,54.6096 L240.4097,54.7788 L241.3727,53.7139 L242.4227,52.733 L243.0681,51.362 L244.0101,50.277 L245.2148,49.4453 L245.2148,48.893 L247.2148,49.393 L249.2148,49.2706 L251.2148,50.051 L253.2148,49.29 L255.2148,49.4453" fill="none" style="stroke:#FF9900;stroke-width:1;"/><a href="/use-case/legal-entity-management/ownership-and-capital-structure/" target="_top" title="/use-case/legal-entity-management/ownership-and-capital-structure/" xlink:actuate="onRequest" xlink:href="/use-case/legal-entity-management/ownership-and-capital-structure/" xlink:show="new" xlink:title="/use-case/legal-entity-management/ownership-and-capital-structure/" xlink:type="simple"><text fill="#90EE90" font-family="'Roboto'" font-size="14" lengthAdjust="spacing" textLength="213.4453" x="262.2148" y="80.5889">Ownership &amp; Capital Structure</text></a><path d="M205.2148,169.6328 L205.2148,169.8196 L207.2148,169.2645 L209.2148,169.8046 L211.2148,169.9881 L213.2148,168.9987 L215.2148,169.6328 L215.2148,169.6328 L215.1853,169.6149 L216.8341,166.6004 L218.6316,163.6762 L220.5327,160.8148 L222.0772,157.737 L224.1211,154.9624 L224.3617,155.014 L224.4917,151.8963 L225.3242,148.9291 L226.2424,145.9803 L226.6619,142.9247 L227.3438,139.9252 L227.3737,139.9302 L227.904,136.4754 L228.5705,133.0432 L229.1712,129.6001 L229.8974,126.1778 L230.2148,122.6875 L230.509,122.7365 L231.0869,119.2896 L231.4749,115.811 L232.1407,112.3787 L232.8196,108.9486 L233.0859,105.4498 L232.7725,105.3826 L234.0253,102.5055 L234.2461,99.4073 L235.2515,96.4772 L235.4489,93.3739 L236.3086,90.4126 L236.2826,90.3968 L238.3716,87.6496 L239.8526,84.5332 L241.6923,81.6346 L243.5622,78.7544 L245.2148,75.7422 L245.2148,76.1122 L247.2148,75.7387 L249.2148,75.9975 L251.2148,75.2334 L253.2148,75.995 L255.2148,75.7422" fill="none" style="stroke:#FF9900;stroke-width:1;"/><a href="/use-case/legal-entity-management/financial-information/" target="_top" title="/use-case/legal-entity-management/financial-information/" xlink:actuate="onRequest" xlink:href="/use-case/legal-entity-management/financial-information/" xlink:show="new" xlink:title="/use-case/legal-entity-management/financial-information/" xlink:type="simple"><text fill="#90EE90" font-family="'Roboto'" font-size="14" lengthAdjust="spacing" textLength="148.0596" x="262.2148" y="174.4795">Financial Information</text></a><a href="/use-case/legal-entity-management/financial-information/assets/" target="_top" title="/use-case/legal-entity-management/financial-information/assets/" xlink:actuate="onRequest" xlink:href="/use-case/legal-entity-management/financial-information/assets/" xlink:show="new" xlink:title="/use-case/legal-entity-management/financial-information/assets/" xlink:type="simple"><text fill="#90EE90" font-family="'Roboto'" font-size="14" lengthAdjust="spacing" textLength="45.5615" x="475.7246" y="106.8857">Assets</text></a><path d="M418.7246,169.6328 L418.7246,169.8196 L420.7246,169.2645 L422.7246,169.8046 L424.7246,169.9881 L426.7246,168.9987 L428.7246,169.6328 L428.7246,169.6328 L428.6982,169.6105 L430.361,167.3983 L432.1568,165.2983 L434.0452,163.2764 L435.6147,160.9855 L437.6309,159.0713 L437.8667,159.1415 L438.0069,156.8263 L438.8357,154.716 L439.7484,152.6307 L440.1724,150.4 L440.8535,148.2457 L440.8831,148.2526 L441.4139,145.7606 L442.0793,143.2997 L442.6797,140.8238 L443.404,138.3766 L443.7246,135.8359 L444.0152,135.9032 L444.593,133.422 L444.9833,130.8975 L445.648,128.4365 L446.3256,125.9785 L446.5957,123.4261 L446.2885,123.3347 L447.5293,121.3471 L447.7585,119.0583 L448.7567,116.9985 L448.963,114.7029 L449.8184,112.6006 L449.7951,112.581 L451.8516,110.7008 L453.3643,108.362 L455.1979,106.2938 L457.0584,104.2484 L458.7246,102.0391 L458.7246,102.409 L460.7246,102.0356 L462.7246,102.2944 L464.7246,101.5302 L466.7246,102.2919 L468.7246,102.0391" fill="none" style="stroke:#FF9900;stroke-width:1;"/><a href="/use-case/legal-entity-management/financial-information/fundamentals/" target="_top" title="/use-case/legal-entity-management/financial-information/fundamentals/" xlink:actuate="onRequest" xlink:href="/use-case/legal-entity-management/financial-information/fundamentals/" xlink:show="new" xlink:title="/use-case/legal-entity-management/financial-information/fundamentals/" xlink:type="simple"><text fill="#90EE90" font-family="'Roboto'" font-size="14" lengthAdjust="spacing" textLength="99.6406" x="475.7246" y="133.1826">Fundamentals</text></a><path d="M418.7246,169.6328 L418.7246,169.8196 L420.7246,169.2645 L422.7246,169.8046 L424.7246,169.9881 L426.7246,168.9987 L428.7246,169.6328 L428.7246,169.6328 L428.7043,169.6048 L430.3946,168.1888 L432.1871,166.9137 L434.0506,165.7367 L435.6693,164.2219 L437.6309,163.1802 L437.857,163.2772 L438.5922,160.2305 L439.9876,157.4672 L441.4635,154.7384 L442.4708,151.8085 L443.7246,148.9844 L443.7525,148.9963 L444.9303,146.1396 L446.235,143.3374 L447.4785,140.5088 L448.8388,137.7304 L449.8184,134.7886 L449.9933,135.0301 L451.7767,133.7425 L453.4473,132.2992 L455.283,131.0838 L457.1265,129.8792 L458.7246,128.3359 L458.7246,127.6949 L460.7246,128.9391 L462.7246,128.0724 L464.7246,128.8104 L466.7246,127.8959 L468.7246,128.3359" fill="none" style="stroke:#FF9900;stroke-width:1;"/><a href="/use-case/legal-entity-management/financial-information/earnings-estimates/" target="_top" title="/use-case/legal-entity-management/financial-information/earnings-estimates/" xlink:actuate="onRequest" xlink:href="/use-case/legal-entity-management/financial-information/earnings-estimates/" xlink:show="new" xlink:title="/use-case/legal-entity-management/financial-information/earnings-estimates/" xlink:type="simple"><text fill="#90EE90" font-family="'Roboto'" font-size="14" lengthAdjust="spacing" textLength="134.5791" x="475.7246" y="159.4795">Earnings Estimates</text></a><path d="M418.7246,169.6328 L418.7246,169.8196 L420.7246,169.2645 L422.7246,169.8046 L424.7246,169.9881 L426.7246,168.9987 L428.7246,169.6328 L428.7246,169.6328 L428.7092,169.6019 L431.6398,167.9633 L434.6484,166.4804 L437.7111,165.1057 L440.5872,163.358 L443.7246,162.1328 L443.8347,162.3529 L446.5993,160.3823 L449.6853,159.0542 L452.8105,157.8045 L455.7076,156.0987 L458.7246,154.6328 L458.7246,154.6935 L460.7246,154.6044 L462.7246,154.7915 L464.7246,154.8454 L466.7246,155.1534 L468.7246,154.6328" fill="none" style="stroke:#FF9900;stroke-width:1;"/><polygon fill="#4051B5" points="472.7246,177.7813,472.7246,177.9914,482.6088,177.3669,492.493,177.9745,502.3772,178.1809,512.2614,177.0679,522.1456,177.7035,532.0299,177.3548,541.9141,177.7813,541.8651,177.6631,542.4711,177.9946,542.9572,178.037,543.6817,178.6547,544.0964,178.5244,544.7425,178.9528,544.6816,178.9276,545.1098,179.5736,545.1847,180.0733,545.4664,180.6586,545.6699,181.2115,545.9141,181.7813,545.9736,181.7813,545.9938,187.4406,546.1093,193.1,546.1377,198.7594,546.1405,204.4188,545.9141,210.0781,545.9925,210.1106,545.8225,210.7029,545.6617,211.2991,544.989,211.6832,545.1858,212.4274,544.7425,212.9066,544.7047,212.8152,544.2449,213.3053,543.548,213.2227,543.0367,213.5884,542.5743,214.0722,541.9141,214.0781,541.9141,214.0294,532.0299,214.1834,522.1456,214.4168,512.2614,214.4944,502.3772,214.0742,492.493,214.3653,482.6088,213.5057,472.7246,214.0781,472.7609,214.1657,472.2289,214.0126,471.6499,213.7464,471.1058,213.564,470.4002,212.9921,469.8962,212.9066,469.6953,212.8234,469.4705,212.2616,469.4094,211.7677,469.1327,211.1844,469.1688,210.7307,468.7246,210.0781,468.6664,210.0781,468.6103,204.4188,468.8007,198.7594,468.5023,193.1,468.5516,187.4406,468.7246,181.7813,468.9245,181.864,469.0931,181.2711,469.4194,180.7436,469.3285,180.0431,469.7602,179.5592,469.8962,178.9528,469.9715,179.1346,470.4016,178.573,471.0153,178.4547,471.6093,178.2887,472.2421,178.2163,472.7246,177.7813" style="stroke:#FF6F00;stroke-width:1.5;"/><a href="/use-case/legal-entity-management/financial-information/ratings/" target="_top" title="/use-case/legal-entity-management/financial-information/ratings/" xlink:actuate="onRequest" xlink:href="/use-case/legal-entity-management/financial-information/ratings/" xlink:show="new" xlink:title="/use-case/legal-entity-management/financial-information/ratings/" xlink:type="simple"><text fill="#90EE90" font-family="'Roboto'" font-size="14" lengthAdjust="spacing" textLength="52.7393" x="478.7246" y="200.7764">Ratings</text></a><path d="M418.7246,169.6328 L418.7246,169.8196 L420.7246,169.2645 L422.7246,169.8046 L424.7246,169.9881 L426.7246,168.9987 L428.7246,169.6328 L428.7246,169.6328 L428.7018,169.6068 L431.5997,172.12 L434.6123,174.764 L437.7046,177.4991 L440.5221,179.9205 L443.7246,182.7813 L443.8868,182.9663 L446.54,185.2003 L449.6667,187.9745 L452.8512,190.8147 L455.6995,193.2713 L458.7246,195.9297 L458.7246,195.9903 L460.7246,195.9013 L462.7246,196.0884 L464.7246,196.1423 L466.7246,196.4503 L468.7246,195.9297" fill="none" style="stroke:#FF9900;stroke-width:1;"/><a href="/use-case/legal-entity-management/financial-information/liability-terms/" target="_top" title="/use-case/legal-entity-management/financial-information/liability-terms/" xlink:actuate="onRequest" xlink:href="/use-case/legal-entity-management/financial-information/liability-terms/" xlink:show="new" xlink:title="/use-case/legal-entity-management/financial-information/liability-terms/" xlink:type="simple"><text fill="#90EE90" font-family="'Roboto'" font-size="14" lengthAdjust="spacing" textLength="102.9014" x="475.7246" y="242.0732">Liability Terms</text></a><path d="M418.7246,169.6328 L418.7246,169.8196 L420.7246,169.2645 L422.7246,169.8046 L424.7246,169.9881 L426.7246,168.9987 L428.7246,169.6328 L428.7246,169.6328 L428.6982,169.6105 L430.361,171.6229 L432.1568,173.7475 L434.0452,175.9502 L435.6147,177.8839 L437.6309,180.1943 L437.8667,180.2645 L438.0069,182.2795 L438.8357,184.4995 L439.7484,186.7444 L440.1724,188.8439 L440.8535,191.0199 L440.8831,191.0267 L441.4139,193.4987 L442.0793,196.0017 L442.6797,198.4897 L443.404,201.0064 L443.7246,203.4297 L444.0152,203.4969 L444.593,205.9797 L444.9833,208.4191 L445.648,210.922 L446.3256,213.4279 L446.5957,215.8395 L446.2885,215.748 L447.5293,218.0906 L447.7585,220.1321 L448.7567,222.4025 L448.963,224.4372 L449.8184,226.665 L449.7951,226.6454 L451.8516,228.9898 L453.3643,230.8757 L455.1979,233.0321 L457.0584,235.2113 L458.7246,237.2266 L458.7246,237.5965 L460.7246,237.2231 L462.7246,237.4819 L464.7246,236.7177 L466.7246,237.4794 L468.7246,237.2266" fill="none" style="stroke:#FF9900;stroke-width:1;"/><path d="M205.2148,169.6328 L205.2148,169.8196 L207.2148,169.2645 L209.2148,169.8046 L211.2148,169.9881 L213.2148,168.9987 L215.2148,169.6328 L215.2148,169.6328 L215.2148,169.5983 L221.2148,169.4433 L227.2148,169.4624 L233.2148,169.6025 L239.2148,169.3255 L245.2148,169.6328 L245.2148,170.1249 L247.2148,169.0726 L249.2148,169.457 L251.2148,170.0168 L253.2148,169.5566 L255.2148,169.6328" fill="none" style="stroke:#FF9900;stroke-width:1;"/><a href="/use-case/legal-entity-management/lifecycle-and-status/" target="_top" title="/use-case/legal-entity-management/lifecycle-and-status/" xlink:actuate="onRequest" xlink:href="/use-case/legal-entity-management/lifecycle-and-status/" xlink:show="new" xlink:title="/use-case/legal-entity-management/lifecycle-and-status/" xlink:type="simple"><text fill="#90EE90" font-family="'Roboto'" font-size="14" lengthAdjust="spacing" textLength="125.8428" x="262.2148" y="200.7764">Lifecycle &amp; Status</text></a><path d="M205.2148,169.6328 L205.2148,169.8196 L207.2148,169.2645 L209.2148,169.8046 L211.2148,169.9881 L213.2148,168.9987 L215.2148,169.6328 L215.2148,169.6328 L215.1921,169.6068 L218.0899,172.12 L221.1025,174.764 L224.1949,177.4991 L227.0123,179.9205 L230.2148,182.7813 L230.377,182.9663 L233.0302,185.2003 L236.1569,187.9745 L239.3414,190.8147 L242.1897,193.2713 L245.2148,195.9297 L245.2148,195.9903 L247.2148,195.9013 L249.2148,196.0884 L251.2148,196.1423 L253.2148,196.4503 L255.2148,195.9297" fill="none" style="stroke:#FF9900;stroke-width:1;"/><a href="/use-case/legal-entity-management/contact-and-location-information/" target="_top" title="/use-case/legal-entity-management/contact-and-location-information/" xlink:actuate="onRequest" xlink:href="/use-case/legal-entity-management/contact-and-location-information/" xlink:show="new" xlink:title="/use-case/legal-entity-management/contact-and-location-information/" xlink:type="simple"><text fill="#90EE90" font-family="'Roboto'" font-size="14" lengthAdjust="spacing" textLength="219.4814" x="262.2148" y="268.3701">Contact &amp; Location Information</text></a><path d="M205.2148,169.6328 L205.2148,169.8196 L207.2148,169.2645 L209.2148,169.8046 L211.2148,169.9881 L213.2148,168.9987 L215.2148,169.6328 L215.2148,169.6328 L215.1853,169.6149 L216.8341,172.4685 L218.6316,175.4125 L220.5327,178.4193 L222.0772,181.2097 L224.1211,184.3032 L224.3617,184.3548 L224.4917,187.252 L225.3242,190.2997 L226.2424,193.3658 L226.6619,196.325 L227.3438,199.3404 L227.3737,199.3454 L227.904,202.7856 L228.5705,206.2485 L229.1712,209.7005 L229.8974,213.1733 L230.2148,216.5781 L230.509,216.6271 L231.0869,220.0753 L231.4749,223.4918 L232.1407,226.9546 L232.8196,230.4196 L233.0859,233.8159 L232.7725,233.7487 L234.0253,236.8865 L234.2461,239.8031 L235.2515,242.8879 L235.4489,245.7995 L236.3086,248.853 L236.2826,248.8372 L238.3716,251.9582 L239.8526,254.71 L241.6923,257.6796 L243.5622,260.6675 L245.2148,263.5234 L245.2148,263.8934 L247.2148,263.52 L249.2148,263.7787 L251.2148,263.0146 L253.2148,263.7762 L255.2148,263.5234" fill="none" style="stroke:#FF9900;stroke-width:1;"/><a href="/use-case/legal-entity-management/compliance-and-documentation/" target="_top" title="/use-case/legal-entity-management/compliance-and-documentation/" xlink:actuate="onRequest" xlink:href="/use-case/legal-entity-management/compliance-and-documentation/" xlink:show="new" xlink:title="/use-case/legal-entity-management/compliance-and-documentation/" xlink:type="simple"><text fill="#90EE90" font-family="'Roboto'" font-size="14" lengthAdjust="spacing" textLength="210.1504" x="262.2148" y="294.667">Compliance &amp; Documentation</text></a><path d="M205.2148,169.6328 L205.2148,169.8196 L207.2148,169.2645 L209.2148,169.8046 L211.2148,169.9881 L213.2148,168.9987 L215.2148,169.6328 L215.2148,169.6328 L215.19,169.6088 L216.0745,170.5341 L217.0843,171.5802 L218.1813,172.7104 L218.978,173.551 L220.1953,174.7971 L220.4317,174.8653 L220.7113,177.4425 L221.6812,180.2188 L222.7352,183.0193 L223.2993,185.6785 L224.1211,188.4121 L224.151,188.4171 L224.7516,192.2595 L225.4884,196.1247 L226.1595,199.9789 L226.956,203.8541 L227.3438,207.6609 L227.6395,207.6994 L228.2173,212.113 L228.6044,216.5018 L229.2707,220.9269 L229.9501,225.3537 L230.2148,229.7266 L229.897,229.6852 L231.0881,234.1786 L231.2326,238.5358 L232.1728,242.9966 L232.2935,247.3507 L233.0859,251.7922 L233.0559,251.7872 L234.0555,255.6964 L234.3536,259.4882 L235.0657,263.3492 L235.8125,267.2161 L236.3086,271.041 L236.4863,271.0923 L237.0921,273.7635 L238.0016,276.5224 L238.4196,279.1395 L239.5707,281.968 L240.2344,284.656 L240.4097,284.8251 L241.3727,285.826 L242.4227,286.9109 L243.0681,287.6055 L244.0101,288.5862 L245.2148,289.8203 L245.2148,289.268 L247.2148,289.768 L249.2148,289.6456 L251.2148,290.426 L253.2148,289.665 L255.2148,289.8203" fill="none" style="stroke:#FF9900;stroke-width:1;"/><a href="/use-case/legal-entity-management/supporting-information/" target="_top" title="/use-case/legal-entity-management/supporting-information/" xlink:actuate="onRequest" xlink:href="/use-case/legal-entity-management/supporting-information/" xlink:show="new" xlink:title="/use-case/legal-entity-management/supporting-information/" xlink:type="simple"><text fill="#90EE90" font-family="'Roboto'" font-size="14" lengthAdjust="spacing" textLength="162.7295" x="262.2148" y="320.9639">Supporting Information</text></a><path d="M205.2148,169.6328 L205.2148,169.8196 L207.2148,169.2645 L209.2148,169.8046 L211.2148,169.9881 L213.2148,168.9987 L215.2148,169.6328 L215.2148,169.6328 L215.1878,169.6114 L216.0623,170.774 L217.0734,172.0448 L218.1794,173.3906 L218.9583,174.4775 L220.1953,175.9271 L220.4348,175.9837 L220.7079,179.1814 L221.6801,182.5444 L222.7376,185.9276 L223.2988,189.1934 L224.1211,192.521 L224.1511,192.5255 L224.4425,194.7362 L224.8704,196.9675 L225.2325,199.1888 L225.7203,201.4291 L225.7983,203.6075 L226.0943,203.6444 L226.407,206.1197 L226.5288,208.5711 L226.93,211.0573 L227.3444,213.5453 L227.3438,215.9814 L227.025,215.9474 L228.2178,221.3921 L228.3612,226.7248 L229.3023,232.1427 L229.4219,237.4729 L230.2148,242.875 L230.1846,242.8718 L231.1168,248.2887 L231.3417,253.6301 L231.984,259.0161 L232.6614,264.4059 L233.0859,269.7686 L233.2695,269.7915 L233.3933,272.2432 L233.8308,274.734 L233.7607,277.1614 L234.4477,279.6834 L234.6313,282.1425 L234.8722,282.179 L235.1621,284.3894 L235.5716,286.6179 L235.4254,288.7623 L235.6865,290.9684 L236.3086,293.229 L236.0398,293.1654 L237.0683,296.5418 L237.7939,299.8465 L238.9588,303.2551 L239.3737,306.4863 L240.2344,309.8229 L240.1148,309.7283 L241.31,311.1447 L241.9941,312.1567 L243.0417,313.4563 L244.4449,315.0373 L245.2148,316.1172 L245.2148,316.5044 L247.2148,316.7701 L249.2148,315.8311 L251.2148,316.4009 L253.2148,316.642 L255.2148,316.1172" fill="none" style="stroke:#FF9900;stroke-width:1;"/><!--SRC=[xLXjJniv4Fw-ly9NfADLBmtfGTMYgYA4G2c1e0GgdQeAERkpYOLZRsql77Uw_txZVKbsDozaGzA34_cIP3pxp3EpjiT-zhIXoWoPy8OqS9nVFF2P0B9_T7LQFpwxQhHRxGw9FXlRMpkrtaxMfTjijCyEwfq_4hyfBkVrnadzg3a2cd1fTmwQdMmSik7xx_ojhP7BOVli8kSGkTYFu-Xh9WAgw93qg7lTLp8KNaDogL97ewZGw072P9m_tmMWManSPtt91cVzWUah0E4ucuG9buSU43C0qWS1Yd8oWj34nmTxqWn-8z5ZX0gFU5HTuvD64da3wbOn0-IMcK6CmMv040t6CD7NnGfSV3vkd9mrkrrImzSW0yEa80C4jIW67_Gfrv39uPnw7WAHxOoj4-Ula2nvdx5t1zIJjzQxY19LWcCbBeKN_O349UDp03uDkI5_EuTIc3Cw1FAY8p5t-IAon4KSlwR8s6L_0QbjE_zaaUfAoLl4cVh4T1Xpnx56adjvf01VD-r3mcdYqVt2RCZDPsTVAams6SbCG0mnZY2aLmO-Dz4NY-3AOI05pamCioJXgUpYceL3_ZPVCuyQsgCQLXmk5yFbClJM6a1o3gvT7NhbOSPH6kYW95zZX7qBITNT6aCqXM5cdG6OCA1ywi8QOtJXHmZ2XNDiKynb0HKc1hiOCFTQWDQuOOxTTUAEZB9Fp2Kt0Js5PyPdl2q9gOQK5yScqcan7x3Pm4pmaSDScj7cEG4UMMSYHwDJIKKZunh-xjHT8zKz32ANcR7iwAm5l4aQsyHM3PiG_jcuzvDTymeNF1Lz3Xy_OhVIKdpwXE-tYvCFfC46DhDxhAel56TSiMVdjwWCNVWJIGhAhrRFkt3uMWDvVQSD39zUhLVFUqsrJXloqoZrcEtJgtHcclIInXkpBXoCyrb4PzYj-qzxI-K-Fx6umNXK3y1R9DUfgReOc69VKOlcYkVr-LDf3PdEVuNPrcwecNRIIA-Ku-3fzR1kZ6AzqC3aK9PKUk4i76IfrckEjabEuuitqG6up6Sk9Xcto8bxoE8yxasDZWyI6uU77pxWU64mUxPodDTNvDitKWqrL5nS_rKEVSeh49qkAqCgy1usn7zLqh83wR7pT3H0ldztNYyAmZnhmr9GUyQlu0Mueg3FD5xahQ5AZdCEv5VIoGoN2kLA5KXy3YfzUrqN5C-DLJpw9rPoDBAMWfMtkEBqW0KHUPS6pA0VCWnT4ogCq4uTa7mZ7iQZKJ9SAfJFB3s6OqpuzZ0Qb-WmDPFZiJa6VXWoBWamkahgqVSg47sx6Tjnt9AGUERVAj21Ac75bWfemz066AEPs4WpjIMH7XB8pZx4h99E_6CLv3cZFSQjAswwGyHkfGPoOGsbPWh7AuPxvtA89gNTIiC8CR7YJEn6jf8B2D-KQo98BfCLcvk9ZTW3uLl9-EIKN3ZOCC2Iu6gCuddI3QEPaWPAHp7MGNQiL10T1hZuxIlCvz4TsOlyzm1ty5G-tSkhgMkK9n-n49ZseGLLmApx580I-j-e0SvebTCRunp5xw60ymI-UHYJ39QGzCe5M4Z4UmZaNDckBF0YGjtoc7EakUL1PufnoqFEaz-MHrsBu9RIcI6rfSnAgsnf0jCajXHqbhgMSiheQgEZV55KIx4AUbhE_runRHImAAEDqFCAMcOXBIM6pTvPoyoMoPV_KB7hP_EwHwNupyhq67WjB47zP3QFgaWhLOzI7YMpcSbwhb9KMwSqjEfC2lN_Nqi_p_hEixxphEyywplF-ivJqdVEETu-BazR13SERHrgRzvklTrvKwlrmD3QrijBSIrmVuXk_WpBZZCGNZalZyvRHCjG8NlFxcMsL-3Zhvmlz8QIJYYitovf1o2-79oa1jnfRvYImZ9tldmz7JkyswxiCuDNDOL4oDTJ9rLcciALLWpQ9PSNXvNtJWlRVOZ9xn8GJWExYr5tEDRz5m00]--></g></svg>