<svg xmlns="http://www.w3.org/2000/svg" xmlns:xlink="http://www.w3.org/1999/xlink" contentStyleType="text/css" data-diagram-type="MINDMAP" height="122px" preserveAspectRatio="none" style="width:570px;height:122px;" version="1.1" viewBox="0 0 570 122" width="570px" zoomAndPan="magnify"><defs/><g><polygon fill="#4051B5" points="145.7129,42.6992,145.7129,42.9094,155.8141,42.2849,165.9152,42.8925,176.0164,43.0989,186.1176,41.9858,196.2188,42.6215,206.3199,42.2727,216.4211,42.3157,226.5223,42.6311,236.6234,42.0078,246.7246,43.2529,256.8258,42.0689,266.927,42.5015,277.0281,43.1312,287.1293,42.6134,297.2305,42.7675,307.3316,42.6673,317.4328,42.8777,327.534,42.9384,337.6352,43.2849,347.7363,42.6992,347.8219,42.9059,348.3887,43.1427,348.9002,43.2463,349.4925,43.5449,350.0886,43.8527,350.5648,43.8708,350.3427,43.7788,351.008,44.523,350.9421,44.9643,351.4321,45.6359,351.3496,46.0704,351.7363,46.6992,351.7135,46.6992,351.9835,52.1258,351.7201,57.5523,351.7714,62.9789,351.8492,68.4055,351.7363,73.832,351.8645,73.8851,351.5008,74.3972,351.3561,75,350.8571,75.4561,350.8866,76.131,350.5648,76.6605,350.6347,76.8293,350.0558,77.0317,349.5116,77.3179,348.8061,77.2146,348.2188,77.3969,347.7363,77.832,347.7363,77.2106,337.6352,77.7732,327.534,77.6355,317.4328,78.5134,307.3316,77.6574,297.2305,77.489,287.1293,78.0603,277.0281,77.1652,266.927,77.3129,256.8258,78.481,246.7246,78.2677,236.6234,78.5665,226.5223,77.5102,216.4211,78.1512,206.3199,78.4225,196.2188,77.3596,186.1176,77.7362,176.0164,77.958,165.9152,78.4838,155.8141,77.8278,145.7129,77.832,145.7719,77.9745,145.0766,77.4272,144.4951,77.1548,144.0801,77.2842,143.3587,76.674,142.8845,76.6605,143.0412,76.7254,142.7138,76.1211,142.3333,75.4949,142.0726,74.9183,142.0885,74.4562,141.7129,73.832,141.6131,73.832,141.9102,68.4055,141.5286,62.9789,141.9187,57.5523,141.8743,52.1258,141.7129,46.6992,141.7883,46.7305,141.9617,46.1396,142.4053,45.6605,142.6048,45.0804,142.7023,44.4581,142.8845,43.8708,142.9187,43.9534,143.4335,43.5964,144.1072,43.6228,144.6013,43.2155,145.1692,42.9867,145.7129,42.6992" style="stroke:#FF6F00;stroke-width:1.5;"/><a href="/use-case/client-360/relationships-and-connections/" target="_top" title="/use-case/client-360/relationships-and-connections/" xlink:actuate="onRequest" xlink:href="/use-case/client-360/relationships-and-connections/" xlink:show="new" xlink:title="/use-case/client-360/relationships-and-connections/" xlink:type="simple"><text fill="#4051B5" font-family="'Roboto'" font-size="13" lengthAdjust="spacing" textLength="185.8911" x="151.7129" y="64.7661">Relationships &amp; Connections</text></a><a href="/use-case/client-360/relationships-and-connections/business-connections/" target="_top" title="/use-case/client-360/relationships-and-connections/business-connections/" xlink:actuate="onRequest" xlink:href="/use-case/client-360/relationships-and-connections/business-connections/" xlink:show="new" xlink:title="/use-case/client-360/relationships-and-connections/business-connections/" xlink:type="simple"><text fill="#4051B5" font-family="'Roboto'" font-size="13" lengthAdjust="spacing" textLength="141.7876" x="408.7363" y="27.0669">Business Connections</text></a><path d="M351.7363,60.2656 L351.7363,60.4525 L353.7363,59.8973 L355.7363,60.4374 L357.7363,60.6209 L359.7363,59.6315 L361.7363,60.2656 L361.7363,60.2656 L361.7173,60.2368 L363.413,58.9294 L365.2048,57.7673 L367.0634,56.7061 L368.6918,55.2969 L370.6426,54.3751 L370.8653,54.4798 L371.6078,51.6641 L373.0005,49.1541 L374.4726,46.6814 L375.4831,43.9916 L376.7363,41.416 L376.7638,41.4289 L377.9422,38.8182 L379.2456,36.2661 L380.4888,33.6858 L381.8469,31.1595 L382.8301,28.4569 L382.9946,28.7057 L384.7779,27.5306 L386.455,26.1951 L388.2875,25.0945 L390.1272,24.0048 L391.7363,22.5664 L391.7363,21.9254 L393.7363,23.1695 L395.7363,22.3028 L397.7363,23.0409 L399.7363,22.1264 L401.7363,22.5664" fill="none" style="stroke:#FF6F00;stroke-width:1;"/><a href="/use-case/client-360/relationships-and-connections/family-connections/" target="_top" title="/use-case/client-360/relationships-and-connections/family-connections/" xlink:actuate="onRequest" xlink:href="/use-case/client-360/relationships-and-connections/family-connections/" xlink:show="new" xlink:title="/use-case/client-360/relationships-and-connections/family-connections/" xlink:type="simple"><text fill="#4051B5" font-family="'Roboto'" font-size="13" lengthAdjust="spacing" textLength="127.4863" x="408.7363" y="52.1997">Family Connections</text></a><path d="M351.7363,60.2656 L351.7363,60.4525 L353.7363,59.8973 L355.7363,60.4374 L357.7363,60.6209 L359.7363,59.6315 L361.7363,60.2656 L361.7363,60.2656 L361.723,60.2338 L364.6631,58.8342 L367.6705,57.5951 L370.7246,56.4678 L373.6176,54.9556 L376.7363,53.9824 L376.8314,54.2094 L379.6281,52.4674 L382.7024,51.3881 L385.8105,50.3896 L388.7216,48.9207 L391.7363,47.6992 L391.7363,47.7599 L393.7363,47.6708 L395.7363,47.8579 L397.7363,47.9118 L399.7363,48.2198 L401.7363,47.6992" fill="none" style="stroke:#FF6F00;stroke-width:1;"/><a href="/use-case/client-360/relationships-and-connections/social-connections/" target="_top" title="/use-case/client-360/relationships-and-connections/social-connections/" xlink:actuate="onRequest" xlink:href="/use-case/client-360/relationships-and-connections/social-connections/" xlink:show="new" xlink:title="/use-case/client-360/relationships-and-connections/social-connections/" xlink:type="simple"><text fill="#4051B5" font-family="'Roboto'" font-size="13" lengthAdjust="spacing" textLength="123.0049" x="408.7363" y="77.3325">Social Connections</text></a><path d="M351.7363,60.2656 L351.7363,60.4525 L353.7363,59.8973 L355.7363,60.4374 L357.7363,60.6209 L359.7363,59.6315 L361.7363,60.2656 L361.7363,60.2656 L361.723,60.2338 L364.6631,61.3474 L367.6705,62.6217 L370.7246,64.0076 L373.6176,65.0088 L376.7363,66.5488 L376.8314,66.7758 L379.6281,67.5471 L382.7024,68.981 L385.8105,70.4958 L388.7216,71.5402 L391.7363,72.832 L391.7363,72.8927 L393.7363,72.8036 L395.7363,72.9907 L397.7363,73.0446 L399.7363,73.3526 L401.7363,72.832" fill="none" style="stroke:#FF6F00;stroke-width:1;"/><a href="/use-case/client-360/relationships-and-connections/political-connections/" target="_top" title="/use-case/client-360/relationships-and-connections/political-connections/" xlink:actuate="onRequest" xlink:href="/use-case/client-360/relationships-and-connections/political-connections/" xlink:show="new" xlink:title="/use-case/client-360/relationships-and-connections/political-connections/" xlink:type="simple"><text fill="#4051B5" font-family="'Roboto'" font-size="13" lengthAdjust="spacing" textLength="134.9131" x="408.7363" y="102.4653">Political Connections</text></a><path d="M351.7363,60.2656 L351.7363,60.4525 L353.7363,59.8973 L355.7363,60.4374 L357.7363,60.6209 L359.7363,59.6315 L361.7363,60.2656 L361.7363,60.2656 L361.7173,60.2368 L363.413,61.2856 L365.2048,62.4797 L367.0634,63.7747 L368.6918,64.7217 L370.6426,66.1561 L370.8653,66.2608 L371.6078,68.6287 L373.0005,71.3024 L374.4726,74.0133 L375.4831,76.5072 L376.7363,79.1152 L376.7638,79.1281 L377.9422,81.701 L379.2456,84.3326 L380.4888,86.9359 L381.8469,89.5933 L382.8301,92.0743 L382.9946,92.3231 L384.7779,93.5042 L386.455,94.5249 L388.2875,95.7805 L390.1272,97.0471 L391.7363,97.9648 L391.7363,97.3238 L393.7363,98.568 L395.7363,97.7013 L397.7363,98.4393 L399.7363,97.5248 L401.7363,97.9648" fill="none" style="stroke:#FF6F00;stroke-width:1;"/><a href="/use-case/client-360/" target="_top" title="/use-case/client-360/" xlink:actuate="onRequest" xlink:href="/use-case/client-360/" xlink:show="new" xlink:title="/use-case/client-360/" xlink:type="simple"><text fill="#4051B5" font-family="'Roboto'" font-size="13" lengthAdjust="spacing" textLength="66.5806" x="14" y="64.7661">Client 360</text></a><path d="M141.7129,60.2656 L141.7129,60.4525 L139.7129,59.8973 L137.7129,60.4374 L135.7129,60.6209 L133.7129,59.6315 L131.7129,60.2656 L131.7129,60.2656 L131.7129,60.2311 L125.7129,60.0761 L119.7129,60.0952 L113.7129,60.2353 L107.7129,59.9583 L101.7129,60.2656 L101.7129,60.7578 L99.7129,59.7054 L97.7129,60.0898 L95.7129,60.6496 L93.7129,60.1894 L91.7129,60.2656" fill="none" style="stroke:#FF6F00;stroke-width:1;"/><!--SRC=[xLfjRzf84FxkNx7NIDTMAGtaJLLKLG7oqYOa84XwEbLLjDXhMB7UfRlhSDpf_lkDZGssiGquffT8vPEpEtxccTdrxioZd2gDfNOejnmyDepVB69JJb3Zyk6c_kNseTbkjRl8_-qSLezg_QEeIU-ysRuzgtV_3EnIJ3hrvdNzydmEj6JIxfwTTwD-q8vj7zlLwjpaedrx5pFmJRpVtAJUxRR_YDk4A8OQKJx64ZkeZytHG0gNMqt1X4GxMcAkO8vm7J7xF1qJoIWV1LO1O-CrejnahaMG7X8q89n8pD3yFOLiiEuBFNo761qCDSBSGXQM8tXJ2oGUYPn8gWcQK3sSOT17mf4YMbC-KCcSt7t-qho-FU_rK0qMHemr5HmD0TH3qV2YZPaY4U8TR5a0X0uZOzrPk1B8eW-HyTuGMsBYMITHvk7VSyj_8859nEQCsDXb6lrZN0YkRx53qAkkWDZ5Atzabhd5mlc3FVetGRL3uzyeKbrACG6Sr3VIOVIKGOu4i-98OrXTF201fwLN6ud5Z-rmeo4a11lCHBOak5XuuCBQ13wszTVpO0fdB3XiHt1Ja70gkrdEN8VjntDcOOtxM96ItSLyc4ourbOT2CQ8wNqTgdGt2ozDC922RT53muF4Shf55-TSKxrD1vHh8criaYtww94VBk4cwS35HKqwnbpFmEw6r1nneXGSc0jp5PW3e-WRkUIMe5DuHcmMnn8Nqi4iERSKJelQf0KdQoRut22NfdzuBe7xevd8_cmgANzcaSC3esvg8LSmy4qoVNcpMH_mQzGyH5xMu1A2FtPM_gBVl8GF7lC18ny_mcsb1F_q2TQt1vkF20qNMERjKTQzaDnnoJixVaH5w9A_W2J7xA5yteboR0larLHfuhoyN9VFUqkv3Y_abv7g1TkNb-d8Dka75- -CTQ8mZaVXrx3LrTLUeTZp0vjTC1PMGsAj4sjgg2Ound2lo7LZXNezVojj8TBy9Tou3GaRk4LC1xFxfmqTcQHGqri1ZjV01QsmN-mhL46EgxHNbnE4RGWrz9be2oBUWjOqiyU9zAfP9AEbn28PYTeT6dUzkinAl-crbhJlQf9T1onppMbWOjK-LgeOgpm7hz5Di2vgJ4ngKnFYzqi7MAB9qEkgDPn1K7ygRq7znNk7-imbi7QS4wyGKKYusfjURkbAPhl0n_6Q2XfvOnTz-uRsN4Kg9XoTUoQZqEzL3ewhUv8mxBSnGpfM5MZqAm5tRsmFTQFJw7Ul8madqVVlnkxkGq7algkeHo_khX6CbkV7nWvbqxYN2t-iF1zAc1Ipk8-UFrQUZx5W5Chxf9jEE9pqLAbaUq9D_nd1isTwIc2NXsBSQLoRAq_9UiQQKNXyhYaOHSrJ03QGYiBtaaT1cBJeznvgYxdYq5C1yxIWF8nb1WNKdyqShANtF0KoL-7P57WTJQSuPewAKnmqKxSf3fcdr1H7tOes4zB9K6L2PXiBCc40QMfC29ebn8IS8iLI2BUaluHO2UabPhzITvaxJ2ekS_Ius1Bva0hf9jadwoQxPNdndwgB_6nUAnhQ_orDpu7Nsch5JsRph99Kgj0GyjWmcapMkQ92RPigGjcH9F9VbafGkCrFkIzBQ_6ZI8cxPBcpZrqpQPbBbg1hTFFP15P2PdJSJq3yrMF_wh4BzzWT1YNX_KqBFKBPuVs3HUtzVdN_w7sjrYSQrwflxlc8Ymdtsp4Atwoc3dbhlBdij90IheJQrQ9gzj71ws-DA_o8KTVbdjq9Qey9lpgx3WUWa7-aKd37wzElljui38uFAmsgeNwMG0HzlJ72K-kScyBhq4_G_Tr5vOFHWZFOXURr114EHmtWoYdCzVu3]--></g></svg>