<svg xmlns="http://www.w3.org/2000/svg" xmlns:xlink="http://www.w3.org/1999/xlink" contentStyleType="text/css" data-diagram-type="MINDMAP" height="127px" preserveAspectRatio="none" style="width:601px;height:127px;" version="1.1" viewBox="0 0 601 127" width="601px" zoomAndPan="magnify"><defs/><g><polygon fill="#4051B5" points="151.1523,44.4453,151.1523,44.6555,160.9996,44.031,170.8469,44.6386,180.6942,44.845,190.5415,43.7319,200.3888,44.3676,210.2362,44.0188,220.0835,44.0618,229.9308,44.3772,239.7781,43.7539,249.6254,44.999,259.4727,43.815,269.32,44.2475,279.1673,44.8773,289.0146,44.3595,298.8619,44.5136,308.7092,44.4134,318.5565,44.6238,328.4038,44.6844,338.2511,45.031,348.0984,45.1164,357.9457,45.1246,367.793,44.4453,367.8254,44.5237,368.4178,44.8224,369.0139,45.1302,369.398,44.9262,370.1423,45.5915,370.6214,45.6169,370.5301,45.5791,371.0201,46.2507,370.9376,46.6851,371.3032,47.3052,371.787,47.9742,371.793,48.4453,371.7767,48.4453,371.8281,54.1047,371.9058,59.7641,371.9317,65.4234,371.7917,71.0828,371.793,76.7422,371.8814,76.7788,371.3824,77.2349,371.4119,77.9098,371.2588,78.5092,370.9926,79.0616,370.6214,79.5706,370.6996,79.7594,369.9941,79.6562,369.4068,79.8384,368.8451,80.0822,368.3511,80.4897,367.793,80.7422,367.793,80.5457,357.9457,81.4236,348.0984,80.5675,338.2511,80.3991,328.4038,80.9705,318.5565,80.0753,308.7092,80.2231,298.8619,81.3911,289.0146,81.1779,279.1673,81.4767,269.32,80.4204,259.4727,81.0614,249.6254,81.3326,239.7781,80.2698,229.9308,80.6463,220.0835,80.8682,210.2362,81.3939,200.3888,80.738,190.5415,81.2048,180.6942,80.1884,170.8469,80.0649,160.9996,81.2458,151.1523,80.7422,151.0609,80.5214,150.6516,80.6646,150.0473,80.3372,149.4211,79.9567,148.8445,79.696,148.3239,79.5706,148.4652,79.6291,147.9974,78.9667,148.0376,78.5147,147.4507,77.803,147.5768,77.3866,147.1523,76.7422,147.3138,76.7422,147.234,71.0828,147.1681,65.4234,147.3945,59.7641,147.3569,54.1047,147.1523,48.4453,147.2045,48.4669,147.4692,47.9138,147.5809,47.2973,148.0759,46.8396,148.1373,46.2023,148.3239,45.6169,148.3459,45.67,148.812,45.1952,149.4036,45.0235,150.0887,45.0774,150.6415,44.812,151.1523,44.4453" style="stroke:#FF6F00;stroke-width:1.5;"/><a href="/use-case/client-360/relationships-and-connections/" target="_top" title="/use-case/client-360/relationships-and-connections/" xlink:actuate="onRequest" xlink:href="/use-case/client-360/relationships-and-connections/" xlink:show="new" xlink:title="/use-case/client-360/relationships-and-connections/" xlink:type="simple"><text fill="#90EE90" font-family="'Roboto'" font-size="14" lengthAdjust="spacing" textLength="200.1904" x="157.1523" y="67.4404">Relationships &amp; Connections</text></a><a href="/use-case/client-360/relationships-and-connections/business-connections/" target="_top" title="/use-case/client-360/relationships-and-connections/business-connections/" xlink:actuate="onRequest" xlink:href="/use-case/client-360/relationships-and-connections/business-connections/" xlink:show="new" xlink:title="/use-case/client-360/relationships-and-connections/business-connections/" xlink:type="simple"><text fill="#90EE90" font-family="'Roboto'" font-size="14" lengthAdjust="spacing" textLength="152.6943" x="428.793" y="27.9951">Business Connections</text></a><path d="M371.793,62.5938 L371.793,62.7806 L373.793,62.2255 L375.793,62.7656 L377.793,62.949 L379.793,61.9596 L381.793,62.5938 L381.793,62.5938 L381.7733,62.5653 L383.4664,61.2052 L385.2585,59.9883 L387.1195,58.8708 L388.7431,57.4104 L390.6992,56.4304 L390.9237,56.5313 L391.6625,53.6037 L393.0565,50.9707 L394.5306,48.3735 L395.5394,45.5673 L396.793,42.8711 L396.8206,42.8835 L397.9988,40.1534 L399.3028,37.4799 L400.5462,34.7791 L401.9054,32.1303 L402.8867,29.3118 L403.0564,29.557 L404.8398,28.3273 L406.5136,26.9395 L408.3477,25.7832 L410.1893,24.6377 L411.793,23.1484 L411.793,22.5074 L413.793,23.7516 L415.793,22.8849 L417.793,23.6229 L419.793,22.7084 L421.793,23.1484" fill="none" style="stroke:#FF9900;stroke-width:1;"/><a href="/use-case/client-360/relationships-and-connections/family-connections/" target="_top" title="/use-case/client-360/relationships-and-connections/family-connections/" xlink:actuate="onRequest" xlink:href="/use-case/client-360/relationships-and-connections/family-connections/" xlink:show="new" xlink:title="/use-case/client-360/relationships-and-connections/family-connections/" xlink:type="simple"><text fill="#90EE90" font-family="'Roboto'" font-size="14" lengthAdjust="spacing" textLength="137.293" x="428.793" y="54.292">Family Connections</text></a><path d="M371.793,62.5938 L371.793,62.7806 L373.793,62.2255 L375.793,62.7656 L377.793,62.949 L379.793,61.9596 L381.793,62.5938 L381.793,62.5938 L381.7791,62.5621 L384.7169,61.1053 L387.7245,59.808 L390.7808,58.6215 L393.6696,57.0529 L396.793,56.0195 L396.8917,56.2449 L399.6805,54.4481 L402.7577,53.3093 L405.87,52.2508 L408.7777,50.7252 L411.793,49.4453 L411.793,49.506 L413.793,49.4169 L415.793,49.604 L417.793,49.6579 L419.793,49.9659 L421.793,49.4453" fill="none" style="stroke:#FF9900;stroke-width:1;"/><a href="/use-case/client-360/relationships-and-connections/social-connections/" target="_top" title="/use-case/client-360/relationships-and-connections/social-connections/" xlink:actuate="onRequest" xlink:href="/use-case/client-360/relationships-and-connections/social-connections/" xlink:show="new" xlink:title="/use-case/client-360/relationships-and-connections/social-connections/" xlink:type="simple"><text fill="#90EE90" font-family="'Roboto'" font-size="14" lengthAdjust="spacing" textLength="132.4668" x="428.793" y="80.5889">Social Connections</text></a><path d="M371.793,62.5938 L371.793,62.7806 L373.793,62.2255 L375.793,62.7656 L377.793,62.949 L379.793,61.9596 L381.793,62.5938 L381.793,62.5938 L381.7791,62.5621 L384.7169,63.735 L387.7245,65.0673 L390.7808,66.5105 L393.6696,67.5717 L396.793,69.168 L396.8917,69.3933 L399.6805,70.2262 L402.7577,71.7172 L405.87,73.2883 L408.7777,74.3924 L411.793,75.7422 L411.793,75.8028 L413.793,75.7138 L415.793,75.9009 L417.793,75.9548 L419.793,76.2628 L421.793,75.7422" fill="none" style="stroke:#FF9900;stroke-width:1;"/><a href="/use-case/client-360/relationships-and-connections/political-connections/" target="_top" title="/use-case/client-360/relationships-and-connections/political-connections/" xlink:actuate="onRequest" xlink:href="/use-case/client-360/relationships-and-connections/political-connections/" xlink:show="new" xlink:title="/use-case/client-360/relationships-and-connections/political-connections/" xlink:type="simple"><text fill="#90EE90" font-family="'Roboto'" font-size="14" lengthAdjust="spacing" textLength="145.291" x="428.793" y="106.8857">Political Connections</text></a><path d="M371.793,62.5938 L371.793,62.7806 L373.793,62.2255 L375.793,62.7656 L377.793,62.949 L379.793,61.9596 L381.793,62.5938 L381.793,62.5938 L381.7733,62.5653 L383.4664,63.6705 L385.2585,64.9189 L387.1195,66.2668 L388.7431,67.2717 L390.6992,68.7571 L390.9237,68.8579 L391.6625,71.3541 L393.0565,74.1448 L394.5306,76.9714 L395.5394,79.5889 L396.793,82.3164 L396.8206,82.3288 L397.9988,85.0225 L399.3028,87.7727 L400.5462,90.4956 L401.9054,93.2706 L402.8867,95.8757 L403.0564,96.121 L404.8398,97.3566 L406.5136,98.4341 L408.3477,99.7432 L410.1893,101.063 L411.793,102.0391 L411.793,101.398 L413.793,102.6422 L415.793,101.7755 L417.793,102.5136 L419.793,101.599 L421.793,102.0391" fill="none" style="stroke:#FF9900;stroke-width:1;"/><a href="/use-case/client-360/" target="_top" title="/use-case/client-360/" xlink:actuate="onRequest" xlink:href="/use-case/client-360/" xlink:show="new" xlink:title="/use-case/client-360/" xlink:type="simple"><text fill="#90EE90" font-family="'Roboto'" font-size="14" lengthAdjust="spacing" textLength="71.7021" x="14" y="67.4404">Client 360</text></a><path d="M147.1523,62.5938 L147.1523,62.7806 L145.1523,62.2255 L143.1523,62.7656 L141.1523,62.949 L139.1523,61.9596 L137.1523,62.5938 L137.1523,62.5938 L137.1523,62.5592 L131.1523,62.4042 L125.1523,62.4233 L119.1523,62.5635 L113.1523,62.2865 L107.1523,62.5938 L107.1523,63.0859 L105.1523,62.0335 L103.1523,62.418 L101.1523,62.9777 L99.1523,62.5175 L97.1523,62.5938" fill="none" style="stroke:#FF9900;stroke-width:1;"/><!--SRC=[xLbjRzf84FxkNx7NI9TMEHf8awYDgYf086r20eAaqgcgeiLUmuhrhcztJOuxtN-_iS5W6zky1FUIK_daxCu-yypioxpaN6aijKEvvM3NC7wnY4qvGRNBXvlgbzk7UhlLxgBWjtTSFgdqJw8YlKQzVNjHxVu-aqiHwLJhrzNBnXneIQJTlMXqethGdcsVskNoNAJPlhsB2GGY_iymr8Xo5qlie3usHmCfF6xL1HCo5DGISmKIXEk8yEU9IsIByb5K5kqnEXZgWII46yO-ejnadaMG7X8q89n8pD0SGY4R5lQ57lw6WcK8SmjPM8vWfHP8Z8byb5GJz4ZrS8f1nuGZHRIcVA2I7hZx_AL-VTlezL05ja6ucWgEXW3gesXOQ6EcICI63hOi04B7aR7kr7u9PD7xo7XlY2tnw4idKG9FCF34FRU23p8JYSXS41jxJAE_ZQRW-XOx1Btg2h1Tl0f6favSR5CmsAD_4LGvDlw98bMb58-0axeY7KPF6FX8C2kEvC9sum6PSLfQMakSXjXvDcf2Wh6pcSW111KB3LnOcy373lfw6apXk8B3oGGrMn9EPJVrcUUmexZFBAnn7okoOtKn7IOJdbMe0i4OCVtReNQkPg6b3W9Ii08rr7n8B2S5gcXmJNMH2YZNHDhO90Ngw94_FC9Dqe4mHKtgOgwdO7T3QeuuKGeUp8Mucea3e-YAN79Bq2ay8pABPuaBwM2Md5iofqLj0i66P8BF1N9f1e_d4dWmceaSpAQI2cOMFdndL4qjv0e6WKYcBdyswmBle_enyhq6GGZ-s5lvYzvv2HSUym4Z7pz2j5A2V_e4-zk3mqU4XW2M6Jrs5HUI9ouPi-DFL8Gk-HD8SimUTiyxaNmLG5vDb2REo_FrxdaNvEim8ByCLo_OlZnFHuv9VnPufwmJYN7SYY27BQ_EzhQoFT-mQO2ni1eIQnrRKqqrGJ66k2BNjHNozVoZL82b-LiO3UqQwxHC8omf5yh3yh2gjQHzJvFbgIYfiE1C9B9OgOArxQERQU6Db4jCQbCJZ9o6oAKwP7qUAqt3YqHYhzdyy07c4vFHtCem3j2tR-ZGKwHamlK_D1c5cgNqxhHyA0d3GIe-fAugGR5QWYF7P-dv8Uf6fz6lVbOTJgBltus3WuSjaVkUeZwzkBhQR7HtUcpiK3Q9Qsa6OxlJeOH9COlhw0LZkzFX2aOXHKsgwOJ3IKsbKhOcL0- -4NpxekS4Jd3OFZgFTvCARCyyuqP8U0_Nx894nLC0DkX_p1-0ZASY_M78wNWy5J2lmP67iSnWYvR6PWhMQc8y1JAtRR4fy3gDYkqnSreJsuDcDYEsXynhFsoFMaZ38QIJqMe8cMtSPGWDI6inXA1PtOMGKwIlC4zbaas542lHJuZ9hsmcp1KcsmXpz7W78NAHjce6PB-icvoMvSr_Qh7_etcjgDB-CpSz1rvhb-0_cCspSj9Eg-UGnuRMPBBEhPGhHPR6kxOauV__TUdxixxzMT- -lFgsmo3xkhzfeJ54UFyVz9MtH-MZaxULIfzeN2c_lkSZBXvvKFbGU9OqTSWRu_LbfuMKy2IaYHPLqxi2ozyOLtYCKTVZljmPQhk4NrrSXmEGCu-f5Dpng-EhhpSBWTFZKergI5Kb445VRuomCcrmK_Z5y1cwlskMtXijUEuyg1FF41JDTRXTMavWhlSl]--></g></svg>