<svg xmlns="http://www.w3.org/2000/svg" xmlns:xlink="http://www.w3.org/1999/xlink" contentStyleType="text/css" data-diagram-type="MINDMAP" height="157px" preserveAspectRatio="none" style="width:905px;height:157px;" version="1.1" viewBox="0 0 905 157" width="905px" zoomAndPan="magnify"><defs/><g><a href="/use-case/construction-project-quotations/scope-and-requirements/" target="_top" title="/use-case/construction-project-quotations/scope-and-requirements/" xlink:actuate="onRequest" xlink:href="/use-case/construction-project-quotations/scope-and-requirements/" xlink:show="new" xlink:title="/use-case/construction-project-quotations/scope-and-requirements/" xlink:type="simple"><text fill="#90EE90" font-family="'Roboto'" font-size="14" lengthAdjust="spacing" textLength="160.7334" x="371.6855" y="82.4404">Scope &amp; Requirements</text></a><a href="/use-case/construction-project-quotations/scope-and-requirements/scope-decomposition-wbs-boq/" target="_top" title="/use-case/construction-project-quotations/scope-and-requirements/scope-decomposition-wbs-boq/" xlink:actuate="onRequest" xlink:href="/use-case/construction-project-quotations/scope-and-requirements/scope-decomposition-wbs-boq/" xlink:show="new" xlink:title="/use-case/construction-project-quotations/scope-and-requirements/scope-decomposition-wbs-boq/" xlink:type="simple"><text fill="#90EE90" font-family="'Roboto'" font-size="14" lengthAdjust="spacing" textLength="233.4609" x="597.8691" y="27.9951">Scope Decomposition (WBS/BoQ)</text></a><path d="M540.8691,77.5938 L540.8691,77.7806 L542.8691,77.2255 L544.8691,77.7656 L546.8691,77.949 L548.8691,76.9596 L550.8691,77.5938 L550.8691,77.5938 L550.8453,77.5688 L552.5195,75.7553 L554.3139,74.0677 L556.192,72.4676 L557.7819,70.5659 L559.7754,69.0867 L560.0094,69.1629 L560.7278,65.2568 L562.1293,61.5732 L563.6142,57.9168 L564.6141,54.1024 L565.8691,50.3711 L565.898,50.3805 L567.0744,46.6236 L568.3821,42.9094 L569.6265,39.1747 L570.9917,35.4792 L571.9629,31.6555 L572.1689,31.8712 L573.9527,30.1724 L575.6036,28.3345 L577.449,26.7003 L579.3035,25.0755 L580.8691,23.1484 L580.8691,22.5074 L582.8691,23.7516 L584.8691,22.8849 L586.8691,23.6229 L588.8691,22.7084 L590.8691,23.1484" fill="none" style="stroke:#FF9900;stroke-width:1;"/><a href="/use-case/construction-project-quotations/scope-and-requirements/assumptions-exclusions-qualifications/" target="_top" title="/use-case/construction-project-quotations/scope-and-requirements/assumptions-exclusions-qualifications/" xlink:actuate="onRequest" xlink:href="/use-case/construction-project-quotations/scope-and-requirements/assumptions-exclusions-qualifications/" xlink:show="new" xlink:title="/use-case/construction-project-quotations/scope-and-requirements/assumptions-exclusions-qualifications/" xlink:type="simple"><text fill="#90EE90" font-family="'Roboto'" font-size="14" lengthAdjust="spacing" textLength="287.3555" x="597.8691" y="54.292">Assumptions, Exclusions &amp; Qualifications</text></a><path d="M540.8691,77.5938 L540.8691,77.7806 L542.8691,77.2255 L544.8691,77.7656 L546.8691,77.949 L548.8691,76.9596 L550.8691,77.5938 L550.8691,77.5938 L550.8538,77.5628 L552.5665,76.5442 L554.3562,75.6816 L556.1995,74.9277 L557.8581,73.7997 L559.7754,73.1956 L559.9836,73.3267 L560.7571,71.1111 L562.1385,69.2783 L563.5941,67.4922 L564.6181,65.4344 L565.8691,63.5195 L565.8948,63.5357 L567.0759,61.5768 L568.3738,59.6914 L569.6153,57.7706 L570.9644,55.9174 L571.9629,53.8435 L572.0949,54.1109 L573.8778,53.2346 L575.5755,52.1857 L577.3979,51.3893 L579.2261,50.6048 L580.8691,49.4453 L580.8691,48.8043 L582.8691,50.0484 L584.8691,49.1818 L586.8691,49.9198 L588.8691,49.0053 L590.8691,49.4453" fill="none" style="stroke:#FF9900;stroke-width:1;"/><polygon fill="#4051B5" points="594.8691,72.5938,594.8691,72.8039,604.7722,72.1794,614.6752,72.787,624.5782,72.9934,634.4812,71.8804,644.3843,72.516,654.2873,72.1673,664.1903,72.2103,674.0933,72.5256,683.9963,71.9024,693.8994,73.1474,703.8024,71.9635,713.7054,72.396,723.6084,73.0257,733.5115,72.508,743.4145,72.662,753.3175,72.5618,763.2205,72.7723,773.1236,72.8329,783.0266,73.1794,792.9296,73.2648,802.8326,73.273,812.7356,72.8484,822.6387,72.5938,822.6978,72.7365,823.2939,73.0443,823.678,72.8403,824.4223,73.5056,824.8636,73.4397,825.4671,73.7653,825.6315,73.8334,825.549,74.2679,825.9146,74.888,826.3984,75.557,826.3893,76.0218,826.6387,76.5938,826.6738,76.5938,826.7515,82.2531,826.7774,87.9125,826.6374,93.5719,826.7344,99.2313,826.6387,104.8906,826.4624,104.8176,826.4919,105.4926,826.3389,106.0919,826.0726,106.6444,825.8902,107.2316,825.4671,107.7191,825.4055,107.5703,824.8182,107.7525,824.2565,107.9963,823.7625,108.4039,823.1793,108.5958,822.6387,108.8906,822.6387,109.572,812.7356,108.7159,802.8326,108.5476,792.9296,109.1189,783.0266,108.2238,773.1236,108.3715,763.2205,109.5396,753.3175,109.3263,743.4145,109.6251,733.5115,108.5688,723.6084,109.2098,713.7054,109.481,703.8024,108.4182,693.8994,108.7948,683.9963,109.0166,674.0933,109.5424,664.1903,108.8864,654.2873,109.3532,644.3843,108.3368,634.4812,108.2134,624.5782,109.3942,614.6752,108.1737,604.7722,109.3996,594.8691,108.8906,594.8955,108.9543,594.2693,108.5738,593.6926,108.313,593.2306,108.329,592.5682,107.8612,592.0407,107.7191,592.223,107.7946,591.6362,107.0829,591.7622,106.6664,591.4869,106.0838,591.1789,105.4876,590.8691,104.8906,590.8849,104.8906,591.1113,99.2313,591.0737,93.5719,590.9256,87.9125,590.9585,82.2531,590.8691,76.5938,590.829,76.5771,591.3241,76.1195,591.3855,75.4821,591.6252,74.9187,591.6191,74.2534,592.0407,73.7653,591.989,73.6405,592.6741,73.6945,593.2269,73.429,593.7323,73.0492,594.2624,72.7288,594.8691,72.5938" style="stroke:#FF6F00;stroke-width:1.5;"/><a href="/use-case/construction-project-quotations/scope-and-requirements/rfis-clarifications-addenda/" target="_top" title="/use-case/construction-project-quotations/scope-and-requirements/rfis-clarifications-addenda/" xlink:actuate="onRequest" xlink:href="/use-case/construction-project-quotations/scope-and-requirements/rfis-clarifications-addenda/" xlink:show="new" xlink:title="/use-case/construction-project-quotations/scope-and-requirements/rfis-clarifications-addenda/" xlink:type="simple"><text fill="#90EE90" font-family="'Roboto'" font-size="14" lengthAdjust="spacing" textLength="211.3193" x="600.8691" y="95.5889">RFIs, Clarifications &amp; Addenda</text></a><path d="M540.8691,77.5938 L540.8691,77.7806 L542.8691,77.2255 L544.8691,77.7656 L546.8691,77.949 L548.8691,76.9596 L550.8691,77.5938 L550.8691,77.5938 L550.8553,77.5621 L553.7931,78.735 L556.8007,80.0673 L559.857,81.5105 L562.7458,82.5717 L565.8691,84.168 L565.9679,84.3933 L568.7567,85.2262 L571.8339,86.7172 L574.9462,88.2883 L577.8538,89.3924 L580.8691,90.7422 L580.8691,90.8028 L582.8691,90.7138 L584.8691,90.9009 L586.8691,90.9548 L588.8691,91.2628 L590.8691,90.7422" fill="none" style="stroke:#FF9900;stroke-width:1;"/><a href="/use-case/construction-project-quotations/scope-and-requirements/constructability-review/" target="_top" title="/use-case/construction-project-quotations/scope-and-requirements/constructability-review/" xlink:actuate="onRequest" xlink:href="/use-case/construction-project-quotations/scope-and-requirements/constructability-review/" xlink:show="new" xlink:title="/use-case/construction-project-quotations/scope-and-requirements/constructability-review/" xlink:type="simple"><text fill="#90EE90" font-family="'Roboto'" font-size="14" lengthAdjust="spacing" textLength="165.751" x="597.8691" y="136.8857">Constructability Review</text></a><path d="M540.8691,77.5938 L540.8691,77.7806 L542.8691,77.2255 L544.8691,77.7656 L546.8691,77.949 L548.8691,76.9596 L550.8691,77.5938 L550.8691,77.5938 L550.8453,77.5688 L552.5195,79.1581 L554.3139,80.8733 L556.192,82.6761 L557.7819,84.1772 L559.7754,86.1008 L560.0094,86.177 L560.7278,89.7572 L562.1293,93.5598 L563.6142,97.3896 L564.6141,101.0615 L565.8691,104.8164 L565.898,104.8258 L567.0744,108.5551 L568.3821,112.3272 L569.6265,116.0787 L570.9917,119.8695 L571.9629,123.532 L572.1689,123.7477 L573.9527,125.4517 L575.6036,127.0166 L577.449,128.7852 L579.3035,130.5633 L580.8691,132.0391 L580.8691,131.398 L582.8691,132.6422 L584.8691,131.7755 L586.8691,132.5136 L588.8691,131.599 L590.8691,132.0391" fill="none" style="stroke:#FF9900;stroke-width:1;"/><a href="/use-case/construction-project-quotations/" target="_top" title="/use-case/construction-project-quotations/" xlink:actuate="onRequest" xlink:href="/use-case/construction-project-quotations/" xlink:show="new" xlink:title="/use-case/construction-project-quotations/" xlink:type="simple"><text fill="#90EE90" font-family="'Roboto'" font-size="14" lengthAdjust="spacing" textLength="289.2354" x="14" y="82.4404">Complex Construction Project Quotations</text></a><path d="M364.6855,77.5938 L364.6855,77.7806 L362.6855,77.2255 L360.6855,77.7656 L358.6855,77.949 L356.6855,76.9596 L354.6855,77.5938 L354.6855,77.5938 L354.6855,77.5592 L348.6855,77.4042 L342.6855,77.4233 L336.6855,77.5635 L330.6855,77.2865 L324.6855,77.5938 L324.6855,78.0859 L322.6855,77.0335 L320.6855,77.418 L318.6855,77.9777 L316.6855,77.5175 L314.6855,77.5938" fill="none" style="stroke:#FF9900;stroke-width:1;"/><!--SRC=[xLXjKziu4FxkNw4hCmTCwuPmq6cPJeSa91G894sWDpUT3gFOIgB6bema9t0tzzzlRSVnInBdXRY56_89jAjddrsjfTqzbWeBPLDcsjZHjDzCqgMCeFBfxMNfxEgsqgWtMiZ_RHti7HOxXt6LThNIk3efjVuQwyrGQPOg5wNJwWHeIgNHEgcsudRGLhVxhhktDr6fDQwk4mg-YlVJD3cWpC42swY3ZK5FS9UP5Mvn4IegWPa43S9KJFdpWqD4dR91N1TjMRJNLpr12DEqRKIPORacGQfFK8ym8h259X0ITM5ZXwl-6-HlGvYPoCHY03iLHtn8n4XGHT28gdw0GOU48KcKegmdqn6u_dnMkRYgjjke2CV07KKvGtq0zL0KREnYIvAO3qricW243c9hhS1_0MJH-zXwkuzDFlAqqoX-92o8n0qp_J_8M2McSqAwsBKK-aUhSQQki4tGgnO7t_ahVoK8OdHC_cAR_arGyK3xDuvK4eAF06VcZjamwi62677BJ28vSDouHyQSfhQMKzcGo6Ujp0KuEvR44X1CH1OODrU1JoJwSXOCRZkSGMQ2cJK9psGNnCorhVrap4oiS0TBic5p2Hk6nLqpLmFSieZXVHrousOYAnLG4DpAqKBPWyJY8KSJLQQeojC0POg8BZP8ZZRQvCubp21DUAQeGHtCL01stQV6W14fuSACrELO7HZ5TsIIcuAUmJEc4rrBZ0iRMsdPb3jrsYNms92vu1E5J9h-vJa5xg_EHVQbCqdvaYY6VsWbGt6nW86lCjUM9vtt0M-ZoW7oeWQF4FopjV0N_-O5VF2OzIpoyIEyLfApJv_WVDkGV8GhUC3clXwRUXVI6PT-ivDNL8mkkGUI35ktc-UTAhvo82yVf2Bsyulrvddd5ElmGNuUeOxOFhz8nzAaCtvu0zQfmZZfXL_3xYskzjRoFTknu84niUmJSnbVPxfgW64CxufOrbUerxDJAGTFiuym_hGhh6PL6c5B6HaFsyEIKe9sN4McHN5IOSEPAcInb3bRsqQNGUEDf4CCsgK6E1ayaLDzoF8y5hg6eq9YgrRxy07aAM6yjjAqrxVespTKS2NH3VZ-2v1MKWdNBy9rH_0Va77wdSlXVBool20DxX0TMbTTG3L61R6Xnv45rFRMqU-e5Lj5txzhhpTa85WsYTzNIUhl7dMatk5teV6Jk13j_5bk5yhyo-ucMK3QkBRVlakTt1kMA_q_xrniUISytenAaTeRL9teGNY-93G3QXjX9hfKwf3N8aBNiMaIk0uBg5Kx0oALX1J8b0Bv9WCqsOOxr8861QH3IaO5h-bA221HF85dMzTNj0rWjcEH-mZKE_1ce0WX3XKzy6FmS381EquEn7ASC3tXMKvubImvo8chpm1OOOGpkSFct7QpxxQCeSrZ0RDcD5aOqmpMcCgiPc2fESnZ83CdBwi2BpDhMHypOxgoFkZSUShwa5aJbFLHSvcPX7JcJ4j2PYiFIa87Par9Gj1v0vAGKsmqCgd6qdEH42ir4adeBvo7J0oc9o4JzEGG9FOXhJNFc7-phf8jquV_s7d5p-QreD7yPM5w2hoMdYByP3PFAaWR7G24F5RqPYxhp6Q_c6TtlsbFKl7_NtVlBotwIul-qgB_WXQzQK41UNDPHqCeKhmznRVxU_k7Rul53b6ukBTpmmQCZvZVl56uMHMroQwsSzgi8ybT0PMkIMNmkSFsNUqS3p5gkSpJEq8DXx3paujm0Sh-8HMSUP7HphzUHWhl3lGoLL1j2o22lbvgONDTPGRt-laZT7DTqzzhTRYnNMXrZn3q_HMu89Hu05dxFm00]--></g></svg>