<svg xmlns="http://www.w3.org/2000/svg" xmlns:xlink="http://www.w3.org/1999/xlink" contentStyleType="text/css" data-diagram-type="MINDMAP" height="152px" preserveAspectRatio="none" style="width:852px;height:152px;" version="1.1" viewBox="0 0 852 152" width="852px" zoomAndPan="magnify"><defs/><g><a href="/use-case/construction-project-quotations/scope-and-requirements/" target="_top" title="/use-case/construction-project-quotations/scope-and-requirements/" xlink:actuate="onRequest" xlink:href="/use-case/construction-project-quotations/scope-and-requirements/" xlink:show="new" xlink:title="/use-case/construction-project-quotations/scope-and-requirements/" xlink:type="simple"><text fill="#4051B5" font-family="'Roboto'" font-size="13" lengthAdjust="spacing" textLength="149.2524" x="350.708" y="79.7661">Scope &amp; Requirements</text></a><a href="/use-case/construction-project-quotations/scope-and-requirements/scope-decomposition-wbs-boq/" target="_top" title="/use-case/construction-project-quotations/scope-and-requirements/scope-decomposition-wbs-boq/" xlink:actuate="onRequest" xlink:href="/use-case/construction-project-quotations/scope-and-requirements/scope-decomposition-wbs-boq/" xlink:show="new" xlink:title="/use-case/construction-project-quotations/scope-and-requirements/scope-decomposition-wbs-boq/" xlink:type="simple"><text fill="#4051B5" font-family="'Roboto'" font-size="13" lengthAdjust="spacing" textLength="216.7852" x="565.0928" y="27.0669">Scope Decomposition (WBS/BoQ)</text></a><path d="M508.0928,75.2656 L508.0928,75.4525 L510.0928,74.8973 L512.0928,75.4374 L514.0928,75.6209 L516.0928,74.6315 L518.0928,75.2656 L518.0928,75.2656 L518.0693,75.2403 L519.7453,73.4796 L521.5396,71.8468 L523.416,70.3028 L525.0092,68.4526 L526.999,67.0314 L527.2322,67.1098 L527.9523,63.319 L529.3532,59.7572 L530.8372,56.2234 L531.8379,52.5269 L533.0928,48.916 L533.1215,48.9257 L534.2981,45.2884 L535.6055,41.6952 L536.8498,38.0807 L538.2145,34.5067 L539.1865,30.8007 L539.389,31.0197 L541.1727,29.3755 L542.8258,27.5901 L544.6701,26.0114 L546.5234,24.4424 L548.0928,22.5664 L548.0928,21.9254 L550.0928,23.1695 L552.0928,22.3028 L554.0928,23.0409 L556.0928,22.1264 L558.0928,22.5664" fill="none" style="stroke:#FF6F00;stroke-width:1;"/><a href="/use-case/construction-project-quotations/scope-and-requirements/assumptions-exclusions-qualifications/" target="_top" title="/use-case/construction-project-quotations/scope-and-requirements/assumptions-exclusions-qualifications/" xlink:actuate="onRequest" xlink:href="/use-case/construction-project-quotations/scope-and-requirements/assumptions-exclusions-qualifications/" xlink:show="new" xlink:title="/use-case/construction-project-quotations/scope-and-requirements/assumptions-exclusions-qualifications/" xlink:type="simple"><text fill="#4051B5" font-family="'Roboto'" font-size="13" lengthAdjust="spacing" textLength="266.8301" x="565.0928" y="52.1997">Assumptions, Exclusions &amp; Qualifications</text></a><path d="M508.0928,75.2656 L508.0928,75.4525 L510.0928,74.8973 L512.0928,75.4374 L514.0928,75.6209 L516.0928,74.6315 L518.0928,75.2656 L518.0928,75.2656 L518.0777,75.2345 L519.7915,74.2335 L521.5811,73.3893 L523.4233,72.654 L525.084,71.5432 L526.999,70.9584 L527.206,71.0915 L527.9822,68.9117 L529.3626,67.1205 L530.8167,65.3766 L531.842,63.357 L533.0928,61.4824 L533.1183,61.4988 L534.2996,59.5796 L535.597,57.735 L536.8384,55.8543 L538.1867,54.0425 L539.1865,52.0065 L539.3164,52.275 L541.0992,51.4168 L542.7983,50.3854 L544.62,49.6076 L546.4474,48.8416 L548.0928,47.6992 L548.0928,47.0582 L550.0928,48.3023 L552.0928,47.4357 L554.0928,48.1737 L556.0928,47.2592 L558.0928,47.6992" fill="none" style="stroke:#FF6F00;stroke-width:1;"/><polygon fill="#4051B5" points="562.0928,70.2656,562.0928,70.4758,572.205,69.8513,582.3173,70.4589,592.4295,70.6653,602.5418,69.5522,612.6541,70.1879,622.7663,69.8391,632.8786,69.8821,642.9908,70.1975,653.1031,69.5743,663.2154,70.8193,673.3276,69.6353,683.4399,70.0679,693.5521,70.6976,703.6644,70.1798,713.7766,70.3339,723.8889,70.2337,734.0012,70.4442,744.1134,70.5048,754.2257,70.8513,764.3379,70.9367,774.4502,70.2656,774.5368,70.4748,775.0484,70.5784,775.6407,70.877,776.2368,71.1848,776.6209,70.9808,777.2786,71.4372,777.4876,71.5237,777.4216,71.9651,777.9116,72.6367,777.8291,73.0711,778.1948,73.6912,778.4502,74.2656,778.6974,74.2656,778.434,79.6922,778.4853,85.1188,778.5631,90.5453,778.5889,95.9719,778.4502,101.3984,778.449,101.3979,778.3043,102.0008,777.8053,102.4568,777.8348,103.1318,777.6818,103.7311,777.2786,104.2269,777.3353,104.3638,776.7911,104.65,776.0856,104.5467,775.4984,104.729,774.9366,104.9728,774.4502,105.3984,774.4502,105.3396,764.3379,105.2019,754.2257,106.0798,744.1134,105.2238,734.0012,105.0554,723.8889,105.6267,713.7766,104.7316,703.6644,104.8793,693.5521,106.0474,683.4399,105.8341,673.3276,106.1329,663.2154,105.0766,653.1031,105.7176,642.9908,105.9889,632.8786,104.926,622.7663,105.3026,612.6541,105.5244,602.5418,106.0502,592.4295,105.3942,582.3173,105.861,572.205,104.8447,562.0928,105.3984,562.0064,105.1899,561.5913,105.3192,560.8699,104.709,560.4606,104.8522,559.8564,104.5248,559.2643,104.2269,559.1818,104.1927,558.9211,103.6161,558.937,103.154,558.4692,102.4916,558.5094,102.0396,558.0928,101.3984,557.9085,101.3984,558.2986,95.9719,558.2542,90.5453,558.1744,85.1188,558.1085,79.6922,558.0928,74.2656,558.3165,74.3583,558.516,73.7782,558.6135,73.1558,558.8783,72.6028,558.9899,71.9863,559.2643,71.4372,559.3557,71.6578,559.8498,71.2506,560.4177,71.0217,560.8838,70.5469,561.4754,70.3751,562.0928,70.2656" style="stroke:#FF6F00;stroke-width:1.5;"/><a href="/use-case/construction-project-quotations/scope-and-requirements/rfis-clarifications-addenda/" target="_top" title="/use-case/construction-project-quotations/scope-and-requirements/rfis-clarifications-addenda/" xlink:actuate="onRequest" xlink:href="/use-case/construction-project-quotations/scope-and-requirements/rfis-clarifications-addenda/" xlink:show="new" xlink:title="/use-case/construction-project-quotations/scope-and-requirements/rfis-clarifications-addenda/" xlink:type="simple"><text fill="#4051B5" font-family="'Roboto'" font-size="13" lengthAdjust="spacing" textLength="196.2251" x="568.0928" y="92.3325">RFIs, Clarifications &amp; Addenda</text></a><path d="M508.0928,75.2656 L508.0928,75.4525 L510.0928,74.8973 L512.0928,75.4374 L514.0928,75.6209 L516.0928,74.6315 L518.0928,75.2656 L518.0928,75.2656 L518.0794,75.2338 L521.0195,76.3474 L524.0269,77.6217 L527.0811,79.0076 L529.9741,80.0088 L533.0928,81.5488 L533.1878,81.7758 L535.9845,82.5471 L539.0588,83.981 L542.1669,85.4958 L545.078,86.5402 L548.0928,87.832 L548.0928,87.8927 L550.0928,87.8036 L552.0928,87.9907 L554.0928,88.0446 L556.0928,88.3526 L558.0928,87.832" fill="none" style="stroke:#FF6F00;stroke-width:1;"/><a href="/use-case/construction-project-quotations/scope-and-requirements/constructability-review/" target="_top" title="/use-case/construction-project-quotations/scope-and-requirements/constructability-review/" xlink:actuate="onRequest" xlink:href="/use-case/construction-project-quotations/scope-and-requirements/constructability-review/" xlink:show="new" xlink:title="/use-case/construction-project-quotations/scope-and-requirements/constructability-review/" xlink:type="simple"><text fill="#4051B5" font-family="'Roboto'" font-size="13" lengthAdjust="spacing" textLength="153.9116" x="565.0928" y="132.4653">Constructability Review</text></a><path d="M508.0928,75.2656 L508.0928,75.4525 L510.0928,74.8973 L512.0928,75.4374 L514.0928,75.6209 L516.0928,74.6315 L518.0928,75.2656 L518.0928,75.2656 L518.0693,75.2403 L519.7453,76.7733 L521.5396,78.4342 L523.416,80.1839 L525.0092,81.6274 L526.999,83.4999 L527.2322,83.5783 L527.9523,87.0336 L529.3532,90.718 L530.8372,94.4303 L531.8379,97.98 L533.0928,101.6152 L533.1215,101.6249 L534.2981,105.2338 L535.6055,108.8867 L536.8498,112.5183 L538.2145,116.1905 L539.1865,119.7306 L539.389,119.9496 L541.1727,121.5991 L542.8258,123.1074 L544.6701,124.8224 L546.5234,126.5472 L548.0928,127.9648 L548.0928,127.3238 L550.0928,128.568 L552.0928,127.7013 L554.0928,128.4393 L556.0928,127.5248 L558.0928,127.9648" fill="none" style="stroke:#FF6F00;stroke-width:1;"/><a href="/use-case/construction-project-quotations/" target="_top" title="/use-case/construction-project-quotations/" xlink:actuate="onRequest" xlink:href="/use-case/construction-project-quotations/" xlink:show="new" xlink:title="/use-case/construction-project-quotations/" xlink:type="simple"><text fill="#4051B5" font-family="'Roboto'" font-size="13" lengthAdjust="spacing" textLength="268.5757" x="14" y="79.7661">Complex Construction Project Quotations</text></a><path d="M343.708,75.2656 L343.708,75.4525 L341.708,74.8973 L339.708,75.4374 L337.708,75.6209 L335.708,74.6315 L333.708,75.2656 L333.708,75.2656 L333.708,75.2311 L327.708,75.0761 L321.708,75.0952 L315.708,75.2353 L309.708,74.9583 L303.708,75.2656 L303.708,75.7578 L301.708,74.7054 L299.708,75.0898 L297.708,75.6496 L295.708,75.1894 L293.708,75.2656" fill="none" style="stroke:#FF6F00;stroke-width:1;"/><!--SRC=[xLXjRnCv4Fw-ly97fGC4Inee2264IDAKjxOfIGiw8LGvkvF6rrqxjRqDlTFzznllI_ObsSrBDnpeoAVM7Z_pUEprp3olbQPI-uoxFfrOrcykZ1W7qdvpVjHwTtpUwHts-YJyxUpjFcqEdsPD1jrExtY_rVyZjbjWSjBgV6YzwSw0vanw_VrkF-k7x8n6pqQxkpEJWzxnQSuWD36_cKcht-zzpjiaA9QwP7n29VN9a3gN5r84tEq8JqYoeoNb2kU0wupPsvi9I8_nozWgPcpT9OmxNk02qMCW5y11Ke_CrYaoGkkXqEE7n6CNOqqeTubBvIMkr8A8Qv1JoJIGATFZ28DT0oSAj6RyGXLZSlhsNUV3SNSm84qy637HJ70oHb23ed7XY7eACiHFgEiY4DdBZFMZxKeaIvvdnWTZwegfiIwYpBP_njtm3uXDCZRxCAA1fydVre7W-fZwGExq1UvTt0b7eiYb1nSE3jXVG9fxrZzPf9QKOeeu2rSiXj4t7iP8U6uUQOAdIoyWvZItj5qu_DmDjzf2ucRZcSoLH1Uf1oxSTU1pLtyr3uxm9uBZTKGt6n9Uo2wAMU1xZ_CnSwccGwgWPdSv7uud0dUh3eJdWME-3bMxczHB1msayBReeMqWgRpPeeikrqnlqm7Z6kI8Eh157mEu2e0xS8A9YpbiGhcEm4x7pBdae1G-cAcvYisHKNP59Ravw0KyCpRfiyI5zAbNd9lRpY4RmI6-hANWCuDAck7ZEGSUZfOYXxCBIOKpQGoVM2r72xc4GMXIwilCbdt0TqbdZvYeOHB2VtQM_hBVlCGFdl8B3rw-n6ob17_r2iztW9SFXCO4LfezwieBnHjNpDdv9of35xuXIKwzy_fv5ygnBP1NDqg3__F5kdxUMufraf1_Zb2dR7- -I6UkoJ1El17hGc6StqLOm-ukh_Ossdlrng84ur8r1dULlIxSgeEEAUOLkUfUiLwllafRs6dr4QxTXYGDNBgd9r7-wM579XdMz6wCOnguk1KEYtr5RE87Ifkw70WTuLOJduMs8ECjRarBUvnChrf6CbjAfC4erExOkElbPTRYJA-rPCD0GtaTCC-ree79LVjKgSrOLJcuIuxYSr4JSDY8ERZ_i7J08vgEJLUjyGt2-bEP0mqFxo4PUW7WsN4EfX1HH0JQJC-tT3MpJV5flgR2HjvwS4w-V26DG87juDlPG7vAoo1iOEo957yYMVig47YyfgLfA4TCmCQstvPOoJ89FlQ7ga46PfpyJlgPKVBrg_MW9WVHi0jXJwfOk7ewLFPGN2NEzxEJvDxdzg3H5X_lrya2RrFWXzA7ik6RumKg_FCge9wv1V5YqahD7fBkp0x3yp5d6L6hXPaSCMNZTPSfkarT5p2LD4Z_u1qIwUHcaKmhcgypGBDbTCWyREvmzfh1j64Qrjm4NXGpONpRzfg-4SoVUF0j1JK7VX8POeWJGmF-6dSuqnDVv-N5-iIu7rZsIZB0YffNrdm1m1fgLxAk-9ebGSi-MOayMgbltHQmIiwgmfXdi860jPw3bIIhsq1MYbJh0gyYIssEMI54RGvQAZrj3babDcsEkXLvAQ5J8YmbpDRMb98DB1AK4j0oBIdXbAdt4hWv2Id1AgX7EVkbqj7COL4qcg7dzQBCXxIHz5F-igvpM-OF_xRIplVcjQGd_y_2z2FmMbbm-SviVgWWrQgL93pMt4qfwqfTfBbD8QJkdHJYNvVGiR5IiI1VrgPIP94AkMHUdCYbcKMHAvQWAmWIvGIMGfQ81hT0_2KJ_989_iyomOc7LUtPqI6vnih9h6a-Uhpx-EcZPdC8cZPtxvtnIowcFEme6JuxclbmtxhtvkIGA158BBzTfg9t0vVVjzxJQqhw0JTsBqXl0lpz_eTa07kHQoO5Dv6ntdywIWsUxTbjfh45a4Y4V3goaeUtonrXH8ONvEpqm7vk7M8Q2R3_Va60usk9kF86vmR_0W00]--></g></svg>