<svg xmlns="http://www.w3.org/2000/svg" xmlns:xlink="http://www.w3.org/1999/xlink" contentStyleType="text/css" data-diagram-type="MINDMAP" height="130px" preserveAspectRatio="none" style="width:926px;height:130px;" version="1.1" viewBox="0 0 926 130" width="926px" zoomAndPan="magnify"><defs/><g><a href="/use-case/construction-project-quotations/opportunity-and-tender-intake/" target="_top" title="/use-case/construction-project-quotations/opportunity-and-tender-intake/" xlink:actuate="onRequest" xlink:href="/use-case/construction-project-quotations/opportunity-and-tender-intake/" xlink:show="new" xlink:title="/use-case/construction-project-quotations/opportunity-and-tender-intake/" xlink:type="simple"><text fill="#90EE90" font-family="'Roboto'" font-size="14" lengthAdjust="spacing" textLength="201.3662" x="371.6855" y="69.292">Opportunity &amp; Tender Intake</text></a><polygon fill="#4051B5" points="635.502,20,635.502,20.2102,645.6868,19.5857,655.8717,20.1933,666.0566,20.3997,676.2415,19.2866,686.4264,19.9223,696.6113,19.5735,706.7962,19.6165,716.9811,19.9318,727.166,19.3086,737.3509,20.5536,747.5358,19.3697,757.7207,19.8022,767.9056,20.4319,778.0905,19.9142,788.2754,20.0682,798.4603,19.9681,808.6452,20.1785,818.8301,20.2391,829.015,20.5857,839.1999,20.6711,849.3848,20.6793,859.5697,20.2546,869.7546,20.4636,879.9395,20.7022,890.1243,19.2788,900.3092,20.6785,910.4941,20,910.4563,19.9087,911.1279,20.3987,911.5624,20.3162,912.1825,20.6818,912.8515,21.1656,913.3226,21.1716,913.3076,21.1654,913.5893,21.7507,913.8955,22.3461,914.1537,22.9217,914.2586,23.4338,914.4941,24,914.5899,24,914.3033,29.6594,914.5889,35.3188,914.6769,40.9781,914.6423,46.6375,914.4941,52.2969,914.6829,52.3751,914.1111,52.8009,913.8247,53.3451,913.5998,53.9147,913.5387,54.5521,913.3226,55.1253,913.2975,55.0648,912.8438,55.5695,912.1689,55.5401,911.5818,55.7226,911.0889,56.1329,910.4941,56.2969,910.4941,55.63,900.3092,55.7777,890.1243,56.9458,879.9395,56.7325,869.7546,57.0314,859.5697,55.9751,849.3848,56.6161,839.1999,56.8873,829.015,55.8245,818.8301,56.201,808.6452,56.4229,798.4603,56.9486,788.2754,56.2927,778.0905,56.7594,767.9056,55.7431,757.7207,55.6196,747.5358,56.8005,737.3509,55.5799,727.166,56.8058,716.9811,56.5035,706.7962,56.029,696.6113,55.9431,686.4264,56.7556,676.2415,55.9975,666.0566,56.8887,655.8717,55.7441,645.6868,56.9143,635.502,56.2969,635.5637,56.446,634.9675,56.138,634.3766,55.8428,633.8976,55.8177,633.3175,55.5486,632.6735,55.1253,632.7256,55.1469,632.5218,54.5938,632.1648,53.9773,632.1912,53.5196,631.784,52.8823,631.502,52.2969,631.5595,52.2969,631.2992,46.6375,631.3669,40.9781,631.6789,35.3188,631.6452,29.6594,631.502,24,631.4887,23.9945,631.6371,23.3932,631.9032,22.8407,631.9936,22.2154,632.5669,21.7902,632.6735,21.1716,632.7679,21.3993,633.3064,21.0994,633.8935,20.917,634.3531,20.4265,634.9474,20.2612,635.502,20" style="stroke:#FF6F00;stroke-width:1.5;"/><a href="/use-case/construction-project-quotations/opportunity-and-tender-intake/rfp-rfq-intake/" target="_top" title="/use-case/construction-project-quotations/opportunity-and-tender-intake/rfp-rfq-intake/" xlink:actuate="onRequest" xlink:href="/use-case/construction-project-quotations/opportunity-and-tender-intake/rfp-rfq-intake/" xlink:show="new" xlink:title="/use-case/construction-project-quotations/opportunity-and-tender-intake/rfp-rfq-intake/" xlink:type="simple"><text fill="#90EE90" font-family="'Roboto'" font-size="14" lengthAdjust="spacing" textLength="258.542" x="641.502" y="42.9951">RFP/RFQ Intake &amp; Document Catalog</text></a><path d="M581.502,64.4453 L581.502,64.6321 L583.502,64.077 L585.502,64.6171 L587.502,64.8006 L589.502,63.8112 L591.502,64.4453 L591.502,64.4453 L591.4792,64.4193 L594.377,61.6731 L597.3896,59.0578 L600.482,56.5335 L603.2994,53.6955 L606.502,51.2969 L606.6642,51.4819 L609.3173,48.4565 L612.444,45.9714 L615.6285,43.5522 L618.4768,40.7495 L621.502,38.1484 L621.502,38.2091 L623.502,38.12 L625.502,38.3071 L627.502,38.361 L629.502,38.6691 L631.502,38.1484" fill="none" style="stroke:#FF9900;stroke-width:1;"/><a href="/use-case/construction-project-quotations/opportunity-and-tender-intake/bid-no-bid-decisioning/" target="_top" title="/use-case/construction-project-quotations/opportunity-and-tender-intake/bid-no-bid-decisioning/" xlink:actuate="onRequest" xlink:href="/use-case/construction-project-quotations/opportunity-and-tender-intake/bid-no-bid-decisioning/" xlink:show="new" xlink:title="/use-case/construction-project-quotations/opportunity-and-tender-intake/bid-no-bid-decisioning/" xlink:type="simple"><text fill="#90EE90" font-family="'Roboto'" font-size="14" lengthAdjust="spacing" textLength="159.2705" x="638.502" y="84.292">Bid/No-Bid Decisioning</text></a><path d="M581.502,64.4453 L581.502,64.6321 L583.502,64.077 L585.502,64.6171 L587.502,64.8006 L589.502,63.8112 L591.502,64.4453 L591.502,64.4453 L591.4865,64.4144 L594.4172,65.7758 L597.4257,67.2929 L600.4884,68.9182 L603.3645,70.1705 L606.502,71.9453 L606.612,72.1654 L609.3767,73.1948 L612.4626,74.8667 L615.5878,76.617 L618.4849,77.9112 L621.502,79.4453 L621.502,79.506 L623.502,79.4169 L625.502,79.604 L627.502,79.6579 L629.502,79.9659 L631.502,79.4453" fill="none" style="stroke:#FF9900;stroke-width:1;"/><a href="/use-case/construction-project-quotations/opportunity-and-tender-intake/site-visit-and-existing-conditions/" target="_top" title="/use-case/construction-project-quotations/opportunity-and-tender-intake/site-visit-and-existing-conditions/" xlink:actuate="onRequest" xlink:href="/use-case/construction-project-quotations/opportunity-and-tender-intake/site-visit-and-existing-conditions/" xlink:show="new" xlink:title="/use-case/construction-project-quotations/opportunity-and-tender-intake/site-visit-and-existing-conditions/" xlink:type="simple"><text fill="#90EE90" font-family="'Roboto'" font-size="14" lengthAdjust="spacing" textLength="215.291" x="638.502" y="110.5889">Site Visit &amp; Existing Conditions</text></a><path d="M581.502,64.4453 L581.502,64.6321 L583.502,64.077 L585.502,64.6171 L587.502,64.8006 L589.502,63.8112 L591.502,64.4453 L591.502,64.4453 L591.4817,64.4173 L593.172,65.5823 L594.9645,66.8883 L596.8279,68.2924 L598.4467,69.3586 L600.4082,70.8979 L600.6343,70.995 L601.3695,73.6266 L602.7649,76.5416 L604.2409,79.4912 L605.2482,82.2396 L606.502,85.0938 L606.5298,85.1057 L607.7077,87.9273 L609.0124,90.8034 L610.2559,93.6532 L611.6162,96.5531 L612.5957,99.2896 L612.7707,99.5311 L614.5541,100.8246 L616.2246,101.9622 L618.0603,103.328 L619.9038,104.7044 L621.502,105.7422 L621.502,105.1011 L623.502,106.3453 L625.502,105.4786 L627.502,106.2167 L629.502,105.3022 L631.502,105.7422" fill="none" style="stroke:#FF9900;stroke-width:1;"/><a href="/use-case/construction-project-quotations/" target="_top" title="/use-case/construction-project-quotations/" xlink:actuate="onRequest" xlink:href="/use-case/construction-project-quotations/" xlink:show="new" xlink:title="/use-case/construction-project-quotations/" xlink:type="simple"><text fill="#90EE90" font-family="'Roboto'" font-size="14" lengthAdjust="spacing" textLength="289.2354" x="14" y="69.292">Complex Construction Project Quotations</text></a><path d="M364.6855,64.4453 L364.6855,64.6321 L362.6855,64.077 L360.6855,64.6171 L358.6855,64.8006 L356.6855,63.8112 L354.6855,64.4453 L354.6855,64.4453 L354.6855,64.4108 L348.6855,64.2558 L342.6855,64.2749 L336.6855,64.415 L330.6855,64.138 L324.6855,64.4453 L324.6855,64.9374 L322.6855,63.8851 L320.6855,64.2695 L318.6855,64.8293 L316.6855,64.3691 L314.6855,64.4453" fill="none" style="stroke:#FF9900;stroke-width:1;"/><!--SRC=[xLXjRzf84FxkNx7NI4shd0laaggDgYg4G9g408KaqgcgeiLUmnxshhExXkHEzzzlR6DZ39YNu5voLxwazJxxp3EpRpDpB1KMog7CTB2hQR-OnAACe9EpkwloUUEkqgmtsoZuxHmK3qlTmoIaKwqq6wVbzkzZt1n8grovB9zLOw8PIBDzMcqdxQ0Totfl5OinfDPiN4y10eZ_qpGveCp50ZkeYur1Jt2FcHLkSn41bS1C0e8mbG1_UNI9g5CsI6BHZarxVTKJX31DsqMK6RPd4gJw1FK88mBRAAQGo8A9NQxwlw9W6iBCH2OM0vYfEE938aQ2Ae96LFL33Zea34cY56KzcOx0zPVpocMZskcW4Ym3TnNb3FM1r6THCD72jYG97rhOD8487II-jKF_1OX57nBVEtriyf6FJhC4aR0X4ZVC3Fv1nf04vfHOsBCL-akhSQOQs27eLPk3x_nLy2KCucIPWeyT-YT1fGFjxoHJMGW-0fwvC-RJg4SROiHjSvh9XUN6FJBMD3Fr9BKRflQpTi85E3iUIMn0C36nmBYv3ltKHb_DWi4TbpFOcM1cGy5prOKnynnxVpfc9bQuYoNPihaf6uRDFJDN0zosYU6V3hbrCnCh5G08RkTeuSIdnE8nHnDLfgZAqm1bYWWB6oH76nroxn5ca1OyKzIWBcOg9BlkKsF0Y9HmOKxWSWm7HSaPcU9cgEVeJ60crnBZmi5sUcp6dJgr23msP25v3CYK6LoUC-J1ruNCmUXSKS7898Q_QML3SR54GG1PQCiVNNI0Tr7b0FbHWqS8_hEpz9Syym8EF6Ozctpw1A-LvEppPrZV3cm-mXKyO0jVZssz2-aTbtwpfw-eX5po028Pjk-shpkLVEKWNZvAHPoN5-ljwyufrj63_392FL7xyYATs2RTySCRgaubnjDU13biSNcsjv7lsOw53uo9PP-Og_WwrrK336DuLyIglaA-dhsLSl0qUmcJJxl2Qbwc4PMK4-DHULXMIj2kfyZiK59KL72c4baiPSxMTj5LM7WZwHA3MjG09yCdSgOEMLt7KjVm997OgTK-VeJnr60ojzAqlJlqxHigU9Be1fp_0cmhgOGN9E6wA_WViEFqUu_3-lXfUO6xBXVAOv1ywb30wb2zWY0TiaKy80NKd0oZr-Ww64JdmI3w_btRszkcDM6vkh3kO-FjMglGhdsDxBr6fzpm7By6gy3rPlDUA66h7dUfgJEk-tzCM6O9Ks292-Y4ceK6r-4FbDZnznm4IAg8FWG3AXWa3rJwFGWTM4qQ4g2EtwkuzJ4GbEeOuTT1OuGlIzVNb0Np7TSc3pvF34Ij48Y-na2V_1Wantseu-csL8vzdcVSKOaEz8hjb2Hy3i4QZPJu9bbmvyo_OJ9Q9qybpEgKP77CAjYWDxAUWPMw8K-XpEn_h4kyIiTZSywC7iVcf0kx6fjJPlKnDcVDfNCHoLdGiuYKhTskY1oOrwk8I1UrAI9DYGP5d1EbknCHLwenCOLVsfM83QRx4J7xT2iYSP0swYeilbdNsIspY__Khi6FrhMatFlNmlGSTArSo_zWDSygI5ijmoCTQtgpK7LcoLtAiyRUjYUf-F-dQ-YVXVBFGlb_N2YtR4ZZRgxgQ0YfWZ-dz6w_k7_uhbJg4eLBnJStRC3uY0Kb58NxJL67lDNUdBNgI79FGBvfWWl1eOFfRxKBFCIexJ4VTmHRaB2Bqyle0oJVGoeuy_U1Td5xDG6yFu3bKP3p2X22Rg-qgCIjCeFxLVKHkhckwH-qEjoR7XISHmYgxmeSKoKUOQpp3m00]--></g></svg>