<svg xmlns="http://www.w3.org/2000/svg" xmlns:xlink="http://www.w3.org/1999/xlink" contentStyleType="text/css" data-diagram-type="MINDMAP" height="127px" preserveAspectRatio="none" style="width:872px;height:127px;" version="1.1" viewBox="0 0 872 127" width="872px" zoomAndPan="magnify"><defs/><g><a href="/use-case/construction-project-quotations/opportunity-and-tender-intake/" target="_top" title="/use-case/construction-project-quotations/opportunity-and-tender-intake/" xlink:actuate="onRequest" xlink:href="/use-case/construction-project-quotations/opportunity-and-tender-intake/" xlink:show="new" xlink:title="/use-case/construction-project-quotations/opportunity-and-tender-intake/" xlink:type="simple"><text fill="#4051B5" font-family="'Roboto'" font-size="13" lengthAdjust="spacing" textLength="186.9829" x="350.708" y="67.1997">Opportunity &amp; Tender Intake</text></a><polygon fill="#4051B5" points="599.8232,20,599.8232,20.2102,609.6774,19.5857,619.5315,20.1933,629.3856,20.3997,639.2397,19.2866,649.0938,19.9223,658.9479,19.5735,668.8021,19.6165,678.6562,19.9318,688.5103,19.3086,698.3644,20.5536,708.2185,19.3697,718.0726,19.8022,727.9268,20.4319,737.7809,19.9142,747.635,20.0682,757.4891,19.9681,767.3432,20.1785,777.1973,20.2391,787.0515,20.5857,796.9056,20.6711,806.7597,20.6793,816.6138,20.2546,826.4679,20.4636,836.322,20.7022,846.1762,19.2788,856.0303,20,856.1168,20.209,856.5581,20.143,857.2297,20.633,857.6642,20.5505,858.2843,20.9162,858.8587,21.1716,859.0871,21.2662,859.078,21.731,859.3598,22.3164,859.6659,22.9118,859.9241,23.4874,860.0303,24,860.029,24,860.126,29.4266,859.8395,34.8531,860.1251,40.2797,860.213,45.7063,860.0303,51.1328,860.1672,51.1895,859.9847,51.7767,859.4129,52.2026,859.1265,52.7467,858.9016,53.3163,858.8587,53.9612,858.8512,53.9431,858.2679,54.135,857.8143,54.6397,857.1394,54.6104,856.5522,54.7929,856.0303,55.1328,856.0303,55.3611,846.1762,54.466,836.322,54.6137,826.4679,55.7818,816.6138,55.5685,806.7597,55.8673,796.9056,54.811,787.0515,55.452,777.1973,55.7232,767.3432,54.6604,757.4891,55.037,747.635,55.2588,737.7809,55.7846,727.9268,55.1286,718.0726,55.5954,708.2185,54.579,698.3644,54.4556,688.5103,55.6364,678.6562,54.4159,668.8021,55.6418,658.9479,55.3394,649.0938,54.8649,639.2397,54.779,629.3856,55.5916,619.5315,54.8335,609.6774,55.7247,599.8232,55.1328,599.7527,54.9626,599.3363,55.0886,598.7536,54.8133,598.1574,54.5053,597.5665,54.2101,596.9948,53.9612,597.2186,54.0539,596.9495,53.4738,596.5783,52.8515,596.3745,52.2984,596.0174,51.6819,595.8232,51.1328,596.0621,51.1328,595.8749,45.7063,595.8808,40.2797,595.6205,34.8531,595.6882,29.4266,595.8232,24,595.9867,24.0677,596.1899,23.4891,596.2787,22.8632,596.427,22.2618,596.6931,21.7093,596.9948,21.1716,596.9073,20.9603,597.6134,21.065,598.2205,20.9307,598.759,20.6307,599.3462,20.4483,599.8232,20" style="stroke:#FF6F00;stroke-width:1.5;"/><a href="/use-case/construction-project-quotations/opportunity-and-tender-intake/rfp-rfq-intake/" target="_top" title="/use-case/construction-project-quotations/opportunity-and-tender-intake/rfp-rfq-intake/" xlink:actuate="onRequest" xlink:href="/use-case/construction-project-quotations/opportunity-and-tender-intake/rfp-rfq-intake/" xlink:show="new" xlink:title="/use-case/construction-project-quotations/opportunity-and-tender-intake/rfp-rfq-intake/" xlink:type="simple"><text fill="#4051B5" font-family="'Roboto'" font-size="13" lengthAdjust="spacing" textLength="240.0747" x="605.8232" y="42.0669">RFP/RFQ Intake &amp; Document Catalog</text></a><path d="M545.8232,62.6992 L545.8232,62.886 L547.8232,62.3309 L549.8232,62.871 L551.8232,63.0545 L553.8232,62.0651 L555.8232,62.6992 L555.8232,62.6992 L555.8011,62.6727 L558.7015,60.0406 L561.7138,57.542 L564.8038,55.1362 L567.6259,52.4106 L570.8232,50.1328 L570.9813,50.3214 L573.6434,47.4048 L576.7668,45.0389 L579.9465,42.7401 L582.7988,40.0505 L585.8232,37.5664 L585.8232,37.6271 L587.8232,37.538 L589.8232,37.7251 L591.8232,37.779 L593.8232,38.087 L595.8232,37.5664" fill="none" style="stroke:#FF6F00;stroke-width:1;"/><a href="/use-case/construction-project-quotations/opportunity-and-tender-intake/bid-no-bid-decisioning/" target="_top" title="/use-case/construction-project-quotations/opportunity-and-tender-intake/bid-no-bid-decisioning/" xlink:actuate="onRequest" xlink:href="/use-case/construction-project-quotations/opportunity-and-tender-intake/bid-no-bid-decisioning/" xlink:show="new" xlink:title="/use-case/construction-project-quotations/opportunity-and-tender-intake/bid-no-bid-decisioning/" xlink:type="simple"><text fill="#4051B5" font-family="'Roboto'" font-size="13" lengthAdjust="spacing" textLength="147.894" x="602.8232" y="82.1997">Bid/No-Bid Decisioning</text></a><path d="M545.8232,62.6992 L545.8232,62.886 L547.8232,62.3309 L549.8232,62.871 L551.8232,63.0545 L553.8232,62.0651 L555.8232,62.6992 L555.8232,62.6992 L555.8078,62.6683 L558.7385,64.0297 L561.747,65.5468 L564.8097,67.1721 L567.6858,68.4244 L570.8232,70.1992 L570.9333,70.4193 L573.698,71.4487 L576.7839,73.1206 L579.9091,74.8709 L582.8062,76.1651 L585.8232,77.6992 L585.8232,77.7599 L587.8232,77.6708 L589.8232,77.8579 L591.8232,77.9118 L593.8232,78.2198 L595.8232,77.6992" fill="none" style="stroke:#FF6F00;stroke-width:1;"/><a href="/use-case/construction-project-quotations/opportunity-and-tender-intake/site-visit-and-existing-conditions/" target="_top" title="/use-case/construction-project-quotations/opportunity-and-tender-intake/site-visit-and-existing-conditions/" xlink:actuate="onRequest" xlink:href="/use-case/construction-project-quotations/opportunity-and-tender-intake/site-visit-and-existing-conditions/" xlink:show="new" xlink:title="/use-case/construction-project-quotations/opportunity-and-tender-intake/site-visit-and-existing-conditions/" xlink:type="simple"><text fill="#4051B5" font-family="'Roboto'" font-size="13" lengthAdjust="spacing" textLength="199.9131" x="602.8232" y="107.3325">Site Visit &amp; Existing Conditions</text></a><path d="M545.8232,62.6992 L545.8232,62.886 L547.8232,62.3309 L549.8232,62.871 L551.8232,63.0545 L553.8232,62.0651 L555.8232,62.6992 L555.8232,62.6992 L555.8034,62.671 L557.4954,63.7984 L559.2876,65.0682 L561.1496,66.4369 L562.7713,67.4646 L564.7295,68.97 L564.9546,69.0694 L565.692,71.6159 L567.0866,74.4527 L568.5613,77.3249 L569.5696,79.9911 L570.8232,82.7656 L570.851,82.7779 L572.029,85.519 L573.3333,88.3159 L574.5767,91.086 L575.9364,93.9073 L576.917,96.5613 L577.0887,96.8051 L578.872,98.0623 L580.5446,99.1621 L582.3794,100.4922 L584.2217,101.8331 L585.8232,102.832 L585.8232,102.191 L587.8232,103.4352 L589.8232,102.5685 L591.8232,103.3065 L593.8232,102.392 L595.8232,102.832" fill="none" style="stroke:#FF6F00;stroke-width:1;"/><a href="/use-case/construction-project-quotations/" target="_top" title="/use-case/construction-project-quotations/" xlink:actuate="onRequest" xlink:href="/use-case/construction-project-quotations/" xlink:show="new" xlink:title="/use-case/construction-project-quotations/" xlink:type="simple"><text fill="#4051B5" font-family="'Roboto'" font-size="13" lengthAdjust="spacing" textLength="268.5757" x="14" y="67.1997">Complex Construction Project Quotations</text></a><path d="M343.708,62.6992 L343.708,62.886 L341.708,62.3309 L339.708,62.871 L337.708,63.0545 L335.708,62.0651 L333.708,62.6992 L333.708,62.6992 L333.708,62.6647 L327.708,62.5097 L321.708,62.5288 L315.708,62.6689 L309.708,62.3919 L303.708,62.6992 L303.708,63.1913 L301.708,62.139 L299.708,62.5234 L297.708,63.0832 L295.708,62.623 L293.708,62.6992" fill="none" style="stroke:#FF6F00;stroke-width:1;"/><!--SRC=[xLZRRjiu47tNLt0Re6cHgexJf2Y2eeZZE6ckTkqaYqLH1BH4sLpBf49IkUnY_ts7iYHBiYLV8hS9KB-a5OTdpWnlCsTFAYpKa39xY3t3-CCc3cK4xH_TdDUEBsxgpRDc6mM_jUtDdMft9sdIQTIR5mUrzb-XtHIJLgr-MZjgn40J9itsGQETz8FM7EUZixaPcnmsBovJ1e69_iKcjNQx-MVQ9a8nv80o3miyH5ri3Ng2-yokSvSBjAO4PXB625C9iw-F7X4kPOFGAcHih2FABDUt2L9zWdg44O5T5C-Jo07hBbVzTyYblRv2cDd8nc80CnL7_8w8Uq4LGVTKzKSOz8um98bIbFLaDYUNNu_hfnUDJWTLOM6ufoXdg0-W6aN1H0UxaYI8jx1j0n3QJdnhZy8LG1PzIdplzB7DxxLr5YKE_uhPmJz8Q9AmEI0Ezbs5_ZKEELCNU4ZGgpQ7sFchuCieS-E52pvsw3y4LRUD_v98DI7uFU1CdJ4THZswa2Fkscaa3rONzqZ8QMBgVcRnKplSsES2WWr74biIN8mzC6ul0f_Q-lDviFZGumos8xXPal1KTgES-KDtAvqp6olSnPAKx2xbmtAvRw_K0NTTOkdJ8KjtC_PI1mF1tHLwsDUGM3okq4M3AQfMwO0oHOI3BR927nrownDcaHOyNDIY7cPg17RPfzQ04IdXmXoRoz0S62Ld59ARW9x2Cs4plfOO5qFiPiScmZcZ3Zc3cpKNF3Oef1bSdXFWmTTSv61qAgbWP9p33qRDKbpCO12OvFhIeta7U1tLjv7E6Zn2y9-rcR_acHTmu37hkUJpPtYj96TVli3wTc3p4QxW0SjzFSfw5x8xBljcfw-e15to02GPTc_AvvqfnrP0NZvAHOOlBzVbyrvHhgC7-MMaUipsvMKwiKswuSCxOfqfZDDH13NivkngRwdOYmCRFJ0sbdrYpnFhr50jS8pXNH7pnWhrUl5MMa6anKkuS1iIDN3Zc3wCtfycT6I2GarlXpYwWGjRuQ3ObyX4GrygNPSJX1q8DVAPQGiItiBMDBV7IVIgUIIJfSGu6PdQ7HftDRlCclxIAoLerrSalmwOv5hGmAIgVIpbSgoA7AoZyt1Tf4Siwb0BuWzA1rYY-xxkgXNSGL1_IhsWmUAzGrtN9x1sZ15TY4Z4VQM79rkwajcEyN6wfe96tjYuGT-_euelYMd1tLa1Vb89FsXWJ4_mlu6iUUjpM5xTqbIuvt6XV0Q5kmdDlmcTFpWseTB60r91pV4mUeqkWq5q70oY7p-CZOqolGd7CuLp6pjl7xOgxSDlaR_Nw81R_b3thtLu6bpU6r4eDU8kjKt6JVt7XgqWOGfiWmhQftRbWflm1yve_7q512JiDlCE7AXWa3nGgVKR4r1jEW907RqZhxKD9AKHMkWUChJGj4npGLemV-Yvv47Zn8QeDJ94ts933Ru7b6DLRoyjyfKdYJrZyIcwX-TKdfBcKm0Mq9oYUTax9KfQykA8HCf2bUcfW4MYKX7698CbPAJ57Cmb73q5ib0gMXHu7d5eUSm2EMXvq5m1Q7d88ibdUTILY3mHdHnv9sAsiB8J1J1Dreb0ynITY5EYwehW9eIS22kZuQJiPmeuiSEiT1EZfrMRn45QIe39lraNsIsJY_zKWULdyvhH6V-oD3q7NdFB7Z-PpRDAKgcAHSHZmMXoMHUg4zLLoX5bHvB9Vrbomz9wmPJtiZIj88cKUKic9OBKCpCjSzaIT0vP89_0JCYSrlq9YB-RzT_D-gzlrbikr9PNvsVe3keNFQVwVcjpQ-TzjTeb2bSttron0UFtBEZhA1n-HOVahV7cg7M69FS55C4sX12SNfZ-rZZ1TnYrVQRjTc4B4dPoS1fzW8xWZWhEz3umJgxFnmOVjs5v51JY0eYWwtCZkluQpEAwrTz5LvU7vYVZ32vp7xhWNKGOt5c0AnvXhFC_]--></g></svg>