<svg xmlns="http://www.w3.org/2000/svg" xmlns:xlink="http://www.w3.org/1999/xlink" contentStyleType="text/css" data-diagram-type="MINDMAP" height="152px" preserveAspectRatio="none" style="width:943px;height:152px;" version="1.1" viewBox="0 0 943 152" width="943px" zoomAndPan="magnify"><defs/><g><a href="/use-case/construction-project-quotations/risk-compliance-and-contracts/" target="_top" title="/use-case/construction-project-quotations/risk-compliance-and-contracts/" xlink:actuate="onRequest" xlink:href="/use-case/construction-project-quotations/risk-compliance-and-contracts/" xlink:show="new" xlink:title="/use-case/construction-project-quotations/risk-compliance-and-contracts/" xlink:type="simple"><text fill="#4051B5" font-family="'Roboto'" font-size="13" lengthAdjust="spacing" textLength="192.8291" x="350.708" y="79.7661">Risk, Compliance &amp; Contracts</text></a><polygon fill="#4051B5" points="605.6694,20,605.6694,20.2102,615.8402,19.5857,626.0109,20.1933,636.1816,20.3997,646.3523,19.2866,656.5231,19.9223,666.6938,19.5735,676.8645,19.6165,687.0353,19.9318,697.206,19.3086,707.3767,20.5536,717.5474,19.3697,727.7182,19.8022,737.8889,20.4319,748.0596,19.9142,758.2304,20.0682,768.4011,19.9681,778.5718,20.1785,788.7425,20.2391,798.9133,20.5857,809.084,20.6711,819.2547,20.6793,829.4255,20.2546,839.5962,20,839.6553,20.1428,840.2515,20.4506,840.6356,20.2465,841.3798,20.9119,841.8211,20.8459,842.4246,21.1716,842.589,21.2397,842.5065,21.6741,842.8722,22.2942,843.3559,22.9632,843.3469,23.4281,843.5962,24,843.6313,24,843.7091,29.4266,843.7349,34.8531,843.5949,40.2797,843.6919,45.7063,843.5962,51.1328,843.4199,51.0598,843.4495,51.7348,843.2964,52.3341,843.0301,52.8866,842.8477,53.4738,842.4246,53.9612,842.363,53.8125,841.7757,53.9947,841.214,54.2385,840.7201,54.6461,840.1368,54.838,839.5962,55.1328,839.5962,55.8142,829.4255,54.9581,819.2547,54.7898,809.084,55.3611,798.9133,54.466,788.7425,54.6137,778.5718,55.7818,768.4011,55.5685,758.2304,55.8673,748.0596,54.811,737.8889,55.452,727.7182,55.7232,717.5474,54.6604,707.3767,55.037,697.206,55.2588,687.0353,55.7846,676.8645,55.1286,666.6938,55.5954,656.5231,54.579,646.3523,54.4556,636.1816,55.6364,626.0109,54.4159,615.8402,55.6418,605.6694,55.1328,605.6958,55.1964,605.0696,54.816,604.4929,54.5552,604.0309,54.5711,603.3685,54.1034,602.841,53.9612,603.0233,54.0367,602.4365,53.325,602.5625,52.9086,602.2872,52.326,601.9792,51.7297,601.6694,51.1328,601.6852,51.1328,601.9116,45.7063,601.874,40.2797,601.7259,34.8531,601.7588,29.4266,601.6694,24,601.6293,23.9834,602.1244,23.5257,602.1858,22.8884,602.4255,22.325,602.4193,21.6597,602.841,21.1716,602.7893,21.0468,603.4744,21.1007,604.0272,20.8353,604.5326,20.4554,605.0627,20.1351,605.6694,20" style="stroke:#FF6F00;stroke-width:1.5;"/><a href="/use-case/construction-project-quotations/risk-compliance-and-contracts/risk-register-and-scenario-analysis/" target="_top" title="/use-case/construction-project-quotations/risk-compliance-and-contracts/risk-register-and-scenario-analysis/" xlink:actuate="onRequest" xlink:href="/use-case/construction-project-quotations/risk-compliance-and-contracts/risk-register-and-scenario-analysis/" xlink:show="new" xlink:title="/use-case/construction-project-quotations/risk-compliance-and-contracts/risk-register-and-scenario-analysis/" xlink:type="simple"><text fill="#4051B5" font-family="'Roboto'" font-size="13" lengthAdjust="spacing" textLength="217.7944" x="611.6694" y="42.0669">Risk Register &amp; Scenario Analysis</text></a><path d="M551.6694,75.2656 L551.6694,75.4525 L553.6694,74.8973 L555.6694,75.4374 L557.6694,75.6209 L559.6694,74.6315 L561.6694,75.2656 L561.6694,75.2656 L561.6504,75.2368 L563.3461,73.9294 L565.1379,72.7673 L566.9965,71.7061 L568.6249,70.2969 L570.5757,69.3751 L570.7984,69.4798 L571.5409,66.6641 L572.9336,64.1541 L574.4057,61.6814 L575.4162,58.9916 L576.6694,56.416 L576.6969,56.4289 L577.8753,53.8182 L579.1787,51.2661 L580.4219,48.6858 L581.78,46.1595 L582.7632,43.4569 L582.9277,43.7057 L584.711,42.5306 L586.3881,41.1951 L588.2206,40.0945 L590.0604,39.0048 L591.6694,37.5664 L591.6694,36.9254 L593.6694,38.1695 L595.6694,37.3028 L597.6694,38.0409 L599.6694,37.1264 L601.6694,37.5664" fill="none" style="stroke:#FF6F00;stroke-width:1;"/><a href="/use-case/construction-project-quotations/risk-compliance-and-contracts/regulatory-safety-environmental-compliance/" target="_top" title="/use-case/construction-project-quotations/risk-compliance-and-contracts/regulatory-safety-environmental-compliance/" xlink:actuate="onRequest" xlink:href="/use-case/construction-project-quotations/risk-compliance-and-contracts/regulatory-safety-environmental-compliance/" xlink:show="new" xlink:title="/use-case/construction-project-quotations/risk-compliance-and-contracts/regulatory-safety-environmental-compliance/" xlink:type="simple"><text fill="#4051B5" font-family="'Roboto'" font-size="13" lengthAdjust="spacing" textLength="314.9644" x="608.6694" y="82.1997">Regulatory, Safety &amp; Environmental Compliance</text></a><path d="M551.6694,75.2656 L551.6694,75.4525 L553.6694,74.8973 L555.6694,75.4374 L557.6694,75.6209 L559.6694,74.6315 L561.6694,75.2656 L561.6694,75.2656 L561.6666,75.2312 L564.6541,75.3201 L567.6557,75.5825 L570.667,75.9655 L573.6446,75.9328 L576.6694,76.4824 L576.6893,76.7277 L579.6468,76.4466 L582.6623,76.8815 L585.685,77.4038 L588.6664,77.4179 L591.6694,77.6992 L591.6694,77.7599 L593.6694,77.6708 L595.6694,77.8579 L597.6694,77.9118 L599.6694,78.2198 L601.6694,77.6992" fill="none" style="stroke:#FF6F00;stroke-width:1;"/><a href="/use-case/construction-project-quotations/risk-compliance-and-contracts/contract-terms-and-commercial-review/" target="_top" title="/use-case/construction-project-quotations/risk-compliance-and-contracts/contract-terms-and-commercial-review/" xlink:actuate="onRequest" xlink:href="/use-case/construction-project-quotations/risk-compliance-and-contracts/contract-terms-and-commercial-review/" xlink:show="new" xlink:title="/use-case/construction-project-quotations/risk-compliance-and-contracts/contract-terms-and-commercial-review/" xlink:type="simple"><text fill="#4051B5" font-family="'Roboto'" font-size="13" lengthAdjust="spacing" textLength="248.314" x="608.6694" y="107.3325">Contract Terms &amp; Commercial Review</text></a><path d="M551.6694,75.2656 L551.6694,75.4525 L553.6694,74.8973 L555.6694,75.4374 L557.6694,75.6209 L559.6694,74.6315 L561.6694,75.2656 L561.6694,75.2656 L561.6544,75.2345 L563.3682,75.9564 L565.1577,76.8351 L567,77.8227 L568.6607,78.4348 L570.5757,79.5729 L570.7826,79.706 L571.5588,81.3166 L572.9393,83.3157 L574.3934,85.3623 L575.4186,87.133 L576.6694,89.0488 L576.6949,89.0652 L577.8762,90.9363 L579.1737,92.8821 L580.4151,94.7919 L581.7634,96.7704 L582.7632,98.5248 L582.893,98.7933 L584.6759,99.658 L586.375,100.3496 L588.1966,101.2946 L590.0241,102.2516 L591.6694,102.832 L591.6694,102.191 L593.6694,103.4352 L595.6694,102.5685 L597.6694,103.3065 L599.6694,102.392 L601.6694,102.832" fill="none" style="stroke:#FF6F00;stroke-width:1;"/><a href="/use-case/construction-project-quotations/risk-compliance-and-contracts/bonds-insurance-warranties/" target="_top" title="/use-case/construction-project-quotations/risk-compliance-and-contracts/bonds-insurance-warranties/" xlink:actuate="onRequest" xlink:href="/use-case/construction-project-quotations/risk-compliance-and-contracts/bonds-insurance-warranties/" xlink:show="new" xlink:title="/use-case/construction-project-quotations/risk-compliance-and-contracts/bonds-insurance-warranties/" xlink:type="simple"><text fill="#4051B5" font-family="'Roboto'" font-size="13" lengthAdjust="spacing" textLength="201.7793" x="608.6694" y="132.4653">Bonds, Insurance &amp; Warranties</text></a><path d="M551.6694,75.2656 L551.6694,75.4525 L553.6694,74.8973 L555.6694,75.4374 L557.6694,75.6209 L559.6694,74.6315 L561.6694,75.2656 L561.6694,75.2656 L561.646,75.2403 L563.322,76.7733 L565.1162,78.4342 L566.9926,80.1839 L568.5858,81.6274 L570.5757,83.4999 L570.8089,83.5783 L571.5289,87.0336 L572.9299,90.718 L574.4139,94.4303 L575.4146,97.98 L576.6694,101.6152 L576.6982,101.6249 L577.8747,105.2338 L579.1821,108.8867 L580.4264,112.5183 L581.7912,116.1905 L582.7632,119.7306 L582.9657,119.9496 L584.7494,121.5991 L586.4025,123.1074 L588.2468,124.8224 L590.1001,126.5472 L591.6694,127.9648 L591.6694,127.3238 L593.6694,128.568 L595.6694,127.7013 L597.6694,128.4393 L599.6694,127.5248 L601.6694,127.9648" fill="none" style="stroke:#FF6F00;stroke-width:1;"/><a href="/use-case/construction-project-quotations/" target="_top" title="/use-case/construction-project-quotations/" xlink:actuate="onRequest" xlink:href="/use-case/construction-project-quotations/" xlink:show="new" xlink:title="/use-case/construction-project-quotations/" xlink:type="simple"><text fill="#4051B5" font-family="'Roboto'" font-size="13" lengthAdjust="spacing" textLength="268.5757" x="14" y="79.7661">Complex Construction Project Quotations</text></a><path d="M343.708,75.2656 L343.708,75.4525 L341.708,74.8973 L339.708,75.4374 L337.708,75.6209 L335.708,74.6315 L333.708,75.2656 L333.708,75.2656 L333.708,75.2311 L327.708,75.0761 L321.708,75.0952 L315.708,75.2353 L309.708,74.9583 L303.708,75.2656 L303.708,75.7578 L301.708,74.7054 L299.708,75.0898 L297.708,75.6496 L295.708,75.1894 L293.708,75.2656" fill="none" style="stroke:#FF6F00;stroke-width:1;"/><!--SRC=[xLXjRzD84FxkNx57fGD4JHie2264IDFmsZQzf0MT4AeszYJPYxqRTjSDkTFzzvjrx6JjnCvB7GuaygdrpZxppEpRpFDAQIfroBWVqf7Z_EP3Zt4Wns-kp-hlpgyRhTDMcyI_lQF39xNk4zkaqsoqpa_gxJyJkoKc5_N6X_gRvWnemQJLFccsRJzahzTxsZiyd9cyRfrVPWnY4_ERcTJRxTQdh4sAugWXuoCgQKYwr1lsfOYutn21a6HFIyeLZW7NbjdRoGXamFWmiKeOEtS9uruG-K3q04WVE4WQaDayHNfetHLwi4y2rXzeGhbFV2g7E5CB8cv0ZYNJGCPC3wOOx0OuKQ0rutsLpydbstUD3-VDJeVKS674I3F1oG113Oh6YJqQAB28Nr3VHo1oP7rhJyELI9Oyixvt1jGNOsETHvc5VyNz-0z8J2oR4-ZHAD3a7-UruFgSXa3kj0N6Bkx4NwQPcozS_B73_WPIEtB-jP7gKeenuYoTiHn6JmBCaGZyBD88LvVs8U6qCFKuj_YP7UuS2ud19YFMbaGNSmzS-9l0PxR-UXuy4Ou4n-s8RhOal9JTD6TH63pAviodcdQfWehTPNnuWOZydJeGGG2UEHsgSZTpBmqqa2BOeOTZ0qdbP8SkcbmplKi7Z6kGFUh13drqu6i4t8CBVBYOnqQKwodOvO1vGmvAuOKvDrU9EJAoPvIIMu1UmjEocLzBNCYG1lcnXN1EMGzEyMOj19yPbDACByy5yFXh8N8ykfHKF3BFuMEdxcaXLp28JGfzcT6Y0toND8w8oHe-GlZFtigVVUOb7dZA-m6yU86lbHByvKjStmvkFX0Q7x32rwEgTo6_u_9lTlQAikZ2DoJ9QN1TFUzSERO3ycgYD8G_NwwhvxsZNASFyi-HwZdRdo_JrZRf9W_lb7MkCCv64TUmXwkhlQrYBmzi-i3uL0t0NoVMfQ5ww9ZYkoBNZHNhzVAjj8D8ovTmupOaRU3cCJsUlZyjxCWamvhUJt1C0vUqmd6nhuXBmaXfKvS3eJqCDVMPQmiiRqbhMjZZMBrg4Kcxb9Wd8rUxO-EkLvTPorzwhINhHXgAwu15hYKDJARQfqfjnwhCmLrobgoB6e77Uip3-EFI0PTeF31TjSOx2EjFPHOqNhnzqWqYmBNZ74mXeeY8j1bUREagPZl7fzcQ2Xjvvy4r-VoP74GAN0_lpWFafxICuWR67Kdn5v9rlqO2bzUqD0UIgQ5h6iE0KInZNSfzrnnZIJsj3aWRX_UnEqd7oU_JLiMCaYzVd0SFgdGNZqheCxpbPJocFE1KCe7_q62YM4A9j1CZvDD9J4WzCPdogZGFo2aAAAxon5Mq1thY0hzXKl0GksaQM1CF3BN4TfzqOcCasRJDxNnMppNzoyNqX2eP34EG7aEc4cuOZ0zcgqWkZLMyhAaDHc1iTa2jAxYlN3n5aOn7nxY1iObXWCjwRCRsoRjq42bzcWqRBgwx8PTfck6RYNLcI2wcXkIFcQ41VmLu_bEPybLMjQnEu_k1rRJqOLbJIhFDbm1i8AAby_ANP9eq-oPCLTTIsUosW6KgMHd68eCjTB7D7AobXDq6ibJxsXHu7RLhUymIVMjxq495Qtl8CWrhUzITg5OfdGAzAcMsiLIL1h1Cfqf1YoIgb9DLHgPm2yfKYfKJfJBsAnMfcSEy5ZL3pyfGra7QIb4glbatsIsBYtzRnUXxyrhHwlzlQVeHUAsjutndDZzKaYgLO58U6qPJoBfKRgdjKb-fEf9S_glIJxOMG9QybvM97pPIxYrPr3mopyoopELBq3LqZc82Ao4Bj8XR8FvI7twf3x_KXyhLXui0lLwTdP8RBCZCdDh3HuUFdZoirRgWQUtmtXKVSZ7cSQFAy3RJB8Jxphqt5wT4YKWYUHztPtmTuVJxpdjwGqaxuiRkEMcDWBy_-P1-iFU6y_xZsTpWwP5xp3Hs5XA9a8zdJdgVDxadZ7Rnd5nTldQVEQVuEaNOrZydmF4IHbmvmR7EVm00]--></g></svg>