<svg xmlns="http://www.w3.org/2000/svg" xmlns:xlink="http://www.w3.org/1999/xlink" contentStyleType="text/css" data-diagram-type="MINDMAP" height="314px" preserveAspectRatio="none" style="width:534px;height:314px;" version="1.1" viewBox="0 0 534 314" width="534px" zoomAndPan="magnify"><defs/><g><a href="/use-case/client-360/know-your-customer/" target="_top" title="/use-case/client-360/know-your-customer/" xlink:actuate="onRequest" xlink:href="/use-case/client-360/know-your-customer/" xlink:show="new" xlink:title="/use-case/client-360/know-your-customer/" xlink:type="simple"><text fill="#0000FF" font-family="'Roboto'" font-size="14" lengthAdjust="spacing" textLength="189.6016" x="17" y="161.3311">Know Your Customer (KYC)</text></a><a href="/use-case/client-360/know-your-customer/anti-money-laundering/" target="_top" title="/use-case/client-360/know-your-customer/anti-money-laundering/" xlink:actuate="onRequest" xlink:href="/use-case/client-360/know-your-customer/anti-money-laundering/" xlink:show="new" xlink:title="/use-case/client-360/know-your-customer/anti-money-laundering/" xlink:type="simple"><text fill="#0000FF" font-family="'Roboto'" font-size="14" lengthAdjust="spacing" textLength="207.0059" x="272.0518" y="27.9951">Anti Money Laundering (AML)</text></a><path d="M215.0518,156.4844 L215.0518,156.6712 L217.0518,156.1161 L219.0518,156.6562 L221.0518,156.8396 L223.0518,155.8502 L225.0518,156.4844 L225.0518,156.4844 L225.0257,156.4617 L225.9048,155.2142 L226.9153,154.0808 L228.0172,153.0269 L228.8042,151.6994 L230.0322,150.7551 L230.2704,150.817 L230.5463,147.6637 L231.5175,144.6912 L232.5735,141.7407 L233.136,138.6619 L233.958,135.6506 L233.9879,135.6556 L234.2795,133.63 L234.7072,131.6271 L235.0692,129.6133 L235.5566,127.6202 L235.6353,125.5593 L235.9307,125.5998 L236.2434,123.3477 L236.3655,121.0694 L236.7666,118.8294 L237.1808,116.5911 L237.1807,114.2961 L236.8623,114.2587 L238.0544,109.4352 L238.1982,104.4888 L239.139,99.6359 L239.259,94.6867 L240.0518,89.8164 L240.0215,89.8129 L240.9533,84.9589 L241.1787,80.022 L241.8209,75.1341 L242.4981,70.2502 L242.9229,65.3368 L243.1061,65.3619 L243.2302,63.0839 L243.6675,60.8488 L243.5981,58.5442 L244.2844,56.3434 L244.4683,54.0735 L244.7086,54.1135 L244.9986,52.0876 L245.4079,50.0817 L245.2628,47.9835 L245.5241,45.9529 L246.1455,43.9822 L245.8782,43.9127 L246.9053,40.9547 L247.6313,37.9184 L248.7941,34.9957 L249.211,31.8791 L250.0713,28.8777 L249.9562,28.7777 L251.1439,27.7984 L251.8398,26.3916 L252.8854,25.2888 L254.2733,24.4835 L255.0518,23.1484 L255.0518,23.5357 L257.0518,23.8013 L259.0518,22.8624 L261.0518,23.4322 L263.0518,23.6733 L265.0518,23.1484" fill="none" style="stroke:#FF6F00;stroke-width:1;"/><a href="/use-case/client-360/know-your-customer/identification-verification/" target="_top" title="/use-case/client-360/know-your-customer/identification-verification/" xlink:actuate="onRequest" xlink:href="/use-case/client-360/know-your-customer/identification-verification/" xlink:show="new" xlink:title="/use-case/client-360/know-your-customer/identification-verification/" xlink:type="simple"><text fill="#0000FF" font-family="'Roboto'" font-size="14" lengthAdjust="spacing" textLength="175.9912" x="272.0518" y="54.292">Identification Verification</text></a><path d="M215.0518,156.4844 L215.0518,156.6712 L217.0518,156.1161 L219.0518,156.6562 L221.0518,156.8396 L223.0518,155.8502 L225.0518,156.4844 L225.0518,156.4844 L225.0213,156.4681 L226.6657,153.0503 L228.4638,149.7143 L230.3688,146.4352 L231.9055,142.9601 L233.958,139.7595 L234.1998,139.805 L234.3272,136.2792 L235.1607,132.8861 L236.0803,129.5092 L236.4987,126.0381 L237.1807,122.6165 L237.2107,122.6209 L237.7408,118.6842 L238.4076,114.7673 L239.0085,110.8409 L239.7351,106.9328 L240.0518,102.9648 L240.3469,103.008 L240.9247,99.0781 L241.3122,95.1205 L241.9783,91.2036 L242.6575,87.2886 L242.9229,83.3131 L242.6078,83.2539 L243.8638,79.9403 L244.0824,76.4316 L245.0896,73.0712 L245.2848,69.5581 L246.1455,66.1702 L246.1186,66.1559 L248.2177,62.9801 L249.6889,59.47 L251.5306,56.1573 L253.4033,52.861 L255.0518,49.4453 L255.0518,49.8153 L257.0518,49.4418 L259.0518,49.7006 L261.0518,48.9365 L263.0518,49.6981 L265.0518,49.4453" fill="none" style="stroke:#FF6F00;stroke-width:1;"/><a href="/use-case/client-360/know-your-customer/peps/" target="_top" title="/use-case/client-360/know-your-customer/peps/" xlink:actuate="onRequest" xlink:href="/use-case/client-360/know-your-customer/peps/" xlink:show="new" xlink:title="/use-case/client-360/know-your-customer/peps/" xlink:type="simple"><text fill="#0000FF" font-family="'Roboto'" font-size="14" lengthAdjust="spacing" textLength="238.0205" x="272.0518" y="80.5889">Politically Exposed Persons (PEPs)</text></a><path d="M215.0518,156.4844 L215.0518,156.6712 L217.0518,156.1161 L219.0518,156.6562 L221.0518,156.8396 L223.0518,155.8502 L225.0518,156.4844 L225.0518,156.4844 L225.0235,156.4645 L226.6782,153.8519 L228.475,151.3397 L230.3708,148.8973 L231.9257,146.2144 L233.958,143.8684 L234.1968,143.9279 L234.3307,141.2144 L235.1618,138.6746 L236.0779,136.156 L236.4991,133.5141 L237.1807,130.937 L237.2104,130.9428 L237.7409,127.9696 L238.407,125.0226 L239.0077,122.063 L239.7331,119.1275 L240.0518,116.1133 L240.3446,116.17 L240.9224,113.2059 L241.3113,110.2053 L241.9767,107.2582 L242.655,104.3136 L242.9229,101.2895 L242.6118,101.212 L243.86,98.7762 L244.084,96.0851 L245.0867,93.5881 L245.2875,90.8912 L246.1455,88.3582 L246.1206,88.3406 L248.196,86.025 L249.6903,83.2993 L251.5275,80.8156 L253.3935,78.3522 L255.0518,75.7422 L255.0518,76.1122 L257.0518,75.7387 L259.0518,75.9975 L261.0518,75.2334 L263.0518,75.995 L265.0518,75.7422" fill="none" style="stroke:#FF6F00;stroke-width:1;"/><a href="/use-case/client-360/know-your-customer/crime-records/" target="_top" title="/use-case/client-360/know-your-customer/crime-records/" xlink:actuate="onRequest" xlink:href="/use-case/client-360/know-your-customer/crime-records/" xlink:show="new" xlink:title="/use-case/client-360/know-your-customer/crime-records/" xlink:type="simple"><text fill="#0000FF" font-family="'Roboto'" font-size="14" lengthAdjust="spacing" textLength="102.6621" x="272.0518" y="106.8857">Crime Records</text></a><path d="M215.0518,156.4844 L215.0518,156.6712 L217.0518,156.1161 L219.0518,156.6562 L221.0518,156.8396 L223.0518,155.8502 L225.0518,156.4844 L225.0518,156.4844 L225.0279,156.4594 L226.7021,154.6459 L228.4965,152.9583 L230.3746,151.3582 L231.9645,149.4565 L233.958,147.9773 L234.192,148.0535 L234.9104,144.1475 L236.3119,140.4639 L237.7968,136.8074 L238.7968,132.993 L240.0518,129.2617 L240.0806,129.2711 L241.257,125.5142 L242.5647,121.8001 L243.8091,118.0653 L245.1743,114.3698 L246.1455,110.5461 L246.3515,110.7618 L248.1353,109.063 L249.7862,107.2251 L251.6316,105.5909 L253.4861,103.9662 L255.0518,102.0391 L255.0518,101.398 L257.0518,102.6422 L259.0518,101.7755 L261.0518,102.5136 L263.0518,101.599 L265.0518,102.0391" fill="none" style="stroke:#FF6F00;stroke-width:1;"/><a href="/use-case/client-360/know-your-customer/sanctions/" target="_top" title="/use-case/client-360/know-your-customer/sanctions/" xlink:actuate="onRequest" xlink:href="/use-case/client-360/know-your-customer/sanctions/" xlink:show="new" xlink:title="/use-case/client-360/know-your-customer/sanctions/" xlink:type="simple"><text fill="#0000FF" font-family="'Roboto'" font-size="14" lengthAdjust="spacing" textLength="68.1475" x="272.0518" y="133.1826">Sanctions</text></a><path d="M215.0518,156.4844 L215.0518,156.6712 L217.0518,156.1161 L219.0518,156.6562 L221.0518,156.8396 L223.0518,155.8502 L225.0518,156.4844 L225.0518,156.4844 L225.0365,156.4534 L226.7491,155.4348 L228.5388,154.5723 L230.3821,153.8183 L232.0407,152.6903 L233.958,152.0862 L234.1662,152.2173 L234.9397,150.0017 L236.3211,148.1689 L237.7767,146.3829 L238.8007,144.325 L240.0518,142.4102 L240.0774,142.4263 L241.2585,140.4674 L242.5564,138.582 L243.7979,136.6612 L245.147,134.8081 L246.1455,132.7341 L246.2776,133.0015 L248.0604,132.1252 L249.7581,131.0763 L251.5805,130.28 L253.4087,129.4954 L255.0518,128.3359 L255.0518,127.6949 L257.0518,128.9391 L259.0518,128.0724 L261.0518,128.8104 L263.0518,127.8959 L265.0518,128.3359" fill="none" style="stroke:#FF6F00;stroke-width:1;"/><polygon fill="#4051B5" points="269.0518,151.4844,269.0518,151.6946,279.2048,151.0701,289.3578,151.6777,299.5109,151.8841,309.6639,150.771,319.817,151.4067,329.97,151.0579,340.123,151.1009,350.2761,151.4162,360.4291,150.793,370.5822,152.038,380.7352,150.8541,390.8883,151.2866,401.0413,151.9163,411.1943,151.4844,411.1834,151.458,411.7687,151.7397,412.3216,151.9432,412.9142,152.2423,413.4876,152.4953,414.0228,152.6559,414.2031,152.7307,414.4637,153.3072,414.7006,153.874,414.8041,154.3855,415.1028,154.9778,415.1943,155.4844,415.4284,155.4844,414.9539,161.1438,415.4205,166.8031,415.0955,172.4625,415.3723,178.1219,415.1943,183.7813,415.0419,183.7181,414.9389,184.3382,414.9541,185.0072,414.4764,185.4721,414.2895,186.0574,414.0228,186.6097,414.066,186.714,413.5102,186.9722,412.8909,187.0771,412.3623,187.4011,411.687,187.3707,411.1943,187.7813,411.1943,188.0656,401.0413,188.3294,390.8883,188.2258,380.7352,188.3943,370.5822,187.2982,360.4291,187.1291,350.2761,187.1598,340.123,187.7224,329.97,187.5847,319.817,188.4627,309.6639,187.6066,299.5109,187.4382,289.3578,188.0095,279.2048,187.1144,269.0518,187.7813,268.9855,187.6214,268.5689,187.7468,267.976,187.4468,267.4484,187.3045,266.748,186.7449,266.2233,186.6097,266.3216,186.6504,266.1708,186.1193,265.6092,185.418,265.4909,184.9004,265.3249,184.363,265.0518,183.7813,265.269,183.7813,265.0504,178.1219,265.2059,172.4625,264.8672,166.8031,264.826,161.1438,265.0518,155.4844,265.2069,155.5486,265.0653,154.8272,265.6771,154.4179,265.8183,153.8137,265.9065,153.1875,266.2233,152.6559,266.1782,152.547,266.8475,152.5629,267.3165,152.0951,267.9959,152.1353,268.4156,151.5485,269.0518,151.4844" style="stroke:#FF6F00;stroke-width:1.5;"/><a href="/use-case/client-360/know-your-customer/risk-management/" target="_top" title="/use-case/client-360/know-your-customer/risk-management/" xlink:actuate="onRequest" xlink:href="/use-case/client-360/know-your-customer/risk-management/" xlink:show="new" xlink:title="/use-case/client-360/know-your-customer/risk-management/" xlink:type="simple"><text fill="#0000FF" font-family="'Roboto'" font-size="14" lengthAdjust="spacing" textLength="125.6924" x="275.0518" y="174.4795">Risk Management</text></a><path d="M215.0518,156.4844 L215.0518,156.6712 L217.0518,156.1161 L219.0518,156.6562 L221.0518,156.8396 L223.0518,155.8502 L225.0518,156.4844 L225.0518,156.4844 L225.0379,156.4527 L227.9757,157.6256 L230.9833,158.958 L234.0396,160.4012 L236.9284,161.4623 L240.0518,163.0586 L240.1505,163.284 L242.9393,164.1169 L246.0165,165.6078 L249.1288,167.179 L252.0365,168.2831 L255.0518,169.6328 L255.0518,169.6935 L257.0518,169.6044 L259.0518,169.7915 L261.0518,169.8454 L263.0518,170.1534 L265.0518,169.6328" fill="none" style="stroke:#FF6F00;stroke-width:1;"/><a href="/use-case/client-360/know-your-customer/high-net-worth-individuals/" target="_top" title="/use-case/client-360/know-your-customer/high-net-worth-individuals/" xlink:actuate="onRequest" xlink:href="/use-case/client-360/know-your-customer/high-net-worth-individuals/" xlink:show="new" xlink:title="/use-case/client-360/know-your-customer/high-net-worth-individuals/" xlink:type="simple"><text fill="#0000FF" font-family="'Roboto'" font-size="14" lengthAdjust="spacing" textLength="242.4502" x="272.0518" y="215.7764">High Net Worth Individuals (HNWI)</text></a><path d="M215.0518,156.4844 L215.0518,156.6712 L217.0518,156.1161 L219.0518,156.6562 L221.0518,156.8396 L223.0518,155.8502 L225.0518,156.4844 L225.0518,156.4844 L225.0279,156.4594 L226.7021,158.0487 L228.4965,159.764 L230.3746,161.5667 L231.9645,163.0678 L233.958,164.9915 L234.192,165.0676 L234.9104,168.6478 L236.3119,172.4505 L237.7968,176.2802 L238.7968,179.9521 L240.0518,183.707 L240.0806,183.7164 L241.257,187.4458 L242.5647,191.2178 L243.8091,194.9693 L245.1743,198.7601 L246.1455,202.4226 L246.3515,202.6383 L248.1353,204.3423 L249.7862,205.9073 L251.6316,207.6758 L253.4861,209.454 L255.0518,210.9297 L255.0518,210.2886 L257.0518,211.5328 L259.0518,210.6661 L261.0518,211.4042 L263.0518,210.4897 L265.0518,210.9297" fill="none" style="stroke:#FF6F00;stroke-width:1;"/><a href="/use-case/client-360/know-your-customer/gdpr/" target="_top" title="/use-case/client-360/know-your-customer/gdpr/" xlink:actuate="onRequest" xlink:href="/use-case/client-360/know-your-customer/gdpr/" xlink:show="new" xlink:title="/use-case/client-360/know-your-customer/gdpr/" xlink:type="simple"><text fill="#0000FF" font-family="'Roboto'" font-size="14" lengthAdjust="spacing" textLength="39.7988" x="272.0518" y="242.0732">GDPR</text></a><path d="M215.0518,156.4844 L215.0518,156.6712 L217.0518,156.1161 L219.0518,156.6562 L221.0518,156.8396 L223.0518,155.8502 L225.0518,156.4844 L225.0518,156.4844 L225.0235,156.4645 L226.6782,158.8982 L228.475,161.4325 L230.3708,164.0365 L231.9257,166.3999 L233.958,169.1003 L234.1968,169.1598 L234.3307,171.6189 L235.1618,174.2516 L236.0779,176.9056 L236.4991,179.4362 L237.1807,182.0317 L237.2104,182.0375 L237.7409,184.9938 L238.407,187.9763 L239.0077,190.9462 L239.7331,193.9402 L240.0518,196.8555 L240.3446,196.9122 L240.9224,199.8776 L241.3113,202.8065 L241.9767,205.7889 L242.655,208.7738 L242.9229,211.6792 L242.6118,211.6017 L243.86,214.3384 L244.084,216.8199 L245.0867,219.4954 L245.2875,221.9711 L246.1455,224.6106 L246.1206,224.593 L248.196,227.3239 L249.6903,229.6445 L251.5275,232.2072 L253.3935,234.7902 L255.0518,237.2266 L255.0518,237.5965 L257.0518,237.2231 L259.0518,237.4819 L261.0518,236.7177 L263.0518,237.4794 L265.0518,237.2266" fill="none" style="stroke:#FF6F00;stroke-width:1;"/><a href="/use-case/client-360/know-your-customer/activity-monitoring/" target="_top" title="/use-case/client-360/know-your-customer/activity-monitoring/" xlink:actuate="onRequest" xlink:href="/use-case/client-360/know-your-customer/activity-monitoring/" xlink:show="new" xlink:title="/use-case/client-360/know-your-customer/activity-monitoring/" xlink:type="simple"><text fill="#0000FF" font-family="'Roboto'" font-size="14" lengthAdjust="spacing" textLength="131.9199" x="272.0518" y="268.3701">Activity Monitoring</text></a><path d="M215.0518,156.4844 L215.0518,156.6712 L217.0518,156.1161 L219.0518,156.6562 L221.0518,156.8396 L223.0518,155.8502 L225.0518,156.4844 L225.0518,156.4844 L225.0213,156.4681 L226.6657,159.7403 L228.4638,163.0942 L230.3688,166.505 L231.9055,169.7198 L233.958,173.2092 L234.1998,173.2547 L234.3272,176.5861 L235.1607,180.0502 L236.0803,183.5305 L236.4987,186.9166 L237.1807,190.3522 L237.2107,190.3566 L237.7408,194.2805 L238.4076,198.2244 L239.0085,202.1586 L239.7351,206.1112 L240.0518,210.0039 L240.3469,210.047 L240.9247,213.9779 L241.3122,217.8809 L241.9783,221.8247 L242.6575,225.7704 L242.9229,229.6556 L242.6078,229.5964 L243.8638,233.1399 L244.0824,236.4885 L245.0896,239.9852 L245.2848,243.3293 L246.1455,246.7986 L246.1186,246.7843 L248.2177,250.2985 L249.6889,253.4783 L251.5306,256.8555 L253.4033,260.2492 L255.0518,263.5234 L255.0518,263.8934 L257.0518,263.52 L259.0518,263.7787 L261.0518,263.0146 L263.0518,263.7762 L265.0518,263.5234" fill="none" style="stroke:#FF6F00;stroke-width:1;"/><a href="/use-case/client-360/know-your-customer/core-record-management/" target="_top" title="/use-case/client-360/know-your-customer/core-record-management/" xlink:actuate="onRequest" xlink:href="/use-case/client-360/know-your-customer/core-record-management/" xlink:show="new" xlink:title="/use-case/client-360/know-your-customer/core-record-management/" xlink:type="simple"><text fill="#0000FF" font-family="'Roboto'" font-size="14" lengthAdjust="spacing" textLength="183.0801" x="272.0518" y="294.667">Core Record Management</text></a><path d="M215.0518,156.4844 L215.0518,156.6712 L217.0518,156.1161 L219.0518,156.6562 L221.0518,156.8396 L223.0518,155.8502 L225.0518,156.4844 L225.0518,156.4844 L225.0257,156.4617 L225.9048,157.5059 L226.9153,158.6643 L228.0172,159.9021 L228.8042,160.8662 L230.0322,162.2137 L230.2704,162.2756 L230.5463,165.1641 L231.5175,168.2333 L232.5735,171.3246 L233.136,174.2876 L233.958,177.3181 L233.9879,177.3231 L234.2795,179.3341 L234.7072,181.3677 L235.0692,183.3903 L235.5566,185.4339 L235.6353,187.4095 L235.9307,187.45 L236.2434,189.7031 L236.3655,191.9301 L236.7666,194.1954 L237.1808,196.4625 L237.1807,198.6727 L236.8623,198.6354 L238.0544,203.6038 L238.1982,208.4492 L239.139,213.3881 L239.259,218.2308 L240.0518,223.1523 L240.0215,223.1488 L240.9533,228.0867 L241.1787,232.9417 L241.8209,237.8456 L242.4981,242.7536 L242.9229,247.632 L243.1061,247.6571 L243.2302,249.8844 L243.6675,252.1546 L243.5981,254.3554 L244.2844,256.6598 L244.4683,258.8952 L244.7086,258.9352 L244.9986,260.9459 L245.4079,262.9764 L245.2628,264.9148 L245.5241,266.9208 L246.1455,268.9866 L245.8782,268.9171 L246.9053,272.0009 L247.6313,275.0064 L248.7941,278.1254 L249.211,281.0506 L250.0713,284.091 L249.9562,283.991 L251.1439,285.3034 L251.8398,286.1883 L252.8854,287.3772 L254.2733,288.8637 L255.0518,289.8203 L255.0518,290.2076 L257.0518,290.4732 L259.0518,289.5343 L261.0518,290.104 L263.0518,290.3451 L265.0518,289.8203" fill="none" style="stroke:#FF6F00;stroke-width:1;"/><!--SRC=[xLXjRzf84FxkNp7NV6YgdWkqQLH5LLL2Q98628AaLLLLqM8liCBUTNVNIRdJ_VSRsnY_O0Wuq6jFuHEUdNtcPLzcvtclD97QPTnsYMSOVzXqo3Y5uzERTlsySzEuR5ts8Fpj7LHVrmQlqohzPkEoSrBlVPdf5QXqwusB-cbp3hIWSjaxQVRITc1lE3mSLgjpbG-NdQkCGgWI_0n3JHZtY2Gk38Wr6KdXSxiX725XJql25OvHhWtZAJ1kERvDGOyfZ2YdaZWmdwrWY5C6Ge__18UDnXe8jy4cSe8pjG1nI-MTP9h27TFZ28FTKWwAQituIENZkJexRrnqclq-r32fmjDCS1WZQ82YSUAGE8gctEyIsqOWE4Z9Ub4q4fs5DobvVqniSHTevr7EfXwL3kEJQsw7V-XC9QLpGeV4TpJyRNmGN7U8I-59Js3iuaaeYTAN93qKzjbV56e7nZzffBgKuWvn2cSKm-YfWpaIZfr5yd3no8ZEV5gOUfnRsypkD8w5n61d8wdjX2OI2rpOcy1djkrw5YpXUeBZRaCp9Hqkz2xAcUywBxCviuac0wBebirbR5YEyEsT6X2EGwtWTAYjcqciD5112cU75eu3I2AdEpJHv9hfNHfWN5Cv91RTeOq-_UvJRj4k5XrcCOzm7O5TZParuLGfl30JTJLJHu_ICrOwjm1Tu6TA9xcMk90kSV9Z2-6qs92sy6PT2ZvNMEbcU7akW8VIfSZXQA5JuKYImrT6tT92tkD1gBBKLZ2wx00_XSO115d38eGVU_V-qcTUue4dVEJGjs-nMYd1txt3zUtZvgD2Om5RMZssLHVoEovVixDNLCfT-WETvCIvsRxVkQVK3fnNKwMf-_lbUlj-xoZNSK7-FLATUFlxPJgrJGQpmXjvdNiOPwC8tx3L-rzxfM9V7LXKO6oYnjHU9zR2K2qqJB2ko7LZnVVwwgsqWqXNBs6wj6kYYruQSOEO68-RlRhMaWryJGk6ac8QTuzfFsDPxcrBbDh8WIMGJw4TjS-WF6gn8RCmkAWqBlGV3pQM899ioSS-qtX-0r-_GiLNrBJmQ5SiXs4_Ohuwh5OcNDoPK-5Bq_AL5YwL5RX06Nn16JHcCjY_-D9u1j- -6SytmyB74ZDTR7-cfaFyeFd4y2jGHp6q0p6qvcBOhxTRPOmm6mU3_9AWOJ2n9vz_LE0yCmYVKeCbJ7dKKnNe2eVXMv0upXIQFpoXg0tTiFGhsEyskwfC59PaBZNnNEC2eur6y0czwBC4d28ywfygq8__HZ2Re4Yc9gPBE3RXBgfLe8S2QCy59HmRiz7Ov5IRTqBgiOb7XDqosyVBgW9dE0OTgk5pC0RdoHZidtK-dvV9wyZsS4-VddHxPVOl9kuMswjW3pDy-4QxToOCTl1CM6QzXOoNEvFX1ifdwvvBz7kArqdCoBtF4dHhCrw_CBSKNt5h4ajfzGA03IYb-Tswv1OkldDNa4WF1Lp56Qt2MFIW14kqcO6rUA67GAvaWZO5NeVxAO-vWkqf3xgKtoaFkOhHAO-w4mudTcS9UnDxjZ5n4mTGnDh4eCi8czYdxEioUN0MOUKecep-lVpCt62UcPcZPqcPr44gnQyilratsIsBY_zG_kHd-tLFu_kVfUbNy6jjLkCdU_DB9MchX4JinuRHBFLw9VbGsoNRiEr8Sld_Nx89ZvJ18sNmI1ayKWOFe0ow3fwjwtOBSBkhO3FNNhoildpzebORK4rgrVrh7XZbOVl9i3Pet4_FZFtJRWiKEe9lTPkfw7h4wS-CZ-IMGC_dWTuHN7gKVpovY0NOkDmoANZWYl7nKpjHE3mmZvd6Va6Y8_2fRSJqG9DR8c0aZk3wweFvncXXpV4ncYEW79j-n9LJ7El_2m00]--></g></svg>