<svg xmlns="http://www.w3.org/2000/svg" xmlns:xlink="http://www.w3.org/1999/xlink" contentStyleType="text/css" data-diagram-type="MINDMAP" height="157px" preserveAspectRatio="none" style="width:1004px;height:157px;" version="1.1" viewBox="0 0 1004 157" width="1004px" zoomAndPan="magnify"><defs/><g><a href="/use-case/construction-project-quotations/risk-compliance-and-contracts/" target="_top" title="/use-case/construction-project-quotations/risk-compliance-and-contracts/" xlink:actuate="onRequest" xlink:href="/use-case/construction-project-quotations/risk-compliance-and-contracts/" xlink:show="new" xlink:title="/use-case/construction-project-quotations/risk-compliance-and-contracts/" xlink:type="simple"><text fill="#90EE90" font-family="'Roboto'" font-size="14" lengthAdjust="spacing" textLength="207.6621" x="371.6855" y="82.4404">Risk, Compliance &amp; Contracts</text></a><polygon fill="#4051B5" points="641.7979,20,641.7979,20.2102,651.8378,19.5857,661.8777,20.1933,671.9176,20.3997,681.9575,19.2866,691.9975,19.9223,702.0374,19.5735,712.0773,19.6165,722.1172,19.9318,732.1571,19.3086,742.1971,20.5536,752.237,19.3697,762.2769,19.8022,772.3168,20.4319,782.3568,19.9142,792.3967,20.0682,802.4366,19.9681,812.4765,20.1785,822.5164,20.2391,832.5564,20.5857,842.5963,20.6711,852.6362,20.6793,862.6761,20.2546,872.7161,20.4636,882.756,20.7022,892.7959,20,892.7039,19.7779,893.4481,20.4433,893.8894,20.3773,894.561,20.8673,894.9955,20.7848,895.6243,21.1716,895.6032,21.1628,896.087,21.8319,896.0779,22.2967,896.3597,22.8821,896.6659,23.4775,896.7959,24,896.9346,24,896.7946,29.6594,896.8916,35.3188,896.6051,40.9781,896.8907,46.6375,896.7959,52.2969,896.9647,52.3668,896.6985,52.9193,896.5161,53.5064,895.9442,53.9323,895.6578,54.4764,895.6243,55.1253,895.5451,54.9339,895.0511,55.3415,894.4679,55.5334,894.0142,56.0381,893.3393,56.0088,892.7959,56.2969,892.7959,55.9538,882.756,56.5251,872.7161,55.63,862.6761,55.7777,852.6362,56.9458,842.5963,56.7325,832.5564,57.0314,822.5164,55.9751,812.4765,56.6161,802.4366,56.8873,792.3967,55.8245,782.3568,56.201,772.3168,56.4229,762.2769,56.9486,752.237,56.2927,742.1971,56.7594,732.1571,55.7431,722.1172,55.6196,712.0773,56.8005,702.0374,55.5799,691.9975,56.8058,681.9575,56.5035,671.9176,56.029,661.8777,55.9431,651.8378,56.7556,641.7979,56.2969,641.7597,56.2047,641.3077,56.2448,640.596,55.658,640.1796,55.7841,639.5969,55.5088,638.9694,55.1253,639.0449,55.1566,638.7497,54.5656,638.7246,54.0866,638.4554,53.5065,638.0843,52.8842,637.7979,52.2969,637.8872,52.2969,637.7544,46.6375,638.0367,40.9781,637.8495,35.3188,637.8554,29.6594,637.7979,24,637.6105,23.9224,637.9074,23.3826,638.4299,22.9363,638.6331,22.3578,638.7219,21.7318,638.9694,21.1716,638.9283,21.0724,639.5072,20.8698,640.0133,20.4916,640.7194,20.5964,641.3265,20.4621,641.7979,20" style="stroke:#FF6F00;stroke-width:1.5;"/><a href="/use-case/construction-project-quotations/risk-compliance-and-contracts/risk-register-and-scenario-analysis/" target="_top" title="/use-case/construction-project-quotations/risk-compliance-and-contracts/risk-register-and-scenario-analysis/" xlink:actuate="onRequest" xlink:href="/use-case/construction-project-quotations/risk-compliance-and-contracts/risk-register-and-scenario-analysis/" xlink:show="new" xlink:title="/use-case/construction-project-quotations/risk-compliance-and-contracts/risk-register-and-scenario-analysis/" xlink:type="simple"><text fill="#90EE90" font-family="'Roboto'" font-size="14" lengthAdjust="spacing" textLength="234.5479" x="647.7979" y="42.9951">Risk Register &amp; Scenario Analysis</text></a><path d="M587.7979,77.5938 L587.7979,77.7806 L589.7979,77.2255 L591.7979,77.7656 L593.7979,77.949 L595.7979,76.9596 L597.7979,77.5938 L597.7979,77.5938 L597.7782,77.5653 L599.4712,76.2052 L601.2634,74.9883 L603.1244,73.8708 L604.748,72.4104 L606.7041,71.4304 L606.9285,71.5313 L607.6673,68.6037 L609.0614,65.9707 L610.5355,63.3735 L611.5443,60.5673 L612.7979,57.8711 L612.8255,57.8835 L614.0037,55.1534 L615.3077,52.4799 L616.551,49.7791 L617.9103,47.1303 L618.8916,44.3118 L619.0613,44.557 L620.8446,43.3273 L622.5185,41.9395 L624.3526,40.7832 L626.1942,39.6377 L627.7979,38.1484 L627.7979,37.5074 L629.7979,38.7516 L631.7979,37.8849 L633.7979,38.6229 L635.7979,37.7084 L637.7979,38.1484" fill="none" style="stroke:#FF9900;stroke-width:1;"/><a href="/use-case/construction-project-quotations/risk-compliance-and-contracts/regulatory-safety-environmental-compliance/" target="_top" title="/use-case/construction-project-quotations/risk-compliance-and-contracts/regulatory-safety-environmental-compliance/" xlink:actuate="onRequest" xlink:href="/use-case/construction-project-quotations/risk-compliance-and-contracts/regulatory-safety-environmental-compliance/" xlink:show="new" xlink:title="/use-case/construction-project-quotations/risk-compliance-and-contracts/regulatory-safety-environmental-compliance/" xlink:type="simple"><text fill="#90EE90" font-family="'Roboto'" font-size="14" lengthAdjust="spacing" textLength="339.1924" x="644.7979" y="84.292">Regulatory, Safety &amp; Environmental Compliance</text></a><path d="M587.7979,77.5938 L587.7979,77.7806 L589.7979,77.2255 L591.7979,77.7656 L593.7979,77.949 L595.7979,76.9596 L597.7979,77.5938 L597.7979,77.5938 L597.7957,77.5593 L600.7862,77.5897 L603.7874,77.7939 L606.796,78.119 L609.7789,78.0277 L612.7979,78.5195 L612.813,78.7651 L615.7806,78.4251 L618.7924,78.8021 L621.8097,79.2666 L624.7955,79.2221 L627.7979,79.4453 L627.7979,79.506 L629.7979,79.4169 L631.7979,79.604 L633.7979,79.6579 L635.7979,79.9659 L637.7979,79.4453" fill="none" style="stroke:#FF9900;stroke-width:1;"/><a href="/use-case/construction-project-quotations/risk-compliance-and-contracts/contract-terms-and-commercial-review/" target="_top" title="/use-case/construction-project-quotations/risk-compliance-and-contracts/contract-terms-and-commercial-review/" xlink:actuate="onRequest" xlink:href="/use-case/construction-project-quotations/risk-compliance-and-contracts/contract-terms-and-commercial-review/" xlink:show="new" xlink:title="/use-case/construction-project-quotations/risk-compliance-and-contracts/contract-terms-and-commercial-review/" xlink:type="simple"><text fill="#90EE90" font-family="'Roboto'" font-size="14" lengthAdjust="spacing" textLength="267.415" x="644.7979" y="110.5889">Contract Terms &amp; Commercial Review</text></a><path d="M587.7979,77.5938 L587.7979,77.7806 L589.7979,77.2255 L591.7979,77.7656 L593.7979,77.949 L595.7979,76.9596 L597.7979,77.5938 L597.7979,77.5938 L597.7826,77.5628 L599.4952,78.3034 L601.2849,79.2002 L603.1282,80.2055 L604.7868,80.8368 L606.7041,81.9919 L606.9123,82.1231 L607.6858,83.7779 L609.0672,85.8155 L610.5228,87.8999 L611.5468,89.7124 L612.7979,91.668 L612.8235,91.6841 L614.0046,93.5956 L615.3025,95.5807 L616.544,97.5302 L617.8931,99.5475 L618.8916,101.344 L619.0237,101.6114 L620.8065,102.4943 L622.5042,103.2047 L624.3266,104.1676 L626.1548,105.1424 L627.7979,105.7422 L627.7979,105.1011 L629.7979,106.3453 L631.7979,105.4786 L633.7979,106.2167 L635.7979,105.3022 L637.7979,105.7422" fill="none" style="stroke:#FF9900;stroke-width:1;"/><a href="/use-case/construction-project-quotations/risk-compliance-and-contracts/bonds-insurance-warranties/" target="_top" title="/use-case/construction-project-quotations/risk-compliance-and-contracts/bonds-insurance-warranties/" xlink:actuate="onRequest" xlink:href="/use-case/construction-project-quotations/risk-compliance-and-contracts/bonds-insurance-warranties/" xlink:show="new" xlink:title="/use-case/construction-project-quotations/risk-compliance-and-contracts/bonds-insurance-warranties/" xlink:type="simple"><text fill="#90EE90" font-family="'Roboto'" font-size="14" lengthAdjust="spacing" textLength="217.3008" x="644.7979" y="136.8857">Bonds, Insurance &amp; Warranties</text></a><path d="M587.7979,77.5938 L587.7979,77.7806 L589.7979,77.2255 L591.7979,77.7656 L593.7979,77.949 L595.7979,76.9596 L597.7979,77.5938 L597.7979,77.5938 L597.774,77.5688 L599.4482,79.1581 L601.2426,80.8733 L603.1207,82.6761 L604.7106,84.1772 L606.7041,86.1008 L606.9381,86.177 L607.6565,89.7572 L609.058,93.5598 L610.5429,97.3896 L611.5429,101.0615 L612.7979,104.8164 L612.8267,104.8258 L614.0031,108.5551 L615.3108,112.3272 L616.5552,116.0787 L617.9204,119.8695 L618.8916,123.532 L619.0976,123.7477 L620.8814,125.4517 L622.5323,127.0166 L624.3777,128.7852 L626.2322,130.5633 L627.7979,132.0391 L627.7979,131.398 L629.7979,132.6422 L631.7979,131.7755 L633.7979,132.5136 L635.7979,131.599 L637.7979,132.0391" fill="none" style="stroke:#FF9900;stroke-width:1;"/><a href="/use-case/construction-project-quotations/" target="_top" title="/use-case/construction-project-quotations/" xlink:actuate="onRequest" xlink:href="/use-case/construction-project-quotations/" xlink:show="new" xlink:title="/use-case/construction-project-quotations/" xlink:type="simple"><text fill="#90EE90" font-family="'Roboto'" font-size="14" lengthAdjust="spacing" textLength="289.2354" x="14" y="82.4404">Complex Construction Project Quotations</text></a><path d="M364.6855,77.5938 L364.6855,77.7806 L362.6855,77.2255 L360.6855,77.7656 L358.6855,77.949 L356.6855,76.9596 L354.6855,77.5938 L354.6855,77.5938 L354.6855,77.5592 L348.6855,77.4042 L342.6855,77.4233 L336.6855,77.5635 L330.6855,77.2865 L324.6855,77.5938 L324.6855,78.0859 L322.6855,77.0335 L320.6855,77.418 L318.6855,77.9777 L316.6855,77.5175 L314.6855,77.5938" fill="none" style="stroke:#FF9900;stroke-width:1;"/><!--SRC=[xLXjSzeu4FxkNw5hPgxj92uXbtJQJASJ82JDUmwItjnqEXbXBw33bgWaXt8tzzzlRMCG1inBS2_fn9_0-sZtsPKihPu3fQdKFkEkJxkMzOiBJSQ1b8_lBaedbtULg_Eh6ecUZTtjlM9ZpuJKgvMhoyDIxSy1RWhakbGvAnrNXuuc85UrmshDZ4CscistpUtj8UJewl9c3111miUoL8VnBfNK9mtgT5fI1Doj24_81AWbvGeHmBK1_jJlWZndl6DYoOR7MctTaW3SibuInXqlS87eDf0MS93K8qCNYZHnO4FezXQ9XX7ANU9IsS6HMX1n3x8dcGRIOxeT-s3tm8a2hHblgNG5RZwTLCukg_KwAU8qYAvcWfCsEWszQ1pOf9u28uThwhheYEmQxsfn_XB9adV6-tgRkg8NejDUeafuM8bRxaO_O00nC8VGf86doJ_MaU3walf0NjG4vYvUH6_Y8ewcANfPPty3AUvQ_vgUIbAA7lgPEcAw6ztti4R2SySzTN6wQGi6d2Q6bbEhOMmzMsKXCTc1nLY0668KWGjt6VTZ2tsn28xmkuBZoiGmAnAUoYwkMU1xE-CrSwcc3QfWpU76OZYU2DnS0mZF0oVyEjJQmuoYL10WXPTZX7Beaif-ZY6gN3ETPm36DSWcTI3767Nu5W1tu1gFAUQmBkKwTdRJPaw7WrAuOOxWQW17HkQ8J78JhgVmD32ZROaBwLClRPj8vvmr0GyRcEby2CYa6MsU4ywZjpCzHzQff2BBg8Q_MIL72pc7GGIP6Ikqplg0NvBABWchXeSG_jcO-vZVlCGFdlAM1ny-u6cb1F_u4UUtZeiFXCO3RERfiQvp8RtYqcVs-1Pbq8NlI99Jxsxzl5FDLmxaLLzfy9zUhTVFEwTQ9mVoqoZrYEtJgxInJ1g3WpTcdMgCnxE8UjZj-TtUIhbd9nOVC2vLRN0NoNLggWu6fdYko4LpnNuzUodba6ds59f7kwPwMgUHN2b7mPFhOKbhoHg1XacJIIgvSAOQMQfKpj5UaeluuarK5npMP0uc6H-H4_UGnNdCJOsE6ecDewFtxz6UCfgzbMLjtf4lNqWXK60x-FqNS5afBOEe2RUxKlo5Ayx-5WYSdx0jBqYcEdPukV4OnLRCnaki7Iv5IHsj2gI6vYtii1Cx-JLkjqCh-VhLsjnSPxZ8Ag75SAUIaKqvmAba0lzGhw_OW1Af3K38fpw0aD804lDQQnsGK-1HR9dwjg9Dq7qR-3sJWlju8wIUCR0GKXjWjqWz0YF9gWatwxb-hial6ylZgu7Hzq4w39bAk6VGAmndaTo4g6XQ4mnc469oeDOGt5KsuogGaRM72nWRSGOuhUNGjaLE4YDI-cDe3hdOzf9SuZB3zp3N8P1Snq3o-n0OEZy0_BOJOUrWN6VBKRXwn19HiaCjg0-Py2aEbb26XblZZ4rq-fQPeGKzr66Mz9FbOvB12cBFSW4MadSUuZ9Jq5dMyI8Ipke-CqIRrPtEb6bMTvabpApkDHSf9g4pGuH9c2sjloG9J1DV4gUpT9U4aw6u39kyjDoI-4efBMFukJBBC61QO1bw7zTMZ0zf9Pbaziwwp6gPdFo7oY0_cjUS- -l_LgR7m6jXSU87itbKHLghhf3mM3ARcQmpDOHYdgB1kZD9rV-d5WMUR_xFD__dc__FS_E_zZ3gxSKvkSVU9nnJVBEplRFtfbXiWAR5xLUtlCD5ZqTtGeORjcO-lBPU7L-V4oK2YUHTN9tHBeB3Nrkdz9wIMi13t3wvwW8_FJnBNfXhmphzV342lDsroqnZ4o-H2FbyOILtzYftH2WJx9FRcoFxdNME1q60D-Xz0XnlukXNzj5M_my0]--></g></svg>