<svg xmlns="http://www.w3.org/2000/svg" xmlns:xlink="http://www.w3.org/1999/xlink" contentStyleType="text/css" data-diagram-type="MINDMAP" height="127px" preserveAspectRatio="none" style="width:914px;height:127px;" version="1.1" viewBox="0 0 914 127" width="914px" zoomAndPan="magnify"><defs/><g><polygon fill="#4051B5" points="368.6855,44.4453,368.6855,44.6555,378.5291,44.031,388.3726,44.6386,398.2161,44.845,408.0597,43.7319,417.9032,44.3676,427.7467,44.0188,437.5903,44.0618,447.4338,44.3772,457.2773,43.7539,467.1209,44.999,476.9644,43.815,486.8079,44.2475,496.6515,44.8773,506.495,44.3595,516.3385,44.5136,526.1821,44.4134,536.0256,44.6238,545.8691,44.4453,545.8996,44.519,546.5095,44.86,547.0861,45.1206,547.6528,45.3574,548.1644,45.461,548.6976,45.6169,548.8403,45.676,549.1481,46.2721,548.9441,46.6563,549.6095,47.4005,549.5435,47.8418,549.8691,48.4453,550.0471,48.4453,549.7041,54.1047,549.8463,59.7641,550.1163,65.4234,549.8529,71.0828,549.8691,76.7422,549.9016,76.7556,549.7391,77.3511,549.5287,77.9267,549.165,78.4387,549.0203,79.0416,548.6976,79.5706,548.6245,79.3943,548.1682,79.8925,547.6361,80.2081,547.0572,80.4105,546.513,80.6967,545.8691,80.7422,545.8691,80.2591,536.0256,80.09,526.1821,80.1208,516.3385,80.6833,506.495,80.5457,496.6515,81.4236,486.8079,80.5675,476.9644,80.3991,467.1209,80.9705,457.2773,80.0753,447.4338,80.2231,437.5903,81.3911,427.7467,81.1779,417.9032,81.4767,408.0597,80.4204,398.2161,81.0614,388.3726,81.3326,378.5291,80.2698,368.6855,80.7422,368.6733,80.7127,368.1359,80.5467,367.6373,80.4743,366.988,80.038,366.4818,79.9474,365.8571,79.5706,365.6866,79.5,365.4142,78.9185,365.5436,78.5035,364.9334,77.7821,365.0766,77.3728,364.6855,76.7422,364.7544,76.7422,364.5962,71.0828,364.5676,65.4234,364.8385,59.7641,364.5858,54.1047,364.6855,48.4453,364.8678,48.5208,364.7496,47.8091,365.3443,47.3927,365.5376,46.81,365.6982,46.2138,365.8571,45.6169,365.8631,45.6314,366.5155,45.6063,367.0668,45.3372,367.5758,44.9661,368.1541,44.7622,368.6855,44.4453" style="stroke:#FF6F00;stroke-width:1.5;"/><a href="/use-case/construction-project-quotations/scope-and-requirements/" target="_top" title="/use-case/construction-project-quotations/scope-and-requirements/" xlink:actuate="onRequest" xlink:href="/use-case/construction-project-quotations/scope-and-requirements/" xlink:show="new" xlink:title="/use-case/construction-project-quotations/scope-and-requirements/" xlink:type="simple"><text fill="#90EE90" font-family="'Roboto'" font-size="14" lengthAdjust="spacing" textLength="160.7334" x="374.6855" y="67.4404">Scope &amp; Requirements</text></a><a href="/use-case/construction-project-quotations/scope-and-requirements/scope-decomposition-wbs-boq/" target="_top" title="/use-case/construction-project-quotations/scope-and-requirements/scope-decomposition-wbs-boq/" xlink:actuate="onRequest" xlink:href="/use-case/construction-project-quotations/scope-and-requirements/scope-decomposition-wbs-boq/" xlink:show="new" xlink:title="/use-case/construction-project-quotations/scope-and-requirements/scope-decomposition-wbs-boq/" xlink:type="simple"><text fill="#90EE90" font-family="'Roboto'" font-size="14" lengthAdjust="spacing" textLength="233.4609" x="606.8691" y="27.9951">Scope Decomposition (WBS/BoQ)</text></a><path d="M549.8691,62.5938 L549.8691,62.7806 L551.8691,62.2255 L553.8691,62.7656 L555.8691,62.949 L557.8691,61.9596 L559.8691,62.5938 L559.8691,62.5938 L559.8495,62.5653 L561.5425,61.2052 L563.3346,59.9883 L565.1957,58.8708 L566.8193,57.4104 L568.7754,56.4304 L568.9998,56.5313 L569.7386,53.6037 L571.1327,50.9707 L572.6067,48.3735 L573.6156,45.5673 L574.8691,42.8711 L574.8968,42.8835 L576.0749,40.1534 L577.379,37.4799 L578.6223,34.7791 L579.9816,32.1303 L580.9629,29.3118 L581.1326,29.557 L582.9159,28.3273 L584.5898,26.9395 L586.4239,25.7832 L588.2655,24.6377 L589.8691,23.1484 L589.8691,22.5074 L591.8691,23.7516 L593.8691,22.8849 L595.8691,23.6229 L597.8691,22.7084 L599.8691,23.1484" fill="none" style="stroke:#FF9900;stroke-width:1;"/><a href="/use-case/construction-project-quotations/scope-and-requirements/assumptions-exclusions-qualifications/" target="_top" title="/use-case/construction-project-quotations/scope-and-requirements/assumptions-exclusions-qualifications/" xlink:actuate="onRequest" xlink:href="/use-case/construction-project-quotations/scope-and-requirements/assumptions-exclusions-qualifications/" xlink:show="new" xlink:title="/use-case/construction-project-quotations/scope-and-requirements/assumptions-exclusions-qualifications/" xlink:type="simple"><text fill="#90EE90" font-family="'Roboto'" font-size="14" lengthAdjust="spacing" textLength="287.3555" x="606.8691" y="54.292">Assumptions, Exclusions &amp; Qualifications</text></a><path d="M549.8691,62.5938 L549.8691,62.7806 L551.8691,62.2255 L553.8691,62.7656 L555.8691,62.949 L557.8691,61.9596 L559.8691,62.5938 L559.8691,62.5938 L559.8553,62.5621 L562.7931,61.1053 L565.8007,59.808 L568.857,58.6215 L571.7458,57.0529 L574.8691,56.0195 L574.9679,56.2449 L577.7567,54.4481 L580.8339,53.3093 L583.9462,52.2508 L586.8538,50.7252 L589.8691,49.4453 L589.8691,49.506 L591.8691,49.4169 L593.8691,49.604 L595.8691,49.6579 L597.8691,49.9659 L599.8691,49.4453" fill="none" style="stroke:#FF9900;stroke-width:1;"/><a href="/use-case/construction-project-quotations/scope-and-requirements/rfis-clarifications-addenda/" target="_top" title="/use-case/construction-project-quotations/scope-and-requirements/rfis-clarifications-addenda/" xlink:actuate="onRequest" xlink:href="/use-case/construction-project-quotations/scope-and-requirements/rfis-clarifications-addenda/" xlink:show="new" xlink:title="/use-case/construction-project-quotations/scope-and-requirements/rfis-clarifications-addenda/" xlink:type="simple"><text fill="#90EE90" font-family="'Roboto'" font-size="14" lengthAdjust="spacing" textLength="211.3193" x="606.8691" y="80.5889">RFIs, Clarifications &amp; Addenda</text></a><path d="M549.8691,62.5938 L549.8691,62.7806 L551.8691,62.2255 L553.8691,62.7656 L555.8691,62.949 L557.8691,61.9596 L559.8691,62.5938 L559.8691,62.5938 L559.8553,62.5621 L562.7931,63.735 L565.8007,65.0673 L568.857,66.5105 L571.7458,67.5717 L574.8691,69.168 L574.9679,69.3933 L577.7567,70.2262 L580.8339,71.7172 L583.9462,73.2883 L586.8538,74.3924 L589.8691,75.7422 L589.8691,75.8028 L591.8691,75.7138 L593.8691,75.9009 L595.8691,75.9548 L597.8691,76.2628 L599.8691,75.7422" fill="none" style="stroke:#FF9900;stroke-width:1;"/><a href="/use-case/construction-project-quotations/scope-and-requirements/constructability-review/" target="_top" title="/use-case/construction-project-quotations/scope-and-requirements/constructability-review/" xlink:actuate="onRequest" xlink:href="/use-case/construction-project-quotations/scope-and-requirements/constructability-review/" xlink:show="new" xlink:title="/use-case/construction-project-quotations/scope-and-requirements/constructability-review/" xlink:type="simple"><text fill="#90EE90" font-family="'Roboto'" font-size="14" lengthAdjust="spacing" textLength="165.751" x="606.8691" y="106.8857">Constructability Review</text></a><path d="M549.8691,62.5938 L549.8691,62.7806 L551.8691,62.2255 L553.8691,62.7656 L555.8691,62.949 L557.8691,61.9596 L559.8691,62.5938 L559.8691,62.5938 L559.8495,62.5653 L561.5425,63.6705 L563.3346,64.9189 L565.1957,66.2668 L566.8193,67.2717 L568.7754,68.7571 L568.9998,68.8579 L569.7386,71.3541 L571.1327,74.1448 L572.6067,76.9714 L573.6156,79.5889 L574.8691,82.3164 L574.8968,82.3288 L576.0749,85.0225 L577.379,87.7727 L578.6223,90.4956 L579.9816,93.2706 L580.9629,95.8757 L581.1326,96.121 L582.9159,97.3566 L584.5898,98.4341 L586.4239,99.7432 L588.2655,101.063 L589.8691,102.0391 L589.8691,101.398 L591.8691,102.6422 L593.8691,101.7755 L595.8691,102.5136 L597.8691,101.599 L599.8691,102.0391" fill="none" style="stroke:#FF9900;stroke-width:1;"/><a href="/use-case/construction-project-quotations/" target="_top" title="/use-case/construction-project-quotations/" xlink:actuate="onRequest" xlink:href="/use-case/construction-project-quotations/" xlink:show="new" xlink:title="/use-case/construction-project-quotations/" xlink:type="simple"><text fill="#90EE90" font-family="'Roboto'" font-size="14" lengthAdjust="spacing" textLength="289.2354" x="14" y="67.4404">Complex Construction Project Quotations</text></a><path d="M364.6855,62.5938 L364.6855,62.7806 L362.6855,62.2255 L360.6855,62.7656 L358.6855,62.949 L356.6855,61.9596 L354.6855,62.5938 L354.6855,62.5938 L354.6855,62.5592 L348.6855,62.4042 L342.6855,62.4233 L336.6855,62.5635 L330.6855,62.2865 L324.6855,62.5938 L324.6855,63.0859 L322.6855,62.0335 L320.6855,62.418 L318.6855,62.9777 L316.6855,62.5175 L314.6855,62.5938" fill="none" style="stroke:#FF9900;stroke-width:1;"/><!--SRC=[xLXjKziu4FxkNw4hCrSOwePmq6cPJeSa91G894sWDpUT3gFOIgB6bema9t0tzzzlRSVnInBdXRY56_89jAjddrsjfTqzbWeBPLDcsjZHjDzCqgMCeFBfxMNfxEgsqgWtMiZ_RHti7HOxXt6LThNIk3efjVuQwyrGQPOg5wNJwWHeIgNHEgcsudRGLhVxhhktDr6fDQwk4mg-YlVJD3cWpC42swY3ZK5FS9UP5Mvn4IegWPa43S9KJFdpWqD4dR91N1TjMRJNLpr12DEqruWomt9DWbIVe1vXH60BJI0awiB63bVzDyZVXZ0paOd507OgZlYGY96WYg0HLVq0Wmu9Gv8eHLbFfYDm_VciSd5LRRTH4Ow1EufoXle0wg4esDZ5bYGn7vhOD0487SJMMe7_0iYYzx7rTX-RVEHffr7yI5WGYHjc-d-GiKfCvuHqiMifz8zMuqnTOPkWLoqEllDN_aeGnEYO_CKs_PkWue7sRnof90GV0SxC7RDXr8C5CUAMcKHouBXnZumvJMqjfx8XaSzQcGjmTYo99I2OY2mmRgu2dqZqvImOt7OuWym4CsiIdiakY9bhM_l9c9bOuGwMPCFc4ZOCYxjchWQuPH73-phanir4LYgW8BYLeuMo1ud5GuucganHbQS1oXGHNMoG76sqoPrBc46Qy4nHWpgOgG3ika-D0IDImeKPgSknEZ2AxyWaDmKzWsTC9xgM61SsjjAoANVgj4lWiI5pmISAcJJzotCAt5-TY-nBPvBo9L4C_z1AXk9Y0GDVPQujJphl0twDAWV8YneyGl3Fri9V_9iNyC5ZrhF8nu_mMadEFds2ysr3yX6ku06R-tfiwbr8PrpwpKvUKJ6wv1v8CcpTRfvtglZAWRnya8hOpo_Mc-UTKwp31_bvX3fY-_mY7KkJplZX3LYd2kEa5tuDkxUusblBzsp7WWV6nB9Fp6LydUcg0OOnl2jYML-XNizEfHmypJx2-DEki9fLQOGjPMGyR0zBIWdQSHMP5iL9XGrdgf35KkPixJMw31fl91rYq2urmCdWYPpgGvRdiT0r71KIMxNQXmyWJmdZjPMcxQ9ltr31bKGtuFClG5P99Lo_1jSTmNz0mkbtBeVZyQhoWZIuGtJeN7K1nHWLn8OMHnPGsrj7lwDMR1Lz_wxjxjvkn42mR1A_hPBKtptgIBt3xqBZ9t4Xslwpt2wK-PUTJRA0h75jltkNEhatB5VwVzwvsF8EUBmPbIArDwWwqOFmV4beRfAQw5AfGrwB25x7fadWEYoWLkqCc5GIKc1J2kIRf37PXZlKWWO5f4DAHWMlwKe885CyWMTRrrUq3M2sOv7x2DGxyMQW234E5JtmO_1mCW4xJWx4SfmmFU5PJdYLB3d8YQlF05XXX3Evm-RSThFljeoXpMC1isOqMHZJ3DQOogncOAavp6CWCoSlgm8lCsjP7pDZkh8-wDnvolgGMHEKzL5pcPc4TEPCIq9cAmzAGWTcJKb2q7a3af1JR3GogSRISv4GApKIIUWld8TC3AOd8HFqv10azY6jDS-OVxEkaYtJX__OUSNFvhMWqVnbONeAl9QU8lnaDaygI1iT08GyLlHcBklCPh-OPtU_QKzIyVzVT-ylBVfBY_xIel-25hrfGG5vSrb7GoXIl3t5j_jx-uTlYyKEKRYujtt31eoFcD-yKRXP5RN9ZhPzsgmZoLq1bQv9PV2vm_OTxHmFCMgvpDCxGWs7iFEJYt01oluX5PnvaT7Elrv62kyEz39LK6qB88A-NcfXSrrb1lVw-IDqSrtJtsjrkB5TQ7MF4FJz5RWWb7W0MVi_]--></g></svg>