<svg xmlns="http://www.w3.org/2000/svg" xmlns:xlink="http://www.w3.org/1999/xlink" contentStyleType="text/css" data-diagram-type="MINDMAP" height="157px" preserveAspectRatio="none" style="width:905px;height:157px;" version="1.1" viewBox="0 0 905 157" width="905px" zoomAndPan="magnify"><defs/><g><a href="/use-case/construction-project-quotations/scope-and-requirements/" target="_top" title="/use-case/construction-project-quotations/scope-and-requirements/" xlink:actuate="onRequest" xlink:href="/use-case/construction-project-quotations/scope-and-requirements/" xlink:show="new" xlink:title="/use-case/construction-project-quotations/scope-and-requirements/" xlink:type="simple"><text fill="#90EE90" font-family="'Roboto'" font-size="14" lengthAdjust="spacing" textLength="160.7334" x="371.6855" y="82.4404">Scope &amp; Requirements</text></a><polygon fill="#4051B5" points="594.8691,20,594.8691,20.2102,604.8656,19.5857,614.862,20.1933,624.8585,20.3997,634.8549,19.2866,644.8514,19.9223,654.8478,19.5735,664.8443,19.6165,674.8407,19.9318,684.8371,19.3086,694.8336,20.5536,704.83,19.3697,714.8265,19.8022,724.8229,20.4319,734.8194,19.9142,744.8158,20.0682,754.8123,19.9681,764.8087,20.1785,774.8052,20.2391,784.8016,20.5857,794.798,20.6711,804.7945,20.6793,814.7909,20.2546,824.7874,20.4636,834.7838,20.7022,844.7803,20,844.6883,19.7779,845.4325,20.4433,845.8738,20.3773,846.5454,20.8673,846.9799,20.7848,847.6087,21.1716,847.5876,21.1628,848.0714,21.8319,848.0623,22.2967,848.3441,22.8821,848.6502,23.4775,848.7803,24,848.919,24,848.779,29.6594,848.876,35.3188,848.5895,40.9781,848.8751,46.6375,848.7803,52.2969,848.9491,52.3668,848.6829,52.9193,848.5004,53.5064,847.9286,53.9323,847.6422,54.4764,847.6087,55.1253,847.5294,54.9339,847.0355,55.3415,846.4523,55.5334,845.9986,56.0381,845.3237,56.0088,844.7803,56.2969,844.7803,55.9538,834.7838,56.5251,824.7874,55.63,814.7909,55.7777,804.7945,56.9458,794.798,56.7325,784.8016,57.0314,774.8052,55.9751,764.8087,56.6161,754.8123,56.8873,744.8158,55.8245,734.8194,56.201,724.8229,56.4229,714.8265,56.9486,704.83,56.2927,694.8336,56.7594,684.8371,55.7431,674.8407,55.6196,664.8443,56.8005,654.8478,55.5799,644.8514,56.8058,634.8549,56.5035,624.8585,56.029,614.862,55.9431,604.8656,56.7556,594.8691,56.2969,594.831,56.2047,594.379,56.2448,593.6673,55.658,593.2508,55.7841,592.6682,55.5088,592.0407,55.1253,592.1162,55.1566,591.8209,54.5656,591.7959,54.0866,591.5267,53.5065,591.1556,52.8842,590.8691,52.2969,590.9585,52.2969,590.8257,46.6375,591.108,40.9781,590.9208,35.3188,590.9267,29.6594,590.8691,24,590.6818,23.9224,590.9787,23.3826,591.5012,22.9363,591.7044,22.3578,591.7932,21.7318,592.0407,21.1716,591.9996,21.0724,592.5785,20.8698,593.0846,20.4916,593.7907,20.5964,594.3978,20.4621,594.8691,20" style="stroke:#FF6F00;stroke-width:1.5;"/><a href="/use-case/construction-project-quotations/scope-and-requirements/scope-decomposition-wbs-boq/" target="_top" title="/use-case/construction-project-quotations/scope-and-requirements/scope-decomposition-wbs-boq/" xlink:actuate="onRequest" xlink:href="/use-case/construction-project-quotations/scope-and-requirements/scope-decomposition-wbs-boq/" xlink:show="new" xlink:title="/use-case/construction-project-quotations/scope-and-requirements/scope-decomposition-wbs-boq/" xlink:type="simple"><text fill="#90EE90" font-family="'Roboto'" font-size="14" lengthAdjust="spacing" textLength="233.4609" x="600.8691" y="42.9951">Scope Decomposition (WBS/BoQ)</text></a><path d="M540.8691,77.5938 L540.8691,77.7806 L542.8691,77.2255 L544.8691,77.7656 L546.8691,77.949 L548.8691,76.9596 L550.8691,77.5938 L550.8691,77.5938 L550.8495,77.5653 L552.5425,76.2052 L554.3346,74.9883 L556.1957,73.8708 L557.8193,72.4104 L559.7754,71.4304 L559.9998,71.5313 L560.7386,68.6037 L562.1327,65.9707 L563.6067,63.3735 L564.6156,60.5673 L565.8691,57.8711 L565.8968,57.8835 L567.0749,55.1534 L568.379,52.4799 L569.6223,49.7791 L570.9816,47.1303 L571.9629,44.3118 L572.1326,44.557 L573.9159,43.3273 L575.5898,41.9395 L577.4239,40.7832 L579.2655,39.6377 L580.8691,38.1484 L580.8691,37.5074 L582.8691,38.7516 L584.8691,37.8849 L586.8691,38.6229 L588.8691,37.7084 L590.8691,38.1484" fill="none" style="stroke:#FF9900;stroke-width:1;"/><a href="/use-case/construction-project-quotations/scope-and-requirements/assumptions-exclusions-qualifications/" target="_top" title="/use-case/construction-project-quotations/scope-and-requirements/assumptions-exclusions-qualifications/" xlink:actuate="onRequest" xlink:href="/use-case/construction-project-quotations/scope-and-requirements/assumptions-exclusions-qualifications/" xlink:show="new" xlink:title="/use-case/construction-project-quotations/scope-and-requirements/assumptions-exclusions-qualifications/" xlink:type="simple"><text fill="#90EE90" font-family="'Roboto'" font-size="14" lengthAdjust="spacing" textLength="287.3555" x="597.8691" y="84.292">Assumptions, Exclusions &amp; Qualifications</text></a><path d="M540.8691,77.5938 L540.8691,77.7806 L542.8691,77.2255 L544.8691,77.7656 L546.8691,77.949 L548.8691,76.9596 L550.8691,77.5938 L550.8691,77.5938 L550.867,77.5593 L553.8575,77.5897 L556.8586,77.7939 L559.8673,78.119 L562.8502,78.0277 L565.8691,78.5195 L565.8843,78.7651 L568.8519,78.4251 L571.8637,78.8021 L574.881,79.2666 L577.8668,79.2221 L580.8691,79.4453 L580.8691,79.506 L582.8691,79.4169 L584.8691,79.604 L586.8691,79.6579 L588.8691,79.9659 L590.8691,79.4453" fill="none" style="stroke:#FF9900;stroke-width:1;"/><a href="/use-case/construction-project-quotations/scope-and-requirements/rfis-clarifications-addenda/" target="_top" title="/use-case/construction-project-quotations/scope-and-requirements/rfis-clarifications-addenda/" xlink:actuate="onRequest" xlink:href="/use-case/construction-project-quotations/scope-and-requirements/rfis-clarifications-addenda/" xlink:show="new" xlink:title="/use-case/construction-project-quotations/scope-and-requirements/rfis-clarifications-addenda/" xlink:type="simple"><text fill="#90EE90" font-family="'Roboto'" font-size="14" lengthAdjust="spacing" textLength="211.3193" x="597.8691" y="110.5889">RFIs, Clarifications &amp; Addenda</text></a><path d="M540.8691,77.5938 L540.8691,77.7806 L542.8691,77.2255 L544.8691,77.7656 L546.8691,77.949 L548.8691,76.9596 L550.8691,77.5938 L550.8691,77.5938 L550.8538,77.5628 L552.5665,78.3034 L554.3562,79.2002 L556.1995,80.2055 L557.8581,80.8368 L559.7754,81.9919 L559.9836,82.1231 L560.7571,83.7779 L562.1385,85.8155 L563.5941,87.8999 L564.6181,89.7124 L565.8691,91.668 L565.8948,91.6841 L567.0759,93.5956 L568.3738,95.5807 L569.6153,97.5302 L570.9644,99.5475 L571.9629,101.344 L572.0949,101.6114 L573.8778,102.4943 L575.5755,103.2047 L577.3979,104.1676 L579.2261,105.1424 L580.8691,105.7422 L580.8691,105.1011 L582.8691,106.3453 L584.8691,105.4786 L586.8691,106.2167 L588.8691,105.3022 L590.8691,105.7422" fill="none" style="stroke:#FF9900;stroke-width:1;"/><a href="/use-case/construction-project-quotations/scope-and-requirements/constructability-review/" target="_top" title="/use-case/construction-project-quotations/scope-and-requirements/constructability-review/" xlink:actuate="onRequest" xlink:href="/use-case/construction-project-quotations/scope-and-requirements/constructability-review/" xlink:show="new" xlink:title="/use-case/construction-project-quotations/scope-and-requirements/constructability-review/" xlink:type="simple"><text fill="#90EE90" font-family="'Roboto'" font-size="14" lengthAdjust="spacing" textLength="165.751" x="597.8691" y="136.8857">Constructability Review</text></a><path d="M540.8691,77.5938 L540.8691,77.7806 L542.8691,77.2255 L544.8691,77.7656 L546.8691,77.949 L548.8691,76.9596 L550.8691,77.5938 L550.8691,77.5938 L550.8453,77.5688 L552.5195,79.1581 L554.3139,80.8733 L556.192,82.6761 L557.7819,84.1772 L559.7754,86.1008 L560.0094,86.177 L560.7278,89.7572 L562.1293,93.5598 L563.6142,97.3896 L564.6141,101.0615 L565.8691,104.8164 L565.898,104.8258 L567.0744,108.5551 L568.3821,112.3272 L569.6265,116.0787 L570.9917,119.8695 L571.9629,123.532 L572.1689,123.7477 L573.9527,125.4517 L575.6036,127.0166 L577.449,128.7852 L579.3035,130.5633 L580.8691,132.0391 L580.8691,131.398 L582.8691,132.6422 L584.8691,131.7755 L586.8691,132.5136 L588.8691,131.599 L590.8691,132.0391" fill="none" style="stroke:#FF9900;stroke-width:1;"/><a href="/use-case/construction-project-quotations/" target="_top" title="/use-case/construction-project-quotations/" xlink:actuate="onRequest" xlink:href="/use-case/construction-project-quotations/" xlink:show="new" xlink:title="/use-case/construction-project-quotations/" xlink:type="simple"><text fill="#90EE90" font-family="'Roboto'" font-size="14" lengthAdjust="spacing" textLength="289.2354" x="14" y="82.4404">Complex Construction Project Quotations</text></a><path d="M364.6855,77.5938 L364.6855,77.7806 L362.6855,77.2255 L360.6855,77.7656 L358.6855,77.949 L356.6855,76.9596 L354.6855,77.5938 L354.6855,77.5938 L354.6855,77.5592 L348.6855,77.4042 L342.6855,77.4233 L336.6855,77.5635 L330.6855,77.2865 L324.6855,77.5938 L324.6855,78.0859 L322.6855,77.0335 L320.6855,77.418 L318.6855,77.9777 L316.6855,77.5175 L314.6855,77.5938" fill="none" style="stroke:#FF9900;stroke-width:1;"/><!--SRC=[xLXjKziu4FxkNw4hCrSOwePmq6cPJeSa91G894sWDpUT3gFOIgB6bema9t0tzzzlRSVnInBdXRY56_89jAjddrsjfTqzbWeBPLDcsjZHjDzCqgMCeFBfxMNfxEgsqgWtMiZ_RHti7HOxXt6LThNIk3efjVuQwyrGQPOg5wNJwWHeIgNHEgcsudRGLhVxhhktDr6fDQwk4mg-YlVJD3cWpC42swY3ZK5FS9UP5Mvn4IegWPa43S9KJFdpWqD4dR91N1TjMRJNLpr12DEqruWomt9DWbIVe1vXH60BJI0awiB63bVzDyZVXZ0paOd507OgZlYGY96WYg0HLVq0Wmu9Gv8eHLbFfYDm_VciSd5LRRTH4Ow1EufoXle0wg4esDZ5bYGn7vhOD0487SJMMe7_0iYYzx7rTX-RVEHffr7yI5WGYHjc-d-GiKfCvuHqiMifz8zMuqnTOPkWLoqEllDN_aeGnEYO_CKs_PkWue7sRnof90GV0SxC7RDXr8C5CUAMcKHouBXnZumvJMqjfx8XaSzQcGjmTYo99I2OY2mmRgu2dqZqvImOt7OuWym4CsiIdiakY9bhM_l9c9bOuGwMPCFc4ZOCYxjchWQuPH73-phanir4LYgW8BYLeuMo1ud5GuucganHbQS1oXGHNMoG76sqoPrBc46Qy4nHWpgOgG3ika-D0IDImeKPgSknEZ2AxyWaDmKzWsTC9xgM61SsjjAoANVgj4lWiI5pmISAcJJzotCAt5-TY-nBPvBo9L4C_z1AXk9Y0GDVPQujJphl0twDAWV8YneyGl3Fri9V_9iNyC5ZrhF8nu_mMadEFds2ysr3yX6ku06R-tfiwbr8PrpwpKvUKJ6wv1v8CcpTRfvtglZAWRnya8hOpo_Mc-UTKwp31_bvX3fY-_mY7KkJplZX3LYd2kEa5tuDkxUusblBzsp7WWV6nB9Fp6LydUcg0OOnl2jYML-XNizEfHmypJx2-DEki9fLQOGjPMGyR0zBIWdQSHMP5iL9XGrdgf35KkPixJMw31fl91rYq2urmCdWYPpgGvRdiT0r71KIMxNQXmyWJmdZjPMcxTwYRzzGmPL4D-3xBq1QIILSlmZN7S5_GCRfTow7y_7Aye8qk4DqQ5rr0TKO5SI67aSMKDjRHx-ZLcmLVV-kxUvk13zODedVLadgxnvrfDxXTw7jaxWGRVzPRXVA_CjEG68pNaBMkBRVlKkTt1kMA_q_xrniUGSytenAaTeRL9teGNI-93GtIKrqgTGXhqK4hsFJ970T5b2hTWPCAWafi2a5yatIc6p37Mf1WmBI8IMZWjTq9GIGA9x0iwthAze6CDkno7q4wfruCr2468UA7lWnU3YPW1qd1s8vJfYUy2mdl4gM7EJ4rMS0h332cTnXSswxsNTRnj3ciO1PCveiZ6a6QqnbLZEmr1pcCP2PavTLWPUPjQoFcJ5TMHzqxZnbVSYi2ShwgBdCJ48wSwOb8REL1oMX0xEc927el059o2as6fbKO-cvI8YL6eaaz1VEGoO6qvEG2Nfo21BxaDQQPyo_MLV9bkd3V-oyucVpMj1e_h8mFGLUIqyHVZAR9nMaZGu0GXuhUZENTMQpNyopkz-q9wdu_w-xzvSM_QL5VsdHVq6BthIWWBovhACX52dUdkBR_RtzmxV5OeSeNDpRlc43naVCRzuetAoAscH7spvjrf7ahe1ArwGo-DnX-uvsZeSOjLpcwHsXXaFO-Sb5k01b_v0Aphp8QETVBoE5TmTwcIgejWKGGLyljR2vhZA3U_ty4RgvhkdljJhSs2wqkaS8-luAN11AF82i_Hy0]--></g></svg>