<svg xmlns="http://www.w3.org/2000/svg" xmlns:xlink="http://www.w3.org/1999/xlink" contentStyleType="text/css" data-diagram-type="MINDMAP" height="260px" preserveAspectRatio="none" style="width:713px;height:260px;" version="1.1" viewBox="0 0 713 260" width="713px" zoomAndPan="magnify"><defs/><g><a href="/use-case/legal-entity-management/" target="_top" title="/use-case/legal-entity-management/" xlink:actuate="onRequest" xlink:href="/use-case/legal-entity-management/" xlink:show="new" xlink:title="/use-case/legal-entity-management/" xlink:type="simple"><text fill="#90EE90" font-family="'Roboto'" font-size="14" lengthAdjust="spacing" textLength="179.7646" x="17" y="134.1084">Legal Entity Management</text></a><a href="/use-case/legal-entity-management/identification-and-registration/" target="_top" title="/use-case/legal-entity-management/identification-and-registration/" xlink:actuate="onRequest" xlink:href="/use-case/legal-entity-management/identification-and-registration/" xlink:show="new" xlink:title="/use-case/legal-entity-management/identification-and-registration/" xlink:type="simple"><text fill="#90EE90" font-family="'Roboto'" font-size="14" lengthAdjust="spacing" textLength="196.6631" x="262.2148" y="56.1436">Identification &amp; Registration</text></a><path d="M205.2148,129.2617 L205.2148,129.4485 L207.2148,128.8934 L209.2148,129.4335 L211.2148,129.617 L213.2148,128.6276 L215.2148,129.2617 L215.2148,129.2617 L215.187,129.2413 L216.8431,126.7134 L218.6398,124.2883 L220.5341,121.9346 L222.0918,119.3348 L224.1211,117.0797 L224.3593,117.1412 L224.4944,114.5124 L225.325,112.0631 L226.2406,109.6358 L226.6623,107.0809 L227.3438,104.5932 L227.3735,104.5991 L227.904,101.7276 L228.57,98.8832 L229.1706,96.0257 L229.8958,93.1933 L230.2148,90.2793 L230.5073,90.338 L231.0851,87.4759 L231.4742,84.576 L232.1395,81.7315 L232.8177,78.8896 L233.0859,75.9654 L232.7756,75.8853 L234.0225,73.5435 L234.2474,70.9379 L235.2493,68.5328 L235.451,65.9212 L236.3086,63.4789 L236.284,63.4609 L238.3559,61.237 L239.8536,58.5933 L241.6901,56.1973 L243.5551,53.8221 L245.2148,51.2969 L245.2148,51.6669 L247.2148,51.2934 L249.2148,51.5522 L251.2148,50.7881 L253.2148,51.5497 L255.2148,51.2969" fill="none" style="stroke:#FF9900;stroke-width:1;"/><a href="/use-case/legal-entity-management/corporate-governance/" target="_top" title="/use-case/legal-entity-management/corporate-governance/" xlink:actuate="onRequest" xlink:href="/use-case/legal-entity-management/corporate-governance/" xlink:show="new" xlink:title="/use-case/legal-entity-management/corporate-governance/" xlink:type="simple"><text fill="#90EE90" font-family="'Roboto'" font-size="14" lengthAdjust="spacing" textLength="159.1406" x="262.2148" y="82.4404">Corporate Governance</text></a><path d="M205.2148,129.2617 L205.2148,129.4485 L207.2148,128.8934 L209.2148,129.4335 L211.2148,129.617 L213.2148,128.6276 L215.2148,129.2617 L215.2148,129.2617 L215.1916,129.2361 L216.8688,127.5067 L218.6629,125.9062 L220.5382,124.3954 L222.1335,122.5756 L224.1211,121.1886 L224.3538,121.2685 L225.0749,117.5455 L226.4755,114.0557 L227.9589,110.5944 L228.96,106.9675 L230.2148,103.4277 L230.2435,103.4376 L231.4202,99.871 L232.7274,96.3491 L233.9716,92.8057 L235.3361,89.3035 L236.3086,85.6669 L236.5089,85.8878 L238.2926,84.2759 L239.9471,82.5215 L241.7907,80.9757 L243.6432,79.4396 L245.2148,77.5938 L245.2148,76.9527 L247.2148,78.1969 L249.2148,77.3302 L251.2148,78.0682 L253.2148,77.1537 L255.2148,77.5938" fill="none" style="stroke:#FF9900;stroke-width:1;"/><a href="/use-case/legal-entity-management/ownership-and-capital-structure/" target="_top" title="/use-case/legal-entity-management/ownership-and-capital-structure/" xlink:actuate="onRequest" xlink:href="/use-case/legal-entity-management/ownership-and-capital-structure/" xlink:show="new" xlink:title="/use-case/legal-entity-management/ownership-and-capital-structure/" xlink:type="simple"><text fill="#90EE90" font-family="'Roboto'" font-size="14" lengthAdjust="spacing" textLength="213.4453" x="262.2148" y="108.7373">Ownership &amp; Capital Structure</text></a><a href="/use-case/legal-entity-management/ownership-and-capital-structure/ownership/" target="_top" title="/use-case/legal-entity-management/ownership-and-capital-structure/ownership/" xlink:actuate="onRequest" xlink:href="/use-case/legal-entity-management/ownership-and-capital-structure/ownership/" xlink:show="new" xlink:title="/use-case/legal-entity-management/ownership-and-capital-structure/ownership/" xlink:type="simple"><text fill="#90EE90" font-family="'Roboto'" font-size="14" lengthAdjust="spacing" textLength="74.6553" x="541.1104" y="27.9951">Ownership</text></a><path d="M484.1104,103.8906 L484.1104,104.0775 L486.1104,103.5223 L488.1104,104.0624 L490.1104,104.2459 L492.1104,103.2565 L494.1104,103.8906 L494.1104,103.8906 L494.0821,103.8707 L495.7367,101.2581 L497.5336,98.7459 L499.4294,96.3036 L500.9843,93.6206 L503.0166,91.2747 L503.2554,91.3342 L503.3893,88.6206 L504.2204,86.0809 L505.1365,83.5623 L505.5577,80.9203 L506.2393,78.3433 L506.269,78.3491 L506.7995,75.3758 L507.4656,72.4289 L508.0663,69.4692 L508.7917,66.5338 L509.1104,63.5195 L509.4032,63.5762 L509.981,60.6122 L510.3699,57.6115 L511.0353,54.6645 L511.7136,51.7199 L511.9814,48.6958 L511.6704,48.6183 L512.9186,46.1824 L513.1426,43.4914 L514.1452,40.9943 L514.3461,38.2975 L515.2041,35.7644 L515.1792,35.7468 L517.2546,33.4313 L518.7489,30.7055 L520.5861,28.2218 L522.4521,25.7584 L524.1104,23.1484 L524.1104,23.5184 L526.1104,23.145 L528.1104,23.4037 L530.1104,22.6396 L532.1104,23.4012 L534.1104,23.1484" fill="none" style="stroke:#FF9900;stroke-width:1;"/><a href="/use-case/legal-entity-management/ownership-and-capital-structure/control/" target="_top" title="/use-case/legal-entity-management/ownership-and-capital-structure/control/" xlink:actuate="onRequest" xlink:href="/use-case/legal-entity-management/ownership-and-capital-structure/control/" xlink:show="new" xlink:title="/use-case/legal-entity-management/ownership-and-capital-structure/control/" xlink:type="simple"><text fill="#90EE90" font-family="'Roboto'" font-size="14" lengthAdjust="spacing" textLength="50.9141" x="541.1104" y="54.292">Control</text></a><path d="M484.1104,103.8906 L484.1104,104.0775 L486.1104,103.5223 L488.1104,104.0624 L490.1104,104.2459 L492.1104,103.2565 L494.1104,103.8906 L494.1104,103.8906 L494.0865,103.8656 L495.7607,102.0521 L497.5551,100.3645 L499.4332,98.7645 L501.0231,96.8628 L503.0166,95.3835 L503.2506,95.4597 L503.969,91.5537 L505.3705,87.8701 L506.8554,84.2136 L507.8554,80.3993 L509.1104,76.668 L509.1392,76.6774 L510.3156,72.9205 L511.6233,69.2063 L512.8677,65.4715 L514.2329,61.7761 L515.2041,57.9524 L515.4101,58.1681 L517.1939,56.4693 L518.8448,54.6314 L520.6902,52.9971 L522.5447,51.3724 L524.1104,49.4453 L524.1104,48.8043 L526.1104,50.0484 L528.1104,49.1818 L530.1104,49.9198 L532.1104,49.0053 L534.1104,49.4453" fill="none" style="stroke:#FF9900;stroke-width:1;"/><polygon fill="#4051B5" points="538.1104,72.5938,538.1104,72.8039,548.0432,72.1794,557.976,72.787,567.9088,72.9934,577.8416,71.8804,587.7744,72.516,597.7072,72.1673,607.64,72.2103,617.5728,72.5256,627.5056,71.9024,637.4384,73.1474,647.3712,71.9635,657.304,72.396,667.2368,73.0257,677.1696,72.508,687.1024,72.662,697.0352,72.5938,697.0311,72.5839,697.6236,72.883,698.197,73.136,698.8069,73.4771,699.3835,73.7377,699.8636,73.7653,700.0728,73.852,700.1763,74.3635,700.475,74.9558,700.7828,75.552,700.5787,75.9361,701.0352,76.5938,701.2613,76.5938,700.9363,82.2531,701.2131,87.9125,700.8701,93.5719,701.0123,99.2313,701.0352,104.8906,701.2635,104.9852,700.7858,105.4501,700.599,106.0354,700.4365,106.6309,700.2261,107.2065,699.8636,107.7191,699.8631,107.7178,699.3345,108.0418,698.6592,108.0114,698.2028,108.5096,697.6708,108.8251,697.0352,108.8906,697.0352,109.3352,687.1024,109.5036,677.1696,108.4075,667.2368,108.2384,657.304,108.2692,647.3712,108.8317,637.4384,108.6941,627.5056,109.572,617.5728,108.7159,607.64,108.5476,597.7072,109.1189,587.7744,108.2238,577.8416,108.3715,567.9088,109.5396,557.976,109.3263,548.0432,109.6251,538.1104,108.8906,538.0693,108.7915,537.5854,108.7546,537.0543,108.6038,536.353,108.0422,535.8354,107.9238,535.2819,107.7191,535.3207,107.7351,535.2483,107.2365,534.812,106.5871,534.7214,106.081,534.1741,105.3857,534.1104,104.8906,533.8846,104.8906,534.2782,99.2313,533.8714,93.5719,534.28,87.9125,534.1792,82.2531,534.1104,76.5938,534.0278,76.5596,534.2357,75.9829,534.7203,75.5209,534.7211,74.8585,535.2299,74.4065,535.2819,73.7653,535.2114,73.5951,535.9264,73.7212,536.4751,73.4458,537.0102,73.1378,537.5507,72.8426,538.1104,72.5938" style="stroke:#FF6F00;stroke-width:1.5;"/><a href="/use-case/legal-entity-management/ownership-and-capital-structure/shares/" target="_top" title="/use-case/legal-entity-management/ownership-and-capital-structure/shares/" xlink:actuate="onRequest" xlink:href="/use-case/legal-entity-management/ownership-and-capital-structure/shares/" xlink:show="new" xlink:title="/use-case/legal-entity-management/ownership-and-capital-structure/shares/" xlink:type="simple"><text fill="#90EE90" font-family="'Roboto'" font-size="14" lengthAdjust="spacing" textLength="142.4746" x="544.1104" y="95.5889">Shares &amp; Ownership</text></a><path d="M484.1104,103.8906 L484.1104,104.0775 L486.1104,103.5223 L488.1104,104.0624 L490.1104,104.2459 L492.1104,103.2565 L494.1104,103.8906 L494.1104,103.8906 L494.0965,103.859 L497.0343,102.4022 L500.0419,101.1048 L503.0982,99.9183 L505.987,98.3498 L509.1104,97.3164 L509.2091,97.5418 L511.9979,95.745 L515.0751,94.6062 L518.1874,93.5477 L521.095,92.0221 L524.1104,90.7422 L524.1104,90.8028 L526.1104,90.7138 L528.1104,90.9009 L530.1104,90.9548 L532.1104,91.2628 L534.1104,90.7422" fill="none" style="stroke:#FF9900;stroke-width:1;"/><a href="/use-case/legal-entity-management/ownership-and-capital-structure/share-capital/" target="_top" title="/use-case/legal-entity-management/ownership-and-capital-structure/share-capital/" xlink:actuate="onRequest" xlink:href="/use-case/legal-entity-management/ownership-and-capital-structure/share-capital/" xlink:show="new" xlink:title="/use-case/legal-entity-management/ownership-and-capital-structure/share-capital/" xlink:type="simple"><text fill="#90EE90" font-family="'Roboto'" font-size="14" lengthAdjust="spacing" textLength="94.2471" x="541.1104" y="136.8857">Share Capital</text></a><path d="M484.1104,103.8906 L484.1104,104.0775 L486.1104,103.5223 L488.1104,104.0624 L490.1104,104.2459 L492.1104,103.2565 L494.1104,103.8906 L494.1104,103.8906 L494.0951,103.8597 L495.8077,104.6003 L497.5974,105.4971 L499.4407,106.5024 L501.0993,107.1337 L503.0166,108.2888 L503.2248,108.4199 L503.9983,110.0747 L505.3797,112.1124 L506.8353,114.1967 L507.8593,116.0093 L509.1104,117.9648 L509.136,117.981 L510.3171,119.8925 L511.615,121.8775 L512.8565,123.8271 L514.2056,125.8444 L515.2041,127.6409 L515.3362,127.9083 L517.119,128.7912 L518.8167,129.5016 L520.6391,130.4645 L522.4673,131.4393 L524.1104,132.0391 L524.1104,131.398 L526.1104,132.6422 L528.1104,131.7755 L530.1104,132.5136 L532.1104,131.599 L534.1104,132.0391" fill="none" style="stroke:#FF9900;stroke-width:1;"/><a href="/use-case/legal-entity-management/ownership-and-capital-structure/issued-capital/" target="_top" title="/use-case/legal-entity-management/ownership-and-capital-structure/issued-capital/" xlink:actuate="onRequest" xlink:href="/use-case/legal-entity-management/ownership-and-capital-structure/issued-capital/" xlink:show="new" xlink:title="/use-case/legal-entity-management/ownership-and-capital-structure/issued-capital/" xlink:type="simple"><text fill="#90EE90" font-family="'Roboto'" font-size="14" lengthAdjust="spacing" textLength="98.6289" x="541.1104" y="163.1826">Issued Capital</text></a><path d="M484.1104,103.8906 L484.1104,104.0775 L486.1104,103.5223 L488.1104,104.0624 L490.1104,104.2459 L492.1104,103.2565 L494.1104,103.8906 L494.1104,103.8906 L494.0865,103.8656 L495.7607,105.455 L497.5551,107.1702 L499.4332,108.973 L501.0231,110.4741 L503.0166,112.3977 L503.2506,112.4739 L503.969,116.0541 L505.3705,119.8567 L506.8554,123.6865 L507.8554,127.3584 L509.1104,131.1133 L509.1392,131.1227 L510.3156,134.852 L511.6233,138.6241 L512.8677,142.3755 L514.2329,146.1663 L515.2041,149.8289 L515.4101,150.0445 L517.1939,151.7486 L518.8448,153.3135 L520.6902,155.0821 L522.5447,156.8602 L524.1104,158.3359 L524.1104,157.6949 L526.1104,158.9391 L528.1104,158.0724 L530.1104,158.8104 L532.1104,157.8959 L534.1104,158.3359" fill="none" style="stroke:#FF9900;stroke-width:1;"/><a href="/use-case/legal-entity-management/ownership-and-capital-structure/corporate-actions/" target="_top" title="/use-case/legal-entity-management/ownership-and-capital-structure/corporate-actions/" xlink:actuate="onRequest" xlink:href="/use-case/legal-entity-management/ownership-and-capital-structure/corporate-actions/" xlink:show="new" xlink:title="/use-case/legal-entity-management/ownership-and-capital-structure/corporate-actions/" xlink:type="simple"><text fill="#90EE90" font-family="'Roboto'" font-size="14" lengthAdjust="spacing" textLength="125.8223" x="541.1104" y="189.4795">Corporate Actions</text></a><path d="M484.1104,103.8906 L484.1104,104.0775 L486.1104,103.5223 L488.1104,104.0624 L490.1104,104.2459 L492.1104,103.2565 L494.1104,103.8906 L494.1104,103.8906 L494.0821,103.8707 L495.7367,106.3045 L497.5336,108.8387 L499.4294,111.4427 L500.9843,113.8062 L503.0166,116.5066 L503.2554,116.5661 L503.3893,119.0251 L504.2204,121.6579 L505.1365,124.3118 L505.5577,126.8425 L506.2393,129.438 L506.269,129.4437 L506.7995,132.4 L507.4656,135.3825 L508.0663,138.3524 L508.7917,141.3465 L509.1104,144.2617 L509.4032,144.3184 L509.981,147.2839 L510.3699,150.2127 L511.0353,153.1952 L511.7136,156.1801 L511.9814,159.0855 L511.6704,159.008 L512.9186,161.7447 L513.1426,164.2262 L514.1452,166.9017 L514.3461,169.3774 L515.2041,172.0168 L515.1792,171.9993 L517.2546,174.7301 L518.7489,177.0507 L520.5861,179.6134 L522.4521,182.1964 L524.1104,184.6328 L524.1104,185.0028 L526.1104,184.6293 L528.1104,184.8881 L530.1104,184.124 L532.1104,184.8856 L534.1104,184.6328" fill="none" style="stroke:#FF9900;stroke-width:1;"/><path d="M205.2148,129.2617 L205.2148,129.4485 L207.2148,128.8934 L209.2148,129.4335 L211.2148,129.617 L213.2148,128.6276 L215.2148,129.2617 L215.2148,129.2617 L215.1925,129.2353 L218.0924,126.5799 L221.1048,124.0574 L224.1953,121.6273 L227.0164,118.8787 L230.2148,116.5762 L230.3737,116.7641 L233.034,113.8252 L236.1581,111.4348 L239.3388,109.1114 L242.1902,106.3986 L245.2148,103.8906 L245.2148,103.9513 L247.2148,103.8622 L249.2148,104.0493 L251.2148,104.1032 L253.2148,104.4112 L255.2148,103.8906" fill="none" style="stroke:#FF9900;stroke-width:1;"/><a href="/use-case/legal-entity-management/financial-information/" target="_top" title="/use-case/legal-entity-management/financial-information/" xlink:actuate="onRequest" xlink:href="/use-case/legal-entity-management/financial-information/" xlink:show="new" xlink:title="/use-case/legal-entity-management/financial-information/" xlink:type="simple"><text fill="#90EE90" font-family="'Roboto'" font-size="14" lengthAdjust="spacing" textLength="148.0596" x="262.2148" y="135.0342">Financial Information</text></a><path d="M205.2148,129.2617 L205.2148,129.4485 L207.2148,128.8934 L209.2148,129.4335 L211.2148,129.617 L213.2148,128.6276 L215.2148,129.2617 L215.2148,129.2617 L215.2138,129.2272 L218.209,129.1648 L221.2096,129.2765 L224.2139,129.5092 L227.2054,129.3249 L230.2148,129.7246 L230.2224,129.9706 L233.2062,129.5372 L236.2121,129.8219 L239.2208,130.1942 L242.2137,130.0568 L245.2148,130.1875 L245.2148,130.2482 L247.2148,130.1591 L249.2148,130.3462 L251.2148,130.4001 L253.2148,130.7081 L255.2148,130.1875" fill="none" style="stroke:#FF9900;stroke-width:1;"/><a href="/use-case/legal-entity-management/lifecycle-and-status/" target="_top" title="/use-case/legal-entity-management/lifecycle-and-status/" xlink:actuate="onRequest" xlink:href="/use-case/legal-entity-management/lifecycle-and-status/" xlink:show="new" xlink:title="/use-case/legal-entity-management/lifecycle-and-status/" xlink:type="simple"><text fill="#90EE90" font-family="'Roboto'" font-size="14" lengthAdjust="spacing" textLength="125.8428" x="262.2148" y="161.3311">Lifecycle &amp; Status</text></a><path d="M205.2148,129.2617 L205.2148,129.4485 L207.2148,128.8934 L209.2148,129.4335 L211.2148,129.617 L213.2148,128.6276 L215.2148,129.2617 L215.2148,129.2617 L215.2,129.2306 L216.9144,129.9414 L218.7039,130.8093 L220.5455,131.7865 L222.2074,132.3873 L224.1211,133.5153 L224.3273,133.6495 L225.1051,135.234 L226.4849,137.2104 L227.9382,139.2347 L228.9641,140.9807 L230.2148,142.873 L230.2403,142.8896 L231.4217,144.7369 L232.7188,146.6595 L233.9602,148.5457 L235.308,150.5013 L236.3086,152.2308 L236.4371,152.5 L238.2199,153.354 L239.9199,154.0344 L241.7411,154.9689 L243.5681,155.9153 L245.2148,156.4844 L245.2148,155.8433 L247.2148,157.0875 L249.2148,156.2208 L251.2148,156.9589 L253.2148,156.0444 L255.2148,156.4844" fill="none" style="stroke:#FF9900;stroke-width:1;"/><a href="/use-case/legal-entity-management/contact-and-location-information/" target="_top" title="/use-case/legal-entity-management/contact-and-location-information/" xlink:actuate="onRequest" xlink:href="/use-case/legal-entity-management/contact-and-location-information/" xlink:show="new" xlink:title="/use-case/legal-entity-management/contact-and-location-information/" xlink:type="simple"><text fill="#90EE90" font-family="'Roboto'" font-size="14" lengthAdjust="spacing" textLength="219.4814" x="262.2148" y="187.6279">Contact &amp; Location Information</text></a><path d="M205.2148,129.2617 L205.2148,129.4485 L207.2148,128.8934 L209.2148,129.4335 L211.2148,129.617 L213.2148,128.6276 L215.2148,129.2617 L215.2148,129.2617 L215.1912,129.2365 L216.8663,130.796 L218.6607,132.4824 L220.5379,134.2571 L222.1295,135.7277 L224.1211,137.6241 L224.3547,137.7015 L225.0739,141.2155 L226.4752,144.9554 L227.9596,148.7229 L228.9599,152.33 L230.2148,156.0215 L230.2436,156.031 L231.4201,159.6965 L232.7277,163.4054 L233.972,167.0933 L235.3369,170.8212 L236.3086,174.4188 L236.5127,174.6362 L238.2965,176.3114 L239.9486,177.8463 L241.7934,179.5865 L243.6472,181.3363 L245.2148,182.7813 L245.2148,182.1402 L247.2148,183.3844 L249.2148,182.5177 L251.2148,183.2557 L253.2148,182.3412 L255.2148,182.7813" fill="none" style="stroke:#FF9900;stroke-width:1;"/><a href="/use-case/legal-entity-management/compliance-and-documentation/" target="_top" title="/use-case/legal-entity-management/compliance-and-documentation/" xlink:actuate="onRequest" xlink:href="/use-case/legal-entity-management/compliance-and-documentation/" xlink:show="new" xlink:title="/use-case/legal-entity-management/compliance-and-documentation/" xlink:type="simple"><text fill="#90EE90" font-family="'Roboto'" font-size="14" lengthAdjust="spacing" textLength="210.1504" x="262.2148" y="213.9248">Compliance &amp; Documentation</text></a><path d="M205.2148,129.2617 L205.2148,129.4485 L207.2148,128.8934 L209.2148,129.4335 L211.2148,129.617 L213.2148,128.6276 L215.2148,129.2617 L215.2148,129.2617 L215.1867,129.2416 L216.8418,131.6458 L218.6386,134.1512 L220.5339,136.7269 L222.0898,139.0602 L224.1211,141.733 L224.3597,141.7932 L224.494,144.2212 L225.3249,146.8248 L226.2408,149.4498 L226.6623,151.9502 L227.3438,154.5161 L227.3735,154.522 L227.904,157.4442 L228.5701,160.3929 L229.1707,163.3288 L229.8961,166.2892 L230.2148,169.1699 L230.5075,169.2273 L231.0853,172.1587 L231.4743,175.0532 L232.1397,178.0018 L232.818,180.953 L233.0859,183.8237 L232.7751,183.7454 L234.0229,186.4541 L234.2472,188.9047 L235.2496,191.5516 L235.4507,193.9964 L236.3086,196.6068 L236.2838,196.5891 L238.3581,199.2926 L239.8535,201.5827 L241.6904,204.1168 L243.5561,206.6713 L245.2148,209.0781 L245.2148,209.4481 L247.2148,209.0747 L249.2148,209.3334 L251.2148,208.5693 L253.2148,209.3309 L255.2148,209.0781" fill="none" style="stroke:#FF9900;stroke-width:1;"/><a href="/use-case/legal-entity-management/supporting-information/" target="_top" title="/use-case/legal-entity-management/supporting-information/" xlink:actuate="onRequest" xlink:href="/use-case/legal-entity-management/supporting-information/" xlink:show="new" xlink:title="/use-case/legal-entity-management/supporting-information/" xlink:type="simple"><text fill="#90EE90" font-family="'Roboto'" font-size="14" lengthAdjust="spacing" textLength="162.7295" x="262.2148" y="240.2217">Supporting Information</text></a><path d="M205.2148,129.2617 L205.2148,129.4485 L207.2148,128.8934 L209.2148,129.4335 L211.2148,129.617 L213.2148,128.6276 L215.2148,129.2617 L215.2148,129.2617 L215.1844,129.2454 L216.8291,132.4881 L218.6272,135.8131 L220.5319,139.1955 L222.0692,142.3805 L224.1211,145.8419 L224.3628,145.8878 L224.4904,149.1887 L225.3238,152.6234 L226.2433,156.0745 L226.6618,159.4306 L227.3438,162.8366 L227.3738,162.841 L227.9039,166.7309 L228.5707,170.6409 L229.1716,174.5412 L229.8982,178.46 L230.2148,182.3184 L230.5099,182.3618 L231.0877,186.2587 L231.4752,190.1276 L232.1413,194.0374 L232.8205,197.9493 L233.0859,201.8001 L232.771,201.7404 L234.0267,205.2552 L234.2455,208.5734 L235.2526,212.0411 L235.4479,215.3549 L236.3086,218.7948 L236.2818,218.7804 L238.3802,222.2668 L239.852,225.4166 L241.6936,228.7651 L243.5662,232.1302 L245.2148,235.375 L245.2148,235.745 L247.2148,235.3715 L249.2148,235.6303 L251.2148,234.8662 L253.2148,235.6278 L255.2148,235.375" fill="none" style="stroke:#FF9900;stroke-width:1;"/><!--SRC=[xLXjRzis4FwkNy4rmDgYSnrtIT46HL77UMaQ9mxifC1G504jdMqYCgcILB9is7_VKR8aIdw9vLXTCYHVMlEEpprt8ddayqbfAlMOSMzC0yVvnOC1uq1s3ozFcaUdbwrEkzCbqT_6rkPsexzjk_JsMvtJlMRtZudV39UpPkkuURYV0asvTBfx-rqx3jaO3DuEDZTJbuFEwNdE8N8nVuwZhXWFgAHZqgVkrL2Aa7ijuGkPE6f9kK8FuDfo_dmRW6mpVcNxaWsV3KTwA06uupmdZBj-w07H8o13u22fJr88HGOuiI_qw3SIJIEKUyIZyWfdQa74DSWRoJIG6wP7CGQx1auKQCtuK1KhSFxvg7Lykj_haGP-1X5e9ZWP8QX1qJXnG7q5LWvdrFCGY6nPOzquVubaoJjhl3UYdhWntaMKg18-LkA2Uz5_OE9Y-Up1W8Q-9dyx1uBhKpe6ygmhC7VnB1g9YvXzfcYmn_u2qjXo_h6HcbAA6yIPEMCsZBxriKR2z_980NvkEeG9fwcfkuNLa5lFpgwGcEp4OYr03955uC8h0vzRwCj5SCKu41nN9ePPaV1CTd7Dmh7_9bypZshQfmhM72uNm_L5w5KQGFW-k6PtgBM7oQAqq44Aly88kmQIojiAG-nppNIL0HZN80VKXGfZzE172Do5CsnJp6K1vJe6Enynzug3KdXWPkvguewCx1aBoKr1p-1f-MJ74XToJFsYRIgTDXi0DXkO2vuwBAGP7PvJuD7eNEJ8EfDKPCbg-BlJTBMGTp28NER6CjPv6_WvQMqHKpLiGlXZuyu_UyzBtF2K3ttuy06xbHByuqVylZrSV20qDh2vtMDTVQ6uueezEtz4MNJXJoJ9gN-vVjw5orS5vDMjqZ1-VBLUF- -AQfqqvCTHwepjuwkqjKpwayORiovSZFDPH7VOpRjlUolblZYnkC5uL8t0MoRNcQcw69XYNv7BvehtzSLBgO9C5tz2kxLhgcVTD98dPHOyUHusjPQi7sgODjcaaWTduI9BbQeusdDo4Z-yYGh0PGFcOf9nYvnwXopFuyxKQ7QHs3WuUFyUxGMZVRTod5UNvDitKWyLr5pS_tKVXjIlGNIxh8qfntVO67_LITiOacldIMeWtxyxhvO5OPuPmr9GSyUluGEu9c7853xapK2T7EKSoA-aQvbBXNA530JEWzhGFDSvnNjZ7Q_-ar5oc8wMWXKtkEFKY0KHUPS6JACVCWnT7KgCq4aSa7mhDkFLQ6AEGwqhLcgtewurWXk_bEhfaob6Nm-u6b49gcxq2_mNorLH4b6SP7mIBlqqQut4b0h1oq8THR-hYPMjRne_cEt5tPoyeSkix04pku6XZV61UVl4E_8W6IP7sN0fO1yVGEwjwqEKYJdeGoJRJaRnm_UYiPBR6xkVgoD8NqpEanpnLko1yEs9VUKCZ9RZCtDMHF4yuOPcF0sKM37Mdcqh5KI50Nuz8n_cy-YbuqN-dm3xIoBkVifhlHMAfmzOfaowv98QfUq-0w24EfcsvpcDV7RRNg17tXTmaVou26EQmGg2Oxa0IqcCzu5SA2gM1Lv6HbmTSu5mk3heNAbmTSX5uk3gg9N8WGcTEK9Wmgoq1fWaC4i0J43dQNy99qlrInyQHSalmIgeVJd_EwM-D61Hv4lHy_gUjP5MakhcdwnbLilqnx-l5FUpUTsXeVndPNe8l9OMo7uocmTLfBLgMmcFajdCPRrGnsfKALojEvD2_V_NmjIJ-lIaFZsfJq_gqvFwzAG-hKjzElFnRNHnqYPuh2dZq7ZzPlFDzkj6em-QDZPVNF0hZeigqYKObbspCRnqNXoUjOaIeKJsdZbfJIV3wI-TB_IQacx8ZTyEwGJ0l-mT9mFO1wwP5DmmTxvyFSaStcxLTfd6XwH48kJhYPFeHllS5KQgsY4NvmUrTquRBoCX9hz3W3ijx7rQtgAjzoy0]--></g></svg>