<svg xmlns="http://www.w3.org/2000/svg" xmlns:xlink="http://www.w3.org/1999/xlink" contentStyleType="text/css" data-diagram-type="MINDMAP" height="130px" preserveAspectRatio="none" style="width:917px;height:130px;" version="1.1" viewBox="0 0 917 130" width="917px" zoomAndPan="magnify"><defs/><g><a href="/use-case/construction-project-quotations/opportunity-and-tender-intake/" target="_top" title="/use-case/construction-project-quotations/opportunity-and-tender-intake/" xlink:actuate="onRequest" xlink:href="/use-case/construction-project-quotations/opportunity-and-tender-intake/" xlink:show="new" xlink:title="/use-case/construction-project-quotations/opportunity-and-tender-intake/" xlink:type="simple"><text fill="#90EE90" font-family="'Roboto'" font-size="14" lengthAdjust="spacing" textLength="201.3662" x="371.6855" y="69.292">Opportunity &amp; Tender Intake</text></a><a href="/use-case/construction-project-quotations/opportunity-and-tender-intake/rfp-rfq-intake/" target="_top" title="/use-case/construction-project-quotations/opportunity-and-tender-intake/rfp-rfq-intake/" xlink:actuate="onRequest" xlink:href="/use-case/construction-project-quotations/opportunity-and-tender-intake/rfp-rfq-intake/" xlink:show="new" xlink:title="/use-case/construction-project-quotations/opportunity-and-tender-intake/rfp-rfq-intake/" xlink:type="simple"><text fill="#90EE90" font-family="'Roboto'" font-size="14" lengthAdjust="spacing" textLength="258.542" x="638.502" y="27.9951">RFP/RFQ Intake &amp; Document Catalog</text></a><path d="M581.502,64.4453 L581.502,64.6321 L583.502,64.077 L585.502,64.6171 L587.502,64.8006 L589.502,63.8112 L591.502,64.4453 L591.502,64.4453 L591.4817,64.4173 L593.172,63.0013 L594.9645,61.7262 L596.8279,60.5492 L598.4467,59.0344 L600.4082,57.9927 L600.6343,58.0897 L601.3695,55.043 L602.7649,52.2797 L604.2409,49.5509 L605.2482,46.621 L606.502,43.7969 L606.5298,43.8088 L607.7077,40.9521 L609.0124,38.1499 L610.2559,35.3213 L611.6162,32.5429 L612.5957,29.6011 L612.7707,29.8426 L614.5541,28.555 L616.2246,27.1117 L618.0603,25.8963 L619.9038,24.6917 L621.502,23.1484 L621.502,22.5074 L623.502,23.7516 L625.502,22.8849 L627.502,23.6229 L629.502,22.7084 L631.502,23.1484" fill="none" style="stroke:#FF9900;stroke-width:1;"/><a href="/use-case/construction-project-quotations/opportunity-and-tender-intake/bid-no-bid-decisioning/" target="_top" title="/use-case/construction-project-quotations/opportunity-and-tender-intake/bid-no-bid-decisioning/" xlink:actuate="onRequest" xlink:href="/use-case/construction-project-quotations/opportunity-and-tender-intake/bid-no-bid-decisioning/" xlink:show="new" xlink:title="/use-case/construction-project-quotations/opportunity-and-tender-intake/bid-no-bid-decisioning/" xlink:type="simple"><text fill="#90EE90" font-family="'Roboto'" font-size="14" lengthAdjust="spacing" textLength="159.2705" x="638.502" y="54.292">Bid/No-Bid Decisioning</text></a><path d="M581.502,64.4453 L581.502,64.6321 L583.502,64.077 L585.502,64.6171 L587.502,64.8006 L589.502,63.8112 L591.502,64.4453 L591.502,64.4453 L591.4865,64.4144 L594.4172,62.7758 L597.4257,61.2929 L600.4884,59.9182 L603.3645,58.1705 L606.502,56.9453 L606.612,57.1654 L609.3767,55.1948 L612.4626,53.8667 L615.5878,52.617 L618.4849,50.9112 L621.502,49.4453 L621.502,49.506 L623.502,49.4169 L625.502,49.604 L627.502,49.6579 L629.502,49.9659 L631.502,49.4453" fill="none" style="stroke:#FF9900;stroke-width:1;"/><polygon fill="#4051B5" points="635.502,72.5938,635.502,72.8039,645.5777,72.1794,655.6534,72.787,665.7291,72.9934,675.8048,71.8804,685.8805,72.516,695.9562,72.1673,706.0319,72.2103,716.1076,72.5256,726.1833,71.9024,736.259,73.1474,746.3347,71.9635,756.4104,72.396,766.4861,73.0257,776.5618,72.508,786.6375,72.662,796.7132,72.5618,806.7889,72.7723,816.8646,72.8329,826.9403,73.1794,837.016,73.2648,847.0918,73.273,857.1675,72.8484,867.2432,72.5938,867.3023,72.7365,867.8984,73.0443,868.2825,72.8403,869.0268,73.5056,869.4681,73.4397,870.0716,73.7653,870.236,73.8334,870.1535,74.2679,870.5191,74.888,871.0029,75.557,870.9938,76.0218,871.2432,76.5938,871.2783,76.5938,871.356,82.2531,871.3819,87.9125,871.2419,93.5719,871.3389,99.2313,871.2432,104.8906,871.0669,104.8176,871.0964,105.4926,870.9434,106.0919,870.6771,106.6444,870.4947,107.2316,870.0716,107.7191,870.01,107.5703,869.4227,107.7525,868.861,107.9963,868.367,108.4039,867.7838,108.5958,867.2432,108.8906,867.2432,109.572,857.1675,108.7159,847.0918,108.5476,837.016,109.1189,826.9403,108.2238,816.8646,108.3715,806.7889,109.5396,796.7132,109.3263,786.6375,109.6251,776.5618,108.5688,766.4861,109.2098,756.4104,109.481,746.3347,108.4182,736.259,108.7948,726.1833,109.0166,716.1076,109.5424,706.0319,108.8864,695.9562,109.3532,685.8805,108.3368,675.8048,108.2134,665.7291,109.3942,655.6534,108.1737,645.5777,109.3996,635.502,108.8906,635.5283,108.9543,634.9021,108.5738,634.3255,108.313,633.8634,108.329,633.201,107.8612,632.6735,107.7191,632.8558,107.7946,632.269,107.0829,632.395,106.6664,632.1197,106.0838,631.8117,105.4876,631.502,104.8906,631.5177,104.8906,631.7442,99.2313,631.7065,93.5719,631.5584,87.9125,631.5913,82.2531,631.502,76.5938,631.4618,76.5771,631.9569,76.1195,632.0183,75.4821,632.258,74.9187,632.2519,74.2534,632.6735,73.7653,632.6218,73.6405,633.3069,73.6945,633.8597,73.429,634.3651,73.0492,634.8952,72.7288,635.502,72.5938" style="stroke:#FF6F00;stroke-width:1.5;"/><a href="/use-case/construction-project-quotations/opportunity-and-tender-intake/site-visit-and-existing-conditions/" target="_top" title="/use-case/construction-project-quotations/opportunity-and-tender-intake/site-visit-and-existing-conditions/" xlink:actuate="onRequest" xlink:href="/use-case/construction-project-quotations/opportunity-and-tender-intake/site-visit-and-existing-conditions/" xlink:show="new" xlink:title="/use-case/construction-project-quotations/opportunity-and-tender-intake/site-visit-and-existing-conditions/" xlink:type="simple"><text fill="#90EE90" font-family="'Roboto'" font-size="14" lengthAdjust="spacing" textLength="215.291" x="641.502" y="95.5889">Site Visit &amp; Existing Conditions</text></a><path d="M581.502,64.4453 L581.502,64.6321 L583.502,64.077 L585.502,64.6171 L587.502,64.8006 L589.502,63.8112 L591.502,64.4453 L591.502,64.4453 L591.4792,64.4193 L594.377,66.9325 L597.3896,69.5765 L600.482,72.3116 L603.2994,74.733 L606.502,77.5938 L606.6642,77.7788 L609.3173,80.0128 L612.444,82.787 L615.6285,85.6272 L618.4768,88.0838 L621.502,90.7422 L621.502,90.8028 L623.502,90.7138 L625.502,90.9009 L627.502,90.9548 L629.502,91.2628 L631.502,90.7422" fill="none" style="stroke:#FF9900;stroke-width:1;"/><a href="/use-case/construction-project-quotations/" target="_top" title="/use-case/construction-project-quotations/" xlink:actuate="onRequest" xlink:href="/use-case/construction-project-quotations/" xlink:show="new" xlink:title="/use-case/construction-project-quotations/" xlink:type="simple"><text fill="#90EE90" font-family="'Roboto'" font-size="14" lengthAdjust="spacing" textLength="289.2354" x="14" y="69.292">Complex Construction Project Quotations</text></a><path d="M364.6855,64.4453 L364.6855,64.6321 L362.6855,64.077 L360.6855,64.6171 L358.6855,64.8006 L356.6855,63.8112 L354.6855,64.4453 L354.6855,64.4453 L354.6855,64.4108 L348.6855,64.2558 L342.6855,64.2749 L336.6855,64.415 L330.6855,64.138 L324.6855,64.4453 L324.6855,64.9374 L322.6855,63.8851 L320.6855,64.2695 L318.6855,64.8293 L316.6855,64.3691 L314.6855,64.4453" fill="none" style="stroke:#FF9900;stroke-width:1;"/><!--SRC=[xLXjRzf84FxkNx7NI7rHpmLoITL6LHL284r2W48IwLHLqMAlOG-pw-okINAd- -ytjh6nZJ4lmRtahdn9wttscMTctsRcK2eir9WoSumTJVl591Pb11sTt5nKJritjNQptKN-RsUll5_fxySXlNgjtJgkTd-VuZ8WdMhjl7fIZuZc8EtkSRqRjuDsBEkzLIv7a4QxTPa0-13lfsboH9c31HwZFZP60y5TPjQupKK8L08p2GZ2L0pyvS4XeadPA8v5EpOT3DL04C8qxHMYpB1Tao0r96X0617OHX65H1PCx7Cr_1Nvqn1c9ZAn6C5CnH6V474dg2BeZgfXm44dX259bA9i8DCHkFnoMZjlrNizL85bu8wYdA4Xa7ei2YPQs9OavaC7coOGeRtOjsxWlm2nw4FiUs-8JNxdeTCiVYHiYCGLC_r_a2aaXZac5dPjXVxI6fof5XuJzABBmNV-mlyI176sJFx77lsJeCgUzdUSgIe4lmEUp1dPDEh1XXXnsqmoER3SU42cckQc7gLsGs8_QqTSWBFJaTW611Cp2uoRwz0dDlfg5Wm-TZY3dGbcDXISgIw8cJksTvCnCx72VIp9biqbR1WsTyr23N3R9ePtEkJMpSoir00Wk5sWXIEF4ek70atKcQAgI0EKAI8iR902RVJ8hKkOGJhmJ563EfYfWEnoI8qH8rB2XJc3ooaS5CLdv8gReyxG6SFChYN6nHZRwR4vTvhK8l3Oa8Na4I1Nfdzvpf7xNnSo-wEPeloHMGn_qwg6ucA90X-oq9OtkkW0lqArFUH53HuX-C_Eqb_yp0iuy9WDRFBf4xnMahFFds5zUx3v25VmW2ryFRRrBgHtNFhDJbvHCRda7aGoRDziNtSg-If0l7oGYeoVNwothxkWM8SFylC8zKpjyujqR9lqfmzle3gL62Uzy7FOyl9iRoFVynqB7XWJoo4nL_4rqrK336DuLyIglaA-dh-L2l0qVmdZJxl2AYlJ24lAcV6mFAmg9MZVLMH-A2ugB3XJYIoMic1hhz15K7WZwH23MjG09uCdSguEMLt7KjVmB97OQJG-VeJnr60yjzAqjpVespTKSYNH3JZ_9TXMKWdNJy9rH_0_OCVfjow7zV7IyX9t72wKoo3vrA60rQ5w1K4wP8juH4geFHj6Bz6bFuXE_K7q_RlsThlcXENemhgDh7SRdLAtyJKq-18TSyCTUqLO3UutcmyAqD2dfiwuxlqnOPqbJ84rBg4ZQfPQN8S_K6D7tmC1sxGlgIBw1FYLFqZkgVHw43gmcZGWG3slLt7jOI0czId2guEc24-LhgyP5fW_Tcnox_54GDG9WEXh1FJ83q5or8SwJBQb2kppFE6EIdYWLsodnE4P16iqKgARPC6Tatt3vBHE7akOrod9uvXNi45lP3q3AtL37aEPs_zObtYLZiVcd3azZir95tOrDgVCwsDipbf8voAKiw1d4IfRkrqHEf3LgmX95xKfGasn1aMK4wMx4o5NgZ6Hm2_jIaG6q_s8Y3tPYeWTf8sw2ejlrdLso_pYFxPhyADrBIdt_hKmFGLTAzVoFrZDamhILilmKCUQtYnKdLjoLugiiRVjIIh-_-aQ-cUX_BDG_XyNoXqRqhYhYoQQGAhWpQcysotlxh-hLFf4uKhvzHKRCNx7_1AAmlscw9YyqLwVT9f8SbT0lcc22_wXW-blj3CymQZhCWzt05kGiBFZy_039DyJAZZpje5sTdqn0xpVWzLHaFCA48AkBxImnAqpWtjLzG6wkcpe7xGct9ik59m72Ahl6XnJ9HvWhFSF]--></g></svg>