<svg xmlns="http://www.w3.org/2000/svg" xmlns:xlink="http://www.w3.org/1999/xlink" contentStyleType="text/css" data-diagram-type="MINDMAP" height="127px" preserveAspectRatio="none" style="width:863px;height:127px;" version="1.1" viewBox="0 0 863 127" width="863px" zoomAndPan="magnify"><defs/><g><a href="/use-case/construction-project-quotations/opportunity-and-tender-intake/" target="_top" title="/use-case/construction-project-quotations/opportunity-and-tender-intake/" xlink:actuate="onRequest" xlink:href="/use-case/construction-project-quotations/opportunity-and-tender-intake/" xlink:show="new" xlink:title="/use-case/construction-project-quotations/opportunity-and-tender-intake/" xlink:type="simple"><text fill="#4051B5" font-family="'Roboto'" font-size="13" lengthAdjust="spacing" textLength="186.9829" x="350.708" y="67.1997">Opportunity &amp; Tender Intake</text></a><a href="/use-case/construction-project-quotations/opportunity-and-tender-intake/rfp-rfq-intake/" target="_top" title="/use-case/construction-project-quotations/opportunity-and-tender-intake/rfp-rfq-intake/" xlink:actuate="onRequest" xlink:href="/use-case/construction-project-quotations/opportunity-and-tender-intake/rfp-rfq-intake/" xlink:show="new" xlink:title="/use-case/construction-project-quotations/opportunity-and-tender-intake/rfp-rfq-intake/" xlink:type="simple"><text fill="#4051B5" font-family="'Roboto'" font-size="13" lengthAdjust="spacing" textLength="240.0747" x="602.8232" y="27.0669">RFP/RFQ Intake &amp; Document Catalog</text></a><path d="M545.8232,62.6992 L545.8232,62.886 L547.8232,62.3309 L549.8232,62.871 L551.8232,63.0545 L553.8232,62.0651 L555.8232,62.6992 L555.8232,62.6992 L555.8034,62.671 L557.4954,61.2901 L559.2876,60.0516 L561.1496,58.912 L562.7713,57.4314 L564.7295,56.4285 L564.9546,56.5279 L565.692,53.5562 L567.0866,50.8747 L568.5613,48.2286 L569.5696,45.3765 L570.8232,42.6328 L570.851,42.6451 L572.029,39.8679 L573.3333,37.1466 L574.5767,34.3984 L575.9364,31.7015 L576.917,28.8372 L577.0887,29.081 L578.872,27.8299 L580.5446,26.4214 L582.3794,25.2432 L584.2217,24.0758 L585.8232,22.5664 L585.8232,21.9254 L587.8232,23.1695 L589.8232,22.3028 L591.8232,23.0409 L593.8232,22.1264 L595.8232,22.5664" fill="none" style="stroke:#FF6F00;stroke-width:1;"/><a href="/use-case/construction-project-quotations/opportunity-and-tender-intake/bid-no-bid-decisioning/" target="_top" title="/use-case/construction-project-quotations/opportunity-and-tender-intake/bid-no-bid-decisioning/" xlink:actuate="onRequest" xlink:href="/use-case/construction-project-quotations/opportunity-and-tender-intake/bid-no-bid-decisioning/" xlink:show="new" xlink:title="/use-case/construction-project-quotations/opportunity-and-tender-intake/bid-no-bid-decisioning/" xlink:type="simple"><text fill="#4051B5" font-family="'Roboto'" font-size="13" lengthAdjust="spacing" textLength="147.894" x="602.8232" y="52.1997">Bid/No-Bid Decisioning</text></a><path d="M545.8232,62.6992 L545.8232,62.886 L547.8232,62.3309 L549.8232,62.871 L551.8232,63.0545 L553.8232,62.0651 L555.8232,62.6992 L555.8232,62.6992 L555.8078,62.6683 L558.7385,61.0297 L561.747,59.5468 L564.8097,58.1721 L567.6858,56.4244 L570.8232,55.1992 L570.9333,55.4193 L573.698,53.4487 L576.7839,52.1206 L579.9091,50.8709 L582.8062,49.1651 L585.8232,47.6992 L585.8232,47.7599 L587.8232,47.6708 L589.8232,47.8579 L591.8232,47.9118 L593.8232,48.2198 L595.8232,47.6992" fill="none" style="stroke:#FF6F00;stroke-width:1;"/><polygon fill="#4051B5" points="599.8232,70.2656,599.8232,70.4758,609.6435,69.8513,619.4637,70.4589,629.284,70.6653,639.1042,69.5522,648.9245,70.1879,658.7447,69.8391,668.565,69.8821,678.3852,70.1975,688.2055,69.5743,698.0257,70.8193,707.8459,69.6353,717.6662,70.0679,727.4864,70.6976,737.3067,70.1798,747.1269,70.3339,756.9472,70.2337,766.7674,70.4442,776.5877,70.5048,786.4079,70.8513,796.2282,70.9367,806.0484,70.9449,815.8687,70.2656,815.9011,70.344,816.4935,70.6427,817.0896,70.9505,817.4737,70.7465,818.2179,71.4118,818.6971,71.4372,818.6058,71.3994,819.0958,72.071,819.0133,72.5054,819.3789,73.1255,819.8627,73.7945,819.8687,74.2656,819.8524,74.2656,819.9038,79.6922,819.9815,85.1188,820.0074,90.5453,819.8674,95.9719,819.8687,101.3984,819.9571,101.4351,819.4581,101.8911,819.4876,102.5661,819.3345,103.1654,819.0683,103.7179,818.6971,104.2269,818.7753,104.4157,818.0698,104.3124,817.4825,104.4946,816.9208,104.7384,816.4268,105.146,815.8687,105.3984,815.8687,105.2019,806.0484,106.0798,796.2282,105.2238,786.4079,105.0554,776.5877,105.6267,766.7674,104.7316,756.9472,104.8793,747.1269,106.0474,737.3067,105.8341,727.4864,106.1329,717.6662,105.0766,707.8459,105.7176,698.0257,105.9889,688.2055,104.926,678.3852,105.3026,668.565,105.5244,658.7447,106.0502,648.9245,105.3942,639.1042,105.861,629.284,104.8447,619.4637,104.7212,609.6435,105.9021,599.8232,105.3984,599.7318,105.1776,599.3225,105.3209,598.7182,104.9934,598.092,104.613,597.5154,104.3522,596.9948,104.2269,597.1361,104.2854,596.6683,103.623,596.7085,103.171,596.1216,102.4593,596.2477,102.0429,595.8232,101.3984,595.9847,101.3984,595.9049,95.9719,595.839,90.5453,596.0654,85.1188,596.0278,79.6922,595.8232,74.2656,595.8754,74.2872,596.1401,73.7342,596.2518,73.1176,596.7468,72.66,596.8082,72.0226,596.9948,71.4372,597.0168,71.4903,597.4829,71.0155,598.0745,70.8438,598.7596,70.8977,599.3124,70.6323,599.8232,70.2656" style="stroke:#FF6F00;stroke-width:1.5;"/><a href="/use-case/construction-project-quotations/opportunity-and-tender-intake/site-visit-and-existing-conditions/" target="_top" title="/use-case/construction-project-quotations/opportunity-and-tender-intake/site-visit-and-existing-conditions/" xlink:actuate="onRequest" xlink:href="/use-case/construction-project-quotations/opportunity-and-tender-intake/site-visit-and-existing-conditions/" xlink:show="new" xlink:title="/use-case/construction-project-quotations/opportunity-and-tender-intake/site-visit-and-existing-conditions/" xlink:type="simple"><text fill="#4051B5" font-family="'Roboto'" font-size="13" lengthAdjust="spacing" textLength="199.9131" x="605.8232" y="92.3325">Site Visit &amp; Existing Conditions</text></a><path d="M545.8232,62.6992 L545.8232,62.886 L547.8232,62.3309 L549.8232,62.871 L551.8232,63.0545 L553.8232,62.0651 L555.8232,62.6992 L555.8232,62.6992 L555.8011,62.6727 L558.7015,65.0672 L561.7138,67.5951 L564.8038,70.2158 L567.6259,72.5168 L570.8232,75.2656 L570.9813,75.4542 L573.6434,77.5642 L576.7668,80.2248 L579.9465,82.9526 L582.7988,85.2895 L585.8232,87.832 L585.8232,87.8927 L587.8232,87.8036 L589.8232,87.9907 L591.8232,88.0446 L593.8232,88.3526 L595.8232,87.832" fill="none" style="stroke:#FF6F00;stroke-width:1;"/><a href="/use-case/construction-project-quotations/" target="_top" title="/use-case/construction-project-quotations/" xlink:actuate="onRequest" xlink:href="/use-case/construction-project-quotations/" xlink:show="new" xlink:title="/use-case/construction-project-quotations/" xlink:type="simple"><text fill="#4051B5" font-family="'Roboto'" font-size="13" lengthAdjust="spacing" textLength="268.5757" x="14" y="67.1997">Complex Construction Project Quotations</text></a><path d="M343.708,62.6992 L343.708,62.886 L341.708,62.3309 L339.708,62.871 L337.708,63.0545 L335.708,62.0651 L333.708,62.6992 L333.708,62.6992 L333.708,62.6647 L327.708,62.5097 L321.708,62.5288 L315.708,62.6689 L309.708,62.3919 L303.708,62.6992 L303.708,63.1913 L301.708,62.139 L299.708,62.5234 L297.708,63.0832 L295.708,62.623 L293.708,62.6992" fill="none" style="stroke:#FF6F00;stroke-width:1;"/><!--SRC=[xLZRRjiu47tNLt0Re1UqgkCqAOgWAE8uJfghNJl9Ob4K0IrHDjSogP2Ka-nY_ts7iYHBiYLV8hS9KB-a5OTdpWnlCsTFAYpKa39xY3t3-CCc3cK4xH_TdDUEBsxgpRDc6mM_ZUtDdMft9sdIQTIR5mUrzb-XtGoJLgr-MZjgn41J9itsGQETz8Cs7EUZixaPcnmsBovJ1e69_iKcjNQx-MVQ9a8nv80o3miyH5ri3Ng2-yokSvSBjA44PXB625C9iwyF7X4kPOFGAcHil4AKMQvl4wJw1FK88mAxA9udaGFMNQxwxv1BUts5CBEHZSK0PYgE-8Y8Eq4LGNTKzSSOT4GOaaGfodeocvFBhyVrquj6fuEgi33SKvGpr0TGZQ9WeeDTIHB4MzYs0GXj9xwrn-4A88i-9Rvt-jZcTzewYnA7VyNiu1yaD4dO7107-wv2_ng7dAaBF2JeHPj3xFn5y6MSkSd21Hyxz1-2gjl6VqcacX3y3d1cpfWDenvSo15txJII1wkBUoJaD3LrFxFugHrkx7C1mOOZYIq9BYOU6BUNWKzj_SKyM7peSGRR4ToiI7Wckt7E_A6xbSwPZHNkOabATfVoORdSjzVgWBikiVJfaAMxcNYfWu7WxXezx6j8B1xMwAB155NhT42P8iB15bcZZmwvzGcpI0iUBcfH3pCr1hliKsl0Y9HmOKxCPMWEZ98p2ibDGS_WcR2PN4kCYo5sisDJuPnHXvp1pPeB7XiKqWmkpodmu6ikSZ0warGmCidX1wDcAIxcC0XCSdtfqRm3_0hLjv7E6Zn2y9-DkR_acHTmu37hkUJpPtYj96TVli3wTc3p4QxW0SjzFSfw5x8xBljcfw-e15ro3oGPTc_AvvqfnzP0NZv8HORFBzVbyrvJhgC7-NcaUiBs-MKwiKswuSCxPfqfZDDH13NivlngRwNOYmCRFp0sbdrYBnBhp50jS8pXNH6BnWhrUl5MMaEanKkuT1iIDN2Jc3wCtvycT6I2GarlXpYwWGjRuQ3ObyX4GrygNPSJX1q8DVAPQGiItiBMDBV7IVIgUIIJfSGa6PdQ7HftDR_CcltIAoLerrSalmwOvbhGmAIgVIpbQgoA7Bn2v-6wI8zOrA4Mn1-K3h14TttTLIkuWw3-b7f1WyLxXxgkJs3j62Ew4968-qeFJxTq9RETuEDqJGMDlF7s1dt_ZYg-9AO5TsS5-4ab_A21CJt1_mQovgtFONbrIrFXdiU5yXaKxYOq_oPq_k3OX4eR3qW5DIV3w2Mw30RHSJ28VlmmtfRhJZYUAPpRs7lxi5Lf7twB7Bv41zpoXxg1hSFRuFBU6ZXqgMqoRke_Dkm52LDW7rJGFhKh5zo4Ft18u-zZ0cNwbx3Rp17Wgs2Gt5EfzHiJK6qw1a0TlIEljGtaf15Qw1uojD2iJ7F9jC3yeUUIUuqJ6wBMs11zYmqr-1vGZbMzlRJ8LvuazeJ5f-WUNb1vIfhF05X2SuhcPU-KA6d9YoCIAGjLfiS25ebAHHZJ35QGaPPpi91mz1Z8GgbeMU15nA7LCGlaeDL1SmMWrI6B99_LKTSYyaHqSkITYDdIoauKm2nP9mBDKtGYJecgAuAR4d8Yh8o6axAVA-343hFIJOoULcqI1sab0IR_Pbrcjqml_cC5bf_DQqvd_ClIz1HuBInx_6GsJof9fIeM4OybeybbNQXELDSfHvGTIIR_PSaDA-i5CzxBqhI295BcBPcM25BFpApCPKlG1MI1V09p8NDQzqSW_cxMVpVhlxvPRxbGMrwTdw4Hr2zwJlNzrkRMpljgjKiKhcw-lc83nkzOqDTHEFoA3iaRu_LHwmn9xWieWcq88JYzCFsDSO976BLzfkrsOGiITd9m6ds0Zc141MTw6nWdr-SJWu_Ri3eA2d41HD3rkH5TVmrcSTtgxwAhoqFpat46bxaFNV0k8WpkBC0L3p3M-Hy0]--></g></svg>