<svg xmlns="http://www.w3.org/2000/svg" xmlns:xlink="http://www.w3.org/1999/xlink" contentStyleType="text/css" data-diagram-type="MINDMAP" height="157px" preserveAspectRatio="none" style="width:1107px;height:157px;" version="1.1" viewBox="0 0 1107 157" width="1107px" zoomAndPan="magnify"><defs/><g><a href="/use-case/construction-project-quotations/knowledge-capture-and-improvement/" target="_top" title="/use-case/construction-project-quotations/knowledge-capture-and-improvement/" xlink:actuate="onRequest" xlink:href="/use-case/construction-project-quotations/knowledge-capture-and-improvement/" xlink:show="new" xlink:title="/use-case/construction-project-quotations/knowledge-capture-and-improvement/" xlink:type="simple"><text fill="#90EE90" font-family="'Roboto'" font-size="14" lengthAdjust="spacing" textLength="335.207" x="371.6855" y="82.4404">Knowledge Capture &amp; Continuous Improvement</text></a><polygon fill="#4051B5" points="769.3428,20,769.3428,20.2102,779.2424,19.5857,789.1421,20.1933,799.0418,20.3997,808.9415,19.2866,818.8411,19.9223,828.7408,19.5735,838.6405,19.6165,848.5401,19.9318,858.4398,19.3086,868.3395,20.5536,878.2392,19.3697,888.1388,19.8022,898.0385,20.4319,907.9382,19.9142,917.8378,20.0682,927.7375,19.9681,937.6372,20.1785,947.5369,20.2391,957.4365,20,957.5112,20.1804,958.0878,20.441,958.6545,20.6778,959.1661,20.7814,959.7584,21.08,960.265,21.1716,960.4812,21.2612,960.2772,21.6453,960.9425,22.3895,960.8766,22.8308,961.3666,23.5024,961.4365,24,961.2715,24,961.4137,29.6594,961.6837,35.3188,961.4203,40.9781,961.4716,46.6375,961.4365,52.2969,961.5408,52.3401,961.3304,52.9157,960.9667,53.4277,960.822,54.0306,960.323,54.4866,960.265,55.1253,960.3012,55.2129,959.7692,55.5284,959.1903,55.7308,958.6461,56.017,957.9406,55.9138,957.4365,56.2969,957.4365,55.6447,947.5369,55.6755,937.6372,56.238,927.7375,56.1003,917.8378,56.9783,907.9382,56.1222,898.0385,55.9538,888.1388,56.5251,878.2392,55.63,868.3395,55.7777,858.4398,56.9458,848.5401,56.7325,838.6405,57.0314,828.7408,55.9751,818.8411,56.6161,808.9415,56.8873,799.0418,55.8245,789.1421,56.201,779.2424,56.4229,769.3428,56.2969,769.4259,56.4976,768.7766,56.0613,768.2704,55.9707,767.5751,55.4234,766.9936,55.151,766.5143,55.1253,766.6694,55.1895,766.0592,54.4682,766.2025,54.0589,765.875,53.4546,765.4946,52.8284,765.3428,52.2969,765.2248,52.2969,765.4957,46.6375,765.243,40.9781,765.5401,35.3188,765.1585,29.6594,765.3428,24,765.5329,24.0788,765.7262,23.4961,765.8868,22.8999,766.0603,22.309,766.5038,21.8299,766.5143,21.1716,766.5926,21.3605,767.1016,20.9894,767.6799,20.7855,768.1948,20.4285,768.8685,20.455,769.3428,20" style="stroke:#FF6F00;stroke-width:1.5;"/><a href="/use-case/construction-project-quotations/knowledge-capture-and-improvement/sme-knowledge-capture/" target="_top" title="/use-case/construction-project-quotations/knowledge-capture-and-improvement/sme-knowledge-capture/" xlink:actuate="onRequest" xlink:href="/use-case/construction-project-quotations/knowledge-capture-and-improvement/sme-knowledge-capture/" xlink:show="new" xlink:title="/use-case/construction-project-quotations/knowledge-capture-and-improvement/sme-knowledge-capture/" xlink:type="simple"><text fill="#90EE90" font-family="'Roboto'" font-size="14" lengthAdjust="spacing" textLength="171.6436" x="775.3428" y="42.9951">SME Knowledge Capture</text></a><path d="M715.3428,77.5938 L715.3428,77.7806 L717.3428,77.2255 L719.3428,77.7656 L721.3428,77.949 L723.3428,76.9596 L725.3428,77.5938 L725.3428,77.5938 L725.3231,77.5653 L727.0162,76.2052 L728.8083,74.9883 L730.6693,73.8708 L732.2929,72.4104 L734.249,71.4304 L734.4735,71.5313 L735.2123,68.6037 L736.6064,65.9707 L738.0804,63.3735 L739.0893,60.5673 L740.3428,57.8711 L740.3704,57.8835 L741.5486,55.1534 L742.8526,52.4799 L744.096,49.7791 L745.4552,47.1303 L746.4365,44.3118 L746.6062,44.557 L748.3896,43.3273 L750.0634,41.9395 L751.8975,40.7832 L753.7391,39.6377 L755.3428,38.1484 L755.3428,37.5074 L757.3428,38.7516 L759.3428,37.8849 L761.3428,38.6229 L763.3428,37.7084 L765.3428,38.1484" fill="none" style="stroke:#FF9900;stroke-width:1;"/><a href="/use-case/construction-project-quotations/knowledge-capture-and-improvement/document-ingestion-and-knowledge-extraction/" target="_top" title="/use-case/construction-project-quotations/knowledge-capture-and-improvement/document-ingestion-and-knowledge-extraction/" xlink:actuate="onRequest" xlink:href="/use-case/construction-project-quotations/knowledge-capture-and-improvement/document-ingestion-and-knowledge-extraction/" xlink:show="new" xlink:title="/use-case/construction-project-quotations/knowledge-capture-and-improvement/document-ingestion-and-knowledge-extraction/" xlink:type="simple"><text fill="#90EE90" font-family="'Roboto'" font-size="14" lengthAdjust="spacing" textLength="314.2891" x="772.3428" y="84.292">Document Ingestion &amp; Knowledge Extraction</text></a><path d="M715.3428,77.5938 L715.3428,77.7806 L717.3428,77.2255 L719.3428,77.7656 L721.3428,77.949 L723.3428,76.9596 L725.3428,77.5938 L725.3428,77.5938 L725.3406,77.5593 L728.3311,77.5897 L731.3323,77.7939 L734.3409,78.119 L737.3238,78.0277 L740.3428,78.5195 L740.3579,78.7651 L743.3255,78.4251 L746.3374,78.8021 L749.3546,79.2666 L752.3404,79.2221 L755.3428,79.4453 L755.3428,79.506 L757.3428,79.4169 L759.3428,79.604 L761.3428,79.6579 L763.3428,79.9659 L765.3428,79.4453" fill="none" style="stroke:#FF9900;stroke-width:1;"/><a href="/use-case/construction-project-quotations/knowledge-capture-and-improvement/traceability-and-provenance/" target="_top" title="/use-case/construction-project-quotations/knowledge-capture-and-improvement/traceability-and-provenance/" xlink:actuate="onRequest" xlink:href="/use-case/construction-project-quotations/knowledge-capture-and-improvement/traceability-and-provenance/" xlink:show="new" xlink:title="/use-case/construction-project-quotations/knowledge-capture-and-improvement/traceability-and-provenance/" xlink:type="simple"><text fill="#90EE90" font-family="'Roboto'" font-size="14" lengthAdjust="spacing" textLength="184.2217" x="772.3428" y="110.5889">Traceability &amp; Provenance</text></a><path d="M715.3428,77.5938 L715.3428,77.7806 L717.3428,77.2255 L719.3428,77.7656 L721.3428,77.949 L723.3428,76.9596 L725.3428,77.5938 L725.3428,77.5938 L725.3275,77.5628 L727.0401,78.3034 L728.8298,79.2002 L730.6731,80.2055 L732.3317,80.8368 L734.249,81.9919 L734.4572,82.1231 L735.2307,83.7779 L736.6121,85.8155 L738.0677,87.8999 L739.0918,89.7124 L740.3428,91.668 L740.3684,91.6841 L741.5495,93.5956 L742.8474,95.5807 L744.089,97.5302 L745.438,99.5475 L746.4365,101.344 L746.5686,101.6114 L748.3514,102.4943 L750.0491,103.2047 L751.8715,104.1676 L753.6997,105.1424 L755.3428,105.7422 L755.3428,105.1011 L757.3428,106.3453 L759.3428,105.4786 L761.3428,106.2167 L763.3428,105.3022 L765.3428,105.7422" fill="none" style="stroke:#FF9900;stroke-width:1;"/><a href="/use-case/construction-project-quotations/knowledge-capture-and-improvement/estimate-vs-actual-and-lessons-learned/" target="_top" title="/use-case/construction-project-quotations/knowledge-capture-and-improvement/estimate-vs-actual-and-lessons-learned/" xlink:actuate="onRequest" xlink:href="/use-case/construction-project-quotations/knowledge-capture-and-improvement/estimate-vs-actual-and-lessons-learned/" xlink:show="new" xlink:title="/use-case/construction-project-quotations/knowledge-capture-and-improvement/estimate-vs-actual-and-lessons-learned/" xlink:type="simple"><text fill="#90EE90" font-family="'Roboto'" font-size="14" lengthAdjust="spacing" textLength="267.5449" x="772.3428" y="136.8857">Estimate vs Actual &amp; Lessons Learned</text></a><path d="M715.3428,77.5938 L715.3428,77.7806 L717.3428,77.2255 L719.3428,77.7656 L721.3428,77.949 L723.3428,76.9596 L725.3428,77.5938 L725.3428,77.5938 L725.3189,77.5688 L726.9931,79.1581 L728.7875,80.8733 L730.6656,82.6761 L732.2555,84.1772 L734.249,86.1008 L734.483,86.177 L735.2014,89.7572 L736.6029,93.5598 L738.0878,97.3896 L739.0878,101.0615 L740.3428,104.8164 L740.3716,104.8258 L741.548,108.5551 L742.8557,112.3272 L744.1001,116.0787 L745.4653,119.8695 L746.4365,123.532 L746.6425,123.7477 L748.4263,125.4517 L750.0772,127.0166 L751.9226,128.7852 L753.7771,130.5633 L755.3428,132.0391 L755.3428,131.398 L757.3428,132.6422 L759.3428,131.7755 L761.3428,132.5136 L763.3428,131.599 L765.3428,132.0391" fill="none" style="stroke:#FF9900;stroke-width:1;"/><a href="/use-case/construction-project-quotations/" target="_top" title="/use-case/construction-project-quotations/" xlink:actuate="onRequest" xlink:href="/use-case/construction-project-quotations/" xlink:show="new" xlink:title="/use-case/construction-project-quotations/" xlink:type="simple"><text fill="#90EE90" font-family="'Roboto'" font-size="14" lengthAdjust="spacing" textLength="289.2354" x="14" y="82.4404">Complex Construction Project Quotations</text></a><path d="M364.6855,77.5938 L364.6855,77.7806 L362.6855,77.2255 L360.6855,77.7656 L358.6855,77.949 L356.6855,76.9596 L354.6855,77.5938 L354.6855,77.5938 L354.6855,77.5592 L348.6855,77.4042 L342.6855,77.4233 L336.6855,77.5635 L330.6855,77.2865 L324.6855,77.5938 L324.6855,78.0859 L322.6855,77.0335 L320.6855,77.418 L318.6855,77.9777 L316.6855,77.5175 L314.6855,77.5938" fill="none" style="stroke:#FF9900;stroke-width:1;"/><!--SRC=[xLZlJzj84FtklsAkIDTMd1l2GTMYgYA4G864S0bKEbKLsjYJP0zxDzrTXtAd-zzlxCInu_mW2N4FAlW2UD- -UJDUx-wyVMsOCZuNhizwblMBYsqk40wEhskba_FhShrQRq3qix6pjLjixQOXpKgvVdvOQlmvn4s1N9JAPwNZoeXe0b9l75OQwJYmqMw_RMzjZI17zVFBCK042NyiIzzmqMEA-T1Ypar7oK2uPUb95GEDOa8J0eL9WJ_TzL1LkRX9Os73uvskwIX4OLalWGl72rm4qqNee435F1XHQ6ZJn9OqtTyWcWPCkE0oTKCpZGJPHtMhk46uvQOxuE1z5A3H62uwEbk1oqydvRFpIhC9HNeDicUu5D0bqf35qCGsypIcShXWhaj4i9DwrXZahqWil4izRtQPAsz3T9ObgeH7bRWIRlG73Y4fp26sMU0P-CSwaiASCn_XHKDIxl95z6HGnEGrHG-R_6-4uexrRvgff9Iy9PwfCwRJc3kFQYGzTvofHw-RTN2eQMBgGMOrZArdwq0gIdOuabg052A98AIx3FtOGbyiWYFzdXIqCYdCYeAdgXlKBF2zxV6QkSom5jEuvd1ZCHnF1cwk0QJdeHD-7NhjOP8ePG8ewUKOuI2aPEeknn0LORZ9Cm0N1bMREPXZZ2P-2r0uU47757TuZmap8BliSkT6eDQqOIPmFOIJelICkU8cgAVeJ66IRKb8vJClEpQHJfMtaGuRd4a-0ioL6MsU4-JHqvdCqUXKKT58KiFVhP9ZfBf7GGIP6IiSdVK1luJo3eHLeqE8_jcuzoVzpIlwu9deUFZX0vrMMegF7-dzDcdneJHqWCqyFTPrBcHNNFRC7j-YKdBnEuaKpBjUl-xCvIi7yVfE6_IVNgtNhpkdMiS7yjCeTQBswLKwjKnQmuDte3fpCHxF8hh3Rjr_srifz_c93GuOb-akkelaEZLLXm8pEbVKehdIVNt-KieXq_clC7sq6sQctJJYbZ897hU79MCKRmK69uVIekA6CtEHPLhd7Eqbr0QDD-WUEhpD7KfoS4HEz26BwxWtDPPS93QEZjw_f_7COFfkPLcRr_3b2nG2ZRP3tt-1bfKsAeWkuNPFoRzenTdV0adl9xoM5sw4lFNGxOJmdWaKsjJ6sjmdQ1zzwdSAS1P3e3o0mA_HdPkBG0OQJX8iVFrgRMwkMu3sqPv05Q1PgqoH5YbOUmrSwGJX7pQzRjGHJmX99j8kgrWKe027Gp2Sn60gMAAqCeBc93QaHzRY7ZKKqM0q91ZTj0jmcHeaMHUZePp4X0NmQI-m-zgch0FcHH2FrYiHq6-c1Be5g0nnqDTGYd2ahZf0qUy85KgqxIKbqbBrUnv-3vVi21Zc7GBXZn4m9Dz7-i9ZUsr_t6tBqRvwn4PHl4yjw1AbuLC8bl27HXlaZArq-iOvnn5wAE4y0sWUnwI25IoVvG8iPF8yX7AkhRCiyI96pkgSSwoRrKbdcZMhKywpPrPdpSMGYUNCi69YPKkxC742qooOc7IM-n9hIlakewjUrdI9kJ9-onZ-NhDb531hiupOnnsMr8UqabaoUsTTPhLCllo7cY4_MjSzNUp_LgR7e6jXY-87gtbKHLghkn3hM3ARcQhdEWd5FAs3TMUIgVzFRGqyz__F_Vzp__-pzVyN7jrEhsfLwDCDA9nJVBEzjRtxfbXieM75hLTN8anVH9qXfssR4i3NrglZYofe6IWggSlrO2-XwQ-jKzPdq0X4YDk3UW_5wU5P_81wYZvNKeH5iqu_rnB0sntxW1kwoYiI0fzhLjovLuGZGxDW3wukZ-ntLfMEWu3ww3r0GVquyQex6cl-1m00]--></g></svg>