<svg xmlns="http://www.w3.org/2000/svg" xmlns:xlink="http://www.w3.org/1999/xlink" contentStyleType="text/css" data-diagram-type="MINDMAP" height="152px" preserveAspectRatio="none" style="width:1039px;height:152px;" version="1.1" viewBox="0 0 1039 152" width="1039px" zoomAndPan="magnify"><defs/><g><a href="/use-case/construction-project-quotations/knowledge-capture-and-improvement/" target="_top" title="/use-case/construction-project-quotations/knowledge-capture-and-improvement/" xlink:actuate="onRequest" xlink:href="/use-case/construction-project-quotations/knowledge-capture-and-improvement/" xlink:show="new" xlink:title="/use-case/construction-project-quotations/knowledge-capture-and-improvement/" xlink:type="simple"><text fill="#4051B5" font-family="'Roboto'" font-size="13" lengthAdjust="spacing" textLength="311.2637" x="350.708" y="79.7661">Knowledge Capture &amp; Continuous Improvement</text></a><polygon fill="#4051B5" points="724.104,20,724.104,20.2102,733.8549,19.5857,743.6057,20.1933,753.3566,20.3997,763.1075,19.2866,772.8583,19.9223,782.6092,19.5735,792.3601,19.6165,802.1109,19.9318,811.8618,19.3086,821.6127,20.5536,831.3636,19.3697,841.1144,19.8022,850.8653,20.4319,860.6162,19.9142,870.367,20.0682,880.1179,19.9681,889.8688,20.1785,899.6196,20,899.6501,20.0736,900.26,20.4147,900.8366,20.6753,901.4033,20.9121,901.9149,21.0157,902.4481,21.1716,902.5908,21.2307,902.8986,21.8268,902.6946,22.2109,903.36,22.9552,903.294,23.3965,903.6196,24,903.7976,24,903.4546,29.4266,903.5968,34.8531,903.8668,40.2797,903.6034,45.7063,903.6196,51.1328,903.6521,51.1462,903.4896,51.7417,903.2792,52.3173,902.9155,52.8294,902.7708,53.4322,902.4481,53.9612,902.375,53.785,901.9186,54.2831,901.3866,54.5987,900.8077,54.8011,900.2635,55.0873,899.6196,55.1328,899.6196,54.6497,889.8688,54.4806,880.1179,54.5114,870.367,55.0739,860.6162,54.9363,850.8653,55.8142,841.1144,54.9581,831.3636,54.7898,821.6127,55.3611,811.8618,54.466,802.1109,54.6137,792.3601,55.7818,782.6092,55.5685,772.8583,55.8673,763.1075,54.811,753.3566,55.452,743.6057,55.7232,733.8549,54.6604,724.104,55.1328,724.0918,55.1033,723.5544,54.9373,723.0558,54.8649,722.4064,54.4286,721.9003,54.338,721.2756,53.9612,721.105,53.8906,720.8327,53.3092,720.962,52.8941,720.3518,52.1727,720.4951,51.7634,720.104,51.1328,720.1729,51.1328,720.0147,45.7063,719.9861,40.2797,720.2569,34.8531,720.0042,29.4266,720.104,24,720.2863,24.0755,720.1681,23.3638,720.7628,22.9474,720.9561,22.3647,721.1167,21.7685,721.2756,21.1716,721.2816,21.1861,721.9339,21.161,722.4852,20.8919,722.9942,20.5208,723.5725,20.3169,724.104,20" style="stroke:#FF6F00;stroke-width:1.5;"/><a href="/use-case/construction-project-quotations/knowledge-capture-and-improvement/sme-knowledge-capture/" target="_top" title="/use-case/construction-project-quotations/knowledge-capture-and-improvement/sme-knowledge-capture/" xlink:actuate="onRequest" xlink:href="/use-case/construction-project-quotations/knowledge-capture-and-improvement/sme-knowledge-capture/" xlink:show="new" xlink:title="/use-case/construction-project-quotations/knowledge-capture-and-improvement/sme-knowledge-capture/" xlink:type="simple"><text fill="#4051B5" font-family="'Roboto'" font-size="13" lengthAdjust="spacing" textLength="159.3833" x="730.104" y="42.0669">SME Knowledge Capture</text></a><path d="M670.104,75.2656 L670.104,75.4525 L672.104,74.8973 L674.104,75.4374 L676.104,75.6209 L678.104,74.6315 L680.104,75.2656 L680.104,75.2656 L680.085,75.2368 L681.7807,73.9294 L683.5725,72.7673 L685.431,71.7061 L687.0595,70.2969 L689.0103,69.3751 L689.2329,69.4798 L689.9755,66.6641 L691.3682,64.1541 L692.8402,61.6814 L693.8508,58.9916 L695.104,56.416 L695.1314,56.4289 L696.3099,53.8182 L697.6133,51.2661 L698.8564,48.6858 L700.2146,46.1595 L701.1978,43.4569 L701.3623,43.7057 L703.1455,42.5306 L704.8227,41.1951 L706.6552,40.0945 L708.4949,39.0048 L710.104,37.5664 L710.104,36.9254 L712.104,38.1695 L714.104,37.3028 L716.104,38.0409 L718.104,37.1264 L720.104,37.5664" fill="none" style="stroke:#FF6F00;stroke-width:1;"/><a href="/use-case/construction-project-quotations/knowledge-capture-and-improvement/document-ingestion-and-knowledge-extraction/" target="_top" title="/use-case/construction-project-quotations/knowledge-capture-and-improvement/document-ingestion-and-knowledge-extraction/" xlink:actuate="onRequest" xlink:href="/use-case/construction-project-quotations/knowledge-capture-and-improvement/document-ingestion-and-knowledge-extraction/" xlink:show="new" xlink:title="/use-case/construction-project-quotations/knowledge-capture-and-improvement/document-ingestion-and-knowledge-extraction/" xlink:type="simple"><text fill="#4051B5" font-family="'Roboto'" font-size="13" lengthAdjust="spacing" textLength="291.8398" x="727.104" y="82.1997">Document Ingestion &amp; Knowledge Extraction</text></a><path d="M670.104,75.2656 L670.104,75.4525 L672.104,74.8973 L674.104,75.4374 L676.104,75.6209 L678.104,74.6315 L680.104,75.2656 L680.104,75.2656 L680.1012,75.2312 L683.0887,75.3201 L686.0902,75.5825 L689.1016,75.9655 L692.0792,75.9328 L695.104,76.4824 L695.1239,76.7277 L698.0814,76.4466 L701.0969,76.8815 L704.1195,77.4038 L707.1009,77.4179 L710.104,77.6992 L710.104,77.7599 L712.104,77.6708 L714.104,77.8579 L716.104,77.9118 L718.104,78.2198 L720.104,77.6992" fill="none" style="stroke:#FF6F00;stroke-width:1;"/><a href="/use-case/construction-project-quotations/knowledge-capture-and-improvement/traceability-and-provenance/" target="_top" title="/use-case/construction-project-quotations/knowledge-capture-and-improvement/traceability-and-provenance/" xlink:actuate="onRequest" xlink:href="/use-case/construction-project-quotations/knowledge-capture-and-improvement/traceability-and-provenance/" xlink:show="new" xlink:title="/use-case/construction-project-quotations/knowledge-capture-and-improvement/traceability-and-provenance/" xlink:type="simple"><text fill="#4051B5" font-family="'Roboto'" font-size="13" lengthAdjust="spacing" textLength="171.063" x="727.104" y="107.3325">Traceability &amp; Provenance</text></a><path d="M670.104,75.2656 L670.104,75.4525 L672.104,74.8973 L674.104,75.4374 L676.104,75.6209 L678.104,74.6315 L680.104,75.2656 L680.104,75.2656 L680.089,75.2345 L681.8027,75.9564 L683.5923,76.8351 L685.4346,77.8227 L687.0952,78.4348 L689.0103,79.5729 L689.2172,79.706 L689.9934,81.3166 L691.3738,83.3157 L692.828,85.3623 L693.8532,87.133 L695.104,89.0488 L695.1295,89.0652 L696.3108,90.9363 L697.6082,92.8821 L698.8496,94.7919 L700.1979,96.7704 L701.1978,98.5248 L701.3276,98.7933 L703.1104,99.658 L704.8095,100.3496 L706.6312,101.2946 L708.4586,102.2516 L710.104,102.832 L710.104,102.191 L712.104,103.4352 L714.104,102.5685 L716.104,103.3065 L718.104,102.392 L720.104,102.832" fill="none" style="stroke:#FF6F00;stroke-width:1;"/><a href="/use-case/construction-project-quotations/knowledge-capture-and-improvement/estimate-vs-actual-and-lessons-learned/" target="_top" title="/use-case/construction-project-quotations/knowledge-capture-and-improvement/estimate-vs-actual-and-lessons-learned/" xlink:actuate="onRequest" xlink:href="/use-case/construction-project-quotations/knowledge-capture-and-improvement/estimate-vs-actual-and-lessons-learned/" xlink:show="new" xlink:title="/use-case/construction-project-quotations/knowledge-capture-and-improvement/estimate-vs-actual-and-lessons-learned/" xlink:type="simple"><text fill="#4051B5" font-family="'Roboto'" font-size="13" lengthAdjust="spacing" textLength="248.4346" x="727.104" y="132.4653">Estimate vs Actual &amp; Lessons Learned</text></a><path d="M670.104,75.2656 L670.104,75.4525 L672.104,74.8973 L674.104,75.4374 L676.104,75.6209 L678.104,74.6315 L680.104,75.2656 L680.104,75.2656 L680.0806,75.2403 L681.7566,76.7733 L683.5508,78.4342 L685.4272,80.1839 L687.0204,81.6274 L689.0103,83.4999 L689.2435,83.5783 L689.9635,87.0336 L691.3644,90.718 L692.8485,94.4303 L693.8491,97.98 L695.104,101.6152 L695.1327,101.6249 L696.3093,105.2338 L697.6167,108.8867 L698.861,112.5183 L700.2257,116.1905 L701.1978,119.7306 L701.4002,119.9496 L703.1839,121.5991 L704.8371,123.1074 L706.6814,124.8224 L708.5346,126.5472 L710.104,127.9648 L710.104,127.3238 L712.104,128.568 L714.104,127.7013 L716.104,128.4393 L718.104,127.5248 L720.104,127.9648" fill="none" style="stroke:#FF6F00;stroke-width:1;"/><a href="/use-case/construction-project-quotations/" target="_top" title="/use-case/construction-project-quotations/" xlink:actuate="onRequest" xlink:href="/use-case/construction-project-quotations/" xlink:show="new" xlink:title="/use-case/construction-project-quotations/" xlink:type="simple"><text fill="#4051B5" font-family="'Roboto'" font-size="13" lengthAdjust="spacing" textLength="268.5757" x="14" y="79.7661">Complex Construction Project Quotations</text></a><path d="M343.708,75.2656 L343.708,75.4525 L341.708,74.8973 L339.708,75.4374 L337.708,75.6209 L335.708,74.6315 L333.708,75.2656 L333.708,75.2656 L333.708,75.2311 L327.708,75.0761 L321.708,75.0952 L315.708,75.2353 L309.708,74.9583 L303.708,75.2656 L303.708,75.7578 L301.708,74.7054 L299.708,75.0898 L297.708,75.6496 L295.708,75.1894 L293.708,75.2656" fill="none" style="stroke:#FF6F00;stroke-width:1;"/><!--SRC=[xLXhRzD85FtkNt6NIWi8l6cW88GG8aq3bAPDDsbPhH2g9lOacQqz4sR6ATtL_lUzuzZn8x7pgCs2HBwazHoVU-wToSpSyqPf8hNFkEkJgMNzuj8HunGEtrsTjexFhjgzRgyFuMVlOFzPS_Wi3HbqshsperR_pmYt0dBUQf-qtdKMH4kGNl-eqq_7WRtHwFbeVty1UTixkyW0GeZvB22jVh_tHnOJirZgcl4faSI78N6knr84t6qBJqZOqv9mXMEKwnJi_UsKIe_nwmWLARRk0-EE5xWKz8J2c78gYGUBznIC43qKUl8OF3QUQ23S1PV8QtnJ2n0pAcyaqnHkc9xCETYCSb1KQyR7Ab-JY_V7xPEppc00JPmOCTLCS9WWgM7H-EA8U8gcX9yJrqKYE4Wzwy_JbIWMNgIU3oR45JS6dMTPf7_9tV0F6a5Ic2Cw8e6duH_hhU3wZFWKxlK5vYxkXK_cbKicBdmuO7zJQ1vO_wQPMbAA6-HP-SPg6dthOOs4vsQPfZYxP4mZJKkl7kOcFxF2hKCXCTbe9BKaCKGIWGjt6_hCqjyiWYFygU2u737CZe9NgflNBF2z9zcQkKIJ8L6qud2P68ud0hVM0CBpg6D-7QhoC4cKDWAay6gCS6WeYRojCKI7QwRh3C2ufd9475fZZ07z4b3kq7Cyk9Z3feJhETd5X3dNd2g56sO2Ln4S5QNVA1MtHBr2PmgJR4jSI9zu-R6bTBfiHBkuinQIBm2bCiFDSuayV5h878wk51ME93LyQhKSBUGQ1I6aC9OPBVe1tuVs0PYguI64_-oj_QH_yn9_y8IFFVhg5PvMIl3Nht5-1xZugD1uW1MU7bMT2_aLbp-pirjKIYxzYY8vyQwgrvsxZjKWNjqgJVqVhzRLwwwfrl61_6EKEb7xurKwjKo6qS4xLvsx66Up2E-m- -jlUplbNfxO_81nYPfGTvDSLwRgO622vuhSD5UyhvSlfHeoBP_2hTkGk85BSdewFtzws959XdTwD-8n3LpK2eUNVGKs-87IvbvEWOmmrJXchYr8HOjQqy8U9zMh5ebCNoMIOkJkxjYuw_NNhDKdlTQI3GDDY-y1orfB6fZCRPyejPkgiW3tuJIQ5pMb3Xin1_CFhmuuHJSJqrLht8Fm_gdCX8QJznY6Na1nxZYdvYAYG0JQ32-tT1MhJVX9zaw5ZRprw0e-VO96eAZjuDxPG7rAoo1iOEof57-XMFjB871wJKlJkERYngFksC2dEf3K9jorcO_G6VMnLsp0IGo1zXm2luRz2kE121GS9rZu_DbwzAXg0SgdzXAg0OFJpWffeOBAQ-0A9p1_sBWag0fv32Hv4LU796601Xn5O3YEmLYmH6bd0Qr9hA6dPCWyRCR2mN284-nI6d2H6aHPvukXciIO0lYubTWpPMFM0V52Y8Vh5GdmcqXEtGPq8XpC5BH27Ahhpb7u7QACHDlUKY8kLN_gqQzcoIw09cy3XDyNG4F-Xk8k49kLRxBUPNLEttVigSN7ouQ6MXg-Wc0BAor-BxzLnaLBxuUnzrfgdjsLiCmhA-DOLh23ExPTW8tyiBjGbZfWsn9luddjpbdYSkrEMkXhxKvPvcJjpbgBTnNBAN2jOcLR6rPn0glSgfYqoAYADQKkap7TaZyLS-MigGn-hI-r29Xtf1RiMJCgzKFQoLSgtbctMItBatzNt-XRwrhJyFzlPVeUT6tivdnZDTzLaIerOc8TMsPJgBhKT6dMwR9KdKck_bMvA3lR82lEoyeia3HJxYnPTZuonyogokMle1ku7SK2rb8ME19tOFpfGVpq87vw43Lv4ESUNfalJximmskPUQVvsvFz9yz-QpQ7L9Fc_eDBRjBdORlAS4_31EX3wy6xyoue4KWigSlKV5F2rnzQ7yYCG3_W1lSIUbFAFnoTn0-mqPanARWfclNXusa2U7vW7pAD_OL48V3nr8ftzGvtX74mNiBbnLlxXTN5Coh0vlubK8vRCVBAMnmR_0S0]--></g></svg>