<svg xmlns="http://www.w3.org/2000/svg" xmlns:xlink="http://www.w3.org/1999/xlink" contentStyleType="text/css" data-diagram-type="MINDMAP" height="157px" preserveAspectRatio="none" style="width:592px;height:157px;" version="1.1" viewBox="0 0 592 157" width="592px" zoomAndPan="magnify"><defs/><g><a href="/use-case/client-360/" target="_top" title="/use-case/client-360/" xlink:actuate="onRequest" xlink:href="/use-case/client-360/" xlink:show="new" xlink:title="/use-case/client-360/" xlink:type="simple"><text fill="#90EE90" font-family="'Roboto'" font-size="14" lengthAdjust="spacing" textLength="71.7021" x="17" y="82.4404">Client 360</text></a><a href="/use-case/client-360/relationships-and-connections/" target="_top" title="/use-case/client-360/relationships-and-connections/" xlink:actuate="onRequest" xlink:href="/use-case/client-360/relationships-and-connections/" xlink:show="new" xlink:title="/use-case/client-360/relationships-and-connections/" xlink:type="simple"><text fill="#90EE90" font-family="'Roboto'" font-size="14" lengthAdjust="spacing" textLength="200.1904" x="154.1523" y="82.4404">Relationships &amp; Connections</text></a><a href="/use-case/client-360/relationships-and-connections/business-connections/" target="_top" title="/use-case/client-360/relationships-and-connections/business-connections/" xlink:actuate="onRequest" xlink:href="/use-case/client-360/relationships-and-connections/business-connections/" xlink:show="new" xlink:title="/use-case/client-360/relationships-and-connections/business-connections/" xlink:type="simple"><text fill="#90EE90" font-family="'Roboto'" font-size="14" lengthAdjust="spacing" textLength="152.6943" x="419.793" y="27.9951">Business Connections</text></a><path d="M362.793,77.5938 L362.793,77.7806 L364.793,77.2255 L366.793,77.7656 L368.793,77.949 L370.793,76.9596 L372.793,77.5938 L372.793,77.5938 L372.7691,77.5688 L374.4433,75.7553 L376.2377,74.0677 L378.1158,72.4676 L379.7057,70.5659 L381.6992,69.0867 L381.9332,69.1629 L382.6516,65.2568 L384.0531,61.5732 L385.538,57.9168 L386.538,54.1024 L387.793,50.3711 L387.8218,50.3805 L388.9982,46.6236 L390.3059,42.9094 L391.5503,39.1747 L392.9155,35.4792 L393.8867,31.6555 L394.0927,31.8712 L395.8765,30.1724 L397.5274,28.3345 L399.3728,26.7003 L401.2273,25.0755 L402.793,23.1484 L402.793,22.5074 L404.793,23.7516 L406.793,22.8849 L408.793,23.6229 L410.793,22.7084 L412.793,23.1484" fill="none" style="stroke:#FF9900;stroke-width:1;"/><a href="/use-case/client-360/relationships-and-connections/family-connections/" target="_top" title="/use-case/client-360/relationships-and-connections/family-connections/" xlink:actuate="onRequest" xlink:href="/use-case/client-360/relationships-and-connections/family-connections/" xlink:show="new" xlink:title="/use-case/client-360/relationships-and-connections/family-connections/" xlink:type="simple"><text fill="#90EE90" font-family="'Roboto'" font-size="14" lengthAdjust="spacing" textLength="137.293" x="419.793" y="54.292">Family Connections</text></a><path d="M362.793,77.5938 L362.793,77.7806 L364.793,77.2255 L366.793,77.7656 L368.793,77.949 L370.793,76.9596 L372.793,77.5938 L372.793,77.5938 L372.7777,77.5628 L374.4903,76.5442 L376.28,75.6816 L378.1233,74.9277 L379.7819,73.7997 L381.6992,73.1956 L381.9074,73.3267 L382.6809,71.1111 L384.0623,69.2783 L385.5179,67.4922 L386.542,65.4344 L387.793,63.5195 L387.8186,63.5357 L388.9997,61.5768 L390.2976,59.6914 L391.5392,57.7706 L392.8882,55.9174 L393.8867,53.8435 L394.0188,54.1109 L395.8016,53.2346 L397.4993,52.1857 L399.3217,51.3893 L401.1499,50.6048 L402.793,49.4453 L402.793,48.8043 L404.793,50.0484 L406.793,49.1818 L408.793,49.9198 L410.793,49.0053 L412.793,49.4453" fill="none" style="stroke:#FF9900;stroke-width:1;"/><polygon fill="#4051B5" points="416.793,72.5938,416.793,72.8039,426.7208,72.1794,436.6486,72.787,446.5764,72.9934,456.5042,71.8804,466.432,72.516,476.3598,72.1673,486.2876,72.2103,496.2154,72.5256,506.1432,71.9024,516.071,73.1474,525.9988,71.9635,535.9266,72.396,545.8544,73.0257,555.7822,72.508,565.71,72.5938,565.7187,72.6148,566.2716,72.8182,566.8641,73.1174,567.4375,73.3703,568.0474,73.7114,568.5384,73.7653,568.745,73.8509,568.9819,74.4177,569.0854,74.9292,569.3841,75.5215,569.6919,76.1176,569.71,76.5938,569.4696,76.5938,569.9361,82.2531,569.6111,87.9125,569.8879,93.5719,569.545,99.2313,569.71,104.8906,569.6889,104.8819,569.704,105.5509,569.2263,106.0158,569.0394,106.6011,568.877,107.1966,568.5384,107.7191,568.5915,107.8472,567.9722,107.9522,567.4437,108.2761,566.7683,108.2457,566.3119,108.7439,565.71,108.8906,565.71,109.4388,555.7822,109.3352,545.8544,109.5036,535.9266,108.4075,525.9988,108.2384,516.071,108.2692,506.1432,108.8317,496.2154,108.6941,486.2876,109.572,476.3598,108.7159,466.432,108.5476,456.5042,109.1189,446.5764,108.2238,436.6486,108.3715,426.7208,109.5396,416.793,108.8906,416.8485,109.0248,416.321,108.8825,415.6205,108.3229,415.1366,108.286,414.6055,108.1352,413.9645,107.7191,413.8191,107.6588,413.7007,107.1411,413.5347,106.6038,413.4623,106.1051,413.026,105.4558,412.793,104.8906,412.9472,104.8906,412.6084,99.2313,412.5672,93.5719,412.9608,87.9125,412.554,82.2531,412.793,76.5938,412.9497,76.6587,413.0909,76.0544,413.1791,75.4282,413.387,74.8516,413.8715,74.3895,413.9645,73.7653,413.9264,73.6731,414.6057,73.7133,415.0254,73.1265,415.7404,73.2525,416.2891,72.9772,416.793,72.5938" style="stroke:#FF6F00;stroke-width:1.5;"/><a href="/use-case/client-360/relationships-and-connections/social-connections/" target="_top" title="/use-case/client-360/relationships-and-connections/social-connections/" xlink:actuate="onRequest" xlink:href="/use-case/client-360/relationships-and-connections/social-connections/" xlink:show="new" xlink:title="/use-case/client-360/relationships-and-connections/social-connections/" xlink:type="simple"><text fill="#90EE90" font-family="'Roboto'" font-size="14" lengthAdjust="spacing" textLength="132.4668" x="422.793" y="95.5889">Social Connections</text></a><path d="M362.793,77.5938 L362.793,77.7806 L364.793,77.2255 L366.793,77.7656 L368.793,77.949 L370.793,76.9596 L372.793,77.5938 L372.793,77.5938 L372.7791,77.5621 L375.7169,78.735 L378.7245,80.0673 L381.7808,81.5105 L384.6696,82.5717 L387.793,84.168 L387.8917,84.3933 L390.6805,85.2262 L393.7577,86.7172 L396.87,88.2883 L399.7777,89.3924 L402.793,90.7422 L402.793,90.8028 L404.793,90.7138 L406.793,90.9009 L408.793,90.9548 L410.793,91.2628 L412.793,90.7422" fill="none" style="stroke:#FF9900;stroke-width:1;"/><a href="/use-case/client-360/relationships-and-connections/political-connections/" target="_top" title="/use-case/client-360/relationships-and-connections/political-connections/" xlink:actuate="onRequest" xlink:href="/use-case/client-360/relationships-and-connections/political-connections/" xlink:show="new" xlink:title="/use-case/client-360/relationships-and-connections/political-connections/" xlink:type="simple"><text fill="#90EE90" font-family="'Roboto'" font-size="14" lengthAdjust="spacing" textLength="145.291" x="419.793" y="136.8857">Political Connections</text></a><path d="M362.793,77.5938 L362.793,77.7806 L364.793,77.2255 L366.793,77.7656 L368.793,77.949 L370.793,76.9596 L372.793,77.5938 L372.793,77.5938 L372.7691,77.5688 L374.4433,79.1581 L376.2377,80.8733 L378.1158,82.6761 L379.7057,84.1772 L381.6992,86.1008 L381.9332,86.177 L382.6516,89.7572 L384.0531,93.5598 L385.538,97.3896 L386.538,101.0615 L387.793,104.8164 L387.8218,104.8258 L388.9982,108.5551 L390.3059,112.3272 L391.5503,116.0787 L392.9155,119.8695 L393.8867,123.532 L394.0927,123.7477 L395.8765,125.4517 L397.5274,127.0166 L399.3728,128.7852 L401.2273,130.5633 L402.793,132.0391 L402.793,131.398 L404.793,132.6422 L406.793,131.7755 L408.793,132.5136 L410.793,131.599 L412.793,132.0391" fill="none" style="stroke:#FF9900;stroke-width:1;"/><path d="M97.1523,77.5938 L97.1523,77.7806 L99.1523,77.2255 L101.1523,77.7656 L103.1523,77.949 L105.1523,76.9596 L107.1523,77.5938 L107.1523,77.5938 L107.1523,77.5592 L113.1523,77.4042 L119.1523,77.4233 L125.1523,77.5635 L131.1523,77.2865 L137.1523,77.5938 L137.1523,78.0859 L139.1523,77.0335 L141.1523,77.418 L143.1523,77.9777 L145.1523,77.5175 L147.1523,77.5938" fill="none" style="stroke:#FF9900;stroke-width:1;"/><!--SRC=[xLbjRzis4FwkNy4rmDgYSsEdIT06HH7RiTCcJcpOIO6XA09Qecp25AcHL39ls7_VIR9iIPRabrXTCjIV5FBut7F7btl9gT9OQeTooy6kOVnY4PjoWXhdTrVrBzTtpMwdsqV1R- -mUbGR7iL51grcz_gitlzz9fSXqgitB-ldhJdGaaYtVzRgn_MWFTi-jglLkKYxUtsJ40X4_9zXg0dbBfROGKDiJaPIUDng2YPa9AWbvWea2DSnuSzJbyWEvPEuBDfZT3JM8qa8DuoNY7AJUHP1UapGY70YCKDp28LiM3WKUlmR2fOXp2raOJc1bLeWSK_aWwIQe0Ugno46lISSAQ8rvIELzi3Dvo_Do-lMO81gi0t2rLHmD0PG7qN3GXipHM8szB1b0H0wZ8trG_iba4NlO-E3CRR4Wo-THWaymS0JjzmAFiXC92PpHcpiCOt-Djg2wsli4FIYBy1syI8O2PsusAPWS43_8gXsQFmJHwfBAHu09tD5DeoUCl2HO5OIoONjnYCouxIqj94w3OdpR3I416DdCx4322eM6hYmDe5F7FJrD9Z2SGM7ambgjYISoIxqcUUmWwJFBApn42koOtK97IOJdbMg0i4OCVtReNQkPg6b2G9Ii18rD7n8BASbgcXnJNMP2YZNHDhO92Ng690_FC9DqeCmHKtgOgv3i9inDIUSA0KFva9SpSI1KNn58Rabw0oUCPd5iyI5T31BposPqw4sWM13Si7d0eKqWyTp2JmOpKKEPZD91JCB7xupwgOMSWM3G2HNbp-RTu5VekOXyhq6GGZ-s5lvYzzv2HSUyn4Z7pz2j5A2V_e4-pk0mqU4XW2M6prs5HVI9ouTivDFL8mk-HD8SipkTiyxbNoLG5vDbIREy_FrxdcNvEie83yFLo_OFZzFnux9S1PuGzQfn3XfHP33LbTdUrlPNcnO660ihCR4MiVMJ5DDK8mXhiXrROLylVWebM1fyHR6Gxl6EYlJY4hAXVAeFAnhBUdGqsHvAaugAZXJYInMgcHjBz5LM7WZvHAJsjG48yCGkLI7hCzZfMbuaKZijTiVFi1yQZAUMnd6cplqxHlQznIfc73_zqr6eMYfl3kkxgDcy8tW6tt_Rhmf49M4uI1j7rDNLQ2mhS3nvBDKVX_ruzFeLpy3ZoP3vAsXXvwYlYr9VOtPw0uLsTYXR9fKqmx6CfHigKC9asAMr348ndPeY2iOXOmshQSN3QTLdH8unL4BwJJPKIgnHVE4co7HNLop4n8Npm3Oe0SoVmHodelinw6Ww_5OmA8cHn76CeCjsXgRALYhaV4OoCBMnQR0wpGhjiSiQ4zi3vhRaDWUigW5iJrgAKs7Y4vEko5Yjd6d8J8WgyqGWUPr629EiTx2F9r9DnOYh5HF8I6_ig4mLvXk9SpHars4s4NQgY6G_x9kSbgMD_-n1V-FvhMYKllFtFGKUArTXlzWDa_AIJkje2CU6rgJoxgmMgwLMHxlsfAK___NvU_F6lTdZViyQzmUWmpizgg3xY7A-_-ehxqzg1uSlQtLXaJZMlNLBPzmyS23weV2qwIfGruRhyvx7QI49o5LjAWAxmiiVsrSu7kC-XxtvKvGroNyukmo6e2y-PvAmHs_GhxuUhKGE3wiDAY6T5K24VJroeYgqnOtXLyGdw3RctRblT619y-3Ml44GU7SX1kcvHJc1ly2]--></g></svg>