<svg xmlns="http://www.w3.org/2000/svg" xmlns:xlink="http://www.w3.org/1999/xlink" contentStyleType="text/css" data-diagram-type="MINDMAP" height="152px" preserveAspectRatio="none" style="width:561px;height:152px;" version="1.1" viewBox="0 0 561 152" width="561px" zoomAndPan="magnify"><defs/><g><a href="/use-case/client-360/" target="_top" title="/use-case/client-360/" xlink:actuate="onRequest" xlink:href="/use-case/client-360/" xlink:show="new" xlink:title="/use-case/client-360/" xlink:type="simple"><text fill="#4051B5" font-family="'Roboto'" font-size="13" lengthAdjust="spacing" textLength="66.5806" x="17" y="79.7661">Client 360</text></a><a href="/use-case/client-360/relationships-and-connections/" target="_top" title="/use-case/client-360/relationships-and-connections/" xlink:actuate="onRequest" xlink:href="/use-case/client-360/relationships-and-connections/" xlink:show="new" xlink:title="/use-case/client-360/relationships-and-connections/" xlink:type="simple"><text fill="#4051B5" font-family="'Roboto'" font-size="13" lengthAdjust="spacing" textLength="185.8911" x="148.7129" y="79.7661">Relationships &amp; Connections</text></a><a href="/use-case/client-360/relationships-and-connections/business-connections/" target="_top" title="/use-case/client-360/relationships-and-connections/business-connections/" xlink:actuate="onRequest" xlink:href="/use-case/client-360/relationships-and-connections/business-connections/" xlink:show="new" xlink:title="/use-case/client-360/relationships-and-connections/business-connections/" xlink:type="simple"><text fill="#4051B5" font-family="'Roboto'" font-size="13" lengthAdjust="spacing" textLength="141.7876" x="399.7363" y="27.0669">Business Connections</text></a><path d="M342.7363,75.2656 L342.7363,75.4525 L344.7363,74.8973 L346.7363,75.4374 L348.7363,75.6209 L350.7363,74.6315 L352.7363,75.2656 L352.7363,75.2656 L352.7129,75.2403 L354.3889,73.4796 L356.1831,71.8468 L358.0595,70.3028 L359.6527,68.4526 L361.6426,67.0314 L361.8758,67.1098 L362.5958,63.319 L363.9968,59.7572 L365.4808,56.2234 L366.4814,52.5269 L367.7363,48.916 L367.7651,48.9257 L368.9416,45.2884 L370.249,41.6952 L371.4933,38.0807 L372.858,34.5067 L373.8301,30.8007 L374.0325,31.0197 L375.8163,29.3755 L377.4694,27.5901 L379.3137,26.0114 L381.167,24.4424 L382.7363,22.5664 L382.7363,21.9254 L384.7363,23.1695 L386.7363,22.3028 L388.7363,23.0409 L390.7363,22.1264 L392.7363,22.5664" fill="none" style="stroke:#FF6F00;stroke-width:1;"/><a href="/use-case/client-360/relationships-and-connections/family-connections/" target="_top" title="/use-case/client-360/relationships-and-connections/family-connections/" xlink:actuate="onRequest" xlink:href="/use-case/client-360/relationships-and-connections/family-connections/" xlink:show="new" xlink:title="/use-case/client-360/relationships-and-connections/family-connections/" xlink:type="simple"><text fill="#4051B5" font-family="'Roboto'" font-size="13" lengthAdjust="spacing" textLength="127.4863" x="399.7363" y="52.1997">Family Connections</text></a><path d="M342.7363,75.2656 L342.7363,75.4525 L344.7363,74.8973 L346.7363,75.4374 L348.7363,75.6209 L350.7363,74.6315 L352.7363,75.2656 L352.7363,75.2656 L352.7213,75.2345 L354.4351,74.2335 L356.2246,73.3893 L358.0669,72.654 L359.7275,71.5432 L361.6426,70.9584 L361.8495,71.0915 L362.6257,68.9117 L364.0061,67.1205 L365.4603,65.3766 L366.4855,63.357 L367.7363,61.4824 L367.7618,61.4988 L368.9431,59.5796 L370.2406,57.735 L371.482,55.8543 L372.8303,54.0425 L373.8301,52.0065 L373.9599,52.275 L375.7428,51.4168 L377.4418,50.3854 L379.2635,49.6076 L381.091,48.8416 L382.7363,47.6992 L382.7363,47.0582 L384.7363,48.3023 L386.7363,47.4357 L388.7363,48.1737 L390.7363,47.2592 L392.7363,47.6992" fill="none" style="stroke:#FF6F00;stroke-width:1;"/><polygon fill="#4051B5" points="396.7363,70.2656,396.7363,70.4758,406.6747,69.8513,416.6131,70.4589,426.5514,70.6653,436.4898,69.5522,446.4282,70.1879,456.3666,69.8391,466.3049,69.8821,476.2433,70.1975,486.1817,69.5743,496.12,70.8193,506.0584,69.6353,515.9968,70.0679,525.9352,70.6976,535.8735,70.2656,535.8626,70.2392,536.4479,70.521,537.0008,70.7244,537.5934,71.0235,538.1668,71.2765,538.702,71.4372,538.8823,71.5119,539.1429,72.0885,539.3798,72.6552,539.4833,73.1667,539.782,73.7591,539.8735,74.2656,540.1076,74.2656,539.6331,79.6922,540.0997,85.1188,539.7747,90.5453,540.0515,95.9719,539.8735,101.3984,539.7211,101.3353,539.6181,101.9554,539.6333,102.6244,539.1556,103.0893,538.9687,103.6746,538.702,104.2269,538.7452,104.3311,538.1894,104.5894,537.5701,104.6943,537.0415,105.0183,536.3662,104.9878,535.8735,105.3984,535.8735,105.6828,525.9352,105.9466,515.9968,105.843,506.0584,106.0115,496.12,104.9154,486.1817,104.7463,476.2433,104.777,466.3049,105.3396,456.3666,105.2019,446.4282,106.0798,436.4898,105.2238,426.5514,105.0554,416.6131,105.6267,406.6747,104.7316,396.7363,105.3984,396.6701,105.2386,396.2534,105.364,395.6605,105.064,395.133,104.9217,394.4325,104.3621,393.9079,104.2269,394.0062,104.2676,393.8554,103.7365,393.2938,103.0352,393.1754,102.5176,393.0094,101.9802,392.7363,101.3984,392.9536,101.3984,392.7349,95.9719,392.8905,90.5453,392.5517,85.1188,392.5106,79.6922,392.7363,74.2656,392.8914,74.3299,392.7499,73.6085,393.3617,73.1992,393.5029,72.5949,393.5911,71.9687,393.9079,71.4372,393.8628,71.3283,394.5321,71.3442,395.0011,70.8764,395.6805,70.9165,396.1001,70.3297,396.7363,70.2656" style="stroke:#FF6F00;stroke-width:1.5;"/><a href="/use-case/client-360/relationships-and-connections/social-connections/" target="_top" title="/use-case/client-360/relationships-and-connections/social-connections/" xlink:actuate="onRequest" xlink:href="/use-case/client-360/relationships-and-connections/social-connections/" xlink:show="new" xlink:title="/use-case/client-360/relationships-and-connections/social-connections/" xlink:type="simple"><text fill="#4051B5" font-family="'Roboto'" font-size="13" lengthAdjust="spacing" textLength="123.0049" x="402.7363" y="92.3325">Social Connections</text></a><path d="M342.7363,75.2656 L342.7363,75.4525 L344.7363,74.8973 L346.7363,75.4374 L348.7363,75.6209 L350.7363,74.6315 L352.7363,75.2656 L352.7363,75.2656 L352.723,75.2338 L355.6631,76.3474 L358.6705,77.6217 L361.7246,79.0076 L364.6176,80.0088 L367.7363,81.5488 L367.8314,81.7758 L370.6281,82.5471 L373.7024,83.981 L376.8105,85.4958 L379.7216,86.5402 L382.7363,87.832 L382.7363,87.8927 L384.7363,87.8036 L386.7363,87.9907 L388.7363,88.0446 L390.7363,88.3526 L392.7363,87.832" fill="none" style="stroke:#FF6F00;stroke-width:1;"/><a href="/use-case/client-360/relationships-and-connections/political-connections/" target="_top" title="/use-case/client-360/relationships-and-connections/political-connections/" xlink:actuate="onRequest" xlink:href="/use-case/client-360/relationships-and-connections/political-connections/" xlink:show="new" xlink:title="/use-case/client-360/relationships-and-connections/political-connections/" xlink:type="simple"><text fill="#4051B5" font-family="'Roboto'" font-size="13" lengthAdjust="spacing" textLength="134.9131" x="399.7363" y="132.4653">Political Connections</text></a><path d="M342.7363,75.2656 L342.7363,75.4525 L344.7363,74.8973 L346.7363,75.4374 L348.7363,75.6209 L350.7363,74.6315 L352.7363,75.2656 L352.7363,75.2656 L352.7129,75.2403 L354.3889,76.7733 L356.1831,78.4342 L358.0595,80.1839 L359.6527,81.6274 L361.6426,83.4999 L361.8758,83.5783 L362.5958,87.0336 L363.9968,90.718 L365.4808,94.4303 L366.4814,97.98 L367.7363,101.6152 L367.7651,101.6249 L368.9416,105.2338 L370.249,108.8867 L371.4933,112.5183 L372.858,116.1905 L373.8301,119.7306 L374.0325,119.9496 L375.8163,121.5991 L377.4694,123.1074 L379.3137,124.8224 L381.167,126.5472 L382.7363,127.9648 L382.7363,127.3238 L384.7363,128.568 L386.7363,127.7013 L388.7363,128.4393 L390.7363,127.5248 L392.7363,127.9648" fill="none" style="stroke:#FF6F00;stroke-width:1;"/><path d="M91.7129,75.2656 L91.7129,75.4525 L93.7129,74.8973 L95.7129,75.4374 L97.7129,75.6209 L99.7129,74.6315 L101.7129,75.2656 L101.7129,75.2656 L101.7129,75.2311 L107.7129,75.0761 L113.7129,75.0952 L119.7129,75.2353 L125.7129,74.9583 L131.7129,75.2656 L131.7129,75.7578 L133.7129,74.7054 L135.7129,75.0898 L137.7129,75.6496 L139.7129,75.1894 L141.7129,75.2656" fill="none" style="stroke:#FF6F00;stroke-width:1;"/><!--SRC=[xLfjRzf84FxkNx7NI9TMBGtaJLLKLG7oqYOa84XwEbLLjDXhMB7UfRlhSDpf_lkDZGssiGquffT8vPEpEtxccTdrxioZd2gDfNOejnmyDepVB69JJb3Zyk6c_kNseTbkjRl8_-qSLezg_QEeIU-ysRuzgtV_3EnIJ3hrvdNzydmEj6JIxfwTTwD-q8vj7zlLwjpaedrx5pFmJRpVtAJUxRR_YDk4A8OQKJx64ZkeZytHG0gNMqt1X4GxMcAkO8vm7J7xF1qJoIWV1LO1OsCNKMuoro983maQ44uaPcZ-da8sMFU57hv3Z0w66c5k8GlB4Rof1HAFH4uarGHDg1xECEWZuKWHhIaVg6HExZv_QLxVdlTwg0OB8yQQ2ew60EgXQ7ZHnaoH2F4EjYm0GeUHiUuiN0baqOV8U6-8BJ7nh9Cey_3lkUK_aC0aOdD6REmoZVunBWJNjzWXw5LNGEpYbJyooznYuVp17lsReDgXyMyKgIwbc01EwXlfC7hA84U2MN6aCQmk7f20qzAhZSJYntQuqH0IWWrc8biIN2myS65j0X_R-kjvC8Kp5Xos8xWfI3YLtIndhiFsupcpiCPzh4Z9xc8-J2PSQwiE16F4zBuELRgRXPSc64Z1jkYXuK5YETsYYtEkgTwc0yeraJOsoHPzzCWFbt2JTE3YeYOTOwvdO7T3QeuuKGeEp8Mv2io1KVIDN79Bq2ay8pQBOuaBwM2Md5iAfqLjqeAJDHDyRf1Bqpyyby3zqKnaVpQLb3-poE61KJUra2iO-2QPlhpPh0zu5pKFaPSrk8JWZvsLl-WtB-63ntp0oCUFS5ifmJzzWlNjmUOZGiC5bdbxb7Kl97TSyiwE7r4HkkGl8CanUoYVTw8Ssm9vDLMQE2ylr-NptbAkmmlvPQHwmVRbPJgoJVh1nJjZdIYCur7uDMnrTRLNAFRym6ONZ8NLa5Zhn9eQgWcECTmhSjrOeLxFtqfRY3H_2JTkGy86RX7JmUp-QKD79YdKz5Q0upLmGIli5_iALP3ZAktLvGHX6q8DVIRQWeYte3NDx74YlMeMoMWfiKX6edQ7nbslBhFIRtgj9UsxccJN0SjSSngOMBMFbIh6Ai_1Bhe9raMDYKbjQaByVka0IpGPUbsrXZC8wa_bBQY_UEzGdxa4revpuXKY2WbNUzFBBLt9R1VuE5vJGIDll7r0txwXFLUHYWbdvvx9A3HybOFZwXvg-iy8dj7txyRR75D96FPRdY4TgmhcLYM8qnlRGzteDFhTwrx2oHboOUY-gwWNIznV8nWjqP6D7SgcSJSN_bYAau8-b30fPd4VFN-in436Wb7e1f9-Ek5mqjKfWPqU2dAdSNskF3Nh6Uj6uH6wfcWKDKy1s40k2jzB7WTXqgBVVAWlvWf4JmNCquFoC9OP5520DdEmbkRp5CXSbMTJu7LqdUAOEKfEST1CxQOuP9vQKnnrA_fCI2T3cGcPRIpAX06aAJ8XQ9OO4tAA54mXt9864s8bv9UO_KhjPUumgRhCqUE2I-H3AgITP9-ic-oMvSL_gZRoitcjQ6h_jpGz1rvhAnO_cSspIbAfOaF8OyDeCbdd2WkrRIe9PKUIo7zPIa7XLZ_blYojpOyY9UwIvUu-TisaPIvPWgxHqMSJM0cPqNK_0V5Nd_shptvIdzrXK1RUtxJG8vGUtZzQrDxlL_UFtjTgVQ9nhVhwde-uc72_9QFmtMhga3V6wyjE2odXIgXVBQfc7nwy_iQumeyOTLtksPsWzfZmgxFhS02A-KSg1NUyNltgwyt2uFYmqg0QQcW9HD3N6oCykSwvARmk_GJTtrrKFXWjE8TTQ61F4E5mt02kdC9Sxpy0]--></g></svg>