<svg xmlns="http://www.w3.org/2000/svg" xmlns:xlink="http://www.w3.org/1999/xlink" contentStyleType="text/css" data-diagram-type="MINDMAP" height="157px" preserveAspectRatio="none" style="width:987px;height:157px;" version="1.1" viewBox="0 0 987 157" width="987px" zoomAndPan="magnify"><defs/><g><a href="/use-case/construction-project-quotations/supply-chain-and-subcontractors/" target="_top" title="/use-case/construction-project-quotations/supply-chain-and-subcontractors/" xlink:actuate="onRequest" xlink:href="/use-case/construction-project-quotations/supply-chain-and-subcontractors/" xlink:show="new" xlink:title="/use-case/construction-project-quotations/supply-chain-and-subcontractors/" xlink:type="simple"><text fill="#90EE90" font-family="'Roboto'" font-size="14" lengthAdjust="spacing" textLength="218.374" x="371.6855" y="82.4404">Supply Chain &amp; Subcontractors</text></a><a href="/use-case/construction-project-quotations/supply-chain-and-subcontractors/supplier-rfqs-and-material-pricing/" target="_top" title="/use-case/construction-project-quotations/supply-chain-and-subcontractors/supplier-rfqs-and-material-pricing/" xlink:actuate="onRequest" xlink:href="/use-case/construction-project-quotations/supply-chain-and-subcontractors/supplier-rfqs-and-material-pricing/" xlink:show="new" xlink:title="/use-case/construction-project-quotations/supply-chain-and-subcontractors/supplier-rfqs-and-material-pricing/" xlink:type="simple"><text fill="#90EE90" font-family="'Roboto'" font-size="14" lengthAdjust="spacing" textLength="226.8027" x="655.5098" y="27.9951">Supplier RFQs &amp; Material Pricing</text></a><path d="M598.5098,77.5938 L598.5098,77.7806 L600.5098,77.2255 L602.5098,77.7656 L604.5098,77.949 L606.5098,76.9596 L608.5098,77.5938 L608.5098,77.5938 L608.4859,77.5688 L610.1601,75.7553 L611.9545,74.0677 L613.8326,72.4676 L615.4225,70.5659 L617.416,69.0867 L617.65,69.1629 L618.3684,65.2568 L619.7699,61.5732 L621.2548,57.9168 L622.2548,54.1024 L623.5098,50.3711 L623.5386,50.3805 L624.715,46.6236 L626.0227,42.9094 L627.2671,39.1747 L628.6323,35.4792 L629.6035,31.6555 L629.8095,31.8712 L631.5933,30.1724 L633.2442,28.3345 L635.0896,26.7003 L636.9441,25.0755 L638.5098,23.1484 L638.5098,22.5074 L640.5098,23.7516 L642.5098,22.8849 L644.5098,23.6229 L646.5098,22.7084 L648.5098,23.1484" fill="none" style="stroke:#FF9900;stroke-width:1;"/><polygon fill="#4051B5" points="652.5098,46.2969,652.5098,46.5071,662.6538,45.8826,672.7979,46.4902,682.942,46.6966,693.086,45.5835,703.2301,46.2192,713.3742,45.8704,723.5182,45.9134,733.6623,46.2287,743.8063,45.6055,753.9504,46.8505,764.0945,45.6666,774.2385,46.0991,784.3826,46.7288,794.5267,46.2111,804.6707,46.3651,814.8148,46.2649,824.9589,46.4754,835.1029,46.536,845.247,46.8826,855.391,46.9679,865.5351,46.9761,875.6792,46.5515,885.8232,46.2969,885.8824,46.4396,886.4785,46.7474,886.8626,46.5434,887.6069,47.2088,888.0482,47.1428,888.6517,47.4684,888.8161,47.5365,888.7335,47.971,889.0992,48.5911,889.583,49.2601,889.5739,49.725,889.8232,50.2969,889.8583,50.2969,889.9361,55.9563,889.962,61.6156,889.8219,67.275,889.919,72.9344,889.8232,78.5938,889.647,78.5207,889.6765,79.1957,889.5234,79.795,889.2572,80.3475,889.0748,80.9347,888.6517,81.4222,888.59,81.2734,888.0028,81.4556,887.441,81.6994,886.9471,82.107,886.3639,82.2989,885.8232,82.5938,885.8232,83.2752,875.6792,82.4191,865.5351,82.2507,855.391,82.822,845.247,81.9269,835.1029,82.0746,824.9589,83.2427,814.8148,83.0294,804.6707,83.3282,794.5267,82.272,784.3826,82.9129,774.2385,83.1842,764.0945,82.1213,753.9504,82.4979,743.8063,82.7197,733.6623,83.2455,723.5182,82.5896,713.3742,83.0563,703.2301,82.04,693.086,81.9165,682.942,83.0974,672.7979,81.8768,662.6538,83.1027,652.5098,82.5938,652.5361,82.6574,651.9099,82.2769,651.3333,82.0162,650.8712,82.0321,650.2088,81.5643,649.6813,81.4222,649.8636,81.4977,649.2768,80.786,649.4029,80.3696,649.1275,79.7869,648.8195,79.1907,648.5098,78.5938,648.5255,78.5938,648.752,72.9344,648.7143,67.275,648.5662,61.6156,648.5992,55.9563,648.5098,50.2969,648.4696,50.2803,648.9647,49.8226,649.0261,49.1853,649.2659,48.6218,649.2597,47.9565,649.6813,47.4684,649.6296,47.3437,650.3147,47.3976,650.8675,47.1322,651.3729,46.7523,651.903,46.432,652.5098,46.2969" style="stroke:#FF6F00;stroke-width:1.5;"/><a href="/use-case/construction-project-quotations/supply-chain-and-subcontractors/subcontractor-scope-packages/" target="_top" title="/use-case/construction-project-quotations/supply-chain-and-subcontractors/subcontractor-scope-packages/" xlink:actuate="onRequest" xlink:href="/use-case/construction-project-quotations/supply-chain-and-subcontractors/subcontractor-scope-packages/" xlink:show="new" xlink:title="/use-case/construction-project-quotations/supply-chain-and-subcontractors/subcontractor-scope-packages/" xlink:type="simple"><text fill="#90EE90" font-family="'Roboto'" font-size="14" lengthAdjust="spacing" textLength="216.8633" x="658.5098" y="69.292">Subcontractor Scope Packages</text></a><path d="M598.5098,77.5938 L598.5098,77.7806 L600.5098,77.2255 L602.5098,77.7656 L604.5098,77.949 L606.5098,76.9596 L608.5098,77.5938 L608.5098,77.5938 L608.4959,77.5621 L611.4337,76.1053 L614.4413,74.808 L617.4976,73.6215 L620.3864,72.0529 L623.5098,71.0195 L623.6085,71.2449 L626.3973,69.4481 L629.4745,68.3093 L632.5868,67.2508 L635.4945,65.7252 L638.5098,64.4453 L638.5098,64.506 L640.5098,64.4169 L642.5098,64.604 L644.5098,64.6579 L646.5098,64.9659 L648.5098,64.4453" fill="none" style="stroke:#FF9900;stroke-width:1;"/><a href="/use-case/construction-project-quotations/supply-chain-and-subcontractors/subcontractor-bid-solicitation-and-comparison/" target="_top" title="/use-case/construction-project-quotations/supply-chain-and-subcontractors/subcontractor-bid-solicitation-and-comparison/" xlink:actuate="onRequest" xlink:href="/use-case/construction-project-quotations/supply-chain-and-subcontractors/subcontractor-bid-solicitation-and-comparison/" xlink:show="new" xlink:title="/use-case/construction-project-quotations/supply-chain-and-subcontractors/subcontractor-bid-solicitation-and-comparison/" xlink:type="simple"><text fill="#90EE90" font-family="'Roboto'" font-size="14" lengthAdjust="spacing" textLength="311.7393" x="655.5098" y="110.5889">Subcontractor Bid Solicitation &amp; Comparison</text></a><path d="M598.5098,77.5938 L598.5098,77.7806 L600.5098,77.2255 L602.5098,77.7656 L604.5098,77.949 L606.5098,76.9596 L608.5098,77.5938 L608.5098,77.5938 L608.4945,77.5628 L610.2071,78.3034 L611.9968,79.2002 L613.8401,80.2055 L615.4987,80.8368 L617.416,81.9919 L617.6242,82.1231 L618.3977,83.7779 L619.7791,85.8155 L621.2347,87.8999 L622.2588,89.7124 L623.5098,91.668 L623.5354,91.6841 L624.7165,93.5956 L626.0144,95.5807 L627.2559,97.5302 L628.605,99.5475 L629.6035,101.344 L629.7356,101.6114 L631.5184,102.4943 L633.2161,103.2047 L635.0385,104.1676 L636.8667,105.1424 L638.5098,105.7422 L638.5098,105.1011 L640.5098,106.3453 L642.5098,105.4786 L644.5098,106.2167 L646.5098,105.3022 L648.5098,105.7422" fill="none" style="stroke:#FF9900;stroke-width:1;"/><a href="/use-case/construction-project-quotations/supply-chain-and-subcontractors/bid-leveling/" target="_top" title="/use-case/construction-project-quotations/supply-chain-and-subcontractors/bid-leveling/" xlink:actuate="onRequest" xlink:href="/use-case/construction-project-quotations/supply-chain-and-subcontractors/bid-leveling/" xlink:show="new" xlink:title="/use-case/construction-project-quotations/supply-chain-and-subcontractors/bid-leveling/" xlink:type="simple"><text fill="#90EE90" font-family="'Roboto'" font-size="14" lengthAdjust="spacing" textLength="257.6875" x="655.5098" y="136.8857">Bid Leveling &amp; Comparative Analysis</text></a><path d="M598.5098,77.5938 L598.5098,77.7806 L600.5098,77.2255 L602.5098,77.7656 L604.5098,77.949 L606.5098,76.9596 L608.5098,77.5938 L608.5098,77.5938 L608.4859,77.5688 L610.1601,79.1581 L611.9545,80.8733 L613.8326,82.6761 L615.4225,84.1772 L617.416,86.1008 L617.65,86.177 L618.3684,89.7572 L619.7699,93.5598 L621.2548,97.3896 L622.2548,101.0615 L623.5098,104.8164 L623.5386,104.8258 L624.715,108.5551 L626.0227,112.3272 L627.2671,116.0787 L628.6323,119.8695 L629.6035,123.532 L629.8095,123.7477 L631.5933,125.4517 L633.2442,127.0166 L635.0896,128.7852 L636.9441,130.5633 L638.5098,132.0391 L638.5098,131.398 L640.5098,132.6422 L642.5098,131.7755 L644.5098,132.5136 L646.5098,131.599 L648.5098,132.0391" fill="none" style="stroke:#FF9900;stroke-width:1;"/><a href="/use-case/construction-project-quotations/" target="_top" title="/use-case/construction-project-quotations/" xlink:actuate="onRequest" xlink:href="/use-case/construction-project-quotations/" xlink:show="new" xlink:title="/use-case/construction-project-quotations/" xlink:type="simple"><text fill="#90EE90" font-family="'Roboto'" font-size="14" lengthAdjust="spacing" textLength="289.2354" x="14" y="82.4404">Complex Construction Project Quotations</text></a><path d="M364.6855,77.5938 L364.6855,77.7806 L362.6855,77.2255 L360.6855,77.7656 L358.6855,77.949 L356.6855,76.9596 L354.6855,77.5938 L354.6855,77.5938 L354.6855,77.5592 L348.6855,77.4042 L342.6855,77.4233 L336.6855,77.5635 L330.6855,77.2865 L324.6855,77.5938 L324.6855,78.0859 L322.6855,77.0335 L320.6855,77.418 L318.6855,77.9777 L316.6855,77.5175 L314.6855,77.5938" fill="none" style="stroke:#FF9900;stroke-width:1;"/><!--SRC=[xLXjRzf84FxkNx7NI9TMFJUGIwesgge0UMaJ22aabKvL5Its07kONMTtJSgTxh_VsCQm6720u5voIZu5xxFFF3CUxyxCeT9KwZxZRf_wblMB2st6WPHFRsgbpnStbNgrtY3HtzPUOR_OsZSXpUDA_UAerFXZX9i3kInLpakdnsEY6KYzSNJSCEsGhNRxRRjG64DEwXTNKu084lvPbkenxbD9-wH5dLv7Ye2x5U49cG2rf5mX0hWsm9-6FiWgupqJIxOyrkdgZWJWbhLD67Uym0MYkq0wm45IZumf56dZnfRGtTz8j8rGxXANoXxkr8A80SWxoJIGEwQxCGSR02SAj6Qyez8HkFhqkN9-STniaYA-1k5h9ZZf8cd8ed5ZcteA31ykgUiY4TapdZLY_oMA9U-CvyqkTSLTY4wpH97mC1BNt8t-WH74m1n1cmQU9dzR9uBh2ze7yg8Xq7Vn8deI1t7ocgA7JVONaEAUzO_9L99It27Ft1tpQVJGmnW9pvrcyl5rqmwCDCriBQUoOIgVhRAGwEnenKX0D36nm8Mx2lrKeYzdmH5zNt3CJ3Ipfk2vwkAO1NrlTpfcBjMqHHLisDoK3SSJWPkh0U5vu8HVXzgucOcL2WAay7AqK0ufgHpcQEAOQwRpDC2u1jcc3kHeemct0N07Bl6QOWxpATSnsLMNEJqEIk61EO6h4HmLcJionSrGpz5fO2R74XUoJxtqsemxLTO6l6nW8VaOa2apEZndoAEd2vcZrRcYefL937-tIeuMyXu54MIXhN1rqGUyJIfx98mQNaBuO-lUF_ERb_Z1KzxnuCC7lAsKu1y_uljjOlA1q7Y1BRmzDdKlf3CkVMTF7r66NFY18ZdrRZQlErLyvI1U3PM6_jEBzUPrvnJhv49-6g6Ug7rwaJRIf3MwU6FLgS9usekeXYtSN-sjvNksO_45urBL1NSPN-Uwwg1XYlUANDPNhDUpKoa7JxDVeNcrQwhdLHf9IpandhI79QqbQmKQPfTCKKd3cIfagL8vMzicjRZn9ie7XxMPWqx6L-HC7xAyZdjTevD2OklavFrxN4yjchMLPRs-8T- -aPr0WUtWzx-3QQMq3A8YtFQb-1CpphuD1BwVi2pVKO7lUqFRwMBksTZ1sYfeXQaeQLWXg1tIZ02a4WB8h_ZJN2RVlrklDsqoMcSWRTc-LH6WZyaa6VMG3MittXcfGWnfd7nHAAisGf3B614BsxGkuwUj7E63FMfjepWPgwGPhcBR7w_c52PJJeiXG7ZeVBm_sX4shLGoB6RI-ihC9Kq3ZY6iZC6vo0q5UZ00Btf_eVtgwDVODZ8DW9JmiXeg5WNDjbTK4J5vy2Di2iT0J8e8IBwCWI7v8U3td0pJ3gTdQpaEgnxnM2WvbPQS2PdmEGGhJ8F6n-62WtF-CPan_taeOTQu9ujZLi4Q0vxL32mrqda8PUOGPrNYPSOswtDc36hM9rqucbcVCciOipvhBkENHCw2mKkYREMPI-B0l85BGhferf9eCgOiuy8kFM99k5BJbIdylQELiS7qK6NCFZrFCJwajKOZYq_MLR9bzkK_TFJnitNTqxF-Ps5w3BgM7aZyP3MFAaWRdIKaEbRqPg7gpBb1CSz1mQOzISN_Vpq8UExsdxlzvsx_QNVxbnxMejUrAXbWlHFkARxPBUpkloaMMw1fiV3oclUukEDH7yZmaDQi3w-ibwUNLQ948B5eTfcAJmxS_iewemDA6W4FSGUaxWC_EpfF7c07CM1Iy7uuApZxMfi0tkxPPQQnS9SeX7ojMKcVVimT4Ou63iZrrOdzpghYuHzWSXqGuDXz8wySubhpNm00]--></g></svg>