<svg xmlns="http://www.w3.org/2000/svg" xmlns:xlink="http://www.w3.org/1999/xlink" contentStyleType="text/css" data-diagram-type="MINDMAP" height="152px" preserveAspectRatio="none" style="width:937px;height:152px;" version="1.1" viewBox="0 0 937 152" width="937px" zoomAndPan="magnify"><defs/><g><a href="/use-case/construction-project-quotations/supply-chain-and-subcontractors/" target="_top" title="/use-case/construction-project-quotations/supply-chain-and-subcontractors/" xlink:actuate="onRequest" xlink:href="/use-case/construction-project-quotations/supply-chain-and-subcontractors/" xlink:show="new" xlink:title="/use-case/construction-project-quotations/supply-chain-and-subcontractors/" xlink:type="simple"><text fill="#4051B5" font-family="'Roboto'" font-size="13" lengthAdjust="spacing" textLength="202.7759" x="350.708" y="79.7661">Supply Chain &amp; Subcontractors</text></a><a href="/use-case/construction-project-quotations/supply-chain-and-subcontractors/supplier-rfqs-and-material-pricing/" target="_top" title="/use-case/construction-project-quotations/supply-chain-and-subcontractors/supplier-rfqs-and-material-pricing/" xlink:actuate="onRequest" xlink:href="/use-case/construction-project-quotations/supply-chain-and-subcontractors/supplier-rfqs-and-material-pricing/" xlink:show="new" xlink:title="/use-case/construction-project-quotations/supply-chain-and-subcontractors/supplier-rfqs-and-material-pricing/" xlink:type="simple"><text fill="#4051B5" font-family="'Roboto'" font-size="13" lengthAdjust="spacing" textLength="210.6025" x="618.6162" y="27.0669">Supplier RFQs &amp; Material Pricing</text></a><path d="M561.6162,75.2656 L561.6162,75.4525 L563.6162,74.8973 L565.6162,75.4374 L567.6162,75.6209 L569.6162,74.6315 L571.6162,75.2656 L571.6162,75.2656 L571.5928,75.2403 L573.2688,73.4796 L575.063,71.8468 L576.9394,70.3028 L578.5326,68.4526 L580.5225,67.0314 L580.7557,67.1098 L581.4757,63.319 L582.8767,59.7572 L584.3607,56.2234 L585.3613,52.5269 L586.6162,48.916 L586.645,48.9257 L587.8215,45.2884 L589.1289,41.6952 L590.3732,38.0807 L591.7379,34.5067 L592.71,30.8007 L592.9124,31.0197 L594.6962,29.3755 L596.3493,27.5901 L598.1936,26.0114 L600.0468,24.4424 L601.6162,22.5664 L601.6162,21.9254 L603.6162,23.1695 L605.6162,22.3028 L607.6162,23.0409 L609.6162,22.1264 L611.6162,22.5664" fill="none" style="stroke:#FF6F00;stroke-width:1;"/><a href="/use-case/construction-project-quotations/supply-chain-and-subcontractors/subcontractor-scope-packages/" target="_top" title="/use-case/construction-project-quotations/supply-chain-and-subcontractors/subcontractor-scope-packages/" xlink:actuate="onRequest" xlink:href="/use-case/construction-project-quotations/supply-chain-and-subcontractors/subcontractor-scope-packages/" xlink:show="new" xlink:title="/use-case/construction-project-quotations/supply-chain-and-subcontractors/subcontractor-scope-packages/" xlink:type="simple"><text fill="#4051B5" font-family="'Roboto'" font-size="13" lengthAdjust="spacing" textLength="201.373" x="618.6162" y="52.1997">Subcontractor Scope Packages</text></a><path d="M561.6162,75.2656 L561.6162,75.4525 L563.6162,74.8973 L565.6162,75.4374 L567.6162,75.6209 L569.6162,74.6315 L571.6162,75.2656 L571.6162,75.2656 L571.6012,75.2345 L573.3149,74.2335 L575.1045,73.3893 L576.9468,72.654 L578.6074,71.5432 L580.5225,70.9584 L580.7294,71.0915 L581.5056,68.9117 L582.886,67.1205 L584.3402,65.3766 L585.3654,63.357 L586.6162,61.4824 L586.6417,61.4988 L587.823,59.5796 L589.1204,57.735 L590.3619,55.8543 L591.7102,54.0425 L592.71,52.0065 L592.8398,52.275 L594.6226,51.4168 L596.3217,50.3854 L598.1434,49.6076 L599.9708,48.8416 L601.6162,47.6992 L601.6162,47.0582 L603.6162,48.3023 L605.6162,47.4357 L607.6162,48.1737 L609.6162,47.2592 L611.6162,47.6992" fill="none" style="stroke:#FF6F00;stroke-width:1;"/><polygon fill="#4051B5" points="615.6162,70.2656,615.6162,70.4758,625.4744,69.8513,635.3326,70.4589,645.1908,70.6653,655.049,69.5522,664.9073,70.1879,674.7655,69.8391,684.6237,69.8821,694.4819,70.1975,704.3401,69.5743,714.1983,70.8193,724.0565,69.6353,733.9147,70.0679,743.7729,70.6976,753.6311,70.1798,763.4894,70.3339,773.3476,70.2337,783.2058,70.4442,793.064,70.5048,802.9222,70.8513,812.7804,70.9367,822.6386,70.9449,832.4968,70.5203,842.355,70.7292,852.2132,70.9679,862.0714,69.5444,871.9297,70.9441,881.7879,69.9691,891.6461,70.7994,901.5043,69.7706,911.3625,70.1971,921.2207,70.2656,921.3153,70.494,921.7802,70.4849,922.3655,70.7667,922.961,71.0729,923.5365,71.3311,924.0491,71.4372,924.0479,71.4367,924.3719,72.0395,924.3415,72.4956,924.8397,73.1705,925.1552,73.7699,925.2207,74.2656,925.3689,74.2656,925.425,79.6922,925.0597,85.1188,925.0033,90.5453,925.0136,95.9719,925.2207,101.3984,925.2026,101.3909,924.9259,101.9391,924.9619,102.6167,924.464,103.0732,924.1778,103.6174,924.0491,104.2269,924.0782,104.2972,923.3984,104.2558,922.8515,104.5356,922.4349,105.1297,921.842,105.2983,921.2207,105.3984,921.2207,106.1329,911.3625,105.0766,901.5043,105.7176,891.6461,105.9889,881.7879,104.926,871.9297,105.3026,862.0714,105.5244,852.2132,106.0502,842.355,105.3942,832.4968,105.861,822.6386,104.8447,812.7804,104.7212,802.9222,105.9021,793.064,104.6815,783.2058,105.9074,773.3476,105.6051,763.4894,105.1305,753.6311,105.0447,743.7729,105.8572,733.9147,105.0991,724.0565,105.9903,714.1983,104.8457,704.3401,106.0159,694.4819,105.8827,684.6237,105.6434,674.7655,105.4457,664.9073,106.125,655.049,106.012,645.1908,105.5677,635.3326,105.6666,625.4744,105.2682,615.6162,105.3984,615.7076,105.6191,615.0703,105.2118,614.5069,104.983,613.8416,104.5081,613.3018,104.3364,612.7878,104.2269,612.9512,104.2946,612.6858,103.716,612.3059,103.09,611.9856,102.4887,611.7831,101.9362,611.6162,101.3984,611.3875,101.3984,611.7545,95.9719,611.8627,90.5453,611.7917,85.1188,611.8479,79.6922,611.6162,74.2656,611.5741,74.2482,611.8774,73.7111,611.9655,73.0848,612.4066,72.6048,612.6295,72.0344,612.7878,71.4372,612.8582,71.6073,613.3242,71.1322,613.902,70.9272,614.5414,70.8708,615.1229,70.6747,615.6162,70.2656" style="stroke:#FF6F00;stroke-width:1.5;"/><a href="/use-case/construction-project-quotations/supply-chain-and-subcontractors/subcontractor-bid-solicitation-and-comparison/" target="_top" title="/use-case/construction-project-quotations/supply-chain-and-subcontractors/subcontractor-bid-solicitation-and-comparison/" xlink:actuate="onRequest" xlink:href="/use-case/construction-project-quotations/supply-chain-and-subcontractors/subcontractor-bid-solicitation-and-comparison/" xlink:show="new" xlink:title="/use-case/construction-project-quotations/supply-chain-and-subcontractors/subcontractor-bid-solicitation-and-comparison/" xlink:type="simple"><text fill="#4051B5" font-family="'Roboto'" font-size="13" lengthAdjust="spacing" textLength="289.4722" x="621.6162" y="92.3325">Subcontractor Bid Solicitation &amp; Comparison</text></a><path d="M561.6162,75.2656 L561.6162,75.4525 L563.6162,74.8973 L565.6162,75.4374 L567.6162,75.6209 L569.6162,74.6315 L571.6162,75.2656 L571.6162,75.2656 L571.6029,75.2338 L574.543,76.3474 L577.5504,77.6217 L580.6045,79.0076 L583.4975,80.0088 L586.6162,81.5488 L586.7113,81.7758 L589.508,82.5471 L592.5823,83.981 L595.6904,85.4958 L598.6015,86.5402 L601.6162,87.832 L601.6162,87.8927 L603.6162,87.8036 L605.6162,87.9907 L607.6162,88.0446 L609.6162,88.3526 L611.6162,87.832" fill="none" style="stroke:#FF6F00;stroke-width:1;"/><a href="/use-case/construction-project-quotations/supply-chain-and-subcontractors/bid-leveling/" target="_top" title="/use-case/construction-project-quotations/supply-chain-and-subcontractors/bid-leveling/" xlink:actuate="onRequest" xlink:href="/use-case/construction-project-quotations/supply-chain-and-subcontractors/bid-leveling/" xlink:show="new" xlink:title="/use-case/construction-project-quotations/supply-chain-and-subcontractors/bid-leveling/" xlink:type="simple"><text fill="#4051B5" font-family="'Roboto'" font-size="13" lengthAdjust="spacing" textLength="239.2813" x="618.6162" y="132.4653">Bid Leveling &amp; Comparative Analysis</text></a><path d="M561.6162,75.2656 L561.6162,75.4525 L563.6162,74.8973 L565.6162,75.4374 L567.6162,75.6209 L569.6162,74.6315 L571.6162,75.2656 L571.6162,75.2656 L571.5928,75.2403 L573.2688,76.7733 L575.063,78.4342 L576.9394,80.1839 L578.5326,81.6274 L580.5225,83.4999 L580.7557,83.5783 L581.4757,87.0336 L582.8767,90.718 L584.3607,94.4303 L585.3613,97.98 L586.6162,101.6152 L586.645,101.6249 L587.8215,105.2338 L589.1289,108.8867 L590.3732,112.5183 L591.7379,116.1905 L592.71,119.7306 L592.9124,119.9496 L594.6962,121.5991 L596.3493,123.1074 L598.1936,124.8224 L600.0468,126.5472 L601.6162,127.9648 L601.6162,127.3238 L603.6162,128.568 L605.6162,127.7013 L607.6162,128.4393 L609.6162,127.5248 L611.6162,127.9648" fill="none" style="stroke:#FF6F00;stroke-width:1;"/><a href="/use-case/construction-project-quotations/" target="_top" title="/use-case/construction-project-quotations/" xlink:actuate="onRequest" xlink:href="/use-case/construction-project-quotations/" xlink:show="new" xlink:title="/use-case/construction-project-quotations/" xlink:type="simple"><text fill="#4051B5" font-family="'Roboto'" font-size="13" lengthAdjust="spacing" textLength="268.5757" x="14" y="79.7661">Complex Construction Project Quotations</text></a><path d="M343.708,75.2656 L343.708,75.4525 L341.708,74.8973 L339.708,75.4374 L337.708,75.6209 L335.708,74.6315 L333.708,75.2656 L333.708,75.2656 L333.708,75.2311 L327.708,75.0761 L321.708,75.0952 L315.708,75.2353 L309.708,74.9583 L303.708,75.2656 L303.708,75.7578 L301.708,74.7054 L299.708,75.0898 L297.708,75.6496 L295.708,75.1894 L293.708,75.2656" fill="none" style="stroke:#FF6F00;stroke-width:1;"/><!--SRC=[xLXjRzis4FwkNy4rmDAYLHEtQL44HL77IVhcnAwTT1YA8g0bskOYaof9EVM6_VSTQSccP4j-YTIbGFp94e_FFNUaoBldhLHOg15b_WY7ZlERJ_gK4NJqxkgi_k7ygj5gjZh8_7OEzb_KUYzia-v9etL-NE_y6TijCMdN6v_gxqvcG0ichSxnISVsWtRw_PVz_VsPoMdh_29bO4pqRsPIxtHQVwHj4XH7NbCMOe57g8Uzwu7W4VCRFE02xIY1cOGnmfHbzduI4X5GTXrRnOoTNKIP5qG-GMf8q80m8d20PlCaweDrZwlX4nJGmL0Xp7paOt4DCnL7V4p4ZQ2Ae1kgXbCCEYOCIQ8KPGEPpSd5-m-DJ-SdtIwgmSBmK57Eq110DOg2YNqSI68HRsFV1o1qOBthJCCLG1QzijvtXzZdDzewYp8B_vBvvW-9JIoROzB7KQ3GFyufP-eSZmXwqE4GEtzWtampDryuyx9B_oQeTk3yQoFLXU0tWBDqnd8ODGaWHppmqqWXh2uUa9ZJmjIZpEAdThXpn0K46uzOMn9Sp3qmxcy2dzhwwtdm-2Za3BOZkDcIy59sqvn5e-1PEcS-LhY79IdPNSg75_38hzG13mBYwQz3bkvcxgK11e875Neuqf1OJ2fqSS8KLLKwe4mHqSSUgT17btoF2FD86oukwj4GCpK5knXIxveHAU70d9lBs1mOsJCAoIr0B-5fsSoF9SR520VPiOLmchHFcd2oveBF30ffciDp0ToypKKseqj9cP5v3fyxTKzniOA1CSdrfKVpFk1Tr3X0Ecjm2S73pigV_SqB-E0n6mJazMkuhIHdRzx0-dPXyn6ku0BBlJtAkXUoEovxPwUFA8ik-G4a6GwkokUTASSg82ydKf7HhvVhydbNbElaGlurKZrd- -jbsjeclVZYdRBE5CRfA4mDkx-wsjigzkB0fXUCZ-MG-El4kZHK3nnZk5V4kh52lLwybIg8j7W9Dsv3aWPk7jFpwVtJWevCKAZf_HX7Dt1nAsoAVObSD8gaqdKvGRWFeIO-Css1vIrkJNDx7AjNpIDfbnBpP6HgTsZSrUeoQ_bDhvIWlKYH_3fWaMj10vEgzh6Ksx4gSh2Bpk9raI7nQ9zw4Byf7M29ReQwgrPm1a7zAVM2ciLxWdf1H63j62Ew4968HqeFBxPq9RETu-DqJGMDlFFu2dtzYlOYILmFpiuzu2ULY4m3uuQ2_mLatUyHX-NLBSsUZC8mcBZU4BvR5xf_LqOz_HaBR8BQGrrZW1hQ0FqEZ_Om-lRDULosIpDEYN15_xiq1YFOYuBY0D2WxcM3c1NOeCxfPmcqpc8Br9vQL4JCUdIbnqFYnhg0IPGrYhfw5BNZqIcTAjdqA1Zm08AVpZSpTCEF1OL2C4llYFgeQvb32XipuqgIfma6P4m2itxQVpD-cla6f351TRZe9vAQdBdkXYmCKa1-w8PwPWYRmXYYppD33VwMm3UVI9DlqqfbURhU7LRGaijaJVdCDby2i85mbipB7en9qkpJBr5Q2wMosm8MAMD568iCjj32DdEmblfr6yX2lMjJu7KKhkqn2pIjxK5pLQpj8Ojqg-rHAr6g4Zev6bN2R6DvAWbWcJQLWER9KWadgtHCu1RKg0Gh8qIbx5UgK3E7MVrfXfwMdgmFQIiLAVzatMItB2x-RLMYdyrhHNl_lwNfBl1QMxlvoMpkL99AbLqI7Xj6aykwK6AfLQcfb1r99lzbQIPRYnvBxilI10yRANENBEeSgMjcMUQo9UWQsaO-WPMGEVh3BH3l5OTxnU5USIX5SMW7K21VdZNH68emFQVszDd-inTFQxKUKRYs__2INJD-mqnpIk44KtH47ZaFtxMRIF98G2NlKpazWc3w8-SZ7cFKYPYsEqIjaB2Fnv-I5z3MZAdWRAHLYuzVpkO6Bm_S8wgWcn1017qvSv8p_8HvNEiLX-ZoujHzvJJXHefWRnqYmk3W1LmnWR7kVm00]--></g></svg>