<svg xmlns="http://www.w3.org/2000/svg" xmlns:xlink="http://www.w3.org/1999/xlink" contentStyleType="text/css" data-diagram-type="MINDMAP" height="157px" preserveAspectRatio="none" style="width:996px;height:157px;" version="1.1" viewBox="0 0 996 157" width="996px" zoomAndPan="magnify"><defs/><g><a href="/use-case/construction-project-quotations/supply-chain-and-subcontractors/" target="_top" title="/use-case/construction-project-quotations/supply-chain-and-subcontractors/" xlink:actuate="onRequest" xlink:href="/use-case/construction-project-quotations/supply-chain-and-subcontractors/" xlink:show="new" xlink:title="/use-case/construction-project-quotations/supply-chain-and-subcontractors/" xlink:type="simple"><text fill="#90EE90" font-family="'Roboto'" font-size="14" lengthAdjust="spacing" textLength="218.374" x="371.6855" y="82.4404">Supply Chain &amp; Subcontractors</text></a><a href="/use-case/construction-project-quotations/supply-chain-and-subcontractors/supplier-rfqs-and-material-pricing/" target="_top" title="/use-case/construction-project-quotations/supply-chain-and-subcontractors/supplier-rfqs-and-material-pricing/" xlink:actuate="onRequest" xlink:href="/use-case/construction-project-quotations/supply-chain-and-subcontractors/supplier-rfqs-and-material-pricing/" xlink:show="new" xlink:title="/use-case/construction-project-quotations/supply-chain-and-subcontractors/supplier-rfqs-and-material-pricing/" xlink:type="simple"><text fill="#90EE90" font-family="'Roboto'" font-size="14" lengthAdjust="spacing" textLength="226.8027" x="655.5098" y="27.9951">Supplier RFQs &amp; Material Pricing</text></a><path d="M598.5098,77.5938 L598.5098,77.7806 L600.5098,77.2255 L602.5098,77.7656 L604.5098,77.949 L606.5098,76.9596 L608.5098,77.5938 L608.5098,77.5938 L608.4859,77.5688 L610.1601,75.7553 L611.9545,74.0677 L613.8326,72.4676 L615.4225,70.5659 L617.416,69.0867 L617.65,69.1629 L618.3684,65.2568 L619.7699,61.5732 L621.2548,57.9168 L622.2548,54.1024 L623.5098,50.3711 L623.5386,50.3805 L624.715,46.6236 L626.0227,42.9094 L627.2671,39.1747 L628.6323,35.4792 L629.6035,31.6555 L629.8095,31.8712 L631.5933,30.1724 L633.2442,28.3345 L635.0896,26.7003 L636.9441,25.0755 L638.5098,23.1484 L638.5098,22.5074 L640.5098,23.7516 L642.5098,22.8849 L644.5098,23.6229 L646.5098,22.7084 L648.5098,23.1484" fill="none" style="stroke:#FF9900;stroke-width:1;"/><a href="/use-case/construction-project-quotations/supply-chain-and-subcontractors/subcontractor-scope-packages/" target="_top" title="/use-case/construction-project-quotations/supply-chain-and-subcontractors/subcontractor-scope-packages/" xlink:actuate="onRequest" xlink:href="/use-case/construction-project-quotations/supply-chain-and-subcontractors/subcontractor-scope-packages/" xlink:show="new" xlink:title="/use-case/construction-project-quotations/supply-chain-and-subcontractors/subcontractor-scope-packages/" xlink:type="simple"><text fill="#90EE90" font-family="'Roboto'" font-size="14" lengthAdjust="spacing" textLength="216.8633" x="655.5098" y="54.292">Subcontractor Scope Packages</text></a><path d="M598.5098,77.5938 L598.5098,77.7806 L600.5098,77.2255 L602.5098,77.7656 L604.5098,77.949 L606.5098,76.9596 L608.5098,77.5938 L608.5098,77.5938 L608.4945,77.5628 L610.2071,76.5442 L611.9968,75.6816 L613.8401,74.9277 L615.4987,73.7997 L617.416,73.1956 L617.6242,73.3267 L618.3977,71.1111 L619.7791,69.2783 L621.2347,67.4922 L622.2588,65.4344 L623.5098,63.5195 L623.5354,63.5357 L624.7165,61.5768 L626.0144,59.6914 L627.2559,57.7706 L628.605,55.9174 L629.6035,53.8435 L629.7356,54.1109 L631.5184,53.2346 L633.2161,52.1857 L635.0385,51.3893 L636.8667,50.6048 L638.5098,49.4453 L638.5098,48.8043 L640.5098,50.0484 L642.5098,49.1818 L644.5098,49.9198 L646.5098,49.0053 L648.5098,49.4453" fill="none" style="stroke:#FF9900;stroke-width:1;"/><polygon fill="#4051B5" points="652.5098,72.5938,652.5098,72.8039,662.4549,72.1794,672.4,72.787,682.3452,72.9934,692.2903,71.8804,702.2354,72.516,712.1806,72.1673,722.1257,72.2103,732.0708,72.5256,742.016,71.9024,751.9611,73.1474,761.9063,71.9635,771.8514,72.396,781.7965,73.0257,791.7417,72.508,801.6868,72.662,811.6319,72.5618,821.5771,72.7723,831.5222,72.8329,841.4673,73.1794,851.4125,73.2648,861.3576,73.273,871.3027,72.8484,881.2479,73.0573,891.193,73.296,901.1381,71.8726,911.0833,73.2723,921.0284,72.2972,930.9735,73.1276,940.9187,72.0987,950.8638,72.5253,960.8089,73.3354,970.7541,72.545,980.6992,72.5938,980.7127,72.6262,981.3081,72.9323,981.8837,73.1906,982.3958,73.2955,982.9986,73.6195,983.5276,73.7653,983.3514,73.6923,983.8495,74.3673,984.1651,74.9666,984.3675,75.5191,984.6537,76.1063,984.6992,76.5938,984.5382,76.5938,984.4818,82.2531,984.4921,87.9125,984.6796,93.5719,984.6337,99.2313,984.6992,104.8906,984.9091,104.9775,984.4111,105.434,984.1249,105.9782,984.0666,106.6168,983.5566,107.0683,983.5276,107.7191,983.4614,107.5592,983.0447,108.1532,982.4518,108.3218,981.9243,108.6482,981.2239,108.5572,980.6992,108.8906,980.6992,109.2098,970.7541,109.481,960.8089,108.4182,950.8638,108.7948,940.9187,109.0166,930.9735,109.5424,921.0284,108.8864,911.0833,109.3532,901.1381,108.3368,891.193,108.2134,881.2479,109.3942,871.3027,108.1737,861.3576,109.3996,851.4125,109.0973,841.4673,108.6227,831.5222,108.5369,821.5771,109.3494,811.6319,108.5913,801.6868,109.4825,791.7417,108.3379,781.7965,109.5081,771.8514,109.3749,761.9063,109.1356,751.9611,108.9378,742.016,109.6172,732.0708,109.5042,722.1257,109.0599,712.1806,109.1588,702.2354,108.7604,692.2903,109.6071,682.3452,109.0455,672.4,109.0632,662.4549,108.2823,652.5098,108.8906,652.4581,108.7658,652.0118,108.8198,651.4332,108.5543,650.8072,108.1745,650.2059,107.8542,649.6813,107.7191,649.6139,107.6911,649.2357,107.0658,649.3404,106.6406,649.2062,106.1163,648.9062,105.5235,648.5098,104.8906,648.7414,104.8906,648.4642,99.2313,648.5388,93.5719,648.3806,87.9125,648.6044,82.2531,648.5098,76.5938,648.5858,76.6252,648.9142,76.0985,648.9077,75.4331,649.1713,74.8795,649.5836,74.3876,649.6813,73.7653,649.7537,73.94,650.1816,73.3732,650.788,73.237,651.3974,73.1083,651.8662,72.6399,652.5098,72.5938" style="stroke:#FF6F00;stroke-width:1.5;"/><a href="/use-case/construction-project-quotations/supply-chain-and-subcontractors/subcontractor-bid-solicitation-and-comparison/" target="_top" title="/use-case/construction-project-quotations/supply-chain-and-subcontractors/subcontractor-bid-solicitation-and-comparison/" xlink:actuate="onRequest" xlink:href="/use-case/construction-project-quotations/supply-chain-and-subcontractors/subcontractor-bid-solicitation-and-comparison/" xlink:show="new" xlink:title="/use-case/construction-project-quotations/supply-chain-and-subcontractors/subcontractor-bid-solicitation-and-comparison/" xlink:type="simple"><text fill="#90EE90" font-family="'Roboto'" font-size="14" lengthAdjust="spacing" textLength="311.7393" x="658.5098" y="95.5889">Subcontractor Bid Solicitation &amp; Comparison</text></a><path d="M598.5098,77.5938 L598.5098,77.7806 L600.5098,77.2255 L602.5098,77.7656 L604.5098,77.949 L606.5098,76.9596 L608.5098,77.5938 L608.5098,77.5938 L608.4959,77.5621 L611.4337,78.735 L614.4413,80.0673 L617.4976,81.5105 L620.3864,82.5717 L623.5098,84.168 L623.6085,84.3933 L626.3973,85.2262 L629.4745,86.7172 L632.5868,88.2883 L635.4945,89.3924 L638.5098,90.7422 L638.5098,90.8028 L640.5098,90.7138 L642.5098,90.9009 L644.5098,90.9548 L646.5098,91.2628 L648.5098,90.7422" fill="none" style="stroke:#FF9900;stroke-width:1;"/><a href="/use-case/construction-project-quotations/supply-chain-and-subcontractors/bid-leveling/" target="_top" title="/use-case/construction-project-quotations/supply-chain-and-subcontractors/bid-leveling/" xlink:actuate="onRequest" xlink:href="/use-case/construction-project-quotations/supply-chain-and-subcontractors/bid-leveling/" xlink:show="new" xlink:title="/use-case/construction-project-quotations/supply-chain-and-subcontractors/bid-leveling/" xlink:type="simple"><text fill="#90EE90" font-family="'Roboto'" font-size="14" lengthAdjust="spacing" textLength="257.6875" x="655.5098" y="136.8857">Bid Leveling &amp; Comparative Analysis</text></a><path d="M598.5098,77.5938 L598.5098,77.7806 L600.5098,77.2255 L602.5098,77.7656 L604.5098,77.949 L606.5098,76.9596 L608.5098,77.5938 L608.5098,77.5938 L608.4859,77.5688 L610.1601,79.1581 L611.9545,80.8733 L613.8326,82.6761 L615.4225,84.1772 L617.416,86.1008 L617.65,86.177 L618.3684,89.7572 L619.7699,93.5598 L621.2548,97.3896 L622.2548,101.0615 L623.5098,104.8164 L623.5386,104.8258 L624.715,108.5551 L626.0227,112.3272 L627.2671,116.0787 L628.6323,119.8695 L629.6035,123.532 L629.8095,123.7477 L631.5933,125.4517 L633.2442,127.0166 L635.0896,128.7852 L636.9441,130.5633 L638.5098,132.0391 L638.5098,131.398 L640.5098,132.6422 L642.5098,131.7755 L644.5098,132.5136 L646.5098,131.599 L648.5098,132.0391" fill="none" style="stroke:#FF9900;stroke-width:1;"/><a href="/use-case/construction-project-quotations/" target="_top" title="/use-case/construction-project-quotations/" xlink:actuate="onRequest" xlink:href="/use-case/construction-project-quotations/" xlink:show="new" xlink:title="/use-case/construction-project-quotations/" xlink:type="simple"><text fill="#90EE90" font-family="'Roboto'" font-size="14" lengthAdjust="spacing" textLength="289.2354" x="14" y="82.4404">Complex Construction Project Quotations</text></a><path d="M364.6855,77.5938 L364.6855,77.7806 L362.6855,77.2255 L360.6855,77.7656 L358.6855,77.949 L356.6855,76.9596 L354.6855,77.5938 L354.6855,77.5938 L354.6855,77.5592 L348.6855,77.4042 L342.6855,77.4233 L336.6855,77.5635 L330.6855,77.2865 L324.6855,77.5938 L324.6855,78.0859 L322.6855,77.0335 L320.6855,77.418 L318.6855,77.9777 L316.6855,77.5175 L314.6855,77.5938" fill="none" style="stroke:#FF9900;stroke-width:1;"/><!--SRC=[xLXjRzf84FxkNx7NI9TMFJUGIwesgge0UMaJ22aabKvL5Its07kONMTtJSgTxh_VsCQm6720u5voIZu5xxFFF3CUxyxCeT9KwZxZRf_wblMB2st6WPHFRsgbpnStbNgrtY3HtzPUOR_OsZSXpUDA_UAerFXZX9i3kInLpakdnsEY6KYzSNJSCEsGhNRxRRjG64DEwXTNKu084lvPbkenxbD9-wH5dLv7Ye2x5U49cG2rf5mX0hWsm9-6FiWgupqJIxOyrkdgZWJWbhLD67Uym0MYkq0wm45IZumf56dZnfRGtTz8j8rGxXANoXxkr8A80SWxoJIGEwQxCGSR02SAj6Qyez8HkFhqkN9-STniaYA-1k5h9ZZf8cd8ed5ZcteA31ykgUiY4TapdZLY_oMA9U-CvyqkTSLTY4wpH97mC1BNt8t-WH74m1n1cmQU9dzR9uBh2ze7yg8Xq7Vn8deI1t7ocgA7JVONaEAUzO_9L99It27Ft1tpQVJGmnW9pvrcyl5rqmwCDCriBQUoOIgVhRAGwEnenKX0D36nm8Mx2lrKeYzdmH5zNt3CJ3Ipfk2vwkAO1NrlTpfcBjMqHHLisDoK3SSJWPkh0U5vu8HVXzgucOcL2WAay7AqK0ufgHpcQEAOQwRpDC2u1jcc3kHeemct0N07Bl6QOWxpATSnsLMNEJqEIk61EO6h4HmLcJionSrGpz5fO2R74XUoJxtqsemxLTO6l6nW8VaOa2apEZndoAEd2vcZrRcYefL937-tIeuMyXu54MIXhN1rqGUyJIfx98mQNaBuO-lUF_ERb_Z1KzxnuCC7lAsKu1y_uljjOlA1q7Y1BRmzDdKlf3CkVMTF7r66NFY18ZdrRZQlErLyvI1U3PM6_jEBzUPrvnJhv49-6g6Ug7rwaJRIf3MwU6FLgS9usekeXYtSN-sjvNksO_45urBL1NSPN-Uwwg1XYlUANDPNhDUpKoa7JxDVeNcrQwhdLHf9IpandhI79QqbQmKQPfTCKKd3cIfagL8vMzicjRZn9ie7XxMPWqx6L-HC7xAyZdjTevD2OklavFrxN4yjchMLPRs-8T- -aPr0WUtWzx-3QQMq3A8YtFQb-1CpphuD1BwVi2pVKO7lUqFRwMBksTZ1sYfeXQaeQLWXg1tIZ02a4WB8h_ZJN2RVlrklDsqoMcSWRTc-LH6WZyaa6VMG3MittXcfGWnfd7nHAAisGf3B696JCEEdhHpXWptgRQD06Qka6QvYtn-lndBoLDDY210UEX_lZtQ4JIkL38kPjBmoSqdJW6C8AsDmBi4B1Nem02zwVw7zwkZNs3Oo3O2KyB8QAXR5pBPNL14nUV0ZR0h7G4oA24Y-Z84X-I7WzvmCqmwdPsiv3giUyLWeEPMMd0cPy3a4Aqo3niVXWeDp_Z6PCVzvA67Mk2UBOrR16WEUrGmiDT9v26Nc46TLucN6DkjpPWngrYTTE9fPdp9h6BC-QoxZbqJEWi5BecpbcKlYmBo1IqAwQDQIQ3AcBEF2BZrYIRXIqvKf_BsZbR71z51bp3uzJp4-fBL68ujFrbMoPVRbFtJqyRDrtTEp_cTXUWowbXv8_6GrZof86vqb93fMz6QXwiovGJ7FGS6cFKd5_tyz27Zkzf-x_UTk_sbt-vSUrgBNjIePOBqJxYc-sItixhyf5bkWQR7myfhtkBZZKH_8y93Mh0-lh9UdbrMYH22nQ7QPYayEtFxAEgC3IXe13t47fEu3FpiwJnvW1p5WKl1-E2iu-rgR0DxksMMciN2NA8HyhLb9dtxC7H6E1Wx8zTM9_Swguk4VO6uT4E3OVIEl7E9Qyry0]--></g></svg>