<svg xmlns="http://www.w3.org/2000/svg" xmlns:xlink="http://www.w3.org/1999/xlink" contentStyleType="text/css" data-diagram-type="MINDMAP" height="152px" preserveAspectRatio="none" style="width:928px;height:152px;" version="1.1" viewBox="0 0 928 152" width="928px" zoomAndPan="magnify"><defs/><g><a href="/use-case/construction-project-quotations/supply-chain-and-subcontractors/" target="_top" title="/use-case/construction-project-quotations/supply-chain-and-subcontractors/" xlink:actuate="onRequest" xlink:href="/use-case/construction-project-quotations/supply-chain-and-subcontractors/" xlink:show="new" xlink:title="/use-case/construction-project-quotations/supply-chain-and-subcontractors/" xlink:type="simple"><text fill="#4051B5" font-family="'Roboto'" font-size="13" lengthAdjust="spacing" textLength="202.7759" x="350.708" y="79.7661">Supply Chain &amp; Subcontractors</text></a><polygon fill="#4051B5" points="615.6162,20,615.6162,20.2102,625.4742,19.5857,635.3323,20.1933,645.1903,20.3997,655.0484,19.2866,664.9064,19.9223,674.7644,19.5735,684.6225,19.6165,694.4805,19.9318,704.3385,19.3086,714.1966,20.5536,724.0546,19.3697,733.9127,19.8022,743.7707,20.4319,753.6287,19.9142,763.4868,20.0682,773.3448,19.9681,783.2028,20.1785,793.0609,20.2391,802.9189,20.5857,812.777,20.6711,822.635,20.6793,832.493,20.2546,842.3511,20,842.4102,20.1428,843.0063,20.4506,843.3904,20.2465,844.1347,20.9119,844.576,20.8459,845.1795,21.1716,845.3439,21.2397,845.2614,21.6741,845.627,22.2942,846.1108,22.9632,846.1018,23.4281,846.3511,24,846.3862,24,846.464,29.4266,846.4898,34.8531,846.3498,40.2797,846.4468,45.7063,846.3511,51.1328,846.1748,51.0598,846.2043,51.7348,846.0513,52.3341,845.785,52.8866,845.6026,53.4738,845.1795,53.9612,845.1179,53.8125,844.5306,53.9947,843.9689,54.2385,843.4749,54.6461,842.8917,54.838,842.3511,55.1328,842.3511,55.8142,832.493,54.9581,822.635,54.7898,812.777,55.3611,802.9189,54.466,793.0609,54.6137,783.2028,55.7818,773.3448,55.5685,763.4868,55.8673,753.6287,54.811,743.7707,55.452,733.9127,55.7232,724.0546,54.6604,714.1966,55.037,704.3385,55.2588,694.4805,55.7846,684.6225,55.1286,674.7644,55.5954,664.9064,54.579,655.0484,54.4556,645.1903,55.6364,635.3323,54.4159,625.4742,55.6418,615.6162,55.1328,615.6426,55.1964,615.0163,54.816,614.4397,54.5552,613.9777,54.5711,613.3153,54.1034,612.7878,53.9612,612.9701,54.0367,612.3832,53.325,612.5093,52.9086,612.234,52.326,611.926,51.7297,611.6162,51.1328,611.632,51.1328,611.8584,45.7063,611.8207,40.2797,611.6726,34.8531,611.7056,29.4266,611.6162,24,611.5761,23.9834,612.0712,23.5257,612.1325,22.8884,612.3723,22.325,612.3661,21.6597,612.7878,21.1716,612.7361,21.0468,613.4212,21.1007,613.974,20.8353,614.4794,20.4554,615.0094,20.1351,615.6162,20" style="stroke:#FF6F00;stroke-width:1.5;"/><a href="/use-case/construction-project-quotations/supply-chain-and-subcontractors/supplier-rfqs-and-material-pricing/" target="_top" title="/use-case/construction-project-quotations/supply-chain-and-subcontractors/supplier-rfqs-and-material-pricing/" xlink:actuate="onRequest" xlink:href="/use-case/construction-project-quotations/supply-chain-and-subcontractors/supplier-rfqs-and-material-pricing/" xlink:show="new" xlink:title="/use-case/construction-project-quotations/supply-chain-and-subcontractors/supplier-rfqs-and-material-pricing/" xlink:type="simple"><text fill="#4051B5" font-family="'Roboto'" font-size="13" lengthAdjust="spacing" textLength="210.6025" x="621.6162" y="42.0669">Supplier RFQs &amp; Material Pricing</text></a><path d="M561.6162,75.2656 L561.6162,75.4525 L563.6162,74.8973 L565.6162,75.4374 L567.6162,75.6209 L569.6162,74.6315 L571.6162,75.2656 L571.6162,75.2656 L571.5972,75.2368 L573.2929,73.9294 L575.0847,72.7673 L576.9433,71.7061 L578.5717,70.2969 L580.5225,69.3751 L580.7451,69.4798 L581.4877,66.6641 L582.8804,64.1541 L584.3524,61.6814 L585.363,58.9916 L586.6162,56.416 L586.6437,56.4289 L587.8221,53.8182 L589.1255,51.2661 L590.3686,48.6858 L591.7268,46.1595 L592.71,43.4569 L592.8745,43.7057 L594.6577,42.5306 L596.3349,41.1951 L598.1674,40.0945 L600.0071,39.0048 L601.6162,37.5664 L601.6162,36.9254 L603.6162,38.1695 L605.6162,37.3028 L607.6162,38.0409 L609.6162,37.1264 L611.6162,37.5664" fill="none" style="stroke:#FF6F00;stroke-width:1;"/><a href="/use-case/construction-project-quotations/supply-chain-and-subcontractors/subcontractor-scope-packages/" target="_top" title="/use-case/construction-project-quotations/supply-chain-and-subcontractors/subcontractor-scope-packages/" xlink:actuate="onRequest" xlink:href="/use-case/construction-project-quotations/supply-chain-and-subcontractors/subcontractor-scope-packages/" xlink:show="new" xlink:title="/use-case/construction-project-quotations/supply-chain-and-subcontractors/subcontractor-scope-packages/" xlink:type="simple"><text fill="#4051B5" font-family="'Roboto'" font-size="13" lengthAdjust="spacing" textLength="201.373" x="618.6162" y="82.1997">Subcontractor Scope Packages</text></a><path d="M561.6162,75.2656 L561.6162,75.4525 L563.6162,74.8973 L565.6162,75.4374 L567.6162,75.6209 L569.6162,74.6315 L571.6162,75.2656 L571.6162,75.2656 L571.6134,75.2312 L574.6009,75.3201 L577.6024,75.5825 L580.6138,75.9655 L583.5914,75.9328 L586.6162,76.4824 L586.6361,76.7277 L589.5936,76.4466 L592.6091,76.8815 L595.6317,77.4038 L598.6131,77.4179 L601.6162,77.6992 L601.6162,77.7599 L603.6162,77.6708 L605.6162,77.8579 L607.6162,77.9118 L609.6162,78.2198 L611.6162,77.6992" fill="none" style="stroke:#FF6F00;stroke-width:1;"/><a href="/use-case/construction-project-quotations/supply-chain-and-subcontractors/subcontractor-bid-solicitation-and-comparison/" target="_top" title="/use-case/construction-project-quotations/supply-chain-and-subcontractors/subcontractor-bid-solicitation-and-comparison/" xlink:actuate="onRequest" xlink:href="/use-case/construction-project-quotations/supply-chain-and-subcontractors/subcontractor-bid-solicitation-and-comparison/" xlink:show="new" xlink:title="/use-case/construction-project-quotations/supply-chain-and-subcontractors/subcontractor-bid-solicitation-and-comparison/" xlink:type="simple"><text fill="#4051B5" font-family="'Roboto'" font-size="13" lengthAdjust="spacing" textLength="289.4722" x="618.6162" y="107.3325">Subcontractor Bid Solicitation &amp; Comparison</text></a><path d="M561.6162,75.2656 L561.6162,75.4525 L563.6162,74.8973 L565.6162,75.4374 L567.6162,75.6209 L569.6162,74.6315 L571.6162,75.2656 L571.6162,75.2656 L571.6012,75.2345 L573.3149,75.9564 L575.1045,76.8351 L576.9468,77.8227 L578.6074,78.4348 L580.5225,79.5729 L580.7294,79.706 L581.5056,81.3166 L582.886,83.3157 L584.3402,85.3623 L585.3654,87.133 L586.6162,89.0488 L586.6417,89.0652 L587.823,90.9363 L589.1204,92.8821 L590.3619,94.7919 L591.7102,96.7704 L592.71,98.5248 L592.8398,98.7933 L594.6226,99.658 L596.3217,100.3496 L598.1434,101.2946 L599.9708,102.2516 L601.6162,102.832 L601.6162,102.191 L603.6162,103.4352 L605.6162,102.5685 L607.6162,103.3065 L609.6162,102.392 L611.6162,102.832" fill="none" style="stroke:#FF6F00;stroke-width:1;"/><a href="/use-case/construction-project-quotations/supply-chain-and-subcontractors/bid-leveling/" target="_top" title="/use-case/construction-project-quotations/supply-chain-and-subcontractors/bid-leveling/" xlink:actuate="onRequest" xlink:href="/use-case/construction-project-quotations/supply-chain-and-subcontractors/bid-leveling/" xlink:show="new" xlink:title="/use-case/construction-project-quotations/supply-chain-and-subcontractors/bid-leveling/" xlink:type="simple"><text fill="#4051B5" font-family="'Roboto'" font-size="13" lengthAdjust="spacing" textLength="239.2813" x="618.6162" y="132.4653">Bid Leveling &amp; Comparative Analysis</text></a><path d="M561.6162,75.2656 L561.6162,75.4525 L563.6162,74.8973 L565.6162,75.4374 L567.6162,75.6209 L569.6162,74.6315 L571.6162,75.2656 L571.6162,75.2656 L571.5928,75.2403 L573.2688,76.7733 L575.063,78.4342 L576.9394,80.1839 L578.5326,81.6274 L580.5225,83.4999 L580.7557,83.5783 L581.4757,87.0336 L582.8767,90.718 L584.3607,94.4303 L585.3613,97.98 L586.6162,101.6152 L586.645,101.6249 L587.8215,105.2338 L589.1289,108.8867 L590.3732,112.5183 L591.7379,116.1905 L592.71,119.7306 L592.9124,119.9496 L594.6962,121.5991 L596.3493,123.1074 L598.1936,124.8224 L600.0468,126.5472 L601.6162,127.9648 L601.6162,127.3238 L603.6162,128.568 L605.6162,127.7013 L607.6162,128.4393 L609.6162,127.5248 L611.6162,127.9648" fill="none" style="stroke:#FF6F00;stroke-width:1;"/><a href="/use-case/construction-project-quotations/" target="_top" title="/use-case/construction-project-quotations/" xlink:actuate="onRequest" xlink:href="/use-case/construction-project-quotations/" xlink:show="new" xlink:title="/use-case/construction-project-quotations/" xlink:type="simple"><text fill="#4051B5" font-family="'Roboto'" font-size="13" lengthAdjust="spacing" textLength="268.5757" x="14" y="79.7661">Complex Construction Project Quotations</text></a><path d="M343.708,75.2656 L343.708,75.4525 L341.708,74.8973 L339.708,75.4374 L337.708,75.6209 L335.708,74.6315 L333.708,75.2656 L333.708,75.2656 L333.708,75.2311 L327.708,75.0761 L321.708,75.0952 L315.708,75.2353 L309.708,74.9583 L303.708,75.2656 L303.708,75.7578 L301.708,74.7054 L299.708,75.0898 L297.708,75.6496 L295.708,75.1894 L293.708,75.2656" fill="none" style="stroke:#FF6F00;stroke-width:1;"/><!--SRC=[xLXjZzCu4FwUN-5ZfGC4ORUm88GGejlTvQsxBUqkfnD2ApTnMz-wTh2TBhtJ_VSRkqdhf4twiYa74ltKnEDddXaxzippMcaizOZoS8GZp_ij97tA2JfwStLMVtT-rMWrMnraVtk71qzhlQUkIVUaqJe_hdV-JEoMcBJhZG_rDoSpe0MJLkVufEFwGNlz_hF-mS7CvBHrVf4ni2RcDpEfTpgjFx8sAOgdhYcFiCGZrCF1zK2Ac8SDmOH4UrfYhc2CSEsOlPr4H3BAhnEhXB5t5r4Ui3WaI0y96X1E96PeDa-XFbZtX1u-H8mEXXfX7g8GoskOgGKIOo9l9DK4tL0zd6BGCU584Qqf7wXyJYxUlcjyE3_fTb4D5aP4cWgEXW1gK3HCx6EcY4EyZSCGWD2Xywup3LS2MVJSUTyTub3S6EiyoYpyInxQFoGnSMoEIH_7JAD_l5F1zJaU4NId8o1sSSU-cMPkld3sPPV-JL3jqFlNHQfBAMu0P-cCvJ1wmY17WeLPf0XM5mz8mcbXwb5kyJCxt3iI4e9DHfmj2Ixc7hW8Du7FRFtrF0HY50aEsn7SR4buARjfpk8HUvpDMOWrxc55AdQNyH4m4OSxTI0O8u7vEbJbRkPU6c0W1TkXXoC3YULaXovEkAPwbmuerqJsSK1swADBliQ41wGD5nSDQ8Ivde9T36bmpObIS63EpLLY3epS6QNa5g2Ny7HiviSI5tA4MNvi8PmcxPCcdAo5u3E3Kfhsy5m0jsyBaUteKb9sP9x39ruzq4AkO61D2dsPqQ8F-2vg72AJDRY4u65lvS_zvYLyy9WF67dv4cuh9VYhLx2-NTXyH6Yum0flZwhkXVoEoz_PsIFAeKk-0KcEsLNrl7Fbs0x8gudIPFJpvRfwtZlATNeX_nofdhFz-JBjR9DUSl5EMUSAusmKjeOzM5tjRHLxUM3J2oR4QaZ2TM9T6ce0ZZ7SAtBTMA5UBzzAEuYqV0atRaFI1cuUqvFf_TE2ZanIgEd31CSqS4ahR8jzXNmqYfKsTJb1k0-XfZvpRO7ZBMbD2tiSfrSj8kcM4lDav6ftQDprwZ9h-KsljQIzM9FYEc2HQqa3awdsiLBRiIfpS1UT9UkY8XBGFWqWVbiwm1BT34rNhU4CWlfJcGMrY_SGzLXCOEqu9wOGKKZ4sWmljdGLivtZusnD1Osyz-0AVVwCzcD5_03EpdtWfxICRGFZHrBy1MJzhx60vJKjpRwAeuXD_608twqFtR-lufxvZ2MsGUsZhZL03ME0VeT7TnXz-U8zU52jHpjEYVHb_wko1YFOYf9Y1cXGzl91GWfiKEVqem9MPua5QayjfhokgYRcFFeg417n4rd0viaPHLqpYjh9w7UWqwDW81X4FvrlPvY67qiAXM2Utn4DKTSnXnmsPiOxeMi8CZ8cp2wWyTzCdcQ-0MbCK1qk-ecYDcc-lo4BYyJ8DzDGpmnXLrX3z75cQC1V4_ZcKsdoTLQfh4xN-u4LjFGoMLC-SysN06mWdANpyWTZcZJtz4kLrbAfxBQ0PSfO6SOYWosqiCqShAL-tGQoLE_Q57WTXMjxp19DQtlGGXLhUyWotMfxr9qeLIcT0eqgPRQnF9K6i4oRIa6BPAcKarCwfd0BQbIAbHEYClOhLQYPmxp-D4FFIa_EXxILYbHyicwoMnON_xOgqVVcjQAz_z_Iz2FmMbkx-SviVgWaLIgxf3msZAQGTQd4Kjkbfb9r9BdyLwMPR2rwBBalAnCyNAJSNRAeSsIkcMMPovUWQsWRnGHMGXRe3xT0_AKu_58SVYaEbIWERGO5ykLP4usX23DpQeyU7pn- -gXMwn6DQmVtBlar5pVSDgSKJZ1DH-I-T-zDkucKY2LKyY5LqoC8fj_ttkCnHfsO6xiNg1KH_lxuG_e2sfenbOAFZ6hn_jFPtE3PeNz4DNGJ4eYWJsTUUeQVy40OlU85khmuzPzxJRYHOjXSBn3XSF02hfp0MFS_]--></g></svg>