<svg xmlns="http://www.w3.org/2000/svg" xmlns:xlink="http://www.w3.org/1999/xlink" contentStyleType="text/css" data-diagram-type="MINDMAP" height="157px" preserveAspectRatio="none" style="width:987px;height:157px;" version="1.1" viewBox="0 0 987 157" width="987px" zoomAndPan="magnify"><defs/><g><a href="/use-case/construction-project-quotations/supply-chain-and-subcontractors/" target="_top" title="/use-case/construction-project-quotations/supply-chain-and-subcontractors/" xlink:actuate="onRequest" xlink:href="/use-case/construction-project-quotations/supply-chain-and-subcontractors/" xlink:show="new" xlink:title="/use-case/construction-project-quotations/supply-chain-and-subcontractors/" xlink:type="simple"><text fill="#90EE90" font-family="'Roboto'" font-size="14" lengthAdjust="spacing" textLength="218.374" x="371.6855" y="82.4404">Supply Chain &amp; Subcontractors</text></a><polygon fill="#4051B5" points="652.5098,20,652.5098,20.2102,662.6453,19.5857,672.7808,20.1933,682.9164,20.3997,693.0519,19.2866,703.1875,19.9223,713.323,19.5735,723.4585,19.6165,733.5941,19.9318,743.7296,19.3086,753.8652,20.5536,764.0007,19.3697,774.1362,19.8022,784.2718,20.4319,794.4073,19.9142,804.5428,20.0682,814.6784,19.9681,824.8139,20.1785,834.9495,20.2391,845.085,20.5857,855.2205,20.6711,865.3561,20.6793,875.4916,20.2546,885.6272,20.4636,895.7627,20,895.8523,20.2163,896.2364,20.0122,896.9806,20.6776,897.4219,20.6116,898.0935,21.1017,898.5911,21.1716,898.4387,21.1084,898.8043,21.7285,899.2881,22.3975,899.2791,22.8624,899.5608,23.4477,899.7627,24,899.8756,24,899.9014,29.6594,899.7614,35.3188,899.8584,40.9781,899.5719,46.6375,899.7627,52.2969,899.8503,52.3332,899.6972,52.9325,899.431,53.485,899.2485,54.0721,898.6767,54.498,898.5911,55.1253,898.5079,54.9245,897.9462,55.1683,897.4522,55.5758,896.869,55.7677,896.4153,56.2724,895.7627,56.2969,895.7627,56.1222,885.6272,55.9538,875.4916,56.5251,865.3561,55.63,855.2205,55.7777,845.085,56.9458,834.9495,56.7325,824.8139,57.0314,814.6784,55.9751,804.5428,56.6161,794.4073,56.8873,784.2718,55.8245,774.1362,56.201,764.0007,56.4229,753.8652,56.9486,743.7296,56.2927,733.5941,56.7594,723.4585,55.7431,713.323,55.6196,703.1875,56.8005,693.0519,55.5799,682.9164,56.8058,672.7808,56.5035,662.6453,56.029,652.5098,56.2969,652.4646,56.1879,652.0026,56.2038,651.3402,55.7361,650.8882,55.7762,650.1765,55.1894,649.6813,55.1253,649.8715,55.2041,649.5962,54.6214,649.2881,54.0252,648.9929,53.4343,648.9678,52.9552,648.5098,52.2969,648.7143,52.2969,648.5662,46.6375,648.5992,40.9781,648.4663,35.3188,648.7486,29.6594,648.5098,24,648.5575,24.0198,648.7972,23.4563,648.791,22.791,649.0879,22.2513,649.6105,21.805,649.6813,21.1716,649.7362,21.3039,650.2415,20.924,650.7716,20.6037,651.3505,20.4012,651.8566,20.023,652.5098,20" style="stroke:#FF6F00;stroke-width:1.5;"/><a href="/use-case/construction-project-quotations/supply-chain-and-subcontractors/supplier-rfqs-and-material-pricing/" target="_top" title="/use-case/construction-project-quotations/supply-chain-and-subcontractors/supplier-rfqs-and-material-pricing/" xlink:actuate="onRequest" xlink:href="/use-case/construction-project-quotations/supply-chain-and-subcontractors/supplier-rfqs-and-material-pricing/" xlink:show="new" xlink:title="/use-case/construction-project-quotations/supply-chain-and-subcontractors/supplier-rfqs-and-material-pricing/" xlink:type="simple"><text fill="#90EE90" font-family="'Roboto'" font-size="14" lengthAdjust="spacing" textLength="226.8027" x="658.5098" y="42.9951">Supplier RFQs &amp; Material Pricing</text></a><path d="M598.5098,77.5938 L598.5098,77.7806 L600.5098,77.2255 L602.5098,77.7656 L604.5098,77.949 L606.5098,76.9596 L608.5098,77.5938 L608.5098,77.5938 L608.4901,77.5653 L610.1832,76.2052 L611.9753,74.9883 L613.8363,73.8708 L615.4599,72.4104 L617.416,71.4304 L617.6405,71.5313 L618.3793,68.6037 L619.7733,65.9707 L621.2474,63.3735 L622.2562,60.5673 L623.5098,57.8711 L623.5374,57.8835 L624.7156,55.1534 L626.0196,52.4799 L627.263,49.7791 L628.6222,47.1303 L629.6035,44.3118 L629.7732,44.557 L631.5566,43.3273 L633.2304,41.9395 L635.0645,40.7832 L636.9061,39.6377 L638.5098,38.1484 L638.5098,37.5074 L640.5098,38.7516 L642.5098,37.8849 L644.5098,38.6229 L646.5098,37.7084 L648.5098,38.1484" fill="none" style="stroke:#FF9900;stroke-width:1;"/><a href="/use-case/construction-project-quotations/supply-chain-and-subcontractors/subcontractor-scope-packages/" target="_top" title="/use-case/construction-project-quotations/supply-chain-and-subcontractors/subcontractor-scope-packages/" xlink:actuate="onRequest" xlink:href="/use-case/construction-project-quotations/supply-chain-and-subcontractors/subcontractor-scope-packages/" xlink:show="new" xlink:title="/use-case/construction-project-quotations/supply-chain-and-subcontractors/subcontractor-scope-packages/" xlink:type="simple"><text fill="#90EE90" font-family="'Roboto'" font-size="14" lengthAdjust="spacing" textLength="216.8633" x="655.5098" y="84.292">Subcontractor Scope Packages</text></a><path d="M598.5098,77.5938 L598.5098,77.7806 L600.5098,77.2255 L602.5098,77.7656 L604.5098,77.949 L606.5098,76.9596 L608.5098,77.5938 L608.5098,77.5938 L608.5076,77.5593 L611.4981,77.5897 L614.4993,77.7939 L617.5079,78.119 L620.4908,78.0277 L623.5098,78.5195 L623.5249,78.7651 L626.4925,78.4251 L629.5044,78.8021 L632.5216,79.2666 L635.5074,79.2221 L638.5098,79.4453 L638.5098,79.506 L640.5098,79.4169 L642.5098,79.604 L644.5098,79.6579 L646.5098,79.9659 L648.5098,79.4453" fill="none" style="stroke:#FF9900;stroke-width:1;"/><a href="/use-case/construction-project-quotations/supply-chain-and-subcontractors/subcontractor-bid-solicitation-and-comparison/" target="_top" title="/use-case/construction-project-quotations/supply-chain-and-subcontractors/subcontractor-bid-solicitation-and-comparison/" xlink:actuate="onRequest" xlink:href="/use-case/construction-project-quotations/supply-chain-and-subcontractors/subcontractor-bid-solicitation-and-comparison/" xlink:show="new" xlink:title="/use-case/construction-project-quotations/supply-chain-and-subcontractors/subcontractor-bid-solicitation-and-comparison/" xlink:type="simple"><text fill="#90EE90" font-family="'Roboto'" font-size="14" lengthAdjust="spacing" textLength="311.7393" x="655.5098" y="110.5889">Subcontractor Bid Solicitation &amp; Comparison</text></a><path d="M598.5098,77.5938 L598.5098,77.7806 L600.5098,77.2255 L602.5098,77.7656 L604.5098,77.949 L606.5098,76.9596 L608.5098,77.5938 L608.5098,77.5938 L608.4945,77.5628 L610.2071,78.3034 L611.9968,79.2002 L613.8401,80.2055 L615.4987,80.8368 L617.416,81.9919 L617.6242,82.1231 L618.3977,83.7779 L619.7791,85.8155 L621.2347,87.8999 L622.2588,89.7124 L623.5098,91.668 L623.5354,91.6841 L624.7165,93.5956 L626.0144,95.5807 L627.2559,97.5302 L628.605,99.5475 L629.6035,101.344 L629.7356,101.6114 L631.5184,102.4943 L633.2161,103.2047 L635.0385,104.1676 L636.8667,105.1424 L638.5098,105.7422 L638.5098,105.1011 L640.5098,106.3453 L642.5098,105.4786 L644.5098,106.2167 L646.5098,105.3022 L648.5098,105.7422" fill="none" style="stroke:#FF9900;stroke-width:1;"/><a href="/use-case/construction-project-quotations/supply-chain-and-subcontractors/bid-leveling/" target="_top" title="/use-case/construction-project-quotations/supply-chain-and-subcontractors/bid-leveling/" xlink:actuate="onRequest" xlink:href="/use-case/construction-project-quotations/supply-chain-and-subcontractors/bid-leveling/" xlink:show="new" xlink:title="/use-case/construction-project-quotations/supply-chain-and-subcontractors/bid-leveling/" xlink:type="simple"><text fill="#90EE90" font-family="'Roboto'" font-size="14" lengthAdjust="spacing" textLength="257.6875" x="655.5098" y="136.8857">Bid Leveling &amp; Comparative Analysis</text></a><path d="M598.5098,77.5938 L598.5098,77.7806 L600.5098,77.2255 L602.5098,77.7656 L604.5098,77.949 L606.5098,76.9596 L608.5098,77.5938 L608.5098,77.5938 L608.4859,77.5688 L610.1601,79.1581 L611.9545,80.8733 L613.8326,82.6761 L615.4225,84.1772 L617.416,86.1008 L617.65,86.177 L618.3684,89.7572 L619.7699,93.5598 L621.2548,97.3896 L622.2548,101.0615 L623.5098,104.8164 L623.5386,104.8258 L624.715,108.5551 L626.0227,112.3272 L627.2671,116.0787 L628.6323,119.8695 L629.6035,123.532 L629.8095,123.7477 L631.5933,125.4517 L633.2442,127.0166 L635.0896,128.7852 L636.9441,130.5633 L638.5098,132.0391 L638.5098,131.398 L640.5098,132.6422 L642.5098,131.7755 L644.5098,132.5136 L646.5098,131.599 L648.5098,132.0391" fill="none" style="stroke:#FF9900;stroke-width:1;"/><a href="/use-case/construction-project-quotations/" target="_top" title="/use-case/construction-project-quotations/" xlink:actuate="onRequest" xlink:href="/use-case/construction-project-quotations/" xlink:show="new" xlink:title="/use-case/construction-project-quotations/" xlink:type="simple"><text fill="#90EE90" font-family="'Roboto'" font-size="14" lengthAdjust="spacing" textLength="289.2354" x="14" y="82.4404">Complex Construction Project Quotations</text></a><path d="M364.6855,77.5938 L364.6855,77.7806 L362.6855,77.2255 L360.6855,77.7656 L358.6855,77.949 L356.6855,76.9596 L354.6855,77.5938 L354.6855,77.5938 L354.6855,77.5592 L348.6855,77.4042 L342.6855,77.4233 L336.6855,77.5635 L330.6855,77.2865 L324.6855,77.5938 L324.6855,78.0859 L322.6855,77.0335 L320.6855,77.418 L318.6855,77.9777 L316.6855,77.5175 L314.6855,77.5938" fill="none" style="stroke:#FF9900;stroke-width:1;"/><!--SRC=[xLXjJzj84FxkNx5NfACLvq8ug5fKLII1q492qWGgdQeARUn9ieUpQtRNeRdJ_VSRst6oSTv3pC49FX7liyyyCnxlpionqbJgBkDkb_gMzOiBBSQ15CvkAlalbpV5QhbQ9z7Vri7UOQvvQ48QfyNgvKc-_iS0DmLIonSlycUdGw89IBL-SbetxP2jLkjTQszl22bLBw_6014a_BCiTSkuJoNjaYPrRjjI1Dmj2a_81AWbvGeHmBK1_jptGPOPlpMnPCjZxOvkIm1kMTk4SSSBN22w0wGD72Jro912aHPkR0hT-Or4smZbBd6flCMTMX3H0talcGPoptGdvc0zu4I1reotLJe2Lv-_52ykJniDaiFN87pD12ST90rPD6viKK-1uKEDkYuIaGFZMJtsNw9OyjvutkXGLzo7w3HB50aF8t7DtUWV640Cp0cqQE1fyhTL4bnVqYwGLtM1lejNqPCuYAFN53riiB-0v0wiVqocl9JY7dccxfXEe_iUnaXuxZYJZw-Rjc6WQM9h8PKDO_bi5OH4PmShHWAYYP45BjnLwCSIVJaBZkZwWcDcefar1KzL5ySiw7hxup5pgQPDgc33viPiE9u8t4mD2Cy39_mwrCRDZAmK4I25bw65GaX9PJz34wTSCvsb0SOro1Pr84CR3RWBW3jGmskAESodNCTaLntct79G2W_C4LmDuAZ8t35Nt0Jr59q6PdGiSI6xr4klJRXJPYt0omPcaWy1SsL6X-S4UVHq9dEqEbLKj3AAuUzMtj52Bb0GGMRQ2bTdVS3Rf7X0mgZX9OG_jXR-cT-yn0-UyhO77p_YRQK4__G9tsy3am-4nWjivksngNiXdN7fEtlyY3BamayKoQbtitdTgU8h0_6ghpHqdr-iDwyxerWd5_Bp2FL8xVEBj94cpS756wjE5SRZNaGrxDxYQcyjt-Sx5bymBbKTS9VnTQgh3XgcUA_8PNt5Udr-AcNWwVnNQ5xjckffbKRIKewC9-rXNcl9ce66oILJLD9mfWfPgbJ6rhP99MwyYVB1OItce9Fn5JdHXoolOw5hT5H8R9LA7pxWUchHhAqiQ-U6VFzETWC5jeFV_owcbT8oY8fmsvVYJymu-ouG-7x2idnN1RxlzMsdWxbdOmThgw0PfgAaOOMWTaaZ0f1Y222_uazpcVpuOUtiRDPYjCv0sh9rfo905tD9CkeX6vPkl3qGXHXIBtrLgAeoG91QZ8XrtMnQcF7JLexmmHwqjb6SZ5NI25UnxOzN7q5Eao50UEXzl3_Q4JQjL38iPjBw2imb3GEECImEmPd83GLwq0ClUe6X_VBWrz0sClM0vF6owYiM1SssLrGHCNdmCsmAXq3CYWX8lWw18VanuFUS3DEEnsTh6Gwhdl1OA3cLbfm9cV0f12jCWuR7uOo3S_enEMV-yr32UUEUUHoJ2jOOyAncOAcHpaCevmvnLYLUPcopFkUSGStwf3D7C-jJpXl6hC-QoVWbaJDZy98eMtdcaZWmRU2IaCwQjIIQZ2dBiB1BZrWIhjHqPGo_SBGoD9WUgWpPn-SfneUqrcXazicwIhPCllo7ZZuUMzU2dlK_2zDJqBNqGEAHrJof86rqbf3eMD6RcQhdpWroMGuADkr9Alx_wq70IxV_qks_TFlFkzklULYBNbVAf8VrJhWdztP_R__mRIxN14rpUw-l-IqNzppg0naUqffruOtr-gnM9ae44ejcbwduvC3jRwnpsgEa7l0GTqIgFl3paula0NOGFIO5xuQpWlDlbH7WtO5TO1eBTub2oBUAbVJffzmHuMZWY5nVbUptLXaF_m2JwuW0n-uRUMKVrnh_0W00]--></g></svg>