<svg xmlns="http://www.w3.org/2000/svg" xmlns:xlink="http://www.w3.org/1999/xlink" contentStyleType="text/css" data-diagram-type="MINDMAP" height="253px" preserveAspectRatio="none" style="width:564px;height:253px;" version="1.1" viewBox="0 0 564 253" width="564px" zoomAndPan="magnify"><defs/><g><a href="/use-case/legal-entity-management/" target="_top" title="/use-case/legal-entity-management/" xlink:actuate="onRequest" xlink:href="/use-case/legal-entity-management/" xlink:show="new" xlink:title="/use-case/legal-entity-management/" xlink:type="simple"><text fill="#4051B5" font-family="'Roboto'" font-size="13" lengthAdjust="spacing" textLength="166.9243" x="17" y="130.0317">Legal Entity Management</text></a><a href="/use-case/legal-entity-management/identification-and-registration/" target="_top" title="/use-case/legal-entity-management/identification-and-registration/" xlink:actuate="onRequest" xlink:href="/use-case/legal-entity-management/identification-and-registration/" xlink:show="new" xlink:title="/use-case/legal-entity-management/identification-and-registration/" xlink:type="simple"><text fill="#4051B5" font-family="'Roboto'" font-size="13" lengthAdjust="spacing" textLength="182.6157" x="249.0566" y="27.0669">Identification &amp; Registration</text></a><path d="M192.0566,125.5313 L192.0566,125.7181 L194.0566,125.163 L196.0566,125.7031 L198.0566,125.8865 L200.0566,124.8971 L202.0566,125.5313 L202.0566,125.5313 L202.0264,125.5145 L203.6721,122.2218 L205.47,119.0134 L207.3739,115.8636 L208.9128,112.5118 L210.9629,109.443 L211.2044,109.4902 L211.3325,106.0912 L212.1657,102.8299 L213.0849,99.5855 L213.5036,96.2433 L214.1855,92.9525 L214.2155,92.9571 L214.7457,89.1697 L215.4124,85.403 L216.0133,81.6263 L216.7398,77.8687 L217.0566,74.0488 L217.3515,74.0936 L217.9293,70.3134 L218.317,66.5043 L218.983,62.7375 L219.6621,58.9727 L219.9277,55.1451 L219.6132,55.0837 L220.8682,51.9049 L221.0875,48.5237 L222.0942,45.2964 L222.2899,41.9106 L223.1504,38.6547 L223.1238,38.6399 L225.22,35.5966 L226.6939,32.2089 L228.5351,29.0244 L230.4071,25.8569 L232.0566,22.5664 L232.0566,22.9364 L234.0566,22.5629 L236.0566,22.8217 L238.0566,22.0576 L240.0566,22.8192 L242.0566,22.5664" fill="none" style="stroke:#FF6F00;stroke-width:1;"/><a href="/use-case/legal-entity-management/corporate-governance/" target="_top" title="/use-case/legal-entity-management/corporate-governance/" xlink:actuate="onRequest" xlink:href="/use-case/legal-entity-management/corporate-governance/" xlink:show="new" xlink:title="/use-case/legal-entity-management/corporate-governance/" xlink:type="simple"><text fill="#4051B5" font-family="'Roboto'" font-size="13" lengthAdjust="spacing" textLength="147.7734" x="249.0566" y="52.1997">Corporate Governance</text></a><path d="M192.0566,125.5313 L192.0566,125.7181 L194.0566,125.163 L196.0566,125.7031 L198.0566,125.8865 L200.0566,124.8971 L202.0566,125.5313 L202.0566,125.5313 L202.0288,125.5108 L203.685,122.987 L205.4816,120.566 L207.376,118.2166 L208.9337,115.6207 L210.9629,113.37 L211.2011,113.4316 L211.3362,110.8068 L212.1669,108.3619 L213.0823,105.9389 L213.5041,103.3882 L214.1855,100.9047 L214.2153,100.9107 L214.7458,98.044 L215.4118,95.2045 L216.0124,92.352 L216.7376,89.5244 L217.0566,86.6152 L217.349,86.674 L217.9268,83.8168 L218.316,80.9217 L218.9813,78.0821 L219.6595,75.2451 L219.9277,72.3258 L219.6174,72.2455 L220.8642,69.9082 L221.0892,67.3067 L222.091,64.906 L222.2929,62.2985 L223.1504,59.8605 L223.1258,59.8425 L225.1976,57.623 L226.6954,54.9832 L228.5319,52.5914 L230.3968,50.2204 L232.0566,47.6992 L232.0566,48.0692 L234.0566,47.6957 L236.0566,47.9545 L238.0566,47.1904 L240.0566,47.952 L242.0566,47.6992" fill="none" style="stroke:#FF6F00;stroke-width:1;"/><a href="/use-case/legal-entity-management/ownership-and-capital-structure/" target="_top" title="/use-case/legal-entity-management/ownership-and-capital-structure/" xlink:actuate="onRequest" xlink:href="/use-case/legal-entity-management/ownership-and-capital-structure/" xlink:show="new" xlink:title="/use-case/legal-entity-management/ownership-and-capital-structure/" xlink:type="simple"><text fill="#4051B5" font-family="'Roboto'" font-size="13" lengthAdjust="spacing" textLength="198.1992" x="249.0566" y="77.3325">Ownership &amp; Capital Structure</text></a><path d="M192.0566,125.5313 L192.0566,125.7181 L194.0566,125.163 L196.0566,125.7031 L198.0566,125.8865 L200.0566,124.8971 L202.0566,125.5313 L202.0566,125.5313 L202.0332,125.5059 L203.7092,123.7452 L205.5034,122.1124 L207.3798,120.5685 L208.973,118.7182 L210.9629,117.297 L211.1961,117.3754 L211.9161,113.5846 L213.3171,110.0228 L214.8011,106.489 L215.8018,102.7926 L217.0566,99.1816 L217.0854,99.1913 L218.2619,95.554 L219.5693,91.9608 L220.8136,88.3463 L222.1784,84.7723 L223.1504,81.0663 L223.3529,81.2853 L225.1366,79.6411 L226.7897,77.8557 L228.634,76.277 L230.4873,74.708 L232.0566,72.832 L232.0566,72.191 L234.0566,73.4352 L236.0566,72.5685 L238.0566,73.3065 L240.0566,72.392 L242.0566,72.832" fill="none" style="stroke:#FF6F00;stroke-width:1;"/><a href="/use-case/legal-entity-management/financial-information/" target="_top" title="/use-case/legal-entity-management/financial-information/" xlink:actuate="onRequest" xlink:href="/use-case/legal-entity-management/financial-information/" xlink:show="new" xlink:title="/use-case/legal-entity-management/financial-information/" xlink:type="simple"><text fill="#4051B5" font-family="'Roboto'" font-size="13" lengthAdjust="spacing" textLength="137.4839" x="249.0566" y="102.4653">Financial Information</text></a><path d="M192.0566,125.5313 L192.0566,125.7181 L194.0566,125.163 L196.0566,125.7031 L198.0566,125.8865 L200.0566,124.8971 L202.0566,125.5313 L202.0566,125.5313 L202.0416,125.5002 L203.7554,124.4992 L205.5449,123.6549 L207.3872,122.9196 L209.0479,121.8088 L210.9629,121.224 L211.1699,121.3571 L211.946,119.1773 L213.3265,117.3861 L214.7806,115.6423 L215.8058,113.6226 L217.0566,111.748 L217.0821,111.7645 L218.2634,109.8452 L219.5609,108.0006 L220.8023,106.12 L222.1506,104.3081 L223.1504,102.2721 L223.2802,102.5406 L225.0631,101.6824 L226.7622,100.6511 L228.5838,99.8732 L230.4113,99.1073 L232.0566,97.9648 L232.0566,97.3238 L234.0566,98.568 L236.0566,97.7013 L238.0566,98.4393 L240.0566,97.5248 L242.0566,97.9648" fill="none" style="stroke:#FF6F00;stroke-width:1;"/><a href="/use-case/legal-entity-management/lifecycle-and-status/" target="_top" title="/use-case/legal-entity-management/lifecycle-and-status/" xlink:actuate="onRequest" xlink:href="/use-case/legal-entity-management/lifecycle-and-status/" xlink:show="new" xlink:title="/use-case/legal-entity-management/lifecycle-and-status/" xlink:type="simple"><text fill="#4051B5" font-family="'Roboto'" font-size="13" lengthAdjust="spacing" textLength="116.854" x="249.0566" y="127.5981">Lifecycle &amp; Status</text></a><path d="M192.0566,125.5313 L192.0566,125.7181 L194.0566,125.163 L196.0566,125.7031 L198.0566,125.8865 L200.0566,124.8971 L202.0566,125.5313 L202.0566,125.5313 L202.0538,125.4968 L205.0413,125.099 L208.0429,124.8746 L211.0542,124.771 L214.0318,124.2515 L217.0566,124.3145 L217.0765,124.5597 L220.034,123.7919 L223.0495,123.7401 L226.0722,123.7757 L229.0536,123.303 L232.0566,123.0977 L232.0566,123.1583 L234.0566,123.0693 L236.0566,123.2563 L238.0566,123.3102 L240.0566,123.6183 L242.0566,123.0977" fill="none" style="stroke:#FF6F00;stroke-width:1;"/><a href="/use-case/legal-entity-management/contact-and-location-information/" target="_top" title="/use-case/legal-entity-management/contact-and-location-information/" xlink:actuate="onRequest" xlink:href="/use-case/legal-entity-management/contact-and-location-information/" xlink:show="new" xlink:title="/use-case/legal-entity-management/contact-and-location-information/" xlink:type="simple"><text fill="#4051B5" font-family="'Roboto'" font-size="13" lengthAdjust="spacing" textLength="203.8042" x="249.0566" y="152.731">Contact &amp; Location Information</text></a><path d="M192.0566,125.5313 L192.0566,125.7181 L194.0566,125.163 L196.0566,125.7031 L198.0566,125.8865 L200.0566,124.8971 L202.0566,125.5313 L202.0566,125.5313 L202.0358,125.5037 L204.9423,127.65 L207.9538,129.9352 L211.0384,132.3169 L213.8712,134.3659 L217.0566,136.8809 L217.2051,137.0771 L219.8876,138.9274 L223.0036,141.3506 L226.1725,143.8437 L229.0336,145.9301 L232.0566,148.2305 L232.0566,148.2911 L234.0566,148.2021 L236.0566,148.3892 L238.0566,148.443 L240.0566,148.7511 L242.0566,148.2305" fill="none" style="stroke:#FF6F00;stroke-width:1;"/><a href="/use-case/legal-entity-management/compliance-and-documentation/" target="_top" title="/use-case/legal-entity-management/compliance-and-documentation/" xlink:actuate="onRequest" xlink:href="/use-case/legal-entity-management/compliance-and-documentation/" xlink:show="new" xlink:title="/use-case/legal-entity-management/compliance-and-documentation/" xlink:type="simple"><text fill="#4051B5" font-family="'Roboto'" font-size="13" lengthAdjust="spacing" textLength="195.1396" x="249.0566" y="177.8638">Compliance &amp; Documentation</text></a><path d="M192.0566,125.5313 L192.0566,125.7181 L194.0566,125.163 L196.0566,125.7031 L198.0566,125.8865 L200.0566,124.8971 L202.0566,125.5313 L202.0566,125.5313 L202.0344,125.5048 L203.716,126.8808 L205.5096,128.3902 L207.3809,129.9923 L208.9841,131.2749 L210.9629,133.005 L211.1936,133.0905 L211.919,136.1961 L213.318,139.5514 L214.7992,142.9371 L215.8021,146.1456 L217.0566,149.4473 L217.0851,149.4578 L218.2621,152.7308 L219.5685,156.0517 L220.8125,159.3496 L222.1757,162.6915 L223.1504,165.8895 L223.3421,166.118 L225.1257,167.6155 L226.7856,168.9657 L228.6266,170.5316 L230.476,172.1076 L232.0566,173.3633 L232.0566,172.7222 L234.0566,173.9664 L236.0566,173.0997 L238.0566,173.8378 L240.0566,172.9233 L242.0566,173.3633" fill="none" style="stroke:#FF6F00;stroke-width:1;"/><polygon fill="#4051B5" points="246.0566,195.9297,246.0566,196.1399,255.8942,195.5154,265.7317,196.123,275.5693,196.3294,285.4068,195.2163,295.2444,195.852,305.0819,195.5032,314.9195,195.5462,324.757,195.8615,334.5946,195.2383,344.4321,196.4833,354.2696,195.2994,364.1072,195.7319,373.9447,196.3616,383.7823,195.8439,393.6198,195.9979,403.4574,195.8977,413.2949,195.9297,413.3177,195.9847,413.8911,196.2376,414.501,196.5787,415.0776,196.8393,415.6443,197.0761,416.1233,197.1013,416.2018,197.1337,416.5004,197.7261,416.8082,198.3222,416.6042,198.7063,417.2696,199.4506,417.2949,199.9297,417.1961,199.9297,417.4729,205.3563,417.1299,210.7828,417.2721,216.2094,417.5421,221.6359,417.2949,227.0625,417.2799,227.0563,417.093,227.6416,416.9306,228.2371,416.7202,228.8127,416.3565,229.3247,416.1233,229.8909,416.16,229.9794,415.4846,229.949,415.0283,230.4471,414.4962,230.7627,413.9173,230.9651,413.2949,231.0625,413.2949,231.6755,403.4574,230.5794,393.6198,230.4103,383.7823,230.4411,373.9447,231.0036,364.1072,230.866,354.2696,231.7439,344.4321,230.8878,334.5946,230.7194,324.757,231.2908,314.9195,230.3957,305.0819,230.5434,295.2444,231.7115,285.4068,231.4982,275.5693,231.797,265.7317,230.7407,255.8942,231.3817,246.0566,231.0625,246.132,231.2443,245.4307,230.6827,244.913,230.5643,244.3757,230.3984,243.877,230.326,243.2282,229.8909,243.2269,229.8904,243.1364,229.3842,242.589,228.6889,242.3167,228.1075,242.446,227.6924,242.0566,227.0625,241.8177,227.0625,242.2263,221.6359,242.1255,216.2094,241.9673,210.7828,241.9387,205.3563,242.0566,199.9297,242.1979,199.9882,242.1988,199.3258,242.7075,198.8738,242.5894,198.1621,243.184,197.7457,243.2282,197.1013,243.29,197.2504,243.8251,196.9424,244.3656,196.6472,245.018,196.6221,245.5692,196.353,246.0566,195.9297" style="stroke:#FF6F00;stroke-width:1.5;"/><a href="/use-case/legal-entity-management/supporting-information/" target="_top" title="/use-case/legal-entity-management/supporting-information/" xlink:actuate="onRequest" xlink:href="/use-case/legal-entity-management/supporting-information/" xlink:show="new" xlink:title="/use-case/legal-entity-management/supporting-information/" xlink:type="simple"><text fill="#4051B5" font-family="'Roboto'" font-size="13" lengthAdjust="spacing" textLength="151.106" x="252.0566" y="217.9966">Supporting Information</text></a><a href="/use-case/legal-entity-management/supporting-information/currencies/" target="_top" title="/use-case/legal-entity-management/supporting-information/currencies/" xlink:actuate="onRequest" xlink:href="/use-case/legal-entity-management/supporting-information/currencies/" xlink:show="new" xlink:title="/use-case/legal-entity-management/supporting-information/currencies/" xlink:type="simple"><text fill="#4051B5" font-family="'Roboto'" font-size="13" lengthAdjust="spacing" textLength="69.7734" x="474.2949" y="217.9966">Currencies</text></a><path d="M417.2949,213.4961 L417.2949,213.6829 L419.2949,213.1278 L421.2949,213.6679 L423.2949,213.8514 L425.2949,212.862 L427.2949,213.4961 L427.2949,213.4961 L427.2949,213.4616 L433.2949,213.3065 L439.2949,213.3256 L445.2949,213.4658 L451.2949,213.1888 L457.2949,213.4961 L457.2949,213.9882 L459.2949,212.9358 L461.2949,213.3203 L463.2949,213.88 L465.2949,213.4198 L467.2949,213.4961" fill="none" style="stroke:#FF6F00;stroke-width:1;"/><path d="M192.0566,125.5313 L192.0566,125.7181 L194.0566,125.163 L196.0566,125.7031 L198.0566,125.8865 L200.0566,124.8971 L202.0566,125.5313 L202.0566,125.5313 L202.0277,125.5125 L203.6788,128.1771 L205.4761,130.9364 L207.375,133.7615 L208.9238,136.3598 L210.9629,139.2758 L211.2028,139.3306 L211.3344,142.0309 L212.1663,144.8914 L213.0836,147.7714 L213.5039,150.5378 L214.1855,153.3639 L214.2154,153.3692 L214.7458,156.5914 L215.4121,159.8377 L216.0128,163.0724 L216.7387,166.3293 L217.0566,169.5137 L217.3503,169.5659 L217.9281,172.7965 L218.3165,175.9934 L218.9822,179.2396 L219.6608,182.4881 L219.9277,185.6635 L219.6153,185.592 L220.8662,188.5483 L221.0883,191.2693 L222.0926,194.1692 L222.2914,196.8849 L223.1504,199.7516 L223.1248,199.735 L225.2082,202.6797 L226.6947,205.2376 L228.5334,208.0237 L230.4017,210.829 L232.0566,213.4961 L232.0566,213.8661 L234.0566,213.4926 L236.0566,213.7514 L238.0566,212.9873 L240.0566,213.7489 L242.0566,213.4961" fill="none" style="stroke:#FF6F00;stroke-width:1;"/><!--SRC=[xLXjRzD84FxkNx57fGC4eKqf2264IDCN2cbJ9Isd4qBLnXudgsvspUwwlTxf_llDEhPZEx4Jfmb79VAftHq_yypisyppGHkgp9W9Rqm3n_dD0vy98Fl7LwUjaxEhThVJxP7ejxMtywevU9KrwH-sksS7hTwViTqSa_DM-tFh-305cZ7fzWuEUra_PCltN_ixEwd9KVVi8cSGcTXVQjBgzRf_v6qI54TVCn5GHSTaGDthePAXyDgIIqMsZA92unm8ap7xU1U0uanSnrOnO-SnOSBbeGV4Z80CGO2YdAJVQUAZzK2QqNF2sN1a21KUyQYwnY-D9F86rArY1iWjCwC91hi1GJGOmyHG5tDoyV6a_VdiiDydJLmO6HWc1HaXg4Kn-A5FkOOCyNFgUGX4zZ9ZlKcu2icIDvdn_eXwyjPQ5r7Iy2-55_q1iKd6vW1y6d93_d6Ef31dT0paKKzYxF9HD3B9t7JXei4- -nj8Sy_vDulKKahU8ixSB-R3c3kEEPBSooC5kBfq236dcK_t2ukVs-7ElbGOR3oJsPBeOkf1IAyEV6xhB-V1bUD02joEw6P5mdFPJN8MZlbkFcSUDNH0DQpPNSw7osNeRTI1v1nSUphqsjrClRJHG4c-GG_x5fAgkmswE1I6cKqwOCA0ygaB6_JHX-yX21VEyU5YBWkeC1EmYn5phmLeZHVcr5p7viWe-qKbkHdeEJmpDjDhIKWrfhmuDnDEX_dGmPkr53mrgAGPNPupuD5eAN8qEvTKD3FDuKkdvHgf5Z28J4fzsTco0_oOjFU8pHe-GlZFri9VzimhFF1K33cyUuUlbPRY_NjStpvkFf067x3IrsDTxq9nnnNVxFmLbQ4BVo59GVdL-daNoh4DaDTtsi3uuULw_RmtbElaGNuOgPwoVNYPpcoJGVpmJbWN2kDy554DkxEusbifzkh09W-CH_K8l6LYdHkgYuuflYjgsLYnNg_UIXk8j7e9QxSXIGCtZUdbvFtfOaUc6DRqNenZ6xYu5OwAVKqQP1ngO-jo8DJ7K1EVXROWuorkJKjxd4olMaOoMqfCar6etR5nDulBhFallJ6A3K83vNN0BDUA1YPNxLEjLsDLvU0nEOtNHGVWCf-v67zKEk0ItOviLstm3iBwKzi5ZHRlEHdm473jX01RY6WYGsEdPrkwDRETujDyJOMDlFFiYdpzIhP33GqNxyvj3aFA6n1Lveqn5TZ3Zl6_RTAn4qd9VffEa6_Vd6VBWc2qE8RfehO_Qb3XDHGCcJOg6jWc9pa3yZlfPQPhkNAb2YH-1usXbJe4nPfx6zkcU9GSfwErOEKjtbPwn8A8l4i3Pj0E6OQk2HLww2O6IBuzcSQoCfwkvSfdbXx3EIPyU_ecAJfAXid9TBWMCCTgthrpEKGns8CRQbpVP1I9zwEncld6gzmr4IINyGBdYBSd5WZVYUTNZi0A4vpPnOlyUT8DxNZgA9b5NmVPkOcJvNpeCC2jOgMmV1ZzT7oM_hByIx3TK2di3HdWShJJlotq1y3h9b55F-H5qlL9YZ-nU9UyOqigTrdpEG0rDBlak-ATd2GjU_4c8c-bIdTVm2fHhWfZbi4ACbmz1qi9R_U1h9JQwW8l8wwjZbaXfwqEMYgWhGvP9PcjZheHaIoXKoAF9SngAsD90FDaiGIqJ15BE6MgrWHkHWXBi0eQMCv-eG2MEYnANobwNlNA7AIL1ApocxNERfbT_FiAL3-Qrm9buNzBqy_0QsdPw0Up-QcIj5R59-5HCvfIrfNgJdEJSiww8odaVrropSfwovptScrQInQfy9RCIYovPsPUveebw1AoIZc1XP0bqiSz47-97R_4ZbzYnqCNEyuvrkQNfns2ErXRtyqNkpkxhruqcmCmjBdpv59S2zoeKL_CS44D6yDJvydnUOTe6IhCYsSFbRtzyFEdpYTwGqal5DRkBUa683uTV4u6yCZVC2M59Uvy-d8wDNYzrzXd1XiPXKJ8brCdUJuEXIkjLFAMN5uSDTuu7NmCGupzBG61TpxYgZkSw_y7]--></g></svg>