<svg xmlns="http://www.w3.org/2000/svg" xmlns:xlink="http://www.w3.org/1999/xlink" contentStyleType="text/css" data-diagram-type="MINDMAP" height="127px" preserveAspectRatio="none" style="width:996px;height:127px;" version="1.1" viewBox="0 0 996 127" width="996px" zoomAndPan="magnify"><defs/><g><polygon fill="#4051B5" points="368.6855,44.4453,368.6855,44.6555,378.8953,44.031,389.105,44.6386,399.3148,44.845,409.5245,43.7319,419.7343,44.3676,429.944,44.0188,440.1538,44.0618,450.3635,44.3772,460.5733,43.7539,470.783,44.999,480.9928,43.815,491.2025,44.2475,501.4123,44.8773,511.622,44.3595,521.8318,44.5136,532.0415,44.4134,542.2513,44.6238,552.461,44.6844,562.6708,45.031,572.8805,45.1164,583.0903,45.1246,593.3,44.6999,603.5098,44.4453,603.5689,44.5881,604.165,44.8959,604.5491,44.6918,605.2934,45.3572,605.7347,45.2913,606.3382,45.6169,606.5026,45.685,606.4201,46.1194,606.7857,46.7395,607.2695,47.4085,607.2604,47.8734,607.5098,48.4453,607.5449,48.4453,607.6226,54.1047,607.6485,59.7641,607.5085,65.4234,607.6055,71.0828,607.5098,76.7422,607.3335,76.6692,607.363,77.3441,607.21,77.9435,606.9437,78.4959,606.7613,79.0831,606.3382,79.5706,606.2766,79.4218,605.6893,79.6041,605.1276,79.8479,604.6336,80.2554,604.0504,80.4474,603.5098,80.7422,603.5098,81.4236,593.3,80.5675,583.0903,80.3991,572.8805,80.9705,562.6708,80.0753,552.461,80.2231,542.2513,81.3911,532.0415,81.1779,521.8318,81.4767,511.622,80.4204,501.4123,81.0614,491.2025,81.3326,480.9928,80.2698,470.783,80.6463,460.5733,80.8682,450.3635,81.3939,440.1538,80.738,429.944,81.2048,419.7343,80.1884,409.5245,80.0649,399.3148,81.2458,389.105,80.0252,378.8953,81.2511,368.6855,80.7422,368.7119,80.8058,368.0857,80.4254,367.509,80.1646,367.047,80.1805,366.3846,79.7127,365.8571,79.5706,366.0394,79.6461,365.4526,78.9344,365.5786,78.518,365.3033,77.9353,364.9953,77.3391,364.6855,76.7422,364.7013,76.7422,364.9278,71.0828,364.8901,65.4234,364.742,59.7641,364.7749,54.1047,364.6855,48.4453,364.6454,48.4287,365.1405,47.971,365.2019,47.3337,365.4416,46.7703,365.4355,46.105,365.8571,45.6169,365.8054,45.4921,366.4905,45.546,367.0433,45.2806,367.5487,44.9007,368.0788,44.5804,368.6855,44.4453" style="stroke:#FF6F00;stroke-width:1.5;"/><a href="/use-case/construction-project-quotations/supply-chain-and-subcontractors/" target="_top" title="/use-case/construction-project-quotations/supply-chain-and-subcontractors/" xlink:actuate="onRequest" xlink:href="/use-case/construction-project-quotations/supply-chain-and-subcontractors/" xlink:show="new" xlink:title="/use-case/construction-project-quotations/supply-chain-and-subcontractors/" xlink:type="simple"><text fill="#90EE90" font-family="'Roboto'" font-size="14" lengthAdjust="spacing" textLength="218.374" x="374.6855" y="67.4404">Supply Chain &amp; Subcontractors</text></a><a href="/use-case/construction-project-quotations/supply-chain-and-subcontractors/supplier-rfqs-and-material-pricing/" target="_top" title="/use-case/construction-project-quotations/supply-chain-and-subcontractors/supplier-rfqs-and-material-pricing/" xlink:actuate="onRequest" xlink:href="/use-case/construction-project-quotations/supply-chain-and-subcontractors/supplier-rfqs-and-material-pricing/" xlink:show="new" xlink:title="/use-case/construction-project-quotations/supply-chain-and-subcontractors/supplier-rfqs-and-material-pricing/" xlink:type="simple"><text fill="#90EE90" font-family="'Roboto'" font-size="14" lengthAdjust="spacing" textLength="226.8027" x="664.5098" y="27.9951">Supplier RFQs &amp; Material Pricing</text></a><path d="M607.5098,62.5938 L607.5098,62.7806 L609.5098,62.2255 L611.5098,62.7656 L613.5098,62.949 L615.5098,61.9596 L617.5098,62.5938 L617.5098,62.5938 L617.4901,62.5653 L619.1832,61.2052 L620.9753,59.9883 L622.8363,58.8708 L624.4599,57.4104 L626.416,56.4304 L626.6405,56.5313 L627.3793,53.6037 L628.7733,50.9707 L630.2474,48.3735 L631.2562,45.5673 L632.5098,42.8711 L632.5374,42.8835 L633.7156,40.1534 L635.0196,37.4799 L636.263,34.7791 L637.6222,32.1303 L638.6035,29.3118 L638.7732,29.557 L640.5566,28.3273 L642.2304,26.9395 L644.0645,25.7832 L645.9061,24.6377 L647.5098,23.1484 L647.5098,22.5074 L649.5098,23.7516 L651.5098,22.8849 L653.5098,23.6229 L655.5098,22.7084 L657.5098,23.1484" fill="none" style="stroke:#FF9900;stroke-width:1;"/><a href="/use-case/construction-project-quotations/supply-chain-and-subcontractors/subcontractor-scope-packages/" target="_top" title="/use-case/construction-project-quotations/supply-chain-and-subcontractors/subcontractor-scope-packages/" xlink:actuate="onRequest" xlink:href="/use-case/construction-project-quotations/supply-chain-and-subcontractors/subcontractor-scope-packages/" xlink:show="new" xlink:title="/use-case/construction-project-quotations/supply-chain-and-subcontractors/subcontractor-scope-packages/" xlink:type="simple"><text fill="#90EE90" font-family="'Roboto'" font-size="14" lengthAdjust="spacing" textLength="216.8633" x="664.5098" y="54.292">Subcontractor Scope Packages</text></a><path d="M607.5098,62.5938 L607.5098,62.7806 L609.5098,62.2255 L611.5098,62.7656 L613.5098,62.949 L615.5098,61.9596 L617.5098,62.5938 L617.5098,62.5938 L617.4959,62.5621 L620.4337,61.1053 L623.4413,59.808 L626.4976,58.6215 L629.3864,57.0529 L632.5098,56.0195 L632.6085,56.2449 L635.3973,54.4481 L638.4745,53.3093 L641.5868,52.2508 L644.4945,50.7252 L647.5098,49.4453 L647.5098,49.506 L649.5098,49.4169 L651.5098,49.604 L653.5098,49.6579 L655.5098,49.9659 L657.5098,49.4453" fill="none" style="stroke:#FF9900;stroke-width:1;"/><a href="/use-case/construction-project-quotations/supply-chain-and-subcontractors/subcontractor-bid-solicitation-and-comparison/" target="_top" title="/use-case/construction-project-quotations/supply-chain-and-subcontractors/subcontractor-bid-solicitation-and-comparison/" xlink:actuate="onRequest" xlink:href="/use-case/construction-project-quotations/supply-chain-and-subcontractors/subcontractor-bid-solicitation-and-comparison/" xlink:show="new" xlink:title="/use-case/construction-project-quotations/supply-chain-and-subcontractors/subcontractor-bid-solicitation-and-comparison/" xlink:type="simple"><text fill="#90EE90" font-family="'Roboto'" font-size="14" lengthAdjust="spacing" textLength="311.7393" x="664.5098" y="80.5889">Subcontractor Bid Solicitation &amp; Comparison</text></a><path d="M607.5098,62.5938 L607.5098,62.7806 L609.5098,62.2255 L611.5098,62.7656 L613.5098,62.949 L615.5098,61.9596 L617.5098,62.5938 L617.5098,62.5938 L617.4959,62.5621 L620.4337,63.735 L623.4413,65.0673 L626.4976,66.5105 L629.3864,67.5717 L632.5098,69.168 L632.6085,69.3933 L635.3973,70.2262 L638.4745,71.7172 L641.5868,73.2883 L644.4945,74.3924 L647.5098,75.7422 L647.5098,75.8028 L649.5098,75.7138 L651.5098,75.9009 L653.5098,75.9548 L655.5098,76.2628 L657.5098,75.7422" fill="none" style="stroke:#FF9900;stroke-width:1;"/><a href="/use-case/construction-project-quotations/supply-chain-and-subcontractors/bid-leveling/" target="_top" title="/use-case/construction-project-quotations/supply-chain-and-subcontractors/bid-leveling/" xlink:actuate="onRequest" xlink:href="/use-case/construction-project-quotations/supply-chain-and-subcontractors/bid-leveling/" xlink:show="new" xlink:title="/use-case/construction-project-quotations/supply-chain-and-subcontractors/bid-leveling/" xlink:type="simple"><text fill="#90EE90" font-family="'Roboto'" font-size="14" lengthAdjust="spacing" textLength="257.6875" x="664.5098" y="106.8857">Bid Leveling &amp; Comparative Analysis</text></a><path d="M607.5098,62.5938 L607.5098,62.7806 L609.5098,62.2255 L611.5098,62.7656 L613.5098,62.949 L615.5098,61.9596 L617.5098,62.5938 L617.5098,62.5938 L617.4901,62.5653 L619.1832,63.6705 L620.9753,64.9189 L622.8363,66.2668 L624.4599,67.2717 L626.416,68.7571 L626.6405,68.8579 L627.3793,71.3541 L628.7733,74.1448 L630.2474,76.9714 L631.2562,79.5889 L632.5098,82.3164 L632.5374,82.3288 L633.7156,85.0225 L635.0196,87.7727 L636.263,90.4956 L637.6222,93.2706 L638.6035,95.8757 L638.7732,96.121 L640.5566,97.3566 L642.2304,98.4341 L644.0645,99.7432 L645.9061,101.063 L647.5098,102.0391 L647.5098,101.398 L649.5098,102.6422 L651.5098,101.7755 L653.5098,102.5136 L655.5098,101.599 L657.5098,102.0391" fill="none" style="stroke:#FF9900;stroke-width:1;"/><a href="/use-case/construction-project-quotations/" target="_top" title="/use-case/construction-project-quotations/" xlink:actuate="onRequest" xlink:href="/use-case/construction-project-quotations/" xlink:show="new" xlink:title="/use-case/construction-project-quotations/" xlink:type="simple"><text fill="#90EE90" font-family="'Roboto'" font-size="14" lengthAdjust="spacing" textLength="289.2354" x="14" y="67.4404">Complex Construction Project Quotations</text></a><path d="M364.6855,62.5938 L364.6855,62.7806 L362.6855,62.2255 L360.6855,62.7656 L358.6855,62.949 L356.6855,61.9596 L354.6855,62.5938 L354.6855,62.5938 L354.6855,62.5592 L348.6855,62.4042 L342.6855,62.4233 L336.6855,62.5635 L330.6855,62.2865 L324.6855,62.5938 L324.6855,63.0859 L322.6855,62.0335 L320.6855,62.418 L318.6855,62.9777 L316.6855,62.5175 L314.6855,62.5938" fill="none" style="stroke:#FF9900;stroke-width:1;"/><!--SRC=[xLXjJzj84FxkNx5NfACLvq8ug5fKLII1q492qWGgdQeARUn9ieUpQtRNeRdJ_VSRst6oSTv3pC49FX7liyyyCnxlpionqbJgBkDkb_gMzOiBBSQ15CvkAlalbpV5QhbQ9z7Vri7UOQvvQ48QfyNgvKc-_iS0DmLIonSlycUdGw89IBL-SbetxP2jLkjTQszl22bLBw_6014a_BCiTSkuJoNjaYPrRjjI1Dmj2a_81AWbvGeHmBK1_jptGPOPlpMnPCjZxOvkIm1kMTk4SSSBN22w0wGD72Jro912aHPkR0hT-Or4smZbBd6flCMTMX3H0talcGPoptGdvc0zu4I1reotLJe2Lv-_52ykJniDaiFN87pD12ST90rPD6viKK-1uKEDkYuIaGFZMJtsNw9OyjvutkXGLzo7w3HB50aF8t7DtUWV640Cp0cqQE1fyhTL4bnVqYwGLtM1lejNqPCuYAFN53riiB-0v0wiVqocl9JY7dccxfXEe_iUnaXuxZYJZw-Rjc6WQM9h8PKDO_bi5OH4PmShHWAYYP45BjnLwCSIVJaBZkZwWcDcefar1KzL5ySiw7hxup5pgQPDgc33viPiE9u8t4mD2Cy39_mwrCRDZAmK4I25bw65GaX9PJz34wTSCvsb0SOro1Pr84CR3RWBW3jGmskAESodNCTaLntct79G2W_C4LmDuAZ8t35Nt0Jr59q6PdGiSI6xr4klJRXJPYt0omPcaWy1SsL6X-S4UVHq9dEqEbLKj3AAuUzMtj52Bb0GGMRQ2bTdVS3Rf7X0mgZX9OG_jXR-cT-yn0-UyhO77p_YRQK4__G9tsy3am-4nWjivksngNiXdN7fEtlyY3BamayKoQbtitdTgU8h0_6ghpHqdr-iDwyxerWd5_Bp2FL8xVEBj94cpS756wjE5SRZNaGrxDxYQcyjt-Sx5bymBbKTS9VnTQgh3XgcUA_8PNt5Udr-AcNWwVnNQ5xjckffbKRIKewC9-rXNcl9ce66oILJLD9mfWfPgbJ6rhP99MwyYVB1OItce9Fn5JdHXoolOw5hT5H8R9LA7pxWUchHhAqiQuTy_qvs0mMsWv__BcQLqZA8Qd3Rb-9FJ3ZxBX3uUiAgV5S5lk_rRQU3gMTZ0skhe1bcegHXWQ1sIIC2a6888B_YJtEP_FXXxUpSRDPajCv0sh9rfo905tD9CkeX6vPkl3rGXHXIBtrLAAioG91QZCX8cF7JLexmmHwqjb6WZ5NI25UnxOzN7q5Eao50UEXzl3_Q4JQjL38iPjBw2imb3GEECImEmPd83GLwq0ClUe6X_VBWrz0sClM0vF6owYiM1SssLrGHCNdmCsmAXq3CYWX8lWw18VanuFUS3DEEnsTh6Gwhdl1OA3cLbfm9cV0f12jCWuR7uOo3S_enEMV-yr32UUEUUHoJ2jOOyAncOAcHpaCevmvnLYLUPcopFkUSGStwf3D7C-jJpXl6hC-QoVWbaJDZy98eMtdcaZWmRU2IaCwQjIIQZ2dBiB1BZrWIhjHqPGo_SBGoD9WUgWpPn-SfneUqrcXazicwIhPCllo7ZZuUMzU2dlK_2zDJqBNqGEAHrJof86rqbf3eMD6RcQhdpWroMGuADkr9Alx_wq70IxV_qks_TFlFkzklULYBNbVAf8VrJhWdztP_R__mRIxN14rpUw-l-IqNzppg0naUqffruOtr-gnM9ae44ejcbwduvC3jRwnpsgEa7l0GTqIgFl3paula0NOGFIO5xuQpWlDlbH7WtO5TO1eBTub2oBUAbVJffzmHuMZWY5nVbUptLXaF_m2JwuW0n-uRUMKVrnh_0W00]--></g></svg>