<svg xmlns="http://www.w3.org/2000/svg" xmlns:xlink="http://www.w3.org/1999/xlink" contentStyleType="text/css" data-diagram-type="MINDMAP" height="122px" preserveAspectRatio="none" style="width:937px;height:122px;" version="1.1" viewBox="0 0 937 122" width="937px" zoomAndPan="magnify"><defs/><g><polygon fill="#4051B5" points="347.708,42.6992,347.708,42.9094,357.6584,42.2849,367.6088,42.8925,377.5591,43.0989,387.5095,41.9858,397.4599,42.6215,407.4102,42.2727,417.3606,42.3157,427.311,42.6311,437.2614,42.0078,447.2117,43.2529,457.1621,42.0689,467.1125,42.5015,477.0629,43.1312,487.0132,42.6134,496.9636,42.7675,506.914,42.6673,516.8643,42.8777,526.8147,42.9384,536.7651,43.2849,546.7155,43.3703,556.6658,43.3785,566.6162,42.6992,566.6487,42.7776,567.241,43.0763,567.8372,43.3841,568.2213,43.1801,568.9655,43.8454,569.4446,43.8708,569.3533,43.833,569.8433,44.5046,569.7608,44.939,570.1265,45.5591,570.6103,46.2281,570.6162,46.6992,570.6,46.6992,570.6513,52.1258,570.7291,57.5523,570.755,62.9789,570.6149,68.4055,570.6162,73.832,570.7047,73.8687,570.2056,74.3247,570.2352,74.9997,570.0821,75.599,569.8159,76.1515,569.4446,76.6605,569.5228,76.8492,568.8173,76.746,568.2301,76.9282,567.6683,77.172,567.1744,77.5796,566.6162,77.832,566.6162,77.6355,556.6658,78.5134,546.7155,77.6574,536.7651,77.489,526.8147,78.0603,516.8643,77.1652,506.914,77.3129,496.9636,78.481,487.0132,78.2677,477.0629,78.5665,467.1125,77.5102,457.1621,78.1512,447.2117,78.4225,437.2614,77.3596,427.311,77.7362,417.3606,77.958,407.4102,78.4838,397.4599,77.8278,387.5095,78.2946,377.5591,77.2782,367.6088,77.1548,357.6584,78.3356,347.708,77.832,347.6166,77.6112,347.2072,77.7545,346.603,77.427,345.9768,77.0466,345.4001,76.7858,344.8796,76.6605,345.0209,76.719,344.5531,76.0566,344.5932,75.6046,344.0064,74.8929,344.1325,74.4765,343.708,73.832,343.8694,73.832,343.7897,68.4055,343.7237,62.9789,343.9502,57.5523,343.9125,52.1258,343.708,46.6992,343.7601,46.7208,344.0249,46.1677,344.1365,45.5512,344.6316,45.0936,344.693,44.4562,344.8796,43.8708,344.9016,43.9239,345.3677,43.4491,345.9593,43.2774,346.6443,43.3313,347.1971,43.0659,347.708,42.6992" style="stroke:#FF6F00;stroke-width:1.5;"/><a href="/use-case/construction-project-quotations/supply-chain-and-subcontractors/" target="_top" title="/use-case/construction-project-quotations/supply-chain-and-subcontractors/" xlink:actuate="onRequest" xlink:href="/use-case/construction-project-quotations/supply-chain-and-subcontractors/" xlink:show="new" xlink:title="/use-case/construction-project-quotations/supply-chain-and-subcontractors/" xlink:type="simple"><text fill="#4051B5" font-family="'Roboto'" font-size="13" lengthAdjust="spacing" textLength="202.7759" x="353.708" y="64.7661">Supply Chain &amp; Subcontractors</text></a><a href="/use-case/construction-project-quotations/supply-chain-and-subcontractors/supplier-rfqs-and-material-pricing/" target="_top" title="/use-case/construction-project-quotations/supply-chain-and-subcontractors/supplier-rfqs-and-material-pricing/" xlink:actuate="onRequest" xlink:href="/use-case/construction-project-quotations/supply-chain-and-subcontractors/supplier-rfqs-and-material-pricing/" xlink:show="new" xlink:title="/use-case/construction-project-quotations/supply-chain-and-subcontractors/supplier-rfqs-and-material-pricing/" xlink:type="simple"><text fill="#4051B5" font-family="'Roboto'" font-size="13" lengthAdjust="spacing" textLength="210.6025" x="627.6162" y="27.0669">Supplier RFQs &amp; Material Pricing</text></a><path d="M570.6162,60.2656 L570.6162,60.4525 L572.6162,59.8973 L574.6162,60.4374 L576.6162,60.6209 L578.6162,59.6315 L580.6162,60.2656 L580.6162,60.2656 L580.5972,60.2368 L582.2929,58.9294 L584.0847,57.7673 L585.9433,56.7061 L587.5717,55.2969 L589.5225,54.3751 L589.7451,54.4798 L590.4877,51.6641 L591.8804,49.1541 L593.3524,46.6814 L594.363,43.9916 L595.6162,41.416 L595.6437,41.4289 L596.8221,38.8182 L598.1255,36.2661 L599.3686,33.6858 L600.7268,31.1595 L601.71,28.4569 L601.8745,28.7057 L603.6577,27.5306 L605.3349,26.1951 L607.1674,25.0945 L609.0071,24.0048 L610.6162,22.5664 L610.6162,21.9254 L612.6162,23.1695 L614.6162,22.3028 L616.6162,23.0409 L618.6162,22.1264 L620.6162,22.5664" fill="none" style="stroke:#FF6F00;stroke-width:1;"/><a href="/use-case/construction-project-quotations/supply-chain-and-subcontractors/subcontractor-scope-packages/" target="_top" title="/use-case/construction-project-quotations/supply-chain-and-subcontractors/subcontractor-scope-packages/" xlink:actuate="onRequest" xlink:href="/use-case/construction-project-quotations/supply-chain-and-subcontractors/subcontractor-scope-packages/" xlink:show="new" xlink:title="/use-case/construction-project-quotations/supply-chain-and-subcontractors/subcontractor-scope-packages/" xlink:type="simple"><text fill="#4051B5" font-family="'Roboto'" font-size="13" lengthAdjust="spacing" textLength="201.373" x="627.6162" y="52.1997">Subcontractor Scope Packages</text></a><path d="M570.6162,60.2656 L570.6162,60.4525 L572.6162,59.8973 L574.6162,60.4374 L576.6162,60.6209 L578.6162,59.6315 L580.6162,60.2656 L580.6162,60.2656 L580.6029,60.2338 L583.543,58.8342 L586.5504,57.5951 L589.6045,56.4678 L592.4975,54.9556 L595.6162,53.9824 L595.7113,54.2094 L598.508,52.4674 L601.5823,51.3881 L604.6904,50.3896 L607.6015,48.9207 L610.6162,47.6992 L610.6162,47.7599 L612.6162,47.6708 L614.6162,47.8579 L616.6162,47.9118 L618.6162,48.2198 L620.6162,47.6992" fill="none" style="stroke:#FF6F00;stroke-width:1;"/><a href="/use-case/construction-project-quotations/supply-chain-and-subcontractors/subcontractor-bid-solicitation-and-comparison/" target="_top" title="/use-case/construction-project-quotations/supply-chain-and-subcontractors/subcontractor-bid-solicitation-and-comparison/" xlink:actuate="onRequest" xlink:href="/use-case/construction-project-quotations/supply-chain-and-subcontractors/subcontractor-bid-solicitation-and-comparison/" xlink:show="new" xlink:title="/use-case/construction-project-quotations/supply-chain-and-subcontractors/subcontractor-bid-solicitation-and-comparison/" xlink:type="simple"><text fill="#4051B5" font-family="'Roboto'" font-size="13" lengthAdjust="spacing" textLength="289.4722" x="627.6162" y="77.3325">Subcontractor Bid Solicitation &amp; Comparison</text></a><path d="M570.6162,60.2656 L570.6162,60.4525 L572.6162,59.8973 L574.6162,60.4374 L576.6162,60.6209 L578.6162,59.6315 L580.6162,60.2656 L580.6162,60.2656 L580.6029,60.2338 L583.543,61.3474 L586.5504,62.6217 L589.6045,64.0076 L592.4975,65.0088 L595.6162,66.5488 L595.7113,66.7758 L598.508,67.5471 L601.5823,68.981 L604.6904,70.4958 L607.6015,71.5402 L610.6162,72.832 L610.6162,72.8927 L612.6162,72.8036 L614.6162,72.9907 L616.6162,73.0446 L618.6162,73.3526 L620.6162,72.832" fill="none" style="stroke:#FF6F00;stroke-width:1;"/><a href="/use-case/construction-project-quotations/supply-chain-and-subcontractors/bid-leveling/" target="_top" title="/use-case/construction-project-quotations/supply-chain-and-subcontractors/bid-leveling/" xlink:actuate="onRequest" xlink:href="/use-case/construction-project-quotations/supply-chain-and-subcontractors/bid-leveling/" xlink:show="new" xlink:title="/use-case/construction-project-quotations/supply-chain-and-subcontractors/bid-leveling/" xlink:type="simple"><text fill="#4051B5" font-family="'Roboto'" font-size="13" lengthAdjust="spacing" textLength="239.2813" x="627.6162" y="102.4653">Bid Leveling &amp; Comparative Analysis</text></a><path d="M570.6162,60.2656 L570.6162,60.4525 L572.6162,59.8973 L574.6162,60.4374 L576.6162,60.6209 L578.6162,59.6315 L580.6162,60.2656 L580.6162,60.2656 L580.5972,60.2368 L582.2929,61.2856 L584.0847,62.4797 L585.9433,63.7747 L587.5717,64.7217 L589.5225,66.1561 L589.7451,66.2608 L590.4877,68.6287 L591.8804,71.3024 L593.3524,74.0133 L594.363,76.5072 L595.6162,79.1152 L595.6437,79.1281 L596.8221,81.701 L598.1255,84.3326 L599.3686,86.9359 L600.7268,89.5933 L601.71,92.0743 L601.8745,92.3231 L603.6577,93.5042 L605.3349,94.5249 L607.1674,95.7805 L609.0071,97.0471 L610.6162,97.9648 L610.6162,97.3238 L612.6162,98.568 L614.6162,97.7013 L616.6162,98.4393 L618.6162,97.5248 L620.6162,97.9648" fill="none" style="stroke:#FF6F00;stroke-width:1;"/><a href="/use-case/construction-project-quotations/" target="_top" title="/use-case/construction-project-quotations/" xlink:actuate="onRequest" xlink:href="/use-case/construction-project-quotations/" xlink:show="new" xlink:title="/use-case/construction-project-quotations/" xlink:type="simple"><text fill="#4051B5" font-family="'Roboto'" font-size="13" lengthAdjust="spacing" textLength="268.5757" x="14" y="64.7661">Complex Construction Project Quotations</text></a><path d="M343.708,60.2656 L343.708,60.4525 L341.708,59.8973 L339.708,60.4374 L337.708,60.6209 L335.708,59.6315 L333.708,60.2656 L333.708,60.2656 L333.708,60.2311 L327.708,60.0761 L321.708,60.0952 L315.708,60.2353 L309.708,59.9583 L303.708,60.2656 L303.708,60.7578 L301.708,59.7054 L299.708,60.0898 L297.708,60.6496 L295.708,60.1894 L293.708,60.2656" fill="none" style="stroke:#FF6F00;stroke-width:1;"/><!--SRC=[xLXjZzCu4FwUN-5ZfGC4ORUm88GGejlTvQsxBUqkfnD2ApTnMz-wTh2TBhtJ_VSRkqdhf4twiYa74ltKnEDddXaxzippMcaizOZoS8GZp_ij97tA2JfwStLMVtT-rMWrMnraVtk71qzhlQUkIVUaqJe_hdV-JEoMcBJhZG_rDoSpe0MJLkVufEFwGNlz_hF-mS7CvBHrVf4ni2RcDpEfTpgjFx8sAOgdhYcFiCGZrCF1zK2Ac8SDmOH4UrfYhc2CSEsOlPr4H3BAhnEhXB5t5r4Ui3WaI0y96X1E96PeDa-XFbZtX1u-H8mEXXfX7g8GoskOgGKIOo9l9DK4tL0zd6BGCU584Qqf7wXyJYxUlcjyE3_fTb4D5aP4cWgEXW1gK3HCx6EcY4EyZSCGWD2Xywup3LS2MVJSUTyTub3S6EiyoYpyInxQFoGnSMoEIH_7JAD_l5F1zJaU4NId8o1sSSU-cMPkld3sPPV-JL3jqFlNHQfBAMu0P-cCvJ1wmY17WeLPf0XM5mz8mcbXwb5kyJCxt3iI4e9DHfmj2Ixc7hW8Du7FRFtrF0HY50aEsn7SR4buARjfpk8HUvpDMOWrxc55AdQNyH4m4OSxTI0O8u7vEbJbRkPU6c0W1TkXXoC3YULaXovEkAPwbmuerqJsSK1swADBliQ41wGD5nSDQ8Ivde9T36bmpObIS63EpLLY3epS6QNa5g2Ny7HiviSI5tA4MNvi8PmcxPCcdAo5u3E3Kfhsy5m0jsyBaUteKb9sP9x39ruzq4AkO61D2dsPqQ8F-2vg72AJDRY4u65lvS_zvYLyy9WF67dv4cuh9VYhLx2-NTXyH6Yum0flZwhkXVoEoz_PsIFAeKk-0KcEsLNrl7Fbs0x8gudIPFJpvRfwtZlATNeX_nofdhFz-JBjR9DUSl5EMUSAusmKjeOzM5tjRHLxUM3J2oR4QaZ2TM9T6ce0ZZ7SAtBTMA5UBzzAEuYqV0atRaFI1cuUqvFf_TE2ZanIgEd31CSqS4ahR8jzXNmqYfKsTJb1k0-XfZvpRO7ZBMbD2tiSfrSj8kcM4lDav6ftQDprwZ9h-KsljQIzM9FYEc2HQqa3awdsiLBRiIfpS1UT9UkY8XBGFWqWVbiwm1BT34rNhU4CWlfJcGMrY_SGzLXCOEqu9wOGKKZ4sWmljdGLivtZusnD1Osyzm1z_epsOqNy08xEVQ2dj8nj_-97Klm5NFsliO3LDHtDlegZY4tyO0YVhG_Dlw_YdlcA9ROnxQEkDK0DOu1-XqTt67tvuZruS5MjIpjEYVHb_wko1YFOYf9Y1cXGzl91mWfiKEVqem9QPua5QayjTaJCUVHL82BY9xA0JPGpYhfc5BMJqUz0fqV1G328VZhVpZ0DFvOK2i4yloCQegvZ3Zbip8ntGjSGP6HCc5r0ux-PFCry0zAOe3fSz1D5RT9yVqCM5ecHRwQXdXd2hh26wEFCq82_9l3DfzBawwnIMPskzmChQEbbigPyvfel0TX0E4ldvG_6D6dkwPSghQLIsMq1ovInCen51bjeOPivM4lzkWragTwrAV0w2jVsc2MQrlQWXIhMzf1bkjNsg3jHgb8w1HfLocnZUIeDO9asbO8MoL8f9wTqJE4MrAWKAoT4PUnNgb0pXtdzQOQUbPwS3sah5QduPDrajomk_crLek_DQqLx_x-bwKVWjRPsyvtP_519gbHsINbi64qXwrA9fRPBJQNgI7BvhqepsLhqM79VLYPuk4YvksHHvyXSCyioboz1rz0sYWciX2pG7sw1-4jn-AKu_58SAb4SsWmAvCkp9Xf34MRcr1uzFdZyz56jrYCQrmxkNV9hBcwuRKufd62QZiXzxzwRTXCf4Kkev4EgfaSGJB_llSTZZ3enDtOlK2iY_FtnX_G5j3LZAWKV6TNY_QUpkS6pG_-8QkWc9111dywyz0m_uO4mUiKBT7bnwZ_tcd0ZnR2vNY32uU05N3c1iUv_]--></g></svg>