<svg xmlns="http://www.w3.org/2000/svg" xmlns:xlink="http://www.w3.org/1999/xlink" contentStyleType="text/css" data-diagram-type="MINDMAP" height="262px" preserveAspectRatio="none" style="width:594px;height:262px;" version="1.1" viewBox="0 0 594 262" width="594px" zoomAndPan="magnify"><defs/><g><a href="/use-case/legal-entity-management/" target="_top" title="/use-case/legal-entity-management/" xlink:actuate="onRequest" xlink:href="/use-case/legal-entity-management/" xlink:show="new" xlink:title="/use-case/legal-entity-management/" xlink:type="simple"><text fill="#90EE90" font-family="'Roboto'" font-size="14" lengthAdjust="spacing" textLength="179.7646" x="17" y="135.0342">Legal Entity Management</text></a><a href="/use-case/legal-entity-management/identification-and-registration/" target="_top" title="/use-case/legal-entity-management/identification-and-registration/" xlink:actuate="onRequest" xlink:href="/use-case/legal-entity-management/identification-and-registration/" xlink:show="new" xlink:title="/use-case/legal-entity-management/identification-and-registration/" xlink:type="simple"><text fill="#90EE90" font-family="'Roboto'" font-size="14" lengthAdjust="spacing" textLength="196.6631" x="262.2148" y="27.9951">Identification &amp; Registration</text></a><path d="M205.2148,130.1875 L205.2148,130.3743 L207.2148,129.8192 L209.2148,130.3593 L211.2148,130.5428 L213.2148,129.5534 L215.2148,130.1875 L215.2148,130.1875 L215.1844,130.1713 L216.8288,126.7534 L218.6269,123.4174 L220.5319,120.1383 L222.0686,116.6632 L224.1211,113.4626 L224.3629,113.5081 L224.4903,109.9823 L225.3238,106.5892 L226.2434,103.2123 L226.6618,99.7412 L227.3438,96.3197 L227.3738,96.3241 L227.9039,92.3873 L228.5707,88.4705 L229.1716,84.544 L229.8982,80.6359 L230.2148,76.668 L230.51,76.7111 L231.0878,72.7813 L231.4753,68.8236 L232.1414,64.9067 L232.8205,60.9917 L233.0859,57.0163 L232.7709,56.957 L234.0268,53.6434 L234.2455,50.1347 L235.2527,46.7743 L235.4478,43.2612 L236.3086,39.8733 L236.2817,39.859 L238.3808,36.6832 L239.852,33.1732 L241.6937,29.8604 L243.5664,26.5641 L245.2148,23.1484 L245.2148,23.5184 L247.2148,23.145 L249.2148,23.4037 L251.2148,22.6396 L253.2148,23.4012 L255.2148,23.1484" fill="none" style="stroke:#FF9900;stroke-width:1;"/><a href="/use-case/legal-entity-management/corporate-governance/" target="_top" title="/use-case/legal-entity-management/corporate-governance/" xlink:actuate="onRequest" xlink:href="/use-case/legal-entity-management/corporate-governance/" xlink:show="new" xlink:title="/use-case/legal-entity-management/corporate-governance/" xlink:type="simple"><text fill="#90EE90" font-family="'Roboto'" font-size="14" lengthAdjust="spacing" textLength="159.1406" x="262.2148" y="54.292">Corporate Governance</text></a><path d="M205.2148,130.1875 L205.2148,130.3743 L207.2148,129.8192 L209.2148,130.3593 L211.2148,130.5428 L213.2148,129.5534 L215.2148,130.1875 L215.2148,130.1875 L215.1866,130.1676 L216.8412,127.555 L218.6381,125.0428 L220.5338,122.6005 L222.0888,119.9175 L224.1211,117.5715 L224.3599,117.631 L224.4938,114.9175 L225.3249,112.3777 L226.241,109.8591 L226.6622,107.2172 L227.3438,104.6402 L227.3735,104.6459 L227.904,101.6727 L228.5701,98.7258 L229.1707,95.7661 L229.8962,92.8307 L230.2148,89.8164 L230.5076,89.8731 L231.0854,86.9091 L231.4744,83.9084 L232.1398,80.9613 L232.8181,78.0167 L233.0859,74.9926 L232.7749,74.9151 L234.0231,72.4793 L234.2471,69.7882 L235.2497,67.2912 L235.4506,64.5944 L236.3086,62.0613 L236.2837,62.0437 L238.3591,59.7282 L239.8534,57.0024 L241.6906,54.5187 L243.5565,52.0553 L245.2148,49.4453 L245.2148,49.8153 L247.2148,49.4418 L249.2148,49.7006 L251.2148,48.9365 L253.2148,49.6981 L255.2148,49.4453" fill="none" style="stroke:#FF9900;stroke-width:1;"/><a href="/use-case/legal-entity-management/ownership-and-capital-structure/" target="_top" title="/use-case/legal-entity-management/ownership-and-capital-structure/" xlink:actuate="onRequest" xlink:href="/use-case/legal-entity-management/ownership-and-capital-structure/" xlink:show="new" xlink:title="/use-case/legal-entity-management/ownership-and-capital-structure/" xlink:type="simple"><text fill="#90EE90" font-family="'Roboto'" font-size="14" lengthAdjust="spacing" textLength="213.4453" x="262.2148" y="80.5889">Ownership &amp; Capital Structure</text></a><path d="M205.2148,130.1875 L205.2148,130.3743 L207.2148,129.8192 L209.2148,130.3593 L211.2148,130.5428 L213.2148,129.5534 L215.2148,130.1875 L215.2148,130.1875 L215.191,130.1625 L216.8652,128.349 L218.6596,126.6614 L220.5377,125.0613 L222.1276,123.1596 L224.1211,121.6804 L224.3551,121.7566 L225.0735,117.8506 L226.475,114.167 L227.9599,110.5105 L228.9598,106.6962 L230.2148,102.9648 L230.2437,102.9742 L231.4201,99.2173 L232.7278,95.5032 L233.9722,91.7684 L235.3374,88.073 L236.3086,84.2493 L236.5146,84.4649 L238.2984,82.7662 L239.9493,80.9283 L241.7947,79.294 L243.6492,77.6693 L245.2148,75.7422 L245.2148,75.1011 L247.2148,76.3453 L249.2148,75.4786 L251.2148,76.2167 L253.2148,75.3022 L255.2148,75.7422" fill="none" style="stroke:#FF9900;stroke-width:1;"/><a href="/use-case/legal-entity-management/financial-information/" target="_top" title="/use-case/legal-entity-management/financial-information/" xlink:actuate="onRequest" xlink:href="/use-case/legal-entity-management/financial-information/" xlink:show="new" xlink:title="/use-case/legal-entity-management/financial-information/" xlink:type="simple"><text fill="#90EE90" font-family="'Roboto'" font-size="14" lengthAdjust="spacing" textLength="148.0596" x="262.2148" y="106.8857">Financial Information</text></a><path d="M205.2148,130.1875 L205.2148,130.3743 L207.2148,129.8192 L209.2148,130.3593 L211.2148,130.5428 L213.2148,129.5534 L215.2148,130.1875 L215.2148,130.1875 L215.1996,130.1565 L216.9122,129.1379 L218.7019,128.2754 L220.5452,127.5214 L222.2038,126.3934 L224.1211,125.7893 L224.3293,125.9204 L225.1028,123.7048 L226.4842,121.8721 L227.9398,120.086 L228.9638,118.0282 L230.2148,116.1133 L230.2405,116.1294 L231.4216,114.1705 L232.7195,112.2852 L233.961,110.3643 L235.3101,108.5112 L236.3086,106.4373 L236.4407,106.7047 L238.2235,105.8283 L239.9212,104.7794 L241.7436,103.9831 L243.5718,103.1985 L245.2148,102.0391 L245.2148,101.398 L247.2148,102.6422 L249.2148,101.7755 L251.2148,102.5136 L253.2148,101.599 L255.2148,102.0391" fill="none" style="stroke:#FF9900;stroke-width:1;"/><a href="/use-case/legal-entity-management/lifecycle-and-status/" target="_top" title="/use-case/legal-entity-management/lifecycle-and-status/" xlink:actuate="onRequest" xlink:href="/use-case/legal-entity-management/lifecycle-and-status/" xlink:show="new" xlink:title="/use-case/legal-entity-management/lifecycle-and-status/" xlink:type="simple"><text fill="#90EE90" font-family="'Roboto'" font-size="14" lengthAdjust="spacing" textLength="125.8428" x="262.2148" y="133.1826">Lifecycle &amp; Status</text></a><path d="M205.2148,130.1875 L205.2148,130.3743 L207.2148,129.8192 L209.2148,130.3593 L211.2148,130.5428 L213.2148,129.5534 L215.2148,130.1875 L215.2148,130.1875 L215.2127,130.153 L218.2032,129.8132 L221.2043,129.6471 L224.213,129.6018 L227.1959,129.1402 L230.2148,129.2617 L230.23,129.5073 L233.1976,128.797 L236.2094,128.8037 L239.2267,128.8979 L242.2125,128.483 L245.2148,128.3359 L245.2148,128.3966 L247.2148,128.3075 L249.2148,128.4946 L251.2148,128.5485 L253.2148,128.8566 L255.2148,128.3359" fill="none" style="stroke:#FF9900;stroke-width:1;"/><a href="/use-case/legal-entity-management/contact-and-location-information/" target="_top" title="/use-case/legal-entity-management/contact-and-location-information/" xlink:actuate="onRequest" xlink:href="/use-case/legal-entity-management/contact-and-location-information/" xlink:show="new" xlink:title="/use-case/legal-entity-management/contact-and-location-information/" xlink:type="simple"><text fill="#90EE90" font-family="'Roboto'" font-size="14" lengthAdjust="spacing" textLength="219.4814" x="262.2148" y="159.4795">Contact &amp; Location Information</text></a><path d="M205.2148,130.1875 L205.2148,130.3743 L207.2148,129.8192 L209.2148,130.3593 L211.2148,130.5428 L213.2148,129.5534 L215.2148,130.1875 L215.2148,130.1875 L215.193,130.1607 L218.0951,132.4851 L221.1072,134.9444 L224.1957,137.4976 L227.0207,139.7274 L230.2148,142.4102 L230.3703,142.6009 L233.0379,144.6375 L236.1593,147.2311 L239.3361,149.8926 L242.1908,152.1587 L245.2148,154.6328 L245.2148,154.6935 L247.2148,154.6044 L249.2148,154.7915 L251.2148,154.8454 L253.2148,155.1534 L255.2148,154.6328" fill="none" style="stroke:#FF9900;stroke-width:1;"/><a href="/use-case/legal-entity-management/compliance-and-documentation/" target="_top" title="/use-case/legal-entity-management/compliance-and-documentation/" xlink:actuate="onRequest" xlink:href="/use-case/legal-entity-management/compliance-and-documentation/" xlink:show="new" xlink:title="/use-case/legal-entity-management/compliance-and-documentation/" xlink:type="simple"><text fill="#90EE90" font-family="'Roboto'" font-size="14" lengthAdjust="spacing" textLength="210.1504" x="262.2148" y="185.7764">Compliance &amp; Documentation</text></a><path d="M205.2148,130.1875 L205.2148,130.3743 L207.2148,129.8192 L209.2148,130.3593 L211.2148,130.5428 L213.2148,129.5534 L215.2148,130.1875 L215.2148,130.1875 L215.1919,130.1617 L216.8701,131.6316 L218.664,133.2316 L220.5385,134.922 L222.1355,136.3008 L224.1211,138.116 L224.3534,138.1971 L225.0754,141.5121 L226.4756,145.064 L227.9586,148.6449 L228.9601,152.0575 L230.2148,155.5586 L230.2435,155.5686 L231.4202,159.0424 L232.7272,162.5618 L233.9714,166.0592 L235.3356,169.5985 L236.3086,173.0012 L236.5069,173.224 L238.2906,174.8124 L239.9463,176.2571 L241.7893,177.9122 L243.6411,179.5771 L245.2148,180.9297 L245.2148,180.2886 L247.2148,181.5328 L249.2148,180.6661 L251.2148,181.4042 L253.2148,180.4897 L255.2148,180.9297" fill="none" style="stroke:#FF9900;stroke-width:1;"/><polygon fill="#4051B5" points="259.2148,204.0781,259.2148,204.2883,269.1693,203.6638,279.1237,204.2714,289.0781,204.4778,299.0326,203.3647,308.987,204.0004,318.9414,203.6516,328.8958,203.6946,338.8503,204.01,348.8047,203.3868,358.7591,204.6318,368.7135,203.4478,378.668,203.8804,388.6224,204.5101,398.5768,203.9923,408.5313,204.1464,418.4857,204.0462,428.4401,204.2567,438.3945,204.0781,438.425,204.1518,439.0349,204.4928,439.6115,204.7534,440.1782,204.9903,440.6898,205.0938,441.223,205.2497,441.3657,205.3088,441.6735,205.905,441.4695,206.2891,442.1349,207.0333,442.0689,207.4746,442.3945,208.0781,442.5725,208.0781,442.2295,213.7375,442.3717,219.3969,442.6417,225.0563,442.3783,230.7156,442.3945,236.375,442.427,236.3884,442.2645,236.9839,442.0541,237.5595,441.6904,238.0716,441.5457,238.6744,441.223,239.2034,441.1499,239.0271,440.6935,239.5253,440.1615,239.8409,439.5826,240.0433,439.0384,240.3295,438.3945,240.375,438.3945,239.8919,428.4401,239.7228,418.4857,239.7536,408.5313,240.3161,398.5768,240.1785,388.6224,241.0564,378.668,240.2003,368.7135,240.0319,358.7591,240.6033,348.8047,239.7082,338.8503,239.8559,328.8958,241.024,318.9414,240.8107,308.987,241.1095,299.0326,240.0532,289.0781,240.6942,279.1237,240.9654,269.1693,239.9026,259.2148,240.375,259.2026,240.3455,258.6652,240.1795,258.1666,240.1071,257.5173,239.6708,257.0111,239.5802,256.3864,239.2034,256.2159,239.1328,255.9435,238.5514,256.0729,238.1363,255.4627,237.4149,255.6059,237.0056,255.2148,236.375,255.2837,236.375,255.1255,230.7156,255.0969,225.0563,255.3678,219.3969,255.1151,213.7375,255.2148,208.0781,255.3971,208.1536,255.2789,207.4419,255.8736,207.0255,256.0669,206.4428,256.2275,205.8466,256.3864,205.2497,256.3924,205.2642,257.0448,205.2391,257.5961,204.97,258.1051,204.5989,258.6834,204.395,259.2148,204.0781" style="stroke:#FF6F00;stroke-width:1.5;"/><a href="/use-case/legal-entity-management/supporting-information/" target="_top" title="/use-case/legal-entity-management/supporting-information/" xlink:actuate="onRequest" xlink:href="/use-case/legal-entity-management/supporting-information/" xlink:show="new" xlink:title="/use-case/legal-entity-management/supporting-information/" xlink:type="simple"><text fill="#90EE90" font-family="'Roboto'" font-size="14" lengthAdjust="spacing" textLength="162.7295" x="265.2148" y="227.0732">Supporting Information</text></a><a href="/use-case/legal-entity-management/supporting-information/currencies/" target="_top" title="/use-case/legal-entity-management/supporting-information/currencies/" xlink:actuate="onRequest" xlink:href="/use-case/legal-entity-management/supporting-information/currencies/" xlink:show="new" xlink:title="/use-case/legal-entity-management/supporting-information/currencies/" xlink:type="simple"><text fill="#90EE90" font-family="'Roboto'" font-size="14" lengthAdjust="spacing" textLength="75.1406" x="499.3945" y="227.0732">Currencies</text></a><path d="M442.3945,222.2266 L442.3945,222.4134 L444.3945,221.8583 L446.3945,222.3984 L448.3945,222.5818 L450.3945,221.5924 L452.3945,222.2266 L452.3945,222.2266 L452.3945,222.192 L458.3945,222.037 L464.3945,222.0561 L470.3945,222.1963 L476.3945,221.9193 L482.3945,222.2266 L482.3945,222.7187 L484.3945,221.6663 L486.3945,222.0508 L488.3945,222.6105 L490.3945,222.1503 L492.3945,222.2266" fill="none" style="stroke:#FF9900;stroke-width:1;"/><path d="M205.2148,130.1875 L205.2148,130.3743 L207.2148,129.8192 L209.2148,130.3593 L211.2148,130.5428 L213.2148,129.5534 L215.2148,130.1875 L215.2148,130.1875 L215.1855,130.1693 L216.8349,132.9639 L218.6324,135.8502 L220.5328,138.8002 L222.0786,141.5306 L224.1211,144.5686 L224.3615,144.6212 L224.492,147.4569 L225.3243,150.4461 L226.2422,153.454 L226.662,156.353 L227.3438,159.3092 L227.3736,159.3143 L227.904,162.6864 L228.5704,166.0816 L229.1712,169.4657 L229.8973,172.8711 L230.2148,176.207 L230.5089,176.257 L231.0867,179.6372 L231.4748,182.9851 L232.1406,186.3802 L232.8194,189.7775 L233.0859,193.1048 L232.7728,193.0364 L234.0251,196.1174 L234.2463,198.9729 L235.2513,201.9999 L235.4491,204.8503 L236.3086,207.8455 L236.2827,207.8294 L238.3701,210.8952 L239.8527,213.5865 L241.6921,216.4988 L243.5615,219.4296 L245.2148,222.2266 L245.2148,222.5965 L247.2148,222.2231 L249.2148,222.4819 L251.2148,221.7177 L253.2148,222.4794 L255.2148,222.2266" fill="none" style="stroke:#FF9900;stroke-width:1;"/><!--SRC=[xLXjJzj84FxkNx5NfADLBoNXe6fHLH52Ge64e0GgdQeARUn9iegpw-wkuNAd- -ytQyUExRmw93quaK-mCtxccTctsUTOQIhra75dI3tB-iM1BkD0Jixk6kNpgxjAizviaU2tSr0yB7KEaoxjQgLvTLfk_J7sc-5oNQvSbi-gCT2KIxDrMcqbuv2TRlTzjrYCNMhDgvkKG-1YVfQb1enxLD8XwL1xq9F2vqv5k496ZbfIhj03k4uuVnbv8EkC3vA-PCTblRxkIG1kMRk4STlr7I2w3wG772HrIGoXI1S_x0ZT_uq4dn7A7U9GES0ljI3Y7kI3P1h80zFz48FT0oSAj6Qyfx8LkFboNhcyghRRf8JJ83pD12Tz13Ke6Z_iKbT18eThwZW8H0uIOwqmVubaoOV4UBjF7V5WlBCeGILShCGjTu8_OEoIy3c5BlLTJVwsQeBhApe4ygebC7VnAXW9YpYPfc2mpVu2KZgm_aaYbQKK3uWpyulPC7haOes4wwIHF9nkseCnfwbFJpAh8RMUhHCXCTcn9R40CSGa0XTE7lZKGbyjWYs6dk2uCZ7CceHdiWjhvW_T_NJD7AffXohOSBXK3DiLlhFL0C9rmJQxGsqyp2HA1HsaSBSOuSH0KZdQOeWgrqnlCm3Z6cINsh3566tuuGEtuHglAMOpZt8TWjtqcJtWe1GUc1DtDNP7Hial5fARWfx1C-4pEPQua4FgPcrJwTHP5_2oWRdWiSD2ci7XEGKUZCv53gmpIGMMIGr_jygs5d89Wy1bRYnZdRU1TqdbW9YguIM4_-mi_INtlCGDJtdFXK-VyBPIWd_-ZFFRniK7GkC5DlVssDIza5rnsJixVKGbwCAVI99Jzsxpl3FDrnR8gv7IC7n-jTuyxotLEhgGdqUf9soVNwKJowGpldX3rfd6E9r5qCCMbtTxQ-M-EB7mWd6eweEpIgupKxKnCCLxHQwQA_RhYvVI5Z9TF8N9grrJFQlJY9wKa-3Hyx2ijMGTNyEqAKagUd1c6bcgr9QZxP96-F0coWERTPcDIOPNvDGxP7KUIrEZaqPYfrRx-17j6MEojxAijtVaspUovoiesBZ_zrpeKRS0GNTP65AExx0X_hT7wiOGjPsDs42-VxVUhWh273E6fQ2cno_W0xWWeSSKFkJDm1uvJpcGNqahOSuLoXRI4_WT57hckSufzerxsFgFHybPF9eBLZpWZbDzvWNaRUenZNx8qBUrBp52Ct90yfNGZAtHs9mhL9SPUWnjZ7TDCngMg1ODa_F9S2vW5pjIUsIx4EHWTfwlS7wZKIJU3iPorXkF8ri7aAuOJt2AU2NqGFZwsBvs1kPnxJ8pUK4yHzY-6Oy3HLQCTPgqXK5MYw5y3vUAaNFIQRJZyMdwg_AVWstxKkBxXW5EHoN-sq0V0nubaOvtd9RrjgYJFM55AZeGLvIZakup0788KV59FEVCddr2Bv2U7WkuI6bQX37DO0rjAL-0bTIanq0kr8_o0g-Y6AsFkK0ZMXzqhYgqFkGY7MXzrAqeFn6TEPfFn2ott1CbC4lhYK3doJmHfuJ04_UKMNKdmie8Eod_fQfE732hvyJeQIadiP7MKcNcdwnvLilqv3zMTVdPl9Oyb_-pCZq5NYjh8J-PpPCgqaPbZ8X7pcpcibueMPIsgL5iEfDC_V_N6iIBqF0YDBm83Iz2mvf2mxMBRV1jeqvm1IiJk_HklxX_-AvKwe2cfUBhMpxWk5239oZ32TLi26-irsVNTQA4Bx4kZjbKvj32pzzO5_IUafRFZTyHQNh0Bqulem7SylTC2cw8MnTV6nE7zmU54wRnpI2H2FdQi2A9eCfjOLI98t9xKojyiEfux_YO-n41ZWz_n9KZjBN_1G00]--></g></svg>