<svg xmlns="http://www.w3.org/2000/svg" xmlns:xlink="http://www.w3.org/1999/xlink" contentStyleType="text/css" data-diagram-type="MINDMAP" height="157px" preserveAspectRatio="none" style="width:1107px;height:157px;" version="1.1" viewBox="0 0 1107 157" width="1107px" zoomAndPan="magnify"><defs/><g><a href="/use-case/construction-project-quotations/knowledge-capture-and-improvement/" target="_top" title="/use-case/construction-project-quotations/knowledge-capture-and-improvement/" xlink:actuate="onRequest" xlink:href="/use-case/construction-project-quotations/knowledge-capture-and-improvement/" xlink:show="new" xlink:title="/use-case/construction-project-quotations/knowledge-capture-and-improvement/" xlink:type="simple"><text fill="#90EE90" font-family="'Roboto'" font-size="14" lengthAdjust="spacing" textLength="335.207" x="371.6855" y="82.4404">Knowledge Capture &amp; Continuous Improvement</text></a><a href="/use-case/construction-project-quotations/knowledge-capture-and-improvement/sme-knowledge-capture/" target="_top" title="/use-case/construction-project-quotations/knowledge-capture-and-improvement/sme-knowledge-capture/" xlink:actuate="onRequest" xlink:href="/use-case/construction-project-quotations/knowledge-capture-and-improvement/sme-knowledge-capture/" xlink:show="new" xlink:title="/use-case/construction-project-quotations/knowledge-capture-and-improvement/sme-knowledge-capture/" xlink:type="simple"><text fill="#90EE90" font-family="'Roboto'" font-size="14" lengthAdjust="spacing" textLength="171.6436" x="772.3428" y="27.9951">SME Knowledge Capture</text></a><path d="M715.3428,77.5938 L715.3428,77.7806 L717.3428,77.2255 L719.3428,77.7656 L721.3428,77.949 L723.3428,76.9596 L725.3428,77.5938 L725.3428,77.5938 L725.3189,77.5688 L726.9931,75.7553 L728.7875,74.0677 L730.6656,72.4676 L732.2555,70.5659 L734.249,69.0867 L734.483,69.1629 L735.2014,65.2568 L736.6029,61.5732 L738.0878,57.9168 L739.0878,54.1024 L740.3428,50.3711 L740.3716,50.3805 L741.548,46.6236 L742.8557,42.9094 L744.1001,39.1747 L745.4653,35.4792 L746.4365,31.6555 L746.6425,31.8712 L748.4263,30.1724 L750.0772,28.3345 L751.9226,26.7003 L753.7771,25.0755 L755.3428,23.1484 L755.3428,22.5074 L757.3428,23.7516 L759.3428,22.8849 L761.3428,23.6229 L763.3428,22.7084 L765.3428,23.1484" fill="none" style="stroke:#FF9900;stroke-width:1;"/><a href="/use-case/construction-project-quotations/knowledge-capture-and-improvement/document-ingestion-and-knowledge-extraction/" target="_top" title="/use-case/construction-project-quotations/knowledge-capture-and-improvement/document-ingestion-and-knowledge-extraction/" xlink:actuate="onRequest" xlink:href="/use-case/construction-project-quotations/knowledge-capture-and-improvement/document-ingestion-and-knowledge-extraction/" xlink:show="new" xlink:title="/use-case/construction-project-quotations/knowledge-capture-and-improvement/document-ingestion-and-knowledge-extraction/" xlink:type="simple"><text fill="#90EE90" font-family="'Roboto'" font-size="14" lengthAdjust="spacing" textLength="314.2891" x="772.3428" y="54.292">Document Ingestion &amp; Knowledge Extraction</text></a><path d="M715.3428,77.5938 L715.3428,77.7806 L717.3428,77.2255 L719.3428,77.7656 L721.3428,77.949 L723.3428,76.9596 L725.3428,77.5938 L725.3428,77.5938 L725.3275,77.5628 L727.0401,76.5442 L728.8298,75.6816 L730.6731,74.9277 L732.3317,73.7997 L734.249,73.1956 L734.4572,73.3267 L735.2307,71.1111 L736.6121,69.2783 L738.0677,67.4922 L739.0918,65.4344 L740.3428,63.5195 L740.3684,63.5357 L741.5495,61.5768 L742.8474,59.6914 L744.089,57.7706 L745.438,55.9174 L746.4365,53.8435 L746.5686,54.1109 L748.3514,53.2346 L750.0491,52.1857 L751.8715,51.3893 L753.6997,50.6048 L755.3428,49.4453 L755.3428,48.8043 L757.3428,50.0484 L759.3428,49.1818 L761.3428,49.9198 L763.3428,49.0053 L765.3428,49.4453" fill="none" style="stroke:#FF9900;stroke-width:1;"/><polygon fill="#4051B5" points="769.3428,72.5938,769.3428,72.8039,779.3764,72.1794,789.41,72.787,799.4436,72.9934,809.4771,71.8804,819.5107,72.516,829.5443,72.1673,839.5779,72.2103,849.6115,72.5256,859.6451,71.9024,869.6787,73.1474,879.7123,71.9635,889.7459,72.396,899.7795,73.0257,909.8131,72.508,919.8467,72.662,929.8803,72.5618,939.9139,72.7723,949.9475,72.8329,959.9811,73.1794,970.0146,72.5938,970.1002,72.8004,970.667,73.0372,971.1785,73.1408,971.7708,73.4395,972.367,73.7473,972.8431,73.7653,972.621,73.6733,973.2863,74.4176,973.2204,74.8589,973.7104,75.5305,973.6279,75.9649,974.0146,76.5938,973.9918,76.5938,974.2619,82.2531,973.9984,87.9125,974.0497,93.5719,974.1275,99.2313,974.0146,104.8906,974.1428,104.9437,973.7791,105.4558,973.6345,106.0586,973.1354,106.5147,973.165,107.1896,972.8431,107.7191,972.913,107.8879,972.3341,108.0903,971.7899,108.3765,971.0844,108.2732,970.4971,108.4555,970.0146,108.8906,970.0146,108.2692,959.9811,108.8317,949.9475,108.6941,939.9139,109.572,929.8803,108.7159,919.8467,108.5476,909.8131,109.1189,899.7795,108.2238,889.7459,108.3715,879.7123,109.5396,869.6787,109.3263,859.6451,109.6251,849.6115,108.5688,839.5779,109.2098,829.5443,109.481,819.5107,108.4182,809.4771,108.7948,799.4436,109.0166,789.41,109.5424,779.3764,108.8864,769.3428,108.8906,769.4018,109.0331,768.7064,108.4858,768.125,108.2134,767.71,108.3428,766.9886,107.7326,766.5143,107.7191,766.6711,107.784,766.3437,107.1797,765.9632,106.5535,765.7025,105.9769,765.7184,105.5148,765.3428,104.8906,765.243,104.8906,765.5401,99.2313,765.1585,93.5719,765.5486,87.9125,765.5042,82.2531,765.3428,76.5938,765.4182,76.625,765.5916,76.0341,766.0352,75.5551,766.2347,74.975,766.3322,74.3526,766.5143,73.7653,766.5486,73.8479,767.0634,73.4909,767.7371,73.5173,768.2312,73.1101,768.7991,72.8812,769.3428,72.5938" style="stroke:#FF6F00;stroke-width:1.5;"/><a href="/use-case/construction-project-quotations/knowledge-capture-and-improvement/traceability-and-provenance/" target="_top" title="/use-case/construction-project-quotations/knowledge-capture-and-improvement/traceability-and-provenance/" xlink:actuate="onRequest" xlink:href="/use-case/construction-project-quotations/knowledge-capture-and-improvement/traceability-and-provenance/" xlink:show="new" xlink:title="/use-case/construction-project-quotations/knowledge-capture-and-improvement/traceability-and-provenance/" xlink:type="simple"><text fill="#90EE90" font-family="'Roboto'" font-size="14" lengthAdjust="spacing" textLength="184.2217" x="775.3428" y="95.5889">Traceability &amp; Provenance</text></a><path d="M715.3428,77.5938 L715.3428,77.7806 L717.3428,77.2255 L719.3428,77.7656 L721.3428,77.949 L723.3428,76.9596 L725.3428,77.5938 L725.3428,77.5938 L725.3289,77.5621 L728.2667,78.735 L731.2744,80.0673 L734.3306,81.5105 L737.2194,82.5717 L740.3428,84.168 L740.4415,84.3933 L743.2303,85.2262 L746.3075,86.7172 L749.4198,88.2883 L752.3275,89.3924 L755.3428,90.7422 L755.3428,90.8028 L757.3428,90.7138 L759.3428,90.9009 L761.3428,90.9548 L763.3428,91.2628 L765.3428,90.7422" fill="none" style="stroke:#FF9900;stroke-width:1;"/><a href="/use-case/construction-project-quotations/knowledge-capture-and-improvement/estimate-vs-actual-and-lessons-learned/" target="_top" title="/use-case/construction-project-quotations/knowledge-capture-and-improvement/estimate-vs-actual-and-lessons-learned/" xlink:actuate="onRequest" xlink:href="/use-case/construction-project-quotations/knowledge-capture-and-improvement/estimate-vs-actual-and-lessons-learned/" xlink:show="new" xlink:title="/use-case/construction-project-quotations/knowledge-capture-and-improvement/estimate-vs-actual-and-lessons-learned/" xlink:type="simple"><text fill="#90EE90" font-family="'Roboto'" font-size="14" lengthAdjust="spacing" textLength="267.5449" x="772.3428" y="136.8857">Estimate vs Actual &amp; Lessons Learned</text></a><path d="M715.3428,77.5938 L715.3428,77.7806 L717.3428,77.2255 L719.3428,77.7656 L721.3428,77.949 L723.3428,76.9596 L725.3428,77.5938 L725.3428,77.5938 L725.3189,77.5688 L726.9931,79.1581 L728.7875,80.8733 L730.6656,82.6761 L732.2555,84.1772 L734.249,86.1008 L734.483,86.177 L735.2014,89.7572 L736.6029,93.5598 L738.0878,97.3896 L739.0878,101.0615 L740.3428,104.8164 L740.3716,104.8258 L741.548,108.5551 L742.8557,112.3272 L744.1001,116.0787 L745.4653,119.8695 L746.4365,123.532 L746.6425,123.7477 L748.4263,125.4517 L750.0772,127.0166 L751.9226,128.7852 L753.7771,130.5633 L755.3428,132.0391 L755.3428,131.398 L757.3428,132.6422 L759.3428,131.7755 L761.3428,132.5136 L763.3428,131.599 L765.3428,132.0391" fill="none" style="stroke:#FF9900;stroke-width:1;"/><a href="/use-case/construction-project-quotations/" target="_top" title="/use-case/construction-project-quotations/" xlink:actuate="onRequest" xlink:href="/use-case/construction-project-quotations/" xlink:show="new" xlink:title="/use-case/construction-project-quotations/" xlink:type="simple"><text fill="#90EE90" font-family="'Roboto'" font-size="14" lengthAdjust="spacing" textLength="289.2354" x="14" y="82.4404">Complex Construction Project Quotations</text></a><path d="M364.6855,77.5938 L364.6855,77.7806 L362.6855,77.2255 L360.6855,77.7656 L358.6855,77.949 L356.6855,76.9596 L354.6855,77.5938 L354.6855,77.5938 L354.6855,77.5592 L348.6855,77.4042 L342.6855,77.4233 L336.6855,77.5635 L330.6855,77.2865 L324.6855,77.5938 L324.6855,78.0859 L322.6855,77.0335 L320.6855,77.418 L318.6855,77.9777 L316.6855,77.5175 L314.6855,77.5938" fill="none" style="stroke:#FF9900;stroke-width:1;"/><!--SRC=[xLXjJzj84FxkNp5NfADLpmtXe6fHLH52e41ukGGgdQeARUn9ieUzc-wkGxdJ_VSRst7iE2ya8Uv11Ly0xxFFF3DUx-uykzemPNmkN9_rBEiN5zjS8EmTNfzMZiwkg-VrymP4FsjR6zlbrdOMqgnLpy_sAuq_1xW9a8jAzQHoM1iIZK7E6_krHZOEhBNRRziR6qF8mVdPvGWWWeG_bgLlkEWnnNneCUUcesGWtAhqf4g0HZ6X2O72PC2VxdgewbpSPB6mvl5ErtGKeh2iTU32yG8NmNGHEYXGCG-651hQDB4bJVStYAO14owuJDtGJ2D1zb7TAcuGRhdfnXoyZm8q6iD5H-ShSFdfg7foLciseKolGVOCbmAwH1go69hOPfx6J0uNp7M92BOopnfn_eh4mhlCysQNkV8sHETPeafuL8ahuKP_u02ImUnZcmMUWN-i0odC6VCHNZGavIvVH4_Y8gQlANhOv7yZbBUiVxDC5QNaBV5Cd36PnjnvL2FfkQDCFNhTh8C3JMDJztAhOMGzMtjIKRA3aSm2f11f127THUX75lfy4HpfzwIWbKbXbXGyKLrSiy3tDaThvZB3MapZYiEDn70y6RY51f2UXqxuTUYLXqcZL0cWf5TWXBsGagcx0aFKXE6co01S65Hjvc21CPhuBK3Xu0KTKzpXFIPCJ7RPvSwDGArfmqpXUW0dHTaPCyMDKK_GcS6asvAGocTUVcmidJfl8nqsE9Ly29WfCzeynyYZfrEPez69egAHj8Q_MnN7I7MFWWWoDLOuEkq3NeVg5eHLeqE8_bcxzoVxpIlwu9deUFZX0vrMMegF7-dzDcdneJHqW4qzFLPrBkHNNFxC7jsYCdBnEuaKpBjUlUxSvQi0yVfE6_IVNgrNhxkWMYS7yjCeTQhswLKwiqnQWuCtLfsx68zc4TrXD-w_xIsL- -p4uWF6PRgBxZovJapLeS2CpXKrRwvqNv-zb0h8TFOhp1xjXfb9DusafKo39-rXnHZ5Mu71yQ6igAJXp5racTO5Hrk7qxZn1jr3XxUvGqd6H-HO7pA_ZdjJO-b5OktWuFrx6iyDPkzMblNw6hvyWLAWqNRe-o_Hij961T4btEuf-HUjEFjR8EdzXDVoqesGjnwwdH3UCu52czfOc_i4xQDF_Ku9JX88L6C8_1hTkRa8PA3XACN2rw_MwzKhq3xQOwWID4zh4xGL8y6LJX3-OTFxHXtnX91q8cspYaK1Ih0_0CDH0gQAfKfhGsWiTjLQGtPaBUvHGn4DHaE2qKsx19UPGL9rCHmgg71X_Zxj1NPVsvHqmBm8uj5w9GBwpPH0jmIr0Gxw6YeHZjJLOnJzZb2XHDjUK28jLR_duVTmoGw1OTuX4FuO0aFoNQGlFB7NTaVTjWBjgqTi52Nxr9mkKHO-WM01VsYuGKxPIYTld3CSeOSIpZA0Pd6CArZ2ybaim5mcpqCePzewYnBFO-Gippd3kbcUTAfPippbB7jcUTP239b4pXGh9b6si0kJ9339Wab8fxalYQQCxpAywkLDbuGhvxUCuEyrMuO1ypRBa7tKOSbyI4kP9TDtraLMo_ZBVwWPygDrtTF5_czbUWowvhOeVh2QHrMabReBYOu5ivcgUgQJK2xIEbXr9hdw_zJMm7F__zp_F_V_Frl_V-7HxVJgj0vzkW65SyflDZSsjz-KooqqhBpnyag4wOkeC-IqRLC2-CfwUNXH1oq3HILrkOxt4fh-oZfcVGQDG8Iu7JZleJZUFqaUK4_HvqgAi6ZMyUVJ5F1sozxZXgxoYeJ0vrChwTnhmf6XMR03LvS7zZkhJiT1G7tq3g2WVfnurHsDDVy3]--></g></svg>