<svg xmlns="http://www.w3.org/2000/svg" xmlns:xlink="http://www.w3.org/1999/xlink" contentStyleType="text/css" data-diagram-type="MINDMAP" height="127px" preserveAspectRatio="none" style="width:510px;height:127px;" version="1.1" viewBox="0 0 510 127" width="510px" zoomAndPan="magnify"><defs/><g><a href="/use-case/client-360/know-your-customer/anti-money-laundering/" target="_top" title="/use-case/client-360/know-your-customer/anti-money-laundering/" xlink:actuate="onRequest" xlink:href="/use-case/client-360/know-your-customer/anti-money-laundering/" xlink:show="new" xlink:title="/use-case/client-360/know-your-customer/anti-money-laundering/" xlink:type="simple"><text fill="#4051B5" font-family="'Roboto'" font-size="13" lengthAdjust="spacing" textLength="192.2197" x="17" y="67.1997">Anti Money Laundering (AML)</text></a><a href="/use-case/client-360/know-your-customer/anti-money-laundering/correspondent-based-aml/" target="_top" title="/use-case/client-360/know-your-customer/anti-money-laundering/correspondent-based-aml/" xlink:actuate="onRequest" xlink:href="/use-case/client-360/know-your-customer/anti-money-laundering/correspondent-based-aml/" xlink:show="new" xlink:title="/use-case/client-360/know-your-customer/anti-money-laundering/correspondent-based-aml/" xlink:type="simple"><text fill="#4051B5" font-family="'Roboto'" font-size="13" lengthAdjust="spacing" textLength="171.939" x="274.3521" y="27.0669">Correspondent-based AML</text></a><path d="M217.3521,62.6992 L217.3521,62.886 L219.3521,62.3309 L221.3521,62.871 L223.3521,63.0545 L225.3521,62.0651 L227.3521,62.6992 L227.3521,62.6992 L227.3322,62.671 L229.0242,61.2901 L230.8164,60.0516 L232.6784,58.912 L234.3002,57.4314 L236.2583,56.4285 L236.4834,56.5279 L237.2208,53.5562 L238.6154,50.8747 L240.0902,48.2286 L241.0984,45.3765 L242.3521,42.6328 L242.3798,42.6451 L243.5578,39.8679 L244.8621,37.1466 L246.1055,34.3984 L247.4652,31.7015 L248.4458,28.8372 L248.6175,29.081 L250.4009,27.8299 L252.0735,26.4214 L253.9082,25.2432 L255.7505,24.0758 L257.3521,22.5664 L257.3521,21.9254 L259.3521,23.1695 L261.3521,22.3028 L263.3521,23.0409 L265.3521,22.1264 L267.3521,22.5664" fill="none" style="stroke:#FF6F00;stroke-width:1;"/><a href="/use-case/client-360/know-your-customer/anti-money-laundering/network-based-aml/" target="_top" title="/use-case/client-360/know-your-customer/anti-money-laundering/network-based-aml/" xlink:actuate="onRequest" xlink:href="/use-case/client-360/know-your-customer/anti-money-laundering/network-based-aml/" xlink:show="new" xlink:title="/use-case/client-360/know-your-customer/anti-money-laundering/network-based-aml/" xlink:type="simple"><text fill="#4051B5" font-family="'Roboto'" font-size="13" lengthAdjust="spacing" textLength="129.6953" x="274.3521" y="52.1997">Network-based AML</text></a><path d="M217.3521,62.6992 L217.3521,62.886 L219.3521,62.3309 L221.3521,62.871 L223.3521,63.0545 L225.3521,62.0651 L227.3521,62.6992 L227.3521,62.6992 L227.3366,62.6683 L230.2673,61.0297 L233.2758,59.5468 L236.3385,58.1721 L239.2146,56.4244 L242.3521,55.1992 L242.4621,55.4193 L245.2268,53.4487 L248.3127,52.1206 L251.4379,50.8709 L254.335,49.1651 L257.3521,47.6992 L257.3521,47.7599 L259.3521,47.6708 L261.3521,47.8579 L263.3521,47.9118 L265.3521,48.2198 L267.3521,47.6992" fill="none" style="stroke:#FF6F00;stroke-width:1;"/><polygon fill="#4051B5" points="271.3521,70.2656,271.3521,70.4758,281.4833,69.8513,291.6146,70.4589,301.7459,70.6653,311.8772,69.5522,322.0085,70.1879,332.1397,69.8391,342.271,69.8821,352.4023,70.1975,362.5336,69.5743,372.6649,70.8193,382.7961,69.6353,392.9274,70.0679,403.0587,70.6976,413.19,70.1798,423.3213,70.3339,433.4525,70.2337,443.5838,70.4442,453.7151,70.5048,463.8464,70.8513,473.9777,70.9367,484.109,70.9449,494.2402,70.2656,494.2727,70.344,494.8651,70.6427,495.4612,70.9505,495.8453,70.7465,496.5895,71.4118,497.0687,71.4372,496.9774,71.3994,497.4674,72.071,497.3848,72.5054,497.7505,73.1255,498.2343,73.7945,498.2402,74.2656,498.224,74.2656,498.2753,79.6922,498.3531,85.1188,498.379,90.5453,498.2389,95.9719,498.2402,101.3984,498.3287,101.4351,497.8296,101.8911,497.8592,102.5661,497.7061,103.1654,497.4399,103.7179,497.0687,104.2269,497.1469,104.4157,496.4414,104.3124,495.8541,104.4946,495.2923,104.7384,494.7984,105.146,494.2402,105.3984,494.2402,105.2019,484.109,106.0798,473.9777,105.2238,463.8464,105.0554,453.7151,105.6267,443.5838,104.7316,433.4525,104.8793,423.3213,106.0474,413.19,105.8341,403.0587,106.1329,392.9274,105.0766,382.7961,105.7176,372.6649,105.9889,362.5336,104.926,352.4023,105.3026,342.271,105.5244,332.1397,106.0502,322.0085,105.3942,311.8772,105.861,301.7459,104.8447,291.6146,104.7212,281.4833,105.9021,271.3521,105.3984,271.2606,105.1776,270.8513,105.3209,270.247,104.9934,269.6208,104.613,269.0442,104.3522,268.5236,104.2269,268.6649,104.2854,268.1971,103.623,268.2373,103.171,267.6505,102.4593,267.7765,102.0429,267.3521,101.3984,267.5135,101.3984,267.4337,95.9719,267.3678,90.5453,267.5943,85.1188,267.5566,79.6922,267.3521,74.2656,267.4042,74.2872,267.669,73.7342,267.7806,73.1176,268.2756,72.66,268.337,72.0226,268.5236,71.4372,268.5456,71.4903,269.0117,71.0155,269.6033,70.8438,270.2884,70.8977,270.8412,70.6323,271.3521,70.2656" style="stroke:#FF6F00;stroke-width:1.5;"/><a href="/use-case/client-360/know-your-customer/anti-money-laundering/transaction-based-aml/" target="_top" title="/use-case/client-360/know-your-customer/anti-money-laundering/transaction-based-aml/" xlink:actuate="onRequest" xlink:href="/use-case/client-360/know-your-customer/anti-money-laundering/transaction-based-aml/" xlink:show="new" xlink:title="/use-case/client-360/know-your-customer/anti-money-laundering/transaction-based-aml/" xlink:type="simple"><text fill="#4051B5" font-family="'Roboto'" font-size="13" lengthAdjust="spacing" textLength="206.7559" x="277.3521" y="92.3325">Transaction/Finance-based AML</text></a><path d="M217.3521,62.6992 L217.3521,62.886 L219.3521,62.3309 L221.3521,62.871 L223.3521,63.0545 L225.3521,62.0651 L227.3521,62.6992 L227.3521,62.6992 L227.3299,62.6727 L230.2303,65.0672 L233.2426,67.5951 L236.3326,70.2158 L239.1547,72.5168 L242.3521,75.2656 L242.5101,75.4542 L245.1722,77.5642 L248.2956,80.2248 L251.4753,82.9526 L254.3276,85.2895 L257.3521,87.832 L257.3521,87.8927 L259.3521,87.8036 L261.3521,87.9907 L263.3521,88.0446 L265.3521,88.3526 L267.3521,87.832" fill="none" style="stroke:#FF6F00;stroke-width:1;"/><!--SRC=[xLhRRjiu47tNLt2RXpHeNTkveGYA8exZf4ry2UoaYqLH1BH4suGbqajIyNeN- -yxaYMBaYNv4hcRODTFBJawSsPucpF8kLHOA8Sooy4Jm_Z58WFA2BguVcpLlhOVwvrcfulytzvnvQJQFz5DUerwftrPw_uMsAMOtDNgjxNhnW9eoQJJlMnqTJzeRp0u7LGg2vEhJli-Pk2RUB-5IQtRxVmQjmbH33ccR885Tb0Vc-EXu2wpwjpc0kqfWPc4ESAKPlPbDY72fcmSM0MCZNr4cMcx5a5gHD2GC2AmZHRVIJG0wpvNe_V8fiEHGfXPoC9Y35ygZlWJ4LD15K5JgaPp3Ff46994ASg6CfcJ-ozVwxVjHg-7gh0mVA8ePsW4e1wAWWy7s9P48tw7BGk0qB4srfs7Au0i-gYDzqROubFFEeco2F-1MVu_I62YsLoI0NPjXVuohZXJRUmGzARB8NR-nX-PPovQE7-mH_yag7fi_AqZrOJWKy19_I8THirio16thJZI15ON3qd0QUdJYyJYntQuSS4511lCQ5iIN4GU6BSsWOzj_VKycDoPS0RR4TniIJYLtJndhcCVndDcOONxM9A2tSLyc3PthPqwuBPDJEzqoCBTH5xgO22ulKCF5nua5hCTkcWmHTKk7L2cY1XWa-pGHu_yxX9caZjukAX99vYfETZzY9fZHgI42pCobu4vCDA_o2Mt19t2KxE9hYN6XOFjvDnIE4qw84suMJF15mQvDFtBSmdS7yr4zcTJIVapKGwFZ9gfk5Z1m3V9zENDPXtWVLG_HbxMu162_-oj_EbdNi21nsneaq-VuBMId7t-3ElRWyr7k887BFFrAEfTIEwuv9iTlw8qkkGF8Ccm_LWyxqGvjWFoSYOLSLvVheldlQDSXm_owqXrnFRrPLhR9ltWuPspJXJ6yIZy6hQokjhRAlRymEOFZ8NbY5Zhn9eQgWcECRmhOjrOeLxFtqexY3H_2JUM8Q60Ys8wchy_7L1aWa9DRmKude0BfB1Vx4jKGeuhbLUN4uG746heCo4BD6-1DCtKE9fMpIAfbn9HCXArEmXtjRhCId_fbHAqxogINGSiSyqHCB5g7qkv7Qiy1_ke5QoBd12J3gW9yVkb0opHTEIfQWLt4DIVqbjGV_7Uexxj4bWxneXNY4Z4NULDBqkwWjb6-3XUKu6GDzuzek_VKTcLf6J2tLasRGg2htHqMYcF6P-MPjmL9HDs7UmvKOOAafOSq8IpaerTJv53p6LKWs7KyePHSp6CtjPQpGFquuVnhWWd9XU2ID2ZblUfTyzR9UpOPP12InC8F1Vcc14rvMAiksphGv6pv_loMq3OLu-wl_jek7n56GRz4FTjd1FOZs7Rx3pUHIkkv_I2kplXHRTcQqStJm7OeAaJVfSyj67Iz9CPTW5pspZF1SphskHXB3FOea-pcOErEZFFWSpjnMmAl4xtPNlCd7xBzg2P7PRj8VDwAjkZxgIB4jB9w9-4p3PkdOG1fFLDGj2ibad8IIjhGhYbJac8bMYInEnNTaWM3fEzaGLwl2sY7QIjEXpPD-icksLvyP_RmVZPl5P8ptyjJI-1rzfzXP_CvaKbgT2MGCXZmsWoMUVA_-ekzNxHaIJoNvIUtrgGfxoNXObn7IdnbYnhyDWpavQvP0cwXkxE9h0ICaCRFmFnVpNydr33TpQWFy3C4nG8tXyjL3ySLWvFFbIhVQ9mjVBsWNcCc2-SA9mkHHroOBozlciY2IoXohIed1yF-Fp0kC5F67LTvjcTeSw4i9lBst00IkudAZXpF4LzywqL6PmUboweWafN017qhMM4zqk3cTpJqcVeuVwgzD5emctfWimyGuJ1fG2uOWPplNy0]--></g></svg>