<svg xmlns="http://www.w3.org/2000/svg" xmlns:xlink="http://www.w3.org/1999/xlink" contentStyleType="text/css" data-diagram-type="MINDMAP" height="130px" preserveAspectRatio="none" style="width:541px;height:130px;background:#2E303E;" version="1.1" viewBox="0 0 541 130" width="541px" zoomAndPan="magnify"><defs/><g><rect fill="#2E303E" height="130" style="stroke:none;stroke-width:1;" width="541" x="0" y="0"/><a href="/use-case/client-360/know-your-customer/anti-money-laundering/" target="_top" title="/use-case/client-360/know-your-customer/anti-money-laundering/" xlink:actuate="onRequest" xlink:href="/use-case/client-360/know-your-customer/anti-money-laundering/" xlink:show="new" xlink:title="/use-case/client-360/know-your-customer/anti-money-laundering/" xlink:type="simple"><text fill="#90EE90" font-family="'Roboto'" font-size="14" lengthAdjust="spacing" textLength="207.0059" x="17" y="69.292">Anti Money Laundering (AML)</text></a><a href="/use-case/client-360/know-your-customer/anti-money-laundering/correspondent-based-aml/" target="_top" title="/use-case/client-360/know-your-customer/anti-money-laundering/correspondent-based-aml/" xlink:actuate="onRequest" xlink:href="/use-case/client-360/know-your-customer/anti-money-laundering/correspondent-based-aml/" xlink:show="new" xlink:title="/use-case/client-360/know-your-customer/anti-money-laundering/correspondent-based-aml/" xlink:type="simple"><text fill="#90EE90" font-family="'Roboto'" font-size="14" lengthAdjust="spacing" textLength="185.165" x="289.4561" y="27.9951">Correspondent-based AML</text></a><path d="M232.4561,64.4453 L232.4561,64.6321 L234.4561,64.077 L236.4561,64.6171 L238.4561,64.8006 L240.4561,63.8112 L242.4561,64.4453 L242.4561,64.4453 L242.4358,64.4173 L244.1261,63.0013 L245.9186,61.7262 L247.782,60.5492 L249.4008,59.0344 L251.3623,57.9927 L251.5884,58.0897 L252.3236,55.043 L253.719,52.2797 L255.195,49.5509 L256.2023,46.621 L257.4561,43.7969 L257.4839,43.8088 L258.6618,40.9521 L259.9665,38.1499 L261.21,35.3213 L262.5703,32.5429 L263.5498,29.6011 L263.7248,29.8426 L265.5082,28.555 L267.1787,27.1117 L269.0144,25.8963 L270.8579,24.6917 L272.4561,23.1484 L272.4561,22.5074 L274.4561,23.7516 L276.4561,22.8849 L278.4561,23.6229 L280.4561,22.7084 L282.4561,23.1484" fill="none" style="stroke:#FF9900;stroke-width:1;"/><a href="/use-case/client-360/know-your-customer/anti-money-laundering/network-based-aml/" target="_top" title="/use-case/client-360/know-your-customer/anti-money-laundering/network-based-aml/" xlink:actuate="onRequest" xlink:href="/use-case/client-360/know-your-customer/anti-money-laundering/network-based-aml/" xlink:show="new" xlink:title="/use-case/client-360/know-your-customer/anti-money-laundering/network-based-aml/" xlink:type="simple"><text fill="#90EE90" font-family="'Roboto'" font-size="14" lengthAdjust="spacing" textLength="139.6719" x="289.4561" y="54.292">Network-based AML</text></a><path d="M232.4561,64.4453 L232.4561,64.6321 L234.4561,64.077 L236.4561,64.6171 L238.4561,64.8006 L240.4561,63.8112 L242.4561,64.4453 L242.4561,64.4453 L242.4406,64.4144 L245.3713,62.7758 L248.3798,61.2929 L251.4425,59.9182 L254.3186,58.1705 L257.4561,56.9453 L257.5661,57.1654 L260.3308,55.1948 L263.4167,53.8667 L266.5419,52.617 L269.439,50.9112 L272.4561,49.4453 L272.4561,49.506 L274.4561,49.4169 L276.4561,49.604 L278.4561,49.6579 L280.4561,49.9659 L282.4561,49.4453" fill="none" style="stroke:#FF9900;stroke-width:1;"/><polygon fill="#7A209F" points="286.4561,72.5938,286.4561,72.8039,296.419,72.1794,306.3819,72.787,316.3448,72.9934,326.3078,71.8804,336.2707,72.516,346.2336,72.1673,356.1966,72.2103,366.1595,72.5256,376.1224,71.9024,386.0854,73.1474,396.0483,71.9635,406.0112,72.396,415.9742,73.0257,425.9371,72.508,435.9,72.662,445.863,72.5618,455.8259,72.7723,465.7888,72.8329,475.7517,73.1794,485.7147,73.2648,495.6776,73.273,505.6405,72.8484,515.6035,73.0573,525.5664,72.5938,525.656,72.81,526.0401,72.606,526.7843,73.2713,527.2256,73.2054,527.8972,73.6954,528.3948,73.7653,528.2424,73.7022,528.6081,74.3223,529.0918,74.9913,529.0828,75.4562,529.3645,76.0415,529.5664,76.5938,529.6793,76.5938,529.7052,82.2531,529.5651,87.9125,529.6621,93.5719,529.3756,99.2313,529.5664,104.8906,529.654,104.9269,529.5009,105.5262,529.2347,106.0787,529.0522,106.6659,528.4804,107.0917,528.3948,107.7191,528.3116,107.5182,527.7499,107.762,527.256,108.1695,526.6727,108.3615,526.219,108.8662,525.5664,108.8906,525.5664,108.7159,515.6035,108.5476,505.6405,109.1189,495.6776,108.2238,485.7147,108.3715,475.7517,109.5396,465.7888,109.3263,455.8259,109.6251,445.863,108.5688,435.9,109.2098,425.9371,109.481,415.9742,108.4182,406.0112,108.7948,396.0483,109.0166,386.0854,109.5424,376.1224,108.8864,366.1595,109.3532,356.1966,108.3368,346.2336,108.2134,336.2707,109.3942,326.3078,108.1737,316.3448,109.3996,306.3819,109.0973,296.419,108.6227,286.4561,108.8906,286.4109,108.7817,285.9489,108.7976,285.2865,108.3298,284.8345,108.37,284.1228,107.7831,283.6276,107.7191,283.8178,107.7978,283.5425,107.2151,283.2344,106.6189,282.9392,106.028,282.9141,105.549,282.4561,104.8906,282.6606,104.8906,282.5125,99.2313,282.5455,93.5719,282.4126,87.9125,282.6949,82.2531,282.4561,76.5938,282.5037,76.6135,282.7435,76.0501,282.7373,75.3848,283.0342,74.845,283.5568,74.3987,283.6276,73.7653,283.6824,73.8977,284.1878,73.5178,284.7179,73.1975,285.2968,72.995,285.8028,72.6168,286.4561,72.5938" style="stroke:#EEEEEE;stroke-width:1.5;"/><a href="/use-case/client-360/know-your-customer/anti-money-laundering/transaction-based-aml/" target="_top" title="/use-case/client-360/know-your-customer/anti-money-laundering/transaction-based-aml/" xlink:actuate="onRequest" xlink:href="/use-case/client-360/know-your-customer/anti-money-laundering/transaction-based-aml/" xlink:show="new" xlink:title="/use-case/client-360/know-your-customer/anti-money-laundering/transaction-based-aml/" xlink:type="simple"><text fill="#90EE90" font-family="'Roboto'" font-size="14" lengthAdjust="spacing" textLength="222.6602" x="292.4561" y="95.5889">Transaction/Finance-based AML</text></a><path d="M232.4561,64.4453 L232.4561,64.6321 L234.4561,64.077 L236.4561,64.6171 L238.4561,64.8006 L240.4561,63.8112 L242.4561,64.4453 L242.4561,64.4453 L242.4333,64.4193 L245.3311,66.9325 L248.3437,69.5765 L251.4361,72.3116 L254.2535,74.733 L257.4561,77.5938 L257.6183,77.7788 L260.2714,80.0128 L263.3981,82.787 L266.5826,85.6272 L269.4309,88.0838 L272.4561,90.7422 L272.4561,90.8028 L274.4561,90.7138 L276.4561,90.9009 L278.4561,90.9548 L280.4561,91.2628 L282.4561,90.7422" fill="none" style="stroke:#FF9900;stroke-width:1;"/><!--SRC=[xLbjRnev4Fw-ly9NT6gYXlAMa1TLLO10seH014cbKrL5PjU0nQxDsTvmtEd- -yqkBEjTO7a9v2wwygcrnyyy7jixyqmkfS92EPHP3XuQnYyMwL96KFdwwQxqjV5KQTQRBUJ_KhbICNTMqKtQrKgpSLLg_JQrInLpnTFYcMvoNwhSbgwhCw3KASvdpxkXIRDrLMtfVb2gwlzc9hLcuo5Y49eOSa3P40lie0us1pt1NMPLkCr5OAW4PX8i25ChZN_jI_l9z0OEyeNy4SgT7A5yxb1RzsKy9A9EsK1VXb8sxVLLJn323ECzeioqNOiWrIUeHnWHs4Op28cwiB33LVy8-SiGPXQoi1Z0IiKHVoPY9AWYQ4HLVu91dmb3aYX5MK_68_VmvMlbjb5jjr4EZeyF5UKCzG7KGr6mi8jjIRGzt6FB0Y1qh8sr9g4GG1QTQUFjFhRuoBEEe_YHi24IZypo_q6c9fhD5UbYrrReBwF6cMfWXw1tBGvxv-_yaKaGm-Fr1zlqJu9onyRVEb9923u2d8Kh5iEeiGqnuhOLHHh2oUCUcNAQMrgENOp8Ep3ANC1cfpFQnGKNeGV6hKtW8mzaFGycTuQSmOq6DriINiXk4ZFNiVFHc5bOuGwMPCVk8ZvCcxlMNXrmsoQczphapjs4NYfW8BYzHmzb3nAByHvTL9cYQfyEA5D4TB59zkYZJNvt2JF9FQGtQj8XPce2zj2dve0HAU636PhBgJamqbSaafk3Ni1Jima_IumB1zlnkRdjr6cNGB8XIy5d1eaq_O_d7BW_kXJPdrr8ofy9OrWmIgRYOWK3tsIfBszssGD-Zoh7o8iQ927uJshbJt_p0XuyPZsRVFe4sKfozlapd6yRBX_X2XBOqkongxmGlt7nd1tzH6bqoHz0ac7xQVUyOqNR7iZBiLJ4UNkntZtlFSKwICXl8zGXsxSNQUsQTAQ9Ty8wLXX7T-7NiDdLrTvMUq_Us2J1M5ZsYRNENXTkrGJ76FAAM7UlKAydNwKzx3Jv2FNKhh1QL6capWldf-MyvdpK1-5bb9GIjECgZMegMyWUdv08fLGsUthQASRBM2pbA_d2OLvFrMhdvzbiV58lTGpZmnFw_XrbN4dI9Zp7Z6bJq13fGZ6R6J0-Ie-vAzAcAnLtYCX0KKBJ3iYCSTh6hYVou0PaK0c6qPqtZEgpONHGkgiVeXy_Z0-xS69o8OW4YMDvIxrFXvN6Zfs1wdfk0e7ddJbcH8su6EWk6_fGwEpbllp61FO5YUxl8HpEr2Z3K996VHkNX5cpVirbj7spstv8AbyjP0lLpVeV_-5EGz0rMhFDe9il0DYWmH2ic_igJ5jgaQS-jKriAIm5d7RNLW4cTH2IICqpsA9di9c3jRe4Bu5Cx0ji2hnE9s1xp0JjlpteKhM_FMIIljyUTI-AFg2pHCi7F3QMyS72HHf-Rcu99qsu1qlcL7jaOjxzUcfzvZ2kqsSmKOckFQIjrFRoyzxajimV_alLz0Qyfd_fU1cl5JBeNmlJxdXj7wQrDUwhH6bp3VlQT-dbyZGe7ZRSpLBMYL8qjq_j6HpqhdOIY_zFRVbJM_uFjEMz3UYFCFCCMTFxgtBkOpwRF_cOotM8mYS7ZymZn7mnGU6bA-gGG-FW-hwE9924oikYSd85OVMXSOEVCMgvpBExGCqXOJTNjy40bA7FL73cUCBqvjjTQ50yJfUfWkfF00_qxSu8n5wLcTpJbnVeyQ6MFZFgy0LnGNfT8D2X5NWVIenXhlqF]--></g></svg>