<svg xmlns="http://www.w3.org/2000/svg" xmlns:xlink="http://www.w3.org/1999/xlink" contentStyleType="text/css" data-diagram-type="MINDMAP" height="209px" preserveAspectRatio="none" style="width:898px;height:209px;" version="1.1" viewBox="0 0 898 209" width="898px" zoomAndPan="magnify"><defs/><g><a href="/use-case/construction-project-quotations/estimating-and-pricing/" target="_top" title="/use-case/construction-project-quotations/estimating-and-pricing/" xlink:actuate="onRequest" xlink:href="/use-case/construction-project-quotations/estimating-and-pricing/" xlink:show="new" xlink:title="/use-case/construction-project-quotations/estimating-and-pricing/" xlink:type="simple"><text fill="#90EE90" font-family="'Roboto'" font-size="14" lengthAdjust="spacing" textLength="142.126" x="371.6855" y="108.7373">Estimating &amp; Pricing</text></a><a href="/use-case/construction-project-quotations/estimating-and-pricing/quantity-takeoff/" target="_top" title="/use-case/construction-project-quotations/estimating-and-pricing/quantity-takeoff/" xlink:actuate="onRequest" xlink:href="/use-case/construction-project-quotations/estimating-and-pricing/quantity-takeoff/" xlink:show="new" xlink:title="/use-case/construction-project-quotations/estimating-and-pricing/quantity-takeoff/" xlink:type="simple"><text fill="#90EE90" font-family="'Roboto'" font-size="14" lengthAdjust="spacing" textLength="207.2178" x="579.2617" y="27.9951">Quantity Takeoff (2D/3D/BIM)</text></a><path d="M522.2617,103.8906 L522.2617,104.0775 L524.2617,103.5223 L526.2617,104.0624 L528.2617,104.2459 L530.2617,103.2565 L532.2617,103.8906 L532.2617,103.8906 L532.2335,103.8707 L533.8881,101.2581 L535.685,98.7459 L537.5807,96.3036 L539.1357,93.6206 L541.168,91.2747 L541.4067,91.3342 L541.5407,88.6206 L542.3717,86.0809 L543.2878,83.5623 L543.7091,80.9203 L544.3906,78.3433 L544.4204,78.3491 L544.9509,75.3758 L545.617,72.4289 L546.2176,69.4692 L546.9431,66.5338 L547.2617,63.5195 L547.5545,63.5762 L548.1323,60.6122 L548.5213,57.6115 L549.1867,54.6645 L549.865,51.7199 L550.1328,48.6958 L549.8218,48.6183 L551.07,46.1824 L551.294,43.4914 L552.2966,40.9943 L552.4975,38.2975 L553.3555,35.7644 L553.3306,35.7468 L555.406,33.4313 L556.9003,30.7055 L558.7375,28.2218 L560.6034,25.7584 L562.2617,23.1484 L562.2617,23.5184 L564.2617,23.145 L566.2617,23.4037 L568.2617,22.6396 L570.2617,23.4012 L572.2617,23.1484" fill="none" style="stroke:#FF9900;stroke-width:1;"/><polygon fill="#4051B5" points="576.2617,46.2969,576.2617,46.5071,586.5096,45.8826,596.7575,46.4902,607.0054,46.6966,617.2533,45.5835,627.5012,46.2192,637.7491,45.8704,647.997,45.9134,658.2449,46.2287,668.4928,45.6055,678.7407,46.8505,688.9886,45.6666,699.2365,46.0991,709.4844,46.7288,719.7323,46.2111,729.9802,46.3651,740.2281,46.2649,750.476,46.4754,760.7239,46.536,770.9718,46.8826,781.2197,46.2969,781.3053,46.5035,781.8721,46.7404,782.3836,46.8439,782.9759,47.1426,783.572,47.4504,784.0482,47.4684,783.8261,47.3765,784.4914,48.1207,784.4255,48.562,784.9155,49.2336,784.833,49.668,785.2197,50.2969,785.1969,50.2969,785.4669,55.9563,785.2035,61.6156,785.2548,67.275,785.3326,72.9344,785.2197,78.5938,785.3479,78.6468,784.9842,79.1589,784.8395,79.7618,784.3405,80.2178,784.37,80.8928,784.0482,81.4222,784.1181,81.591,783.5392,81.7934,782.995,82.0796,782.2895,81.9764,781.7022,82.1586,781.2197,82.5938,781.2197,81.9723,770.9718,82.5349,760.7239,82.3972,750.476,83.2752,740.2281,82.4191,729.9802,82.2507,719.7323,82.822,709.4844,81.9269,699.2365,82.0746,688.9886,83.2427,678.7407,83.0294,668.4928,83.3282,658.2449,82.272,647.997,82.9129,637.7491,83.1842,627.5012,82.1213,617.2533,82.4979,607.0054,82.7197,596.7575,83.2455,586.5096,82.5896,576.2617,82.5938,576.3207,82.7362,575.6254,82.1889,575.044,81.9166,574.6289,82.0459,573.9075,81.4357,573.4333,81.4222,573.59,81.4871,573.2626,80.8828,572.8822,80.2566,572.6214,79.68,572.6373,79.218,572.2617,78.5938,572.1619,78.5938,572.459,72.9344,572.0775,67.275,572.4675,61.6156,572.4232,55.9563,572.2617,50.2969,572.3372,50.3281,572.5106,49.7372,572.9541,49.2582,573.1536,48.6781,573.2511,48.0557,573.4333,47.4684,573.4675,47.551,573.9824,47.194,574.6561,47.2205,575.1501,46.8132,575.718,46.5843,576.2617,46.2969" style="stroke:#FF6F00;stroke-width:1.5;"/><a href="/use-case/construction-project-quotations/estimating-and-pricing/unit-rates-and-cost-libraries/" target="_top" title="/use-case/construction-project-quotations/estimating-and-pricing/unit-rates-and-cost-libraries/" xlink:actuate="onRequest" xlink:href="/use-case/construction-project-quotations/estimating-and-pricing/unit-rates-and-cost-libraries/" xlink:show="new" xlink:title="/use-case/construction-project-quotations/estimating-and-pricing/unit-rates-and-cost-libraries/" xlink:type="simple"><text fill="#90EE90" font-family="'Roboto'" font-size="14" lengthAdjust="spacing" textLength="188.5078" x="582.2617" y="69.292">Unit Rates &amp; Cost Libraries</text></a><path d="M522.2617,103.8906 L522.2617,104.0775 L524.2617,103.5223 L526.2617,104.0624 L528.2617,104.2459 L530.2617,103.2565 L532.2617,103.8906 L532.2617,103.8906 L532.2421,103.8622 L533.9351,102.5021 L535.7272,101.2851 L537.5882,100.1677 L539.2119,98.7073 L541.168,97.7273 L541.3924,97.8282 L542.1312,94.9006 L543.5253,92.2675 L544.9993,89.6704 L546.0082,86.8642 L547.2617,84.168 L547.2894,84.1804 L548.4675,81.4503 L549.7716,78.7768 L551.0149,76.0759 L552.3742,73.4272 L553.3555,70.6086 L553.5252,70.8539 L555.3085,69.6242 L556.9824,68.2364 L558.8165,67.0801 L560.6581,65.9346 L562.2617,64.4453 L562.2617,63.8043 L564.2617,65.0484 L566.2617,64.1818 L568.2617,64.9198 L570.2617,64.0053 L572.2617,64.4453" fill="none" style="stroke:#FF9900;stroke-width:1;"/><a href="/use-case/construction-project-quotations/estimating-and-pricing/labor-productivity-and-crew-modeling/" target="_top" title="/use-case/construction-project-quotations/estimating-and-pricing/labor-productivity-and-crew-modeling/" xlink:actuate="onRequest" xlink:href="/use-case/construction-project-quotations/estimating-and-pricing/labor-productivity-and-crew-modeling/" xlink:show="new" xlink:title="/use-case/construction-project-quotations/estimating-and-pricing/labor-productivity-and-crew-modeling/" xlink:type="simple"><text fill="#90EE90" font-family="'Roboto'" font-size="14" lengthAdjust="spacing" textLength="251.1318" x="579.2617" y="110.5889">Labor Productivity &amp; Crew Modeling</text></a><path d="M522.2617,103.8906 L522.2617,104.0775 L524.2617,103.5223 L526.2617,104.0624 L528.2617,104.2459 L530.2617,103.2565 L532.2617,103.8906 L532.2617,103.8906 L532.2596,103.8562 L535.25,103.8866 L538.2512,104.0908 L541.2599,104.4159 L544.2428,104.3246 L547.2617,104.8164 L547.2769,105.062 L550.2445,104.722 L553.2563,105.099 L556.2735,105.5635 L559.2594,105.519 L562.2617,105.7422 L562.2617,105.8028 L564.2617,105.7138 L566.2617,105.9009 L568.2617,105.9548 L570.2617,106.2628 L572.2617,105.7422" fill="none" style="stroke:#FF9900;stroke-width:1;"/><a href="/use-case/construction-project-quotations/estimating-and-pricing/indirects-overheads-general-conditions/" target="_top" title="/use-case/construction-project-quotations/estimating-and-pricing/indirects-overheads-general-conditions/" xlink:actuate="onRequest" xlink:href="/use-case/construction-project-quotations/estimating-and-pricing/indirects-overheads-general-conditions/" xlink:show="new" xlink:title="/use-case/construction-project-quotations/estimating-and-pricing/indirects-overheads-general-conditions/" xlink:type="simple"><text fill="#90EE90" font-family="'Roboto'" font-size="14" lengthAdjust="spacing" textLength="298.9902" x="579.2617" y="136.8857">Indirects, Overheads &amp; General Conditions</text></a><path d="M522.2617,103.8906 L522.2617,104.0775 L524.2617,103.5223 L526.2617,104.0624 L528.2617,104.2459 L530.2617,103.2565 L532.2617,103.8906 L532.2617,103.8906 L532.2464,103.8597 L533.959,104.6003 L535.7487,105.4971 L537.5921,106.5024 L539.2507,107.1337 L541.168,108.2888 L541.3762,108.4199 L542.1497,110.0747 L543.5311,112.1124 L544.9867,114.1967 L546.0107,116.0093 L547.2617,117.9648 L547.2874,117.981 L548.4685,119.8925 L549.7664,121.8775 L551.0079,123.8271 L552.357,125.8444 L553.3555,127.6409 L553.4875,127.9083 L555.2704,128.7912 L556.9681,129.5016 L558.7904,130.4645 L560.6187,131.4393 L562.2617,132.0391 L562.2617,131.398 L564.2617,132.6422 L566.2617,131.7755 L568.2617,132.5136 L570.2617,131.599 L572.2617,132.0391" fill="none" style="stroke:#FF9900;stroke-width:1;"/><a href="/use-case/construction-project-quotations/estimating-and-pricing/contingency-and-escalation/" target="_top" title="/use-case/construction-project-quotations/estimating-and-pricing/contingency-and-escalation/" xlink:actuate="onRequest" xlink:href="/use-case/construction-project-quotations/estimating-and-pricing/contingency-and-escalation/" xlink:show="new" xlink:title="/use-case/construction-project-quotations/estimating-and-pricing/contingency-and-escalation/" xlink:type="simple"><text fill="#90EE90" font-family="'Roboto'" font-size="14" lengthAdjust="spacing" textLength="179.3408" x="579.2617" y="163.1826">Contingency &amp; Escalation</text></a><path d="M522.2617,103.8906 L522.2617,104.0775 L524.2617,103.5223 L526.2617,104.0624 L528.2617,104.2459 L530.2617,103.2565 L532.2617,103.8906 L532.2617,103.8906 L532.2379,103.8656 L533.912,105.455 L535.7065,107.1702 L537.5845,108.973 L539.1745,110.4741 L541.168,112.3977 L541.4019,112.4739 L542.1204,116.0541 L543.5219,119.8567 L545.0068,123.6865 L546.0067,127.3584 L547.2617,131.1133 L547.2906,131.1227 L548.467,134.852 L549.7747,138.6241 L551.019,142.3755 L552.3842,146.1663 L553.3555,149.8289 L553.5615,150.0445 L555.3452,151.7486 L556.9961,153.3135 L558.8415,155.0821 L560.696,156.8602 L562.2617,158.3359 L562.2617,157.6949 L564.2617,158.9391 L566.2617,158.0724 L568.2617,158.8104 L570.2617,157.8959 L572.2617,158.3359" fill="none" style="stroke:#FF9900;stroke-width:1;"/><a href="/use-case/construction-project-quotations/estimating-and-pricing/pricing-strategy-margin-markups/" target="_top" title="/use-case/construction-project-quotations/estimating-and-pricing/pricing-strategy-margin-markups/" xlink:actuate="onRequest" xlink:href="/use-case/construction-project-quotations/estimating-and-pricing/pricing-strategy-margin-markups/" xlink:show="new" xlink:title="/use-case/construction-project-quotations/estimating-and-pricing/pricing-strategy-margin-markups/" xlink:type="simple"><text fill="#90EE90" font-family="'Roboto'" font-size="14" lengthAdjust="spacing" textLength="239.5996" x="579.2617" y="189.4795">Pricing Strategy (Margin/Markups)</text></a><path d="M522.2617,103.8906 L522.2617,104.0775 L524.2617,103.5223 L526.2617,104.0624 L528.2617,104.2459 L530.2617,103.2565 L532.2617,103.8906 L532.2617,103.8906 L532.2335,103.8707 L533.8881,106.3045 L535.685,108.8387 L537.5807,111.4427 L539.1357,113.8062 L541.168,116.5066 L541.4067,116.5661 L541.5407,119.0251 L542.3717,121.6579 L543.2878,124.3118 L543.7091,126.8425 L544.3906,129.438 L544.4204,129.4437 L544.9509,132.4 L545.617,135.3825 L546.2176,138.3524 L546.9431,141.3465 L547.2617,144.2617 L547.5545,144.3184 L548.1323,147.2839 L548.5213,150.2127 L549.1867,153.1952 L549.865,156.1801 L550.1328,159.0855 L549.8218,159.008 L551.07,161.7447 L551.294,164.2262 L552.2966,166.9017 L552.4975,169.3774 L553.3555,172.0168 L553.3306,171.9993 L555.406,174.7301 L556.9003,177.0507 L558.7375,179.6134 L560.6034,182.1964 L562.2617,184.6328 L562.2617,185.0028 L564.2617,184.6293 L566.2617,184.8881 L568.2617,184.124 L570.2617,184.8856 L572.2617,184.6328" fill="none" style="stroke:#FF9900;stroke-width:1;"/><a href="/use-case/construction-project-quotations/" target="_top" title="/use-case/construction-project-quotations/" xlink:actuate="onRequest" xlink:href="/use-case/construction-project-quotations/" xlink:show="new" xlink:title="/use-case/construction-project-quotations/" xlink:type="simple"><text fill="#90EE90" font-family="'Roboto'" font-size="14" lengthAdjust="spacing" textLength="289.2354" x="14" y="108.7373">Complex Construction Project Quotations</text></a><path d="M364.6855,103.8906 L364.6855,104.0775 L362.6855,103.5223 L360.6855,104.0624 L358.6855,104.2459 L356.6855,103.2565 L354.6855,103.8906 L354.6855,103.8906 L354.6855,103.8561 L348.6855,103.7011 L342.6855,103.7202 L336.6855,103.8603 L330.6855,103.5833 L324.6855,103.8906 L324.6855,104.3828 L322.6855,103.3304 L320.6855,103.7148 L318.6855,104.2746 L316.6855,103.8144 L314.6855,103.8906" fill="none" style="stroke:#FF9900;stroke-width:1;"/><!--SRC=[xLXjJniv4Fw-ly9Nf2ketOPGgDgggWWXK20XN0ALJbM5dDr9uikk7MmlAJtTVx_nlYIRpGj9sFJWHBuis8zddXcFtvvzfQdKFkEkJ_kMzPiBRSQ171nVrqedvzVbUhNU8E5lOtTxhzZQIqEQbNBz_B3K-3F6JO5SbCfdfUFAqD04fDuuh3JIViX6k_sklRqzX1pLpo_70274_2nBzHZlKqbzqg9EhoD5mDsoy8HCW5fIhX01NAV0N-xw8AkCzz9Oik6nJbTt902th9U4SSSBN22w2wG372JroD248cqSs1Aw-vg4mmZbBd6fxE58BOYu1JcGJ0CPCDsDRB1Ru4I1rentL3O3brzEocVdbMQJ574QH5ypmKaNZHeh6WUsgQSW5SC5TLqqH7PJROqeVebaoVjKUxDBNJ4mwAoLC1CUPkAAk-4V44DIc4Deqy3Jv6_hI71zJdqWBne2OnSlmfOeYQDf2XkRx2UGugxrJzfIIKenG3jJHqmte-yyp97mt75BVPnkse6OqyJGWqmrZDMpTI0a1Xltf0eGNOmySE4kOtwiq1Vpu0Y_BpXM9hfPaV1KTb7E0j_R6S-PIpLjKGKvknlpuNWYSDVgG7WUE6PrgDpTZBoK4I25jqOF1yOabNThT57XckbrEc1SWsnJ1zReemat0N07Bl2OOWxhKwuZOvTTvlGuA8KRvWYkOZWoIe-OIsx2z1IUASneM-92-jJBzas4KsLjmCC6PXeV0kRI33VF2UDXwqpBOUzKKc7FA8TlhPAZXRo7GGYPwSlqpbh0BqbvbvYiuI64_spS-qklUOaBdlAE1vy-uMcb1F_y6UUtYSK7GkC1DlFqoEjSo5PSzimUtw9ITE47akJKkywVT-RojGRowavfy9zUhlFdlQPS9mVoqqZrYEtJotIgJ5hnmHknpboCnwC8xx3Rzz_sLefzVc3H0UDIrGLtaLYdXkgWOuhdYbmqLholpo-bDKGwVmhJHxkcUjfD8tbIZfmdpyEIrfAr0WsJNMbIoOCpSv6bIgtPsqjIYnxUHFN1OMtcO93H4Jdn3bcSnxsXqT55OkFewCC7xCzqfkzMblNgcdpxHWg10jl1zL_0ib9Q1k4btEvByHTMd7qJ29mVSoqlWDBCf-QLQ-Fx5H5uEUAT0gaCsydlv29g9T-_MwzoSd0JqF36QslQ0z5k5yWVSGkvZ5h8vivXuUrXuU2ajXLvpiLnm9cs9LQd2fiTeRJjiPQaae4ga2li9WtJZN6NiPDKayuym_TeIqY3TytGMvE8a8s4WUrZ4NdX95GD2hC_GXbIY26r69Cd9onlPZOaPHj1f0lKLNQifM2Qi3CQJKuIt6jIJu38wpYMNSf3Q9xapFQ8NtmkH9a2vL0l75887u1n7_Ae37loz1z_RHoBnT6vitqgEuoRJo_eOrQIDTAC0MIp5Y8AjGWHrh1jBya6O_Fx7lmmCGw1fY8C49TC0ZJ6zm7tfqGSt1_N2jSelZrYcIlPPHVKkDBmAGQMKBU6s_kCWs3wjZz7ptgemNdorJmRamnM4AoMSx2GHFKGatD5gMKDBo93hMvpZl2qkj6PKjFg9kU9IwjRNOkSbD2P8IGbp9RMa980fWb8YT5Psb72AQKQ3I-gMSaeiPLHYyRmzqf5GuTPaMXeVLmVIYsabQIUsJlhCjKoEVaFbN9-DQzxtk3_MPeU0w-51PPVpEPH9IbNRIJXiMGqCrdFrK6AwnG-yeuaa___jR3nh5uygnVFwiMpUl6Or8iB3rVJLQrAS8QK6LDyixEzi_UcM6o1fiNjpIlUusB0mtSjmqC7euOjQ_FueagK22G-0bocefqGXszPf_IMaaR03UuZgVU1dnwU9Gtu8hfbKd3VQ1-dNsiZmBjT-m1NL1Ca4Y5VQrQYErIu8upKyP5SNHxPxwqg7cO1xQ1ju5OPzqujxx2l-Iy0]--></g></svg>