<svg xmlns="http://www.w3.org/2000/svg" xmlns:xlink="http://www.w3.org/1999/xlink" viewBox="173.94 345.00 660.80 110.00" width="660.80px" height="110.00px" class="use-case-tree-svg">
  <rect width="100%" height="100%" fill="transparent" />
  <line x1="350.00" y1="412.50" x2="360.00" y2="412.50" stroke="#FF6F00" stroke-width="1.5" />
  <path d="M 360.00 412.50 C 378.00 412.50, 382.00 362.50, 400.00 362.50" stroke="#FF6F00" stroke-width="1.5" fill="none" />
  <line x1="350.00" y1="412.50" x2="360.00" y2="412.50" stroke="#FF6F00" stroke-width="1.5" />
  <path d="M 360.00 412.50 C 378.00 412.50, 382.00 387.50, 400.00 387.50" stroke="#FF6F00" stroke-width="1.5" fill="none" />
  <line x1="350.00" y1="412.50" x2="360.00" y2="412.50" stroke="#FF6F00" stroke-width="1.5" />
  <path d="M 360.00 412.50 C 378.00 412.50, 382.00 412.50, 400.00 412.50" stroke="#FF6F00" stroke-width="1.5" fill="none" />
  <line x1="350.00" y1="412.50" x2="360.00" y2="412.50" stroke="#FF6F00" stroke-width="1.5" />
  <path d="M 360.00 412.50 C 378.00 412.50, 382.00 437.50, 400.00 437.50" stroke="#FF6F00" stroke-width="1.5" fill="none" />
  <line x1="600.56" y1="412.50" x2="626.06" y2="412.50" stroke="#FF6F00" stroke-width="1.5" />
  <path d="M 626.06 412.50 C 650.81 412.50, 656.31 362.50, 681.06 362.50" stroke="#FF6F00" stroke-width="1.5" fill="none" />
  <line x1="600.56" y1="412.50" x2="626.06" y2="412.50" stroke="#FF6F00" stroke-width="1.5" />
  <path d="M 626.06 412.50 C 650.81 412.50, 656.31 387.50, 681.06 387.50" stroke="#FF6F00" stroke-width="1.5" fill="none" />
  <line x1="600.56" y1="412.50" x2="626.06" y2="412.50" stroke="#FF6F00" stroke-width="1.5" />
  <path d="M 626.06 412.50 C 650.81 412.50, 656.31 412.50, 681.06 412.50" stroke="#FF6F00" stroke-width="1.5" fill="none" />
  <line x1="600.56" y1="412.50" x2="626.06" y2="412.50" stroke="#FF6F00" stroke-width="1.5" />
  <path d="M 626.06 412.50 C 650.81 412.50, 656.31 437.50, 681.06 437.50" stroke="#FF6F00" stroke-width="1.5" fill="none" />
  <a xlink:href="/use-case/client-360/" target="_top">
    <rect x="178.94" y="400.00" width="171.06" height="25" rx="4" ry="4" fill="none" stroke="none" pointer-events="all" />
    <text x="188.94" y="417.00" text-anchor="start" font-family="Roboto, sans-serif" font-size="13" fill="#4051B5" font-weight="normal">Client 360 / Customer 360</text>
  </a>
  <a xlink:href="/use-case/client-360/customer-relationship-management/" target="_top">
    <rect x="400.00" y="350.00" width="231.06" height="25" rx="4" ry="4" fill="none" stroke="none" pointer-events="all" />
    <text x="410.00" y="367.00" text-anchor="start" font-family="Roboto, sans-serif" font-size="13" fill="#4051B5" font-weight="normal">Customer Relationship Management</text>
  </a>
  <a xlink:href="/use-case/client-360/know-your-customer/" target="_top">
    <rect x="400.00" y="375.00" width="142.16" height="25" rx="4" ry="4" fill="none" stroke="none" pointer-events="all" />
    <text x="410.00" y="392.00" text-anchor="start" font-family="Roboto, sans-serif" font-size="13" fill="#4051B5" font-weight="normal">Know Your Customer</text>
  </a>
  <a xlink:href="/use-case/client-360/relationships-and-connections/" target="_top">
    <rect x="400.00" y="400.00" width="200.56" height="25" rx="4" ry="4" fill="#4051B5" stroke="#FF6F00" stroke-width="1.5" />
    <text x="410.00" y="417.00" text-anchor="start" font-family="Roboto, sans-serif" font-size="13" fill="#FFFFFF" font-weight="bold">Relationships &amp; Connections</text>
  </a>
  <a xlink:href="/use-case/client-360/relationships-and-connections/business-connections/" target="_top">
    <rect x="681.06" y="350.00" width="148.67" height="25" rx="4" ry="4" fill="none" stroke="none" pointer-events="all" />
    <text x="691.06" y="367.00" text-anchor="start" font-family="Roboto, sans-serif" font-size="13" fill="#4051B5" font-weight="normal">Business Connections</text>
  </a>
  <a xlink:href="/use-case/client-360/relationships-and-connections/family-connections/" target="_top">
    <rect x="681.06" y="375.00" width="134.19" height="25" rx="4" ry="4" fill="none" stroke="none" pointer-events="all" />
    <text x="691.06" y="392.00" text-anchor="start" font-family="Roboto, sans-serif" font-size="13" fill="#4051B5" font-weight="normal">Family Connections</text>
  </a>
  <a xlink:href="/use-case/client-360/relationships-and-connections/political-connections/" target="_top">
    <rect x="681.06" y="400.00" width="140.72" height="25" rx="4" ry="4" fill="none" stroke="none" pointer-events="all" />
    <text x="691.06" y="417.00" text-anchor="start" font-family="Roboto, sans-serif" font-size="13" fill="#4051B5" font-weight="normal">Political Connections</text>
  </a>
  <a xlink:href="/use-case/client-360/relationships-and-connections/social-connections/" target="_top">
    <rect x="681.06" y="425.00" width="131.33" height="25" rx="4" ry="4" fill="none" stroke="none" pointer-events="all" />
    <text x="691.06" y="442.00" text-anchor="start" font-family="Roboto, sans-serif" font-size="13" fill="#4051B5" font-weight="normal">Social Connections</text>
  </a>
  <a xlink:href="/use-case/client-360/social-media/" target="_top">
    <rect x="400.00" y="425.00" width="94.45" height="25" rx="4" ry="4" fill="none" stroke="none" pointer-events="all" />
    <text x="410.00" y="442.00" text-anchor="start" font-family="Roboto, sans-serif" font-size="13" fill="#4051B5" font-weight="normal">Social Media</text>
  </a>
</svg>