<svg xmlns="http://www.w3.org/2000/svg" xmlns:xlink="http://www.w3.org/1999/xlink" viewBox="-117.22 345.00 779.98 110.00" width="779.98px" height="110.00px" class="use-case-tree-svg">
  <rect width="100%" height="100%" fill="transparent" />
  <line x1="146.28" y1="412.50" x2="156.28" y2="412.50" stroke="#FF9900" stroke-width="1.5" />
  <path d="M 156.28 412.50 C 174.28 412.50, 178.28 412.50, 196.28 412.50" stroke="#FF9900" stroke-width="1.5" fill="none" />
  <path d="M 345.00 412.50 C 369.75 412.50, 375.25 362.50, 400.00 362.50" stroke="#FF9900" stroke-width="1.5" fill="none" />
  <path d="M 345.00 412.50 C 369.75 412.50, 375.25 387.50, 400.00 387.50" stroke="#FF9900" stroke-width="1.5" fill="none" />
  <path d="M 345.00 412.50 C 369.75 412.50, 375.25 412.50, 400.00 412.50" stroke="#FF9900" stroke-width="1.5" fill="none" />
  <path d="M 345.00 412.50 C 369.75 412.50, 375.25 437.50, 400.00 437.50" stroke="#FF9900" stroke-width="1.5" fill="none" />
  <a xlink:href="/use-case/construction-project-quotations/" target="_top">
    <rect x="-112.22" y="400.00" width="258.50" height="25" rx="4" ry="4" fill="none" stroke="none" pointer-events="all" />
    <text x="-102.22" y="417.00" text-anchor="start" font-family="Roboto, sans-serif" font-size="13" fill="#90EE90" font-weight="normal">Complex Construction Project Quotations</text>
  </a>
  <a xlink:href="/use-case/construction-project-quotations/scope-and-requirements/" target="_top">
    <rect x="196.28" y="400.00" width="153.72" height="25" rx="4" ry="4" fill="none" stroke="none" pointer-events="all" />
    <text x="206.28" y="417.00" text-anchor="start" font-family="Roboto, sans-serif" font-size="13" fill="#90EE90" font-weight="normal">Scope &amp; Requirements</text>
  </a>
  <a xlink:href="/use-case/construction-project-quotations/scope-and-requirements/assumptions-exclusions-qualifications/" target="_top">
    <rect x="400.00" y="350.00" width="257.77" height="25" rx="4" ry="4" fill="none" stroke="none" pointer-events="all" />
    <text x="410.00" y="367.00" text-anchor="start" font-family="Roboto, sans-serif" font-size="13" fill="#90EE90" font-weight="normal">Assumptions, Exclusions &amp; Qualifications</text>
  </a>
  <a xlink:href="/use-case/construction-project-quotations/scope-and-requirements/constructability-review/" target="_top">
    <rect x="400.00" y="375.00" width="155.14" height="25" rx="4" ry="4" fill="none" stroke="none" pointer-events="all" />
    <text x="410.00" y="392.00" text-anchor="start" font-family="Roboto, sans-serif" font-size="13" fill="#90EE90" font-weight="normal">Constructability Review</text>
  </a>
  <a xlink:href="/use-case/construction-project-quotations/scope-and-requirements/rfis-clarifications-addenda/" target="_top">
    <rect x="400.00" y="400.00" width="209.48" height="25" rx="4" ry="4" fill="#4051B5" stroke="#FF6F00" stroke-width="1.5" />
    <text x="410.00" y="417.00" text-anchor="start" font-family="Roboto, sans-serif" font-size="13" fill="#FFFFFF" font-weight="bold">RFIs, Clarifications &amp; Addenda</text>
  </a>
  <a xlink:href="/use-case/construction-project-quotations/scope-and-requirements/scope-decomposition-wbs-boq/" target="_top">
    <rect x="400.00" y="425.00" width="218.00" height="25" rx="4" ry="4" fill="none" stroke="none" pointer-events="all" />
    <text x="410.00" y="442.00" text-anchor="start" font-family="Roboto, sans-serif" font-size="13" fill="#90EE90" font-weight="normal">Scope Decomposition (WBS/BoQ)</text>
  </a>
</svg>