<svg xmlns="http://www.w3.org/2000/svg" xmlns:xlink="http://www.w3.org/1999/xlink" viewBox="-61.66 370.00 613.83 60.00" width="613.83px" height="60.00px" class="use-case-tree-svg">
  <rect width="100%" height="100%" fill="transparent" />
  <line x1="84.08" y1="412.50" x2="94.08" y2="412.50" stroke="#FF9900" stroke-width="1.5" />
  <path d="M 94.08 412.50 C 112.08 412.50, 116.08 412.50, 134.08 412.50" stroke="#FF9900" stroke-width="1.5" fill="none" />
  <path d="M 345.00 412.50 C 369.75 412.50, 375.25 387.50, 400.00 387.50" stroke="#FF9900" stroke-width="1.5" fill="none" />
  <path d="M 345.00 412.50 C 369.75 412.50, 375.25 412.50, 400.00 412.50" stroke="#FF9900" stroke-width="1.5" fill="none" />
  <a xlink:href="/use-case/supply-chain-management/vendor-management/" target="_top">
    <rect x="-56.66" y="400.00" width="140.73" height="25" rx="4" ry="4" fill="none" stroke="none" pointer-events="all" />
    <text x="-46.66" y="417.00" text-anchor="start" font-family="Roboto, sans-serif" font-size="13" fill="#90EE90" font-weight="normal">Vendor Management</text>
  </a>
  <a xlink:href="/use-case/supply-chain-management/vendor-management/vendor-relationship-management/" target="_top">
    <rect x="134.08" y="400.00" width="215.92" height="25" rx="4" ry="4" fill="none" stroke="none" pointer-events="all" />
    <text x="144.08" y="417.00" text-anchor="start" font-family="Roboto, sans-serif" font-size="13" fill="#90EE90" font-weight="normal">Vendor Relationship Management</text>
  </a>
  <a xlink:href="/use-case/supply-chain-management/vendor-management/vendor-relationship-management/vendor-contracts/" target="_top">
    <rect x="400.00" y="375.00" width="120.47" height="25" rx="4" ry="4" fill="none" stroke="none" pointer-events="all" />
    <text x="410.00" y="392.00" text-anchor="start" font-family="Roboto, sans-serif" font-size="13" fill="#90EE90" font-weight="normal">Vendor Contracts</text>
  </a>
  <a xlink:href="/use-case/supply-chain-management/vendor-management/vendor-relationship-management/vendor-performance/" target="_top">
    <rect x="400.00" y="400.00" width="147.17" height="25" rx="4" ry="4" fill="#4051B5" stroke="#FF6F00" stroke-width="1.5" />
    <text x="410.00" y="417.00" text-anchor="start" font-family="Roboto, sans-serif" font-size="13" fill="#FFFFFF" font-weight="bold">Vendor Performance</text>
  </a>
</svg>