<svg xmlns="http://www.w3.org/2000/svg" xmlns:xlink="http://www.w3.org/1999/xlink" contentStyleType="text/css" data-diagram-type="MINDMAP" height="758px" preserveAspectRatio="none" style="width:1102px;height:758px;" version="1.1" viewBox="0 0 1102 758" width="1102px" zoomAndPan="magnify"><defs/><g><polygon fill="#4051B5" points="14,360.0078,14,360.218,24.0412,359.5935,34.0824,360.2011,44.1235,360.4075,54.1647,359.2944,64.2059,359.9301,74.2471,359.5813,84.2882,359.6243,94.3294,359.9397,104.3706,359.3164,114.4118,360.5615,124.453,359.3775,134.4941,359.81,144.5353,360.4398,154.5765,359.922,164.6177,360.0761,174.6589,359.9759,184.7,360.1863,194.7412,360.2469,204.7824,360.5935,214.8236,360.6789,224.8647,360.6871,234.9059,360.2624,244.9471,360.4714,254.9883,360.71,265.0295,359.2866,275.0706,360.6863,285.1118,359.7113,295.153,360.5416,305.1942,359.5128,315.2354,360.0078,315.2266,359.9867,315.8956,360.4705,316.3605,360.4614,316.9458,360.7432,317.5413,361.0494,318.0638,361.1794,318.192,361.2325,318.2969,361.7446,318.6209,362.3474,318.5904,362.8034,319.0886,363.4784,319.2354,364.0078,319.4181,364.0078,319.3835,369.6672,319.4397,375.3266,319.0743,380.9859,319.018,386.6453,319.2354,392.3047,319.044,392.2254,318.9829,392.8629,318.7062,393.411,318.7423,394.0887,318.2443,394.5451,318.0638,395.1331,318.02,395.0275,317.5272,395.4377,316.8473,395.3964,316.3005,395.6762,315.8838,396.2702,315.2354,396.3047,315.2354,396.7404,305.1942,397.0392,295.153,395.9829,285.1118,396.6239,275.0706,396.8951,265.0295,395.8323,254.9883,396.2088,244.9471,396.4307,234.9059,396.9564,224.8647,396.3005,214.8236,396.7673,204.7824,395.7509,194.7412,395.6274,184.7,396.8083,174.6589,395.5877,164.6177,396.8136,154.5765,396.5113,144.5353,396.0368,134.4941,395.9509,124.453,396.7634,114.4118,396.0054,104.3706,396.8965,94.3294,395.7519,84.2882,396.9221,74.2471,396.789,64.2059,396.5497,54.1647,396.3519,44.1235,397.0313,34.0824,396.9183,24.0412,396.4739,14,396.3047,14.0342,396.3873,13.4177,396.0303,12.96,396.0567,12.3227,395.6494,11.7593,395.4206,11.1716,395.1331,10.9842,395.0555,10.8125,394.5157,10.8664,394.0694,10.601,393.4909,10.2211,392.8649,10,392.3047,9.8926,392.3047,9.927,386.6453,9.7713,380.9859,10.1382,375.3266,10.2465,369.6672,10,364.0078,10.1621,364.075,10.4483,363.5308,10.4265,362.859,10.7298,362.3219,10.8179,361.6956,11.1716,361.1794,11.2078,361.2669,11.7687,361.0211,12.3734,360.8809,12.8393,360.4057,13.4172,360.2007,14,360.0078" style="stroke:#FF6F00;stroke-width:1.5;"/><text fill="#FFFFFF" font-family="'Roboto'" font-size="14" lengthAdjust="spacing" textLength="289.2354" x="20" y="383.0029">Complex Construction Project Quotations</text><a href="/use-case/construction-project-quotations/estimating-and-pricing/" target="_top" title="/use-case/construction-project-quotations/estimating-and-pricing/" xlink:actuate="onRequest" xlink:href="/use-case/construction-project-quotations/estimating-and-pricing/" xlink:show="new" xlink:title="/use-case/construction-project-quotations/estimating-and-pricing/" xlink:type="simple"><text fill="#90EE90" font-family="'Roboto'" font-size="14" lengthAdjust="spacing" textLength="142.126" x="376.2354" y="93.7373">Estimating &amp; Pricing</text></a><a href="/use-case/construction-project-quotations/estimating-and-pricing/contingency-and-escalation/" target="_top" title="/use-case/construction-project-quotations/estimating-and-pricing/contingency-and-escalation/" xlink:actuate="onRequest" xlink:href="/use-case/construction-project-quotations/estimating-and-pricing/contingency-and-escalation/" xlink:show="new" xlink:title="/use-case/construction-project-quotations/estimating-and-pricing/contingency-and-escalation/" xlink:type="simple"><text fill="#90EE90" font-family="'Roboto'" font-size="14" lengthAdjust="spacing" textLength="179.3408" x="579.3613" y="27.9951">Contingency &amp; Escalation</text></a><path d="M522.3613,88.8906 L522.3613,89.0775 L524.3613,88.5223 L526.3613,89.0624 L528.3613,89.2459 L530.3613,88.2565 L532.3613,88.8906 L532.3613,88.8906 L532.3352,88.868 L533.9994,86.712 L535.795,84.6701 L537.6822,82.7075 L539.2542,80.4716 L541.2676,78.6184 L541.5029,78.6904 L541.6443,76.4306 L542.4726,74.3811 L543.3847,72.3572 L543.8092,70.184 L544.4902,68.0894 L544.5197,68.0964 L545.0506,65.6721 L545.7159,63.2798 L546.3163,60.8721 L547.0403,58.4937 L547.3613,56.0195 L547.6515,56.0886 L548.2292,53.6754 L548.6199,51.2178 L549.2844,48.8253 L549.9618,46.4359 L550.2324,43.9497 L549.9259,43.8559 L551.1653,41.9321 L551.3955,39.6995 L552.3929,37.7017 L552.6002,35.4621 L553.4551,33.4207 L553.4321,33.4007 L555.4854,31.5821 L557.0012,29.2976 L558.8342,27.288 L560.6938,25.3015 L562.3613,23.1484 L562.3613,23.5184 L564.3613,23.145 L566.3613,23.4037 L568.3613,22.6396 L570.3613,23.4012 L572.3613,23.1484" fill="none" style="stroke:#FF9900;stroke-width:1;"/><a href="/use-case/construction-project-quotations/estimating-and-pricing/indirects-overheads-general-conditions/" target="_top" title="/use-case/construction-project-quotations/estimating-and-pricing/indirects-overheads-general-conditions/" xlink:actuate="onRequest" xlink:href="/use-case/construction-project-quotations/estimating-and-pricing/indirects-overheads-general-conditions/" xlink:show="new" xlink:title="/use-case/construction-project-quotations/estimating-and-pricing/indirects-overheads-general-conditions/" xlink:type="simple"><text fill="#90EE90" font-family="'Roboto'" font-size="14" lengthAdjust="spacing" textLength="298.9902" x="579.3613" y="54.292">Indirects, Overheads &amp; General Conditions</text></a><path d="M522.3613,88.8906 L522.3613,89.0775 L524.3613,88.5223 L526.3613,89.0624 L528.3613,89.2459 L530.3613,88.2565 L532.3613,88.8906 L532.3613,88.8906 L532.3417,88.8622 L534.0347,87.5021 L535.8268,86.2851 L537.6878,85.1677 L539.3115,83.7073 L541.2676,82.7273 L541.492,82.8282 L542.2308,79.9006 L543.6249,77.2675 L545.0989,74.6704 L546.1078,71.8642 L547.3613,69.168 L547.389,69.1804 L548.5671,66.4503 L549.8712,63.7768 L551.1145,61.0759 L552.4738,58.4272 L553.4551,55.6086 L553.6248,55.8539 L555.4081,54.6242 L557.082,53.2364 L558.9161,52.0801 L560.7577,50.9346 L562.3613,49.4453 L562.3613,48.8043 L564.3613,50.0484 L566.3613,49.1818 L568.3613,49.9198 L570.3613,49.0053 L572.3613,49.4453" fill="none" style="stroke:#FF9900;stroke-width:1;"/><a href="/use-case/construction-project-quotations/estimating-and-pricing/labor-productivity-and-crew-modeling/" target="_top" title="/use-case/construction-project-quotations/estimating-and-pricing/labor-productivity-and-crew-modeling/" xlink:actuate="onRequest" xlink:href="/use-case/construction-project-quotations/estimating-and-pricing/labor-productivity-and-crew-modeling/" xlink:show="new" xlink:title="/use-case/construction-project-quotations/estimating-and-pricing/labor-productivity-and-crew-modeling/" xlink:type="simple"><text fill="#90EE90" font-family="'Roboto'" font-size="14" lengthAdjust="spacing" textLength="251.1318" x="579.3613" y="80.5889">Labor Productivity &amp; Crew Modeling</text></a><path d="M522.3613,88.8906 L522.3613,89.0775 L524.3613,88.5223 L526.3613,89.0624 L528.3613,89.2459 L530.3613,88.2565 L532.3613,88.8906 L532.3613,88.8906 L532.3475,88.859 L535.2852,87.4022 L538.2929,86.1048 L541.3492,84.9183 L544.238,83.3498 L547.3613,82.3164 L547.4601,82.5418 L550.2489,80.745 L553.326,79.6062 L556.4384,78.5477 L559.346,77.0221 L562.3613,75.7422 L562.3613,75.8028 L564.3613,75.7138 L566.3613,75.9009 L568.3613,75.9548 L570.3613,76.2628 L572.3613,75.7422" fill="none" style="stroke:#FF9900;stroke-width:1;"/><a href="/use-case/construction-project-quotations/estimating-and-pricing/pricing-strategy-margin-markups/" target="_top" title="/use-case/construction-project-quotations/estimating-and-pricing/pricing-strategy-margin-markups/" xlink:actuate="onRequest" xlink:href="/use-case/construction-project-quotations/estimating-and-pricing/pricing-strategy-margin-markups/" xlink:show="new" xlink:title="/use-case/construction-project-quotations/estimating-and-pricing/pricing-strategy-margin-markups/" xlink:type="simple"><text fill="#90EE90" font-family="'Roboto'" font-size="14" lengthAdjust="spacing" textLength="239.5996" x="579.3613" y="106.8857">Pricing Strategy (Margin/Markups)</text></a><path d="M522.3613,88.8906 L522.3613,89.0775 L524.3613,88.5223 L526.3613,89.0624 L528.3613,89.2459 L530.3613,88.2565 L532.3613,88.8906 L532.3613,88.8906 L532.3475,88.859 L535.2852,90.0319 L538.2929,91.3642 L541.3492,92.8074 L544.238,93.8686 L547.3613,95.4648 L547.4601,95.6902 L550.2489,96.5231 L553.326,98.014 L556.4384,99.5852 L559.346,100.6893 L562.3613,102.0391 L562.3613,102.0997 L564.3613,102.0107 L566.3613,102.1978 L568.3613,102.2516 L570.3613,102.5597 L572.3613,102.0391" fill="none" style="stroke:#FF9900;stroke-width:1;"/><a href="/use-case/construction-project-quotations/estimating-and-pricing/quantity-takeoff/" target="_top" title="/use-case/construction-project-quotations/estimating-and-pricing/quantity-takeoff/" xlink:actuate="onRequest" xlink:href="/use-case/construction-project-quotations/estimating-and-pricing/quantity-takeoff/" xlink:show="new" xlink:title="/use-case/construction-project-quotations/estimating-and-pricing/quantity-takeoff/" xlink:type="simple"><text fill="#90EE90" font-family="'Roboto'" font-size="14" lengthAdjust="spacing" textLength="207.2178" x="579.3613" y="133.1826">Quantity Takeoff (2D/3D/BIM)</text></a><path d="M522.3613,88.8906 L522.3613,89.0775 L524.3613,88.5223 L526.3613,89.0624 L528.3613,89.2459 L530.3613,88.2565 L532.3613,88.8906 L532.3613,88.8906 L532.3417,88.8622 L534.0347,89.9674 L535.8268,91.2158 L537.6878,92.5637 L539.3115,93.5686 L541.2676,95.054 L541.492,95.1548 L542.2308,97.651 L543.6249,100.4417 L545.0989,103.2682 L546.1078,105.8858 L547.3613,108.6133 L547.389,108.6257 L548.5671,111.3193 L549.8712,114.0695 L551.1145,116.7924 L552.4738,119.5674 L553.4551,122.1726 L553.6248,122.4179 L555.4081,123.6535 L557.082,124.731 L558.9161,126.04 L560.7577,127.3599 L562.3613,128.3359 L562.3613,127.6949 L564.3613,128.9391 L566.3613,128.0724 L568.3613,128.8104 L570.3613,127.8959 L572.3613,128.3359" fill="none" style="stroke:#FF9900;stroke-width:1;"/><a href="/use-case/construction-project-quotations/estimating-and-pricing/unit-rates-and-cost-libraries/" target="_top" title="/use-case/construction-project-quotations/estimating-and-pricing/unit-rates-and-cost-libraries/" xlink:actuate="onRequest" xlink:href="/use-case/construction-project-quotations/estimating-and-pricing/unit-rates-and-cost-libraries/" xlink:show="new" xlink:title="/use-case/construction-project-quotations/estimating-and-pricing/unit-rates-and-cost-libraries/" xlink:type="simple"><text fill="#90EE90" font-family="'Roboto'" font-size="14" lengthAdjust="spacing" textLength="188.5078" x="579.3613" y="159.4795">Unit Rates &amp; Cost Libraries</text></a><path d="M522.3613,88.8906 L522.3613,89.0775 L524.3613,88.5223 L526.3613,89.0624 L528.3613,89.2459 L530.3613,88.2565 L532.3613,88.8906 L532.3613,88.8906 L532.3352,88.868 L533.9994,90.8209 L535.795,92.8879 L537.6822,95.0341 L539.2542,96.9071 L541.2676,99.1628 L541.5029,99.2349 L541.6443,101.1867 L542.4726,103.3487 L543.3847,105.5364 L543.8092,107.5749 L544.4902,109.6919 L544.5197,109.6989 L545.0506,112.1025 L545.7159,114.5382 L546.3163,116.9584 L547.0403,119.408 L547.3613,121.7617 L547.6515,121.8307 L548.2292,124.2456 L548.6199,126.6158 L549.2844,129.0513 L549.9618,131.4898 L550.2324,133.8316 L549.9259,133.7378 L551.1653,136.0256 L551.3955,138.0046 L552.3929,140.2184 L552.6002,142.1904 L553.4551,144.3606 L553.4321,144.3407 L555.4854,146.631 L557.0012,148.4553 L558.8342,150.5546 L560.6938,152.677 L562.3613,154.6328 L562.3613,155.0028 L564.3613,154.6293 L566.3613,154.8881 L568.3613,154.124 L570.3613,154.8856 L572.3613,154.6328" fill="none" style="stroke:#FF9900;stroke-width:1;"/><path d="M319.2354,378.1563 L319.2354,378.3431 L321.2354,377.788 L323.2354,378.3281 L325.2354,378.5115 L327.2354,377.5221 L329.2354,378.1563 L329.2354,378.1563 L329.2033,378.1434 L330.0555,375.5999 L331.0693,373.1211 L332.1955,370.6874 L332.9345,368.0985 L334.2158,365.7269 L334.4593,365.7622 L334.3532,362.8335 L334.9579,360.008 L335.6495,357.1951 L335.8363,354.309 L336.2886,351.4613 L336.3188,351.4643 L336.6451,347.7593 L337.1087,344.0681 L337.5061,340.3702 L338.03,336.685 L338.1416,332.9585 L338.439,332.9813 L338.7781,328.603 L338.9253,324.2101 L339.3534,319.8386 L339.7946,315.4682 L339.8188,311.0658 L339.499,311.0456 L340.4289,306.1979 L340.3055,301.2835 L340.9829,296.4198 L340.8356,291.5039 L341.3643,286.6308 L341.2731,286.6259 L342.9258,276.0627 L342.4478,265.3843 L343.2271,254.774 L344.112,244.1693 L344.2354,233.5234 L344.7895,233.5534 L344.8044,222.9017 L345.7662,212.3012 L345.1959,201.6178 L346.9109,191.058 L347.1064,180.4161 L347.3496,180.4315 L347.6127,175.5415 L347.9965,170.6593 L347.8194,165.7415 L348.0535,160.8498 L348.6519,155.981 L348.3765,155.9599 L348.9612,151.6005 L349.2357,147.2173 L349.9602,142.8686 L349.9162,138.461 L350.3291,134.0884 L350.1774,134.0732 L350.8007,130.3979 L350.7754,126.6577 L351.2113,122.9637 L352.0985,119.3149 L352.1821,115.5855 L352.3737,115.6134 L352.9197,112.7794 L352.8697,109.8588 L353.5662,107.0466 L354.1,104.2108 L354.2549,101.32 L354.06,101.2419 L355.2114,98.8183 L356.299,96.3691 L357.5121,93.9701 L358.2375,91.3758 L359.2354,88.8906 L359.2354,89.3018 L361.2354,88.3984 L363.2354,88.2886 L365.2354,89.3383 L367.2354,88.2533 L369.2354,88.8906" fill="none" style="stroke:#FF9900;stroke-width:1;"/><a href="/use-case/construction-project-quotations/knowledge-capture-and-improvement/" target="_top" title="/use-case/construction-project-quotations/knowledge-capture-and-improvement/" xlink:actuate="onRequest" xlink:href="/use-case/construction-project-quotations/knowledge-capture-and-improvement/" xlink:show="new" xlink:title="/use-case/construction-project-quotations/knowledge-capture-and-improvement/" xlink:type="simple"><text fill="#90EE90" font-family="'Roboto'" font-size="14" lengthAdjust="spacing" textLength="335.207" x="376.2354" y="225.2217">Knowledge Capture &amp; Continuous Improvement</text></a><a href="/use-case/construction-project-quotations/knowledge-capture-and-improvement/document-ingestion-and-knowledge-extraction/" target="_top" title="/use-case/construction-project-quotations/knowledge-capture-and-improvement/document-ingestion-and-knowledge-extraction/" xlink:actuate="onRequest" xlink:href="/use-case/construction-project-quotations/knowledge-capture-and-improvement/document-ingestion-and-knowledge-extraction/" xlink:show="new" xlink:title="/use-case/construction-project-quotations/knowledge-capture-and-improvement/document-ingestion-and-knowledge-extraction/" xlink:type="simple"><text fill="#90EE90" font-family="'Roboto'" font-size="14" lengthAdjust="spacing" textLength="314.2891" x="772.4424" y="185.7764">Document Ingestion &amp; Knowledge Extraction</text></a><path d="M715.4424,220.375 L715.4424,220.5618 L717.4424,220.0067 L719.4424,220.5468 L721.4424,220.7303 L723.4424,219.7409 L725.4424,220.375 L725.4424,220.375 L725.4227,220.3466 L727.1158,218.9865 L728.9079,217.7695 L730.7689,216.6521 L732.3925,215.1917 L734.3486,214.2117 L734.5731,214.3125 L735.3119,211.385 L736.706,208.7519 L738.18,206.1548 L739.1889,203.3486 L740.4424,200.6523 L740.47,200.6648 L741.6482,197.9347 L742.9523,195.2611 L744.1956,192.5603 L745.5548,189.9116 L746.5361,187.093 L746.7059,187.3383 L748.4892,186.1086 L750.163,184.7207 L751.9971,183.5644 L753.8387,182.419 L755.4424,180.9297 L755.4424,180.2886 L757.4424,181.5328 L759.4424,180.6661 L761.4424,181.4042 L763.4424,180.4897 L765.4424,180.9297" fill="none" style="stroke:#FF9900;stroke-width:1;"/><a href="/use-case/construction-project-quotations/knowledge-capture-and-improvement/estimate-vs-actual-and-lessons-learned/" target="_top" title="/use-case/construction-project-quotations/knowledge-capture-and-improvement/estimate-vs-actual-and-lessons-learned/" xlink:actuate="onRequest" xlink:href="/use-case/construction-project-quotations/knowledge-capture-and-improvement/estimate-vs-actual-and-lessons-learned/" xlink:show="new" xlink:title="/use-case/construction-project-quotations/knowledge-capture-and-improvement/estimate-vs-actual-and-lessons-learned/" xlink:type="simple"><text fill="#90EE90" font-family="'Roboto'" font-size="14" lengthAdjust="spacing" textLength="267.5449" x="772.4424" y="212.0732">Estimate vs Actual &amp; Lessons Learned</text></a><path d="M715.4424,220.375 L715.4424,220.5618 L717.4424,220.0067 L719.4424,220.5468 L721.4424,220.7303 L723.4424,219.7409 L725.4424,220.375 L725.4424,220.375 L725.4285,220.3434 L728.3663,218.8865 L731.374,217.5892 L734.4302,216.4027 L737.319,214.8342 L740.4424,213.8008 L740.5412,214.0261 L743.3299,212.2294 L746.4071,211.0906 L749.5194,210.0321 L752.4271,208.5065 L755.4424,207.2266 L755.4424,207.2872 L757.4424,207.1982 L759.4424,207.3853 L761.4424,207.4391 L763.4424,207.7472 L765.4424,207.2266" fill="none" style="stroke:#FF9900;stroke-width:1;"/><a href="/use-case/construction-project-quotations/knowledge-capture-and-improvement/sme-knowledge-capture/" target="_top" title="/use-case/construction-project-quotations/knowledge-capture-and-improvement/sme-knowledge-capture/" xlink:actuate="onRequest" xlink:href="/use-case/construction-project-quotations/knowledge-capture-and-improvement/sme-knowledge-capture/" xlink:show="new" xlink:title="/use-case/construction-project-quotations/knowledge-capture-and-improvement/sme-knowledge-capture/" xlink:type="simple"><text fill="#90EE90" font-family="'Roboto'" font-size="14" lengthAdjust="spacing" textLength="171.6436" x="772.4424" y="238.3701">SME Knowledge Capture</text></a><path d="M715.4424,220.375 L715.4424,220.5618 L717.4424,220.0067 L719.4424,220.5468 L721.4424,220.7303 L723.4424,219.7409 L725.4424,220.375 L725.4424,220.375 L725.4285,220.3434 L728.3663,221.5162 L731.374,222.8486 L734.4302,224.2918 L737.319,225.3529 L740.4424,226.9492 L740.5412,227.1746 L743.3299,228.0075 L746.4071,229.4984 L749.5194,231.0696 L752.4271,232.1737 L755.4424,233.5234 L755.4424,233.5841 L757.4424,233.495 L759.4424,233.6821 L761.4424,233.736 L763.4424,234.0441 L765.4424,233.5234" fill="none" style="stroke:#FF9900;stroke-width:1;"/><a href="/use-case/construction-project-quotations/knowledge-capture-and-improvement/traceability-and-provenance/" target="_top" title="/use-case/construction-project-quotations/knowledge-capture-and-improvement/traceability-and-provenance/" xlink:actuate="onRequest" xlink:href="/use-case/construction-project-quotations/knowledge-capture-and-improvement/traceability-and-provenance/" xlink:show="new" xlink:title="/use-case/construction-project-quotations/knowledge-capture-and-improvement/traceability-and-provenance/" xlink:type="simple"><text fill="#90EE90" font-family="'Roboto'" font-size="14" lengthAdjust="spacing" textLength="184.2217" x="772.4424" y="264.667">Traceability &amp; Provenance</text></a><path d="M715.4424,220.375 L715.4424,220.5618 L717.4424,220.0067 L719.4424,220.5468 L721.4424,220.7303 L723.4424,219.7409 L725.4424,220.375 L725.4424,220.375 L725.4227,220.3466 L727.1158,221.4518 L728.9079,222.7002 L730.7689,224.0481 L732.3925,225.053 L734.3486,226.5383 L734.5731,226.6392 L735.3119,229.1354 L736.706,231.926 L738.18,234.7526 L739.1889,237.3702 L740.4424,240.0977 L740.47,240.1101 L741.6482,242.8037 L742.9523,245.5539 L744.1956,248.2768 L745.5548,251.0518 L746.5361,253.657 L746.7059,253.9022 L748.4892,255.1379 L750.163,256.2154 L751.9971,257.5244 L753.8387,258.8443 L755.4424,259.8203 L755.4424,259.1793 L757.4424,260.4234 L759.4424,259.5568 L761.4424,260.2948 L763.4424,259.3803 L765.4424,259.8203" fill="none" style="stroke:#FF9900;stroke-width:1;"/><path d="M319.2354,378.1563 L319.2354,378.3431 L321.2354,377.788 L323.2354,378.3281 L325.2354,378.5115 L327.2354,377.5221 L329.2354,378.1563 L329.2354,378.1563 L329.2075,378.1358 L330.0787,376.6881 L331.0902,375.3435 L332.1992,374.0705 L332.9721,372.5506 L334.2158,371.3766 L334.4562,371.4294 L334.7274,367.7418 L335.7003,364.2083 L336.7588,360.6936 L337.3192,357.0695 L338.1416,353.5029 L338.1716,353.5071 L338.463,351.1127 L338.8911,348.7374 L339.2532,346.3528 L339.7412,343.986 L339.8188,341.5615 L340.1151,341.5958 L340.4278,338.9306 L340.5494,336.2432 L340.9508,333.5883 L341.3652,330.9349 L341.3643,328.2333 L341.0453,328.2017 L342.2386,322.4695 L342.3816,316.6332 L343.323,310.8761 L343.4422,305.0375 L344.2354,299.2656 L344.2051,299.2626 L345.1376,293.5046 L345.3622,287.6764 L346.0046,281.8897 L346.682,276.1063 L347.1064,270.298 L347.2902,270.3193 L347.4138,267.6321 L347.8514,264.9814 L347.781,262.2718 L348.4683,259.65 L348.6519,256.9698 L348.8931,257.0037 L349.183,254.609 L349.5926,252.2311 L349.4456,249.775 L349.7066,247.3763 L350.3291,245.0283 L350.0594,244.9691 L351.0887,241.448 L351.8141,237.8601 L352.9804,234.3691 L353.3939,230.7127 L354.2549,227.1547 L354.132,227.0644 L355.3327,225.8588 L356.0082,224.2673 L357.0572,222.9503 L358.4717,221.9017 L359.2354,220.375 L359.2354,220.7623 L361.2354,221.0279 L363.2354,220.089 L365.2354,220.6587 L367.2354,220.8998 L369.2354,220.375" fill="none" style="stroke:#FF9900;stroke-width:1;"/><a href="/use-case/construction-project-quotations/opportunity-and-tender-intake/" target="_top" title="/use-case/construction-project-quotations/opportunity-and-tender-intake/" xlink:actuate="onRequest" xlink:href="/use-case/construction-project-quotations/opportunity-and-tender-intake/" xlink:show="new" xlink:title="/use-case/construction-project-quotations/opportunity-and-tender-intake/" xlink:type="simple"><text fill="#90EE90" font-family="'Roboto'" font-size="14" lengthAdjust="spacing" textLength="201.3662" x="376.2354" y="317.2607">Opportunity &amp; Tender Intake</text></a><a href="/use-case/construction-project-quotations/opportunity-and-tender-intake/bid-no-bid-decisioning/" target="_top" title="/use-case/construction-project-quotations/opportunity-and-tender-intake/bid-no-bid-decisioning/" xlink:actuate="onRequest" xlink:href="/use-case/construction-project-quotations/opportunity-and-tender-intake/bid-no-bid-decisioning/" xlink:show="new" xlink:title="/use-case/construction-project-quotations/opportunity-and-tender-intake/bid-no-bid-decisioning/" xlink:type="simple"><text fill="#90EE90" font-family="'Roboto'" font-size="14" lengthAdjust="spacing" textLength="159.2705" x="638.6016" y="290.9639">Bid/No-Bid Decisioning</text></a><path d="M581.6016,312.4141 L581.6016,312.6009 L583.6016,312.0458 L585.6016,312.5859 L587.6016,312.7693 L589.6016,311.7799 L591.6016,312.4141 L591.6016,312.4141 L591.5788,312.3881 L594.4766,309.6418 L597.4892,307.0265 L600.5816,304.5022 L603.399,301.6642 L606.6016,299.2656 L606.7638,299.4507 L609.4169,296.4253 L612.5436,293.9402 L615.7281,291.5209 L618.5764,288.7182 L621.6016,286.1172 L621.6016,286.1778 L623.6016,286.0888 L625.6016,286.2759 L627.6016,286.3298 L629.6016,286.6378 L631.6016,286.1172" fill="none" style="stroke:#FF9900;stroke-width:1;"/><a href="/use-case/construction-project-quotations/opportunity-and-tender-intake/rfp-rfq-intake/" target="_top" title="/use-case/construction-project-quotations/opportunity-and-tender-intake/rfp-rfq-intake/" xlink:actuate="onRequest" xlink:href="/use-case/construction-project-quotations/opportunity-and-tender-intake/rfp-rfq-intake/" xlink:show="new" xlink:title="/use-case/construction-project-quotations/opportunity-and-tender-intake/rfp-rfq-intake/" xlink:type="simple"><text fill="#90EE90" font-family="'Roboto'" font-size="14" lengthAdjust="spacing" textLength="258.542" x="638.6016" y="317.2607">RFP/RFQ Intake &amp; Document Catalog</text></a><path d="M581.6016,312.4141 L581.6016,312.6009 L583.6016,312.0458 L585.6016,312.5859 L587.6016,312.7693 L589.6016,311.7799 L591.6016,312.4141 L591.6016,312.4141 L591.6016,312.3795 L597.6016,312.2245 L603.6016,312.2436 L609.6016,312.3838 L615.6016,312.1068 L621.6016,312.4141 L621.6016,312.9062 L623.6016,311.8538 L625.6016,312.2383 L627.6016,312.798 L629.6016,312.3378 L631.6016,312.4141" fill="none" style="stroke:#FF9900;stroke-width:1;"/><a href="/use-case/construction-project-quotations/opportunity-and-tender-intake/site-visit-and-existing-conditions/" target="_top" title="/use-case/construction-project-quotations/opportunity-and-tender-intake/site-visit-and-existing-conditions/" xlink:actuate="onRequest" xlink:href="/use-case/construction-project-quotations/opportunity-and-tender-intake/site-visit-and-existing-conditions/" xlink:show="new" xlink:title="/use-case/construction-project-quotations/opportunity-and-tender-intake/site-visit-and-existing-conditions/" xlink:type="simple"><text fill="#90EE90" font-family="'Roboto'" font-size="14" lengthAdjust="spacing" textLength="215.291" x="638.6016" y="343.5576">Site Visit &amp; Existing Conditions</text></a><path d="M581.6016,312.4141 L581.6016,312.6009 L583.6016,312.0458 L585.6016,312.5859 L587.6016,312.7693 L589.6016,311.7799 L591.6016,312.4141 L591.6016,312.4141 L591.5788,312.3881 L594.4766,314.9012 L597.4892,317.5453 L600.5816,320.2803 L603.399,322.7017 L606.6016,325.5625 L606.7638,325.7475 L609.4169,327.9815 L612.5436,330.7558 L615.7281,333.5959 L618.5764,336.0526 L621.6016,338.7109 L621.6016,338.7716 L623.6016,338.6825 L625.6016,338.8696 L627.6016,338.9235 L629.6016,339.2316 L631.6016,338.7109" fill="none" style="stroke:#FF9900;stroke-width:1;"/><path d="M319.2354,378.1563 L319.2354,378.3431 L321.2354,377.788 L323.2354,378.3281 L325.2354,378.5115 L327.2354,377.5221 L329.2354,378.1563 L329.2354,378.1563 L329.2093,378.1336 L330.8734,375.9776 L332.6691,373.9357 L334.5562,371.9731 L336.1282,369.7372 L338.1416,367.884 L338.3769,367.956 L338.5183,365.6962 L339.3466,363.6467 L340.2588,361.6228 L340.6833,359.4497 L341.3643,357.355 L341.3938,357.362 L341.9247,354.9378 L342.5899,352.5454 L343.1903,350.1377 L343.9144,347.7594 L344.2354,345.2852 L344.5255,345.3542 L345.1033,342.941 L345.4939,340.4834 L346.1585,338.0909 L346.8359,335.7015 L347.1064,333.2153 L346.8,333.1215 L348.0393,331.1978 L348.2695,328.9651 L349.2669,326.9673 L349.4742,324.7277 L350.3291,322.6863 L350.3061,322.6663 L352.3594,320.8478 L353.8752,318.5632 L355.7082,316.5536 L357.5678,314.5671 L359.2354,312.4141 L359.2354,312.784 L361.2354,312.4106 L363.2354,312.6694 L365.2354,311.9052 L367.2354,312.6669 L369.2354,312.4141" fill="none" style="stroke:#FF9900;stroke-width:1;"/><a href="/use-case/construction-project-quotations/proposal-submission-and-negotiation/" target="_top" title="/use-case/construction-project-quotations/proposal-submission-and-negotiation/" xlink:actuate="onRequest" xlink:href="/use-case/construction-project-quotations/proposal-submission-and-negotiation/" xlink:show="new" xlink:title="/use-case/construction-project-quotations/proposal-submission-and-negotiation/" xlink:type="simple"><text fill="#90EE90" font-family="'Roboto'" font-size="14" lengthAdjust="spacing" textLength="161.1094" x="376.2354" y="396.1514">Proposal &amp; Negotiation</text></a><a href="/use-case/construction-project-quotations/proposal-submission-and-negotiation/compliance-matrix-and-submission-packaging/" target="_top" title="/use-case/construction-project-quotations/proposal-submission-and-negotiation/compliance-matrix-and-submission-packaging/" xlink:actuate="onRequest" xlink:href="/use-case/construction-project-quotations/proposal-submission-and-negotiation/compliance-matrix-and-submission-packaging/" xlink:show="new" xlink:title="/use-case/construction-project-quotations/proposal-submission-and-negotiation/compliance-matrix-and-submission-packaging/" xlink:type="simple"><text fill="#90EE90" font-family="'Roboto'" font-size="14" lengthAdjust="spacing" textLength="307.2344" x="598.3447" y="369.8545">Compliance Matrix &amp; Submission Packaging</text></a><path d="M541.3447,391.3047 L541.3447,391.4915 L543.3447,390.9364 L545.3447,391.4765 L547.3447,391.66 L549.3447,390.6706 L551.3447,391.3047 L551.3447,391.3047 L551.322,391.2787 L554.2198,388.5325 L557.2324,385.9171 L560.3248,383.3928 L563.1422,380.5549 L566.3447,378.1563 L566.5069,378.3413 L569.1601,375.3159 L572.2868,372.8308 L575.4713,370.4116 L578.3196,367.6088 L581.3447,365.0078 L581.3447,365.0685 L583.3447,364.9794 L585.3447,365.1665 L587.3447,365.2204 L589.3447,365.5284 L591.3447,365.0078" fill="none" style="stroke:#FF9900;stroke-width:1;"/><a href="/use-case/construction-project-quotations/proposal-submission-and-negotiation/negotiation-support-and-revisions/" target="_top" title="/use-case/construction-project-quotations/proposal-submission-and-negotiation/negotiation-support-and-revisions/" xlink:actuate="onRequest" xlink:href="/use-case/construction-project-quotations/proposal-submission-and-negotiation/negotiation-support-and-revisions/" xlink:show="new" xlink:title="/use-case/construction-project-quotations/proposal-submission-and-negotiation/negotiation-support-and-revisions/" xlink:type="simple"><text fill="#90EE90" font-family="'Roboto'" font-size="14" lengthAdjust="spacing" textLength="227.3564" x="598.3447" y="396.1514">Negotiation Support &amp; Revisions</text></a><path d="M541.3447,391.3047 L541.3447,391.4915 L543.3447,390.9364 L545.3447,391.4765 L547.3447,391.66 L549.3447,390.6706 L551.3447,391.3047 L551.3447,391.3047 L551.3447,391.2701 L557.3447,391.1151 L563.3447,391.1342 L569.3447,391.2744 L575.3447,390.9974 L581.3447,391.3047 L581.3447,391.7968 L583.3447,390.7444 L585.3447,391.1289 L587.3447,391.6886 L589.3447,391.2284 L591.3447,391.3047" fill="none" style="stroke:#FF9900;stroke-width:1;"/><a href="/use-case/construction-project-quotations/proposal-submission-and-negotiation/proposal-document-generation/" target="_top" title="/use-case/construction-project-quotations/proposal-submission-and-negotiation/proposal-document-generation/" xlink:actuate="onRequest" xlink:href="/use-case/construction-project-quotations/proposal-submission-and-negotiation/proposal-document-generation/" xlink:show="new" xlink:title="/use-case/construction-project-quotations/proposal-submission-and-negotiation/proposal-document-generation/" xlink:type="simple"><text fill="#90EE90" font-family="'Roboto'" font-size="14" lengthAdjust="spacing" textLength="306.8037" x="598.3447" y="422.4482">Proposal Document Generation &amp; Assembly</text></a><path d="M541.3447,391.3047 L541.3447,391.4915 L543.3447,390.9364 L545.3447,391.4765 L547.3447,391.66 L549.3447,390.6706 L551.3447,391.3047 L551.3447,391.3047 L551.322,391.2787 L554.2198,393.7918 L557.2324,396.4359 L560.3248,399.171 L563.1422,401.5924 L566.3447,404.4531 L566.5069,404.6382 L569.1601,406.8722 L572.2868,409.6464 L575.4713,412.4866 L578.3196,414.9432 L581.3447,417.6016 L581.3447,417.6622 L583.3447,417.5732 L585.3447,417.7603 L587.3447,417.8141 L589.3447,418.1222 L591.3447,417.6016" fill="none" style="stroke:#FF9900;stroke-width:1;"/><path d="M319.2354,378.1563 L319.2354,378.3431 L321.2354,377.788 L323.2354,378.3281 L325.2354,378.5115 L327.2354,377.5221 L329.2354,378.1563 L329.2354,378.1563 L329.2215,378.1246 L332.1593,379.2975 L335.1669,380.6298 L338.2232,382.073 L341.112,383.1342 L344.2354,384.7305 L344.3341,384.9558 L347.1229,385.7887 L350.2001,387.2797 L353.3124,388.8508 L356.22,389.9549 L359.2354,391.3047 L359.2354,391.3653 L361.2354,391.2763 L363.2354,391.4634 L365.2354,391.5173 L367.2354,391.8253 L369.2354,391.3047" fill="none" style="stroke:#FF9900;stroke-width:1;"/><a href="/use-case/construction-project-quotations/risk-compliance-and-contracts/" target="_top" title="/use-case/construction-project-quotations/risk-compliance-and-contracts/" xlink:actuate="onRequest" xlink:href="/use-case/construction-project-quotations/risk-compliance-and-contracts/" xlink:show="new" xlink:title="/use-case/construction-project-quotations/risk-compliance-and-contracts/" xlink:type="simple"><text fill="#90EE90" font-family="'Roboto'" font-size="14" lengthAdjust="spacing" textLength="207.6621" x="376.2354" y="488.1904">Risk, Compliance &amp; Contracts</text></a><a href="/use-case/construction-project-quotations/risk-compliance-and-contracts/bonds-insurance-warranties/" target="_top" title="/use-case/construction-project-quotations/risk-compliance-and-contracts/bonds-insurance-warranties/" xlink:actuate="onRequest" xlink:href="/use-case/construction-project-quotations/risk-compliance-and-contracts/bonds-insurance-warranties/" xlink:show="new" xlink:title="/use-case/construction-project-quotations/risk-compliance-and-contracts/bonds-insurance-warranties/" xlink:type="simple"><text fill="#90EE90" font-family="'Roboto'" font-size="14" lengthAdjust="spacing" textLength="217.3008" x="644.8975" y="448.7451">Bonds, Insurance &amp; Warranties</text></a><path d="M587.8975,483.3438 L587.8975,483.5306 L589.8975,482.9755 L591.8975,483.5156 L593.8975,483.699 L595.8975,482.7096 L597.8975,483.3438 L597.8975,483.3438 L597.8778,483.3153 L599.5708,481.9552 L601.363,480.7383 L603.224,479.6208 L604.8476,478.1604 L606.8037,477.1804 L607.0282,477.2813 L607.767,474.3537 L609.161,471.7207 L610.6351,469.1235 L611.6439,466.3173 L612.8975,463.6211 L612.9251,463.6335 L614.1033,460.9034 L615.4073,458.2299 L616.6507,455.5291 L618.0099,452.8803 L618.9912,450.0618 L619.1609,450.307 L620.9443,449.0773 L622.6181,447.6895 L624.4522,446.5332 L626.2938,445.3877 L627.8975,443.8984 L627.8975,443.2574 L629.8975,444.5016 L631.8975,443.6349 L633.8975,444.3729 L635.8975,443.4584 L637.8975,443.8984" fill="none" style="stroke:#FF9900;stroke-width:1;"/><a href="/use-case/construction-project-quotations/risk-compliance-and-contracts/contract-terms-and-commercial-review/" target="_top" title="/use-case/construction-project-quotations/risk-compliance-and-contracts/contract-terms-and-commercial-review/" xlink:actuate="onRequest" xlink:href="/use-case/construction-project-quotations/risk-compliance-and-contracts/contract-terms-and-commercial-review/" xlink:show="new" xlink:title="/use-case/construction-project-quotations/risk-compliance-and-contracts/contract-terms-and-commercial-review/" xlink:type="simple"><text fill="#90EE90" font-family="'Roboto'" font-size="14" lengthAdjust="spacing" textLength="267.415" x="644.8975" y="475.042">Contract Terms &amp; Commercial Review</text></a><path d="M587.8975,483.3438 L587.8975,483.5306 L589.8975,482.9755 L591.8975,483.5156 L593.8975,483.699 L595.8975,482.7096 L597.8975,483.3438 L597.8975,483.3438 L597.8836,483.3121 L600.8214,481.8553 L603.829,480.558 L606.8853,479.3715 L609.7741,477.8029 L612.8975,476.7695 L612.9962,476.9949 L615.785,475.1981 L618.8622,474.0593 L621.9745,473.0008 L624.8822,471.4752 L627.8975,470.1953 L627.8975,470.256 L629.8975,470.1669 L631.8975,470.354 L633.8975,470.4079 L635.8975,470.7159 L637.8975,470.1953" fill="none" style="stroke:#FF9900;stroke-width:1;"/><a href="/use-case/construction-project-quotations/risk-compliance-and-contracts/regulatory-safety-environmental-compliance/" target="_top" title="/use-case/construction-project-quotations/risk-compliance-and-contracts/regulatory-safety-environmental-compliance/" xlink:actuate="onRequest" xlink:href="/use-case/construction-project-quotations/risk-compliance-and-contracts/regulatory-safety-environmental-compliance/" xlink:show="new" xlink:title="/use-case/construction-project-quotations/risk-compliance-and-contracts/regulatory-safety-environmental-compliance/" xlink:type="simple"><text fill="#90EE90" font-family="'Roboto'" font-size="14" lengthAdjust="spacing" textLength="339.1924" x="644.8975" y="501.3389">Regulatory, Safety &amp; Environmental Compliance</text></a><path d="M587.8975,483.3438 L587.8975,483.5306 L589.8975,482.9755 L591.8975,483.5156 L593.8975,483.699 L595.8975,482.7096 L597.8975,483.3438 L597.8975,483.3438 L597.8836,483.3121 L600.8214,484.485 L603.829,485.8173 L606.8853,487.2605 L609.7741,488.3217 L612.8975,489.918 L612.9962,490.1433 L615.785,490.9762 L618.8622,492.4672 L621.9745,494.0383 L624.8822,495.1424 L627.8975,496.4922 L627.8975,496.5528 L629.8975,496.4638 L631.8975,496.6509 L633.8975,496.7048 L635.8975,497.0128 L637.8975,496.4922" fill="none" style="stroke:#FF9900;stroke-width:1;"/><a href="/use-case/construction-project-quotations/risk-compliance-and-contracts/risk-register-and-scenario-analysis/" target="_top" title="/use-case/construction-project-quotations/risk-compliance-and-contracts/risk-register-and-scenario-analysis/" xlink:actuate="onRequest" xlink:href="/use-case/construction-project-quotations/risk-compliance-and-contracts/risk-register-and-scenario-analysis/" xlink:show="new" xlink:title="/use-case/construction-project-quotations/risk-compliance-and-contracts/risk-register-and-scenario-analysis/" xlink:type="simple"><text fill="#90EE90" font-family="'Roboto'" font-size="14" lengthAdjust="spacing" textLength="234.5479" x="644.8975" y="527.6357">Risk Register &amp; Scenario Analysis</text></a><path d="M587.8975,483.3438 L587.8975,483.5306 L589.8975,482.9755 L591.8975,483.5156 L593.8975,483.699 L595.8975,482.7096 L597.8975,483.3438 L597.8975,483.3438 L597.8778,483.3153 L599.5708,484.4205 L601.363,485.6689 L603.224,487.0168 L604.8476,488.0217 L606.8037,489.5071 L607.0282,489.6079 L607.767,492.1041 L609.161,494.8948 L610.6351,497.7214 L611.6439,500.3389 L612.8975,503.0664 L612.9251,503.0788 L614.1033,505.7725 L615.4073,508.5227 L616.6507,511.2456 L618.0099,514.0206 L618.9912,516.6257 L619.1609,516.871 L620.9443,518.1066 L622.6181,519.1841 L624.4522,520.4932 L626.2938,521.813 L627.8975,522.7891 L627.8975,522.148 L629.8975,523.3922 L631.8975,522.5255 L633.8975,523.2636 L635.8975,522.349 L637.8975,522.7891" fill="none" style="stroke:#FF9900;stroke-width:1;"/><path d="M319.2354,378.1563 L319.2354,378.3431 L321.2354,377.788 L323.2354,378.3281 L325.2354,378.5115 L327.2354,377.5221 L329.2354,378.1563 L329.2354,378.1563 L329.205,378.1398 L330.8499,381.353 L332.648,384.6493 L334.5525,388.0031 L336.0902,391.1583 L338.1416,394.5918 L338.3833,394.638 L338.511,397.9085 L339.3443,401.3139 L340.2638,404.7357 L340.6823,408.0618 L341.3643,411.4382 L341.3943,411.4427 L341.9244,415.2985 L342.5912,419.1746 L343.192,423.0409 L343.9186,426.9259 L344.2354,430.75 L344.5304,430.7939 L345.1082,434.6567 L345.4957,438.4913 L346.1618,442.3674 L346.8409,446.2453 L347.1064,450.0618 L346.7916,450.0015 L348.0472,453.4877 L348.2661,456.7756 L349.2731,460.2142 L349.4685,463.4976 L350.3291,466.9082 L350.3023,466.8937 L352.4001,470.3523 L353.8726,473.4721 L355.714,476.7918 L357.5864,480.1283 L359.2354,483.3438 L359.2354,483.7137 L361.2354,483.3403 L363.2354,483.5991 L365.2354,482.8349 L367.2354,483.5965 L369.2354,483.3438" fill="none" style="stroke:#FF9900;stroke-width:1;"/><a href="/use-case/construction-project-quotations/scope-and-requirements/" target="_top" title="/use-case/construction-project-quotations/scope-and-requirements/" xlink:actuate="onRequest" xlink:href="/use-case/construction-project-quotations/scope-and-requirements/" xlink:show="new" xlink:title="/use-case/construction-project-quotations/scope-and-requirements/" xlink:type="simple"><text fill="#90EE90" font-family="'Roboto'" font-size="14" lengthAdjust="spacing" textLength="160.7334" x="376.2354" y="593.3779">Scope &amp; Requirements</text></a><a href="/use-case/construction-project-quotations/scope-and-requirements/assumptions-exclusions-qualifications/" target="_top" title="/use-case/construction-project-quotations/scope-and-requirements/assumptions-exclusions-qualifications/" xlink:actuate="onRequest" xlink:href="/use-case/construction-project-quotations/scope-and-requirements/assumptions-exclusions-qualifications/" xlink:show="new" xlink:title="/use-case/construction-project-quotations/scope-and-requirements/assumptions-exclusions-qualifications/" xlink:type="simple"><text fill="#90EE90" font-family="'Roboto'" font-size="14" lengthAdjust="spacing" textLength="287.3555" x="597.9688" y="553.9326">Assumptions, Exclusions &amp; Qualifications</text></a><path d="M540.9688,588.5313 L540.9688,588.7181 L542.9688,588.163 L544.9688,588.7031 L546.9688,588.8865 L548.9688,587.8971 L550.9688,588.5313 L550.9688,588.5313 L550.9491,588.5028 L552.6421,587.1427 L554.4343,585.9258 L556.2953,584.8083 L557.9189,583.3479 L559.875,582.3679 L560.0994,582.4688 L560.8382,579.5412 L562.2323,576.9082 L563.7064,574.311 L564.7152,571.5048 L565.9688,568.8086 L565.9964,568.821 L567.1745,566.0909 L568.4786,563.4174 L569.7219,560.7166 L571.0812,558.0678 L572.0625,555.2493 L572.2322,555.4945 L574.0155,554.2648 L575.6894,552.877 L577.5235,551.7207 L579.3651,550.5752 L580.9688,549.0859 L580.9688,548.4449 L582.9688,549.6891 L584.9688,548.8224 L586.9688,549.5604 L588.9688,548.6459 L590.9688,549.0859" fill="none" style="stroke:#FF9900;stroke-width:1;"/><a href="/use-case/construction-project-quotations/scope-and-requirements/constructability-review/" target="_top" title="/use-case/construction-project-quotations/scope-and-requirements/constructability-review/" xlink:actuate="onRequest" xlink:href="/use-case/construction-project-quotations/scope-and-requirements/constructability-review/" xlink:show="new" xlink:title="/use-case/construction-project-quotations/scope-and-requirements/constructability-review/" xlink:type="simple"><text fill="#90EE90" font-family="'Roboto'" font-size="14" lengthAdjust="spacing" textLength="165.751" x="597.9688" y="580.2295">Constructability Review</text></a><path d="M540.9688,588.5313 L540.9688,588.7181 L542.9688,588.163 L544.9688,588.7031 L546.9688,588.8865 L548.9688,587.8971 L550.9688,588.5313 L550.9688,588.5313 L550.9549,588.4996 L553.8927,587.0428 L556.9003,585.7455 L559.9566,584.559 L562.8454,582.9904 L565.9688,581.957 L566.0675,582.1824 L568.8563,580.3856 L571.9335,579.2468 L575.0458,578.1883 L577.9534,576.6627 L580.9688,575.3828 L580.9688,575.4435 L582.9688,575.3544 L584.9688,575.5415 L586.9688,575.5954 L588.9688,575.9034 L590.9688,575.3828" fill="none" style="stroke:#FF9900;stroke-width:1;"/><a href="/use-case/construction-project-quotations/scope-and-requirements/rfis-clarifications-addenda/" target="_top" title="/use-case/construction-project-quotations/scope-and-requirements/rfis-clarifications-addenda/" xlink:actuate="onRequest" xlink:href="/use-case/construction-project-quotations/scope-and-requirements/rfis-clarifications-addenda/" xlink:show="new" xlink:title="/use-case/construction-project-quotations/scope-and-requirements/rfis-clarifications-addenda/" xlink:type="simple"><text fill="#90EE90" font-family="'Roboto'" font-size="14" lengthAdjust="spacing" textLength="211.3193" x="597.9688" y="606.5264">RFIs, Clarifications &amp; Addenda</text></a><path d="M540.9688,588.5313 L540.9688,588.7181 L542.9688,588.163 L544.9688,588.7031 L546.9688,588.8865 L548.9688,587.8971 L550.9688,588.5313 L550.9688,588.5313 L550.9549,588.4996 L553.8927,589.6725 L556.9003,591.0048 L559.9566,592.448 L562.8454,593.5092 L565.9688,595.1055 L566.0675,595.3308 L568.8563,596.1637 L571.9335,597.6547 L575.0458,599.2258 L577.9534,600.3299 L580.9688,601.6797 L580.9688,601.7403 L582.9688,601.6513 L584.9688,601.8384 L586.9688,601.8923 L588.9688,602.2003 L590.9688,601.6797" fill="none" style="stroke:#FF9900;stroke-width:1;"/><a href="/use-case/construction-project-quotations/scope-and-requirements/scope-decomposition-wbs-boq/" target="_top" title="/use-case/construction-project-quotations/scope-and-requirements/scope-decomposition-wbs-boq/" xlink:actuate="onRequest" xlink:href="/use-case/construction-project-quotations/scope-and-requirements/scope-decomposition-wbs-boq/" xlink:show="new" xlink:title="/use-case/construction-project-quotations/scope-and-requirements/scope-decomposition-wbs-boq/" xlink:type="simple"><text fill="#90EE90" font-family="'Roboto'" font-size="14" lengthAdjust="spacing" textLength="233.4609" x="597.9688" y="632.8232">Scope Decomposition (WBS/BoQ)</text></a><path d="M540.9688,588.5313 L540.9688,588.7181 L542.9688,588.163 L544.9688,588.7031 L546.9688,588.8865 L548.9688,587.8971 L550.9688,588.5313 L550.9688,588.5313 L550.9491,588.5028 L552.6421,589.608 L554.4343,590.8564 L556.2953,592.2043 L557.9189,593.2092 L559.875,594.6946 L560.0994,594.7954 L560.8382,597.2916 L562.2323,600.0823 L563.7064,602.9089 L564.7152,605.5264 L565.9688,608.2539 L565.9964,608.2663 L567.1745,610.96 L568.4786,613.7102 L569.7219,616.4331 L571.0812,619.2081 L572.0625,621.8132 L572.2322,622.0585 L574.0155,623.2941 L575.6894,624.3716 L577.5235,625.6807 L579.3651,627.0005 L580.9688,627.9766 L580.9688,627.3355 L582.9688,628.5797 L584.9688,627.713 L586.9688,628.4511 L588.9688,627.5365 L590.9688,627.9766" fill="none" style="stroke:#FF9900;stroke-width:1;"/><path d="M319.2354,378.1563 L319.2354,378.3431 L321.2354,377.788 L323.2354,378.3281 L325.2354,378.5115 L327.2354,377.5221 L329.2354,378.1563 L329.2354,378.1563 L329.2051,378.1396 L330.0654,379.8727 L331.0783,381.6898 L332.1971,383.5654 L332.9506,385.2396 L334.2158,387.1958 L334.4571,387.244 L334.3557,389.2159 L334.9587,391.3286 L335.6477,393.4584 L335.8366,395.4883 L336.2886,397.5707 L336.3186,397.5749 L336.6451,400.2601 L337.1084,402.9642 L337.5057,405.6592 L338.0289,408.3715 L338.1416,411.0273 L338.4382,411.0586 L338.7773,414.2434 L338.925,417.408 L339.3529,420.6021 L339.7938,423.7976 L339.8188,426.9493 L339.4995,426.9215 L340.4284,430.5296 L340.3057,434.0462 L340.9825,437.6324 L340.836,441.147 L341.3643,444.7202 L341.3339,444.718 L342.2672,452.4694 L342.4911,460.168 L343.1336,467.8978 L343.8112,475.6302 L344.2354,483.3438 L344.4198,483.3575 L344.8078,491.0683 L345.5111,498.8026 L345.7043,506.499 L346.6583,514.2519 L347.1064,521.9673 L347.3492,521.9884 L347.6124,525.5386 L347.996,529.0993 L347.8198,532.6112 L348.054,536.1589 L348.6519,539.7382 L348.3772,539.7093 L348.9613,542.9199 L349.2359,546.0978 L349.9594,549.3231 L349.9164,552.4676 L350.3291,555.6602 L350.1781,555.6394 L350.8002,558.3653 L350.7767,561.0024 L351.2124,563.7026 L352.0972,566.4648 L352.1821,569.1168 L352.372,569.1547 L352.9168,571.2557 L352.871,573.2387 L353.5649,575.3695 L354.0977,577.4681 L354.2549,579.4917 L354.071,579.3904 L355.2137,581.279 L356.2961,583.1345 L357.4969,585.0552 L358.2376,586.7224 L359.2354,588.5313 L359.2354,588.9424 L361.2354,588.039 L363.2354,587.9292 L365.2354,588.9789 L367.2354,587.894 L369.2354,588.5313" fill="none" style="stroke:#FF9900;stroke-width:1;"/><a href="/use-case/construction-project-quotations/supply-chain-and-subcontractors/" target="_top" title="/use-case/construction-project-quotations/supply-chain-and-subcontractors/" xlink:actuate="onRequest" xlink:href="/use-case/construction-project-quotations/supply-chain-and-subcontractors/" xlink:show="new" xlink:title="/use-case/construction-project-quotations/supply-chain-and-subcontractors/" xlink:type="simple"><text fill="#90EE90" font-family="'Roboto'" font-size="14" lengthAdjust="spacing" textLength="218.374" x="376.2354" y="698.5654">Supply Chain &amp; Subcontractors</text></a><a href="/use-case/construction-project-quotations/supply-chain-and-subcontractors/bid-leveling/" target="_top" title="/use-case/construction-project-quotations/supply-chain-and-subcontractors/bid-leveling/" xlink:actuate="onRequest" xlink:href="/use-case/construction-project-quotations/supply-chain-and-subcontractors/bid-leveling/" xlink:show="new" xlink:title="/use-case/construction-project-quotations/supply-chain-and-subcontractors/bid-leveling/" xlink:type="simple"><text fill="#90EE90" font-family="'Roboto'" font-size="14" lengthAdjust="spacing" textLength="257.6875" x="655.6094" y="659.1201">Bid Leveling &amp; Comparative Analysis</text></a><path d="M598.6094,693.7188 L598.6094,693.9056 L600.6094,693.3505 L602.6094,693.8906 L604.6094,694.074 L606.6094,693.0846 L608.6094,693.7188 L608.6094,693.7188 L608.5897,693.6903 L610.2828,692.3302 L612.0749,691.1133 L613.9359,689.9958 L615.5595,688.5354 L617.5156,687.5554 L617.7401,687.6563 L618.4789,684.7287 L619.873,682.0957 L621.347,679.4985 L622.3559,676.6923 L623.6094,673.9961 L623.637,674.0085 L624.8152,671.2784 L626.1192,668.6049 L627.3626,665.9041 L628.7218,663.2553 L629.7031,660.4368 L629.8728,660.682 L631.6562,659.4523 L633.33,658.0645 L635.1641,656.9082 L637.0057,655.7627 L638.6094,654.2734 L638.6094,653.6324 L640.6094,654.8766 L642.6094,654.0099 L644.6094,654.7479 L646.6094,653.8334 L648.6094,654.2734" fill="none" style="stroke:#FF9900;stroke-width:1;"/><a href="/use-case/construction-project-quotations/supply-chain-and-subcontractors/subcontractor-bid-solicitation-and-comparison/" target="_top" title="/use-case/construction-project-quotations/supply-chain-and-subcontractors/subcontractor-bid-solicitation-and-comparison/" xlink:actuate="onRequest" xlink:href="/use-case/construction-project-quotations/supply-chain-and-subcontractors/subcontractor-bid-solicitation-and-comparison/" xlink:show="new" xlink:title="/use-case/construction-project-quotations/supply-chain-and-subcontractors/subcontractor-bid-solicitation-and-comparison/" xlink:type="simple"><text fill="#90EE90" font-family="'Roboto'" font-size="14" lengthAdjust="spacing" textLength="311.7393" x="655.6094" y="685.417">Subcontractor Bid Solicitation &amp; Comparison</text></a><path d="M598.6094,693.7188 L598.6094,693.9056 L600.6094,693.3505 L602.6094,693.8906 L604.6094,694.074 L606.6094,693.0846 L608.6094,693.7188 L608.6094,693.7188 L608.5955,693.6871 L611.5333,692.2303 L614.541,690.933 L617.5972,689.7465 L620.486,688.1779 L623.6094,687.1445 L623.7081,687.3699 L626.4969,685.5731 L629.5741,684.4343 L632.6864,683.3758 L635.5941,681.8502 L638.6094,680.5703 L638.6094,680.631 L640.6094,680.5419 L642.6094,680.729 L644.6094,680.7829 L646.6094,681.0909 L648.6094,680.5703" fill="none" style="stroke:#FF9900;stroke-width:1;"/><a href="/use-case/construction-project-quotations/supply-chain-and-subcontractors/subcontractor-scope-packages/" target="_top" title="/use-case/construction-project-quotations/supply-chain-and-subcontractors/subcontractor-scope-packages/" xlink:actuate="onRequest" xlink:href="/use-case/construction-project-quotations/supply-chain-and-subcontractors/subcontractor-scope-packages/" xlink:show="new" xlink:title="/use-case/construction-project-quotations/supply-chain-and-subcontractors/subcontractor-scope-packages/" xlink:type="simple"><text fill="#90EE90" font-family="'Roboto'" font-size="14" lengthAdjust="spacing" textLength="216.8633" x="655.6094" y="711.7139">Subcontractor Scope Packages</text></a><path d="M598.6094,693.7188 L598.6094,693.9056 L600.6094,693.3505 L602.6094,693.8906 L604.6094,694.074 L606.6094,693.0846 L608.6094,693.7188 L608.6094,693.7188 L608.5955,693.6871 L611.5333,694.86 L614.541,696.1923 L617.5972,697.6355 L620.486,698.6967 L623.6094,700.293 L623.7081,700.5183 L626.4969,701.3512 L629.5741,702.8422 L632.6864,704.4133 L635.5941,705.5174 L638.6094,706.8672 L638.6094,706.9278 L640.6094,706.8388 L642.6094,707.0259 L644.6094,707.0798 L646.6094,707.3878 L648.6094,706.8672" fill="none" style="stroke:#FF9900;stroke-width:1;"/><a href="/use-case/construction-project-quotations/supply-chain-and-subcontractors/supplier-rfqs-and-material-pricing/" target="_top" title="/use-case/construction-project-quotations/supply-chain-and-subcontractors/supplier-rfqs-and-material-pricing/" xlink:actuate="onRequest" xlink:href="/use-case/construction-project-quotations/supply-chain-and-subcontractors/supplier-rfqs-and-material-pricing/" xlink:show="new" xlink:title="/use-case/construction-project-quotations/supply-chain-and-subcontractors/supplier-rfqs-and-material-pricing/" xlink:type="simple"><text fill="#90EE90" font-family="'Roboto'" font-size="14" lengthAdjust="spacing" textLength="226.8027" x="655.6094" y="738.0107">Supplier RFQs &amp; Material Pricing</text></a><path d="M598.6094,693.7188 L598.6094,693.9056 L600.6094,693.3505 L602.6094,693.8906 L604.6094,694.074 L606.6094,693.0846 L608.6094,693.7188 L608.6094,693.7188 L608.5897,693.6903 L610.2828,694.7955 L612.0749,696.0439 L613.9359,697.3918 L615.5595,698.3967 L617.5156,699.8821 L617.7401,699.9829 L618.4789,702.4791 L619.873,705.2698 L621.347,708.0964 L622.3559,710.7139 L623.6094,713.4414 L623.637,713.4538 L624.8152,716.1475 L626.1192,718.8977 L627.3626,721.6206 L628.7218,724.3956 L629.7031,727.0007 L629.8728,727.246 L631.6562,728.4816 L633.33,729.5591 L635.1641,730.8682 L637.0057,732.188 L638.6094,733.1641 L638.6094,732.523 L640.6094,733.7672 L642.6094,732.9005 L644.6094,733.6386 L646.6094,732.724 L648.6094,733.1641" fill="none" style="stroke:#FF9900;stroke-width:1;"/><path d="M319.2354,378.1563 L319.2354,378.3431 L321.2354,377.788 L323.2354,378.3281 L325.2354,378.5115 L327.2354,377.5221 L329.2354,378.1563 L329.2354,378.1563 L329.2029,378.1443 L330.0535,380.8028 L331.0675,383.5212 L332.1952,386.2814 L332.9313,388.8978 L334.2158,391.7156 L334.4597,391.7481 L334.3527,394.7911 L334.9578,397.9289 L335.6498,401.0784 L335.8362,404.1605 L336.2886,407.278 L336.3188,407.2808 L336.645,411.3137 L337.1088,415.3592 L337.5062,419.3986 L338.0302,423.4497 L338.1416,427.4629 L338.4391,427.4838 L338.7782,432.2606 L338.9254,437.024 L339.3535,441.8071 L339.7947,446.5911 L339.8188,451.3458 L339.4989,451.3272 L340.429,456.6945 L340.3055,462.0007 L340.9829,467.3534 L340.8355,472.6582 L341.3643,478.0022 L341.273,477.9977 L342.8304,487.707 L342.2564,497.3107 L342.94,506.9768 L343.7293,516.6481 L344.3111,526.3091 L344.2354,535.9375 L344.2301,535.9372 L345.0963,545.6123 L344.4301,555.2115 L346.0496,564.9239 L346.8794,574.5972 L347.2199,584.2463 L347.1064,593.8728 L347.3784,593.8886 L347.2012,599.1917 L347.4352,604.5186 L347.758,609.8507 L348.3166,615.1964 L348.6519,620.5292 L348.5647,620.5231 L349.2894,625.327 L349.2453,630.0769 L349.5061,634.8483 L350.0949,639.6426 L350.3291,644.4121 L350.034,644.385 L350.47,648.428 L351.3575,652.5124 L351.6337,656.5408 L352.1366,660.5899 L352.1821,664.597 L352.0404,664.5781 L352.7373,667.7282 L353.2713,670.8566 L353.2177,673.9067 L353.7981,677.0413 L354.2549,680.1594 L354.3074,680.1787 L355.5229,682.9712 L356.2453,685.5825 L357.4361,688.3659 L358.0082,690.922 L359.2354,693.7188 L359.2354,693.1167 L361.2354,694.1664 L363.2354,693.0815 L365.2354,694.1712 L367.2354,693.9024 L369.2354,693.7188" fill="none" style="stroke:#FF9900;stroke-width:1;"/><!--SRC=[xLfjRnit4lwkNy6hWOk3U2ixTOesA8hOikmwiMnPibCSYYAWTaSIQoufarmfkiFzznjoNoNhnPQrJO9RVv75UJZpa1pEaDIyquOg4p8HX7H4V2cqKP5lc1JUICc_m3VUVIGDjIswLlj707qcW1oVVMeTdLz-QbnTN7M8-zivt7zpq7jJX7IRZQlBawFElnBS0aZxgF7XwAoPANe0kUgSD3j5EsIdt_-nlx-VGKwlBczc00vY_serVSV4Y2eQaXxrxmPAHY9eI2vL2ZIA2eq84AO0_cqw0dN1n5qHItOu6mpDG068Mkq5OSBdKG34384CG82Yd6GgDEbZnvuqmptYkX4g0X9GTOSzZIHo36gYc04oOMOOws1Z44I3CKmCzFmCtFnstlXmsUnsoG4kWnpP1I53L6gr6EpOfrn3OGnj6WIeY1mMsZhn-1MI9JyLshj36iY9HSzhSJF1SIPkHU3-WGHIm9n0dqRSaF_K23cLmbpI4CXt7OcZbzybRV54vakLD7VPlu4S7DR-MzHtf9ISE6rBUYrJPgOSvqloO5RV29UU3Y3Zjw3xyPntpFYtbKk5mqza1PT4GxaT8OEd6fbn_yVQyMKuaW8zrXdRcFfIdl4yHY5_FJkF0JMqHpMKOdR6aizb5FmDPYJdu8ATBibORgk102LvwNQEhLggfgKRQWh3JFbcc32W-jI7qYrruJu2uKCR4oBpsOWA4wkx6JB_Je3M67fpk4xWZbUnpngA3zGlP5j0vQ5DI1LI_b2wO0zVi3vW0eCL9ZB86i8k72ymuTfNw7Vo9VISB9_N7soJRwHQoyM1LjYqycKR_mLf7BhWXeaEl-oi_Il62eM1Wee1Xrz-mOoefVZrLxVoNNHFa0RJv8hCjCsCauhosPi_8Sm6kG9n-8na1UMVoXh1t86lf67egJOGVilpNzO8Ifp_DFb_QzEVy_wMPx_WHBqamQVyvuxkyoDo9-pznvq-DvwBTSECqrT0zH22nurzuT3nUceePYprbB7ZxMAzkvKsyiSkC5x3JNoKU4WslHDRMSuZlUFQrYDZ5Ej51XQBYopJs_FSUPjg_JTRVq5QoQk37e7F-ip7IOXpyu8hrIQyrWwRvYURdTFJdtz6-PomUFIhlMhWnOl3PtkMpvv9I3j-9Y7N-JF9grUVo1z_r2CDde-XfxxcMQKEsh2Gsck_XnTwHE3PJWpgf9crat-Y7TVwvv-eVZlwxNR2Jpp4JbqxQ9zorwNkhYk936qtCyaMpUFgCxkvjMSVGuP00-qbxoWUgWnOt9kSfxWzSfK2aTDPykJIoA1RvCPfJogB3spNCLvqdDXNCF52z4dkrkV2egm3P2ZarK0CQIMOBL9AFZtiYw5YCFL2gWPCs8-xQ8Jpb3W8nh8OG7PR3b5lnOYNMoHp7r5t_VCClGFPxzVH_UCMSXEtaDtN9_KVJkh7vwrj6eu4CvuTduuNH6hZSTPJL370ERX5CUbOiLq95E8j9n4w4a_ZS2VaX4CmiF2HYHGucon4w1X24APEFgGGqeWXpgxTEv6CD3dFiPjCmde2WVGZ-uzdDwjsUYmaxuYd7aNzU5EV963SKWaOsUOZQ6RGShWcImhU61VFDn7kSmlX65vH0NvI9I38mXwGiRONEiGXpOiOXPyELGv37OBt05KdtLRpuKANmy2k0D0Uusd8SI91XOyyRWf2bn5IqGQ-BKSZgOpTJh4T0_Q15zt8xkWwkSh5QEd62T5jh72JWQ-srcE19wHdFm8y2cZiukBhCGlgbzB33tAIjs_VlkgFFDM_pmRVEMtNEwVNoNXn_Dd6QU1jWiiIA6XczmKEqSIf-3FJBlOL4s7N_bpmqM9iIauGy_dlQQImQIGrRaGTzKAcTHe_10oaOSbPe9s0qEfbthx973p6d7tTvinwDQOsF5X-TeX2X_Wvtpb88yEIbiCYnMw69EqKMHRNmly8SmliC0h6pbjnqGepXjGS14bsKa1Pp39CbY3YezNSYcQEVPP9aTsHrX3s-7G3Xr9Cttc59OoJj7291MUZW-AzuhB5sT99DvcArUPwk3KqxZ0TAIUTu9dUdbBiIU7OolPmYoT2PF9x9ju-bVG_tFOgJCykOGZAPxX8rbzWKi_c0WCkejpaf1ZdCZ3PFZC5WmZFzb9DFKtxWD49n9WfAQnVkADusX6NByFkaQu3sqXKX1VMjWIgLefyCV9Xv7HXmSS4g9Z4BvHFDKjSp19r81iF4WWvIY0RUBNsvGYIdNqVuMt43jP6PDlkjdFUkicmb-Z7ItaKkbzwDMO4dqSkP617okrzEUbijsiAsyEyaEAGr_KCSelCicxfKQNWmJE2PxZj4jEgpxJdSrpIR60U3GBCfjHcxdESWyQCr0QqMBv55d4pdbRiRx7QvLzlqjDUJzwdRd5I59BTtu-xzMDv_N8JzyEymQUUFwHCfDamtHLIMJzq0DAmW3W55iGRZNgDHNjKup1Exi7sW7QHV8k3bdr2mHinp6wwBPEO-UfEZrfol2R6_TCOYrIOjablPbOSvsu1dl6suFBPnlwJL2ReUNAn0xKJQJbiKCumYkAvDqv7ziQbR3BAdf-w2GPtrRNTHQq4KNYAUeVRAYaUgjNUFQsMgCJYdA-y32P_f7nq3SnibuLgdbJzalTT_gww-FrqPRtBDjIkBczPhMSnbuqAMfvkw94bBCzLlAPePHFrZojJUPxcbOKfprEzeXJbUOfN5vyyJtT9vIOvgIM59Zc_3MfCyZsrgC0aLxsijYHdLwWgoPK-A2d9DSvLayprUKGfIS7qV159mSfi_KXX0svO2h8wRZ_LenuwoFDBFRuKmxM_md_ngVkw63wX0ECByVfA9ww4secSqGQZMp66DNKI1-KNHfGrigMhy_zN-51LDrJL3LLrGrNTK5KtLDKDLNL3LTrGLJTKrGrLTKDLtL1LDrJL3LLrGrNTK5KtLDKDLNN3LrVTqEQOFMzR5sGCofs_3hv_lV_wpVS71pqmz61_zrRO2v1mlryp3WIlUV2ojdlMlY1QHWgJS81HspqOOlUNjVTqJ4ad4XRt5gya8DwVV4WRYdcdzlvZAmVyU8XN1aEwe908-TYgfNK7JU5BM-hmbjpUd7e_rIwe64Gumsy9Y5f3eburHLdtVm00]--></g></svg>