<svg xmlns="http://www.w3.org/2000/svg" xmlns:xlink="http://www.w3.org/1999/xlink" contentStyleType="text/css" data-diagram-type="MINDMAP" height="725px" preserveAspectRatio="none" style="width:1035px;height:725px;" version="1.1" viewBox="0 0 1035 725" width="1035px" zoomAndPan="magnify"><defs/><g><polygon fill="#4051B5" points="14,344.293,14,344.5032,24.0206,343.8786,34.0411,344.4863,44.0617,344.6926,54.0822,343.5796,64.1028,344.2153,74.1234,343.8665,84.1439,343.9095,94.1645,344.2248,104.185,343.6016,114.2056,344.8466,124.2262,343.6627,134.2467,344.0952,144.2673,344.7249,154.2878,344.2072,164.3084,344.3612,174.329,344.261,184.3495,344.4715,194.3701,344.5321,204.3906,344.8787,214.4112,344.964,224.4318,344.9722,234.4523,344.5476,244.4729,344.7566,254.4934,344.9952,264.514,343.5718,274.5346,344.9715,284.5551,343.9965,294.5757,344.293,294.6438,344.4574,295.0782,344.3748,295.6983,344.7405,296.3673,345.2243,296.8322,345.2152,297.4041,345.4645,297.4365,345.478,297.7427,346.0734,298.0009,346.649,298.1059,347.1611,298.4298,347.7639,298.5757,348.293,298.3849,348.293,298.6705,353.7195,298.7584,359.1461,298.7239,364.5727,298.78,369.9992,298.5757,375.4258,298.4269,375.3642,298.1405,375.9083,297.9157,376.4779,297.8546,377.1153,297.5779,377.6635,297.4041,378.2542,297.491,378.4641,296.8161,378.4347,296.229,378.6172,295.7362,379.0274,295.0563,378.9861,294.5757,379.4258,294.5757,378.9067,284.5551,380.0747,274.5346,379.8614,264.514,380.1603,254.4934,379.104,244.4729,379.745,234.4523,380.0162,224.4318,378.9534,214.4112,379.3299,204.3906,379.5518,194.3701,380.0775,184.3495,379.4216,174.329,379.8883,164.3084,378.872,154.2878,378.7485,144.2673,379.9294,134.2467,378.7088,124.2262,379.9347,114.2056,379.6324,104.185,379.1579,94.1645,379.072,84.1439,379.8845,74.1234,379.1264,64.1028,380.0176,54.0822,378.873,44.0617,380.0432,34.0411,379.9101,24.0206,379.6707,14,379.4258,14.006,379.4403,13.527,379.4152,12.9469,379.1461,12.3245,378.775,11.7715,378.5711,11.1716,378.2542,11.1315,378.2376,11.1579,377.7799,10.7506,377.1426,10.5218,376.5792,10.047,375.9139,10,375.4258,9.8649,375.4258,10.1769,369.9992,10.1433,364.5727,9.9857,359.1461,9.8926,353.7195,10,348.293,9.9326,348.265,10.023,347.6398,10.5964,347.2145,10.9307,346.6903,11.0994,346.0974,11.1716,345.4645,11.2602,345.6786,11.7198,345.1881,12.3141,345.0228,12.8192,344.6422,13.4705,344.6148,14,344.293" style="stroke:#FF6F00;stroke-width:1.5;"/><text fill="#FFFFFF" font-family="'Roboto'" font-size="13" lengthAdjust="spacing" textLength="268.5757" x="20" y="366.3599">Complex Construction Project Quotations</text><a href="/use-case/construction-project-quotations/estimating-and-pricing/" target="_top" title="/use-case/construction-project-quotations/estimating-and-pricing/" xlink:actuate="onRequest" xlink:href="/use-case/construction-project-quotations/estimating-and-pricing/" xlink:show="new" xlink:title="/use-case/construction-project-quotations/estimating-and-pricing/" xlink:type="simple"><text fill="#4051B5" font-family="'Roboto'" font-size="13" lengthAdjust="spacing" textLength="131.9741" x="355.5757" y="89.8989">Estimating &amp; Pricing</text></a><a href="/use-case/construction-project-quotations/estimating-and-pricing/contingency-and-escalation/" target="_top" title="/use-case/construction-project-quotations/estimating-and-pricing/contingency-and-escalation/" xlink:actuate="onRequest" xlink:href="/use-case/construction-project-quotations/estimating-and-pricing/contingency-and-escalation/" xlink:show="new" xlink:title="/use-case/construction-project-quotations/estimating-and-pricing/contingency-and-escalation/" xlink:type="simple"><text fill="#4051B5" font-family="'Roboto'" font-size="13" lengthAdjust="spacing" textLength="166.5308" x="548.5498" y="27.0669">Contingency &amp; Escalation</text></a><path d="M491.5498,85.3984 L491.5498,85.5853 L493.5498,85.0302 L495.5498,85.5702 L497.5498,85.7537 L499.5498,84.7643 L501.5498,85.3984 L501.5498,85.3984 L501.5242,85.3752 L503.1907,83.3076 L504.9861,81.3569 L506.8711,79.4876 L508.4472,77.338 L510.4561,75.5809 L510.6904,75.656 L510.8338,73.4829 L511.6614,71.5289 L512.5725,69.6017 L512.9979,67.519 L513.6787,65.518 L513.7081,65.5253 L514.2392,63.2074 L514.9041,60.9229 L515.5045,58.6223 L516.2282,56.3524 L516.5498,53.9824 L516.8392,54.0545 L517.417,51.7482 L517.8081,49.3955 L518.4724,47.1108 L519.1495,44.8293 L519.4209,42.4469 L519.1156,42.3491 L520.3526,40.5262 L520.5845,38.3815 L521.5804,36.4814 L521.7895,34.3294 L522.6436,32.3839 L522.621,32.3635 L524.6689,30.6419 L526.19,28.4424 L528.022,26.5249 L529.88,24.631 L531.5498,22.5664 L531.5498,22.9364 L533.5498,22.5629 L535.5498,22.8217 L537.5498,22.0576 L539.5498,22.8192 L541.5498,22.5664" fill="none" style="stroke:#FF6F00;stroke-width:1;"/><a href="/use-case/construction-project-quotations/estimating-and-pricing/indirects-overheads-general-conditions/" target="_top" title="/use-case/construction-project-quotations/estimating-and-pricing/indirects-overheads-general-conditions/" xlink:actuate="onRequest" xlink:href="/use-case/construction-project-quotations/estimating-and-pricing/indirects-overheads-general-conditions/" xlink:show="new" xlink:title="/use-case/construction-project-quotations/estimating-and-pricing/indirects-overheads-general-conditions/" xlink:type="simple"><text fill="#4051B5" font-family="'Roboto'" font-size="13" lengthAdjust="spacing" textLength="277.6338" x="548.5498" y="52.1997">Indirects, Overheads &amp; General Conditions</text></a><path d="M491.5498,85.3984 L491.5498,85.5853 L493.5498,85.0302 L495.5498,85.5702 L497.5498,85.7537 L499.5498,84.7643 L501.5498,85.3984 L501.5498,85.3984 L501.5308,85.3696 L503.2265,84.0622 L505.0183,82.9001 L506.8768,81.8389 L508.5053,80.4297 L510.4561,79.5079 L510.6787,79.6126 L511.4213,76.7969 L512.814,74.2869 L514.286,71.8142 L515.2966,69.1244 L516.5498,66.5488 L516.5772,66.5617 L517.7557,63.951 L519.0591,61.3989 L520.3022,58.8186 L521.6604,56.2923 L522.6436,53.5897 L522.8081,53.8385 L524.5913,52.6634 L526.2685,51.3279 L528.101,50.2273 L529.9407,49.1376 L531.5498,47.6992 L531.5498,47.0582 L533.5498,48.3023 L535.5498,47.4357 L537.5498,48.1737 L539.5498,47.2592 L541.5498,47.6992" fill="none" style="stroke:#FF6F00;stroke-width:1;"/><a href="/use-case/construction-project-quotations/estimating-and-pricing/labor-productivity-and-crew-modeling/" target="_top" title="/use-case/construction-project-quotations/estimating-and-pricing/labor-productivity-and-crew-modeling/" xlink:actuate="onRequest" xlink:href="/use-case/construction-project-quotations/estimating-and-pricing/labor-productivity-and-crew-modeling/" xlink:show="new" xlink:title="/use-case/construction-project-quotations/estimating-and-pricing/labor-productivity-and-crew-modeling/" xlink:type="simple"><text fill="#4051B5" font-family="'Roboto'" font-size="13" lengthAdjust="spacing" textLength="233.1938" x="548.5498" y="77.3325">Labor Productivity &amp; Crew Modeling</text></a><path d="M491.5498,85.3984 L491.5498,85.5853 L493.5498,85.0302 L495.5498,85.5702 L497.5498,85.7537 L499.5498,84.7643 L501.5498,85.3984 L501.5498,85.3984 L501.5365,85.3666 L504.4766,83.967 L507.484,82.7279 L510.5381,81.6006 L513.4311,80.0885 L516.5498,79.1152 L516.6449,79.3422 L519.4416,77.6002 L522.5158,76.5209 L525.624,75.5224 L528.5351,74.0535 L531.5498,72.832 L531.5498,72.8927 L533.5498,72.8036 L535.5498,72.9907 L537.5498,73.0446 L539.5498,73.3526 L541.5498,72.832" fill="none" style="stroke:#FF6F00;stroke-width:1;"/><a href="/use-case/construction-project-quotations/estimating-and-pricing/pricing-strategy-margin-markups/" target="_top" title="/use-case/construction-project-quotations/estimating-and-pricing/pricing-strategy-margin-markups/" xlink:actuate="onRequest" xlink:href="/use-case/construction-project-quotations/estimating-and-pricing/pricing-strategy-margin-markups/" xlink:show="new" xlink:title="/use-case/construction-project-quotations/estimating-and-pricing/pricing-strategy-margin-markups/" xlink:type="simple"><text fill="#4051B5" font-family="'Roboto'" font-size="13" lengthAdjust="spacing" textLength="222.4854" x="548.5498" y="102.4653">Pricing Strategy (Margin/Markups)</text></a><path d="M491.5498,85.3984 L491.5498,85.5853 L493.5498,85.0302 L495.5498,85.5702 L497.5498,85.7537 L499.5498,84.7643 L501.5498,85.3984 L501.5498,85.3984 L501.5365,85.3666 L504.4766,86.4802 L507.484,87.7545 L510.5381,89.1404 L513.4311,90.1416 L516.5498,91.6816 L516.6449,91.9086 L519.4416,92.6799 L522.5158,94.1139 L525.624,95.6286 L528.5351,96.673 L531.5498,97.9648 L531.5498,98.0255 L533.5498,97.9364 L535.5498,98.1235 L537.5498,98.1774 L539.5498,98.4855 L541.5498,97.9648" fill="none" style="stroke:#FF6F00;stroke-width:1;"/><a href="/use-case/construction-project-quotations/estimating-and-pricing/quantity-takeoff/" target="_top" title="/use-case/construction-project-quotations/estimating-and-pricing/quantity-takeoff/" xlink:actuate="onRequest" xlink:href="/use-case/construction-project-quotations/estimating-and-pricing/quantity-takeoff/" xlink:show="new" xlink:title="/use-case/construction-project-quotations/estimating-and-pricing/quantity-takeoff/" xlink:type="simple"><text fill="#4051B5" font-family="'Roboto'" font-size="13" lengthAdjust="spacing" textLength="192.4165" x="548.5498" y="127.5981">Quantity Takeoff (2D/3D/BIM)</text></a><path d="M491.5498,85.3984 L491.5498,85.5853 L493.5498,85.0302 L495.5498,85.5702 L497.5498,85.7537 L499.5498,84.7643 L501.5498,85.3984 L501.5498,85.3984 L501.5308,85.3696 L503.2265,86.4184 L505.0183,87.6125 L506.8768,88.9075 L508.5053,89.8545 L510.4561,91.2889 L510.6787,91.3936 L511.4213,93.7616 L512.814,96.4352 L514.286,99.1461 L515.2966,101.64 L516.5498,104.248 L516.5772,104.261 L517.7557,106.8338 L519.0591,109.4655 L520.3022,112.0687 L521.6604,114.7261 L522.6436,117.2072 L522.8081,117.4559 L524.5913,118.6371 L526.2685,119.6577 L528.101,120.9133 L529.9407,122.1799 L531.5498,123.0977 L531.5498,122.4566 L533.5498,123.7008 L535.5498,122.8341 L537.5498,123.5722 L539.5498,122.6576 L541.5498,123.0977" fill="none" style="stroke:#FF6F00;stroke-width:1;"/><a href="/use-case/construction-project-quotations/estimating-and-pricing/unit-rates-and-cost-libraries/" target="_top" title="/use-case/construction-project-quotations/estimating-and-pricing/unit-rates-and-cost-libraries/" xlink:actuate="onRequest" xlink:href="/use-case/construction-project-quotations/estimating-and-pricing/unit-rates-and-cost-libraries/" xlink:show="new" xlink:title="/use-case/construction-project-quotations/estimating-and-pricing/unit-rates-and-cost-libraries/" xlink:type="simple"><text fill="#4051B5" font-family="'Roboto'" font-size="13" lengthAdjust="spacing" textLength="175.043" x="548.5498" y="152.731">Unit Rates &amp; Cost Libraries</text></a><path d="M491.5498,85.3984 L491.5498,85.5853 L493.5498,85.0302 L495.5498,85.5702 L497.5498,85.7537 L499.5498,84.7643 L501.5498,85.3984 L501.5498,85.3984 L501.5242,85.3752 L503.1907,87.2346 L504.9861,89.2109 L506.8711,91.2686 L508.4472,93.046 L510.4561,95.2159 L510.6904,95.291 L510.8338,97.1431 L511.6614,99.2143 L512.5725,101.3123 L512.9979,103.2547 L513.6787,105.2789 L513.7081,105.2862 L514.2392,107.5826 L514.9041,109.9123 L515.5045,112.2259 L516.2282,114.5702 L516.5498,116.8145 L516.8392,116.8865 L517.417,119.1945 L517.8081,121.456 L518.4724,123.7856 L519.1495,126.1183 L519.4209,128.35 L519.1156,128.2523 L520.3526,130.4546 L520.5845,132.335 L521.5804,134.4601 L521.7895,136.3333 L522.6436,138.413 L522.621,138.3925 L524.6689,140.5979 L526.19,142.3254 L528.022,144.3349 L529.88,146.3681 L531.5498,148.2305 L531.5498,148.6005 L533.5498,148.227 L535.5498,148.4858 L537.5498,147.7217 L539.5498,148.4833 L541.5498,148.2305" fill="none" style="stroke:#FF6F00;stroke-width:1;"/><path d="M298.5757,361.8594 L298.5757,362.0462 L300.5757,361.4911 L302.5757,362.0312 L304.5757,362.2146 L306.5757,361.2252 L308.5757,361.8594 L308.5757,361.8594 L308.5438,361.846 L309.397,359.4102 L310.4107,357.0418 L311.536,354.7202 L312.2767,352.2372 L313.5562,349.9802 L313.7994,350.0172 L313.6938,347.2113 L314.2984,344.5134 L314.9896,341.8286 L315.1767,339.0672 L315.6289,336.3461 L315.6591,336.3493 L315.9854,332.8079 L316.449,329.2809 L316.8464,325.7469 L317.3702,322.2262 L317.4819,318.6624 L317.7792,318.6862 L318.1183,314.5018 L318.2656,310.302 L318.6937,306.1247 L319.1348,301.9484 L319.1592,297.7388 L318.8394,297.7176 L319.7692,293.088 L319.6459,288.3887 L320.3232,283.7424 L320.176,279.0416 L320.7046,274.3854 L320.6134,274.3802 L322.266,264.29 L321.7882,254.0791 L322.5674,243.9394 L323.4522,233.8057 L323.5757,223.6289 L324.1298,223.6602 L324.1447,213.4773 L325.1065,203.3479 L324.5363,193.1319 L326.2511,183.0451 L326.4468,172.8724 L326.6899,172.8885 L326.953,168.2148 L327.3368,163.549 L327.1598,158.8462 L327.3939,154.1706 L327.9922,149.519 L327.7169,149.4969 L328.3016,145.3322 L328.576,141.1426 L329.3004,136.9891 L329.2566,132.774 L329.6694,128.5955 L329.5178,128.5796 L330.1409,125.0693 L330.1159,121.4911 L330.5518,117.9611 L331.4387,114.4785 L331.5225,110.9117 L331.7139,110.9408 L332.2597,108.2339 L332.2102,105.4366 L332.9064,102.7526 L333.4401,100.0439 L333.5952,97.2776 L333.4016,97.1964 L334.552,94.8853 L335.639,92.5476 L336.8506,90.2621 L337.5779,87.7736 L338.5757,85.3984 L338.5757,85.8096 L340.5757,84.9062 L342.5757,84.7964 L344.5757,85.8461 L346.5757,84.7612 L348.5757,85.3984" fill="none" style="stroke:#FF6F00;stroke-width:1;"/><a href="/use-case/construction-project-quotations/knowledge-capture-and-improvement/" target="_top" title="/use-case/construction-project-quotations/knowledge-capture-and-improvement/" xlink:actuate="onRequest" xlink:href="/use-case/construction-project-quotations/knowledge-capture-and-improvement/" xlink:show="new" xlink:title="/use-case/construction-project-quotations/knowledge-capture-and-improvement/" xlink:type="simple"><text fill="#4051B5" font-family="'Roboto'" font-size="13" lengthAdjust="spacing" textLength="311.2637" x="355.5757" y="215.563">Knowledge Capture &amp; Continuous Improvement</text></a><a href="/use-case/construction-project-quotations/knowledge-capture-and-improvement/document-ingestion-and-knowledge-extraction/" target="_top" title="/use-case/construction-project-quotations/knowledge-capture-and-improvement/document-ingestion-and-knowledge-extraction/" xlink:actuate="onRequest" xlink:href="/use-case/construction-project-quotations/knowledge-capture-and-improvement/document-ingestion-and-knowledge-extraction/" xlink:show="new" xlink:title="/use-case/construction-project-quotations/knowledge-capture-and-improvement/document-ingestion-and-knowledge-extraction/" xlink:type="simple"><text fill="#4051B5" font-family="'Roboto'" font-size="13" lengthAdjust="spacing" textLength="291.8398" x="727.8394" y="177.8638">Document Ingestion &amp; Knowledge Extraction</text></a><path d="M670.8394,211.0625 L670.8394,211.2493 L672.8394,210.6942 L674.8394,211.2343 L676.8394,211.4178 L678.8394,210.4284 L680.8394,211.0625 L680.8394,211.0625 L680.8203,211.0337 L682.516,209.7263 L684.3078,208.5641 L686.1664,207.5029 L687.7948,206.0938 L689.7456,205.172 L689.9683,205.2767 L690.7109,202.461 L692.1036,199.951 L693.5756,197.4782 L694.5861,194.7885 L695.8394,192.2129 L695.8668,192.2258 L697.0453,189.615 L698.3487,187.063 L699.5918,184.4827 L700.9499,181.9564 L701.9331,179.2538 L702.0976,179.5025 L703.8809,178.3275 L705.558,176.992 L707.3905,175.8913 L709.2303,174.8017 L710.8394,173.3633 L710.8394,172.7222 L712.8394,173.9664 L714.8394,173.0997 L716.8394,173.8378 L718.8394,172.9233 L720.8394,173.3633" fill="none" style="stroke:#FF6F00;stroke-width:1;"/><a href="/use-case/construction-project-quotations/knowledge-capture-and-improvement/estimate-vs-actual-and-lessons-learned/" target="_top" title="/use-case/construction-project-quotations/knowledge-capture-and-improvement/estimate-vs-actual-and-lessons-learned/" xlink:actuate="onRequest" xlink:href="/use-case/construction-project-quotations/knowledge-capture-and-improvement/estimate-vs-actual-and-lessons-learned/" xlink:show="new" xlink:title="/use-case/construction-project-quotations/knowledge-capture-and-improvement/estimate-vs-actual-and-lessons-learned/" xlink:type="simple"><text fill="#4051B5" font-family="'Roboto'" font-size="13" lengthAdjust="spacing" textLength="248.4346" x="727.8394" y="202.9966">Estimate vs Actual &amp; Lessons Learned</text></a><path d="M670.8394,211.0625 L670.8394,211.2493 L672.8394,210.6942 L674.8394,211.2343 L676.8394,211.4178 L678.8394,210.4284 L680.8394,211.0625 L680.8394,211.0625 L680.826,211.0306 L683.7661,209.631 L686.7735,208.392 L689.8277,207.2646 L692.7206,205.7525 L695.8394,204.7793 L695.9344,205.0063 L698.7311,203.2643 L701.8054,202.1849 L704.9135,201.1864 L707.8246,199.7176 L710.8394,198.4961 L710.8394,198.5568 L712.8394,198.4677 L714.8394,198.6548 L716.8394,198.7087 L718.8394,199.0167 L720.8394,198.4961" fill="none" style="stroke:#FF6F00;stroke-width:1;"/><a href="/use-case/construction-project-quotations/knowledge-capture-and-improvement/sme-knowledge-capture/" target="_top" title="/use-case/construction-project-quotations/knowledge-capture-and-improvement/sme-knowledge-capture/" xlink:actuate="onRequest" xlink:href="/use-case/construction-project-quotations/knowledge-capture-and-improvement/sme-knowledge-capture/" xlink:show="new" xlink:title="/use-case/construction-project-quotations/knowledge-capture-and-improvement/sme-knowledge-capture/" xlink:type="simple"><text fill="#4051B5" font-family="'Roboto'" font-size="13" lengthAdjust="spacing" textLength="159.3833" x="727.8394" y="228.1294">SME Knowledge Capture</text></a><path d="M670.8394,211.0625 L670.8394,211.2493 L672.8394,210.6942 L674.8394,211.2343 L676.8394,211.4178 L678.8394,210.4284 L680.8394,211.0625 L680.8394,211.0625 L680.826,211.0306 L683.7661,212.1443 L686.7735,213.4186 L689.8277,214.8045 L692.7206,215.8056 L695.8394,217.3457 L695.9344,217.5727 L698.7311,218.344 L701.8054,219.7779 L704.9135,221.2927 L707.8246,222.3371 L710.8394,223.6289 L710.8394,223.6896 L712.8394,223.6005 L714.8394,223.7876 L716.8394,223.8415 L718.8394,224.1495 L720.8394,223.6289" fill="none" style="stroke:#FF6F00;stroke-width:1;"/><a href="/use-case/construction-project-quotations/knowledge-capture-and-improvement/traceability-and-provenance/" target="_top" title="/use-case/construction-project-quotations/knowledge-capture-and-improvement/traceability-and-provenance/" xlink:actuate="onRequest" xlink:href="/use-case/construction-project-quotations/knowledge-capture-and-improvement/traceability-and-provenance/" xlink:show="new" xlink:title="/use-case/construction-project-quotations/knowledge-capture-and-improvement/traceability-and-provenance/" xlink:type="simple"><text fill="#4051B5" font-family="'Roboto'" font-size="13" lengthAdjust="spacing" textLength="171.063" x="727.8394" y="253.2622">Traceability &amp; Provenance</text></a><path d="M670.8394,211.0625 L670.8394,211.2493 L672.8394,210.6942 L674.8394,211.2343 L676.8394,211.4178 L678.8394,210.4284 L680.8394,211.0625 L680.8394,211.0625 L680.8203,211.0337 L682.516,212.0825 L684.3078,213.2765 L686.1664,214.5715 L687.7948,215.5186 L689.7456,216.953 L689.9683,217.0577 L690.7109,219.4256 L692.1036,222.0992 L693.5756,224.8102 L694.5861,227.3041 L695.8394,229.9121 L695.8668,229.925 L697.0453,232.4979 L698.3487,235.1295 L699.5918,237.7328 L700.9499,240.3902 L701.9331,242.8712 L702.0976,243.12 L703.8809,244.3011 L705.558,245.3218 L707.3905,246.5774 L709.2303,247.8439 L710.8394,248.7617 L710.8394,248.1207 L712.8394,249.3648 L714.8394,248.4982 L716.8394,249.2362 L718.8394,248.3217 L720.8394,248.7617" fill="none" style="stroke:#FF6F00;stroke-width:1;"/><path d="M298.5757,361.8594 L298.5757,362.0462 L300.5757,361.4911 L302.5757,362.0312 L304.5757,362.2146 L306.5757,361.2252 L308.5757,361.8594 L308.5757,361.8594 L308.5483,361.8383 L309.4215,360.4479 L310.4327,359.1637 L311.5399,357.9532 L312.3164,356.4885 L313.5562,355.3798 L313.796,355.4349 L314.0683,351.9006 L315.0408,348.5272 L316.0987,345.1733 L316.6596,341.7053 L317.4819,338.2974 L317.5119,338.3018 L317.8033,336.0127 L318.2313,333.7438 L318.5934,331.4651 L319.0813,329.2049 L319.1592,326.8845 L319.4553,326.9204 L319.768,324.3732 L319.8897,321.8029 L320.291,319.2664 L320.7053,316.7315 L320.7046,314.1463 L320.3858,314.1132 L321.5788,308.6403 L321.722,303.0586 L322.6632,297.5596 L322.7826,291.9753 L323.5757,286.4609 L323.5454,286.4578 L324.4777,280.9579 L324.7026,275.3846 L325.3449,269.8545 L326.0223,264.3282 L326.4468,258.7756 L326.6304,258.7979 L326.7541,256.2277 L327.1917,253.6957 L327.1215,251.102 L327.8086,248.6002 L327.9922,246.0374 L328.2332,246.0728 L328.5231,243.7835 L328.9326,241.5118 L328.7861,239.1584 L329.0472,236.8649 L329.6694,234.6245 L329.4003,234.5627 L330.4291,231.2022 L331.1546,227.772 L332.3201,224.4429 L332.7344,220.9412 L333.5952,217.5421 L333.4743,217.4491 L334.6717,216.308 L335.3524,214.7696 L336.4006,213.5137 L337.8083,212.5342 L338.5757,211.0625 L338.5757,211.4498 L340.5757,211.7154 L342.5757,210.7765 L344.5757,211.3462 L346.5757,211.5873 L348.5757,211.0625" fill="none" style="stroke:#FF6F00;stroke-width:1;"/><a href="/use-case/construction-project-quotations/opportunity-and-tender-intake/" target="_top" title="/use-case/construction-project-quotations/opportunity-and-tender-intake/" xlink:actuate="onRequest" xlink:href="/use-case/construction-project-quotations/opportunity-and-tender-intake/" xlink:show="new" xlink:title="/use-case/construction-project-quotations/opportunity-and-tender-intake/" xlink:type="simple"><text fill="#4051B5" font-family="'Roboto'" font-size="13" lengthAdjust="spacing" textLength="186.9829" x="355.5757" y="303.5278">Opportunity &amp; Tender Intake</text></a><a href="/use-case/construction-project-quotations/opportunity-and-tender-intake/bid-no-bid-decisioning/" target="_top" title="/use-case/construction-project-quotations/opportunity-and-tender-intake/bid-no-bid-decisioning/" xlink:actuate="onRequest" xlink:href="/use-case/construction-project-quotations/opportunity-and-tender-intake/bid-no-bid-decisioning/" xlink:show="new" xlink:title="/use-case/construction-project-quotations/opportunity-and-tender-intake/bid-no-bid-decisioning/" xlink:type="simple"><text fill="#4051B5" font-family="'Roboto'" font-size="13" lengthAdjust="spacing" textLength="147.894" x="603.5586" y="278.395">Bid/No-Bid Decisioning</text></a><path d="M546.5586,299.0273 L546.5586,299.2142 L548.5586,298.6591 L550.5586,299.1992 L552.5586,299.3826 L554.5586,298.3932 L556.5586,299.0273 L556.5586,299.0273 L556.5364,299.0009 L559.4369,296.3688 L562.4491,293.8701 L565.5391,291.4643 L568.3613,288.7387 L571.5586,286.4609 L571.7166,286.6496 L574.3787,283.7329 L577.5021,281.367 L580.6819,279.0683 L583.5341,276.3786 L586.5586,273.8945 L586.5586,273.9552 L588.5586,273.8661 L590.5586,274.0532 L592.5586,274.1071 L594.5586,274.4151 L596.5586,273.8945" fill="none" style="stroke:#FF6F00;stroke-width:1;"/><a href="/use-case/construction-project-quotations/opportunity-and-tender-intake/rfp-rfq-intake/" target="_top" title="/use-case/construction-project-quotations/opportunity-and-tender-intake/rfp-rfq-intake/" xlink:actuate="onRequest" xlink:href="/use-case/construction-project-quotations/opportunity-and-tender-intake/rfp-rfq-intake/" xlink:show="new" xlink:title="/use-case/construction-project-quotations/opportunity-and-tender-intake/rfp-rfq-intake/" xlink:type="simple"><text fill="#4051B5" font-family="'Roboto'" font-size="13" lengthAdjust="spacing" textLength="240.0747" x="603.5586" y="303.5278">RFP/RFQ Intake &amp; Document Catalog</text></a><path d="M546.5586,299.0273 L546.5586,299.2142 L548.5586,298.6591 L550.5586,299.1992 L552.5586,299.3826 L554.5586,298.3932 L556.5586,299.0273 L556.5586,299.0273 L556.5586,298.9928 L562.5586,298.8378 L568.5586,298.8569 L574.5586,298.9971 L580.5586,298.7201 L586.5586,299.0273 L586.5586,299.5195 L588.5586,298.4671 L590.5586,298.8516 L592.5586,299.4113 L594.5586,298.9511 L596.5586,299.0273" fill="none" style="stroke:#FF6F00;stroke-width:1;"/><a href="/use-case/construction-project-quotations/opportunity-and-tender-intake/site-visit-and-existing-conditions/" target="_top" title="/use-case/construction-project-quotations/opportunity-and-tender-intake/site-visit-and-existing-conditions/" xlink:actuate="onRequest" xlink:href="/use-case/construction-project-quotations/opportunity-and-tender-intake/site-visit-and-existing-conditions/" xlink:show="new" xlink:title="/use-case/construction-project-quotations/opportunity-and-tender-intake/site-visit-and-existing-conditions/" xlink:type="simple"><text fill="#4051B5" font-family="'Roboto'" font-size="13" lengthAdjust="spacing" textLength="199.9131" x="603.5586" y="328.6606">Site Visit &amp; Existing Conditions</text></a><path d="M546.5586,299.0273 L546.5586,299.2142 L548.5586,298.6591 L550.5586,299.1992 L552.5586,299.3826 L554.5586,298.3932 L556.5586,299.0273 L556.5586,299.0273 L556.5364,299.0009 L559.4369,301.3953 L562.4491,303.9233 L565.5391,306.544 L568.3613,308.8449 L571.5586,311.5938 L571.7166,311.7824 L574.3787,313.8923 L577.5021,316.5529 L580.6819,319.2808 L583.5341,321.6177 L586.5586,324.1602 L586.5586,324.2208 L588.5586,324.1318 L590.5586,324.3188 L592.5586,324.3727 L594.5586,324.6808 L596.5586,324.1602" fill="none" style="stroke:#FF6F00;stroke-width:1;"/><path d="M298.5757,361.8594 L298.5757,362.0462 L300.5757,361.4911 L302.5757,362.0312 L304.5757,362.2146 L306.5757,361.2252 L308.5757,361.8594 L308.5757,361.8594 L308.5501,361.8362 L310.2165,359.7685 L312.0119,357.8179 L313.897,355.9485 L315.4731,353.7989 L317.4819,352.0419 L317.7163,352.1169 L317.8597,349.9438 L318.6873,347.9899 L319.5984,346.0627 L320.0238,343.9799 L320.7046,341.9789 L320.734,341.9863 L321.265,339.6684 L321.93,337.3839 L322.5304,335.0833 L323.2541,332.8133 L323.5757,330.4434 L323.8651,330.5154 L324.4429,328.2092 L324.8339,325.8565 L325.4983,323.5718 L326.1754,321.2903 L326.4468,318.9078 L326.1415,318.81 L327.3785,316.9872 L327.6103,314.8424 L328.6063,312.9424 L328.8154,310.7903 L329.6694,308.8448 L329.6469,308.8244 L331.6948,307.1028 L333.2159,304.9033 L335.0478,302.9858 L336.9059,301.092 L338.5757,299.0273 L338.5757,299.3973 L340.5757,299.0239 L342.5757,299.2826 L344.5757,298.5185 L346.5757,299.2801 L348.5757,299.0273" fill="none" style="stroke:#FF6F00;stroke-width:1;"/><a href="/use-case/construction-project-quotations/proposal-submission-and-negotiation/" target="_top" title="/use-case/construction-project-quotations/proposal-submission-and-negotiation/" xlink:actuate="onRequest" xlink:href="/use-case/construction-project-quotations/proposal-submission-and-negotiation/" xlink:show="new" xlink:title="/use-case/construction-project-quotations/proposal-submission-and-negotiation/" xlink:type="simple"><text fill="#4051B5" font-family="'Roboto'" font-size="13" lengthAdjust="spacing" textLength="149.6016" x="355.5757" y="378.9263">Proposal &amp; Negotiation</text></a><a href="/use-case/construction-project-quotations/proposal-submission-and-negotiation/compliance-matrix-and-submission-packaging/" target="_top" title="/use-case/construction-project-quotations/proposal-submission-and-negotiation/compliance-matrix-and-submission-packaging/" xlink:actuate="onRequest" xlink:href="/use-case/construction-project-quotations/proposal-submission-and-negotiation/compliance-matrix-and-submission-packaging/" xlink:show="new" xlink:title="/use-case/construction-project-quotations/proposal-submission-and-negotiation/compliance-matrix-and-submission-packaging/" xlink:type="simple"><text fill="#4051B5" font-family="'Roboto'" font-size="13" lengthAdjust="spacing" textLength="285.2891" x="566.1772" y="353.7935">Compliance Matrix &amp; Submission Packaging</text></a><path d="M509.1772,374.4258 L509.1772,374.6126 L511.1772,374.0575 L513.1772,374.5976 L515.1772,374.7811 L517.1772,373.7917 L519.1772,374.4258 L519.1772,374.4258 L519.1551,374.3993 L522.0555,371.7672 L525.0678,369.2686 L528.1578,366.8627 L530.9799,364.1371 L534.1772,361.8594 L534.3353,362.048 L536.9974,359.1314 L540.1208,356.7654 L543.3005,354.4667 L546.1528,351.777 L549.1772,349.293 L549.1772,349.3536 L551.1772,349.2646 L553.1772,349.4517 L555.1772,349.5055 L557.1772,349.8136 L559.1772,349.293" fill="none" style="stroke:#FF6F00;stroke-width:1;"/><a href="/use-case/construction-project-quotations/proposal-submission-and-negotiation/negotiation-support-and-revisions/" target="_top" title="/use-case/construction-project-quotations/proposal-submission-and-negotiation/negotiation-support-and-revisions/" xlink:actuate="onRequest" xlink:href="/use-case/construction-project-quotations/proposal-submission-and-negotiation/negotiation-support-and-revisions/" xlink:show="new" xlink:title="/use-case/construction-project-quotations/proposal-submission-and-negotiation/negotiation-support-and-revisions/" xlink:type="simple"><text fill="#4051B5" font-family="'Roboto'" font-size="13" lengthAdjust="spacing" textLength="211.1167" x="566.1772" y="378.9263">Negotiation Support &amp; Revisions</text></a><path d="M509.1772,374.4258 L509.1772,374.6126 L511.1772,374.0575 L513.1772,374.5976 L515.1772,374.7811 L517.1772,373.7917 L519.1772,374.4258 L519.1772,374.4258 L519.1772,374.3912 L525.1772,374.2362 L531.1772,374.2553 L537.1772,374.3955 L543.1772,374.1185 L549.1772,374.4258 L549.1772,374.9179 L551.1772,373.8655 L553.1772,374.25 L555.1772,374.8097 L557.1772,374.3495 L559.1772,374.4258" fill="none" style="stroke:#FF6F00;stroke-width:1;"/><a href="/use-case/construction-project-quotations/proposal-submission-and-negotiation/proposal-document-generation/" target="_top" title="/use-case/construction-project-quotations/proposal-submission-and-negotiation/proposal-document-generation/" xlink:actuate="onRequest" xlink:href="/use-case/construction-project-quotations/proposal-submission-and-negotiation/proposal-document-generation/" xlink:show="new" xlink:title="/use-case/construction-project-quotations/proposal-submission-and-negotiation/proposal-document-generation/" xlink:type="simple"><text fill="#4051B5" font-family="'Roboto'" font-size="13" lengthAdjust="spacing" textLength="284.8892" x="566.1772" y="404.0591">Proposal Document Generation &amp; Assembly</text></a><path d="M509.1772,374.4258 L509.1772,374.6126 L511.1772,374.0575 L513.1772,374.5976 L515.1772,374.7811 L517.1772,373.7917 L519.1772,374.4258 L519.1772,374.4258 L519.1551,374.3993 L522.0555,376.7938 L525.0678,379.3217 L528.1578,381.9424 L530.9799,384.2434 L534.1772,386.9922 L534.3353,387.1808 L536.9974,389.2907 L540.1208,391.9514 L543.3005,394.6792 L546.1528,397.0161 L549.1772,399.5586 L549.1772,399.6193 L551.1772,399.5302 L553.1772,399.7173 L555.1772,399.7712 L557.1772,400.0792 L559.1772,399.5586" fill="none" style="stroke:#FF6F00;stroke-width:1;"/><path d="M298.5757,361.8594 L298.5757,362.0462 L300.5757,361.4911 L302.5757,362.0312 L304.5757,362.2146 L306.5757,361.2252 L308.5757,361.8594 L308.5757,361.8594 L308.5623,361.8275 L311.5024,362.9412 L314.5098,364.2154 L317.564,365.6014 L320.457,366.6025 L323.5757,368.1426 L323.6708,368.3695 L326.4675,369.1408 L329.5417,370.5748 L332.6499,372.0896 L335.561,373.134 L338.5757,374.4258 L338.5757,374.4864 L340.5757,374.3974 L342.5757,374.5845 L344.5757,374.6383 L346.5757,374.9464 L348.5757,374.4258" fill="none" style="stroke:#FF6F00;stroke-width:1;"/><a href="/use-case/construction-project-quotations/risk-compliance-and-contracts/" target="_top" title="/use-case/construction-project-quotations/risk-compliance-and-contracts/" xlink:actuate="onRequest" xlink:href="/use-case/construction-project-quotations/risk-compliance-and-contracts/" xlink:show="new" xlink:title="/use-case/construction-project-quotations/risk-compliance-and-contracts/" xlink:type="simple"><text fill="#4051B5" font-family="'Roboto'" font-size="13" lengthAdjust="spacing" textLength="192.8291" x="355.5757" y="466.8911">Risk, Compliance &amp; Contracts</text></a><a href="/use-case/construction-project-quotations/risk-compliance-and-contracts/bonds-insurance-warranties/" target="_top" title="/use-case/construction-project-quotations/risk-compliance-and-contracts/bonds-insurance-warranties/" xlink:actuate="onRequest" xlink:href="/use-case/construction-project-quotations/risk-compliance-and-contracts/bonds-insurance-warranties/" xlink:show="new" xlink:title="/use-case/construction-project-quotations/risk-compliance-and-contracts/bonds-insurance-warranties/" xlink:type="simple"><text fill="#4051B5" font-family="'Roboto'" font-size="13" lengthAdjust="spacing" textLength="201.7793" x="609.4048" y="429.1919">Bonds, Insurance &amp; Warranties</text></a><path d="M552.4048,462.3906 L552.4048,462.5775 L554.4048,462.0223 L556.4048,462.5624 L558.4048,462.7459 L560.4048,461.7565 L562.4048,462.3906 L562.4048,462.3906 L562.3857,462.3618 L564.0815,461.0544 L565.8733,459.8923 L567.7318,458.8311 L569.3603,457.4219 L571.311,456.5001 L571.5337,456.6048 L572.2763,453.7891 L573.669,451.2791 L575.141,448.8064 L576.1515,446.1166 L577.4048,443.541 L577.4322,443.5539 L578.6107,440.9432 L579.9141,438.3911 L581.1572,435.8108 L582.5153,433.2845 L583.4985,430.5819 L583.6631,430.8307 L585.4463,429.6556 L587.1235,428.3201 L588.9559,427.2195 L590.7957,426.1298 L592.4048,424.6914 L592.4048,424.0504 L594.4048,425.2945 L596.4048,424.4278 L598.4048,425.1659 L600.4048,424.2514 L602.4048,424.6914" fill="none" style="stroke:#FF6F00;stroke-width:1;"/><a href="/use-case/construction-project-quotations/risk-compliance-and-contracts/contract-terms-and-commercial-review/" target="_top" title="/use-case/construction-project-quotations/risk-compliance-and-contracts/contract-terms-and-commercial-review/" xlink:actuate="onRequest" xlink:href="/use-case/construction-project-quotations/risk-compliance-and-contracts/contract-terms-and-commercial-review/" xlink:show="new" xlink:title="/use-case/construction-project-quotations/risk-compliance-and-contracts/contract-terms-and-commercial-review/" xlink:type="simple"><text fill="#4051B5" font-family="'Roboto'" font-size="13" lengthAdjust="spacing" textLength="248.314" x="609.4048" y="454.3247">Contract Terms &amp; Commercial Review</text></a><path d="M552.4048,462.3906 L552.4048,462.5775 L554.4048,462.0223 L556.4048,462.5624 L558.4048,462.7459 L560.4048,461.7565 L562.4048,462.3906 L562.4048,462.3906 L562.3914,462.3588 L565.3316,460.9592 L568.3389,459.7201 L571.3931,458.5928 L574.2861,457.0806 L577.4048,456.1074 L577.4999,456.3344 L580.2966,454.5924 L583.3708,453.5131 L586.479,452.5146 L589.3901,451.0457 L592.4048,449.8242 L592.4048,449.8849 L594.4048,449.7958 L596.4048,449.9829 L598.4048,450.0368 L600.4048,450.3448 L602.4048,449.8242" fill="none" style="stroke:#FF6F00;stroke-width:1;"/><a href="/use-case/construction-project-quotations/risk-compliance-and-contracts/regulatory-safety-environmental-compliance/" target="_top" title="/use-case/construction-project-quotations/risk-compliance-and-contracts/regulatory-safety-environmental-compliance/" xlink:actuate="onRequest" xlink:href="/use-case/construction-project-quotations/risk-compliance-and-contracts/regulatory-safety-environmental-compliance/" xlink:show="new" xlink:title="/use-case/construction-project-quotations/risk-compliance-and-contracts/regulatory-safety-environmental-compliance/" xlink:type="simple"><text fill="#4051B5" font-family="'Roboto'" font-size="13" lengthAdjust="spacing" textLength="314.9644" x="609.4048" y="479.4575">Regulatory, Safety &amp; Environmental Compliance</text></a><path d="M552.4048,462.3906 L552.4048,462.5775 L554.4048,462.0223 L556.4048,462.5624 L558.4048,462.7459 L560.4048,461.7565 L562.4048,462.3906 L562.4048,462.3906 L562.3914,462.3588 L565.3316,463.4724 L568.3389,464.7467 L571.3931,466.1326 L574.2861,467.1338 L577.4048,468.6738 L577.4999,468.9008 L580.2966,469.6721 L583.3708,471.106 L586.479,472.6208 L589.3901,473.6652 L592.4048,474.957 L592.4048,475.0177 L594.4048,474.9286 L596.4048,475.1157 L598.4048,475.1696 L600.4048,475.4776 L602.4048,474.957" fill="none" style="stroke:#FF6F00;stroke-width:1;"/><a href="/use-case/construction-project-quotations/risk-compliance-and-contracts/risk-register-and-scenario-analysis/" target="_top" title="/use-case/construction-project-quotations/risk-compliance-and-contracts/risk-register-and-scenario-analysis/" xlink:actuate="onRequest" xlink:href="/use-case/construction-project-quotations/risk-compliance-and-contracts/risk-register-and-scenario-analysis/" xlink:show="new" xlink:title="/use-case/construction-project-quotations/risk-compliance-and-contracts/risk-register-and-scenario-analysis/" xlink:type="simple"><text fill="#4051B5" font-family="'Roboto'" font-size="13" lengthAdjust="spacing" textLength="217.7944" x="609.4048" y="504.5903">Risk Register &amp; Scenario Analysis</text></a><path d="M552.4048,462.3906 L552.4048,462.5775 L554.4048,462.0223 L556.4048,462.5624 L558.4048,462.7459 L560.4048,461.7565 L562.4048,462.3906 L562.4048,462.3906 L562.3857,462.3618 L564.0815,463.4106 L565.8733,464.6047 L567.7318,465.8997 L569.3603,466.8467 L571.311,468.2811 L571.5337,468.3858 L572.2763,470.7537 L573.669,473.4274 L575.141,476.1383 L576.1515,478.6322 L577.4048,481.2402 L577.4322,481.2531 L578.6107,483.826 L579.9141,486.4576 L581.1572,489.0609 L582.5153,491.7183 L583.4985,494.1993 L583.6631,494.4481 L585.4463,495.6292 L587.1235,496.6499 L588.9559,497.9055 L590.7957,499.1721 L592.4048,500.0898 L592.4048,499.4488 L594.4048,500.693 L596.4048,499.8263 L598.4048,500.5643 L600.4048,499.6498 L602.4048,500.0898" fill="none" style="stroke:#FF6F00;stroke-width:1;"/><path d="M298.5757,361.8594 L298.5757,362.0462 L300.5757,361.4911 L302.5757,362.0312 L304.5757,362.2146 L306.5757,361.2252 L308.5757,361.8594 L308.5757,361.8594 L308.5456,361.8423 L310.192,364.9075 L311.9899,368.0585 L313.8931,371.2692 L315.4334,374.2742 L317.4819,377.5674 L317.7232,377.6157 L317.8518,380.7325 L318.6848,383.9904 L319.6038,387.2655 L320.0227,390.4405 L320.7046,393.6681 L320.7346,393.6728 L321.2648,397.3573 L321.9314,401.0631 L322.5323,404.7586 L323.2587,408.4736 L323.5757,412.125 L323.8704,412.1708 L324.4482,415.8628 L324.8359,419.5252 L325.5019,423.2308 L326.181,426.9385 L326.4468,430.5819 L326.1325,430.519 L327.387,433.8612 L327.6066,436.9963 L328.613,440.2889 L328.8092,443.4193 L329.6694,446.6826 L329.643,446.6676 L331.7374,449.9868 L333.2131,452.9551 L335.0539,456.1305 L336.9254,459.3233 L338.5757,462.3906 L338.5757,462.7606 L340.5757,462.3872 L342.5757,462.6459 L344.5757,461.8818 L346.5757,462.6434 L348.5757,462.3906" fill="none" style="stroke:#FF6F00;stroke-width:1;"/><a href="/use-case/construction-project-quotations/scope-and-requirements/" target="_top" title="/use-case/construction-project-quotations/scope-and-requirements/" xlink:actuate="onRequest" xlink:href="/use-case/construction-project-quotations/scope-and-requirements/" xlink:show="new" xlink:title="/use-case/construction-project-quotations/scope-and-requirements/" xlink:type="simple"><text fill="#4051B5" font-family="'Roboto'" font-size="13" lengthAdjust="spacing" textLength="149.2524" x="355.5757" y="567.4224">Scope &amp; Requirements</text></a><a href="/use-case/construction-project-quotations/scope-and-requirements/assumptions-exclusions-qualifications/" target="_top" title="/use-case/construction-project-quotations/scope-and-requirements/assumptions-exclusions-qualifications/" xlink:actuate="onRequest" xlink:href="/use-case/construction-project-quotations/scope-and-requirements/assumptions-exclusions-qualifications/" xlink:show="new" xlink:title="/use-case/construction-project-quotations/scope-and-requirements/assumptions-exclusions-qualifications/" xlink:type="simple"><text fill="#4051B5" font-family="'Roboto'" font-size="13" lengthAdjust="spacing" textLength="266.8301" x="565.8281" y="529.7231">Assumptions, Exclusions &amp; Qualifications</text></a><path d="M508.8281,562.9219 L508.8281,563.1087 L510.8281,562.5536 L512.8281,563.0937 L514.8281,563.2771 L516.8281,562.2877 L518.8281,562.9219 L518.8281,562.9219 L518.8091,562.8931 L520.5048,561.5857 L522.2966,560.4235 L524.1552,559.3623 L525.7836,557.9532 L527.7344,557.0314 L527.957,557.1361 L528.6996,554.3203 L530.0923,551.8103 L531.5644,549.3376 L532.5749,546.6479 L533.8281,544.0723 L533.8556,544.0852 L535.034,541.4744 L536.3374,538.9224 L537.5806,536.342 L538.9387,533.8157 L539.9219,531.1132 L540.0864,531.3619 L541.8697,530.1869 L543.5468,528.8513 L545.3793,527.7507 L547.219,526.6611 L548.8281,525.2227 L548.8281,524.5816 L550.8281,525.8258 L552.8281,524.9591 L554.8281,525.6972 L556.8281,524.7826 L558.8281,525.2227" fill="none" style="stroke:#FF6F00;stroke-width:1;"/><a href="/use-case/construction-project-quotations/scope-and-requirements/constructability-review/" target="_top" title="/use-case/construction-project-quotations/scope-and-requirements/constructability-review/" xlink:actuate="onRequest" xlink:href="/use-case/construction-project-quotations/scope-and-requirements/constructability-review/" xlink:show="new" xlink:title="/use-case/construction-project-quotations/scope-and-requirements/constructability-review/" xlink:type="simple"><text fill="#4051B5" font-family="'Roboto'" font-size="13" lengthAdjust="spacing" textLength="153.9116" x="565.8281" y="554.856">Constructability Review</text></a><path d="M508.8281,562.9219 L508.8281,563.1087 L510.8281,562.5536 L512.8281,563.0937 L514.8281,563.2771 L516.8281,562.2877 L518.8281,562.9219 L518.8281,562.9219 L518.8148,562.89 L521.7549,561.4904 L524.7623,560.2514 L527.8164,559.124 L530.7094,557.6119 L533.8281,556.6387 L533.9232,556.8656 L536.7199,555.1237 L539.7942,554.0443 L542.9023,553.0458 L545.8134,551.5769 L548.8281,550.3555 L548.8281,550.4161 L550.8281,550.3271 L552.8281,550.5142 L554.8281,550.568 L556.8281,550.8761 L558.8281,550.3555" fill="none" style="stroke:#FF6F00;stroke-width:1;"/><a href="/use-case/construction-project-quotations/scope-and-requirements/rfis-clarifications-addenda/" target="_top" title="/use-case/construction-project-quotations/scope-and-requirements/rfis-clarifications-addenda/" xlink:actuate="onRequest" xlink:href="/use-case/construction-project-quotations/scope-and-requirements/rfis-clarifications-addenda/" xlink:show="new" xlink:title="/use-case/construction-project-quotations/scope-and-requirements/rfis-clarifications-addenda/" xlink:type="simple"><text fill="#4051B5" font-family="'Roboto'" font-size="13" lengthAdjust="spacing" textLength="196.2251" x="565.8281" y="579.9888">RFIs, Clarifications &amp; Addenda</text></a><path d="M508.8281,562.9219 L508.8281,563.1087 L510.8281,562.5536 L512.8281,563.0937 L514.8281,563.2771 L516.8281,562.2877 L518.8281,562.9219 L518.8281,562.9219 L518.8148,562.89 L521.7549,564.0037 L524.7623,565.2779 L527.8164,566.6639 L530.7094,567.665 L533.8281,569.2051 L533.9232,569.432 L536.7199,570.2033 L539.7942,571.6373 L542.9023,573.1521 L545.8134,574.1965 L548.8281,575.4883 L548.8281,575.5489 L550.8281,575.4599 L552.8281,575.647 L554.8281,575.7008 L556.8281,576.0089 L558.8281,575.4883" fill="none" style="stroke:#FF6F00;stroke-width:1;"/><a href="/use-case/construction-project-quotations/scope-and-requirements/scope-decomposition-wbs-boq/" target="_top" title="/use-case/construction-project-quotations/scope-and-requirements/scope-decomposition-wbs-boq/" xlink:actuate="onRequest" xlink:href="/use-case/construction-project-quotations/scope-and-requirements/scope-decomposition-wbs-boq/" xlink:show="new" xlink:title="/use-case/construction-project-quotations/scope-and-requirements/scope-decomposition-wbs-boq/" xlink:type="simple"><text fill="#4051B5" font-family="'Roboto'" font-size="13" lengthAdjust="spacing" textLength="216.7852" x="565.8281" y="605.1216">Scope Decomposition (WBS/BoQ)</text></a><path d="M508.8281,562.9219 L508.8281,563.1087 L510.8281,562.5536 L512.8281,563.0937 L514.8281,563.2771 L516.8281,562.2877 L518.8281,562.9219 L518.8281,562.9219 L518.8091,562.8931 L520.5048,563.9419 L522.2966,565.1359 L524.1552,566.4309 L525.7836,567.378 L527.7344,568.8124 L527.957,568.9171 L528.6996,571.285 L530.0923,573.9586 L531.5644,576.6695 L532.5749,579.1634 L533.8281,581.7715 L533.8556,581.7844 L535.034,584.3573 L536.3374,586.9889 L537.5806,589.5922 L538.9387,592.2495 L539.9219,594.7306 L540.0864,594.9794 L541.8697,596.1605 L543.5468,597.1812 L545.3793,598.4367 L547.219,599.7033 L548.8281,600.6211 L548.8281,599.98 L550.8281,601.2242 L552.8281,600.3575 L554.8281,601.0956 L556.8281,600.1811 L558.8281,600.6211" fill="none" style="stroke:#FF6F00;stroke-width:1;"/><path d="M298.5757,361.8594 L298.5757,362.0462 L300.5757,361.4911 L302.5757,362.0312 L304.5757,362.2146 L306.5757,361.2252 L308.5757,361.8594 L308.5757,361.8594 L308.5458,361.8421 L309.4076,363.4926 L310.4202,365.23 L311.5377,367.0279 L312.2939,368.6174 L313.5562,370.4988 L313.797,370.5491 L313.6965,372.4246 L314.2992,374.4471 L314.9877,376.4875 L315.177,378.4235 L315.6289,380.4145 L315.6589,380.4188 L315.9855,382.9846 L316.4487,385.5701 L316.8459,388.1462 L317.369,390.7403 L317.4819,393.2754 L317.7784,393.3081 L318.1175,396.3519 L318.2653,399.3746 L318.6931,402.4282 L319.134,405.4833 L319.1592,408.4925 L318.84,408.4635 L319.7686,411.9167 L319.6461,415.2743 L320.3227,418.7046 L320.1764,422.06 L320.7046,425.4768 L320.6742,425.4744 L321.6074,432.8851 L321.8314,440.2407 L322.4739,447.6287 L323.1515,455.0195 L323.5757,462.3906 L323.7601,462.405 L324.1482,469.7733 L324.8514,477.1661 L325.0447,484.5192 L325.9986,491.9315 L326.4468,499.3044 L326.6894,499.3265 L326.9526,502.7192 L327.3363,506.1228 L327.1602,509.4756 L327.3944,512.8656 L327.9922,516.2887 L327.7177,516.2585 L328.3016,519.3293 L328.5763,522.366 L329.2996,525.4522 L329.2568,528.4539 L329.6694,531.5059 L329.5185,531.4841 L330.1405,534.0925 L330.1173,536.608 L330.5529,539.1895 L331.4373,541.8357 L331.5225,544.3668 L331.712,544.4064 L332.2565,546.4167 L332.2116,548.3038 L332.905,550.3452 L333.4375,552.353 L333.5952,554.2825 L333.4133,554.1776 L334.5544,555.9891 L335.6359,557.7662 L336.8345,559.6108 L337.578,561.1931 L338.5757,562.9219 L338.5757,563.333 L340.5757,562.4296 L342.5757,562.3199 L344.5757,563.3695 L346.5757,562.2846 L348.5757,562.9219" fill="none" style="stroke:#FF6F00;stroke-width:1;"/><a href="/use-case/construction-project-quotations/supply-chain-and-subcontractors/" target="_top" title="/use-case/construction-project-quotations/supply-chain-and-subcontractors/" xlink:actuate="onRequest" xlink:href="/use-case/construction-project-quotations/supply-chain-and-subcontractors/" xlink:show="new" xlink:title="/use-case/construction-project-quotations/supply-chain-and-subcontractors/" xlink:type="simple"><text fill="#4051B5" font-family="'Roboto'" font-size="13" lengthAdjust="spacing" textLength="202.7759" x="355.5757" y="667.9536">Supply Chain &amp; Subcontractors</text></a><a href="/use-case/construction-project-quotations/supply-chain-and-subcontractors/bid-leveling/" target="_top" title="/use-case/construction-project-quotations/supply-chain-and-subcontractors/bid-leveling/" xlink:actuate="onRequest" xlink:href="/use-case/construction-project-quotations/supply-chain-and-subcontractors/bid-leveling/" xlink:show="new" xlink:title="/use-case/construction-project-quotations/supply-chain-and-subcontractors/bid-leveling/" xlink:type="simple"><text fill="#4051B5" font-family="'Roboto'" font-size="13" lengthAdjust="spacing" textLength="239.2813" x="619.3516" y="630.2544">Bid Leveling &amp; Comparative Analysis</text></a><path d="M562.3516,663.4531 L562.3516,663.64 L564.3516,663.0848 L566.3516,663.6249 L568.3516,663.8084 L570.3516,662.819 L572.3516,663.4531 L572.3516,663.4531 L572.3325,663.4243 L574.0282,662.1169 L575.82,660.9548 L577.6786,659.8936 L579.3071,658.4844 L581.2578,657.5626 L581.4805,657.6673 L582.2231,654.8516 L583.6158,652.3416 L585.0878,649.8689 L586.0983,647.1791 L587.3516,644.6035 L587.379,644.6164 L588.5575,642.0057 L589.8609,639.4536 L591.104,636.8733 L592.4621,634.347 L593.4453,631.6444 L593.6098,631.8932 L595.3931,630.7181 L597.0702,629.3826 L598.9027,628.282 L600.7425,627.1923 L602.3516,625.7539 L602.3516,625.1129 L604.3516,626.357 L606.3516,625.4903 L608.3516,626.2284 L610.3516,625.3139 L612.3516,625.7539" fill="none" style="stroke:#FF6F00;stroke-width:1;"/><a href="/use-case/construction-project-quotations/supply-chain-and-subcontractors/subcontractor-bid-solicitation-and-comparison/" target="_top" title="/use-case/construction-project-quotations/supply-chain-and-subcontractors/subcontractor-bid-solicitation-and-comparison/" xlink:actuate="onRequest" xlink:href="/use-case/construction-project-quotations/supply-chain-and-subcontractors/subcontractor-bid-solicitation-and-comparison/" xlink:show="new" xlink:title="/use-case/construction-project-quotations/supply-chain-and-subcontractors/subcontractor-bid-solicitation-and-comparison/" xlink:type="simple"><text fill="#4051B5" font-family="'Roboto'" font-size="13" lengthAdjust="spacing" textLength="289.4722" x="619.3516" y="655.3872">Subcontractor Bid Solicitation &amp; Comparison</text></a><path d="M562.3516,663.4531 L562.3516,663.64 L564.3516,663.0848 L566.3516,663.6249 L568.3516,663.8084 L570.3516,662.819 L572.3516,663.4531 L572.3516,663.4531 L572.3382,663.4213 L575.2783,662.0217 L578.2857,660.7826 L581.3399,659.6553 L584.2328,658.1431 L587.3516,657.1699 L587.4466,657.3969 L590.2433,655.6549 L593.3176,654.5756 L596.4257,653.5771 L599.3368,652.1082 L602.3516,650.8867 L602.3516,650.9474 L604.3516,650.8583 L606.3516,651.0454 L608.3516,651.0993 L610.3516,651.4073 L612.3516,650.8867" fill="none" style="stroke:#FF6F00;stroke-width:1;"/><a href="/use-case/construction-project-quotations/supply-chain-and-subcontractors/subcontractor-scope-packages/" target="_top" title="/use-case/construction-project-quotations/supply-chain-and-subcontractors/subcontractor-scope-packages/" xlink:actuate="onRequest" xlink:href="/use-case/construction-project-quotations/supply-chain-and-subcontractors/subcontractor-scope-packages/" xlink:show="new" xlink:title="/use-case/construction-project-quotations/supply-chain-and-subcontractors/subcontractor-scope-packages/" xlink:type="simple"><text fill="#4051B5" font-family="'Roboto'" font-size="13" lengthAdjust="spacing" textLength="201.373" x="619.3516" y="680.52">Subcontractor Scope Packages</text></a><path d="M562.3516,663.4531 L562.3516,663.64 L564.3516,663.0848 L566.3516,663.6249 L568.3516,663.8084 L570.3516,662.819 L572.3516,663.4531 L572.3516,663.4531 L572.3382,663.4213 L575.2783,664.5349 L578.2857,665.8092 L581.3399,667.1951 L584.2328,668.1963 L587.3516,669.7363 L587.4466,669.9633 L590.2433,670.7346 L593.3176,672.1685 L596.4257,673.6833 L599.3368,674.7277 L602.3516,676.0195 L602.3516,676.0802 L604.3516,675.9911 L606.3516,676.1782 L608.3516,676.2321 L610.3516,676.5401 L612.3516,676.0195" fill="none" style="stroke:#FF6F00;stroke-width:1;"/><a href="/use-case/construction-project-quotations/supply-chain-and-subcontractors/supplier-rfqs-and-material-pricing/" target="_top" title="/use-case/construction-project-quotations/supply-chain-and-subcontractors/supplier-rfqs-and-material-pricing/" xlink:actuate="onRequest" xlink:href="/use-case/construction-project-quotations/supply-chain-and-subcontractors/supplier-rfqs-and-material-pricing/" xlink:show="new" xlink:title="/use-case/construction-project-quotations/supply-chain-and-subcontractors/supplier-rfqs-and-material-pricing/" xlink:type="simple"><text fill="#4051B5" font-family="'Roboto'" font-size="13" lengthAdjust="spacing" textLength="210.6025" x="619.3516" y="705.6528">Supplier RFQs &amp; Material Pricing</text></a><path d="M562.3516,663.4531 L562.3516,663.64 L564.3516,663.0848 L566.3516,663.6249 L568.3516,663.8084 L570.3516,662.819 L572.3516,663.4531 L572.3516,663.4531 L572.3325,663.4243 L574.0282,664.4731 L575.82,665.6672 L577.6786,666.9622 L579.3071,667.9092 L581.2578,669.3436 L581.4805,669.4483 L582.2231,671.8162 L583.6158,674.4899 L585.0878,677.2008 L586.0983,679.6947 L587.3516,682.3027 L587.379,682.3156 L588.5575,684.8885 L589.8609,687.5201 L591.104,690.1234 L592.4621,692.7808 L593.4453,695.2618 L593.6098,695.5106 L595.3931,696.6917 L597.0702,697.7124 L598.9027,698.968 L600.7425,700.2346 L602.3516,701.1523 L602.3516,700.5113 L604.3516,701.7555 L606.3516,700.8888 L608.3516,701.6268 L610.3516,700.7123 L612.3516,701.1523" fill="none" style="stroke:#FF6F00;stroke-width:1;"/><path d="M298.5757,361.8594 L298.5757,362.0462 L300.5757,361.4911 L302.5757,362.0312 L304.5757,362.2146 L306.5757,361.2252 L308.5757,361.8594 L308.5757,361.8594 L308.5434,361.847 L309.3948,364.3832 L310.4088,366.9819 L311.5357,369.624 L312.2732,372.1164 L313.5562,374.8185 L313.7999,374.8524 L313.6933,377.7545 L314.2982,380.7558 L314.9899,383.7691 L315.1766,386.712 L315.6289,389.692 L315.6591,389.6949 L315.9854,393.5489 L316.4491,397.4161 L316.8465,401.277 L317.3704,405.15 L317.4819,408.9834 L317.7794,409.0053 L318.1185,413.5707 L318.2657,418.122 L318.6938,422.6939 L319.135,427.2668 L319.1592,431.8091 L318.8392,431.7897 L319.7693,436.9226 L319.6458,441.9917 L320.3232,447.1093 L320.1759,452.1769 L320.7046,457.2855 L320.6134,457.2808 L322.1706,466.5652 L321.5967,475.7391 L322.2804,484.9782 L323.0696,494.2227 L323.6514,503.4565 L323.5757,512.6563 L323.5705,512.656 L324.4366,521.9045 L323.7705,531.0736 L325.3899,540.3612 L326.2197,549.6079 L326.5602,558.8292 L326.4468,568.027 L326.7187,568.0435 L326.5416,573.1093 L326.7756,578.2 L327.0984,583.2961 L327.657,588.4065 L327.9922,593.5034 L327.9051,593.497 L328.6297,598.0907 L328.5857,602.628 L328.8465,607.1876 L329.4352,611.7714 L329.6694,616.3291 L329.3744,616.3008 L329.8104,620.1653 L330.6977,624.0732 L330.974,627.9225 L331.4768,631.7934 L331.5225,635.6205 L331.3808,635.6008 L332.0775,638.6148 L332.6115,641.6061 L332.5582,644.5156 L333.1385,647.5134 L333.5952,650.494 L333.6475,650.5141 L334.8617,653.1898 L335.5857,655.677 L336.7754,658.3432 L337.3498,660.773 L338.5757,663.4531 L338.5757,662.8511 L340.5757,663.9008 L342.5757,662.8158 L344.5757,663.9055 L346.5757,663.6368 L348.5757,663.4531" fill="none" style="stroke:#FF6F00;stroke-width:1;"/><!--SRC=[xLhhRnit4l-kluBN01S7yLPsuXH5K1InvKUTMBOiEGaEHH5GkvJ4youfarmfwk7-zvlXSb-otjPU4a3-8elpuyoG7Cw3cdVQK6KYBeA83ealXJOgzWsNmXig-M_c6-yXbeRYYAxL_X6m7XUCd5nyQHvVNdzft5pTj8dzUtPqyEQm-wO8wPmrRgvFZzl_ShWPaDPnuyFnnLd6w17afdrwrYxA8SzwlLzw1mSPvFpc-gu4i13yoo37xVRDvp8cvLBJzrmCgQ8HwLB_lgzaB8A63AKYpuoYGWED2LE0_J4PCXLoSUzGJkFQSyA57yO18sR0I9y9fcX8idcQz03TbMQmJqBU7nX2HK02gkvXff54ZfWQAsuO6NCpI7Zm4HD4CsEuwElfFRdxuxBnuVgiqo67S31oY4T41i0KkHYOsAEXPWN5MpG8W14vAeora-KgK9RyMXZl36WWnuYUvf8j_wC8x3_CGGgOKzQZSMZ8Vsg4d4jXhcd4o4zj2QkNFxcnPFVomtF37Vut8uT7jVyM-Hqh9SUMsvnPyvYPIGZx9SEWp6y89qtxBDDlnlIJAMCeMJpIfOBbErh1I45GBaV8O5qXfGkngXnVHaCfm4oji8rLdwjdiezn5BugxsD03UrIpIeHMvBaXp8E_WzYP1Wow_vqHS9oMGq0A1bMBkS4sL8rgLpGcJ3SL2-62yDKZ_giSaaTzX0puRCMX4Zkyo4L9c5tD-3-lM1QW-lDuTh1hLx5EKjKVCH-fhO5LExQX5GH3HzJPzpXAzvZL-2j5uZ884iKjkvuXWWxle2_fSzHpzBoVNsDGxwHQgak5hH09jBdNVpdf75adHi4ElZoREbVqLSeS1HKz4FsssyG4RKKl_zkJxu3vicaWJ2v839jC-Aaf7ptfZE4ifChACw-WhA2Xb-gMi5K2bZHClH46nRzoFjVrGegtFyq-Fzesv_h_IFlVi68kYx0f_fFfUxJAx8Pzi5gsUV6Ux5icKdu2gWUi62rjSzSEXIiXaB4Kkki7QgBvUPMsSfNFU3LQwYq0YqMKA-Jy7O3HQNYK8G4ZXlMe6crZzM99Xw9OcsmX624zc3LgUIfEgOWprNN2mgqGi6zIDLo3fFlp5IPeGqrILQr_Dpc7Woa0iOeteqDcu_84vlo2XRMOQKoXMhzT4qN2NjEckxyz93vlCTzs1-RmS1HZWVuW630iK6QhF7WxI7lasuOCtpU4Gpp8KraR90ygrQjJFDS5YqdUuUrsii6bB0X-ufLKVO4HLh94nIvpP-WNhxyGlxyinvhvldWnEjBdgpgJ1iUKNn0yQW8005PikZNoLasJlu9SkpeNty1- -tmHyS4dr0EJEmuqpuDxPIwBVmS3MIVPPGjYWSBuUWcjOVFIWD60-sv5oaFM0OycKqkKzo-THKM23fTkCUhHWRTecuXxKg5-02dZg1aj6HViR4NWH66zdok48K6aA50hmPWIDDXjgYI-_HWBdYQ_iIBgEfpWH_tyH3soHa8H8K4GFQQ5b5l9eWNMrJc8QQsaFOClMUorwk3-ISZv2uP8NklJkklJ-idbyrj2eu5DnwkJoS78hNnGjvLL746U_0HoAIDP3m984Azw8XMYVLqk1To7BAWZ_2XYHMpCda4q16Bc31ryY65a4O2iNBnxiGorkGonswo2SiL2AGVupyUNbPj-I0admXkLb4_kTId3WnNoe51stm5Pncq6btTaJ9l18VdcnZkEK92SA_003wf4Yp8t1uZ8usbCU10pQi41PyMLOs6EcBU8rITT9fdZm-w6Wtm11ZjyZ1rEPOagF11Zxi2qKQ4bBI1RSlXK2g3rocHOnW-bOCPuOskavkS39BkB17C1ecRB7onj2uFF24z_0WWNT0mnVhN4nxKhwK77v3lPUFRbwzwGq_r7hB5jyzRzVRvhLilh3-xE0seoq9PWGgQuxs09Pea57_bslg-OY3iODxq2J4OaXrYElwjfnGC3QM6YwZZRiIrJls7O7rfkCi5MWu4Kg_pyKtsO1Ln-3j1oD6g8RH1ClpL8WeJaXz6h84qCYnfMYoesCcGf9KYgzAry3_0x05RZ68ZQwrmQ8KT0zKi19Hifu2gDCimMO18Kgkf4yqC-oAZWdR7MhEe6qusC2Z5zRrNEC8aI0iRM60tsa3UBnvR4YqjTPEjM2ok2rT3mmtJiRBKCUJqcALWfd22j7suueu8cdpEoDjN9VqFhhsAqjmbYfZoEHmIsWiRrxEz08SBABivASQQ31jlNpF5-Z7azb9DF4rx3BmJ4oEkf42xiAbuEX6EByFkauu5eoSgmWjdMu6gI0LzmVE1vxHkmOS0gBY4BpISQEvC31Mr8FG73aAE7MG3gzQ-739tinzYg4PmiUYHSTnUvtnqasNFuGzrUXpPtymrH0G_ZAtBW8aqn9hQJSRhciBs8IwaED3hjeJSecRPj3HLALXmYV04ivqZMlMuzlmGZZHRc4U30A8fnSXz2NlGA57HeINqBMgH34EsWhzgQnj_lN5NUrtva9h5QP58zZwVTEedylR59kO7SIESUFw0Sf56m_HMI8LsQ06aWO0a11R86wrwYKHCrK8sSdKm9cXNxblYjF091IfYLhvqMrQYzDLcZrg6K2OcyrCV2wfmZK6lj2jMvqu1dkcDuEgrJUp7zNZeQUKI0sevQZNQ09s35uMyDmb7M74f34RPyrF7OU1MtU8jQZf4uIdg7LmhzrHRgxrRhqzhUrrDttd_KFeMlKRpK7dAJ3PhjGtbSwVVJVFNxkApQDfvjgHHQ1ji5_S5BUOpMvUDEe7M5xHYxyzJ6I_fzjc4_MhzFK_ZlB2Zvsci5_JmF8tnugwTf_6kg4ydLsfEXqwktmRDEVcTcjMPaxEUrvIJQrVurIfd-gWN9-SurOOpDMU57fo2wEdkcuAKSkDDuG9ks4Eps6-lQr6F3UJfFJBVIiEbxGlVVEk-BmtNw5pvHdfzfnjNGTD9hj46grkmXYKD9eVLTvHKjRAvfxE5Zf4dj7pC3DPRR_V8ESxUk9bT7YLoALWwZUTbqYjsTYnNQYdx1TqNM-2-wxVOzLli-Yrs_HQxVejTlyMktsBNRx7hjzZrM-pwBNRz5hj-Yrs_nQxVOjTliUktsFLRxFejYlqMhH2YvyVc5HanPVElmvzV7Rnwy_FXOPSPUdYmzr5W0IJiJ-myP0JAFFQYjdVHkY9QnWg2S01Usxv4mlGNjVTqH4ax5eXx2oK94-zFFwG3nRXJU_-fcGD-EOAImP0EKw08-TIifO-yPyANs8tnbdoyE_T-hLrHqOzXXzyI9ceD2NpL16YT_m40]--></g></svg>