<svg xmlns="http://www.w3.org/2000/svg" xmlns:xlink="http://www.w3.org/1999/xlink" viewBox="-79.62 332.50 696.17 135.00" width="696.17px" height="135.00px" class="use-case-tree-svg">
  <rect width="100%" height="100%" fill="transparent" />
  <line x1="24.86" y1="350.00" x2="34.86" y2="350.00" stroke="#FF9900" stroke-width="1.5" />
  <path d="M 34.86 350.00 C 52.86 350.00, 56.86 350.00, 74.86 350.00" stroke="#FF9900" stroke-width="1.5" fill="none" />
  <path d="M 345.00 350.00 C 369.75 350.00, 375.25 350.00, 400.00 350.00" stroke="#FF9900" stroke-width="1.5" fill="none" />
  <path d="M 345.00 350.00 C 369.75 350.00, 375.25 375.00, 400.00 375.00" stroke="#FF9900" stroke-width="1.5" fill="none" />
  <path d="M 345.00 350.00 C 369.75 350.00, 375.25 400.00, 400.00 400.00" stroke="#FF9900" stroke-width="1.5" fill="none" />
  <path d="M 345.00 350.00 C 369.75 350.00, 375.25 425.00, 400.00 425.00" stroke="#FF9900" stroke-width="1.5" fill="none" />
  <path d="M 345.00 350.00 C 369.75 350.00, 375.25 450.00, 400.00 450.00" stroke="#FF9900" stroke-width="1.5" fill="none" />
  <a xlink:href="/use-case/cyber-security/" target="_top">
    <rect x="-74.62" y="337.50" width="99.48" height="25" rx="4" ry="4" fill="none" stroke="none" pointer-events="all" />
    <text x="-64.62" y="354.50" text-anchor="start" font-family="Roboto, sans-serif" font-size="13" fill="#90EE90" font-weight="normal">Cybersecurity</text>
  </a>
  <a xlink:href="/use-case/cyber-security/respond/" target="_top">
    <rect x="74.86" y="337.50" width="275.14" height="25" rx="4" ry="4" fill="none" stroke="none" pointer-events="all" />
    <text x="84.86" y="354.50" text-anchor="start" font-family="Roboto, sans-serif" font-size="13" fill="#90EE90" font-weight="normal">Respond (Cybersecurity Incident Response)</text>
  </a>
  <a xlink:href="/use-case/cyber-security/respond/communications-and-disclosure/" target="_top">
    <rect x="400.00" y="337.50" width="208.55" height="25" rx="4" ry="4" fill="#4051B5" stroke="#FF6F00" stroke-width="1.5" />
    <text x="410.00" y="354.50" text-anchor="start" font-family="Roboto, sans-serif" font-size="13" fill="#FFFFFF" font-weight="bold">Communications &amp; Disclosure</text>
  </a>
  <a xlink:href="/use-case/cyber-security/respond/containment-and-eradication/" target="_top">
    <rect x="400.00" y="362.50" width="174.69" height="25" rx="4" ry="4" fill="none" stroke="none" pointer-events="all" />
    <text x="410.00" y="379.50" text-anchor="start" font-family="Roboto, sans-serif" font-size="13" fill="#90EE90" font-weight="normal">Containment &amp; Eradication</text>
  </a>
  <a xlink:href="/use-case/cyber-security/respond/incident-intake-and-triage/" target="_top">
    <rect x="400.00" y="387.50" width="156.61" height="25" rx="4" ry="4" fill="none" stroke="none" pointer-events="all" />
    <text x="410.00" y="404.50" text-anchor="start" font-family="Roboto, sans-serif" font-size="13" fill="#90EE90" font-weight="normal">Incident Intake &amp; Triage</text>
  </a>
  <a xlink:href="/use-case/cyber-security/respond/investigation-and-forensics/" target="_top">
    <rect x="400.00" y="412.50" width="165.27" height="25" rx="4" ry="4" fill="none" stroke="none" pointer-events="all" />
    <text x="410.00" y="429.50" text-anchor="start" font-family="Roboto, sans-serif" font-size="13" fill="#90EE90" font-weight="normal">Investigation &amp; Forensics</text>
  </a>
  <a xlink:href="/use-case/cyber-security/respond/lessons-learned-and-improvement/" target="_top">
    <rect x="400.00" y="437.50" width="211.55" height="25" rx="4" ry="4" fill="none" stroke="none" pointer-events="all" />
    <text x="410.00" y="454.50" text-anchor="start" font-family="Roboto, sans-serif" font-size="13" fill="#90EE90" font-weight="normal">Lessons Learned &amp; Improvement</text>
  </a>
</svg>