<svg xmlns="http://www.w3.org/2000/svg" xmlns:xlink="http://www.w3.org/1999/xlink" viewBox="-22.61 357.50 845.62 85.00" width="845.62px" height="85.00px" class="use-case-tree-svg">
  <rect width="100%" height="100%" fill="transparent" />
  <line x1="159.27" y1="400.00" x2="169.27" y2="400.00" stroke="#FF6F00" stroke-width="1.5" />
  <path d="M 169.27 400.00 C 187.27 400.00, 191.27 400.00, 209.27 400.00" stroke="#FF6F00" stroke-width="1.5" fill="none" />
  <path d="M 345.00 400.00 C 369.75 400.00, 375.25 375.00, 400.00 375.00" stroke="#FF6F00" stroke-width="1.5" fill="none" />
  <path d="M 345.00 400.00 C 369.75 400.00, 375.25 400.00, 400.00 400.00" stroke="#FF6F00" stroke-width="1.5" fill="none" />
  <path d="M 345.00 400.00 C 369.75 400.00, 375.25 425.00, 400.00 425.00" stroke="#FF6F00" stroke-width="1.5" fill="none" />
  <path d="M 623.75 400.00 C 648.50 400.00, 654.00 387.50, 678.75 387.50" stroke="#FF6F00" stroke-width="1.5" fill="none" />
  <path d="M 623.75 400.00 C 648.50 400.00, 654.00 412.50, 678.75 412.50" stroke="#FF6F00" stroke-width="1.5" fill="none" />
  <a xlink:href="/use-case/supply-chain-management/" target="_top">
    <rect x="-17.61" y="387.50" width="176.88" height="25" rx="4" ry="4" fill="none" stroke="none" pointer-events="all" />
    <text x="-7.61" y="404.50" text-anchor="start" font-family="Roboto, sans-serif" font-size="13" fill="#4051B5" font-weight="normal">Supply Chain Management</text>
  </a>
  <a xlink:href="/use-case/supply-chain-management/vendor-management/" target="_top">
    <rect x="209.27" y="387.50" width="140.73" height="25" rx="4" ry="4" fill="none" stroke="none" pointer-events="all" />
    <text x="219.27" y="404.50" text-anchor="start" font-family="Roboto, sans-serif" font-size="13" fill="#4051B5" font-weight="normal">Vendor Management</text>
  </a>
  <a xlink:href="/use-case/supply-chain-management/vendor-management/vendor-lifecycle/" target="_top">
    <rect x="400.00" y="362.50" width="115.42" height="25" rx="4" ry="4" fill="none" stroke="none" pointer-events="all" />
    <text x="410.00" y="379.50" text-anchor="start" font-family="Roboto, sans-serif" font-size="13" fill="#4051B5" font-weight="normal">Vendor Lifecycle</text>
  </a>
  <a xlink:href="/use-case/supply-chain-management/vendor-management/vendor-relationship-management/" target="_top">
    <rect x="400.00" y="387.50" width="228.75" height="25" rx="4" ry="4" fill="#4051B5" stroke="#FF6F00" stroke-width="1.5" />
    <text x="410.00" y="404.50" text-anchor="start" font-family="Roboto, sans-serif" font-size="13" fill="#FFFFFF" font-weight="bold">Vendor Relationship Management</text>
  </a>
  <a xlink:href="/use-case/supply-chain-management/vendor-management/vendor-relationship-management/vendor-contracts/" target="_top">
    <rect x="678.75" y="375.00" width="120.47" height="25" rx="4" ry="4" fill="none" stroke="none" pointer-events="all" />
    <text x="688.75" y="392.00" text-anchor="start" font-family="Roboto, sans-serif" font-size="13" fill="#4051B5" font-weight="normal">Vendor Contracts</text>
  </a>
  <a xlink:href="/use-case/supply-chain-management/vendor-management/vendor-relationship-management/vendor-performance/" target="_top">
    <rect x="678.75" y="400.00" width="139.27" height="25" rx="4" ry="4" fill="none" stroke="none" pointer-events="all" />
    <text x="688.75" y="417.00" text-anchor="start" font-family="Roboto, sans-serif" font-size="13" fill="#4051B5" font-weight="normal">Vendor Performance</text>
  </a>
  <a xlink:href="/use-case/supply-chain-management/vendor-management/vendor-vetting-and-onboarding/" target="_top">
    <rect x="400.00" y="412.50" width="188.45" height="25" rx="4" ry="4" fill="none" stroke="none" pointer-events="all" />
    <text x="410.00" y="429.50" text-anchor="start" font-family="Roboto, sans-serif" font-size="13" fill="#4051B5" font-weight="normal">Vendor Vetting &amp; Onboarding</text>
  </a>
</svg>