<svg xmlns="http://www.w3.org/2000/svg" xmlns:xlink="http://www.w3.org/1999/xlink" viewBox="-62.33 345.00 616.00 110.00" width="616.00px" height="110.00px" class="use-case-tree-svg">
  <rect width="100%" height="100%" fill="transparent" />
  <line x1="113.73" y1="437.50" x2="123.73" y2="437.50" stroke="#FF6F00" stroke-width="1.5" />
  <path d="M 123.73 437.50 C 141.73 437.50, 145.73 437.50, 163.73 437.50" stroke="#FF6F00" stroke-width="1.5" fill="none" />
  <path d="M 345.00 437.50 C 369.75 437.50, 375.25 362.50, 400.00 362.50" stroke="#FF6F00" stroke-width="1.5" fill="none" />
  <path d="M 345.00 437.50 C 369.75 437.50, 375.25 387.50, 400.00 387.50" stroke="#FF6F00" stroke-width="1.5" fill="none" />
  <path d="M 345.00 437.50 C 369.75 437.50, 375.25 412.50, 400.00 412.50" stroke="#FF6F00" stroke-width="1.5" fill="none" />
  <path d="M 345.00 437.50 C 369.75 437.50, 375.25 437.50, 400.00 437.50" stroke="#FF6F00" stroke-width="1.5" fill="none" />
  <a xlink:href="/use-case/client-360/" target="_top">
    <rect x="-57.33" y="425.00" width="171.06" height="25" rx="4" ry="4" fill="none" stroke="none" pointer-events="all" />
    <text x="-47.33" y="442.00" text-anchor="start" font-family="Roboto, sans-serif" font-size="13" fill="#4051B5" font-weight="normal">Client 360 / Customer 360</text>
  </a>
  <a xlink:href="/use-case/client-360/relationships-and-connections/" target="_top">
    <rect x="163.73" y="425.00" width="186.27" height="25" rx="4" ry="4" fill="none" stroke="none" pointer-events="all" />
    <text x="173.73" y="442.00" text-anchor="start" font-family="Roboto, sans-serif" font-size="13" fill="#4051B5" font-weight="normal">Relationships &amp; Connections</text>
  </a>
  <a xlink:href="/use-case/client-360/relationships-and-connections/business-connections/" target="_top">
    <rect x="400.00" y="350.00" width="148.67" height="25" rx="4" ry="4" fill="none" stroke="none" pointer-events="all" />
    <text x="410.00" y="367.00" text-anchor="start" font-family="Roboto, sans-serif" font-size="13" fill="#4051B5" font-weight="normal">Business Connections</text>
  </a>
  <a xlink:href="/use-case/client-360/relationships-and-connections/family-connections/" target="_top">
    <rect x="400.00" y="375.00" width="134.19" height="25" rx="4" ry="4" fill="none" stroke="none" pointer-events="all" />
    <text x="410.00" y="392.00" text-anchor="start" font-family="Roboto, sans-serif" font-size="13" fill="#4051B5" font-weight="normal">Family Connections</text>
  </a>
  <a xlink:href="/use-case/client-360/relationships-and-connections/political-connections/" target="_top">
    <rect x="400.00" y="400.00" width="140.72" height="25" rx="4" ry="4" fill="none" stroke="none" pointer-events="all" />
    <text x="410.00" y="417.00" text-anchor="start" font-family="Roboto, sans-serif" font-size="13" fill="#4051B5" font-weight="normal">Political Connections</text>
  </a>
  <a xlink:href="/use-case/client-360/relationships-and-connections/social-connections/" target="_top">
    <rect x="400.00" y="425.00" width="140.62" height="25" rx="4" ry="4" fill="#4051B5" stroke="#FF6F00" stroke-width="1.5" />
    <text x="410.00" y="442.00" text-anchor="start" font-family="Roboto, sans-serif" font-size="13" fill="#FFFFFF" font-weight="bold">Social Connections</text>
  </a>
</svg>