<svg xmlns="http://www.w3.org/2000/svg" xmlns:xlink="http://www.w3.org/1999/xlink" viewBox="85.31 307.50 937.86 185.00" width="937.86px" height="185.00px" class="use-case-tree-svg">
  <rect width="100%" height="100%" fill="transparent" />
  <line x1="350.00" y1="400.00" x2="360.00" y2="400.00" stroke="#FF6F00" stroke-width="1.5" />
  <path d="M 360.00 400.00 C 378.00 400.00, 382.00 325.00, 400.00 325.00" stroke="#FF6F00" stroke-width="1.5" fill="none" />
  <line x1="350.00" y1="400.00" x2="360.00" y2="400.00" stroke="#FF6F00" stroke-width="1.5" />
  <path d="M 360.00 400.00 C 378.00 400.00, 382.00 350.00, 400.00 350.00" stroke="#FF6F00" stroke-width="1.5" fill="none" />
  <line x1="350.00" y1="400.00" x2="360.00" y2="400.00" stroke="#FF6F00" stroke-width="1.5" />
  <path d="M 360.00 400.00 C 378.00 400.00, 382.00 375.00, 400.00 375.00" stroke="#FF6F00" stroke-width="1.5" fill="none" />
  <line x1="350.00" y1="400.00" x2="360.00" y2="400.00" stroke="#FF6F00" stroke-width="1.5" />
  <path d="M 360.00 400.00 C 378.00 400.00, 382.00 400.00, 400.00 400.00" stroke="#FF6F00" stroke-width="1.5" fill="none" />
  <line x1="350.00" y1="400.00" x2="360.00" y2="400.00" stroke="#FF6F00" stroke-width="1.5" />
  <path d="M 360.00 400.00 C 378.00 400.00, 382.00 425.00, 400.00 425.00" stroke="#FF6F00" stroke-width="1.5" fill="none" />
  <line x1="350.00" y1="400.00" x2="360.00" y2="400.00" stroke="#FF6F00" stroke-width="1.5" />
  <path d="M 360.00 400.00 C 378.00 400.00, 382.00 450.00, 400.00 450.00" stroke="#FF6F00" stroke-width="1.5" fill="none" />
  <line x1="350.00" y1="400.00" x2="360.00" y2="400.00" stroke="#FF6F00" stroke-width="1.5" />
  <path d="M 360.00 400.00 C 378.00 400.00, 382.00 475.00, 400.00 475.00" stroke="#FF6F00" stroke-width="1.5" fill="none" />
  <line x1="555.23" y1="400.00" x2="688.12" y2="400.00" stroke="#FF6F00" stroke-width="1.5" />
  <path d="M 688.12 400.00 C 712.88 400.00, 718.38 375.00, 743.12 375.00" stroke="#FF6F00" stroke-width="1.5" fill="none" />
  <line x1="555.23" y1="400.00" x2="688.12" y2="400.00" stroke="#FF6F00" stroke-width="1.5" />
  <path d="M 688.12 400.00 C 712.88 400.00, 718.38 400.00, 743.12 400.00" stroke="#FF6F00" stroke-width="1.5" fill="none" />
  <line x1="555.23" y1="400.00" x2="688.12" y2="400.00" stroke="#FF6F00" stroke-width="1.5" />
  <path d="M 688.12 400.00 C 712.88 400.00, 718.38 425.00, 743.12 425.00" stroke="#FF6F00" stroke-width="1.5" fill="none" />
  <a xlink:href="/use-case/construction-project-quotations/" target="_top">
    <rect x="90.31" y="387.50" width="259.69" height="25" rx="4" ry="4" fill="none" stroke="none" pointer-events="all" />
    <text x="100.31" y="404.50" text-anchor="start" font-family="Roboto, sans-serif" font-size="13" fill="#4051B5" font-weight="normal">Complex Construction Project Quotations</text>
  </a>
  <a xlink:href="/use-case/construction-project-quotations/estimating-and-pricing/" target="_top">
    <rect x="400.00" y="312.50" width="136.59" height="25" rx="4" ry="4" fill="none" stroke="none" pointer-events="all" />
    <text x="410.00" y="329.50" text-anchor="start" font-family="Roboto, sans-serif" font-size="13" fill="#4051B5" font-weight="normal">Estimating &amp; Pricing</text>
  </a>
  <a xlink:href="/use-case/construction-project-quotations/knowledge-capture-and-improvement/" target="_top">
    <rect x="400.00" y="337.50" width="293.12" height="25" rx="4" ry="4" fill="none" stroke="none" pointer-events="all" />
    <text x="410.00" y="354.50" text-anchor="start" font-family="Roboto, sans-serif" font-size="13" fill="#4051B5" font-weight="normal">Knowledge Capture &amp; Continuous Improvement</text>
  </a>
  <a xlink:href="/use-case/construction-project-quotations/opportunity-and-tender-intake/" target="_top">
    <rect x="400.00" y="362.50" width="180.53" height="25" rx="4" ry="4" fill="none" stroke="none" pointer-events="all" />
    <text x="410.00" y="379.50" text-anchor="start" font-family="Roboto, sans-serif" font-size="13" fill="#4051B5" font-weight="normal">Opportunity &amp; Tender Intake</text>
  </a>
  <a xlink:href="/use-case/construction-project-quotations/proposal-submission-and-negotiation/" target="_top">
    <rect x="400.00" y="387.50" width="155.23" height="25" rx="4" ry="4" fill="#4051B5" stroke="#FF6F00" stroke-width="1.5" />
    <text x="410.00" y="404.50" text-anchor="start" font-family="Roboto, sans-serif" font-size="13" fill="#FFFFFF" font-weight="bold">Proposal &amp; Negotiation</text>
  </a>
  <a xlink:href="/use-case/construction-project-quotations/proposal-submission-and-negotiation/compliance-matrix-and-submission-packaging/" target="_top">
    <rect x="743.12" y="362.50" width="275.05" height="25" rx="4" ry="4" fill="none" stroke="none" pointer-events="all" />
    <text x="753.12" y="379.50" text-anchor="start" font-family="Roboto, sans-serif" font-size="13" fill="#4051B5" font-weight="normal">Compliance Matrix &amp; Submission Packaging</text>
  </a>
  <a xlink:href="/use-case/construction-project-quotations/proposal-submission-and-negotiation/negotiation-support-and-revisions/" target="_top">
    <rect x="743.12" y="387.50" width="206.44" height="25" rx="4" ry="4" fill="none" stroke="none" pointer-events="all" />
    <text x="753.12" y="404.50" text-anchor="start" font-family="Roboto, sans-serif" font-size="13" fill="#4051B5" font-weight="normal">Negotiation Support &amp; Revisions</text>
  </a>
  <a xlink:href="/use-case/construction-project-quotations/proposal-submission-and-negotiation/proposal-document-generation/" target="_top">
    <rect x="743.12" y="412.50" width="272.03" height="25" rx="4" ry="4" fill="none" stroke="none" pointer-events="all" />
    <text x="753.12" y="429.50" text-anchor="start" font-family="Roboto, sans-serif" font-size="13" fill="#4051B5" font-weight="normal">Proposal Document Generation &amp; Assembly</text>
  </a>
  <a xlink:href="/use-case/construction-project-quotations/risk-compliance-and-contracts/" target="_top">
    <rect x="400.00" y="412.50" width="189.95" height="25" rx="4" ry="4" fill="none" stroke="none" pointer-events="all" />
    <text x="410.00" y="429.50" text-anchor="start" font-family="Roboto, sans-serif" font-size="13" fill="#4051B5" font-weight="normal">Risk, Compliance &amp; Contracts</text>
  </a>
  <a xlink:href="/use-case/construction-project-quotations/scope-and-requirements/" target="_top">
    <rect x="400.00" y="437.50" width="150.89" height="25" rx="4" ry="4" fill="none" stroke="none" pointer-events="all" />
    <text x="410.00" y="454.50" text-anchor="start" font-family="Roboto, sans-serif" font-size="13" fill="#4051B5" font-weight="normal">Scope &amp; Requirements</text>
  </a>
  <a xlink:href="/use-case/construction-project-quotations/supply-chain-and-subcontractors/" target="_top">
    <rect x="400.00" y="462.50" width="198.12" height="25" rx="4" ry="4" fill="none" stroke="none" pointer-events="all" />
    <text x="410.00" y="479.50" text-anchor="start" font-family="Roboto, sans-serif" font-size="13" fill="#4051B5" font-weight="normal">Supply Chain &amp; Subcontractors</text>
  </a>
</svg>