<svg xmlns="http://www.w3.org/2000/svg" xmlns:xlink="http://www.w3.org/1999/xlink" viewBox="-116.52 357.50 816.03 85.00" width="816.03px" height="85.00px" class="use-case-tree-svg">
  <rect width="100%" height="100%" fill="transparent" />
  <line x1="146.98" y1="375.00" x2="156.98" y2="375.00" stroke="#FF6F00" stroke-width="1.5" />
  <path d="M 156.98 375.00 C 174.98 375.00, 178.98 375.00, 196.98 375.00" stroke="#FF6F00" stroke-width="1.5" fill="none" />
  <path d="M 345.00 375.00 C 369.75 375.00, 375.25 375.00, 400.00 375.00" stroke="#FF6F00" stroke-width="1.5" fill="none" />
  <path d="M 345.00 375.00 C 369.75 375.00, 375.25 400.00, 400.00 400.00" stroke="#FF6F00" stroke-width="1.5" fill="none" />
  <path d="M 345.00 375.00 C 369.75 375.00, 375.25 425.00, 400.00 425.00" stroke="#FF6F00" stroke-width="1.5" fill="none" />
  <a xlink:href="/use-case/construction-project-quotations/" target="_top">
    <rect x="-111.52" y="362.50" width="258.50" height="25" rx="4" ry="4" fill="none" stroke="none" pointer-events="all" />
    <text x="-101.52" y="379.50" text-anchor="start" font-family="Roboto, sans-serif" font-size="13" fill="#4051B5" font-weight="normal">Complex Construction Project Quotations</text>
  </a>
  <a xlink:href="/use-case/construction-project-quotations/proposal-submission-and-negotiation/" target="_top">
    <rect x="196.98" y="362.50" width="153.02" height="25" rx="4" ry="4" fill="none" stroke="none" pointer-events="all" />
    <text x="206.98" y="379.50" text-anchor="start" font-family="Roboto, sans-serif" font-size="13" fill="#4051B5" font-weight="normal">Proposal &amp; Negotiation</text>
  </a>
  <a xlink:href="/use-case/construction-project-quotations/proposal-submission-and-negotiation/compliance-matrix-and-submission-packaging/" target="_top">
    <rect x="400.00" y="362.50" width="294.52" height="25" rx="4" ry="4" fill="#4051B5" stroke="#FF6F00" stroke-width="1.5" />
    <text x="410.00" y="379.50" text-anchor="start" font-family="Roboto, sans-serif" font-size="13" fill="#FFFFFF" font-weight="bold">Compliance Matrix &amp; Submission Packaging</text>
  </a>
  <a xlink:href="/use-case/construction-project-quotations/proposal-submission-and-negotiation/negotiation-support-and-revisions/" target="_top">
    <rect x="400.00" y="387.50" width="207.22" height="25" rx="4" ry="4" fill="none" stroke="none" pointer-events="all" />
    <text x="410.00" y="404.50" text-anchor="start" font-family="Roboto, sans-serif" font-size="13" fill="#4051B5" font-weight="normal">Negotiation Support &amp; Revisions</text>
  </a>
  <a xlink:href="/use-case/construction-project-quotations/proposal-submission-and-negotiation/proposal-document-generation/" target="_top">
    <rect x="400.00" y="412.50" width="273.69" height="25" rx="4" ry="4" fill="none" stroke="none" pointer-events="all" />
    <text x="410.00" y="429.50" text-anchor="start" font-family="Roboto, sans-serif" font-size="13" fill="#4051B5" font-weight="normal">Proposal Document Generation &amp; Assembly</text>
  </a>
</svg>