<svg xmlns="http://www.w3.org/2000/svg" xmlns:xlink="http://www.w3.org/1999/xlink" contentStyleType="text/css" data-diagram-type="MINDMAP" height="549px" preserveAspectRatio="none" style="width:740px;height:549px;" version="1.1" viewBox="0 0 740 549" width="740px" zoomAndPan="magnify"><defs/><g><polygon fill="#4051B5" points="14,256.3281,14,256.5383,24.1843,255.9138,34.3685,256.5214,44.5528,256.7278,54.7371,255.6147,64.9214,256.2504,75.1056,255.9016,85.2899,255.9446,95.4742,256.26,105.6584,255.6368,115.8427,256.8818,126.027,255.6978,136.2113,256.1304,146.3955,256.7601,156.5798,256.2423,166.7641,256.3964,176.9484,256.2962,187.1326,256.5067,197.3169,256.3281,197.3474,256.4018,197.9573,256.7428,198.5339,257.0034,199.1006,257.2403,199.6121,257.3438,200.1453,257.4997,200.2881,257.5588,200.5959,258.155,200.3919,258.5391,201.0572,259.2833,200.9913,259.7246,201.3169,260.3281,201.4948,260.3281,201.1519,265.7547,201.2941,271.1813,201.5641,276.6078,201.3006,282.0344,201.3169,287.4609,201.3493,287.4744,201.1869,288.0698,200.9764,288.6454,200.6127,289.1575,200.4681,289.7603,200.1453,290.2894,200.0723,290.1131,199.6159,290.6113,199.0839,290.9268,198.505,291.1292,197.9608,291.4154,197.3169,291.4609,197.3169,290.9779,187.1326,290.8088,176.9484,290.8395,166.7641,291.4021,156.5798,291.2644,146.3955,292.1423,136.2113,291.2863,126.027,291.1179,115.8427,291.6892,105.6584,290.7941,95.4742,290.9418,85.2899,292.1099,75.1056,291.8966,64.9214,292.1954,54.7371,291.1391,44.5528,291.7801,34.3685,292.0514,24.1843,290.9885,14,291.4609,13.9878,291.4314,13.4504,291.2654,12.9518,291.193,12.3024,290.7567,11.7963,290.6661,11.1716,290.2894,11.001,290.2187,10.7287,289.6373,10.858,289.2222,10.2478,288.5009,10.3911,288.0915,10,287.4609,10.0689,287.4609,9.9107,282.0344,9.8821,276.6078,10.1529,271.1813,9.9002,265.7547,10,260.3281,10.1823,260.4036,10.0641,259.6919,10.6588,259.2755,10.8521,258.6928,11.0127,258.0966,11.1716,257.4997,11.1776,257.5142,11.8299,257.4891,12.3812,257.22,12.8902,256.8489,13.4685,256.645,14,256.3281" style="stroke:#FF6F00;stroke-width:1.5;"/><text fill="#FFFFFF" font-family="'Roboto'" font-size="13" lengthAdjust="spacing" textLength="171.3169" x="20" y="278.395">Client 360 / Customer 360</text><a href="/use-case/client-360/customer-relationship-management/" target="_top" title="/use-case/client-360/customer-relationship-management/" xlink:actuate="onRequest" xlink:href="/use-case/client-360/customer-relationship-management/" xlink:show="new" xlink:title="/use-case/client-360/customer-relationship-management/" xlink:type="simple"><text fill="#4051B5" font-family="'Roboto'" font-size="13" lengthAdjust="spacing" textLength="237.4341" x="258.3169" y="77.3325">Customer Relationship Management</text></a><a href="/use-case/client-360/customer-relationship-management/account-management/" target="_top" title="/use-case/client-360/customer-relationship-management/account-management/" xlink:actuate="onRequest" xlink:href="/use-case/client-360/customer-relationship-management/account-management/" xlink:show="new" xlink:title="/use-case/client-360/customer-relationship-management/account-management/" xlink:type="simple"><text fill="#4051B5" font-family="'Roboto'" font-size="13" lengthAdjust="spacing" textLength="142.4858" x="556.751" y="27.0669">Account Management</text></a><path d="M499.751,72.832 L499.751,73.0189 L501.751,72.4637 L503.751,73.0038 L505.751,73.1873 L507.751,72.1979 L509.751,72.832 L509.751,72.832 L509.7281,72.8061 L511.4069,71.1191 L513.2007,69.5626 L515.0747,68.0969 L516.6727,66.3184 L518.6572,64.978 L518.8893,65.0599 L519.6118,61.4291 L521.0118,58.0373 L522.4945,54.6746 L523.4963,51.1423 L524.751,47.6992 L524.7796,47.7093 L525.9563,44.2387 L527.2633,40.8141 L528.5075,37.3673 L529.8715,33.9627 L530.8447,30.4204 L531.042,30.6441 L532.8257,29.076 L534.4821,27.3637 L536.3248,25.8625 L538.1762,24.3713 L539.751,22.5664 L539.751,21.9254 L541.751,23.1695 L543.751,22.3028 L545.751,23.0409 L547.751,22.1264 L549.751,22.5664" fill="none" style="stroke:#FF6F00;stroke-width:1;"/><a href="/use-case/client-360/customer-relationship-management/activity-management/" target="_top" title="/use-case/client-360/customer-relationship-management/activity-management/" xlink:actuate="onRequest" xlink:href="/use-case/client-360/customer-relationship-management/activity-management/" xlink:show="new" xlink:title="/use-case/client-360/customer-relationship-management/activity-management/" xlink:type="simple"><text fill="#4051B5" font-family="'Roboto'" font-size="13" lengthAdjust="spacing" textLength="138.6138" x="556.751" y="52.1997">Activity Management</text></a><path d="M499.751,72.832 L499.751,73.0189 L501.751,72.4637 L503.751,73.0038 L505.751,73.1873 L507.751,72.1979 L509.751,72.832 L509.751,72.832 L509.7288,72.8056 L512.6292,70.1734 L515.6415,67.6748 L518.7315,65.269 L521.5536,62.5434 L524.751,60.2656 L524.909,60.4542 L527.5711,57.5376 L530.6945,55.1717 L533.8743,52.8729 L536.7265,50.1833 L539.751,47.6992 L539.751,47.7599 L541.751,47.6708 L543.751,47.8579 L545.751,47.9118 L547.751,48.2198 L549.751,47.6992" fill="none" style="stroke:#FF6F00;stroke-width:1;"/><a href="/use-case/client-360/customer-relationship-management/contact-management/" target="_top" title="/use-case/client-360/customer-relationship-management/contact-management/" xlink:actuate="onRequest" xlink:href="/use-case/client-360/customer-relationship-management/contact-management/" xlink:show="new" xlink:title="/use-case/client-360/customer-relationship-management/contact-management/" xlink:type="simple"><text fill="#4051B5" font-family="'Roboto'" font-size="13" lengthAdjust="spacing" textLength="140.3467" x="556.751" y="77.3325">Contact Management</text></a><path d="M499.751,72.832 L499.751,73.0189 L501.751,72.4637 L503.751,73.0038 L505.751,73.1873 L507.751,72.1979 L509.751,72.832 L509.751,72.832 L509.751,72.7975 L515.751,72.6425 L521.751,72.6616 L527.751,72.8017 L533.751,72.5248 L539.751,72.832 L539.751,73.3242 L541.751,72.2718 L543.751,72.6562 L545.751,73.216 L547.751,72.7558 L549.751,72.832" fill="none" style="stroke:#FF6F00;stroke-width:1;"/><a href="/use-case/client-360/customer-relationship-management/lead-management/" target="_top" title="/use-case/client-360/customer-relationship-management/lead-management/" xlink:actuate="onRequest" xlink:href="/use-case/client-360/customer-relationship-management/lead-management/" xlink:show="new" xlink:title="/use-case/client-360/customer-relationship-management/lead-management/" xlink:type="simple"><text fill="#4051B5" font-family="'Roboto'" font-size="13" lengthAdjust="spacing" textLength="121.2275" x="556.751" y="102.4653">Lead Management</text></a><path d="M499.751,72.832 L499.751,73.0189 L501.751,72.4637 L503.751,73.0038 L505.751,73.1873 L507.751,72.1979 L509.751,72.832 L509.751,72.832 L509.7288,72.8056 L512.6292,75.2 L515.6415,77.7279 L518.7315,80.3487 L521.5536,82.6496 L524.751,85.3984 L524.909,85.5871 L527.5711,87.697 L530.6945,90.3576 L533.8743,93.0854 L536.7265,95.4223 L539.751,97.9648 L539.751,98.0255 L541.751,97.9364 L543.751,98.1235 L545.751,98.1774 L547.751,98.4855 L549.751,97.9648" fill="none" style="stroke:#FF6F00;stroke-width:1;"/><a href="/use-case/client-360/customer-relationship-management/opportunity-management/" target="_top" title="/use-case/client-360/customer-relationship-management/opportunity-management/" xlink:actuate="onRequest" xlink:href="/use-case/client-360/customer-relationship-management/opportunity-management/" xlink:show="new" xlink:title="/use-case/client-360/customer-relationship-management/opportunity-management/" xlink:type="simple"><text fill="#4051B5" font-family="'Roboto'" font-size="13" lengthAdjust="spacing" textLength="167.7813" x="556.751" y="127.5981">Opportunity Management</text></a><path d="M499.751,72.832 L499.751,73.0189 L501.751,72.4637 L503.751,73.0038 L505.751,73.1873 L507.751,72.1979 L509.751,72.832 L509.751,72.832 L509.7281,72.8061 L511.4069,74.2607 L513.2007,75.8458 L515.0747,77.5217 L516.6727,78.8848 L518.6572,80.686 L518.8893,80.7679 L519.6118,84.0486 L521.0118,87.5683 L522.4945,91.1172 L523.4963,94.4964 L524.751,97.9648 L524.7796,97.9749 L525.9563,101.4159 L527.2633,104.9028 L528.5075,108.3675 L529.8715,111.8745 L530.8447,115.2437 L531.042,115.4673 L532.8257,117.0409 L534.4821,118.4701 L536.3248,120.1106 L538.1762,121.7609 L539.751,123.0977 L539.751,122.4566 L541.751,123.7008 L543.751,122.8341 L545.751,123.5722 L547.751,122.6576 L549.751,123.0977" fill="none" style="stroke:#FF6F00;stroke-width:1;"/><path d="M201.3169,273.8945 L201.3169,274.0814 L203.3169,273.5262 L205.3169,274.0663 L207.3169,274.2498 L209.3169,273.2604 L211.3169,273.8945 L211.3169,273.8945 L211.287,273.8773 L212.1488,272.072 L213.1614,270.3536 L214.2789,268.6958 L215.0351,266.8295 L216.2974,265.2551 L216.5382,265.3055 L216.4377,263.2147 L217.0404,261.2709 L217.7289,259.345 L217.9183,257.3148 L218.3701,255.3394 L218.4001,255.3438 L218.7267,252.7652 L219.1899,250.2064 L219.5871,247.638 L220.1102,245.0878 L220.2231,242.4785 L220.5196,242.5112 L220.8587,239.4682 L221.0065,236.4041 L221.4343,233.3708 L221.8752,230.339 L221.9004,227.2614 L221.5812,227.2323 L222.5098,223.8919 L222.3873,220.4557 L223.0639,217.0923 L222.9176,213.654 L223.4458,210.2771 L223.4154,210.2747 L224.3486,202.9199 L224.5726,195.5099 L225.2151,188.1324 L225.8927,180.7577 L226.3169,173.3633 L226.5013,173.3776 L226.8894,165.9804 L227.5926,158.6077 L227.7859,151.1953 L228.7398,143.842 L229.188,136.4495 L229.4306,136.4715 L229.6938,133.0705 L230.0775,129.6804 L229.9014,126.2394 L230.1356,122.8358 L230.7334,119.4652 L230.4589,119.4349 L231.0428,116.4189 L231.3175,113.3688 L232.0408,110.3681 L231.998,107.283 L232.4106,104.248 L232.2597,104.2263 L232.8817,101.6903 L232.8585,99.0614 L233.2941,96.4986 L234.1785,94.0004 L234.2637,91.3871 L234.4532,91.4267 L234.9978,89.4708 L234.9528,87.3916 L235.6462,85.4667 L236.1787,83.5083 L236.3364,81.4714 L236.1545,81.3666 L237.2956,79.7223 L238.3771,78.0436 L239.5757,76.4325 L240.3192,74.559 L241.3169,72.832 L241.3169,73.2432 L243.3169,72.3398 L245.3169,72.23 L247.3169,73.2797 L249.3169,72.1948 L251.3169,72.832" fill="none" style="stroke:#FF6F00;stroke-width:1;"/><a href="/use-case/client-360/know-your-customer/" target="_top" title="/use-case/client-360/know-your-customer/" xlink:actuate="onRequest" xlink:href="/use-case/client-360/know-your-customer/" xlink:show="new" xlink:title="/use-case/client-360/know-your-customer/" xlink:type="simple"><text fill="#4051B5" font-family="'Roboto'" font-size="13" lengthAdjust="spacing" textLength="136.2397" x="258.3169" y="265.8286">Know Your Customer</text></a><a href="/use-case/client-360/know-your-customer/activity-monitoring/" target="_top" title="/use-case/client-360/know-your-customer/activity-monitoring/" xlink:actuate="onRequest" xlink:href="/use-case/client-360/know-your-customer/activity-monitoring/" xlink:show="new" xlink:title="/use-case/client-360/know-your-customer/activity-monitoring/" xlink:type="simple"><text fill="#4051B5" font-family="'Roboto'" font-size="13" lengthAdjust="spacing" textLength="122.4971" x="455.5566" y="152.731">Activity Monitoring</text></a><path d="M398.5566,261.3281 L398.5566,261.515 L400.5566,260.9598 L402.5566,261.4999 L404.5566,261.6834 L406.5566,260.694 L408.5566,261.3281 L408.5566,261.3281 L408.5258,261.3126 L410.1686,257.7085 L411.9669,254.1828 L413.8733,250.7116 L415.4072,247.0526 L417.4629,243.6566 L417.7051,243.6997 L417.8316,239.9849 L418.6654,236.3959 L419.5855,232.8223 L420.0035,229.1593 L420.6855,225.5433 L420.7156,225.5475 L421.2457,221.3886 L421.9126,217.2486 L422.5135,213.0995 L423.2403,208.9678 L423.5566,204.7793 L423.8521,204.8201 L424.4299,200.6678 L424.8172,196.4892 L425.4834,192.3491 L426.1627,188.2108 L426.4277,184.0153 L426.1122,183.9591 L427.3692,180.4454 L427.5871,176.7469 L428.5949,173.1889 L428.7893,169.4861 L429.6504,165.902 L429.6232,165.8883 L431.726,162.516 L433.1935,158.8236 L435.0359,155.3201 L436.9098,151.8325 L438.5566,148.2305 L438.5566,148.6005 L440.5566,148.227 L442.5566,148.4858 L444.5566,147.7217 L446.5566,148.4833 L448.5566,148.2305" fill="none" style="stroke:#FF6F00;stroke-width:1;"/><a href="/use-case/client-360/know-your-customer/anti-money-laundering/" target="_top" title="/use-case/client-360/know-your-customer/anti-money-laundering/" xlink:actuate="onRequest" xlink:href="/use-case/client-360/know-your-customer/anti-money-laundering/" xlink:show="new" xlink:title="/use-case/client-360/know-your-customer/anti-money-laundering/" xlink:type="simple"><text fill="#4051B5" font-family="'Roboto'" font-size="13" lengthAdjust="spacing" textLength="192.2197" x="455.5566" y="177.8638">Anti Money Laundering (AML)</text></a><path d="M398.5566,261.3281 L398.5566,261.515 L400.5566,260.9598 L402.5566,261.4999 L404.5566,261.6834 L406.5566,260.694 L408.5566,261.3281 L408.5566,261.3281 L408.5277,261.3093 L410.1788,258.4761 L411.9761,255.7376 L413.875,253.0649 L415.4238,250.1654 L417.4629,247.5836 L417.7028,247.6385 L417.8344,244.7035 L418.6663,241.9288 L419.5836,239.1736 L420.0039,236.3046 L420.6855,233.4955 L420.7154,233.5008 L421.2458,230.2631 L421.9121,227.0495 L422.5128,223.8242 L423.2387,220.6212 L423.5566,217.3457 L423.8503,217.3979 L424.4281,214.1686 L424.8165,210.9056 L425.4822,207.6919 L426.1608,204.4805 L426.4277,201.1959 L426.1153,201.1244 L427.3662,198.4455 L427.5883,195.5313 L428.5926,192.7959 L428.7914,189.8764 L429.6504,187.1078 L429.6248,187.0912 L431.7082,184.5381 L433.1947,181.5982 L435.0334,178.8865 L436.9017,176.194 L438.5566,173.3633 L438.5566,173.7333 L440.5566,173.3598 L442.5566,173.6186 L444.5566,172.8545 L446.5566,173.6161 L448.5566,173.3633" fill="none" style="stroke:#FF6F00;stroke-width:1;"/><a href="/use-case/client-360/know-your-customer/core-record-management/" target="_top" title="/use-case/client-360/know-your-customer/core-record-management/" xlink:actuate="onRequest" xlink:href="/use-case/client-360/know-your-customer/core-record-management/" xlink:show="new" xlink:title="/use-case/client-360/know-your-customer/core-record-management/" xlink:type="simple"><text fill="#4051B5" font-family="'Roboto'" font-size="13" lengthAdjust="spacing" textLength="170.0029" x="455.5566" y="202.9966">Core Record Management</text></a><path d="M398.5566,261.3281 L398.5566,261.515 L400.5566,260.9598 L402.5566,261.4999 L404.5566,261.6834 L406.5566,260.694 L408.5566,261.3281 L408.5566,261.3281 L408.5311,261.3049 L410.1975,259.2373 L411.9929,257.2866 L413.878,255.4173 L415.4541,253.2677 L417.4629,251.5106 L417.6972,251.5857 L417.8406,249.4126 L418.6682,247.4586 L419.5793,245.5314 L420.0047,243.4486 L420.6855,241.4477 L420.715,241.455 L421.246,239.1371 L421.911,236.8526 L422.5113,234.552 L423.235,232.2821 L423.5566,229.9121 L423.8461,229.9841 L424.4238,227.6779 L424.8149,225.3252 L425.4792,223.0405 L426.1564,220.759 L426.4277,218.3765 L426.1225,218.2788 L427.3595,216.4559 L427.5913,214.3112 L428.5873,212.4111 L428.7963,210.2591 L429.6504,208.3136 L429.6278,208.2931 L431.6758,206.5716 L433.1968,204.372 L435.0288,202.4545 L436.8869,200.5607 L438.5566,198.4961 L438.5566,198.8661 L440.5566,198.4926 L442.5566,198.7514 L444.5566,197.9873 L446.5566,198.7489 L448.5566,198.4961" fill="none" style="stroke:#FF6F00;stroke-width:1;"/><a href="/use-case/client-360/know-your-customer/crime-records/" target="_top" title="/use-case/client-360/know-your-customer/crime-records/" xlink:actuate="onRequest" xlink:href="/use-case/client-360/know-your-customer/crime-records/" xlink:show="new" xlink:title="/use-case/client-360/know-your-customer/crime-records/" xlink:type="simple"><text fill="#4051B5" font-family="'Roboto'" font-size="13" lengthAdjust="spacing" textLength="95.3291" x="455.5566" y="228.1294">Crime Records</text></a><path d="M398.5566,261.3281 L398.5566,261.515 L400.5566,260.9598 L402.5566,261.4999 L404.5566,261.6834 L406.5566,260.694 L408.5566,261.3281 L408.5566,261.3281 L408.5376,261.2993 L410.2333,259.9919 L412.0251,258.8298 L413.8837,257.7686 L415.5121,256.3594 L417.4629,255.4376 L417.6856,255.5423 L418.4281,252.7266 L419.8208,250.2166 L421.2929,247.7439 L422.3034,245.0541 L423.5566,242.4785 L423.5841,242.4914 L424.7625,239.8807 L426.0659,237.3286 L427.3091,234.7483 L428.6672,232.222 L429.6504,229.5194 L429.8149,229.7682 L431.5982,228.5931 L433.2753,227.2576 L435.1078,226.157 L436.9476,225.0673 L438.5566,223.6289 L438.5566,222.9879 L440.5566,224.232 L442.5566,223.3653 L444.5566,224.1034 L446.5566,223.1889 L448.5566,223.6289" fill="none" style="stroke:#FF6F00;stroke-width:1;"/><a href="/use-case/client-360/know-your-customer/gdpr/" target="_top" title="/use-case/client-360/know-your-customer/gdpr/" xlink:actuate="onRequest" xlink:href="/use-case/client-360/know-your-customer/gdpr/" xlink:show="new" xlink:title="/use-case/client-360/know-your-customer/gdpr/" xlink:type="simple"><text fill="#4051B5" font-family="'Roboto'" font-size="13" lengthAdjust="spacing" textLength="36.9561" x="455.5566" y="253.2622">GDPR</text></a><path d="M398.5566,261.3281 L398.5566,261.515 L400.5566,260.9598 L402.5566,261.4999 L404.5566,261.6834 L406.5566,260.694 L408.5566,261.3281 L408.5566,261.3281 L408.5433,261.2963 L411.4834,259.8967 L414.4908,258.6576 L417.5449,257.5303 L420.4379,256.0181 L423.5566,255.0449 L423.6517,255.2719 L426.4484,253.5299 L429.5227,252.4506 L432.6308,251.4521 L435.5419,249.9832 L438.5566,248.7617 L438.5566,248.8224 L440.5566,248.7333 L442.5566,248.9204 L444.5566,248.9743 L446.5566,249.2823 L448.5566,248.7617" fill="none" style="stroke:#FF6F00;stroke-width:1;"/><a href="/use-case/client-360/know-your-customer/high-net-worth-individuals/" target="_top" title="/use-case/client-360/know-your-customer/high-net-worth-individuals/" xlink:actuate="onRequest" xlink:href="/use-case/client-360/know-your-customer/high-net-worth-individuals/" xlink:show="new" xlink:title="/use-case/client-360/know-your-customer/high-net-worth-individuals/" xlink:type="simple"><text fill="#4051B5" font-family="'Roboto'" font-size="13" lengthAdjust="spacing" textLength="174.6685" x="455.5566" y="278.395">High Net Worth Individuals</text></a><path d="M398.5566,261.3281 L398.5566,261.515 L400.5566,260.9598 L402.5566,261.4999 L404.5566,261.6834 L406.5566,260.694 L408.5566,261.3281 L408.5566,261.3281 L408.5433,261.2963 L411.4834,262.4099 L414.4908,263.6842 L417.5449,265.0701 L420.4379,266.0713 L423.5566,267.6113 L423.6517,267.8383 L426.4484,268.6096 L429.5227,270.0435 L432.6308,271.5583 L435.5419,272.6027 L438.5566,273.8945 L438.5566,273.9552 L440.5566,273.8661 L442.5566,274.0532 L444.5566,274.1071 L446.5566,274.4151 L448.5566,273.8945" fill="none" style="stroke:#FF6F00;stroke-width:1;"/><a href="/use-case/client-360/know-your-customer/identification-verification/" target="_top" title="/use-case/client-360/know-your-customer/identification-verification/" xlink:actuate="onRequest" xlink:href="/use-case/client-360/know-your-customer/identification-verification/" xlink:show="new" xlink:title="/use-case/client-360/know-your-customer/identification-verification/" xlink:type="simple"><text fill="#4051B5" font-family="'Roboto'" font-size="13" lengthAdjust="spacing" textLength="163.4204" x="455.5566" y="303.5278">Identification Verification</text></a><path d="M398.5566,261.3281 L398.5566,261.515 L400.5566,260.9598 L402.5566,261.4999 L404.5566,261.6834 L406.5566,260.694 L408.5566,261.3281 L408.5566,261.3281 L408.5376,261.2993 L410.2333,262.3481 L412.0251,263.5422 L413.8837,264.8372 L415.5121,265.7842 L417.4629,267.2186 L417.6856,267.3233 L418.4281,269.6912 L419.8208,272.3649 L421.2929,275.0758 L422.3034,277.5697 L423.5566,280.1777 L423.5841,280.1906 L424.7625,282.7635 L426.0659,285.3951 L427.3091,287.9984 L428.6672,290.6558 L429.6504,293.1368 L429.8149,293.3856 L431.5982,294.5667 L433.2753,295.5874 L435.1078,296.843 L436.9476,298.1096 L438.5566,299.0273 L438.5566,298.3863 L440.5566,299.6305 L442.5566,298.7638 L444.5566,299.5018 L446.5566,298.5873 L448.5566,299.0273" fill="none" style="stroke:#FF6F00;stroke-width:1;"/><a href="/use-case/client-360/know-your-customer/peps/" target="_top" title="/use-case/client-360/know-your-customer/peps/" xlink:actuate="onRequest" xlink:href="/use-case/client-360/know-your-customer/peps/" xlink:show="new" xlink:title="/use-case/client-360/know-your-customer/peps/" xlink:type="simple"><text fill="#4051B5" font-family="'Roboto'" font-size="13" lengthAdjust="spacing" textLength="221.019" x="455.5566" y="328.6606">Politically Exposed Persons (PEPs)</text></a><path d="M398.5566,261.3281 L398.5566,261.515 L400.5566,260.9598 L402.5566,261.4999 L404.5566,261.6834 L406.5566,260.694 L408.5566,261.3281 L408.5566,261.3281 L408.5311,261.3049 L410.1975,263.1643 L411.9929,265.1406 L413.878,267.1983 L415.4541,268.9757 L417.4629,271.1456 L417.6972,271.2207 L417.8406,273.0728 L418.6682,275.144 L419.5793,277.2419 L420.0047,279.1844 L420.6855,281.2086 L420.715,281.2159 L421.246,283.5123 L421.911,285.842 L422.5113,288.1556 L423.235,290.4999 L423.5566,292.7441 L423.8461,292.8162 L424.4238,295.1242 L424.8149,297.3857 L425.4792,299.7152 L426.1564,302.048 L426.4277,304.2797 L426.1225,304.182 L427.3595,306.3843 L427.5913,308.2647 L428.5873,310.3898 L428.7963,312.263 L429.6504,314.3427 L429.6278,314.3222 L431.6758,316.5276 L433.1968,318.2551 L435.0288,320.2646 L436.8869,322.2978 L438.5566,324.1602 L438.5566,324.5301 L440.5566,324.1567 L442.5566,324.4155 L444.5566,323.6513 L446.5566,324.4129 L448.5566,324.1602" fill="none" style="stroke:#FF6F00;stroke-width:1;"/><a href="/use-case/client-360/know-your-customer/risk-management/" target="_top" title="/use-case/client-360/know-your-customer/risk-management/" xlink:actuate="onRequest" xlink:href="/use-case/client-360/know-your-customer/risk-management/" xlink:show="new" xlink:title="/use-case/client-360/know-your-customer/risk-management/" xlink:type="simple"><text fill="#4051B5" font-family="'Roboto'" font-size="13" lengthAdjust="spacing" textLength="116.7144" x="455.5566" y="353.7935">Risk Management</text></a><path d="M398.5566,261.3281 L398.5566,261.515 L400.5566,260.9598 L402.5566,261.4999 L404.5566,261.6834 L406.5566,260.694 L408.5566,261.3281 L408.5566,261.3281 L408.5277,261.3093 L410.1788,263.9739 L411.9761,266.7332 L413.875,269.5584 L415.4238,272.1566 L417.4629,275.0726 L417.7028,275.1275 L417.8344,277.8278 L418.6663,280.6883 L419.5836,283.5683 L420.0039,286.3346 L420.6855,289.1608 L420.7154,289.1661 L421.2458,292.3882 L421.9121,295.6346 L422.5128,298.8692 L423.2387,302.1262 L423.5566,305.3105 L423.8503,305.3628 L424.4281,308.5933 L424.8165,311.7903 L425.4822,315.0365 L426.1608,318.285 L426.4277,321.4603 L426.1153,321.3889 L427.3662,324.3452 L427.5883,327.0662 L428.5926,329.9661 L428.7914,332.6818 L429.6504,335.5485 L429.6248,335.5319 L431.7082,338.4766 L433.1947,341.0345 L435.0334,343.8206 L436.9017,346.6259 L438.5566,349.293 L438.5566,349.663 L440.5566,349.2895 L442.5566,349.5483 L444.5566,348.7842 L446.5566,349.5458 L448.5566,349.293" fill="none" style="stroke:#FF6F00;stroke-width:1;"/><a href="/use-case/client-360/know-your-customer/sanctions/" target="_top" title="/use-case/client-360/know-your-customer/sanctions/" xlink:actuate="onRequest" xlink:href="/use-case/client-360/know-your-customer/sanctions/" xlink:show="new" xlink:title="/use-case/client-360/know-your-customer/sanctions/" xlink:type="simple"><text fill="#4051B5" font-family="'Roboto'" font-size="13" lengthAdjust="spacing" textLength="63.2798" x="455.5566" y="378.9263">Sanctions</text></a><path d="M398.5566,261.3281 L398.5566,261.515 L400.5566,260.9598 L402.5566,261.4999 L404.5566,261.6834 L406.5566,260.694 L408.5566,261.3281 L408.5566,261.3281 L408.5258,261.3126 L410.1686,264.7771 L411.9669,268.32 L413.8733,271.9174 L415.4072,275.327 L417.4629,278.9996 L417.7051,279.0427 L417.8316,282.5732 L418.6654,286.2296 L419.5855,289.9012 L420.0035,293.4836 L420.6855,297.1129 L420.7156,297.1171 L421.2457,301.2638 L421.9126,305.4294 L422.5135,309.5859 L423.2403,313.7598 L423.5566,317.877 L423.8521,317.9178 L424.4299,322.0711 L424.8172,326.1981 L425.4834,330.3636 L426.1627,334.5309 L426.4277,338.641 L426.1122,338.5848 L427.3692,342.3165 L427.5871,345.8632 L428.5949,349.5505 L428.7893,353.0931 L429.6504,356.7543 L429.6232,356.7406 L431.726,360.4369 L433.1935,363.8131 L435.0359,367.3782 L436.9098,370.9592 L438.5566,374.4258 L438.5566,374.7958 L440.5566,374.4223 L442.5566,374.6811 L444.5566,373.917 L446.5566,374.6786 L448.5566,374.4258" fill="none" style="stroke:#FF6F00;stroke-width:1;"/><path d="M201.3169,273.8945 L201.3169,274.0814 L203.3169,273.5262 L205.3169,274.0663 L207.3169,274.2498 L209.3169,273.2604 L211.3169,273.8945 L211.3169,273.8945 L211.3036,273.8627 L214.2437,272.4631 L217.251,271.224 L220.3052,270.0967 L223.1982,268.5846 L226.3169,267.6113 L226.412,267.8383 L229.2087,266.0963 L232.2829,265.017 L235.3911,264.0185 L238.3022,262.5496 L241.3169,261.3281 L241.3169,261.3888 L243.3169,261.2997 L245.3169,261.4868 L247.3169,261.5407 L249.3169,261.8487 L251.3169,261.3281" fill="none" style="stroke:#FF6F00;stroke-width:1;"/><a href="/use-case/client-360/relationships-and-connections/" target="_top" title="/use-case/client-360/relationships-and-connections/" xlink:actuate="onRequest" xlink:href="/use-case/client-360/relationships-and-connections/" xlink:show="new" xlink:title="/use-case/client-360/relationships-and-connections/" xlink:type="simple"><text fill="#4051B5" font-family="'Roboto'" font-size="13" lengthAdjust="spacing" textLength="185.8911" x="258.3169" y="441.7583">Relationships &amp; Connections</text></a><a href="/use-case/client-360/relationships-and-connections/business-connections/" target="_top" title="/use-case/client-360/relationships-and-connections/business-connections/" xlink:actuate="onRequest" xlink:href="/use-case/client-360/relationships-and-connections/business-connections/" xlink:show="new" xlink:title="/use-case/client-360/relationships-and-connections/business-connections/" xlink:type="simple"><text fill="#4051B5" font-family="'Roboto'" font-size="13" lengthAdjust="spacing" textLength="141.7876" x="505.208" y="404.0591">Business Connections</text></a><path d="M448.208,437.2578 L448.208,437.4446 L450.208,436.8895 L452.208,437.4296 L454.208,437.6131 L456.208,436.6237 L458.208,437.2578 L458.208,437.2578 L458.189,437.229 L459.8847,435.9216 L461.6765,434.7594 L463.535,433.6982 L465.1635,432.2891 L467.1143,431.3673 L467.3369,431.472 L468.0795,428.6563 L469.4722,426.1463 L470.9442,423.6735 L471.9548,420.9838 L473.208,418.4082 L473.2355,418.4211 L474.4139,415.8103 L475.7173,413.2583 L476.9604,410.678 L478.3186,408.1517 L479.3018,405.4491 L479.4663,405.6979 L481.2495,404.5228 L482.9267,403.1873 L484.7592,402.0866 L486.5989,400.997 L488.208,399.5586 L488.208,398.9175 L490.208,400.1617 L492.208,399.295 L494.208,400.0331 L496.208,399.1186 L498.208,399.5586" fill="none" style="stroke:#FF6F00;stroke-width:1;"/><a href="/use-case/client-360/relationships-and-connections/family-connections/" target="_top" title="/use-case/client-360/relationships-and-connections/family-connections/" xlink:actuate="onRequest" xlink:href="/use-case/client-360/relationships-and-connections/family-connections/" xlink:show="new" xlink:title="/use-case/client-360/relationships-and-connections/family-connections/" xlink:type="simple"><text fill="#4051B5" font-family="'Roboto'" font-size="13" lengthAdjust="spacing" textLength="127.4863" x="505.208" y="429.1919">Family Connections</text></a><path d="M448.208,437.2578 L448.208,437.4446 L450.208,436.8895 L452.208,437.4296 L454.208,437.6131 L456.208,436.6237 L458.208,437.2578 L458.208,437.2578 L458.1947,437.226 L461.1348,435.8263 L464.1422,434.5873 L467.1963,433.46 L470.0893,431.9478 L473.208,430.9746 L473.3031,431.2016 L476.0998,429.4596 L479.174,428.3803 L482.2822,427.3818 L485.1933,425.9129 L488.208,424.6914 L488.208,424.7521 L490.208,424.663 L492.208,424.8501 L494.208,424.904 L496.208,425.212 L498.208,424.6914" fill="none" style="stroke:#FF6F00;stroke-width:1;"/><a href="/use-case/client-360/relationships-and-connections/political-connections/" target="_top" title="/use-case/client-360/relationships-and-connections/political-connections/" xlink:actuate="onRequest" xlink:href="/use-case/client-360/relationships-and-connections/political-connections/" xlink:show="new" xlink:title="/use-case/client-360/relationships-and-connections/political-connections/" xlink:type="simple"><text fill="#4051B5" font-family="'Roboto'" font-size="13" lengthAdjust="spacing" textLength="134.9131" x="505.208" y="454.3247">Political Connections</text></a><path d="M448.208,437.2578 L448.208,437.4446 L450.208,436.8895 L452.208,437.4296 L454.208,437.6131 L456.208,436.6237 L458.208,437.2578 L458.208,437.2578 L458.1947,437.226 L461.1348,438.3396 L464.1422,439.6139 L467.1963,440.9998 L470.0893,442.001 L473.208,443.541 L473.3031,443.768 L476.0998,444.5393 L479.174,445.9732 L482.2822,447.488 L485.1933,448.5324 L488.208,449.8242 L488.208,449.8849 L490.208,449.7958 L492.208,449.9829 L494.208,450.0368 L496.208,450.3448 L498.208,449.8242" fill="none" style="stroke:#FF6F00;stroke-width:1;"/><a href="/use-case/client-360/relationships-and-connections/social-connections/" target="_top" title="/use-case/client-360/relationships-and-connections/social-connections/" xlink:actuate="onRequest" xlink:href="/use-case/client-360/relationships-and-connections/social-connections/" xlink:show="new" xlink:title="/use-case/client-360/relationships-and-connections/social-connections/" xlink:type="simple"><text fill="#4051B5" font-family="'Roboto'" font-size="13" lengthAdjust="spacing" textLength="123.0049" x="505.208" y="479.4575">Social Connections</text></a><path d="M448.208,437.2578 L448.208,437.4446 L450.208,436.8895 L452.208,437.4296 L454.208,437.6131 L456.208,436.6237 L458.208,437.2578 L458.208,437.2578 L458.189,437.229 L459.8847,438.2778 L461.6765,439.4719 L463.535,440.7668 L465.1635,441.7139 L467.1143,443.1483 L467.3369,443.253 L468.0795,445.6209 L469.4722,448.2946 L470.9442,451.0055 L471.9548,453.4994 L473.208,456.1074 L473.2355,456.1203 L474.4139,458.6932 L475.7173,461.3248 L476.9604,463.9281 L478.3186,466.5855 L479.3018,469.0665 L479.4663,469.3153 L481.2495,470.4964 L482.9267,471.5171 L484.7592,472.7727 L486.5989,474.0392 L488.208,474.957 L488.208,474.316 L490.208,475.5602 L492.208,474.6935 L494.208,475.4315 L496.208,474.517 L498.208,474.957" fill="none" style="stroke:#FF6F00;stroke-width:1;"/><path d="M201.3169,273.8945 L201.3169,274.0814 L203.3169,273.5262 L205.3169,274.0663 L207.3169,274.2498 L209.3169,273.2604 L211.3169,273.8945 L211.3169,273.8945 L211.2887,273.8745 L212.1584,275.1887 L213.1701,276.6037 L214.2805,278.0887 L215.0507,279.3323 L216.2974,280.914 L216.5381,280.9651 L216.8085,284.5571 L217.7817,288.2982 L218.8406,292.0575 L219.4007,295.7109 L220.2231,299.42 L220.2532,299.4241 L220.5445,301.8909 L220.9727,304.3763 L221.3348,306.8527 L221.8229,309.3462 L221.9004,311.784 L222.1968,311.8172 L222.5095,314.5775 L222.631,317.3165 L223.0324,320.0867 L223.4469,322.8585 L223.4458,325.5837 L223.1267,325.5532 L224.3202,331.6109 L224.4631,337.5681 L225.4046,343.6018 L225.5237,349.5567 L226.3169,355.5762 L226.2866,355.5733 L227.2192,361.6061 L227.4438,367.5711 L228.0861,373.5761 L228.7636,379.5845 L229.188,385.5686 L229.3718,385.5892 L229.4953,388.3284 L229.933,391.1027 L229.8624,393.8202 L230.5499,396.6225 L230.7334,399.3684 L230.9748,399.4011 L231.2646,401.8677 L231.6743,404.3506 L231.527,406.7579 L231.788,409.2206 L232.4106,411.7323 L232.1405,411.675 L233.1702,415.4281 L233.8955,419.1166 L235.0624,422.8987 L235.4753,426.521 L236.3364,430.2383 L236.2121,430.1501 L237.4153,431.7009 L238.0869,432.8746 L239.1365,434.3165 L240.556,436.0208 L241.3169,437.2578 L241.3169,437.6451 L243.3169,437.9107 L245.3169,436.9718 L247.3169,437.5415 L249.3169,437.7826 L251.3169,437.2578" fill="none" style="stroke:#FF6F00;stroke-width:1;"/><a href="/use-case/client-360/social-media/" target="_top" title="/use-case/client-360/social-media/" xlink:actuate="onRequest" xlink:href="/use-case/client-360/social-media/" xlink:show="new" xlink:title="/use-case/client-360/social-media/" xlink:type="simple"><text fill="#4051B5" font-family="'Roboto'" font-size="13" lengthAdjust="spacing" textLength="81.7197" x="258.3169" y="517.1567">Social Media</text></a><a href="/use-case/client-360/social-media/interest-graph/" target="_top" title="/use-case/client-360/social-media/interest-graph/" xlink:actuate="onRequest" xlink:href="/use-case/client-360/social-media/interest-graph/" xlink:show="new" xlink:title="/use-case/client-360/social-media/interest-graph/" xlink:type="simple"><text fill="#4051B5" font-family="'Roboto'" font-size="13" lengthAdjust="spacing" textLength="94.3896" x="401.0366" y="504.5903">Interest Graph</text></a><path d="M344.0366,512.6563 L344.0366,512.8431 L346.0366,512.288 L348.0366,512.8281 L350.0366,513.0115 L352.0366,512.0221 L354.0366,512.6563 L354.0366,512.6563 L354.0233,512.6244 L356.9634,511.2248 L359.9708,509.9858 L363.0249,508.8584 L365.9179,507.3463 L369.0366,506.373 L369.1317,506.6 L371.9284,504.858 L375.0027,503.7787 L378.1108,502.7802 L381.0219,501.3113 L384.0366,500.0898 L384.0366,500.1505 L386.0366,500.0614 L388.0366,500.2485 L390.0366,500.3024 L392.0366,500.6105 L394.0366,500.0898" fill="none" style="stroke:#FF6F00;stroke-width:1;"/><a href="/use-case/client-360/social-media/social-graph/" target="_top" title="/use-case/client-360/social-media/social-graph/" xlink:actuate="onRequest" xlink:href="/use-case/client-360/social-media/social-graph/" xlink:show="new" xlink:title="/use-case/client-360/social-media/social-graph/" xlink:type="simple"><text fill="#4051B5" font-family="'Roboto'" font-size="13" lengthAdjust="spacing" textLength="82.5513" x="401.0366" y="529.7231">Social Graph</text></a><path d="M344.0366,512.6563 L344.0366,512.8431 L346.0366,512.288 L348.0366,512.8281 L350.0366,513.0115 L352.0366,512.0221 L354.0366,512.6563 L354.0366,512.6563 L354.0233,512.6244 L356.9634,513.7381 L359.9708,515.0123 L363.0249,516.3982 L365.9179,517.3994 L369.0366,518.9395 L369.1317,519.1664 L371.9284,519.9377 L375.0027,521.3717 L378.1108,522.8864 L381.0219,523.9309 L384.0366,525.2227 L384.0366,525.2833 L386.0366,525.1943 L388.0366,525.3813 L390.0366,525.4352 L392.0366,525.7433 L394.0366,525.2227" fill="none" style="stroke:#FF6F00;stroke-width:1;"/><path d="M201.3169,273.8945 L201.3169,274.0814 L203.3169,273.5262 L205.3169,274.0663 L207.3169,274.2498 L209.3169,273.2604 L211.3169,273.8945 L211.3169,273.8945 L211.2858,273.8794 L212.1425,275.8636 L213.1558,277.9238 L214.2779,280.0369 L215.0248,281.9678 L216.2974,284.1538 L216.5397,284.1965 L216.436,286.4602 L217.0399,288.8485 L217.7301,291.252 L217.918,293.5671 L218.3701,295.9287 L218.4002,295.9323 L218.7266,298.9815 L219.1901,302.0472 L219.5874,305.1049 L220.111,308.1779 L220.2231,311.201 L220.5201,311.2286 L220.8592,314.843 L221.0067,318.4396 L221.4346,322.0623 L221.8757,325.6862 L221.9004,329.2714 L221.5808,329.2469 L222.5102,333.3282 L222.3872,337.3289 L223.0642,341.3908 L222.9174,345.3897 L223.4458,349.4402 L223.4154,349.4382 L224.3489,358.2288 L224.5726,366.9729 L225.2152,375.7444 L225.8929,384.5182 L226.3169,393.2754 L226.5015,393.2875 L226.8894,402.0423 L227.5927,410.8178 L227.7857,419.5599 L228.7399,428.3518 L229.188,437.1105 L229.4309,437.1292 L229.6941,441.1594 L230.0778,445.1989 L229.9012,449.1954 L230.1353,453.2235 L230.7334,457.2794 L230.4584,457.2539 L231.0428,460.891 L231.3173,464.4995 L232.0413,468.1496 L231.9979,471.7285 L232.4106,475.3497 L232.2593,475.3314 L232.882,478.4164 L232.8576,481.423 L233.2934,484.4854 L234.1794,487.6024 L234.2637,490.6221 L234.4544,490.6557 L234.9997,493.0337 L234.9519,495.3072 L235.647,497.7116 L236.1803,500.0875 L236.3364,502.397 L236.1475,502.3053 L237.2942,504.4302 L238.379,506.5251 L239.5853,508.679 L240.3191,510.6036 L241.3169,512.6563 L241.3169,513.0674 L243.3169,512.164 L245.3169,512.0542 L247.3169,513.1039 L249.3169,512.019 L251.3169,512.6563" fill="none" style="stroke:#FF6F00;stroke-width:1;"/><!--SRC=[xLbRRnev57wVN-5jf6sgTXPeqgYgggg4a3GD10H9gwgg8ZDZmCfWpzgUK7Qr_tsFvy9S0ZFSPjjguIMPu-FlExwVotkfi50Jokm9Tf7bKCAKUNHIDOpVR3AaZA3JYxjs_VBwhj5fTNh8_nqSLr_L1g-IAlrcetDzLkzz2VKMg7JhZQlwHNCEz4Ybqpjhzf8yw60uF1bMgtELyyxrJKh1Lz6_kKgzr-jyJkj4A8Qyfyp50a_G05lt8y4zPZUummKwK08p2Mqm_8JQXvbBX4FPVQWLMcmyHPHPZcSJfCO4ZGWZ0Zjeta-Y8MWFk1g_G0uTZHN2p4Os5lVGKt747uYO2ge8cb8r3Z3e0s584gKe6ydidDnyk6nSNJVxVLI3XU6kefoXCO1g50KTXzYH965u5zis0A7ZXAmN35U0iUXrGjuVOvjFjNOMPJxyMsRx_v1G9Q5pHeROSnJwsq3ed3DrZIS4FUbn63r_4ig2sOiNBnJtwLy4rOwDVv9uTI7ur4TRqciPc9evC5_SiTDuBgmq7f6vVGkwdsOsGsh7wtOkOFXXMsAJ0b7CmxYzBadgGApAO_69onbiKvziOzENsXdCepTnNgRdqSOA3x0afT2cc2o7U_P_GCCTXrZw9CcIo6Ak1YW8xfJESwfXiPYLJjHaYghoQIXJH0onHKfdwfC_FS8iqeNNa5hKnKm5S3TZQjqp8YLSlR6w3DLzkv9z2any1B_GseHMVBKnBYROUTowu0otw92quBREePYh51ZiNySBA7nv3hxVliGylosUroCjiXGNXRRuIZcSkdtPmN-A6iV-vGOF7NmS5FwITuM0YmApaKFUleKNKNBsxfs_ydtOdeGhU2PpNgPTlZXHKpnxMGyXVSab32VVmLY6dRkoHf1n0KiQXfn9HIQ_yloNDO8Ivpzw_7-rwO_j_fLdFx691k437zcVSTsp8_8zxEfgtkV6Sr4qpE3vih4S4tkriIySkWNq65uiiSxO8ReetcwbZNpL1LuzXeeYq6G0THGyRnq8AWM58CGEqNGC6WNsEZgHo4GJJoeTGX24Xp3gY3aJnoJumkWw9q1B1DnvfgPzc7XcCc66L5W5NbNnkYrT6705b19qu2coN2DsRD8Zo8t3Kc4Abd9xI_F8dg9sk7xI9HOTKWlcn_TWO2cdOvr0K72nWPiizSBxY_m23HoFm1epHhG_917tb6vU5AkMPddCXTFENiqmdZVyB1CwEgcY2ch0ZeJzAFIdyVpv7VhwjU99ObfmRLVYV5J52lLCGHpiHsrZwfeJp22udu1I0gcNq43jkSQtRu2_1G6sB9WdbUAi1xATiYZw0B5LXYOGxf37lqwjz6WQWMo7B0x1TegY1O8TudFNvK9vB3jXdLYUPLjATi_ur9nnJvWHRGLTWGnz0TbyTnLOl00aNb4Ezd01npUvedFX1iWGXMjKCZCTxEaSNO0DOerBPgWr5wF3UhlrR7qEYmi2qmz_xCnU4GHEcfQllfwBy0MTH0GIOFLdY2lNHnlPBgpQnLctjtxVCHsDJKQKEOMjCpRXveKLiZrmBYhe0xIXQwBGPzs6BkEszNdWBeO5WilStz4cFDlpZmgwJ3MYJud6zPbSueBjNUvG1HYECqFDxowNn4PTFmQKwB3RxCeDTeMWyZwr7NeWs6eVICo2P5m5zQD_yyzhyawG9cQs6Jvw0Kho5P3eTtsvHOq5rkK33pn9zLEMPZiDfJkZ6U89TMPfadDVjZCADzeOQPRvVjaPaUGMpRBqVTaZYgKC8SQ4s1JFUxVrLu5fgOv-Gf58POu4TiTmtC9lTA6_rq4AFqASq9u8vJq1jormtGpZ_T8Is-uAKZzvwISA8zQe-wIxB8HPg-8Jzyswl76WalHeew9XGOrd5x3v9PrydCMsR5J4MPzenRBDji05XPfDu5ShpMo7d5kCsGuwf_oo7N1-mMKxx99ABB5HIuehiNqRr5NYCxMeg193BwkdnDOb4WunwACoIeoOgQ1a-gnGFabGPmid2PPqpIHn03SiV-JVs-lkgCSRPFlone-oi33p_CEdxkUoS8sYmm-owoUTk1Bg1R556umkPmm5jO5Q-SM0iaQsT7LsaEpV8bk_yB7UUQO-HbmySGiJzAdcr6CPMhpCarunALziL25yJk9y1-ZxLFa-LRvFbUzJvVjK-JvLla-LxrFb_xzKUTU1U_gstK9mqgK-rBK_NbPVllgZLXiGXMlLmrkcpmFpKwOKt5G5L-0pu_2Ysq8IpeW5iGILWMS9tPyP7_43HZrmEq3l3JnrX7qykue4gCaUgE1CdqBZuwTsh71oR9vIXVf4W27eKzk8dFOcixZEhhz1jpVdvckZ1V681mVv3IBCQ6Z_HioWhVyl]--></g></svg>