<svg xmlns="http://www.w3.org/2000/svg" xmlns:xlink="http://www.w3.org/1999/xlink" contentStyleType="text/css" data-diagram-type="MINDMAP" height="574px" preserveAspectRatio="none" style="width:784px;height:574px;" version="1.1" viewBox="0 0 784 574" width="784px" zoomAndPan="magnify"><defs/><g><polygon fill="#4051B5" points="14,267.9688,14,268.1789,23.8248,267.5544,33.6495,268.162,43.4743,268.3684,53.299,267.2554,63.1238,267.891,72.9485,267.5423,82.7733,267.5853,92.598,267.9006,102.4228,267.2774,112.2476,268.5224,122.0723,267.3385,131.8971,267.771,141.7218,268.4007,151.5466,267.883,161.3713,268.037,171.1961,267.9368,181.0208,268.1473,190.8456,268.2079,200.6704,268.5544,210.4951,267.9688,210.5807,268.1754,211.1474,268.4122,211.659,268.5158,212.2513,268.8145,212.8474,269.1223,213.3235,269.1403,213.1014,269.0483,213.7668,269.7926,213.7009,270.2339,214.1909,270.9055,214.1084,271.3399,214.4951,271.9688,214.4723,271.9688,214.7423,277.6281,214.4789,283.2875,214.5302,288.9469,214.608,294.6063,214.4951,300.2656,214.6233,300.3187,214.2596,300.8308,214.1149,301.4336,213.6159,301.8897,213.6454,302.5646,213.3235,303.0941,213.3935,303.2629,212.8146,303.4653,212.2704,303.7515,211.5649,303.6482,210.9776,303.8305,210.4951,304.2656,210.4951,303.6442,200.6704,304.2067,190.8456,304.0691,181.0208,304.947,171.1961,304.0909,161.3713,303.9226,151.5466,304.4939,141.7218,303.5988,131.8971,303.7465,122.0723,304.9146,112.2476,304.7013,102.4228,305.0001,92.598,303.9438,82.7733,304.5848,72.9485,304.856,63.1238,303.7932,53.299,304.1698,43.4743,304.3916,33.6495,304.9174,23.8248,304.2614,14,304.2656,14.059,304.4081,13.3637,303.8608,12.7822,303.5884,12.3672,303.7178,11.6458,303.1076,11.1716,303.0941,11.3283,303.159,11.0009,302.5547,10.6204,301.9285,10.3597,301.3519,10.3756,300.8898,10,300.2656,9.9002,300.2656,10.1973,294.6063,9.8158,288.9469,10.2058,283.2875,10.1614,277.6281,10,271.9688,10.0754,272,10.2489,271.4091,10.6924,270.9301,10.8919,270.35,10.9894,269.7276,11.1716,269.1403,11.2058,269.2229,11.7206,268.8659,12.3943,268.8923,12.8884,268.4851,13.4563,268.2562,14,267.9688" style="stroke:#FF6F00;stroke-width:1.5;"/><text fill="#FFFFFF" font-family="'Roboto'" font-size="14" lengthAdjust="spacing" textLength="184.4951" x="20" y="290.9639">Client 360 / Customer 360</text><a href="/use-case/client-360/customer-relationship-management/" target="_top" title="/use-case/client-360/customer-relationship-management/" xlink:actuate="onRequest" xlink:href="/use-case/client-360/customer-relationship-management/" xlink:show="new" xlink:title="/use-case/client-360/customer-relationship-management/" xlink:type="simple"><text fill="#90EE90" font-family="'Roboto'" font-size="14" lengthAdjust="spacing" textLength="255.6982" x="271.4951" y="80.5889">Customer Relationship Management</text></a><a href="/use-case/client-360/customer-relationship-management/account-management/" target="_top" title="/use-case/client-360/customer-relationship-management/account-management/" xlink:actuate="onRequest" xlink:href="/use-case/client-360/customer-relationship-management/account-management/" xlink:show="new" xlink:title="/use-case/client-360/customer-relationship-management/account-management/" xlink:type="simple"><text fill="#90EE90" font-family="'Roboto'" font-size="14" lengthAdjust="spacing" textLength="153.4463" x="588.1934" y="27.9951">Account Management</text></a><path d="M531.1934,75.7422 L531.1934,75.929 L533.1934,75.3739 L535.1934,75.914 L537.1934,76.0975 L539.1934,75.1081 L541.1934,75.7422 L541.1934,75.7422 L541.1699,75.7168 L542.8461,73.9593 L544.6403,72.3298 L546.5166,70.7893 L548.11,68.9421 L550.0996,67.5244 L550.3328,67.603 L551.0529,63.8191 L552.4538,60.2647 L553.9378,56.7383 L554.9385,53.049 L556.1934,49.4453 L556.2221,49.455 L557.3987,45.825 L558.706,42.239 L559.9503,38.6318 L561.315,35.0652 L562.2871,31.3662 L562.4894,31.5854 L564.2731,29.9445 L565.9264,28.1623 L567.7706,26.587 L569.6238,25.0214 L571.1934,23.1484 L571.1934,22.5074 L573.1934,23.7516 L575.1934,22.8849 L577.1934,23.6229 L579.1934,22.7084 L581.1934,23.1484" fill="none" style="stroke:#FF9900;stroke-width:1;"/><a href="/use-case/client-360/customer-relationship-management/activity-management/" target="_top" title="/use-case/client-360/customer-relationship-management/activity-management/" xlink:actuate="onRequest" xlink:href="/use-case/client-360/customer-relationship-management/activity-management/" xlink:show="new" xlink:title="/use-case/client-360/customer-relationship-management/activity-management/" xlink:type="simple"><text fill="#90EE90" font-family="'Roboto'" font-size="14" lengthAdjust="spacing" textLength="149.2764" x="588.1934" y="54.292">Activity Management</text></a><path d="M531.1934,75.7422 L531.1934,75.929 L533.1934,75.3739 L535.1934,75.914 L537.1934,76.0975 L539.1934,75.1081 L541.1934,75.7422 L541.1934,75.7422 L541.1706,75.7162 L544.0684,72.97 L547.081,70.3546 L550.1734,67.8303 L552.9908,64.9924 L556.1934,62.5938 L556.3556,62.7788 L559.0087,59.7534 L562.1354,57.2683 L565.3199,54.8491 L568.1682,52.0463 L571.1934,49.4453 L571.1934,49.506 L573.1934,49.4169 L575.1934,49.604 L577.1934,49.6579 L579.1934,49.9659 L581.1934,49.4453" fill="none" style="stroke:#FF9900;stroke-width:1;"/><a href="/use-case/client-360/customer-relationship-management/contact-management/" target="_top" title="/use-case/client-360/customer-relationship-management/contact-management/" xlink:actuate="onRequest" xlink:href="/use-case/client-360/customer-relationship-management/contact-management/" xlink:show="new" xlink:title="/use-case/client-360/customer-relationship-management/contact-management/" xlink:type="simple"><text fill="#90EE90" font-family="'Roboto'" font-size="14" lengthAdjust="spacing" textLength="151.1426" x="588.1934" y="80.5889">Contact Management</text></a><path d="M531.1934,75.7422 L531.1934,75.929 L533.1934,75.3739 L535.1934,75.914 L537.1934,76.0975 L539.1934,75.1081 L541.1934,75.7422 L541.1934,75.7422 L541.1934,75.7076 L547.1934,75.5526 L553.1934,75.5717 L559.1934,75.7119 L565.1934,75.4349 L571.1934,75.7422 L571.1934,76.2343 L573.1934,75.1819 L575.1934,75.5664 L577.1934,76.1261 L579.1934,75.6659 L581.1934,75.7422" fill="none" style="stroke:#FF9900;stroke-width:1;"/><a href="/use-case/client-360/customer-relationship-management/lead-management/" target="_top" title="/use-case/client-360/customer-relationship-management/lead-management/" xlink:actuate="onRequest" xlink:href="/use-case/client-360/customer-relationship-management/lead-management/" xlink:show="new" xlink:title="/use-case/client-360/customer-relationship-management/lead-management/" xlink:type="simple"><text fill="#90EE90" font-family="'Roboto'" font-size="14" lengthAdjust="spacing" textLength="130.5527" x="588.1934" y="106.8857">Lead Management</text></a><path d="M531.1934,75.7422 L531.1934,75.929 L533.1934,75.3739 L535.1934,75.914 L537.1934,76.0975 L539.1934,75.1081 L541.1934,75.7422 L541.1934,75.7422 L541.1706,75.7162 L544.0684,78.2293 L547.081,80.8734 L550.1734,83.6085 L552.9908,86.0299 L556.1934,88.8906 L556.3556,89.0757 L559.0087,91.3097 L562.1354,94.0839 L565.3199,96.9241 L568.1682,99.3807 L571.1934,102.0391 L571.1934,102.0997 L573.1934,102.0107 L575.1934,102.1978 L577.1934,102.2516 L579.1934,102.5597 L581.1934,102.0391" fill="none" style="stroke:#FF9900;stroke-width:1;"/><a href="/use-case/client-360/customer-relationship-management/opportunity-management/" target="_top" title="/use-case/client-360/customer-relationship-management/opportunity-management/" xlink:actuate="onRequest" xlink:href="/use-case/client-360/customer-relationship-management/opportunity-management/" xlink:show="new" xlink:title="/use-case/client-360/customer-relationship-management/opportunity-management/" xlink:type="simple"><text fill="#90EE90" font-family="'Roboto'" font-size="14" lengthAdjust="spacing" textLength="180.6875" x="588.1934" y="133.1826">Opportunity Management</text></a><path d="M531.1934,75.7422 L531.1934,75.929 L533.1934,75.3739 L535.1934,75.914 L537.1934,76.0975 L539.1934,75.1081 L541.1934,75.7422 L541.1934,75.7422 L541.1699,75.7168 L542.8461,77.2464 L544.6403,78.904 L546.5166,80.6506 L548.11,82.0906 L550.0996,83.96 L550.3328,84.0386 L551.0529,87.4863 L552.4538,91.1635 L553.9378,94.8687 L554.9385,98.4111 L556.1934,102.0391 L556.2221,102.0487 L557.3987,105.6503 L558.706,109.296 L559.9503,112.9205 L561.315,116.5855 L562.2871,120.1182 L562.4894,120.3374 L564.2731,121.9836 L565.9264,123.4884 L567.7706,125.2003 L569.6238,126.9218 L571.1934,128.3359 L571.1934,127.6949 L573.1934,128.9391 L575.1934,128.0724 L577.1934,128.8104 L579.1934,127.8959 L581.1934,128.3359" fill="none" style="stroke:#FF9900;stroke-width:1;"/><path d="M214.4951,286.1172 L214.4951,286.304 L216.4951,285.7489 L218.4951,286.289 L220.4951,286.4725 L222.4951,285.4831 L224.4951,286.1172 L224.4951,286.1172 L224.4649,286.1005 L225.3252,284.2178 L226.338,282.4191 L227.4569,280.6788 L228.2104,278.7373 L229.4756,277.0776 L229.7169,277.1258 L229.6154,274.9478 L230.2185,272.9104 L230.9075,270.8903 L231.0964,268.7702 L231.5483,266.7027 L231.5784,266.7068 L231.9049,264.0094 L232.3682,261.3309 L232.7654,258.6432 L233.2886,255.9729 L233.4014,253.2461 L233.698,253.2773 L234.037,250.0933 L234.1848,246.8892 L234.6126,243.7145 L235.0535,240.5412 L235.0786,237.3242 L234.7593,237.2964 L235.6881,233.7961 L235.5655,230.2044 L236.2422,226.6822 L236.0958,223.0883 L236.624,219.5532 L236.5937,219.551 L237.5269,211.8529 L237.7509,204.1022 L238.3934,196.3826 L239.071,188.6656 L239.4951,180.9297 L239.6796,180.9434 L240.0676,173.2049 L240.7709,165.4897 L240.9641,157.7367 L241.918,150.0402 L242.3662,142.3062 L242.6089,142.3273 L242.8721,138.7691 L243.2558,135.2214 L243.0796,131.625 L243.3138,128.0643 L243.9116,124.5352 L243.637,124.5063 L244.221,121.3481 L244.4957,118.1573 L245.2192,115.0138 L245.1762,111.7895 L245.5889,108.6133 L245.4378,108.5925 L246.06,105.9358 L246.0365,103.1902 L246.4721,100.5078 L247.357,97.8873 L247.4419,95.1567 L247.6318,95.1946 L248.1766,93.1456 L248.1307,90.9787 L248.8247,88.9595 L249.3574,86.9081 L249.5146,84.7817 L249.3308,84.6804 L250.4734,82.9533 L251.5559,81.1929 L252.7566,79.4978 L253.4974,77.5492 L254.4951,75.7422 L254.4951,76.1534 L256.4951,75.2499 L258.4951,75.1402 L260.4951,76.1898 L262.4951,75.1049 L264.4951,75.7422" fill="none" style="stroke:#FF9900;stroke-width:1;"/><a href="/use-case/client-360/know-your-customer/" target="_top" title="/use-case/client-360/know-your-customer/" xlink:actuate="onRequest" xlink:href="/use-case/client-360/know-your-customer/" xlink:show="new" xlink:title="/use-case/client-360/know-your-customer/" xlink:type="simple"><text fill="#90EE90" font-family="'Roboto'" font-size="14" lengthAdjust="spacing" textLength="146.7197" x="271.4951" y="277.8154">Know Your Customer</text></a><a href="/use-case/client-360/know-your-customer/activity-monitoring/" target="_top" title="/use-case/client-360/know-your-customer/activity-monitoring/" xlink:actuate="onRequest" xlink:href="/use-case/client-360/know-your-customer/activity-monitoring/" xlink:show="new" xlink:title="/use-case/client-360/know-your-customer/activity-monitoring/" xlink:type="simple"><text fill="#90EE90" font-family="'Roboto'" font-size="14" lengthAdjust="spacing" textLength="131.9199" x="479.2148" y="159.4795">Activity Monitoring</text></a><path d="M422.2148,272.9688 L422.2148,273.1556 L424.2148,272.6005 L426.2148,273.1406 L428.2148,273.324 L430.2148,272.3346 L432.2148,272.9688 L432.2148,272.9688 L432.1902,272.9446 L433.0755,271.8192 L434.0853,270.8156 L435.1815,269.8967 L435.9797,268.6859 L437.1953,267.884 L437.4315,267.9532 L437.7116,265.1242 L438.6813,262.4972 L439.735,259.8948 L440.2994,257.1491 L441.1211,254.4788 L441.151,254.4838 L441.7516,250.6859 L442.4884,246.9112 L443.1595,243.1252 L443.9558,239.3606 L444.3438,235.5265 L444.6394,235.5656 L445.2173,231.2209 L445.6044,226.8511 L446.2707,222.5181 L446.95,218.1868 L447.2148,213.8008 L446.8971,213.7588 L448.088,209.4951 L448.2326,205.0932 L449.1727,200.7964 L449.2936,196.3914 L450.0859,192.075 L450.0559,192.0699 L451.0554,188.3398 L451.3536,184.4905 L452.0657,180.7115 L452.8124,176.9385 L453.3086,173.1228 L453.4861,173.1748 L454.0921,170.4413 L455.0014,167.7966 L455.4199,165.0082 L456.5705,162.4341 L457.2344,159.7176 L457.4084,159.888 L458.3716,158.8389 L459.4212,157.8743 L460.0693,156.5165 L461.0117,155.4469 L462.2148,154.6328 L462.2148,154.0805 L464.2148,154.5805 L466.2148,154.4581 L468.2148,155.2385 L470.2148,154.4775 L472.2148,154.6328" fill="none" style="stroke:#FF9900;stroke-width:1;"/><a href="/use-case/client-360/know-your-customer/anti-money-laundering/" target="_top" title="/use-case/client-360/know-your-customer/anti-money-laundering/" xlink:actuate="onRequest" xlink:href="/use-case/client-360/know-your-customer/anti-money-laundering/" xlink:show="new" xlink:title="/use-case/client-360/know-your-customer/anti-money-laundering/" xlink:type="simple"><text fill="#90EE90" font-family="'Roboto'" font-size="14" lengthAdjust="spacing" textLength="207.0059" x="479.2148" y="185.7764">Anti Money Laundering (AML)</text></a><path d="M422.2148,272.9688 L422.2148,273.1556 L424.2148,272.6005 L426.2148,273.1406 L428.2148,273.324 L430.2148,272.3346 L432.2148,272.9688 L432.2148,272.9688 L432.1855,272.9506 L433.8349,269.9927 L435.6324,267.1266 L437.5328,264.3241 L439.0786,261.3021 L441.1211,258.5876 L441.3615,258.6402 L441.492,255.5797 L442.3243,252.6726 L443.2422,249.7843 L443.662,246.787 L444.3438,243.847 L444.3736,243.8521 L444.904,240.4651 L445.5704,237.1012 L446.1712,233.7261 L446.8973,230.3724 L447.2148,226.9492 L447.5089,226.9992 L448.0867,223.6202 L448.4748,220.2091 L449.1406,216.8451 L449.8194,213.4833 L450.0859,210.0514 L449.7728,209.983 L451.0251,207.1677 L451.2463,204.127 L452.2513,201.2577 L452.4491,198.2119 L453.3086,195.3108 L453.2827,195.2948 L455.3701,192.6081 L456.8527,189.5469 L458.6921,186.7068 L460.5615,183.8851 L462.2148,180.9297 L462.2148,181.2997 L464.2148,180.9262 L466.2148,181.185 L468.2148,180.4209 L470.2148,181.1825 L472.2148,180.9297" fill="none" style="stroke:#FF9900;stroke-width:1;"/><a href="/use-case/client-360/know-your-customer/core-record-management/" target="_top" title="/use-case/client-360/know-your-customer/core-record-management/" xlink:actuate="onRequest" xlink:href="/use-case/client-360/know-your-customer/core-record-management/" xlink:show="new" xlink:title="/use-case/client-360/know-your-customer/core-record-management/" xlink:type="simple"><text fill="#90EE90" font-family="'Roboto'" font-size="14" lengthAdjust="spacing" textLength="183.0801" x="479.2148" y="212.0732">Core Record Management</text></a><path d="M422.2148,272.9688 L422.2148,273.1556 L424.2148,272.6005 L426.2148,273.1406 L428.2148,273.324 L430.2148,272.3346 L432.2148,272.9688 L432.2148,272.9688 L432.1887,272.9461 L433.8529,270.7901 L435.6486,268.7482 L437.5357,266.7856 L439.1077,264.5497 L441.1211,262.6965 L441.3564,262.7685 L441.4978,260.5087 L442.3261,258.4592 L443.2383,256.4353 L443.6628,254.2622 L444.3438,252.1675 L444.3733,252.1745 L444.9042,249.7503 L445.5694,247.3579 L446.1698,244.9502 L446.8939,242.5719 L447.2148,240.0977 L447.505,240.1667 L448.0828,237.7535 L448.4734,235.2959 L449.1379,232.9034 L449.8153,230.514 L450.0859,228.0278 L449.7794,227.934 L451.0188,226.0103 L451.249,223.7776 L452.2464,221.7798 L452.4537,219.5402 L453.3086,217.4988 L453.2856,217.4788 L455.3389,215.6603 L456.8547,213.3757 L458.6877,211.3661 L460.5473,209.3796 L462.2148,207.2266 L462.2148,207.5965 L464.2148,207.2231 L466.2148,207.4819 L468.2148,206.7177 L470.2148,207.4794 L472.2148,207.2266" fill="none" style="stroke:#FF9900;stroke-width:1;"/><a href="/use-case/client-360/know-your-customer/crime-records/" target="_top" title="/use-case/client-360/know-your-customer/crime-records/" xlink:actuate="onRequest" xlink:href="/use-case/client-360/know-your-customer/crime-records/" xlink:show="new" xlink:title="/use-case/client-360/know-your-customer/crime-records/" xlink:type="simple"><text fill="#90EE90" font-family="'Roboto'" font-size="14" lengthAdjust="spacing" textLength="102.6621" x="479.2148" y="238.3701">Crime Records</text></a><path d="M422.2148,272.9688 L422.2148,273.1556 L424.2148,272.6005 L426.2148,273.1406 L428.2148,273.324 L430.2148,272.3346 L432.2148,272.9688 L432.2148,272.9688 L432.1952,272.9403 L433.8882,271.5802 L435.6804,270.3633 L437.5414,269.2458 L439.165,267.7854 L441.1211,266.8054 L441.3455,266.9063 L442.0843,263.9787 L443.4784,261.3457 L444.9524,258.7485 L445.9613,255.9423 L447.2148,253.2461 L447.2425,253.2585 L448.4206,250.5284 L449.7247,247.8549 L450.968,245.1541 L452.3273,242.5053 L453.3086,239.6868 L453.4783,239.932 L455.2616,238.7023 L456.9355,237.3145 L458.7696,236.1582 L460.6112,235.0127 L462.2148,233.5234 L462.2148,232.8824 L464.2148,234.1266 L466.2148,233.2599 L468.2148,233.9979 L470.2148,233.0834 L472.2148,233.5234" fill="none" style="stroke:#FF9900;stroke-width:1;"/><a href="/use-case/client-360/know-your-customer/gdpr/" target="_top" title="/use-case/client-360/know-your-customer/gdpr/" xlink:actuate="onRequest" xlink:href="/use-case/client-360/know-your-customer/gdpr/" xlink:show="new" xlink:title="/use-case/client-360/know-your-customer/gdpr/" xlink:type="simple"><text fill="#90EE90" font-family="'Roboto'" font-size="14" lengthAdjust="spacing" textLength="39.7988" x="479.2148" y="264.667">GDPR</text></a><path d="M422.2148,272.9688 L422.2148,273.1556 L424.2148,272.6005 L426.2148,273.1406 L428.2148,273.324 L430.2148,272.3346 L432.2148,272.9688 L432.2148,272.9688 L432.201,272.9371 L435.1388,271.4803 L438.1464,270.183 L441.2027,268.9965 L444.0915,267.4279 L447.2148,266.3945 L447.3136,266.6199 L450.1024,264.8231 L453.1796,263.6843 L456.2919,262.6258 L459.1995,261.1002 L462.2148,259.8203 L462.2148,259.881 L464.2148,259.7919 L466.2148,259.979 L468.2148,260.0329 L470.2148,260.3409 L472.2148,259.8203" fill="none" style="stroke:#FF9900;stroke-width:1;"/><a href="/use-case/client-360/know-your-customer/high-net-worth-individuals/" target="_top" title="/use-case/client-360/know-your-customer/high-net-worth-individuals/" xlink:actuate="onRequest" xlink:href="/use-case/client-360/know-your-customer/high-net-worth-individuals/" xlink:show="new" xlink:title="/use-case/client-360/know-your-customer/high-net-worth-individuals/" xlink:type="simple"><text fill="#90EE90" font-family="'Roboto'" font-size="14" lengthAdjust="spacing" textLength="188.1045" x="479.2148" y="290.9639">High Net Worth Individuals</text></a><path d="M422.2148,272.9688 L422.2148,273.1556 L424.2148,272.6005 L426.2148,273.1406 L428.2148,273.324 L430.2148,272.3346 L432.2148,272.9688 L432.2148,272.9688 L432.201,272.9371 L435.1388,274.11 L438.1464,275.4423 L441.2027,276.8855 L444.0915,277.9467 L447.2148,279.543 L447.3136,279.7683 L450.1024,280.6012 L453.1796,282.0922 L456.2919,283.6633 L459.1995,284.7674 L462.2148,286.1172 L462.2148,286.1778 L464.2148,286.0888 L466.2148,286.2759 L468.2148,286.3298 L470.2148,286.6378 L472.2148,286.1172" fill="none" style="stroke:#FF9900;stroke-width:1;"/><a href="/use-case/client-360/know-your-customer/identification-verification/" target="_top" title="/use-case/client-360/know-your-customer/identification-verification/" xlink:actuate="onRequest" xlink:href="/use-case/client-360/know-your-customer/identification-verification/" xlink:show="new" xlink:title="/use-case/client-360/know-your-customer/identification-verification/" xlink:type="simple"><text fill="#90EE90" font-family="'Roboto'" font-size="14" lengthAdjust="spacing" textLength="175.9912" x="479.2148" y="317.2607">Identification Verification</text></a><path d="M422.2148,272.9688 L422.2148,273.1556 L424.2148,272.6005 L426.2148,273.1406 L428.2148,273.324 L430.2148,272.3346 L432.2148,272.9688 L432.2148,272.9688 L432.1952,272.9403 L433.8882,274.0455 L435.6804,275.2939 L437.5414,276.6418 L439.165,277.6467 L441.1211,279.1321 L441.3455,279.2329 L442.0843,281.7291 L443.4784,284.5198 L444.9524,287.3464 L445.9613,289.9639 L447.2148,292.6914 L447.2425,292.7038 L448.4206,295.3975 L449.7247,298.1477 L450.968,300.8706 L452.3273,303.6456 L453.3086,306.2507 L453.4783,306.496 L455.2616,307.7316 L456.9355,308.8091 L458.7696,310.1182 L460.6112,311.438 L462.2148,312.4141 L462.2148,311.773 L464.2148,313.0172 L466.2148,312.1505 L468.2148,312.8886 L470.2148,311.974 L472.2148,312.4141" fill="none" style="stroke:#FF9900;stroke-width:1;"/><a href="/use-case/client-360/know-your-customer/peps/" target="_top" title="/use-case/client-360/know-your-customer/peps/" xlink:actuate="onRequest" xlink:href="/use-case/client-360/know-your-customer/peps/" xlink:show="new" xlink:title="/use-case/client-360/know-your-customer/peps/" xlink:type="simple"><text fill="#90EE90" font-family="'Roboto'" font-size="14" lengthAdjust="spacing" textLength="238.0205" x="479.2148" y="343.5576">Politically Exposed Persons (PEPs)</text></a><path d="M422.2148,272.9688 L422.2148,273.1556 L424.2148,272.6005 L426.2148,273.1406 L428.2148,273.324 L430.2148,272.3346 L432.2148,272.9688 L432.2148,272.9688 L432.1887,272.9461 L433.8529,274.899 L435.6486,276.966 L437.5357,279.1122 L439.1077,280.9852 L441.1211,283.241 L441.3564,283.313 L441.4978,285.2648 L442.3261,287.4269 L443.2383,289.6146 L443.6628,291.653 L444.3438,293.77 L444.3733,293.777 L444.9042,296.1807 L445.5694,298.6163 L446.1698,301.0365 L446.8939,303.4861 L447.2148,305.8398 L447.505,305.9089 L448.0828,308.3237 L448.4734,310.694 L449.1379,313.1294 L449.8153,315.568 L450.0859,317.9097 L449.7794,317.8159 L451.0188,320.1038 L451.249,322.0827 L452.2464,324.2965 L452.4537,326.2685 L453.3086,328.4387 L453.2856,328.4188 L455.3389,330.7091 L456.8547,332.5334 L458.6877,334.6327 L460.5473,336.7551 L462.2148,338.7109 L462.2148,339.0809 L464.2148,338.7075 L466.2148,338.9662 L468.2148,338.2021 L470.2148,338.9637 L472.2148,338.7109" fill="none" style="stroke:#FF9900;stroke-width:1;"/><a href="/use-case/client-360/know-your-customer/risk-management/" target="_top" title="/use-case/client-360/know-your-customer/risk-management/" xlink:actuate="onRequest" xlink:href="/use-case/client-360/know-your-customer/risk-management/" xlink:show="new" xlink:title="/use-case/client-360/know-your-customer/risk-management/" xlink:type="simple"><text fill="#90EE90" font-family="'Roboto'" font-size="14" lengthAdjust="spacing" textLength="125.6924" x="479.2148" y="369.8545">Risk Management</text></a><path d="M422.2148,272.9688 L422.2148,273.1556 L424.2148,272.6005 L426.2148,273.1406 L428.2148,273.324 L430.2148,272.3346 L432.2148,272.9688 L432.2148,272.9688 L432.1855,272.9506 L433.8349,275.7452 L435.6324,278.6315 L437.5328,281.5815 L439.0786,284.3118 L441.1211,287.3499 L441.3615,287.4024 L441.492,290.2382 L442.3243,293.2273 L443.2422,296.2352 L443.662,299.1342 L444.3438,302.0905 L444.3736,302.0956 L444.904,305.4677 L445.5704,308.8629 L446.1712,312.247 L446.8973,315.6523 L447.2148,318.9883 L447.5089,319.0382 L448.0867,322.4184 L448.4748,325.7664 L449.1406,329.1615 L449.8194,332.5588 L450.0859,335.8861 L449.7728,335.8176 L451.0251,338.8986 L451.2463,341.7542 L452.2513,344.7811 L452.4491,347.6316 L453.3086,350.6267 L453.2827,350.6107 L455.3701,353.6765 L456.8527,356.3677 L458.6921,359.28 L460.5615,362.2108 L462.2148,365.0078 L462.2148,365.3778 L464.2148,365.0043 L466.2148,365.2631 L468.2148,364.499 L470.2148,365.2606 L472.2148,365.0078" fill="none" style="stroke:#FF9900;stroke-width:1;"/><a href="/use-case/client-360/know-your-customer/sanctions/" target="_top" title="/use-case/client-360/know-your-customer/sanctions/" xlink:actuate="onRequest" xlink:href="/use-case/client-360/know-your-customer/sanctions/" xlink:show="new" xlink:title="/use-case/client-360/know-your-customer/sanctions/" xlink:type="simple"><text fill="#90EE90" font-family="'Roboto'" font-size="14" lengthAdjust="spacing" textLength="68.1475" x="479.2148" y="396.1514">Sanctions</text></a><path d="M422.2148,272.9688 L422.2148,273.1556 L424.2148,272.6005 L426.2148,273.1406 L428.2148,273.324 L430.2148,272.3346 L432.2148,272.9688 L432.2148,272.9688 L432.1902,272.9446 L433.0755,273.8531 L434.0853,274.8834 L435.1815,275.9984 L435.9797,276.8215 L437.1953,278.0535 L437.4315,278.1227 L437.7116,280.6558 L438.6813,283.3909 L439.735,286.1506 L440.2994,288.767 L441.1211,291.4587 L441.151,291.4638 L441.7516,295.2468 L442.4884,299.0529 L443.1595,302.8479 L443.9558,306.6642 L444.3438,310.411 L444.6394,310.4501 L445.2173,314.7957 L445.6044,319.1161 L446.2707,323.4734 L446.95,327.8325 L447.2148,332.1367 L446.8971,332.0947 L448.088,336.5214 L448.2326,340.8097 L449.1727,345.2032 L449.2936,349.4885 L450.0859,353.8625 L450.0559,353.8574 L451.0554,357.7082 L451.3536,361.4397 L452.0657,365.2416 L452.8124,369.0495 L453.3086,372.8147 L453.4861,372.8667 L454.0921,375.4953 L455.0014,378.2127 L455.4199,380.7863 L456.5705,383.5744 L457.2344,386.2199 L457.4084,386.3904 L458.3716,387.3751 L459.4212,388.4445 L460.0693,389.1206 L461.0117,390.0849 L462.2148,391.3047 L462.2148,390.7523 L464.2148,391.2523 L466.2148,391.13 L468.2148,391.9104 L470.2148,391.1494 L472.2148,391.3047" fill="none" style="stroke:#FF9900;stroke-width:1;"/><path d="M214.4951,286.1172 L214.4951,286.304 L216.4951,285.7489 L218.4951,286.289 L220.4951,286.4725 L222.4951,285.4831 L224.4951,286.1172 L224.4951,286.1172 L224.4813,286.0856 L227.419,284.6287 L230.4267,283.3314 L233.483,282.1449 L236.3718,280.5764 L239.4951,279.543 L239.5939,279.7683 L242.3827,277.9716 L245.4598,276.8328 L248.5722,275.7743 L251.4798,274.2487 L254.4951,272.9688 L254.4951,273.0294 L256.4951,272.9404 L258.4951,273.1274 L260.4951,273.1813 L262.4951,273.4894 L264.4951,272.9688" fill="none" style="stroke:#FF9900;stroke-width:1;"/><a href="/use-case/client-360/relationships-and-connections/" target="_top" title="/use-case/client-360/relationships-and-connections/" xlink:actuate="onRequest" xlink:href="/use-case/client-360/relationships-and-connections/" xlink:show="new" xlink:title="/use-case/client-360/relationships-and-connections/" xlink:type="simple"><text fill="#90EE90" font-family="'Roboto'" font-size="14" lengthAdjust="spacing" textLength="200.1904" x="271.4951" y="461.8936">Relationships &amp; Connections</text></a><a href="/use-case/client-360/relationships-and-connections/business-connections/" target="_top" title="/use-case/client-360/relationships-and-connections/business-connections/" xlink:actuate="onRequest" xlink:href="/use-case/client-360/relationships-and-connections/business-connections/" xlink:show="new" xlink:title="/use-case/client-360/relationships-and-connections/business-connections/" xlink:type="simple"><text fill="#90EE90" font-family="'Roboto'" font-size="14" lengthAdjust="spacing" textLength="152.6943" x="532.6855" y="422.4482">Business Connections</text></a><path d="M475.6855,457.0469 L475.6855,457.2337 L477.6855,456.6786 L479.6855,457.2187 L481.6855,457.4021 L483.6855,456.4127 L485.6855,457.0469 L485.6855,457.0469 L485.6659,457.0185 L487.3589,455.6583 L489.1511,454.4414 L491.0121,453.324 L492.6357,451.8635 L494.5918,450.8835 L494.8162,450.9844 L495.555,448.0569 L496.9491,445.4238 L498.4232,442.8266 L499.432,440.0205 L500.6855,437.3242 L500.7132,437.3367 L501.8913,434.6065 L503.1954,431.933 L504.4387,429.2322 L505.798,426.5835 L506.7793,423.7649 L506.949,424.0101 L508.7323,422.7805 L510.4062,421.3926 L512.2403,420.2363 L514.0819,419.0909 L515.6855,417.6016 L515.6855,416.9605 L517.6855,418.2047 L519.6855,417.338 L521.6855,418.0761 L523.6855,417.1615 L525.6855,417.6016" fill="none" style="stroke:#FF9900;stroke-width:1;"/><a href="/use-case/client-360/relationships-and-connections/family-connections/" target="_top" title="/use-case/client-360/relationships-and-connections/family-connections/" xlink:actuate="onRequest" xlink:href="/use-case/client-360/relationships-and-connections/family-connections/" xlink:show="new" xlink:title="/use-case/client-360/relationships-and-connections/family-connections/" xlink:type="simple"><text fill="#90EE90" font-family="'Roboto'" font-size="14" lengthAdjust="spacing" textLength="137.293" x="532.6855" y="448.7451">Family Connections</text></a><path d="M475.6855,457.0469 L475.6855,457.2337 L477.6855,456.6786 L479.6855,457.2187 L481.6855,457.4021 L483.6855,456.4127 L485.6855,457.0469 L485.6855,457.0469 L485.6717,457.0152 L488.6095,455.5584 L491.6171,454.2611 L494.6734,453.0746 L497.5622,451.5061 L500.6855,450.4727 L500.7843,450.698 L503.5731,448.9012 L506.6503,447.7625 L509.7626,446.704 L512.6702,445.1784 L515.6855,443.8984 L515.6855,443.9591 L517.6855,443.87 L519.6855,444.0571 L521.6855,444.111 L523.6855,444.4191 L525.6855,443.8984" fill="none" style="stroke:#FF9900;stroke-width:1;"/><a href="/use-case/client-360/relationships-and-connections/political-connections/" target="_top" title="/use-case/client-360/relationships-and-connections/political-connections/" xlink:actuate="onRequest" xlink:href="/use-case/client-360/relationships-and-connections/political-connections/" xlink:show="new" xlink:title="/use-case/client-360/relationships-and-connections/political-connections/" xlink:type="simple"><text fill="#90EE90" font-family="'Roboto'" font-size="14" lengthAdjust="spacing" textLength="145.291" x="532.6855" y="475.042">Political Connections</text></a><path d="M475.6855,457.0469 L475.6855,457.2337 L477.6855,456.6786 L479.6855,457.2187 L481.6855,457.4021 L483.6855,456.4127 L485.6855,457.0469 L485.6855,457.0469 L485.6717,457.0152 L488.6095,458.1881 L491.6171,459.5205 L494.6734,460.9637 L497.5622,462.0248 L500.6855,463.6211 L500.7843,463.8465 L503.5731,464.6794 L506.6503,466.1703 L509.7626,467.7415 L512.6702,468.8456 L515.6855,470.1953 L515.6855,470.256 L517.6855,470.1669 L519.6855,470.354 L521.6855,470.4079 L523.6855,470.7159 L525.6855,470.1953" fill="none" style="stroke:#FF9900;stroke-width:1;"/><a href="/use-case/client-360/relationships-and-connections/social-connections/" target="_top" title="/use-case/client-360/relationships-and-connections/social-connections/" xlink:actuate="onRequest" xlink:href="/use-case/client-360/relationships-and-connections/social-connections/" xlink:show="new" xlink:title="/use-case/client-360/relationships-and-connections/social-connections/" xlink:type="simple"><text fill="#90EE90" font-family="'Roboto'" font-size="14" lengthAdjust="spacing" textLength="132.4668" x="532.6855" y="501.3389">Social Connections</text></a><path d="M475.6855,457.0469 L475.6855,457.2337 L477.6855,456.6786 L479.6855,457.2187 L481.6855,457.4021 L483.6855,456.4127 L485.6855,457.0469 L485.6855,457.0469 L485.6659,457.0185 L487.3589,458.1237 L489.1511,459.3721 L491.0121,460.72 L492.6357,461.7249 L494.5918,463.2102 L494.8162,463.3111 L495.555,465.8072 L496.9491,468.5979 L498.4232,471.4245 L499.432,474.042 L500.6855,476.7695 L500.7132,476.782 L501.8913,479.4756 L503.1954,482.2258 L504.4387,484.9487 L505.798,487.7237 L506.7793,490.3289 L506.949,490.5741 L508.7323,491.8098 L510.4062,492.8872 L512.2403,494.1963 L514.0819,495.5162 L515.6855,496.4922 L515.6855,495.8511 L517.6855,497.0953 L519.6855,496.2286 L521.6855,496.9667 L523.6855,496.0522 L525.6855,496.4922" fill="none" style="stroke:#FF9900;stroke-width:1;"/><path d="M214.4951,286.1172 L214.4951,286.304 L216.4951,285.7489 L218.4951,286.289 L220.4951,286.4725 L222.4951,285.4831 L224.4951,286.1172 L224.4951,286.1172 L224.4665,286.0978 L225.3343,287.4797 L226.3462,288.9594 L227.4583,290.507 L228.2252,291.8204 L229.4756,293.4618 L229.7167,293.5107 L229.9862,297.2788 L230.9598,301.1896 L232.0192,305.1178 L232.5788,308.9448 L233.4014,312.825 L233.4314,312.8289 L233.7227,315.4104 L234.151,318.0098 L234.5131,320.6006 L235.0013,323.2077 L235.0786,325.7615 L235.3752,325.7933 L235.6879,328.6814 L235.8093,331.5491 L236.2107,334.4468 L236.6253,337.3458 L236.624,340.2004 L236.3048,340.1712 L237.4985,346.5042 L237.6412,352.7411 L238.5829,359.051 L238.7018,365.2857 L239.4951,371.582 L239.4648,371.5793 L240.3976,377.8884 L240.622,384.1327 L241.2644,390.4153 L241.9419,396.701 L242.3662,402.9637 L242.5502,402.9833 L242.6736,405.8512 L243.1113,408.7528 L243.0405,411.5999 L243.7282,414.5282 L243.9116,417.4025 L244.1532,417.4339 L244.443,420.0153 L244.8527,422.6122 L244.705,425.1369 L244.966,427.7145 L245.5889,430.3391 L245.3182,430.2842 L246.3484,434.2065 L247.0736,438.067 L248.2411,442.0172 L248.6534,445.8142 L249.5146,449.7022 L249.3885,449.6167 L250.5947,451.2281 L251.2615,452.4738 L252.312,453.9795 L253.7377,455.7398 L254.4951,457.0469 L254.4951,457.4341 L256.4951,457.6998 L258.4951,456.7608 L260.4951,457.3306 L262.4951,457.5717 L264.4951,457.0469" fill="none" style="stroke:#FF9900;stroke-width:1;"/><a href="/use-case/client-360/social-media/" target="_top" title="/use-case/client-360/social-media/" xlink:actuate="onRequest" xlink:href="/use-case/client-360/social-media/" xlink:show="new" xlink:title="/use-case/client-360/social-media/" xlink:type="simple"><text fill="#90EE90" font-family="'Roboto'" font-size="14" lengthAdjust="spacing" textLength="88.0059" x="271.4951" y="540.7842">Social Media</text></a><a href="/use-case/client-360/social-media/interest-graph/" target="_top" title="/use-case/client-360/social-media/interest-graph/" xlink:actuate="onRequest" xlink:href="/use-case/client-360/social-media/interest-graph/" xlink:show="new" xlink:title="/use-case/client-360/social-media/interest-graph/" xlink:type="simple"><text fill="#90EE90" font-family="'Roboto'" font-size="14" lengthAdjust="spacing" textLength="101.6504" x="420.501" y="527.6357">Interest Graph</text></a><path d="M363.501,535.9375 L363.501,536.1243 L365.501,535.5692 L367.501,536.1093 L369.501,536.2928 L371.501,535.3034 L373.501,535.9375 L373.501,535.9375 L373.4871,535.9059 L376.4249,534.449 L379.4326,533.1517 L382.4888,531.9652 L385.3776,530.3967 L388.501,529.3633 L388.5998,529.5886 L391.3885,527.7919 L394.4657,526.6531 L397.578,525.5946 L400.4857,524.069 L403.501,522.7891 L403.501,522.8497 L405.501,522.7607 L407.501,522.9478 L409.501,523.0016 L411.501,523.3097 L413.501,522.7891" fill="none" style="stroke:#FF9900;stroke-width:1;"/><a href="/use-case/client-360/social-media/social-graph/" target="_top" title="/use-case/client-360/social-media/social-graph/" xlink:actuate="onRequest" xlink:href="/use-case/client-360/social-media/social-graph/" xlink:show="new" xlink:title="/use-case/client-360/social-media/social-graph/" xlink:type="simple"><text fill="#90EE90" font-family="'Roboto'" font-size="14" lengthAdjust="spacing" textLength="88.9014" x="420.501" y="553.9326">Social Graph</text></a><path d="M363.501,535.9375 L363.501,536.1243 L365.501,535.5692 L367.501,536.1093 L369.501,536.2928 L371.501,535.3034 L373.501,535.9375 L373.501,535.9375 L373.4871,535.9059 L376.4249,537.0787 L379.4326,538.4111 L382.4888,539.8543 L385.3776,540.9154 L388.501,542.5117 L388.5998,542.7371 L391.3885,543.57 L394.4657,545.0609 L397.578,546.6321 L400.4857,547.7362 L403.501,549.0859 L403.501,549.1466 L405.501,549.0575 L407.501,549.2446 L409.501,549.2985 L411.501,549.6066 L413.501,549.0859" fill="none" style="stroke:#FF9900;stroke-width:1;"/><path d="M214.4951,286.1172 L214.4951,286.304 L216.4951,285.7489 L218.4951,286.289 L220.4951,286.4725 L222.4951,285.4831 L224.4951,286.1172 L224.4951,286.1172 L224.4638,286.1027 L225.3193,288.1843 L226.3327,290.3392 L227.4559,292.5451 L228.2008,294.5754 L229.4756,296.8517 L229.7182,296.8925 L229.6139,299.2692 L230.218,301.7652 L230.9086,304.2756 L231.0962,306.7015 L231.5483,309.1719 L231.5785,309.1754 L231.9048,312.3662 L232.3684,315.5729 L232.7657,318.772 L233.2893,321.9857 L233.4014,325.1516 L233.6984,325.178 L234.0375,328.9597 L234.185,332.7245 L234.6129,336.5142 L235.054,340.305 L235.0786,344.0589 L234.7589,344.0355 L235.6885,348.3015 L235.5654,352.4905 L236.2425,356.738 L236.0955,360.9252 L236.624,365.1619 L236.5329,365.1562 L238.1851,374.3968 L237.7076,383.504 L238.4868,392.6899 L239.3715,401.8825 L239.4951,411.0273 L240.049,411.062 L240.0641,420.2001 L241.0258,429.3974 L240.456,438.4989 L242.1704,447.7434 L242.3662,456.8928 L242.6092,456.9106 L242.8723,461.1278 L243.2561,465.3539 L243.0793,469.5389 L243.3135,473.754 L243.9116,477.9958 L243.6365,477.9714 L244.221,481.7749 L244.4955,485.551 L245.2196,489.3669 L245.1761,493.1148 L245.5889,496.9031 L245.4374,496.8855 L246.0602,500.1107 L246.0357,503.2608 L246.4715,506.4643 L247.3578,509.7201 L247.4419,512.8828 L247.6328,512.9149 L248.1784,515.401 L248.13,517.7872 L248.8254,520.2985 L249.3589,522.7825 L249.5146,525.203 L249.3242,525.1147 L250.4721,527.332 L251.5576,529.5204 L252.7657,531.7656 L253.4973,533.7898 L254.4951,535.9375 L254.4951,536.3487 L256.4951,535.4452 L258.4951,535.3355 L260.4951,536.3852 L262.4951,535.3002 L264.4951,535.9375" fill="none" style="stroke:#FF9900;stroke-width:1;"/><!--SRC=[xLdhRnCv4F- -VyKSbOuYRabIIWK88T8qBQL96oKj9uHGvUmwYTMDlMTxMtAd-zzlzfLzvFrO2hhaIxlZyUyt7h_6Cn-K9b8F6RU7n0NBOPHhy-LHsJ1-iscFSGh7PxVDwldbRUsgSTM6uBTtM7vLwRvAgtJgjQlBashxIwGtHQLLhLrKp-fZe0cLg_P9lPtcWRrUxwXNBezLJgykhpCAWOh_CmnrnxXB91b2brXtVIayRjU48sIig2NX2ZLmX2dbZoENoWRZTsbTs7DOVw3xab9k64-1SSlnR0fwGA5FEPN4WJ64WXvsx0ez-0E2Ra2u3JQHTzXJ2n3tL3v8fYayC3q8CTWzvQ2ereptLTu3rn_FQnUNzKu7AZWDmjLCS1WWg8-YiMEFE8gcnj0Yjer0S9YIjSFnIpGMNgVadG6nnOEldKS9FE6W9swu7Vn38vMKpWdj4S_Hy8y1S2gulYH32a_Q0aSldaIoq979L4NY3lkRGkNG-3UDLvLIF0HeCthD0jCZ1_qb73kBv-BKapuTspUb-t5kTMJMjzyk90u_QaijIIHAUBYmLoN9BFzbUImnT0N75HkGhMtwJ3j3Ftf3vo3hHvjeqYMA5aAROR8SuTa_W4Ou3hNydQGA8akuQgWWXLCupx4FI-IeSA8wrqmNJyEufh97B5euKuV-vL5kqHRUVSnYBk4wXBiUCEkEKwNmw4tKLQGUs9Nkiy342VYfrgQqagED2paapcJhb3tSO3sA5nYTGp5MMM1mS1nFeGZaS_23zXdc1Ms9Nr_w8aiBkT2MG6aEfzy-Q-C_XTfXSBZXHOSVUmj_wRD2ua51UD-XxzxXZQW4V_y-cFaEBaygD5wJSswcRTuuSLFYlNo4a3taKeRJxsWi9yvjKIF81Nm53KEDbAR3Nzd_HOsWGF_7b_-lvlx4xb_P-wb5r8qk-DZ-NEYU7r4GOPUNYpxNziMYOORNbqtKWDhBZNtgq2sa9tXZoLN6Zg-BnSkji94lEy7uujPXA35fRFmczjiIE-8thY-jQYrPrzDqUdFQolZrd8ktYL8_cFqfDAC4WtAfnNhCGYU4T_EK9zKwTYqSDaaYcxtJqpTli3tNc0xzZEUr81C2Bu_AK8AQfxGOuaFQJumyVtuBNx-MF4LD2m-RKf8pALcHdYcfGuAtne2vvf1mV98EKIc5r4vfG7EiyUqRucz0G2mBtQOpdDLGjbKMpUxnHP2Z2OLRv0aE0IixcbeesoABGucTeMYWO8lumdM5r1xFE-mgaUVPPfBTSV5WZeGdpPYs11SeWoye6w-k1HPF0KbcLA0zGkBMJC_eMBW6ChuTVLGwCXtY-Pcb41l5FYuTGMCiXlrgi_5iTGvBI8hknpzsRgr8YZlDboy_dzFm9Hl610fX_Sy8LwsErhTTdBMparPxzRu3rX-Od6hp0PVEmCHJ5MV8zl1ABC57R8DBgk5FlmtEaxRLUPYDZVv17Qneynwd9_uemNcc4Jwd6bTdSgcBjhU4m_2PInnd1FNlhb3KXbRmSb6mtwgtr1ghGZ9rbraERHHij0uKuM4AgGIT-D_v-pLz9YYJSDl4CutJ62Lz2oZutJ_SuiO5riq7xdgA-LTPbkquacwDfaU6p1bbIKu3sTOet7XXP5d6wsLhH4fOBC_I2MGJ53CP8emXjHaPzsxwNmjCotGCqc1KQRClYJl0xHPzmvd_lGfIz17XHFR4A1yeXcHXM6OO7sQMWGgig_pa5OmalbowV97jCXLcfS95qdTsI3mzz9rRgjW6xFpAn7oSwRQiLOjOdMZ9wiEcm0lg3Ul0BrTXs0nvRarXC-WvLOJDWEVN3JR3BgXIa1WreqQGsBT6UI3PKzDg0mdqhB90Obsg8920JbG34iHS8I3NPuagG8ewd_zFiMHJ_waDk6OMV_wvlUgAcbmWcsVf7yl2XGdKHtVTpsNX2hdpHxBh9tLS0MdlnA8rHZTd30jIt9NYSzf5ZMpcxFp_SjQxnFGkCRrBJEyIqxl4z2unlKjCxnBJkyJqeoIcMmwUqpVD1k1EL_wchhmuA1-yUb6fTAacbVB-3VVt0m_oaGp3Ser7u3DZ_wpL08LxnC90dQam0CJkpunFv9v06yCEr7kBLntbdqukOW7K-JsJWlkxqFZqkPae71sQnqn3Xqeq13utZJYFNEUMy5FNR-7c-jHyRJGmsFTm8xy5oesQ7z_84RPr_WC0]--></g></svg>