<svg xmlns="http://www.w3.org/2000/svg" xmlns:xlink="http://www.w3.org/1999/xlink" contentStyleType="text/css" data-diagram-type="MINDMAP" height="97px" preserveAspectRatio="none" style="width:939px;height:97px;" version="1.1" viewBox="0 0 939 97" width="939px" zoomAndPan="magnify"><defs/><g><polygon fill="#4051B5" points="443.5566,30.1328,443.5566,30.343,453.7676,29.7185,463.9786,30.3261,474.1896,30.5325,484.4006,29.4194,494.6116,30.0551,504.8226,29.7063,515.0335,29.7493,525.2445,30.0647,535.4555,29.4414,545.6665,30.6865,555.8775,29.5025,566.0885,29.935,576.2995,30.5648,586.5104,30.047,596.7214,30.2011,606.9324,30.1009,617.1434,30.3113,627.3544,30.3719,637.5654,30.7185,647.7764,30.1328,647.862,30.3395,648.4287,30.5763,648.9402,30.6799,649.5326,30.9785,650.1287,31.2863,650.6048,31.3044,650.3827,31.2124,651.0481,31.9566,650.9821,32.3979,651.4721,33.0695,651.3896,33.504,651.7764,34.1328,651.7535,34.1328,652.0236,39.5594,651.7601,44.9859,651.8115,50.4125,651.8892,55.8391,651.7764,61.2656,651.9045,61.3187,651.5408,61.8308,651.3962,62.4336,650.8971,62.8897,650.9267,63.5646,650.6048,64.0941,650.6747,64.2629,650.0958,64.4653,649.5516,64.7515,648.8461,64.6482,648.2589,64.8305,647.7764,65.2656,647.7764,64.6442,637.5654,65.2067,627.3544,65.0691,617.1434,65.947,606.9324,65.0909,596.7214,64.9226,586.5104,65.4939,576.2995,64.5988,566.0885,64.7465,555.8775,65.9146,545.6665,65.7013,535.4555,66.0001,525.2445,64.9438,515.0335,65.5848,504.8226,65.856,494.6116,64.7932,484.4006,65.1698,474.1896,65.3916,463.9786,65.9174,453.7676,65.2614,443.5566,65.2656,443.6156,65.4081,442.9203,64.8608,442.3389,64.5884,441.9238,64.7178,441.2024,64.1076,440.7282,64.0941,440.885,64.159,440.5575,63.5547,440.1771,62.9285,439.9163,62.3519,439.9322,61.8898,439.5566,61.2656,439.4569,61.2656,439.7539,55.8391,439.3724,50.4125,439.7624,44.9859,439.7181,39.5594,439.5566,34.1328,439.6321,34.1641,439.8055,33.5732,440.249,33.0941,440.4485,32.514,440.546,31.8917,440.7282,31.3044,440.7624,31.387,441.2773,31.03,441.951,31.0564,442.445,30.6491,443.013,30.4203,443.5566,30.1328" style="stroke:#FF6F00;stroke-width:1.5;"/><text fill="#FFFFFF" font-family="'Roboto'" font-size="13" lengthAdjust="spacing" textLength="192.2197" x="449.5566" y="52.1997">Anti Money Laundering (AML)</text><a href="/use-case/client-360/know-your-customer/anti-money-laundering/correspondent-based-aml/" target="_top" title="/use-case/client-360/know-your-customer/anti-money-laundering/correspondent-based-aml/" xlink:actuate="onRequest" xlink:href="/use-case/client-360/know-your-customer/anti-money-laundering/correspondent-based-aml/" xlink:show="new" xlink:title="/use-case/client-360/know-your-customer/anti-money-laundering/correspondent-based-aml/" xlink:type="simple"><text fill="#4051B5" font-family="'Roboto'" font-size="13" lengthAdjust="spacing" textLength="171.939" x="708.7764" y="27.0669">Correspondent-based AML</text></a><path d="M651.7764,47.6992 L651.7764,47.886 L653.7764,47.3309 L655.7764,47.871 L657.7764,48.0545 L659.7764,47.0651 L661.7764,47.6992 L661.7764,47.6992 L661.7542,47.6727 L664.6546,45.0406 L667.6669,42.542 L670.7569,40.1362 L673.579,37.4106 L676.7764,35.1328 L676.9344,35.3214 L679.5965,32.4048 L682.7199,30.0389 L685.8997,27.7401 L688.7519,25.0505 L691.7764,22.5664 L691.7764,22.6271 L693.7764,22.538 L695.7764,22.7251 L697.7764,22.779 L699.7764,23.087 L701.7764,22.5664" fill="none" style="stroke:#FF6F00;stroke-width:1;"/><a href="/use-case/client-360/know-your-customer/anti-money-laundering/network-based-aml/" target="_top" title="/use-case/client-360/know-your-customer/anti-money-laundering/network-based-aml/" xlink:actuate="onRequest" xlink:href="/use-case/client-360/know-your-customer/anti-money-laundering/network-based-aml/" xlink:show="new" xlink:title="/use-case/client-360/know-your-customer/anti-money-laundering/network-based-aml/" xlink:type="simple"><text fill="#4051B5" font-family="'Roboto'" font-size="13" lengthAdjust="spacing" textLength="129.8032" x="708.7764" y="52.1997">Network Based AML</text></a><path d="M651.7764,47.6992 L651.7764,47.886 L653.7764,47.3309 L655.7764,47.871 L657.7764,48.0545 L659.7764,47.0651 L661.7764,47.6992 L661.7764,47.6992 L661.7764,47.6647 L667.7764,47.5097 L673.7764,47.5288 L679.7764,47.6689 L685.7764,47.3919 L691.7764,47.6992 L691.7764,48.1913 L693.7764,47.139 L695.7764,47.5234 L697.7764,48.0832 L699.7764,47.623 L701.7764,47.6992" fill="none" style="stroke:#FF6F00;stroke-width:1;"/><a href="/use-case/client-360/know-your-customer/anti-money-laundering/transaction-based-aml/" target="_top" title="/use-case/client-360/know-your-customer/anti-money-laundering/transaction-based-aml/" xlink:actuate="onRequest" xlink:href="/use-case/client-360/know-your-customer/anti-money-laundering/transaction-based-aml/" xlink:show="new" xlink:title="/use-case/client-360/know-your-customer/anti-money-laundering/transaction-based-aml/" xlink:type="simple"><text fill="#4051B5" font-family="'Roboto'" font-size="13" lengthAdjust="spacing" textLength="214.4619" x="708.7764" y="77.3325">Transaction / Finance based AML</text></a><path d="M651.7764,47.6992 L651.7764,47.886 L653.7764,47.3309 L655.7764,47.871 L657.7764,48.0545 L659.7764,47.0651 L661.7764,47.6992 L661.7764,47.6992 L661.7542,47.6727 L664.6546,50.0672 L667.6669,52.5951 L670.7569,55.2158 L673.579,57.5168 L676.7764,60.2656 L676.9344,60.4542 L679.5965,62.5642 L682.7199,65.2248 L685.8997,67.9526 L688.7519,70.2895 L691.7764,72.832 L691.7764,72.8927 L693.7764,72.8036 L695.7764,72.9907 L697.7764,73.0446 L699.7764,73.3526 L701.7764,72.832" fill="none" style="stroke:#FF6F00;stroke-width:1;"/><a href="/use-case/client-360/know-your-customer/" target="_top" title="/use-case/client-360/know-your-customer/" xlink:actuate="onRequest" xlink:href="/use-case/client-360/know-your-customer/" xlink:show="new" xlink:title="/use-case/client-360/know-your-customer/" xlink:type="simple"><text fill="#4051B5" font-family="'Roboto'" font-size="13" lengthAdjust="spacing" textLength="136.2397" x="246.3169" y="52.1997">Know Your Customer</text></a><a href="/use-case/client-360/" target="_top" title="/use-case/client-360/" xlink:actuate="onRequest" xlink:href="/use-case/client-360/" xlink:show="new" xlink:title="/use-case/client-360/" xlink:type="simple"><text fill="#4051B5" font-family="'Roboto'" font-size="13" lengthAdjust="spacing" textLength="171.3169" x="14" y="52.1997">Client 360 / Customer 360</text></a><path d="M242.3169,47.6992 L242.3169,47.886 L240.3169,47.3309 L238.3169,47.871 L236.3169,48.0545 L234.3169,47.0651 L232.3169,47.6992 L232.3169,47.6992 L232.3169,47.6647 L226.3169,47.5097 L220.3169,47.5288 L214.3169,47.6689 L208.3169,47.3919 L202.3169,47.6992 L202.3169,48.1913 L200.3169,47.139 L198.3169,47.5234 L196.3169,48.0832 L194.3169,47.623 L192.3169,47.6992" fill="none" style="stroke:#FF6F00;stroke-width:1;"/><path d="M439.5566,47.6992 L439.5566,47.886 L437.5566,47.3309 L435.5566,47.871 L433.5566,48.0545 L431.5566,47.0651 L429.5566,47.6992 L429.5566,47.6992 L429.5566,47.6647 L423.5566,47.5097 L417.5566,47.5288 L411.5566,47.6689 L405.5566,47.3919 L399.5566,47.6992 L399.5566,48.1913 L397.5566,47.139 L395.5566,47.5234 L393.5566,48.0832 L391.5566,47.623 L389.5566,47.6992" fill="none" style="stroke:#FF6F00;stroke-width:1;"/><!--SRC=[xLZRRjiu47tNLyms3scHkh7RD2YAegZZ9Bt4ZWCxwQ8eYe2Mw9YmHBea5QztiV- -GqcsBf4btxHjWUh99eTdBYI7C-UTqaHgZt778nCWNBEQ9pYTrLpYSuTAnkyiwm-73XcdSFB-jjFyU7dRwhQxFGY-lQFwoyRWPLAaVzRgNfusUryYkHoHgsRheld-R07qGAJREpth9VN0td1uFApN5oBdtSlhb40WOhw5IBFNw_wPbfcZM6hC-8H8ui60sECxAT3Rbd25X3qj2LSuHxbEY7sOJQXq6Hz7Kf75rZumRhk-Gq6FADnHJYLnOR5EmH2b1qAFdeBBxaOQO-o0G-GOLse1ufxAgMIQmfJfKOZ1xYa7HRN6uAjiJAu_V6nTN9xr-z30ZH4JpGI74O8Q58qBXyHLD67u5N4S18AZn5WlT5UYiV0gCTuV4KTCZNGMPU7-ZJaLhZ4e54d8dD8XyLqD_rW0vuBhI-9HUDGJwBru58s5qOitBnhkixyfD8wiVvDuJId5D41RicePc9wv62_XEccy2UuqkQCB-tAMdsGEG-h4ctaXqVreBd58KL6iXmjdNIMf2x6g7bju4xohF8pungOljJECe- -vpzDnT8Wc0w9e9MfJccnN-Cx_e4QuBhNDJL8LAOjrjL102hToFIS6biXPvOhEyCtGrQjXN5Cv93QjN5EVVlSfj-aLFepCPXDy54Euwn6pnvmgXQat5bUHU61NSas9YG_WSwrDICMfZGlf4VVXRCuTRhCXRMEsBb2n42anE4Z7EIg2yGByO7w9US5S7DSNPiZMGfRQ4WWLw3Jpoox-FhIEWkHcYfjzs2lzahb2Og8W_CwbRzxWYwW4V_issFa-7aygD3wJ1I_JBb-S-LGSlMo5a4vo2SFfNsWi9-vjLHvaIi2At50pfQdtAyU_AWygZF_yyV_LmX_R_Ij7Ft681j43FxS_KxfdFGegxFfgrUV6iIXpCto-7A96r5dDzrpNRLHFyCMIw_YEtKNvSQlCyrKtUFKUQjw19Xke5-7priMcKZ9iGfm8pVIWynxVT2SAQk3vIfiMWW8PejTppPa-9g4lwguB6hH4mrraQhg6YIEJQJEK9ZgigihtRUd6O2cWjMG3NzFb4d5Xa_QWi0zBjIb4gUqjBLAs3vre_zI4scp8R8nFKC7WLav7Xa3GcDYmJ5PcuuDDVWe3rwUunvnJKmyf4BusqtczQcMMnxf8kjXhMDP14vi7w1Z22TeBmWaUDplj9rQjTWjVlnxwYjPiJDo7jikmrwszEAuVZhcOrcR2bpKRJp6UONa85pW6Nt0CMj7Ojs-8iHm4Mi5lmDzmk5Xa_kB2WuDrbEVoPeUsa98gRD4TizGyFawDU2xgUZW1wFAEr7AgfqAEamelmo7Sujsg2gWo4dJEINNNyJ16zfnnOlgZf9_lA1xcy41RrhjLECZTCNO_EJSspxDh46Ff9RamQr5YyTfiJeWpUVBAprdL4X9i5x35d5SnJhuj6x5SwojQaTVQ5hY4oTe4VZNkQZlaGhPgE-W2Vcexu696QZliYZYesAWbx5DitmR4KtodybYd67ePuHHRbwZ8Oj07F5ECcA6OCcjMu9SIghFCKa9BcbHANC0D-Q7YlBtkYNfuGBRdVtwKXQMj-GyFtSzbuHgip0-owoSDN0M4IcpH1juL-512dZIgPqkgycpfxko03Tc2piXzh7TEPSI8-O7BPJ1Iqwd7Ch9uMIMz8cjHRbGfV06pi0Fqtrp2RouXZqkuSX7zfjE6Uonjp9h6i-Vrvo-VDHe3gacZ_lY66ujuq4WolBoQUVI9zVZzLHiKMedO3bFXVSFbJwnFv9v0p-T6xZLq9vH_EhsO3s1pSS-au9vX7ZvzxiG2nqUr4wQnZfTe27pkMFDKTiPjOJY7rt1pVLvxPRKnI_lOWhy6ogqMtX4jPpZN_my0]--></g></svg>