<svg xmlns="http://www.w3.org/2000/svg" xmlns:xlink="http://www.w3.org/1999/xlink" contentStyleType="text/css" data-diagram-type="MINDMAP" height="197px" preserveAspectRatio="none" style="width:893px;height:197px;" version="1.1" viewBox="0 0 893 197" width="893px" zoomAndPan="magnify"><defs/><g><polygon fill="#4051B5" points="241.9243,80.3984,241.9243,80.6086,251.9338,79.9841,261.9433,80.5917,271.9528,80.7981,281.9623,79.685,291.9717,80.3207,301.9812,79.9719,311.9907,80.0149,322.0002,80.3303,332.0097,79.7071,342.0192,80.9521,352.0287,79.7682,362.0382,80.2007,372.0476,80.8304,382.0571,80.3127,392.0666,80.4667,402.0761,80.3665,412.0856,80.577,422.0951,80.6376,432.1046,80.9841,442.114,81.0695,452.1235,80.3984,452.2102,80.6076,452.7217,80.7112,453.314,81.0098,453.9102,81.3176,454.2943,81.1136,454.952,81.57,455.1609,81.6566,455.095,82.0979,455.585,82.7695,455.5025,83.2039,455.8681,83.824,456.1235,84.3984,456.3707,84.3984,456.1073,89.825,456.1586,95.2516,456.2364,100.6781,456.2623,106.1047,456.1235,111.5313,456.1223,111.5308,455.9777,112.1336,455.4786,112.5896,455.5082,113.2646,455.3551,113.8639,454.952,114.3597,455.0087,114.4966,454.4645,114.7828,453.759,114.6795,453.1717,114.8618,452.61,115.1056,452.1235,115.5313,452.1235,115.4724,442.114,115.3347,432.1046,116.2127,422.0951,115.3566,412.0856,115.1882,402.0761,115.7595,392.0666,114.8644,382.0571,115.0121,372.0476,116.1802,362.0382,115.9669,352.0287,116.2657,342.0192,115.2095,332.0097,115.8504,322.0002,116.1217,311.9907,115.0588,301.9812,115.4354,291.9717,115.6572,281.9623,116.183,271.9528,115.5271,261.9433,115.9938,251.9338,114.9775,241.9243,115.5313,241.8379,115.3227,241.4229,115.452,240.7015,114.8418,240.2922,114.985,239.6879,114.6576,239.0959,114.3597,239.0134,114.3255,238.7526,113.7489,238.7685,113.2868,238.3008,112.6244,238.3409,112.1724,237.9243,111.5313,237.7401,111.5313,238.1301,106.1047,238.0858,100.6781,238.006,95.2516,237.9401,89.825,237.9243,84.3984,238.1481,84.4911,238.3476,83.911,238.4451,83.2887,238.7099,82.7356,238.8215,82.1191,239.0959,81.57,239.1873,81.7906,239.6813,81.3834,240.2493,81.1545,240.7153,80.6797,241.3069,80.508,241.9243,80.3984" style="stroke:#FF6F00;stroke-width:1.5;"/><text fill="#FFFFFF" font-family="'Roboto'" font-size="13" lengthAdjust="spacing" textLength="198.1992" x="247.9243" y="102.4653">Ownership &amp; Capital Structure</text><a href="/use-case/legal-entity-management/ownership-and-capital-structure/control/" target="_top" title="/use-case/legal-entity-management/ownership-and-capital-structure/control/" xlink:actuate="onRequest" xlink:href="/use-case/legal-entity-management/ownership-and-capital-structure/control/" xlink:show="new" xlink:title="/use-case/legal-entity-management/ownership-and-capital-structure/control/" xlink:type="simple"><text fill="#4051B5" font-family="'Roboto'" font-size="13" lengthAdjust="spacing" textLength="47.2773" x="513.1235" y="52.1997">Control</text></a><path d="M456.1235,97.9648 L456.1235,98.1517 L458.1235,97.5966 L460.1235,98.1367 L462.1235,98.3201 L464.1235,97.3307 L466.1235,97.9648 L466.1235,97.9648 L466.1007,97.9389 L467.7794,96.2519 L469.5733,94.6954 L471.4472,93.2297 L473.0453,91.4512 L475.0298,90.1108 L475.2618,90.1927 L475.9844,86.5619 L477.3844,83.1701 L478.8671,79.8074 L479.8688,76.2751 L481.1235,72.832 L481.1521,72.8421 L482.3289,69.3715 L483.6359,65.9469 L484.88,62.5001 L486.244,59.0956 L487.2173,55.5532 L487.4145,55.7769 L489.1982,54.2088 L490.8546,52.4965 L492.6973,50.9954 L494.5487,49.5041 L496.1235,47.6992 L496.1235,47.0582 L498.1235,48.3023 L500.1235,47.4357 L502.1235,48.1737 L504.1235,47.2592 L506.1235,47.6992" fill="none" style="stroke:#FF6F00;stroke-width:1;"/><a href="/use-case/legal-entity-management/ownership-and-capital-structure/corporate-actions/" target="_top" title="/use-case/legal-entity-management/ownership-and-capital-structure/corporate-actions/" xlink:actuate="onRequest" xlink:href="/use-case/legal-entity-management/ownership-and-capital-structure/corporate-actions/" xlink:show="new" xlink:title="/use-case/legal-entity-management/ownership-and-capital-structure/corporate-actions/" xlink:type="simple"><text fill="#4051B5" font-family="'Roboto'" font-size="13" lengthAdjust="spacing" textLength="116.835" x="513.1235" y="77.3325">Corporate Actions</text></a><a href="/use-case/legal-entity-management/ownership-and-capital-structure/corporate-actions/dividends/" target="_top" title="/use-case/legal-entity-management/ownership-and-capital-structure/corporate-actions/dividends/" xlink:actuate="onRequest" xlink:href="/use-case/legal-entity-management/ownership-and-capital-structure/corporate-actions/dividends/" xlink:show="new" xlink:title="/use-case/legal-entity-management/ownership-and-capital-structure/corporate-actions/dividends/" xlink:type="simple"><text fill="#4051B5" font-family="'Roboto'" font-size="13" lengthAdjust="spacing" textLength="64.4414" x="690.9585" y="27.0669">Dividends</text></a><path d="M633.9585,72.832 L633.9585,73.0189 L635.9585,72.4637 L637.9585,73.0038 L639.9585,73.1873 L641.9585,72.1979 L643.9585,72.832 L643.9585,72.832 L643.9357,72.8061 L645.6144,71.1191 L647.4083,69.5626 L649.2822,68.0969 L650.8803,66.3184 L652.8647,64.978 L653.0968,65.0599 L653.8193,61.4291 L655.2194,58.0373 L656.702,54.6746 L657.7038,51.1423 L658.9585,47.6992 L658.9871,47.7093 L660.1639,44.2387 L661.4708,40.8141 L662.715,37.3673 L664.079,33.9627 L665.0522,30.4204 L665.2495,30.6441 L667.0332,29.076 L668.6896,27.3637 L670.5323,25.8625 L672.3837,24.3713 L673.9585,22.5664 L673.9585,21.9254 L675.9585,23.1695 L677.9585,22.3028 L679.9585,23.0409 L681.9585,22.1264 L683.9585,22.5664" fill="none" style="stroke:#FF6F00;stroke-width:1;"/><a href="/use-case/legal-entity-management/ownership-and-capital-structure/corporate-actions/merger-and-acquisition-history/" target="_top" title="/use-case/legal-entity-management/ownership-and-capital-structure/corporate-actions/merger-and-acquisition-history/" xlink:actuate="onRequest" xlink:href="/use-case/legal-entity-management/ownership-and-capital-structure/corporate-actions/merger-and-acquisition-history/" xlink:show="new" xlink:title="/use-case/legal-entity-management/ownership-and-capital-structure/corporate-actions/merger-and-acquisition-history/" xlink:type="simple"><text fill="#4051B5" font-family="'Roboto'" font-size="13" lengthAdjust="spacing" textLength="186.3672" x="690.9585" y="52.1997">Merger &amp; Acquisition History</text></a><path d="M633.9585,72.832 L633.9585,73.0189 L635.9585,72.4637 L637.9585,73.0038 L639.9585,73.1873 L641.9585,72.1979 L643.9585,72.832 L643.9585,72.832 L643.9363,72.8056 L646.8368,70.1734 L649.849,67.6748 L652.939,65.269 L655.7612,62.5434 L658.9585,60.2656 L659.1165,60.4542 L661.7786,57.5376 L664.9021,55.1717 L668.0818,52.8729 L670.934,50.1833 L673.9585,47.6992 L673.9585,47.7599 L675.9585,47.6708 L677.9585,47.8579 L679.9585,47.9118 L681.9585,48.2198 L683.9585,47.6992" fill="none" style="stroke:#FF6F00;stroke-width:1;"/><a href="/use-case/legal-entity-management/ownership-and-capital-structure/corporate-actions/parents-and-subsidiaries/" target="_top" title="/use-case/legal-entity-management/ownership-and-capital-structure/corporate-actions/parents-and-subsidiaries/" xlink:actuate="onRequest" xlink:href="/use-case/legal-entity-management/ownership-and-capital-structure/corporate-actions/parents-and-subsidiaries/" xlink:show="new" xlink:title="/use-case/legal-entity-management/ownership-and-capital-structure/corporate-actions/parents-and-subsidiaries/" xlink:type="simple"><text fill="#4051B5" font-family="'Roboto'" font-size="13" lengthAdjust="spacing" textLength="146.3452" x="690.9585" y="77.3325">Parents &amp; Subsidiaries</text></a><path d="M633.9585,72.832 L633.9585,73.0189 L635.9585,72.4637 L637.9585,73.0038 L639.9585,73.1873 L641.9585,72.1979 L643.9585,72.832 L643.9585,72.832 L643.9585,72.7975 L649.9585,72.6425 L655.9585,72.6616 L661.9585,72.8017 L667.9585,72.5248 L673.9585,72.832 L673.9585,73.3242 L675.9585,72.2718 L677.9585,72.6562 L679.9585,73.216 L681.9585,72.7558 L683.9585,72.832" fill="none" style="stroke:#FF6F00;stroke-width:1;"/><a href="/use-case/legal-entity-management/ownership-and-capital-structure/corporate-actions/spin-offs/" target="_top" title="/use-case/legal-entity-management/ownership-and-capital-structure/corporate-actions/spin-offs/" xlink:actuate="onRequest" xlink:href="/use-case/legal-entity-management/ownership-and-capital-structure/corporate-actions/spin-offs/" xlink:show="new" xlink:title="/use-case/legal-entity-management/ownership-and-capital-structure/corporate-actions/spin-offs/" xlink:type="simple"><text fill="#4051B5" font-family="'Roboto'" font-size="13" lengthAdjust="spacing" textLength="56.9258" x="690.9585" y="102.4653">Spin-offs</text></a><path d="M633.9585,72.832 L633.9585,73.0189 L635.9585,72.4637 L637.9585,73.0038 L639.9585,73.1873 L641.9585,72.1979 L643.9585,72.832 L643.9585,72.832 L643.9363,72.8056 L646.8368,75.2 L649.849,77.7279 L652.939,80.3487 L655.7612,82.6496 L658.9585,85.3984 L659.1165,85.5871 L661.7786,87.697 L664.9021,90.3576 L668.0818,93.0854 L670.934,95.4223 L673.9585,97.9648 L673.9585,98.0255 L675.9585,97.9364 L677.9585,98.1235 L679.9585,98.1774 L681.9585,98.4855 L683.9585,97.9648" fill="none" style="stroke:#FF6F00;stroke-width:1;"/><a href="/use-case/legal-entity-management/ownership-and-capital-structure/corporate-actions/stock-splits/" target="_top" title="/use-case/legal-entity-management/ownership-and-capital-structure/corporate-actions/stock-splits/" xlink:actuate="onRequest" xlink:href="/use-case/legal-entity-management/ownership-and-capital-structure/corporate-actions/stock-splits/" xlink:show="new" xlink:title="/use-case/legal-entity-management/ownership-and-capital-structure/corporate-actions/stock-splits/" xlink:type="simple"><text fill="#4051B5" font-family="'Roboto'" font-size="13" lengthAdjust="spacing" textLength="75.7085" x="690.9585" y="127.5981">Stock Splits</text></a><path d="M633.9585,72.832 L633.9585,73.0189 L635.9585,72.4637 L637.9585,73.0038 L639.9585,73.1873 L641.9585,72.1979 L643.9585,72.832 L643.9585,72.832 L643.9357,72.8061 L645.6144,74.2607 L647.4083,75.8458 L649.2822,77.5217 L650.8803,78.8848 L652.8647,80.686 L653.0968,80.7679 L653.8193,84.0486 L655.2194,87.5683 L656.702,91.1172 L657.7038,94.4964 L658.9585,97.9648 L658.9871,97.9749 L660.1639,101.4159 L661.4708,104.9028 L662.715,108.3675 L664.079,111.8745 L665.0522,115.2437 L665.2495,115.4673 L667.0332,117.0409 L668.6896,118.4701 L670.5323,120.1106 L672.3837,121.7609 L673.9585,123.0977 L673.9585,122.4566 L675.9585,123.7008 L677.9585,122.8341 L679.9585,123.5722 L681.9585,122.6576 L683.9585,123.0977" fill="none" style="stroke:#FF6F00;stroke-width:1;"/><path d="M456.1235,97.9648 L456.1235,98.1517 L458.1235,97.5966 L460.1235,98.1367 L462.1235,98.3201 L464.1235,97.3307 L466.1235,97.9648 L466.1235,97.9648 L466.1014,97.9384 L469.0018,95.3063 L472.0141,92.8076 L475.1041,90.4018 L477.9262,87.6762 L481.1235,85.3984 L481.2816,85.5871 L483.9436,82.6704 L487.0671,80.3045 L490.2468,78.0058 L493.0991,75.3161 L496.1235,72.832 L496.1235,72.8927 L498.1235,72.8036 L500.1235,72.9907 L502.1235,73.0446 L504.1235,73.3526 L506.1235,72.832" fill="none" style="stroke:#FF6F00;stroke-width:1;"/><a href="/use-case/legal-entity-management/ownership-and-capital-structure/issued-capital/" target="_top" title="/use-case/legal-entity-management/ownership-and-capital-structure/issued-capital/" xlink:actuate="onRequest" xlink:href="/use-case/legal-entity-management/ownership-and-capital-structure/issued-capital/" xlink:show="new" xlink:title="/use-case/legal-entity-management/ownership-and-capital-structure/issued-capital/" xlink:type="simple"><text fill="#4051B5" font-family="'Roboto'" font-size="13" lengthAdjust="spacing" textLength="91.584" x="513.1235" y="102.4653">Issued Capital</text></a><path d="M456.1235,97.9648 L456.1235,98.1517 L458.1235,97.5966 L460.1235,98.1367 L462.1235,98.3201 L464.1235,97.3307 L466.1235,97.9648 L466.1235,97.9648 L466.1235,97.9303 L472.1235,97.7753 L478.1235,97.7944 L484.1235,97.9346 L490.1235,97.6576 L496.1235,97.9648 L496.1235,98.457 L498.1235,97.4046 L500.1235,97.7891 L502.1235,98.3488 L504.1235,97.8886 L506.1235,97.9648" fill="none" style="stroke:#FF6F00;stroke-width:1;"/><a href="/use-case/legal-entity-management/ownership-and-capital-structure/ownership/" target="_top" title="/use-case/legal-entity-management/ownership-and-capital-structure/ownership/" xlink:actuate="onRequest" xlink:href="/use-case/legal-entity-management/ownership-and-capital-structure/ownership/" xlink:show="new" xlink:title="/use-case/legal-entity-management/ownership-and-capital-structure/ownership/" xlink:type="simple"><text fill="#4051B5" font-family="'Roboto'" font-size="13" lengthAdjust="spacing" textLength="69.3228" x="513.1235" y="127.5981">Ownership</text></a><path d="M456.1235,97.9648 L456.1235,98.1517 L458.1235,97.5966 L460.1235,98.1367 L462.1235,98.3201 L464.1235,97.3307 L466.1235,97.9648 L466.1235,97.9648 L466.1014,97.9384 L469.0018,100.3328 L472.0141,102.8608 L475.1041,105.4815 L477.9262,107.7824 L481.1235,110.5313 L481.2816,110.7199 L483.9436,112.8298 L487.0671,115.4904 L490.2468,118.2183 L493.0991,120.5552 L496.1235,123.0977 L496.1235,123.1583 L498.1235,123.0693 L500.1235,123.2563 L502.1235,123.3102 L504.1235,123.6183 L506.1235,123.0977" fill="none" style="stroke:#FF6F00;stroke-width:1;"/><a href="/use-case/legal-entity-management/ownership-and-capital-structure/share-capital/" target="_top" title="/use-case/legal-entity-management/ownership-and-capital-structure/share-capital/" xlink:actuate="onRequest" xlink:href="/use-case/legal-entity-management/ownership-and-capital-structure/share-capital/" xlink:show="new" xlink:title="/use-case/legal-entity-management/ownership-and-capital-structure/share-capital/" xlink:type="simple"><text fill="#4051B5" font-family="'Roboto'" font-size="13" lengthAdjust="spacing" textLength="87.5151" x="513.1235" y="152.731">Share Capital</text></a><path d="M456.1235,97.9648 L456.1235,98.1517 L458.1235,97.5966 L460.1235,98.1367 L462.1235,98.3201 L464.1235,97.3307 L466.1235,97.9648 L466.1235,97.9648 L466.1007,97.9389 L467.7794,99.3935 L469.5733,100.9786 L471.4472,102.6545 L473.0453,104.0176 L475.0298,105.8188 L475.2618,105.9007 L475.9844,109.1814 L477.3844,112.7011 L478.8671,116.25 L479.8688,119.6292 L481.1235,123.0977 L481.1521,123.1077 L482.3289,126.5487 L483.6359,130.0356 L484.88,133.5003 L486.244,137.0073 L487.2173,140.3765 L487.4145,140.6002 L489.1982,142.1737 L490.8546,143.6029 L492.6973,145.2434 L494.5487,146.8938 L496.1235,148.2305 L496.1235,147.5894 L498.1235,148.8336 L500.1235,147.9669 L502.1235,148.705 L504.1235,147.7904 L506.1235,148.2305" fill="none" style="stroke:#FF6F00;stroke-width:1;"/><a href="/use-case/legal-entity-management/ownership-and-capital-structure/shares/" target="_top" title="/use-case/legal-entity-management/ownership-and-capital-structure/shares/" xlink:actuate="onRequest" xlink:href="/use-case/legal-entity-management/ownership-and-capital-structure/shares/" xlink:show="new" xlink:title="/use-case/legal-entity-management/ownership-and-capital-structure/shares/" xlink:type="simple"><text fill="#4051B5" font-family="'Roboto'" font-size="13" lengthAdjust="spacing" textLength="44.5732" x="513.1235" y="177.8638">Shares</text></a><path d="M456.1235,97.9648 L456.1235,98.1517 L458.1235,97.5966 L460.1235,98.1367 L462.1235,98.3201 L464.1235,97.3307 L466.1235,97.9648 L466.1235,97.9648 L466.096,97.944 L467.7536,100.2067 L469.5501,102.5745 L471.4431,105.0152 L473.0034,107.2043 L475.0298,109.7458 L475.2675,109.8093 L475.4037,112.0887 L476.2339,114.5534 L477.1489,117.0407 L477.5711,119.3964 L478.2524,121.8214 L478.2821,121.8275 L478.8128,124.587 L479.4786,127.3746 L480.0792,130.1486 L480.8042,132.9484 L481.1235,135.6641 L481.4156,135.7246 L481.9934,138.4939 L482.3828,141.2241 L483.0479,144.0115 L483.726,146.8016 L483.9946,149.5067 L483.6849,149.4241 L484.9305,151.9996 L485.1564,154.303 L486.1574,156.8132 L486.3602,159.1104 L487.2173,161.5823 L487.193,161.5639 L489.2615,164.1372 L490.7625,166.2816 L492.5984,168.6791 L494.4623,171.0978 L496.1235,173.3633 L496.1235,173.7333 L498.1235,173.3598 L500.1235,173.6186 L502.1235,172.8545 L504.1235,173.6161 L506.1235,173.3633" fill="none" style="stroke:#FF6F00;stroke-width:1;"/><a href="/use-case/legal-entity-management/" target="_top" title="/use-case/legal-entity-management/" xlink:actuate="onRequest" xlink:href="/use-case/legal-entity-management/" xlink:show="new" xlink:title="/use-case/legal-entity-management/" xlink:type="simple"><text fill="#4051B5" font-family="'Roboto'" font-size="13" lengthAdjust="spacing" textLength="166.9243" x="14" y="102.4653">Legal Entity Management</text></a><path d="M237.9243,97.9648 L237.9243,98.1517 L235.9243,97.5966 L233.9243,98.1367 L231.9243,98.3201 L229.9243,97.3307 L227.9243,97.9648 L227.9243,97.9648 L227.9243,97.9303 L221.9243,97.7753 L215.9243,97.7944 L209.9243,97.9346 L203.9243,97.6576 L197.9243,97.9648 L197.9243,98.457 L195.9243,97.4046 L193.9243,97.7891 L191.9243,98.3488 L189.9243,97.8886 L187.9243,97.9648" fill="none" style="stroke:#FF6F00;stroke-width:1;"/><!--SRC=[xLdRRjiu47tNLt0RODiYLHstIL44HL77ITkaTXpOIHUBeWXeYR89IwHAKibc5_llEzJ5kaIMVDCs1P8dYnpEcHbUPkRaWrHOA8yosyC-uhUC23cblecPRLhOfmgxfbGYi5GWY67yPXE7CeAEFbttEwVdrzr1Rp14uT_E_jv1UtoG5HcTT0VdnvtXdx5SYSX5f_kby-bahkYUo61uV3BCug0TntdZxEtDHJuEpYzp0g68_fkBT8R3mHzvcKIB8MUK-LXW3usnDPi87Z2xorqkq8uIc4cO8qnbn3xV-KIubCrYgTXYuocYp783co0r9MX289JOHVDr4ZaWFUPg-WAvT39L26ACR2nci59nn6-8k1LK4NHBrJJIGMy8Gv8eHTb45cDo-Vcq- -NyP3H2RTWOxYlA6Pg2Kgr5mK87kv9a3B_0jWsAq7vcR1YvAy1Oz3OpFffYczzgwQAMkVjNp0v_a5Wa8tDC71ou2lrZ8FIHCtMEFOAU33bupv_4Or7qqisBXqVqRuBQ-yQ_MNqT8VXjg6t1gaNAr9qByUAkdTVdmqxZ2PdRLxByg70OSYTUptC1xiTpcKCAG2aEu_Qg8BaBiIoEnJsVCpYc8TZQfY-qCufZuBclyd6qiS9ZB4aZi3aao-M1_J_0SDSbbhv9iY6m5AiB0eAxZUCSQRLOt3KETC8KLSt3KAQ8SB156aSQaHy1OHQvW1H9BUfZfY9rbrDgpHYH4fxUL5p6ug5TsJKr9jvJNsfjHYfzsXWN7dRlpvRSuHvrI0zUwmg8kKYDmU5pN08HZbVe3-SNc1VEfN5zhOSinKMjBQ5G1QQUNtJndwBkVlYuGQA3ZvtQl-nR8U2Xm6pYadVl82DApjw_3tT-1CUJS0LfiY8pRJFZ95Dfz8eLGlwHonXE_W9Z6NQlc_AWK08sv8QyaufultByc_AWmVWdoVzN2tzgzwyS_SmX6iS9Fh6_KBeNFGehxBtbgi-rOr7dPfI-R2odn5xEzrBNBO37aB74Ahv3Tr5_t1hpVDaDNhw7IZhGR0FrEafl0sWg1OKcn8wrwHuqwVPrToAHYRn0Ajr248GTy3f1BlGn6Roukwveq38DTvMf-HecZKoXpP0AgwYggj-tXHi3fO1IWeu3HHPBf8LDteFAFYpNfc0fDxUq2kmfwiVx9trYKOTQ49-mWe6jl9rg0a71mmPbijGR7sxo2pHs0m9xp1ZHzP14F51wkgnNRSpo50ldYxssOUmE4ke9_Oww4V44Tp0Xdapp6dtxrWeaCIrukbikcM3N9673ONgOGJFlmLSBzVH4qedqvnFVlnkxkykfgE70MbRKjhMI_cshgeNF1Pnr4qSzg0Q9XtGXguT2kCRmR7e3fuBPW7oS_6mMqIDYGaGeZgqV0PLKZvjJAk6SthLGFvo7Gz59Pz7dQBPPooBYJuRoCXZ3TQ5OK0AXkOXcmAXHPhnPQwHFcSaT1-17oS-64HMtPgRqNQeqgFu2QFsrnIDFfGp8VAA5JiFlv0NO8j1yleNcJyqMrSifd8dKZP7-RC2B44R6-lK-V80R6kTpm_Ym6fc_FUhxWPFCIS6o0iESNrAgPYLkELrRJAvfIPJDdSc_9shOv6sehIQFg_MKsx8MNRmwq984yQQAQoZXTTGlHm9lfhcIzjrCTGNHkvdYQcftCzqDaRcfKGjetDI-DHZSz4wLqRUfwaNCRMfTfhL9bTuZR5ED1Qwsi6O9eZO3NQHeCoXvTZPp0TSaMglVxLLFrFq3iZcH-hCihEMuVdhe7fQ5Az2RFyck1ngu1fZ9rA8rlAlmeOQ5R3TFEpRbsSBTsGAjk04lM9gijyu9fXhB0rTA1UQcSyaojdXH9Rqa_LTlLAtw2efk2zeVIRb7KkwHb7iavHv9kQsISXSkT7HN_Hww0INwdhHVljfxTV2otHuJXTjxpwxOZ054oCDGo7sAUkIvyUpJHGz97WXeGMsuMM6wWkNFZJDyWz4mO5hk40rymiwEloG3yChUKC6PDjmu-zfF1TxicqTKGHiim13qjMyabS09ixYcx0xHrUL7ywtHWo8d0DyF4M565rAC4dSmD_eF]--></g></svg>