<svg xmlns="http://www.w3.org/2000/svg" xmlns:xlink="http://www.w3.org/1999/xlink" contentStyleType="text/css" data-diagram-type="MINDMAP" height="206px" preserveAspectRatio="none" style="width:944px;height:206px;" version="1.1" viewBox="0 0 944 206" width="944px" zoomAndPan="magnify"><defs/><g><polygon fill="#4051B5" points="254.7646,83.8906,254.7646,84.1008,264.5666,83.4763,274.3686,84.0839,284.1706,84.2903,293.9725,83.1772,303.7745,83.8129,313.5765,83.4641,323.3784,83.5071,333.1804,83.8225,342.9824,83.1993,352.7843,84.4443,362.5863,83.2603,372.3883,83.6929,382.1903,84.3226,391.9922,83.8048,401.7942,83.9589,411.5962,83.8587,421.3981,84.0692,431.2001,84.1298,441.0021,84.4763,450.8041,84.5617,460.606,84.5699,470.408,84.1453,480.21,83.8906,480.2691,84.0334,480.8652,84.3412,481.2493,84.1372,481.9936,84.8025,482.4349,84.7366,483.0384,85.0622,483.2028,85.1303,483.1203,85.5647,483.4859,86.1848,483.9697,86.8539,483.9606,87.3187,484.21,87.8906,484.2451,87.8906,484.3228,93.55,484.3487,99.2094,484.2087,104.8688,484.3057,110.5281,484.21,116.1875,484.0337,116.1145,484.0632,116.7895,483.9102,117.3888,483.6439,117.9413,483.4615,118.5284,483.0384,119.0159,482.9768,118.8672,482.3895,119.0494,481.8278,119.2932,481.3338,119.7007,480.7506,119.8927,480.21,120.1875,480.21,120.8689,470.408,120.0128,460.606,119.8444,450.8041,120.4158,441.0021,119.5207,431.2001,119.6684,421.3981,120.8365,411.5962,120.6232,401.7942,120.922,391.9922,119.8657,382.1903,120.5067,372.3883,120.7779,362.5863,119.7151,352.7843,120.0916,342.9824,120.3135,333.1804,120.8393,323.3784,120.1833,313.5765,120.6501,303.7745,119.6337,293.9725,119.5102,284.1706,120.6911,274.3686,119.4706,264.5666,120.6965,254.7646,120.1875,254.791,120.2511,254.1648,119.8707,253.5881,119.6099,253.1261,119.6258,252.4637,119.1581,251.9362,119.0159,252.1185,119.0914,251.5317,118.3797,251.6577,117.9633,251.3824,117.3806,251.0744,116.7844,250.7646,116.1875,250.7804,116.1875,251.0069,110.5281,250.9692,104.8688,250.8211,99.2094,250.854,93.55,250.7646,87.8906,250.7245,87.874,251.2196,87.4163,251.281,86.779,251.5207,86.2156,251.5146,85.5503,251.9362,85.0622,251.8845,84.9374,252.5696,84.9913,253.1224,84.7259,253.6278,84.346,254.1579,84.0257,254.7646,83.8906" style="stroke:#FF6F00;stroke-width:1.5;"/><text fill="#FFFFFF" font-family="'Roboto'" font-size="14" lengthAdjust="spacing" textLength="213.4453" x="260.7646" y="106.8857">Ownership &amp; Capital Structure</text><a href="/use-case/legal-entity-management/ownership-and-capital-structure/control/" target="_top" title="/use-case/legal-entity-management/ownership-and-capital-structure/control/" xlink:actuate="onRequest" xlink:href="/use-case/legal-entity-management/ownership-and-capital-structure/control/" xlink:show="new" xlink:title="/use-case/legal-entity-management/ownership-and-capital-structure/control/" xlink:type="simple"><text fill="#90EE90" font-family="'Roboto'" font-size="14" lengthAdjust="spacing" textLength="50.9141" x="541.21" y="54.292">Control</text></a><path d="M484.21,102.0391 L484.21,102.2259 L486.21,101.6708 L488.21,102.2109 L490.21,102.3943 L492.21,101.4049 L494.21,102.0391 L494.21,102.0391 L494.1865,102.0137 L495.8627,100.2562 L497.6569,98.6267 L499.5332,97.0861 L501.1266,95.239 L503.1162,93.8213 L503.3494,93.8999 L504.0695,90.116 L505.4704,86.5616 L506.9544,83.0351 L507.9551,79.3458 L509.21,75.7422 L509.2387,75.7519 L510.4153,72.1218 L511.7226,68.5359 L512.9669,64.9287 L514.3316,61.362 L515.3037,57.6631 L515.506,57.8823 L517.2897,56.2414 L518.943,54.4591 L520.7872,52.8838 L522.6404,51.3182 L524.21,49.4453 L524.21,48.8043 L526.21,50.0484 L528.21,49.1818 L530.21,49.9198 L532.21,49.0053 L534.21,49.4453" fill="none" style="stroke:#FF9900;stroke-width:1;"/><a href="/use-case/legal-entity-management/ownership-and-capital-structure/corporate-actions/" target="_top" title="/use-case/legal-entity-management/ownership-and-capital-structure/corporate-actions/" xlink:actuate="onRequest" xlink:href="/use-case/legal-entity-management/ownership-and-capital-structure/corporate-actions/" xlink:show="new" xlink:title="/use-case/legal-entity-management/ownership-and-capital-structure/corporate-actions/" xlink:type="simple"><text fill="#90EE90" font-family="'Roboto'" font-size="14" lengthAdjust="spacing" textLength="125.8223" x="541.21" y="80.5889">Corporate Actions</text></a><a href="/use-case/legal-entity-management/ownership-and-capital-structure/corporate-actions/dividends/" target="_top" title="/use-case/legal-entity-management/ownership-and-capital-structure/corporate-actions/dividends/" xlink:actuate="onRequest" xlink:href="/use-case/legal-entity-management/ownership-and-capital-structure/corporate-actions/dividends/" xlink:show="new" xlink:title="/use-case/legal-entity-management/ownership-and-capital-structure/corporate-actions/dividends/" xlink:type="simple"><text fill="#90EE90" font-family="'Roboto'" font-size="14" lengthAdjust="spacing" textLength="69.3984" x="728.0322" y="27.9951">Dividends</text></a><path d="M671.0322,75.7422 L671.0322,75.929 L673.0322,75.3739 L675.0322,75.914 L677.0322,76.0975 L679.0322,75.1081 L681.0322,75.7422 L681.0322,75.7422 L681.0088,75.7168 L682.6849,73.9593 L684.4791,72.3298 L686.3554,70.7893 L687.9489,68.9421 L689.9385,67.5244 L690.1717,67.603 L690.8918,63.8191 L692.2927,60.2647 L693.7766,56.7383 L694.7774,53.049 L696.0322,49.4453 L696.061,49.455 L697.2375,45.825 L698.5449,42.239 L699.7892,38.6318 L701.1539,35.0652 L702.126,31.3662 L702.3282,31.5854 L704.1119,29.9445 L705.7652,28.1623 L707.6094,26.587 L709.4626,25.0214 L711.0322,23.1484 L711.0322,22.5074 L713.0322,23.7516 L715.0322,22.8849 L717.0322,23.6229 L719.0322,22.7084 L721.0322,23.1484" fill="none" style="stroke:#FF9900;stroke-width:1;"/><a href="/use-case/legal-entity-management/ownership-and-capital-structure/corporate-actions/merger-and-acquisition-history/" target="_top" title="/use-case/legal-entity-management/ownership-and-capital-structure/corporate-actions/merger-and-acquisition-history/" xlink:actuate="onRequest" xlink:href="/use-case/legal-entity-management/ownership-and-capital-structure/corporate-actions/merger-and-acquisition-history/" xlink:show="new" xlink:title="/use-case/legal-entity-management/ownership-and-capital-structure/corporate-actions/merger-and-acquisition-history/" xlink:type="simple"><text fill="#90EE90" font-family="'Roboto'" font-size="14" lengthAdjust="spacing" textLength="200.7031" x="728.0322" y="54.292">Merger &amp; Acquisition History</text></a><path d="M671.0322,75.7422 L671.0322,75.929 L673.0322,75.3739 L675.0322,75.914 L677.0322,76.0975 L679.0322,75.1081 L681.0322,75.7422 L681.0322,75.7422 L681.0095,75.7162 L683.9073,72.97 L686.9199,70.3546 L690.0123,67.8303 L692.8297,64.9924 L696.0322,62.5938 L696.1944,62.7788 L698.8476,59.7534 L701.9743,57.2683 L705.1588,54.8491 L708.0071,52.0463 L711.0322,49.4453 L711.0322,49.506 L713.0322,49.4169 L715.0322,49.604 L717.0322,49.6579 L719.0322,49.9659 L721.0322,49.4453" fill="none" style="stroke:#FF9900;stroke-width:1;"/><a href="/use-case/legal-entity-management/ownership-and-capital-structure/corporate-actions/parents-and-subsidiaries/" target="_top" title="/use-case/legal-entity-management/ownership-and-capital-structure/corporate-actions/parents-and-subsidiaries/" xlink:actuate="onRequest" xlink:href="/use-case/legal-entity-management/ownership-and-capital-structure/corporate-actions/parents-and-subsidiaries/" xlink:show="new" xlink:title="/use-case/legal-entity-management/ownership-and-capital-structure/corporate-actions/parents-and-subsidiaries/" xlink:type="simple"><text fill="#90EE90" font-family="'Roboto'" font-size="14" lengthAdjust="spacing" textLength="157.6025" x="728.0322" y="80.5889">Parents &amp; Subsidiaries</text></a><path d="M671.0322,75.7422 L671.0322,75.929 L673.0322,75.3739 L675.0322,75.914 L677.0322,76.0975 L679.0322,75.1081 L681.0322,75.7422 L681.0322,75.7422 L681.0322,75.7076 L687.0322,75.5526 L693.0322,75.5717 L699.0322,75.7119 L705.0322,75.4349 L711.0322,75.7422 L711.0322,76.2343 L713.0322,75.1819 L715.0322,75.5664 L717.0322,76.1261 L719.0322,75.6659 L721.0322,75.7422" fill="none" style="stroke:#FF9900;stroke-width:1;"/><a href="/use-case/legal-entity-management/ownership-and-capital-structure/corporate-actions/spin-offs/" target="_top" title="/use-case/legal-entity-management/ownership-and-capital-structure/corporate-actions/spin-offs/" xlink:actuate="onRequest" xlink:href="/use-case/legal-entity-management/ownership-and-capital-structure/corporate-actions/spin-offs/" xlink:show="new" xlink:title="/use-case/legal-entity-management/ownership-and-capital-structure/corporate-actions/spin-offs/" xlink:type="simple"><text fill="#90EE90" font-family="'Roboto'" font-size="14" lengthAdjust="spacing" textLength="61.3047" x="728.0322" y="106.8857">Spin-offs</text></a><path d="M671.0322,75.7422 L671.0322,75.929 L673.0322,75.3739 L675.0322,75.914 L677.0322,76.0975 L679.0322,75.1081 L681.0322,75.7422 L681.0322,75.7422 L681.0095,75.7162 L683.9073,78.2293 L686.9199,80.8734 L690.0123,83.6085 L692.8297,86.0299 L696.0322,88.8906 L696.1944,89.0757 L698.8476,91.3097 L701.9743,94.0839 L705.1588,96.9241 L708.0071,99.3807 L711.0322,102.0391 L711.0322,102.0997 L713.0322,102.0107 L715.0322,102.1978 L717.0322,102.2516 L719.0322,102.5597 L721.0322,102.0391" fill="none" style="stroke:#FF9900;stroke-width:1;"/><a href="/use-case/legal-entity-management/ownership-and-capital-structure/corporate-actions/stock-splits/" target="_top" title="/use-case/legal-entity-management/ownership-and-capital-structure/corporate-actions/stock-splits/" xlink:actuate="onRequest" xlink:href="/use-case/legal-entity-management/ownership-and-capital-structure/corporate-actions/stock-splits/" xlink:show="new" xlink:title="/use-case/legal-entity-management/ownership-and-capital-structure/corporate-actions/stock-splits/" xlink:type="simple"><text fill="#90EE90" font-family="'Roboto'" font-size="14" lengthAdjust="spacing" textLength="81.5322" x="728.0322" y="133.1826">Stock Splits</text></a><path d="M671.0322,75.7422 L671.0322,75.929 L673.0322,75.3739 L675.0322,75.914 L677.0322,76.0975 L679.0322,75.1081 L681.0322,75.7422 L681.0322,75.7422 L681.0088,75.7168 L682.6849,77.2464 L684.4791,78.904 L686.3554,80.6506 L687.9489,82.0906 L689.9385,83.96 L690.1717,84.0386 L690.8918,87.4863 L692.2927,91.1635 L693.7766,94.8687 L694.7774,98.4111 L696.0322,102.0391 L696.061,102.0487 L697.2375,105.6503 L698.5449,109.296 L699.7892,112.9205 L701.1539,116.5855 L702.126,120.1182 L702.3282,120.3374 L704.1119,121.9836 L705.7652,123.4884 L707.6094,125.2003 L709.4626,126.9218 L711.0322,128.3359 L711.0322,127.6949 L713.0322,128.9391 L715.0322,128.0724 L717.0322,128.8104 L719.0322,127.8959 L721.0322,128.3359" fill="none" style="stroke:#FF9900;stroke-width:1;"/><path d="M484.21,102.0391 L484.21,102.2259 L486.21,101.6708 L488.21,102.2109 L490.21,102.3943 L492.21,101.4049 L494.21,102.0391 L494.21,102.0391 L494.1872,102.0131 L497.085,99.2668 L500.0976,96.6515 L503.19,94.1272 L506.0074,91.2892 L509.21,88.8906 L509.3722,89.0757 L512.0253,86.0503 L515.152,83.5652 L518.3365,81.1459 L521.1848,78.3432 L524.21,75.7422 L524.21,75.8028 L526.21,75.7138 L528.21,75.9009 L530.21,75.9548 L532.21,76.2628 L534.21,75.7422" fill="none" style="stroke:#FF9900;stroke-width:1;"/><a href="/use-case/legal-entity-management/ownership-and-capital-structure/issued-capital/" target="_top" title="/use-case/legal-entity-management/ownership-and-capital-structure/issued-capital/" xlink:actuate="onRequest" xlink:href="/use-case/legal-entity-management/ownership-and-capital-structure/issued-capital/" xlink:show="new" xlink:title="/use-case/legal-entity-management/ownership-and-capital-structure/issued-capital/" xlink:type="simple"><text fill="#90EE90" font-family="'Roboto'" font-size="14" lengthAdjust="spacing" textLength="98.6289" x="541.21" y="106.8857">Issued Capital</text></a><path d="M484.21,102.0391 L484.21,102.2259 L486.21,101.6708 L488.21,102.2109 L490.21,102.3943 L492.21,101.4049 L494.21,102.0391 L494.21,102.0391 L494.21,102.0045 L500.21,101.8495 L506.21,101.8686 L512.21,102.0088 L518.21,101.7318 L524.21,102.0391 L524.21,102.5312 L526.21,101.4788 L528.21,101.8633 L530.21,102.423 L532.21,101.9628 L534.21,102.0391" fill="none" style="stroke:#FF9900;stroke-width:1;"/><a href="/use-case/legal-entity-management/ownership-and-capital-structure/ownership/" target="_top" title="/use-case/legal-entity-management/ownership-and-capital-structure/ownership/" xlink:actuate="onRequest" xlink:href="/use-case/legal-entity-management/ownership-and-capital-structure/ownership/" xlink:show="new" xlink:title="/use-case/legal-entity-management/ownership-and-capital-structure/ownership/" xlink:type="simple"><text fill="#90EE90" font-family="'Roboto'" font-size="14" lengthAdjust="spacing" textLength="74.6553" x="541.21" y="133.1826">Ownership</text></a><path d="M484.21,102.0391 L484.21,102.2259 L486.21,101.6708 L488.21,102.2109 L490.21,102.3943 L492.21,101.4049 L494.21,102.0391 L494.21,102.0391 L494.1872,102.0131 L497.085,104.5262 L500.0976,107.1703 L503.19,109.9053 L506.0074,112.3267 L509.21,115.1875 L509.3722,115.3725 L512.0253,117.6065 L515.152,120.3808 L518.3365,123.2209 L521.1848,125.6776 L524.21,128.3359 L524.21,128.3966 L526.21,128.3075 L528.21,128.4946 L530.21,128.5485 L532.21,128.8566 L534.21,128.3359" fill="none" style="stroke:#FF9900;stroke-width:1;"/><a href="/use-case/legal-entity-management/ownership-and-capital-structure/share-capital/" target="_top" title="/use-case/legal-entity-management/ownership-and-capital-structure/share-capital/" xlink:actuate="onRequest" xlink:href="/use-case/legal-entity-management/ownership-and-capital-structure/share-capital/" xlink:show="new" xlink:title="/use-case/legal-entity-management/ownership-and-capital-structure/share-capital/" xlink:type="simple"><text fill="#90EE90" font-family="'Roboto'" font-size="14" lengthAdjust="spacing" textLength="94.2471" x="541.21" y="159.4795">Share Capital</text></a><path d="M484.21,102.0391 L484.21,102.2259 L486.21,101.6708 L488.21,102.2109 L490.21,102.3943 L492.21,101.4049 L494.21,102.0391 L494.21,102.0391 L494.1865,102.0137 L495.8627,103.5433 L497.6569,105.2009 L499.5332,106.9475 L501.1266,108.3875 L503.1162,110.2568 L503.3494,110.3354 L504.0695,113.7832 L505.4704,117.4604 L506.9544,121.1656 L507.9551,124.7079 L509.21,128.3359 L509.2387,128.3456 L510.4153,131.9472 L511.7226,135.5929 L512.9669,139.2173 L514.3316,142.8824 L515.3037,146.415 L515.506,146.6342 L517.2897,148.2805 L518.943,149.7853 L520.7872,151.4971 L522.6404,153.2186 L524.21,154.6328 L524.21,153.9918 L526.21,155.2359 L528.21,154.3693 L530.21,155.1073 L532.21,154.1928 L534.21,154.6328" fill="none" style="stroke:#FF9900;stroke-width:1;"/><a href="/use-case/legal-entity-management/ownership-and-capital-structure/shares/" target="_top" title="/use-case/legal-entity-management/ownership-and-capital-structure/shares/" xlink:actuate="onRequest" xlink:href="/use-case/legal-entity-management/ownership-and-capital-structure/shares/" xlink:show="new" xlink:title="/use-case/legal-entity-management/ownership-and-capital-structure/shares/" xlink:type="simple"><text fill="#90EE90" font-family="'Roboto'" font-size="14" lengthAdjust="spacing" textLength="48.002" x="541.21" y="185.7764">Shares</text></a><path d="M484.21,102.0391 L484.21,102.2259 L486.21,101.6708 L488.21,102.2109 L490.21,102.3943 L492.21,101.4049 L494.21,102.0391 L494.21,102.0391 L494.182,102.0188 L495.8376,104.3934 L497.6343,106.8699 L499.5292,109.4173 L501.0859,111.7204 L503.1162,114.3657 L503.3546,114.4265 L503.4893,116.8235 L504.3201,119.3979 L505.2358,121.9941 L505.6574,124.4642 L506.3389,127.0005 L506.3686,127.0064 L506.8992,129.8946 L507.5651,132.8095 L508.1658,135.7115 L508.8911,138.6382 L509.21,141.4844 L509.5025,141.5424 L510.0803,144.4398 L510.4694,147.2999 L511.1347,150.2147 L511.813,153.1321 L512.0811,155.9682 L511.7705,155.889 L513.0178,158.5697 L513.2424,160.9896 L514.2445,163.6077 L514.446,166.0217 L515.3037,168.603 L515.279,168.5852 L517.3521,171.2614 L518.8487,173.521 L520.6854,176.0264 L522.5507,178.5525 L524.21,180.9297 L524.21,181.2997 L526.21,180.9262 L528.21,181.185 L530.21,180.4209 L532.21,181.1825 L534.21,180.9297" fill="none" style="stroke:#FF9900;stroke-width:1;"/><a href="/use-case/legal-entity-management/" target="_top" title="/use-case/legal-entity-management/" xlink:actuate="onRequest" xlink:href="/use-case/legal-entity-management/" xlink:show="new" xlink:title="/use-case/legal-entity-management/" xlink:type="simple"><text fill="#90EE90" font-family="'Roboto'" font-size="14" lengthAdjust="spacing" textLength="179.7646" x="14" y="106.8857">Legal Entity Management</text></a><path d="M250.7646,102.0391 L250.7646,102.2259 L248.7646,101.6708 L246.7646,102.2109 L244.7646,102.3943 L242.7646,101.4049 L240.7646,102.0391 L240.7646,102.0391 L240.7646,102.0045 L234.7646,101.8495 L228.7646,101.8686 L222.7646,102.0088 L216.7646,101.7318 L210.7646,102.0391 L210.7646,102.5312 L208.7646,101.4788 L206.7646,101.8633 L204.7646,102.423 L202.7646,101.9628 L200.7646,102.0391" fill="none" style="stroke:#FF9900;stroke-width:1;"/><!--SRC=[xLXjRzis4FwkNy4rmD8YKnrdIT46HH77SLxjEB2J0aDH1BHqjWbBf4fIphnX_tqdoh9an- -9ccIBFrcyu_FSdIWU-HmeJQNs6NTz6X1nnq6gBWjiobtReG7JrBELbg6ZGmcMzOiBRSQ179xSrafdbxVbUhNU8EQtiRkzLspjPLsQbNBzygZK-6FeDyNbgbI-A9rKHa3tNEgDeqeZoqCsskqFxUtjaSjn_V9wpC6uH3_BKZt60ogfJrhKwNMa2BbR5fwGYQEMb2lq0AuppgU306ILyLxMbsnuhDFL7Gd0BMkJCEvueGj4Tu5q00j7FJA2KAID4rj2TtyZPXh1YXANoXxEr8A8FiWxoJIGEwQxCGRh0oSAj6QyeoOhS7rwLhwuh3IRf8YlGGIQ2Kww21gXQ9pOffw2J0vNr7KHYEncnXfn_XA39HypuyqkTSLTv3s9OYhXOILkk6l-mD0butC4RHfwclnj4N8ikBwaFf0t3O7PYpV3iRYGwQiQ3ZVPNq2AkzO_MRoIbEBEeCsODGjC3poib_3SSRm0Nptjm2Y-ATCF9rR7sFgEx49Y-aDRPaaYKSh3XRigoTZoNvR74NuWEAvOGxPsw3FZZEiO-jxEU1rTgccBAiY5Tep9yKJe_WGQuNdWH5-IoeaivIgZWnHUxZo74IoLWzo9AbmpdJyDunfacpgGErCJVeJ07RZ2XiWS5b2kOxZhBdDw79J2hJTrLqDt4rTspe8Gxy5FZJRZbMvjN4YVUlUjKxxXAci3DZ2OGp5oMH2msOwdK9ZnEVZ6FYCyOqlh-diqv6WX5yPYdEPmHlPP7_ucAU-QpGqR7JviBFnbzmg96mNb7Gy-VyQEg0J_yiMy-IOkJn0Qs-ISplIO7ISnfTMRF26CRtAPmE5F39PJxpQl32OEV3cbeGPAW_-IwvzN1ZdMFsd-BwtyQTmlkVgPHTGQDlWa_ecZ-sH6veIzlTpfS-rQB4epRbykLLrmbyjzQkeEqbFiM7ALtF5siNYvvPRviYyOh-4wFahS3pQv4qUsD8xaZXkDbhIMh1Lgc6xEHfdSdYVEsrIfdyo-IMf3rK45uB0sSx08SM-USgLQ9ww5QTFqPBDnVFpf4zedZDcZdxLLJ-GHyYifn-88hfn47B7jM_BjMo5KO3kuuHGyw53F1dDCjdtAyGhgurE1L2D3SdwkZGpVlrjRMyj1BD1f2avysIWajuv7XPQ1aBXORHhVd2AIuL1q_8g635rkV2xhCnUuYyn7oTzy6NsG7P36dJe_GgPOD6vtcSBJvg10QiQEYwAKMibfRCqtibYvKiPVXIt5N4Ob0opDLMp1e9gPyNoZKG7ZjcYtaRwP_CsPKGkdPwl0OpeYZPwGEdfwn2NFb0fXP2YGC_ESx02FI3Io5yXegtb4UDN5DP6cqOmUSyZ2qAWXVlGU3l0B7IhCbdMmck2SeuBxpBNIj9CjBPIEJvaAiv94ciwTtNodDzcvekXZmCxNGEVZJ8zbBTLpTQ8bTSw70YzGDjU1NqxBV1ZoNFNoOT1pzCg70SzNA1-6dPCccGOrGurCurj3Y4o_gMagP0ezIu1Ceyj8ZodeFTqnHPoG72VcBA4tPgWdbSOCoxZ8cFa0rzGBv-_Rgwwe-mlauNhWKqMuKAfvyj8zhmXNKEcUAAvdMhWS1BOqeZMocvF30Z6jcBzwbbTcCz_E_qyTUvN0NYMmLmdiLG9xbS3-UnBObOVNfPjQbVGH9FfEYkztjdVstXUBBT2qkFtsXlSuKXYHWs6lryo7TzRRawigKIAKUBzpySioNGMdlxFEQP-IHiWZltrI3u2V7rqa0xZBzfaKF0hSElzQInq-xDg7JECTKs8Wv6lDIiIf2dT4f8VjavlhO_kZLSKJH8YvxnFWLXdxZvO3j3N_1G00]--></g></svg>