<svg xmlns="http://www.w3.org/2000/svg" xmlns:xlink="http://www.w3.org/1999/xlink" contentStyleType="text/css" data-diagram-type="MINDMAP" height="127px" preserveAspectRatio="none" style="width:901px;height:127px;" version="1.1" viewBox="0 0 901 127" width="901px" zoomAndPan="magnify"><defs/><g><polygon fill="#4051B5" points="364.2354,44.4453,364.2354,44.6555,374.3961,44.031,384.5569,44.6386,394.7177,44.845,404.8785,43.7319,415.0393,44.3676,425.2001,44.0188,435.3609,44.0618,445.5217,44.3772,455.6824,43.7539,465.8432,44.999,476.004,43.815,486.1648,44.2475,496.3256,44.8773,506.4864,44.3595,516.6472,44.5136,526.808,44.4134,536.9688,44.4453,536.9915,44.5003,537.5649,44.7533,538.1748,45.0943,538.7514,45.3549,539.3181,45.5918,539.7972,45.6169,539.8756,45.6494,540.1743,46.2417,540.4821,46.8378,540.278,47.2219,540.9434,47.9662,540.9688,48.4453,540.8699,48.4453,541.1467,54.1047,540.8037,59.7641,540.9459,65.4234,541.216,71.0828,540.9688,76.7422,540.9537,76.736,540.7669,77.3213,540.6044,77.9168,540.394,78.4923,540.0303,79.0044,539.7972,79.5706,539.8338,79.6591,539.1585,79.6286,538.7021,80.1268,538.17,80.4424,537.5911,80.6448,536.9688,80.7422,536.9688,81.3552,526.808,80.2591,516.6472,80.09,506.4864,80.1208,496.3256,80.6833,486.1648,80.5457,476.004,81.4236,465.8432,80.5675,455.6824,80.3991,445.5217,80.9705,435.3609,80.0753,425.2001,80.2231,415.0393,81.3911,404.8785,81.1779,394.7177,81.4767,384.5569,80.4204,374.3961,81.0614,364.2354,80.7422,364.3107,80.924,363.6094,80.3624,363.0918,80.244,362.5544,80.078,362.0557,80.0056,361.4069,79.5706,361.4056,79.5701,361.3151,79.0639,360.7678,78.3686,360.4954,77.7872,360.6248,77.3721,360.2354,76.7422,359.9964,76.7422,360.405,71.0828,360.3042,65.4234,360.146,59.7641,360.1174,54.1047,360.2354,48.4453,360.3766,48.5038,360.3775,47.8414,360.8863,47.3894,360.7681,46.6777,361.3628,46.2613,361.4069,45.6169,361.4687,45.766,362.0039,45.458,362.5443,45.1628,363.1967,45.1377,363.7479,44.8686,364.2354,44.4453" style="stroke:#FF6F00;stroke-width:1.5;"/><text fill="#FFFFFF" font-family="'Roboto'" font-size="14" lengthAdjust="spacing" textLength="160.7334" x="370.2354" y="67.4404">Scope &amp; Requirements</text><a href="/use-case/construction-project-quotations/scope-and-requirements/assumptions-exclusions-qualifications/" target="_top" title="/use-case/construction-project-quotations/scope-and-requirements/assumptions-exclusions-qualifications/" xlink:actuate="onRequest" xlink:href="/use-case/construction-project-quotations/scope-and-requirements/assumptions-exclusions-qualifications/" xlink:show="new" xlink:title="/use-case/construction-project-quotations/scope-and-requirements/assumptions-exclusions-qualifications/" xlink:type="simple"><text fill="#90EE90" font-family="'Roboto'" font-size="14" lengthAdjust="spacing" textLength="287.3555" x="597.9688" y="27.9951">Assumptions, Exclusions &amp; Qualifications</text></a><path d="M540.9688,62.5938 L540.9688,62.7806 L542.9688,62.2255 L544.9688,62.7656 L546.9688,62.949 L548.9688,61.9596 L550.9688,62.5938 L550.9688,62.5938 L550.9491,62.5653 L552.6421,61.2052 L554.4343,59.9883 L556.2953,58.8708 L557.9189,57.4104 L559.875,56.4304 L560.0994,56.5313 L560.8382,53.6037 L562.2323,50.9707 L563.7064,48.3735 L564.7152,45.5673 L565.9688,42.8711 L565.9964,42.8835 L567.1745,40.1534 L568.4786,37.4799 L569.7219,34.7791 L571.0812,32.1303 L572.0625,29.3118 L572.2322,29.557 L574.0155,28.3273 L575.6894,26.9395 L577.5235,25.7832 L579.3651,24.6377 L580.9688,23.1484 L580.9688,22.5074 L582.9688,23.7516 L584.9688,22.8849 L586.9688,23.6229 L588.9688,22.7084 L590.9688,23.1484" fill="none" style="stroke:#FF9900;stroke-width:1;"/><a href="/use-case/construction-project-quotations/scope-and-requirements/constructability-review/" target="_top" title="/use-case/construction-project-quotations/scope-and-requirements/constructability-review/" xlink:actuate="onRequest" xlink:href="/use-case/construction-project-quotations/scope-and-requirements/constructability-review/" xlink:show="new" xlink:title="/use-case/construction-project-quotations/scope-and-requirements/constructability-review/" xlink:type="simple"><text fill="#90EE90" font-family="'Roboto'" font-size="14" lengthAdjust="spacing" textLength="165.751" x="597.9688" y="54.292">Constructability Review</text></a><path d="M540.9688,62.5938 L540.9688,62.7806 L542.9688,62.2255 L544.9688,62.7656 L546.9688,62.949 L548.9688,61.9596 L550.9688,62.5938 L550.9688,62.5938 L550.9549,62.5621 L553.8927,61.1053 L556.9003,59.808 L559.9566,58.6215 L562.8454,57.0529 L565.9688,56.0195 L566.0675,56.2449 L568.8563,54.4481 L571.9335,53.3093 L575.0458,52.2508 L577.9534,50.7252 L580.9688,49.4453 L580.9688,49.506 L582.9688,49.4169 L584.9688,49.604 L586.9688,49.6579 L588.9688,49.9659 L590.9688,49.4453" fill="none" style="stroke:#FF9900;stroke-width:1;"/><a href="/use-case/construction-project-quotations/scope-and-requirements/rfis-clarifications-addenda/" target="_top" title="/use-case/construction-project-quotations/scope-and-requirements/rfis-clarifications-addenda/" xlink:actuate="onRequest" xlink:href="/use-case/construction-project-quotations/scope-and-requirements/rfis-clarifications-addenda/" xlink:show="new" xlink:title="/use-case/construction-project-quotations/scope-and-requirements/rfis-clarifications-addenda/" xlink:type="simple"><text fill="#90EE90" font-family="'Roboto'" font-size="14" lengthAdjust="spacing" textLength="211.3193" x="597.9688" y="80.5889">RFIs, Clarifications &amp; Addenda</text></a><path d="M540.9688,62.5938 L540.9688,62.7806 L542.9688,62.2255 L544.9688,62.7656 L546.9688,62.949 L548.9688,61.9596 L550.9688,62.5938 L550.9688,62.5938 L550.9549,62.5621 L553.8927,63.735 L556.9003,65.0673 L559.9566,66.5105 L562.8454,67.5717 L565.9688,69.168 L566.0675,69.3933 L568.8563,70.2262 L571.9335,71.7172 L575.0458,73.2883 L577.9534,74.3924 L580.9688,75.7422 L580.9688,75.8028 L582.9688,75.7138 L584.9688,75.9009 L586.9688,75.9548 L588.9688,76.2628 L590.9688,75.7422" fill="none" style="stroke:#FF9900;stroke-width:1;"/><a href="/use-case/construction-project-quotations/scope-and-requirements/scope-decomposition-wbs-boq/" target="_top" title="/use-case/construction-project-quotations/scope-and-requirements/scope-decomposition-wbs-boq/" xlink:actuate="onRequest" xlink:href="/use-case/construction-project-quotations/scope-and-requirements/scope-decomposition-wbs-boq/" xlink:show="new" xlink:title="/use-case/construction-project-quotations/scope-and-requirements/scope-decomposition-wbs-boq/" xlink:type="simple"><text fill="#90EE90" font-family="'Roboto'" font-size="14" lengthAdjust="spacing" textLength="233.4609" x="597.9688" y="106.8857">Scope Decomposition (WBS/BoQ)</text></a><path d="M540.9688,62.5938 L540.9688,62.7806 L542.9688,62.2255 L544.9688,62.7656 L546.9688,62.949 L548.9688,61.9596 L550.9688,62.5938 L550.9688,62.5938 L550.9491,62.5653 L552.6421,63.6705 L554.4343,64.9189 L556.2953,66.2668 L557.9189,67.2717 L559.875,68.7571 L560.0994,68.8579 L560.8382,71.3541 L562.2323,74.1448 L563.7064,76.9714 L564.7152,79.5889 L565.9688,82.3164 L565.9964,82.3288 L567.1745,85.0225 L568.4786,87.7727 L569.7219,90.4956 L571.0812,93.2706 L572.0625,95.8757 L572.2322,96.121 L574.0155,97.3566 L575.6894,98.4341 L577.5235,99.7432 L579.3651,101.063 L580.9688,102.0391 L580.9688,101.398 L582.9688,102.6422 L584.9688,101.7755 L586.9688,102.5136 L588.9688,101.599 L590.9688,102.0391" fill="none" style="stroke:#FF9900;stroke-width:1;"/><a href="/use-case/construction-project-quotations/" target="_top" title="/use-case/construction-project-quotations/" xlink:actuate="onRequest" xlink:href="/use-case/construction-project-quotations/" xlink:show="new" xlink:title="/use-case/construction-project-quotations/" xlink:type="simple"><text fill="#90EE90" font-family="'Roboto'" font-size="14" lengthAdjust="spacing" textLength="289.2354" x="14" y="67.4404">Complex Construction Project Quotations</text></a><path d="M360.2354,62.5938 L360.2354,62.7806 L358.2354,62.2255 L356.2354,62.7656 L354.2354,62.949 L352.2354,61.9596 L350.2354,62.5938 L350.2354,62.5938 L350.2354,62.5592 L344.2354,62.4042 L338.2354,62.4233 L332.2354,62.5635 L326.2354,62.2865 L320.2354,62.5938 L320.2354,63.0859 L318.2354,62.0335 L316.2354,62.418 L314.2354,62.9777 L312.2354,62.5175 L310.2354,62.5938" fill="none" style="stroke:#FF9900;stroke-width:1;"/><!--SRC=[xLXjKnf94Fw-ls8kLbsqp0RmD9LOgPI0O5GK1CtLLIfb3RiDJ5XcS6OMzAxklr_lBh0BBEzkr3hvfDCztK_tzFPCFqTAKwaxZDiTsYNA4bqmARTD2NSkaz01hfLX_6P3Wt4WkPFRY-pfvMs-N2fNYV_RsayVPEe7KPLQ8L- -FCvM_nhenQXKildpx4bXP6XAfLmzBbIZViXMe_6XaKwFL8hbo-in1L_5-nc6QZFUfP9sI9rQxQOKBhVpmX5ogAWbvGerCBo8yjU7BiWIu-seBjboMBEbcnA06yPRmhZbk3OGtGBI10wIEcHaGf46RgmBtNf7_6q4aqbiAjkuKmiYUY3xacaWVQPRWGtM0quKQCruKqrcuFhhQVxyib2haGmUW-Xg9ZXfeL7FYiQD3UeeYCHGeRQDXiX-PAqQn2yHBFaOMQ-rg2twdlQa5JyJ3cRYXjl-7p1GYUWSGuEwZYR_68GK1TUNj0FaJLLWzEBDO2r8P7XKW-KQ-nj8Pj_uDselAwNe-zPcx9fbJ3yuc2_XsEFskdZqj0aZV37RSnFLCLRVdbn837yWYvGaEWhzS66lwcIi_9VrOubELt2iMD_Psj1duWpow7QSlV4ysbJJEbMGYDinJvOZNFiNk16E0vRt9Qc4d8M-ygWWXPEudvndbig7n1qLk6OwUJUCQv0DQa7Ydcfuqm6te8Bt8BDObt8TcBjkCQlDGIbilQ6w6gZxkA9x5a2SCX-BDg8LjZOkP8SwqzAORxZ46e0N6CnnCL9P0DXlnp4k_FKvzdtv37Y-BCph7zwIfOLSYCLNckFJay_wyD-I_BxVtF2Ymt-s5lwYlK9Yew2ywS3dptWZAi6_VF5FleRb2KBZDJddPdhC6sSe2hCt-K8ORt8Hu72FO3brRfEAOEB1br0Owa5fwBpa_2SLGOBv7rx-Botz8UwNdFr84TK75_mG_yJJVJ8Y_uMTNkxrkNOk5eKPN5ysLIsmbuizDdGBtLEyiUGgiUDqiRZS4ejysGF6wLi7JubfiCEPs9E5E8OphhUQrLgokgiXNXn5EPoU9zxRLAbVxFqjkHYI3LsmM8DPc8JWReuPgTR1jJ1i6hvijeh5JvzGFY6CFlsCtPh7Yf3VIJNAYPZcBVd-FUKgC2tiCoaiKgMbwuyLPbUAdrY_vfqhy82zGIE5aq2dwy2zDn6C54abK2HN8yKVFupTtTLCnxCsAJnRj-CJ1ig4UyjnbV_ddKiTB-r3NDbGxHqfZFGmtginpSS3Djf6wyp1OGAbFGRzL9YQWG0pxWaUpxDiC6LYrSimB9FQDc1dJP5gyHGpa1-JOXQoWVpnG0JBDlZpl6B-xdvTcNLnbo91hHr7XMJxprmjbHDNEuZX2B4Cs3h3E5gAl4kG3Nlcl5FO5POcdSQtn9fPYMuAzyvkPF4DQox1z1Xcv_D9y-t4OrcBGLhTqPASqQQ65x14wvXVZXVQpF9S9cWpqtEudyqCpsTxDhET4ByJWfh1x8JurY1rmcygZj49JSyYSq9q4HedD3h5uOGM9-YRYJrBS3SHrvEiJSJBE64J-G3Nv5xcz-rLAsgwG3RdLfuAuSAnzybJzxmGhi1uF16kPvgu1CYA4D4QqSs9OG4naKcUYKWgifcdy_zZ6bxfX5SwuPLEM85Eg3Zu1hsvA94UlcKypSpxlVJUmVjCfWwQPjBRDxpDHP_xaoF31gfP1tQCxPDAYIZXIdmqsqm5dofktp7EQ8-IgiizlKDIxW8_EpuVBk0qqMDIS2yAu-pRHQZmOT_CCOqFTub0oBSBOpZn5xWbF9BXaDnS5ysFHWdRieipzo41RkJnezRo0MMr_m00]--></g></svg>