<svg xmlns="http://www.w3.org/2000/svg" xmlns:xlink="http://www.w3.org/1999/xlink" contentStyleType="text/css" data-diagram-type="MINDMAP" height="122px" preserveAspectRatio="none" style="width:848px;height:122px;" version="1.1" viewBox="0 0 848 122" width="848px" zoomAndPan="magnify"><defs/><g><polygon fill="#4051B5" points="343.5757,42.6992,343.5757,42.9094,353.654,42.2849,363.7322,42.8925,373.8105,43.0989,383.8888,41.9858,393.9671,42.6215,404.0453,42.2727,414.1236,42.3157,424.2019,42.6311,434.2802,42.0078,444.3585,43.2529,454.4367,42.0689,464.515,42.5015,474.5933,43.1312,484.6716,42.6134,494.7498,42.7675,504.8281,42.6992,504.824,42.6894,505.4166,42.9885,505.99,43.2415,506.5999,43.5825,507.1765,43.8431,507.6566,43.8708,507.8657,43.9574,507.9693,44.469,508.2679,45.0613,508.5758,45.6574,508.3717,46.0415,508.8281,46.6992,509.0543,46.6992,508.7293,52.1258,509.0061,57.5523,508.6631,62.9789,508.8053,68.4055,508.8281,73.832,509.0565,73.9266,508.5788,74.3915,508.3919,74.9768,508.2295,75.5723,508.019,76.1479,507.6566,76.6605,507.6561,76.6593,507.1275,76.9832,506.4522,76.9528,505.9958,77.451,505.4637,77.7665,504.8281,77.832,504.8281,78.2766,494.7498,78.4451,484.6716,77.349,474.5933,77.1798,464.515,77.2106,454.4367,77.7732,444.3585,77.6355,434.2802,78.5134,424.2019,77.6574,414.1236,77.489,404.0453,78.0603,393.9671,77.1652,383.8888,77.3129,373.8105,78.481,363.7322,78.2677,353.654,78.5665,343.5757,77.832,343.5346,77.7329,343.0507,77.696,342.5196,77.5452,341.8184,76.9836,341.3007,76.8653,340.7473,76.6605,340.7861,76.6765,340.7137,76.1779,340.2773,75.5286,340.1868,75.0224,339.6395,74.3271,339.5757,73.832,339.3499,73.832,339.7436,68.4055,339.3367,62.9789,339.7453,57.5523,339.6446,52.1258,339.5757,46.6992,339.4932,46.665,339.7011,46.0884,340.1856,45.6264,340.1864,44.964,340.6952,44.512,340.7473,43.8708,340.6767,43.7006,341.3917,43.8266,341.9404,43.5513,342.4756,43.2433,343.016,42.9481,343.5757,42.6992" style="stroke:#FF6F00;stroke-width:1.5;"/><text fill="#FFFFFF" font-family="'Roboto'" font-size="13" lengthAdjust="spacing" textLength="149.2524" x="349.5757" y="64.7661">Scope &amp; Requirements</text><a href="/use-case/construction-project-quotations/scope-and-requirements/assumptions-exclusions-qualifications/" target="_top" title="/use-case/construction-project-quotations/scope-and-requirements/assumptions-exclusions-qualifications/" xlink:actuate="onRequest" xlink:href="/use-case/construction-project-quotations/scope-and-requirements/assumptions-exclusions-qualifications/" xlink:show="new" xlink:title="/use-case/construction-project-quotations/scope-and-requirements/assumptions-exclusions-qualifications/" xlink:type="simple"><text fill="#4051B5" font-family="'Roboto'" font-size="13" lengthAdjust="spacing" textLength="266.8301" x="565.8281" y="27.0669">Assumptions, Exclusions &amp; Qualifications</text></a><path d="M508.8281,60.2656 L508.8281,60.4525 L510.8281,59.8973 L512.8281,60.4374 L514.8281,60.6209 L516.8281,59.6315 L518.8281,60.2656 L518.8281,60.2656 L518.8091,60.2368 L520.5048,58.9294 L522.2966,57.7673 L524.1552,56.7061 L525.7836,55.2969 L527.7344,54.3751 L527.957,54.4798 L528.6996,51.6641 L530.0923,49.1541 L531.5644,46.6814 L532.5749,43.9916 L533.8281,41.416 L533.8556,41.4289 L535.034,38.8182 L536.3374,36.2661 L537.5806,33.6858 L538.9387,31.1595 L539.9219,28.4569 L540.0864,28.7057 L541.8697,27.5306 L543.5468,26.1951 L545.3793,25.0945 L547.219,24.0048 L548.8281,22.5664 L548.8281,21.9254 L550.8281,23.1695 L552.8281,22.3028 L554.8281,23.0409 L556.8281,22.1264 L558.8281,22.5664" fill="none" style="stroke:#FF6F00;stroke-width:1;"/><a href="/use-case/construction-project-quotations/scope-and-requirements/constructability-review/" target="_top" title="/use-case/construction-project-quotations/scope-and-requirements/constructability-review/" xlink:actuate="onRequest" xlink:href="/use-case/construction-project-quotations/scope-and-requirements/constructability-review/" xlink:show="new" xlink:title="/use-case/construction-project-quotations/scope-and-requirements/constructability-review/" xlink:type="simple"><text fill="#4051B5" font-family="'Roboto'" font-size="13" lengthAdjust="spacing" textLength="153.9116" x="565.8281" y="52.1997">Constructability Review</text></a><path d="M508.8281,60.2656 L508.8281,60.4525 L510.8281,59.8973 L512.8281,60.4374 L514.8281,60.6209 L516.8281,59.6315 L518.8281,60.2656 L518.8281,60.2656 L518.8148,60.2338 L521.7549,58.8342 L524.7623,57.5951 L527.8164,56.4678 L530.7094,54.9556 L533.8281,53.9824 L533.9232,54.2094 L536.7199,52.4674 L539.7942,51.3881 L542.9023,50.3896 L545.8134,48.9207 L548.8281,47.6992 L548.8281,47.7599 L550.8281,47.6708 L552.8281,47.8579 L554.8281,47.9118 L556.8281,48.2198 L558.8281,47.6992" fill="none" style="stroke:#FF6F00;stroke-width:1;"/><a href="/use-case/construction-project-quotations/scope-and-requirements/rfis-clarifications-addenda/" target="_top" title="/use-case/construction-project-quotations/scope-and-requirements/rfis-clarifications-addenda/" xlink:actuate="onRequest" xlink:href="/use-case/construction-project-quotations/scope-and-requirements/rfis-clarifications-addenda/" xlink:show="new" xlink:title="/use-case/construction-project-quotations/scope-and-requirements/rfis-clarifications-addenda/" xlink:type="simple"><text fill="#4051B5" font-family="'Roboto'" font-size="13" lengthAdjust="spacing" textLength="196.2251" x="565.8281" y="77.3325">RFIs, Clarifications &amp; Addenda</text></a><path d="M508.8281,60.2656 L508.8281,60.4525 L510.8281,59.8973 L512.8281,60.4374 L514.8281,60.6209 L516.8281,59.6315 L518.8281,60.2656 L518.8281,60.2656 L518.8148,60.2338 L521.7549,61.3474 L524.7623,62.6217 L527.8164,64.0076 L530.7094,65.0088 L533.8281,66.5488 L533.9232,66.7758 L536.7199,67.5471 L539.7942,68.981 L542.9023,70.4958 L545.8134,71.5402 L548.8281,72.832 L548.8281,72.8927 L550.8281,72.8036 L552.8281,72.9907 L554.8281,73.0446 L556.8281,73.3526 L558.8281,72.832" fill="none" style="stroke:#FF6F00;stroke-width:1;"/><a href="/use-case/construction-project-quotations/scope-and-requirements/scope-decomposition-wbs-boq/" target="_top" title="/use-case/construction-project-quotations/scope-and-requirements/scope-decomposition-wbs-boq/" xlink:actuate="onRequest" xlink:href="/use-case/construction-project-quotations/scope-and-requirements/scope-decomposition-wbs-boq/" xlink:show="new" xlink:title="/use-case/construction-project-quotations/scope-and-requirements/scope-decomposition-wbs-boq/" xlink:type="simple"><text fill="#4051B5" font-family="'Roboto'" font-size="13" lengthAdjust="spacing" textLength="216.7852" x="565.8281" y="102.4653">Scope Decomposition (WBS/BoQ)</text></a><path d="M508.8281,60.2656 L508.8281,60.4525 L510.8281,59.8973 L512.8281,60.4374 L514.8281,60.6209 L516.8281,59.6315 L518.8281,60.2656 L518.8281,60.2656 L518.8091,60.2368 L520.5048,61.2856 L522.2966,62.4797 L524.1552,63.7747 L525.7836,64.7217 L527.7344,66.1561 L527.957,66.2608 L528.6996,68.6287 L530.0923,71.3024 L531.5644,74.0133 L532.5749,76.5072 L533.8281,79.1152 L533.8556,79.1281 L535.034,81.701 L536.3374,84.3326 L537.5806,86.9359 L538.9387,89.5933 L539.9219,92.0743 L540.0864,92.3231 L541.8697,93.5042 L543.5468,94.5249 L545.3793,95.7805 L547.219,97.0471 L548.8281,97.9648 L548.8281,97.3238 L550.8281,98.568 L552.8281,97.7013 L554.8281,98.4393 L556.8281,97.5248 L558.8281,97.9648" fill="none" style="stroke:#FF6F00;stroke-width:1;"/><a href="/use-case/construction-project-quotations/" target="_top" title="/use-case/construction-project-quotations/" xlink:actuate="onRequest" xlink:href="/use-case/construction-project-quotations/" xlink:show="new" xlink:title="/use-case/construction-project-quotations/" xlink:type="simple"><text fill="#4051B5" font-family="'Roboto'" font-size="13" lengthAdjust="spacing" textLength="268.5757" x="14" y="64.7661">Complex Construction Project Quotations</text></a><path d="M339.5757,60.2656 L339.5757,60.4525 L337.5757,59.8973 L335.5757,60.4374 L333.5757,60.6209 L331.5757,59.6315 L329.5757,60.2656 L329.5757,60.2656 L329.5757,60.2311 L323.5757,60.0761 L317.5757,60.0952 L311.5757,60.2353 L305.5757,59.9583 L299.5757,60.2656 L299.5757,60.7578 L297.5757,59.7054 L295.5757,60.0898 L293.5757,60.6496 L291.5757,60.1894 L289.5757,60.2656" fill="none" style="stroke:#FF6F00;stroke-width:1;"/><!--SRC=[xLXjJzj84FxkNx5Nf2iLTKDQgAgggXf2e8L0qWHQdQeARUnDieUz6tRNfFHq__t6RrdRE7RUV1If-GIxipFFpAxdvVaW5HRAfSnsyGH9Yq-8YPbj2dBZKK5SmfGqZ3ziCgICe8FZgxF6f_EhPgVTwQ7WjxMtkryVx2T5-grcv_omqVihaiiHwJQQfutZrapHFP5Exx3LIzf1MyFXw-7kxapag7D-aH88HFpVJAJHwtM-fcLYBOQyfco21NRH05lN8y4zPZUvmmNQKW8p2NlWUqBiuzs428UowqWgGcmyHPHPZcSJfCO4ZGWZ0ZjeTawY8KWFk1e_HmuTZHM2y28RYsiugJZYjqHC1LK4JQaQXpheBM584gKe6ybiJ2u-VcgUdhVwVLI7Y-4JHJb3Or3gQr5mS8WTIHB0kzYsGH7QIwprGdS5W4Ll4klzCRRvr9VEQfcvVydiu0yIYIHa3iaGUuv2_nW87N6cph5Bq9CU1-_vasWjZ9w-l6YvJtyILDyp_atgQmZ1fu6sEQVcALDt3iIBEtPQtmHk6e_835_EyOFCOqYzU7-V2t0_saiyKZ2axJ1kBsiazK4iQiVYxeGpUAQ1iPMXpyKPnj5pdPVfEDfOuG6Mf1ApAKkMmptxVp337OTO_fSaApAcRJL1G72dSZi7lbeixYetr6AAgkhDKAQ866ABL6wf3xMFC8jqeJ9IYqumKw6wYp6rhXcH4bAl5fUHU80hUQO4uZtrkMWJKZgrCIvSxDpVpVc6stH8sf2j2qpCH4e01-aunqImNg0_s9y3BzZJSNtbBrcAYr8iWL21JNz_teV_53NtWkG6XGx-sIhz9NE5W4I1sSWXxzv1HPISlNyVt7mVdYVX2ifaGMNQPCM9jtJqiXr2EiabW9CV09PXvweg3p8jO4Lko3kfYFkOur-L1nN6Fox-Zoty6lTZZdxY4GsY0X_ZpxJkMO-23djtiUvpvLYKkHcMBnlBCR4NyptNTGlCOwXOOXdVOReeVswLURxe1Iy-GyKJQ7A0UXMMjmuCbOB24697slmPD1xo_Ub48XEvdbJ-244G7eBNiUNC79Em5qtN1GDQOk0kWfhkONHaCcE6L5Y5NLNvlSsz66W5b19qu2aoNq8tDcaF2kUmr9Y2fLmVQP6nf-Wi9cacnA93Qa5yWWu6hd8wzWa41OaDscJfNtnmoS_HmF48t35ZnE-79EAUyhVpPjNAa6jREDtirGrZf-ypJkXFr4loJQPvXRvzgtcIc1Pax1eu89NmWW7Dd0Z-DtXZtdWSteS_ijNWzRaJX_pmPwkP8Eg6WkZpJF3xTsDdPpdL-OnO3QxRSmFgHPhaX-LuClZpniEEVpKnheOMUuvQCpdmztDASdF0PiVmW3embi7kBINJcWvDj04HzpSsPraCgJJXGn3QBHFRDe4QLKEzeqyGWMPg5wBG2FSt1o9Sjad0Z4WQd9uEf3dWDpKKlhN3v2RQ_dhGhntmpyy0mmV04YL9m_Ym436wEHhn5oViukI_15kNFfAhPYcUJf_D9YfTNf9vAAPwIvYvJQWj9kAAzUHZMObwMzxGWcJRkefBwBLLr2z6gAsdkP12Mqzr0Mcsdk9YccmztHKHOnhK74fCurk13TFVL1uLfbNFOy4qkaIRg9NU8x-qnWplbJcp0EcLC9sbkn9MqanNuWDSaRGgpjlBlgZx3sHzKkgX49Ro1GyUkbyBuH9KqGFX-aK3Lm7Ben6ju5s13oMCJhrw2gSgp-RUpWOecZKubjnYlN5-HMlC3rmkhPBQJXNB2F6yJdf1AgKSLAdw0hfZ0zf_4no_2Ox7Gd1q7MYJBy_Qw1RQBL-o_kBbxilz5_NwW2XStzs-PDUCJramt598A8gwv9cnVTnj8yaz0NszJMMO0-3uC-C4tsBKyvWlznPr9eIT79x62p3mt5B1cU-5SVBbJ0kytZCFg8BPGW0GzENCYDDhYrdSvq7UeikB8_EDqORAuU4Hw2RCQC9tgyGTxFN_0m00]--></g></svg>